<svg id="Ebene_1" data-name="Ebene 1" xmlns="http://www.w3.org/2000/svg" xmlns:xlink="http://www.w3.org/1999/xlink" viewBox="0 0 352.8 207.6"><defs><style>.cls-1{fill:none;}.cls-2{opacity:0;}.cls-3{clip-path:url(#clip-path);}.cls-4{fill:#ed3624;}.cls-5{fill:#1749b3;}</style><clipPath id="clip-path"><rect class="cls-1" x="-23.7" y="-24" width="419.5" height="297.64"/></clipPath></defs><g class="cls-2"><path d="M193.9,82.3v-29H198v29Z"/><path d="M205.9,82.3v-29H210v29Z"/></g><g class="cls-2"><path d="M244.4,71.6l-4.9-13h1.8l4.1,10.7,3.9-10.7h1.6l-4.7,13Z"/><path d="M252.7,71.7V70.1a5.9,5.9,0,0,0,2.5.5,2.6,2.6,0,0,0,2-.7,2.9,2.9,0,0,0,.8-2.1c0-2-1.4-2.9-4.1-2.9H253V58.6h6.6v1.5h-5.1v3.4a5.7,5.7,0,0,1,3.9,1.2,4,4,0,0,1,1.4,3.2,3.5,3.5,0,0,1-1.3,3A5.2,5.2,0,0,1,255,72Z"/></g><g class="cls-2"><path d="M176.7,99.6v-9h1.6v1.7a3.8,3.8,0,0,1,3.2-1.9,2.5,2.5,0,0,1,1.9.7,3.2,3.2,0,0,1,.7,2v6.5h-1.7V93.7a2.8,2.8,0,0,0-.3-1.5,1,1,0,0,0-.9-.4c-1,0-2,.6-2.9,2v5.8Z"/></g><g class="cls-2"><path d="M9.3,124V111h1.8v6.4l5.2-6.4h1.9l-5.1,6.2,6,6.8H16.8l-5.7-6.6V124Z"/></g><g class="cls-2"><path d="M244,144.2V130.4h1.8v6.8l5.6-6.8h1.9l-5.4,6.6,6.4,7.2h-2.5l-6-7v7Z"/></g><g class="cls-2"><path d="M306.4,142.2l-4.1-10.9h1.5l3.4,8.9,3.2-8.9h1.4l-4,10.9Z"/><path d="M313.1,142.1v-1.3a7.9,7.9,0,0,0,2.5.6,2.5,2.5,0,0,0,1.7-.6,2.1,2.1,0,0,0,.6-1.6c0-1.5-1-2.3-3.2-2.3h-.6v-1h.6q3,0,3-2.1c0-1.1-.7-1.7-2-1.7a4.9,4.9,0,0,0-2.4.7v-1.3a7.3,7.3,0,0,1,2.5-.4c2.2,0,3.3.8,3.3,2.5a2.7,2.7,0,0,1-2.2,2.7c1.7.4,2.6,1.4,2.6,2.9a3.3,3.3,0,0,1-1,2.4,4.1,4.1,0,0,1-2.8.9A9.7,9.7,0,0,1,313.1,142.1Z"/></g><g class="cls-2"><path d="M49.8,138.9v-1.2H51v1.2Zm0,7.5V140H51v6.4Z"/></g><g class="cls-2"><path d="M213.2,159.2v-1.7a3,3,0,0,1-3,1.9,3.2,3.2,0,0,1-2.6-1.2,5.3,5.3,0,0,1-.9-3.2,6,6,0,0,1,1.1-3.7,3.3,3.3,0,0,1,2.8-1.3,3.4,3.4,0,0,1,2.6,1.2V146h1.7v13.2Zm0-6.9a3.7,3.7,0,0,0-2.4-1.1c-1.6,0-2.3,1.2-2.3,3.6s.7,3.2,2.1,3.2a3.4,3.4,0,0,0,2.6-1.5Z"/></g><g class="cls-2"><path d="M245.6,210.8a3,3,0,0,1-2.4-1,4,4,0,0,1-.8-2.6,3.6,3.6,0,0,1,.9-2.6,2.7,2.7,0,0,1,2.4-1,3,3,0,0,1,2.4,1,3.6,3.6,0,0,1,.9,2.6,4,4,0,0,1-.9,2.7A3.3,3.3,0,0,1,245.6,210.8Zm0-.9c1.4,0,2-.9,2-2.7s-.6-2.7-1.9-2.7-2,.9-2,2.7S244.3,209.9,245.6,209.9Z"/><path d="M250.9,210.7v-7h1.2V205a2.4,2.4,0,0,1,2.2-1.4h.4v1.2h-.6a2.3,2.3,0,0,0-2,1.4v4.6Z"/></g><g class="cls-3"><path d="M35.6,109.4a.4.4,0,0,1-.4-.4.5.5,0,0,1,.4-.5H67.3a.5.5,0,0,1,.4.5.4.4,0,0,1-.4.4Z"/><path d="M41.4,119a.4.4,0,0,1,0-.8H58.2a.4.4,0,0,1,0,.8Z"/><path d="M213.9,13.9a.3.3,0,0,1,.3-.3.5.5,0,0,1,.3.3V38.7a.3.3,0,0,1-.3.3.3.3,0,0,1-.3-.3Z"/><path d="M205.8,13.9l.3-.3a.3.3,0,0,1,.3.3V38.7a.3.3,0,0,1-.3.3.3.3,0,0,1-.3-.3Z"/><path d="M214.2,38.4a.5.5,0,0,1,.3.3.3.3,0,0,1-.3.3h-8.1a.3.3,0,0,1-.3-.3.5.5,0,0,1,.3-.3Z"/><path d="M205.9,30.7a.2.2,0,0,1,.3-.1c.2,0,.2.2.2.3s-.2.2-.3.2h0c-.1,0,.1-.2.1-.1h0c0,.1-.1.3-.2.3s-.3,0-.3-.2a.4.4,0,0,1-.1-.3c.1-.1.1-.2.2-.2h.1"/><path d="M214.2,13.6a.5.5,0,0,1,.3.3.3.3,0,0,1-.3.3h-8.1a.3.3,0,0,1-.3-.3l.3-.3Z"/><path d="M51.9,109a.5.5,0,0,1-.5.4.4.4,0,0,1-.4-.4V93.1a.4.4,0,0,1,.4-.4.5.5,0,0,1,.5.4Z"/><path d="M51,118.6a.4.4,0,0,1,.4-.4.5.5,0,0,1,.5.4v16.6a.5.5,0,0,1-.5.4.4.4,0,0,1-.4-.4Z"/><path d="M213.9,77.3a.3.3,0,0,1,.3-.3.3.3,0,0,1,.3.3v24.8c0,.1-.2.2-.3.2s-.3-.1-.3-.2Z"/><path d="M205.8,77.3a.3.3,0,0,1,.3-.3.3.3,0,0,1,.3.3v24.8c0,.1-.1.2-.3.2s-.3-.1-.3-.2Z"/><path d="M214.2,101.8a.3.3,0,0,1,.3.3c0,.1-.2.2-.3.2h-8.1c-.1,0-.3-.1-.3-.2a.3.3,0,0,1,.3-.3Z"/><path d="M205.9,94.1l.3-.2a.4.4,0,0,1,.2.4l-.3.2h.1a.5.5,0,0,1-.2.4l-.3-.2c-.1-.1-.1-.2-.1-.4h.3"/><path d="M214.2,77a.3.3,0,0,1,.3.3c0,.1-.2.2-.3.2h-8.1c-.1,0-.3-.1-.3-.2a.3.3,0,0,1,.3-.3Z"/><path d="M213.8,163.4a.3.3,0,0,1,.3-.3c.1,0,.2.1.2.3v24.8a.2.2,0,0,1-.2.2c-.2,0-.3-.1-.3-.2Z"/><path d="M205.7,163.4a.3.3,0,0,1,.3-.3c.1,0,.2.1.2.3v24.8a.2.2,0,0,1-.2.2c-.2,0-.3-.1-.3-.2Z"/><path d="M214.1,187.9c.1,0,.2.1.2.3a.2.2,0,0,1-.2.2H206c-.2,0-.3-.1-.3-.2a.3.3,0,0,1,.3-.3Z"/><path d="M205.7,180.2a.4.4,0,0,1,.4-.2c.1.1.2.2.1.4l-.2.2h.1a.3.3,0,0,1-.6.2v-.4l.2-.2h0"/><path d="M214.1,163.1c.1,0,.2.1.2.3l-.2.2H206c-.2,0-.3-.1-.3-.2a.3.3,0,0,1,.3-.3Z"/><path d="M23.2,112.6a10.9,10.9,0,0,0-1.5-5.6,11.2,11.2,0,0,0-9.7-5.6A10.8,10.8,0,0,0,6.4,103a11.1,11.1,0,0,0-5.6,9.6,12.1,12.1,0,0,0,1.5,5.7,11.4,11.4,0,0,0,9.7,5.6,11.1,11.1,0,0,0,5.7-1.6,11.1,11.1,0,0,0,5.5-9.7m.8,0A11.9,11.9,0,0,1,18.1,123a11.7,11.7,0,0,1-6.1,1.7,12.1,12.1,0,0,1-10.4-6A12.3,12.3,0,0,1,0,112.6a11.8,11.8,0,0,1,6-10.3,11.1,11.1,0,0,1,6-1.7,11.9,11.9,0,0,1,10.4,6,11.2,11.2,0,0,1,1.6,6"/><path d="M259.6,175.8a11,11,0,0,0-1.5-5.7,11.2,11.2,0,0,0-9.7-5.5,10.7,10.7,0,0,0-5.6,1.5,11,11,0,0,0-5.6,9.7,12,12,0,0,0,1.5,5.6,11.4,11.4,0,0,0,9.7,5.6,11.3,11.3,0,0,0,11.2-11.2m.8,0a11.9,11.9,0,0,1-5.9,10.3,11.7,11.7,0,0,1-6.1,1.7,12.1,12.1,0,0,1-10.4-6,12.2,12.2,0,0,1-1.6-6,11.9,11.9,0,0,1,6-10.4,11.1,11.1,0,0,1,6-1.7,12.1,12.1,0,0,1,10.4,6,12.3,12.3,0,0,1,1.6,6.1"/><path d="M221.3,132.9a10.7,10.7,0,0,0-1.5-5.6,11.2,11.2,0,0,0-9.7-5.6,11,11,0,0,0-5.6,1.6,11.2,11.2,0,1,0,16.8,9.6m.9,0a11.9,11.9,0,0,1-6,10.4,11.4,11.4,0,0,1-6.1,1.7,12.2,12.2,0,0,1-12-12.1,12.1,12.1,0,0,1,6-10.4,12.2,12.2,0,0,1,6-1.6,11.9,11.9,0,0,1,10.4,6,11.3,11.3,0,0,1,1.7,6"/><path d="M259.6,132.4a11,11,0,0,0-1.5-5.7,11.2,11.2,0,0,0-9.7-5.5,10.7,10.7,0,0,0-5.6,1.5,11,11,0,0,0-5.6,9.7,12,12,0,0,0,1.5,5.6,11.4,11.4,0,0,0,9.7,5.6,11.3,11.3,0,0,0,11.2-11.2m.8,0a11.9,11.9,0,0,1-5.9,10.3,11.7,11.7,0,0,1-6.1,1.7,12.1,12.1,0,0,1-10.4-6,12.2,12.2,0,0,1-1.6-6,11.9,11.9,0,0,1,6-10.4,11.1,11.1,0,0,1,6-1.7,12.1,12.1,0,0,1,10.4,6,12.6,12.6,0,0,1,1.6,6.1"/><path d="M323.7,132.4a11.1,11.1,0,0,0-11.2-11.2,10.7,10.7,0,0,0-5.6,1.5,11.2,11.2,0,0,0-5.6,9.7,11,11,0,0,0,1.6,5.6,11.2,11.2,0,0,0,20.8-5.6m.9,0a12.2,12.2,0,0,1-12.1,12,12.1,12.1,0,0,1-10.4-6,12.2,12.2,0,0,1-1.6-6,11.9,11.9,0,0,1,6-10.4,11.3,11.3,0,0,1,6-1.7,11.9,11.9,0,0,1,10.4,6,11.7,11.7,0,0,1,1.7,6.1"/><path d="M259.6,60.5a11,11,0,0,0-1.5-5.7,11.2,11.2,0,0,0-9.7-5.5,10.7,10.7,0,0,0-5.6,1.5,11,11,0,0,0-5.6,9.7,12,12,0,0,0,1.5,5.6,11.4,11.4,0,0,0,9.7,5.6,11.3,11.3,0,0,0,11.2-11.2m.8,0a11.9,11.9,0,0,1-5.9,10.3,11.7,11.7,0,0,1-6.1,1.7,12.1,12.1,0,0,1-10.4-6,12.2,12.2,0,0,1-1.6-6,11.9,11.9,0,0,1,6-10.4,11.1,11.1,0,0,1,6-1.7,12.1,12.1,0,0,1,10.4,6,12.6,12.6,0,0,1,1.6,6.1"/><path d="M55.1,139.1a3.7,3.7,0,0,0-3.5-3.5,3.6,3.6,0,0,0-3.1,5.3,3.7,3.7,0,0,0,3.1,1.7,3.3,3.3,0,0,0,1.7-.4,3.5,3.5,0,0,0,1.8-3.1m.8,0a4.5,4.5,0,0,1-2.2,3.8,4.7,4.7,0,0,1-2.1.6,4.5,4.5,0,0,1-3.8-2.2,5.1,5.1,0,0,1-.6-2.2,4.2,4.2,0,0,1,2.2-3.7,4,4,0,0,1,2.2-.6,4.2,4.2,0,0,1,3.7,2.2,3.7,3.7,0,0,1,.6,2.1"/><path d="M54.8,89.2a3.9,3.9,0,0,0-.4-1.8,3.7,3.7,0,0,0-3.1-1.7,3.7,3.7,0,0,0-3.5,3.5,4.1,4.1,0,0,0,.5,1.8,3.6,3.6,0,0,0,3,1.7,3.5,3.5,0,0,0,3.5-3.5m.9,0a4.2,4.2,0,0,1-2.2,3.7,4,4,0,0,1-2.2.6,4.4,4.4,0,0,1-3.7-2.1,4.3,4.3,0,0,1-.6-2.2,4.2,4.2,0,0,1,2.2-3.7,3.7,3.7,0,0,1,2.1-.6A4.4,4.4,0,0,1,55.1,87a4.3,4.3,0,0,1,.6,2.2"/><path d="M213.6,4.3a3.3,3.3,0,0,0-.4-1.7A3.5,3.5,0,0,0,210.1.8a3.4,3.4,0,0,0-1.7.5,3.4,3.4,0,0,0-1.8,3,3.5,3.5,0,0,0,.5,1.8,3.6,3.6,0,0,0,3,1.7,3.4,3.4,0,0,0,1.8-.4,3.8,3.8,0,0,0,1.7-3.1m.9,0a4.5,4.5,0,0,1-2.2,3.8,5.1,5.1,0,0,1-2.2.5,4.2,4.2,0,0,1-3.7-2.1,4,4,0,0,1-.6-2.2A4.2,4.2,0,0,1,208,.6a3.7,3.7,0,0,1,2.1-.6,4.6,4.6,0,0,1,3.8,2.1,4.3,4.3,0,0,1,.6,2.2"/><path d="M213.6,112.6a3.3,3.3,0,0,0-.4-1.7,3.5,3.5,0,0,0-3.1-1.8,3.4,3.4,0,0,0-1.7.5,3.5,3.5,0,0,0-1.8,3,3.5,3.5,0,0,0,.5,1.8,3.5,3.5,0,0,0,3,1.8,3.5,3.5,0,0,0,1.8-.5,3.7,3.7,0,0,0,1.7-3.1m.9,0a4.5,4.5,0,0,1-2.2,3.8,4,4,0,0,1-2.2.6,4.3,4.3,0,0,1-3.7-2.2,4,4,0,0,1-.6-2.2,4.5,4.5,0,0,1,2.2-3.7,3.7,3.7,0,0,1,2.1-.6,4.5,4.5,0,0,1,3.8,2.2,3.9,3.9,0,0,1,.6,2.1"/><path d="M213.6,151.8a3.9,3.9,0,0,0-.4-1.8,3.7,3.7,0,0,0-3.1-1.7,3.7,3.7,0,0,0-3.5,3.5,3.5,3.5,0,0,0,.5,1.8,3.6,3.6,0,0,0,3,1.7,3.5,3.5,0,0,0,3.5-3.5m.9,0a4.2,4.2,0,0,1-2.2,3.7,4,4,0,0,1-2.2.6,4.2,4.2,0,0,1-3.7-2.1,4,4,0,0,1-.6-2.2,4.2,4.2,0,0,1,2.2-3.7,3.7,3.7,0,0,1,2.1-.6,4.6,4.6,0,0,1,3.8,2.1,4.3,4.3,0,0,1,.6,2.2"/><path d="M213.5,203.2a3.5,3.5,0,0,0-7,0,3.6,3.6,0,0,0,5.3,3.1,3.7,3.7,0,0,0,1.7-3.1m.8,0a4.4,4.4,0,0,1-2.1,3.8,5.1,5.1,0,0,1-2.2.6,4.2,4.2,0,0,1-3.7-2.2,4,4,0,0,1-.6-2.2,4.3,4.3,0,0,1,2.1-3.7,4.3,4.3,0,0,1,2.2-.6,4.5,4.5,0,0,1,3.8,2.2,4.6,4.6,0,0,1,.5,2.1"/><path d="M251.9,203.2a3.5,3.5,0,0,0-7,0,3.6,3.6,0,0,0,5.3,3.1,3.7,3.7,0,0,0,1.7-3.1m.8,0a4.4,4.4,0,0,1-2.1,3.8,5.1,5.1,0,0,1-2.2.6,4.2,4.2,0,0,1-3.7-2.2,4,4,0,0,1-.6-2.2,4.3,4.3,0,0,1,2.1-3.7,4.3,4.3,0,0,1,2.2-.6,4.5,4.5,0,0,1,3.8,2.2,4.6,4.6,0,0,1,.5,2.1"/><path d="M316,203.2a3.3,3.3,0,0,0-.4-1.7,3.5,3.5,0,0,0-3.1-1.8,3.7,3.7,0,0,0-3.5,3.5,3.6,3.6,0,0,0,5.3,3.1,3.7,3.7,0,0,0,1.7-3.1m.9,0a4.5,4.5,0,0,1-2.2,3.8,5.1,5.1,0,0,1-2.2.6,4.2,4.2,0,0,1-3.7-2.2,4,4,0,0,1-.6-2.2,4.2,4.2,0,0,1,2.2-3.7,3.7,3.7,0,0,1,2.1-.6,4.5,4.5,0,0,1,3.8,2.2,4.7,4.7,0,0,1,.6,2.1"/><path d="M251.9,4.3a3.4,3.4,0,0,0-.5-1.7,3.3,3.3,0,0,0-4.7-1.3,3.4,3.4,0,0,0-1.8,3,3.5,3.5,0,0,0,3.5,3.5,3.4,3.4,0,0,0,1.8-.4,3.8,3.8,0,0,0,1.7-3.1m.8,0a4.4,4.4,0,0,1-2.1,3.8,5.1,5.1,0,0,1-2.2.5,4.1,4.1,0,0,1-3.7-2.1,4,4,0,0,1-.6-2.2A4.3,4.3,0,0,1,246.2.6a4.3,4.3,0,0,1,2.2-.6,4.6,4.6,0,0,1,3.8,2.1,5.4,5.4,0,0,1,.5,2.2"/><path d="M209.6,38.8a.4.4,0,0,1,.6-.1.3.3,0,0,1,.1.5c-.1.1,0-.1,0-.1h0v.3a3.3,3.3,0,0,1,0,1c.1,1.8,0,3.6.1,5.3a25.3,25.3,0,0,1,.1,2.8,15.6,15.6,0,0,0,.1,2.5.4.4,0,0,1-.3.5c-.2.1-.4,0-.5-.3a11.2,11.2,0,0,1-.1-2.7c0-1-.1-1.9-.1-2.7s-.1-3.6-.1-5.4V38.9h.1m.8.5a.4.4,0,0,1-.4.4c-.2.1-.4-.1-.4-.3v-.3h0s.1.1,0,.1a.5.5,0,0,1,.1-.6.5.5,0,0,1,.5,0c.1.1.1.1.1.2a.1.1,0,0,1,.1.1v.3"/><path d="M209.8,62.5c-.1-.2.1-.4.3-.4a.3.3,0,0,1,.5.3h0v.3c0,1.7-.2,4.4-.1,6.4a30.8,30.8,0,0,1,0,4.3c0,.6-.1,1.1-.1,1.7v2h0s-.1-.2,0-.1h-.7c.1,0,0,.1,0,.1h0a5.4,5.4,0,0,0,.1-.8.7.7,0,0,1,.5-.4c.2.1.4.3.3.5a5.5,5.5,0,0,1-.1.9v.2H210c-.2,0-.3-.1-.3-.2a.3.3,0,0,1-.1-.2V75.1a10.3,10.3,0,0,1,.1-1.7,29.3,29.3,0,0,0,0-4.2c-.1-2.1.1-4.8.1-6.4v-.2h0m.8.4a.4.4,0,0,1-.4.4.4.4,0,0,1-.4-.4v-.3h0c0-.2.2-.4.4-.3a.4.4,0,0,1,.4.4h0v.3"/><path d="M209.6,50.4a.5.5,0,0,1,.3.6.4.4,0,0,1-.5.2h.2l-.4.3L208,53l-1.9,2.2c-1.3,1.4-2.3,2.1-3.1,2.9l-1,1.1a13,13,0,0,1-1.5,1.8,6,6,0,0,1-1.2,1.1l-.5.4-.4.7-.7,1-.2.2h-.4a.5.5,0,0,1-.4-.3V64c0-.1.1-.2.1-.3a.4.4,0,0,1,.5-.2c.2.1.4.3.3.5h-.1c0,.1-.2-.2-.1-.1H197c.1,0-.1.1,0,.1h0a4.3,4.3,0,0,0,.7-1,5.6,5.6,0,0,0,.5-.8l.6-.5,1.1-.9,1.5-1.8,1-1.2c.8-.8,1.8-1.5,3.1-2.9l1.9-2.2,1.2-1.3.4-.5h.6"/><path d="M209,51.6c.2-.1.5,0,.5.2s0,.5-.2.5.1,0,.1,0h0l-.4.3c-.1.2-.4.2-.6,0a.5.5,0,0,1,.1-.6l.4-.3s-.1,0,.1-.1M198.2,63.3a.4.4,0,0,1-.4.4.5.5,0,0,1-.4-.5h0a3.5,3.5,0,0,1,.5-.8c.8-1.1,2.5-2.5,3.8-3.9l3-3c.6-.6,1.3-1.4,2.1-2.1l1.1-1,.4-.3.6-.4h-.1a.5.5,0,0,1,.6-.2c.2.1.2.4.1.6s-.1.1-.1.1l-.6.5-.4.3-1,.9-2.2,2.1L202.3,59c-1.4,1.5-3.1,2.9-3.8,3.9s-.3.4-.3.5h0m-1.1.6c-.2.2-.4.1-.6,0s-.1-.5.1-.6l2-1.9c1.1-1.2,2.7-2.6,4-3.9l3.5-3.2,1.7-1.6L209,52l.8-.7.3-.4H210c0-.1.1.2.1.1s.2.2.1.2h.2c-.1-.1.1-.1.1,0h0l-.5.4-1.5,1.5-2,2.1-1.2,1.2-2.5,2.7-1.7,1.7-1.1,1-.6.5-.6.4-.5.4a.1.1,0,0,0-.1.1h-.1c-.2.1-.5.1-.6-.1s-.1-.4.1-.5-.1,0-.1,0h0a.1.1,0,0,0,.1-.1l.3-.2.4-.3.6-.4.5-.5,1.2-1,1.6-1.6,2.5-2.7,1.2-1.3,2-2,1.6-1.6c.2-.2.4-.3.5-.5h.2s0-.1.3-.1.3.3.3.4v.2l-.4.7-.9.7-1.2.8a11,11,0,0,0-1.6,1.5l-3.5,3.2c-1.4,1.2-2.9,2.7-4,3.8s-1.5,1.4-2.1,2"/><path d="M200.2,58.4a.4.4,0,1,1,0,.8c-.2,0-.2-.1-.2-.1h-.2l-.6-.2a18.1,18.1,0,0,0-3.1-.5h-2.8s.1-.2.1-.1v-.3c0,.1-.1-.2,0-.1h6.8q.2,0,.3.3c.1.3-.1.4-.1.5H200l-.6.2a8.7,8.7,0,0,1-3.9.2,3.1,3.1,0,0,1-1.4-.7l-.4-.2-.3-.2h-.3c-.1-.1,0-.4.1-.5a.4.4,0,0,1,.4-.2h.8l1.9.3h2.2s.1,0,.2.2l-.7.3h.2c-.1,0-.2.1-.4,0h-4.1c0-.1-.1-.1-.2-.1a.8.8,0,0,1-.2-.5c.1-.2.3-.4.5-.3a.4.4,0,0,1,.3.5v-.2h0c0,.1-.2-.1-.1-.1h4.4c.1,0,.2,0,.3.3a.4.4,0,0,1-.2.5c-.2.1-.5,0-.5-.2s.1.1,0,.1h-1.8l-1.9-.3h-.6s.1-.2.1-.1.1-.3.1-.2-.1-.3-.1-.2-.1-.1,0-.1h0l.4.2.3.2,1.2.6a9.8,9.8,0,0,0,3.4-.2l.6-.2h0v.2c0-.1.1.1.1.1h-2.7a20.5,20.5,0,0,1-3.5-.1h-.4a.5.5,0,0,1-.5-.3.3.3,0,0,1,0-.4.2.2,0,0,1,.2-.2h3.3a20.9,20.9,0,0,1,3.2.5l.7.3c.1,0,.2,0,.2.1h-.1m-2.4,1c-.1.2-.3.4-.5.3a.3.3,0,0,1-.3-.5c0-.3.3-.5.6-.6l.8-.2h1.7c.2-.1.4,0,.5.3s-.1.4-.3.5h-1.8l-.6.2h-.1"/><path d="M192.2,54.4c.1-.2.4-.2.6-.1s.2.5,0,.6.1,0,0,0h0c-.1.4-.4.9-.6,1.6a16.8,16.8,0,0,0-.8,3.6,4.6,4.6,0,0,0-.1,1h0c0,.1-.2-.1-.1-.1s-.3,0-.2,0-.2.1-.2,0,0,.1,0,.1a.1.1,0,0,1,.1-.1.4.4,0,0,1,.5-.2.5.5,0,0,1,.2.6,1.1,1.1,0,0,1-.5.4l-.5-.2a.4.4,0,0,0-.1-.3V60a34.2,34.2,0,0,1,.9-3.8,6.2,6.2,0,0,1,.7-1.6h0a.1.1,0,0,1,.1-.1m-.7,5.6a.4.4,0,0,1-.4.4c-.2-.1-.4-.2-.4-.5h0a.3.3,0,0,0,.1-.2c.1-.4.3-1,.4-1.5s.5-1.8.7-2.5a5.1,5.1,0,0,0,.2-.9h0a.4.4,0,0,1,.3-.5.4.4,0,0,1,.5.2c.1.2,0,.2,0,.2v.2a5.1,5.1,0,0,1-.2.9c-.2.7-.4,1.7-.7,2.5s-.3,1.1-.4,1.5-.1.1-.1.2h0m.2-5a.5.5,0,0,1,.6.1c.1.2.1.5-.1.6h0V56c-.1.2-.1.6-.2.9s-.3,1.8-.4,2.5a2.2,2.2,0,0,1-.1.6h0c0,.2-.2.4-.4.3a.4.4,0,0,1-.4-.4h0c0-.2.1-.3.1-.6s.3-1.6.4-2.5.1-.6.2-.9v-.4a1.3,1.3,0,0,1,.3-.5m-.4,7.1c.1.2-.1.4-.3.5a.5.5,0,0,1-.5-.3h0c.1-.4.2-1.1.4-1.8s.4-2.2.5-3.2.1-.6.2-.9v-.4h0a.4.4,0,0,1-.1-.3h0a.4.4,0,0,1,.4-.4.5.5,0,0,1,.5.3h0s-.1-.1-.1,0,.1.5.1.9-.1.6-.2.9-.3,2.2-.5,3.2a12.5,12.5,0,0,0-.4,1.8h0m1.7-6.8a.4.4,0,0,1-.4.4c-.3,0-.5-.2-.4-.4h0c0-.1.1.1.1,0h.5c0,.1.1-.1.1,0h0c0,.1-.1.2-.1.4s-.3,1-.4,1.6-.5,2.2-.7,3.1a11.1,11.1,0,0,0-.3,1.3c0,.2,0,.3-.1.4v.2h-.1a.3.3,0,0,1-.5.1c-.2-.2-.3-.4-.1-.6h-.1a.4.4,0,0,0,.1-.3c.1-.3.1-.8.3-1.4s.4-2,.7-3.1.3-1.2.4-1.6a.8.8,0,0,0,.1-.4h.1c0-.1,0-.1.2-.2s.4,0,.5.1.1.2.1.3"/><path d="M192.1,61c-.1.2-.3.4-.5.3a.4.4,0,0,1-.4-.4v-.2l.3-.5c.1-.2.4-.2.6-.1s.2.4.1.6l-.3.4h.1m-.7-5.2a.5.5,0,0,1,.5-.4c.2,0,.4.2.3.4h0v1.8c0,.9-.1,1.9-.1,2.5v.5a.6.6,0,0,1-.1.4h0a.5.5,0,0,1-.6.2c-.2-.1-.2-.4-.1-.6h0c-.1-.2,0-.3,0-.6a25.4,25.4,0,0,1,.1-2.6V55.9h0m.8,5c.1.2-.1.4-.3.4s-.5-.1-.5-.4h0V55.9h0a.4.4,0,0,1,.4-.4c.3,0,.5.2.4.4h0v4.9h0m.3.6a.4.4,0,0,1-.4.4.4.4,0,0,1-.4-.4h0V57c-.1-.5-.1-1-.2-1.4a1.1,1.1,0,0,1-.1-.5h0s.1.1,0,.1.2.1.1.1.3.1.2,0h.2c-.1,0,.2-.1.1-.1s.1,0,.1,0h0a4.1,4.1,0,0,1-.1,1v6h0s-.1-.1,0-.1h-.4c.1,0-.1.1-.1.1h0a13.9,13.9,0,0,0,.3-3.5,8.8,8.8,0,0,0,0-2.3v-.6h.6a8.2,8.2,0,0,0-.1,1.8,22.6,22.6,0,0,0-.1,2.5v.7h0c0,.2-.2.4-.4.3a.4.4,0,0,1-.4-.4h0V60a22.6,22.6,0,0,1,.1-2.5,6.2,6.2,0,0,1,.1-2c0-.1,0-.2.1-.2l.4-.2c.2,0,.3.1.3.2a.1.1,0,0,1,.1.1,1.9,1.9,0,0,1,.1.8,10.4,10.4,0,0,1,0,2.5,14.1,14.1,0,0,1-.1,2.1,3.5,3.5,0,0,1-.3,1.6c0,.1,0,.2-.2.3h-.6a1.1,1.1,0,0,1-.2-.7V60.2c0-1.4-.1-3,0-4.2a2.2,2.2,0,0,1,.2-1.4h.2a.3.3,0,0,1,.4,0c.2.1.2.2.2.3V55a4.3,4.3,0,0,1,.1.5c.1.4.1.9.2,1.5a16.1,16.1,0,0,1,0,3.1v1.2h0m.3-6.6a.5.5,0,0,1-.1.6.5.5,0,0,1-.6-.2h.4c-.1,0,.1-.1,0-.1h0v6.2h0a.4.4,0,0,1-.4.4.4.4,0,0,1-.4-.4h0V57.9a19.1,19.1,0,0,1,0-2.4,1.1,1.1,0,0,1,.2-.8.4.4,0,0,1,.5-.2c.2,0,.3.2.4.3"/><path d="M210.1,77.3a.7.7,0,0,1-.5.4.5.5,0,0,1-.4-.5h0a.5.5,0,0,1,.4-.5.4.4,0,0,1,.4.4h.1m0,.7a.4.4,0,0,1-.5-.2.5.5,0,0,1,.2-.6c.1,0-.1.2-.1.1s-.1.1-.1.1,0,.1,0,.1h0V77c.1-1,.2-2.6.3-4.3a16,16,0,0,0,0-3.1,12.1,12.1,0,0,0-.1-1.9V66.2c0-.3-.1-.7-.1-1V63.9c.1-.1,0-.1.1-.3l.7.4h.1v.7c0,.9.1,1.9,0,3.2a12.3,12.3,0,0,1-.2,1.9,24.2,24.2,0,0,0,0,2.7,25.8,25.8,0,0,1-.3,2.9,3.4,3.4,0,0,1-.1,1v.8h0c.1.2-.1.4-.3.5a.5.5,0,0,1-.5-.4v-1c0-.4.1-.7.1-1.1l.3-2.8a24.2,24.2,0,0,1,0-2.7c.1-.7.1-1.3.2-2V64.1a.8.8,0,0,1,0-.5c.2-.2.4-.3.6-.2s.3.4.1.6h.1a4.3,4.3,0,0,0-.1.5v.7a4.1,4.1,0,0,1,.1,1.1,8.1,8.1,0,0,0,.1,1.5,10.9,10.9,0,0,0,.1,1.8c0,1.1,0,2-.1,3.3s-.2,3.3-.2,4.2a.8.8,0,0,0-.1.4v.2h0c0,.1,0,.2-.3.3m-.4-14.9c.1-.2.3-.4.5-.3a.3.3,0,0,1,.3.5c-.1.5,0,2,0,3.5v9.4a2.8,2.8,0,0,0-.1.9v.4h0s-.1-.1,0-.1a.4.4,0,1,1-.8.4h0V76.2a6.2,6.2,0,0,0,.1-1.3V63.1"/><path d="M194,61.8a.4.4,0,0,1-.4-.4.4.4,0,0,1,.4-.4h15.8a.5.5,0,0,1,.5.4c0,.3-.2.4-.5.4Z"/><path d="M210.1,61.4c.1.2.1.5-.1.6a.5.5,0,0,1-.6-.2c-.1-.2-.1-.2-.1-.3h0s.2.1.1,0h.4s.1-.2.1-.1.1-.2,0-.1h.1a1.1,1.1,0,0,0,.1.5c.1.6.4,1.5.6,2.2s-.1.4-.3.5-.4-.1-.5-.3l-.6-2.2a2.4,2.4,0,0,1-.2-.8.3.3,0,0,1,.1-.2h.3c.4-.1.4.1.4.2s.2.2.2.3"/><path d="M211.1,8.7a.5.5,0,0,1-.4.5.5.5,0,0,1-.5-.4s0-.3-.1-.4h.7c-.1,0,0-.1,0,0h0v.3c-.1.3-.1.7-.2,1.1a12,12,0,0,1-.3,2v1.1a1.3,1.3,0,0,0,.1.6v.2h0c0,.1-.1-.1,0,0l-.6.5c-.2-.1-.2-.2-.2-.3v-.2a.8.8,0,0,0,.1-.4V11.4c0-.3-.1-.6-.1-.9s-.1-.7-.1-1V9.3a.3.3,0,0,1,.3-.3c.3-.1.4.1.5.2l.4.6a.3.3,0,0,1-.1.5.5.5,0,0,1-.6-.1c-.1-.3-.3-.4-.3-.5h0c0-.1.1,0,.1,0h.5c-.1,0,0-.1,0-.1h0a4.1,4.1,0,0,1,.1.9,3.4,3.4,0,0,1,.1,1v2.3h0s-.1-.1-.1,0-.1-.2,0-.1a.5.5,0,0,1,0,.5c-.2.2-.5.2-.6,0s-.1-.2-.2-.3v-.2a1.7,1.7,0,0,1-.1-.7,5.6,5.6,0,0,1,0-1.3,13.8,13.8,0,0,0,.3-2c.1-.4.1-.8.2-1.1s0-.3.1-.4a.4.4,0,0,1,.1-.3c.1,0,.3-.1.5,0a.2.2,0,0,1,.2.2c.1.2.1.5.2.6"/><path d="M52.1,85.3a.4.4,0,1,1-.8,0V4.3a.4.4,0,1,1,.8,0Z"/><path d="M51.4,4.7a.4.4,0,0,1-.4-.4.4.4,0,0,1,.4-.4H206.2a.4.4,0,0,1,.4.4c0,.3-.1.4-.4.4Z"/><path d="M214.1,4.7a.5.5,0,0,1-.5-.4.5.5,0,0,1,.5-.4h30.4a.4.4,0,0,1,.4.4.4.4,0,0,1-.4.4Z"/><path d="M50.8,143a.4.4,0,0,1,.4-.4.5.5,0,0,1,.5.4v61a.5.5,0,0,1-.5.4.4.4,0,0,1-.4-.4Z"/><path d="M51.4,204.4a.4.4,0,0,1,0-.8H206.1a.4.4,0,1,1,0,.8Z"/><path d="M213.9,203.8a.4.4,0,0,1,0-.8l27.6.6a.4.4,0,0,1,.4.4.4.4,0,0,1-.4.4Z"/><path d="M240.7,204.1c-.2-.2-.1-.4.1-.6s.4,0,.6.2h2.5c.2,0,.4,0,.5.2s.2.5.2.7a.4.4,0,0,1-.8-.4h-2.6a.5.5,0,0,1-.5-.3"/><path d="M252.3,203.9a.4.4,0,0,1-.4-.4.4.4,0,0,1,.4-.4l52.6.5a.4.4,0,1,1,0,.8Z"/><path d="M303.8,204.3a.4.4,0,0,1,0-.6.5.5,0,0,1,.6.1h.5l1.2-.3a3.2,3.2,0,0,1,1.7.1l.6.2h.1a.4.4,0,0,1,.6.1.5.5,0,0,1-.2.6c-.3.1-.4,0-.6,0l-.7-.2a3.1,3.1,0,0,0-1.3-.1l-1.2.3a1.3,1.3,0,0,1-1.3-.4"/><path d="M209.4,188.2a.5.5,0,0,1,.4-.5.5.5,0,0,1,.5.5v11.1c0,.3-.2.4-.5.4a.4.4,0,0,1-.4-.4Z"/><path d="M209.4,156.5a.4.4,0,0,1,.4-.4c.3,0,.5.1.5.4v6.9a.5.5,0,0,1-.5.4.4.4,0,0,1-.4-.4Z"/><path d="M209.4,144c0-.3.2-.4.4-.5s.4.2.5.4-.1,1.5-.1,2.2-.1.8-.1,1a.3.3,0,0,1,.1.2h.2c.2,0,.4.2.3.4s-.2.4-.5.4l-.6-.4c-.2-.1-.2-.3-.3-.5a4.9,4.9,0,0,1,.1-1.2,14.7,14.7,0,0,0,0-2.1"/><path d="M209.8,117.1a.4.4,0,1,1,.8,0,7.7,7.7,0,0,1-.3,2.6c-.1.7-.3.7.1,1.4s.1.4-.1.5-.4.1-.5-.1a1.4,1.4,0,0,1-.4-1.1c0-.4.1-.6.1-.9a6.9,6.9,0,0,0,.3-2.4"/><path d="M209.4,102.1a.4.4,0,0,1,.4-.4c.3,0,.5.1.5.4V109a.5.5,0,0,1-.5.4.4.4,0,0,1-.4-.4Z"/><path d="M35.6,109.8a.8.8,0,0,1-.8-.8.8.8,0,0,1,.8-.9H67.3a.9.9,0,0,1,.8.9.9.9,0,0,1-.8.8Z"/><path d="M41.4,119.4a.7.7,0,0,1-.8-.8.8.8,0,0,1,.8-.8H58.2a.8.8,0,0,1,.8.8.7.7,0,0,1-.8.8Z"/><path d="M11.5,124.3a.9.9,0,0,1,.8-.9.8.8,0,0,1,.8.9v14.5a.7.7,0,0,1-.8.8.8.8,0,0,1-.8-.8Z"/><path d="M12,139.6a.8.8,0,0,1-.8-.8.9.9,0,0,1,.8-.8H47.7a.9.9,0,0,1,.8.8.8.8,0,0,1-.8.8Z"/><path d="M247.3,187.4a.8.8,0,0,1,.8-.9.9.9,0,0,1,.8.9v12a.9.9,0,0,1-.8.8.8.8,0,0,1-.8-.8Z"/><path d="M214.1,152.6a.9.9,0,0,1-.9-.8.9.9,0,0,1,.9-.9h35.3a.9.9,0,0,1,.8.9.9.9,0,0,1-.8.8Z"/><path d="M248.4,143.9a.9.9,0,0,1,.8-.8.8.8,0,0,1,.8.8v7.9a.8.8,0,0,1-.8.8.9.9,0,0,1-.8-.8Z"/><path d="M312.3,144a.8.8,0,0,1,.8-.9.9.9,0,0,1,.8.9v55.3a.8.8,0,0,1-.8.8.7.7,0,0,1-.8-.8Z"/><path d="M253.8,3.6a.5.5,0,0,1,.6.1.5.5,0,0,1-.1.6h-.1l-.2.2c-.2.1-.4.1-.5-.1a.5.5,0,0,1,0-.6l.3-.2h0m.4.7a.3.3,0,0,1-.5-.1c-.2-.2-.1-.4.1-.6h0a.5.5,0,0,1,.6.1.5.5,0,0,1-.1.6h-.1"/><path d="M252.3,4.7a.4.4,0,0,1-.4-.4.4.4,0,0,1,.4-.4H352.4a.4.4,0,0,1,.4.4.4.4,0,0,1-.4.4Z"/><path d="M316.4,204.2a.4.4,0,0,1,0-.8h36a.4.4,0,0,1,0,.8Z"/><path d="M209.4,13.9a.4.4,0,0,1,.4-.4.5.5,0,0,1,.5.4V38.7a.5.5,0,0,1-.5.4.4.4,0,0,1-.4-.4Z"/><path class="cls-4" d="M12.3,89.3a.7.7,0,0,1-.8-.8.8.8,0,0,1,.8-.8H47.6a.9.9,0,0,1,.8.8.8.8,0,0,1-.8.8Z"/><path class="cls-4" d="M13.1,101a.8.8,0,1,1-1.6,0V88.5a.8.8,0,1,1,1.6,0Z"/><path class="cls-4" d="M52.1,88.5a.9.9,0,0,1-1.2.1.9.9,0,0,1-.2-1.1h0v.2c0-.1.1.3,0,.2l.2.2h-.5c-.1,0,0,0-.1.2s-.1.5-.1.7v.4h1.8l.5-.6a8.4,8.4,0,0,0,.4-1.2v-.5c0-.1.1.1.1.1h-.2a1.8,1.8,0,0,0-.9.2,2,2,0,0,0-1,.9,6.1,6.1,0,0,0-.7,1.4v.5c0,.1-.2-.3-.2-.2s0-.1,0-.1h.3s-.1,0,0-.1l.3-.5v-.3h-.1c-.1,0,.3-.2.2-.2s.1,0,.1,0-.1.1-.1.2v.3h0l-.2-.2h-.1l.3-.4a.4.4,0,0,0,.1-.3v.2h-.1a1.1,1.1,0,0,0-.4.5V90h0v-.2l-.2-.2h-.1c.1,0,.2-.2.4-.5h0s.1.2,0,.2.2.2.1.1l.2.2h.7c-.1.1,0,0,0,.1a.1.1,0,0,0-.1.1c-.1.1,0-.2,0-.2v.7a.9.9,0,0,1-1,.6.8.8,0,0,1-.6-1c0-.1-.2-.2.1-.8l.5-.6.3-.3h1c.2.1.3.4.4.5a4.3,4.3,0,0,0,.1.5,3.2,3.2,0,0,1-.3.9,2.3,2.3,0,0,1-1.2,1.2h-.9a1.2,1.2,0,0,1-.8-.6c-.3-.6-.1-.8-.2-.9a2,2,0,0,1,.2-1,2.2,2.2,0,0,1,1.6-1.5,2.1,2.1,0,0,1,1.1.1,1.6,1.6,0,0,1,.8,1,2,2,0,0,1-.2,1.3l-.6.9a1.7,1.7,0,0,1-1.3.4h-.5a1,1,0,0,1-.7-.7,3.2,3.2,0,0,1,0-1,1.9,1.9,0,0,1,.2-.7,1.1,1.1,0,0,1,.8-.7,2,2,0,0,1,1.1,0,1.9,1.9,0,0,1,1,1.3,2.2,2.2,0,0,1-.1,1.1,2.4,2.4,0,0,1-.5,1,1.8,1.8,0,0,1-1.1.7h-1a1.4,1.4,0,0,1-.9-.8,4.7,4.7,0,0,1,0-1.2,6.2,6.2,0,0,1,1-2.2,5.2,5.2,0,0,1,1.6-1.4,3.4,3.4,0,0,1,2-.3l.7.4a1,1,0,0,1,.6.8,4.8,4.8,0,0,1,0,1.2,5.2,5.2,0,0,1-.6,1.6,2.2,2.2,0,0,1-1.3,1.4,1.3,1.3,0,0,1-.8.1H50.6a2.3,2.3,0,0,1-1.5-.7,2,2,0,0,1-.5-1.4,3.4,3.4,0,0,1,.2-1.4,2.1,2.1,0,0,1,1-1.1,2,2,0,0,1,1.3-.1,1.2,1.2,0,0,1,.9.4c.2.1.3.5.3.7a1.4,1.4,0,0,1-.2.7"/><path class="cls-4" d="M46.9,89.6a.8.8,0,0,1-.6-1,.7.7,0,0,1,.9-.6l1.5-.4h1.8c.1.1.3.1.4.3a.8.8,0,0,1,.2.5.8.8,0,0,1-.2.6c-.2.2-.3.3-.5.3a2.4,2.4,0,0,1-1.5-.1h-.2v-.6l-.2-.3-.2-.2H50l-.2.3c0-.2-.1.6-.1.4s.2.4.1.3l.2.2h.1c0-.1-.2-.1-.4-.1h-.1c-.1,0,.2-.1.1-.1s.3-.4.2-.3,0-.3.1-.2-.1-.1,0,0a.8.8,0,0,1-.2,1.2.9.9,0,0,1-1.1-.2,1.6,1.6,0,0,1-.4-.7,1.3,1.3,0,0,1,.4-1,1.2,1.2,0,0,1,1.2-.3l.9.3H51a.6.6,0,0,1,.3.5.8.8,0,0,1-.3.8.4.4,0,0,1-.4.2H48a.9.9,0,0,1-.6-.3.8.8,0,0,1-.2-.8l.3-.5a1.1,1.1,0,0,1,.7-.3h1.5v.6c0-.1.1.3,0,.2l.2.3H49a5.6,5.6,0,0,1-2.1.4"/><path class="cls-4" d="M52.9,88.2a.7.7,0,0,1-.7.9.7.7,0,0,1-.9-.7h.3l-.2.3a2.4,2.4,0,0,0-.6,1.1,1.1,1.1,0,0,0-.1.5c0,.1-.2-.4-.1-.3h.5l.5-.3.2-.3c.1-.2.1-.3,0-.4h-1a.8.8,0,0,1-.2.5v.3a.4.4,0,0,0,.1.3h.2a3,3,0,0,0,.8-.8v-.4c0-.1.1.1,0,.1s-.2-.1-.3-.1a.6.6,0,0,0-.5.2.7.7,0,0,0-.4.5,1,1,0,0,0-.1.4h.4l.4-.5a.7.7,0,0,0,.1-.5c0-.1-.1-.2-.1-.3h-.1l-.4.3a1.3,1.3,0,0,0-.4.7.4.4,0,0,0-.1.3h0c0,.1-.2-.2-.1-.2h.5c.1,0,.3-.5.4-1a1,1,0,0,0,.1-.4H51a3.4,3.4,0,0,0-.5,1.6h.1a.7.7,0,0,0,.5-.3,1.2,1.2,0,0,0,.1-.5v-.2H51v.3c0,.1-.2-.4-.2-.3h1a.8.8,0,0,1,.9.8.8.8,0,0,1-.7.9H50.7a1.3,1.3,0,0,1-.8-.3.9.9,0,0,1-.5-.9,1.5,1.5,0,0,1,.1-1.1,2.2,2.2,0,0,1,1.3-1h.9a1.5,1.5,0,0,1,.9.7,1.8,1.8,0,0,1,.2.9,2.1,2.1,0,0,1-.4,1.6,2,2,0,0,1-1.9.9,1.6,1.6,0,0,1-1.1-.5,1.2,1.2,0,0,1-.5-1A3.5,3.5,0,0,1,50,87.1a1.9,1.9,0,0,1,1.7-.4,1.5,1.5,0,0,1,1,1.1,2.5,2.5,0,0,1-.1,1.2,2.6,2.6,0,0,1-1.1,2,2,2,0,0,1-1.3.4,1.3,1.3,0,0,1-.8-.2,1.2,1.2,0,0,1-.7-.7,1.6,1.6,0,0,1,0-1.2,2.5,2.5,0,0,1,.8-1.4,2.3,2.3,0,0,1,1.6-.8h.6a1.2,1.2,0,0,1,.8.4,1.9,1.9,0,0,1,.4,1.3,3,3,0,0,1-.2,1.3,2.3,2.3,0,0,1-1,1.2,1.7,1.7,0,0,1-1.7.2,1.4,1.4,0,0,1-1.1-1,2,2,0,0,1,.1-1.7,3.1,3.1,0,0,1,.9-1.1,2.2,2.2,0,0,1,2.6-.3,1.5,1.5,0,0,1,.8,1.1,2.9,2.9,0,0,1-.1,1.3,2.6,2.6,0,0,1-1.8,1.7l-.9.2a2.7,2.7,0,0,1-1.1-.5A1.6,1.6,0,0,1,49,90a3.8,3.8,0,0,1,.1-1,5.9,5.9,0,0,1,.4-.8,1.8,1.8,0,0,1,.9-.8,3.1,3.1,0,0,1,1.3-.1l1,.4a1.5,1.5,0,0,1,.7,1,2.4,2.4,0,0,1,0,1.2,2.4,2.4,0,0,1-.5.9,3.8,3.8,0,0,1-1.3.9,3.3,3.3,0,0,1-1.4.1l-.7-.4a1,1,0,0,1-.4-.9,3.4,3.4,0,0,1,.1-1,11.9,11.9,0,0,1,.8-1.6l.6-.6a1.1,1.1,0,0,1,1-.3,1.2,1.2,0,0,1,.9.4,1.2,1.2,0,0,1,.4.8"/><path class="cls-4" d="M211.1,110.8a1,1,0,0,1-.3,1.2.8.8,0,0,1-1.1-.3l-.4-.3-.4.3a2.4,2.4,0,0,0-.4,1.6.1.1,0,0,0,.1.1l.3.3h.1l.3-.4a8.4,8.4,0,0,0,.4-1.2l.2-.6h-.3a3.4,3.4,0,0,0-.7,1.3,2.8,2.8,0,0,0-.1.9c0,.1-.1.1,0,.1h.5a1.9,1.9,0,0,0,.7-.8,1.4,1.4,0,0,0,.2-.6,1.3,1.3,0,0,0,.1-.5c-.1,0-.1-.1-.1-.2h.1c0,.1-.2.1-.3.1h0l-.6.5a1.7,1.7,0,0,0-.1.7.3.3,0,0,0-.1.2h0v-.2l-.2-.2h.1l.5-.2a2.7,2.7,0,0,0,1-.8c.2-.2.3-.3.3-.5h.1c0-.2.1.5.1.4s.3.3.2.2.2.2.2.1.1.1.1.1h-.2l-.2.4h0s-.1-.2,0-.1-.2-.2-.2-.2h-.1c.1.1-.1,0-.1,0h.2l.2-.3v.2h0a.1.1,0,0,0-.1-.1h.4l-.2.2a1.5,1.5,0,0,0-.2,1c0,.1-.2-.3-.2-.2s-.1-.1-.1-.1h0c.1-.1-.1.1-.1,0h.1l.2-.5V112l.2.3h-.1c-.1,0-.3.2-.5.7a1.6,1.6,0,0,0-.2.9v.3h0c0,.1-.2-.2-.1-.2s-.3-.2-.3-.2h0a5.1,5.1,0,0,0,1-.9l.4-.6c0-.2.1-.3.1-.4s.1.2,0,.1v-.2l.2.2h-.3a3,3,0,0,0-1,.7l-.3.5V113h.2a2.1,2.1,0,0,0,1-.4,1.5,1.5,0,0,0,.6-.4l.2-.2h-.1c0-.1-.1.2,0,.1s-.1.3-.1.2.1.4.1.3v.2h.1c0-.1,0-.1-.1-.1h-1v.2a.8.8,0,0,1-.8.8c-.4.1-.8-.3-.9-.7a2,2,0,0,1,.6-1.5,2.6,2.6,0,0,1,1.3-.6h1.1l.6.2.3.2c.1.2.3.4.3.6a1,1,0,0,1-.3.8h-.2a3.5,3.5,0,0,1-1.1.9l-1.2.5c-.5.1-1,.3-1.5-.1a1.1,1.1,0,0,1-.6-.7,1.4,1.4,0,0,1,0-.9,2.7,2.7,0,0,1,.6-1,3.9,3.9,0,0,1,1.5-1.1l.9-.3a1.7,1.7,0,0,1,1.1.4,1.9,1.9,0,0,1,.5.9c.2.6-.1,1-.2,1.4l-.7.9a2.8,2.8,0,0,1-2.1,1.5h-.6c-.2-.1-.5-.2-.6-.5a1.2,1.2,0,0,1-.2-.9,5.9,5.9,0,0,1,.4-1.7c.3-.4.5-1.1,1.4-1.5a1.7,1.7,0,0,1,1-.1l.6.2a.9.9,0,0,1,.5.7,2.8,2.8,0,0,1,.1.8,1.9,1.9,0,0,1-.4,1.1,1.3,1.3,0,0,1-.6.8,1.1,1.1,0,0,1-1.1.3l-.6-.2a1.8,1.8,0,0,1-.5-.7,2.6,2.6,0,0,1,.7-2.7l.7-.4h.5c.2-.1.4,0,.7.2l.5.4a1.2,1.2,0,0,1,.2.9,1.8,1.8,0,0,1-1.2,1.7,1.4,1.4,0,0,1-.9.1h-.5l-.6-.5a2.4,2.4,0,0,1,0-1.2,4.1,4.1,0,0,1,.9-1.2,1.6,1.6,0,0,1,.9-.3h.5a.4.4,0,0,1,.4.2.8.8,0,0,1,.4.7,2.4,2.4,0,0,1-.8,1.5,4.4,4.4,0,0,1-1.5,1.2,2.2,2.2,0,0,1-1.4.5l-.6-.2a1,1,0,0,1-.7-.6,1.6,1.6,0,0,1-.1-.9,5.6,5.6,0,0,1,.4-1.2,2.9,2.9,0,0,1,.8-1l.8-.5h.7a1.1,1.1,0,0,1,1,.4,1.7,1.7,0,0,1,.6,1,2,2,0,0,1-.1,1.1,4.9,4.9,0,0,1-.4,1.1,3.8,3.8,0,0,1-1.5,1.6l-1,.2a1.5,1.5,0,0,1-1.1-.4,1.9,1.9,0,0,1-.7-1.3,7.7,7.7,0,0,1,.2-1.5,4,4,0,0,1,1.4-2.2,1.8,1.8,0,0,1,1.6-.2,1.2,1.2,0,0,1,.8.4,1.8,1.8,0,0,1,.4,1,3.6,3.6,0,0,1-.2,1.1,8.8,8.8,0,0,1-.5,1.5,4.3,4.3,0,0,0-.4.7,2,2,0,0,1-.9.6,2.4,2.4,0,0,1-1.2,0,2.6,2.6,0,0,1-1.4-1.7,3.8,3.8,0,0,1,.8-3,2.1,2.1,0,0,1,1.7-.8,2.1,2.1,0,0,1,1.7,1"/><path class="cls-4" d="M249.5,3.2a1,1,0,0,1-1,.7,1,1,0,0,1-.7-.9c0-.1.1,0,0,0s.2.1.1.1a.1.1,0,0,1,.1.1l-.3.3a1.8,1.8,0,0,0-.2,1.6,2.5,2.5,0,0,0,.7.8h.1a3.1,3.1,0,0,0,.5-.9,3.2,3.2,0,0,0,.3-1.4c0-.2,0-.5-.1-.5s.1,0,.1,0h-.4a2.1,2.1,0,0,0-1.1.5l-.3.4a1.6,1.6,0,0,0-.3.8v.3h.3l.8-.2.4-.5a1,1,0,0,0,.1-.4h.4v.2a1.6,1.6,0,0,0-.3.6v.2h0l-.2-.2h0l.3-.2c0-.1.2-.3.3-.6h0v.2l.2.2h.5c-.1,0,0-.1,0,0l-.3.5v.2h-.1c.1,0-.1-.2,0-.1l-.3-.2c.2.1-.5,0-.4,0h-.2c.1,0-.2.1-.1.1h0V4.7l.2-.5h0s.1.2,0,.1l.2.2h.4c-.1.1,0,.1-.1.2l-.4.4h0V4.9c0,.1-.1-.3-.1-.2l-.2-.2h.2a.7.7,0,0,1,1.1.3.9.9,0,0,1-.3,1.1,3.2,3.2,0,0,1-.9.3,1,1,0,0,1-.9-.1,1.2,1.2,0,0,1-.5-.9,1.9,1.9,0,0,1,.2-.8l.7-.8a1.4,1.4,0,0,1,1.1-.5c.4.1.8.3.9.6a.8.8,0,0,1,.2.8,2,2,0,0,1-.3,1.1l-.2.5-.2.2-.3.2c-.1.1-.3.2-.7.1s-.4-.3-.6-.5-.1-.4-.2-.6a2.9,2.9,0,0,1,.2-.9l.3-.7c.2-.2.3-.6.9-.7a1.1,1.1,0,0,1,.8,0,1.7,1.7,0,0,1,.6.6,1.1,1.1,0,0,1,0,1,2.3,2.3,0,0,1-.8,1.3,1.4,1.4,0,0,1-1,.6,1.9,1.9,0,0,1-1.2-.2,1.2,1.2,0,0,1-.5-.9,2.6,2.6,0,0,1,0-.9,3.8,3.8,0,0,1,.6-1.3l.5-.4a1.2,1.2,0,0,1,.9-.3,1.1,1.1,0,0,1,.9.5,1.1,1.1,0,0,1,.3.8,2.8,2.8,0,0,1-.3,1.3,2.6,2.6,0,0,1-.9,1.2,3.4,3.4,0,0,1-1.7.5,2,2,0,0,1-1.6-.7,1.7,1.7,0,0,1-.3-1.5,2.8,2.8,0,0,1,.4-1.3,3.1,3.1,0,0,1,.9-1.1,4,4,0,0,1,1.9-.7,1.2,1.2,0,0,1,1,.1,1.5,1.5,0,0,1,.9.7,2.3,2.3,0,0,1,.2,1.4,4.1,4.1,0,0,1-.4,1.9,3.4,3.4,0,0,1-1,1.6,1.8,1.8,0,0,1-1,.4,1.5,1.5,0,0,1-1.1-.4A3,3,0,0,1,246,5.6a3.2,3.2,0,0,1,.4-3.1,1.9,1.9,0,0,1,1.2-.9,1.7,1.7,0,0,1,1.4.2,2.2,2.2,0,0,1,.5,1.4"/><path d="M52.5,138.8a.7.7,0,0,1,1,.5.7.7,0,0,1-.4,1h.2l-.3.3a.9.9,0,1,1-1.1-1.3l.3-.2.3-.2m-.3-2.2a.8.8,0,0,1-.7,1.5l-.5-.3h.2c-.1,0,.2-.1.2,0s.1-.1.1-.1,0,0-.1.1a4.3,4.3,0,0,0-.1.5,2.3,2.3,0,0,0,0,.9l.5.2h.1c.1,0,.1-.1.1-.2a2,2,0,0,0,0-.8l-.4-.2h0c-.1,0-.2.6-.3,1.1s-.2,1.2-.2,1.4h.1c.1.1,0,.1,0,.1l.4-.3c.3-.2.5-.9.7-1.5v-.7h-.5a.9.9,0,0,0-.8.2,2.9,2.9,0,0,0-.6,1.7h0c0,.1.1.1.2.1H51a2.6,2.6,0,0,0,1.1-1.5v-.4c0-.1.1.1,0,.1h-.6a1.1,1.1,0,0,0-.2.6v.5h.4l.7-1.1a1.9,1.9,0,0,0,.2-.7v-.2h0v.2h-.1a2.9,2.9,0,0,0-.8,1.1.7.7,0,0,0-.1.5v.2s-.2-.2-.1-.2h-.1l.5-.2h.1s-.1.1-.1,0h0s-.1.3,0,.2a.7.7,0,0,1,.8-.7.8.8,0,0,1,.8.8c0,.4-.1.4-.1.4l-.2.3-.7.4a1.7,1.7,0,0,1-1.6.2,1.1,1.1,0,0,1-.7-.6,1,1,0,0,1-.2-.7,1.8,1.8,0,0,1,.2-1.4,2.9,2.9,0,0,1,2-2h.8a1,1,0,0,1,.9.5,1,1,0,0,1,.2,1,2.7,2.7,0,0,1-.4,1.4,3.9,3.9,0,0,1-1.3,1.7l-1.1.4a1.9,1.9,0,0,1-1.3-.5,2.6,2.6,0,0,1-.5-1.7,2.9,2.9,0,0,1,.7-1.6,2,2,0,0,1,1.6-.6h.9a2,2,0,0,1,.8.8,2.3,2.3,0,0,1,.1,1.4,3.6,3.6,0,0,1-2.1,2.8H50.4a1.9,1.9,0,0,1-1.7-1.8,3.5,3.5,0,0,1,1.4-3,3,3,0,0,1,1.8-.6,2.4,2.4,0,0,1,1.8,1,2.8,2.8,0,0,1,.2,1.8,5,5,0,0,1-1.2,2.4,2.1,2.1,0,0,1-1.4.7,1.2,1.2,0,0,1-1.1-.4,1.8,1.8,0,0,1-.7-1,6.1,6.1,0,0,1,.1-1.9,3.7,3.7,0,0,1,.8-2.1,1.8,1.8,0,0,1,1.6-.4,2.3,2.3,0,0,1,1.3.8,2.7,2.7,0,0,1,.3,2.1c-.1.4-.1.9-.7,1.2a1.9,1.9,0,0,1-1.2.3,1.8,1.8,0,0,1-1.5-.6,2.4,2.4,0,0,1-.5-2.4,1.9,1.9,0,0,1,.3-1,.5.5,0,0,1,.3-.4.9.9,0,0,1,.6-.4,1.6,1.6,0,0,1,1.3.4"/><path d="M48.8,138.3a.8.8,0,0,1,1.1,0,.9.9,0,0,1,0,1.2h-.1c-.6.3-.7.2-.7.2h.3c-.1,0,.1-.4.1-.3a1,1,0,0,1-.9.7.8.8,0,0,1-.7-1,.9.9,0,0,1,.5-.7l.5-.2H49s-.2.2-.2.1-.1.1,0,.1m-.8,1a.8.8,0,0,1-.1-1.1.8.8,0,0,1,1.2-.1h.6l.2.2a.8.8,0,1,1-1.2,1c-.1,0,.2.2.1.2H48m-.8.5a.7.7,0,0,1-.7-.9.7.7,0,0,1,.8-.7h4.2a.8.8,0,0,1,.8.8.7.7,0,0,1-.8.8h-.7l-1.4-.2h-.8a.9.9,0,0,1-.9-.8.9.9,0,0,1,.8-.8h1.1l1.2.2h.7a.8.8,0,0,1,.8.8.7.7,0,0,1-.8.8H47.2"/><path d="M53.4,137a.8.8,0,0,1,0,1.2.8.8,0,0,1-1.1,0h-.1l-.5.4a2.2,2.2,0,0,0-.3,1.4h0a1.3,1.3,0,0,0,.7-.4v-.3a.8.8,0,0,0-.1-.4l-.9-.3h-.4s.1,0,0,.1-.1.4-.2.6.1.3.1.4l.4.2h.4a2.3,2.3,0,0,0,.6-.7,9.3,9.3,0,0,0,.4-1.3v-.4h-.8a5.5,5.5,0,0,0-.4,1.2.7.7,0,0,0,.1.5v.2h.1c.2,0,.6-.4.8-.7v-.5H52l-.6.2a1.2,1.2,0,0,0,.1.8.7.7,0,0,1-.4,1,.8.8,0,0,1-1.1-.4,2.1,2.1,0,0,1,2-3.2,1.6,1.6,0,0,1,1.5.4,1.9,1.9,0,0,1,.4,1.3,1.2,1.2,0,0,1-.2,1,2.6,2.6,0,0,1-1.8,1.6,1.4,1.4,0,0,1-1.1,0,1.9,1.9,0,0,1-1-1,2.2,2.2,0,0,1-.2-1.4,3,3,0,0,1,1-2.2A2.5,2.5,0,0,1,52,136h.9a1.5,1.5,0,0,1,.9.7,1.8,1.8,0,0,1,.2,1.4,6.4,6.4,0,0,1-.6,1.8,3.2,3.2,0,0,1-1.3,1.5,3.1,3.1,0,0,1-1.3.1,2.1,2.1,0,0,1-1.5-.7,2.5,2.5,0,0,1-.4-1.7,2,2,0,0,1,.3-1.1c.3-.4.6-.9,1.2-1h.9a2.7,2.7,0,0,1,1.8.8,2.4,2.4,0,0,1,.7,1.6,3,3,0,0,1-.4,1.1,2.7,2.7,0,0,1-1.8,1.1,1.7,1.7,0,0,1-1-.1,1.8,1.8,0,0,1-.7-.8,3,3,0,0,1,.5-3,2.5,2.5,0,0,1,1.2-1.1h.9a1.8,1.8,0,0,1,.9.4"/><path d="M211.8,151.4a.9.9,0,0,1-1,.6.8.8,0,0,1-.6-1H210a1.7,1.7,0,0,0-1.1.8l-.2.3a.5.5,0,0,1,.1.3h.5c.2,0,.4-.2.6-.4a1.3,1.3,0,0,0,.2-.8v-.2h-.3a1.2,1.2,0,0,0-.7.2,1.8,1.8,0,0,0-.7.8.3.3,0,0,0,0,.4.7.7,0,0,0,.5.4h.6a2.6,2.6,0,0,0,1.4-1.5.5.5,0,0,0,.1-.3c-.1-.1,0,.1,0,0h-1.2a1.6,1.6,0,0,0-.6,1c-.2.3-.2.5-.1.6h.4a4.9,4.9,0,0,0,1.5-.9l.3-.4a1.1,1.1,0,0,0-.2-.6h-.3a1.5,1.5,0,0,0-.9.4,1.8,1.8,0,0,0-.7,1,.8.8,0,0,0,0,.5h.5l1.2-.2.6-.3v-.2a.4.4,0,0,0-.2-.3,1.6,1.6,0,0,0-1.3-.2l-.6.2-.2.4c0,.2-.1.2,0,.2h.6c.2,0,.2.1.2,0s.1-.1.2-.4.1-.2,0-.3l-.3-.3h-.3a2.4,2.4,0,0,0-.3.8,1.8,1.8,0,0,0-.1.6h.5a3.1,3.1,0,0,0,.8-1.2v-.5h-.2l-.5.6v.4h-.5l.5-.3h0c.1-.1,0,.1,0,0s.1.5.1.3.4.5.2.4h.3l-.2.2h-.1a.8.8,0,0,1-1,.6.7.7,0,0,1-.5-1,1.9,1.9,0,0,1,.9-1.2l.6-.2h.4a.7.7,0,0,1,.6.2.5.5,0,0,1,.3.5.6.6,0,0,1,.1.4c-.1.2-.1.3-.2.4a1.9,1.9,0,0,1-.6.7l-.8.4-.5.2a.9.9,0,0,1-.8-.3,1.2,1.2,0,0,1-.5-1,5.2,5.2,0,0,1,.2-1.1,3.1,3.1,0,0,1,1.5-1.5h1a1.6,1.6,0,0,1,1,.5,1.9,1.9,0,0,1,.4,1.3,4.4,4.4,0,0,1-.2,1,3.3,3.3,0,0,1-1.6,1.9,1.6,1.6,0,0,1-1.3.2,1.8,1.8,0,0,1-.9-.4,1.7,1.7,0,0,1-.6-1,2.8,2.8,0,0,1,.1-1.3,2.5,2.5,0,0,1,1.3-1.9,2.2,2.2,0,0,1,1.4-.1,2.2,2.2,0,0,1,1.2,1.1,2.2,2.2,0,0,1,.2,1.8,2.1,2.1,0,0,1-1.3,1.3h-.8l-1-.2a1.3,1.3,0,0,1-1-.8,1.7,1.7,0,0,1-.1-1.2,3.3,3.3,0,0,1,.7-1.3,2.8,2.8,0,0,1,1.6-.6,3,3,0,0,1,2.4.5,2.2,2.2,0,0,1,.9,1.7,2.7,2.7,0,0,1-.6,1.2,2.9,2.9,0,0,1-1.3.8,5.8,5.8,0,0,1-1.9.2,2,2,0,0,1-1.9-2.6,3.7,3.7,0,0,1,1.3-2,4.4,4.4,0,0,1,1.6-.6,1.6,1.6,0,0,1,1.8.4,2.2,2.2,0,0,1,.6,1.9,2.4,2.4,0,0,1-.8,1.4,4.1,4.1,0,0,1-2.4,1.3h-1a1.8,1.8,0,0,1-1.2-1.2,2.5,2.5,0,0,1,.1-1.7,3.3,3.3,0,0,1,1.5-1.9l1.5-.3a2.3,2.3,0,0,1,1.1.3,1.2,1.2,0,0,1,.8.9,2.2,2.2,0,0,1,0,1.4,3.6,3.6,0,0,1-2.8,2.5,2.8,2.8,0,0,1-1.3-.1,2.6,2.6,0,0,1-1.5-1.2,2,2,0,0,1,.1-2,4.1,4.1,0,0,1,1.2-1.4,3.1,3.1,0,0,1,1.9-.4,2.3,2.3,0,0,1,1.2.6,1.6,1.6,0,0,1,.5,1.1,3.1,3.1,0,0,1-.4,1.9,2.6,2.6,0,0,1-1.6,1.1,2.1,2.1,0,0,1-1.1.1,1.4,1.4,0,0,1-1.2-.7,1.9,1.9,0,0,1-.3-1,2.5,2.5,0,0,1,.4-1.3,3.2,3.2,0,0,1,2.4-1.6,2,2,0,0,1,1.4.4,1.3,1.3,0,0,1,.5.7v.9"/><path d="M212,151.7a.8.8,0,0,1,1-.6,1,1,0,0,1,.6,1.1c-.1.1,0-.4,0-.4s-.1-.2,0-.1-.1-.2-.1-.2h.1a1.1,1.1,0,0,1-.2,1.2.9.9,0,0,1-1.2-.2v-.2c0-.1-.1,0-.1-.4v-.3m1.7.2a1,1,0,0,1,.9-.7.8.8,0,0,1,.7,1,.7.7,0,0,1-.4.6h-.8a1.7,1.7,0,0,1-1.3-.2h.3a.9.9,0,0,1-1.1-.5.8.8,0,0,1,.5-1,.7.7,0,0,1,.6-.1h.2l.4.2h.4s-.1.1,0,.1h-.3c.1-.1-.1.5-.1.3m-.4.1a.8.8,0,0,1-.6.9.8.8,0,0,1-1-.6,1.3,1.3,0,0,1,.1-.6l.4-.4h2.5c0,.1.1.1.2.1a1.1,1.1,0,0,1,.4.5.8.8,0,0,1-.6,1c-.4.2-.8-.1-1-.5s.3.4.2.3.2.2.2.1.1.1.1.1h-1.4c-.1,0,.2-.2.1-.1h.2c-.1,0,.2-.3.1-.2V152"/><path d="M249.3,204.5a.8.8,0,0,1,1.2-.1.8.8,0,0,1,.1,1.1c-.4.5-.5.3-.5.3h-1.2l-.6.2h-.7v-1.7h1.6s-.1.1-.1,0-.1.2-.1.1-.2.4-.1.3v.4h0a.8.8,0,0,1,0-1.1.9.9,0,0,1,1.2,0l.3.5a.9.9,0,0,1,0,.7,1.5,1.5,0,0,1-.4.6h-2.3a.9.9,0,1,1-.1-1.7h.9l.7-.2h.6s-.2.1-.1.1h-.3m.6-3a.8.8,0,0,1-.7,1,.8.8,0,0,1-.9-.6c-.1-.1.1.2.1.2h-.2a4.5,4.5,0,0,0-.7,1.4l-.2.7s-.1-.1,0-.1h.5v-.2a2.9,2.9,0,0,0,.2-.9,1.8,1.8,0,0,0,.1-.6c-.1-.1-.1-.2-.2-.2s.2.1.1.1h0a.5.5,0,0,0-.4.3,2.6,2.6,0,0,0-.9,1.2,1.3,1.3,0,0,0-.1.6h.2a1.5,1.5,0,0,0,.8-.5,2.1,2.1,0,0,0,.4-1.5H248l-.6.5a2,2,0,0,0-.2.9.4.4,0,0,1-.1.3H247c.1,0,0-.1,0,0h.4a2.1,2.1,0,0,0,1.3-.5,1.5,1.5,0,0,0,.7-.7v0h-1.4l-.2.3h0l.3.2h1.1l.2-.5c0-.2,0-.3-.1-.4h-.6c-.4.1-1,.8-1.3,1.3v.4h.2l.2-.2.3-.7c.1-.4.1-.7,0-.8s.1,0,0-.1h-.3l-.4.2a1.1,1.1,0,0,0-.3.6.2.2,0,0,0,0,.3h.1l.4.2a1.3,1.3,0,0,0,.9-.6,2.5,2.5,0,0,0,.1-.8l-.2-.2h-.9a2.8,2.8,0,0,0-.5,1.1.6.6,0,0,0,0,.6c0,.1.1.3.4.4h.6l1-.5.6-.5v-.3c0-.1,0-.1-.2-.1l-.6-.3h-1c-.1.1,0,0,0,.1a.8.8,0,0,0-.2.5,3.1,3.1,0,0,0-.1.9h.2l.6.2h.7a.6.6,0,0,1,.1-.4,1.7,1.7,0,0,0-.1-.8h-.1l-.7-.2h-.2v.2a1.4,1.4,0,0,0-.2.7,1.3,1.3,0,0,0,.1.6c0,.2.1.3.2.3h.2c.2,0,.3-.1.3-.2s0,0,0-.1a1.2,1.2,0,0,0-.1-.5h-.2a.7.7,0,0,0,.1.5.4.4,0,0,0,.1.3h.6l-.2.2h0c0-.1-.1-.2-.2-.3l.3.2h.4s-.1-.2,0-.1h-.2c.1,0-.4-.2-.2-.2s-.6.1-.5.1h-.4a.4.4,0,0,1,.1-.3c0-.2.1-.5.1-.7a1.1,1.1,0,0,0,.1-.5.4.4,0,0,0-.1-.3h-.1l-.4-.2-.5-.3h.2a1,1,0,0,0-.1.4.8.8,0,0,0-.1.4h0l-.2-.3c.1.1-.2-.2-.2-.1s-.1-.1-.1-.1h.3l.2-.3.4-.5c0-.3.1-.6,0-.7l.2.2.2.2h.4a.7.7,0,0,0-.5.4l-.3.8v.7a.7.7,0,0,0,.3.3h.2l.4.2h-.7v.2h0v-.9h0s.2.3.1.2l.4.2h.6l-.3.5a1.2,1.2,0,0,0-.2.7c0,.1-.2-.2-.2-.2h1s-.1.1,0,.1-.2.1-.1.1v.2a.8.8,0,0,1,1-.6.9.9,0,0,1,.1,1.6H250l-.7.3h-.8l-.7-.2a1.3,1.3,0,0,1-.8-.8,3,3,0,0,1,.4-2.1l.4-.5.2-.3.3-.2h.6a.9.9,0,0,1,.6.6.8.8,0,0,1,.1.4v1.2a.9.9,0,0,1-.1.5l-.2.3-.5.3c-.7.1-.9-.2-.9-.2l-.7-.4a2.4,2.4,0,0,1-.8-.9,2.5,2.5,0,0,1-.1-1.7,3.3,3.3,0,0,1,.6-1.4,2,2,0,0,1,.9-.9l.6-.3h.6l.5.5a2.5,2.5,0,0,1-.1,1.7,2.4,2.4,0,0,1-.7,1.2,1.6,1.6,0,0,1-1.1.8H247c-.2.1-.5.1-.9-.3a1.6,1.6,0,0,1-.3-1,6.4,6.4,0,0,1,.2-.7,1.7,1.7,0,0,1,.8-1.3,1.9,1.9,0,0,1,1.5-.1l.4.3h-.1a1.8,1.8,0,0,1,1.1.7,1.6,1.6,0,0,1,.5,1.1v.9l-.3,1c0,.2-.1.3-.1.4v.3l-.2.2a.8.8,0,0,1-.7.1.6.6,0,0,1-.5-.3l-.2-.2c0-.2-.1-.3-.1-.4a3.8,3.8,0,0,1,.1-1l.2-.4.6-.4h.7a1.6,1.6,0,0,1,.8.6,2.9,2.9,0,0,1,.3,1,1.3,1.3,0,0,1-.1.6,1,1,0,0,1-.5.8,1.3,1.3,0,0,1-.8.2,3.2,3.2,0,0,1-1.4-.3,2.1,2.1,0,0,1-.9-1.3,2.8,2.8,0,0,1-.1-.9,1.5,1.5,0,0,1,.5-1.2,1.7,1.7,0,0,1,1.1-.3,1.6,1.6,0,0,1,1.4.5,2.8,2.8,0,0,1,.6,1.5,1.7,1.7,0,0,1-.3,1.1,2.2,2.2,0,0,1-1.2.9,2.1,2.1,0,0,1-1.5-.2,1.4,1.4,0,0,1-.9-1.1,2.4,2.4,0,0,1-.2-1.5,2.8,2.8,0,0,1,.4-1.2,1.5,1.5,0,0,1,1.1-.9h.9a2.3,2.3,0,0,1,1.1.3,2.2,2.2,0,0,1,1,1.1,3.8,3.8,0,0,1,.1,1.5,2.2,2.2,0,0,1-.6,1.4,1.9,1.9,0,0,1-1,.5,2,2,0,0,1-1.1,0,1.7,1.7,0,0,1-1.1-.4,1.5,1.5,0,0,1-.9-1.1,2.8,2.8,0,0,1,0-1.8,2.2,2.2,0,0,1,1-1.5,1.5,1.5,0,0,1,1.1-.1,4,4,0,0,1,1.1,0l1,.4a1.9,1.9,0,0,1,.9.9,3.1,3.1,0,0,1,.1,1.3,2.9,2.9,0,0,1-1.3,1.6,6.1,6.1,0,0,1-1.4.7,2.5,2.5,0,0,1-1.9-.1,2.4,2.4,0,0,1-1.3-1.6,6.2,6.2,0,0,1,.1-1.3,3,3,0,0,1,1.3-2.1,2.7,2.7,0,0,1,1.5-.3,2.2,2.2,0,0,1,1.1.5,1.6,1.6,0,0,1,.8,1,2.7,2.7,0,0,1-.1,2,2.8,2.8,0,0,1-2.4,1.5,2,2,0,0,1-1.3-.4,1.6,1.6,0,0,1-.8-1.2,2,2,0,0,1,0-1.1,2.9,2.9,0,0,1,.8-1.3,2.1,2.1,0,0,1,1.5-.7,2.3,2.3,0,0,1,1.1.3,2.4,2.4,0,0,1,.8.9,3.7,3.7,0,0,1,0,1.8,3.7,3.7,0,0,1-.5,1.1,1.9,1.9,0,0,1-1,1,2.1,2.1,0,0,1-1.9-.2,1.8,1.8,0,0,1-.6-1.3,1.7,1.7,0,0,1,.1-1,3.9,3.9,0,0,1,2.4-2.3,2.3,2.3,0,0,1,2.1.4,2.1,2.1,0,0,1,.6,2,2.1,2.1,0,0,1-.7,1.3,1.6,1.6,0,0,1-1.3.5h-1.4a2.8,2.8,0,0,1-1.1-.8,1.6,1.6,0,0,1-.2-1.5,1.2,1.2,0,0,1,.4-.8,1.8,1.8,0,0,1,1.1-.7h.9l1.1.2a1.3,1.3,0,0,1,1,.9,1.7,1.7,0,0,1-.1,1.4,2.5,2.5,0,0,1-1.3,1.4,4,4,0,0,1-2.1.7h-1.1a1.9,1.9,0,0,1-.9-.9,3.2,3.2,0,0,1,0-1,4.4,4.4,0,0,1,.6-1.7,3.1,3.1,0,0,1,1.1-.9,1.9,1.9,0,0,1,1.3-.3,1.3,1.3,0,0,1,.9.5,2.5,2.5,0,0,1,.4.9,4.4,4.4,0,0,1-.9,2.7,3.9,3.9,0,0,1-1.6,1h-.9a1.9,1.9,0,0,1-.9-.5,1.7,1.7,0,0,1-.4-1.2,1.7,1.7,0,0,1,.2-1.2,4.6,4.6,0,0,1,1.3-1.9l.9-.6a1.5,1.5,0,0,1,1.3.1,1.6,1.6,0,0,1,.9,1.2,2.2,2.2,0,0,1,.1,1.1,7.4,7.4,0,0,1-.4,1.4,1.6,1.6,0,0,1-1.1,1.2,1.7,1.7,0,0,1-1,0,2,2,0,0,1-1.1-.3,1.7,1.7,0,0,1-.5-1.2,5,5,0,0,1,.2-1.2,4.8,4.8,0,0,1,1.4-2.2,1.8,1.8,0,0,1,1.4-.3.9.9,0,0,1,.7.3,1.8,1.8,0,0,1,.5.7"/><path d="M311.7,202.8a.8.8,0,0,1,.4-1.1.8.8,0,0,1,1.1.3h0v.2a1,1,0,0,1-.3,1.2.9.9,0,0,1-1.1-.3v-.2h-.1"/><path d="M313.9,203.1a.9.9,0,0,1-1.3-1.1c.1-.1,0,.2,0,.2h-.1l-.3-.4h-.3c-.3.1-.7,1.3-.8,2.2a.4.4,0,0,0,.1.3h.1a1,1,0,0,0,.7-.4,1.7,1.7,0,0,0,.5-1.7,1.1,1.1,0,0,0-.6-.7h-.8a2.9,2.9,0,0,0-.8,1.3c0,.3-.1.6-.1.8s.1.4.2.4h.4a1.1,1.1,0,0,0,1.2-.6c.1-.1.1-.3.2-.6s.1-.3,0-.4,0-.1-.2-.2h-.7a1.2,1.2,0,0,0-.6.5,1.1,1.1,0,0,0-.1.5h0a3.4,3.4,0,0,0,2.2-.1c.4-.1.5-.3.5-.4h0c0-.1-.5-.2-1.1-.2l-.7.2a1.4,1.4,0,0,0-.2,1.2l.3.4.6.2h.3a1.3,1.3,0,0,0,.2-.6,4.5,4.5,0,0,0,.1-1.1,1.4,1.4,0,0,0-.4-.7H312a4.5,4.5,0,0,0-.3.8,3.9,3.9,0,0,0-.1.9l.2.2h.8a1.8,1.8,0,0,0,1-.7,1.3,1.3,0,0,0,.2-.8.3.3,0,0,0,0-.4,1.4,1.4,0,0,0-.4-.4h-.2a1.4,1.4,0,0,0-.3.5,2.6,2.6,0,0,0-.3,1.1v.6h.7c.1,0,.2,0,.3-.2a.7.7,0,0,0,.3-.6q.2-.4,0-.6h-.8a1,1,0,0,0-1,1,.1.1,0,0,0,0,.2l.3.2h.6v-.4a.8.8,0,0,0,0-.5s.2.2.1.2h-.2a1.3,1.3,0,0,0-.7.4,2.3,2.3,0,0,0-.4,1,1.3,1.3,0,0,0-.1.5s-.1-.3-.1-.2h0a.1.1,0,0,0,.1.1l.5-.2.6-.7v-.2h-.3c-.1,0,0-.1,0-.1h-.1a.8.8,0,0,1,.6,1,.8.8,0,0,1-1,.6,1,1,0,0,1-.7-.5c-.2-.2-.2-.5-.3-.7v-.7a1.9,1.9,0,0,1,.6-.7,1.5,1.5,0,0,1,1.2-.3,1.1,1.1,0,0,1,.9.3,1.4,1.4,0,0,1,.7,1,2,2,0,0,1-.2,1.3,3.3,3.3,0,0,1-2.4,1.7h-.9a1.8,1.8,0,0,1-.8-.9,2.3,2.3,0,0,1,.1-1.2,3.1,3.1,0,0,1,.8-1.8,2.2,2.2,0,0,1,1.7-.9h.9a1.5,1.5,0,0,1,.9.7,3.2,3.2,0,0,1,.2,1.3,2.9,2.9,0,0,1-.2.9,1.8,1.8,0,0,1-.8.9,2.3,2.3,0,0,1-1.8.1,1.9,1.9,0,0,1-1.1-.8,2.4,2.4,0,0,1-.4-1.5,2.9,2.9,0,0,1,.9-1.6,2.7,2.7,0,0,1,1.8-.8l1.2.3a1.9,1.9,0,0,1,1.1.9,2.2,2.2,0,0,1,.1,1.6,3,3,0,0,1-.6,1.4,2.9,2.9,0,0,1-1.4.8,3.2,3.2,0,0,1-1.4-.2,1.8,1.8,0,0,1-1.1-1.3,2.1,2.1,0,0,1,0-1.1,2.8,2.8,0,0,1,.4-1.5,2.1,2.1,0,0,1,1.2-1.4,1.9,1.9,0,0,1,1.5,0,2.5,2.5,0,0,1,1.4,1.6v.9a3.5,3.5,0,0,1-.6,1.6,3.4,3.4,0,0,1-1.8,1.3,2.4,2.4,0,0,1-2.3-.4,1.4,1.4,0,0,1-.7-.8,2.5,2.5,0,0,1,0-1.9,2.6,2.6,0,0,1,1-1.8,2.2,2.2,0,0,1,1.8-.2,2.3,2.3,0,0,1,1.5,2,2.9,2.9,0,0,1-.1,1.6,2.5,2.5,0,0,1-.8,1.6,2.3,2.3,0,0,1-1.4.4,3,3,0,0,1-1.5-.5,2.3,2.3,0,0,1-.9-1.4,3.8,3.8,0,0,1,0-1.5,2.3,2.3,0,0,1,.9-1.4,2.5,2.5,0,0,1,1.6-.4,2.6,2.6,0,0,1,2.3.7,1.7,1.7,0,0,1,.4,1.5,2.3,2.3,0,0,1-1.6,1.7,4.1,4.1,0,0,1-3.6-.1,2.5,2.5,0,0,1-.8-1.4,3,3,0,0,1,.5-1.6,3.6,3.6,0,0,1,1.3-1.1,2.5,2.5,0,0,1,1.9,0,1.8,1.8,0,0,1,1.2,1.2,2,2,0,0,1,0,1.1,1.9,1.9,0,0,1-.4,1.2,2.9,2.9,0,0,1-2.7,1.5,2.2,2.2,0,0,1-1.5-.5,2.5,2.5,0,0,1-.6-1.4,3.9,3.9,0,0,1,.2-1.5,3.6,3.6,0,0,1,1.6-2.3,3.1,3.1,0,0,1,1.9-.2,2.8,2.8,0,0,1,1.8,1.9,3.4,3.4,0,0,1-1,3.3,2.9,2.9,0,0,1-1.5.9h-.9a1.8,1.8,0,0,1-1-.7,2.5,2.5,0,0,1-.2-1.2c.1-1.1.2-2.7,1.4-3.5a2.2,2.2,0,0,1,2.2,0,3.1,3.1,0,0,1,.9,1.1,1.9,1.9,0,0,1,.2.8,1.6,1.6,0,0,1-.3.9"/><path class="cls-4" d="M248,8.2a.8.8,0,0,1,.8-.8.9.9,0,0,1,.8.8V48.8a.9.9,0,0,1-.8.9.8.8,0,0,1-.8-.9Z"/><path class="cls-4" d="M214,112.6a.9.9,0,0,1-.9-.9.9.9,0,0,1,.9-.8h34.4a.8.8,0,0,1,.8.8.8.8,0,0,1-.8.9Z"/><path class="cls-4" d="M247.6,111.7a.9.9,0,0,1,.8-.8.8.8,0,0,1,.8.8v9a.8.8,0,0,1-.8.9.9.9,0,0,1-.8-.9Z"/><path class="cls-4" d="M214.2,112.5a.8.8,0,0,1-.5-1.5l35.2-12.2a.9.9,0,0,1,1.1.6.9.9,0,0,1-.5,1Z"/><path class="cls-4" d="M249.2,100.4a.8.8,0,0,1-.8-.8.9.9,0,0,1,.8-.8h64.1a.9.9,0,0,1,.8.8.8.8,0,0,1-.8.8Z"/><path class="cls-4" d="M312.4,99.6a.9.9,0,0,1,.9-.8.9.9,0,0,1,.8.8v21.2a.9.9,0,0,1-.8.8.9.9,0,0,1-.9-.8Z"/><path class="cls-4" d="M213.7,152.5a.8.8,0,0,1,.7-1.5l11.6,4.7a.8.8,0,0,1,.4,1.1.7.7,0,0,1-1,.4Z"/><path class="cls-4" d="M225.7,157.3a.8.8,0,0,1-.8-.8.7.7,0,0,1,.8-.8h22.1a.8.8,0,0,1,.8.8.9.9,0,0,1-.8.8Z"/><path class="cls-4" d="M247.6,156.5a.8.8,0,0,1,.8-.8.7.7,0,0,1,.8.8v7.6a.8.8,0,0,1-.8.9.9.9,0,0,1-.8-.9Z"/><path d="M212.9,110.3a.8.8,0,0,1-1.1-.3,1,1,0,0,1,.4-1.2L248.7,89a.8.8,0,1,1,.8,1.4Z"/><path d="M248.3,72.1a.9.9,0,0,1,.8-.9.8.8,0,0,1,.8.9V89.7a.8.8,0,0,1-.8.8.9.9,0,0,1-.8-.8Z"/><path class="cls-5" d="M8.2,107.8a.7.7,0,0,1,.3-1.1.8.8,0,0,1,1.1.4h0v.2l.3.7a40.3,40.3,0,0,1,.9,4.3l.6,2c.1.6.3,1.2.4,1.9a12.2,12.2,0,0,1,.3,1.7,2.6,2.6,0,0,1,.1.7c.1.1-.3-.3-.2-.3s-.4.1-.3.1-.2.1-.2,0,0,.1,0,.1l.2-.5.8-2.2c.5-1.6,1.2-3.4,1.7-4.8s.8-1.8,1-2.5a11.7,11.7,0,0,1,.5-1.1l.4-.5a.4.4,0,0,1,.4-.2,1.3,1.3,0,0,1,1,.7.9.9,0,0,1-.2.8l-.4.5a.8.8,0,0,1-1.2.1.9.9,0,0,1-.1-1.2q.3-.1.3-.3h0v.3c0-.1.1.3,0,.2s.3.3.2.2.5.2.3.2h.8l-.5,1.1c-.2.6-.6,1.4-.9,2.4s-1.3,3.2-1.8,4.7l-.8,2.3c-.1.3,0,.8-.8,1.2a1.1,1.1,0,0,1-1.7-.7c-.1-.3-.1-.6-.2-.9a9,9,0,0,0-.3-1.6,8,8,0,0,0-.4-1.8l-.6-2.1c-.3-1.6-.6-3.1-.9-4.1l-.2-.7H8.1s.1.1.1,0m1.7,0a.9.9,0,0,1-.5,1.1.9.9,0,0,1-1.1-.5,1.4,1.4,0,0,0-.2-.6h0a.8.8,0,1,1,1.6-.3h0c.1.3.1.5.2.6"/><path class="cls-5" d="M14.1,118.2a.9.9,0,0,1,1.1-.5.8.8,0,0,1,.5,1v-.2c0,.1-.1-.4,0-.3l-.2-.2-.2-.2h-.9l.2-.2a5.7,5.7,0,0,1,.8-.9l1.2-1.3a3.4,3.4,0,0,1,1.2-.6,1.5,1.5,0,0,1,1,.3,3,3,0,0,1,.4.8,2.8,2.8,0,0,1,0,1.3c0,.4-.1.8-.1,1.1v.3H19c.1,0,0-.1,0-.1s-.1-.2-.1-.2a.8.8,0,0,1-.2,1.2.8.8,0,0,1-1.1-.2.9.9,0,0,1-.1-1.2c0-.4.1-.7.1-1.1v-.8H18l-.3.2a5,5,0,0,0-1.1,1l-.8,1-.3.3h-.2a.6.6,0,0,1-.8,0,.8.8,0,0,1-.4-.8v-.2"/><path class="cls-5" d="M244,126.9a.8.8,0,0,1-.8.8.7.7,0,0,1-.8-.7,1.4,1.4,0,0,1,0-.9c0-.1-.1-.2.1-.4s.2-.2.4-.3a.7.7,0,0,1,.9.3l.2.3v.4a15.6,15.6,0,0,1,.2,2.7c.1,2,.2,4.6.4,6.3a10.5,10.5,0,0,1,.2,1.3.5.5,0,0,1,.1.3s-.1-.1,0-.1-.2-.1-.1-.1H244c.1-.1-.1,0-.1,0s.2-.1.2-.3.8-2.1,1.4-3.6l1.2-2.3c1.5-3,2.6-4.1,3.7-4.6a.8.8,0,0,1,.7,1.5,3.9,3.9,0,0,0-1.1.9,20.7,20.7,0,0,0-1.9,2.9,24,24,0,0,0-1.1,2.3c-.5,1.3-.9,2.7-1.4,3.7l-.4.6-.3.3a1.1,1.1,0,0,1-.8.1,1.2,1.2,0,0,1-.7-.7c0-.1-.1-.3-.1-.4a7.6,7.6,0,0,1-.3-1.6,64.8,64.8,0,0,1-.4-6.5c-.1-1.1-.1-2.1-.2-2.5v-.2h0s.1.3.1.2.1.2.1.1l.2.2h1c-.1,0,.1-.3.1-.2v-.2c-.1,0,0-.1,0-.1h0v.5"/><path class="cls-5" d="M251.1,134a.8.8,0,0,1-.4,1.1,1,1,0,0,1-1.1-.5,2,2,0,0,1-.1-.5,1.3,1.3,0,0,1,.9-.7c.4,0,.4.2.5.2l.5.4.7.4a1.5,1.5,0,0,1,.4,1.5c-.2,1-.9,1.2-1.3,1.5l-.5.3a.7.7,0,0,1-.3.3h0c-.1.1,0-.1,0,0v-.2c0,.1-.1-.5,0-.4l-.2-.2c.1,0-.1-.1-.1-.1h.8c1.5,0,2.5.9,3.5,1.6a.9.9,0,0,1,.1,1.2.8.8,0,0,1-1.1.1,5.8,5.8,0,0,0-2.6-1.3h-1.4l-.3-.2a1.1,1.1,0,0,1-.3-.7,1,1,0,0,1,.4-.8l.4-.4.6-.4.6-.4v-.2h.1l-.6-.3-.4-.3h.6c-.2.1.5-.4.4-.2l.2-.4c-.1.1-.1-.4-.1-.3s0-.1,0-.1"/><path class="cls-5" d="M307.5,128.2a.8.8,0,0,1-.8.7.8.8,0,0,1-.8-.8v-1.4l1.6.3v-.3h0c0,.1.2.7.4,1.6s.3,2.2.5,3.5a14.3,14.3,0,0,0,.4,2.2,7.2,7.2,0,0,0,.5,1.4c.1.1.1.2.2.2h-.7a12.4,12.4,0,0,0,1.2-3c.3-.9.6-1.8.8-2.6a9.3,9.3,0,0,1,.8-2.2,2.2,2.2,0,0,1,.9-.7h1.1a.9.9,0,0,1-.1,1.7h-.6a8.9,8.9,0,0,0-.5,1.8l-.8,2.6c-.5,1.5-.8,2.9-1.7,3.7l-.4.3h-.6l-.5-.3a2.3,2.3,0,0,1-.5-.7,8.4,8.4,0,0,1-.7-1.8,17.2,17.2,0,0,1-.4-2.4c-.2-1.3-.4-2.5-.6-3.5a3,3,0,0,0-.2-1v-.3h-.1s-.1.1,0-.3a.8.8,0,1,1,1.6.3h0v1.3"/><path class="cls-5" d="M315.6,135.4a.7.7,0,0,1-.4,1,.8.8,0,0,1-1.1-.4,1.1,1.1,0,0,1,0-.8c0-.2.2-.3.3-.4a1.6,1.6,0,0,1,.8-.6,2.3,2.3,0,0,1,2.1.4,2.1,2.1,0,0,1,.8,1.9,1.5,1.5,0,0,1-.3,1,1.3,1.3,0,0,1-.8.7c-.1,0-.1,0-.1.1h0s0-.2.1-.2-.2-.2-.1-.2h-.1a.1.1,0,0,0,.1.1,2,2,0,0,1,.9.6,1.3,1.3,0,0,1,.1,1.1c-.1.3-.3.5-.5.5l-.3.2h-.5l-1.8.2-1.1-.2a1.6,1.6,0,0,1-.8-1,.7.7,0,0,1,.4-1,.8.8,0,0,1,1.1.4h.4l1.5-.2h.4s-.2.1-.1.1l-.2.3v.2h.2l-.7-.3a1.9,1.9,0,0,1-.5-.9,1.9,1.9,0,0,1,.2-.8l.5-.5.4-.3h0v-.2a1.1,1.1,0,0,0-.2-.6l-.5-.2-.2.2h0v-.2c0,.1-.1-.3,0-.2"/><path class="cls-5" d="M245.1,170.9c0,.4-.3.9-.7.9a.7.7,0,0,1-.9-.7,1.1,1.1,0,0,1-.1-.6v-.2c0-.1,0-.2.3-.4a.8.8,0,0,1,.7-.1c.5.1.4.3.5.4s.1.2.1.3l.4,1.4c.1.7.4,1.5.6,2.4s.5,2.1.7,3.1a13.6,13.6,0,0,1,.4,1.7l.3.8v.2h-.6l.2-.3a8.9,8.9,0,0,0,.5-1.3c.5-1,.9-2.3,1.5-3.5s1.3-2.5,1.8-3.5a8.1,8.1,0,0,1,1.5-2.1.8.8,0,0,1,1.2.1.8.8,0,0,1-.1,1.1,26.8,26.8,0,0,0-2.9,5.1c-.5,1.1-1,2.4-1.4,3.5l-.7,1.3c-.2.4-.3.8-.9,1a1,1,0,0,1-.9,0l-.4-.3a3.2,3.2,0,0,1-.6-1.7c-.2-.5-.3-1.1-.5-1.8s-.4-2-.7-3-.4-1.7-.6-2.4-.3-1.2-.4-1.4h0v.2s.2.2.2.1h.2c-.1,0,.5,0,.4.1l.3-.2.3-.2c-.1.1,0-.3,0-.3s.1-.1.1-.1h0v.3"/><path class="cls-5" d="M251.9,178a.8.8,0,0,1-.1-1.1.7.7,0,0,1,1.1-.2l.3.3c.1.4,0,.4,0,.4v.6a3.5,3.5,0,0,1-.3,1.2.8.8,0,0,1-.2.6h0v-.2c.1,0-.2-.3-.1-.2h.4l.7-.2a1,1,0,0,1,1.1.5.7.7,0,0,1-.5,1l-1,.3-.7.2H252a1.5,1.5,0,0,1-.8-.5,1.1,1.1,0,0,1,0-1c0-.2.1-.4.1-.6a9.2,9.2,0,0,0,.3-.9v-.4h0s.1.3.1.2.1.2,0,.1.3.3.2.2m1.3-.5a.8.8,0,1,1-1.6-.3V177c0-.1,0-.2.3-.4a.8.8,0,0,1,1.1.4.8.8,0,0,1-.3,1.1c-.1,0,.2-.2.2-.2s.1-.2.1-.1h.1c-.1,0,0-.1,0-.1h0"/><path class="cls-5" d="M256,177.4c-.1.4-.5.8-.9.7a.7.7,0,0,1-.7-.9v-.5c0-.1,0-.2.3-.5s.2-.2.6-.2a.9.9,0,0,1,.7.4v.2a2.1,2.1,0,0,1-.1,1.1,8.5,8.5,0,0,1-.4,1.7c-.2.8-.4,1.6-.5,2.3a2.7,2.7,0,0,1-.6,1.7.8.8,0,1,1-1.2-1.2c.1,0,0,.1,0,.1s.3-1.8.7-3.3a6.8,6.8,0,0,0,.4-1.5c0-.2.1-.3.1-.5h0c0-.1.1.2.1.1s.2.3.1.2l.3.2h.7l.2-.2h.1v.4"/><path class="cls-5" d="M243,54.9a.8.8,0,0,1,.8-.9c.4-.1.8.3.9.7h-.1c.1,0,.1,0,.1.2l.5,1.4c.7,1.9,1.3,4.4,2,6.3s.5,1.5.7,2.1a2.5,2.5,0,0,1,.2.7h.1c0,.1-.2-.1-.1-.1h-.5a13.7,13.7,0,0,0,1.6-2.9c.4-.8.8-1.8,1.1-2.6s.6-2,.8-2.7a3.7,3.7,0,0,0,.2-.9c.1-.2,0-.4.3-.7a.8.8,0,0,1,1.2-.1.9.9,0,0,1,.1,1.2c-.1,0,.1-.2.1-.2s-.4,1.8-1.1,3.9l-1.2,2.8c-.7,1.5-1.2,2.9-2.2,3.6a1.7,1.7,0,0,1-1.2.2.8.8,0,0,1-.5-.5c-.1-.2-.2-.3-.2-.4a1.4,1.4,0,0,1-.2-.7l-.8-2c-.7-2-1.3-4.5-1.9-6.3l-.5-1.5a.4.4,0,0,1-.1-.3H243m1.7-.2a.7.7,0,0,1-.5,1,.7.7,0,0,1-1-.4c-.1-.1-.1-.1-.1-.2h0s.2.3.1.2a.8.8,0,0,1,.2-1.2.8.8,0,0,1,1.1.2c.2.3.1.2.1.2a.3.3,0,0,1,.1.2"/><path class="cls-5" d="M254.1,63.7a.8.8,0,0,1-.9.6.8.8,0,0,1-.7-1h.1s.2.3.1.2.5.3.3.3h.6c-.1,0,.2-.1.1-.1h0a.3.3,0,0,0-.1.2v-.2h.6a2.3,2.3,0,0,1,1.2.6,1.2,1.2,0,0,1,.5,1,1.9,1.9,0,0,1-.1.8,2,2,0,0,1-.8,1.2l-1.2.3a5.8,5.8,0,0,1-2.3-.3.8.8,0,0,1-.6-1,.9.9,0,0,1,1-.6l1.8.3h.4c.1-.1.1-.1.1-.2a.4.4,0,0,0,.1-.3h.1l-.5-.2a1.9,1.9,0,0,1-1.3-.3,1.4,1.4,0,0,1-.5-1.4,1.5,1.5,0,0,1,.3-.8l.3-.3c.1-.2.2-.3.6-.4a1.1,1.1,0,0,1,.8.3.6.6,0,0,1,.2.5,1.7,1.7,0,0,1-.1.7"/><path class="cls-5" d="M254.3,63a1,1,0,0,1-1,.7.8.8,0,0,1-.6-1,1.3,1.3,0,0,1,.4-.7.7.7,0,0,1,.6-.2h1.1a11.3,11.3,0,0,0,2.9-.3.8.8,0,0,1,1,.5.9.9,0,0,1-.6,1.1,11.1,11.1,0,0,1-3.4.3H254c-.1,0,.1-.1.1-.1s.2-.4.2-.3"/><path d="M177.8,95.3a.4.4,0,0,1-.6-.2.3.3,0,0,1,.3-.5h-.3V92.2a35.7,35.7,0,0,1,.3-5.5,5.6,5.6,0,0,1,1.1-2.7,1.4,1.4,0,0,1,.9-.5,1.2,1.2,0,0,1,1,.2,2.2,2.2,0,0,1,.9,1,2.8,2.8,0,0,1,.2,1.8,13.4,13.4,0,0,1-.7,1.8,2.9,2.9,0,0,0,.4,3.1,11.6,11.6,0,0,1,1.9,2.8c0,.3-.1.5-.3.5a.4.4,0,0,1-.5-.2,8.7,8.7,0,0,0-1.8-2.6,8.9,8.9,0,0,1-.8-1.7,3.9,3.9,0,0,1,.4-2.3,10.4,10.4,0,0,0,.6-1.6,1.6,1.6,0,0,0-.1-1.2,2.2,2.2,0,0,0-.6-.7h-.4c-.2,0-.3.1-.5.3a5.1,5.1,0,0,0-.9,2.2,34.5,34.5,0,0,0-.3,5.4V94a3.3,3.3,0,0,1,0,1s.1.1-.1.3h-.1m-.8-9.1a.4.4,0,0,1,.4-.4c.3,0,.4.3.4.5a22,22,0,0,0-.1,3c0,1.1,0,2.3.1,3.4s.1,1.2.1,1.6a4.3,4.3,0,0,0,.1.5h0s-.1-.2-.1-.1-.1-.1,0-.1h-.2a.5.5,0,0,1,.3.6.4.4,0,0,1-.5.2c-.2,0-.2-.1-.3-.2v-.2a.7.7,0,0,1-.1-.5c-.1-.4-.1-1-.2-1.6V89.3a24.6,24.6,0,0,1,.1-3.1"/><path d="M186.9,91.4a.3.3,0,0,1,.5-.1.5.5,0,0,1,.2.6,8.7,8.7,0,0,0-.8,2.2c0,.4-.1.7,0,.8v.2s-.1-.1,0-.1h-.1l.3-.3.8-.8.8-.8h.5c.2,0,.2.2.3.3v1.9h0l.6-.6a.5.5,0,0,1,.6,0,.6.6,0,0,1,0,.6l-.7.7a.9.9,0,0,1-.7.1.5.5,0,0,1-.5-.5.7.7,0,0,1-.1-.5V93.7c0-.1.1.1,0,0s.2.1.1.1h.2c-.1-.1.1-.1.1-.1s.1,0,.1,0l-.7.7-.9.9-.4.3h-.7a.9.9,0,0,1-.4-.8,4,4,0,0,1,0-1.1,12,12,0,0,1,.9-2.5"/><path d="M188.8,86.4a.3.3,0,0,1-.5.3.4.4,0,0,1-.2-.5V86h.1c.1,0,.3-.1.5,0s.2.3.2.3h0a1.7,1.7,0,0,1-.1.7c0,.3-.1.6-.1.9s-.1.5-.3.7-.4.2-.6.1-.2-.4,0-.6a4.4,4.4,0,0,0,.2-1.2,1.5,1.5,0,0,0,.1-.6h.1c-.1,0,0,.1,0,.1h.6c-.1.1,0-.1,0-.1h0"/><path d="M189.8,86.5c-.2.1-.4.1-.5-.1a.4.4,0,0,1,.1-.6h.4a.4.4,0,0,1,.3.2.9.9,0,0,1,.1.5,6.4,6.4,0,0,0-.2.9c-.1.7-.3,1.4-.3,1.5s-.1.4-.4.4a.4.4,0,0,1-.4-.4c0-.4.2-1,.3-1.7a2.5,2.5,0,0,0,.1-.8h0s.1.1,0,.1.1.1.1.1h.4"/><path d="M192.8,93.5a.4.4,0,0,1-.4-.4.5.5,0,0,1,.4-.5l1.9-.2h1l.4.2a.7.7,0,0,1,.2.6c-.1.2-.3.4-.5.3a.3.3,0,0,1-.3-.5h-.7l-2,.3"/><path d="M194.7,90.7c0-.2.3-.3.5-.3a.5.5,0,0,1,.3.5c-.1.5-.4,1.3-.7,2.2l-.3,1.2v.3h0a.5.5,0,0,1,.2.6.4.4,0,0,1-.5.2.5.5,0,0,1-.4-.5,1.3,1.3,0,0,1-.1-.6l.3-1.4a16.4,16.4,0,0,0,.7-2.1"/><path d="M178.6,90.3a.4.4,0,0,1-.4-.4.4.4,0,0,1,.4-.4h.3l.7.2c.7.3.9,1,1.2,1.4s.9.7,1.3,1.4.6,1.3.8,1.6h-.6a2.6,2.6,0,0,1,.1-.7c0-.2.2-.4.4-.3a.4.4,0,0,1,.4.4,2.5,2.5,0,0,1-.2,1l-.2.2a.4.4,0,0,1-.5-.1l-.2-.3a8.4,8.4,0,0,0-.6-1.4l-1.3-1.4c-.4-.5-.6-1.1-.9-1.2h-.7m-.3,2a.6.6,0,0,1,0,.6.4.4,0,0,1-.6,0,.1.1,0,0,1-.1-.1c-.1-.4,0-.6-.1-.9s-.1-3.4,0-5a4.1,4.1,0,0,1,1.1-2.4,1.8,1.8,0,0,1,1.6-.5,1.3,1.3,0,0,1,.9.4,1.6,1.6,0,0,1,.6.8,3.4,3.4,0,0,1-.2,2.2,8.4,8.4,0,0,1-1.6,2.4c-.1.2-.3.3-.5.5h-1c-.1-.1-.2-.1-.2-.3a.4.4,0,0,1,.3-.5.5.5,0,0,1,.5.3c0,.1-.1-.1-.1-.1s0-.1,0-.1-.1,0-.1,0h.1l.5-.4a6.2,6.2,0,0,0,1.3-2.1,2.4,2.4,0,0,0,.2-1.6l-.3-.5-.4-.2a1.5,1.5,0,0,0-1,.3,2.9,2.9,0,0,0-.9,1.9,40.1,40.1,0,0,0,.1,4.9v.6h-.1c.1.1-.1-.1,0-.1m-.9-7.6a.5.5,0,0,1,.5-.4.4.4,0,0,1,.4.4,31.6,31.6,0,0,0,.1,4.2,9.6,9.6,0,0,1,0,2.4c0,.3.1.5,0,.7v.9h-.1a.3.3,0,0,1-.5-.1c-.2-.2-.1-.4,0-.6s0,.1,0,.1-.1.1-.1,0,0,.1,0,.1h0V88.9a34,34,0,0,1-.2-4.2"/><path d="M181.5,177.3a.4.4,0,0,1-.4.4.5.5,0,0,1-.4-.5h0v-5.6c0-1.5,0-2.6.6-3.3a1.7,1.7,0,0,1,1.7-.3,3.3,3.3,0,0,1,1.6.9,2.6,2.6,0,0,1,1,2.4,3.2,3.2,0,0,1-.9,1.5l-.6.7h.1c0,.2.1.3.3.4a21.6,21.6,0,0,0,2,2.5.3.3,0,0,1,0,.5.3.3,0,0,1-.5.1,18.6,18.6,0,0,1-2.2-2.5l-.3-.6a.6.6,0,0,1-.1-.8l.7-.8c.3-.5.7-.8.7-1.1a2,2,0,0,0-.8-1.7,2.5,2.5,0,0,0-1.2-.7c-.4-.1-.7-.1-.9.1s-.4,1.3-.4,2.7v5.7h0m-.7-8.1a.4.4,0,0,1,0-.6.3.3,0,0,1,.5,0l.2.2h0v8.1h0a.5.5,0,0,1-.4.5.4.4,0,0,1-.4-.4h0v-8h.1m.6,0a.4.4,0,0,1-.4.4.4.4,0,0,1-.4-.4.6.6,0,0,1,.1-.4c0-.1,0-.1.1-.2a.3.3,0,0,1,.5,0,.4.4,0,0,1,0,.6h.2s-.1,0-.1.2"/><path d="M189.2,174.9c0-.3.1-.5.3-.5a.5.5,0,0,1,.5.4,6.3,6.3,0,0,1-.3,1.9,3.4,3.4,0,0,0-.1.9h-.1l.2-.3.5-.8.6-.7.6-.2a.8.8,0,0,1,.7.2l.2.4v.3c0,.3-.1.5-.1.7s-.1.4,0,.6h-.1s-.2-.1-.1-.1h0l.8-.7a.3.3,0,0,1,.5.1.3.3,0,0,1,0,.5l-.8.8h-.4c-.1.1-.3,0-.5-.1l-.2-.3a.4.4,0,0,1-.1-.3c0-.3.1-.5.1-.7s0-.5.1-.6v-.2h0s.1.1,0,.1h-.2l-.4.5-.5.7c-.2.3-.3.6-.7.7a.7.7,0,0,1-.7-.2.8.8,0,0,1-.2-.5,2.1,2.1,0,0,1,.1-1.1c.1-.7.3-1.4.3-1.7"/><path d="M190.6,171.7c.1-.2.4-.2.6,0a.5.5,0,0,1,0,.5h0l.6.3a4.5,4.5,0,0,0,2.3,0c.2-.1.4,0,.5.3a.5.5,0,0,1-.3.5,5.3,5.3,0,0,1-2.8,0l-.9-.5a.7.7,0,0,1,0-1"/><path d="M198.3,175.4c.1.2-.1.4-.3.4s-.4-.1-.5-.3v.2h-1.1v-.2c-.1.1-.1-.2-.1-.1s0-.1,0-.1h.1a.3.3,0,0,1,.1.5c-.1.2-.4.3-.5.2a.8.8,0,0,1-.4-.4.5.5,0,0,1,.2-.6.8.8,0,0,1,.8-.1H198c.1,0,.3,0,.3.4m-1.8.4a.5.5,0,0,1-.2-.6c.1-.2.4-.2.6-.1H198v.2c0-.1,0,.3-.1.2s.2.2.1.2.1,0,.1,0h-2s.1-.1,0-.1.1,0,.1,0,0-.1,0-.1h0v-.2c.1.1-.1-.1,0-.1s-.1,0-.1,0h1.9a.4.4,0,1,1,.3.7h-2.4c-.1,0-.2,0-.3-.2a.6.6,0,0,1-.1-.4c0-.1.1-.1.1-.2l.2-.2h1.5c.4.1.9,0,1.2.2h.3c0,.1,0,.2.1.2a.4.4,0,0,1-.1.3l-.2.2h-.8a2.2,2.2,0,0,1-1.1-.2"/><path d="M201.2,140.3c-.2.1-.5.1-.6-.1s-.1-.4.1-.5l18.4-14.2a.4.4,0,1,1,.5.7Z"/><path d="M201,125.8a.5.5,0,0,1-.1-.6c.2-.2.5-.2.6,0l16.7,16a.5.5,0,0,1,.1.6c-.2.2-.5.2-.6,0Z"/></g></svg>