<svg id="Ebene_1" data-name="Ebene 1" xmlns="http://www.w3.org/2000/svg" xmlns:xlink="http://www.w3.org/1999/xlink" viewBox="0 0 352.8 225.6"><defs><style>.cls-1{fill:none;}.cls-2{opacity:0;}.cls-3{clip-path:url(#clip-path);}.cls-4{fill:#ed3624;}.cls-5{fill:#1749b3;}</style><clipPath id="clip-path"><rect class="cls-1" x="-23.7" y="-13.9" width="419.5" height="297.64"/></clipPath></defs><g class="cls-2"><path d="M7.3,81.2,3.2,70.3H4.8l3.3,8.9,3.3-8.9h1.3L8.8,81.2Z"/><path d="M17.7,81.2V78.1H12.8V77l4.9-6.7h1.4v6.6h1.4v1.2H19.1v3.1Zm-3.5-4.3h3.6V72.1Z"/></g><g class="cls-2"><path d="M121.5,90.5h1v4.6a3.4,3.4,0,0,0,.4,1.6,1.7,1.7,0,0,0,1.3.5,1.4,1.4,0,0,0,1.2-.5,2.2,2.2,0,0,0,.4-1.6V90.5h.9v4.6a3.4,3.4,0,0,1-.6,2.2,2.8,2.8,0,0,1-2,.6,2.6,2.6,0,0,1-2-.7,3.1,3.1,0,0,1-.6-2.1Z"/><path d="M128.6,97.7V92.4h1v1a2.3,2.3,0,0,1,1.9-1.1,2.1,2.1,0,0,1,1.1.4,1.6,1.6,0,0,1,.4,1.2v3.8h-1V94.2a1.7,1.7,0,0,0-.1-.8l-.6-.3a2.1,2.1,0,0,0-1.7,1.2v3.4Z"/><path d="M136.6,97.9a1.7,1.7,0,0,1-1.2-.5,1.6,1.6,0,0,1-.4-1.1V93.2h-.6v-.8h.6v-.9h1v1h1.4v.8H136v2.9c0,.7.3,1,.9,1h.5v.6Z"/><path d="M142.7,97.6l-1.7.3a2.6,2.6,0,0,1-2.6-2.8,3.2,3.2,0,0,1,.6-2,2.3,2.3,0,0,1,1.7-.8,1.6,1.6,0,0,1,1.5.7,2.7,2.7,0,0,1,.5,1.9v.3h-3.3c.1,1.3.7,1.9,1.8,1.9l1.5-.3Zm-3.3-3.1h2.4c0-1-.4-1.5-1.1-1.5S139.5,93.5,139.4,94.5Z"/><path d="M144.5,97.7V92.4h1v1a1.8,1.8,0,0,1,1.6-1.1h.3v.9H147a1.7,1.7,0,0,0-1.5,1v3.5Z"/><path d="M148.7,97.8V90h1v3.4a2,2,0,0,1,1.8-1.1,1.8,1.8,0,0,1,1.5.7,3.6,3.6,0,0,1,.5,1.9,3.8,3.8,0,0,1-.6,2.2,2.1,2.1,0,0,1-1.6.8,1.9,1.9,0,0,1-1.6-.8v.7Zm1-1.3a2.4,2.4,0,0,0,1.4.6c.9,0,1.4-.7,1.4-2.1s-.4-1.8-1.2-1.8a1.9,1.9,0,0,0-1.6.8Z"/><path d="M155.1,97.7V92.4h1v1a1.8,1.8,0,0,1,1.7-1.1h.3v.9h-.5a1.7,1.7,0,0,0-1.5,1v3.5Z"/><path d="M162,97.1a2.4,2.4,0,0,1-1.6.8,1.8,1.8,0,0,1-1.1-.4,1.6,1.6,0,0,1-.5-1.1,1.4,1.4,0,0,1,.8-1.3,4.1,4.1,0,0,1,2.1-.5h.2V94c0-.7-.3-1-.9-1a3.7,3.7,0,0,0-1.7.5v-.8a4.5,4.5,0,0,1,1.8-.4c.6,0,1.1.1,1.3.4a1.7,1.7,0,0,1,.5,1.3v2.4c0,.5.1.8.5.8h.2v.5l-.7.2C162.5,97.9,162.2,97.6,162,97.1Zm-.1-.6V95.2h-.3a2.5,2.5,0,0,0-1.3.3.9.9,0,0,0-.5.8,1.2,1.2,0,0,0,.8.8A1.8,1.8,0,0,0,161.9,96.5Z"/><path d="M167,97.9a2.5,2.5,0,0,1-1.8-.8,3.5,3.5,0,0,1-.7-2,3.3,3.3,0,0,1,.7-2.1,3.2,3.2,0,0,1,2-.7l1.4.2v.8l-1.3-.3a1.4,1.4,0,0,0-1.2.6,2.5,2.5,0,0,0-.5,1.5,2,2,0,0,0,.5,1.4,1.4,1.4,0,0,0,1.2.6,3.1,3.1,0,0,0,1.3-.3v.8Z"/><path d="M170.2,97.7V90h1v3.4a2.2,2.2,0,0,1,1.8-1.1,1.6,1.6,0,0,1,1.1.4,1.7,1.7,0,0,1,.5,1.2v3.8h-1V94.2a1.5,1.5,0,0,0-.2-.8.6.6,0,0,0-.6-.3c-.6,0-1.1.4-1.6,1.2v3.4Z"/></g><g class="cls-2"><path d="M46.8,106.3a2.8,2.8,0,0,1-2.2-.9,3.4,3.4,0,0,1-.8-2.5,3.2,3.2,0,0,1,.8-2.4,2.8,2.8,0,0,1,2.2-.9,2.7,2.7,0,0,1,2.2.9,3.2,3.2,0,0,1,.9,2.4,3.3,3.3,0,0,1-.9,2.5A2.8,2.8,0,0,1,46.8,106.3Zm0-.9c1.2,0,1.8-.8,1.8-2.5s-.6-2.4-1.8-2.4-1.8.8-1.8,2.4S45.6,105.4,46.8,105.4Z"/><path d="M54.2,106.3a2.8,2.8,0,0,1-2.2-.9,3.4,3.4,0,0,1-.8-2.5,3.2,3.2,0,0,1,.8-2.4,2.8,2.8,0,0,1,2.2-.9,2.7,2.7,0,0,1,2.2.9,3.2,3.2,0,0,1,.9,2.4,3.3,3.3,0,0,1-.9,2.5A2.8,2.8,0,0,1,54.2,106.3Zm0-.9c1.2,0,1.8-.8,1.8-2.5s-.6-2.4-1.8-2.4-1.8.8-1.8,2.4S53,105.4,54.2,105.4Z"/></g><g class="cls-2"><path d="M12,134.2,7,121.1H8.9l4,10.7,3.9-10.7h1.6l-4.7,13.1Z"/></g><g class="cls-2"><path d="M242.8,152.6,238.4,141H240l3.6,9.5,3.5-9.5h1.4l-4.2,11.6Z"/><path d="M249.6,152.6v-1.4a11.3,11.3,0,0,1,2.8-3.4l.8-.8a4.1,4.1,0,0,0,1.8-3,2.1,2.1,0,0,0-.6-1.6,2.8,2.8,0,0,0-1.6-.5,6.4,6.4,0,0,0-2.9.9v-1.4a9.2,9.2,0,0,1,3.1-.7,3.7,3.7,0,0,1,2.6.9,2.8,2.8,0,0,1,1,2.3,4.1,4.1,0,0,1-.5,1.9,8.4,8.4,0,0,1-1.9,1.9l-.6.5a6.3,6.3,0,0,0-2.1,3h5v1.4Z"/></g><g class="cls-2"><path d="M313,152.6l-4.1-10.9h1.5l3.4,8.9,3.3-8.9h1.3l-3.9,10.9Z"/><path d="M319.8,152.5v-1.3a6.9,6.9,0,0,0,2.4.6,2.4,2.4,0,0,0,1.7-.6,1.9,1.9,0,0,0,.7-1.6c0-1.5-1.1-2.3-3.2-2.3h-.6v-1h.5q3,0,3-2.1c0-1.1-.7-1.7-2-1.7a4.9,4.9,0,0,0-2.4.7v-1.3a7.7,7.7,0,0,1,2.5-.4c2.2,0,3.4.8,3.4,2.5s-.8,2.2-2.3,2.7c1.7.4,2.6,1.4,2.6,2.9a3,3,0,0,1-1,2.4,4.1,4.1,0,0,1-2.8.9A8.5,8.5,0,0,1,319.8,152.5Z"/></g><g class="cls-2"><path d="M240.8,219v-4.3h.8v.8a1.8,1.8,0,0,1,1.5-.9,1,1,0,0,1,.9.4,1.2,1.2,0,0,1,.3.9V219h-.7v-2.8a1.2,1.2,0,0,0-.2-.7l-.4-.2a1.7,1.7,0,0,0-1.4.9V219Z"/></g><g class="cls-2"><path d="M125.8,193.8v-1.1a2.6,2.6,0,0,1-2.1,1.2,1.7,1.7,0,0,1-1.2-.5,1.7,1.7,0,0,1-.4-1.3v-4.2h1v3.9a2,2,0,0,0,.2.9.8.8,0,0,0,.7.3c.6,0,1.2-.4,1.8-1.3v-3.8h1v5.9Z"/><path d="M129,193.8v-5.9h1.1V189a2.4,2.4,0,0,1,2-1.2,1.4,1.4,0,0,1,1.3.5,1.7,1.7,0,0,1,.4,1.3v4.2h-1v-3.9a2,2,0,0,0-.2-.9.9.9,0,0,0-.7-.3c-.6,0-1.2.4-1.8,1.3v3.8Z"/><path d="M137.7,193.9a1.9,1.9,0,0,1-1.3-.5,1.7,1.7,0,0,1-.4-1.3v-3.4h-.8v-.8h.8v-1h1v1.1h1.6v.8H137V192a1,1,0,0,0,1,1.1h.5v.8Z"/><path d="M144.4,193.6l-1.9.3a2.9,2.9,0,0,1-2.1-.9,3.1,3.1,0,0,1-.8-2.2,3.2,3.2,0,0,1,.7-2.2,2.6,2.6,0,0,1,1.9-.8,1.9,1.9,0,0,1,1.6.7,3.6,3.6,0,0,1,.6,2.2v.3h-3.7c.1,1.4.8,2.1,2,2.1a4.1,4.1,0,0,0,1.7-.4Zm-3.7-3.4h2.6c0-1.1-.4-1.6-1.2-1.6S140.8,189.1,140.7,190.2Z"/><path d="M146.3,193.8v-5.9h1V189a2.2,2.2,0,0,1,1.9-1.2h.3v1H149a2.1,2.1,0,0,0-1.7,1.2v3.9Z"/><path d="M150.8,193.8v-8.5h1.1V189a2.1,2.1,0,0,1,2-1.2,1.7,1.7,0,0,1,1.6.8,3.3,3.3,0,0,1,.6,2.1,3.5,3.5,0,0,1-.7,2.3,2,2,0,0,1-1.8.9,2.3,2.3,0,0,1-1.7-.8v.7Zm1.1-1.4a2.5,2.5,0,0,0,1.6.7c1,0,1.5-.8,1.5-2.3s-.5-2.1-1.4-2.1a2.4,2.4,0,0,0-1.7,1Z"/><path d="M157.9,193.8v-5.9h1V189a2.1,2.1,0,0,1,1.9-1.2h.3v1h-.5c-.7,0-1.2.4-1.7,1.2v3.9Z"/><path d="M164.6,193.9a2.8,2.8,0,0,1-2-.8,3.4,3.4,0,0,1-.8-2.3,3.3,3.3,0,0,1,.8-2.2,2.8,2.8,0,0,1,2-.8,2.9,2.9,0,0,1,2.1.8,3.2,3.2,0,0,1,.7,2.2,3.3,3.3,0,0,1-.7,2.3A2.9,2.9,0,0,1,164.6,193.9Zm0-.8c1.1,0,1.7-.8,1.7-2.3s-.6-2.2-1.7-2.2-1.6.7-1.6,2.2S163.5,193.1,164.6,193.1Z"/><path d="M172.9,193.8v-1.1a2.1,2.1,0,0,1-2,1.2,1.9,1.9,0,0,1-1.6-.8,3.3,3.3,0,0,1-.6-2.1,3.3,3.3,0,0,1,.7-2.3,2,2,0,0,1,1.8-.9,2.3,2.3,0,0,1,1.7.8v-3.3H174v8.5Zm0-4.5a2.5,2.5,0,0,0-1.6-.7c-1,0-1.5.8-1.5,2.3s.5,2.1,1.4,2.1a2.6,2.6,0,0,0,1.7-1Z"/><path d="M176.5,195.9l.9-2.1-2.2-5.9h1.1l1.7,4.4,1.8-4.4h1l-3.2,8Z"/></g><g class="cls-2"><path d="M208.9,214.1V194.7h-7.7v-2.3h18.5v2.3H212v19.4Z"/></g><g class="cls-3"><path d="M35.6,119.5a.4.4,0,0,1,0-.8H67.3a.4.4,0,1,1,0,.8Z"/><path d="M41.4,129.2a.4.4,0,0,1-.4-.4.4.4,0,0,1,.4-.4H58.2a.4.4,0,0,1,.4.4.4.4,0,0,1-.4.4Z"/><path d="M213.9,24.1a.3.3,0,0,1,.3-.3.3.3,0,0,1,.3.3V48.9c0,.1-.2.2-.3.2s-.3-.1-.3-.2Z"/><path d="M205.8,24.1a.3.3,0,0,1,.3-.3.3.3,0,0,1,.3.3V48.9c0,.1-.1.2-.3.2s-.3-.1-.3-.2Z"/><path d="M214.2,48.6a.3.3,0,0,1,.3.3c0,.1-.2.2-.3.2h-8.1c-.1,0-.3-.1-.3-.2a.3.3,0,0,1,.3-.3Z"/><path d="M205.9,40.9c0-.1.2-.2.3-.2s.2.2.2.4l-.3.2h.1a.5.5,0,0,1-.2.4c-.1,0-.3-.1-.3-.2s-.1-.2-.1-.4h.3"/><path d="M214.2,23.8a.3.3,0,0,1,.3.3l-.3.2h-8.1l-.3-.2a.3.3,0,0,1,.3-.3Z"/><path d="M51.9,119.1a.5.5,0,0,1-.5.4.4.4,0,0,1-.4-.4V103.3a.4.4,0,0,1,.4-.4c.3,0,.5.1.5.4Z"/><path d="M51,128.8a.4.4,0,0,1,.4-.4c.3,0,.5.1.5.4v16.6a.5.5,0,0,1-.5.4.4.4,0,0,1-.4-.4Z"/><path d="M23.2,122.8a10.4,10.4,0,0,0-1.5-5.6,11,11,0,0,0-9.7-5.6,11.7,11.7,0,0,0-5.6,1.5,11.2,11.2,0,0,0-4.1,15.3A11.2,11.2,0,0,0,12,134a11,11,0,0,0,5.7-1.5,11.3,11.3,0,0,0,5.5-9.7m.8,0a12.2,12.2,0,0,1-5.9,10.4,12.6,12.6,0,0,1-6.1,1.6,12.2,12.2,0,0,1-10.4-5.9A12.6,12.6,0,0,1,0,122.8a12.1,12.1,0,0,1,6-10.4,11.9,11.9,0,0,1,6-1.6,12.1,12.1,0,0,1,10.4,5.9,11.6,11.6,0,0,1,1.6,6.1"/><path d="M221.3,143.1a11.2,11.2,0,0,0-16.8-9.7,11.3,11.3,0,0,0-5.6,9.7,10.8,10.8,0,0,0,1.6,5.6,10.9,10.9,0,0,0,9.6,5.6,12.1,12.1,0,0,0,5.7-1.5,11.3,11.3,0,0,0,5.5-9.7m.9,0a12.1,12.1,0,0,1-6,10.4,12.3,12.3,0,0,1-6.1,1.6,11.8,11.8,0,0,1-10.3-6,11.1,11.1,0,0,1-1.7-6,12.1,12.1,0,0,1,6-10.4,12.2,12.2,0,0,1,6-1.6,12.1,12.1,0,0,1,10.4,5.9,11.7,11.7,0,0,1,1.7,6.1"/><path d="M259.6,142.5a10.7,10.7,0,0,0-1.5-5.6,11.1,11.1,0,0,0-9.7-5.6,11.7,11.7,0,0,0-5.6,1.5,11.2,11.2,0,0,0-5.6,9.7,12.1,12.1,0,0,0,1.5,5.7,11.3,11.3,0,0,0,9.7,5.5,11,11,0,0,0,5.7-1.5,11.2,11.2,0,0,0,5.5-9.7m.8,0a12.2,12.2,0,0,1-5.9,10.4,12.6,12.6,0,0,1-6.1,1.6,12.2,12.2,0,0,1-10.4-5.9,12.6,12.6,0,0,1-1.6-6.1,12.1,12.1,0,0,1,6-10.4,11.9,11.9,0,0,1,6-1.6,12.1,12.1,0,0,1,10.4,6,11.9,11.9,0,0,1,1.6,6"/><path d="M55.1,149.3a3.5,3.5,0,0,0-7,0,3.3,3.3,0,0,0,.4,1.7,3.5,3.5,0,0,0,3.1,1.8,3.7,3.7,0,0,0,3.5-3.5m.8,0a4.2,4.2,0,0,1-2.2,3.7,3.7,3.7,0,0,1-2.1.6,4.6,4.6,0,0,1-3.8-2.1,5.5,5.5,0,0,1-.6-2.2,4.5,4.5,0,0,1,2.2-3.8,5.1,5.1,0,0,1,2.2-.5,4.1,4.1,0,0,1,3.7,2.1,4,4,0,0,1,.6,2.2"/><path d="M54.8,99.4a3.4,3.4,0,0,0-.4-1.8,3.7,3.7,0,0,0-3.1-1.7,3.3,3.3,0,0,0-1.7.4,3.5,3.5,0,0,0-1.8,3.1,3.4,3.4,0,0,0,.5,1.7,3.5,3.5,0,0,0,3,1.8,3.5,3.5,0,0,0,1.8-.5,3.6,3.6,0,0,0,1.7-3m.9,0a4.3,4.3,0,0,1-2.2,3.7,4,4,0,0,1-2.2.6,4.5,4.5,0,0,1-3.7-2.2,3.7,3.7,0,0,1-.6-2.1,4.5,4.5,0,0,1,2.2-3.8,3.7,3.7,0,0,1,2.1-.6,4.5,4.5,0,0,1,3.8,2.2,4,4,0,0,1,.6,2.2"/><path d="M213.6,14.5a3.4,3.4,0,0,0-.4-1.8,3.7,3.7,0,0,0-3.1-1.7,2.6,2.6,0,0,0-1.7.5,3.3,3.3,0,0,0-1.3,4.7,3.5,3.5,0,0,0,3,1.8,3.5,3.5,0,0,0,3.5-3.5m.9,0a4.2,4.2,0,0,1-2.2,3.7,4,4,0,0,1-2.2.6,4.5,4.5,0,0,1-3.7-2.1,4.3,4.3,0,0,1-.6-2.2,4.5,4.5,0,0,1,2.2-3.8,4.6,4.6,0,0,1,2.1-.5,4.4,4.4,0,0,1,3.8,2.1,4,4,0,0,1,.6,2.2"/><path d="M213.6,122.8a3.9,3.9,0,0,0-.4-1.8,3.7,3.7,0,0,0-3.1-1.7,3.7,3.7,0,0,0-3.5,3.5,4.1,4.1,0,0,0,.5,1.8,3.6,3.6,0,0,0,3,1.7,3.5,3.5,0,0,0,3.5-3.5m.9,0a4.2,4.2,0,0,1-2.2,3.7,4,4,0,0,1-2.2.6,4.3,4.3,0,0,1-2.1-8,3.7,3.7,0,0,1,2.1-.6,4.4,4.4,0,0,1,3.8,2.1,4.3,4.3,0,0,1,.6,2.2"/><path d="M213.6,162a3.4,3.4,0,0,0-.4-1.8,3.7,3.7,0,0,0-3.1-1.7,3.3,3.3,0,0,0-1.7.4,3.5,3.5,0,0,0-1.8,3.1,3.4,3.4,0,0,0,.5,1.7,3.5,3.5,0,0,0,3,1.8,3.5,3.5,0,0,0,3.5-3.5m.9,0a4.2,4.2,0,0,1-2.2,3.7,4,4,0,0,1-2.2.6,4.3,4.3,0,0,1-3.7-2.2,3.7,3.7,0,0,1-.6-2.1,4.5,4.5,0,0,1,2.2-3.8,4.7,4.7,0,0,1,2.1-.6,4.5,4.5,0,0,1,3.8,2.2,4,4,0,0,1,.6,2.2"/><path d="M213.5,213.4a3.5,3.5,0,0,0-3.5-3.5,3.7,3.7,0,0,0-3.5,3.5,4.1,4.1,0,0,0,.5,1.8,3.5,3.5,0,0,0,6.5-1.8m.8,0a4.1,4.1,0,0,1-2.1,3.7,4,4,0,0,1-2.2.6,4.3,4.3,0,0,1-3.7-2.1,4.3,4.3,0,0,1-.6-2.2,4.6,4.6,0,0,1,2.1-3.8,5.4,5.4,0,0,1,2.2-.5,4.4,4.4,0,0,1,3.8,2.1,5.1,5.1,0,0,1,.5,2.2"/><path d="M209.6,48.9c.1-.2.4-.2.6-.1a.5.5,0,0,1,.1.6c-.1.1,0-.1,0-.1h0v.3a3.4,3.4,0,0,1,0,1c.1,1.9,0,3.7.1,5.4a22.6,22.6,0,0,1,.1,2.7,17.1,17.1,0,0,0,.1,2.6c.1.2-.1.4-.3.5a.5.5,0,0,1-.5-.3,12.1,12.1,0,0,1-.1-2.8c0-.9-.1-1.8-.1-2.7s-.1-3.6-.1-5.4V49.1a.3.3,0,0,1,.1-.2m.8.5c0,.3-.1.5-.4.5a.4.4,0,0,1-.4-.4v-.2h0c0-.1.1.1,0,0a.3.3,0,0,1,.1-.5.3.3,0,0,1,.5,0h.1c.1.1.1.1.1.2v.2"/><path d="M209.6,60.6c.2.1.4.3.3.5a.5.5,0,0,1-.5.3h.2l-.4.4L208,63.1l-1.9,2.2a34.7,34.7,0,0,1-3.1,2.9l-1,1.2-1.5,1.8a3.5,3.5,0,0,1-1.2,1l-.5.4-.4.7-.7,1.1h-.2c-.1.1-.1.2-.4.2l-.4-.3v-.2c0-.1.1-.2.1-.3a.5.5,0,0,1,.5-.3c.2.1.4.4.3.6h-.1s-.2-.2-.1-.2H197l.7-.9a5.6,5.6,0,0,1,.5-.8,1.3,1.3,0,0,1,.6-.5l1.1-1,1.5-1.8,1-1.1c.8-.9,1.8-1.6,3.1-2.9l1.9-2.2,1.2-1.4.4-.4h.2c.1-.1.2-.2.4-.1"/><path d="M209,61.8c.2-.1.5,0,.5.2a.4.4,0,0,1-.2.5h.1l-.4.3c-.1.2-.4.1-.6,0s-.1-.5.1-.6l.4-.4h.1M198.2,73.5c0,.2-.2.4-.4.3a.4.4,0,0,1-.4-.4h0a1.8,1.8,0,0,1,.5-.7,45,45,0,0,1,3.8-4l3-2.9,2.1-2.2,1.1-.9.4-.3.6-.4h0c0-.1-.1,0,0,0h-.1c.1-.2.4-.2.6-.1s.2.3.1.5-.1.1-.1.2l-.6.5-.4.2-1,.9c-.8.8-1.5,1.6-2.2,2.2l-2.9,2.9c-1.4,1.5-3.1,2.8-3.8,3.8a1.4,1.4,0,0,1-.3.5h0m-1.1.6a.5.5,0,0,1-.6-.1.5.5,0,0,1,.1-.6l2-1.9,4-3.8,3.5-3.2a12.5,12.5,0,0,1,1.7-1.6l1.2-.8.8-.6.3-.4c0-.1-.1,0-.1,0h0s.1.3.1.2.2.2.1.2.2,0,.2,0h.1l-.5.5a21.1,21.1,0,0,0-1.5,1.5l-2,2.1a6.8,6.8,0,0,0-1.2,1.2l-2.5,2.7a12.5,12.5,0,0,1-1.7,1.6,11.4,11.4,0,0,1-1.1,1.1l-.6.5-.6.4-.5.3h-.1a.1.1,0,0,1-.1.1h0c-.2.1-.5.1-.6-.1s-.1-.5.1-.6h0l.3-.3.4-.3.6-.3c.1-.2.3-.3.5-.5l1.2-1.1c.5-.5,1-.9,1.6-1.6l2.5-2.7,1.2-1.2,2-2.1,1.6-1.5.5-.5h.2c0-.1,0-.1.3-.1a.4.4,0,0,1,.3.4v.2l-.4.6a3.4,3.4,0,0,1-.9.8l-1.2.7L206.7,65c-1.1,1.2-2.2,2.1-3.5,3.3s-2.9,2.7-4,3.8l-2.1,2"/><path d="M200.2,68.5a.4.4,0,0,1,.4.4.4.4,0,0,1-.4.4h-.4l-.6-.2a18.1,18.1,0,0,0-3.1-.5h-2.8c0,.1.1-.1.1-.1V68c0,.1-.1-.2,0-.2s-.1-.1-.1-.1h.5a17.3,17.3,0,0,0,3.3.1h3.1c.1.1.2.1.3.3a.5.5,0,0,1-.1.5H200l-.6.3a10.3,10.3,0,0,1-3.9.1,4.5,4.5,0,0,1-1.4-.6l-.4-.3h-.4c-.1,0-.1-.1-.2-.2s0-.4.1-.5h1.2l1.9.2h2.2s.1,0,.2.2l-.7.3c-.1,0,.1.2.1.2h-4.6c-.1,0-.2-.3-.2-.5a.5.5,0,0,1,.5-.3c.2.1.4.3.3.5h0s-.2-.2-.1-.2h4.4c.1,0,.2,0,.3.2a.5.5,0,0,1-.2.6.3.3,0,0,1-.5-.3c-.1,0,.1.2,0,.2s.1,0,.1,0,.1.1,0,.1h-1.9l-1.9-.2h-.6c-.1,0,.1-.1,0-.1h.1v-.4c.1.1-.1-.1,0-.1h0l.4.2.3.3a3.1,3.1,0,0,0,1.2.5,7.8,7.8,0,0,0,3.4-.1l.6-.2h0v.2h0s.1.2.1.1.1.1,0,.1h-2.7c-1.1-.1-2.4,0-3.5-.2h-.4c-.1-.1-.3,0-.5-.3a.4.4,0,0,1,0-.5h.2a.1.1,0,0,1,.1-.1h3.2l3.2.6.7.2h.1m-2.4,1a.5.5,0,0,1-.5.4c-.2-.1-.4-.3-.3-.5s.3-.5.6-.6a1.1,1.1,0,0,1,.8-.2h1.7a.5.5,0,0,1,.5.3.4.4,0,0,1-.3.5h-.6a4.8,4.8,0,0,0-1.2,0h-.7"/><path d="M192.2,64.5h.6c.1.2.2.4,0,.6s.1-.1,0-.1h0c-.1.3-.4.9-.6,1.6a15.9,15.9,0,0,0-.8,3.5,5.1,5.1,0,0,0-.1,1h-.1c.1,0-.3,0-.2-.1h-.1c.1-.2.3-.2.5-.1a.4.4,0,0,1,.2.5.8.8,0,0,1-.5.5l-.5-.2a.4.4,0,0,0-.1-.3V70.1a28.3,28.3,0,0,1,.9-3.7,9.8,9.8,0,0,1,.7-1.7h.1m-.7,5.6a.4.4,0,0,1-.8,0h0v-.3c.1-.4.3-.9.4-1.4s.5-1.8.7-2.6a3.1,3.1,0,0,0,.2-.8h0c-.1-.2.1-.4.3-.5s.4.1.5.3,0,.2,0,.2h0a5.1,5.1,0,0,1-.2.9c-.2.8-.4,1.7-.7,2.6l-.4,1.4v.2h0m.2-4.9a.4.4,0,1,1,.5.7h0v.3c-.1.3-.1.6-.2,1s-.3,1.8-.4,2.5a1.2,1.2,0,0,1-.1.5h0c0,.2-.2.3-.4.3s-.4-.2-.4-.5h0a3.5,3.5,0,0,0,.1-.6c.1-.7.3-1.6.4-2.5s.1-.6.2-.9v-.4c.1-.1.1-.3.3-.4m-.4,7a.3.3,0,0,1-.3.5c-.2.1-.4-.1-.5-.3h0v-.2c.1-.4.2-1,.4-1.8s.4-2.2.5-3.1a6.4,6.4,0,0,1,.2-.9v-.5h0a.3.3,0,0,1-.1-.2h0a.4.4,0,0,1,.4-.4c.3,0,.4.2.5.4h-.1c.2.3.1.6.1,1a6.4,6.4,0,0,0-.2.9c-.1.9-.3,2.1-.5,3.2a16.5,16.5,0,0,0-.4,1.7h0m1.7-6.7c0,.2-.2.4-.4.3s-.5-.1-.4-.4h.7c0,.1-.1.2-.1.4a12.3,12.3,0,0,0-.4,1.6c-.3,1-.5,2.1-.7,3.1a7.9,7.9,0,0,0-.3,1.3.6.6,0,0,1-.1.4h-.1a.3.3,0,0,1-.5,0c-.2-.1-.3-.4-.1-.5h0s-.1.1-.1,0h0c.1,0,.1-.1.1-.3s.1-.7.3-1.3.4-2.1.7-3.1a12.3,12.3,0,0,1,.4-1.6,1.1,1.1,0,0,0,.1-.5h.1s0-.1.2-.2h.5c.2.3.1.3.1.4"/><path d="M192.1,71.2a.5.5,0,0,1-.5.3.7.7,0,0,1-.4-.5c.1-.1.1-.1.1-.2l.3-.4a.4.4,0,0,1,.6-.1c.2.1.2.3.1.5s-.2.4-.3.4h0s.1-.1.1,0m-.7-5.2c0-.3.2-.4.5-.4s.4.2.3.4h0v1.7c0,1-.1,1.9-.1,2.6v.4c0,.2,0,.3-.1.4h0c-.1.2-.4.2-.6.1s-.2-.3-.1-.5h0c-.1-.2,0-.4,0-.6a24.4,24.4,0,0,1,.1-2.6V66h0m.8,5c.1.2-.1.4-.3.4a.5.5,0,0,1-.5-.4h0V66h0a.4.4,0,0,1,.4-.4c.3,0,.5.2.4.4h0v4.9h0m.3.6a.4.4,0,0,1-.4.4c-.3,0-.4-.2-.4-.5h0V67.2c-.1-.5-.1-1-.2-1.4a1.8,1.8,0,0,1-.1-.6h.5c-.1,0,.2-.1.1-.1h.1a5.1,5.1,0,0,1-.1,1v6h0s-.1-.1,0-.1h-.1s-.2-.1-.1-.1h-.2c.1-.1-.1,0-.1,0s0,.1,0,.1h0a13,13,0,0,0,.3-3.4,9.6,9.6,0,0,0,0-2.4v-.5h.6c-.1,0,0-.1,0,0a7.7,7.7,0,0,0-.1,1.8,22.6,22.6,0,0,0-.1,2.5v.7h0a.4.4,0,0,1-.8,0h0v-.7a22.6,22.6,0,0,1,.1-2.5,7,7,0,0,1,.1-2.1v-.2c0-.1.2-.2.4-.2s.3.1.3.2v.2a1.9,1.9,0,0,1,.1.8,9.6,9.6,0,0,1,0,2.4,15.5,15.5,0,0,1-.1,2.2,3.1,3.1,0,0,1-.3,1.5c0,.2,0,.3-.2.4h-.3l-.3-.2a.8.8,0,0,1-.2-.7V70.3c0-1.4-.1-2.9,0-4.1s-.1-1,.2-1.4l.2-.2h.4c.2.1.2.2.2.2v.2a4.3,4.3,0,0,1,.1.5c.1.4.1,1,.2,1.5a16,16,0,0,1,0,3.1v1.3h0m.3-6.7c.1.2.1.5-.1.6s-.5.1-.6-.1h.2c-.1,0,.2-.1.2,0s.1-.1,0-.1h0v6.1h0a.4.4,0,0,1-.4.4c-.3-.1-.4-.2-.4-.5h0V68a19.1,19.1,0,0,1,0-2.4,1.2,1.2,0,0,1,.2-.8l.5-.2.4.3"/><path d="M194,72a.4.4,0,0,1,0-.8h15.8a.4.4,0,1,1,0,.8Z"/><path d="M210.1,71.6c.1.2.1.4-.1.5a.5.5,0,0,1-.6-.2v-.2h.6c0,.1.1-.1,0-.1h.1a1,1,0,0,0,.1.4,14.1,14.1,0,0,0,.6,2.2.3.3,0,0,1-.3.5.4.4,0,0,1-.5-.2c-.2-.7-.4-1.6-.6-2.2a3.1,3.1,0,0,1-.2-.8.3.3,0,0,1,.1-.2l.3-.2c.4,0,.4.2.4.2a.5.5,0,0,1,.2.4"/><path d="M211.1,18.9a.4.4,0,0,1-.4.4c-.2.1-.4-.1-.5-.3a1.1,1.1,0,0,0-.1-.5h.2c-.1,0,.2.1.1.1s.3-.1.2,0h.2c-.1,0,0-.1,0-.1h0v.3c-.1.3-.1.6-.2,1a13.3,13.3,0,0,1-.3,2.1v1.1a.7.7,0,0,0,.1.5v.3h0s-.1-.1,0-.1l-.6.6c-.2-.2-.2-.3-.2-.4v-.2a.4.4,0,0,0,.1-.3V21.6c0-.4-.1-.7-.1-1s-.1-.7-.1-1v-.2c0-.1.1-.2.3-.2a.4.4,0,0,1,.5.1l.4.6a.4.4,0,1,1-.7.5,1.4,1.4,0,0,0-.3-.5h0s.1.1.1,0h.5c-.1.1,0-.1,0-.1h0a7.7,7.7,0,0,1,.1,1,3.1,3.1,0,0,1,.1,1v2.3h-.1s-.1-.1,0-.1a.6.6,0,0,1,0,.6c-.2.2-.5.2-.6,0l-.2-.3v-.3a1.5,1.5,0,0,1-.1-.7,5.7,5.7,0,0,1,0-1.3,12.5,12.5,0,0,0,.3-1.9c.1-.4.1-.9.2-1.2a.6.6,0,0,1,.1-.4.3.3,0,0,1,.1-.2.4.4,0,0,1,.5-.1l.2.2a6.4,6.4,0,0,0,.2.7"/><path d="M52.1,95.5a.4.4,0,1,1-.8,0V15.1a.4.4,0,1,1,.8,0Z"/><path d="M51.4,15.5a.4.4,0,0,1-.4-.4.4.4,0,0,1,.4-.4H206.3a.4.4,0,0,1,.4.4.4.4,0,0,1-.4.4Z"/><path d="M50.8,153.2a.4.4,0,0,1,.4-.4.5.5,0,0,1,.5.4v61a.5.5,0,0,1-.5.4.4.4,0,0,1-.4-.4Z"/><path d="M51.4,214.6a.4.4,0,0,1-.4-.4.5.5,0,0,1,.4-.5H206.1c.3,0,.4.2.4.5a.4.4,0,0,1-.4.4Z"/><path d="M213.9,214a.4.4,0,0,1-.4-.4c0-.3.2-.5.4-.4l138.5.5a.5.5,0,0,1,.4.5.4.4,0,0,1-.4.4Z"/><path d="M240.7,214.3a.4.4,0,0,1,.1-.6.5.5,0,0,1,.6.1h3a1,1,0,0,1,.2.7.5.5,0,0,1-.6.2.4.4,0,0,1-.2-.5h0v.2h-2.7c-.2-.1-.4-.1-.5-.3"/><path d="M209.4,154.1a.4.4,0,0,1,.4-.4c.3,0,.4.1.5.4s-.1,1.5-.1,2.2-.1.8-.1,1v.2h.2c.2.1.4.3.3.5a.3.3,0,0,1-.5.3l-.6-.3c-.2-.2-.2-.4-.3-.6a3.7,3.7,0,0,1,.1-1.1,16.1,16.1,0,0,0,0-2.2"/><path d="M209.8,127.3c0-.3.1-.4.4-.5a.4.4,0,0,1,.4.4,7.4,7.4,0,0,1-.3,2.6c-.1.7-.3.8.1,1.4a.4.4,0,0,1-.1.6c-.2.1-.4.1-.5-.1a1.5,1.5,0,0,1-.4-1.2c0-.3.1-.5.1-.8a7.2,7.2,0,0,0,.3-2.4"/><path d="M35.6,119.9a.7.7,0,0,1-.8-.8.8.8,0,0,1,.8-.8H67.3a.9.9,0,0,1,.8.8.8.8,0,0,1-.8.8Z"/><path d="M41.4,129.6a.8.8,0,0,1-.8-.8.8.8,0,0,1,.8-.9H58.2a.8.8,0,0,1,.8.9.8.8,0,0,1-.8.8Z"/><path d="M11.5,134.4a.9.9,0,0,1,.8-.8.8.8,0,0,1,.8.8V149a.8.8,0,0,1-.8.8.9.9,0,0,1-.8-.8Z"/><path d="M12,149.8a.9.9,0,0,1-.8-.8.9.9,0,0,1,.8-.9H47.7a.9.9,0,0,1,.8.9.9.9,0,0,1-.8.8Z"/><path d="M214.1,162.7a.8.8,0,0,1-.9-.8.9.9,0,0,1,.9-.8h35.3a.9.9,0,0,1,.8.8.8.8,0,0,1-.8.8Z"/><path d="M248.4,154.1a.8.8,0,0,1,.8-.8.7.7,0,0,1,.8.8v7.8a.7.7,0,0,1-.8.8.8.8,0,0,1-.8-.8Z"/><path d="M209.4,24.1a.4.4,0,0,1,.4-.4c.3,0,.5.1.5.4V48.9a.5.5,0,0,1-.5.4.4.4,0,0,1-.4-.4Z"/><path class="cls-4" d="M12.3,99.5a.8.8,0,0,1-.8-.8.7.7,0,0,1,.8-.8H47.6a.8.8,0,0,1,.8.8.9.9,0,0,1-.8.8Z"/><path class="cls-4" d="M13.1,111.2a.8.8,0,0,1-1.6,0V98.7a.7.7,0,0,1,.8-.8.7.7,0,0,1,.8.8Z"/><path class="cls-4" d="M52.1,98.6a.8.8,0,0,1-1.2.2.9.9,0,0,1-.2-1.1h0v.2c0-.1.1.4,0,.3s.2.2.2.2h-.5v.2c0,.2-.1.5-.1.8a1,1,0,0,1,.1.4h1.8c.1,0,.3-.2.5-.6A5.6,5.6,0,0,0,53,98v-.5h-.1c-.2-.1-.5,0-.9.1a4.1,4.1,0,0,0-1,.9,6.6,6.6,0,0,0-.7,1.5v.4l-.2-.2h.3s-.1,0,0-.1l.3-.5v-.2h.2a.1.1,0,0,0-.1.1v.3h0l-.2-.2c.1,0,0-.1,0-.1h-.1c.1-.1.3-.2.3-.4a.3.3,0,0,0,.1-.2H51c-.1,0,0,.1,0,.1h-.1a1.1,1.1,0,0,0-.4.5v.6h0c0,.1-.1-.2-.1-.1l-.2-.2c.1,0,0-.1,0-.1h-.1c.1,0,.2-.3.4-.5h0s.1.2,0,.1.2.2.1.2.3.2.2.2h.7a.3.3,0,0,0-.1.2c-.1.1,0-.2,0-.2v.6a.7.7,0,0,1-1,.6.7.7,0,0,1-.6-.9c0-.1-.2-.2.1-.8a1.8,1.8,0,0,1,.5-.7l.3-.2.4-.2h.6l.4.6c0,.2.1.3.1.5a4.1,4.1,0,0,1-.3.8c-.2.3-.4,1-1.2,1.2a1.4,1.4,0,0,1-.9,0,.9.9,0,0,1-.8-.6c-.3-.5-.1-.8-.2-.8a2,2,0,0,1,.2-1,1.9,1.9,0,0,1,1.6-1.5,1.4,1.4,0,0,1,1.1.1,1.2,1.2,0,0,1,.8,1,2,2,0,0,1-.2,1.3l-.6.8a1.4,1.4,0,0,1-1.3.5l-.5-.2a1,1,0,0,1-.7-.7,2.6,2.6,0,0,1,0-.9,2.4,2.4,0,0,1,.2-.8,1.4,1.4,0,0,1,.8-.7,2.2,2.2,0,0,1,1.1.1,1.7,1.7,0,0,1,1,1.2,2,2,0,0,1-.1,1.1,1.9,1.9,0,0,1-.5,1,1.2,1.2,0,0,1-1.1.7h-1a1.6,1.6,0,0,1-.9-.9,4.7,4.7,0,0,1,0-1.2,5.8,5.8,0,0,1,1-2.1,5.6,5.6,0,0,1,1.6-1.5,2.7,2.7,0,0,1,2-.2,1.1,1.1,0,0,1,.7.3,1.6,1.6,0,0,1,.6.8,4.7,4.7,0,0,1,0,1.2A7,7,0,0,1,54,100a2.5,2.5,0,0,1-1.3,1.4H50.6a2.1,2.1,0,0,1-1.5-.6,2.3,2.3,0,0,1-.5-1.5,3,3,0,0,1,.2-1.3,2,2,0,0,1,1-1.2,1.8,1.8,0,0,1,1.3,0,1.1,1.1,0,0,1,.9.3,1.1,1.1,0,0,1,.3.8.8.8,0,0,1-.2.6"/><path class="cls-4" d="M46.9,99.7a.8.8,0,0,1,.3-1.6l1.5-.3h1.8l.4.2a1.4,1.4,0,0,1,.2.6.8.8,0,0,1-.2.6l-.5.3a6.2,6.2,0,0,1-1.5-.1h-.3v-.2c0,.1.1-.3.1-.2v-.3c0,.1-.3-.4-.2-.3l-.2-.2H50c.1,0-.3.5-.2.3V99c0-.2.2.4.1.3h-.2c-.1,0,.2-.2.1-.1l.2-.3c0,.1,0-.3.1-.3s-.1,0,0,.1a.8.8,0,1,1-1.3.9,1.6,1.6,0,0,1-.4-.7,1.4,1.4,0,0,1,.4-1,1.1,1.1,0,0,1,1.2-.2l.9.2.2.2c.1,0,.3.2.3.5a.8.8,0,0,1-.3.8l-.4.2H48a.6.6,0,0,1-.6-.3.8.8,0,0,1-.2-.8l.3-.4a1.1,1.1,0,0,1,.7-.3h1.7l-.2.2c0-.1-.2.2-.1.2s-.1.5-.1.3.1.4,0,.3.3.3.2.2.3.2.2.2h-.1a1.1,1.1,0,0,0-.8,0,4.2,4.2,0,0,1-2.1.3"/><path class="cls-4" d="M52.9,98.4c.1.4-.3.8-.7.9a.8.8,0,0,1-.9-.7h.3l-.2.3a3.4,3.4,0,0,0-.6,1.2,1.1,1.1,0,0,0-.1.5s-.2-.4-.1-.3h.5a1,1,0,0,0,.5-.4l.2-.2a.4.4,0,0,0,0-.5h-1l-.2.5v.2c0,.2,0,.3.1.4h.2c.2,0,.6-.4.8-.8v-.4s.1.1,0,.1h-.3l-.5.2-.4.5a1.1,1.1,0,0,0-.1.5h0c.1,0,.2,0,.2.1h.2l.4-.5a.9.9,0,0,0,.1-.5.4.4,0,0,0-.1-.3h-.1l-.4.2c-.2.3-.4.5-.4.8v.2h0c0,.1-.2-.2-.1-.2h.5a2.5,2.5,0,0,0,.4-1,1.1,1.1,0,0,0,.1-.5h0c-.1,0,.2.1.1.1h.1l-.3.2a2.7,2.7,0,0,0-.5,1.6h.1l.5-.2a3.5,3.5,0,0,0,.1-.6v-.2c-.1-.1.1.2.1.1h0c0-.1-.1-.1-.2,0H51v.2l-.2-.3h1a.7.7,0,0,1,.9.7.7.7,0,0,1-.7.9H50.7l-.8-.2a1.1,1.1,0,0,1-.5-.9,1.4,1.4,0,0,1,.1-1.1,2.4,2.4,0,0,1,1.3-1.1h.9a1.1,1.1,0,0,1,.9.6,1.8,1.8,0,0,1,.2.9,2,2,0,0,1-.4,1.6,2.1,2.1,0,0,1-1.9,1,2.2,2.2,0,0,1-1.1-.5,1.6,1.6,0,0,1-.5-1.1,3.2,3.2,0,0,1,1.1-3,2,2,0,0,1,1.7-.5,1.5,1.5,0,0,1,1,1.1,2.8,2.8,0,0,1-.1,1.3,2.9,2.9,0,0,1-1.1,2,2.8,2.8,0,0,1-1.3.3h-.8a1.2,1.2,0,0,1-.7-.7,1.9,1.9,0,0,1,0-1.3,2.9,2.9,0,0,1,.8-1.4,2.3,2.3,0,0,1,1.6-.8h.6a1.2,1.2,0,0,1,.8.4,1.9,1.9,0,0,1,.4,1.3,2.5,2.5,0,0,1-.2,1.2,2.3,2.3,0,0,1-1,1.2,1.9,1.9,0,0,1-1.7.3,1.8,1.8,0,0,1-1.1-1A2,2,0,0,1,49,99a2.7,2.7,0,0,1,.9-1.2,2.5,2.5,0,0,1,1.5-.5,2,2,0,0,1,1.1.3,1.4,1.4,0,0,1,.8,1,2.8,2.8,0,0,1-.1,1.3,2.9,2.9,0,0,1-1.8,1.8h-.9a1.7,1.7,0,0,1-1.1-.4,1.9,1.9,0,0,1-.4-1.3,2.8,2.8,0,0,1,.1-.9,3.6,3.6,0,0,1,.4-.9,2.4,2.4,0,0,1,.9-.8h1.3a1.7,1.7,0,0,1,1,.3,2.3,2.3,0,0,1,.7,1,2.8,2.8,0,0,1,0,1.3,3.6,3.6,0,0,1-.5.9,2.6,2.6,0,0,1-1.3.8,2.3,2.3,0,0,1-1.4.1,1.2,1.2,0,0,1-1.1-1.2,4.1,4.1,0,0,1,.1-1.1,10.9,10.9,0,0,1,.8-1.5c.2-.2.4-.5.6-.6a1.5,1.5,0,0,1,1-.4,1.8,1.8,0,0,1,.9.4,1.3,1.3,0,0,1,.4.9"/><path class="cls-4" d="M211.1,121a.8.8,0,1,1-1.4.8l-.4-.2a.6.6,0,0,0-.4.2,2.5,2.5,0,0,0-.4,1.6v.2l.3.3h.1l.3-.5a7.6,7.6,0,0,0,.4-1.1c.1-.4.2-.6.2-.7h-.3a4.6,4.6,0,0,0-.7,1.3,3.4,3.4,0,0,0-.1.9c0,.2-.1.1,0,.2h.5a2.5,2.5,0,0,0,.7-.9,1.4,1.4,0,0,0,.2-.6,1,1,0,0,0,.1-.4v-.2H210a1.7,1.7,0,0,0-.6.6,1.3,1.3,0,0,0-.1.6.4.4,0,0,0-.1.3h0l-.2-.2h.1l.5-.2a4.5,4.5,0,0,0,1-.9.5.5,0,0,0,.3-.4v.2c-.1-.1.3.3.2.3h.1l-.2.4h0s-.1-.2,0-.1-.2-.3-.2-.2h0l.2-.2h.3c0,.1-.1.1-.2.2a1.8,1.8,0,0,0-.2,1.1l-.2-.3c.1.1-.1,0-.1,0h-.1a.3.3,0,0,0,.1-.2l.2-.4v-.6l.2.3h.1c-.1,0,.1.1,0,.1h-.2c-.1,0-.3.3-.5.7a1.8,1.8,0,0,0-.2.9v.3h0s-.2-.3-.1-.2l-.3-.2h0l1-1c.2-.1.3-.4.4-.6v-.3c0-.1.1.1,0,0h-.2l-1,.7-.3.5v-.2c0,.1-.1-.1-.1-.1s-.1-.1-.1-.1h.3l1-.4a1,1,0,0,0,.6-.5l.2-.2s-.1.2-.1.1-.1.2,0,.2v.5h-.6l-.3.2h0a.8.8,0,0,1-.8.9.9.9,0,0,1-.9-.8,2,2,0,0,1,.6-1.4,1.6,1.6,0,0,1,1.3-.6h1.1l.6.2.3.2a.9.9,0,0,1,.3.6.9.9,0,0,1-.3.7c-.1.1-.1.2-.2.2a2.4,2.4,0,0,1-1.1.8l-1.2.6a2,2,0,0,1-1.5-.1,1.3,1.3,0,0,1-.6-.7,1.4,1.4,0,0,1,0-.9,3,3,0,0,1,.6-1.1,8.3,8.3,0,0,1,1.5-1.1l.9-.2a1.5,1.5,0,0,1,1.1.3,1.9,1.9,0,0,1,.5.9,1.9,1.9,0,0,1-.2,1.4,6.1,6.1,0,0,1-.7,1,3.1,3.1,0,0,1-2.1,1.5h-.6a.8.8,0,0,1-.6-.4,1.3,1.3,0,0,1-.2-.9,5.3,5.3,0,0,1,.4-1.7c.3-.5.5-1.2,1.4-1.5a1.8,1.8,0,0,1,1-.2l.6.2a1,1,0,0,1,.5.8,2.5,2.5,0,0,1,.1.8,1.6,1.6,0,0,1-.4,1,1.4,1.4,0,0,1-.6.9,2,2,0,0,1-1.1.3.9.9,0,0,1-.6-.3,1.5,1.5,0,0,1-.5-.6,2.6,2.6,0,0,1,.7-2.7l.7-.5h.5a1.1,1.1,0,0,1,.7.2l.5.5a1.2,1.2,0,0,1,.2.9,1.6,1.6,0,0,1-1.2,1.6,1.5,1.5,0,0,1-.9.2h-.5l-.6-.6a2,2,0,0,1,0-1.1,2.6,2.6,0,0,1,.9-1.2l.9-.4h.5l.4.2a1.2,1.2,0,0,1,.4.8,3.1,3.1,0,0,1-.8,1.5,4.4,4.4,0,0,1-1.5,1.2,2.1,2.1,0,0,1-1.4.4h-.6a1.3,1.3,0,0,1-.7-.6,1.6,1.6,0,0,1-.1-.9,5,5,0,0,1,.4-1.3c.2-.5.6-.7.8-1a2,2,0,0,1,.8-.4h.7a1.3,1.3,0,0,1,1,.3,2.1,2.1,0,0,1,.6,1,2.3,2.3,0,0,1-.1,1.2,4.2,4.2,0,0,1-.4,1,2.9,2.9,0,0,1-1.5,1.6l-1,.2a2,2,0,0,1-1.1-.3,2.1,2.1,0,0,1-.7-1.4,7.8,7.8,0,0,1,.2-1.4,4.3,4.3,0,0,1,1.4-2.3,2.3,2.3,0,0,1,1.6-.2,1.4,1.4,0,0,1,.8.5,1.3,1.3,0,0,1,.4.9,3.7,3.7,0,0,1-.2,1.2,5.8,5.8,0,0,1-.5,1.4l-.4.7a1.6,1.6,0,0,1-.9.7,2.5,2.5,0,0,1-1.2-.1c-.5-.1-.7-.5-.9-.6a3.1,3.1,0,0,1-.5-1,3.7,3.7,0,0,1,.8-3,2.2,2.2,0,0,1,1.7-.9,2.5,2.5,0,0,1,1.7,1.1"/><path d="M52.5,149a.7.7,0,0,1,1,.4.8.8,0,0,1-.4,1.1h.2s.1-.1,0-.1l-.3.3a.8.8,0,0,1-1.2-.1.8.8,0,0,1,.1-1.1l.3-.2.3-.2m-.3-2.2a.8.8,0,0,1,.4,1.1.8.8,0,0,1-1.1.4L51,148h.4a3.5,3.5,0,0,0-.1.6,2.4,2.4,0,0,0,0,.9h.6a.4.4,0,0,0,.1-.3,2.1,2.1,0,0,0,0-.8l-.4-.2c-.1,0,0,0,0,.1s-.2.5-.3,1.1-.2,1.2-.2,1.3h.1l.4-.2a4.8,4.8,0,0,0,.7-1.6v-.7h-.5l-.8.3a2.6,2.6,0,0,0-.6,1.7H51a2.9,2.9,0,0,0,1.1-1.6v-.3h-.6a.8.8,0,0,0-.2.6v.5h-.2l.6-.2.7-1,.2-.7v-.3h0v.2l.2.2h-.3a3.2,3.2,0,0,0-.8,1,1.3,1.3,0,0,0-.1.6h-.2l.5-.2h0c0-.1-.1.3,0,.2a.8.8,0,0,1,.8-.8.9.9,0,0,1,.8.9c0,.4-.1.3-.1.4l-.2.2a1.8,1.8,0,0,1-.7.5,1.7,1.7,0,0,1-1.6.2,1.4,1.4,0,0,1-.7-.6,1.2,1.2,0,0,1-.2-.8,1.9,1.9,0,0,1,.2-1.4,2.8,2.8,0,0,1,2-1.9h.8a1.1,1.1,0,0,1,.9.4,1,1,0,0,1,.2,1,2.3,2.3,0,0,1-.4,1.4,3,3,0,0,1-1.3,1.7,1.9,1.9,0,0,1-1.1.4,1.3,1.3,0,0,1-1.3-.5,2.5,2.5,0,0,1-.5-1.6,3.6,3.6,0,0,1,.7-1.7,2.5,2.5,0,0,1,1.6-.6l.9.2a1.3,1.3,0,0,1,.8.7,2.6,2.6,0,0,1,.1,1.5,3.4,3.4,0,0,1-2.1,2.7,2.6,2.6,0,0,1-1.2.1,1.9,1.9,0,0,1-1.7-1.8,3.7,3.7,0,0,1,1.4-3.1,2.4,2.4,0,0,1,1.8-.5,2,2,0,0,1,1.8.9,2.9,2.9,0,0,1,.2,1.8,5.3,5.3,0,0,1-1.2,2.5,2.6,2.6,0,0,1-1.4.7,2,2,0,0,1-1.8-1.4,5.9,5.9,0,0,1,.1-1.9,3.4,3.4,0,0,1,.8-2.1,1.8,1.8,0,0,1,1.6-.5,3.4,3.4,0,0,1,1.3.9,2.6,2.6,0,0,1,.3,2.1,1.7,1.7,0,0,1-.7,1.2,1.9,1.9,0,0,1-1.2.3,2.8,2.8,0,0,1-1.5-.6,2.5,2.5,0,0,1-.5-2.5,1.6,1.6,0,0,1,.3-.9c0-.2.1-.3.3-.5a.9.9,0,0,1,.6-.3,1.3,1.3,0,0,1,1.3.4"/><path d="M48.8,148.5a.7.7,0,0,1,1.1,0,.9.9,0,0,1,0,1.2h-.1c-.6.4-.7.2-.7.2h.1c-.1,0,.2-.3.2-.2s.1-.4.1-.3a.8.8,0,1,1-1.6-.2c0-.3.3-.6.5-.8h.4c.1,0-.1.1,0,.1m-.8,1a.9.9,0,1,1,1.1-1.3c0,.1-.2-.1-.1-.1h.5c0,.1.1.1.2.1l.2.2a.8.8,0,0,1-.1,1.2.8.8,0,0,1-1.1-.1h.2c0-.1.2,0,.1,0H48m-.8.5c-.4-.1-.8-.5-.7-.9a.8.8,0,0,1,.8-.8h4.2a.8.8,0,0,1,.8.9.8.8,0,0,1-.8.8h-.7l-1.4-.2h-.8a1,1,0,0,1-.9-.8.9.9,0,0,1,.8-.9h1.1l1.2.2h.7a.8.8,0,0,1,.8.9.8.8,0,0,1-.8.8H47.2"/><path d="M53.4,147.1c.3.4.4.9,0,1.2a.8.8,0,0,1-1.1.1h-.1a2.3,2.3,0,0,0-.5.5,2.1,2.1,0,0,0-.3,1.4s-.1-.1-.1,0h.1l.7-.5v-.3a.5.5,0,0,0-.1-.3,1.6,1.6,0,0,0-.9-.3h-.4s.1,0,0,.1-.1.4-.2.6.1.3.1.4h.8c.1,0,.4-.3.6-.7a6.5,6.5,0,0,0,.4-1.3v-.4h-.3l-.5.2a3.1,3.1,0,0,0-.4,1.2c0,.2,0,.3.1.4v.2h.1a2,2,0,0,0,.8-.8h0v-.3H52l-.6.2a1,1,0,0,0,.1.7.8.8,0,1,1-1.5.7,2.3,2.3,0,0,1,.1-2.3,2.2,2.2,0,0,1,1.9-1,2,2,0,0,1,1.5.4,1.9,1.9,0,0,1,.4,1.3,1.5,1.5,0,0,1-.2,1.1,3.2,3.2,0,0,1-1.8,1.6,1.4,1.4,0,0,1-1.1-.1,1.8,1.8,0,0,1-1-.9,2.4,2.4,0,0,1-.2-1.5,3.2,3.2,0,0,1,1-2.2,2.4,2.4,0,0,1,1.4-.5h.9a1.1,1.1,0,0,1,.9.6,1.8,1.8,0,0,1,.2,1.4,7,7,0,0,1-.6,1.9,3.5,3.5,0,0,1-1.3,1.4,3.4,3.4,0,0,1-1.3.2,2.2,2.2,0,0,1-1.5-.8,2.2,2.2,0,0,1-.4-1.6,2.7,2.7,0,0,1,.3-1.2,1.9,1.9,0,0,1,1.2-.9,1.4,1.4,0,0,1,.9,0,2.2,2.2,0,0,1,1.8.7,2.4,2.4,0,0,1,.7,1.7,2.6,2.6,0,0,1-.4,1,2.5,2.5,0,0,1-1.8,1.2,1.8,1.8,0,0,1-1-.2,1.8,1.8,0,0,1-.7-.8,3.1,3.1,0,0,1,.5-3,2.9,2.9,0,0,1,1.2-1l.9-.2.9.4"/><path d="M211.8,161.5a.8.8,0,0,1-1,.6.7.7,0,0,1-.6-.9H210a1.7,1.7,0,0,0-1.1.8c-.2.2-.2.3-.2.3v.3h.5c.2,0,.4-.2.6-.4a1.5,1.5,0,0,0,.2-.9h-.4c-.1-.1-.4,0-.7.2a2.3,2.3,0,0,0-.7.7.5.5,0,0,0,0,.5l.5.4h.6c.4,0,1.2-.8,1.4-1.4v-.3h-.4l-.8.2c-.2,0-.5.5-.6.9s-.2.6-.1.7h.4a3.2,3.2,0,0,0,1.5-.8l.3-.4a1.1,1.1,0,0,0-.2-.6h-.3a2.5,2.5,0,0,0-.9.4,2.1,2.1,0,0,0-.7,1.1c-.1.3,0,.4,0,.4h1.7a.9.9,0,0,0,.6-.4c.1,0,.1-.1.1-.2l-.2-.3-1.3-.2-.6.3-.2.4c0,.2-.1.1,0,.2h0l.6.2h.2c.1,0,.1-.1.2-.4s.1-.2,0-.4l-.3-.3h-.3a4.5,4.5,0,0,0-.3.8,2.3,2.3,0,0,0-.1.7h.5a2.6,2.6,0,0,0,.8-1.1v-.6h-.2c0,.1-.3.3-.5.7v.3h-.1c.1,0-.1-.2-.1-.2h-.3l.5-.3h0c.1,0,0,.2,0,.1v.3c-.1-.2.4.5.2.4h.3l-.2.2h-.1a.8.8,0,0,1-1.5-.5,1.5,1.5,0,0,1,.9-1.1l.6-.3h1c.2.2.3.3.3.5a.8.8,0,0,1,.1.4l-.2.4a1.3,1.3,0,0,1-.6.7l-.8.5h-.5a.8.8,0,0,1-.8-.2,1.5,1.5,0,0,1-.5-1.1,4.4,4.4,0,0,1,.2-1,2.5,2.5,0,0,1,1.5-1.5,1.6,1.6,0,0,1,1-.1,1.2,1.2,0,0,1,1,.5,1.7,1.7,0,0,1,.4,1.3,2.9,2.9,0,0,1-.2.9,3.5,3.5,0,0,1-1.6,2,3.2,3.2,0,0,1-1.3.2l-.9-.4a2.1,2.1,0,0,1-.6-1,3.2,3.2,0,0,1,.1-1.4,2.7,2.7,0,0,1,1.3-1.9,1.7,1.7,0,0,1,1.4,0,2.2,2.2,0,0,1,1.2,1.1,2,2,0,0,1,.2,1.7,2.5,2.5,0,0,1-1.3,1.4h-.8l-1-.2c-.4-.2-.8-.3-1-.9a1.4,1.4,0,0,1-.1-1.1,2.7,2.7,0,0,1,.7-1.3,2.9,2.9,0,0,1,1.6-.7,3.1,3.1,0,0,1,2.4.6,2,2,0,0,1,.9,1.6,2.3,2.3,0,0,1-.6,1.2,2.2,2.2,0,0,1-1.3.8,4,4,0,0,1-1.9.2,2,2,0,0,1-1.7-.8,2.3,2.3,0,0,1-.2-1.8,3.8,3.8,0,0,1,1.3-1.9,4.6,4.6,0,0,1,1.6-.7,2,2,0,0,1,1.8.4,2.4,2.4,0,0,1,.6,2,3.2,3.2,0,0,1-.8,1.4,3.5,3.5,0,0,1-2.4,1.2h-1a2,2,0,0,1-1.2-1.2,2.5,2.5,0,0,1,.1-1.7,2.8,2.8,0,0,1,1.5-1.9,2.7,2.7,0,0,1,1.5-.3l1.1.2a1.8,1.8,0,0,1,.8.9,2.2,2.2,0,0,1,0,1.4,3.7,3.7,0,0,1-2.8,2.6h-1.3a2.7,2.7,0,0,1-1.5-1.3,2.1,2.1,0,0,1,.1-2,3.7,3.7,0,0,1,1.2-1.3,3.2,3.2,0,0,1,1.9-.5,2.3,2.3,0,0,1,1.2.6,1.7,1.7,0,0,1,.5,1.2,2.8,2.8,0,0,1-.4,1.8,2.4,2.4,0,0,1-1.6,1.2h-1.1a1.7,1.7,0,0,1-1.2-.7,2.2,2.2,0,0,1-.3-1,3.3,3.3,0,0,1,.4-1.4,3.4,3.4,0,0,1,2.4-1.5,1.9,1.9,0,0,1,1.4.3,1.8,1.8,0,0,1,.5.7v.9"/><path d="M212,161.8a.8.8,0,0,1,1-.5.8.8,0,0,1,.6,1c-.1.2,0-.4,0-.3s-.1-.2,0-.2h0a.9.9,0,0,1-.2,1.1.8.8,0,0,1-1.2-.2v-.2s-.1,0-.1-.3v-.4m1.7.3a.8.8,0,0,1,1.6.2c-.1.6-.3.6-.4.6h-.8c-.6.1-1-.2-1.3-.2h.3a.8.8,0,0,1-1.1-.4.9.9,0,0,1,.5-1.1,1.1,1.1,0,0,1,.6,0h.8c.1,0-.1.2-.1.2s-.1.4-.1.3m-.4,0a.8.8,0,1,1-1.6.3,1.5,1.5,0,0,1,.1-.6l.4-.3h2.7c.1,0,.3.1.4.5a.8.8,0,0,1-.6,1,.9.9,0,0,1-1-.5c0-.2.3.3.2.3s.2.1.2.1h-.2a1.5,1.5,0,0,1-1,.1h-.1c-.1,0,.2-.1.1-.1h.2c-.1.1.2-.3.1-.2v-.5"/><path class="cls-4" d="M214,122.7a.9.9,0,0,1-.9-.8.8.8,0,0,1,.9-.8h34.4a.7.7,0,0,1,.8.8.8.8,0,0,1-.8.8Z"/><path class="cls-4" d="M247.6,121.9a.8.8,0,0,1,.8-.8.7.7,0,0,1,.8.8v9a.7.7,0,0,1-.8.8.8.8,0,0,1-.8-.8Z"/><path class="cls-5" d="M8.2,118a.7.7,0,0,1,.3-1.1.8.8,0,0,1,1.1.3h0c.1,0,.1.1.1.2a2.4,2.4,0,0,1,.3.7,35.7,35.7,0,0,1,.9,4.3l.6,2c.1.6.3,1.2.4,1.9a12.2,12.2,0,0,1,.3,1.7,2.1,2.1,0,0,1,.1.6l-.2-.2h-.5c.1,0,0,.1,0,.1l.2-.5.8-2.3,1.7-4.8c.4-1,.8-1.8,1-2.4a11.7,11.7,0,0,1,.5-1.1,1,1,0,0,1,.4-.5c0-.1.1-.2.4-.2s.9.4,1,.7-.1.6-.2.7l-.4.6a.9.9,0,1,1-1.3-1.1l.3-.3h0v.2s.1.3,0,.3.3.2.2.2.5.2.3.2h.7c0,.1.1,0,.1,0l-.5,1c-.2.7-.6,1.5-.9,2.4s-1.3,3.2-1.8,4.8-.6,1.6-.8,2.3a1.5,1.5,0,0,1-.8,1.2h-1a1.2,1.2,0,0,1-.7-.7,6.4,6.4,0,0,0-.2-.9,10.1,10.1,0,0,0-.3-1.7,11.6,11.6,0,0,0-.4-1.8l-.6-2.1c-.3-1.5-.6-3.1-.9-4.1a2.5,2.5,0,0,1-.2-.7h0m1.7,0a.8.8,0,0,1-.5,1,.9.9,0,0,1-1.1-.5,2.1,2.1,0,0,0-.2-.6h0a.8.8,0,0,1,.6-.9.8.8,0,0,1,1,.6h0c.1.2.1.5.2.6"/><path class="cls-5" d="M14.1,128.4a.9.9,0,0,1,1.1-.6.9.9,0,0,1,.5,1.1v-.2c0,.1-.1-.4,0-.3l-.2-.2c.1,0-.3-.3-.2-.3H15c.1.1-.4.1-.4.1h0a5.8,5.8,0,0,1,.8-1,13.6,13.6,0,0,1,1.2-1.2,2.3,2.3,0,0,1,1.2-.6,1.1,1.1,0,0,1,1,.3,2.5,2.5,0,0,1,.4.7,2.8,2.8,0,0,1,0,1.3c0,.4-.1.8-.1,1.1v.4H19c.1,0,0-.2,0-.1v-.2a.7.7,0,0,1-.2,1.1.7.7,0,0,1-1.1-.2c-.5-.6-.2-.8-.1-1.2s.1-.7.1-1v-.8H18l-.3.2L16.6,128l-.8.9-.3.4h-.2a1,1,0,0,1-.8,0,.8.8,0,0,1-.4-.8v-.2"/><path class="cls-5" d="M244,137a.8.8,0,0,1-.8.9.8.8,0,0,1-.8-.8,1.4,1.4,0,0,1,0-.9s-.1-.1.1-.3a.4.4,0,0,1,.4-.3.8.8,0,0,1,.9.2l.2.4v.3a16.5,16.5,0,0,1,.2,2.7c.1,2.1.2,4.7.4,6.4s.2,1,.2,1.2v.3h-1c.1-.1.2-.2.2-.3s.8-2.1,1.4-3.6l1.2-2.4c1.5-2.9,2.6-4,3.7-4.5a.8.8,0,0,1,1.1.4.7.7,0,0,1-.4,1,3.9,3.9,0,0,0-1.1.9,17.8,17.8,0,0,0-1.9,3,22.6,22.6,0,0,0-1.1,2.2,29.3,29.3,0,0,1-1.4,3.7,2.1,2.1,0,0,1-.4.6l-.3.3a1.1,1.1,0,0,1-.8.1,1.1,1.1,0,0,1-.7-.6c0-.2-.1-.3-.1-.5a5.7,5.7,0,0,1-.3-1.5c-.3-1.9-.3-4.4-.4-6.5s-.1-2.1-.2-2.6h0s.1.2.1.1.1.2.1.2l.2.2h.7l.3-.2c-.1.1.1-.2.1-.2s.1-.2.1-.1,0-.1,0-.1h0v.4"/><path class="cls-5" d="M251.1,144.1a.8.8,0,0,1-.4,1.1.8.8,0,0,1-1.1-.4,2,2,0,0,1-.1-.5,1.3,1.3,0,0,1,.9-.7c.4,0,.4.1.5.2a1,1,0,0,1,.5.4l.7.3a1.7,1.7,0,0,1,.4,1.6c-.2,1-.9,1.2-1.3,1.5l-.5.3-.3.3h0c-.1,0,0-.1,0-.1v-.2c0,.2-.1-.5,0-.4l-.2-.2h-.1a.1.1,0,0,0,.1.1h.7a6.8,6.8,0,0,1,3.5,1.7.8.8,0,0,1,.1,1.1.7.7,0,0,1-1.1.2c-1-.7-1.7-1.3-2.6-1.3h-.9l-.5-.2h-.3a1.5,1.5,0,0,1-.3-.8c0-.4.3-.6.4-.8l.4-.3.6-.5.6-.4a.1.1,0,0,0,.1-.1h.1l-.6-.4-.4-.3h.6c-.2,0,.5-.4.4-.3l.2-.4c-.1.2-.1-.3-.1-.3s0-.1,0-.1"/><path d="M214,15.5a.4.4,0,0,1-.4-.4.4.4,0,0,1,.4-.4H352.4a.4.4,0,0,1,.4.4.4.4,0,0,1-.4.4Z"/><path d="M209.4,166.6a.4.4,0,0,1,.4-.4.5.5,0,0,1,.5.4v12.6a.5.5,0,0,1-.5.4.4.4,0,0,1-.4-.4Z"/><path d="M208.9,208.7a.3.3,0,0,1,.5-.3c.2,0,.4.2.3.4h.1a.7.7,0,0,1-.3.6.5.5,0,0,1-.5-.3h0c-.1,0-.1,0-.1-.2m.2-20.3a.4.4,0,1,1,.8,0h0v.2c0,1.3.1,3.6.2,5.2s.1,2.6.1,3.9,0,4-.1,6a26.1,26.1,0,0,1,0,2.8,7.7,7.7,0,0,0-.2,1.5,1.7,1.7,0,0,0-.1.7c0,.2.1.3,0,.5s-.4.3-.6.3a.5.5,0,0,1-.2-.6h0a.3.3,0,0,1,.1-.5.3.3,0,0,1,.5,0h.2a.8.8,0,0,1,0,.5l-.8-.3h0v-1.1l.3-1.5v-2.8c.1-1.9,0-3.9,0-5.9s.1-2.5,0-3.8a50.6,50.6,0,0,1-.2-5.3v-.2h0m.8.7a.4.4,0,1,1-.8,0v-.7h0a.4.4,0,1,1,.8,0h0v.7"/><path d="M209.6,72.8a.4.4,0,1,1,.8,0h0v.6c0,3-.2,6-.2,8.7s-.2,2.8-.4,4.2a12.7,12.7,0,0,0-.1,2v1.4h0a.3.3,0,0,1,.3.5c0,.2-.2.3-.4.3a.7.7,0,0,1-.6-.3,1.3,1.3,0,0,1-.1-.6V88.4a14.8,14.8,0,0,1,.1-2.1,28.3,28.3,0,0,0,.3-4.1c.1-2.7.3-5.7.3-8.7v-.6h0m.8,0a.4.4,0,1,1-.8,0h0a.4.4,0,1,1,.8,0h0"/><path d="M210.3,119.1a.5.5,0,0,1-.5.4.4.4,0,0,1-.4-.4V103.3a.4.4,0,0,1,.4-.4c.3,0,.5.1.5.4Z"/><path class="cls-4" d="M203.2,96.8a.8.8,0,0,1-.5,1.1.8.8,0,0,1-1-.5h-.1v-.4a3.3,3.3,0,0,1,.7-2.1,8.5,8.5,0,0,1,1.6-1.7,3.4,3.4,0,0,1,1.9-.9,2.2,2.2,0,0,1,1.8.6l.9.8.9.6a4.7,4.7,0,0,0,1.6.4h.8l1.9-1.2a5.6,5.6,0,0,1,1.6-.7c.6-.1.9,0,1.5-.6a.9.9,0,0,1,1.2,0,.8.8,0,0,1-.1,1.2,4.1,4.1,0,0,1-2.2,1l-1.1.5a13.9,13.9,0,0,1-2.5,1.4,4.7,4.7,0,0,1-1.2,0,5.7,5.7,0,0,1-2.2-.7,4.7,4.7,0,0,1-1.2-.7l-.9-.8-.6-.3a2.1,2.1,0,0,0-1.1.5,8.1,8.1,0,0,0-1.2,1.4,3.6,3.6,0,0,0-.5,1h0m-1.6.4a.8.8,0,0,1,.6-1,.8.8,0,0,1,1,.6h0a.8.8,0,0,1-.6.9.8.8,0,0,1-1-.7h0"/><path class="cls-4" d="M203.5,186.1a.8.8,0,0,1,.5,1.5h-.4l-.6-.3a.7.7,0,0,1-.2-.6v-.3a4.3,4.3,0,0,1,.4-.7l.7-.9a4,4,0,0,1,1-1.2,1.8,1.8,0,0,1,.7-.5,6,6,0,0,1,2.2-.6h1.1c1.1.1,1.6,1.1,2,1.7l.5.7a1.2,1.2,0,0,0,1,.4c.4.1,1-.2,1.7-.7l1.9-2a.9.9,0,0,1,1.2,0,.8.8,0,0,1,0,1.1,21.3,21.3,0,0,1-2.1,2.2,4.1,4.1,0,0,1-2.8,1.1,3.1,3.1,0,0,1-2.2-1.1l-.6-.8a2.3,2.3,0,0,0-.8-1H208a3.8,3.8,0,0,0-1.6.5.5.5,0,0,0-.4.2,3.6,3.6,0,0,0-.8.9l-.6.9-.2.3v-.4l-.2-.3-.3-.2h-.4"/><path class="cls-4" d="M127.4,89.4a.4.4,0,0,1,.5.2.6.6,0,0,1-.3.6h0c0,.1.2,0,.1,0h.1l-.8,1.5a12.4,12.4,0,0,0-.9,3.3,3.2,3.2,0,0,0,.1,1.4c.1.3.3.5.5.5h.4c.7-.1,1.6-1.4,2.4-2.5l1-1.4.3-.5c.1-.1.1-.2.3-.2s.3-.1.5.1a.4.4,0,0,1,.1.3,7.9,7.9,0,0,1-.3,1.3,4.5,4.5,0,0,0-.2,1.9h.2l.6-.3.9-.9.9-1,.5-.3a1,1,0,0,1,.7.2.9.9,0,0,1,.1.5v.3c-.1.2-.1.4-.2.6v.4h-.1l.5-.4,1.5-.8a1.1,1.1,0,0,1,.8-.1c.2,0,.4.1.4.3a.4.4,0,0,1,.1.3,1.3,1.3,0,0,1,.1.6c.1.5.2.8.7,1a.4.4,0,0,1,.2.5.5.5,0,0,1-.5.3,2.2,2.2,0,0,1-1.2-1.7,1.3,1.3,0,0,0-.1-.6h-.2l-1.3.7-.5.3a.5.5,0,0,1-.6.3l-.5-.2a.6.6,0,0,1-.1-.4v-.6c.1-.3.1-.5.2-.6V94h0s.1.1,0,.1h0l-.8,1-1,.9a1.6,1.6,0,0,1-1.1.5.7.7,0,0,1-.6-.2,1,1,0,0,1-.4-.5,6.2,6.2,0,0,1,.2-2.3,11,11,0,0,1,.3-1.1h.2c-.1,0,.2.1.1.1h.3l-.4.4a8,8,0,0,1-.9,1.4c-.8,1.2-1.7,2.6-2.8,2.9h-1a1.8,1.8,0,0,1-1-1.1,3.2,3.2,0,0,1-.1-1.7,14.7,14.7,0,0,1,1.8-5.1h.3m-.4,2.5a.6.6,0,0,1-.6.3.4.4,0,0,1-.2-.5,7.6,7.6,0,0,1,.4-1.1l.4-.7a.3.3,0,0,1,.1-.2h0a.3.3,0,0,1,.3-.5.4.4,0,0,1,.5.2v.2h0c-.1.1-.1.3-.2.4l-.3.6a3.4,3.4,0,0,0-.4,1"/><path class="cls-4" d="M141.4,93.2a.4.4,0,0,1-.6,0,.3.3,0,0,1,0-.5h1.6a4.5,4.5,0,0,0,1.6-.3.4.4,0,1,1,.3.7,9,9,0,0,1-3.1.5h.1c-.1,0,.1-.1,0-.1h.1m2.1-5.4a.4.4,0,0,1-.2.5c-.2.1-.5.1-.6-.1s.1.1.1,0h.1c-.1,0,.2.1.1.1h.3c-.1,0-.1.2-.2.4a14.5,14.5,0,0,0-.6,1.9,31,31,0,0,0-1,4.2v.9h-.3c.1,0-.1.1-.1.1H141V93.8a1.4,1.4,0,0,1-.2-.6h-.1v-.3a.4.4,0,0,1,.4-.4.5.5,0,0,1,.4.5s-.1-.2,0-.2-.1-.1-.1-.1h0a.3.3,0,0,1,.1.2,2.2,2.2,0,0,1,.3.8v2.1a.6.6,0,0,1-.2.5c-.1,0-.3.1-.4,0h-.3a.8.8,0,0,1-.2-.5v-1a33.1,33.1,0,0,1,1-4.4c.2-.7.4-1.4.6-1.9l.3-.6.3-.2c.1-.1.5,0,.6.2"/><path class="cls-4" d="M147.8,92.4a.5.5,0,0,1-.2.6.4.4,0,0,1-.5-.2h0s.2.1.1.1h-.1a2.8,2.8,0,0,0-.6.8,4.5,4.5,0,0,0-.6,1.2,2.8,2.8,0,0,0-.1.8v.4h.1a1.4,1.4,0,0,0,.9,0,2.8,2.8,0,0,0,1.1-.8.3.3,0,0,1,.5-.1.5.5,0,0,1,.1.6,3.3,3.3,0,0,1-1.5,1.1,2.2,2.2,0,0,1-1.4,0,.8.8,0,0,1-.5-.5,1.3,1.3,0,0,1-.1-.6,2.2,2.2,0,0,1,.2-1.1,4.7,4.7,0,0,1,.6-1.5,2,2,0,0,1,.9-.9c.1-.2.3-.2.5-.3a.8.8,0,0,1,.6.4"/><path class="cls-4" d="M148.7,92.6a.4.4,0,0,1,0,.6c-.1.2-.4.1-.5,0l-.3-.3h.5v-.2h0c0,.1.1.2.1.3a.8.8,0,0,1,.1.7l-.4.4c-.2.1-.4,0-.6,0s-.4-.3-.3-.5a.3.3,0,0,1,.5-.3h.1s-.1.2-.1.1h0V93c-.1-.1-.1-.1-.1-.2h-.1c0-.1-.1,0,0-.3s.2-.3.3-.4h.4l.3.3"/><path class="cls-4" d="M150.5,96.2c-.2,0-.5-.1-.5-.4s.1-.4.3-.4-.2.1-.1,0H150v-.2a1.7,1.7,0,0,1,.1-.7,3.7,3.7,0,0,1,.8-1.8c.4-.4,1-.3,2.4-.5s.4.1.4.3-.1.4-.3.5l-1.5.2h-.4a3.1,3.1,0,0,0-.6,1.4c0,.2-.1.4-.1.6s0,.2-.1.2v.2s0,.2-.3.3m-.5-1.6c-.1-.2.1-.4.3-.4s.4,0,.5.3v1.1h0a.4.4,0,0,1-.2.5.4.4,0,0,1-.6-.2h0v-1"/><path class="cls-4" d="M157.8,88.5a.4.4,0,0,1,.5.3.5.5,0,0,1-.3.5h.3a6.4,6.4,0,0,0-.4,1l-.7,1.4c-.3.8-.6,1.5-.7,1.9v.3h.1a14.9,14.9,0,0,1,1.7.1l.5.2a1,1,0,0,1,.4.5,1.9,1.9,0,0,1-.2.8l-.4.6a3.2,3.2,0,0,1-1.9,1.4,1,1,0,0,1-1-.3c-.3-.2-.3-.6-.3-1.1s.3-.4.5-.3a.3.3,0,0,1,.3.5c0,.2,0,.3.1.4h.2a2.7,2.7,0,0,0,1.4-1.1l.4-.5v-.2h-.2a2.7,2.7,0,0,0-.9,0,2.5,2.5,0,0,1-1.2-.2,1,1,0,0,1-.4-.5.9.9,0,0,1,0-.7,8,8,0,0,1,.8-2.1,14.7,14.7,0,0,0,.6-1.4l.4-1c0-.1-.1-.1.1-.2h.2m.4.9c-.1.2-.3.4-.5.3a.3.3,0,0,1-.3-.5.8.8,0,0,0,.1-.4h0s.2.2.1.2-.2-.5,0-.6a.4.4,0,0,1,.6,0V89a.8.8,0,0,1-.1.4"/><path class="cls-4" d="M161.5,96.8a.4.4,0,0,1-.5.2c-.2,0-.3-.3-.3-.5s0,.1,0,.1h0v-.2a1.3,1.3,0,0,1-.1-.6,6.6,6.6,0,0,1,.4-1.5,3.1,3.1,0,0,1,1.3-2.1,2,2,0,0,1,2.1.2.4.4,0,0,1,.2.5.5.5,0,0,1-.6.2c-.6-.3-1-.4-1.3-.2a2.6,2.6,0,0,0-.9,1.6c-.2.5-.3,1-.4,1.3s.1.3.1.4v.2h0s.1,0,0,.2m-.5-1.4a.3.3,0,0,1,.3-.5.5.5,0,0,1,.5.4c0,.3-.1.7-.1,1l-.2.6a.5.5,0,0,1-.6.1.4.4,0,0,1-.1-.6h0a.4.4,0,0,1,.1-.3,5.6,5.6,0,0,1,.1-.7"/><path class="cls-4" d="M166.6,92.7a.4.4,0,0,1,.5.2.4.4,0,0,1-.3.5,3.8,3.8,0,0,0-.9.9,3,3,0,0,0-.5,1.4.4.4,0,0,0,0,.5h.3l.9-.5a.3.3,0,0,1,.5.1c.2.2.1.4-.1.6l-1,.6h-.9a.7.7,0,0,1-.5-.6,2.2,2.2,0,0,1-.1-.8,5.1,5.1,0,0,1,.7-1.7,3.2,3.2,0,0,1,1.4-1.2"/><path class="cls-4" d="M166.3,93.5a.5.5,0,0,1,.9.1c0,.1-.1-.2,0-.1v-.2c0,.1-.1,0,0,0h.1a.5.5,0,0,1,.1.6c-.2.2-.4.3-.6.1h-.2a.1.1,0,0,0-.1-.1.4.4,0,0,1-.1-.3m.9-.3a.4.4,0,0,1,0,.8h-.3s.2-.1.1-.1a.4.4,0,0,1-.5-.5h.1c.3-.1.2-.1.3,0h.3"/><path class="cls-4" d="M170.3,92.9c0-.2.3-.3.5-.3a.5.5,0,0,1,.2.6,7.5,7.5,0,0,1-.6,1.3l-.2.5v.2h-.1l.8-.9a22.7,22.7,0,0,0,1.8-2.8l1.1-2.3a12.2,12.2,0,0,0,.7-2v-.2h-.1a6.8,6.8,0,0,0-1.1,1.2,6,6,0,0,0-.9,1.5,4.6,4.6,0,0,0-.4,1.9,2.5,2.5,0,0,0,.8,1.7c.5.6,1,.9,1.2,1.5a3.3,3.3,0,0,1-.1,2.4.6.6,0,0,1-.6.3.4.4,0,0,1-.2-.5c.5-2.1.2-1.9-.9-3.1a3.3,3.3,0,0,1-1-2.3,6.4,6.4,0,0,1,.4-2.2l1-1.7a6.2,6.2,0,0,1,1.4-1.4l.4-.2c.2-.1.4-.1.5.1l.4.4V87a9,9,0,0,1-.7,2.2,17.9,17.9,0,0,1-1.2,2.4c-.6,1-1.2,2.1-1.8,2.9l-.9,1-.4.3h-.2a.3.3,0,0,1-.4,0,.5.5,0,0,1-.3-.5v-.4a1.3,1.3,0,0,1,.3-.8l.6-1.2"/><path class="cls-4" d="M177.6,93.3a.5.5,0,0,1-.2.6.4.4,0,0,1-.5-.2h.4a2.1,2.1,0,0,1-.2.6l-.2.6h.1a.1.1,0,0,0,.1.1l1.3-.9.7-.2.5.3c0,.1.1.2.1.3s.2.3.2.5a.4.4,0,0,1,.1.3h-.1l.3-.2a.3.3,0,0,1,.5.1c.2.2.1.4,0,.6l-.6.3h-.6a1.7,1.7,0,0,1-.4-.7,4.3,4.3,0,0,0-.1-.5h-.2l-.7.5a1.8,1.8,0,0,1-1,.4,1,1,0,0,1-1-1,1.9,1.9,0,0,1,.2-.8l.3-.8.3-.3h.5l.2.2"/><path class="cls-4" d="M181.2,95c0-.3.1-.5.3-.5a.3.3,0,0,1,.5.3,8.5,8.5,0,0,1-.1,2.2,14.5,14.5,0,0,0-.4,2.5c0,.5-.1,1.1-.1,1.6v3.2a2.2,2.2,0,0,1,0,.8,2.5,2.5,0,0,1-.1.8l-.7.4H180a3.2,3.2,0,0,1-1.5-1.3,1.8,1.8,0,0,1-.4-.9,1.5,1.5,0,0,1,.4-1.2.4.4,0,1,1,.6.6c-.2.2-.3.3-.2.4a1.5,1.5,0,0,0,.3.6,3.1,3.1,0,0,0,1,1h.4s-.1.1,0,.1v-4.4a10.3,10.3,0,0,1,.1-1.7c.1-1,.2-1.8.3-2.5a4.9,4.9,0,0,0,.2-1.9"/><path class="cls-4" d="M127.5,91.2c-.1.2-.4.2-.6.1s-.2-.4-.1-.5a5.1,5.1,0,0,0,.4-1,.4.4,0,0,0,0-.5,3.5,3.5,0,0,1,.1-.7l-.5-.3h-.5l-.8.5a8.4,8.4,0,0,0-1.7,2.5.4.4,0,1,1-.8-.4,10,10,0,0,1,2-2.7,2.1,2.1,0,0,1,1-.6,1.2,1.2,0,0,1,1-.1,1.2,1.2,0,0,1,1,.7,1.9,1.9,0,0,1,.1,1,2,2,0,0,1-.1.7,3.5,3.5,0,0,1-.5,1.2"/><path class="cls-4" d="M190.1,93.6c0-.2.2-.3.5-.3a.5.5,0,0,1,.3.5c-.1.3-.3.3-.3.3h-3c-.1,0,.1-.2.1-.1s0-.3,0-.2v-.2c0,.1-.1-.1-.1-.1h.4c.2.1.4.3.3.5a.3.3,0,0,1-.5.3l-.6-.2-.2-.2a.3.3,0,0,1,0-.4c.1-.3.2-.2.3-.3h3.1s-.2.1-.1.1h-.1s-.1.3-.1.2m-2.3.7a.5.5,0,0,1-.6.1.4.4,0,0,1,0-.6,2.4,2.4,0,0,1,2-.6h1.9c.1.1.2.2.2.3v.3l-.2.3a1.5,1.5,0,0,1-.9.2l-1-.2-1-.2h-.4c0,.1.1-.1.1,0v-.2c0,.1-.1-.3,0-.2h2.7l.2.2c.1.2.1.4-.1.5s-.4.1-.6-.1h-2.5c-.1-.1-.3-.1-.4-.3a.4.4,0,0,1,0-.5l.2-.2h1l.9.2h1.3c.1,0-.1.2-.1.2v.2c0-.1.2.1.1.1s.2.1.1,0h-1.5c-.7.1-1.2.1-1.4.3"/><path class="cls-4" d="M189.6,90.7a.4.4,0,0,1,.5.2c.1.2.1.5-.1.6s.1-.1,0-.1h.1l-.5,1.3c-.2.8-.4,1.5-.5,2V95h0s-.1-.2-.1-.1h-.4c.1,0-.1.1,0,.1h0c.1-.2.4-.2.6-.1a.6.6,0,0,1,.1.6l-.4.3h-.4l-.2-.2a2.2,2.2,0,0,1,0-.8,9.7,9.7,0,0,1,.6-2.1,5.3,5.3,0,0,1,.5-1.5h0c0-.1,0-.1.2-.2m-.4,4.9c-.2.1-.5.2-.6,0s-.2-.4-.1-.6,0,.1,0,.1h0c0-.1.2-.6.3-1.2a14.9,14.9,0,0,0,.4-1.8,2,2,0,0,0,.1-.7.4.4,0,0,1,.1-.3h0s.1.1,0,.1a.5.5,0,0,1,.2-.6.4.4,0,0,1,.5.2v.2h0v.3a6.4,6.4,0,0,0-.2.7,12.9,12.9,0,0,1-.4,1.9,4.7,4.7,0,0,1-.4,1.4h0m-.2-4.1a.4.4,0,0,1,.8,0h0a.8.8,0,0,1-.1.4,5.8,5.8,0,0,1-.2,1,3.1,3.1,0,0,1-.1,1c0,.3-.1.6-.1.9v.4h-.1a.4.4,0,0,1-.3.5c-.2.1-.4-.1-.5-.3h0a.6.6,0,0,0,.1-.4c0-.3.1-.6.1-.9s.1-.6.1-1a5.2,5.2,0,0,0,.2-1.1.4.4,0,0,0,.1-.3h0m.8.1c-.1.3-.3.4-.5.3a.3.3,0,0,1-.3-.5h0a.4.4,0,1,1,.8.4h0"/><path class="cls-4" d="M188.8,91.6a.5.5,0,0,1,.2-.6c.2-.1.4,0,.6.2h0c.1.3,0,.2,0,.3a.4.4,0,0,1-.1.3,7.4,7.4,0,0,1-.2,1.2c-.2.8-.4,1.7-.6,2.4l-.4,1.1h-.1c.1,0-.1-.1,0-.1h-.5l.5-.7c.1-.2.4-.2.6-.1a.5.5,0,0,1,.1.6c-.3.3-.4.6-.6.7s0,.2-.3.2-.4-.1-.5-.2v-.3a4.1,4.1,0,0,1,.4-1.2l.6-2.4a8.9,8.9,0,0,0,.2-1.1v-.3h0m.8-.1c-.1.2-.3.4-.5.3s-.4-.3-.3-.5h.1c.2-.2.5-.2.6,0a.5.5,0,0,1-.1.6h.2"/><path class="cls-4" d="M187.8,93.2a.4.4,0,0,1,.4.4.7.7,0,0,1-.5.4h-.1s.1-.1,0-.1h1.8l1.1-.2h.7a.2.2,0,0,1,.2.2c.1.1,0,.4-.1.5s-.4.2-.6.2h-2.9a.2.2,0,0,0-.2.2.4.4,0,0,1-.5.2.5.5,0,0,1-.3-.5,1.6,1.6,0,0,1,.7-.7l.8-.2h2.4c.1-.1-.1.3-.1.2s.1.2.1.2.1.1.1.1h-.2l-1.1.2-1.3.2a1.5,1.5,0,0,1-1.1-.4.8.8,0,0,1-.2-.4.5.5,0,0,1,0-.5c.1-.1.2-.3.4-.4h.5"/><path class="cls-4" d="M128.2,181.8a.5.5,0,0,1-.3.5c-.3,0-.5-.1-.5-.3s0-.2,0-.3h.2l.2-.3.8-1,.7-.8h.2s.2-.1.3,0,.2.2.3.3a2,2,0,0,1-.1.5c-.3.6-.9,1.3-1.4,2.2s-.8,1.9-1.1,2.8a3.6,3.6,0,0,0-.1,2.3h.1a5.1,5.1,0,0,0,1.2-.9,19.9,19.9,0,0,0,2.3-3.6l.4-.7.4-.2c.1-.1.3,0,.4.1a.3.3,0,0,1,.1.2v.6c-.1.5-.3,1.1-.4,1.6a10.4,10.4,0,0,0-.2,1.5,1.5,1.5,0,0,0,.1.6h.3c.5-.1,1.2-1.1,1.9-1.8l.7-.7h.7a.5.5,0,0,1,.4.3.5.5,0,0,1,.1.6v.9s-.1-.2-.1-.1h.7a2.4,2.4,0,0,1,.9-.3.9.9,0,0,1,.5.3c.1.1.1.2.2.4s.1.5.1.8.1.4.1.6h.1a.4.4,0,0,1,.4.4.4.4,0,0,1-.4.4.9.9,0,0,1-.8-.6,3.1,3.1,0,0,1-.2-.8,2.3,2.3,0,0,1-.1-.7h.1l-.7.2-.8.2h-.6l-.2-.3a2.1,2.1,0,0,1,0-.8v-.4h.1l-.6.6c-.6.6-1.3,1.7-2.3,2a1.2,1.2,0,0,1-1-.1,1.8,1.8,0,0,1-.4-1.3,12.8,12.8,0,0,1,.2-1.7c.1-.5.3-1.1.4-1.5v-.3h.1c-.1-.1.2.1.1.1s.2,0,.2,0,.1-.1.1-.1.1,0,.1,0h0l-.4.7a22.5,22.5,0,0,1-2.4,3.6,3,3,0,0,1-1.7,1.2h-.5c-.2,0-.3-.2-.4-.3a4.1,4.1,0,0,1,0-2.9,15.7,15.7,0,0,1,1.2-3l1.3-2.1a.1.1,0,0,1,.1-.1h0c0-.1.1.2,0,.1h.6l-.6.8-.8.9-.3.3h0c0,.1-.1-.2,0-.1"/><path class="cls-4" d="M143.2,179.5c-.1.2-.4.2-.6,0a.6.6,0,0,1,0-.6c.1,0,.2-.2.5-.1s.3.3.4.4a1.3,1.3,0,0,1-.1.6c-.1.5-.2,1.1-.4,1.9s-.6,1.9-.8,2.8a6.7,6.7,0,0,0-.3,1.8.4.4,0,0,0-.1.3v.3l-.7-.4h0l-.2-1.5a6.1,6.1,0,0,0-.1-1.4.9.9,0,0,0-.1-.5,1,1,0,0,1,.2-.7c.2-.3.6-.3.9-.3h1a5,5,0,0,0,1.8-.1c.2-.1.4,0,.5.3a.4.4,0,0,1-.2.5,4.1,4.1,0,0,1-2.2.1h-1.1c-.1.1,0,.1,0,.2v.5a7.6,7.6,0,0,1,.1,1.5,3.4,3.4,0,0,1,.1,1c0,.1.1.2.1.3h0c0,.1.1,0-.1.3a.4.4,0,0,1-.5.2.5.5,0,0,1-.2-.6h0a1.8,1.8,0,0,1,.1-.5,7.4,7.4,0,0,1,.3-1.8c.2-.9.5-1.9.8-2.8s.3-1.4.4-1.8a1,1,0,0,0,.1-.4h.1c-.1,0,.2.1.1.1h.3"/><path class="cls-4" d="M147.4,182.7a.5.5,0,0,1,.4.5.4.4,0,0,1-.4.4H147l-.5.4a5.1,5.1,0,0,0-.7,1.5.8.8,0,0,0,0,.7c0,.1.1.2.3.2l.8-.3a9.2,9.2,0,0,0,1.4-1.4.3.3,0,0,1,.5-.1.4.4,0,0,1,.1.6,5.3,5.3,0,0,1-1.5,1.5,3,3,0,0,1-1.4.5,1.2,1.2,0,0,1-1-.7,2.4,2.4,0,0,1,0-1.2,5.1,5.1,0,0,1,.9-1.8l.7-.6a1.1,1.1,0,0,1,.8-.3"/><path class="cls-4" d="M148.6,183a.4.4,0,0,1,.1.5.5.5,0,0,1-.6.2c-.2-.2-.3-.1-.3-.1h0c-.1.1,0,.2,0,.3h0c.2.1.4.3.3.5a.3.3,0,0,1-.5.3.9.9,0,0,1-.6-.6,1.1,1.1,0,0,1,0-.8.8.8,0,0,1,.5-.7,1.2,1.2,0,0,1,1.1.2"/><path class="cls-4" d="M149.7,184.5a.4.4,0,0,1,.4-.4.5.5,0,0,1,.4.5v1.6a.4.4,0,0,1-.2.4h-.2c-.2.1-.4,0-.4-.1s-.2-.5-.2-.8a2.8,2.8,0,0,1,.1-.9,3,3,0,0,1,1.3-2.3,2.1,2.1,0,0,1,1.3-.5,3.3,3.3,0,0,1,1.6.5c.2.1.3.3.1.5a.4.4,0,0,1-.5.2,1.9,1.9,0,0,0-1.2-.4,2,2,0,0,0-.8.4,2.5,2.5,0,0,0-1,1.8,1.7,1.7,0,0,0-.1.7v.3h-.6c.1,0,0,.1,0,.1h0v-1.6"/><path class="cls-4" d="M157,178.9a.5.5,0,0,1-.2.6.5.5,0,0,1-.6-.1h.5a3,3,0,0,0-.3.9,21.7,21.7,0,0,1-.7,2.4,5.1,5.1,0,0,0-.2.9h-.1l.5-.3a1.5,1.5,0,0,1,1.1-.2l.4.3c.1.2.2.3.2.5a3.4,3.4,0,0,1,.1,1,2.6,2.6,0,0,1-1.6,1.8,1.7,1.7,0,0,1-1,.1,1.1,1.1,0,0,1-.8-.7.4.4,0,0,1,.2-.6c.3,0,.5.1.5.3l.2.2a.7.7,0,0,0,.6-.1,1.7,1.7,0,0,0,1.1-1.1,1.5,1.5,0,0,0-.1-.7v-.2h-.5l-.5.3H155c-.1,0-.2-.2-.3-.4v-.4a3.6,3.6,0,0,1,.2-1,12.7,12.7,0,0,0,.7-2.4l.3-1.1v-.2l.3-.2h.5l.2.2"/><path class="cls-4" d="M158.8,184.7a.5.5,0,0,1,.3-.5c.2,0,.5.1.5.3a4.1,4.1,0,0,1,.1,1.2v1.1h-.6c.1,0-.1.1,0,.1H159c.1,0,.1-.1.1-.3s.1-.5.1-.8a11.3,11.3,0,0,1,.8-2.2,1.9,1.9,0,0,1,1.1-.9H164l.3.3v.4c0,.3-.3.5-.5.7l-.6.5a3.7,3.7,0,0,0-.7,1.2,1,1,0,0,0-.1.9l.2.2a.5.5,0,0,0,.5,0,1.9,1.9,0,0,0,1.3-1.2.4.4,0,1,1,.8.4,3.3,3.3,0,0,1-1.8,1.6h-1a1.1,1.1,0,0,1-.7-.6,1.9,1.9,0,0,1,0-1.5,5.1,5.1,0,0,1,.9-1.6l.7-.5.2-.2h0s.1.1,0,.1h.1c0-.1.1,0,0,0h-.1c-.1-.1-.3,0-.5,0h-1.7c-.3.1-.5.2-.6.5a7.7,7.7,0,0,0-.7,2c0,.2-.1.5-.1.8a.4.4,0,0,1-.1.3.4.4,0,0,1-.2.4h-.4l-.2-.2v-1.5a5.8,5.8,0,0,0-.1-1"/><path class="cls-4" d="M164.2,182.2c.2-.1.5,0,.5.2s0,.5-.3.5a1.5,1.5,0,0,0-.4.6,1.1,1.1,0,0,0-.1.5h.1a.5.5,0,0,1,0,.6.3.3,0,0,1-.5.1.9.9,0,0,1-.4-.8,1.7,1.7,0,0,1,.1-.7c.2-.5.5-1,1-1.1"/><path class="cls-4" d="M167.4,183c.1-.2.4-.3.5-.1a.4.4,0,0,1,.2.5,7.6,7.6,0,0,0-.7,1.3,3.1,3.1,0,0,0-.4,1.2h0c0,.1-.2-.1-.1,0h-.1a4.4,4.4,0,0,0,1-.9,16,16,0,0,0,2-3.2,15.4,15.4,0,0,0,1.2-3,1.8,1.8,0,0,0,.1-.5s.1.1,0,.1h.3a3.1,3.1,0,0,0-.8,1,5.7,5.7,0,0,0-.8,2.3,2.2,2.2,0,0,0,0,1.6,2.4,2.4,0,0,0,.6.9,4.3,4.3,0,0,1,1,2.5c.1.2-.1.4-.3.5a.5.5,0,0,1-.5-.3c-.2-1.1-.2-1.6-.8-2.2a3.5,3.5,0,0,1-.8-1.1,3.7,3.7,0,0,1,0-2.1,5.8,5.8,0,0,1,.9-2.5,3.5,3.5,0,0,1,1.1-1.3.4.4,0,0,1,.5-.1.4.4,0,0,1,.4.4,1.8,1.8,0,0,1-.1,1,14.3,14.3,0,0,1-1.3,3,14.8,14.8,0,0,1-2.1,3.5c-.5.6-.9,1.1-1.6,1.2a.5.5,0,0,1-.5-.3.6.6,0,0,1-.1-.4,2.5,2.5,0,0,1,.1-.8l.3-.8a7.4,7.4,0,0,1,.8-1.3"/><path class="cls-4" d="M174.8,183.6a.6.6,0,0,1,.6.1c.1.2.1.5-.1.6a2.3,2.3,0,0,0-.6.9c-.1.2-.3.4-.3.6h.1l.7-.3a2.6,2.6,0,0,1,1.9-.4c.2,0,.3.2.3.5a.5.5,0,0,1-.5.3,2.6,2.6,0,0,0-1.3.3l-.8.4a1,1,0,0,1-.9,0,.5.5,0,0,1-.3-.5.6.6,0,0,1,0-.6l.3-.7a5.4,5.4,0,0,1,.9-1.2"/><path class="cls-4" d="M177.5,185.5a.4.4,0,1,1,.7.5,5.3,5.3,0,0,0-.4,1.9,33.3,33.3,0,0,0-.2,5.6,14.7,14.7,0,0,0,.2,2.5.4.4,0,0,0,.1.3v.2a.4.4,0,0,1-.1.3h-.4c-.4-.1-.4-.3-.6-.4l-.6-.7-1.5-1.3-.7-.7a2.4,2.4,0,0,1-.2-.9.5.5,0,0,1,.5-.3c.3.1.4.3.3.5v.3l.5.5,1.5,1.3.7.7.2.2h-.4v.2h0c-.1-.1-.1-.2-.1-.4a16.1,16.1,0,0,1-.2-2.6,34.9,34.9,0,0,1,.2-5.7,5.6,5.6,0,0,1,.5-2.3"/><path class="cls-4" d="M185.9,184.1a.5.5,0,0,1-.6.1.4.4,0,0,1,0-.6h.4l1.2.3a7.8,7.8,0,0,0,2.2.2h1.2c.1,0,0,.3,0,.2s.1.3,0,.2h-.6l-2.1-.4h-.2s.1-.1,0-.1h.2c-.1,0,0-.2,0-.1h0l.2.3c.2.1.3.3.1.5s-.4.2-.6.1l-.4-.4a.6.6,0,0,1-.1-.6l.4-.4h.5l2.1.4h.9c.1,0,.2,0,.3.2a.5.5,0,0,1,0,.5h-1.9a10.1,10.1,0,0,1-2.4-.2l-1.1-.3h0s.2-.1.1-.1.1,0,.1,0h.1m4.2,0a.7.7,0,0,1,.5-.4c.2.1.4.3.3.5s-.2.3-.2.3a1.8,1.8,0,0,1-1,.1l-2.8-.2h-1.6V184a.3.3,0,0,1,.3-.5c.2-.1.4.1.5.3v-.2h4.3v.2m-3.3.3c-.1.2-.3.4-.5.3a.6.6,0,0,1-.3-.6,1,1,0,0,1,.5-.4h4.1a.1.1,0,0,1,.1.1c.1,0,.2.1.2.3s-.1.4-.3.5a.5.5,0,0,1-.5-.4h.1c-.1,0,.1.2.1.2h-3.5"/><path class="cls-4" d="M129.9,180.3a.5.5,0,0,1-.4.5.5.5,0,0,1-.5-.3,1.7,1.7,0,0,0-.5-1.2,1.7,1.7,0,0,0-1-.1,2.1,2.1,0,0,0-1.1.8,3,3,0,0,0-.6,1.8.4.4,0,0,1-.4.4.5.5,0,0,1-.4-.5,4.1,4.1,0,0,1,.7-2.2,3.9,3.9,0,0,1,1.5-1.1,2,2,0,0,1,1.7.3,2.3,2.3,0,0,1,1,1.6"/><path class="cls-4" d="M126.4,180.4a.5.5,0,0,1-.4.5.4.4,0,0,1-.4-.4,1.6,1.6,0,0,1,.7-1.5,2.5,2.5,0,0,1,1.4-.6l1.2.2a3,3,0,0,1,.8.8,1.9,1.9,0,0,1-.2,1.8,17.4,17.4,0,0,1-1.1,1.8,6.7,6.7,0,0,0-1.3,2.5v.4h1.7c.2,0,.5.1.5.3s-.1.5-.3.5a3.1,3.1,0,0,1-1.4.1h-.7a.9.9,0,0,1-.6-.6,1.6,1.6,0,0,1,0-.7,8.6,8.6,0,0,1,1.4-2.9l1.1-1.6c.2-.5.3-.8.1-1.1s-.2-.3-.4-.4l-.7-.2a2.3,2.3,0,0,0-1,.4.9.9,0,0,0-.4.8"/><path d="M23.2,71.4A11.1,11.1,0,0,0,12,60.2a10.7,10.7,0,0,0-5.6,1.5A11.2,11.2,0,0,0,.8,71.4,11.7,11.7,0,0,0,2.3,77,11.4,11.4,0,0,0,12,82.6a12.1,12.1,0,0,0,5.7-1.5,11.3,11.3,0,0,0,5.5-9.7m.8,0a12.2,12.2,0,0,1-5.9,10.4A12.6,12.6,0,0,1,12,83.4a12.1,12.1,0,0,1-10.4-6A12,12,0,0,1,12,59.4a12.1,12.1,0,0,1,10.4,5.9A11.6,11.6,0,0,1,24,71.4"/><path d="M329.3,142.5a11.7,11.7,0,0,0-1.5-5.6,11.2,11.2,0,0,0-9.7-5.6,11.4,11.4,0,0,0-5.6,1.5,11.2,11.2,0,0,0-5.6,9.7,11,11,0,0,0,1.5,5.7,11.3,11.3,0,0,0,9.7,5.5,10.4,10.4,0,0,0,5.6-1.5,11.1,11.1,0,0,0,5.6-9.7m.8,0a12.2,12.2,0,0,1-5.9,10.4,12.6,12.6,0,0,1-6.1,1.6,12.2,12.2,0,0,1-10.4-5.9,12.6,12.6,0,0,1-1.6-6.1,12.2,12.2,0,0,1,5.9-10.4,12.6,12.6,0,0,1,6.1-1.6,12.1,12.1,0,0,1,10.4,6,11.9,11.9,0,0,1,1.6,6"/><path d="M212.9,165.2a.7.7,0,0,1-.5-1,.8.8,0,0,1,1.1-.5L250,177.4a.7.7,0,0,1,.4,1,.8.8,0,0,1-1,.5Z"/><path d="M274,178.1a.8.8,0,0,1-1.6,0V4A.8.8,0,0,1,274,4Z"/><path d="M12.8,59.8a.9.9,0,0,1-.9.8.9.9,0,0,1-.8-.8V2.5a.9.9,0,0,1,.8-.8.9.9,0,0,1,.9.8Z"/><path d="M11.5.7a1,1,0,0,1,.9-.7.9.9,0,0,1,.8.9v.2a.7.7,0,0,1-.9.7.7.7,0,0,1-.7-.9V.7"/><path d="M11.3,1.6a.8.8,0,0,1,.9-.8.8.8,0,0,1,.8.8h0a.8.8,0,0,1-.8.8.8.8,0,0,1-.9-.8h0"/><path d="M11.9,3.4a.9.9,0,0,1-.8-.9.9.9,0,0,1,.8-.8L273.2,3.2a.7.7,0,0,1,.8.8.9.9,0,0,1-.8.8Z"/><path d="M316.7,154.1a.9.9,0,0,1,.8-.8.9.9,0,0,1,.9.8v69.8a.9.9,0,0,1-.9.8.9.9,0,0,1-.8-.8Z"/><path d="M12,225.6a.8.8,0,0,1-.8-.8.9.9,0,0,1,.8-.8l305.5-1a.9.9,0,0,1,.9.9.9.9,0,0,1-.9.8Z"/><path d="M12.8,224.8a.7.7,0,0,1-.8.8.8.8,0,0,1-.8-.8V159.6a.9.9,0,0,1,.8-.8.8.8,0,0,1,.8.8Z"/><path d="M13.1,160.4a.7.7,0,0,1-.9-.6.8.8,0,0,1,.6-1L51.3,150a.8.8,0,0,1,.9.6.8.8,0,0,1-.6,1Z"/><path class="cls-4" d="M11.3,83a.8.8,0,0,1,.8-.8.7.7,0,0,1,.8.8v4.4a.7.7,0,0,1-.8.8.8.8,0,0,1-.8-.8Z"/><path class="cls-4" d="M11.7,88.2a.8.8,0,0,1-.5-1,.9.9,0,0,1,1-.6l39.4,12a.8.8,0,0,1-.5,1.5Z"/><path class="cls-4" d="M210.5,123.5a.8.8,0,0,1-1.1-.3.8.8,0,0,1,.4-1.1l39-19.6a.8.8,0,0,1,1.1.4.7.7,0,0,1-.3,1.1Z"/><path class="cls-4" d="M257.9,102.8a.9.9,0,0,1,.1-1.2.7.7,0,0,1,1.1.1c.1,0,0-.1,0-.1l.2.2a.8.8,0,0,1,.1,1.2.8.8,0,0,1-1.1.1l-.3-.2c0-.1,0-.1-.1-.1m1.1-1.2a.7.7,0,0,1,.2,1.1.8.8,0,0,1-1.1.2h0a.8.8,0,0,1-.3-1.1,1,1,0,0,1,1.2-.3h0"/><path class="cls-4" d="M249.2,104.1a.9.9,0,0,1-.8-.8.8.8,0,0,1,.8-.8h68.9a.7.7,0,0,1,.8.8.8.8,0,0,1-.8.8Z"/><path class="cls-4" d="M318.1,103a.8.8,0,0,1-.3,1.1.7.7,0,0,1-1.1-.4c-.1,0,.2.3.1.2s.5.3.3.3.6-.1.4,0h.3c-.1,0,.2-.2.2-.2h0l-.2.3a.7.7,0,0,1-1,.5.9.9,0,0,1-.5-1.1l.3-.6q0-.1.3-.3a.8.8,0,0,1,.7-.1c.3.1.5.3.5.4"/><path class="cls-4" d="M317.3,103.3a.8.8,0,0,1,1.6,0v27.6a.8.8,0,0,1-1.6,0Z"/><path class="cls-5" d="M314,138a.7.7,0,0,1-1,.4.9.9,0,0,1-.5-1.1c.1-.1,0,.1,0,.1v-.9a.7.7,0,0,1,.4-.6h.6l.5.2a2.1,2.1,0,0,1,.4,1.1c.4,1.1.8,2.6,1.3,4.3s.8,3.6,1.1,4.5v.3h-1.1l1.4-3.8c.3-.8.6-1.7.9-2.4a6.8,6.8,0,0,1,1.6-2.6.8.8,0,0,1,1.1,0c.3.4.4.9,0,1.2a4.7,4.7,0,0,0-1.2,2q-.5,1-.9,2.4l-.9,2.6c-.3.8-.3,1.4-1,1.8a.7.7,0,0,1-.9.1c-.3-.1-.4-.3-.4-.4a1.4,1.4,0,0,1-.2-.6c-.4-1.1-.8-2.9-1.2-4.5l-1.2-4.3c-.1-.2-.1-.3-.2-.4h.1s.2.1.1.1h.9c-.1,0,.2-.2.2-.2h.1c-.1,0,0-.1,0-.1h0a1.5,1.5,0,0,1-.1,1.1"/><path class="cls-5" d="M321.3,145.3a.8.8,0,0,1-1-.7c0-.4.3-.9.7-.9l1.3-.2h1a1.4,1.4,0,0,1,.8.5,2.6,2.6,0,0,1-.3,3.5q-.2.3-.3.3c-.1,0,0-.1,0,0h0l.3.5a1.2,1.2,0,0,1,.2.7,1.1,1.1,0,0,1,.2,1,1.8,1.8,0,0,1-.9,1l-.9.3a4,4,0,0,1-2.1.3.8.8,0,0,1-.7-1,.8.8,0,0,1,.9-.7,2.1,2.1,0,0,0,1.4-.2l.7-.2h0c.1-.1,0,.2,0,.1v.2l-.2-.4V149a1.4,1.4,0,0,1-.5-1.1,1.4,1.4,0,0,1,.3-1.1c.3-.4.4-.3.5-.4a3.3,3.3,0,0,0,.3-.6c0-.4,0-.7-.1-.7h-1.6"/><path class="cls-5" d="M8.6,66.2a.8.8,0,0,1-1.4.8h.1c0-.1.2.1.1,0H8l.3-.2.2-.2c0,.1.1-.3.1-.2h0a9.6,9.6,0,0,0,.2,1.2c.3,1,.4,2.1.7,3.4a20.2,20.2,0,0,0,.4,2.6,7.8,7.8,0,0,0,.4,1.9.8.8,0,0,1,.1.4H9.8a1.4,1.4,0,0,0,.3-.5,40.3,40.3,0,0,0,1.7-3.9,22.5,22.5,0,0,0,.8-2.4l.8-2.1a2.8,2.8,0,0,1,1.2-1.4.8.8,0,0,1,.7,1.5,1.1,1.1,0,0,0-.4.5c-.2.5-.4,1.2-.7,2.1L13.3,72c-.6,1.6-1.2,3.1-1.7,4.2l-.7.9-.5.4a1.8,1.8,0,0,1-1-.2,3.7,3.7,0,0,1-.7-1.2A11.2,11.2,0,0,1,8.3,74c-.2-.9-.3-1.8-.5-2.7s-.4-2.4-.6-3.3A7.4,7.4,0,0,1,7,66.8v-.3c0-.1-.2-.3.2-.7a1,1,0,0,1,.9-.1c.2.1.3.1.3.2s.2.2.2.3"/><path class="cls-5" d="M14.7,72.6a.8.8,0,0,1,1.1-1.2,1.1,1.1,0,0,1,.3,1c0,.2-.1.4-.1.6s-.3.7-.4,1.1a5.1,5.1,0,0,0-.2.9c0,.2,0,.3-.1.4h0c0,.1-.1-.3,0-.2l-.2-.2-.2-.2c0,.1-.2,0-.2,0h.2l.5-.3a1.1,1.1,0,0,1,1-.1.7.7,0,0,1,.5.4.8.8,0,0,1,.1.4.8.8,0,1,1-1.6.3s.1.2.1.1.1.2.1.2h.7c-.1,0-.3.3-.8.5h-1a1,1,0,0,1-.7-.4,1,1,0,0,1-.1-.7h.1a6.8,6.8,0,0,1,.2-1.4,7.6,7.6,0,0,0,.4-1.1v-.3h0c0-.1.1.2,0,.1s.3.3.2.2"/><path class="cls-5" d="M18.2,73a.9.9,0,0,1-1.2.1.8.8,0,0,1-.1-1.1l.3-.4a1.3,1.3,0,0,1,1.2,0,.9.9,0,0,1,.3.7v.5c-.1.5-.3,1.2-.5,2s-.5,1.6-.7,2.3l-.3.8v.2h0a.7.7,0,0,1-.8.7.8.8,0,0,1-.8-.8c0-.4.1-.4.1-.6l1-3.1a8.6,8.6,0,0,0,.4-1.8h.1c-.1,0,0,.2,0,.2s.3.2.2.2h.3c-.1,0,.4,0,.3.1h.3"/><path d="M201.6,151a.5.5,0,0,1-.6-.1.3.3,0,0,1,.1-.5L218.5,135c.2-.2.4-.1.6,0s.1.5-.1.6Z"/><path d="M200.9,136c-.2-.1-.2-.4,0-.6a.5.5,0,0,1,.6,0L218.6,151a.4.4,0,0,1,0,.6.3.3,0,0,1-.5,0Z"/><path d="M28.7,162.1a.3.3,0,0,1-.5.3.5.5,0,0,1-.3-.5c.1,0,0,.2,0,.1v.2h.1c-.1-.1.1,0,0,0h.3c-.1,0,0-.1,0-.1h0c.1.2,0,.5-.2.5a.5.5,0,0,1-.6-.2v-.3l.2-.3h.8c.1,0,.2.2.1.4"/><path d="M11.4,169.7a.7.7,0,0,1,.5-.4.7.7,0,0,1,.4.5l-.4.4h-.1c-.1,0,0-.1,0,0s.1-.1,0-.1h.1V170h.1s-.1-.2,0-.1v-.2h-.1l.2.2a.4.4,0,1,1-.3.7l-.3-.2c-.1,0-.2.1-.2-.2s.1-.4.2-.5h0c.1,0-.1.3-.1.2"/><path d="M251.1,177.3a.9.9,0,0,1,.8.8.8.8,0,0,1-.8.8h-.2a.8.8,0,0,1-.8-.8.9.9,0,0,1,.8-.8h.2"/><path d="M249.7,178.9a.8.8,0,0,1-.9-.8.9.9,0,0,1,.9-.8h23.5a.8.8,0,0,1,.8.8.7.7,0,0,1-.8.8Z"/></g></svg>