<?xml version="1.0" encoding="utf-8"?>
<!-- Generator: Adobe Illustrator 26.0.2, SVG Export Plug-In . SVG Version: 6.00 Build 0)  -->
<svg version="1.1" id="Ebene_1" xmlns="http://www.w3.org/2000/svg" xmlns:xlink="http://www.w3.org/1999/xlink" x="0px" y="0px"
	 viewBox="0 0 328.2 218.7" style="enable-background:new 0 0 328.2 218.7;" xml:space="preserve">
<style type="text/css">
	.st0{clip-path:url(#SVGID_00000176015628362671198620000016390102399966346166_);}
	.st1{clip-path:url(#SVGID_00000049200856729727561810000002365775149428926359_);}
	.st2{opacity:0;clip-path:url(#SVGID_00000120529266578366605370000006582382918684490412_);}
	.st3{clip-path:url(#SVGID_00000087406601714613610870000004291637890511717506_);}
	.st4{font-family:'.SFUI-Regular_wdth_opsz110000_GRAD_wght24E0000';}
	.st5{font-size:16.0525px;}
	.st6{opacity:0;clip-path:url(#SVGID_00000011722814861708860350000011166144130293472162_);}
	.st7{clip-path:url(#SVGID_00000150075312733865539550000001001961441454861471_);}
	.st8{font-family:'.SFUI-Regular_wdth_opsz120000_GRAD_wght24E0000';}
	.st9{font-size:18.059px;}
	.st10{opacity:0;clip-path:url(#SVGID_00000127041139571142097530000012942904402139653538_);}
	.st11{clip-path:url(#SVGID_00000108289953554968620990000013211637838043957926_);}
	.st12{font-family:'.SFUI-Regular_wdth_opsz380000_GRAD_wght24E0000';}
	.st13{font-size:56.1836px;}
	.st14{opacity:0;clip-path:url(#SVGID_00000177463406113377978270000004893869000314116030_);}
	.st15{clip-path:url(#SVGID_00000070119936327448829630000016390199586922455183_);}
	.st16{opacity:0;clip-path:url(#SVGID_00000170963631073245996680000014763223354341991838_);}
	.st17{clip-path:url(#SVGID_00000037655056718446366160000008712627374717682590_);}
	.st18{font-family:'.SFUI-Regular_wdth_opsz150000_GRAD_wght24E0000';}
	.st19{font-size:21.0689px;}
	.st20{opacity:0;clip-path:url(#SVGID_00000015343219368846975190000012639954995370373769_);}
	.st21{clip-path:url(#SVGID_00000108307062104296184680000007422735971963131528_);}
	.st22{font-family:'.SFUI-Regular_wdth_opsz270000_GRAD_wght24E0000';}
	.st23{font-size:39.1279px;}
	.st24{opacity:0;clip-path:url(#SVGID_00000169538594468010902830000011941386720769125510_);}
	.st25{clip-path:url(#SVGID_00000063602393706910535340000015847103779786989242_);}
	.st26{font-family:'.SFUI-Regular_wdth_opsz2D0000_GRAD_wght24E0000';}
	.st27{font-size:45.1476px;}
	.st28{opacity:0;clip-path:url(#SVGID_00000132771335751702042000000012171291931893527976_);}
	.st29{clip-path:url(#SVGID_00000156562976551896812960000016225108579897313183_);}
	.st30{font-family:'.SFUI-Regular_wdth_opsz2E0000_GRAD_wght24E0000';}
	.st31{font-size:46.1508px;}
	.st32{opacity:0;clip-path:url(#SVGID_00000106124419645256510860000001223943598673643948_);}
	.st33{clip-path:url(#SVGID_00000057128740418127775320000001756006094916572552_);}
	.st34{font-family:'.SFUI-Regular_wdth_opsz2A0000_GRAD_wght24E0000';}
	.st35{font-size:42.1377px;}
	.st36{opacity:0;clip-path:url(#SVGID_00000036970827039069871350000006482055929330733239_);}
	.st37{clip-path:url(#SVGID_00000083060663318015794730000002209024375962294704_);}
	.st38{font-family:'.SFUI-Regular_wdth_opsz290000_GRAD_wght24E0000';}
	.st39{font-size:41.1344px;}
	.st40{opacity:0;clip-path:url(#SVGID_00000092416620095571093790000002681351778132341146_);}
	.st41{clip-path:url(#SVGID_00000058550296671895361080000017055145928630134928_);}
	.st42{opacity:0;clip-path:url(#SVGID_00000088101415240003198630000003351022292102726017_);}
	.st43{clip-path:url(#SVGID_00000145757106016236253670000015574242907369769395_);}
	.st44{opacity:0;clip-path:url(#SVGID_00000179618184284115326120000008157380184156888471_);}
	.st45{clip-path:url(#SVGID_00000151513737628874614990000011747411031357469863_);}
	.st46{font-size:15.0492px;}
	.st47{clip-path:url(#SVGID_00000099658806579009038490000012667574075163596675_);}
	.st48{clip-path:url(#SVGID_00000099658806579009038490000012667574075163596675_);fill:#1749B3;}
	.st49{clip-path:url(#SVGID_00000099658806579009038490000012667574075163596675_);fill:#ED3624;}
	.st50{clip-path:url(#SVGID_00000099658806579009038490000012667574075163596675_);fill:#00733B;}
</style>
<g>
	<defs>
		<rect id="SVGID_1_" width="328.2" height="218.7"/>
	</defs>
	<clipPath id="SVGID_00000141453971462767437910000009316666447146523042_">
		<use xlink:href="#SVGID_1_"  style="overflow:visible;"/>
	</clipPath>
	<g style="clip-path:url(#SVGID_00000141453971462767437910000009316666447146523042_);">
		<defs>
			<rect id="SVGID_00000076565958754837921970000001266174946459465601_" width="328.2" height="218.7"/>
		</defs>
		<clipPath id="SVGID_00000170997155842014609560000008906286335098971039_">
			<use xlink:href="#SVGID_00000076565958754837921970000001266174946459465601_"  style="overflow:visible;"/>
		</clipPath>
		<g style="clip-path:url(#SVGID_00000170997155842014609560000008906286335098971039_);">
			<g>
				<defs>
					<rect id="SVGID_00000016761792346782555950000012208215499823312044_" x="213.4" y="1.1" width="11.9" height="25.7"/>
				</defs>
				<clipPath id="SVGID_00000117674361300957180210000004400226415857045949_">
					<use xlink:href="#SVGID_00000016761792346782555950000012208215499823312044_"  style="overflow:visible;"/>
				</clipPath>
				<g style="opacity:0;clip-path:url(#SVGID_00000117674361300957180210000004400226415857045949_);">
					<g>
						<defs>
							<rect id="SVGID_00000116930852311527148900000004723845881787505552_" x="213.4" y="1.1" width="11.9" height="25.7"/>
						</defs>
						<clipPath id="SVGID_00000147910443975809516440000006342840758546153624_">
							<use xlink:href="#SVGID_00000116930852311527148900000004723845881787505552_"  style="overflow:visible;"/>
						</clipPath>
						<g style="clip-path:url(#SVGID_00000147910443975809516440000006342840758546153624_);">
							<text transform="matrix(1 0 0 1 213.3789 14.9268)" class="st4 st5">N</text>
						</g>
					</g>
				</g>
			</g>
		</g>
		<g style="clip-path:url(#SVGID_00000170997155842014609560000008906286335098971039_);">
			<g>
				<defs>
					<rect id="SVGID_00000063624983749680431740000002413009881370904491_" x="239.1" y="1.3" width="9.7" height="28.9"/>
				</defs>
				<clipPath id="SVGID_00000027604589278685932830000000654648789075465616_">
					<use xlink:href="#SVGID_00000063624983749680431740000002413009881370904491_"  style="overflow:visible;"/>
				</clipPath>
				<g style="opacity:0;clip-path:url(#SVGID_00000027604589278685932830000000654648789075465616_);">
					<g>
						<defs>
							<rect id="SVGID_00000168799611594305362630000010478000839832292240_" x="239.1" y="1.3" width="9.7" height="28.9"/>
						</defs>
						<clipPath id="SVGID_00000097493166663220166010000006734763453209016736_">
							<use xlink:href="#SVGID_00000168799611594305362630000010478000839832292240_"  style="overflow:visible;"/>
						</clipPath>
						<g style="clip-path:url(#SVGID_00000097493166663220166010000006734763453209016736_);">
							<text transform="matrix(1 0 0 1 239.0771 16.8809)" class="st8 st9">S</text>
						</g>
					</g>
				</g>
			</g>
		</g>
		<g style="clip-path:url(#SVGID_00000170997155842014609560000008906286335098971039_);">
			<g>
				<defs>
					<rect id="SVGID_00000000187725605106216950000008136058241904609412_" x="8" y="15.9" width="38.8" height="90.2"/>
				</defs>
				<clipPath id="SVGID_00000141449242546303139420000001276281448943945149_">
					<use xlink:href="#SVGID_00000000187725605106216950000008136058241904609412_"  style="overflow:visible;"/>
				</clipPath>
				<g style="opacity:0;clip-path:url(#SVGID_00000141449242546303139420000001276281448943945149_);">
					<g>
						<defs>
							<rect id="SVGID_00000093136099937324307270000011801001964489050499_" x="8" y="15.9" width="38.8" height="90.2"/>
						</defs>
						<clipPath id="SVGID_00000135670960184682312430000002986617423559314316_">
							<use xlink:href="#SVGID_00000093136099937324307270000011801001964489050499_"  style="overflow:visible;"/>
						</clipPath>
						<g style="clip-path:url(#SVGID_00000135670960184682312430000002986617423559314316_);">
							<text transform="matrix(1 0 0 1 7.9941 64.6387)" class="st12 st13">Ä</text>
						</g>
					</g>
				</g>
			</g>
		</g>
		<g style="clip-path:url(#SVGID_00000170997155842014609560000008906286335098971039_);">
			<g>
				<defs>
					<rect id="SVGID_00000069379919408598816200000007791917855824740499_" x="121.4" y="31.3" width="11.1" height="28.9"/>
				</defs>
				<clipPath id="SVGID_00000026164997543018215560000001376922847356703160_">
					<use xlink:href="#SVGID_00000069379919408598816200000007791917855824740499_"  style="overflow:visible;"/>
				</clipPath>
				<g style="opacity:0;clip-path:url(#SVGID_00000026164997543018215560000001376922847356703160_);">
					<g>
						<defs>
							<rect id="SVGID_00000109735436173178617910000017141717205102046900_" x="121.4" y="31.3" width="11.1" height="28.9"/>
						</defs>
						<clipPath id="SVGID_00000121246812844375135510000014754620906249574823_">
							<use xlink:href="#SVGID_00000109735436173178617910000017141717205102046900_"  style="overflow:visible;"/>
						</clipPath>
						<g style="clip-path:url(#SVGID_00000121246812844375135510000014754620906249574823_);">
							<text transform="matrix(1 0 0 1 121.3828 46.8496)" class="st8 st9">o</text>
						</g>
					</g>
				</g>
			</g>
		</g>
		<g style="clip-path:url(#SVGID_00000170997155842014609560000008906286335098971039_);">
			<g>
				<defs>
					<rect id="SVGID_00000152966188996196505340000009791934465660206488_" x="296" y="32.7" width="13.3" height="33.7"/>
				</defs>
				<clipPath id="SVGID_00000111166856452589816290000000698771156115243947_">
					<use xlink:href="#SVGID_00000152966188996196505340000009791934465660206488_"  style="overflow:visible;"/>
				</clipPath>
				<g style="opacity:0;clip-path:url(#SVGID_00000111166856452589816290000000698771156115243947_);">
					<g>
						<defs>
							<rect id="SVGID_00000016039636302469286180000009808666864161262514_" x="296" y="32.7" width="13.3" height="33.7"/>
						</defs>
						<clipPath id="SVGID_00000115479555648952728600000001632416206507818393_">
							<use xlink:href="#SVGID_00000016039636302469286180000009808666864161262514_"  style="overflow:visible;"/>
						</clipPath>
						<g style="clip-path:url(#SVGID_00000115479555648952728600000001632416206507818393_);">
							<text transform="matrix(1 0 0 1 295.9492 50.8565)" class="st18 st19">0</text>
						</g>
					</g>
				</g>
			</g>
		</g>
		<g style="clip-path:url(#SVGID_00000170997155842014609560000008906286335098971039_);">
			<g>
				<defs>
					<rect id="SVGID_00000099659024192707057540000014180609985599508885_" x="11.9" y="67" width="25.5" height="62.5"/>
				</defs>
				<clipPath id="SVGID_00000127728268826254373270000000089102864908246419_">
					<use xlink:href="#SVGID_00000099659024192707057540000014180609985599508885_"  style="overflow:visible;"/>
				</clipPath>
				<g style="opacity:0;clip-path:url(#SVGID_00000127728268826254373270000000089102864908246419_);">
					<g>
						<defs>
							<rect id="SVGID_00000060745184548615863450000008934548754923236507_" x="11.9" y="67" width="25.5" height="62.5"/>
						</defs>
						<clipPath id="SVGID_00000124850393954081429970000009280022759606920636_">
							<use xlink:href="#SVGID_00000060745184548615863450000008934548754923236507_"  style="overflow:visible;"/>
						</clipPath>
						<g style="clip-path:url(#SVGID_00000124850393954081429970000009280022759606920636_);">
							<text transform="matrix(1 0 0 1 11.9204 100.7207)" class="st22 st23">K</text>
						</g>
					</g>
				</g>
			</g>
		</g>
		<g style="clip-path:url(#SVGID_00000170997155842014609560000008906286335098971039_);">
			<g>
				<defs>
					<rect id="SVGID_00000040556187361174950460000004981144267383535778_" x="11.4" y="105.5" width="31.1" height="72.2"/>
				</defs>
				<clipPath id="SVGID_00000056402207510213317140000010158559960353046958_">
					<use xlink:href="#SVGID_00000040556187361174950460000004981144267383535778_"  style="overflow:visible;"/>
				</clipPath>
				<g style="opacity:0;clip-path:url(#SVGID_00000056402207510213317140000010158559960353046958_);">
					<g>
						<defs>
							<rect id="SVGID_00000004509642879459997300000013427751163131767459_" x="11.4" y="105.5" width="31.1" height="72.2"/>
						</defs>
						<clipPath id="SVGID_00000039833487362971074990000008843599835280115845_">
							<use xlink:href="#SVGID_00000004509642879459997300000013427751163131767459_"  style="overflow:visible;"/>
						</clipPath>
						<g style="clip-path:url(#SVGID_00000039833487362971074990000008843599835280115845_);">
							<text transform="matrix(1 0 0 1 11.4453 144.3804)" class="st26 st27">A</text>
						</g>
					</g>
				</g>
			</g>
		</g>
		<g style="clip-path:url(#SVGID_00000170997155842014609560000008906286335098971039_);">
			<g>
				<defs>
					<rect id="SVGID_00000021819462566130043590000013970335549766336435_" x="216.7" y="104.1" width="29.2" height="73.8"/>
				</defs>
				<clipPath id="SVGID_00000110446840659929489830000012231657281871191682_">
					<use xlink:href="#SVGID_00000021819462566130043590000013970335549766336435_"  style="overflow:visible;"/>
				</clipPath>
				<g style="opacity:0;clip-path:url(#SVGID_00000110446840659929489830000012231657281871191682_);">
					<g>
						<defs>
							<rect id="SVGID_00000063597156839619568350000003333580228711862695_" x="216.7" y="104.1" width="29.2" height="73.8"/>
						</defs>
						<clipPath id="SVGID_00000131329207941456805910000000500509875580399753_">
							<use xlink:href="#SVGID_00000063597156839619568350000003333580228711862695_"  style="overflow:visible;"/>
						</clipPath>
						<g style="clip-path:url(#SVGID_00000131329207941456805910000000500509875580399753_);">
							<text transform="matrix(1 0 0 1 216.6943 143.897)" class="st30 st31">T</text>
						</g>
					</g>
				</g>
			</g>
		</g>
		<g style="clip-path:url(#SVGID_00000170997155842014609560000008906286335098971039_);">
			<g>
				<defs>
					<rect id="SVGID_00000101102314446940927520000003114013651326587782_" x="16.2" y="142.5" width="23.5" height="67.3"/>
				</defs>
				<clipPath id="SVGID_00000109737997704670415210000012519324524102692016_">
					<use xlink:href="#SVGID_00000101102314446940927520000003114013651326587782_"  style="overflow:visible;"/>
				</clipPath>
				<g style="opacity:0;clip-path:url(#SVGID_00000109737997704670415210000012519324524102692016_);">
					<g>
						<defs>
							<rect id="SVGID_00000065760432044354911280000015680226534610311605_" x="16.2" y="142.5" width="23.5" height="67.3"/>
						</defs>
						<clipPath id="SVGID_00000000183245570352529780000008806193150106386322_">
							<use xlink:href="#SVGID_00000065760432044354911280000015680226534610311605_"  style="overflow:visible;"/>
						</clipPath>
						<g style="clip-path:url(#SVGID_00000000183245570352529780000008806193150106386322_);">
							<text transform="matrix(1 0 0 1 16.1592 178.8433)" class="st34 st35">e</text>
						</g>
					</g>
				</g>
			</g>
		</g>
		<g style="clip-path:url(#SVGID_00000170997155842014609560000008906286335098971039_);">
			<g>
				<defs>
					<rect id="SVGID_00000066513418615624081480000010649093069346436537_" x="216.5" y="139.7" width="22.2" height="65.7"/>
				</defs>
				<clipPath id="SVGID_00000041975181684984567970000012153987933741159820_">
					<use xlink:href="#SVGID_00000066513418615624081480000010649093069346436537_"  style="overflow:visible;"/>
				</clipPath>
				<g style="opacity:0;clip-path:url(#SVGID_00000041975181684984567970000012153987933741159820_);">
					<g>
						<defs>
							<rect id="SVGID_00000031184907931737820780000006679165727544245139_" x="216.5" y="139.7" width="22.2" height="65.7"/>
						</defs>
						<clipPath id="SVGID_00000145018066930868126630000001019471416189152911_">
							<use xlink:href="#SVGID_00000031184907931737820780000006679165727544245139_"  style="overflow:visible;"/>
						</clipPath>
						<g style="clip-path:url(#SVGID_00000145018066930868126630000001019471416189152911_);">
							<text transform="matrix(1 0 0 1 216.5312 175.1099)" class="st38 st39">S</text>
						</g>
					</g>
				</g>
			</g>
		</g>
		<g style="clip-path:url(#SVGID_00000170997155842014609560000008906286335098971039_);">
			<g>
				<defs>
					<rect id="SVGID_00000150805797587416659470000009916389973855545006_" x="148" y="184.1" width="13" height="72.2"/>
				</defs>
				<clipPath id="SVGID_00000169551014113040204420000016338823251064510391_">
					<use xlink:href="#SVGID_00000150805797587416659470000009916389973855545006_"  style="overflow:visible;"/>
				</clipPath>
				<g style="opacity:0;clip-path:url(#SVGID_00000169551014113040204420000016338823251064510391_);">
					<g>
						<defs>
							<rect id="SVGID_00000084526302225124841010000000132662433121093820_" x="148" y="184.1" width="13" height="72.2"/>
						</defs>
						<clipPath id="SVGID_00000168802879889061622730000005788763666672287370_">
							<use xlink:href="#SVGID_00000084526302225124841010000000132662433121093820_"  style="overflow:visible;"/>
						</clipPath>
						<g style="clip-path:url(#SVGID_00000168802879889061622730000005788763666672287370_);">
							<text transform="matrix(1 0 0 1 148.0142 223.0122)" class="st26 st27">I</text>
						</g>
					</g>
				</g>
			</g>
		</g>
		<g style="clip-path:url(#SVGID_00000170997155842014609560000008906286335098971039_);">
			<g>
				<defs>
					<rect id="SVGID_00000119803532632828168300000017046638065338838463_" x="159.7" y="184.1" width="24.3" height="72.2"/>
				</defs>
				<clipPath id="SVGID_00000098222550155059090880000017761029689347639478_">
					<use xlink:href="#SVGID_00000119803532632828168300000017046638065338838463_"  style="overflow:visible;"/>
				</clipPath>
				<g style="opacity:0;clip-path:url(#SVGID_00000098222550155059090880000017761029689347639478_);">
					<g>
						<defs>
							<rect id="SVGID_00000157300515352481871180000002063931906221451703_" x="159.7" y="184.1" width="24.3" height="72.2"/>
						</defs>
						<clipPath id="SVGID_00000015322914273140463350000011506028684323258292_">
							<use xlink:href="#SVGID_00000157300515352481871180000002063931906221451703_"  style="overflow:visible;"/>
						</clipPath>
						<g style="clip-path:url(#SVGID_00000015322914273140463350000011506028684323258292_);">
							<text transform="matrix(1 0 0 1 159.6528 223.0122)" class="st26 st27">S</text>
						</g>
					</g>
				</g>
			</g>
		</g>
		<g style="clip-path:url(#SVGID_00000170997155842014609560000008906286335098971039_);">
			<g>
				<defs>
					<rect id="SVGID_00000081648098316970742590000016557386402578248086_" x="32" y="209.8" width="11.1" height="24.1"/>
				</defs>
				<clipPath id="SVGID_00000168798326109106460790000008634281270931664302_">
					<use xlink:href="#SVGID_00000081648098316970742590000016557386402578248086_"  style="overflow:visible;"/>
				</clipPath>
				<g style="opacity:0;clip-path:url(#SVGID_00000168798326109106460790000008634281270931664302_);">
					<g>
						<defs>
							<rect id="SVGID_00000057146195084316415680000008996862546298223497_" x="32" y="209.8" width="11.1" height="24.1"/>
						</defs>
						<clipPath id="SVGID_00000064345886874917052650000004737569480663140262_">
							<use xlink:href="#SVGID_00000057146195084316415680000008996862546298223497_"  style="overflow:visible;"/>
						</clipPath>
						<g style="clip-path:url(#SVGID_00000064345886874917052650000004737569480663140262_);">
							<text transform="matrix(1 0 0 1 31.9541 222.7984)" class="st4 st46">N</text>
						</g>
					</g>
				</g>
			</g>
		</g>
	</g>
	<g style="clip-path:url(#SVGID_00000141453971462767437910000009316666447146523042_);">
		<defs>
			<rect id="SVGID_00000023239887308270296330000017218934349501440416_" width="328.2" height="218.7"/>
		</defs>
		<clipPath id="SVGID_00000037678713789727513010000015364712814524941467_">
			<use xlink:href="#SVGID_00000023239887308270296330000017218934349501440416_"  style="overflow:visible;"/>
		</clipPath>
		<path style="clip-path:url(#SVGID_00000037678713789727513010000015364712814524941467_);" d="M12.5,32.6c0-0.2,0.2-0.4,0.4-0.4
			s0.4,0.2,0.4,0.4v154.9c0,0.2-0.2,0.4-0.4,0.4s-0.4-0.2-0.4-0.4V32.6z"/>
		<path style="clip-path:url(#SVGID_00000037678713789727513010000015364712814524941467_);" d="M40.6,32.6c0-0.2,0.2-0.4,0.4-0.4
			s0.4,0.2,0.4,0.4v154.9c0,0.2-0.2,0.4-0.4,0.4s-0.4-0.2-0.4-0.4V32.6z"/>
		<path style="clip-path:url(#SVGID_00000037678713789727513010000015364712814524941467_);" d="M12.8,34.1
			c-0.2-0.1-0.3-0.3-0.2-0.5c0.1-0.2,0.3-0.3,0.5-0.2c0,0,0,0,0,0c0,0,0,0,0,0c0.1-0.1,0.2-0.3,0.4-0.6c0.2-0.3,0.5-0.6,0.7-0.8
			c0.9-0.9,1.6-1.4,2.6-1.8c0.7-0.2,1.5-0.3,2.3-0.3c1.4,0,2.7,0.8,3.7,1.6c0.7,0.6,1,1,1.5,1.5c1.7,1.8,4.4,2.9,7.1,2.6
			c1.5-0.1,3-0.4,4.2-0.9c0.8-0.3,1.4-0.6,1.9-0.9c0.8-0.5,1.8-1.1,1.9-1.2c0.2-0.1,0.4-0.1,0.5,0.1c0.1,0.2,0.1,0.4-0.1,0.5
			c-0.1,0-0.3,0.2-0.7,0.4c-0.4,0.2-0.8,0.5-1.2,0.8c-0.6,0.4-1.3,0.7-2.1,1c-1.3,0.5-2.8,0.8-4.4,1c-3,0.3-5.8-0.8-7.7-2.9
			c-0.5-0.5-0.9-1-1.5-1.5c-0.9-0.8-2-1.4-3.2-1.5c-0.7,0-1.5,0.1-2.1,0.3c-0.9,0.3-1.5,0.7-2.3,1.6c-0.2,0.2-0.5,0.5-0.6,0.7
			c-0.2,0.2-0.3,0.5-0.4,0.7c-0.1,0.1-0.2,0.2-0.4,0.3C13.1,34.1,13,34.1,12.8,34.1"/>
		<path style="clip-path:url(#SVGID_00000037678713789727513010000015364712814524941467_);" d="M13.4,188.2c0,0.2-0.2,0.3-0.4,0.3
			c-0.2,0-0.3-0.2-0.3-0.4c0.1-0.6,0.7-0.9,1-1.2c0.2-0.2,0.4-0.6,0.7-1c0.4-0.6,1-1,1.7-1.2c0.7-0.2,1.5-0.3,2.2-0.3
			c1.8-0.1,3.6,0,5.1,0.7c0.7,0.3,1.4,0.7,2,1.1c0.3,0.2,0.5,0.4,0.7,0.6c1.1,1,2.3,2.2,3.7,2.9c0.9,0.5,1.9,0.6,3,0.6
			c1.8,0,3.3-0.8,4.5-1.8c1.3-1,2.2-2.1,3.2-2.7c0.2-0.1,0.4-0.1,0.5,0.1c0.1,0.2,0.1,0.4-0.1,0.5c-0.8,0.5-1.8,1.6-3.1,2.7
			c-1.3,1.1-3,2-5,2c-1.2,0-2.3-0.1-3.3-0.7c-1.5-0.8-2.8-2-3.9-3.1c-0.2-0.2-0.4-0.4-0.6-0.5c-0.5-0.3-1.1-0.7-1.9-1
			c-1.3-0.6-3-0.8-4.7-0.7c-0.8,0.1-1.5,0.1-2.1,0.3c-0.6,0.2-1,0.5-1.3,0.9c-0.2,0.4-0.4,0.9-0.8,1.2
			C13.8,187.8,13.4,188.1,13.4,188.2"/>
		<path style="clip-path:url(#SVGID_00000037678713789727513010000015364712814524941467_);" d="M13.1,188.7c0,0.2-0.2,0.3-0.4,0.3
			c-0.2,0-0.3-0.2-0.3-0.4c0-0.1,0-0.2,0.1-0.2c0-0.1,0.1-0.2,0.2-0.2c0.1-0.1,0.3,0,0.4,0c0.1,0,0.1,0.1,0.2,0.1
			c0.2,0.2,0.3,0.5,0.5,0.7c0.8,1.3,2.4,1.7,4.1,1.9c1.6,0.2,3.6,0.1,5.2,0.2c0.9,0,1.6-0.1,2.3-0.4c0.3-0.1,0.6-0.3,0.9-0.4
			c0.6-0.3,1.2-0.6,1.6-0.9c0.2-0.2,0.3-0.4,0.6-0.7c0.3-0.3,0.7-0.4,1.3-0.3c0.2,0,0.3,0.2,0.3,0.4c0,0.2-0.2,0.3-0.4,0.3
			c-0.4-0.1-0.5,0-0.6,0.1c-0.1,0.1-0.3,0.4-0.6,0.7c-0.5,0.5-1.2,0.8-1.8,1.1c-0.3,0.1-0.6,0.3-0.9,0.5c-0.8,0.3-1.6,0.4-2.6,0.4
			c-1.6,0-3.6,0-5.3-0.2c-0.9-0.1-1.8-0.2-2.6-0.6c-0.8-0.3-1.6-0.9-2.1-1.7c-0.2-0.3-0.3-0.5-0.4-0.6c0,0,0.1,0,0,0
			c0,0,0.1,0,0.1,0C12.8,188.7,13.1,188.7,13.1,188.7C13,188.7,13.1,188.6,13.1,188.7C13.1,188.6,13.1,188.6,13.1,188.7
			C13.1,188.6,13.1,188.6,13.1,188.7"/>
		<path style="clip-path:url(#SVGID_00000037678713789727513010000015364712814524941467_);" d="M26.3,33.2c0.2,0.1,0.3,0.2,0.3,0.4
			c-0.1,0.2-0.2,0.3-0.4,0.3c0,0,0,0,0,0c0,0,0,0,0,0.1c0,0,0-0.2,0-0.1c0,0-0.1-0.2-0.1-0.1c0,0.1-0.2-0.1-0.1-0.1c0,0-0.1,0-0.1,0
			c0.1,0-0.1,0-0.1,0c0,0,0,0,0,0c0,0,0,0,0,0c0.1,0,0.2-0.1,0.3-0.2c0.2-0.2,0.4-0.5,0.7-0.8c1-1,2-1.3,3.3-1.8
			c2-0.7,4.3-0.7,6.3-0.2c1.9,0.4,3.6,1.3,4.2,2.5c0.1,0.2,0,0.4-0.2,0.5c-0.2,0.1-0.4,0-0.5-0.2c-0.4-0.9-1.9-1.7-3.7-2.1
			c-1.9-0.4-4-0.4-5.9,0.2c-1.3,0.5-2.2,0.7-3,1.6c-0.2,0.2-0.5,0.6-0.8,0.8c-0.2,0.1-0.3,0.2-0.4,0.3c-0.1,0-0.1,0.1-0.2,0.1
			c0,0-0.1,0-0.2,0c-0.1,0-0.3-0.3-0.3-0.4c0-0.2,0.1-0.4,0.2-0.5C25.7,33.3,26,33.2,26.3,33.2"/>
		<path style="clip-path:url(#SVGID_00000037678713789727513010000015364712814524941467_);" d="M26.9,46.2c0,0.2-0.2,0.3-0.4,0.3
			c-0.2,0-0.3-0.2-0.3-0.4c0,0,0,0,0,0c0,0,0,0,0,0c0-0.2,0.2-0.4,0.4-0.4S26.9,45.9,26.9,46.2C26.9,46.2,26.9,46.1,26.9,46.2
			 M25.7,19.7c0-0.2,0.2-0.4,0.4-0.4s0.4,0.2,0.4,0.4v0v0.5c0,1.8,0.2,4.9,0.3,7.5c0,1.5,0,2.9,0,4.4c0,0.5,0,1,0,1.5
			c0.1,2.2,0.1,4.7,0.1,6.9c0,1,0,1.8,0,2.8c0,0.8,0,1.6,0,2.2c0,0.3,0,0.5,0,0.6c0,0.1,0,0.1,0,0.1c0,0,0,0,0,0
			c0,0.2-0.1,0.4-0.3,0.4c-0.2,0-0.4-0.1-0.4-0.3c0,0,0,0,0,0c0,0,0-0.1,0-0.1c0-0.1,0-0.4,0-0.6c0-0.6,0-1.4,0-2.2
			c0-0.9,0-1.7,0-2.8c0-2.2,0-4.6-0.1-6.9c0-0.5,0-1,0-1.5c0-1.5,0-2.9,0-4.4c0-2.6-0.3-5.7-0.3-7.5V19.7L25.7,19.7 M26.4,20
			c0,0.2-0.2,0.4-0.4,0.4s-0.4-0.2-0.4-0.4v-0.2v0c0-0.2,0.2-0.4,0.4-0.4s0.4,0.2,0.4,0.4v0V20"/>
		<path style="clip-path:url(#SVGID_00000037678713789727513010000015364712814524941467_);" d="M25.9,53.9c0-0.2,0.2-0.4,0.4-0.4
			s0.4,0.2,0.4,0.4c0,0.3,0,0.9,0.1,1.3c0,0.2-0.1,0.4-0.3,0.4c-0.2,0-0.4-0.1-0.4-0.3C25.9,54.8,25.9,54.2,25.9,53.9 M26.7,55.5
			c-0.1,0.2-0.3,0.3-0.4,0.3c-0.2-0.1-0.3-0.3-0.3-0.4c0-0.1,0-0.5,0-0.9c0-0.1,0-0.3,0-0.4c0,0,0-0.1,0-0.1v0
			c0-0.2,0.2-0.4,0.4-0.4c0.2,0,0.4,0.2,0.4,0.4v0c0,0,0,0.1,0,0.1c0,0.1,0,0.2,0,0.4C26.7,54.8,26.8,55.1,26.7,55.5 M26,54.1
			c0-0.2,0.2-0.4,0.4-0.3c0.2,0,0.4,0.2,0.3,0.4c0,0.1,0,0.4,0,0.7c0,0.2,0,0.3,0,0.4c0,0,0,0.1,0,0.1c0,0,0,0,0,0c0,0,0,0,0,0
			c0,0.2-0.1,0.4-0.3,0.4c-0.2,0-0.4-0.1-0.4-0.3c0,0,0,0,0,0c0,0,0,0,0-0.1c0,0,0-0.1,0-0.1c0-0.1,0-0.2,0-0.4
			C26,54.6,26,54.3,26,54.1"/>
		<path style="clip-path:url(#SVGID_00000037678713789727513010000015364712814524941467_);" d="M27.1,66.1c0,0.2-0.1,0.4-0.3,0.4
			s-0.4-0.1-0.4-0.3c0-0.2,0-0.3,0-0.3c0,0,0,0,0,0c0,0,0,0.1,0,0.1c0,0,0.1,0.1,0.1,0.1c0,0,0.2,0.1,0.2,0.1c-0.1,0,0.2,0,0.2,0
			c0,0,0.1-0.1,0.1,0c0,0,0.1-0.1,0.1-0.1c0,0,0-0.1,0,0c0,0,0-0.1,0-0.1c0,0,0,0.2,0,0.4c-0.1,0.8-0.1,1.8-0.1,2.9
			c0,1.2,0,2.5,0,3.8c0,2.9,0,5.2,0,7.6c0,1.8-0.1,3.7-0.2,5.5c0,0.9-0.1,1.6-0.1,2.3c0,0.6,0,1.2,0,1.5c0,0.2-0.1,0.4-0.3,0.4
			c-0.2,0-0.4-0.1-0.4-0.3c-0.1-0.4-0.1-0.9,0-1.6c0-2.1,0.2-5.1,0.2-7.8c0-2.3,0-4.6,0-7.6c0-1.3,0-2.6,0-3.8c0-1.2,0-2.2,0.1-3
			c0-0.1,0-0.2,0-0.3c0-0.1,0-0.1,0.1-0.3c0-0.1,0.1-0.2,0.3-0.2s0.3,0.2,0.3,0.2c0,0.1,0,0.1,0.1,0.2C27,65.8,27.1,65.9,27.1,66.1"
			/>
		<path style="clip-path:url(#SVGID_00000037678713789727513010000015364712814524941467_);" d="M25.9,99.2c0-0.2,0.2-0.4,0.4-0.4
			s0.4,0.2,0.4,0.4v1.4c0,0.3,0,0.5,0,0.7c0,0.1,0,0.3,0,0.3c0,0,0,0.1,0,0.1c0,0-0.1-0.1,0-0.1c0,0-0.1-0.1-0.1-0.1
			c0,0-0.1-0.1-0.1,0c0,0-0.2,0-0.1,0c0.1,0-0.2,0.1-0.2,0.1c0,0-0.1,0.1-0.1,0.1c0,0-0.1,0.1-0.1,0.1c0,0,0,0.1,0,0c0,0,0,0,0,0
			c0,0,0,0,0-0.1c0-0.1,0-0.2,0-0.3c0-0.3,0-0.5,0-0.7c0-0.2,0.2-0.3,0.4-0.3c0.2,0,0.3,0.2,0.3,0.4c0,0,0,0.4,0,0.7
			c0,0.2,0.1,0.3,0.1,0.4c0,0.1,0.1,0.1,0.1,0.1c0.2,0.1,0.2,0.3,0.1,0.5c-0.1,0.2-0.3,0.2-0.5,0.1c-0.2-0.1-0.3-0.3-0.4-0.5
			c-0.1-0.2-0.1-0.4-0.1-0.6c-0.1-0.4-0.1-0.7,0-0.8l0.7,0.1c0,0.1,0,0.4,0,0.6c0,0.1,0,0.3,0,0.4c0,0.1,0,0.1,0,0.1
			c0,0,0,0.1,0,0.1c0,0.1-0.1,0.2-0.3,0.2c-0.2,0-0.3-0.1-0.3-0.2c0,0,0-0.1-0.1-0.1c0-0.1,0-0.1,0-0.2c0-0.1,0-0.3,0-0.4
			c0-0.2,0-0.5,0-0.8V99.2z"/>
		<path style="clip-path:url(#SVGID_00000037678713789727513010000015364712814524941467_);" d="M26.9,112.7c0,0.2-0.2,0.4-0.4,0.4
			c-0.2,0-0.4-0.2-0.4-0.4c0-0.2,0-0.4,0-0.5c0,0,0,0,0-0.1c0,0,0,0,0-0.1c0,0,0-0.1,0.2-0.2c0.1-0.1,0.3,0,0.4,0
			c0.2,0.1,0.2,0.2,0.2,0.2c0,0,0,0,0,0.1c0,0.2,0.1,0.5,0.1,1c0.3,2.7,0.4,7,0.5,10.5c0,3.1,0,6.1-0.1,8.4c0,0.5,0,1.1-0.1,1.5
			c0,1.1,0,2-0.1,3c0,0.6-0.1,1.2-0.1,1.7c0,0.4,0,0.7,0,0.9c0,0,0,0.1,0,0.1c0,0,0,0,0,0c0,0,0-0.1,0-0.1c0,0,0-0.1,0-0.1
			c0,0-0.1-0.1-0.1-0.1c0,0-0.2-0.1-0.2-0.1c0.1,0-0.2,0-0.2,0c0,0-0.1,0.1-0.1,0c0,0-0.1,0.1-0.1,0.1c0,0,0,0.1,0,0.1c0,0,0,0,0,0
			c0,0,0,0,0-0.1c0-0.2,0.2-0.3,0.4-0.3s0.3,0.2,0.3,0.4c0,0.1,0,0.1,0,0.2c0,0,0,0.1-0.1,0.1c0,0-0.1,0.1-0.2,0.1
			c-0.1,0-0.3,0-0.3,0c-0.3-0.2-0.2-0.2-0.2-0.3c0-0.1,0-0.1,0-0.2c0-0.2,0-0.6,0-0.9c0-0.6,0.1-1.2,0.1-1.7c0-0.9,0-1.8,0.1-3
			c0-0.5,0-1,0.1-1.5c0.1-2.2,0.1-5.3,0.1-8.3c0-3.5-0.2-7.8-0.5-10.4c0-0.4-0.1-0.8-0.1-0.9c0,0,0,0,0,0c0,0,0.1,0.1,0,0.1
			c0,0,0.1,0.1,0,0c0,0,0.1,0.1,0.1,0c0,0,0.2,0.1,0.2,0.1c-0.1,0,0.3-0.1,0.2,0c0,0,0.1-0.1,0.1-0.1c0,0,0.1-0.1,0.1-0.1
			c0,0,0-0.1,0-0.1c0,0,0,0,0,0C26.9,112.3,26.9,112.5,26.9,112.7"/>
		<path style="clip-path:url(#SVGID_00000037678713789727513010000015364712814524941467_);" d="M26,150.3c0-0.2,0.2-0.4,0.4-0.3
			c0.2,0,0.4,0.2,0.3,0.4c-0.1,1.5,0.1,1.5,0.3,2.8c0,0.2-0.1,0.4-0.3,0.4c-0.2,0-0.4-0.1-0.4-0.3c-0.1-0.6-0.2-1-0.3-1.3
			C26,151.5,26,151.1,26,150.3"/>
		<path style="clip-path:url(#SVGID_00000037678713789727513010000015364712814524941467_);" d="M26.6,159.3c0-0.2,0.2-0.4,0.4-0.4
			s0.4,0.2,0.4,0.4v47.3c0,0.2-0.2,0.4-0.4,0.4s-0.4-0.2-0.4-0.4V159.3z"/>
		<path style="clip-path:url(#SVGID_00000037678713789727513010000015364712814524941467_);" d="M216.6,32.3c0-0.2,0.2-0.4,0.4-0.4
			c0.2,0,0.4,0.2,0.4,0.4v154.9c0,0.2-0.2,0.4-0.4,0.4c-0.2,0-0.4-0.2-0.4-0.4V32.3z"/>
		<path style="clip-path:url(#SVGID_00000037678713789727513010000015364712814524941467_);" d="M244.8,32.3c0-0.2,0.2-0.4,0.4-0.4
			c0.2,0,0.4,0.2,0.4,0.4v154.9c0,0.2-0.2,0.4-0.4,0.4c-0.2,0-0.4-0.2-0.4-0.4V32.3z"/>
		<path style="clip-path:url(#SVGID_00000037678713789727513010000015364712814524941467_);" d="M217,33.8c-0.2-0.1-0.3-0.3-0.2-0.5
			c0.1-0.2,0.3-0.3,0.5-0.2c0,0,0,0,0,0c0,0,0,0,0,0c0.1-0.1,0.2-0.3,0.4-0.6c0.2-0.3,0.5-0.6,0.7-0.8c0.9-0.9,1.6-1.4,2.6-1.8
			c0.7-0.2,1.5-0.3,2.3-0.3c1.4,0,2.7,0.8,3.7,1.6c0.7,0.6,1,1,1.5,1.5c1.7,1.8,4.4,2.9,7.1,2.6c1.5-0.1,3-0.4,4.2-0.9
			c0.8-0.3,1.4-0.6,1.9-0.9c0.8-0.5,1.8-1.1,1.9-1.2c0.2-0.1,0.4-0.1,0.5,0.1c0.1,0.2,0.1,0.4-0.1,0.5c-0.1,0-0.3,0.2-0.7,0.4
			c-0.4,0.2-0.8,0.5-1.2,0.8c-0.6,0.4-1.3,0.7-2.1,1c-1.3,0.5-2.9,0.8-4.4,1c-3,0.3-5.8-0.8-7.7-2.9c-0.5-0.5-0.9-1-1.5-1.5
			c-0.9-0.8-2-1.4-3.2-1.5c-0.7,0-1.5,0.1-2.1,0.3c-0.9,0.3-1.5,0.7-2.3,1.6c-0.2,0.2-0.5,0.5-0.6,0.7c-0.2,0.2-0.3,0.5-0.4,0.7
			c-0.1,0.1-0.2,0.2-0.4,0.3C217.3,33.8,217.1,33.8,217,33.8"/>
		<path style="clip-path:url(#SVGID_00000037678713789727513010000015364712814524941467_);" d="M217.6,187.9c0,0.2-0.2,0.3-0.4,0.3
			c-0.2,0-0.3-0.2-0.3-0.4c0.1-0.6,0.7-0.9,1-1.2c0.2-0.2,0.4-0.6,0.7-1c0.4-0.6,1-1,1.7-1.2c0.7-0.2,1.5-0.3,2.2-0.3
			c1.8-0.1,3.6,0,5.1,0.7c0.7,0.3,1.4,0.7,2,1.1c0.3,0.2,0.5,0.4,0.7,0.6c1.1,1,2.3,2.2,3.7,2.9c0.9,0.5,1.9,0.6,3,0.6
			c1.8,0,3.3-0.8,4.5-1.8c1.3-1,2.2-2.1,3.2-2.7c0.2-0.1,0.4-0.1,0.5,0.1c0.1,0.2,0.1,0.4-0.1,0.5c-0.8,0.5-1.8,1.6-3.1,2.7
			c-1.3,1.1-3,2-5,2c-1.2,0-2.3-0.1-3.3-0.7c-1.5-0.8-2.8-2-3.9-3.1c-0.2-0.2-0.4-0.4-0.6-0.5c-0.5-0.3-1.1-0.7-1.8-1
			c-1.3-0.6-3-0.8-4.7-0.6c-0.8,0.1-1.5,0.1-2.1,0.3c-0.6,0.2-1,0.5-1.3,0.9c-0.2,0.4-0.4,0.9-0.8,1.2
			C217.9,187.5,217.6,187.8,217.6,187.9"/>
		<path style="clip-path:url(#SVGID_00000037678713789727513010000015364712814524941467_);" d="M217.3,188.4c0,0.2-0.2,0.3-0.4,0.3
			c-0.2,0-0.3-0.2-0.3-0.4c0-0.1,0-0.2,0.1-0.2c0-0.1,0.1-0.2,0.2-0.2c0.1-0.1,0.3,0,0.4,0c0.1,0,0.1,0.1,0.2,0.1
			c0.2,0.2,0.3,0.5,0.5,0.7c0.8,1.3,2.4,1.7,4.1,1.9c1.6,0.2,3.6,0.1,5.2,0.2c0.9,0,1.6-0.1,2.3-0.4c0.3-0.1,0.6-0.3,0.9-0.4
			c0.6-0.3,1.2-0.6,1.6-0.9c0.2-0.2,0.3-0.4,0.6-0.7c0.3-0.3,0.7-0.4,1.3-0.3c0.2,0,0.3,0.2,0.3,0.4c0,0.2-0.2,0.3-0.4,0.3
			c-0.4-0.1-0.5,0-0.6,0.1c-0.1,0.1-0.3,0.4-0.6,0.7c-0.5,0.5-1.2,0.8-1.8,1.1c-0.3,0.1-0.6,0.3-0.9,0.5c-0.8,0.3-1.6,0.4-2.6,0.4
			c-1.6,0-3.6,0-5.3-0.2c-0.9-0.1-1.8-0.2-2.6-0.6c-0.8-0.3-1.6-0.9-2.1-1.7c-0.2-0.3-0.3-0.5-0.4-0.6c0,0,0.1,0,0,0
			c0,0,0.1,0,0.1,0C217,188.4,217.2,188.4,217.3,188.4C217.1,188.4,217.3,188.3,217.3,188.4C217.2,188.4,217.3,188.3,217.3,188.4
			C217.3,188.3,217.3,188.3,217.3,188.4"/>
		<path style="clip-path:url(#SVGID_00000037678713789727513010000015364712814524941467_);" d="M230.4,32.9
			c0.2,0.1,0.3,0.2,0.3,0.4c-0.1,0.2-0.2,0.3-0.4,0.3c0,0,0,0,0,0c0,0,0,0,0,0.1c0,0,0-0.2,0-0.1c0,0-0.1-0.2-0.1-0.1
			c0,0.1-0.2-0.1-0.1-0.1c0,0-0.1,0-0.1,0c0.1,0-0.1,0-0.1,0c0,0,0,0,0,0c0,0,0,0,0,0c0.1,0,0.2-0.1,0.3-0.2
			c0.2-0.2,0.4-0.5,0.7-0.8c1-1,2-1.3,3.3-1.8c2-0.7,4.3-0.7,6.3-0.2c1.9,0.4,3.6,1.3,4.2,2.5c0.1,0.2,0,0.4-0.2,0.5
			c-0.2,0.1-0.4,0-0.5-0.2c-0.4-0.9-1.9-1.7-3.7-2.1c-1.9-0.4-4-0.4-5.9,0.2c-1.3,0.5-2.2,0.7-3,1.6c-0.2,0.2-0.5,0.6-0.8,0.8
			c-0.2,0.1-0.3,0.2-0.4,0.3c-0.1,0-0.1,0.1-0.2,0.1c0,0-0.1,0-0.2,0c-0.1,0-0.3-0.3-0.3-0.4c0-0.2,0.1-0.4,0.2-0.5
			C229.9,33,230.2,32.9,230.4,32.9"/>
		<path style="clip-path:url(#SVGID_00000037678713789727513010000015364712814524941467_);" d="M231,45.9c0,0.2-0.2,0.3-0.4,0.3
			c-0.2,0-0.3-0.2-0.3-0.4c0,0,0,0,0,0c0,0,0,0,0,0c0-0.2,0.2-0.4,0.4-0.4C230.9,45.5,231,45.6,231,45.9C231,45.9,231,45.9,231,45.9
			 M229.8,19.4c0-0.2,0.2-0.4,0.4-0.4c0.2,0,0.4,0.2,0.4,0.4v0v0.5c0,1.8,0.2,4.9,0.3,7.5c0,1.5,0,2.9,0,4.4c0,0.5,0,1,0,1.5
			c0.1,2.2,0.1,4.7,0.1,6.9c0,1,0,1.8,0,2.8c0,0.8,0,1.6,0,2.2c0,0.3,0,0.5,0,0.6c0,0.1,0,0.1,0,0.1c0,0,0,0,0,0
			c0,0.2-0.1,0.4-0.3,0.4c-0.2,0-0.4-0.1-0.4-0.3c0,0,0,0,0,0c0,0,0-0.1,0-0.1c0-0.1,0-0.4,0-0.6c0-0.6,0-1.4,0-2.2
			c0-0.9,0-1.7,0-2.8c0-2.2,0-4.6-0.1-6.9c0-0.5,0-1,0-1.5c0-1.5,0-2.9,0-4.4c0-2.6-0.3-5.7-0.3-7.5V19.4L229.8,19.4 M230.6,19.7
			c0,0.2-0.2,0.4-0.4,0.4c-0.2,0-0.4-0.2-0.4-0.4v-0.2v0c0-0.2,0.2-0.4,0.4-0.4c0.2,0,0.4,0.2,0.4,0.4v0V19.7"/>
		<path style="clip-path:url(#SVGID_00000037678713789727513010000015364712814524941467_);" d="M230.1,53.7c0-0.2,0.2-0.4,0.4-0.4
			c0.2,0,0.4,0.2,0.4,0.4c0,0.3,0,0.9,0.1,1.3c0,0.2-0.1,0.4-0.3,0.4c-0.2,0-0.4-0.1-0.4-0.3C230.1,54.6,230.1,53.9,230.1,53.7
			 M230.8,55.2c-0.1,0.2-0.2,0.3-0.4,0.3c-0.2-0.1-0.3-0.3-0.3-0.4c0-0.1,0-0.5,0-0.9c0-0.1,0-0.3,0-0.4c0,0,0-0.1,0-0.1v0
			c0-0.2,0.2-0.4,0.4-0.4c0.2,0,0.4,0.2,0.4,0.4c0,0,0,0,0,0c0,0,0,0.1,0,0.1c0,0.1,0,0.2,0,0.4C230.8,54.5,230.9,54.9,230.8,55.2
			 M230.1,53.8c0-0.2,0.2-0.4,0.4-0.3c0.2,0,0.4,0.2,0.3,0.4c0,0.1,0,0.4,0,0.7c0,0.2,0,0.3,0,0.4c0,0,0,0.1,0,0.1c0,0,0,0,0,0
			c0,0,0,0,0,0c0,0.2-0.1,0.4-0.3,0.4c-0.2,0-0.4-0.1-0.4-0.3c0,0,0,0,0,0c0,0,0,0,0-0.1c0,0,0-0.1,0-0.1c0-0.1,0-0.2,0-0.4
			C230.1,54.3,230.1,54,230.1,53.8"/>
		<path style="clip-path:url(#SVGID_00000037678713789727513010000015364712814524941467_);" d="M231.2,65.8c0,0.2-0.1,0.4-0.3,0.4
			c-0.2,0-0.4-0.1-0.4-0.3c0-0.2,0-0.3,0-0.3c0,0,0,0,0,0c0,0,0,0.1,0,0.1c0,0,0.1,0.1,0.1,0.1c0,0,0.2,0.1,0.2,0.1
			c-0.1,0,0.2,0,0.2,0c0,0,0.1-0.1,0.1,0c0,0,0.1-0.1,0.1-0.1c0,0,0-0.1,0,0c0,0,0-0.1,0-0.1c0,0,0,0.2,0,0.4
			c-0.1,0.8-0.1,1.8-0.1,2.9c0,1.2,0,2.5,0,3.8c0,2.9,0,5.2,0,7.6c0,1.8-0.1,3.7-0.2,5.5c0,0.9-0.1,1.6-0.1,2.3c0,0.6,0,1.2,0,1.5
			c0,0.2-0.1,0.4-0.3,0.4c-0.2,0-0.4-0.1-0.4-0.3c-0.1-0.4-0.1-0.9,0-1.6c0-2.1,0.2-5.1,0.2-7.8c0-2.3,0-4.6,0-7.6
			c0-1.3,0-2.6,0-3.8c0-1.2,0-2.2,0.1-3c0-0.1,0-0.2,0-0.3c0-0.1,0-0.1,0.1-0.3c0-0.1,0.1-0.2,0.3-0.2c0.2,0,0.3,0.2,0.3,0.2
			c0,0.1,0,0.1,0.1,0.2C231.2,65.5,231.2,65.6,231.2,65.8"/>
		<path style="clip-path:url(#SVGID_00000037678713789727513010000015364712814524941467_);" d="M230,98.9c0-0.2,0.2-0.4,0.4-0.4
			c0.2,0,0.4,0.2,0.4,0.4v1.4c0,0.3,0,0.5,0,0.7c0,0.1,0,0.3,0,0.3c0,0,0,0.1,0,0.1c0,0-0.1-0.1,0-0.1c0,0-0.1-0.1-0.1-0.1
			c0,0-0.1-0.1-0.1,0c0,0-0.2,0-0.1,0c0.1,0-0.2,0.1-0.2,0.1c0,0-0.1,0.1-0.1,0.1c0,0-0.1,0.1-0.1,0.1c0,0,0,0.1,0,0c0,0,0,0,0,0
			c0,0,0,0,0-0.1c0-0.1,0-0.2,0-0.3c0-0.3,0-0.5,0-0.7c0-0.2,0.2-0.3,0.4-0.3c0.2,0,0.3,0.2,0.3,0.4c0,0,0,0.4,0,0.7
			c0,0.2,0.1,0.3,0.1,0.4c0,0.1,0.1,0.1,0.1,0.1c0.2,0.1,0.2,0.3,0.1,0.5c-0.1,0.2-0.3,0.2-0.5,0.1c-0.2-0.1-0.3-0.3-0.4-0.5
			c-0.1-0.2-0.1-0.4-0.1-0.6c-0.1-0.4-0.1-0.7,0-0.8l0.7,0.1c0,0.1,0,0.4,0,0.6c0,0.1,0,0.3,0,0.4c0,0.1,0,0.1,0,0.1
			c0,0,0,0.1,0,0.1c0,0.1-0.1,0.2-0.3,0.2c-0.2,0-0.3-0.1-0.3-0.2c0,0,0-0.1-0.1-0.1c0-0.1,0-0.1,0-0.2c0-0.1,0-0.3,0-0.4
			c0-0.2,0-0.5,0-0.8V98.9z"/>
		<path style="clip-path:url(#SVGID_00000037678713789727513010000015364712814524941467_);" d="M231,112.4c0,0.2-0.2,0.4-0.4,0.4
			c-0.2,0-0.4-0.2-0.4-0.4c0-0.2,0-0.4,0-0.5c0,0,0,0,0-0.1c0,0,0,0,0-0.1c0,0,0-0.1,0.2-0.2c0.1-0.1,0.3,0,0.4,0
			c0.2,0.1,0.2,0.2,0.2,0.2c0,0,0,0,0,0.1c0,0.2,0.1,0.5,0.1,1c0.3,2.7,0.4,7,0.5,10.5c0,3.1,0,6.1-0.1,8.4c0,0.5,0,1.1-0.1,1.6
			c0,1.1,0,2-0.1,3c0,0.6-0.1,1.2-0.1,1.7c0,0.4,0,0.7,0,0.9c0,0,0,0.1,0,0.1c0,0,0,0,0,0c0,0,0-0.1,0-0.1c0,0,0-0.1,0-0.1
			c0,0-0.1-0.1-0.1-0.1c0,0-0.2-0.1-0.2-0.1c0.1,0-0.2,0-0.2,0c0,0-0.1,0.1-0.1,0c0,0-0.1,0.1-0.1,0.1c0,0,0,0.1,0,0.1c0,0,0,0,0,0
			c0,0,0,0,0-0.1c0-0.2,0.2-0.3,0.4-0.3c0.2,0,0.3,0.2,0.3,0.4c0,0.1,0,0.1,0,0.2c0,0,0,0.1-0.1,0.1c0,0-0.1,0.1-0.2,0.1
			c-0.1,0-0.3,0-0.3,0c-0.3-0.2-0.2-0.2-0.2-0.3c0-0.1,0-0.1,0-0.2c0-0.2,0-0.6,0-0.9c0-0.6,0.1-1.2,0.1-1.7c0-0.9,0-1.8,0.1-3
			c0-0.5,0-1,0.1-1.5c0.1-2.2,0.1-5.3,0.1-8.3c0-3.5-0.2-7.8-0.5-10.4c0-0.4-0.1-0.8-0.1-0.9c0,0,0,0,0,0c0,0,0.1,0.1,0,0.1
			c0,0,0.1,0.1,0,0c0,0,0.1,0.1,0.1,0c0,0,0.2,0.1,0.2,0.1c-0.1,0,0.3-0.1,0.2,0c0,0,0.1-0.1,0.1-0.1c0,0,0.1-0.1,0.1-0.1
			c0,0,0-0.1,0-0.1c0,0,0,0,0,0C231,112,231,112.2,231,112.4"/>
		<path style="clip-path:url(#SVGID_00000037678713789727513010000015364712814524941467_);" d="M230.2,150c0-0.2,0.2-0.4,0.4-0.3
			c0.2,0,0.4,0.2,0.3,0.4c-0.1,1.5,0.1,1.5,0.3,2.8c0,0.2-0.1,0.4-0.3,0.4c-0.2,0-0.4-0.1-0.4-0.3c-0.1-0.6-0.2-1-0.3-1.3
			C230.2,151.2,230.1,150.8,230.2,150"/>
		<path style="clip-path:url(#SVGID_00000037678713789727513010000015364712814524941467_);" d="M230.7,159c0-0.2,0.2-0.4,0.4-0.4
			c0.2,0,0.4,0.2,0.4,0.4v47.3c0,0.2-0.2,0.4-0.4,0.4c-0.2,0-0.4-0.2-0.4-0.4V159z"/>
		<path style="clip-path:url(#SVGID_00000037678713789727513010000015364712814524941467_);fill:#1749B3;" d="M51.9,37.7
			c0.1-0.2,0.3-0.3,0.5-0.3c0.2,0.1,0.3,0.3,0.3,0.5c0,0,0-0.2,0-0.2c0,0-0.1-0.2,0-0.1c0,0.1-0.1-0.2-0.1-0.1c0,0-0.1-0.1-0.1-0.1
			c0,0-0.1,0,0,0c0,0,0,0,0,0c0,0,0.1,0,0.1,0c0.1,0,0.3,0,0.4,0c0.2,0,0.4,0,0.5,0c0.2,0,0.4,0.2,0.4,0.4c0,0.2-0.2,0.4-0.4,0.4
			c-0.2,0-0.5,0-0.9,0c-1,0-2.2,0.5-3.5,0.8c-2,0.6-4.5,1.2-7,1.6c-2,0.3-3.5,0.6-5.3,1.1c-3.9,1.1-8.1,2.1-12.2,2.3
			c-3.3,0.1-6.3,1.3-9.5,1.8c-1.7,0.3-3.2,1.2-4.8,1.7c-0.8,0.3-1.5,0.6-2.4,0.9c-0.6,0.2-1.2,0.5-1.9,0.8C5,49.9,4,50.4,3.2,51
			c-1.1,0.9-2,2.3-2.3,3.9c-0.2,1,0,2.1,0.6,2.9c0.6,0.8,1.5,1.3,2.6,1.3c1.2,0,2.6-0.1,3.9-0.5c0.8-0.3,1.5-0.6,2.1-0.8
			c0.3-0.1,0.6-0.2,1-0.1c0.3,0.1,0.6,0.3,0.8,0.7c0.1,0.2,0,0.4-0.2,0.5c-0.2,0.1-0.4,0-0.5-0.2c-0.1-0.1-0.1-0.2-0.2-0.2
			c-0.1,0-0.3,0-0.5,0.1c-0.6,0.2-1.3,0.6-2.1,0.8c-1.4,0.4-2.8,0.5-4.1,0.5c-1.3,0-2.5-0.6-3.2-1.6c-0.7-1-1.1-2.3-0.8-3.5
			c0.4-1.8,1.4-3.3,2.6-4.4c0.8-0.7,1.9-1.3,3.1-1.9c0.7-0.3,1.4-0.6,2-0.8c0.8-0.3,1.5-0.6,2.4-0.9c1.5-0.5,3-1.4,4.9-1.7
			c3.1-0.5,6.1-1.7,9.6-1.8c4-0.1,8.2-1.1,12-2.2c1.9-0.5,3.4-0.8,5.4-1.1c2.4-0.4,4.9-1.1,6.9-1.6c1.2-0.3,2.5-0.8,3.7-0.9
			c0.4,0,0.7,0,0.9,0l0,0.8c-0.1,0-0.3,0-0.5,0c-0.2,0-0.3,0-0.5,0c-0.1,0-0.1,0-0.2,0c0,0-0.1,0-0.1,0c0,0-0.1,0-0.1-0.1
			C52,38.1,51.9,37.9,51.9,37.7"/>
		<path style="clip-path:url(#SVGID_00000037678713789727513010000015364712814524941467_);fill:#1749B3;" d="M42.4,59.5
			c0,0.2-0.2,0.4-0.4,0.4c-0.2,0-0.4-0.2-0.4-0.4c0-0.3,0-0.6,0.3-0.8c0.2-0.2,0.5-0.3,0.7-0.3c0.5,0,1,0.1,1.6,0.3
			c1.3,0.4,2.6,0.3,3.5,1c0.6,0.5,1.1,1.3,1.2,2.2c0.2,1.7-1,3.4-2.3,4.7c-2,2-4.8,2-7.7,3.2c-2.1,0.9-4.2,1.2-6.7,2.4
			C29.9,73.3,28,74,26.1,75c-2.5,1.3-5,2.9-7.5,3.6c-1.4,0.4-2.6,1.2-4,1.8c-0.5,0.2-1,0.4-1.5,0.6c-1.3,0.5-2.3,1.2-3.6,1.9
			c-0.9,0.5-1.9,1-2.9,1.4c-0.5,0.2-1,0.4-1.4,0.6c-0.4,0.2-0.8,0.6-1.2,1c-0.3,0.3-0.5,0.5-0.7,0.7c-0.5,0.5-0.8,0.8-1,1.2
			c-0.5,0.7-1,1.7-1.2,2.7c-0.1,0.6-0.2,1-0.1,1.4c0.1,0.2,0.3,0.4,0.5,0.6c1.3,1.2,2.9,1.7,4.8,1.9c1.9,0.3,3.9,0.4,5.9,1
			c0.2,0.1,0.3,0.3,0.3,0.5c-0.1,0.2-0.3,0.3-0.5,0.3c-1.9-0.6-3.9-0.7-5.8-1c-1.9-0.3-3.8-0.8-5.2-2.2c-0.2-0.2-0.6-0.5-0.7-0.9
			C0,91.6,0.1,91,0.2,90.4c0.2-1.1,0.8-2.1,1.3-2.9c0.3-0.5,0.7-0.9,1.1-1.4c0.2-0.2,0.5-0.5,0.8-0.8c0.4-0.4,0.9-0.9,1.4-1.1
			c0.5-0.3,1-0.4,1.5-0.6c1-0.4,2-0.9,2.8-1.4c1.3-0.7,2.3-1.4,3.7-1.9c0.5-0.2,1-0.4,1.4-0.6c1.3-0.6,2.6-1.4,4.1-1.9
			c2.3-0.6,4.7-2.3,7.3-3.6c2-1,3.8-1.7,6.1-2.7c2.6-1.2,4.7-1.5,6.7-2.4c1.5-0.7,3-1,4.3-1.4c1.2-0.4,2.3-0.8,3.2-1.7
			c1.2-1.2,2.3-2.7,2.1-4c-0.1-0.7-0.5-1.4-0.9-1.7c-0.5-0.4-1.8-0.5-3.2-0.9c-0.5-0.2-1-0.3-1.3-0.3c-0.1,0-0.2,0-0.2,0
			C42.4,59.3,42.4,59.3,42.4,59.5"/>
		<path style="clip-path:url(#SVGID_00000037678713789727513010000015364712814524941467_);fill:#1749B3;" d="M41.3,95.9
			c-0.2-0.2-0.2-0.4,0-0.6c0.2-0.2,0.4-0.2,0.6,0c1.3,1.3,3.7,1.3,5.4,2.1c1.7,0.8,3.2,2.3,4,3.8c0.4,0.7,0.4,1.5,0.4,2.2
			c0,0.3,0.1,0.6,0,1c-0.1,0.6-0.5,1.1-0.8,1.6c-0.3,0.5-0.6,0.9-0.9,1.2c-0.9,1.1-2.5,2.1-4.5,2.9c-2.6,1-4.7,1.8-6.5,2.6
			c-1.9,0.8-4,1.4-6,1.9c-2,0.5-3.9,0.8-5.5,1.1c-1.7,0.3-3.7,1.1-5.6,1.5c-3,0.6-6,1.3-9.3,3.2c-1.6,0.9-3.1,1.9-4.6,3.1
			c-0.9,0.7-1.7,1.3-2.5,2c-0.4,0.4-0.8,0.8-1.2,1.2c-0.3,0.4-0.6,0.8-0.8,1.2c-0.3,0.7-0.5,1.3-0.6,2c0,0.3-0.1,0.6,0,0.9
			c0.1,0.4,0.7,0.9,1.3,1.2c2.2,1,5,0.5,7.8,0.4c0.2,0,0.4,0.2,0.4,0.4c0,0.2-0.2,0.4-0.4,0.4c-2.8,0.1-5.7,0.7-8.2-0.5
			c-0.7-0.3-1.6-0.9-1.8-1.8c-0.1-0.4,0-0.8,0-1.1c0.1-0.8,0.3-1.5,0.7-2.3c0.2-0.5,0.5-0.9,0.9-1.4c0.4-0.4,0.8-0.9,1.3-1.2
			c0.8-0.7,1.7-1.4,2.6-2c1.5-1.2,3.1-2.3,4.7-3.2c1.7-1,3.4-1.7,5-2.2c1.6-0.5,3.1-0.8,4.6-1.1c1.8-0.4,3.8-1.2,5.6-1.5
			c3.2-0.6,7.7-1.3,11.3-2.9c1.9-0.9,4-1.6,6.6-2.6c1.9-0.8,3.4-1.8,4.2-2.7c0.3-0.3,0.6-0.7,0.9-1.1c0.3-0.5,0.6-0.9,0.7-1.3
			c0-0.2,0-0.5,0-0.9c0-0.7,0-1.4-0.3-1.8c-0.7-1.3-2.1-2.7-3.6-3.4C45.4,97.5,42.9,97.4,41.3,95.9"/>
		<path style="clip-path:url(#SVGID_00000037678713789727513010000015364712814524941467_);fill:#1749B3;" d="M41.7,133.8
			c-0.2,0-0.4-0.2-0.4-0.4c0-0.2,0.2-0.4,0.4-0.4c1.3-0.1,2.6,0,4.1,0.1c0.7,0,1.5,0,2.3,0c0.3,0,0.7,0,1.2,0
			c0.7,0.1,1.3,0.7,1.8,1.2c1,1.1,1.5,2.3,1.5,3.6c0,0.6-0.1,1.2-0.4,1.8c-0.3,0.6-0.7,1.1-1.2,1.5c-1.4,1.2-3.2,1.8-4.9,2.8
			c-1.6,0.9-3.2,1.9-4.9,2.6c-1.7,0.7-3.8,2-5.8,3.3c-1.7,1.1-3.4,1.7-4.9,2.2c-1.5,0.5-3,0.9-4.3,1.6c-3.1,1.7-7.4,3-10.7,5.3
			c-2.7,1.9-5.4,3.8-7.1,5.5c-1.1,1.1-2.1,2.6-3.1,4.1c-0.8,1.2-1.5,2.8-1.3,3.8c0.1,0.4,0.3,0.7,0.6,0.8c0.4,0.2,0.9,0.2,1.5,0.1
			c1.3-0.1,2.7-0.6,3.9-0.9c0.2-0.1,0.4,0.1,0.5,0.3c0.1,0.2-0.1,0.4-0.3,0.5c-1.1,0.4-2.6,0.8-4,1c-0.7,0.1-1.4,0-1.9-0.2
			c-0.6-0.2-1-0.8-1.1-1.5c-0.2-1.4,0.6-3.1,1.4-4.4c1-1.5,2-3.1,3.2-4.2c1.8-1.8,4.5-3.6,7.2-5.6c3.4-2.4,7.8-3.8,10.8-5.4
			c2.8-1.5,6-1.8,9.2-3.9c2-1.3,4.1-2.6,5.9-3.4c1.6-0.7,3.2-1.7,4.8-2.6c1.8-1,3.5-1.6,4.8-2.7c0.4-0.4,0.8-0.8,1-1.3
			c0.2-0.4,0.3-0.9,0.3-1.4c0-1.1-0.4-2-1.3-3c-0.4-0.5-0.9-0.9-1.3-1c-0.3-0.1-0.6,0-1,0c-0.7,0-1.5,0-2.3,0
			C44.2,133.9,43,133.8,41.7,133.8"/>
		<path style="clip-path:url(#SVGID_00000037678713789727513010000015364712814524941467_);fill:#1749B3;" d="M42.8,175.3
			c-0.2,0-0.4-0.2-0.4-0.4c0-0.2,0.2-0.4,0.4-0.4h38.5c0.2,0,0.4,0.2,0.4,0.4c0,0.2-0.2,0.4-0.4,0.4H42.8z"/>
		<path style="clip-path:url(#SVGID_00000037678713789727513010000015364712814524941467_);fill:#1749B3;" d="M52.9,37.7
			c-0.2,0-0.4-0.2-0.4-0.4c0-0.2,0.2-0.4,0.4-0.4h27.5c0.2,0,0.4,0.2,0.4,0.4c0,0.2-0.2,0.4-0.4,0.4H52.9z"/>
		<path style="clip-path:url(#SVGID_00000037678713789727513010000015364712814524941467_);fill:#1749B3;" d="M5.1,57.7
			c0.1-0.2,0.4-0.2,0.6,0c0.2,0.1,0.2,0.4,0,0.6c0,0,0,0,0,0c0,0,0-0.2,0-0.1c0,0,0-0.1,0,0c0,0,0,0,0.1,0c0.2,0.1,0.6,0.2,1.1,0.2
			c0.8,0.1,1.8,0.1,2.6,0.1c0.2,0,0.5,0,0.7,0c0.2,0,0.5,0,0.8,0c0.3,0,0.6,0.1,0.8,0.3c0.1,0.1,0.2,0.1,0.3,0.3
			c0.1,0.1,0.2,0.3,0.1,0.5c0,0.1-0.1,0.2-0.2,0.3c-0.1,0-0.1,0.1-0.2,0.1c-0.1,0-0.2,0.1-0.3,0.1c-0.2,0-0.4,0.1-0.6,0.1
			c-0.7,0.1-1.5,0-2.2,0c-0.9,0-1.9,0.1-2.8,0c-0.4,0-0.9-0.2-1.2-0.4c-0.3-0.3-0.6-0.7-0.6-1.2c0-0.2,0.2-0.4,0.4-0.4
			c0.2,0,0.4,0.2,0.4,0.4c0,0.3,0.1,0.5,0.3,0.6c0.2,0.1,0.4,0.2,0.8,0.2c0.7,0.1,1.7,0,2.7,0c0.8,0,1.5,0.1,2.1,0
			c0.2,0,0.4-0.1,0.5-0.1c0.1,0,0.1,0,0.1,0c0,0-0.1,0,0,0c0,0-0.1,0.1-0.1,0.1c0,0-0.1,0.2-0.1,0.1c0-0.1,0,0.2,0,0.1c0,0,0,0,0,0
			c0,0,0,0-0.1-0.1c-0.1-0.1-0.2-0.1-0.4-0.1c-0.2,0-0.4,0-0.7,0c-0.2,0-0.5,0-0.7,0c-0.8,0-1.8,0-2.7-0.1c-0.5-0.1-1-0.1-1.3-0.3
			c-0.2-0.1-0.4-0.2-0.5-0.4C5,58.3,4.9,58.1,5,58C5,57.9,5.1,57.8,5.1,57.7"/>
		<path style="clip-path:url(#SVGID_00000037678713789727513010000015364712814524941467_);fill:#1749B3;" d="M277.9,38.5
			c0.2,0.1,0.3,0.3,0.3,0.5c-0.1,0.2-0.3,0.3-0.5,0.3c-2-0.7-5.5-0.7-8.2-0.7c-3.7,0-7.3-0.1-10.6,0c-2.4,0-4.9,0.1-7,0.5
			c-1.1,0.2-2,0.6-2.9,1.1c-0.4,0.2-0.8,0.5-1.2,0.8c-0.2,0.1-0.5,0.2-0.8,0.3c-0.6,0.2-1.4,0.4-1.6,0.6c0,0,0,0,0,0
			c0,0,0-0.2,0-0.1c0,0.1,0-0.2,0-0.2c0,0,0,0,0,0c0.1,0.1,0.4,0.2,1,0.3c0.2,0,0.4,0.3,0.3,0.5c0,0.2-0.3,0.4-0.5,0.3
			c-0.7-0.1-1.1-0.2-1.4-0.5c-0.1-0.1-0.3-0.3-0.3-0.6c0-0.2,0.2-0.4,0.3-0.5c0.5-0.4,1.2-0.5,1.8-0.7c0.3-0.1,0.5-0.2,0.6-0.3
			c0.4-0.2,0.8-0.5,1.2-0.8c0.9-0.5,1.9-0.9,3.1-1.1c2.3-0.4,4.8-0.5,7.2-0.5c3.3,0,7,0,10.6,0C272.2,37.7,275.7,37.7,277.9,38.5"/>
		<path style="clip-path:url(#SVGID_00000037678713789727513010000015364712814524941467_);fill:#1749B3;" d="M216,50.5
			c0.2-0.1,0.4,0,0.5,0.2c0.1,0.2,0,0.4-0.2,0.5c-2.1,1-4.4,1.4-6.5,2.2c-1.4,0.5-2.5,1.6-3.3,2.7c-0.6,0.8-1.2,2.2-1.1,3.2
			c0.1,0.7,0.5,1.1,1,1.6c0.4,0.4,0.9,0.8,1.4,1.2c0.9,0.7,1.8,1.1,3,1.4c0.9,0.2,1.9,0.3,2.7,0.4c0.9,0.1,1.6,0.2,2.3,0.4
			c2.6,0.6,5.9,0.4,9,0.8c4.9,0.6,9.5,1.2,13.9,1.6c2.5,0.2,4.7,0.5,6.9,0.9c1.2,0.2,2.5,0.6,3.7,1.1c0.9,0.4,1.7,0.7,2.4,1.4
			c0.4,0.4,0.9,0.9,1.3,1.5c0.6,0.9,0.6,1.8,0.6,2.7c0,0.6,0.1,1.3,0.1,2c0.1,1.9-1.2,3.5-2.2,4.9c-0.7,0.9-1.4,1.7-2.1,2.3
			c-0.7,0.5-1.6,0.6-2.4,0.7c-0.4,0-0.7,0.1-1,0.1c-0.5,0.1-1,0.1-1,0.1c0,0,0.1-0.1,0.1,0c0,0,0.1-0.1,0.1-0.1c0,0,0-0.2,0-0.2
			c0,0.1-0.1-0.2,0-0.2c0,0.1-0.1-0.1-0.1-0.1c0,0,0,0,0,0c0,0,0.2,0.1,0.6,0.2c0.2,0.1,0.3,0.3,0.3,0.5s-0.3,0.3-0.5,0.3
			c-0.4-0.1-0.6-0.2-0.8-0.3c-0.1-0.1-0.3-0.1-0.3-0.4c0-0.3,0.2-0.4,0.3-0.4c0.3-0.1,0.8-0.1,1.2-0.2c0.3,0,0.7-0.1,1.1-0.1
			c0.8-0.1,1.6-0.2,2-0.5c0.6-0.5,1.3-1.2,1.9-2.1c1-1.4,2.1-2.9,2-4.4c0-0.6-0.1-1.3-0.1-2c0-0.8-0.1-1.6-0.5-2.3
			c-0.3-0.5-0.8-0.9-1.2-1.3c-0.7-0.6-1.3-0.9-2.2-1.3c-1.1-0.5-2.3-0.8-3.5-1c-2.2-0.4-4.4-0.7-6.8-0.9c-4.4-0.4-9-1-13.9-1.6
			c-3-0.4-6.3-0.2-9.1-0.8c-0.7-0.2-1.4-0.3-2.2-0.4c-0.9-0.1-1.8-0.2-2.8-0.4c-1.3-0.3-2.3-0.8-3.3-1.6c-0.5-0.4-1-0.8-1.5-1.3
			c-0.6-0.5-1.1-1.2-1.2-2.1c-0.2-1.4,0.5-2.9,1.2-3.9c0.9-1.1,2.1-2.3,3.7-2.9C211.7,51.8,214,51.4,216,50.5"/>
		<path style="clip-path:url(#SVGID_00000037678713789727513010000015364712814524941467_);fill:#1749B3;" d="M214.7,94.1
			c-0.2,0-0.4-0.2-0.4-0.4c0-0.2,0.2-0.4,0.4-0.4c0.5,0,0.5,0,0.9,0c0.2,0,0.4,0.2,0.3,0.5c0,0.2-0.2,0.4-0.5,0.3
			C215.2,94.1,215.3,94.1,214.7,94.1"/>
		<path style="clip-path:url(#SVGID_00000037678713789727513010000015364712814524941467_);fill:#1749B3;" d="M215.9,93.6
			c0.2,0,0.4,0.2,0.4,0.4c0,0.2-0.2,0.4-0.4,0.4c0,0,0,0,0,0c0,0-0.1,0-0.2,0c-0.2,0-0.4,0.1-0.6,0.1c-0.9,0.2-2.1,0.3-3.3,0.5
			c-1.3,0.2-2.6,0.6-3.9,1.2c-1.3,0.7-2.3,1.6-2.9,2.5c-0.6,0.9-0.7,1.9-0.3,2.7c0.7,1.4,2.5,2.8,4.7,3.4c1.9,0.5,3.6,1.2,5.7,1.5
			c2,0.3,4.3,0.2,6.5,0.4c2.1,0.2,3.7,0.8,5.5,1c1.5,0.2,3.3,0.1,5.1,0.1c3.8-0.1,7.4,0.2,11.4,0.4c3.6,0.1,7.5,0.7,10.3,1.8
			c2.1,0.8,3.2,2.5,3.4,4.4c0.1,1.1,0,2.2-0.4,3.3c-0.3,0.7-0.6,1.3-0.9,1.8c-0.3,0.4-0.4,0.7-0.7,1c-0.1,0.2-0.3,0.4-0.5,0.6
			c-0.3,0.3-0.6,0.7-1,1.1c-1.3,1.3-2.8,2-3.9,2.8c-0.4,0.3-0.8,0.6-1.1,0.8c-0.4,0.2-0.7,0.5-1.1,0.7c-0.2,0.1-0.4,0.1-0.7,0.2
			c-0.4,0.1-0.8,0.2-1,0.3c0,0,0,0,0,0c0,0,0.1-0.1,0-0.1c0,0,0-0.2,0-0.2c0,0.1-0.1-0.2-0.1-0.2c0,0-0.1-0.1,0,0c0,0,0,0,0.1,0
			c0.2,0.1,0.3,0.3,0.3,0.5c-0.1,0.2-0.3,0.3-0.5,0.3c-0.1,0-0.2-0.1-0.3-0.1c-0.1-0.1-0.2-0.2-0.3-0.4c0-0.2,0.1-0.3,0.2-0.4
			c0.1-0.1,0.2-0.1,0.2-0.2c0.3-0.2,0.7-0.3,1.1-0.4c0.3-0.1,0.5-0.1,0.6-0.2c0.3-0.1,0.6-0.3,1-0.6c0.3-0.2,0.6-0.5,1.1-0.8
			c1.2-0.9,2.6-1.5,3.8-2.7c0.3-0.4,0.7-0.8,1-1.1c0.2-0.2,0.4-0.4,0.5-0.6c0.2-0.3,0.4-0.5,0.6-0.9c0.3-0.5,0.7-1.1,0.9-1.6
			c0.4-0.9,0.4-1.9,0.4-2.9c-0.1-1.6-1-2.9-2.9-3.7c-2.7-1.1-6.5-1.6-10-1.8c-4-0.2-7.5-0.4-11.4-0.4c-1.8,0-3.6,0.1-5.2-0.1
			c-1.9-0.2-3.5-0.8-5.4-1c-2.1-0.2-4.5-0.1-6.6-0.4c-2.2-0.3-4-1.1-5.8-1.5c-2.4-0.6-4.4-2.1-5.2-3.8c-0.5-1.1-0.3-2.4,0.4-3.5
			c0.7-1.1,1.8-2.1,3.2-2.8c1.4-0.7,2.9-1.1,4.2-1.3c1.3-0.2,2.4-0.3,3.3-0.5c0.2,0,0.4-0.1,0.6-0.1
			C215.7,93.6,215.7,93.6,215.9,93.6C215.8,93.6,215.8,93.6,215.9,93.6 M216,94.4c-0.2,0.1-0.4-0.1-0.5-0.3
			c-0.1-0.2,0.1-0.4,0.3-0.5c0,0-0.1,0,0,0c0.2-0.1,0.4,0,0.5,0.2C216.3,94,216.2,94.3,216,94.4C216,94.4,216,94.4,216,94.4"/>
		<path style="clip-path:url(#SVGID_00000037678713789727513010000015364712814524941467_);fill:#1749B3;" d="M215.8,130.7
			c0.2,0,0.4,0.3,0.3,0.5c0,0.2-0.3,0.4-0.5,0.3c-1.6-0.3-4.1,0-5.8,1.1c-1.3,0.9-3,1.8-4.5,3.2c-1.3,1.1-2.1,2.4-2.4,3.6
			c-0.3,1.2-0.2,2.3,0.3,3.3c0.9,1.8,3.5,3.1,6.7,4.1c2.4,0.7,4.7,1.7,7.3,2.5c2.3,0.7,5,1.1,7.5,1.5c3.2,0.6,6,2,9.2,2.4
			c2.8,0.3,4.8,1.3,7,1.9c3,0.9,5.7,1.3,7.9,2.6c2.1,1.3,4.8,2.3,6.4,3.9c0.7,0.7,1.3,1.3,1.5,2.3c0.1,0.6,0,1.3-0.4,1.9
			c-0.3,0.5-0.7,1-1.1,1.4c-1.1,1.3-2.2,1.7-3.2,2.3c-0.9,0.5-2.1,0.7-3.3,0.8c-1.2,0.1-2.4,0.1-3.1,0.1c-0.2,0-0.4-0.2-0.4-0.4
			c0-0.2,0.2-0.4,0.4-0.4c1.6,0,4.6,0,6.1-0.8c1-0.6,1.9-1,3-2.1c0.4-0.4,0.8-0.9,1-1.3c0.3-0.5,0.4-1,0.3-1.4
			c-0.1-0.8-0.5-1.1-1.2-1.8c-1.4-1.4-4.1-2.4-6.3-3.8c-2-1.2-4.6-1.7-7.7-2.5c-2.3-0.7-4.2-1.6-6.9-1.9c-3.4-0.4-6.1-1.8-9.2-2.4
			c-2.4-0.4-5.2-0.8-7.6-1.6c-2.6-0.8-4.9-1.8-7.3-2.5c-3.2-1-6-2.3-7.2-4.5c-0.6-1.1-0.8-2.5-0.4-3.9c0.4-1.4,1.2-2.8,2.7-4
			c1.6-1.4,3.3-2.4,4.6-3.2C211.4,130.7,213.9,130.3,215.8,130.7"/>
		<path style="clip-path:url(#SVGID_00000037678713789727513010000015364712814524941467_);fill:#1749B3;" d="M216.1,176.8
			c0,0.2-0.2,0.4-0.4,0.4c-0.2,0-0.4-0.2-0.4-0.4c0-0.1,0.1,0.2,0.1,0.2c0,0,0,0,0,0c-0.1,0-0.2,0-0.4-0.1c-0.4,0-0.8,0.1-1.3,0.2
			c-1.4,0.5-2.8,1.6-3.3,2.8c-0.1,0.3-0.2,0.6-0.2,0.9c0,1.1,0.9,1.9,2,2.7c1.2,0.9,2.9,1.6,4.4,1.5c0.2,0,0.4,0.2,0.4,0.4
			c0,0.2-0.2,0.4-0.4,0.4c-1.7,0-3.5-0.7-4.9-1.7c-1.1-0.9-2.2-1.8-2.3-3.3c0-0.4,0-0.9,0.2-1.3c0.7-1.5,2.1-2.7,3.8-3.3
			c0.5-0.2,1.1-0.3,1.6-0.2c0.2,0,0.4,0,0.6,0.1c0.1,0,0.2,0.1,0.3,0.2C216,176.5,216.1,176.6,216.1,176.8"/>
		<path style="clip-path:url(#SVGID_00000037678713789727513010000015364712814524941467_);fill:#1749B3;" d="M214.4,184.8
			c-0.2,0.1-0.4-0.1-0.5-0.3c-0.1-0.2,0.1-0.4,0.3-0.5c0.9-0.2,2,0.3,3.6,0.5c1.3,0.1,2.6,0.3,4.1,0.3c1.6,0.1,3.3,0.1,5.3,0.2
			c1.7,0,3.5-0.1,5.5-0.2c2.1-0.1,4.3-0.4,6.9-0.6c1.8-0.2,3.8-0.4,5.8-0.6c1.1-0.1,2.2-0.2,3.3-0.4c2.5-0.3,5.2-0.6,7.9-1
			c1.3-0.2,2.7-0.4,4-0.6c1.8-0.3,3.7-0.5,5.4-0.6c2-0.2,3.9-0.3,5.6-0.3c2.6-0.1,5.1-0.2,7.4-0.3c2.3-0.1,4.4-0.2,6.3-0.3
			c1.9-0.1,3.5-0.1,4.8,0c0.5,0,0.8,0,1.1,0c0.2,0,0.4,0,0.5,0.1c0.1,0,0.3,0,0.5,0.2c0.1,0.1,0.1,0.4,0,0.5
			c-0.1,0.1-0.2,0.2-0.2,0.2c-0.1,0.1-0.3,0.2-0.6,0.2c-0.2,0.1-0.4-0.1-0.5-0.3c-0.1-0.2,0.1-0.4,0.3-0.5c0.2-0.1,0.3-0.1,0.4-0.1
			c0,0,0,0,0,0c0,0-0.1,0.1-0.1,0.1c0,0,0,0.3,0,0.2c0-0.1,0.1,0.2,0.1,0.2c0,0,0.1,0.1,0.1,0.1c0,0,0,0-0.1,0c-0.1,0-0.2,0-0.4-0.1
			c-0.3,0-0.6,0-1.1,0c-1.2,0-2.9,0-4.7,0c-1.9,0.1-4,0.2-6.3,0.3c-2.3,0.1-4.8,0.2-7.4,0.3c-1.8,0.1-3.6,0.1-5.6,0.3
			c-1.7,0.2-3.5,0.4-5.4,0.6c-1.3,0.2-2.7,0.4-4,0.6c-2.7,0.4-5.4,0.7-7.9,1c-1.1,0.1-2.2,0.2-3.3,0.4c-2,0.2-4,0.4-5.8,0.6
			c-2.6,0.3-4.8,0.5-6.9,0.6c-2,0.1-3.9,0.2-5.6,0.2c-2,0-3.8-0.1-5.3-0.2c-1.5-0.1-2.9-0.2-4.2-0.4
			C216.1,185.1,214.9,184.7,214.4,184.8"/>
		<path style="clip-path:url(#SVGID_00000037678713789727513010000015364712814524941467_);fill:#1749B3;" d="M267.3,38
			c-0.1-0.2,0.1-0.4,0.3-0.5c0.2-0.1,0.4,0.1,0.5,0.3c0,0.2,0,0.4,0,0.5c0,0.1,0,0.1,0,0.1c0,0,0,0,0,0c0,0,0-0.1,0-0.1
			c0,0,0-0.2,0-0.1c0,0-0.1-0.2,0-0.1c0,0.1-0.2-0.2-0.2-0.1c0.1,0-0.2-0.1-0.1,0c0.1,0-0.1,0-0.1,0c0,0,0,0,0,0
			c0.1,0,0.3-0.1,0.8-0.2c0.2,0,0.4,0.1,0.5,0.3c0,0.2-0.1,0.4-0.3,0.5c-0.3,0-0.4,0.1-0.5,0.1c0,0-0.1,0-0.1,0c0,0,0,0.1-0.2,0
			c-0.1,0-0.4-0.2-0.4-0.4c0-0.1,0-0.1,0-0.2C267.3,38.1,267.3,38.1,267.3,38C267.3,38.1,267.3,38,267.3,38"/>
		<path style="clip-path:url(#SVGID_00000037678713789727513010000015364712814524941467_);fill:#1749B3;" d="M272.9,39.6
			c0,0.2-0.1,0.4-0.4,0.5s-0.4-0.1-0.5-0.4c0,0,0-0.1,0-0.1c0,0,0,0.1,0,0c0,0,0.1,0.1,0.1,0.1c0,0,0.2,0.1,0.2,0.1c0,0,0.2,0,0.1,0
			c-0.1,0,0.2-0.1,0.1-0.1c0,0,0.1-0.1,0.1-0.1c0,0.1,0.1-0.2,0.1-0.1c0,0.1,0-0.1,0-0.1c0,0,0,0,0,0c0,0,0,0,0,0
			C272.8,39.4,272.9,39.5,272.9,39.6c0.2,0.3,0.1,0.5-0.1,0.6c-0.2,0.1-0.4,0-0.6-0.2c-0.1-0.2-0.2-0.3-0.2-0.4c0-0.1,0-0.1,0-0.2
			c0,0,0-0.1,0-0.1c0-0.1,0-0.2,0.2-0.3c0.2-0.1,0.4,0,0.5,0c0.1,0,0.1,0.1,0.1,0.1c0,0.1,0.1,0.1,0.1,0.1
			C272.8,39.3,272.9,39.4,272.9,39.6"/>
		<path style="clip-path:url(#SVGID_00000037678713789727513010000015364712814524941467_);fill:#1749B3;" d="M277.6,38.2
			c0,0.2-0.1,0.4-0.3,0.5c-0.2,0-0.4-0.1-0.5-0.3c0,0,0.1,0.2,0.1,0.1c0,0,0.2,0.1,0.1,0.1c-0.1,0,0.1-0.1,0.1,0c0,0,0.1-0.1,0-0.1
			c0,0,0-0.2,0-0.1c0,0,0,0,0,0c0,0,0.1,0,0.1,0.1c0.2,0.1,0.3,0.3,0.2,0.5c-0.1,0.2-0.3,0.3-0.5,0.2c-0.2-0.1-0.5-0.3-0.5-0.5
			c-0.1-0.2,0-0.5,0.2-0.7c0.1-0.1,0.3-0.2,0.5-0.2c0.1,0,0.2,0.1,0.3,0.1C277.5,38,277.6,38.1,277.6,38.2"/>
		<path style="clip-path:url(#SVGID_00000037678713789727513010000015364712814524941467_);fill:#ED3624;" d="M92.1,37.3
			c0-0.2,0.2-0.4,0.4-0.4c0.2,0,0.4,0.2,0.4,0.4c0,0-0.1-0.2,0-0.1c0,0-0.1-0.1-0.1-0.1c0,0,0,0,0,0c0.1,0,0.3,0,0.4,0
			c0.8-0.1,1.8-0.3,2.7-0.5c0.6-0.1,1.2-0.2,1.8-0.3c0.3,0,0.5,0,0.7,0c0.2,0,0.4,0,0.6,0.2c0.2,0.1,0.2,0.4,0,0.6
			c-0.1,0.2-0.4,0.2-0.6,0c0,0,0.1,0.1,0.1,0c0,0,0,0-0.1,0c-0.1,0-0.3,0-0.6,0c-0.5,0.1-1.1,0.2-1.7,0.3c-0.9,0.2-1.9,0.4-2.8,0.5
			c-0.2,0-0.5,0-0.7,0c-0.1,0-0.2,0-0.3-0.1C92.2,37.6,92.1,37.5,92.1,37.3"/>
		<path style="clip-path:url(#SVGID_00000037678713789727513010000015364712814524941467_);fill:#ED3624;" d="M96.5,32.7
			c-0.2-0.2-0.2-0.4,0-0.6c0.2-0.2,0.4-0.2,0.6,0c0.1,0.1,0.2,0.3,0.2,0.4c0,0.1,0,0.2,0,0.3c0,0.2-0.1,0.4-0.1,0.6
			c-0.1,0.5-0.3,1-0.5,1.6c-0.3,1-0.4,2.1-0.5,3c-0.1,1.2-0.1,1.8,0.9,2.5c0.2,0.1,0.2,0.4,0.1,0.6s-0.4,0.2-0.6,0.1
			c-0.6-0.4-1-0.9-1.2-1.5c-0.2-0.5-0.1-1.1-0.1-1.8c0.1-0.9,0.2-2.1,0.5-3.2c0.2-0.6,0.3-1.1,0.5-1.6c0.1-0.2,0.1-0.4,0.1-0.5
			c0-0.1,0-0.1,0-0.1c0,0,0,0.1,0,0C96.4,32.6,96.6,32.8,96.5,32.7"/>
		<path style="clip-path:url(#SVGID_00000037678713789727513010000015364712814524941467_);fill:#ED3624;" d="M288.1,36.4
			c0.2,0,0.4,0.1,0.5,0.3s-0.1,0.4-0.3,0.5c-0.1,0-0.2,0-0.2,0c0,0,0,0,0,0c0,0,0.1,0,0,0c0,0,0.1-0.1,0.1-0.1c0,0,0.1-0.1,0-0.1
			c0,0.1,0-0.3,0-0.2c0,0.1-0.1-0.2-0.1-0.2c0,0.1-0.1-0.1-0.1-0.1c0,0-0.1,0-0.1,0c0,0-0.1,0-0.1,0c0,0,0.1,0,0.3,0
			c0.4,0,0.9-0.1,1.5-0.2c1.4-0.2,2.6-0.1,3.7-0.1c1,0.1,1.9,0.1,2.7-0.1c0.2-0.1,0.4,0.1,0.5,0.3c0.1,0.2-0.1,0.4-0.3,0.5
			c-1.9,0.5-3.9-0.1-6.5,0.2c-0.6,0.1-1.1,0.2-1.6,0.2c-0.2,0-0.3,0.1-0.6,0c0,0-0.1,0-0.2-0.2c-0.1-0.1,0-0.4,0-0.5
			c0.1-0.1,0.2-0.1,0.2-0.2C287.8,36.4,287.9,36.4,288.1,36.4"/>
		<path style="clip-path:url(#SVGID_00000037678713789727513010000015364712814524941467_);fill:#ED3624;" d="M293.7,32.7
			c0.2,0,0.4,0.2,0.4,0.4s-0.2,0.4-0.4,0.4c-0.1,0-0.2,0.1-0.4,0.2c-0.2,0.2-0.3,0.4-0.5,0.8c-0.3,0.7-0.6,1.5-0.8,2.4
			c-0.3,1.2-0.5,2.3-0.4,3c0,0.3,0.2,0.6,0.4,0.8c0.2,0.2,0.5,0.4,1,0.5c0.2,0.1,0.4,0.3,0.3,0.5c0,0.2-0.3,0.4-0.5,0.3
			c-0.6-0.1-1.1-0.4-1.4-0.7c-0.3-0.4-0.5-0.8-0.6-1.3c-0.1-1,0.1-2.1,0.4-3.3c0.2-0.9,0.5-1.8,0.9-2.6c0.2-0.4,0.4-0.7,0.6-1
			C293.1,32.9,293.4,32.7,293.7,32.7"/>
		<path style="clip-path:url(#SVGID_00000037678713789727513010000015364712814524941467_);" d="M92.8,174.1c-0.2,0-0.4-0.3-0.3-0.5
			c0-0.2,0.3-0.4,0.5-0.3c0.6,0.1,2.6,0,4.7-0.1c1,0,2.1,0,3,0c0.9,0,1.6,0.1,2.1,0.4c0.2,0.1,0.3,0.4,0.1,0.6
			c-0.1,0.2-0.4,0.3-0.6,0.1c-0.5-0.3-2.6-0.4-4.6-0.3c-1,0-2.1,0.1-2.9,0.1C93.8,174.2,93.2,174.2,92.8,174.1"/>
		<path style="clip-path:url(#SVGID_00000037678713789727513010000015364712814524941467_);" d="M301.4,178.9c0.2,0,0.4,0.2,0.4,0.4
			c0,0.2-0.2,0.4-0.4,0.4c-0.2,0-0.4,0-0.6,0c-0.1,0-0.1,0-0.1,0c0,0,0,0,0,0c0,0,0.1-0.1,0.1-0.1c0,0,0.1-0.3,0.1-0.2
			c0,0.1-0.1-0.3,0-0.2c0,0-0.1-0.1-0.1-0.1c0,0,0,0,0,0c0,0,0.1,0,0.1,0c0.2,0.1,0.7,0.2,1.1,0.3c1.4,0.3,3.1,0,4.8,0.9
			c0.2,0.1,0.3,0.3,0.2,0.6c-0.1,0.2-0.3,0.3-0.6,0.2c-1.4-0.7-3-0.5-4.6-0.8c-0.5-0.1-0.9-0.2-1.2-0.3c-0.1,0-0.2-0.1-0.4-0.2
			c-0.1-0.1-0.2-0.2-0.2-0.4c0-0.2,0.2-0.3,0.2-0.4C300.6,178.9,300.9,178.9,301.4,178.9"/>
		<path style="clip-path:url(#SVGID_00000037678713789727513010000015364712814524941467_);" d="M308.4,36.4
			c0.2-0.1,0.4-0.1,0.6,0.1s0.1,0.4-0.1,0.6c0,0,0.1-0.1,0.1-0.1c0,0,0.1-0.2,0.1-0.2c0,0,0-0.2,0-0.1c0,0.1-0.1-0.2-0.1-0.2
			c0,0-0.1-0.1-0.1-0.1c0,0-0.1-0.1-0.1,0c0,0,0,0,0,0c0,0,0,0,0.1,0c0.1,0,0.4,0,0.6,0.1c1.1,0.1,2.9-0.2,4.7-0.3
			c1.9-0.1,3.8,0,5.3,0.8c0.2,0.1,0.3,0.4,0.2,0.6c-0.1,0.2-0.4,0.3-0.6,0.2c-1.3-0.7-3.1-0.8-4.9-0.7c-1.8,0.1-3.5,0.4-4.8,0.3
			c-0.3,0-0.5,0-0.7-0.1c-0.1,0-0.2,0-0.2,0c0,0-0.1,0-0.2-0.1c-0.1,0-0.2-0.2-0.2-0.3C308.3,36.6,308.4,36.5,308.4,36.4"/>
		<path style="clip-path:url(#SVGID_00000037678713789727513010000015364712814524941467_);" d="M120.3,37c-0.2-0.1-0.3-0.3-0.2-0.5
			c0.1-0.2,0.3-0.3,0.5-0.2c0.6,0.2,2.7,0,5-0.2c1.1-0.1,2.3-0.3,3.3-0.4c1-0.1,1.8-0.1,2.4-0.1c0.2,0,0.4,0.2,0.4,0.5
			c0,0.2-0.2,0.4-0.5,0.4c-1-0.1-3.3,0.2-5.5,0.4c-1.1,0.1-2.2,0.3-3.2,0.3C121.5,37.2,120.8,37.2,120.3,37"/>
		<path style="clip-path:url(#SVGID_00000037678713789727513010000015364712814524941467_);fill:#ED3624;" d="M118.5,173.6
			c0.2,0,0.4,0.1,0.5,0.3s-0.1,0.4-0.3,0.5c-0.1,0-0.1,0-0.2,0c0,0,0,0,0,0c0,0,0.1-0.1,0.1,0c0,0,0.1-0.2,0.1-0.1
			c0,0.1,0-0.3,0-0.2c0,0.1-0.1-0.2-0.1-0.1c0,0-0.1-0.1-0.1-0.1c0,0-0.1,0,0,0c0,0,0,0,0,0c0.2,0,0.7,0.1,1.1,0.1c1,0,2-0.2,3-0.2
			c1-0.1,2,0,2.7,0.5c0.2,0.1,0.2,0.4,0.1,0.6c-0.1,0.2-0.4,0.2-0.6,0.1c-0.9-0.6-3.1-0.1-5.2-0.1c-0.5,0-1,0-1.3-0.1
			c-0.1,0-0.1,0-0.2-0.1c0,0-0.1,0-0.2-0.1c-0.1-0.1-0.1-0.3-0.1-0.4c0.1-0.3,0.2-0.3,0.3-0.3C118.3,173.7,118.4,173.6,118.5,173.6"
			/>
		<path style="clip-path:url(#SVGID_00000037678713789727513010000015364712814524941467_);fill:#ED3624;" d="M122.6,169
			c0.1-0.2,0.4-0.2,0.6-0.1c0.2,0.1,0.2,0.4,0.1,0.6c-0.4,0.6-1,2.5-1.3,4.5c-0.2,1-0.3,1.9-0.2,2.7c0,0.7,0.2,1.3,0.4,1.4
			c0.2,0.1,0.2,0.4,0.1,0.6c-0.1,0.2-0.4,0.2-0.6,0.1c-0.5-0.4-0.7-1.2-0.7-2c0-0.9,0.1-1.9,0.2-2.9c0.2-1,0.4-2,0.7-2.9
			C122,170.1,122.3,169.4,122.6,169"/>
		<path style="clip-path:url(#SVGID_00000037678713789727513010000015364712814524941467_);fill:#ED3624;" d="M316.6,180.9
			c0.2,0.2,0.2,0.4,0,0.6c-0.2,0.2-0.4,0.2-0.6,0c0,0-0.1-0.1-0.1-0.2c0-0.1,0-0.3,0.1-0.4c0.1-0.2,0.2-0.1,0.3-0.2
			c0.1,0,0.2,0,0.2,0c0.2,0,0.4,0,0.6,0c0.9,0.1,2.1-0.1,3.3-0.2c0.6-0.1,1.1-0.1,1.6-0.1c0.5,0,0.8,0,1.2,0.1
			c0.2,0.1,0.3,0.3,0.2,0.5c-0.1,0.2-0.3,0.3-0.5,0.2c-0.6-0.2-3.8,0.4-5.8,0.2c-0.2,0-0.4,0-0.5,0c-0.1,0,0,0-0.1,0
			c0,0,0.1,0,0.1,0c0,0,0.1,0,0.1,0c0,0,0.1-0.1,0.1-0.1c0,0,0.1-0.2,0.1-0.2c0,0.1,0-0.2,0-0.2
			C316.7,181.2,316.6,180.9,316.6,180.9C316.7,181,316.6,180.9,316.6,180.9"/>
		<path style="clip-path:url(#SVGID_00000037678713789727513010000015364712814524941467_);fill:#ED3624;" d="M320.7,176.3
			c0.2,0,0.4,0.2,0.4,0.4c0,0.2-0.2,0.4-0.4,0.4c0,0,0.1,0,0.1,0c0,0-0.1,0.1-0.2,0.3c-0.2,0.3-0.3,0.8-0.5,1.3
			c-0.3,1.1-0.6,2.6-0.8,4.1c-0.2,1.5-0.4,3-0.4,4.1c0,0.6,0,1,0.1,1.3c0,0.1,0.1,0.3,0.1,0.3c0,0,0,0,0,0c0,0-0.1-0.1-0.1,0
			c0.2,0,0.4,0.3,0.3,0.5c0,0.2-0.3,0.4-0.5,0.3c-0.5-0.1-0.6-0.5-0.6-0.9c-0.1-0.4-0.1-0.9-0.1-1.5c0-1.2,0.2-2.7,0.4-4.2
			c0.2-1.5,0.5-3,0.9-4.2c0.2-0.6,0.3-1.1,0.5-1.4C320.1,176.7,320.2,176.4,320.7,176.3"/>
		<path style="clip-path:url(#SVGID_00000037678713789727513010000015364712814524941467_);fill:#ED3624;" d="M9.9,11.8
			c0,0.2-0.2,0.4-0.4,0.4S9,12,9,11.8v-0.3c0-1.4,0-4.5,0-6.7C9,4.1,9,3.5,9,3c0-0.3,0.1-0.5,0.3-0.7c0.2-0.2,0.6-0.2,0.8-0.1
			c0.5,0.3,0.7,1,0.9,1.7c0.3,0.8,0.5,1.8,0.9,2.7c0.3,0.8,0.7,1.7,1,2.4c0.4,1,0.8,1.6,1.1,1.8c0.1,0.1,0.2,0.1,0.2,0.2
			c0,0-0.1,0,0,0c0,0-0.1,0-0.1,0c0,0,0.1-0.1,0.2-0.3c0.1-0.2,0.2-0.5,0.3-0.9c0.2-0.7,0.3-1.6,0.5-2.5c0.2-1.1,0.3-2.2,0.5-3
			c0.1-0.4,0.2-0.7,0.3-1C16,3.2,16.3,3,16.7,3c0.2,0,0.4,0.2,0.4,0.4c0,0.2-0.2,0.4-0.4,0.4c0,0,0,0-0.1,0.1
			c-0.1,0.2-0.2,0.4-0.2,0.8c-0.2,0.8-0.3,1.8-0.5,3c-0.1,0.8-0.3,1.7-0.5,2.5c-0.1,0.4-0.2,0.7-0.3,1c-0.1,0.3-0.3,0.6-0.6,0.7
			c-0.2,0.1-0.5,0-0.6,0c-0.1-0.1-0.2-0.2-0.3-0.2c-0.5-0.4-0.9-1.1-1.3-2.1c-0.4-0.8-0.7-1.6-1-2.5c-0.3-1-0.6-1.9-0.9-2.7
			C10.1,3.5,9.8,3,9.7,3c0,0,0.2,0,0.2,0c0,0,0,0-0.1,0.2c-0.1,0.3,0,0.9,0,1.7c0,2.3,0,5.3,0,6.7V11.8z M10,2.7
			c0.2,0,0.4,0.1,0.5,0.3c0,0.2-0.1,0.4-0.3,0.5c-0.1,0-0.1,0-0.1,0.1C10,3.7,9.9,3.9,9.9,4.2c-0.1,0.5,0,1.2,0,2.1c0,1.4,0,2.8,0,4
			c0,0.6,0,1.1,0,1.4v0.1v0c0,0.2-0.2,0.4-0.4,0.4S9,12,9,11.8v0v-0.1c0-0.3,0-0.8,0-1.4c0-1.2,0-2.7,0-4C9,5.4,9,4.7,9.1,4
			c0-0.3,0.1-0.6,0.3-0.8C9.5,3,9.7,2.8,10,2.7"/>
		<path style="clip-path:url(#SVGID_00000037678713789727513010000015364712814524941467_);fill:#ED3624;" d="M33.4,217.8
			c0,0.2-0.2,0.4-0.4,0.4c-0.2,0-0.4-0.2-0.4-0.4c0,0,0,0,0,0c0,0,0,0,0-0.1c0-0.9,0-3.2,0-5c0-0.5,0-0.9,0-1.3
			c0-0.2-0.1-0.4,0.1-0.7c0.1-0.1,0.2-0.2,0.4-0.2c0.2,0,0.2,0.1,0.3,0.1c0.1,0.1,0.1,0.2,0.2,0.3c0.4,0.7,0.8,2,1.3,3.2
			c0.5,1.1,1.1,2.2,1.6,2.8c0.1,0.2,0.2,0.3,0.3,0.3c0.1,0.1,0,0,0,0c0,0,0,0,0.1-0.1c0.1-0.1,0.2-0.3,0.4-0.5c0.4-0.7,0.6-1.9,1-3
			c0.6-1.9,1.7-3.2,3.7-4.2c0.2-0.1,0.4,0,0.6,0.2c0.1,0.2,0,0.4-0.2,0.6c-1.8,0.9-2.7,2-3.3,3.8c-0.3,1-0.6,2.2-1,3.1
			c-0.2,0.3-0.3,0.6-0.5,0.8c-0.2,0.2-0.5,0.4-0.8,0.3c-0.2,0-0.4-0.2-0.5-0.3c-0.1-0.1-0.2-0.3-0.3-0.4c-0.5-0.7-1.2-1.8-1.7-3
			c-0.6-1.3-1-2.6-1.3-3.2c0-0.1,0,0,0-0.1c0,0,0.1,0.1,0.1,0c0,0,0.2,0.1,0.2,0.1c-0.1,0,0.3-0.1,0.2,0c-0.1,0,0.2-0.1,0.1-0.1
			c0,0,0-0.1,0-0.1c0,0,0,0,0,0c0,0.1,0,0.1,0,0.2c0,0.3,0,0.7,0,1.2c0,1.8,0,4,0,5C33.4,217.7,33.4,217.7,33.4,217.8
			C33.4,217.8,33.4,217.8,33.4,217.8 M34,211.6c0,0.2-0.2,0.4-0.4,0.4c-0.2,0-0.4-0.2-0.4-0.4c0-0.2,0-0.3,0-0.4c0,0,0-0.1,0-0.1
			c0,0,0,0,0,0c0,0,0.1,0.1,0,0.1c0,0,0.1,0.1,0.1,0.1c0,0,0.2,0.1,0.1,0.1c0,0,0.2,0,0.1,0c-0.1,0,0.2-0.1,0.2-0.1
			c-0.1,0,0.1-0.1,0.1-0.1c0,0,0,0,0,0c0,0,0,0.1,0,0.1c-0.1,0.4-0.2,1.2-0.2,2.1c-0.1,0.8-0.1,1.7-0.1,2.5c0,0.6,0,1.1,0,1.5
			c0,0.2,0,0.3,0,0.3c0,0,0,0,0,0c0,0,0,0,0,0c0,0.2-0.2,0.4-0.4,0.4c-0.2,0-0.4-0.2-0.4-0.4c0,0,0,0,0,0c0-0.1,0-0.2,0-0.4
			c0-0.4,0-0.9,0-1.5c0-0.8,0.1-1.6,0.1-2.5c0.1-0.9,0.2-1.7,0.2-2.2c0-0.1,0-0.2,0.1-0.3c0-0.1,0-0.1,0.2-0.2
			c0.2-0.1,0.5,0,0.6,0.1C34,211,34,211,34,211.1C34,211.3,34,211.4,34,211.6"/>
		<path style="clip-path:url(#SVGID_00000037678713789727513010000015364712814524941467_);fill:#ED3624;" d="M215.1,10
			c0,0.2-0.2,0.4-0.4,0.4c-0.2,0-0.4-0.2-0.4-0.4c0,0,0,0,0,0c0-0.5,0-1.6,0-2.8c0-1.2,0-2.5,0.1-3.6c0-0.8,0.2-1.5,0.3-2.1
			c0-0.2,0.1-0.3,0.1-0.4c0-0.1,0.1-0.3,0.3-0.4c0.2-0.1,0.4-0.1,0.6,0c0.1,0.1,0.2,0.2,0.3,0.3c0.2,0.2,0.3,0.5,0.5,0.8
			c0.4,0.7,0.8,1.5,1.1,2.3c0.4,1,0.8,1.9,1.2,2.5c0.2,0.4,0.5,0.5,0.7,0.5c0.2,0,0.5-0.1,0.7-0.4c0.5-0.8,0.8-2.2,1.3-3.6
			c0.2-0.7,0.5-1.3,0.8-1.8c0.4-0.5,0.9-0.9,1.6-0.8c0.2,0,0.4,0.2,0.4,0.4c0,0.2-0.2,0.4-0.4,0.4c-0.4,0-0.6,0.2-0.9,0.5
			c-0.3,0.4-0.5,0.9-0.7,1.6c-0.4,1.3-0.7,2.8-1.4,3.8c-0.4,0.5-0.9,0.8-1.4,0.8c-0.6,0-1.1-0.3-1.4-0.9c-0.4-0.6-0.8-1.6-1.3-2.6
			c-0.3-0.8-0.7-1.6-1.1-2.2c-0.2-0.3-0.3-0.5-0.4-0.7c-0.1-0.1-0.1-0.1-0.1-0.1c0,0,0.2,0,0.1,0c-0.1,0,0.3-0.1,0.2-0.1
			c0,0,0.1-0.1,0.1-0.1c0,0,0,0,0,0c0,0,0,0,0,0.1c0,0.1,0,0.2-0.1,0.4c-0.1,0.5-0.2,1.1-0.2,1.9c-0.1,1.1-0.1,2.4-0.1,3.6
			C215.1,8.5,215.1,9.5,215.1,10C215.1,10,215.1,10,215.1,10 M216.3,2c0,0.2-0.1,0.4-0.3,0.5c-0.2,0-0.4-0.1-0.5-0.3
			c-0.1-0.3-0.1-0.6-0.2-0.7c0,0,0,0,0,0c0,0,0.1,0.1,0.1,0c0,0,0.2,0.1,0.1,0.1c-0.1,0,0.2,0,0.2,0c0,0,0.1-0.1,0.1-0.1
			c0,0,0,0,0,0c-0.3,0.6-0.5,2.9-0.7,5c-0.1,0.8-0.1,1.5-0.1,2.1c0,0.4,0,0.8,0,1c0,0.2,0,0.3,0,0.4c0,0,0,0.1,0,0.1c0,0,0,0,0,0
			c0,0.2-0.2,0.4-0.4,0.4c-0.2,0-0.4-0.2-0.4-0.4c0,0,0,0,0,0c0,0,0,0,0-0.1c0-0.1,0-0.2,0-0.4c0-0.2,0-0.6,0-1.1
			c0-0.6,0-1.4,0.1-2.2c0.1-1,0.2-2.1,0.3-3.1c0.1-0.9,0.2-1.7,0.4-2.2c0-0.1,0.1-0.1,0.1-0.2c0.1-0.1,0.2-0.2,0.4-0.1
			c0.2,0,0.3,0.1,0.3,0.2C216,0.9,216,1,216.1,1C216.2,1.3,216.3,1.6,216.3,2"/>
		<path style="clip-path:url(#SVGID_00000037678713789727513010000015364712814524941467_);fill:#ED3624;" d="M237.1,218
			c0,0.2-0.2,0.4-0.4,0.4s-0.4-0.2-0.4-0.4v0c0-0.3,0-1,0-1.8c0-0.9,0-1.9,0-3c0-1.1,0-2.2,0-3c0-0.4,0-0.6,0.1-0.9
			c0-0.1,0-0.2,0.2-0.3c0.1-0.1,0.2-0.1,0.4-0.1c0.1,0,0.2,0.1,0.3,0.2c0.3,0.3,0.3,0.8,0.5,1.4c0.1,0.6,0.3,1.4,0.5,2.2
			c0.6,2.2,1.5,4.2,2.3,4.9c0.2,0.2,0.4,0.3,0.4,0.3c0,0,0.1,0,0.2-0.1c0.1-0.1,0.2-0.3,0.3-0.5c0.3-0.7,0.4-1.9,0.6-3
			c0.4-1.8,1.1-3.2,2.9-4.4c0.2-0.1,0.4-0.1,0.6,0.1c0.1,0.2,0.1,0.4-0.1,0.6c-1.7,1.2-2.2,2.2-2.6,3.9c-0.2,1-0.2,2.3-0.6,3.2
			c-0.1,0.3-0.3,0.5-0.5,0.7c-0.2,0.2-0.5,0.4-0.8,0.4c-0.4,0-0.7-0.3-1-0.5c-0.5-0.5-1-1.2-1.4-2.1c-0.5-0.9-0.9-2-1.1-3.2
			c-0.4-1.6-0.7-3.2-0.8-3.3c0,0,0.1,0.1,0.1,0.1c0,0,0.2,0.1,0.1,0.1c-0.1,0,0.3,0,0.2,0c-0.1,0,0.2-0.1,0.1-0.1c0,0,0.1-0.1,0-0.1
			c0,0,0,0,0,0c0,0.1-0.1,0.4-0.1,0.7c0,0.8,0,1.8,0,3c0,1,0,2.1,0,3C237.1,217,237.1,217.7,237.1,218L237.1,218z M237.4,210.9
			c0.2,0,0.4,0.2,0.4,0.4c0,0.2-0.2,0.4-0.4,0.4c0,0,0,0,0,0.1c-0.1,0.1-0.1,0.3-0.2,0.5c-0.1,0.5-0.1,1.2-0.1,1.9
			c0,0.9,0,1.8,0,2.5c0,0.4,0,0.7,0,0.9v0.3v0.1c0,0.2-0.2,0.4-0.4,0.4s-0.4-0.2-0.4-0.4v-0.1v-0.3c0-0.2,0-0.5,0-0.9
			c0-0.8,0-1.7,0-2.5c0-0.7,0-1.4,0.2-2c0.1-0.3,0.1-0.6,0.3-0.8C236.9,211.2,237.1,211,237.4,210.9"/>
		<path style="clip-path:url(#SVGID_00000037678713789727513010000015364712814524941467_);fill:#00733B;" d="M42.9,6.2
			c-0.1,0.2-0.3,0.3-0.5,0.3c-0.2-0.1-0.3-0.3-0.3-0.5c0.1-0.3,0.1-0.8-0.2-1.3c-0.2-0.5-0.6-0.9-1.1-1.2c-0.5-0.3-1.3-0.3-2-0.1
			c-0.7,0.2-1.4,0.5-1.7,0.9c-0.3,0.4-0.4,0.6-0.2,1c0.3,0.7,1.7,1.4,2.9,2.2c0.9,0.6,1.5,1.5,1.7,2.5c0.1,0.4,0.1,0.8,0,1.2
			c-0.1,0.8-0.7,1.3-1.4,1.6c-0.7,0.3-1.6,0.5-2.4,0.7c-1.8,0.4-3.5,0.7-4,1.5c-0.1,0.2-0.4,0.2-0.6,0.1c-0.2-0.1-0.2-0.4-0.1-0.6
			c0.8-1.3,2.8-1.5,4.5-1.9c0.9-0.2,1.7-0.4,2.3-0.7c0.6-0.3,0.9-0.6,0.9-1c0-0.3,0-0.7,0-1c-0.1-0.8-0.6-1.4-1.3-2
			c-1.1-0.8-2.6-1.4-3.1-2.5c-0.3-0.6-0.2-1.3,0.3-1.9c0.5-0.6,1.3-1,2.2-1.2c0.9-0.2,1.8-0.2,2.6,0.2c0.7,0.4,1.2,0.9,1.5,1.5
			C43,4.9,43.1,5.6,42.9,6.2"/>
		<path style="clip-path:url(#SVGID_00000037678713789727513010000015364712814524941467_);fill:#00733B;" d="M16,211.2
			c-0.1,0.2-0.4,0.2-0.6,0.1c-0.2-0.1-0.2-0.4-0.1-0.6c0.4-0.6,0.5-1.7,0.1-2.6c-0.4-0.7-1.3-1.1-2-1c-0.4,0.1-0.8,0.4-0.9,1
			c-0.1,0.4,0.1,0.9,0.4,1.4c0.4,0.6,0.9,1.1,1.4,1.6c0.6,0.7,1.1,1.4,1.4,2.2c0.3,0.8,0.3,1.6-0.1,2.3c-0.7,1.3-2.4,2-4,2.3
			c-0.8,0.1-1.6,0.2-2.3,0c-0.3-0.1-0.6-0.2-0.9-0.4c-0.2-0.2-0.4-0.5-0.5-0.8c0-0.2,0.1-0.4,0.3-0.5c0.2,0,0.4,0.1,0.5,0.3
			c0,0.2,0.1,0.3,0.2,0.4c0.1,0.1,0.3,0.2,0.6,0.3c0.5,0.1,1.2,0.1,1.9,0c1.5-0.3,3-1,3.4-1.9c0.3-0.5,0.3-1.1,0.1-1.7
			c-0.2-0.6-0.7-1.3-1.2-1.9c-0.5-0.5-1.1-1.1-1.5-1.8c-0.4-0.6-0.7-1.3-0.6-2.1c0.2-0.8,0.8-1.4,1.6-1.6c1.1-0.2,2.3,0.4,2.9,1.4
			C16.7,208.9,16.6,210.3,16,211.2"/>
		<path style="clip-path:url(#SVGID_00000037678713789727513010000015364712814524941467_);fill:#00733B;" d="M221.7,210.9
			c0,0.2-0.2,0.4-0.4,0.4c-0.2,0-0.4-0.2-0.4-0.4c0.1-0.9-0.2-2.7-1-3.6c-0.3-0.4-0.8-0.6-1.4-0.6c-0.6,0-1.1,0.2-1.5,0.5
			c-0.2,0.2-0.3,0.4-0.2,0.7c0,0.3,0.1,0.7,0.3,1.1c0.4,0.9,1.1,1.9,1.5,3c0.3,0.8,0.3,1.5,0.4,2.2c0,0.6-0.2,1.3-0.6,1.8
			c-0.4,0.5-0.9,0.9-1.6,1.1c-2,0.5-4.3-0.4-5.4-0.1c-0.2,0.1-0.4,0-0.5-0.3s0.1-0.4,0.3-0.5c0.8-0.3,1.8-0.1,2.7,0
			c1,0.1,1.9,0.2,2.7,0c0.5-0.1,0.9-0.4,1.2-0.8c0.3-0.4,0.4-0.8,0.4-1.3c0-0.6-0.1-1.3-0.3-1.9c-0.4-1-1-2-1.4-3
			c-0.2-0.5-0.4-1-0.4-1.4c0-0.5,0.1-1,0.5-1.3c0.5-0.5,1.3-0.7,2-0.7c0.8,0,1.6,0.2,2.1,0.9C221.6,208,221.8,209.9,221.7,210.9"/>
		<path style="clip-path:url(#SVGID_00000037678713789727513010000015364712814524941467_);fill:#00733B;" d="M248.4,4.5
			c-0.1,0.2-0.3,0.3-0.5,0.2c-0.2-0.1-0.3-0.3-0.2-0.5c0.2-0.4,0.3-0.9,0.2-1.4c-0.1-0.4-0.3-0.8-0.7-1.1c-0.4-0.4-1-0.6-1.5-0.7
			c-0.9-0.2-1.9,0.4-2.4,1.1c-0.3,0.4-0.4,0.8-0.3,1.2c0,0.2,0.2,0.4,0.5,0.6c0.4,0.2,0.9,0.5,1.4,0.8c1.7,1,2.9,2.8,3.2,4.3
			c0.2,0.7,0.3,1.5-0.1,2.2c-0.2,0.4-0.7,0.7-1.2,0.9c-0.5,0.2-1,0.2-1.6,0.3c-1.2,0.1-2.5,0.1-3.9,0c-0.2,0-0.4-0.2-0.4-0.4
			c0-0.2,0.2-0.4,0.4-0.4c1.4,0.1,2.6,0.1,3.7,0c0.5,0,1-0.1,1.4-0.3c0.4-0.1,0.6-0.3,0.7-0.5c0.2-0.4,0.2-1,0-1.6
			c-0.3-1.3-1.4-2.9-2.9-3.8c-0.5-0.3-1-0.5-1.4-0.8c-0.4-0.3-0.8-0.7-0.9-1.2c-0.1-0.5,0.1-1.2,0.5-1.7c0.7-0.9,2-1.6,3.2-1.4
			c0.7,0.1,1.4,0.5,1.9,0.9c0.5,0.4,0.9,1,1,1.6C248.8,3.3,248.7,3.9,248.4,4.5"/>
		<path style="clip-path:url(#SVGID_00000037678713789727513010000015364712814524941467_);" d="M97.1,33c0,0.2-0.2,0.4-0.4,0.4
			c-0.2,0-0.4-0.2-0.4-0.4c0-0.3,0-0.4-0.2-0.5c-0.2-0.1-0.6-0.2-1.1-0.2c-0.5,0-1,0-1.4,0.2c-1.7,0.7-3.6,3.1-4.3,5.5
			c-0.3,1.2-0.4,2.4-0.1,3.3c0.4,1.1,1.3,2,2.5,2.5c1.2,0.5,2.6,0.6,3.8,0.3c2.9-0.7,5.7-4.1,6.6-6.9c0.3-0.9,0.4-1.6,0.2-2.3
			c-0.1-0.6-0.4-1.1-0.9-1.5c-0.5-0.4-1.2-0.5-2.1-0.5c-1,0-2.1,0.3-3.5,1c-0.2,0.1-0.4,0-0.5-0.2c-0.1-0.2,0-0.4,0.2-0.5
			c1.4-0.6,2.7-1,3.8-1c1.1,0,2,0.2,2.7,0.7c0.7,0.5,1.1,1.2,1.3,2c0.2,0.8,0.1,1.8-0.3,2.7c-0.5,1.5-1.5,3.1-2.8,4.5
			c-1.3,1.4-2.8,2.5-4.4,2.9c-1.4,0.4-3,0.2-4.3-0.3c-1.3-0.6-2.5-1.6-2.9-3c-0.4-1.2-0.3-2.5,0.1-3.8c0.7-2.6,2.7-5.2,4.7-6.1
			c0.6-0.3,1.2-0.2,1.7-0.2c0.6,0,1.1,0,1.6,0.3C96.9,32,97.2,32.5,97.1,33"/>
		<path style="clip-path:url(#SVGID_00000037678713789727513010000015364712814524941467_);" d="M125.1,31.2
			c0.2,0.1,0.2,0.4,0.1,0.6c-0.1,0.2-0.4,0.2-0.6,0.1c-0.6-0.4-1.3-0.5-2.1-0.3c-0.8,0.2-1.6,0.7-2.1,1.5c-0.7,0.9-1,2.1-1,3.4
			c0,0.8,0,1.5,0.2,2.2c0.3,0.8,1,1.4,1.8,1.9c0.9,0.5,2,0.7,3.2,0.8c1.3,0.1,2.7,0.1,3.9-0.1c2-0.3,3.3-1.1,4.2-2.6
			c0.7-1.2,1.2-2.7,1.2-4.2c0-0.8-0.1-1.6-0.5-2.2c-0.5-0.9-1.7-1.4-3.1-1.5c-1.5-0.1-3.3,0.3-4.8,1.3c-0.2,0.1-0.4,0.1-0.6-0.1
			c-0.1-0.2-0.1-0.4,0.1-0.6c1.7-1,3.6-1.5,5.3-1.4c1.6,0.1,3.1,0.7,3.8,1.9c0.4,0.8,0.6,1.7,0.6,2.6c0,1.7-0.5,3.4-1.3,4.7
			c-1,1.6-2.6,2.6-4.7,2.9c-1.3,0.2-2.8,0.3-4.1,0.1c-1.2-0.1-2.4-0.4-3.5-0.9c-1-0.5-1.9-1.3-2.2-2.3c-0.3-0.8-0.3-1.7-0.3-2.5
			c0-1.4,0.3-2.9,1.1-3.9c0.7-0.9,1.6-1.5,2.6-1.8C123.2,30.5,124.3,30.6,125.1,31.2"/>
		<path style="clip-path:url(#SVGID_00000037678713789727513010000015364712814524941467_);" d="M97,167.8c0.2,0.1,0.2,0.4,0,0.6
			c-0.1,0.2-0.4,0.2-0.6,0c-0.3-0.2-1-0.4-1.8-0.4c-0.8,0-1.8,0.3-2.6,0.8c-0.6,0.4-1.1,1-1.6,1.8c-0.8,1.5-1.2,3.7-1,5.6
			c0.1,1.3,0.5,2.6,1.2,3.5c0.9,1.3,2.6,2,4.4,2c1.9,0,4-0.6,5.9-1.6c2.6-1.4,4.8-3.7,5.8-6c0.5-1.1,0.6-2.2,0.4-3
			c-0.2-0.7-0.5-1.3-1.2-1.8c-1.2-0.9-3.4-1.3-5.6-1.1c-2.3,0.2-4.5,0.8-6,2.1c-0.2,0.1-0.4,0.1-0.6-0.1c-0.1-0.2-0.1-0.4,0.1-0.6
			c1.7-1.4,4.1-2.1,6.5-2.3c2.4-0.2,4.7,0.2,6.1,1.2c0.8,0.6,1.3,1.4,1.5,2.2c0.3,1.1,0.1,2.3-0.5,3.5c-1.1,2.5-3.4,5-6.1,6.4
			c-2,1.1-4.3,1.7-6.3,1.7c-2,0-4-0.8-5.1-2.3c-0.8-1.1-1.2-2.5-1.3-3.9c-0.2-2.1,0.2-4.4,1.1-6.1c0.5-0.9,1.1-1.6,1.8-2.1
			c1-0.7,2.1-1,3.1-1C95.6,167.2,96.4,167.4,97,167.8"/>
		<path style="clip-path:url(#SVGID_00000037678713789727513010000015364712814524941467_);" d="M121.5,166.9
			c0.2,0.1,0.3,0.3,0.2,0.5c-0.1,0.2-0.3,0.3-0.5,0.2c-0.3-0.1-0.7-0.1-1.3,0.2c-0.5,0.3-1.2,0.7-1.7,1.4c-0.9,1-1.7,2.5-2,4.1
			c-0.2,0.8-0.2,1.6-0.1,2.4c0.1,1.3,0.8,2.4,1.7,3c1,0.7,2.3,1.1,3.7,1.1c1,0,2,0.1,3-0.2c2.3-0.6,4.5-2.9,5.6-5.1
			c0.5-0.9,0.7-1.9,0.8-2.7c0-0.8-0.2-1.5-0.6-2.1c-0.7-0.9-2.1-1.4-3.7-1.6c-1.7-0.2-3.6,0-5.3,0.6c-0.2,0.1-0.4,0-0.5-0.3
			c-0.1-0.2,0-0.4,0.3-0.5c1.8-0.6,3.8-0.8,5.6-0.6c1.8,0.2,3.4,0.7,4.3,1.9c0.6,0.7,0.8,1.7,0.8,2.6c0,1-0.3,2-0.8,3
			c-1.2,2.4-3.5,4.8-6.1,5.5c-1.1,0.3-2.2,0.3-3.3,0.2c-1.6-0.1-3-0.5-4.2-1.3c-1.1-0.8-1.9-2.1-2.1-3.6c-0.1-0.8-0.1-1.8,0.1-2.7
			c0.4-1.7,1.2-3.3,2.2-4.5c0.6-0.7,1.3-1.2,2-1.6C120.2,166.7,120.9,166.6,121.5,166.9"/>
		<path style="clip-path:url(#SVGID_00000037678713789727513010000015364712814524941467_);" d="M304.7,174.9c0.1,0.2,0,0.4-0.2,0.5
			c-0.2,0.1-0.4,0-0.5-0.2c-0.3-0.5-0.7-0.9-1.6-1c-0.7-0.1-1.5-0.1-2.5,0.2c-1,0.3-2,1.1-2.9,2.1c-1.2,1.4-1.9,3.4-2.1,5.2
			c-0.1,1.2,0.1,2.3,0.6,3.1c0.4,0.6,1,1.1,1.9,1.4c0.9,0.3,2,0.5,3.1,0.6c1.2,0.1,2.4,0.1,3.5,0c2.9-0.3,4.7-1.5,5.8-3.2
			c0.7-1,1.2-2.4,1.3-3.7c0.1-0.9,0.2-1.7,0-2.4c-0.1-0.6-0.5-1.1-0.9-1.5c-0.5-0.4-1.1-0.7-1.7-0.8c-1.3-0.3-2.7,0-3.4,0.7
			c-0.2,0.2-0.4,0.2-0.6,0c-0.2-0.2-0.2-0.4,0-0.6c1-1,2.7-1.3,4.2-0.9c0.8,0.2,1.5,0.5,2.1,1c0.6,0.5,1,1.1,1.2,1.9
			c0.2,0.9,0.1,1.8,0,2.6c-0.2,1.5-0.7,2.9-1.5,4.1c-1.3,1.9-3.4,3.3-6.4,3.6c-1.2,0.1-2.4,0.1-3.6,0c-1.2-0.1-2.3-0.3-3.3-0.6
			c-1-0.3-1.8-0.9-2.3-1.7c-0.6-1-0.8-2.3-0.7-3.6c0.2-2,0.9-4.2,2.3-5.7c1-1.1,2.1-1.9,3.3-2.3c1.1-0.4,2.1-0.4,2.8-0.3
			C303.6,173.6,304.3,174.2,304.7,174.9"/>
		<path style="clip-path:url(#SVGID_00000037678713789727513010000015364712814524941467_);" d="M321.1,175.6
			c0.1,0.2,0.1,0.4-0.1,0.6c-0.2,0.1-0.4,0.1-0.6-0.1c-0.2-0.3-0.5-0.5-1-0.6c-0.5-0.1-1.2,0-1.9,0.3c-0.9,0.4-1.9,1.2-2.8,2.3
			c-1.4,1.9-2.2,4.7-2.2,7c0,2.1,0.8,3.5,2,4.3c0.7,0.4,1.5,0.6,2.4,0.8c1,0.2,1.9,0.3,2.9,0.1c2-0.5,4.3-2.5,5.9-4.8
			c0.8-1.2,1.4-2.5,1.6-3.7c0.1-0.8,0.2-1.5,0-2.2c-0.3-1.2-1.5-2.1-2.9-2.6c-1.3-0.5-2.8-0.7-3.5-0.5c-0.2,0.1-0.4-0.1-0.5-0.3
			c-0.1-0.2,0.1-0.4,0.3-0.5c1-0.3,2.5-0.1,4,0.5c1.5,0.6,2.9,1.6,3.3,3.2c0.2,0.8,0.2,1.7,0,2.5c-0.2,1.3-0.8,2.7-1.7,4
			c-1.7,2.4-4.1,4.5-6.4,5.1c-1.1,0.3-2.2,0.1-3.2-0.1c-0.9-0.1-1.9-0.4-2.7-0.9c-1.5-0.9-2.4-2.7-2.4-5c0-2.5,0.9-5.5,2.4-7.5
			c1-1.3,2.1-2.1,3.1-2.6c0.9-0.4,1.7-0.5,2.4-0.4C320.3,174.7,320.8,175.1,321.1,175.6"/>
		<path style="clip-path:url(#SVGID_00000037678713789727513010000015364712814524941467_);" d="M288.3,30.8c0.2,0,0.4,0.2,0.4,0.4
			c0,0.2-0.2,0.4-0.4,0.4c-1.3,0-2.5,0.5-3.4,1.3c-0.9,0.9-1.7,2.1-2.1,3.5c-0.5,1.5-0.7,3.1-0.4,4.6c0.3,1.2,0.9,2.3,1.8,3.1
			c1.2,1,3.1,1.4,5.1,1.3c1.2,0,2.4-0.1,3.5-0.4c3-0.8,5-3.3,6.4-5.4c0.7-1.2,1.2-2.3,1.3-3.4c0.1-0.7,0.2-1.4,0-1.9
			c-0.2-0.6-0.7-1.1-1.4-1.6c-0.7-0.5-1.7-0.8-2.7-1.1c-2.1-0.5-4.3-0.6-5.6-0.1c-0.2,0.1-0.4-0.1-0.5-0.3c-0.1-0.2,0.1-0.4,0.3-0.5
			c1.5-0.5,3.9-0.4,6,0.1c1.1,0.3,2.1,0.6,3,1.2c0.8,0.5,1.5,1.2,1.7,2c0.2,0.8,0.1,1.5,0,2.2c-0.1,1.3-0.7,2.5-1.4,3.7
			c-0.7,1.1-1.5,2.3-2.7,3.4c-1.1,1.1-2.5,2-4.2,2.4c-1.2,0.3-2.4,0.4-3.7,0.5c-2.1,0-4.2-0.3-5.7-1.5c-1-0.9-1.8-2.1-2.1-3.5
			c-0.4-1.6-0.1-3.4,0.4-5c0.5-1.5,1.3-2.9,2.3-3.9C285.3,31.4,286.7,30.8,288.3,30.8"/>
		<path style="clip-path:url(#SVGID_00000037678713789727513010000015364712814524941467_);" d="M314,30.3c0.2,0,0.4,0.3,0.3,0.5
			c0,0.2-0.3,0.4-0.5,0.3c-0.7-0.2-1.7-0.4-2.9,0.1c-1.9,0.7-4.1,3.3-5.1,5.9c-0.6,1.6-0.7,3.1-0.4,4.4c0.3,1.3,1.1,2.4,2.1,3.1
			c0.9,0.6,2,0.9,3.4,0.9c1.2,0,2.4-0.2,3.7-0.6c1.6-0.5,3-1.5,4.3-2.6c1.3-1.1,2.6-2.5,3.4-3.8c0.4-0.8,0.7-1.5,0.7-2.3
			c0-0.6,0-1.1-0.2-1.6c-0.5-1.1-2.2-1.9-3.8-2.4c-1.6-0.4-3.2-0.5-3.3-0.5c-0.2,0-0.4-0.1-0.5-0.3c0-0.2,0.1-0.4,0.3-0.5
			c0.3-0.1,0.7,0,1.3,0.1c0.7,0.1,1.5,0.2,2.4,0.5c1.8,0.5,3.7,1.3,4.4,2.8c0.3,0.6,0.3,1.3,0.3,2c0,0.9-0.3,1.8-0.8,2.6
			c-0.9,1.5-2.2,2.9-3.6,4.1c-1.4,1.2-2.9,2.2-4.6,2.8c-1.3,0.4-2.7,0.7-3.9,0.6c-1.5,0-2.8-0.4-3.9-1.1c-1.2-0.8-2.1-2.1-2.4-3.6
			c-0.4-1.5-0.2-3.2,0.5-4.9c1.1-2.8,3.4-5.5,5.6-6.3C312.1,29.9,313.3,30.1,314,30.3"/>
		<path style="clip-path:url(#SVGID_00000037678713789727513010000015364712814524941467_);fill:#ED3624;" d="M18.8,86.1
			c0-0.2,0.2-0.4,0.4-0.4c0.2,0,0.4,0.2,0.4,0.4v34.8c0,0.2-0.2,0.4-0.4,0.4c-0.2,0-0.4-0.2-0.4-0.4V86.1z"/>
		<path style="clip-path:url(#SVGID_00000037678713789727513010000015364712814524941467_);fill:#ED3624;" d="M17.7,89.7
			c-0.1,0.2-0.4,0.3-0.6,0.2c-0.2-0.1-0.3-0.4-0.2-0.6c0,0,0,0,0,0c0,0,0,0,0-0.1c0.1-0.3,0.3-0.7,0.5-1.2c0.4-0.9,0.7-1.8,1.1-2.6
			c0.2-0.3,0.3-0.7,0.6-1c0.2-0.2,0.5-0.3,0.7-0.3c0.3,0,0.5,0.1,0.7,0.3c0.5,0.5,0.3,1.2,0.4,1.8c0.1,0.8,0.2,1.5,0.3,2.1
			c0.1,0.3,0.2,0.5,0.3,0.7c0.1,0.1,0.2,0.2,0.2,0.2c0.2,0.1,0.3,0.3,0.2,0.5c-0.1,0.2-0.3,0.3-0.5,0.2c-0.3-0.1-0.5-0.3-0.6-0.6
			c-0.1-0.2-0.3-0.5-0.3-0.9c-0.2-0.7-0.3-1.4-0.3-2.3c-0.1-0.6-0.1-1.3-0.2-1.3c0,0-0.1,0-0.1,0c0,0-0.1,0-0.2,0.1
			c-0.1,0.1-0.3,0.4-0.4,0.8c-0.4,0.7-0.7,1.7-1.1,2.6c-0.2,0.5-0.4,0.9-0.5,1.2C17.8,89.6,17.8,89.6,17.7,89.7
			C17.7,89.7,17.7,89.7,17.7,89.7 M20.3,85.4c0.2,0.1,0.3,0.3,0.2,0.5c-0.1,0.2-0.3,0.3-0.5,0.2c-0.2-0.1-0.3-0.1-0.4,0.1
			c-0.2,0.2-0.4,0.5-0.6,0.9c-0.2,0.4-0.4,0.9-0.6,1.3c-0.2,0.4-0.3,0.7-0.4,1c-0.1,0.1-0.1,0.3-0.1,0.3c0,0,0,0,0,0c0,0,0,0,0,0
			c-0.1,0.2-0.3,0.3-0.5,0.3s-0.3-0.3-0.3-0.5c0,0,0,0,0-0.1c0-0.1,0.1-0.2,0.1-0.3c0.1-0.3,0.3-0.6,0.4-1c0.2-0.4,0.4-0.9,0.7-1.3
			c0.2-0.4,0.5-0.8,0.8-1.1C19.3,85.3,19.9,85.2,20.3,85.4"/>
		<path style="clip-path:url(#SVGID_00000037678713789727513010000015364712814524941467_);fill:#ED3624;" d="M34.2,85.6
			c0-0.2,0.2-0.4,0.4-0.4c0.2,0,0.4,0.2,0.4,0.4v34.5c0,0.2-0.2,0.4-0.4,0.4c-0.2,0-0.4-0.2-0.4-0.4V85.6z"/>
		<path style="clip-path:url(#SVGID_00000037678713789727513010000015364712814524941467_);fill:#ED3624;" d="M31.6,118.4
			c0-0.2,0.2-0.4,0.4-0.4c0.2,0,0.4,0.2,0.4,0.4c0,0.3,0.5,1.4,1,2.5c0.3,0.7,0.5,1.4,0.7,1.9c0.1,0.3,0.2,0.5,0.2,0.5
			c0.1,0.1,0.1,0.1,0.1,0.1c0,0,0,0,0,0c0,0,0.1,0,0.2-0.2c0.1-0.1,0.2-0.3,0.4-0.6c0.3-0.5,0.5-1.2,0.8-1.9
			c0.2-0.7,0.5-1.4,0.7-2.1c0.2-0.6,0.4-1.1,0.7-1.4c0.1-0.2,0.4-0.2,0.6,0c0.2,0.1,0.2,0.4,0,0.6c-0.2,0.3-0.7,1.8-1.2,3.2
			c-0.3,0.7-0.5,1.4-0.8,2c-0.1,0.3-0.3,0.5-0.5,0.7c-0.2,0.2-0.4,0.4-0.7,0.4c-0.2,0-0.4,0-0.5-0.1c-0.1-0.1-0.2-0.2-0.3-0.3
			c-0.2-0.2-0.2-0.5-0.3-0.7c-0.2-0.5-0.4-1.2-0.7-1.9c-0.2-0.5-0.5-1.1-0.7-1.6C31.8,119.2,31.6,118.8,31.6,118.4"/>
	</g>
</g>
</svg>
