<svg id="Ebene_1" data-name="Ebene 1" xmlns="http://www.w3.org/2000/svg" xmlns:xlink="http://www.w3.org/1999/xlink" viewBox="0 0 372.6 246.4"><defs><style>.cls-1{fill:none;}.cls-2{opacity:0;}.cls-3{clip-path:url(#clip-path);}.cls-4{fill:#ed3624;}.cls-5{fill:#1749b3;}</style><clipPath id="clip-path"><rect class="cls-1" x="-23.7" y="-15.7" width="419.5" height="297.64"/></clipPath></defs><g class="cls-2"><path d="M209.1,15.9V14.2h1.8v1.7Zm0,11.4V17.7h1.8v9.6Z"/></g><g class="cls-2"><path d="M246,107.3V97.9l-7.5-13.1h3.7L248,94.9l6.3-10.1h2.9l-8,13v9.5Z"/></g><g class="cls-2"><path d="M212.4,100.7,211,97h-5.5l-1.5,3.7h-1.7l5.2-13.1h1.8l5.1,13.1Zm-1.9-5L208.2,90,206,95.7Z"/></g><g class="cls-2"><path d="M247.4,118.3V105.2h1.9v13.1Z"/></g><g class="cls-2"><path d="M9.3,132.4v-13h1.8v6.4l5.2-6.4h1.9l-5.1,6.2,6,6.8H16.8l-5.7-6.6v6.6Z"/></g><g class="cls-2"><path d="M178.5,155.6a31.8,31.8,0,0,1-7.5-1.3v-4.1c3.3,1.5,6,2.3,8.1,2.3a5.6,5.6,0,0,0,3.9-1.3,4,4,0,0,0,1.5-3.3,4.6,4.6,0,0,0-1-2.9,11.8,11.8,0,0,0-3.6-2.7l-2-1.2a20.4,20.4,0,0,1-5.2-3.9,6.9,6.9,0,0,1-1.5-4.4,7.1,7.1,0,0,1,2.4-5.5,8.7,8.7,0,0,1,6.2-2.2,26.7,26.7,0,0,1,7.1,1.1V130a21.7,21.7,0,0,0-6.9-1.8,5.6,5.6,0,0,0-3.5,1.1,3.7,3.7,0,0,0-1.4,2.9,4.2,4.2,0,0,0,1,2.6,18.4,18.4,0,0,0,3.8,2.6l2,1.2a19.5,19.5,0,0,1,5.3,4,7.3,7.3,0,0,1,1.5,4.6,7.7,7.7,0,0,1-2.8,6.1A11.5,11.5,0,0,1,178.5,155.6Z"/></g><g class="cls-2"><path d="M204.5,155.3a6.1,6.1,0,0,1-4.6-1.6,6.6,6.6,0,0,1-1.7-4.7V136.5h-2.6v-2.9h2.6v-3.9l3.9-.4v4.3h5.5v2.9h-5.5v11.8c0,2.7,1.2,4.1,3.6,4.1a7.2,7.2,0,0,0,1.9-.2v2.6A9.9,9.9,0,0,1,204.5,155.3Z"/></g><g class="cls-2"><path d="M227.1,154.2a26.5,26.5,0,0,1-6.6,1.1,10,10,0,0,1-7.7-3.1,11.3,11.3,0,0,1-3-8.1,11.9,11.9,0,0,1,2.6-7.9,8.4,8.4,0,0,1,6.7-3.1,7.2,7.2,0,0,1,6,2.7q2.1,2.7,2.1,7.8v1.2H213.8c.5,5.1,3,7.6,7.4,7.6a16.6,16.6,0,0,0,5.9-1.3Zm-13.2-12.3h9.4c0-3.9-1.5-5.9-4.4-5.9S214.3,138,213.9,141.9Z"/></g><g class="cls-2"><path d="M207.4,167.6V154.4h1.7v5.8a3,3,0,0,1,3-1.9,3.2,3.2,0,0,1,2.6,1.2,5.3,5.3,0,0,1,.9,3.2,6.2,6.2,0,0,1-1.1,3.7,3.3,3.3,0,0,1-2.8,1.3,3.4,3.4,0,0,1-2.6-1.2l-.2,1.1Zm1.7-2.2a3.7,3.7,0,0,0,2.4,1.1c1.6,0,2.3-1.2,2.3-3.6s-.7-3.2-2.1-3.2a3.4,3.4,0,0,0-2.6,1.5Z"/></g><g class="cls-2"><path d="M270.2,221.5a8.5,8.5,0,0,1-2.4-.4v-1.4a5.6,5.6,0,0,0,2.5.7,1.5,1.5,0,0,0,1-.3,1,1,0,0,0,.4-.9c0-.5-.3-.9-1.1-1.2l-.9-.3c-1.2-.6-1.8-1.3-1.8-2.3a1.9,1.9,0,0,1,.7-1.6,3.2,3.2,0,0,1,2-.6,5.6,5.6,0,0,1,1.7.2h.3v1.2l-1.9-.3c-1,0-1.4.3-1.4,1s.3.8,1,1.1l.7.3a5,5,0,0,1,1.7,1,2.4,2.4,0,0,1,.5,1.4,2.1,2.1,0,0,1-.8,1.7A3.2,3.2,0,0,1,270.2,221.5Z"/></g><g class="cls-2"><path d="M130.3,245.2l-4.9-13.1h1.8l4.1,10.7,3.9-10.7h1.6l-4.7,13.1Z"/></g><g class="cls-3"><path d="M35.6,117.7a.4.4,0,0,1,0-.8H67.3a.4.4,0,1,1,0,.8Z"/><path d="M41.4,127.4a.4.4,0,0,1-.4-.4.4.4,0,0,1,.4-.4H58.2a.4.4,0,0,1,.4.4.4.4,0,0,1-.4.4Z"/><path d="M371.8,117.3a11.7,11.7,0,0,0-1.5-5.6,11.2,11.2,0,0,0-9.7-5.6,11.4,11.4,0,0,0-5.6,1.5,11.2,11.2,0,0,0-5.6,9.7,12.1,12.1,0,0,0,1.5,5.7,11.3,11.3,0,0,0,9.7,5.5,10.4,10.4,0,0,0,5.6-1.5,11.1,11.1,0,0,0,5.6-9.7m.8,0a12.2,12.2,0,0,1-5.9,10.4,12.6,12.6,0,0,1-6.1,1.6,12.2,12.2,0,0,1-10.4-5.9,12.6,12.6,0,0,1-1.6-6.1,12.2,12.2,0,0,1,5.9-10.4,12.6,12.6,0,0,1,6.1-1.6,12.1,12.1,0,0,1,10.4,6,11.9,11.9,0,0,1,1.6,6"/><path d="M213.9,22.3a.3.3,0,0,1,.3-.3.3.3,0,0,1,.3.3V47.1c0,.1-.2.2-.3.2s-.3-.1-.3-.2Z"/><path d="M205.8,22.3a.3.3,0,0,1,.3-.3.3.3,0,0,1,.3.3V47.1c0,.1-.1.2-.3.2s-.3-.1-.3-.2Z"/><path d="M214.2,46.8a.3.3,0,0,1,.3.3c0,.1-.2.2-.3.2h-8.1c-.1,0-.3-.1-.3-.2a.3.3,0,0,1,.3-.3Z"/><path d="M205.9,39.1c0-.1.2-.2.3-.2s.2.2.2.4l-.3.2h.1a.5.5,0,0,1-.2.4c-.1,0-.3-.1-.3-.2s-.1-.2-.1-.4h.4c0-.1-.1,0-.1,0h0"/><path d="M214.2,22a.3.3,0,0,1,.3.3l-.3.2h-8.1l-.3-.2a.3.3,0,0,1,.3-.3Z"/><path d="M51.9,117.3a.5.5,0,0,1-.5.4.4.4,0,0,1-.4-.4V101.5a.4.4,0,0,1,.4-.4c.3,0,.5.1.5.4Z"/><path d="M51,127a.4.4,0,0,1,.4-.4c.3,0,.5.1.5.4v16.6a.5.5,0,0,1-.5.4.4.4,0,0,1-.4-.4Z"/><path d="M205.9,102.5c0-.2.2-.3.3-.2s.2.2.2.4h-.3c-.1,0,.1-.2.1-.1h0c0,.1-.1.3-.2.3a.2.2,0,0,1-.3-.1.8.8,0,0,1-.1-.4l.2-.2h.1"/><path d="M23.2,121a10.4,10.4,0,0,0-1.5-5.6,11,11,0,0,0-9.7-5.6,11.7,11.7,0,0,0-5.6,1.5,11.2,11.2,0,0,0-4.1,15.3,11.2,11.2,0,0,0,9.7,5.6,11,11,0,0,0,5.7-1.5,11.3,11.3,0,0,0,5.5-9.7m.8,0a12.2,12.2,0,0,1-5.9,10.4A12.6,12.6,0,0,1,12,133a12.2,12.2,0,0,1-10.4-5.9A12.6,12.6,0,0,1,0,121a12.1,12.1,0,0,1,6-10.4,11.9,11.9,0,0,1,6-1.6,12.1,12.1,0,0,1,10.4,5.9A11.6,11.6,0,0,1,24,121"/><path d="M221.3,141.3a11.2,11.2,0,0,0-16.8-9.7,11.4,11.4,0,0,0-5.6,9.7,10.8,10.8,0,0,0,1.6,5.6,10.9,10.9,0,0,0,9.6,5.6,12.1,12.1,0,0,0,5.7-1.5,11.3,11.3,0,0,0,5.5-9.7m.9,0a12.1,12.1,0,0,1-6,10.4,12.3,12.3,0,0,1-6.1,1.6,11.8,11.8,0,0,1-10.3-6,11.1,11.1,0,0,1-1.7-6,12.1,12.1,0,0,1,6-10.4,12.2,12.2,0,0,1,6-1.6,12.1,12.1,0,0,1,10.4,5.9,11.7,11.7,0,0,1,1.7,6.1"/><path d="M259.6,140.7a10.7,10.7,0,0,0-1.5-5.6,11.1,11.1,0,0,0-9.7-5.6,11.7,11.7,0,0,0-5.6,1.5,11.2,11.2,0,0,0-5.6,9.7,12.1,12.1,0,0,0,1.5,5.7,11.3,11.3,0,0,0,9.7,5.5,11,11,0,0,0,5.7-1.5,11.2,11.2,0,0,0,5.5-9.7m.8,0a12.1,12.1,0,0,1-5.9,10.4,12.6,12.6,0,0,1-6.1,1.6,12.2,12.2,0,0,1-10.4-5.9,12.6,12.6,0,0,1-1.6-6.1,12.1,12.1,0,0,1,6-10.4,11.9,11.9,0,0,1,6-1.6,12.1,12.1,0,0,1,10.4,6,11.9,11.9,0,0,1,1.6,6"/><path d="M55.1,147.5a3.5,3.5,0,0,0-7,0,3.9,3.9,0,0,0,.4,1.8,3.7,3.7,0,0,0,3.1,1.7,3.7,3.7,0,0,0,3.5-3.5m.8,0a4.2,4.2,0,0,1-2.2,3.7,3.7,3.7,0,0,1-2.1.6,4.6,4.6,0,0,1-3.8-2.1,5.5,5.5,0,0,1-.6-2.2,4.2,4.2,0,0,1,2.2-3.7,4,4,0,0,1,2.2-.6,4.1,4.1,0,0,1,3.7,2.1,4,4,0,0,1,.6,2.2"/><path d="M54.8,97.6a3.4,3.4,0,0,0-.4-1.8,3.7,3.7,0,0,0-3.1-1.7,3.3,3.3,0,0,0-1.7.4,3.5,3.5,0,0,0-1.8,3.1,3.4,3.4,0,0,0,.5,1.7,3.5,3.5,0,0,0,3,1.8,3.5,3.5,0,0,0,3.5-3.5m.9,0a4.3,4.3,0,0,1-2.2,3.7,4,4,0,0,1-2.2.6,4.5,4.5,0,0,1-3.7-2.2,3.7,3.7,0,0,1-.6-2.1,4.5,4.5,0,0,1,2.2-3.8,4.7,4.7,0,0,1,2.1-.6,4.5,4.5,0,0,1,3.8,2.2,4,4,0,0,1,.6,2.2"/><path d="M213.6,12.7a3.4,3.4,0,0,0-.4-1.8,3.7,3.7,0,0,0-3.1-1.7,3.4,3.4,0,0,0-3,5.2,3.5,3.5,0,0,0,3,1.8,3.5,3.5,0,0,0,3.5-3.5m.9,0a4.2,4.2,0,0,1-2.2,3.7,4,4,0,0,1-2.2.6,4.5,4.5,0,0,1-3.7-2.1,4.3,4.3,0,0,1-.6-2.2A4.5,4.5,0,0,1,208,8.9a4.6,4.6,0,0,1,2.1-.5,4.4,4.4,0,0,1,3.8,2.1,4,4,0,0,1,.6,2.2"/><path d="M213.6,121a3.9,3.9,0,0,0-.4-1.8,3.7,3.7,0,0,0-3.1-1.7,3.7,3.7,0,0,0-3.5,3.5,3.7,3.7,0,0,0,.5,1.8,3.6,3.6,0,0,0,3,1.7,3.5,3.5,0,0,0,3.5-3.5m.9,0a4.2,4.2,0,0,1-2.2,3.7,4,4,0,0,1-2.2.6,4.3,4.3,0,0,1-2.1-8,3.7,3.7,0,0,1,2.1-.6,4.4,4.4,0,0,1,3.8,2.1,4.3,4.3,0,0,1,.6,2.2"/><path d="M213.6,160.2a3.4,3.4,0,0,0-.4-1.8,3.7,3.7,0,0,0-3.1-1.7,3.3,3.3,0,0,0-1.7.4,3.7,3.7,0,0,0-1.8,3.1,3.4,3.4,0,0,0,.5,1.7,3.5,3.5,0,0,0,3,1.8,3.5,3.5,0,0,0,3.5-3.5m.9,0a4.2,4.2,0,0,1-2.2,3.7,4,4,0,0,1-2.2.6,4.3,4.3,0,0,1-3.7-2.2,3.7,3.7,0,0,1-.6-2.1,4.5,4.5,0,0,1,2.2-3.8,4.7,4.7,0,0,1,2.1-.6,4.5,4.5,0,0,1,3.8,2.2,4,4,0,0,1,.6,2.2"/><path d="M211.1,17.1a.4.4,0,0,1-.4.4c-.2.1-.4-.1-.5-.3a.6.6,0,0,0-.1-.4c0-.1.1.1.1,0h.1c-.1,0,.2.1.1.1s.3-.1.2,0h.2c-.1,0,0-.1,0-.1h0v.3c-.1.3-.1.6-.2,1a13.3,13.3,0,0,1-.3,2.1v1.1a.7.7,0,0,0,.1.5v.3h0s-.1-.1,0-.1l-.6.6c-.2-.2-.2-.3-.2-.4V22a.4.4,0,0,0,.1-.3V19.8c0-.4-.1-.7-.1-1s-.1-.7-.1-1v-.2a.4.4,0,0,1,.3-.2.4.4,0,0,1,.5.1l.4.6c.1.2.1.5-.1.6a.5.5,0,0,1-.6-.1,1.4,1.4,0,0,0-.3-.5h.1s.3,0,.2.1l.2-.2c0,.1.1-.1.1-.1s0-.1,0-.1h0a7.7,7.7,0,0,1,.1,1,3.1,3.1,0,0,1,.1,1v2.3h-.1s-.1-.1,0-.1a.6.6,0,0,1,0,.6c-.2.2-.5.2-.6,0l-.2-.3V22a1.5,1.5,0,0,1-.1-.7,4.8,4.8,0,0,1,0-1.2,16.2,16.2,0,0,0,.3-2c.1-.4.1-.9.2-1.2a.6.6,0,0,1,.1-.4.3.3,0,0,1,.1-.2.4.4,0,0,1,.5-.1l.2.2a6.4,6.4,0,0,0,.2.7"/><path d="M52.1,93.7a.4.4,0,1,1-.8,0v-81a.4.4,0,0,1,.8,0Z"/><path d="M51.4,13.1a.4.4,0,0,1,0-.8h63.4a.4.4,0,1,1,0,.8Z"/><path class="cls-4" d="M214.1,13.5a.9.9,0,0,1-.9-.9.9.9,0,0,1,.9-.8h34.4a.9.9,0,0,1,.8.8.9.9,0,0,1-.8.9Z"/><path d="M50.8,151.4a.4.4,0,0,1,.4-.4.5.5,0,0,1,.5.4v61a.5.5,0,0,1-.5.4.4.4,0,0,1-.4-.4Z"/><path d="M51.4,212.8a.4.4,0,0,1-.4-.4.5.5,0,0,1,.4-.5H209.8a.5.5,0,0,1,.5.5.5.5,0,0,1-.5.4Z"/><path d="M209.4,152.3a.4.4,0,0,1,.4-.4c.3,0,.4.1.5.4s-.1,1.5-.1,2.2-.1.8-.1,1v.2h.2c.2.1.4.3.3.5a.3.3,0,0,1-.5.3l-.6-.3c-.2-.2-.2-.4-.3-.6a3.7,3.7,0,0,1,.1-1.1,16.1,16.1,0,0,0,0-2.2"/><path d="M209.8,125.5a.5.5,0,0,1,.4-.5.4.4,0,0,1,.4.4,7.4,7.4,0,0,1-.3,2.6c-.1.8-.3.8.1,1.4a.4.4,0,0,1-.1.6c-.2.1-.4.1-.5-.1a1.5,1.5,0,0,1-.4-1.2c0-.3.1-.5.1-.8a7.2,7.2,0,0,0,.3-2.4"/><path d="M35.6,118.1a.7.7,0,0,1-.8-.8.8.8,0,0,1,.8-.8H67.3a.9.9,0,0,1,.8.8.8.8,0,0,1-.8.8Z"/><path d="M41.4,127.8a.8.8,0,0,1-.8-.8.8.8,0,0,1,.8-.9H58.2a.8.8,0,0,1,.8.9.8.8,0,0,1-.8.8Z"/><path d="M11.5,132.6a.9.9,0,0,1,.8-.8.8.8,0,0,1,.8.8v14.6a.8.8,0,0,1-.8.8.9.9,0,0,1-.8-.8Z"/><path d="M12,148a.9.9,0,0,1-.8-.8.9.9,0,0,1,.8-.9H47.7a.9.9,0,0,1,.8.9.9.9,0,0,1-.8.8Z"/><path d="M214.1,160.9a.8.8,0,0,1-.9-.8.9.9,0,0,1,.9-.8h35.3a.9.9,0,0,1,.8.8.8.8,0,0,1-.8.8Z"/><path d="M248.4,152.3a.9.9,0,0,1,.8-.8.8.8,0,0,1,.8.8v7.8a.7.7,0,0,1-.8.8.8.8,0,0,1-.8-.8Z"/><path d="M209.4,22.3a.4.4,0,0,1,.4-.4c.3,0,.5.1.5.4V47.1a.5.5,0,0,1-.5.4.4.4,0,0,1-.4-.4Z"/><path class="cls-4" d="M12.3,97.7a.8.8,0,0,1-.8-.8.7.7,0,0,1,.8-.8H47.6a.8.8,0,0,1,.8.8.9.9,0,0,1-.8.8Z"/><path class="cls-4" d="M13.1,109.4a.8.8,0,1,1-1.6,0V96.9a.7.7,0,0,1,.8-.8.7.7,0,0,1,.8.8Z"/><path class="cls-4" d="M52.1,96.8a.8.8,0,0,1-1.2.2.9.9,0,0,1-.2-1.1h0v.2c0-.1.1.4,0,.3s.2.3.2.2.1.1.1.1h-.6v.2c0,.2-.1.5-.1.8a1,1,0,0,1,.1.4h1.8c.1,0,.3-.2.5-.6a4.2,4.2,0,0,0,.4-1.2v-.5s.1.2.1.1h-.2c-.2-.1-.5,0-.9.1a4.1,4.1,0,0,0-1,.9,6.6,6.6,0,0,0-.7,1.5v.4l-.2-.2h.3s-.1,0,0-.1l.3-.5v-.2h.1v.3h0l-.2-.2c.1,0,0-.1,0-.1s0,.1.1.1h-.2a.4.4,0,0,0,.3-.4V97c0-.1.1.2.1.1s0,.1,0,.1h-.1a1.1,1.1,0,0,0-.4.5v.6h0c0,.1-.1-.2-.1-.1l-.2-.2c.1,0,0-.1,0-.1h-.1c.1,0,.2-.3.4-.5h0s.1.2,0,.1.2.2.1.2.3.2.2.2h.7v.2c-.1.1,0-.2,0-.2v.6a.9.9,0,0,1-1,.7.8.8,0,0,1-.6-1c0-.1-.2-.2.1-.8a1.8,1.8,0,0,1,.5-.7l.3-.2.4-.2h.6a2.1,2.1,0,0,1,.4.6c0,.2.1.3.1.5a4.1,4.1,0,0,1-.3.8c-.2.3-.4,1-1.2,1.2h-.9a.9.9,0,0,1-.8-.6c-.3-.5-.1-.8-.2-.8a2,2,0,0,1,.2-1,1.9,1.9,0,0,1,1.6-1.5,1.4,1.4,0,0,1,1.1.1,1.2,1.2,0,0,1,.8,1,2,2,0,0,1-.2,1.3l-.6.8a1.4,1.4,0,0,1-1.3.5l-.5-.2a1,1,0,0,1-.7-.7,2.6,2.6,0,0,1,0-.9,2.4,2.4,0,0,1,.2-.8,1.4,1.4,0,0,1,.8-.7,2.2,2.2,0,0,1,1.1.1,1.7,1.7,0,0,1,1,1.2,2,2,0,0,1-.1,1.1,1.9,1.9,0,0,1-.5,1,1.2,1.2,0,0,1-1.1.7,1.7,1.7,0,0,1-1,0,1.6,1.6,0,0,1-.9-.9,4.7,4.7,0,0,1,0-1.2,5.8,5.8,0,0,1,1-2.1,4.2,4.2,0,0,1,1.6-1.4,2.4,2.4,0,0,1,2-.3,1.1,1.1,0,0,1,.7.3,1.6,1.6,0,0,1,.6.8,4.7,4.7,0,0,1,0,1.2,7,7,0,0,1-.6,1.7,2.5,2.5,0,0,1-1.3,1.4H50.6a1.7,1.7,0,0,1-1.5-.6,2.3,2.3,0,0,1-.5-1.5,3,3,0,0,1,.2-1.3,2,2,0,0,1,1-1.2,1.8,1.8,0,0,1,1.3,0,1.1,1.1,0,0,1,.9.3,1.1,1.1,0,0,1,.3.8.8.8,0,0,1-.2.6"/><path class="cls-4" d="M46.9,97.9a.7.7,0,0,1-.6-.9.8.8,0,0,1,.9-.7l1.5-.3h1.8l.4.2a1.4,1.4,0,0,1,.2.6.8.8,0,0,1-.2.6l-.5.3a6.2,6.2,0,0,1-1.5-.1h-.3v-.2c0,.1.1-.3.1-.2v-.3c0,.1-.3-.4-.2-.3l-.2-.2H50c.1,0-.3.5-.2.3s-.1.6-.1.5.2.4.1.3.2.2.2.1.1.1.1.1h-.4l.2-.3c0,.1,0-.3.1-.3s-.1,0,0,.1a.8.8,0,1,1-1.3.9,1.6,1.6,0,0,1-.4-.7,1.4,1.4,0,0,1,.4-1,1.1,1.1,0,0,1,1.2-.2l.9.2.2.2a.6.6,0,0,1,.3.5.8.8,0,0,1-.3.8l-.4.2H48a.6.6,0,0,1-.6-.3.8.8,0,0,1-.2-.8l.3-.4a1.1,1.1,0,0,1,.7-.3H50s-.2.1-.1,0l-.2.2c0-.1-.2.3-.1.2s-.1.5-.1.3.1.4,0,.3l.2.2c-.1,0,.3.2.2.2H49a4.2,4.2,0,0,1-2.1.3"/><path class="cls-4" d="M52.9,96.6c.1.4-.3.8-.7.9a.8.8,0,0,1-.9-.7h.3l-.2.3a3.4,3.4,0,0,0-.6,1.2,1.1,1.1,0,0,0-.1.5c0,.1-.2-.4-.1-.3h.5a1,1,0,0,0,.5-.4l.2-.2a.4.4,0,0,0,0-.5h-1l-.2.5v.2c0,.2,0,.3.1.4h.2c.2,0,.6-.4.8-.8v-.4s.1.1,0,.1h-.3l-.5.2-.4.5a1.3,1.3,0,0,0-.1.5h0c.1,0,.2,0,.2.1h.2l.4-.5a.9.9,0,0,0,.1-.5.4.4,0,0,0-.1-.3h-.1l-.4.3a1,1,0,0,0-.4.7v.2h0c0,.1-.2-.2-.1-.2h.5a2.5,2.5,0,0,0,.4-1,1,1,0,0,0,.1-.4h.2l-.3.2a2.7,2.7,0,0,0-.5,1.6h.1l.5-.2a3.5,3.5,0,0,0,.1-.6v-.2H51v.2l-.2-.3h.1c.2.1.6,0,.9,0a.7.7,0,0,1,.9.7.7.7,0,0,1-.7.9H50.7l-.8-.2a1.1,1.1,0,0,1-.5-.9,1.4,1.4,0,0,1,.1-1.1,2.4,2.4,0,0,1,1.3-1.1h.9a1.1,1.1,0,0,1,.9.6,1.8,1.8,0,0,1,.2.9,2,2,0,0,1-.4,1.6,1.9,1.9,0,0,1-1.9,1,2.2,2.2,0,0,1-1.1-.5,1.6,1.6,0,0,1-.5-1.1,3.2,3.2,0,0,1,1.1-3,2,2,0,0,1,1.7-.5,1.5,1.5,0,0,1,1,1.1,2.8,2.8,0,0,1-.1,1.3,2.9,2.9,0,0,1-1.1,2,2.8,2.8,0,0,1-1.3.3h-.8a1.2,1.2,0,0,1-.7-.7,1.9,1.9,0,0,1,0-1.3,2.9,2.9,0,0,1,.8-1.4,2.3,2.3,0,0,1,1.6-.8h.6a1.2,1.2,0,0,1,.8.4,1.9,1.9,0,0,1,.4,1.3,2.5,2.5,0,0,1-.2,1.2,2.3,2.3,0,0,1-1,1.2,1.9,1.9,0,0,1-1.7.3,1.8,1.8,0,0,1-1.1-1,2,2,0,0,1,.1-1.7,2.7,2.7,0,0,1,.9-1.2,2.5,2.5,0,0,1,1.5-.5,2,2,0,0,1,1.1.3,1.4,1.4,0,0,1,.8,1,3.2,3.2,0,0,1-.1,1.4,3,3,0,0,1-1.8,1.7h-.9a1.7,1.7,0,0,1-1.1-.4,1.8,1.8,0,0,1-.4-1.3,3.1,3.1,0,0,1,.1-.9,3.6,3.6,0,0,1,.4-.9,2.4,2.4,0,0,1,.9-.8,2.8,2.8,0,0,1,1.3,0,1.7,1.7,0,0,1,1,.3,2.3,2.3,0,0,1,.7,1,2.8,2.8,0,0,1,0,1.3,3.6,3.6,0,0,1-.5.9,2.6,2.6,0,0,1-1.3.8,2.3,2.3,0,0,1-1.4.1,1.2,1.2,0,0,1-1.1-1.2,3.1,3.1,0,0,1,.1-1,8,8,0,0,1,.8-1.6c.2-.2.4-.5.6-.6a1.5,1.5,0,0,1,1-.4,1.8,1.8,0,0,1,.9.4,1.3,1.3,0,0,1,.4.9"/><path class="cls-4" d="M211.1,119.2a.8.8,0,1,1-1.4.8c-.2-.2-.3-.2-.4-.2a.6.6,0,0,0-.4.2,2.7,2.7,0,0,0-.4,1.7h.1l.3.3h.2c.1,0-.1.1-.1.1h0l.3-.5a7.6,7.6,0,0,0,.4-1.1c.1-.4.2-.6.2-.7h-.3a4.6,4.6,0,0,0-.7,1.3,3.4,3.4,0,0,0-.1.9c0,.2-.1.1,0,.2h.5a2.5,2.5,0,0,0,.7-.9,1.4,1.4,0,0,0,.2-.6,1,1,0,0,0,.1-.4.3.3,0,0,1-.1-.2H210c-.3.3-.5.4-.6.6a1.3,1.3,0,0,0-.1.6.4.4,0,0,0-.1.3h0c0,.1-.2-.2-.2-.2h.1l.5-.2a4.5,4.5,0,0,0,1-.9.5.5,0,0,0,.3-.4v-.2c0-.1.1.5.1.4s.3.3.2.3h.4l-.3.2-.2.3h0s-.1-.2,0-.1l-.2-.2h0l.2-.2h.3c-.1,0,0-.1,0-.1l-.2.2a1.8,1.8,0,0,0-.2,1.1l-.2-.3h-.2a.3.3,0,0,0,.1-.2l.2-.4v-.5c0-.2.2.3.2.2h.1c-.1,0,.1.1,0,.1h-.2c-.1,0-.3.3-.5.7a1.8,1.8,0,0,0-.2.9v.3h0s-.2-.3-.1-.2l-.3-.2h0l1-1a.9.9,0,0,0,.4-.6,1,1,0,0,1,.1-.3c0-.1.1.1,0,0h-.2l-1,.7-.3.5v-.2h-.1c.1,0-.1-.1-.1-.1h.3l1-.4a1,1,0,0,0,.6-.5l.2-.2s-.1.2-.1.1-.1.2,0,.2v.2c0-.1.1.3.1.3s.1.2.1.1h-.7l-.3.2h0a.8.8,0,0,1-.8.9.9.9,0,0,1-.9-.8,2,2,0,0,1,.6-1.4,1.6,1.6,0,0,1,1.3-.6h1.1l.6.2.3.2a.9.9,0,0,1,.3.6.9.9,0,0,1-.3.7l-.2.2a3.5,3.5,0,0,1-1.1.9l-1.2.5a2,2,0,0,1-1.5-.1,1.3,1.3,0,0,1-.6-.7,1.4,1.4,0,0,1,0-.9,3,3,0,0,1,.6-1.1,8.3,8.3,0,0,1,1.5-1.1l.9-.2a1.5,1.5,0,0,1,1.1.3,2.6,2.6,0,0,1,.5.9,1.9,1.9,0,0,1-.2,1.4,6.1,6.1,0,0,1-.7,1,3.1,3.1,0,0,1-2.1,1.5h-.6a.8.8,0,0,1-.6-.4,1.3,1.3,0,0,1-.2-.9,5.3,5.3,0,0,1,.4-1.7c.3-.5.5-1.2,1.4-1.5a1.8,1.8,0,0,1,1-.2l.6.2c.2.2.5.4.5.8a2.5,2.5,0,0,1,.1.8,1.6,1.6,0,0,1-.4,1,1.4,1.4,0,0,1-.6.9,2,2,0,0,1-1.1.3.9.9,0,0,1-.6-.3,1,1,0,0,1-.5-.6,2.6,2.6,0,0,1,.7-2.7l.7-.5h.5a1.1,1.1,0,0,1,.7.2l.5.5a1.2,1.2,0,0,1,.2.9,1.6,1.6,0,0,1-1.2,1.6,1.5,1.5,0,0,1-.9.2h-.5l-.6-.6a2,2,0,0,1,0-1.1,2.6,2.6,0,0,1,.9-1.2l.9-.4h.5l.4.2a1.2,1.2,0,0,1,.4.8,3.1,3.1,0,0,1-.8,1.5,4.4,4.4,0,0,1-1.5,1.2,2.1,2.1,0,0,1-1.4.4h-.6a1.3,1.3,0,0,1-.7-.6,1.6,1.6,0,0,1-.1-.9,5,5,0,0,1,.4-1.3,8.7,8.7,0,0,1,.8-1l.8-.4h.7a1.3,1.3,0,0,1,1,.3,2.1,2.1,0,0,1,.6,1,2.3,2.3,0,0,1-.1,1.2,3,3,0,0,1-.4,1,2.9,2.9,0,0,1-1.5,1.6l-1,.2a2,2,0,0,1-1.1-.3,2.1,2.1,0,0,1-.7-1.4,7.8,7.8,0,0,1,.2-1.4,4.3,4.3,0,0,1,1.4-2.3,2.3,2.3,0,0,1,1.6-.2,1.4,1.4,0,0,1,.8.5,1.5,1.5,0,0,1,.4.9,3.7,3.7,0,0,1-.2,1.2,5.8,5.8,0,0,1-.5,1.4l-.4.7a1.6,1.6,0,0,1-.9.7,2.5,2.5,0,0,1-1.2-.1c-.5-.1-.7-.5-.9-.6a3.1,3.1,0,0,1-.5-1,3.7,3.7,0,0,1,.8-3,2.2,2.2,0,0,1,1.7-.9,2.5,2.5,0,0,1,1.7,1.1"/><path d="M52.5,147.2a.7.7,0,0,1,1,.4.8.8,0,0,1-.4,1.1h.2s.1-.1,0-.1l-.3.3a.8.8,0,0,1-1.2-.1.8.8,0,0,1,.1-1.1l.3-.2.3-.2m-.3-2.2a.8.8,0,0,1-.7,1.5l-.5-.3h.4c0,.1-.1.4-.1.6a2.4,2.4,0,0,0,0,.9H52c.1-.1-.1,0-.1,0a.4.4,0,0,0,.1-.3,2.1,2.1,0,0,0,0-.8l-.4-.2c-.1,0,0,0,0,.1s-.2.5-.3,1.1l-.2,1.3h.1l.4-.2a4.8,4.8,0,0,0,.7-1.6v-.7h-.5l-.8.3a2.6,2.6,0,0,0-.6,1.7H51a2.9,2.9,0,0,0,1.1-1.6v-.3c0-.1.1,0,0,0h-.6a.8.8,0,0,0-.2.6v.5h-.2l.6-.2.7-1,.2-.7v-.3h0v.2l.2.2h-.3a3.2,3.2,0,0,0-.8,1,1.3,1.3,0,0,0-.1.6h-.2l.5-.2h0c0-.1-.1.3,0,.2a.8.8,0,0,1,.8-.8.9.9,0,0,1,.8.9c0,.4-.1.3-.1.4l-.2.2a1.8,1.8,0,0,1-.7.5,1.7,1.7,0,0,1-1.6.2,1.4,1.4,0,0,1-.7-.6,1.2,1.2,0,0,1-.2-.8,1.9,1.9,0,0,1,.2-1.4,2.8,2.8,0,0,1,2-1.9h.8a1,1,0,0,1,.9.5.9.9,0,0,1,.2.9,2.3,2.3,0,0,1-.4,1.4,3,3,0,0,1-1.3,1.7,1.9,1.9,0,0,1-1.1.4,1.3,1.3,0,0,1-1.3-.5,2.5,2.5,0,0,1-.5-1.6,3.6,3.6,0,0,1,.7-1.7,2.5,2.5,0,0,1,1.6-.6l.9.2a1.3,1.3,0,0,1,.8.7,2.6,2.6,0,0,1,.1,1.5,3.4,3.4,0,0,1-2.1,2.7,2.6,2.6,0,0,1-1.2.1,1.9,1.9,0,0,1-1.7-1.8,3.7,3.7,0,0,1,1.4-3.1,2.4,2.4,0,0,1,1.8-.5,1.9,1.9,0,0,1,1.8,1,2.5,2.5,0,0,1,.2,1.7,5.3,5.3,0,0,1-1.2,2.5,2.6,2.6,0,0,1-1.4.7,2,2,0,0,1-1.8-1.4,5.9,5.9,0,0,1,.1-1.9,3.4,3.4,0,0,1,.8-2.1,1.8,1.8,0,0,1,1.6-.5,3.4,3.4,0,0,1,1.3.9,2.6,2.6,0,0,1,.3,2.1,1.7,1.7,0,0,1-.7,1.2,1.9,1.9,0,0,1-1.2.3,2.8,2.8,0,0,1-1.5-.6,2.5,2.5,0,0,1-.5-2.5,1.6,1.6,0,0,1,.3-.9c0-.2.1-.3.3-.5a.9.9,0,0,1,.6-.3,1.6,1.6,0,0,1,1.3.4"/><path d="M48.8,146.7a.8.8,0,0,1,1.1,0,.9.9,0,0,1,0,1.2h-.1c-.6.4-.7.2-.7.2h.1l.2-.2c-.1.1.1-.4.1-.3a.8.8,0,1,1-1.6-.2c0-.3.3-.6.5-.8h.4c.1,0-.1.1,0,.1m-.8,1a.9.9,0,1,1,1.1-1.3h.6l.2.2a.8.8,0,0,1-.1,1.2.8.8,0,0,1-1.1-.1H48m-.8.5c-.4-.1-.8-.5-.7-.9a.8.8,0,0,1,.8-.8h4.2a.8.8,0,0,1,.8.9.8.8,0,0,1-.8.8h-.7l-1.4-.2h-.8a1,1,0,0,1-.9-.8.9.9,0,0,1,.8-.9h1.1l1.2.2h.7a.8.8,0,0,1,.8.9.8.8,0,0,1-.8.8H47.2"/><path d="M53.4,145.4a.7.7,0,0,1,0,1.1.8.8,0,0,1-1.1.1h-.1l-.5.5a2.1,2.1,0,0,0-.3,1.4h0l.7-.5v-.3a.5.5,0,0,0-.1-.3,1.6,1.6,0,0,0-.9-.3h-.4s.1,0,0,.1-.1.4-.2.6.1.3.1.4h.8c.1,0,.4-.3.6-.7a6.5,6.5,0,0,0,.4-1.3V146h-.3l-.5.2a4,4,0,0,0-.4,1.2c0,.2,0,.3.1.4v.2h.1a2,2,0,0,0,.8-.8h0v-.3H52l-.6.2a1,1,0,0,0,.1.7.8.8,0,1,1-1.5.7,2.3,2.3,0,0,1,.1-2.3,2.2,2.2,0,0,1,1.9-1c.3.1.9-.1,1.5.5a1.6,1.6,0,0,1,.4,1.2,1.5,1.5,0,0,1-.2,1.1,3.2,3.2,0,0,1-1.8,1.6,1.4,1.4,0,0,1-1.1-.1,1.8,1.8,0,0,1-1-.9,2.4,2.4,0,0,1-.2-1.5,3.2,3.2,0,0,1,1-2.2,2.4,2.4,0,0,1,1.4-.5h.9a1.3,1.3,0,0,1,.9.6,1.8,1.8,0,0,1,.2,1.4,7,7,0,0,1-.6,1.9,2.9,2.9,0,0,1-1.3,1.4,3.4,3.4,0,0,1-1.3.2,2.2,2.2,0,0,1-1.5-.8,2.2,2.2,0,0,1-.4-1.6,2.7,2.7,0,0,1,.3-1.2,1.9,1.9,0,0,1,1.2-.9h.9a2.6,2.6,0,0,1,1.8.7,2.4,2.4,0,0,1,.7,1.7,2.6,2.6,0,0,1-.4,1,2.5,2.5,0,0,1-1.8,1.2,1.8,1.8,0,0,1-1-.2,1.1,1.1,0,0,1-.7-.8,3.1,3.1,0,0,1,.5-3,2.9,2.9,0,0,1,1.2-1,1.4,1.4,0,0,1,.9-.1,1.2,1.2,0,0,1,.9.4"/><path d="M211.8,159.7a.8.8,0,0,1-1,.6.7.7,0,0,1-.6-.9H210a2.1,2.1,0,0,0-1.1.8l-.2.3a.8.8,0,0,1,.1.3h0c.1.1.3,0,.5,0s.4-.2.6-.4a1.3,1.3,0,0,0,.2-.8c0-.1,0-.2-.1-.2s-.1-.1-.3-.1-.4,0-.7.2a2.3,2.3,0,0,0-.7.7.5.5,0,0,0,0,.5l.5.4h.6c.4,0,1.2-.8,1.4-1.4v-.3h-.4l-.8.2c-.2,0-.5.5-.6.9s-.2.6-.1.7h.4a3.2,3.2,0,0,0,1.5-.8l.3-.4a1.1,1.1,0,0,0-.2-.6h-.3a2.5,2.5,0,0,0-.9.4,2.1,2.1,0,0,0-.7,1.1c-.1.3,0,.4,0,.4s-.1,0,0,0h1.7a.9.9,0,0,0,.6-.4.1.1,0,0,0,.1-.1c0-.1,0-.2-.2-.4l-1.3-.2-.6.3a.8.8,0,0,0-.2.4c0,.2-.1.1,0,.2h0l.6.2h.2c.1,0,.1-.1.2-.4s.1-.2,0-.4l-.3-.3h-.3a4.5,4.5,0,0,0-.3.8,2.3,2.3,0,0,0-.1.7h.5a2.6,2.6,0,0,0,.8-1.1v-.6h-.2c0,.1-.3.3-.5.7v.3h-.1c.1,0-.1-.2-.1-.2h-.3l.5-.3h0c.1,0,0,.2,0,.1s.1.4.1.3.4.5.2.4h.3l-.2.2h-.1a.8.8,0,0,1-1.5-.5,1.5,1.5,0,0,1,.9-1.1l.6-.3h1c.2.2.3.3.3.5a.8.8,0,0,1,.1.4c-.1.2-.1.3-.2.4a1.3,1.3,0,0,1-.6.7l-.8.5h-.5a.8.8,0,0,1-.8-.2,1.5,1.5,0,0,1-.5-1.1,4.4,4.4,0,0,1,.2-1,2.5,2.5,0,0,1,1.5-1.5,1.6,1.6,0,0,1,1-.1,1.2,1.2,0,0,1,1,.5,1.7,1.7,0,0,1,.4,1.3,2.9,2.9,0,0,1-.2.9,3.5,3.5,0,0,1-1.6,2,3.2,3.2,0,0,1-1.3.2l-.9-.4a2.1,2.1,0,0,1-.6-1,3.2,3.2,0,0,1,.1-1.4,2.7,2.7,0,0,1,1.3-1.9,1.7,1.7,0,0,1,1.4,0,2.2,2.2,0,0,1,1.2,1.1,2,2,0,0,1,.2,1.7,2.5,2.5,0,0,1-1.3,1.4,2,2,0,0,1-.8,0l-1-.2c-.4-.2-.8-.3-1-.9a1.4,1.4,0,0,1-.1-1.1,2.7,2.7,0,0,1,.7-1.3,2.9,2.9,0,0,1,1.6-.7,3.1,3.1,0,0,1,2.4.6,2,2,0,0,1,.9,1.6,2.3,2.3,0,0,1-.6,1.2,2.2,2.2,0,0,1-1.3.8,4,4,0,0,1-1.9.2,2,2,0,0,1-1.7-.8,2.3,2.3,0,0,1-.2-1.8,3.8,3.8,0,0,1,1.3-1.9,4.6,4.6,0,0,1,1.6-.7,2,2,0,0,1,1.8.4,2.4,2.4,0,0,1,.6,2,2.7,2.7,0,0,1-.8,1.4,4.1,4.1,0,0,1-2.4,1.3h-1a2,2,0,0,1-1.2-1.2,2.5,2.5,0,0,1,.1-1.7,2.8,2.8,0,0,1,1.5-1.9,2.7,2.7,0,0,1,1.5-.3l1.1.2a1.8,1.8,0,0,1,.8.9,2.2,2.2,0,0,1,0,1.4,3.7,3.7,0,0,1-2.8,2.6h-1.3a2.7,2.7,0,0,1-1.5-1.3,2.1,2.1,0,0,1,.1-2,3.7,3.7,0,0,1,1.2-1.3,3.2,3.2,0,0,1,1.9-.5,2.3,2.3,0,0,1,1.2.6,1.7,1.7,0,0,1,.5,1.2,2.8,2.8,0,0,1-.4,1.8,2.4,2.4,0,0,1-1.6,1.2h-1.1a1.7,1.7,0,0,1-1.2-.7,2.2,2.2,0,0,1-.3-1,3.3,3.3,0,0,1,.4-1.4,3.4,3.4,0,0,1,2.4-1.5,1.9,1.9,0,0,1,1.4.3,1.8,1.8,0,0,1,.5.7v.9"/><path d="M212,160a.8.8,0,0,1,1-.5.8.8,0,0,1,.6,1c-.1.2,0-.4,0-.3s-.1-.2,0-.2h0a.9.9,0,0,1-.2,1.1.8.8,0,0,1-1.2-.2.3.3,0,0,1-.1-.2s-.1,0-.1-.3V160m1.7.3a.8.8,0,0,1,1.6.2c-.1.6-.3.6-.4.6h-.8c-.6.1-1-.2-1.3-.2h.3a.8.8,0,0,1-1.1-.4.9.9,0,0,1,.5-1.1h1.4c.1,0-.1.2-.1.2s-.1.4-.1.3m-.4,0a.8.8,0,1,1-1.6.3c0-.1,0-.4.1-.5l.4-.4h2.7c.1,0,.3.1.4.5a.8.8,0,0,1-.6,1,.9.9,0,0,1-1-.5c0-.2.3.4.2.3h0a1.5,1.5,0,0,1-1,.1h-.1c-.1,0,.2-.1.1-.1h.2c-.1.1.2-.3.1-.2v-.5"/><path class="cls-4" d="M214,120.9a.9.9,0,0,1-.9-.8.8.8,0,0,1,.9-.8h34.4a.7.7,0,0,1,.8.8.8.8,0,0,1-.8.8Z"/><path class="cls-4" d="M247.6,120.1a.8.8,0,0,1,.8-.8.7.7,0,0,1,.8.8v9a.7.7,0,0,1-.8.8.8.8,0,0,1-.8-.8Z"/><path class="cls-5" d="M8.2,116.2a.7.7,0,0,1,.3-1.1.8.8,0,0,1,1.1.3h0c.1,0,.1.1.1.2a2.4,2.4,0,0,1,.3.7,40.3,40.3,0,0,1,.9,4.3l.6,2c.1.6.3,1.2.4,1.9a12.2,12.2,0,0,1,.3,1.7,2.1,2.1,0,0,1,.1.6l-.2-.2h-.5c.1,0,0,.1,0,.1a1.7,1.7,0,0,1,.2-.5l.8-2.2c.5-1.6,1.2-3.4,1.7-4.9s.8-1.8,1-2.4a11.7,11.7,0,0,1,.5-1.1,1,1,0,0,1,.4-.5c0-.1.1-.2.4-.2s.9.4,1,.7-.1.6-.2.7l-.4.6a.9.9,0,1,1-1.3-1.1l.3-.3h0v.2s.1.3,0,.3.3.2.2.2.5.2.3.2.4,0,.3,0h.5l-.5,1c-.2.7-.6,1.5-.9,2.4s-1.3,3.2-1.8,4.8-.6,1.6-.8,2.3a1.5,1.5,0,0,1-.8,1.2,1.7,1.7,0,0,1-1,0,1.2,1.2,0,0,1-.7-.7,6.4,6.4,0,0,0-.2-.9,10.1,10.1,0,0,0-.3-1.7,11.6,11.6,0,0,0-.4-1.8q-.3-.9-.6-2.1c-.3-1.5-.6-3.1-.9-4.1a2.5,2.5,0,0,1-.2-.7c-.1-.1-.1,0-.1-.1h.1m1.7,0a.8.8,0,0,1-.5,1,.9.9,0,0,1-1.1-.5,2.1,2.1,0,0,0-.2-.6h0a.8.8,0,0,1,.6-.9.8.8,0,0,1,1,.6h0c.1.2.1.5.2.6"/><path class="cls-5" d="M14.1,126.6a.9.9,0,0,1,1.1-.6.9.9,0,0,1,.5,1.1v-.2c0,.1-.1-.4,0-.3s-.2-.3-.2-.2-.3-.3-.2-.3-.4-.1-.3,0h-.4c.1,0-.2.1-.1.1h.1l.8-1,1.2-1.2a2.3,2.3,0,0,1,1.2-.6,1.5,1.5,0,0,1,1,.3,2.5,2.5,0,0,1,.4.7,2.8,2.8,0,0,1,0,1.3c0,.4-.1.8-.1,1.1v.4H19c.1,0,0-.2,0-.1v-.2a.7.7,0,0,1-.2,1.1.7.7,0,0,1-1.1-.2c-.5-.6-.2-.8-.1-1.2s.1-.7.1-1v-.8H18l-.3.2-1.1,1.1-.8.9-.3.4h-.2a1,1,0,0,1-.8,0,.8.8,0,0,1-.4-.8v-.2"/><path class="cls-5" d="M244,135.2a.8.8,0,0,1-.8.9.8.8,0,0,1-.8-.8,1.4,1.4,0,0,1,0-.9s-.1-.1.1-.3a.4.4,0,0,1,.4-.3.8.8,0,0,1,.9.2l.2.4v.3a16.5,16.5,0,0,1,.2,2.7c.1,2.1.2,4.7.4,6.4s.2,1,.2,1.2a.8.8,0,0,1,.1.3h-1l.2-.3c.4-.7.8-2.1,1.4-3.6l1.2-2.4c1.5-2.9,2.6-4,3.7-4.5a.8.8,0,0,1,1.1.4.7.7,0,0,1-.4,1,3.9,3.9,0,0,0-1.1.9,17.8,17.8,0,0,0-1.9,3l-1.1,2.2a29.3,29.3,0,0,1-1.4,3.7,2.1,2.1,0,0,1-.4.6l-.3.3a1.1,1.1,0,0,1-.8.1,1.1,1.1,0,0,1-.7-.6c0-.2-.1-.3-.1-.5a5.7,5.7,0,0,1-.3-1.5c-.3-1.9-.3-4.4-.4-6.5s-.1-2.1-.2-2.6h.1c-.1,0,.1.2.1.2l.2.2h.7l.3-.2c-.1.1.1-.2.1-.2s.1-.2.1-.1,0-.1,0-.1h0v.4"/><path class="cls-5" d="M251.1,142.3a.8.8,0,0,1-.4,1.1.8.8,0,0,1-1.1-.4,2,2,0,0,1-.1-.5,1.3,1.3,0,0,1,.9-.7c.4,0,.4.1.5.2a1,1,0,0,1,.5.4l.7.4a1.4,1.4,0,0,1,.4,1.5c-.2,1-.9,1.2-1.3,1.5l-.5.3-.3.3h0c-.1,0,0-.1,0-.1v-.2c0,.2-.1-.5,0-.4s-.3-.2-.2-.2h.7a6.8,6.8,0,0,1,3.5,1.7.8.8,0,0,1,.1,1.1.7.7,0,0,1-1.1.2c-1-.7-1.7-1.3-2.6-1.3h-.9l-.5-.2h-.3a1.5,1.5,0,0,1-.3-.8c0-.4.3-.6.4-.8l.4-.3.6-.5a1.5,1.5,0,0,0,.6-.4h.2a1.7,1.7,0,0,1-.6-.4l-.4-.3s.1.1,0,.1h.6c-.2,0,.5-.4.4-.3l.2-.4c-.1.2-.1-.3-.1-.3s0-.1,0-.1"/><path d="M201.2,148.7c-.2.1-.5.1-.6-.1a.4.4,0,0,1,.1-.6l18.4-14.1a.5.5,0,0,1,.6.1.3.3,0,0,1-.1.5Z"/><path d="M201,134.1c-.2-.1-.2-.4-.1-.6h.6l16.7,16.1c.2.1.2.4.1.6a.6.6,0,0,1-.6,0Z"/><path d="M209.4,164.8a.4.4,0,0,1,.4-.4.5.5,0,0,1,.5.4v47.6a.5.5,0,0,1-.5.4.4.4,0,0,1-.4-.4Z"/><path d="M221.3,89.9a10.7,10.7,0,0,0-1.5-5.6,11,11,0,0,0-9.7-5.6,12,12,0,0,0-5.6,1.5,11.4,11.4,0,0,0-5.6,9.7,11.2,11.2,0,1,0,22.4,0m.9,0a12.1,12.1,0,0,1-6,10.4,12.3,12.3,0,0,1-6.1,1.6A11.9,11.9,0,0,1,199.8,96a11.7,11.7,0,0,1-1.7-6.1,12.1,12.1,0,0,1,6-10.4,12.2,12.2,0,0,1,6-1.6,11.9,11.9,0,0,1,10.4,6,11.1,11.1,0,0,1,1.7,6"/><path d="M213.6,57.2a3.9,3.9,0,0,0-.4-1.8,3.7,3.7,0,0,0-3.1-1.7,3.7,3.7,0,0,0-3.5,3.5,4.1,4.1,0,0,0,.5,1.8,3.6,3.6,0,0,0,3,1.7,3.5,3.5,0,0,0,3.5-3.5m.9,0a4.2,4.2,0,0,1-2.2,3.7,4,4,0,0,1-2.2.6,4.3,4.3,0,0,1-2.1-8,3.7,3.7,0,0,1,2.1-.6,4.4,4.4,0,0,1,3.8,2.1,4.3,4.3,0,0,1,.6,2.2"/><path d="M122.2,12.8a4.1,4.1,0,0,0-.5-1.8,3.5,3.5,0,0,0-3-1.7,4.1,4.1,0,0,0-1.8.5,3.5,3.5,0,0,0-1.7,3,4.1,4.1,0,0,0,.5,1.8,3.5,3.5,0,0,0,6.5-1.8m.8,0a4.1,4.1,0,0,1-2.1,3.7,4,4,0,0,1-2.2.6A4.1,4.1,0,0,1,115,15a4.3,4.3,0,0,1-.6-2.2,4.3,4.3,0,0,1,2.1-3.7,4.3,4.3,0,0,1,2.2-.6,4.1,4.1,0,0,1,3.7,2.1,4.3,4.3,0,0,1,.6,2.2"/><path d="M156.4,12.8a4.1,4.1,0,0,0-.5-1.8,3.5,3.5,0,0,0-6.5,1.8,4.1,4.1,0,0,0,.5,1.8,3.5,3.5,0,0,0,3,1.7,4.1,4.1,0,0,0,1.8-.5,3.5,3.5,0,0,0,1.7-3m.8,0a4.3,4.3,0,0,1-2.1,3.7,4.3,4.3,0,0,1-2.2.6,4.1,4.1,0,0,1-3.7-2.1,4.3,4.3,0,0,1-.6-2.2,4.1,4.1,0,0,1,2.1-3.7,4,4,0,0,1,2.2-.6,4.1,4.1,0,0,1,3.7,2.1,4.3,4.3,0,0,1,.6,2.2"/><path d="M209.4,47.1a.4.4,0,0,1,.4-.4c.3,0,.5.1.5.4V54a.5.5,0,0,1-.5.4.4.4,0,0,1-.4-.4Z"/><path class="cls-4" d="M209.4,61.1a.8.8,0,0,1,.8-.8.9.9,0,0,1,.8.8V78.3a.8.8,0,0,1-.8.8.7.7,0,0,1-.8-.8Z"/><path d="M209,101.5a.8.8,0,0,1,.8-.8.8.8,0,0,1,.9.8v15.8a.8.8,0,0,1-.9.8.8.8,0,0,1-.8-.8Z"/><path d="M156.8,13.2a.4.4,0,0,1-.4-.4.4.4,0,0,1,.4-.4h49.4a.4.4,0,0,1,.4.4c0,.3-.1.4-.4.4Z"/><path d="M122.9,13.3a.5.5,0,0,1-.5-.3c0-.2.1-.5.3-.5H128v.2h.5l-.3.2a.4.4,0,0,1-.6,0c-.1-.2-.1-.5.1-.6l.4-.3h.4a.5.5,0,0,1,.3.4c0,.1,0,.2-.1.2s-.2.2-.3.3h-5.5"/><path d="M139.4,13.3c-.3,0-.4-.2-.4-.5a.5.5,0,0,1,.5-.3h6.3a7,7,0,0,0,1.4-.3h.9a1.2,1.2,0,0,1,.8.1c.1,0,.3.1.3.4s-.1.2-.2.3-.2.3-.4.4a.4.4,0,1,1-.5-.7l.3-.2h0c-.1,0,0,.2,0,.1V13h-1.2l-1.5.2h-2.7a22.7,22.7,0,0,1-3.7,0"/><path d="M140,3.8a.5.5,0,0,1,.5-.4c.2,0,.4.2.3.4h0V4l-.2.3c-.1.2-.4.2-.6.1a.5.5,0,0,1-.1-.6h.1m-11.8,9.5a.5.5,0,0,1-.6-.2c-.1-.2-.1-.4.1-.5l1.1-.5,1.8-1.4,1.2-.9,1.3-1,.7-.6,1.8-1.4,1-.7.7-.5.3-.3,1.3-1,.7-.5h.2l.3-.2h.2a.3.3,0,0,1,.5.3c.1.2-.1.4-.3.5h0l-.3.2H140l-.6.5-1.2.9-.4.3-.7.6-1,.7-1.8,1.3-.6.6-1.4,1.1a4.7,4.7,0,0,0-1.2.9l-1.9,1.4-1,.5"/><path d="M139.4,13a.4.4,0,0,1-.4.4.4.4,0,0,1-.4-.4V3.1a.4.4,0,0,1,.4-.4c.3,0,.4.1.4.4Z"/><path d="M135.4,1.7c-.1-.2.1-.4.3-.5s.4.1.5.3h0v.9c0,1.1-.2,2.6-.3,3.6a5.1,5.1,0,0,0-.1,1h-.1c.1,0,0-.2,0-.1s-.2-.1-.1-.1h-.5c0-.1-.1.1-.1.1h0a4.3,4.3,0,0,0,.1-.5c.1-.2.3-.4.5-.3a.4.4,0,0,1,.3.5,4.3,4.3,0,0,1-.1.5h0a.1.1,0,0,1-.1.1.4.4,0,0,1-.5.1c-.3-.1-.2-.3-.2-.3h0a4.6,4.6,0,0,1,.1-1c.1-1.1.2-2.6.3-3.6V1.8h0m.8-.1c0,.3-.2.5-.4.4a.4.4,0,0,1-.4-.4h0c.1-.2.3-.4.5-.3s.4.3.3.5h0"/><path d="M133.5,1.3a.4.4,0,0,1-.6-.1c-.1-.2-.1-.4.1-.5s.7-.2,1.1-.2l1.1.2a4.9,4.9,0,0,0,3.4-.6c.1-.2.4-.1.5.1s.1.4-.1.5a4.7,4.7,0,0,1-4,.8l-1.1-.2h-.4"/><path class="cls-4" d="M202.7,94.9a.8.8,0,0,1,1.2-.2.9.9,0,0,1,.2,1.1h0v-.2c0,.1-.1-.3,0-.2v-.2h-.5l.4-.4c.6-.7,1.3-2,2.4-3.7l2.3-2.8,1.8-2.3,1.1-1.5.5-.7c0-.1.1-.2.2-.3l.2-.2a.9.9,0,0,1,.7-.1,1.2,1.2,0,0,1,.7.7.9.9,0,0,0,.1.5v1.3c0,1.1-.1,2.3-.2,3.7a32.8,32.8,0,0,0-.3,4,3,3,0,0,0,.7,2,.8.8,0,0,1-1.3.9,4.6,4.6,0,0,1-1-2.8c0-1.2.1-2.8.2-4.3a23.6,23.6,0,0,0,.3-3.5,3.1,3.1,0,0,0-.1-1.1v-.2h.1c-.1,0,.1.2.1.1s.4.2.2.2h.7c-.2.1.1-.1.1-.1h0l-.6.8-1.1,1.5-1.8,2.3c-.8,1-1.6,1.9-2.2,2.8s-1.7,2.8-2.6,3.8a1.7,1.7,0,0,1-1.2.9,1.2,1.2,0,0,1-1.1-.4,1.1,1.1,0,0,1-.3-.7,1.4,1.4,0,0,1,.2-.7"/><path class="cls-4" d="M208.6,90.1a.9.9,0,0,1,.2,1.2.9.9,0,0,1-1.2.1c-.1,0-.2-.1-.3-.4a.8.8,0,0,1,.2-.8c.3-.3.4-.3.5-.3h3.5a1.7,1.7,0,0,1,1,.1,1.4,1.4,0,0,1,.9.8.8.8,0,0,1-.5,1.1.7.7,0,0,1-1-.4h-3.4l.2-.2c-.1.1.2-.5.2-.4s-.1-.6,0-.4l-.2-.3h-.1"/><path d="M259.6,34.7a12.1,12.1,0,0,0-1.5-5.7,11.3,11.3,0,0,0-9.7-5.5,11.1,11.1,0,0,0-11.2,11.2,10.7,10.7,0,0,0,1.5,5.6,11.2,11.2,0,0,0,9.7,5.6,11.7,11.7,0,0,0,5.6-1.5,11.4,11.4,0,0,0,5.6-9.7m.8,0a12.1,12.1,0,0,1-6,10.4,12,12,0,0,1-18-10.4,12.1,12.1,0,0,1,5.9-10.4,11.6,11.6,0,0,1,6.1-1.6,12,12,0,0,1,10.4,5.9,12.6,12.6,0,0,1,1.6,6.1"/><path d="M142.7,234.4a12.1,12.1,0,0,0-1.5-5.7,11.3,11.3,0,0,0-9.7-5.5,10.4,10.4,0,0,0-5.6,1.5,11,11,0,0,0-5.6,9.7,11.7,11.7,0,0,0,1.5,5.6,11.2,11.2,0,0,0,15.3,4.1,11.2,11.2,0,0,0,5.6-9.7m.8,0a12.2,12.2,0,0,1-5.9,10.4,12.6,12.6,0,0,1-6.1,1.6,12.1,12.1,0,0,1-10.4-6,11.9,11.9,0,0,1-1.6-6,12.1,12.1,0,0,1,5.9-10.4,11.6,11.6,0,0,1,6.1-1.6,12,12,0,0,1,10.4,5.9,12.6,12.6,0,0,1,1.6,6.1"/><path class="cls-4" d="M210.7,11.9a.8.8,0,0,1-.6,1,1,1,0,0,1-1-.6,6.7,6.7,0,0,1-.1-1c-.1-.1,0-.1-.1-.1h.1l.3.2h.3c-.1,0,.2-.1.1-.1h.1c-.1.1-.2.2-.2.3a3.1,3.1,0,0,0-.2,1.3c0,.3,0,.5.1.6a.1.1,0,0,0,.1.1h.4a2.1,2.1,0,0,0,.6-1.1c.1-.2,0-.2-.1-.3l-.6-.2c-.2,0-.3.1-.4.3a1.1,1.1,0,0,0-.2,1,1.2,1.2,0,0,0,.7.7h.2l.2-.2.3-.7v-.7h-.9l-.2.3c0,.2-.1.5-.1.8v.2h0s-.3-.2-.2-.2h.4c.1,0,.3-.3.5-.6a6.1,6.1,0,0,0,.3-1.3v-.4h-.1a1.4,1.4,0,0,0-1,.4,2.5,2.5,0,0,0-.8,1.4v.3h-.1l1.1-.7a2.3,2.3,0,0,0,.7-1,.6.6,0,0,0,.2-.4c0-.1.1.3.1.2s.1.3.1.2h0a1.9,1.9,0,0,0-1.1.7h0c-.1.1-.1-.4-.1-.3s-.1-.3-.1-.2h0a1.3,1.3,0,0,1,.8.2.7.7,0,0,1,.5,1,.7.7,0,0,1-1,.5H209l-.5-.2-.4-.3a1.2,1.2,0,0,1-.2-.7,2,2,0,0,1,.4-.8,3.7,3.7,0,0,1,2.1-1.4h1l.5.3a1.1,1.1,0,0,1,.3.8,2.8,2.8,0,0,1-.4,1.1,4.9,4.9,0,0,1-1.1,1.4,3.2,3.2,0,0,1-2.4,1.1l-.7-.2a1.6,1.6,0,0,1-.6-.8,2.6,2.6,0,0,1,0-.9,4.1,4.1,0,0,1,1.3-2.5,3.9,3.9,0,0,1,2-.8h.8a1.2,1.2,0,0,1,.8.6,1.5,1.5,0,0,1,.2,1.4,5.3,5.3,0,0,1-.4,1.7,3.2,3.2,0,0,1-1.3,1.5,3,3,0,0,1-1.2.2,1.1,1.1,0,0,1-1-.5,1.8,1.8,0,0,1-.3-1.2,2.7,2.7,0,0,1,.2-1.2,1.8,1.8,0,0,1,.8-1.2,1.9,1.9,0,0,1,1.2-.3l1.1.2a1.9,1.9,0,0,1,1,1,2.9,2.9,0,0,1,.1,1.6,5,5,0,0,1-.5,1.3,2.9,2.9,0,0,1-1.2.9,2,2,0,0,1-1.1-.1,2.8,2.8,0,0,1-1.8-2,3.7,3.7,0,0,1,.3-2.1,2.3,2.3,0,0,1,1.8-1.2,2.8,2.8,0,0,1,1.8.6,2.1,2.1,0,0,1,.6,2,2.8,2.8,0,0,1-1.5,2.2,2.5,2.5,0,0,1-1.7.1,2.4,2.4,0,0,1-1-1,2.8,2.8,0,0,1-.3-1.3,4.5,4.5,0,0,1,.4-2.2l.6-.6.4-.3h.8c.3.1.4.4.5.5v.2a2.7,2.7,0,0,1,.2,1.2"/><path class="cls-4" d="M249.3,23.1a.9.9,0,0,1-.8.8.9.9,0,0,1-.9-.8V12.7a.8.8,0,0,1,.9-.8.8.8,0,0,1,.8.8Z"/><path d="M214.1,58.2a.9.9,0,0,1-.9-.8.8.8,0,0,1,.9-.8h35.1a.7.7,0,0,1,.8.8.8.8,0,0,1-.8.8Z"/><path d="M248.6,46.2a.9.9,0,0,1,.8-.8.9.9,0,0,1,.9.8V57.4a.9.9,0,0,1-.9.8.9.9,0,0,1-.8-.8Z"/><path d="M211.3,56.9a.8.8,0,0,1-1.6-.2v.2s.1.2,0,.2h.1s.2.1.1.1.2-.1.2,0H210c-.1,0-.1.3-.1.5V58s-.1-.2,0-.1-.2-.1-.1-.1h.1l.2-.3h0c-.1-.1.1.2.1.1H209s.2-.1.1,0,.1-.2.1-.1h0V58h.1c.1,0,.1-.1.3-.3l.4-.9c0-.3.1-.5,0-.6s.1.1,0,.1h-.8c-.1,0-.2.4-.3.8s0,.6.1.7-.2-.2-.1-.1h-.2c.1,0,.3-.2.5-.5a7.5,7.5,0,0,0,.6-1.3v-.3a.8.8,0,0,1,0-.5h0c0-.1.2.3.1.2s.2.2.2.1.1.1.1.1h-.1c-.1,0-.1.1-.2.2a2.1,2.1,0,0,0-.3.7.8.8,0,0,0-.1.4h0s-.2-.2-.1-.2h.3c.1-.1.4-.3.5-.5h0s.1.2,0,.2l.2.2h.5l-.5.2c-.2.2-.5.4-.6.6a.3.3,0,0,0-.1.2c0,.1-.2-.6-.2-.5s-.2-.1-.1-.1h1.2a.8.8,0,1,1,.2,1.6h-1.3l-.7-.2c-.2,0-.3-.1-.5-.3a1.4,1.4,0,0,1-.2-.7,1.9,1.9,0,0,1,.3-1,5.7,5.7,0,0,1,1.1-1.1l.7-.3.4-.2a1.3,1.3,0,0,1,.8.2.9.9,0,0,1,.4.9,2.9,2.9,0,0,1-.2.9,2.7,2.7,0,0,1-1.1,1,1.8,1.8,0,0,1-1,.4l-.8-.2a1,1,0,0,1-.7-.5,2.2,2.2,0,0,1,0-1.6,6.1,6.1,0,0,1,.5-1.2,1.8,1.8,0,0,1,1.3-.9h.5a.9.9,0,0,1,.9.4.7.7,0,0,1,.2.7h0a2.2,2.2,0,0,1-.1,1.1,3.8,3.8,0,0,1-.8,1.7,2.4,2.4,0,0,1-1.4,1.2h-.8a.9.9,0,0,1-.8-.7,3.2,3.2,0,0,1-.2-1.4,2.8,2.8,0,0,1,.9-2,2.1,2.1,0,0,1,1.5-.5l1.1.3a1.5,1.5,0,0,1,.8,1.1,2.3,2.3,0,0,1-.1,1.4,3.8,3.8,0,0,1-.6,1.3,1.9,1.9,0,0,1-1.3,1,1.4,1.4,0,0,1-1.2-.2,1.5,1.5,0,0,1-.8-1.4,1.1,1.1,0,0,1,0-.8,1.2,1.2,0,0,1,.5-1,1.3,1.3,0,0,1,.8-.3,1.7,1.7,0,0,1,1,0l.9.2c.3.2.7.4.8.9a1.4,1.4,0,0,1,0,1.1,2.1,2.1,0,0,1-1.3,1.3,2.7,2.7,0,0,1-.9,0,1.6,1.6,0,0,1-.9-.6,1.3,1.3,0,0,1-.2-.8,2,2,0,0,1,.6-2,1.3,1.3,0,0,1,2-.1,1.3,1.3,0,0,1,.4,1"/><path d="M143.1,234.6a.8.8,0,0,1-.8-.8.7.7,0,0,1,.8-.8H248.9a.8.8,0,0,1,.8.8.9.9,0,0,1-.8.8Z"/><path d="M209.9,160.9a.7.7,0,0,1-.5-1,.7.7,0,0,1,1-.5l37.9,13.1a.9.9,0,1,1-.6,1.6Z"/><path d="M248.1,173.3a.8.8,0,0,1,.8-.8.9.9,0,0,1,.8.8v60.5a.9.9,0,0,1-.8.8.8.8,0,0,1-.8-.8Z"/><path class="cls-4" d="M51.1,149.9a.8.8,0,0,1-1.1.3.7.7,0,0,1-.3-1.1l.2-.4a.8.8,0,0,1,1.2-.2.9.9,0,0,1,.2,1.1l-.2.3"/><path class="cls-4" d="M51.1,150.6a.8.8,0,0,1,.9.6.8.8,0,0,1-.6,1l-38.7,8.5a.8.8,0,0,1-.4-1.6Z"/><path class="cls-4" d="M12.5,235.2a.9.9,0,0,1-.8-.8.8.8,0,0,1,.8-.8H119.9a.8.8,0,0,1,.8.8.9.9,0,0,1-.8.8Z"/><path class="cls-4" d="M11.7,159.9a.8.8,0,0,1,.8-.8.7.7,0,0,1,.8.8v74.5a.8.8,0,0,1-.8.8.9.9,0,0,1-.8-.8Z"/><path class="cls-5" d="M127.5,229.4a.8.8,0,1,1,.7-1.5c.5.3.5.5.5.6v.8a24.4,24.4,0,0,0,1,3.9c.2,1,.3,1.9.5,2.8l.3,1.5a4.5,4.5,0,0,1,.3,1.3,1.7,1.7,0,0,1,.2.5h-.5s.1,0,.1-.2.4-1.6.7-2.7a30.2,30.2,0,0,1,1.2-3.9l.6-1.2a4.3,4.3,0,0,1,.4-1.1l.2-.3c0-.1,0-.4.7-.4a1,1,0,0,1,.8.5v.3c.1.1,0,.2,0,.3a.8.8,0,0,1-.9.8,1,1,0,0,1-.7-.9h0s.1.2,0,.1h.1l.3.3h.9c-.1,0,.1-.2.1-.2h0a8,8,0,0,1-.5,1.1l-.5,1.1a32.5,32.5,0,0,0-1.1,3.7,20.2,20.2,0,0,1-.8,2.9,1.6,1.6,0,0,1-.4.7,1,1,0,0,1-1,.4,1.8,1.8,0,0,1-1.1-.8,1.6,1.6,0,0,1-.3-.9l-.3-1.3a6.2,6.2,0,0,1-.4-1.6c-.2-.9-.3-1.8-.5-2.7a24.5,24.5,0,0,1-1-4.2c-.1-.2,0-.4,0-.5h0c0-.1.1.2,0,.1s.2.3.2.2l.2.2m1.3.6a.9.9,0,0,1-.8.9.9.9,0,0,1-.8-.8c0-.3-.1-.6-.1-.8v-.4h0v.2a.9.9,0,0,1,.5-1.1.8.8,0,0,1,1,.5h.1v.5a2.8,2.8,0,0,1,.1.9"/><path class="cls-5" d="M245.3,30.1a.7.7,0,0,1-.6,1,.8.8,0,0,1-.9-.6,3.6,3.6,0,0,1-.2-1c.1-.2.1-.6.7-.7a.7.7,0,0,1,.8.3c.2.2.2.3.2.4a26,26,0,0,1,.8,5.1c.1,1.1.2,2.1.3,2.9l.3,1.1a6.6,6.6,0,0,0,.5,1.5.3.3,0,0,0,.1.2h-.5c.1,0-.4.1-.3,0l-.3.2h0a1,1,0,0,0,.1-.3,5.7,5.7,0,0,1,.8-1.3c.1-.3.4-.6.6-1s1-2.1,1.6-3.3l1-1.9c.6-1.2.6-1.1.5-1.9a.9.9,0,0,1,.8-.8.8.8,0,0,1,.9.8,5.1,5.1,0,0,1-.7,2.6,18.6,18.6,0,0,0-1,2l-1.7,3.3a6.4,6.4,0,0,0-.6,1.1l-.7,1.1c0,.1-.1.2-.2.4s-.1.2-.2.3a.9.9,0,0,1-.7.3l-.6-.2c-.1-.1-.2-.2-.2-.3l-.2-.3-.6-1.8-.3-1.2c-.1-.9-.2-2-.3-3.1a35.4,35.4,0,0,0-.7-4.6h0s.1.2,0,.1l.2.2h.6l.4-.2h.1v-.2h.1v.4"/><path d="M259.6,89.9a10.7,10.7,0,0,0-1.5-5.6,11.1,11.1,0,0,0-9.7-5.6,11.7,11.7,0,0,0-5.6,1.5,11.2,11.2,0,0,0-5.6,9.7,12.1,12.1,0,0,0,1.5,5.7,11.3,11.3,0,0,0,9.7,5.5,11,11,0,0,0,5.7-1.5,11.2,11.2,0,0,0,5.5-9.7m.8,0a12.2,12.2,0,0,1-5.9,10.4,12.6,12.6,0,0,1-6.1,1.6A12.2,12.2,0,0,1,238,96a12.6,12.6,0,0,1-1.6-6.1,12.1,12.1,0,0,1,6-10.4,11.9,11.9,0,0,1,6-1.6,12.1,12.1,0,0,1,10.4,6,11.9,11.9,0,0,1,1.6,6"/><path class="cls-5" d="M243.9,85a1,1,0,0,1,1-.8,1,1,0,0,1,.7.9h0a3.2,3.2,0,0,0,.1.8c.2,1.3.6,3.5,1,5.5s.4,1.7.6,2.4a3.4,3.4,0,0,0,.4,1.2,2.4,2.4,0,0,0,.3.7v.2h-.6c.1,0,0,.1,0,.1h0a2.4,2.4,0,0,0,.3-.7c.2-.9.5-2,.8-3.1s1.1-2.9,1.5-4a12.1,12.1,0,0,0,1-2.3.8.8,0,0,1,.9-.6.8.8,0,0,1,.7,1,16.5,16.5,0,0,1-1.1,2.6c-.4,1.1-1,2.3-1.4,3.7s-.6,2.2-.8,3.1l-.5,1.2-.4.5a1.7,1.7,0,0,1-1,.1,1.9,1.9,0,0,1-.8-.7l-.6-1.1c-.1-.4-.3-.9-.4-1.4s-.4-1.5-.6-2.5-.8-4.2-1-5.6-.1-.6-.2-.9h0m1.2,1.7a.8.8,0,0,1-1-.5.8.8,0,0,1,.4-1.1l-.2.2-.2.2s-.1.2-.1.1,0,.2,0,.2h0v-.5h0a.8.8,0,0,1,.5-1.1.7.7,0,0,1,1,.5h.1v.5c0,.2.1.3.1.4s0,.2-.1.2v.2c0,.2-.1.4-.5.6"/><path class="cls-4" d="M248.9,65.9a.7.7,0,0,1,.8-.8.8.8,0,0,1,.8.8V78.4a.9.9,0,0,1-.8.8.8.8,0,0,1-.8-.8Z"/><path class="cls-4" d="M210,58a.8.8,0,0,1-.7-1,.9.9,0,0,1,1-.6l39.6,8.7a.8.8,0,0,1,.6.9.9.9,0,0,1-1,.7Z"/><path d="M247.3,101.9a.9.9,0,0,1,.8-.8.8.8,0,0,1,.8.8h0v1.1c0,.6-.1,1.2-.1,1.8v3a5.8,5.8,0,0,0,.2,1,18.5,18.5,0,0,1,.1,2.3,7.1,7.1,0,0,1,.1,1.4.9.9,0,0,1-.1.5s.1.1,0,.3l-.2.3-.7.2a1,1,0,0,1-.6-.4c0-.1-.1-.1-.1-.2a.8.8,0,0,1,.5-1,.9.9,0,0,1,1.1.5s-.1-.2-.1-.1l-.2-.3h-.2c.2.1-.6,0-.5,0h-.3c.1-.1-.2.3-.2.2s-.1.2,0,.2h-.1v-1.6a7.8,7.8,0,0,0-.2-2.2c0-.3-.1-.7-.1-1.2v-3.1c0-.6.1-1.2.1-1.7V102h0m1.6.3a.8.8,0,0,1-.8.8.9.9,0,0,1-.8-.8v-.3a.9.9,0,0,1,.8-.8.8.8,0,0,1,.8.8v.3"/><path d="M210.3,121.8a.9.9,0,0,1-1-.6.8.8,0,0,1,.7-1l37.6-8.5a.9.9,0,0,1,1,.7.8.8,0,0,1-.6.9Z"/><path d="M148.6,42.3a11,11,0,0,0-1.6-5.6,11.2,11.2,0,1,0-9.6,16.8A10.9,10.9,0,0,0,143,52a11.2,11.2,0,0,0,5.6-9.7m.8,0a11.9,11.9,0,0,1-6,10.4,11.3,11.3,0,0,1-6,1.7,11.9,11.9,0,0,1-10.4-6,12,12,0,1,1,20.7-12.1,11.3,11.3,0,0,1,1.7,6"/><path d="M152.7,16.7a.9.9,0,0,1,.8-.9.9.9,0,0,1,.9.9V42.6a.8.8,0,0,1-.9.8.8.8,0,0,1-.8-.8Z"/><path d="M153.8,42.5a.8.8,0,0,1,0,1.1.7.7,0,0,1-1.1.1h.2c-.1,0,.1.1.1.1s.1,0,.1,0h0a.8.8,0,0,1-.8-.9,1.1,1.1,0,0,1,.9-.8h.1s0-.3.5.2m-3.8-.8a.8.8,0,0,1,.4,1.1.8.8,0,0,1-1.1.3h.7c-.1.1.1,0,.1,0h0c0,.1.1-.4.1-.3s-.1-.4-.1-.3v-.2h-.1c.1.1-.1,0-.1,0s0-.1,0-.1.1.1.2.1h2.7a.9.9,0,0,1,1.1.1.8.8,0,0,1-.1,1.2c-.5.4-.4.2-.4.2h-1.9l-1.7-.2h-.5l-.4-.2c0-.1-.1-.2-.2-.4a.9.9,0,0,1,0-.7l.3-.4.3-.2h.8"/><path class="cls-4" d="M117,16.6a.7.7,0,0,1,.8-.8.8.8,0,0,1,.8.8V42a.9.9,0,0,1-.8.8.8.8,0,0,1-.8-.8Z"/><path class="cls-4" d="M117.8,42.8a.8.8,0,0,1-.8-.8.8.8,0,0,1,.8-.9h7.9a.9.9,0,0,1,.9.9.9.9,0,0,1-.9.8Z"/><path class="cls-5" d="M135,38.3a.8.8,0,0,1-.9.7.7.7,0,0,1-.7-.9v-.7a1.3,1.3,0,0,1,.1-.6l.3-.4a.9.9,0,0,1,.7-.1,1,1,0,0,1,.7.4.4.4,0,0,0,.1.3c0,.2.1.4.1.6a20.6,20.6,0,0,1,.7,2.5,14.6,14.6,0,0,1,.5,2l.3,1.6.3,1.4c.2.7.3,1.3.4,1.8a4.3,4.3,0,0,0,.5,1.2c.1.3.1.4.2.5a7.3,7.3,0,0,0,.5.9l.2.3s-.1-.2-.1-.1l-.2-.2H138c.1,0-.2.2-.2.1s-.1.2-.1.2v-.2a2.4,2.4,0,0,0,.3-.7l.4-1.3a17.2,17.2,0,0,1,1.1-2.9l1.3-2.6.6-1.2a11.3,11.3,0,0,1,.7-1.5c0-.2,0-.3.1-.4a1.1,1.1,0,0,1,.1-.5c.1-.2.1-.4.2-.6a.7.7,0,0,1,.8-.5c.5,0,.6.2.7.4l.2.3c0,.2.1.5.1.7a.7.7,0,0,1-.5,1,.8.8,0,0,1-1-.6,1.4,1.4,0,0,1-.2-.6h0s.2.3.2.2.2.2.1.1h.7l.3-.2v-.2c0,.1-.1.2-.1.4a3.9,3.9,0,0,1-.2.6,1.1,1.1,0,0,1-.1.5l-.7,1.6-.6,1.2L141,45.4c-.4.9-.7,1.8-1,2.7a11.2,11.2,0,0,0-.5,1.3,2.4,2.4,0,0,1-.2.8c0,.1-.1.2-.1.3l-.2.3a1.1,1.1,0,0,1-.7.3.7.7,0,0,1-.6-.4l-.2-.2h0l-.7-1.1c-.1-.3-.1-.4-.2-.5a4.9,4.9,0,0,1-.6-1.6,11.6,11.6,0,0,0-.4-1.8c-.1-.5-.2-.9-.3-1.5l-.3-1.6c-.1-.6-.3-1.3-.4-1.9l-.7-2.4c-.1-.2-.1-.4-.2-.5h0c0-.1.2.1.1.1s.2.1.2.1h.2c-.1,0,.5-.1.4,0h.2c-.1,0,.2-.3.2-.2s0-.1,0-.1v.8"/><path d="M336.2,17.9c0-.3.1-.4.4-.4a.4.4,0,0,1,.4.4l.5,190.6a.4.4,0,0,1-.8,0Z"/><path d="M340.1,212.4a3.5,3.5,0,0,0-.5-1.8,3.4,3.4,0,0,0-3-1.8,4.1,4.1,0,0,0-1.8.5,3.7,3.7,0,0,0-1.7,3.1,3.7,3.7,0,0,0,3.5,3.5,3.5,3.5,0,0,0,1.8-.5,3.6,3.6,0,0,0,1.7-3m.8,0a4.4,4.4,0,0,1-2.1,3.7,4.3,4.3,0,0,1-2.2.6,4.2,4.2,0,0,1-3.7-2.2,3.9,3.9,0,0,1-.6-2.1,4.4,4.4,0,0,1,2.1-3.8,4.3,4.3,0,0,1,2.2-.6,4.2,4.2,0,0,1,3.7,2.2,4,4,0,0,1,.6,2.2"/><path d="M340.1,12.7a3.5,3.5,0,0,0-3.5-3.5,4.1,4.1,0,0,0-1.8.5,3.5,3.5,0,0,0-1.7,3,3.4,3.4,0,0,0,.5,1.7,3.4,3.4,0,0,0,3,1.8,3.5,3.5,0,0,0,3.5-3.5m.8,0a4.1,4.1,0,0,1-2.1,3.7,4.3,4.3,0,0,1-2.2.6,4.3,4.3,0,0,1-3.7-2.1,4.3,4.3,0,0,1-.6-2.2,4.4,4.4,0,0,1,2.1-3.8,5.4,5.4,0,0,1,2.2-.5,4.1,4.1,0,0,1,3.7,2.1,4,4,0,0,1,.6,2.2"/><path d="M360.4,128.8a.9.9,0,0,1,.8-.8.8.8,0,0,1,.8.8v83.5a.8.8,0,0,1-.8.8.9.9,0,0,1-.8-.8Z"/><path d="M336.6,213.2a.9.9,0,0,1-.8-.8.9.9,0,0,1,.8-.9h24.6a.8.8,0,0,1,.8.9.8.8,0,0,1-.8.8Z"/><path d="M337.1,212.1a.8.8,0,0,1-.1,1.2.8.8,0,0,1-1.1-.2,2,2,0,0,1-.5-.9v-.3h1c-.1.1,0-.1,0-.1a.4.4,0,0,1-.1.3l-.3,1v.6h0l.3-.2a3,3,0,0,0,1-.7l.4-.5h0s.1.1,0,.1h-.1l-.5.2c-.1,0-.1.1-.1.2v.2h-.1c.1.1-.2-.1-.1-.1s-.2-.1-.1,0h.5a2.6,2.6,0,0,0,.7-1c.1-.2,0-.3,0-.3s0,0-.2-.1h-.8a4.3,4.3,0,0,0-.1.5,1.5,1.5,0,0,0-.1.6c0,.1-.1-.2-.1-.1h.1c0-.1.3-.3.4-.6v-.4c0-.1.1.2.1.1h-.4a2.2,2.2,0,0,0-.9,1v.5h0s-.3-.2-.2-.2h.3a1.5,1.5,0,0,0,.3-.7,1.3,1.3,0,0,0,.1-.5v.2c-.1,0-.1,0-.1-.1h-.6c-.3,0-.6.3-.8.7a.8.8,0,0,0,0,.7h.2a3.8,3.8,0,0,0,1.5-.7l.5-.5h0l-.2-.2h-.6l-.5.5a3.6,3.6,0,0,0-.2,1,.6.6,0,0,0,.1.4h.3a3.1,3.1,0,0,0,1.2-1.1h.1v.2l.2.3h0l-.7.2h-.3c0,.1.1,0,0,0s.1-.2.1-.2-.1-.3-.1-.2,0-.1,0-.1h0a.8.8,0,0,1,.3,1.1.7.7,0,0,1-1.1.3,1.3,1.3,0,0,1-.7-.6,1.4,1.4,0,0,1,.1-1.1,2.1,2.1,0,0,1,1.1-.8,2.8,2.8,0,0,1,1.3-.3h.6a1.3,1.3,0,0,1,.8.7,2.3,2.3,0,0,1-.2,1.2,3.9,3.9,0,0,1-2.4,1.9,1.9,1.9,0,0,1-1.6-.3,2.5,2.5,0,0,1-.8-1.6,4.1,4.1,0,0,1,.5-1.9,2.4,2.4,0,0,1,1.5-1.3,3.3,3.3,0,0,1,1.7.1,2.4,2.4,0,0,1,1,1,1.8,1.8,0,0,1-.1,1.6l-.9.9a3.6,3.6,0,0,1-2.7,1l-.9-.3c-.3-.1-.5-.4-.7-.8a2.8,2.8,0,0,1,.1-1.8,2.3,2.3,0,0,1,2.1-1.7,1.9,1.9,0,0,1,1.3.1,1.3,1.3,0,0,1,1,1,1.9,1.9,0,0,1,0,1.3,2.5,2.5,0,0,1-1.3,1.8,2.2,2.2,0,0,1-1.4.1,1.4,1.4,0,0,1-.7-.6,1.1,1.1,0,0,1-.2-.7,2,2,0,0,1,.1-1.3,3,3,0,0,1,2.2-2h1.1a1.5,1.5,0,0,1,1,.9,2.2,2.2,0,0,1-.1,1.4,2,2,0,0,1-1.5,1.6h-1.2a1.7,1.7,0,0,1-.8-1.2,4.9,4.9,0,0,1,.1-1.2,1.6,1.6,0,0,1,.5-1.1,2.6,2.6,0,0,1,1.1-.7H338a2,2,0,0,1,1.2.9,1.8,1.8,0,0,1,0,1.6,3.2,3.2,0,0,1-1.4,1.9l-1,.4h-.6l-.7-.4a1.3,1.3,0,0,1-.3-1,2.4,2.4,0,0,1,.2-.8l.5-.7a3.1,3.1,0,0,1,1.3-.6,1.4,1.4,0,0,1,1.4.1,1.6,1.6,0,0,1,.6.8,2.1,2.1,0,0,1-.1,1.1,4.4,4.4,0,0,1-.8,1.1l-1.3,1-.8.3h-1a1.9,1.9,0,0,1-.9-1.4v-1a5,5,0,0,1,.4-1.3c.1-.2.1-.4.3-.6l.2-.3a1.1,1.1,0,0,1,.8-.1.9.9,0,0,1,.8.6c.1.3.1.5.2.6v.4"/><path class="cls-4" d="M337.6,12.7a.9.9,0,0,1-1.1.5.9.9,0,0,1-.5-1h-.1a2.8,2.8,0,0,0-.6.9l-.2.5h0l.3-.2a1.9,1.9,0,0,0,.4-.8q.1-.3,0-.3h.1a.4.4,0,0,0-.1.3v.2h.4a4.8,4.8,0,0,0,1.2-1,5.7,5.7,0,0,0,.8-.8h0v-.6h0c-.1-.1.2.3.1.2h-.1a3.7,3.7,0,0,0-1.3,2v.3h.3l.9-.7a.9.9,0,0,0,.3-.5v-.3h0v.2h-1.3a3.1,3.1,0,0,0-.8,1.2v.2h-.1c.1,0-.1-.1,0-.1h.2a3.3,3.3,0,0,0,1.2-1c.2-.2.2-.4.3-.6s.1-.3,0-.4h-.6a2.2,2.2,0,0,0-1.3,1.2V13h.8l-.2.2c.1-.1,0,.1,0,.1h0l-.3-.3H336v.4h-.5a.2.2,0,0,0,.2-.2c.1-.1,0,.2,0,.1h0l.2.2h.5c-.1,0,.1-.2.1-.1v-.4h.2a.8.8,0,0,1,.3,1.1.8.8,0,0,1-1.1.4,2,2,0,0,1-.9-.9,1.4,1.4,0,0,1,.1-1.1,1.2,1.2,0,0,1,.6-.6h.5a1,1,0,0,1,.7.2.9.9,0,0,1,.4.8,1.5,1.5,0,0,1-.2,1.1c-.2.2-.3.4-.6.5a1,1,0,0,1-1.1.3,1.2,1.2,0,0,1-.8-.6,1,1,0,0,1-.2-.9,2.3,2.3,0,0,1,.3-1.1,1.6,1.6,0,0,1,1-.8,1.4,1.4,0,0,1,1.4.1,1.7,1.7,0,0,1,1.2,1.4c0,.1.1.3,0,.5a1.1,1.1,0,0,1-.3.8,1.4,1.4,0,0,1-1,.4,1.4,1.4,0,0,1-.9,0l-.9-.4a1.6,1.6,0,0,1-.7-.9,1.9,1.9,0,0,1,.1-1.3,3.2,3.2,0,0,1,2.6-2.4h1.1a1.8,1.8,0,0,1,1.2.8,1.7,1.7,0,0,1,.1,1.4,3.8,3.8,0,0,1-.6,1.3,4.2,4.2,0,0,1-2.1,1.6,1.7,1.7,0,0,1-1.4-.1,1.5,1.5,0,0,1-.7-.9,3.4,3.4,0,0,1,.1-1,3,3,0,0,1,1.7-2.3,3.9,3.9,0,0,1,1.5-.2l.9.2.5.2a.7.7,0,0,1,.4.6,1.6,1.6,0,0,1,0,1,2.7,2.7,0,0,1-.7,1.3,4.1,4.1,0,0,1-1.3,1,1.8,1.8,0,0,1-1.6.3,1.5,1.5,0,0,1-1-.9,1.9,1.9,0,0,1,0-1.3,4.6,4.6,0,0,1,2.2-3.1l.8-.2a1,1,0,0,1,1,.2,1.5,1.5,0,0,1,.5.8v.3a1.6,1.6,0,0,1,0,1.2,4.9,4.9,0,0,1-1.2,1.3,5.5,5.5,0,0,1-1.7,1.3,2.3,2.3,0,0,1-1.4.1l-.8-.5a2.2,2.2,0,0,1-.5-.8,2.8,2.8,0,0,1,.1-.9,1.8,1.8,0,0,1,1.2-1.5h.7l.9.3a1.4,1.4,0,0,1,.4.9,2.4,2.4,0,0,1,0,1.2,2.9,2.9,0,0,1-1.1,1.6,1.9,1.9,0,0,1-.9.5,2.3,2.3,0,0,1-1.1-.2,1.8,1.8,0,0,1-.8-1.6,2.7,2.7,0,0,1,.3-1.2,5.7,5.7,0,0,1,1-1.3l.6-.4a1.4,1.4,0,0,1,1.1-.1,1.4,1.4,0,0,1,.9.8,1.8,1.8,0,0,1,.2,1.3"/><path class="cls-4" d="M336.6,13.5a.9.9,0,0,1-.8-.8.8.8,0,0,1,.8-.8h24a.7.7,0,0,1,.8.8.8.8,0,0,1-.8.8Z"/><path class="cls-4" d="M359.8,12.7a.8.8,0,0,1,.8-.8.7.7,0,0,1,.8.8v93a.7.7,0,0,1-.8.8.8.8,0,0,1-.8-.8Z"/><path class="cls-5" d="M361.4,114.7a.8.8,0,0,1-.8-.9.7.7,0,0,1,.9-.7H361c.1,0-.1.2-.1.2h0v-.2c0-.1-.1-.2-.5-.3l-1.4-.2a2.2,2.2,0,0,0-1.7.5,2.6,2.6,0,0,0-1.2,1.5c-.5,1.2.1,3,.9,4.4s1.1,1.4,1.7,2.3l.4.8.3.7a3.7,3.7,0,0,0,.2.9,1.8,1.8,0,0,1-.4,1l-.8.5a9,9,0,0,1-1.6.3l-2.7.3-2.2.4a.8.8,0,0,1-.2-1.6l2.1-.4,2.8-.3,1.2-.3h.2c0-.1-.1.2-.1.1a.5.5,0,0,0-.1-.3,1.4,1.4,0,0,0-.2-.6,2.5,2.5,0,0,0-.4-.7c-.3-.6-1-1.3-1.6-2.3s-1.8-3.8-1-5.8a4.6,4.6,0,0,1,1.8-2.3,5.4,5.4,0,0,1,2.8-.8l1.7.3a2.4,2.4,0,0,1,1.5,1.3,3.6,3.6,0,0,1,.2,1.1l-.4.7a1.1,1.1,0,0,1-.8.3"/><path class="cls-5" d="M361.1,113.3a.8.8,0,0,1-1.1.1.9.9,0,0,1-.2-1.2,1.2,1.2,0,0,1,.9-.3h.4l.7.4a4.7,4.7,0,0,1,1.9,3.9,13.8,13.8,0,0,1-.9,4.4,5.3,5.3,0,0,0-.4,1.7,2.8,2.8,0,0,0-.1.9c0,.4,0,.4.1.5h1a12.4,12.4,0,0,0,1.6-.4,3.6,3.6,0,0,1,2.7.1.8.8,0,1,1-.7,1.5,2,2,0,0,0-1.5-.1,5.3,5.3,0,0,1-2,.5,3,3,0,0,1-1.3-.1,2.1,2.1,0,0,1-1.2-.7,2.4,2.4,0,0,1-.3-1.3v-1.2a8.3,8.3,0,0,1,.6-2.1,13.6,13.6,0,0,0,.8-3.8,3.1,3.1,0,0,0-1.3-2.5l-.3-.3h.2c-.1,0,.5-.4.4-.2"/><path class="cls-5" d="M340.9,14.6a1,1,0,0,1-.7,1c-.4,0-.9-.3-.9-.7h0l.2.3.3.2h.6a.8.8,0,1,1-1.2-1.2,1,1,0,0,1,.6-.3.8.8,0,0,1,.8.2.9.9,0,0,1,.3.5"/><path d="M319.7,13.2a2.9,2.9,0,0,0-.4-1.6,3.2,3.2,0,0,0-2.8-1.6,4.2,4.2,0,0,0-1.6.4,3.4,3.4,0,0,0-1.6,2.8,4.2,4.2,0,0,0,.4,1.6,3.2,3.2,0,0,0,2.8,1.6,3.8,3.8,0,0,0,1.6-.4,3.2,3.2,0,0,0,1.6-2.8m.8,0a4,4,0,0,1-2,3.5,4.2,4.2,0,0,1-2,.5,4,4,0,0,1-3.5-2,4.6,4.6,0,0,1-.5-2,4,4,0,0,1,2-3.5,4.6,4.6,0,0,1,2-.5,4,4,0,0,1,3.5,2,4.6,4.6,0,0,1,.5,2"/><path d="M317.5,208.7a.5.5,0,0,1,0,.5.5.5,0,0,1-.6.1l-.2-.3c0-.1.1-.2.1-.3l.4-.2c.2,0,.3.1.4.3s0,.3,0,.4l-.3.5c-.1.2-.4.2-.6.1s-.2-.3-.1-.5l.2-.4h0s.2.3.1.2.2.1.1.1h.6c-.1,0-.1-.2,0-.1s-.1-.2-.1-.1-.1-.2,0-.1"/><path d="M317,209.8a.4.4,0,1,1-.8,0c0-.3.1-.3.1-.3v-.2c.2-.1.5-.1.6.1a.3.3,0,0,1,0,.5h0m-.5-.4a.4.4,0,0,1,.5.2.4.4,0,0,1-.3.6h0c-.3,0-.5-.1-.5-.3s.1-.5.3-.5h0"/><path d="M320.2,212.3a3.7,3.7,0,0,0-.5-1.8,3.5,3.5,0,0,0-3-1.7,3.4,3.4,0,0,0-1.7.5,3.5,3.5,0,0,0-1.7,3,3.4,3.4,0,0,0,.5,1.7,3.4,3.4,0,0,0,6.4-1.7m.8,0a4.3,4.3,0,0,1-4.3,4.2,4.1,4.1,0,0,1-3.6-2.1,3.9,3.9,0,0,1-.6-2.1,4.1,4.1,0,0,1,2.1-3.7,3.9,3.9,0,0,1,2.1-.6,4.3,4.3,0,0,1,3.7,2.1,4.3,4.3,0,0,1,.6,2.2"/><path d="M289,212.8a.4.4,0,0,1-.4-.4.5.5,0,0,1,.4-.5h23.9a.5.5,0,0,1,.4.5.4.4,0,0,1-.4.4Z"/><path d="M289,13.6a.4.4,0,0,1,0-.8h23.9a.4.4,0,1,1,0,.8Z"/><path d="M153,11.5a.4.4,0,0,1-.1.6c-.2.1-.4.1-.5-.1h-.1c-.1-.2,0-.2,0-.2v-.8h.1l-.4.4a2.1,2.1,0,0,0-.2,1.4c0,.2.1.3.1.4l.2.2h.4l.2-.4a1.9,1.9,0,0,0,.2-.8c0-.4,0-.7-.1-.7H152a2.1,2.1,0,0,0-.9,1.1,2.8,2.8,0,0,0,0,1.3q0,.1.3.3l.6.2h.7a2.8,2.8,0,0,0,.6-.8,2.6,2.6,0,0,0,.3-1.1.9.9,0,0,0-.3-.7,1.5,1.5,0,0,0-1.2-.1,1.5,1.5,0,0,0-.8.8,2.5,2.5,0,0,0-.4,1.1.8.8,0,0,0,.2.5l.3.3h.5a4.4,4.4,0,0,0,1.1-1.6,2.6,2.6,0,0,0,.1-1.2.7.7,0,0,0-.6-.7,1.5,1.5,0,0,0-1.1.2,2,2,0,0,0-.8,1.4,1.2,1.2,0,0,0,.2,1.1c0,.1.2.1.4.1a1.1,1.1,0,0,0,.7-.3,3,3,0,0,0,.8-1.7c0-.4,0-.7-.1-.8l-.2-.2h-1.1c-.3.1-.5.4-.7.8a2.7,2.7,0,0,0-.3,1.2,2,2,0,0,0,.1,1.1.7.7,0,0,0,.5.4h.6c.3-.1.7-.6,1.1-1.1a5.5,5.5,0,0,0,.8-1.8c0-.4,0-.6-.2-.7a.9.9,0,0,0-.8-.1,2,2,0,0,0-1.2.9,2.2,2.2,0,0,0-.3,1.6,1.3,1.3,0,0,0,.7,1.2,1.1,1.1,0,0,0,.8.2,3.5,3.5,0,0,0,1.2-.8,3.7,3.7,0,0,0,.7-1.4,2.8,2.8,0,0,0,.1-.8l-.2-.2h-.5a3.1,3.1,0,0,0-1.2.5,1.9,1.9,0,0,0-.6,1.5,1.5,1.5,0,0,0,.5,1.2c.1.2.4.2.7.2a2.7,2.7,0,0,0,1-.6,7.5,7.5,0,0,0,.7-1.2,1.1,1.1,0,0,0,0-.8l-.3-.3-.7-.2a2.1,2.1,0,0,0-1.1.4,2.2,2.2,0,0,0-.5,1.4,1.9,1.9,0,0,0,.2.8.8.8,0,0,0,1.3-.1,3.1,3.1,0,0,0,.5-1c0-.3,0-.5-.1-.6h-.3a2.8,2.8,0,0,0-1,.6,2.8,2.8,0,0,0-.4,1.2v.3h0l.4-.2.5-.6.3-.4h0v.2h0l-.8.6c-.1.2-.4.1-.5,0a.4.4,0,0,1,0-.6,2.6,2.6,0,0,1,1-.7l.3-.2h.5a.6.6,0,0,1,.2.5.4.4,0,0,1-.1.3l-.4.6-.6.7a1.5,1.5,0,0,1-.9.4H152a.8.8,0,0,1-.4-.4,1.1,1.1,0,0,1,0-.6,2.9,2.9,0,0,1,.6-1.7,2.4,2.4,0,0,1,1.5-.9h.5a.9.9,0,0,1,.6.3,1.5,1.5,0,0,1,.2,1.3,3.7,3.7,0,0,1-.7,1.4,1.6,1.6,0,0,1-1.3.6,1.4,1.4,0,0,1-1.2-.6,1.5,1.5,0,0,1-.4-1.3,2.2,2.2,0,0,1,.8-2,2.5,2.5,0,0,1,1.6-.6,2.3,2.3,0,0,1,1.1.3,1.1,1.1,0,0,1,.7.8,2,2,0,0,1-.1,1.3,2.9,2.9,0,0,1-.8,1.4,2.4,2.4,0,0,1-1.4.9,1.7,1.7,0,0,1-1.5-.4,2.4,2.4,0,0,1-.7-1.8,2.7,2.7,0,0,1,.9-2.1,3.3,3.3,0,0,1,1.6-.7h.9a1.6,1.6,0,0,1,.7.7,2.9,2.9,0,0,1-.1,1.3,5.1,5.1,0,0,1-.9,1.8,3.3,3.3,0,0,1-1.7,1,1.7,1.7,0,0,1-1.4-.3,2.4,2.4,0,0,1-1-1.8,2.9,2.9,0,0,1,.4-2.2,2.6,2.6,0,0,1,1.7-1.2,1.8,1.8,0,0,1,1.6.3,1.5,1.5,0,0,1,.4,1.4,4.3,4.3,0,0,1-.9,2.1c-.4.6-.9,1.3-1.6,1.4h-1a1.8,1.8,0,0,1-1-.9,3.3,3.3,0,0,1-.3-1.5,4.4,4.4,0,0,1,.5-1.5,1.8,1.8,0,0,1,1-1.1,2.3,2.3,0,0,1,1.1-.2l.8.2a1.2,1.2,0,0,1,.6.6,1.7,1.7,0,0,1,.1,1.2,3.1,3.1,0,0,1-1.1,2.2,1.6,1.6,0,0,1-1.1.5,1,1,0,0,1-1.1-.4,1.9,1.9,0,0,1-.4-1.7,2.7,2.7,0,0,1,1.3-2.1,3,3,0,0,1,1.6-.2,1.8,1.8,0,0,1,1.2,1.3,3.5,3.5,0,0,1-.2,1.7,3.1,3.1,0,0,1-1.5,2,1.1,1.1,0,0,1-1.1,0,1.8,1.8,0,0,1-.7-.5,1.6,1.6,0,0,1-.3-.9,3,3,0,0,1,.5-1.6,2,2,0,0,1,1.3-1.2,2.1,2.1,0,0,1,1.9.2,1.7,1.7,0,0,1,.6,1.4A2.5,2.5,0,0,1,154,14a2.7,2.7,0,0,1-.9,1.2,2.5,2.5,0,0,1-1.2.2l-.9-.3a1.6,1.6,0,0,1-.7-.9,2.5,2.5,0,0,1,0-1.7,2.7,2.7,0,0,1,1.4-1.7,1.4,1.4,0,0,1,.9-.1,1.1,1.1,0,0,1,.7.3,1.4,1.4,0,0,1,.4,1.4,3.6,3.6,0,0,1-.2,1,1,1,0,0,1-.7.8,1.2,1.2,0,0,1-1,0l-.6-.5a2.4,2.4,0,0,1-.2-.8,2.8,2.8,0,0,1,.4-2,1.2,1.2,0,0,1,.7-.7h.5a.5.5,0,0,1,.5.3,2,2,0,0,1,.1.7c0,.2-.1.3-.1.4H153m-.6,0c.1-.2.3-.2.5-.1a.5.5,0,0,1,.2.6h-.2a.5.5,0,0,1-.6-.2.4.4,0,0,1,.2-.5h-.1c.1,0,0,.1,0,.1"/><path class="cls-4" d="M119.2,12a.5.5,0,0,1-.4-.5c.1-.2.3-.4.5-.3H119c0-.1-.1.1-.1.1h-.1v-.2s.1,0,0,.1h.1c-.1,0-.1.2-.2.3l-.3,1.1a3.1,3.1,0,0,0,.1,1.4c.1.2.2.2.3.2a.4.4,0,0,0,.3-.2,1.8,1.8,0,0,0,.5-.7,3.1,3.1,0,0,0,.1-.9c0-.1-.1-.2-.3-.2h-.6a1.1,1.1,0,0,0-.9.5,2.2,2.2,0,0,0-.3,1,.7.7,0,0,0,.4.5h.5a3.6,3.6,0,0,0,.9-1.4,2.5,2.5,0,0,0,.1-1.2.8.8,0,0,0-.2-.4h-.5a1.2,1.2,0,0,0-1,.5,1.8,1.8,0,0,0-.5,1.5v.9h.4l.4-.2a3.9,3.9,0,0,0,.9-1.7,1.9,1.9,0,0,0,.1-1c0-.1-.1-.2-.1-.3h-.4a4.9,4.9,0,0,0-.7,1.6,2.1,2.1,0,0,0,.2,1.5h.3c.1,0,.4-.3.7-.7a5.8,5.8,0,0,0,.5-1.4q.1-.5,0-.6l-.2-.2h-.4a1.6,1.6,0,0,0-1,.5,2.1,2.1,0,0,0-.6,1.6,1.6,1.6,0,0,0,0,.7l.3.3c.1,0,.3.1.5,0a2.8,2.8,0,0,0,1.3-1.5,1.8,1.8,0,0,0,.2-1,.6.6,0,0,0-.1-.4,1.7,1.7,0,0,0-1-.3l-.8.2c-.4.2-.6.8-.7,1.5a2.4,2.4,0,0,0,.3,1.2.9.9,0,0,0,.8.5.6.6,0,0,0,.7-.2,3.4,3.4,0,0,0,.7-1.7,2.8,2.8,0,0,0-.1-1,.9.9,0,0,0-.7-.3h-.8a2.8,2.8,0,0,0-.9,1.7,1.6,1.6,0,0,0,.4,1.5h.5l.5-.2a2.9,2.9,0,0,0,.7-1,2.4,2.4,0,0,0,.4-1.6.7.7,0,0,0-.4-.6h-.8c-.5.1-1,.8-1.2,1.4a1.4,1.4,0,0,0,0,.9,1,1,0,0,0,.4.5h.6a2.7,2.7,0,0,0,1.1-1.4,1.4,1.4,0,0,0,.2-1l-.2-.2H119a2,2,0,0,0-1,.2,2.6,2.6,0,0,0-1,1.4,1.1,1.1,0,0,0,0,.8l.3.2.7.2a2.4,2.4,0,0,0,1.2-.5,3.1,3.1,0,0,0,.9-1.1,1.9,1.9,0,0,0,.1-.8c0-.2-.1-.3-.1-.4l-.5-.2h-.7l-.9.2-.4.4a2.2,2.2,0,0,0-.1.8,1.4,1.4,0,0,0,0,.9l.4.3.6.2c.2.1.3,0,.4-.1a3.2,3.2,0,0,0,.5-1.4,1.3,1.3,0,0,0-.1-.9c0-.1-.3-.2-.6-.2l-.8.2a3,3,0,0,0-.8,1.8,2.9,2.9,0,0,0,.2.9l.7.5a1.3,1.3,0,0,0,1.1-.3A2.8,2.8,0,0,0,120,12v-.2l-.3-.2a1.6,1.6,0,0,0-.9.3,1.7,1.7,0,0,0-.6,1.4c0,.3.1.5.3.5h.4c.3,0,.7-.6,1-1a1.8,1.8,0,0,0,.1-.5h-.3l-.6.6-.2.4h0c.2-.1.5-.2.6-.4h.1V13h.1c-.1-.1.1.1,0,.1h0c0,.2-.3.4-.5.4s-.4-.3-.3-.5a.9.9,0,0,1,.3-.6l.4-.2h.5l.3.2c0,.2.1.3,0,.4s-.2.4-.3.6l-.8.5h-.8l-.3-.2c-.2-.3-.1-.5-.1-.8a5.9,5.9,0,0,1,.4-.8l.7-.6.4-.3h.6a.8.8,0,0,1,.5.5,1.1,1.1,0,0,1-.1,1.1,2.6,2.6,0,0,1-1.4,1.5H118a1.6,1.6,0,0,1-.7-1.3,2.5,2.5,0,0,1,.9-2.1,2.8,2.8,0,0,1,1.5-.4l.7.4a1,1,0,0,1,.4.7,3.5,3.5,0,0,1-1.2,3.1,2.4,2.4,0,0,1-1.8.4,1.5,1.5,0,0,1-1.1-.8,2.1,2.1,0,0,1-.4-1.5,3.1,3.1,0,0,1,1.2-2.4,3.1,3.1,0,0,1,1.3-.3,1.8,1.8,0,0,1,1.3.6,2.3,2.3,0,0,1,.1,1.4,2.5,2.5,0,0,1-.7,1.9,1.3,1.3,0,0,1-1.2.3l-.9-.3a1.3,1.3,0,0,1-.6-.8,2.3,2.3,0,0,1-.2-1.1,4.5,4.5,0,0,1,.3-1.1,1.3,1.3,0,0,1,.7-.8,2.8,2.8,0,0,1,1.3-.3h1a1.6,1.6,0,0,1,.8.6,1.1,1.1,0,0,1,.3.8,2.7,2.7,0,0,1-.2,1.2,3.1,3.1,0,0,1-1.2,1.4,2.7,2.7,0,0,1-1.7.6l-.9-.2a1.1,1.1,0,0,1-.7-.6,2.6,2.6,0,0,1-.1-1.5,3.5,3.5,0,0,1,1.5-1.9,3.2,3.2,0,0,1,1.4-.2l.7.2.6.6a2.6,2.6,0,0,1-.2,1.7,3,3,0,0,1-1.6,1.7,1.1,1.1,0,0,1-1.1,0,1.5,1.5,0,0,1-1-.9,2.2,2.2,0,0,1,0-1.4,2.7,2.7,0,0,1,1.7-2h1.4a1.9,1.9,0,0,1,1,1.4,4.9,4.9,0,0,1-.5,2,4.5,4.5,0,0,1-1,1.3,1.6,1.6,0,0,1-.9.3,1.5,1.5,0,0,1-1.1-.2,2.3,2.3,0,0,1-.7-2.3,3.4,3.4,0,0,1,1.3-2.3,2,2,0,0,1,1.3-.2,1.4,1.4,0,0,1,1.3.7,2.2,2.2,0,0,1,.2,1.6,3.3,3.3,0,0,1-.9,2.1,1.8,1.8,0,0,1-1.4.4,1.9,1.9,0,0,1-1.5-.9,4.7,4.7,0,0,1-.3-1.7,2.5,2.5,0,0,1,1.1-2.1,1.8,1.8,0,0,1,1.2-.3,1.9,1.9,0,0,1,1.6.6,1.1,1.1,0,0,1,.3.7,3,3,0,0,1-.2,1.6,3.5,3.5,0,0,1-1.9,1.9,1.4,1.4,0,0,1-1.1-.1,1.3,1.3,0,0,1-.6-.7,3.6,3.6,0,0,1-.2-1,3.2,3.2,0,0,1,1-2.2,2.1,2.1,0,0,1,1.5-.7l.8.2.6.5a2.4,2.4,0,0,1,0,1.2,5.2,5.2,0,0,1-.6,1.6,2.1,2.1,0,0,1-1.2,1.1h-.6a.7.7,0,0,1-.6-.3,3.1,3.1,0,0,1-.3-2.2,3.1,3.1,0,0,1,1.1-2.1,1.2,1.2,0,0,1,1-.1c.2,0,.3.2.5.3a1.4,1.4,0,0,1,.2.6,2.7,2.7,0,0,1-.1,1.5,4.9,4.9,0,0,1-1.1,2,1.6,1.6,0,0,1-1.1.5l-.7-.2c-.2-.2-.5-.4-.5-.7a2.7,2.7,0,0,1,0-.9,2.8,2.8,0,0,1,.7-2.1,1.7,1.7,0,0,1,1.6-.7,1.7,1.7,0,0,1,1,.3,1.9,1.9,0,0,1,.5.9,3,3,0,0,1-.2,1.6,2.7,2.7,0,0,1-1.3,1.9,1.7,1.7,0,0,1-1,0,1.4,1.4,0,0,1-1-1.2,2.1,2.1,0,0,1,.5-1.5,1.7,1.7,0,0,1,1.4-.9,2.2,2.2,0,0,1,1.1.1,1.4,1.4,0,0,1,.7.8,2.2,2.2,0,0,1-.2,1.4,2.1,2.1,0,0,1-.6,1,1.3,1.3,0,0,1-.9.5c-.4-.1-.9-.3-1-.8a3.6,3.6,0,0,1-.2-1.8l.3-1.3.3-.5a1,1,0,0,1,.5-.4.9.9,0,0,1,.7.3.8.8,0,0,1,.2.4v.4a.4.4,0,0,1-.4.3"/><path d="M288.9,208.7c.1.2-.1.4-.3.5a.5.5,0,0,1-.5-.4h0l-.2-.2h-.8c0,.1-.2.2-.4.4a2.7,2.7,0,0,0-.7,2.5c.1.5.6.9,1,1.5a5.9,5.9,0,0,1,.7,1.6,1.3,1.3,0,0,1,.1.6,2.1,2.1,0,0,1,0,.8c-.1.2-.3.4-.4.4l-.4.2a2.9,2.9,0,0,1-2.6-.3.4.4,0,0,1-.1-.6.5.5,0,0,1,.6,0,3.3,3.3,0,0,0,1.8.1h.3c.1,0,0-.2,0-.5a.8.8,0,0,0-.1-.4,5.9,5.9,0,0,0-.6-1.4c-.3-.5-.9-.9-1.1-1.7a3.5,3.5,0,0,1,.9-3.3l.8-.6a1.6,1.6,0,0,1,1.2.1l.5.2a.5.5,0,0,1,.3.5"/><path d="M289,9.9c.2.1.2.4,0,.6h-.6c-.2-.2-.3-.3-.5-.3h-.4a1.9,1.9,0,0,0-.9.9,3.1,3.1,0,0,0-.1,2.1l.2.3a7.2,7.2,0,0,1,1.8,2.1,2.1,2.1,0,0,1,.2,1.3,2.2,2.2,0,0,1-.5,1.1c-.5.4-1.1.3-1.6.4a1.6,1.6,0,0,0-1.4.6.5.5,0,0,1-.6,0c-.1-.1-.2-.4,0-.5a2.8,2.8,0,0,1,1.9-1h1.1a1.1,1.1,0,0,0,.3-.6,1.9,1.9,0,0,0-.1-.8,14,14,0,0,0-1.7-2,1.1,1.1,0,0,1-.3-.5,3.1,3.1,0,0,1,1.4-4.1,1.3,1.3,0,0,1,.9-.1,1.4,1.4,0,0,1,.9.5"/></g></svg>