<?xml version="1.0" encoding="utf-8"?>
<!-- Generator: Adobe Illustrator 26.0.2, SVG Export Plug-In . SVG Version: 6.00 Build 0)  -->
<svg version="1.1" id="Ebene_1" xmlns="http://www.w3.org/2000/svg" xmlns:xlink="http://www.w3.org/1999/xlink" x="0px" y="0px"
	 viewBox="0 0 303.7 209.1" style="enable-background:new 0 0 303.7 209.1;" xml:space="preserve">
<style type="text/css">
	.st0{clip-path:url(#SVGID_00000169519022808366286450000015502027370197110962_);}
	.st1{clip-path:url(#SVGID_00000026156902764762637840000012526433035893807028_);}
	.st2{opacity:0;clip-path:url(#SVGID_00000150064790899539649280000014065702187696959161_);}
	.st3{clip-path:url(#SVGID_00000170980157126454277330000016108070201940347550_);}
	.st4{font-family:'.SFUI-Regular_wdth_opsz110000_GRAD_wght24E0000';}
	.st5{font-size:15.0492px;}
	.st6{clip-path:url(#SVGID_00000053523041068614540760000006029011395772546466_);}
	.st7{clip-path:url(#SVGID_00000053523041068614540760000006029011395772546466_);fill:#ED3624;}
</style>
<g>
	<defs>
		<rect id="SVGID_1_" width="303.7" height="209.1"/>
	</defs>
	<clipPath id="SVGID_00000181792758775949015940000005254271478107529639_">
		<use xlink:href="#SVGID_1_"  style="overflow:visible;"/>
	</clipPath>
	<g style="clip-path:url(#SVGID_00000181792758775949015940000005254271478107529639_);">
		<defs>
			<rect id="SVGID_00000084526676988377011850000005505096427234192316_" width="303.7" height="209.1"/>
		</defs>
		<clipPath id="SVGID_00000068657675804624595070000007154562015148893627_">
			<use xlink:href="#SVGID_00000084526676988377011850000005505096427234192316_"  style="overflow:visible;"/>
		</clipPath>
		<g style="clip-path:url(#SVGID_00000068657675804624595070000007154562015148893627_);">
			<g>
				<defs>
					<rect id="SVGID_00000047757300308207839540000002713342423523145904_" x="112.8" y="42" width="9.5" height="24.1"/>
				</defs>
				<clipPath id="SVGID_00000164484869512308725880000009978526820020091067_">
					<use xlink:href="#SVGID_00000047757300308207839540000002713342423523145904_"  style="overflow:visible;"/>
				</clipPath>
				<g style="opacity:0;clip-path:url(#SVGID_00000164484869512308725880000009978526820020091067_);">
					<g>
						<defs>
							<rect id="SVGID_00000015356514817413176000000016786301546350141832_" x="112.8" y="42" width="9.5" height="24.1"/>
						</defs>
						<clipPath id="SVGID_00000088852651314705019080000015995285291523786380_">
							<use xlink:href="#SVGID_00000015356514817413176000000016786301546350141832_"  style="overflow:visible;"/>
						</clipPath>
						<g style="clip-path:url(#SVGID_00000088852651314705019080000015995285291523786380_);">
							<text transform="matrix(1 0 0 1 112.7725 54.9601)" class="st4 st5">0</text>
						</g>
					</g>
				</g>
			</g>
		</g>
	</g>
	<g style="clip-path:url(#SVGID_00000181792758775949015940000005254271478107529639_);">
		<defs>
			<rect id="SVGID_00000121260081127320602480000012897807101422123195_" width="303.7" height="209.1"/>
		</defs>
		<clipPath id="SVGID_00000097480088103493842180000008144972810690727598_">
			<use xlink:href="#SVGID_00000121260081127320602480000012897807101422123195_"  style="overflow:visible;"/>
		</clipPath>
		<path style="clip-path:url(#SVGID_00000097480088103493842180000008144972810690727598_);" d="M1.4,114c-0.8,0-1.4-0.6-1.4-1.4
			c0-0.8,0.6-1.4,1.4-1.4h142.6c0.8,0,1.4,0.6,1.4,1.4c0,0.8-0.6,1.4-1.4,1.4H1.4z"/>
		<path style="clip-path:url(#SVGID_00000097480088103493842180000008144972810690727598_);" d="M1.4,209.1c-0.8,0-1.4-0.6-1.4-1.4
			c0-0.8,0.6-1.4,1.4-1.4h142.6c0.8,0,1.4,0.6,1.4,1.4c0,0.8-0.6,1.4-1.4,1.4H1.4z"/>
		<path style="clip-path:url(#SVGID_00000097480088103493842180000008144972810690727598_);" d="M144.7,208.8
			c-0.6,0.4-1.5,0.2-1.9-0.4c-0.4-0.6-0.2-1.5,0.4-1.9l47.5-31.7c0.6-0.4,1.5-0.2,1.9,0.4c0.4,0.6,0.2,1.5-0.4,1.9L144.7,208.8z"/>
		<path style="clip-path:url(#SVGID_00000097480088103493842180000008144972810690727598_);" d="M143.2,113.8
			c-0.6-0.4-0.8-1.3-0.4-1.9c0.4-0.6,1.3-0.8,1.9-0.4l47.5,31.7c0.6,0.4,0.8,1.3,0.4,1.9c-0.4,0.6-1.3,0.8-1.9,0.4L143.2,113.8z"/>
		<path style="clip-path:url(#SVGID_00000097480088103493842180000008144972810690727598_);" d="M191.4,145.7
			c-0.8,0-1.4-0.6-1.4-1.4c0-0.8,0.6-1.4,1.4-1.4h110.9c0.8,0,1.4,0.6,1.4,1.4c0,0.8-0.6,1.4-1.4,1.4H191.4z"/>
		<path style="clip-path:url(#SVGID_00000097480088103493842180000008144972810690727598_);" d="M192,177.3c-0.8,0-1.4-0.6-1.4-1.4
			s0.6-1.4,1.4-1.4h0h0.8h0.4c0.8,0,1.4,0.6,1.4,1.4s-0.6,1.4-1.4,1.4h-0.6c-0.8,0-1.4-0.6-1.4-1.4s0.6-1.4,1.4-1.4h0.6
			c0.8,0,1.4,0.6,1.4,1.4s-0.6,1.4-1.4,1.4h-0.8c-0.8,0-1.4-0.6-1.4-1.4s0.6-1.4,1.4-1.4h0.7h0.1c0.8,0,1.4,0.6,1.4,1.4
			s-0.6,1.4-1.4,1.4h-0.8c-0.8,0-1.4-0.6-1.4-1.4s0.6-1.4,1.4-1.4h0.7h0.1c0.8,0,1.4,0.6,1.4,1.4s-0.6,1.4-1.4,1.4h-0.6
			c-0.8,0-1.4-0.6-1.4-1.4s0.6-1.4,1.4-1.4h0.7c0,0,0.1,0,0.3,0c0.8,0.1,1.3,0.7,1.2,1.5c-0.1,0.8-0.7,1.3-1.5,1.2
			c-0.2,0,0.3,0,0.3,0c0,0-0.2,0.1-0.5,0.1c-0.7,0.2-1.5-0.3-1.6-1c-0.2-0.7,0.3-1.5,1-1.6c0.2,0,0.2-0.2,1-0.2l-0.2,2.7
			c-0.1,0,0.1,0-0.1,0h-0.7c-0.8,0-1.4-0.6-1.4-1.4s0.6-1.4,1.4-1.4h0.6c0.8,0,1.4,0.6,1.4,1.4s-0.6,1.4-1.4,1.4h-0.1h-0.7
			c-0.8,0-1.4-0.6-1.4-1.4s0.6-1.4,1.4-1.4h0.8c0.8,0,1.4,0.6,1.4,1.4s-0.6,1.4-1.4,1.4h-0.1h-0.7c-0.8,0-1.4-0.6-1.4-1.4
			s0.6-1.4,1.4-1.4h0.8c0.8,0,1.4,0.6,1.4,1.4s-0.6,1.4-1.4,1.4h-0.6c-0.8,0-1.4-0.6-1.4-1.4s0.6-1.4,1.4-1.4h0.6
			c0.8,0,1.4,0.6,1.4,1.4s-0.6,1.4-1.4,1.4h-0.4H192L192,177.3z M192.2,174.5c0.8,0,1.4,0.6,1.4,1.4s-0.6,1.4-1.4,1.4h-0.1
			c-0.8,0-1.4-0.6-1.4-1.4s0.6-1.4,1.4-1.4H192.2"/>
		<path style="clip-path:url(#SVGID_00000097480088103493842180000008144972810690727598_);" d="M191.4,177.4
			c-0.8,0-1.4-0.6-1.4-1.4c0-0.8,0.6-1.4,1.4-1.4h110.9c0.8,0,1.4,0.6,1.4,1.4c0,0.8-0.6,1.4-1.4,1.4H191.4z"/>
		<path style="clip-path:url(#SVGID_00000097480088103493842180000008144972810690727598_);" d="M126.7,48.9
			c0-8.5-2.3-16.4-6.3-23.2c-8-13.7-22.9-22.9-39.9-22.9C72.1,2.7,64.1,5,57.3,9c-13.7,8-22.9,22.9-22.9,39.9
			c0,8.5,2.3,16.4,6.3,23.2C48.7,85.8,63.6,95,80.6,95c8.5,0,16.4-2.3,23.2-6.3C117.5,80.8,126.7,65.9,126.7,48.9 M129.5,48.9
			c0,18-9.7,33.8-24.3,42.2c-7.2,4.2-15.6,6.6-24.6,6.6c-18,0-33.8-9.7-42.2-24.3c-4.2-7.2-6.6-15.6-6.6-24.6
			c0-18,9.7-33.8,24.3-42.2C63.2,2.4,71.6,0,80.6,0c18,0,33.8,9.7,42.2,24.3C127,31.5,129.5,39.9,129.5,48.9"/>
		<path style="clip-path:url(#SVGID_00000097480088103493842180000008144972810690727598_);" d="M266.3,48.7c0-2.6-0.7-5-1.9-7.1
			c-2.4-4.2-6.9-7-12.1-7c-2.6,0-5,0.7-7.1,1.9c-4.2,2.4-7,6.9-7,12.1c0,2.6,0.7,5,1.9,7.1c2.4,4.2,6.9,7,12.1,7
			c2.6,0,5-0.7,7.1-1.9C263.5,58.4,266.3,53.9,266.3,48.7 M269.1,48.7c0,6.2-3.3,11.6-8.3,14.5c-2.5,1.4-5.4,2.3-8.4,2.3
			c-6.2,0-11.6-3.3-14.5-8.3c-1.4-2.5-2.3-5.4-2.3-8.4c0-6.2,3.3-11.6,8.3-14.5c2.5-1.4,5.4-2.3,8.4-2.3c6.2,0,11.6,3.3,14.5,8.3
			C268.2,42.7,269.1,45.6,269.1,48.7"/>
		<path style="clip-path:url(#SVGID_00000097480088103493842180000008144972810690727598_);fill:#ED3624;" d="M80.1,8.8
			c0.7,0.3,1,1.1,0.7,1.8c-0.3,0.7-1.1,1-1.8,0.7c0,0-0.1,0-0.2,0.1c-0.2,0.1-0.4,0.3-0.5,0.6c-0.2,0.3-0.2,0.9-0.2,1.3
			c0,0.4,0.3,0.7,0.7,0.9c0.3,0.1,0.5,0.1,0.8,0.1c0.5-0.1,1.6-1.2,2.3-2.4c0.5-0.7,0.7-1.5,0.7-2c0-0.2,0-0.3,0-0.4
			c0,0,0.1,0.3,0.1,0.2c-0.1-0.1,0.1,0-0.2,0c-0.3-0.1-0.7-0.1-1.1,0c-0.9,0.1-1.6,0.6-1.6,0.6c-0.4,0.6-1.2,0.8-1.9,0.4
			c-0.6-0.4-0.8-1.2-0.4-1.9c0.8-1.3,2.3-1.7,3.7-1.8c0.7-0.1,1.4-0.1,2.1,0.1c0.7,0.2,1.4,0.5,1.9,1.3c0.4,0.7,0.3,1.4,0.3,1.8
			c-0.1,1-0.5,2.2-1.1,3.3c-0.9,1.5-2.1,3.1-4,3.6c-0.9,0.2-1.8,0.1-2.4-0.2c-1.3-0.5-2.3-1.7-2.4-3.1c-0.1-0.9,0-1.9,0.4-2.8
			c0.4-0.8,0.9-1.4,1.6-1.9C78.2,8.5,79.2,8.4,80.1,8.8"/>
		<path style="clip-path:url(#SVGID_00000097480088103493842180000008144972810690727598_);fill:#ED3624;" d="M106.6,19.5
			c0.7,0.3,0.9,1.2,0.6,1.8c-0.3,0.7-1.2,0.9-1.8,0.6c-0.1-0.1,0.1,0,0,0c-0.1,0-0.3,0-0.4,0.1c-0.5,0.2-1.3,1.2-1.7,2.3
			c-0.4,0.9-0.5,1.7-0.4,2.2c0.1,0.4,0.4,0.8,0.8,0.9c0.2,0.1,0.4,0.1,0.6,0.1c0.2,0,0.4-0.1,0.7-0.4c0.4-0.4,0.9-1.1,1.3-1.9
			c0.4-0.7,0.6-1.6,0.7-2.2c0.1-0.5,0.1-0.5,0.1-0.6c-0.1-0.1,0.1,0.1-0.1,0c-0.3-0.1-0.7-0.1-1.2-0.1c-1,0.1-2,0.5-2.1,0.6
			c-0.6,0.5-1.4,0.4-1.9-0.1c-0.5-0.6-0.4-1.4,0.1-1.9c1-0.9,2.3-1.2,3.8-1.2c0.7,0,1.4,0,2.1,0.2c0.7,0.2,1.5,0.7,1.9,1.5
			c0.3,0.8,0.2,1.5,0.1,2.1c-0.1,1-0.4,2-1,3.1c-0.5,1-1.1,2-2,2.8c-0.6,0.5-1.2,0.9-2,1c-0.7,0.1-1.4,0-2.1-0.2
			c-1.2-0.5-2.2-1.5-2.5-2.9c-0.3-1.3,0-2.6,0.5-3.8c0.6-1.5,1.5-3,3.1-3.8C104.7,19.2,105.6,19,106.6,19.5"/>
		<path style="clip-path:url(#SVGID_00000097480088103493842180000008144972810690727598_);fill:#ED3624;" d="M118.1,41.7
			c0.6,0.4,0.7,1.3,0.3,1.9c-0.4,0.6-1.3,0.7-1.9,0.3c-0.1-0.1,0.5,0.1,0.4,0.1c-0.1,0,0.1,0,0.1,0c-0.1,0-0.3,0.2-0.5,0.4
			c-0.5,0.5-1,1.3-1.2,2.1c-0.1,0.5-0.2,0.9-0.1,1.2c0,0.2,0.2,0.4,0.4,0.5c0.2,0.2,0.6,0.3,1,0.2c0.4,0,1-0.3,1.6-1
			c0.4-0.4,0.8-1.1,1.2-1.8c0.4-0.7,0.5-1.4,0.5-1.9c0-0.2,0-0.3-0.1-0.4c0,0,0,0-0.1-0.1c-0.8-0.3-3.3,0.2-3.9,0.6
			c-0.6,0.5-1.5,0.3-1.9-0.3c-0.5-0.6-0.3-1.5,0.3-1.9c0.8-0.6,1.9-1,3-1.2c1.2-0.2,2.4-0.3,3.6,0.2c0.6,0.3,1.1,0.7,1.4,1.3
			c0.3,0.6,0.4,1.2,0.4,1.8c0,1-0.3,2-0.9,3.1c-0.4,0.8-0.9,1.6-1.6,2.4c-0.9,1-2.1,1.7-3.4,1.8c-1,0.1-1.9-0.2-2.7-0.7
			c-0.8-0.5-1.4-1.3-1.6-2.3c-0.2-0.8-0.1-1.7,0.1-2.6c0.4-1.2,1.1-2.4,1.9-3.2c0.4-0.4,0.8-0.8,1.4-1
			C116.6,41.2,117.5,41.2,118.1,41.7"/>
		<path style="clip-path:url(#SVGID_00000097480088103493842180000008144972810690727598_);fill:#ED3624;" d="M106.6,68.4
			c0.7,0.3,1,1.1,0.7,1.8c-0.3,0.7-1.1,1-1.8,0.7c0,0,0.4,0,0.3,0c-0.1,0,0.4-0.1,0.3-0.1c-0.1,0,0.1-0.1,0.1-0.1c0,0,0,0,0,0.1
			c-0.1,0.2-0.3,0.8-0.4,1.5c-0.1,0.8-0.1,1.6,0,1.9c0.1,0.2,0.3,0.4,0.5,0.6c0.2,0.1,0.3,0.1,0.3,0.1c0,0,0.5-0.4,1-1
			c0.3-0.5,0.6-1.2,0.7-1.9c0.1-0.4,0.1-0.6,0-0.6c0,0,0,0,0,0c-0.2-0.1-1.1-0.1-2.5,0.3c-0.7,0.2-1.5-0.1-1.7-0.9
			c-0.2-0.7,0.1-1.5,0.9-1.7c1.8-0.6,3.3-0.8,4.6-0.2c0.7,0.3,1.2,0.9,1.4,1.6c0.2,0.7,0.2,1.4,0,2.1c-0.2,0.8-0.5,1.9-1.1,2.8
			c-0.6,1-1.4,2-2.8,2.2c-0.7,0.1-1.4,0-1.9-0.3c-0.9-0.4-1.8-1.2-2.1-2.3c-0.3-1.1-0.1-2.1,0-3c0.1-0.8,0.3-1.7,0.7-2.4
			c0.2-0.4,0.5-0.8,1-1.1C105.3,68.1,106.1,68.1,106.6,68.4"/>
		<path style="clip-path:url(#SVGID_00000097480088103493842180000008144972810690727598_);fill:#ED3624;" d="M76.3,78.7
			c0.7,0.1,1.2,0.8,1.1,1.6c-0.1,0.7-0.8,1.2-1.6,1.1c-0.2,0,0.9-0.2,0.7-0.1c-0.2,0.1,0.3-0.3,0.3-0.2c-0.1,0.1,0,0,0,0.1
			c-0.1,0.3-0.1,0.9-0.1,1.4c0,0.6,0,1,0.1,1.1c0,0.1,0.4,0.4,0.9,0.5c0.3,0.1,0.5,0,0.6,0c0.2-0.1,0.8-0.9,1.1-1.8
			c0.1-0.4,0.1-0.6,0.1-0.7c0,0,0,0,0,0c-0.1-0.1-0.3-0.1-0.5-0.2c-0.6-0.1-1.4-0.1-2.1,0.2c-0.7,0.2-1.5-0.1-1.7-0.9
			c-0.2-0.7,0.1-1.5,0.9-1.7c1.2-0.4,2.4-0.5,3.5-0.3c0.6,0.1,1.1,0.3,1.6,0.7c0.5,0.4,0.9,0.9,1.1,1.6c0.2,0.8,0.1,1.5-0.1,2.2
			c-0.4,1.2-1,2.7-2.5,3.4C78.5,87,77.7,87,77,86.8c-1.1-0.2-2.3-0.9-2.8-2.2c-0.3-0.8-0.2-1.5-0.2-2.1c0-0.7,0.1-1.4,0.2-2.1
			c0.1-0.3,0.2-0.7,0.5-1c0.1-0.2,0.3-0.4,0.6-0.5C75.5,78.7,75.9,78.6,76.3,78.7"/>
		<path style="clip-path:url(#SVGID_00000097480088103493842180000008144972810690727598_);fill:#ED3624;" d="M52.6,66.4
			c0.7,0.2,1.1,1,0.9,1.7c-0.2,0.7-1,1.1-1.7,0.9c-0.2-0.1,0.8-0.1,0.6,0c-0.2,0.1,0.4-0.3,0.4-0.2c-0.1,0.1,0.1-0.1,0,0
			c-0.1,0.3-0.2,0.9-0.2,1.5c0,0.7-0.1,1.3,0,1.7c0.1,0.4,0.4,0.7,0.7,0.8c0.2,0.1,0.3,0.1,0.4,0.1c0.2-0.1,1.1-1,1.8-2.1
			c0.4-0.7,0.8-1.5,1-2.1c0.1-0.3,0.1-0.3,0.1-0.4c0-0.1,0.1,0.1,0,0.1c-0.5-0.1-1.7-0.1-3.4,0.2c-0.7,0.1-1.5-0.3-1.6-1.1
			c-0.1-0.7,0.3-1.5,1.1-1.6c1.9-0.4,3.4-0.6,4.8-0.2c0.7,0.2,1.4,0.7,1.7,1.4c0.3,0.7,0.3,1.5,0,2.3c-0.3,0.9-0.7,1.8-1.3,2.8
			c-0.8,1.3-1.7,2.8-3.4,3.2c-0.7,0.2-1.4,0.1-1.9-0.1c-1.2-0.4-2.2-1.4-2.5-2.9c-0.2-0.9-0.1-1.7,0-2.4c0.1-0.8,0.2-1.6,0.4-2.2
			c0.1-0.3,0.3-0.7,0.6-1C51.2,66.5,51.9,66.2,52.6,66.4"/>
		<path style="clip-path:url(#SVGID_00000097480088103493842180000008144972810690727598_);fill:#ED3624;" d="M46.9,33.1
			c0.8-0.1,1.4,0.5,1.5,1.2c0.1,0.8-0.5,1.4-1.2,1.5c-0.2,0,0.5-0.2,0.4-0.1c-0.1,0,0.1-0.1,0.1-0.1c0,0-0.1,0.2-0.2,0.4
			c-0.2,0.4-0.3,1.1-0.3,1.6c0,0.4,0.1,0.8,0.1,0.9c0,0.1-0.1-0.1,0,0c0.1,0.1,0.3,0.1,0.6,0.1c0.4,0,0.6,0,0.6,0
			c0.7-0.2,2.2-2.2,2.7-3.7c0.1-0.4,0.2-0.7,0.1-0.9c0,0,0,0-0.1-0.1c-0.1-0.1-0.4-0.2-0.8-0.3c-0.7-0.2-1.7-0.2-2.7,0
			c-0.7,0.1-1.2,0.2-1.4,0.3c-0.6,0.4-1.5,0.3-1.9-0.3c-0.4-0.6-0.3-1.5,0.3-1.9c0.9-0.7,1.9-0.7,2.6-0.8c1.1-0.1,2.5-0.3,3.8,0.1
			c0.6,0.2,1.2,0.4,1.7,0.8c0.5,0.4,1,1,1.1,1.8c0.1,0.8,0,1.5-0.2,2.2c-0.7,2.2-2.1,4.7-4.5,5.5c-0.8,0.3-1.4,0.1-1.8,0.1
			c-0.5,0-1-0.2-1.5-0.4c-0.5-0.3-1.1-0.7-1.4-1.4c-0.3-0.7-0.3-1.3-0.3-1.9c0-0.9,0.1-1.8,0.4-2.6c0.1-0.4,0.3-0.8,0.6-1.1
			C45.7,33.5,46.2,33.1,46.9,33.1"/>
		<path style="clip-path:url(#SVGID_00000097480088103493842180000008144972810690727598_);fill:#ED3624;" d="M80.9,43.2
			c0.8,0,1.3,0.7,1.3,1.4c0,0.8-0.7,1.3-1.4,1.3c-0.3,0-0.7,0.1-1,0.4c-0.4,0.3-0.7,0.8-1,1.4c-0.3,0.7-0.5,1.5-0.4,1.9
			c0,0.2,0.1,0.3,0.3,0.4c0.1,0,0.4,0.1,0.7,0c0.6-0.1,1.5-0.8,2.4-1.6c0.7-0.7,1.3-1.5,1.7-2.3c0.3-0.6,0.4-1.1,0.4-1.3
			c0,0,0.2,0.3,0.1,0.2c0,0,0,0-0.2,0c-0.9-0.1-2.3,0.3-2.6,0.6c-0.5,0.6-1.4,0.6-1.9,0.1c-0.6-0.5-0.6-1.4-0.1-1.9
			c1.3-1.5,3.3-1.7,5-1.5c0.5,0.1,1.1,0.2,1.6,0.7c0.5,0.4,0.8,1.1,0.8,1.7c0,0.9-0.2,1.8-0.8,2.8c-0.5,1-1.3,2-2.2,3
			c-1.1,1-2.3,2-3.7,2.3c-0.7,0.2-1.5,0.2-2.3-0.1c-1.1-0.4-2-1.5-2.1-2.7c-0.1-1.1,0.2-2.3,0.7-3.4c0.4-0.9,1-1.7,1.7-2.3
			C78.8,43.6,79.8,43.1,80.9,43.2"/>
		<path style="clip-path:url(#SVGID_00000097480088103493842180000008144972810690727598_);fill:#ED3624;" d="M252.5,36.8
			c0.7,0.4,0.9,1.2,0.5,1.9c-0.4,0.7-1.2,0.9-1.9,0.5c0,0,0.3,0,0.3,0c0,0-0.2,0.2-0.3,0.6c-0.1,0.4-0.2,1-0.1,1.4
			c0,0.2,0,0.3,0,0.3c0,0,0-0.2,0-0.1c0,0.1-0.2-0.4-0.2-0.3c0.1,0.1-0.3-0.2-0.2-0.2c0.1,0-0.1,0-0.1,0c0,0,0.1,0,0.2,0
			c0,0,0.5-0.5,0.6-0.9c0,0,0.1,0.4,0,0.3c0-0.1,0.1,0.1,0.1,0.1c0,0-0.3-0.1-0.6-0.1c-0.7,0.1-1.5-0.4-1.6-1.1
			c-0.1-0.7,0.4-1.5,1.1-1.6c0.9-0.2,1.8,0,2.6,0.5c0.4,0.3,0.7,0.6,0.9,1.1c0.2,0.5,0.2,1.1,0,1.6c-0.4,1-1,2.1-2.3,2.6
			c-0.5,0.2-1,0.2-1.5,0.2c-0.5-0.1-1.1-0.3-1.5-0.9c-0.5-0.7-0.3-1.1-0.4-1.2c-0.1-0.7-0.1-1.6,0.2-2.6c0.2-0.7,0.6-1.4,1.2-1.9
			C250.5,36.5,251.6,36.3,252.5,36.8"/>
		<path style="clip-path:url(#SVGID_00000097480088103493842180000008144972810690727598_);fill:#ED3624;" d="M258.8,42.7
			c0.8,0,1.4,0.6,1.4,1.4c0,0.8-0.6,1.4-1.4,1.4c-0.2,0,0.7-0.3,0.6-0.2c-0.1,0.1,0.3-0.3,0.3-0.2c-0.1,0.1,0-0.1,0,0
			c-0.1,0.2-0.1,0.6-0.1,1c0,0.6-0.1,0.8,0,0.9c0.1,0.2-0.4-0.6-0.3-0.5c0.1,0.1-0.5-0.3-0.3-0.2c0.2,0.1-0.6,0-0.4,0
			c0.1,0-0.3,0.2-0.3,0.1c0.1-0.1,0,0,0.1-0.2c0.2-0.3,0.4-0.7,0.6-1.1c0.3-0.5,0.5-1.1,0.6-1.4c0-0.2,0.1-0.3,0.1-0.3
			c0,0,0,0.2,0,0.1c0-0.2,0.4,0.7,0.3,0.6c-0.1-0.1,0.3,0.1,0.2,0.1c0,0,0,0-0.1,0c-0.1,0,0.1-0.2-0.1,0.2c-0.4,0.7-1.2,0.9-1.9,0.5
			c-0.7-0.4-0.9-1.2-0.5-1.9c0.6-1,1.7-1.5,2.3-1.6c0.3,0,0.7,0,1.1,0.1c0.2,0.1,0.5,0.2,0.7,0.4c0.3,0.2,0.5,0.6,0.6,1
			c0.1,0.6,0,1.1-0.1,1.4c-0.2,0.6-0.4,1.3-0.7,1.9c-0.2,0.5-0.5,0.9-0.8,1.4c-0.3,0.5-0.6,1-1.5,1.3c-0.3,0.1-0.7,0.1-1.1-0.1
			c-0.4-0.1-0.9-0.5-1.1-1.1c-0.2-0.8-0.1-1.3-0.1-1.8c0-0.6,0.1-1.1,0.2-1.7c0.1-0.3,0.2-0.6,0.4-0.9
			C257.6,43.1,258.1,42.7,258.8,42.7"/>
		<path style="clip-path:url(#SVGID_00000097480088103493842180000008144972810690727598_);fill:#ED3624;" d="M262,50.3
			c0.8,0,1.4,0.5,1.4,1.3c0,0.8-0.5,1.4-1.3,1.4c-0.1,0,0.2-0.1,0.2,0c0,0-0.1,0.1-0.2,0.2c-0.2,0.2-0.4,0.6-0.6,0.9
			c-0.2,0.4-0.3,0.7-0.4,0.9c0,0.2-0.1,0.3-0.1,0.3c0,0-0.1-0.4,0-0.2c0,0.2-0.6-0.7-0.4-0.6c0.1,0.1-0.5-0.2-0.4-0.2
			c0.2,0-0.4,0-0.3,0c0.1,0-0.1,0-0.1,0c0,0,0.2-0.1,0.3-0.1c0.1,0,0.7-0.7,1.1-1.4c0.1-0.2,0.2-0.5,0.2-0.5c0,0,0,0.3,0,0.2
			c0-0.1,0.2,0.5,0.1,0.3c-0.1-0.1,0.4,0.3,0.3,0.3c-0.1-0.1,0.3,0.1,0.3,0.1c-0.1,0,0.1,0,0,0c-0.1,0.1-0.3,0.2-0.6,0.4
			c-0.5,0.5-1.4,0.5-1.9,0c-0.5-0.5-0.5-1.4,0-1.9c0.8-0.8,1.7-1.3,2.7-1.2c0.5,0,1.1,0.3,1.5,0.8c0.3,0.5,0.4,1.1,0.3,1.6
			c-0.1,0.5-0.3,0.9-0.6,1.3c-0.5,0.8-1,1.8-2.2,2.4c-0.2,0.1-0.5,0.2-0.8,0.3c-0.3,0.1-0.9,0.3-1.6-0.2c-0.6-0.4-0.7-1.1-0.7-1.4
			c0-0.3,0.1-0.6,0.1-0.8c0.1-0.6,0.3-1.1,0.6-1.6c0.3-0.5,0.6-1.1,1-1.5C260.5,50.8,261.1,50.3,262,50.3"/>
		<path style="clip-path:url(#SVGID_00000097480088103493842180000008144972810690727598_);fill:#ED3624;" d="M250.9,57.9
			c-0.3-0.7,0-1.5,0.7-1.8c0.7-0.3,1.5,0,1.8,0.7c0.1,0.3-0.4-0.6-0.3-0.5c0.1,0.1-0.3-0.2-0.3-0.2c0,0-0.1-0.1-0.1,0c0,0,0,0,0,0
			l-0.9,2.6c-0.2-0.1,0.8,0,0.6,0.1c-0.2,0,0.8-0.4,0.6-0.2c-0.2,0.1,0.5-0.6,0.4-0.5c-0.1,0.2,0.2-0.6,0.2-0.5c0,0.3-0.2-1-0.1-0.8
			c0.1,0.2-0.5-0.5-0.4-0.4l-1.6,2.2c-0.1-0.1,0.6,0.2,0.4,0.2c-0.2-0.1,0.6,0,0.5,0c-0.1,0,0.3-0.1,0.3-0.1
			c-0.2,0.1,0.3-0.1,0.3-0.1c-0.1,0,0.1,0,0.1,0c0,0-0.1,0.1-0.3,0.2c-0.6,0.4-1.5,0.2-1.9-0.4c-0.4-0.6-0.2-1.5,0.4-1.9
			c0,0,0,0,0.1-0.1c0,0,0.1-0.1,0.2-0.1c0.1,0,0.1-0.1,0.3-0.1c0.2-0.1,0.7-0.2,1.2,0.2c0.6,0.4,0.8,1.3,0.3,1.9
			c-0.4,0.6-1.3,0.8-1.9,0.3c-0.2-0.1-0.4-0.3-0.5-0.5c-0.1-0.2-0.2-0.5-0.2-0.8c0-0.3,0.2-0.7,0.6-1c0.4-0.3,0.9-0.3,1.3-0.2
			c0.7,0.2,1.1,1,0.8,1.7c-0.2,0.7-1,1.1-1.7,0.8c-0.1,0-0.1,0-0.2-0.1C251.5,58.6,251.2,58.8,250.9,57.9 M251.7,57.4
			c0.7-0.3,1.5,0,1.8,0.7c0.3,0.7,0,1.5-0.7,1.8c-0.1,0,0.1-0.1,0.1-0.1c0,0,0,0,0,0c0,0-0.1,0-0.1,0.1c-0.1,0-0.1,0-0.1,0.1
			c-0.1,0.1,0.4-0.6,0.3-0.4c-0.1,0.2,0.1-0.7,0.1-0.6c0,0.1,0-0.4,0-0.3c0,0.2-0.1-0.3-0.1-0.3c0,0.1,0-0.1,0,0
			c0,0,0.1,0.1,0.2,0.3c0.4,0.6,0.3,1,0.3,1.3c0,0.2,0,0.1,0,0.2c0,0.2-0.4-0.7-0.2-0.5c0.1,0.1-0.4-0.2-0.3-0.2c0.1,0,0.2,0,0.2,0
			c0,0-0.4,0.1-0.2,0c0.2-0.1-0.3,0.2-0.3,0.1c0,0,0,0,0.1-0.1c0.1-0.1,0.2-0.4,0.3-0.7c0.2-0.4,0.4-0.6,0.4-0.6
			c0,0-0.1,0.4-0.1,0.2c0-0.2,0.2,0.6,0.1,0.5c-0.2-0.4,0-0.1-0.1-0.2c-0.1-0.1,0.2,0.1,0.2,0.1c0,0-0.2-0.1-0.5-0.1
			c0,0-0.2,0-0.6,0c0,0,0.2,0,0.1,0c0,0,0.2-0.1,0.1,0c-0.1,0,0.4-0.2,0.3-0.1c-0.6,0.4-1.5,0.2-1.9-0.4c-0.4-0.6-0.2-1.5,0.4-1.9
			c0.3-0.2,0.4-0.2,0.5-0.2c0.1,0,0.2,0,0.2,0c0.2,0,0.8-0.2,1.5,0c0.3,0.1,0.8,0.1,1.4,0.6c0.5,0.4,0.6,0.8,0.7,0.9
			c0.3,0.6,0.2,1.5,0,1.9c-0.2,0.3-0.3,0.5-0.3,0.5c-0.1,0.3-0.3,0.6-0.5,1c-0.2,0.4-0.6,0.9-1.3,1.1c-0.6,0.2-1.1,0-1.2,0
			c-0.3-0.1-0.7-0.2-1-0.5c-0.3-0.3-0.6-0.8-0.6-1.3c0-0.4,0-0.5,0-0.6c0,0,0,0.1,0,0.1c0,0,0.1,0.3,0,0.2c0-0.1,0.2,0.4,0.1,0.3
			c0-0.1-0.1-0.2-0.2-0.3c0-0.1-0.1-0.1-0.2-0.3c0-0.1-0.1-0.2-0.1-0.4c0-0.2-0.1-0.8,0.5-1.3c0.2-0.1,0.3-0.2,0.4-0.3
			c0.1,0,0.1-0.1,0.2-0.1c0,0,0,0,0.1,0C251.6,57.4,251.6,57.4,251.7,57.4 M251.8,59.8c-0.7-0.1-1.3-0.8-1.2-1.5
			c0.1-0.7,0.8-1.3,1.5-1.2c0.2,0,0.3,0.1,0.6,0.1c0.2,0.1,0.5,0.3,0.7,0.6c0.4,0.7,0.1,1.5-0.5,1.9c-0.7,0.4-1.5,0.2-1.9-0.5
			c-0.1-0.1,0.4,0.4,0.3,0.3c-0.1-0.1,0.3,0.2,0.3,0.2C251.5,59.7,251.8,59.8,251.8,59.8"/>
		<path style="clip-path:url(#SVGID_00000097480088103493842180000008144972810690727598_);fill:#ED3624;" d="M245.3,50.5
			c0.6,0.4,0.8,1.2,0.4,1.9c-0.4,0.6-1.2,0.8-1.9,0.4c-0.1-0.1,0.6,0.2,0.4,0.1c-0.2,0,0.7-0.1,0.6,0c-0.2,0.1,0.5-0.3,0.4-0.2
			c-0.1,0.1,0.2-0.2,0.1-0.2c-0.1,0.1,0,0.1-0.1,0.3c-0.1,0.5-0.3,1-0.3,1.4c0,0.2-0.1,0.4-0.1,0.5c0,0.1-0.1-0.2,0-0.1
			c0,0.1-0.2-0.5-0.2-0.4c0.1,0.1-0.3-0.3-0.2-0.2c0.1,0.1-0.4-0.1-0.3-0.1c0.1,0,0,0,0,0c0.2-0.1-0.4,0.3-0.4,0.2
			c0.1-0.1,0,0,0.2-0.3c0.6-0.7,1.1-0.9,1.2-0.9c0,0,0,0,0-0.1c0,0,0,0.3,0,0.1c0-0.2,0-0.2,0-0.2c0-0.1,0.5,0.6,0.3,0.5
			c-0.1-0.1,0.2,0.1,0.1,0.1c0,0-0.4,0-0.7,0c-0.6,0.1-0.8-0.1-0.9-0.1c-0.7-0.2-1.1-1-0.9-1.7c0.2-0.7,1-1.1,1.7-0.9
			c0.1,0,0,0,0.1,0c0,0-0.5,0-0.3,0c0.6-0.1,1.4-0.3,2.4,0.3c0.4,0.3,0.7,0.8,0.8,1.1c0.1,0.3,0.1,0.5,0.1,0.7
			c0.1,0.9-0.3,1.7-1,2.3c-0.5,0.4-0.6,0.3-0.7,0.5c0,0,0,0.6-1,1c-0.5,0.2-1,0.3-1.5,0.2c-0.3,0-0.6-0.1-0.9-0.3
			c-0.3-0.2-0.6-0.6-0.7-1c-0.2-0.7,0-1.1,0-1.3c0.1-0.7,0.2-1.3,0.4-1.8c0.1-0.4,0.2-0.7,0.5-1.1c0.2-0.2,0.4-0.5,0.9-0.7
			C244.4,50.1,245,50.3,245.3,50.5"/>
		<path style="clip-path:url(#SVGID_00000097480088103493842180000008144972810690727598_);fill:#ED3624;" d="M243,43
			c0.7-0.1,1.4,0.4,1.6,1.1c0.1,0.7-0.4,1.4-1.1,1.6c-0.2,0,0.3-0.1,0.3-0.1c0,0,0,0.1-0.1,0.2c-0.1,0.1-0.1,0.3-0.1,0.3
			c0,0.3,0,0.5,0,0.6c0,0,0,0,0,0c0,0.1-0.2-0.5-0.1-0.3c0.1,0.2-0.4-0.5-0.3-0.4c0.1,0.1-0.4-0.3-0.3-0.2c0.2,0.1-0.5-0.1-0.4-0.1
			c0.2,0-0.2,0-0.2,0c0,0,0.1,0,0.1,0c0.1-0.1,0.3-0.5,0.6-1c0.1-0.2,0.2-0.4,0.2-0.5c0-0.2,0.1-0.4,0.1-0.4c0,0,0,0.2,0,0.1
			c0-0.1,0.2,0.7,0.1,0.5c-0.1-0.1,0.3,0.4,0.2,0.3c-0.1-0.1,0.4,0.2,0.3,0.2c-0.1,0,0.1,0,0.1,0c0,0-0.1,0-0.1,0c-0.1,0,0.1,0,0,0
			c-0.1,0.1-0.1,0.1-0.2,0.2c-0.3,0.7-1.1,1-1.8,0.7c-0.7-0.3-1-1.1-0.7-1.8c0.4-0.9,1.1-1.7,2.3-1.9c0.3,0,0.6-0.1,0.9,0
			c0.4,0.1,1,0.2,1.3,0.9c0.5,1,0.1,1.4,0.1,1.5c-0.1,0.5-0.2,0.9-0.5,1.3c-0.3,0.7-0.6,1.5-1.6,2.1c-0.3,0.2-0.5,0.3-0.8,0.4
			c-0.2,0-0.3,0.1-0.6,0.1c-0.1,0-0.3,0-0.6-0.1c-0.2-0.1-0.6-0.4-0.7-0.7c-0.4-0.9-0.1-1.2-0.1-1.3c0-0.5,0.1-0.9,0.2-1.2
			c0.1-0.3,0.3-0.7,0.6-1C242,43.4,242.5,43,243,43"/>
		<path style="clip-path:url(#SVGID_00000097480088103493842180000008144972810690727598_);fill:#ED3624;" d="M251,45.7
			c0.6,0.4,0.9,1.2,0.5,1.9c-0.4,0.6-1.2,0.9-1.9,0.5c-0.2-0.1,0.8,0.1,0.7,0.1c-0.2,0,0.2-0.1,0.2-0.1c0,0-0.2,0.2-0.2,0.3
			c-0.1,0.2-0.2,0.3-0.1,0.5c0,0.1-0.3-0.6-0.2-0.4c0.1,0.2-0.5-0.5-0.4-0.4c0.2,0.1-0.6-0.2-0.4-0.2c0.1,0-0.4,0-0.3,0
			c0.2,0-0.4,0.1-0.3,0.1c0.1,0-0.2,0.1-0.1,0.1c0.1-0.1-0.1,0.1-0.1,0.1c0.1-0.1,0,0.1,0,0.1c0,0,0.1,0.3,0,0.2
			c0-0.1,0.2,0.3,0.1,0.2c-0.1-0.1,0.5,0.5,0.3,0.3c-0.2-0.1,0.9,0.2,0.7,0.2c-0.2,0,0.6-0.2,0.5-0.1c-0.1,0.1,0.2-0.1,0.2-0.1
			c0,0,0,0,0,0c-0.3,0.7-1.1,1-1.8,0.7c-0.7-0.3-1-1.1-0.7-1.8c0.2-0.4,0.5-0.8,0.9-1.1c0.2-0.1,0.5-0.2,0.8-0.3
			c0.3,0,0.7,0.1,1,0.3c0.4,0.3,0.6,0.6,0.6,0.9c0.1,0.2,0.1,0.5,0.1,0.7c0,0.4-0.1,0.9-0.4,1.3c-0.2,0.4-0.5,0.6-0.8,0.8
			c-0.2,0.1-0.4,0.2-0.8,0.2c-0.2,0-0.6,0-0.9-0.2c-0.3-0.2-0.6-0.6-0.6-0.9c-0.1-0.8,0-1.5,0.4-2.3c0.2-0.4,0.5-0.8,1-1.2
			c0.2-0.2,0.5-0.3,0.9-0.4C250.1,45.4,250.6,45.4,251,45.7"/>
		<path style="clip-path:url(#SVGID_00000097480088103493842180000008144972810690727598_);fill:#ED3624;" d="M255,49.1
			c0.7,0.3,1,1.1,0.7,1.8c-0.3,0.7-1.1,1-1.8,0.7c0,0,0.3,0,0.2,0c-0.1,0,0.4-0.1,0.3-0.1c-0.1,0,0.2-0.1,0.1-0.1c0,0,0,0,0,0
			c0,0-0.1,0.2-0.1,0.3c0,0.1,0,0,0,0c0,0-0.1-0.2-0.1-0.2c0.1,0.1-0.4-0.3-0.3-0.3c0.2,0.1-0.6-0.2-0.5-0.1c0.1,0-0.3,0-0.3,0
			c0.1,0-0.1,0-0.1,0c0,0,0.2-0.1,0.3-0.2c0.1-0.1,0.2-0.4,0.2-0.4c0-0.1,0.2,0.4,0.1,0.3c-0.1-0.1,0.3,0.1,0.2,0.1
			c-0.1,0,0.2-0.1,0.1,0c0,0,0.2-0.3,0.2-0.2c-0.1,0.1,0-0.4,0-0.3c0.2,0.7-0.3,1.5-1,1.6c-0.7,0.2-1.5-0.3-1.6-1
			c-0.2-0.9,0.3-1.9,1-2.4c0.6-0.4,1.4-0.5,2.1-0.3c0.4,0.1,0.8,0.4,1.1,0.7c0.3,0.3,0.5,0.8,0.5,1.3c0.1,1.1-0.4,2-1.2,2.7
			c-0.2,0.2-0.5,0.4-0.8,0.5c-0.2,0.1-0.4,0.2-0.6,0.2c-0.3,0.1-0.7,0.1-1.1-0.2c-0.5-0.3-0.7-0.7-0.8-1.1c-0.1-0.3-0.1-0.6-0.1-0.9
			c0-0.5,0.1-0.9,0.3-1.4c0.2-0.4,0.5-0.9,1.1-1.2C253.6,48.8,254.4,48.9,255,49.1"/>
		<path style="clip-path:url(#SVGID_00000097480088103493842180000008144972810690727598_);fill:#ED3624;" d="M48.8,34.4
			c0.7-0.1,1.4,0.4,1.5,1.2s-0.4,1.4-1.2,1.5c-0.2,0,0.4-0.2,0.3-0.2c0,0,0,0-0.1,0.2c-0.1,0.2-0.1,0.4-0.1,0.5c0,0,0-0.1,0-0.1
			c0,0.1-0.1-0.4-0.1-0.2c0,0.1-0.4-0.6-0.3-0.4c0.1,0.1-0.6-0.3-0.4-0.3c0.2,0.1-0.7-0.1-0.6-0.1c0.1,0-0.4,0.1-0.3,0
			c0.2,0-0.3,0.1-0.2,0.1c0,0,0.1,0,0.2-0.1c0.2-0.2,0.5-0.5,0.6-0.7c0.1-0.2,0.2-0.4,0.2-0.4c0-0.1,0,0.6,0,0.5
			c0-0.2,0.3,0.6,0.2,0.5c-0.1-0.1,0.5,0.4,0.4,0.3c-0.2-0.1,0.7,0.1,0.5,0.1c-0.1,0,0.4-0.1,0.3-0.1c-0.1,0,0.2-0.1,0.2-0.1
			c-0.1,0.1,0.3-0.5,0.2-0.3c0,0.1,0-0.5,0-0.4c0,0.1-0.2-0.5-0.1-0.4c0.1,0.1-0.2-0.2-0.2-0.2c0,0,0,0,0,0c0.7,0.3,1,1.1,0.7,1.8
			c-0.3,0.7-1.1,1-1.8,0.7c-0.4-0.2-0.9-0.5-1.1-0.9c-0.3-0.5-0.3-1.1-0.2-1.5c0.2-0.4,0.4-0.7,0.7-0.9c0.3-0.2,0.7-0.4,1.2-0.4
			c0.5,0,1,0.3,1.3,0.7c0.3,0.4,0.3,1,0.2,1.4c-0.1,0.4-0.3,0.8-0.6,1.2c-0.3,0.4-0.6,0.8-1,1.1c-0.2,0.2-0.3,0.3-0.5,0.4
			c-0.1,0.1-0.2,0.2-0.5,0.2c-0.3,0.1-0.9,0.2-1.4-0.4c-0.4-0.4-0.4-0.8-0.5-1c0-0.2,0-0.4,0-0.6c0.1-0.3,0.1-0.6,0.2-0.9
			c0.1-0.3,0.3-0.7,0.6-1.1C47.7,34.8,48.2,34.4,48.8,34.4"/>
		<path style="clip-path:url(#SVGID_00000097480088103493842180000008144972810690727598_);fill:#ED3624;" d="M80.9,44.5
			c0.8,0,1.3,0.7,1.3,1.4c0,0.8-0.7,1.3-1.4,1.3c-0.1,0,0.4-0.1,0.3,0c-0.1,0,0.3-0.1,0.2-0.1c0,0,0,0,0,0c0,0-0.1,0.2-0.3,0.4
			c-0.2,0.3-0.3,0.6-0.3,0.7c0,0.1-0.1-0.6-0.1-0.4c0,0.1-0.4-0.4-0.3-0.3c0.1,0.1-0.7-0.2-0.5-0.2c0.2,0-0.5,0.1-0.4,0
			c0.1,0-0.2,0.1-0.2,0.1c0,0,0,0,0.1-0.1c0.1-0.1,0.3-0.4,0.6-0.6c0.2-0.2,0.4-0.4,0.6-0.6c0.1-0.1,0.2-0.2,0.3-0.2
			c0.1,0,0.1-0.1,0.3-0.2c0.1,0,0.2-0.1,0.5-0.2c0.4,0,1.3,0.4,1.4,1c0.2,0.7-0.1,0.9-0.1,1.1c-0.1,0.1-0.1,0.2-0.2,0.3
			c-0.1,0.2-0.3,0.4-0.4,0.6c-0.1,0.2-0.2,0.3-0.3,0.4c0,0,0-0.1,0,0c0,0.1-0.1-0.7,0-0.5c0.2,0.7,0.1,0.8,0.1,0.8
			c0,0.8-0.6,1.4-1.3,1.4c-0.8,0-1.4-0.6-1.4-1.3c0-0.2,0-0.3,0-0.4c0,0,0,0,0,0c0,0,0.1,0.4,0,0.2c-0.2-0.7,0.1-1.2,0.2-1.6
			c0.2-0.3,0.4-0.6,0.6-0.8c0.2-0.2,0.3-0.4,0.4-0.5c0,0,0,0.1,0,0c0,0-0.1,0.3-0.1,0.2c0-0.1-0.1,0.4,0,0.3c0-0.1,0.1,0.6,0,0.5
			c0-0.1,0.3,0.6,0.2,0.4c-0.1-0.1,0.5,0.4,0.4,0.3c-0.2-0.2,0.8,0.2,0.7,0.2c-0.2,0,0.6-0.1,0.5-0.1c-0.1,0,0.2-0.1,0.2-0.1
			c-0.1,0.1,0.2-0.1,0.2-0.1c0,0,0,0-0.1,0.1c-0.1,0.1-0.3,0.3-0.5,0.5c-0.2,0.2-0.4,0.4-0.7,0.7c-0.3,0.3-0.6,0.7-1.6,0.7
			c-0.7-0.1-1.2-0.5-1.5-1c-0.2-0.5-0.3-1-0.1-1.5c0.1-0.5,0.3-0.8,0.5-1.1c0.2-0.3,0.4-0.7,0.6-1C79.6,44.9,80,44.4,80.9,44.5"/>
		<path style="clip-path:url(#SVGID_00000097480088103493842180000008144972810690727598_);fill:#ED3624;" d="M80.3,10.3
			c0.8,0.1,1.3,0.7,1.2,1.5c-0.1,0.8-0.7,1.3-1.5,1.2c-0.2,0,0.6-0.2,0.5-0.1c-0.1,0,0.1-0.1,0.1-0.1c0,0-0.1,0.2-0.2,0.4
			c-0.1,0.1-0.1,0.2-0.1,0.3c0,0,0-0.3,0-0.1c0,0,0-0.1,0-0.1c0,0.1-0.2-0.4-0.1-0.2c0.1,0.1-0.6-0.5-0.4-0.4
			c0.2,0.1-0.9-0.1-0.7-0.1c0.1,0-0.3,0.1-0.3,0.1c0.1-0.1-0.1,0.1,0-0.1c0.1-0.2,0.3-0.4,0.5-0.7c0.2-0.2,0.3-0.4,0.4-0.6
			c0.1-0.2,0.2-0.5,0.3-0.6c0-0.1,0-0.1,0-0.1c0,0,0,0.1,0,0.1c0-0.1,0,0.4,0,0.3c0-0.1,0.2,0.6,0.1,0.4c-0.1-0.2,0.6,0.6,0.5,0.5
			c-0.2-0.1,0.6,0.2,0.5,0.2c-0.1,0,0.3,0,0.2,0c-0.2,0,0.3,0,0.2,0c0,0,0,0,0,0c-0.1,0-0.2,0.1-0.2,0.1c-0.1,0.1-0.4,0.4-0.5,0.6
			c0,0.1-0.1-0.2,0-0.1c0,0.2-0.5-0.5-0.3-0.5c0.7,0.3,0.9,1.2,0.6,1.8c-0.3,0.7-1.2,0.9-1.8,0.6c-0.6-0.3-1-0.9-1.1-1.5
			c-0.1-0.6,0-1,0.2-1.4c0.3-0.8,0.8-1.4,1.4-1.8c0.3-0.2,0.5-0.3,0.8-0.4c0.1,0,0.2-0.1,0.4-0.1c0.1,0,0.2,0,0.3,0
			c0.1,0,0.2,0,0.5,0.1c0.3,0.1,0.8,0.5,0.9,1.1c0.2,1.2-0.3,1.5-0.5,2c-0.2,0.4-0.4,0.8-0.7,1.2c-0.2,0.2-0.4,0.5-0.6,0.8
			c-0.3,0.3-0.6,0.8-1.4,0.9c-0.7,0.1-1.4-0.4-1.6-0.8c-0.2-0.4-0.3-0.8-0.3-1.2c0-0.6,0.2-0.9,0.3-1.1c0.2-0.3,0.3-0.7,0.6-1
			C78.9,10.7,79.5,10.2,80.3,10.3"/>
		<path style="clip-path:url(#SVGID_00000097480088103493842180000008144972810690727598_);fill:#ED3624;" d="M105.1,22
			c0.4-0.6,1.2-0.8,1.9-0.5c0.6,0.4,0.8,1.2,0.5,1.9c-0.2,0.4-0.5,1.1-0.7,1.8c-0.1,0.4-0.2,0.7-0.2,0.7c0,0.1-0.1-0.4,0-0.3
			c0,0.1-0.5-0.6-0.3-0.5c0.2,0.2-1-0.3-0.7-0.3c0.3,0-0.8,0.2-0.6,0.2c0.1-0.1-0.2,0.2-0.2,0.1c0.1-0.1,0.3-0.6,0.5-1.2
			c0.1-0.3,0.2-0.7,0.2-0.8c0,0,0-0.1,0-0.1c0,0,0.1,0.4,0,0.2c0-0.1,0.3,0.5,0.2,0.4c-0.1-0.2,0.7,0.6,0.5,0.5
			c-0.2-0.1,0.8,0.1,0.6,0.1c-0.2,0,0.4-0.1,0.4-0.1c-0.2,0,0.2-0.1,0.1,0c-0.2,0.1-0.6,0.6-0.9,1.1c-0.1,0.2-0.2,0.7-0.2,1.1
			c0,0.8-0.6,1.4-1.4,1.4c-0.8,0-1.4-0.6-1.4-1.4c0-0.7,0-1.6,0.7-2.6c0.5-0.8,0.9-1.7,2.2-2.2c0.2-0.1,0.7-0.1,1.1,0.1
			c0.5,0.2,0.7,0.7,0.7,0.9c0.1,0.4,0,0.6,0,0.7c0,0.5-0.2,1-0.4,1.5c-0.3,0.7-0.2,1.7-1.5,2.4c-0.2,0.1-0.6,0.3-0.9,0.2
			c-0.4,0-0.7-0.2-1-0.4c-0.5-0.4-0.6-1-0.5-1.5c0-0.5,0.2-0.8,0.3-1.2C104.3,23.6,104.6,22.7,105.1,22"/>
		<path style="clip-path:url(#SVGID_00000097480088103493842180000008144972810690727598_);fill:#ED3624;" d="M105.7,20.4
			c0.7,0.1,1.3,0.8,1.2,1.5s-0.8,1.3-1.5,1.2c0,0,0,0-0.2,0.2c-0.2,0.2-0.4,0.6-0.5,1c-0.1,0.4-0.1,0.9-0.1,1.2
			c0.1,0.3,0.2,0.4,0.4,0.5c0.7,0.3,0.9,1.2,0.6,1.8c-0.3,0.7-1.2,0.9-1.8,0.6c-0.9-0.5-1.5-1.4-1.8-2.3c-0.2-0.9-0.2-1.8,0.1-2.6
			c0.2-0.8,0.6-1.6,1.2-2.2C103.7,20.7,104.7,20.2,105.7,20.4"/>
		<path style="clip-path:url(#SVGID_00000097480088103493842180000008144972810690727598_);fill:#ED3624;" d="M118.1,43.1
			c0.7-0.4,1.5-0.1,1.9,0.5c0.4,0.7,0.1,1.5-0.5,1.9c-0.1,0.1,0.1-0.1,0,0c-0.2,0.2-0.5,0.8-0.6,1.4c-0.1,0.4-0.2,0.8-0.2,0.8
			c0,0-0.1-0.3,0-0.2c0,0.1-0.5-0.5-0.3-0.4c0.1,0.1-0.5-0.2-0.3-0.2c0.1,0-0.6-0.1-0.4-0.1c0.1,0-0.4,0.1-0.3,0.1
			c0.1,0-0.3,0.2-0.2,0.1c0,0,0,0,0,0c0,0,0.1-0.1,0.2-0.2c0.2-0.3,0.4-0.7,0.6-1.1c0.2-0.3,0.3-0.6,0.3-0.8c0,0,0,0,0,0
			c0,0,0,0.2,0,0.2c0-0.1,0.4,0.6,0.2,0.4c-0.1-0.1,0.4,0.3,0.3,0.3c-0.1-0.1,0.5,0.2,0.4,0.2c-0.1,0,0.4,0,0.3,0
			c-0.1,0,0.3-0.1,0.3-0.1c0,0,0.1,0,0.1,0c0,0-0.1,0.1-0.2,0.2c-0.2,0.2-0.5,0.6-0.8,0.9c-0.1,0.2-0.2,0.3-0.3,0.4c0,0,0,0,0,0
			c0,0,0-0.2,0-0.1c0,0.1-0.1-0.7,0-0.4c0,0.1-0.3-0.6-0.2-0.5c0.1,0.1-0.6-0.5-0.4-0.4c0.2,0.2-0.9-0.2-0.7-0.2
			c0.2,0-0.5,0.1-0.4,0.1c0.2-0.1-0.3,0.2-0.3,0.1c0,0,0,0,0,0c0,0,0.2-0.3,0.5-0.6c0.4-0.6,1.3-0.8,1.9-0.4
			c0.6,0.4,0.8,1.3,0.4,1.9c-0.3,0.5-0.5,0.8-0.8,1c-0.1,0.1-0.3,0.3-0.6,0.4c-0.2,0.1-0.6,0.2-1.1,0c-0.5-0.2-0.7-0.7-0.8-1
			c-0.2-0.9,0.1-1,0.3-1.3c0.2-0.3,0.4-0.6,0.6-0.9c0.3-0.3,0.6-0.8,1-1.1c0.2-0.2,0.4-0.4,0.6-0.5c0.3-0.2,0.6-0.4,1.3-0.3
			c0.4,0.1,0.7,0.3,0.9,0.6c0.2,0.3,0.3,0.5,0.3,0.8c0.1,0.4,0,0.8-0.1,1.1c-0.1,0.5-0.3,0.9-0.5,1.3c-0.2,0.4-0.5,0.9-0.7,1.3
			c-0.1,0.2-0.3,0.4-0.5,0.7c-0.2,0.2-0.5,0.6-1.2,0.6c-0.4,0-0.8-0.1-1-0.3c-0.3-0.2-0.4-0.4-0.5-0.6c-0.2-0.4-0.2-0.7-0.2-1.1
			c0-0.6,0.2-1.1,0.4-1.6C116.6,45,116.9,43.8,118.1,43.1"/>
		<path style="clip-path:url(#SVGID_00000097480088103493842180000008144972810690727598_);fill:#ED3624;" d="M107.4,77.3
			c-0.6,0.4-1.5,0.2-1.9-0.5s-0.2-1.5,0.5-1.9c0.1-0.1-0.3,0.3-0.3,0.2c0.1-0.1-0.2,0.2-0.1,0.1c0.1-0.1-0.1,0.2-0.1,0.2
			c0,0,0,0.1,0,0.1c0.1-0.1,0.2-0.9,0.4-1.6c0.1-0.4,0.1-0.7,0.2-0.9c0-0.1,0.1,0.2,0,0c0-0.1,0.4,0.6,0.2,0.4
			c-0.1-0.1,0.5,0.4,0.3,0.3c-0.2-0.1,0.7,0.2,0.5,0.1c-0.1,0,0.5-0.1,0.4,0c-0.1,0,0.4-0.2,0.3-0.1c-0.1,0,0.1-0.1,0.1-0.1
			c0,0,0,0,0,0c-0.1,0.1-0.2,0.3-0.3,0.5c0,0.1,0-0.1,0,0c0,0.1,0,0.3-0.1,0.5c-0.1,0.7-0.8,1.2-1.6,1.1c-0.7-0.1-1.2-0.8-1.1-1.6
			c0.1-0.4,0-0.7,0.3-1.3c0.1-0.3,0.3-0.6,0.5-0.9c0.1-0.2,0.2-0.3,0.4-0.5c0.2-0.2,0.5-0.5,1.2-0.5c0.4,0,0.8,0.3,1.1,0.5
			c0.2,0.2,0.3,0.5,0.3,0.6c0.1,0.4,0.1,0.6,0.1,0.9c0,0.4-0.1,0.8-0.2,1.2c-0.2,0.7-0.3,1.5-0.5,2.1c0,0.1,0,0.1-0.2,0.3
			C107.7,77,107.6,77.1,107.4,77.3 M106.1,71.7c0.4-0.6,1.3-0.8,1.9-0.3c0.6,0.4,0.8,1.3,0.3,1.9c-0.1,0.1-0.1,0.6-0.2,1.4
			c0,0.5-0.1,0.9-0.1,1.1c0,0.2,0,0.3,0,0.4c0,0,0-0.1,0-0.1c0,0,0-0.2,0-0.1c0,0,0-0.2,0-0.1c0,0.1-0.2-0.4-0.1-0.3
			c0,0.1-0.2-0.3-0.1-0.2c0.4,0.6,0.3,1.5-0.3,1.9c-0.6,0.4-1.5,0.3-1.9-0.3c-0.1-0.1-0.1-0.2-0.1-0.2c-0.4-0.7-0.1-0.6-0.1-0.7
			c0-0.1,0-0.3,0-0.4c0-0.3,0.1-0.7,0.1-1C105.4,73.7,105.4,72.7,106.1,71.7"/>
		<path style="clip-path:url(#SVGID_00000097480088103493842180000008144972810690727598_);fill:#ED3624;" d="M79.7,81.4
			c0.7,0.3,1,1.1,0.7,1.8c-0.3,0.7-1.1,1-1.8,0.7c-0.2-0.1,0.8-0.1,0.6,0c-0.1,0.1,0.1-0.1,0.1,0c0,0-0.1,0.2-0.1,0.3
			c0,0.2,0,0.3,0,0.4c0,0,0-0.1,0-0.1c0,0-0.1-0.3-0.1-0.2c0,0.1-0.2-0.3-0.1-0.2c0.1,0.1-0.4-0.4-0.3-0.3c0.1,0.1-0.7-0.2-0.5-0.2
			c0.2,0-0.7,0.1-0.6,0c0.1,0-0.4,0.2-0.4,0.2c0.1-0.1-0.3,0.3-0.3,0.2c0-0.1-0.1,0.1-0.1,0.1c0-0.1,0,0,0,0c0-0.1,0.1-0.4,0.2-0.6
			c0.2-0.5,0.3-1,0.4-1.4c0-0.2,0,0,0-0.1c0,0,0.1,0.2,0,0.2c0-0.1,0.2,0.4,0.1,0.3c-0.1-0.1,0.5,0.4,0.4,0.3
			c-0.2-0.1,0.6,0.2,0.5,0.2c-0.2,0,0.5,0,0.4,0c-0.1,0,0.1,0,0.1,0c0,0,0,0,0,0c0,0,0-0.4,0-0.3c0,0.1-0.1-0.3-0.1-0.2
			c0,0,0-0.1,0,0c0.6,0.4,0.8,1.3,0.3,1.9c-0.4,0.6-1.3,0.8-1.9,0.3c-0.5-0.4-0.9-0.9-1-1.5c-0.1-0.6,0.1-1.2,0.3-1.6
			c0.2-0.4,0.5-0.7,0.9-0.9c0.3-0.2,0.8-0.5,1.4-0.4c0.4,0.1,0.8,0.3,1,0.6c0.2,0.3,0.2,0.6,0.3,0.8c0,0.4,0,0.6-0.1,0.9
			c-0.1,0.6-0.3,1.3-0.5,1.9c-0.1,0.1-0.1,0.4-0.2,0.6c0,0.1-0.1,0.3-0.2,0.5c-0.1,0.2-0.3,0.6-0.9,0.7c-0.4,0.1-0.9,0-1.2-0.2
			c-0.3-0.2-0.4-0.4-0.5-0.6c-0.1-0.3-0.1-0.5-0.2-0.7c0-0.3,0-0.6,0.1-1c0.1-0.4,0.2-0.8,0.4-1.2c0.2-0.4,0.5-0.7,1-1
			C78.4,81.3,79.1,81.2,79.7,81.4"/>
		<path style="clip-path:url(#SVGID_00000097480088103493842180000008144972810690727598_);fill:#ED3624;" d="M56.5,68.7
			c0.6,0.5,0.6,1.4,0.1,1.9c-0.5,0.6-1.4,0.6-1.9,0.1c-0.1-0.1,0.7,0.3,0.5,0.3c-0.2,0,0.5,0,0.4,0c-0.1,0,0.2-0.1,0.2-0.1
			c0,0,0,0,0,0c-0.1,0.1-0.3,0.3-0.5,0.6c-0.1,0.2-0.3,0.4-0.4,0.7c-0.1,0.2-0.2,0.5-0.2,0.6c0,0,0,0,0,0c0,0,0-0.3,0-0.1
			c0,0.1,0-0.5,0-0.3c0,0.1-0.2-0.6-0.1-0.4c0,0.1-0.3-0.4-0.2-0.3c0.1,0.1-0.5-0.4-0.4-0.3c0.1,0.1-0.6-0.2-0.5-0.1
			c0.3,0-0.8,0.1-0.6,0.1c0.2-0.1-0.5,0.3-0.4,0.2c0.1-0.1-0.2,0.2-0.1,0.1c0.1-0.1,0,0,0.1-0.2c0.1-0.2,0.2-0.5,0.4-0.8
			c0.2-0.4,0.3-0.8,0.4-1.2c0.1-0.2,0.1-0.3,0.1-0.4c0,0,0-0.1,0-0.1c0,0,0,0.2,0,0.1c0-0.1,0,0.4,0,0.3c0-0.1,0.2,0.6,0.1,0.4
			c-0.1-0.2,0.6,0.6,0.4,0.5c-0.2-0.1,0.7,0.3,0.5,0.2c-0.2,0,0.5,0,0.4,0c-0.2,0,0.5-0.1,0.4-0.1c-0.1,0.1,0.3-0.2,0.3-0.1
			c0,0,0.1-0.1,0.1-0.1c-0.1,0.1,0.1-0.1,0.1-0.1c0,0.1-0.1,0.2-0.2,0.4c-0.1,0.3-0.2,0.5-0.2,0.6c0.3,0.7,0,1.5-0.7,1.8
			c-0.7,0.3-1.5,0-1.8-0.7c-0.5-1.1-0.1-2.1,0.2-2.7c0.1-0.3,0.3-0.6,0.5-0.8c0.1-0.1,0.1-0.2,0.3-0.4c0.1-0.1,0.1-0.3,0.8-0.4
			c0.4-0.1,1.1,0.2,1.4,0.7c0.2,0.4,0.2,0.7,0.2,0.8c0,0.5-0.2,0.7-0.2,0.9c-0.1,0.4-0.3,1-0.6,1.6c-0.3,0.6-0.4,1.1-1,1.7
			c-0.1,0.1-0.1,0.1-0.3,0.3c-0.2,0.1-0.7,0.3-1.3,0c-0.6-0.3-0.7-0.8-0.7-1c0-0.2,0-0.3,0-0.4c0-0.3,0.1-0.4,0.1-0.5
			c0.1-0.2,0.2-0.5,0.3-0.8c0.2-0.3,0.4-0.7,0.6-1.1c0.3-0.4,0.6-0.8,1-1.1c0.2-0.2,0.5-0.3,0.9-0.4C55.4,68.2,56,68.3,56.5,68.7"/>
		<path style="clip-path:url(#SVGID_00000097480088103493842180000008144972810690727598_);fill:#ED3624;" d="M17.2,128.9
			c-0.2,0-0.4-0.2-0.4-0.4c0-0.2,0.2-0.4,0.4-0.4h126.7c0.2,0,0.4,0.2,0.4,0.4c0,0.2-0.2,0.4-0.4,0.4H17.2z"/>
		<path style="clip-path:url(#SVGID_00000097480088103493842180000008144972810690727598_);fill:#ED3624;" d="M17.2,144.8
			c-0.2,0-0.4-0.2-0.4-0.4c0-0.2,0.2-0.4,0.4-0.4h133.9c0.2,0,0.4,0.2,0.4,0.4c0,0.2-0.2,0.4-0.4,0.4H17.2z"/>
		<path style="clip-path:url(#SVGID_00000097480088103493842180000008144972810690727598_);fill:#ED3624;" d="M17.2,160.6
			c-0.2,0-0.4-0.2-0.4-0.4c0-0.2,0.2-0.4,0.4-0.4h285.1c0.2,0,0.4,0.2,0.4,0.4c0,0.2-0.2,0.4-0.4,0.4H17.2z"/>
		<path style="clip-path:url(#SVGID_00000097480088103493842180000008144972810690727598_);fill:#ED3624;" d="M17.2,176.4
			c-0.2,0-0.4-0.2-0.4-0.4c0-0.2,0.2-0.4,0.4-0.4h142.6c0.2,0,0.4,0.2,0.4,0.4c0,0.2-0.2,0.4-0.4,0.4H17.2z"/>
		<path style="clip-path:url(#SVGID_00000097480088103493842180000008144972810690727598_);fill:#ED3624;" d="M17.2,192.3
			c-0.2,0-0.4-0.2-0.4-0.4c0-0.2,0.2-0.4,0.4-0.4h135.3c0.2,0,0.4,0.2,0.4,0.4c0,0.2-0.2,0.4-0.4,0.4H17.2z"/>
		<path style="clip-path:url(#SVGID_00000097480088103493842180000008144972810690727598_);fill:#ED3624;" d="M159.9,176.4
			c-0.2,0.1-0.4,0-0.5-0.2c-0.1-0.2,0-0.4,0.2-0.5l25.1-11.4c0.2-0.1,0.4,0,0.5,0.2c0.1,0.2,0,0.4-0.2,0.5L159.9,176.4z"/>
		<path style="clip-path:url(#SVGID_00000097480088103493842180000008144972810690727598_);fill:#ED3624;" d="M184.9,168.3
			c-0.2,0-0.4-0.2-0.4-0.4c0-0.2,0.2-0.4,0.4-0.4h117.4c0.2,0,0.4,0.2,0.4,0.4c0,0.2-0.2,0.4-0.4,0.4H184.9z"/>
		<path style="clip-path:url(#SVGID_00000097480088103493842180000008144972810690727598_);fill:#ED3624;" d="M152.8,192.2
			c-0.2,0.1-0.4,0.1-0.6-0.1c-0.1-0.2-0.1-0.4,0.1-0.6l32.3-24c0.2-0.1,0.4-0.1,0.6,0.1c0.1,0.2,0.1,0.4-0.1,0.6L152.8,192.2z"/>
		<path style="clip-path:url(#SVGID_00000097480088103493842180000008144972810690727598_);fill:#ED3624;" d="M184.9,165
			c-0.2,0-0.4-0.2-0.4-0.4s0.2-0.4,0.4-0.4h117.4c0.2,0,0.4,0.2,0.4,0.4s-0.2,0.4-0.4,0.4H184.9z"/>
		<path style="clip-path:url(#SVGID_00000097480088103493842180000008144972810690727598_);fill:#ED3624;" d="M152.5,144.5
			c0.2,0,0.4,0.1,0.5,0.3c0,0.2-0.1,0.4-0.3,0.5c-0.1,0-0.3,0-0.4,0.1c-0.2,0-0.4-0.1-0.5-0.3c0-0.2,0.1-0.4,0.3-0.5
			C152.2,144.6,152.3,144.5,152.5,144.5"/>
		<path style="clip-path:url(#SVGID_00000097480088103493842180000008144972810690727598_);fill:#ED3624;" d="M151,144.7
			c-0.2-0.1-0.3-0.3-0.3-0.5c0.1-0.2,0.3-0.3,0.5-0.3l30,9.6c0.2,0.1,0.3,0.3,0.3,0.5c-0.1,0.2-0.3,0.3-0.5,0.3L151,144.7z"/>
		<path style="clip-path:url(#SVGID_00000097480088103493842180000008144972810690727598_);fill:#ED3624;" d="M181.1,154.3
			c-0.2,0-0.4-0.2-0.4-0.4c0-0.2,0.2-0.4,0.4-0.4h121.3c0.2,0,0.4,0.2,0.4,0.4c0,0.2-0.2,0.4-0.4,0.4H181.1z"/>
		<path style="clip-path:url(#SVGID_00000097480088103493842180000008144972810690727598_);fill:#ED3624;" d="M143.8,128.9
			c-0.2-0.1-0.3-0.3-0.2-0.5c0.1-0.2,0.3-0.3,0.5-0.2l47.5,20.6c0.2,0.1,0.3,0.3,0.2,0.5c-0.1,0.2-0.3,0.3-0.5,0.2L143.8,128.9z"/>
		<path style="clip-path:url(#SVGID_00000097480088103493842180000008144972810690727598_);fill:#ED3624;" d="M191.4,149.6
			c-0.2,0-0.4-0.2-0.4-0.4c0-0.2,0.2-0.4,0.4-0.4h110.9c0.2,0,0.4,0.2,0.4,0.4c0,0.2-0.2,0.4-0.4,0.4H191.4z"/>
	</g>
</g>
</svg>
