<svg id="Ebene_1" data-name="Ebene 1" xmlns="http://www.w3.org/2000/svg" xmlns:xlink="http://www.w3.org/1999/xlink" viewBox="0 0 383.2 197.2"><defs><style>.cls-1{fill:none;}.cls-2{opacity:0;}.cls-3{clip-path:url(#clip-path);}.cls-4{fill:#1749b3;}.cls-5{fill:#ed3624;}.cls-6{fill:#00733b;}</style><clipPath id="clip-path"><rect class="cls-1" x="-21.1" y="-34.6" width="419.5" height="297.64"/></clipPath></defs><g class="cls-2"><path d="M26.1,21.3a13.5,13.5,0,0,1-2.9-.5V19.2a7.8,7.8,0,0,0,3.2.9,2.5,2.5,0,0,0,1.5-.5,1.8,1.8,0,0,0,.6-1.4,1.5,1.5,0,0,0-.4-1.1A3.4,3.4,0,0,0,26.7,16l-.8-.5a6.3,6.3,0,0,1-2.1-1.6,2.5,2.5,0,0,1-.6-1.7,2.7,2.7,0,0,1,1-2.2,3.5,3.5,0,0,1,2.5-.9,9.7,9.7,0,0,1,2.8.5v1.5a7.6,7.6,0,0,0-2.7-.7,2.4,2.4,0,0,0-1.5.4,1.7,1.7,0,0,0-.5,1.2,1.4,1.4,0,0,0,.4,1l1.5,1,.8.5a8,8,0,0,1,2.1,1.6,2.9,2.9,0,0,1,.6,1.9,3,3,0,0,1-1.1,2.4A4.5,4.5,0,0,1,26.1,21.3Z"/><path d="M35.6,21.2a3.6,3.6,0,0,1-2.9-1.3,4.8,4.8,0,0,1-1.1-3.2,4.6,4.6,0,0,1,1.1-3.2,4.1,4.1,0,0,1,3.1-1.2l2.3.3v1.3a6.9,6.9,0,0,0-2.2-.4,2.3,2.3,0,0,0-1.9.9,4.3,4.3,0,0,0-.7,2.4,3.6,3.6,0,0,0,.8,2.3A2.2,2.2,0,0,0,36,20a4.9,4.9,0,0,0,2.2-.6v1.4A9.2,9.2,0,0,1,35.6,21.2Z"/><path d="M40.2,21V8.6h1.5v5.5a3.5,3.5,0,0,1,3-1.8,2.9,2.9,0,0,1,1.8.7,2.9,2.9,0,0,1,.6,1.9V21H45.6V15.4a2.1,2.1,0,0,0-.3-1.3,1.1,1.1,0,0,0-.9-.5c-1,0-1.8.7-2.7,1.9V21Z"/><path d="M49.8,21V8.6h1.6V21Z"/><path d="M54.2,11V9.4h1.5V11Zm0,10V12.5h1.5V21Z"/><path d="M64.7,20.7a6.9,6.9,0,0,1-2.6.5A4.1,4.1,0,0,1,59,20a4.8,4.8,0,0,1-1.2-3.3,5,5,0,0,1,1.1-3.2,3.4,3.4,0,0,1,2.6-1.2,2.8,2.8,0,0,1,2.4,1.1,4.8,4.8,0,0,1,.9,3.1V17H59.4q.3,3,3,3a5.6,5.6,0,0,0,2.3-.5Zm-5.2-4.9h3.7c0-1.5-.6-2.3-1.7-2.3S59.6,14.3,59.5,15.8Z"/><path d="M67.1,21V12a5,5,0,0,1,.7-2.8A2.8,2.8,0,0,1,70,8.4a3.3,3.3,0,0,1,2.1.6,1.9,1.9,0,0,1,.8,1.5,4,4,0,0,1-1.1,2.3c-.4.6-.6.9-.6,1.1s.3.8.9,1.2l1.3,1.1a3.3,3.3,0,0,1,1.3,2.5,2.1,2.1,0,0,1-.7,1.8,2.7,2.7,0,0,1-2,.7,5.4,5.4,0,0,1-2.2-.4V19.4a6.7,6.7,0,0,0,2.2.7,1.4,1.4,0,0,0,1.3-1.3,2.1,2.1,0,0,0-.9-1.4l-1.5-1.3a2.2,2.2,0,0,1-1-1.7,3.2,3.2,0,0,1,.8-1.9,3.5,3.5,0,0,0,.6-1.7,1.2,1.2,0,0,0-.3-.9,1.5,1.5,0,0,0-1-.3,1.3,1.3,0,0,0-1,.4,2.5,2.5,0,0,0-.3,1.3V21Z"/><path d="M82.7,20.7a7.4,7.4,0,0,1-2.7.5A4.3,4.3,0,0,1,76.9,20a5.2,5.2,0,0,1-1.1-3.3,4.9,4.9,0,0,1,1-3.2,3.4,3.4,0,0,1,2.7-1.2,3,3,0,0,1,2.4,1.1,5.4,5.4,0,0,1,.8,3.1V17H77.3c.3,2,1.2,3,3,3a6.4,6.4,0,0,0,2.4-.5Zm-5.3-4.9h3.8c0-1.5-.6-2.3-1.8-2.3S77.5,14.3,77.4,15.8Z"/><path d="M85.1,21V12.5h1.5v1.6a2.9,2.9,0,0,1,2.7-1.8h.5v1.4h-.7a2.8,2.8,0,0,0-2.5,1.7V21Z"/></g><g class="cls-2"><path d="M161.2,21.5a5.1,5.1,0,0,1-4.1-1.8,6.7,6.7,0,0,1-1.6-4.7,6.5,6.5,0,0,1,1.6-4.7,5.2,5.2,0,0,1,4.2-1.8,5.4,5.4,0,0,1,4.2,1.8A7,7,0,0,1,167,15a6.8,6.8,0,0,1-1.5,4.7A5.5,5.5,0,0,1,161.2,21.5Zm0-1.3a3.6,3.6,0,0,0,3-1.4,6.9,6.9,0,0,0,1-3.8,6.9,6.9,0,0,0-1-3.8,3.7,3.7,0,0,0-5.8,0,6.1,6.1,0,0,0-1,3.8,6.1,6.1,0,0,0,1,3.8A3.4,3.4,0,0,0,161.2,20.2ZM158.9,7.8V6.4h1.5V7.8Zm3.3,0V6.4h1.4V7.8Z"/><path d="M171.1,13.4v7.8h-1.7V13.4h-1.3V12.1h1.3V11c0-2.1,1-3.2,3-3.2l1.8.3V9.4L172.5,9a1.4,1.4,0,0,0-1.1.4,2.8,2.8,0,0,0-.3,1.5v1.2h2.2v1.3Z"/><path d="M177,13.4v7.8h-1.7V13.4H174V12.1h1.3V11c0-2.1,1-3.2,3-3.2l1.8.3V9.4L178.4,9a1.4,1.4,0,0,0-1.1.4,2.8,2.8,0,0,0-.3,1.5v1.2h2.2v1.3Z"/><path d="M180.9,21.2V12.1h1.6v1.7a4,4,0,0,1,3.2-1.9,2.6,2.6,0,0,1,1.9.8,3,3,0,0,1,.7,2v6.5h-1.7v-6a2.4,2.4,0,0,0-.3-1.4,1.1,1.1,0,0,0-1-.5c-1,0-1.9.7-2.8,2v5.9Z"/><path d="M197.6,20.9a11.1,11.1,0,0,1-2.8.5,4.2,4.2,0,0,1-3.2-1.4,4.4,4.4,0,0,1-1.3-3.4,5.3,5.3,0,0,1,1.1-3.4,3.9,3.9,0,0,1,2.9-1.3,2.9,2.9,0,0,1,2.5,1.2,5.4,5.4,0,0,1,.9,3.3v.5H192c.2,2.2,1.3,3.2,3.1,3.2a8.5,8.5,0,0,0,2.5-.5ZM192,15.7h4c0-1.7-.6-2.6-1.8-2.6S192.2,14,192,15.7Z"/><path d="M200.1,21.2V12.1h1.6v1.7a3.3,3.3,0,0,1,2.9-1.9h.5v1.5h-.8a3.1,3.1,0,0,0-2.6,1.8v6Z"/></g><g class="cls-2"><path d="M296.1,16.1,293.3,5.2h1.5l2.2,8.6,2.1-8.6h1.4l2,8.5,2.4-8.5h1.2l-3,10.9h-1.6l-1.9-8.4-2,8.4Z"/><path d="M312.4,15.9a14.1,14.1,0,0,1-2.5.4,3.8,3.8,0,0,1-2.9-1.2,4.4,4.4,0,0,1-1.1-3,4.4,4.4,0,0,1,1-3,3.2,3.2,0,0,1,2.5-1.2A2.5,2.5,0,0,1,311.6,9a4.2,4.2,0,0,1,.8,2.9v.4h-5c.2,1.9,1.1,2.9,2.8,2.9a7.4,7.4,0,0,0,2.2-.5Zm-4.9-4.6H311c0-1.5-.6-2.3-1.7-2.3S307.6,9.8,307.5,11.3Z"/><path d="M317.8,16.3a3.6,3.6,0,0,1-2.7-1.2,4.4,4.4,0,0,1-1-3,4.5,4.5,0,0,1,1-3.1,4,4,0,0,1,3-1,8.2,8.2,0,0,1,2.1.2V9.4l-2-.3a1.9,1.9,0,0,0-1.8.8,3.2,3.2,0,0,0-.7,2.2,3.2,3.2,0,0,0,.7,2.2,2.2,2.2,0,0,0,1.8.8,4.3,4.3,0,0,0,2.1-.5v1.3A8.5,8.5,0,0,1,317.8,16.3Z"/><path d="M322.2,16.1V4.5h1.4V9.6A3.3,3.3,0,0,1,326.4,8a2.4,2.4,0,0,1,1.7.6,2.6,2.6,0,0,1,.6,1.8v5.7h-1.4V10.9a2.1,2.1,0,0,0-.3-1.3,1,1,0,0,0-.9-.4,3.4,3.4,0,0,0-2.5,1.7v5.2Z"/><path d="M333.4,16.3a9.3,9.3,0,0,1-2.4-.5V14.5a5.6,5.6,0,0,0,2.5.7,1.7,1.7,0,0,0,1-.3,1.1,1.1,0,0,0,.4-.9c0-.5-.4-.9-1.1-1.2l-.9-.4c-1.2-.5-1.8-1.2-1.8-2.2a1.9,1.9,0,0,1,.7-1.6,3.2,3.2,0,0,1,2-.6h2V9.4l-2-.4c-.9,0-1.3.4-1.3,1.1s.3.8,1,1.1l.7.3a3.8,3.8,0,0,1,1.7,1,2.2,2.2,0,0,1,.5,1.4,2,2,0,0,1-.9,1.7A2.8,2.8,0,0,1,333.4,16.3Z"/><path d="M338.8,16.1V4.5h1.4V16.1Z"/><path d="M348.7,15.9a12.9,12.9,0,0,1-2.5.4,3.6,3.6,0,0,1-2.8-1.2,4.1,4.1,0,0,1-1.2-3,4.9,4.9,0,0,1,1-3,3.2,3.2,0,0,1,2.5-1.2A2.8,2.8,0,0,1,348,9a4.8,4.8,0,0,1,.8,2.9v.4h-5.1c.2,1.9,1.2,2.9,2.8,2.9a7.4,7.4,0,0,0,2.2-.5Zm-4.9-4.6h3.5c0-1.5-.5-2.3-1.7-2.3S343.9,9.8,343.8,11.3Z"/><path d="M351,16.1v-8h1.5V9.6A2.7,2.7,0,0,1,355,8h.4V9.3h-.6a2.7,2.7,0,0,0-2.3,1.7v5.2Z"/></g><g class="cls-2"><path d="M54.8,68.5V46.7h3.1V68.5Z"/></g><g class="cls-2"><path d="M181.8,59.5V42.9h2.4V59.5Z"/></g><g class="cls-2"><path d="M309.1,49.1V47.4h1.6v1.7Zm0,10.7V50.7h1.6v9.1Z"/></g><g class="cls-2"><path d="M182,68V58.6h1.4V68Z"/></g><g class="cls-2"><path d="M308.8,68V58.6h1.4V68Z"/></g><g class="cls-2"><path d="M55.3,83.7V69.9h1.9V83.7Z"/></g><g class="cls-2"><path d="M182,83.7V69.9h1.9V83.7Z"/></g><g class="cls-2"><path d="M308.6,83.7V69.9h2V83.7Z"/></g><g class="cls-2"><path d="M161.5,108l-1.3.2a2.1,2.1,0,0,1-1.6-.6,2.5,2.5,0,0,1-.6-1.7,2.5,2.5,0,0,1,.5-1.5,1.6,1.6,0,0,1,1.4-.7,1.4,1.4,0,0,1,1.2.6,2.2,2.2,0,0,1,.4,1.5v.3h-2.7q.1,1.5,1.5,1.5l1.2-.3Zm-2.7-2.5h1.9q0-1.2-.9-1.2C159.2,104.3,158.9,104.7,158.8,105.5Z"/></g><g class="cls-2"><path d="M6.7,161.6a2.9,2.9,0,0,1-1.6-2.4,2.4,2.4,0,0,1,.9-2,3.2,3.2,0,0,1,2.4-.8,3.3,3.3,0,0,1,2.1.6,2.1,2.1,0,0,1,.9,1.7c0,1.1-.7,2-2.1,2.9,1.7.8,2.5,1.9,2.5,3.1a2.6,2.6,0,0,1-1,2.2,4,4,0,0,1-2.7.9,4.2,4.2,0,0,1-2.6-.8,2.8,2.8,0,0,1-1-2.1A4,4,0,0,1,6.7,161.6Zm.8.6a4.5,4.5,0,0,0-1.2,1.2,2.1,2.1,0,0,0-.3,1.2,1.8,1.8,0,0,0,.6,1.5,2.1,2.1,0,0,0,1.6.6,2,2,0,0,0,1.5-.5,1.4,1.4,0,0,0,.6-1.2,1.4,1.4,0,0,0-.4-1.1,4.5,4.5,0,0,0-1.4-1.1Zm1-1c1.1-.7,1.6-1.4,1.6-2.3a1.2,1.2,0,0,0-.5-1,2.1,2.1,0,0,0-1.4-.4,1.8,1.8,0,0,0-1.3.4,1.2,1.2,0,0,0-.5,1,1.6,1.6,0,0,0,.5,1.1Z"/><path d="M16,161.6a2.9,2.9,0,0,1-1.6-2.4,2.4,2.4,0,0,1,.9-2,3.2,3.2,0,0,1,2.4-.8,3.3,3.3,0,0,1,2.1.6,2.1,2.1,0,0,1,.9,1.7c0,1.1-.7,2-2.1,2.9,1.7.8,2.5,1.9,2.5,3.1a2.6,2.6,0,0,1-1,2.2,4,4,0,0,1-2.7.9,4.2,4.2,0,0,1-2.6-.8,2.8,2.8,0,0,1-1-2.1A3.8,3.8,0,0,1,16,161.6Zm.8.6a4.5,4.5,0,0,0-1.2,1.2,2.1,2.1,0,0,0-.3,1.2,1.8,1.8,0,0,0,.6,1.5,2.1,2.1,0,0,0,1.6.6,2,2,0,0,0,1.5-.5,1.4,1.4,0,0,0,.6-1.2,1.4,1.4,0,0,0-.4-1.1,4.5,4.5,0,0,0-1.4-1.1Zm1-1c1-.7,1.6-1.4,1.6-2.3a1.1,1.1,0,0,0-.6-1,1.7,1.7,0,0,0-1.3-.4,1.8,1.8,0,0,0-1.3.4,1.2,1.2,0,0,0-.5,1,1.6,1.6,0,0,0,.5,1.1Z"/></g><g class="cls-2"><path d="M32.4,159.4a2.7,2.7,0,0,1-1.4-2.2,2,2,0,0,1,.8-1.7,3.2,3.2,0,0,1,2-.7,2.9,2.9,0,0,1,1.9.6,1.8,1.8,0,0,1,.7,1.5,3.3,3.3,0,0,1-1.7,2.5q2.1,1,2.1,2.7a2.3,2.3,0,0,1-.9,1.9,3.5,3.5,0,0,1-2.3.7,3.1,3.1,0,0,1-2.2-.7,2,2,0,0,1-.9-1.8A3.2,3.2,0,0,1,32.4,159.4Zm.7.5a3.7,3.7,0,0,0-1.1,1,2,2,0,0,0-.2,1.1,1.5,1.5,0,0,0,.5,1.3,1.9,1.9,0,0,0,1.3.5,2.1,2.1,0,0,0,1.4-.4,1.6,1.6,0,0,0,.5-1.1,1.7,1.7,0,0,0-.3-1l-1.3-.9Zm.9-.9a2.6,2.6,0,0,0,1.3-2,1.4,1.4,0,0,0-.5-.9,2.2,2.2,0,0,0-2.2,0c-.3.3-.5.5-.5.9a1.8,1.8,0,0,0,.4,1Z"/><path d="M39.1,164.5v-1.1a3.9,3.9,0,0,0,1.8.4,2.5,2.5,0,0,0,1.5-.5,2.5,2.5,0,0,0,.5-1.6c0-1.4-1-2.1-2.9-2.1h-.7v-4.6h4.8v1.1H40.4v2.5a4.1,4.1,0,0,1,2.8.8,2.8,2.8,0,0,1,1,2.3,2.9,2.9,0,0,1-.9,2.2,4,4,0,0,1-2.6.7A5,5,0,0,1,39.1,164.5Z"/></g><g class="cls-2"><path d="M73.5,159.3a3.4,3.4,0,0,1-1.6-2.5,2.5,2.5,0,0,1,.9-2,3.6,3.6,0,0,1,2.4-.8,3.2,3.2,0,0,1,2.2.7,2.1,2.1,0,0,1,.8,1.7c0,1-.7,2-2,2.9,1.6.8,2.4,1.8,2.4,3.1a2.7,2.7,0,0,1-1,2.2,4,4,0,0,1-2.7.8,3.8,3.8,0,0,1-2.6-.8,2.6,2.6,0,0,1-.9-2.1A3.6,3.6,0,0,1,73.5,159.3Zm.8.5a6.6,6.6,0,0,0-1.2,1.2,2.8,2.8,0,0,0-.3,1.3,2,2,0,0,0,.6,1.5,2.1,2.1,0,0,0,1.6.6,2.5,2.5,0,0,0,1.5-.5,1.8,1.8,0,0,0,.6-1.3,2,2,0,0,0-.3-1.1,7.6,7.6,0,0,0-1.5-1Zm1.1-1a2.8,2.8,0,0,0,1.5-2.2,1.4,1.4,0,0,0-.5-1.1,2.9,2.9,0,0,0-1.4-.4,2,2,0,0,0-1.3.4,1.4,1.4,0,0,0-.5,1,1.6,1.6,0,0,0,.5,1.1A7.6,7.6,0,0,0,75.4,158.8Z"/><path d="M81.9,159.5a3,3,0,0,1,2.6-1.3,3.2,3.2,0,0,1,2.3.9,3.7,3.7,0,0,1,.9,2.5,4,4,0,0,1-1,2.8,3.4,3.4,0,0,1-2.6,1,3.1,3.1,0,0,1-2.8-1.4,6.8,6.8,0,0,1-1-4,7,7,0,0,1,1.2-4.4,3.7,3.7,0,0,1,3.3-1.6l2.4.4v1.3a7.4,7.4,0,0,0-2.5-.6C82.8,155.1,81.9,156.6,81.9,159.5Zm4.4,2.4a3.2,3.2,0,0,0-.6-2,2,2,0,0,0-1.5-.7,2.1,2.1,0,0,0-1.6.7,2.1,2.1,0,0,0-.7,1.4,3.4,3.4,0,0,0,.7,2.2,1.9,1.9,0,0,0,3.1.2A2.8,2.8,0,0,0,86.3,161.9Z"/><path d="M92.1,159.3a3.1,3.1,0,0,1-1.6-2.5,2.5,2.5,0,0,1,.9-2,3.6,3.6,0,0,1,2.3-.8,3.2,3.2,0,0,1,2.2.7,1.9,1.9,0,0,1,.8,1.7c0,1-.6,2-2,2.9,1.6.8,2.5,1.8,2.5,3.1a2.8,2.8,0,0,1-1.1,2.2,3.7,3.7,0,0,1-2.6.8,3.5,3.5,0,0,1-2.6-.8,2.4,2.4,0,0,1-1-2.1A3.6,3.6,0,0,1,92.1,159.3Zm.7.5L91.7,161a2,2,0,0,0-.4,1.3,2,2,0,0,0,.6,1.5,2.3,2.3,0,0,0,1.6.6,2.5,2.5,0,0,0,1.6-.5,1.8,1.8,0,0,0,.6-1.3,1.5,1.5,0,0,0-.4-1.1,4.6,4.6,0,0,0-1.4-1Zm1.1-1a2.8,2.8,0,0,0,1.5-2.2,1.2,1.2,0,0,0-.5-1.1,2.5,2.5,0,0,0-1.3-.4,1.7,1.7,0,0,0-1.3.4,1.1,1.1,0,0,0-.5,1,1.5,1.5,0,0,0,.4,1.1Z"/><path d="M101.3,159.3a3.4,3.4,0,0,1-1.6-2.5,2.6,2.6,0,0,1,1-2,3.4,3.4,0,0,1,2.3-.8,3.2,3.2,0,0,1,2.2.7,2.1,2.1,0,0,1,.8,1.7c0,1-.7,2-2,2.9,1.6.8,2.5,1.8,2.5,3.1a2.8,2.8,0,0,1-1.1,2.2,3.8,3.8,0,0,1-2.6.8,3.5,3.5,0,0,1-2.6-.8,2.4,2.4,0,0,1-1-2.1A3.6,3.6,0,0,1,101.3,159.3Zm.8.5-1.2,1.2a2.8,2.8,0,0,0-.3,1.3,2,2,0,0,0,.6,1.5,2.3,2.3,0,0,0,1.6.6,2.5,2.5,0,0,0,1.6-.5,1.8,1.8,0,0,0,.6-1.3,2.1,2.1,0,0,0-.4-1.1l-1.4-1Zm1.1-1a2.8,2.8,0,0,0,1.5-2.2,1.4,1.4,0,0,0-.5-1.1,2.5,2.5,0,0,0-1.3-.4,1.7,1.7,0,0,0-1.3.4,1.1,1.1,0,0,0-.5,1,1.5,1.5,0,0,0,.4,1.1Z"/></g><g class="cls-2"><path d="M137.2,160.1a3.1,3.1,0,0,1-1.6-2.4,2.7,2.7,0,0,1,.9-2.1,3.6,3.6,0,0,1,2.4-.7,3.8,3.8,0,0,1,2.2.6,2.3,2.3,0,0,1,.8,1.7c0,1.1-.7,2-2,2.9,1.6.8,2.4,1.8,2.4,3.1a2.6,2.6,0,0,1-1,2.2,3.9,3.9,0,0,1-2.6.9,4,4,0,0,1-2.6-.8,2.5,2.5,0,0,1-1-2.1A3.9,3.9,0,0,1,137.2,160.1Zm.8.6a3.4,3.4,0,0,0-1.2,1.2,2.1,2.1,0,0,0-.3,1.2,1.8,1.8,0,0,0,.6,1.5,2.3,2.3,0,0,0,1.6.6,2.2,2.2,0,0,0,1.6-.5,1.5,1.5,0,0,0,.6-1.3,1.8,1.8,0,0,0-.4-1,6.1,6.1,0,0,0-1.4-1.1Zm1.1-1a2.9,2.9,0,0,0,1.5-2.3,1.2,1.2,0,0,0-.5-1,1.8,1.8,0,0,0-1.3-.4,1.7,1.7,0,0,0-1.3.4,1,1,0,0,0-.5,1,1.5,1.5,0,0,0,.4,1.1Z"/><path d="M145.3,166l.6-2.2,1.4-2.5,3-4.8h-5.6v-1.3h7v1.3c-2.8,4.1-4.4,7.3-4.7,9.5Z"/></g><g class="cls-2"><path d="M158.9,158.8a2.8,2.8,0,0,1-1.5-2.3,2.3,2.3,0,0,1,.9-1.8,3.1,3.1,0,0,1,2.2-.7,3.2,3.2,0,0,1,2,.6,1.9,1.9,0,0,1,.8,1.6c0,.9-.7,1.8-1.9,2.6,1.5.8,2.3,1.8,2.3,2.9a2.4,2.4,0,0,1-1,2.1,3.4,3.4,0,0,1-2.5.8,3.6,3.6,0,0,1-2.4-.7,2.5,2.5,0,0,1-.9-2A3.7,3.7,0,0,1,158.9,158.8Zm.7.6a5.6,5.6,0,0,0-1.1,1.1,2.1,2.1,0,0,0-.3,1.2,2,2,0,0,0,.6,1.4,2.5,2.5,0,0,0,1.5.5,1.6,1.6,0,0,0,1.4-.5,1.4,1.4,0,0,0,.6-1.1,1.2,1.2,0,0,0-.4-1,3.8,3.8,0,0,0-1.3-1Zm1-1a2.4,2.4,0,0,0,1.4-2.1,1,1,0,0,0-.4-.9,1.8,1.8,0,0,0-1.3-.4,2.1,2.1,0,0,0-1.2.3,1.3,1.3,0,0,0,0,2A5.2,5.2,0,0,0,160.6,158.4Z"/><path d="M166.1,164.4v-1.2a4.6,4.6,0,0,0,1.9.4,2.1,2.1,0,0,0,2.2-2.2c0-1.5-1.1-2.3-3.2-2.3h-.7v-5h5.1v1.2h-3.9v2.7a4.5,4.5,0,0,1,3,.9,2.8,2.8,0,0,1,1.1,2.5,2.9,2.9,0,0,1-1,2.3,4.3,4.3,0,0,1-2.7.8A6.2,6.2,0,0,1,166.1,164.4Z"/></g><g class="cls-2"><path d="M201.1,159.4a2.9,2.9,0,0,1-1.5-2.3,2.6,2.6,0,0,1,.8-1.9,3.2,3.2,0,0,1,2.2-.7,3.5,3.5,0,0,1,2.1.6,2,2,0,0,1,.7,1.6,3.3,3.3,0,0,1-1.9,2.7c1.6.7,2.3,1.7,2.3,2.9a2.9,2.9,0,0,1-.9,2.1,4.1,4.1,0,0,1-2.5.8,3.6,3.6,0,0,1-2.4-.8,2.5,2.5,0,0,1-.9-2A3.4,3.4,0,0,1,201.1,159.4Zm.7.5-1.1,1.1a2.4,2.4,0,0,0-.3,1.2,2.1,2.1,0,0,0,2,2,2.5,2.5,0,0,0,1.5-.5,1.4,1.4,0,0,0,.6-1.2,1.8,1.8,0,0,0-.4-1,5.3,5.3,0,0,0-1.3-1Zm1-.9a2.9,2.9,0,0,0,1.4-2.1,1.1,1.1,0,0,0-.5-1,2.1,2.1,0,0,0-1.2-.4,1.6,1.6,0,0,0-1.2.4,1.2,1.2,0,0,0-.5.9,1.5,1.5,0,0,0,.4,1.1Z"/><path d="M208.9,159.7a3,3,0,0,1,2.5-1.3,2.9,2.9,0,0,1,2.2.9,3.3,3.3,0,0,1,.8,2.2,3.3,3.3,0,0,1-1,2.6,3.1,3.1,0,0,1-5-.3,6.5,6.5,0,0,1-.9-3.7,6.1,6.1,0,0,1,1.1-4.1,3.4,3.4,0,0,1,3-1.5,7.4,7.4,0,0,1,2.3.4v1.2a6.9,6.9,0,0,0-2.4-.6C209.8,155.5,208.9,156.9,208.9,159.7Zm4.1,2.1a2.7,2.7,0,0,0-.5-1.8,1.7,1.7,0,0,0-1.4-.6,2,2,0,0,0-1.5.6,1.6,1.6,0,0,0-.6,1.3,3.3,3.3,0,0,0,.6,2.1,1.9,1.9,0,0,0,1.5.8,1.7,1.7,0,0,0,1.4-.7A2.3,2.3,0,0,0,213,161.8Z"/><path d="M218.5,159.4a2.9,2.9,0,0,1-1.5-2.3,2.3,2.3,0,0,1,.9-1.9,2.9,2.9,0,0,1,2.2-.7,3.2,3.2,0,0,1,2,.6,2.1,2.1,0,0,1,.8,1.6,3.5,3.5,0,0,1-1.9,2.7c1.5.7,2.3,1.7,2.3,2.9a3,3,0,0,1-1,2.1,3.9,3.9,0,0,1-2.5.8,3.6,3.6,0,0,1-2.4-.8,2.5,2.5,0,0,1-.9-2A3.5,3.5,0,0,1,218.5,159.4Zm.7.5-1.1,1.1a2.4,2.4,0,0,0-.3,1.2,1.7,1.7,0,0,0,.6,1.4,2,2,0,0,0,1.5.6,2.2,2.2,0,0,0,1.4-.5,1.4,1.4,0,0,0,.6-1.2,1.3,1.3,0,0,0-.4-1,3.8,3.8,0,0,0-1.3-1Zm1-.9a2.6,2.6,0,0,0,1.4-2.1,1.3,1.3,0,0,0-.4-1,2.8,2.8,0,0,0-1.3-.4,1.6,1.6,0,0,0-1.2.4,1.2,1.2,0,0,0-.5.9,1.6,1.6,0,0,0,.5,1.1A8.2,8.2,0,0,0,220.2,159Z"/><path d="M226.1,164.9a5.2,5.2,0,0,1,.6-2,9.8,9.8,0,0,1,1.3-2.4l2.7-4.5h-5.2v-1.2H232V156c-2.6,3.9-4,6.8-4.3,8.9Z"/><path d="M237.3,164.9V162h-4.6v-1l4.6-6.2h1.2v6.1h1.4V162h-1.4v2.9Zm-3.3-4h3.4v-4.5Z"/></g><g class="cls-2"><path d="M265.3,160.4a3.1,3.1,0,0,1-1.6-2.4,2.3,2.3,0,0,1,1-2,3.4,3.4,0,0,1,2.3-.8,3.2,3.2,0,0,1,2.2.7,2.1,2.1,0,0,1,.8,1.7,3.5,3.5,0,0,1-2,2.8c1.6.9,2.5,1.9,2.5,3.2a2.8,2.8,0,0,1-1.1,2.2,3.8,3.8,0,0,1-2.6.8,3.5,3.5,0,0,1-2.6-.8,2.4,2.4,0,0,1-1-2.1A3.9,3.9,0,0,1,265.3,160.4Zm.8.6-1.2,1.2a2.8,2.8,0,0,0-.3,1.3,2,2,0,0,0,.6,1.5,2.3,2.3,0,0,0,1.6.6,2.5,2.5,0,0,0,1.6-.5,1.8,1.8,0,0,0,.6-1.3,2.1,2.1,0,0,0-.4-1.1l-1.4-1.1Zm1.1-1a2.8,2.8,0,0,0,1.5-2.2,1.4,1.4,0,0,0-.5-1.1,1.8,1.8,0,0,0-1.3-.4,1.7,1.7,0,0,0-1.3.4,1.1,1.1,0,0,0-.5,1,1.5,1.5,0,0,0,.4,1.1Z"/><path d="M273.4,166.4a21.8,21.8,0,0,1,.6-2.2l1.4-2.6,3-4.7h-5.6v-1.4h7v1.4c-2.8,4.1-4.4,7.2-4.7,9.5Z"/><path d="M283.7,160.4a3.1,3.1,0,0,1-1.6-2.4,2.5,2.5,0,0,1,.9-2,3.6,3.6,0,0,1,2.4-.8,3.2,3.2,0,0,1,2.2.7,2.1,2.1,0,0,1,.8,1.7,3.5,3.5,0,0,1-2,2.8c1.6.9,2.4,1.9,2.4,3.2a2.7,2.7,0,0,1-1,2.2,4,4,0,0,1-2.7.8,3.4,3.4,0,0,1-2.5-.8,2.4,2.4,0,0,1-1-2.1A3.9,3.9,0,0,1,283.7,160.4Zm.8.6a6.6,6.6,0,0,0-1.2,1.2,2.8,2.8,0,0,0-.3,1.3,2,2,0,0,0,.6,1.5,2.1,2.1,0,0,0,1.6.6,2.3,2.3,0,0,0,1.5-.5,1.8,1.8,0,0,0,.6-1.3,2,2,0,0,0-.3-1.1l-1.5-1.1Zm1.1-1a2.8,2.8,0,0,0,1.5-2.2,1.4,1.4,0,0,0-.5-1.1,2.1,2.1,0,0,0-1.4-.4,2,2,0,0,0-1.3.4,1.4,1.4,0,0,0-.5,1,1.6,1.6,0,0,0,.5,1.1Z"/><path d="M291.4,166.4v-1.3a5.3,5.3,0,0,0,2,.5,2.2,2.2,0,0,0,1.7-.7,2.4,2.4,0,0,0,.6-1.7c0-1.7-1.1-2.5-3.3-2.5h-.8v-5.3h5.5v1.3h-4.3v2.8a4.8,4.8,0,0,1,3.3,1,3.2,3.2,0,0,1,1.2,2.7,3,3,0,0,1-1.1,2.4,4.4,4.4,0,0,1-2.9.9A6.5,6.5,0,0,1,291.4,166.4Z"/></g><g class="cls-2"><path d="M325.4,159.1a2.7,2.7,0,0,1-1.3-2,1.9,1.9,0,0,1,.8-1.6,2.9,2.9,0,0,1,1.9-.6,2.3,2.3,0,0,1,1.7.5,1.7,1.7,0,0,1,.7,1.4,3,3,0,0,1-1.7,2.3c1.4.6,2,1.4,2,2.4a2.2,2.2,0,0,1-.8,1.8,3.1,3.1,0,0,1-2.1.7,3.3,3.3,0,0,1-2.1-.6,2.3,2.3,0,0,1-.8-1.7A3,3,0,0,1,325.4,159.1Zm.7.4a4.6,4.6,0,0,0-1,1,1.5,1.5,0,0,0-.2,1,1.6,1.6,0,0,0,.4,1.2,2,2,0,0,0,1.3.4,2.1,2.1,0,0,0,1.2-.3,1.3,1.3,0,0,0,.5-1.1,1.1,1.1,0,0,0-.3-.8,5.9,5.9,0,0,0-1.1-.9Zm.8-.8a2.1,2.1,0,0,0,1.2-1.8.9.9,0,0,0-.4-.8,1.8,1.8,0,0,0-1.1-.3,1.7,1.7,0,0,0-1,.3.8.8,0,0,0-.4.8,1.2,1.2,0,0,0,.4.9Z"/><path d="M332.3,159.3a2.6,2.6,0,0,1,2.1-1.1,2.7,2.7,0,0,1,1.9.8,2.9,2.9,0,0,1,.7,1.9,3.1,3.1,0,0,1-.8,2.2,2.9,2.9,0,0,1-2.1.9,2.8,2.8,0,0,1-2.3-1.1,6.2,6.2,0,0,1-.8-3.3,5.4,5.4,0,0,1,1-3.5,3.1,3.1,0,0,1,2.6-1.2l1.9.3v1a6.4,6.4,0,0,0-2-.5C333,155.7,332.3,156.9,332.3,159.3Zm3.5,1.9a2.5,2.5,0,0,0-.4-1.6,1.5,1.5,0,0,0-1.3-.6,1.8,1.8,0,0,0-1.2.5,1.7,1.7,0,0,0-.6,1.2,2.6,2.6,0,0,0,.6,1.8,1.5,1.5,0,0,0,1.3.6,1.3,1.3,0,0,0,1.2-.5A2.1,2.1,0,0,0,335.8,161.2Z"/><path d="M340.6,159.1a2.7,2.7,0,0,1-1.3-2,1.9,1.9,0,0,1,.8-1.6,2.6,2.6,0,0,1,1.8-.6,2.6,2.6,0,0,1,1.8.5,1.7,1.7,0,0,1,.7,1.4,3,3,0,0,1-1.7,2.3c1.3.6,2,1.4,2,2.4a2.2,2.2,0,0,1-.8,1.8,3.2,3.2,0,0,1-2.2.7,3.2,3.2,0,0,1-2-.6,2,2,0,0,1-.8-1.7A3,3,0,0,1,340.6,159.1Zm.6.4-.9,1a1.5,1.5,0,0,0-.3,1,1.7,1.7,0,0,0,.5,1.2,1.8,1.8,0,0,0,1.3.4,2.1,2.1,0,0,0,1.2-.3,1.3,1.3,0,0,0,.5-1.1,1.1,1.1,0,0,0-.3-.8,5.9,5.9,0,0,0-1.1-.9Zm.9-.8a2.1,2.1,0,0,0,1.2-1.8.9.9,0,0,0-.4-.8,1.8,1.8,0,0,0-1.1-.3,1.7,1.7,0,0,0-1,.3.8.8,0,0,0-.4.8,1.2,1.2,0,0,0,.4.9Z"/><path d="M348.2,159.1a2.7,2.7,0,0,1-1.3-2,1.9,1.9,0,0,1,.8-1.6,2.9,2.9,0,0,1,1.9-.6,2.3,2.3,0,0,1,1.7.5,1.7,1.7,0,0,1,.7,1.4,3,3,0,0,1-1.7,2.3c1.4.6,2,1.4,2,2.4a2.2,2.2,0,0,1-.8,1.8,3.1,3.1,0,0,1-2.1.7,3.3,3.3,0,0,1-2.1-.6,2.3,2.3,0,0,1-.8-1.7A3,3,0,0,1,348.2,159.1Zm.7.4-1,1a1.5,1.5,0,0,0-.2,1,1.6,1.6,0,0,0,.4,1.2,2,2,0,0,0,1.3.4,2.1,2.1,0,0,0,1.2-.3,1.3,1.3,0,0,0,.5-1.1,1.1,1.1,0,0,0-.3-.8,5.9,5.9,0,0,0-1.1-.9Zm.8-.8a2.1,2.1,0,0,0,1.2-1.8.9.9,0,0,0-.4-.8,1.8,1.8,0,0,0-1.1-.3,1.7,1.7,0,0,0-1,.3.8.8,0,0,0-.4.8,1.2,1.2,0,0,0,.4.9Z"/><path d="M359.8,163.8l-1-2.4h-3.7l-.9,2.4H353l3.5-8.7h1.2l3.4,8.7Zm-1.4-3.3-1.4-3.8-1.5,3.8Z"/></g><g class="cls-2"><path d="M364.4,159a2.7,2.7,0,0,1-1.5-2.3,2.5,2.5,0,0,1,.8-1.8,3.2,3.2,0,0,1,2.2-.7,3.3,3.3,0,0,1,2.1.6,1.9,1.9,0,0,1,.8,1.6c0,.9-.7,1.8-1.9,2.6,1.5.8,2.3,1.8,2.3,2.9a2.7,2.7,0,0,1-1,2.1,3.4,3.4,0,0,1-2.5.8,3.6,3.6,0,0,1-2.4-.7,2.5,2.5,0,0,1-.9-2A3.5,3.5,0,0,1,364.4,159Zm.7.6-1.1,1.1a2.1,2.1,0,0,0-.3,1.2,2,2,0,0,0,.6,1.4,2.5,2.5,0,0,0,1.5.5,1.7,1.7,0,0,0,1.4-.5,1.4,1.4,0,0,0,.6-1.1,1.2,1.2,0,0,0-.4-1,5.3,5.3,0,0,0-1.3-1Zm1-1a2.4,2.4,0,0,0,1.4-2.1,1,1,0,0,0-.4-.9,2,2,0,0,0-1.3-.4,2.1,2.1,0,0,0-1.2.3,1.4,1.4,0,0,0-.5,1,1.8,1.8,0,0,0,.4,1A6.1,6.1,0,0,0,366.1,158.6Z"/><path d="M372,164.6a6.5,6.5,0,0,1,.6-2.1,15.1,15.1,0,0,1,1.3-2.4l2.7-4.4h-5.2v-1.3h6.5v1.3c-2.6,3.8-4,6.8-4.3,8.9Z"/><path d="M385.3,164.6l-1.1-2.8h-4.3l-1.1,2.8h-1.3l4-10.2h1.4l4,10.2Zm-1.5-3.9-1.7-4.4-1.8,4.4Z"/></g><g class="cls-2"><path d="M4.9,182.3a12.4,12.4,0,0,1-2.3-.4v-1.3a4.9,4.9,0,0,0,2.3.7,1.7,1.7,0,0,0,1-.3,1,1,0,0,0,.4-.8c0-.5-.4-.9-1.1-1.2l-.8-.3c-1.1-.5-1.7-1.2-1.7-2.1a1.6,1.6,0,0,1,.7-1.5,2.7,2.7,0,0,1,1.9-.6l1.5.2h.3v1.2a5.4,5.4,0,0,0-1.8-.4c-.9,0-1.3.3-1.3,1s.3.7,1,1l.6.3a4.5,4.5,0,0,1,1.6.9,2,2,0,0,1,.4,1.3,2.2,2.2,0,0,1-.7,1.7A3.4,3.4,0,0,1,4.9,182.3Z"/><path d="M12.8,182.3a3.3,3.3,0,0,1-2.5-1.1,4.1,4.1,0,0,1-1-2.8,4.4,4.4,0,0,1,1-2.9,3.6,3.6,0,0,1,2.6-1,3.8,3.8,0,0,1,2.6,1,4.4,4.4,0,0,1,.9,2.9,4.1,4.1,0,0,1-.9,2.8A3.5,3.5,0,0,1,12.8,182.3Zm.1-1c1.4,0,2.1-1,2.1-2.9s-.7-2.9-2.1-2.9-2.1,1-2.1,2.9S11.5,181.3,12.9,181.3Z"/></g><g class="cls-2"><path d="M98.6,175.5A3.1,3.1,0,0,1,97,173a2.5,2.5,0,0,1,.9-2,3.6,3.6,0,0,1,2.3-.8,3.6,3.6,0,0,1,2.2.7,1.9,1.9,0,0,1,.8,1.7c0,1-.6,2-2,2.9,1.7.8,2.5,1.8,2.5,3.1a2.8,2.8,0,0,1-1.1,2.2,3.6,3.6,0,0,1-2.6.9,4.2,4.2,0,0,1-2.6-.8,2.7,2.7,0,0,1-1-2.2A3.6,3.6,0,0,1,98.6,175.5Zm.8.6a4.4,4.4,0,0,0-1.2,1.1,2.8,2.8,0,0,0-.3,1.3,2.1,2.1,0,0,0,2.1,2.1,2.5,2.5,0,0,0,1.6-.5,1.6,1.6,0,0,0,.6-1.3,1.5,1.5,0,0,0-.4-1.1,4.6,4.6,0,0,0-1.4-1Zm1-1.1a2.7,2.7,0,0,0,1.5-2.2,1.3,1.3,0,0,0-.5-1.1,2.3,2.3,0,0,0-2.6,0,1.4,1.4,0,0,0-.5,1,1.4,1.4,0,0,0,.4,1.1A5,5,0,0,0,100.4,175Z"/><path d="M106.7,181.4a6.4,6.4,0,0,1,.6-2.2,11.1,11.1,0,0,1,1.4-2.5l2.9-4.8H106v-1.4h7v1.4c-2.8,4.1-4.3,7.3-4.7,9.5Z"/></g><g class="cls-2"><path d="M135.7,178.7v-1.2a5.7,5.7,0,0,0,2.1.6,2.5,2.5,0,0,0,1.5-.5,2.2,2.2,0,0,0,.5-1.4c0-1.3-.9-2-2.8-2h-.5v-.8h.5c1.7,0,2.6-.7,2.6-1.9s-.6-1.4-1.7-1.4a4.1,4.1,0,0,0-2.1.5v-1.1a8.5,8.5,0,0,1,2.2-.4c1.9,0,2.8.8,2.8,2.2a2.5,2.5,0,0,1-1.9,2.4,2.5,2.5,0,0,1,2.3,2.5,2.6,2.6,0,0,1-.9,2.1,3.6,3.6,0,0,1-2.4.7Z"/></g><g class="cls-2"><path d="M266.9,182a15.5,15.5,0,0,1-3.9.6,5.8,5.8,0,0,1-4.5-1.7,6.5,6.5,0,0,1-1.6-4.8,6.4,6.4,0,0,1,1.6-4.7,5.6,5.6,0,0,1,4.5-1.7,13.9,13.9,0,0,1,3.9.5v1.6a12.1,12.1,0,0,0-3.9-.8,3.6,3.6,0,0,0-3.1,1.3,5.6,5.6,0,0,0-1.1,3.8,5.9,5.9,0,0,0,1.1,3.8,4.3,4.3,0,0,0,3.4,1.4l1.8-.3v-4h1.8Z"/><path d="M273.1,182.5a3.9,3.9,0,0,1-3.1-1.3,4.7,4.7,0,0,1-1.1-3.4,4.9,4.9,0,0,1,1.1-3.5,4.3,4.3,0,0,1,3.2-1.3,4.1,4.1,0,0,1,3.1,1.3,4.9,4.9,0,0,1,1.2,3.4,4.8,4.8,0,0,1-1.2,3.5A3.9,3.9,0,0,1,273.1,182.5Zm0-1.2c1.8,0,2.6-1.2,2.6-3.6s-.8-3.4-2.5-3.4-2.6,1.1-2.6,3.5S271.5,181.3,273.1,181.3Z"/></g><g class="cls-2"><path d="M289.5,178.9a3.3,3.3,0,0,1-2.7-1.6,7.7,7.7,0,0,1-1-4.2,7.1,7.1,0,0,1,1-4.1,3.3,3.3,0,0,1,2.8-1.6,3.3,3.3,0,0,1,2.7,1.6,7.1,7.1,0,0,1,1.1,4.1,7.2,7.2,0,0,1-1.1,4.2A3.3,3.3,0,0,1,289.5,178.9Zm.1-1.1c1.5,0,2.3-1.6,2.3-4.7s-.8-4.6-2.3-4.6-2.3,1.6-2.3,4.6S288.1,177.8,289.6,177.8Z"/></g><g class="cls-2"><path d="M345.4,174.6a3.1,3.1,0,0,1-1.6-2.4,2.4,2.4,0,0,1,.9-2,3.2,3.2,0,0,1,2.4-.8,3.8,3.8,0,0,1,2.2.6,2.3,2.3,0,0,1,.8,1.7,3.5,3.5,0,0,1-2,2.9c1.6.8,2.4,1.9,2.4,3.1a2.9,2.9,0,0,1-1,2.3,4.6,4.6,0,0,1-2.7.8,3.9,3.9,0,0,1-2.5-.8,2.5,2.5,0,0,1-1-2.1A3.9,3.9,0,0,1,345.4,174.6Zm.8.6a6.6,6.6,0,0,0-1.2,1.2,2.1,2.1,0,0,0-.3,1.2,1.8,1.8,0,0,0,.6,1.5,2.1,2.1,0,0,0,1.6.6,2,2,0,0,0,1.5-.5,1.4,1.4,0,0,0,.6-1.2,1.8,1.8,0,0,0-.3-1.1,7.3,7.3,0,0,0-1.5-1.1Zm1.1-1a2.8,2.8,0,0,0,1.5-2.3,1.2,1.2,0,0,0-.5-1,2.1,2.1,0,0,0-1.4-.4,2,2,0,0,0-1.3.4,1.2,1.2,0,0,0-.5,1,1.6,1.6,0,0,0,.5,1.1Z"/><path d="M353.5,180.5l.6-2.2a25.4,25.4,0,0,1,1.4-2.5l3-4.8h-5.6v-1.3h7V171c-2.8,4.1-4.4,7.3-4.7,9.5Z"/></g><g class="cls-2"><path d="M23.3,200.8a4.1,4.1,0,0,1-2.7,1.2,2.4,2.4,0,0,1-1.7-.6,2.2,2.2,0,0,1-.7-1.7,2.5,2.5,0,0,1,1.1-2.1,6.3,6.3,0,0,1,3.4-.8h.4v-1a1.3,1.3,0,0,0-1.5-1.5,5.7,5.7,0,0,0-2.7.7v-1.2a6.8,6.8,0,0,1,2.9-.7,2.9,2.9,0,0,1,2.1.7,2.4,2.4,0,0,1,.7,2v3.8c0,.9.3,1.4.8,1.4h.3v.9l-1.1.2A1.4,1.4,0,0,1,23.3,200.8Zm-.2-.9v-2.2h-.5a4.1,4.1,0,0,0-2.1.5,1.4,1.4,0,0,0-.8,1.2,1.8,1.8,0,0,0,.4,1,1.8,1.8,0,0,0,1,.4A3.2,3.2,0,0,0,23.1,199.9Z"/><path d="M27.5,201.8V189.5H29v12.3Z"/><path d="M34.4,202a2.9,2.9,0,0,1-1.9-.6,2.9,2.9,0,0,1-.6-1.9v-5H30.8v-1.2h1.1v-1.5l1.5-.2v1.7h2.2v1.2H33.4v4.7c0,1.1.5,1.7,1.5,1.7h.7v1A3,3,0,0,1,34.4,202Z"/></g><g class="cls-3"><path d="M48.3,79.1a.4.4,0,0,1,.4-.4.4.4,0,0,1,.4.4v47.5a.5.5,0,0,1-.4.5c-.3,0-.4-.2-.4-.5Z"/><path d="M48.7,79.5a.4.4,0,1,1,0-.8H64.5a.4.4,0,1,1,0,.8Z"/><path d="M64.1,79.1a.4.4,0,0,1,.8,0v47.5a.4.4,0,1,1-.8,0Z"/><path d="M48.7,127.1c-.3,0-.4-.2-.4-.5a.4.4,0,0,1,.4-.4H64.5a.4.4,0,0,1,.4.4.5.5,0,0,1-.4.5Z"/><path d="M49,111.1c-.2.2-.5.2-.6,0a.4.4,0,0,1,0-.6L64.2,94.7a.4.4,0,0,1,.6,0c.2.1.2.4,0,.6Z"/><path d="M33.8,103.3a.4.4,0,0,1-.4.4.4.4,0,0,1-.4-.4h0a.4.4,0,0,1,.4-.4.4.4,0,0,1,.4.4h0"/><path d="M32.8,103.6a.4.4,0,1,1,0-.8H48.7a.4.4,0,1,1,0,.8Z"/><path d="M64.5,103.5a.4.4,0,1,1,0-.8H80.3a.4.4,0,1,1,0,.8Z"/><path d="M32.4,103.2a.4.4,0,0,1,.4-.4.4.4,0,0,1,.4.4v39.3a.4.4,0,0,1-.4.4.4.4,0,0,1-.4-.4Z"/><path d="M79.9,102.7a.4.4,0,0,1,.4-.4.5.5,0,0,1,.5.4v39.8a.5.5,0,0,1-.5.4.4.4,0,0,1-.4-.4Z"/><path d="M55.8,47.6c0-.2.3-.3.5-.3a.4.4,0,0,1,.3.5,31.4,31.4,0,0,0-.5,3.9,5.4,5.4,0,0,0,0,1.8,2.2,2.2,0,0,0,.3.9c.2.1.2.4.1.6a.5.5,0,0,1-.6,0,2,2,0,0,1-.6-1.4,6.7,6.7,0,0,1,0-2,33.4,33.4,0,0,1,.5-4"/><path d="M55.5,56.9a.4.4,0,0,1,.5-.2c.3.1.4.3.3.5a9,9,0,0,0-.2,2.6,13.3,13.3,0,0,0,0,2,1.4,1.4,0,0,0,.5,1.3c.2.1.2.4.1.6s-.4.2-.6,0a2.6,2.6,0,0,1-.9-1.8c0-.7.1-1.4.1-2.1a12.8,12.8,0,0,1,.2-2.9"/><path d="M55.7,65.8c.2-.2.4-.3.6-.2a.4.4,0,0,1,.1.6h.1v1.1a24.3,24.3,0,0,0,0,2.7v1.2h0c.2.2.3.4.1.6s-.3.3-.5.1a1.4,1.4,0,0,1-.5-.8c0-.3-.1-.7-.1-1.1s.1-1.9.1-2.7V66h0m.8.8a.4.4,0,0,1-.8,0v-.5h0s.1.1,0,.1,0-.4.2-.6a.4.4,0,0,1,.5.2h.1v.7"/><path d="M55.9,72.7a.4.4,0,0,1,.6,0,.3.3,0,0,1,0,.5h.1a2.2,2.2,0,0,0-.1.9v3.5h-.1c.1,0,0-.1,0,0h-.3s-.1.1-.1,0h0a.5.5,0,0,1,.6-.2.7.7,0,0,1,.1.6l-.2.3a.6.6,0,0,1-.6.1.4.4,0,0,1-.2-.4.4.4,0,0,1-.1-.3c0-.4.1-1,.1-1.6V74c0-.5-.1-.9.2-1.3"/><path d="M55.4,75.3a.4.4,0,0,1,.4-.4.4.4,0,0,1,.4.4h0v2.4c0,.3,0,.6.1.6h-.1c0,.1-.1,0,0,0h-.5l.2-.3c.1-.2.3-.2.5-.1a.4.4,0,0,1,.2.5,1,1,0,0,1-.4.5c0,.1-.2.2-.4.1l-.3-.3a2.8,2.8,0,0,1-.1-.9V75.4h0m.8,0a.4.4,0,0,1-.4.4.4.4,0,0,1,0-.8.4.4,0,0,1,.4.4"/><path d="M17.4,142.5a.4.4,0,1,1-.8,0V39.9a.4.4,0,0,1,.8,0Z"/><path d="M96.6,142.5a.4.4,0,0,1-.8,0V42.2a.4.4,0,1,1,.8,0Z"/><path d="M17,40.3a.4.4,0,1,1,0-.8H48.7a.4.4,0,1,1,0,.8Z"/><path d="M64.5,40.8a.4.4,0,0,1,0-.8H96.2a.4.4,0,1,1,0,.8Z"/><path d="M95.1,40.8a.5.5,0,0,1,.5-.4.5.5,0,0,1,.3.5h0v.2a.4.4,0,0,0,.1.3h0s-.1-.1-.1,0-.1-.2,0-.1.2.4,0,.5-.4.2-.6.1a.4.4,0,0,1-.1-.3h0v-1H96v1.2h0l-.8.2c-.1-.2,0-.3,0-.4a.6.6,0,0,0,.1-.4,1.5,1.5,0,0,1,.1-.7.4.4,0,0,1,.8.2,5.6,5.6,0,0,0-.1.7.6.6,0,0,0,.1.4h-.1a.4.4,0,0,1,.2.6c-.1.2-.3.2-.5.1a.5.5,0,0,1-.4-.5,1.3,1.3,0,0,1-.1-.6,2.2,2.2,0,0,1,.1-.9l.8.2h0c0,.1-.1.4-.1.6a.9.9,0,0,1-.1.5h0c0,.2-.1.5-.3.5a.4.4,0,0,1-.5-.3c-.1-.3,0-.4,0-.7v-.8a.4.4,0,0,1,.4-.4.4.4,0,0,1,.4.4v1h0c0,.1-.1-.1-.1,0s-.1-.2,0-.1l-.6.6c-.2-.2-.1-.2-.1-.3a.1.1,0,0,0-.1-.1v-.7h0m.8.1c0,.2-.1.4-.3.4s-.5-.1-.5-.4h0a.4.4,0,0,1,.3-.5.4.4,0,0,1,.5.2h0"/><path d="M35.6,145.4a2.4,2.4,0,0,0-2.5-2.5,2.4,2.4,0,0,0-1.2.3,2.6,2.6,0,0,0-1.3,2.2,1.7,1.7,0,0,0,.4,1.2,2.3,2.3,0,0,0,2.1,1.3,2.8,2.8,0,0,0,1.3-.4,2.4,2.4,0,0,0,1.2-2.1m.8,0a3.1,3.1,0,0,1-1.6,2.8,3.4,3.4,0,0,1-1.7.5,3.2,3.2,0,0,1-2.8-1.7,3,3,0,0,1-.5-1.6,3.6,3.6,0,0,1,1.6-2.9,3.3,3.3,0,0,1,1.7-.4,3.4,3.4,0,0,1,2.9,1.6,3.3,3.3,0,0,1,.4,1.7"/><path d="M83,145.4a2.8,2.8,0,0,0-.3-1.3,2.5,2.5,0,0,0-2.2-1.2,2.4,2.4,0,0,0-1.2.3,2.6,2.6,0,0,0-1.3,2.2,2.5,2.5,0,0,0,.4,1.2,2.3,2.3,0,0,0,2.1,1.3,2.8,2.8,0,0,0,1.3-.4,2.4,2.4,0,0,0,1.2-2.1m.8,0a3.1,3.1,0,0,1-1.6,2.8,3.4,3.4,0,0,1-1.7.5,3.2,3.2,0,0,1-2.8-1.7,2.8,2.8,0,0,1-.5-1.6,3.4,3.4,0,0,1,1.7-2.9,2.9,2.9,0,0,1,1.6-.4,3.2,3.2,0,0,1,2.9,1.6,3.3,3.3,0,0,1,.4,1.7"/><path d="M98.7,145.4a2.8,2.8,0,0,0-.3-1.3,2.5,2.5,0,0,0-2.2-1.2l-1.2.3a2.7,2.7,0,0,0-1.2,2.2,2.4,2.4,0,0,0,.3,1.2,2.3,2.3,0,0,0,2.1,1.3,2.8,2.8,0,0,0,1.3-.4,2.4,2.4,0,0,0,1.2-2.1m.9,0a3.2,3.2,0,0,1-1.7,2.8,3.1,3.1,0,0,1-1.7.5,3.4,3.4,0,0,1-2.8-1.6,3.4,3.4,0,0,1-.5-1.7,3.4,3.4,0,0,1,1.7-2.9,2.9,2.9,0,0,1,1.6-.4,3.2,3.2,0,0,1,2.9,1.6,3.4,3.4,0,0,1,.5,1.7"/><path d="M19.8,145.4a2.8,2.8,0,0,0-.3-1.3,2.7,2.7,0,0,0-2.2-1.2,2.5,2.5,0,0,0-2.5,2.5,2.8,2.8,0,0,0,.4,1.2,2.3,2.3,0,0,0,2.1,1.3,2.8,2.8,0,0,0,1.3-.4,2.4,2.4,0,0,0,1.2-2.1m.8,0a3.2,3.2,0,0,1-1.6,2.8,3.4,3.4,0,0,1-1.7.5,3.2,3.2,0,0,1-2.8-1.7,3,3,0,0,1-.5-1.6,3.3,3.3,0,0,1,1.7-2.9,2.7,2.7,0,0,1,1.6-.4,3.4,3.4,0,0,1,2.9,1.6,3.3,3.3,0,0,1,.4,1.7"/><path d="M175,79.1a.4.4,0,0,1,.8,0v47.5a.4.4,0,1,1-.8,0Z"/><path d="M175.4,79.5a.4.4,0,0,1,0-.8h15.8a.4.4,0,0,1,0,.8Z"/><path d="M190.8,79.1a.4.4,0,0,1,.4-.4.4.4,0,0,1,.4.4v47.5c0,.3-.1.5-.4.5a.5.5,0,0,1-.4-.5Z"/><path d="M175.4,127.1a.5.5,0,0,1-.4-.5.4.4,0,0,1,.4-.4h15.8a.4.4,0,0,1,.4.4c0,.3-.1.5-.4.5Z"/><path d="M175.7,111.1a.4.4,0,1,1-.6-.6l15.8-15.8c.2-.2.5-.2.6,0s.2.4,0,.6Z"/><path d="M160.5,103.3a.4.4,0,0,1-.8,0h0a.4.4,0,1,1,.8,0h0"/><path d="M159.5,103.6a.4.4,0,1,1,0-.8h15.9a.4.4,0,1,1,0,.8Z"/><path d="M191.2,103.5a.4.4,0,1,1,0-.8h15.9a.4.4,0,0,1,0,.8Z"/><path d="M159.1,103.2a.4.4,0,0,1,.4-.4.5.5,0,0,1,.5.4v39.3a.5.5,0,0,1-.5.4.4.4,0,0,1-.4-.4Z"/><path d="M206.7,102.7a.4.4,0,0,1,.4-.4.4.4,0,0,1,.4.4v39.8a.4.4,0,0,1-.4.4.4.4,0,0,1-.4-.4Z"/><path d="M182.5,47.6a.5.5,0,0,1,.5-.3.4.4,0,0,1,.3.5,31.4,31.4,0,0,0-.5,3.9v1.8a2.2,2.2,0,0,0,.3.9.4.4,0,0,1,.1.6c-.1.1-.4.2-.5,0a1.7,1.7,0,0,1-.7-1.4,6.7,6.7,0,0,1,0-2,33.4,33.4,0,0,1,.5-4"/><path d="M182.2,56.9a.5.5,0,0,1,.6-.2.4.4,0,0,1,.2.5,9,9,0,0,0-.2,2.6,13.3,13.3,0,0,0,0,2,1.7,1.7,0,0,0,.5,1.3c.2.1.2.4.1.6a.5.5,0,0,1-.6,0,2.2,2.2,0,0,1-.8-1.8,14.7,14.7,0,0,1,0-2.1,12.8,12.8,0,0,1,.2-2.9"/><path d="M182.5,65.8a.4.4,0,0,1,.5-.2c.2.2.3.4.2.6s0-.1,0-.1h0v3.8a3.1,3.1,0,0,0,.1,1v.2h0c.2.2.3.4.2.6a.4.4,0,0,1-.6.1.9.9,0,0,1-.4-.8,3.7,3.7,0,0,1-.1-1.1,24.3,24.3,0,0,1,0-2.7V66h0a.1.1,0,0,1,.1-.1m.8.8a.5.5,0,0,1-.5.4.4.4,0,0,1-.4-.4v-.5h.1c-.2-.2-.1-.4.1-.6s.4,0,.6.2h0c0,.2.1.4.1.7"/><path d="M182.6,72.7a.4.4,0,0,1,.6,0,.3.3,0,0,1,.1.5h0a2.2,2.2,0,0,0-.1.9v3.5h-.4c.1,0-.1.1-.1,0s-.1.1-.1.1h0a.1.1,0,0,0,.1-.1.5.5,0,0,1,.6-.2.5.5,0,0,1,.1.6l-.2.3a.4.4,0,0,1-.5.1.4.4,0,0,1-.3-.4V74c0-.5-.1-.9.2-1.3"/><path d="M182.1,75.3a.4.4,0,0,1,.4-.4.5.5,0,0,1,.5.4h0v3h-.1s-.2-.1-.1-.1h-.4l.2-.3c.1-.2.3-.2.5-.1a.4.4,0,0,1,.2.5l-.3.5a.4.4,0,0,1-.5.1l-.3-.3a2.8,2.8,0,0,1-.1-.9V75.4h0m.9,0a.5.5,0,0,1-.5.4.4.4,0,0,1,0-.8.5.5,0,0,1,.5.4"/><path d="M144.1,142.5a.4.4,0,0,1-.8,0V39.9a.4.4,0,1,1,.8,0Z"/><path d="M223.3,142.5a.4.4,0,0,1-.8,0V42.2a.4.4,0,0,1,.8,0Z"/><path d="M143.7,40.3a.4.4,0,0,1,0-.8h31.7a.4.4,0,0,1,0,.8Z"/><path d="M191.2,40.8a.4.4,0,0,1,0-.8h31.7a.4.4,0,1,1,0,.8Z"/><path d="M221.8,40.8a.7.7,0,0,1,.5-.4c.2.1.4.3.3.5h0v.2c0,.1.1.2.1.3h0s-.1-.1-.1,0-.1-.2,0-.1.2.4,0,.5a.3.3,0,0,1-.5.1c-.2-.1-.2-.2-.2-.3h0v-1a.4.4,0,0,1,.8,0v1.2h0l-.8.2v-.4a.6.6,0,0,0,.1-.4c.1-.3,0-.5.1-.7l.8.2a5.6,5.6,0,0,0-.1.7c0,.1.1.3.1.4h-.1a.4.4,0,0,1,.2.6c-.1.2-.3.2-.5.1a.5.5,0,0,1-.4-.5,1.3,1.3,0,0,1-.1-.6c0-.4.1-.7.1-.9a.5.5,0,0,1,.5-.3c.2.1.4.3.3.5h0a1.5,1.5,0,0,1-.1.6.9.9,0,0,1-.1.5h0a.4.4,0,0,1-.3.5c-.2.1-.4-.1-.5-.3V40.5h.8v1h0c0,.1-.1-.1,0,0h-.1l-.5.6c-.3-.2-.2-.2-.2-.3h0a.8.8,0,0,1-.1-.4v-.3h0m.8.1c.1.2-.1.4-.3.4s-.5-.1-.5-.4h0c0-.2.1-.5.3-.5a.4.4,0,0,1,.5.2h0"/><path d="M162.3,145.4a2.4,2.4,0,0,0-2.5-2.5,2.4,2.4,0,0,0-1.2.3,2.6,2.6,0,0,0-1.3,2.2,2.5,2.5,0,0,0,.4,1.2,2.3,2.3,0,0,0,2.1,1.3,2.8,2.8,0,0,0,1.3-.4,2.4,2.4,0,0,0,1.2-2.1m.8,0a3.1,3.1,0,0,1-1.6,2.8,3.4,3.4,0,0,1-1.7.5A3.2,3.2,0,0,1,157,147a3,3,0,0,1-.5-1.6,3.4,3.4,0,0,1,1.7-2.9,2.9,2.9,0,0,1,1.6-.4,3.4,3.4,0,0,1,2.9,1.6,3.3,3.3,0,0,1,.4,1.7"/><path d="M209.7,145.4a2.8,2.8,0,0,0-.3-1.3,2.4,2.4,0,0,0-2.1-1.2,2.4,2.4,0,0,0-2.5,2.5,2.5,2.5,0,0,0,2.5,2.5,2.8,2.8,0,0,0,1.2-.4,2.4,2.4,0,0,0,1.2-2.1m.9,0a3.2,3.2,0,0,1-1.7,2.8,3,3,0,0,1-1.6.5,3.3,3.3,0,0,1-2.9-1.7,2.8,2.8,0,0,1-.5-1.6,3.4,3.4,0,0,1,1.7-2.9,3.1,3.1,0,0,1,1.7-.4,3.2,3.2,0,0,1,2.8,1.6,3.4,3.4,0,0,1,.5,1.7"/><path d="M225.5,145.4a2.8,2.8,0,0,0-.4-1.3,2.4,2.4,0,0,0-2.1-1.2,2.4,2.4,0,0,0-2.5,2.5,2.4,2.4,0,0,0,.3,1.2,2.5,2.5,0,0,0,2.2,1.3,2.5,2.5,0,0,0,1.2-.4,2.3,2.3,0,0,0,1.3-2.1m.8,0a3.2,3.2,0,0,1-1.7,2.8,3,3,0,0,1-1.6.5,3.5,3.5,0,0,1-2.9-1.6,3.3,3.3,0,0,1-.4-1.7,3.4,3.4,0,0,1,1.6-2.9,3.3,3.3,0,0,1,1.7-.4,3.1,3.1,0,0,1,2.8,1.6,3.4,3.4,0,0,1,.5,1.7"/><path d="M146.5,145.4a2.8,2.8,0,0,0-.3-1.3,2.5,2.5,0,0,0-2.2-1.2l-1.2.3a2.5,2.5,0,0,0-1.2,2.2,2.7,2.7,0,0,0,.3,1.2,2.3,2.3,0,0,0,2.1,1.3,2.8,2.8,0,0,0,1.3-.4,2.4,2.4,0,0,0,1.2-2.1m.9,0a3.3,3.3,0,0,1-1.7,2.8,3.1,3.1,0,0,1-1.7.5,3.3,3.3,0,0,1-2.8-1.7,3,3,0,0,1-.5-1.6,3.3,3.3,0,0,1,1.7-2.9,2.9,2.9,0,0,1,1.6-.4,3.2,3.2,0,0,1,2.9,1.6,3.4,3.4,0,0,1,.5,1.7"/><path d="M301.7,79.1a.4.4,0,0,1,.8,0v47.5a.4.4,0,1,1-.8,0Z"/><path d="M302.1,79.5a.4.4,0,0,1,0-.8h15.8a.4.4,0,1,1,0,.8Z"/><path d="M317.5,79.1a.4.4,0,0,1,.4-.4.5.5,0,0,1,.5.4v47.5a.5.5,0,0,1-.5.5.5.5,0,0,1-.4-.5Z"/><path d="M302.1,127.1a.5.5,0,0,1-.4-.5.4.4,0,0,1,.4-.4h15.8a.5.5,0,0,1,.5.4.5.5,0,0,1-.5.5Z"/><path d="M302.4,111.1a.4.4,0,0,1-.6,0,.6.6,0,0,1,0-.6l15.9-15.8a.3.3,0,0,1,.5,0c.2.1.2.4,0,.6Z"/><path d="M287.2,103.3a.4.4,0,1,1-.8,0h0a.4.4,0,0,1,.8,0h0"/><path d="M286.3,103.6a.4.4,0,0,1,0-.8h15.8a.4.4,0,0,1,0,.8Z"/><path d="M317.9,103.5a.4.4,0,1,1,0-.8h15.9a.4.4,0,1,1,0,.8Z"/><path d="M285.9,103.2a.4.4,0,0,1,.4-.4.4.4,0,0,1,.4.4v39.3a.4.4,0,0,1-.4.4.4.4,0,0,1-.4-.4Z"/><path d="M333.4,102.7a.4.4,0,1,1,.8,0v39.8a.4.4,0,1,1-.8,0Z"/><path d="M309.2,47.6a.5.5,0,0,1,.5-.3.4.4,0,0,1,.3.5c-.1,1-.4,2.4-.5,3.9a9.7,9.7,0,0,0,.1,1.8,1.3,1.3,0,0,0,.3.9.6.6,0,0,1,.1.6c-.2.1-.4.2-.6,0a2.1,2.1,0,0,1-.7-1.4v-2c.1-1.5.4-3,.5-4"/><path d="M309,56.9c0-.2.3-.3.5-.2a.4.4,0,0,1,.2.5,15.1,15.1,0,0,0-.2,2.6v2a1.5,1.5,0,0,0,.6,1.3.5.5,0,0,1,0,.6c-.1.1-.4.2-.5,0a2,2,0,0,1-.9-1.8,14.7,14.7,0,0,1,0-2.1,8.6,8.6,0,0,1,.3-2.9"/><path d="M309.2,65.8a.4.4,0,0,1,.5-.2.5.5,0,0,1,.2.6h0v3.8a3.1,3.1,0,0,0,.1,1c0,.1,0,.2.1.2s-.1,0-.1,0,.3.4.2.6a.4.4,0,0,1-.6.1.9.9,0,0,1-.4-.8,3.7,3.7,0,0,1-.1-1.1V66h0a.1.1,0,0,1,.1-.1m.8.8a.4.4,0,0,1-.4.4.4.4,0,0,1-.4-.4,1.2,1.2,0,0,0-.1-.5h.1a.5.5,0,0,1,.1-.6.5.5,0,0,1,.6.2c.1.1,0,.1,0,.1a1.5,1.5,0,0,1,.1.7"/><path d="M309.4,72.7a.3.3,0,0,1,.5,0,.3.3,0,0,1,.1.5h0c0,.2-.1.5-.1.9v1.7a8.3,8.3,0,0,1,0,1.6v.2h-.1c.1,0-.1-.2-.1-.1h-.2c.1,0-.1.1-.1,0s0,.1,0,.1h-.1a.1.1,0,0,0,.1-.1c.2-.2.4-.3.6-.2a.5.5,0,0,1,.1.6l-.2.3a.4.4,0,0,1-.5.1.4.4,0,0,1-.3-.4V74c0-.5-.1-.9.3-1.3"/><path d="M308.9,75.3a.4.4,0,0,1,.4-.4.4.4,0,0,1,.4.4h0v3s-.1-.1,0-.1-.1,0-.1,0h-.4c.1,0,0,.1,0,.1V78c.1-.2.4-.2.6-.1s.2.3.1.5l-.3.5a.4.4,0,0,1-.5.1l-.3-.3a2.7,2.7,0,0,1,0-.9V75.4h0m.8,0a.4.4,0,0,1-.4.4.4.4,0,0,1,0-.8.4.4,0,0,1,.4.4"/><path d="M270.8,142.5a.4.4,0,0,1-.4.4.4.4,0,0,1-.4-.4V39.9a.4.4,0,0,1,.4-.4.4.4,0,0,1,.4.4Z"/><path d="M365.9,142.5a.4.4,0,0,1-.4.4.4.4,0,0,1-.4-.4V42.2a.4.4,0,0,1,.4-.4.4.4,0,0,1,.4.4Z"/><path d="M270.4,40.3a.4.4,0,0,1,0-.8h31.7a.4.4,0,1,1,0,.8Z"/><path d="M317.9,40.7a.4.4,0,1,1,0-.8h47.6a.4.4,0,0,1,0,.8Z"/><path d="M364.4,40.8a.5.5,0,0,1,.5-.4.5.5,0,0,1,.3.5h0v.5c0,.1,0,.1.1.1h-.1s-.1-.2-.1-.1a.3.3,0,0,1,.1.5c-.1.2-.4.2-.6.1a.4.4,0,0,1-.1-.3h0v-1c-.1-.2.1-.4.3-.4a.5.5,0,0,1,.5.4v1.2h0c0,.2-.1.5-.3.5a.3.3,0,0,1-.5-.3c-.1-.2,0-.3,0-.4s.1-.3.1-.4a1.5,1.5,0,0,1,.1-.7l.8.2a5.6,5.6,0,0,0-.1.7v.4h0a.4.4,0,0,1,.2.6c-.1.2-.3.2-.6.1a1,1,0,0,1-.4-.5v-.6a2.2,2.2,0,0,1,.1-.9c0-.2.3-.3.5-.3a.5.5,0,0,1,.3.5h0c0,.1-.1.4-.1.6s-.1.3-.1.5h0l-.8.2c-.1-.3,0-.4,0-.7v-.8h.8v1h0s-.1-.1,0-.1-.1-.1-.1,0-.1-.2-.1-.1l-.5.6c-.2-.2-.1-.2-.1-.3a.1.1,0,0,1-.1-.1v-.7h0m.8.1a.4.4,0,0,1-.8,0h0a.3.3,0,0,1,.3-.5.4.4,0,0,1,.5.2h0"/><path d="M289,145.4a2.8,2.8,0,0,0-.3-1.3,2.5,2.5,0,0,0-2.2-1.2l-1.2.3a2.7,2.7,0,0,0-1.2,2.2,2.4,2.4,0,0,0,.3,1.2,2.3,2.3,0,0,0,2.1,1.3,2.8,2.8,0,0,0,1.3-.4,2.4,2.4,0,0,0,1.2-2.1m.9,0a3.2,3.2,0,0,1-1.7,2.8,3.1,3.1,0,0,1-1.7.5,3.3,3.3,0,0,1-2.8-1.7,3,3,0,0,1-.5-1.6,3.4,3.4,0,0,1,1.7-2.9,2.9,2.9,0,0,1,1.6-.4,3.2,3.2,0,0,1,2.9,1.6,3.4,3.4,0,0,1,.5,1.7"/><path d="M336.5,145.4a2.8,2.8,0,0,0-.4-1.3,2.4,2.4,0,0,0-2.1-1.2,2.4,2.4,0,0,0-2.5,2.5,2.4,2.4,0,0,0,.3,1.2,2.6,2.6,0,0,0,2.2,1.3,2.5,2.5,0,0,0,1.2-.4,2.3,2.3,0,0,0,1.3-2.1m.8,0a3.2,3.2,0,0,1-1.7,2.8,2.8,2.8,0,0,1-1.6.5,3.4,3.4,0,0,1-2.9-1.7,2.7,2.7,0,0,1-.4-1.6,3.4,3.4,0,0,1,1.6-2.9,3.3,3.3,0,0,1,1.7-.4,3.1,3.1,0,0,1,2.8,1.6,3.4,3.4,0,0,1,.5,1.7"/><path d="M368,145.4a2.4,2.4,0,0,0-2.5-2.5,2.4,2.4,0,0,0-1.2.3,2.6,2.6,0,0,0-1.3,2.2,2.5,2.5,0,0,0,.4,1.2,2.3,2.3,0,0,0,2.1,1.3,2.8,2.8,0,0,0,1.3-.4,2.4,2.4,0,0,0,1.2-2.1m.8,0a3.1,3.1,0,0,1-1.6,2.8,3.4,3.4,0,0,1-1.7.5,3.3,3.3,0,0,1-2.8-1.6,3.4,3.4,0,0,1-.5-1.7,3.4,3.4,0,0,1,1.7-2.9,2.9,2.9,0,0,1,1.6-.4,3.4,3.4,0,0,1,2.9,1.6,3.3,3.3,0,0,1,.4,1.7"/><path d="M273.3,145.4a2.8,2.8,0,0,0-.4-1.3,2.4,2.4,0,0,0-2.1-1.2,2.8,2.8,0,0,0-1.3.3,2.5,2.5,0,0,0-1.2,2.2,2.7,2.7,0,0,0,.3,1.2,2.4,2.4,0,0,0,2.2,1.3,2.5,2.5,0,0,0,1.2-.4,2.3,2.3,0,0,0,1.3-2.1m.8,0a3.3,3.3,0,0,1-1.7,2.8,3,3,0,0,1-1.6.5,3.3,3.3,0,0,1-2.9-1.7,2.9,2.9,0,0,1-.4-1.6,3.2,3.2,0,0,1,1.6-2.9,3.3,3.3,0,0,1,1.7-.4,3.1,3.1,0,0,1,2.8,1.6,3.4,3.4,0,0,1,.5,1.7"/><path d="M350,142.5a.4.4,0,0,1-.4.4.4.4,0,0,1-.4-.4V58a.4.4,0,0,1,.4-.4.4.4,0,0,1,.4.4Z"/><path d="M317.9,56.7a.5.5,0,0,1-.4-.5.4.4,0,0,1,.4-.4h31.7a.4.4,0,0,1,.4.4c0,.3-.1.5-.4.5Z"/><path d="M348.5,56.6c.1-.2.3-.4.5-.3a.3.3,0,0,1,.3.5h.1v.6h0s-.2-.1-.1-.1l-.5.6c-.2-.1-.2-.2-.2-.2h0V56.4a.7.7,0,0,1,.4-.5.4.4,0,0,1,.4.4c.1.2,0,.5,0,.8v.6h0c.1.2-.1.4-.3.4s-.4,0-.5-.3,0-.3.1-.4v-.3a2.2,2.2,0,0,0,.1-.8l.8.3v1h0s-.1-.1,0-.1a.4.4,0,0,1-.4.8c-.3-.1-.3-.4-.4-.6s-.1-.4-.1-.6.1-.7.1-.9a.4.4,0,0,1,.5-.2.3.3,0,0,1,.3.5h0a2.1,2.1,0,0,1-.1.6v.4h-.9V56.4h.8c.1.2,0,.3,0,.6s0,.3,0,.4v.2h-.1a.5.5,0,0,1,.1.6.4.4,0,0,1-.6,0c-.3-.2-.2-.2-.2-.2v-.2c0-.1-.1-.3-.1-.4v-.3h0m.9.1a.4.4,0,0,1-.4.4c-.2.1-.4-.1-.5-.3h.1a.4.4,0,0,1,.2-.5.3.3,0,0,1,.5.3h.1"/><path d="M351.9,145.4a2.4,2.4,0,0,0-2.5-2.5,2.4,2.4,0,0,0-1.2.3,2.6,2.6,0,0,0-1.3,2.2,1.7,1.7,0,0,0,.4,1.2,2.3,2.3,0,0,0,2.1,1.3,2.8,2.8,0,0,0,1.3-.4,2.4,2.4,0,0,0,1.2-2.1m.8,0a3.1,3.1,0,0,1-1.6,2.8,3.4,3.4,0,0,1-1.7.5,3.2,3.2,0,0,1-2.8-1.7,2.8,2.8,0,0,1-.5-1.6,3.6,3.6,0,0,1,1.6-2.9,3.3,3.3,0,0,1,1.7-.4,3.4,3.4,0,0,1,2.9,1.6,3.3,3.3,0,0,1,.4,1.7"/><path d="M48.9,40.7a.6.6,0,0,1-.6-.1.5.5,0,0,1,.2-.6l15.8-8.8a.4.4,0,0,1,.4.8Z"/><path d="M55.4,37.7a.4.4,0,1,1,.7-.3,5.6,5.6,0,0,1,.2,2.9,8.7,8.7,0,0,0,0,2.8c0,.2-.1.5-.3.5s-.5,0-.5-.2a8.6,8.6,0,0,1,0-3.2,6.6,6.6,0,0,0-.1-2.5"/><path d="M175.6,40.3a.4.4,0,0,1-.4-.8L191,31.2a.4.4,0,0,1,.4.8Z"/><path d="M182,36.8c-.1-.2.1-.4.3-.4s.5.1.5.4-.2,2.5.5,3.8a.5.5,0,0,1-.2.6.4.4,0,0,1-.5-.2,3.9,3.9,0,0,1-.6-2.2v-2"/><path d="M182.5,43.5a.4.4,0,0,1,.8,0,14.7,14.7,0,0,0,0,2.1c.1.2-.1.4-.3.4s-.4-.1-.5-.3a16.1,16.1,0,0,1,0-2.2"/><path d="M190.4,32.5a.4.4,0,0,1,.4-.4.5.5,0,0,1,.5.4v6.6a8.1,8.1,0,0,0,0,1.6h-.1c.1.1-.3,0-.2,0h-.1l.4-.5a.5.5,0,0,1,.6-.2.7.7,0,0,1,.1.6,2.9,2.9,0,0,1-.7.8.6.6,0,0,1-.6,0c-.2-.2-.2-.3-.2-.4a9.7,9.7,0,0,1-.1-1.8V32.5m.9.4a.5.5,0,0,1-.5.4.4.4,0,0,1-.4-.4v-.3h0a.4.4,0,0,1,.4-.4.5.5,0,0,1,.5.4h0v.3"/><path d="M301.9,40.3a.4.4,0,1,1,.4-.8l15.8,7.6a.4.4,0,1,1-.3.7Z"/><path d="M317.5,41c-.1-.2-.1-.5.1-.6a.5.5,0,0,1,.6.2h.1v.5c.1,1,0,2.3,0,3.4v1.8c.1.3.1.6.2.7h-.6c0-.2.2-.4.4-.3s.4.2.4.5l-.2.2c0,.1-.2.1-.3.1s-.3-.1-.3-.2l-.2-.3a6.4,6.4,0,0,1-.2-.9V44.7c0-1.1.1-2.4,0-3.3v-.5h0m.8-.1a.4.4,0,0,1-.4.4.5.5,0,0,1-.5-.4h0v-.2a.4.4,0,0,1,.7.3c0,.1.1-.1.1,0s0-.1,0-.1h0"/><path d="M309.7,48.2c.2.1.2.4.1.6s-.3.2-.5.1-.2-.2-.2-.3-.1-.1-.1-.2v-.3c0-.3.1-.6.1-.8v-.9a.4.4,0,0,1,.4-.4.4.4,0,0,1,.4.4v1.4h-.6c.1,0-.1.1,0,.1s-.1,0-.1,0h0c.1-.3.4-.3.6-.3a.5.5,0,0,1,.2.6l-.2.3h-.6c-.1-.2-.1-.2-.1-.3V46.4a.4.4,0,0,1,.4-.4.4.4,0,0,1,.4.4v.9a1.9,1.9,0,0,1-.1.8v.3h0c.1,0,0-.1,0,0h-.1m-.4-2.6a.4.4,0,0,1,.5-.3.4.4,0,0,1,.2.5h0c0,.1.1,0,.1,0h0a4,4,0,0,0,0,1.1,2,2,0,0,0-.1.7,1.1,1.1,0,0,1-.1.5v.3h-.1c-.1.2-.3.2-.5.1a.4.4,0,0,1-.2-.5h0v-.3c0-.2.1-.3.1-.5V45.9c0-.1,0-.1.1-.3h0m0-.9a.3.3,0,0,1,0-.5.3.3,0,0,1,.5-.1l.2.2v.9c.1.4.1.8.2,1.2v.5h0c0,.1.1,0,0,.2h-.8a1.8,1.8,0,0,0-.1-.5v-.8h0a.5.5,0,0,1,.2-.6.4.4,0,0,1,.5.2.1.1,0,0,0,.1.1h0a1.9,1.9,0,0,0,.1.8,1.6,1.6,0,0,1,0,.7.4.4,0,0,1-.4.4.7.7,0,0,1-.4-.5h0a2.3,2.3,0,0,0-.1-.7,4.9,4.9,0,0,0-.1-1.2v-.8h.1m.7,0a.4.4,0,0,1-.4.4c-.3,0-.5-.1-.5-.4a.4.4,0,0,1,.1-.3s-.1-.1.1-.3a.5.5,0,0,1,.6.1.3.3,0,0,1-.1.5c0,.1.1-.1.1,0h.1c-.1,0,0-.1,0-.1v.2"/><path class="cls-4" d="M33,8.9a.4.4,0,0,1-.2-.5c0-.3.2-.4.5-.3h.1a.4.4,0,0,0,.1-.3c0-.1,0-.1-.1-.2a.5.5,0,0,0-.4-.2,1.6,1.6,0,0,0-1.2-.2,2.3,2.3,0,0,0-1,.5c0,.1-.1.2-.1.4l.3.7c.4.7,1.3,1.3,1.7,2.2a1.9,1.9,0,0,1,0,1.3,2.2,2.2,0,0,1-1.2,1.1l-1.8.3a3.2,3.2,0,0,1-1.7-.2,1.1,1.1,0,0,1-.7-.3.9.9,0,0,1-.4-.6c-.1-.2.1-.4.3-.5a.5.5,0,0,1,.5.3v.2l.5.2h1.4a3.7,3.7,0,0,0,1.5-.3,1.3,1.3,0,0,0,.8-.6,2,2,0,0,0-.1-.7c-.2-.6-1.1-1.2-1.6-2.1a3,3,0,0,1-.4-1,1.3,1.3,0,0,1,.3-1,2,2,0,0,1,1.5-.8,2.7,2.7,0,0,1,1.6.2l.7.4a.9.9,0,0,1,.3.7,1.3,1.3,0,0,1-.2.9,1.2,1.2,0,0,1-1.1.4"/><path class="cls-4" d="M38.5,10.7a.4.4,0,0,1-.4.4.5.5,0,0,1-.5-.4h0s.1.1.1,0,.1.1,0,.1h.1a.6.6,0,0,0-.5.2,2.5,2.5,0,0,0-.9,1.3v.2a.4.4,0,0,1,.1.3s-.1-.1,0-.1-.2-.1-.2-.1a1.2,1.2,0,0,0,.7-.2c.6-.2,1.3-1.2,2.2-2.3a27.1,27.1,0,0,0,1.7-2.5l1.5-2.4a8.9,8.9,0,0,0,1.1-2.3c.1-.1.1-.1,0-.1h-.4a9.2,9.2,0,0,0-1.4,1.4,8.3,8.3,0,0,0-1.3,1.8,5.1,5.1,0,0,0-.6,2.5,1.2,1.2,0,0,0,.7,1.3l.9.2a.8.8,0,0,1,.6.2,1.2,1.2,0,0,1,.4,1,5.2,5.2,0,0,1-.2,1.1c-.1.8-.3,1.6-.4,2.1a.4.4,0,0,1-.4.4.5.5,0,0,1-.4-.5,19.1,19.1,0,0,1,.4-2.1,1.9,1.9,0,0,0,.1-1V11h-.3l-1-.3a1.9,1.9,0,0,1-1.3-2,5.8,5.8,0,0,1,.8-2.9,14.3,14.3,0,0,1,1.4-2,11,11,0,0,1,1.6-1.5,1.7,1.7,0,0,1,1.2-.2.8.8,0,0,1,.4.4.6.6,0,0,1,0,.6,11,11,0,0,1-1.2,2.5L41.5,8.1l-1.7,2.5a7.7,7.7,0,0,1-2.4,2.6,2.1,2.1,0,0,1-1.3.2c-.2-.1-.4-.3-.4-.4v-.2a1.9,1.9,0,0,1-.1-.8,4.3,4.3,0,0,1,1.3-1.7,1.1,1.1,0,0,1,.8-.3c.2,0,.4,0,.5.2a.5.5,0,0,1,.3.5"/><path class="cls-4" d="M51.2,5.3a.6.6,0,0,1-.6,0,.5.5,0,0,1,0-.6V4.5h.2l-.4.5L48.8,7.9c-.4.9-.8,1.7-1.1,2.5a3.8,3.8,0,0,0-.3,1.9.7.7,0,0,0,.5.7,5.1,5.1,0,0,0,3.3-.9c.2-.2.4-.1.5.1s.1.4-.1.6-2.9,1.3-4,1a1.7,1.7,0,0,1-1-1.3,5.4,5.4,0,0,1,.3-2.4,14.2,14.2,0,0,1,1.2-2.5,29.1,29.1,0,0,1,1.7-2.8l.5-.7.3-.2H51c.2,0,.3.2.4.3a.8.8,0,0,1,.1.4,1.1,1.1,0,0,1-.3.8"/><path class="cls-4" d="M55.9,9.3a.5.5,0,0,1,.6-.1.5.5,0,0,1,.1.6A7,7,0,0,0,55.3,13a.4.4,0,0,1-.4.4.5.5,0,0,1-.4-.5,5.9,5.9,0,0,1,1.4-3.6"/><path class="cls-4" d="M58.4,5.9a.6.6,0,0,1-.3.6.5.5,0,0,1-.5-.3L57.4,6h-.1c0,.2,0,.3.1.4s-.1-.2-.1-.1h.2a.3.3,0,0,0-.1-.2h.2a.1.1,0,0,0-.1.1.8.8,0,0,0-.4.4c0,.2-.2.3-.4.3s-.4-.3-.3-.5a1.5,1.5,0,0,1,.6-.9l.5-.2h.3l.3.2a1.4,1.4,0,0,1,.2.7v.4L58,7l-.7.2h-.4c-.1-.1-.3-.2-.3-.4a1.5,1.5,0,0,1-.1-.7,1.5,1.5,0,0,1,.5-.7h.8a1.2,1.2,0,0,1,.6.6"/><path class="cls-4" d="M64.9,8.1c-.2.2-.4.3-.6.1s-.2-.3-.1-.5.1-.2.1-.3h-.4a5.1,5.1,0,0,0-1.3,1.3,5.2,5.2,0,0,0-1,2.2c-.1.4,0,.6.1.7a.5.5,0,0,0,.5.3,3.6,3.6,0,0,0,2.4-.7c.2-.1.4-.1.5.1a.4.4,0,0,1-.1.6,3.8,3.8,0,0,1-2.9.8A1.4,1.4,0,0,1,61,12a1.8,1.8,0,0,1-.2-1.3,6.3,6.3,0,0,1,1.1-2.6c.5-.6,1-1.4,1.8-1.6h.6c.2.1.5.1.6.4a.7.7,0,0,1,.2.6,1.4,1.4,0,0,1-.2.7"/><path class="cls-4" d="M65.7,8.3a.3.3,0,0,1,0,.5.4.4,0,0,1-.6,0h0c0,.1.1,0,.1,0h0a6.2,6.2,0,0,1-.9,1.1.5.5,0,0,1-.6-.1c-.1-.2-.1-.5.1-.6l.7-.9a1.1,1.1,0,0,1,.5-.4h.4l.3.3"/><path class="cls-4" d="M68.3,20c.3.1.4.3.3.5a.5.5,0,0,1-.5.3c-.3-.1-.3-.2-.3-.3a3.3,3.3,0,0,1,0-1.4,58.8,58.8,0,0,1,1.1-5.9,21.9,21.9,0,0,1,1.3-4.9,7.1,7.1,0,0,1,1.2-2,12.7,12.7,0,0,1,3.4-2.8l.8-.4h.8a.8.8,0,0,1,.5.7.8.8,0,0,1-.1.8,6.2,6.2,0,0,1-2,2.5l-.4.4h0l.8.8a3.2,3.2,0,0,1,.7,2.5,2,2,0,0,1-.4,1.3A4.1,4.1,0,0,1,73,13.6H71.1c-.1-.1-.3-.2-.4-.4s-.1-.4.1-.5a.4.4,0,0,1,.6.1h1.4a3.4,3.4,0,0,0,2-1,1.1,1.1,0,0,0,.3-.8,3.3,3.3,0,0,0-.5-2c-.3-.3-.7-.4-.9-.9s-.1-.3-.2-.4a1.4,1.4,0,0,1,.2-.6l.5-.5a7.2,7.2,0,0,0,1.9-2.1V4h-.3l-.6.2A11.2,11.2,0,0,0,72,6.9a6.2,6.2,0,0,0-1.1,1.7,40,40,0,0,0-1.2,4.7c-.4,2.1-1,4.4-1.1,5.9v1h-.3M72,6.7c.2-.1.5-.1.6.1a.5.5,0,0,1-.1.6h.1A5.7,5.7,0,0,0,72,9a10.3,10.3,0,0,0-.4,1.4,6.1,6.1,0,0,0-.3,1.7,10.1,10.1,0,0,1-.9,2.8l-.7,1.5c-.2.7-.4,1.4-.6,2.3a7,7,0,0,0-.3,1.2c-.1.2-.1.3-.2.4v.2s0,.1-.2.2a.1.1,0,0,1-.1.1.5.5,0,0,1-.5-.3c0-.2.1-.5.3-.5s-.1.1-.1,0h-.2l.2-.5.3-1.3a11.4,11.4,0,0,1,.7-2.2,16.6,16.6,0,0,1,.6-1.6,10.1,10.1,0,0,0,.9-2.6,8.2,8.2,0,0,1,.3-1.8,5.7,5.7,0,0,1,.4-1.4c.1-.5.3-.9.4-1.3s.1-.6.4-.8"/><path class="cls-4" d="M84,8.1c.1.2,0,.5-.2.5a.4.4,0,0,1-.6-.2c0-.2,0-.2-.1-.2l-.5.2a3.5,3.5,0,0,0-1.3,1.4,2.5,2.5,0,0,0-.3,2,.5.5,0,0,0,.2.4h.7a3.7,3.7,0,0,0,2-.8.4.4,0,0,1,.6,0c.1.2.1.5-.1.6a4.4,4.4,0,0,1-2.5,1,2.2,2.2,0,0,1-1.1-.2,1.5,1.5,0,0,1-.6-.9,3.7,3.7,0,0,1,.3-2.5,4.9,4.9,0,0,1,1.7-1.8,1.9,1.9,0,0,1,1-.3,1.1,1.1,0,0,1,.8.7"/><path class="cls-4" d="M84.2,8.2c.1.2,0,.4-.3.5a.4.4,0,0,1-.5-.2c0-.2,0-.2-.1-.2h.2c-.1-.1.3-.1.2-.1s.1-.1.1,0,.1-.1,0-.1a.8.8,0,0,1-.1.4,4.4,4.4,0,0,1-.2,1,1,1,0,0,1-.7.7.3.3,0,0,1-.5-.3c-.1-.2.1-.4.3-.5s.1,0,.1-.2a3.1,3.1,0,0,0,.2-.8,2.6,2.6,0,0,1,.3-.8l.4-.2.3.2c.2.1.2.3.3.5"/><path class="cls-4" d="M87.1,11.5a.5.5,0,0,1-.3.5.4.4,0,0,1-.5-.2h0a8.1,8.1,0,0,1-.1-1.7c0-1.2-.1-2.3.6-3a1.6,1.6,0,0,1,1.5-.4,8.5,8.5,0,0,1,2.5.9A.4.4,0,0,1,91,8a.5.5,0,0,1-.6.2,7.5,7.5,0,0,0-2.2-.8c-.4,0-.7,0-.8.2s-.3,1.2-.3,2.4v1.5h0m-.7-2.1c-.1-.3.1-.4.4-.4s.4.1.4.4a5.3,5.3,0,0,1-.1,1.2v1h0a.4.4,0,0,1-.6.2.4.4,0,0,1-.2-.5h0v-.9c0-.4.1-.9.1-1.2"/><path class="cls-4" d="M36.9,3.2a.5.5,0,0,1,.6.1.6.6,0,0,1-.1.6c-.3.2-.4.1-.6.1h-.3a9.1,9.1,0,0,0-4.1,1,2.8,2.8,0,0,0-1.7,2.5c-.1,1,.7,1.9,1.2,3a3,3,0,0,1,.3,1.9,3.2,3.2,0,0,1-1.1,1.7,3,3,0,0,1-2.5.4,5.2,5.2,0,0,1-1.5-.6h-.6c-.1.2-.4.2-.6.1a.5.5,0,0,1-.1-.6,1,1,0,0,1,.8-.4l.8.2,1.4.5a2.4,2.4,0,0,0,1.9-.3,1.7,1.7,0,0,0,.6-1.2,2.2,2.2,0,0,0-.1-1.4c-.5-.9-1.4-2-1.4-3.4A3.9,3.9,0,0,1,32,4.3a9.6,9.6,0,0,1,4.5-1.1h.4m-.6,1.9a.3.3,0,0,1-.5,0,.4.4,0,0,1,0-.6h0a2.3,2.3,0,0,0-1-.4,3.6,3.6,0,0,0-2.3.6A6.7,6.7,0,0,0,30.6,6a1.6,1.6,0,0,0-.3,1.2A6.1,6.1,0,0,0,31,8.6a5.9,5.9,0,0,1,1,2.8,2.5,2.5,0,0,1-.6,1.6,3.2,3.2,0,0,1-1.5.9H27.1c-.1,0,.1-.2,0-.1s.1-.2.1-.1v-.4H27c.1,0,0-.1,0-.1h.9a6.7,6.7,0,0,0,3-.5,2.8,2.8,0,0,0,.9-1A3.1,3.1,0,0,0,32,11l-.4-.5a4.3,4.3,0,0,1-1.1-3.6,5.7,5.7,0,0,1,3-3.1l1.8-.6h1.8a.4.4,0,0,1,.4.4.4.4,0,0,1-.4.4H35.5a4.9,4.9,0,0,0-1.6.5,5.4,5.4,0,0,0-2.6,2.6,3.9,3.9,0,0,0,.9,2.9,2,2,0,0,1,.6.9,2.4,2.4,0,0,1-.3,1.2,2.8,2.8,0,0,1-1.2,1.4,9.4,9.4,0,0,1-3.4.7H26.6l-.2-.3a.6.6,0,0,1,.1-.4c.1-.1.2-.1.2-.2h3a1.8,1.8,0,0,0,1.1-.7,1.1,1.1,0,0,0,.3-1A4.9,4.9,0,0,0,30.3,9a4.5,4.5,0,0,1-.8-1.7A2.3,2.3,0,0,1,30,5.4a16.6,16.6,0,0,1,2.1-1.6,4.9,4.9,0,0,1,2.8-.6l1.4.5a1.6,1.6,0,0,1,.4.7,1,1,0,0,1-.4.7"/><path class="cls-4" d="M163.2,5.2a.4.4,0,0,1,0,.6.3.3,0,0,1-.5,0,2.6,2.6,0,0,0-1-.4l-.4.2a4.7,4.7,0,0,0-.9,2,5.2,5.2,0,0,0-.2,1.7,2,2,0,0,0,.4.8l.6.3a2.4,2.4,0,0,0,2-.8,7.5,7.5,0,0,0,1.5-2,11.2,11.2,0,0,0,.5-1.3q.2-.5,0-.6c0-.1-.2-.2-.5-.3a4,4,0,0,0-1.1,0l-1,.2-.3.2h0c-.1.2-.3.4-.5.3a.4.4,0,0,1-.3-.5l.3-.5.5-.2a2.8,2.8,0,0,1,1.3-.3h1.3a1.4,1.4,0,0,1,1,.7,1.7,1.7,0,0,1,.1,1.2,8.4,8.4,0,0,1-.6,1.4,7.3,7.3,0,0,1-1.6,2.3,3.3,3.3,0,0,1-2.8,1,1.7,1.7,0,0,1-1-.6,2.7,2.7,0,0,1-.6-1.2,6.8,6.8,0,0,1,.2-2A4.2,4.2,0,0,1,160.8,5a1.2,1.2,0,0,1,.8-.4,1.9,1.9,0,0,1,1.6.6"/><path class="cls-4" d="M163.9.3a.4.4,0,0,1,0,.6.3.3,0,0,1-.5,0h.1l-.3.4v.3c0,.1-.1-.1,0-.1s-.1-.1-.1,0h0c.1.1.2,0,.3,0s.5-.7.8-1.1.2-.2.2-.3h.4c.2,0,.4.3.4.4V.6A16.6,16.6,0,0,0,164,3a.5.5,0,0,1-.5.4c-.2-.1-.4-.3-.3-.5A10.7,10.7,0,0,1,164.3.3h0V.7h.4s.1-.1.1,0h0a.3.3,0,0,1-.1.2,3.2,3.2,0,0,1-1.1,1.3l-.7.2h-.4a.9.9,0,0,1-.3-.5,1.7,1.7,0,0,1,.1-.7l.5-.7.5-.2a.4.4,0,0,1,.5.1"/><path class="cls-4" d="M174.7,3.6c-.2.2-.4.3-.6.2a.5.5,0,0,1-.2-.6c.1,0,0-.2,0-.3h.3c-.1,0-.2.2-.4.4a14.2,14.2,0,0,0-1.9,3.6c-.4.8-.7,1.7-1.1,2.7s-.7,2.1-1,3.3a60.1,60.1,0,0,0-1.3,6c-.1.7-.2,1.3-.3,1.7s-.1.4-.2.5h0a.5.5,0,0,1,0,.4h0c.1.2-.1.4-.3.5s-.5-.1-.5-.3,0-.4.1-.5.1-.2.2-.4l.6-.8a10.9,10.9,0,0,1,.8-1.5c.1-.2.3-.2.5-.1s.3.4.2.5a10.9,10.9,0,0,0-.8,1.5l-.6.9-.2.3h0l-.8.2c-.1-.4,0-.3,0-.3h0v.2a.5.5,0,0,1-.1-.5c.1-.1.1-.3.2-.5s.2-1,.3-1.7.7-3.9,1.3-6.1.7-2.2,1-3.3.7-1.9,1.1-2.8A15.1,15.1,0,0,1,173.2,3a1.7,1.7,0,0,1,.6-.6h.4a.5.5,0,0,1,.5.3,1.7,1.7,0,0,1,0,1"/><path class="cls-4" d="M176.4,7.3a.4.4,0,0,1-.5.2c-.2,0-.3-.3-.3-.5l.9-2,.4-1a.3.3,0,0,1,.1-.2h0c0-.1.1,0,.1,0s.2.1.1.1h0l-.4.6-.8,2c-.6,1.1-1.1,2.4-1.7,3.8s-1.7,5.3-2.3,7.4-.4,2-.6,2.7l-.3.8c0,.1-.1.2-.2.3h-.5l-.3-.2a.3.3,0,0,0-.1-.2c0-.2-.1-.3-.1-.5s-.1-.6-.1-.9-.8-2.9-1.1-4.2l-.5-1.6h-.1v-.2a.6.6,0,0,1,.1-.4h.5l1.4.2a7.3,7.3,0,0,0,3.3,0,.5.5,0,0,1,.5.3c0,.3-.1.5-.3.5a7.2,7.2,0,0,1-3.6,0l-1.4-.2h.3v-.2h0l.2.4c.1.4.2.9.4,1.6a30.3,30.3,0,0,1,1.2,4.3c0,.3.1.6.1.9s.1.2.1.3h-.1c.1.1-.1,0-.1,0h-.2a1.4,1.4,0,0,0,.2-.7,20.7,20.7,0,0,0,.6-2.6c.6-2.1,1.4-4.9,2.4-7.5s1.1-2.7,1.6-3.8l.9-2a4.3,4.3,0,0,1,.4-.7,1.2,1.2,0,0,1,.5-.5.7.7,0,0,1,.6.1c.1.1.2.2.2.3s0,.3,0,.4-.1.2-.1.4l-.5.9-.8,2"/><path class="cls-4" d="M179.2,7.5a.4.4,0,0,1,.6-.2c.2,0,.3.3.2.5a17.8,17.8,0,0,0-1.1,2.1l-.3,1a4.3,4.3,0,0,1-.1.5h0c-.1,0,0-.1,0,0s-.1-.2,0-.1v-.2c0,.1-.2-.1-.1-.1h-.4c.1,0,0,.1,0,.1h0l.4-.7a9.1,9.1,0,0,1,2.9-2.6,2.3,2.3,0,0,1,1.1-.3h.5a1,1,0,0,1,.4.5,2.4,2.4,0,0,1,0,1.2,5.8,5.8,0,0,1-.5,1.7,1.4,1.4,0,0,0-.2.7h.3c.2.1.4.2.4.5a.5.5,0,0,1-.5.4l-.7-.2a.7.7,0,0,1-.3-.6c-.1-.4.1-.7.2-1.1a4.4,4.4,0,0,0,.5-1.5c.1-.4.1-.7,0-.8h-.1l-.7.2a8.8,8.8,0,0,0-2.7,2.4c-.2.3-.2.6-.6.9s-.3.1-.5,0a.6.6,0,0,1-.2-.5h.1c0-.1.1-.2.1-.4a7.6,7.6,0,0,1,.4-1.1l1-2.1"/><path class="cls-4" d="M190.6,6.5a.4.4,0,0,1,.4.4.5.5,0,0,1-.5.4l-.4.3-.9.8a12,12,0,0,0-1.3,2.1,2.8,2.8,0,0,0-.1.9,1.5,1.5,0,0,0,.1.6l.5.2h1.1a8.7,8.7,0,0,0,2.2-.5.4.4,0,0,1,.6.2.4.4,0,0,1-.2.5,8.2,8.2,0,0,1-2.5.6h-1.2c-.4-.1-.8-.1-1.1-.5a1.3,1.3,0,0,1-.3-1,3,3,0,0,1,.1-1.3,8.3,8.3,0,0,1,1.5-2.3,4.7,4.7,0,0,1,1-1,1.8,1.8,0,0,1,1-.4"/><path class="cls-4" d="M192.5,7.6a.4.4,0,0,1-.2.6c-.2.1-.5-.1-.6-.3h.4c-.1,0-.2.2-.3.4a2.1,2.1,0,0,0-.4.6l-.2.2h-.1a.5.5,0,0,1-.6,0,.6.6,0,0,1,0-.6c.2-.1.4-.2.6,0h-.5a.3.3,0,0,1,.1-.2l.4-.6.5-.6c.1-.1.2-.2.4-.1a.6.6,0,0,1,.5.3"/><path class="cls-4" d="M194.2,9.5c-.1-.2-.1-.5.1-.6a.5.5,0,0,1,.6.1,1.2,1.2,0,0,1,.1.8c-.1.4-.1.7-.2,1s-.1.7-.1.9V12h-.1c.1,0-.1-.1,0-.1s-.3-.1-.2-.1H194a8.7,8.7,0,0,1,.3-1.3c.1-.7.3-1.4.4-2s0-.7.3-1.1.5-.3.8-.4H197a16,16,0,0,0,4.1-.3c.2-.1.4,0,.5.3a.5.5,0,0,1-.3.5,18.8,18.8,0,0,1-4.3.4h-1.4a4.5,4.5,0,0,1-.1.8c-.1.6-.3,1.3-.4,2a15.5,15.5,0,0,1-.4,1.5c0,.1-.1.1-.2.2s-.5,0-.5-.1-.1-.2-.1-.3v-.4a3.1,3.1,0,0,1,.1-.9,3.1,3.1,0,0,0,.1-.9V9.5h0"/><path class="cls-4" d="M298.3,3.2a.5.5,0,0,1-.4.5.4.4,0,0,1-.4-.4,4,4,0,0,1,0-1.1V1.5h.1c-.1,0,.1.1.1.1s.2,0,.1,0h.2c-.1.1.1-.1.1,0h0a12.7,12.7,0,0,1,0,2c-.2,1.4-.7,3.2-1,4.7s-.1,1-.2,1.4v.6a.4.4,0,0,1,.1.3h0l.4-.4.9-1,.6-.6h.4l.2.2a.8.8,0,0,1,.2.4,8.6,8.6,0,0,1,.1,1.6,3.7,3.7,0,0,0,.5,1.5c0,.1.1.1.2.1s.6-.4,1.2-1a17.4,17.4,0,0,0,1.3-2c1.7-2.6,2.7-4.4,4.4-5.7a.3.3,0,0,1,.5.1c.2.2.1.4-.1.6a7.8,7.8,0,0,0-1.9,2.1,37.6,37.6,0,0,0-2.2,3.3,16.4,16.4,0,0,1-1.4,2.2c-.6.6-1.1,1.2-1.8,1.2a1.1,1.1,0,0,1-.9-.4,5.3,5.3,0,0,1-.6-1.9,6.2,6.2,0,0,0-.1-1.5h.3l-.3.3-.9,1.1-.6.4a.4.4,0,0,1-.6.2.5.5,0,0,1-.5-.4c-.1-.1-.1-.3-.2-.5V9.6c.1-.4.1-.9.2-1.4s.8-3.4,1-4.7-.1-1.5,0-2a.4.4,0,0,1,.1-.3l.2-.2h.4c.1,0,.1.1.2.2a.4.4,0,0,1,.1.3V3.2"/><path class="cls-4" d="M311.6,7.9c0,.3-.2.4-.5.4s-.4-.2-.3-.4V7.7h0c0-.1.2.1.1.1h.1l-.4.4a3,3,0,0,0-1,1.9,2.6,2.6,0,0,0,.1,1.8.9.9,0,0,0,.9.7,2.9,2.9,0,0,0,1.9-1.1h.6c.2.2.2.5,0,.6s-1.7,1.4-2.5,1.3a1.9,1.9,0,0,1-1.6-1.1,3.6,3.6,0,0,1-.2-2.3A3.9,3.9,0,0,1,310,7.7a2.1,2.1,0,0,1,.8-.6h.3l.4.2a1.3,1.3,0,0,1,.1.6"/><path class="cls-4" d="M312.8,7.5c.2,0,.3.2.3.5s-.2.4-.4.3h.1c-.1,0,.2-.2.1-.1h.1V7.9h0a.9.9,0,0,1,.3.6.6.6,0,0,1-.1.4c-.1.3-.3.3-.4.4h-.4l-.4.2a.4.4,0,0,1-.5.2.5.5,0,0,1-.2-.6,1,1,0,0,1,.9-.5h.3c.1,0,0,.1,0,.1h.1c-.1,0-.2,0-.3-.2s-.1,0-.1-.3a.4.4,0,0,1,.3-.4h.3"/><path class="cls-4" d="M322,6.8a.4.4,0,0,1,0,.6.3.3,0,0,1-.5,0H321l-.8.3a4.4,4.4,0,0,0-1.4,3.2V11h.2c.4,0,1.2-.7,2.1-1.7A38.7,38.7,0,0,0,325,3.5a9.6,9.6,0,0,0,.9-2c0-.1.1-.2.1-.3h.2l-.3.3a7.9,7.9,0,0,0-1.4,1.6,14.2,14.2,0,0,0-1.2,2.5,2.7,2.7,0,0,0-.1,1.5l.3.2h.6l1-.2h.7a1.3,1.3,0,0,1,.3.5v.5a4.5,4.5,0,0,1-.1,1.1c-.1.8-.3,1.7-.3,2.2a.4.4,0,0,1-.4.4.4.4,0,0,1-.4-.4,20.8,20.8,0,0,1,.3-2.3c0-.4.1-.8.1-1.1V8.2h0s.1.1,0,.1h-.1l-1.1.2h-.9a1.2,1.2,0,0,1-.7-.7,3.4,3.4,0,0,1,0-2A9.6,9.6,0,0,1,323.8,3a10,10,0,0,1,1.6-1.9l.5-.3a.4.4,0,0,1,.6,0c.2,0,.2.2.3.3v.2a.8.8,0,0,0-.1.4,12.9,12.9,0,0,1-1,2.2,38.5,38.5,0,0,1-3.9,6c-.9,1-1.7,1.8-2.5,1.9a1.3,1.3,0,0,1-.9-.1,2.5,2.5,0,0,1-.4-.7,4.1,4.1,0,0,1,.4-2.1,3.7,3.7,0,0,1,1.4-2,1.9,1.9,0,0,1,1.2-.4,1.7,1.7,0,0,1,1,.3"/><path class="cls-4" d="M335,6.6a.4.4,0,1,1-.8,0V6.4c0-.1-.2-.1-.3-.2a3.6,3.6,0,0,0-1.4.2,1.4,1.4,0,0,0-.7.6v.2q0,.1.3.3l1,1.1a2.3,2.3,0,0,1,.3,2.1,2.6,2.6,0,0,1-1.9,1.5,2.6,2.6,0,0,1-2.4-.7.3.3,0,0,1,.1-.5.4.4,0,0,1,.6,0,1.8,1.8,0,0,0,1.5.4,1.6,1.6,0,0,0,1.3-1,1.3,1.3,0,0,0-.2-1.3l-.9-1-.5-.6a1.1,1.1,0,0,1,0-.8,1.7,1.7,0,0,1,1.1-1.1,3.9,3.9,0,0,1,1.8-.2,2,2,0,0,1,.8.4.8.8,0,0,1,.3.8"/><path class="cls-4" d="M341.8,2.9c0,.2-.3.3-.5.2s-.3-.3-.2-.5V2.4h0c0-.1.1.1,0,0s.2.2.1.2.2.1.1.1.3,0,.3,0h.1c-.1,0,0-.1,0-.1h0a.3.3,0,0,1-.1.2,13.6,13.6,0,0,0-1.2,1.8l-1.7,3a17.4,17.4,0,0,0-1.1,1.8,5.6,5.6,0,0,0-.7,2.3v.7h1.3l2.4-.6c.2-.1.4.1.5.3a.5.5,0,0,1-.3.5l-2.5.6h-1.2a1.3,1.3,0,0,1-.9-.6c-.2-.3-.1-.6-.1-1a7.2,7.2,0,0,1,.8-2.7A17.4,17.4,0,0,1,338,7.2l1.7-3A12.2,12.2,0,0,1,341,2.3l.2-.3h.6c.3.3.2.4.1.5a.8.8,0,0,1-.1.4"/><path class="cls-4" d="M348,7a.3.3,0,0,1-.3.5c-.2.1-.4-.1-.5-.3h0l-.9.6a4.9,4.9,0,0,0-1.1,1.8,1.4,1.4,0,0,0,0,.9c.1.3.3.4.6.5a3.2,3.2,0,0,0,2.4,0c.2-.1.4,0,.5.3s-.1.4-.3.5a4.4,4.4,0,0,1-3,0,1.6,1.6,0,0,1-.9-.9,1.9,1.9,0,0,1,0-1.5,4.2,4.2,0,0,1,1.3-2.2l1.1-.7h.7a.7.7,0,0,1,.4.5"/><path class="cls-4" d="M349.2,8.2c0,.2-.2.3-.5.3a.5.5,0,0,1-.3-.5h.4l-.4.3-.3.4h0c-.1,0,0-.1,0-.1h0c0,.1-.2-.2-.1-.1l-.2-.2h-.2c.2-.1.4,0,.6.2s0,.4-.2.5h-.2s-.3.1-.4-.1a.5.5,0,0,1-.1-.5h.1l.4-.6a1,1,0,0,1,.7-.4.5.5,0,0,1,.6.1c.2.2.1.4.1.6"/><path class="cls-4" d="M351.8,11.9a.5.5,0,0,1,0,.6c-.1.2-.4.2-.6,0v-.2h0v-.8a10.9,10.9,0,0,1,.2-3.6,1.3,1.3,0,0,1,.6-.7l1.1-.4a15,15,0,0,1,3.9.3.4.4,0,0,1,.4.4.5.5,0,0,1-.5.4,18.1,18.1,0,0,0-3.7-.2l-.7.2-.3.3a11.2,11.2,0,0,0-.2,3.3.7.7,0,0,0,.1.5v.2h-.1c.1,0-.1-.1,0-.1m-.2-1.1a.4.4,0,0,1,.3-.5.5.5,0,0,1,.5.3,1.9,1.9,0,0,1-.3,1.3c-.1.2-.1.4-.3.6s-.4.2-.6,0-.2-.4,0-.5.1-.2.1-.4a2.7,2.7,0,0,0,.3-.8"/><path class="cls-5" d="M8.2,156.3a.5.5,0,0,1,.3.6.4.4,0,0,1-.5.2H7.9v-.2H8l.3.4a9.3,9.3,0,0,1,2,3.4,3.7,3.7,0,0,1,0,1.8l-.5.6H9.1a1.6,1.6,0,0,1-1.2-.9,3,3,0,0,1-.5-1.5,2.4,2.4,0,0,1,0-1.2,1.2,1.2,0,0,1,.6-.6l.8-.4a5.8,5.8,0,0,0,2.3-1.8,1.3,1.3,0,0,0,.1-.6.7.7,0,0,0-.9-.8,1,1,0,0,0-.7.2,1.2,1.2,0,0,0-.5.5,1,1,0,0,0,.1.9.5.5,0,0,1-.3.5.4.4,0,0,1-.5-.2,2.6,2.6,0,0,1-.1-1.5,2,2,0,0,1,.9-.9,2,2,0,0,1,1.1-.3,1.8,1.8,0,0,1,1.2.3,1.5,1.5,0,0,1,.5,1.2,2.2,2.2,0,0,1-.2,1.1,7.3,7.3,0,0,1-2.7,2.2l-.7.3-.2.2c-.1.2,0,.4,0,.8a2.8,2.8,0,0,0,.4,1.2c.2.3.4.5.5.5h.5a3.1,3.1,0,0,0-.1-1.3,8.9,8.9,0,0,0-1.9-3.1,4.3,4.3,0,0,1-.4-.7.8.8,0,0,1,.2-.4l.3-.2h.5"/><path class="cls-5" d="M16.3,156.8a.4.4,0,0,1-.4.4c-.2.1-.4-.1-.4-.3l-.3-.4h.2a2,2,0,0,0,.2,1.2,7.2,7.2,0,0,0,1.1,1.9l.3.6a1.3,1.3,0,0,1-.1.6l-.4.5a1.1,1.1,0,0,1-.8.2h-.8a1.2,1.2,0,0,1-.8-1.1,1.5,1.5,0,0,1,.4-.9l.9-1a18,18,0,0,0,2-1.9,4.4,4.4,0,0,0,.8-1.5v-.2H18l-.7.2a2,2,0,0,0-1.1,1.1.5.5,0,0,1-.5.3c-.3-.1-.4-.3-.3-.5a3,3,0,0,1,1.5-1.6l1-.4a1.5,1.5,0,0,1,.9.2l.3.5c0,.2-.1.3-.1.5a5.8,5.8,0,0,1-1,1.9c-.6.7-1.4,1.3-2,1.9a3.2,3.2,0,0,0-.8.9l-.3.4a.3.3,0,0,0,.3.3h.5c.1,0,.3,0,.3-.1l.2-.2h0l-.2-.3a8.7,8.7,0,0,1-1.2-2,2.6,2.6,0,0,1-.2-1.7.5.5,0,0,1,.3-.5.8.8,0,0,1,.8-.1,1.7,1.7,0,0,1,.6,1"/><path class="cls-5" d="M31.9,153.5c.2,0,.3.3.3.5a.5.5,0,0,1-.5.3h0a1.4,1.4,0,0,0,.4.8l1.4,1.8a4.9,4.9,0,0,1,.4,1.1A2.8,2.8,0,0,1,34,159a1.4,1.4,0,0,1-1.2,1.1,2.7,2.7,0,0,1-1.5.2,1.7,1.7,0,0,1-1-.6,1.4,1.4,0,0,1-.3-.9,2.4,2.4,0,0,1,.9-1.7l1.7-1.4,1.1-.9.3-.4.2-.3H32.8c-.1.1-.1.1-.1.2a.4.4,0,0,1-.8,0,.9.9,0,0,1,.5-.9,1.8,1.8,0,0,1,1-.2,1.6,1.6,0,0,1,1,.2l.4.2a.8.8,0,0,1,.2.5,1.5,1.5,0,0,1-.3.7l-.4.5a13.1,13.1,0,0,1-1.2,1.1l-1.6,1.3a2,2,0,0,0-.7,1.1l.2.4c.1.2.2.2.4.3h1.2l.6-.6a4.1,4.1,0,0,0-.1-1c-.1-.2-.1-.5-.3-.7a11,11,0,0,0-1.4-1.8,6,6,0,0,1-.6-1.1.8.8,0,0,1,.1-.4c0-.1.1-.2.2-.3h.8"/><path class="cls-5" d="M39.8,153.9a.3.3,0,0,1,0,.5c-.1.2-.4.2-.6,0h-.3l-.6.4c-.2.2-.3.4-.2.6a1.3,1.3,0,0,0,.1.6l.3.2.8.3a1.8,1.8,0,0,1,.5.7,1.4,1.4,0,0,1-.2,1.1,3.9,3.9,0,0,1-.8,1,2.3,2.3,0,0,1-1.2.6,1.5,1.5,0,0,1-1.3-.2c-.2-.1-.2-.4-.1-.6s.4-.2.6-.1a.7.7,0,0,0,.6.1l.9-.4.6-.7a1.8,1.8,0,0,0,.1-.5l-.2-.3-.6-.3a1.2,1.2,0,0,1-.8-.6,2.9,2.9,0,0,1-.2-.9,2.1,2.1,0,0,1,.5-1.2l1-.5h.5a.9.9,0,0,1,.6.3"/><path class="cls-5" d="M39.1,155.6a.4.4,0,1,1-.7-.5,3.7,3.7,0,0,1,2.2-1.4,12.8,12.8,0,0,1,4.8-.5.4.4,0,1,1,0,.8H42.7l-1.9.3a2.9,2.9,0,0,0-1.7,1.2"/><path class="cls-5" d="M76.6,153.6a.5.5,0,0,1,.5.4.4.4,0,0,1-.4.4h-.3c.1.3.4.8.6,1.4a5.2,5.2,0,0,1,.6,1.6,1.7,1.7,0,0,1-.3,1.4,2.4,2.4,0,0,1-1.1.6,2.9,2.9,0,0,1-1.3.1,1.1,1.1,0,0,1-.8-.8,1.7,1.7,0,0,1-.1-1,4.3,4.3,0,0,1,1.4-2.4,5.3,5.3,0,0,1,2.3-1.4l.5-.3h.2a3.3,3.3,0,0,0-1.4.4c-.3.2-.5.3-.6.5s-.2.3-.1.4a.5.5,0,0,1-.3.5c-.2,0-.5-.1-.5-.3a1.4,1.4,0,0,1,.2-1.1,2.2,2.2,0,0,1,.9-.7,2.1,2.1,0,0,1,2-.4.5.5,0,0,1,.5.3.6.6,0,0,1,.1.6,1,1,0,0,1-.5.6l-.7.4a4.3,4.3,0,0,0-2,1.2,4,4,0,0,0-1.2,1.9v.6l.3.3H76l.7-.4a.6.6,0,0,0,.1-.6,5.8,5.8,0,0,0-.5-1.4,7.1,7.1,0,0,1-.7-1.6,1.1,1.1,0,0,1,.2-.8c.2-.3.5-.3.8-.4"/><path class="cls-5" d="M86.2,152.6a.5.5,0,0,1-.5.4.4.4,0,0,1-.4-.4c.1-.1,0-.1,0-.1h-.1c-.5,0-1.4.8-2.2,1.7a8.7,8.7,0,0,0-1.7,3.3,2.3,2.3,0,0,0,.3,2l.4.2a.9.9,0,0,0,.7,0c.3-.1.7-.6,1-1a1,1,0,0,0,.1-.4s.1.1,0,.1h-.5a2,2,0,0,0-1.3,1.1.4.4,0,0,1-.6.1c-.2-.1-.2-.3-.1-.5a3,3,0,0,1,1.7-1.5h.9l.4.2c.2.1.3.2.3.4a1.2,1.2,0,0,1-.2,1,2.9,2.9,0,0,1-1.5,1.4h-1l-.9-.5a3.1,3.1,0,0,1-.5-2.8,10.1,10.1,0,0,1,1.8-3.6,6.2,6.2,0,0,1,2.7-2.1,1.3,1.3,0,0,1,.9.2,1.1,1.1,0,0,1,.3.8"/><path class="cls-5" d="M95.8,153.5a.4.4,0,0,1,.1.6.4.4,0,0,1-.5.1h.5c-.1.1.1-.1,0-.1H96v.2a5.6,5.6,0,0,1,.1.7c.4.9,1.3,1.9,1.5,3.1a2.7,2.7,0,0,1-.2,2,2.1,2.1,0,0,1-1.6.8,1.3,1.3,0,0,1-1.4-.6,1.5,1.5,0,0,1-.2-.9,1.7,1.7,0,0,1,.3-1,4.6,4.6,0,0,1,1.4-1.7c.8-.7,1.8-1.2,2.4-1.7l.6-.6v-.4a.7.7,0,0,0-.4-.3H96.9v.2c.1.2.1.5-.1.6a.5.5,0,0,1-.6-.2.9.9,0,0,1-.1-.7.9.9,0,0,1,.3-.6,1.6,1.6,0,0,1,1.2-.3,2.5,2.5,0,0,1,1.2.2,1.2,1.2,0,0,1,.9.8,1.4,1.4,0,0,1-.1.9c-.1.4-.4.6-.8.9s-1.6,1.1-2.4,1.7a4.4,4.4,0,0,0-1.2,1.5,1.4,1.4,0,0,0-.2.6.7.7,0,0,0,.1.5.6.6,0,0,0,.6.2,1.2,1.2,0,0,0,1-.5,1.9,1.9,0,0,0,.2-1.3c-.3-.9-1.1-1.9-1.5-3.1a3.1,3.1,0,0,1-.2-.8.5.5,0,0,1,0-.6.5.5,0,0,1,.6-.1"/><path class="cls-5" d="M102,154.2a.4.4,0,0,1,.5-.3.4.4,0,0,1,.2.6c-.3.7.1,2.4,0,3.9a7.7,7.7,0,0,1-.2,1.5,1.6,1.6,0,0,1-1,.8,1.1,1.1,0,0,1-.8-.3c-.2-.1-.3-.4-.4-.6a3,3,0,0,1-.2-1.6,2.5,2.5,0,0,1,1.1-1.9l2-1.5a6.3,6.3,0,0,0,1.2-1,2,2,0,0,0,.4-.8v-.3h-.1l-.7.2a1.5,1.5,0,0,0-.6.5,1.4,1.4,0,0,0-.2.6c.1.2-.1.4-.3.4s-.4-.1-.5-.3a2.4,2.4,0,0,1,.3-1.2l.9-.7a1.9,1.9,0,0,1,1-.3h.5a.5.5,0,0,1,.4.3,1.2,1.2,0,0,1,.1.8,1.7,1.7,0,0,1-.6,1.2,5,5,0,0,1-1.3,1.2,15.6,15.6,0,0,0-1.9,1.4c-.5.5-.9.9-.9,1.3a1.9,1.9,0,0,0,.2,1.3c0,.1.1.3.2.3h.1c.1,0,.2-.1.3-.4a3.6,3.6,0,0,0,.2-1.1c0-1.4-.4-3.1.1-4.2"/><path class="cls-5" d="M110.1,156.9a.4.4,0,0,1-.4.4c-.2.1-.4-.1-.4-.3h-.2c-.1-.1-.3,0-.6.1a2.8,2.8,0,0,0-.8,1.2c-.2.3-.2.4-.2.5v.3h-.1l.8-.2,1.2-.9.5-.4h.4l.2.2v.8a3.5,3.5,0,0,0-.1,1.4l.4.3a2.8,2.8,0,0,0,1.3,0c.2-.1.4.1.5.3a.7.7,0,0,1-.4.5h-1.6a1.2,1.2,0,0,1-.9-.8,2.8,2.8,0,0,1,0-1.8V158h.4c-.1.1.2,0,.1,0l-.3.3a3.9,3.9,0,0,1-1.4,1c-.4.2-.8.5-1.4.2s-.4-.3-.4-.5a.4.4,0,0,1,0-.5,1.9,1.9,0,0,1,.2-.8,3.8,3.8,0,0,1,1.2-1.6,1.7,1.7,0,0,1,1.2-.2c.3,0,.7.4.8.8"/><path class="cls-5" d="M138.4,153.6c.2-.1.4.1.4.3a.4.4,0,0,1-.3.5h.1a3.1,3.1,0,0,0,.4.9,22.6,22.6,0,0,1,1.1,2.2,3.6,3.6,0,0,1,.2,1,1.5,1.5,0,0,1,.1.7,2,2,0,0,1-1.1,1.1,1.5,1.5,0,0,1-1.3-.1.9.9,0,0,1-.4-.6,1.3,1.3,0,0,1-.1-.6,2.5,2.5,0,0,1,1-1.7,11.4,11.4,0,0,1,1.7-1.5,7.4,7.4,0,0,0,.9-1.2l.2-.3h-.1a2.6,2.6,0,0,0-1.6.3l-.5.3h0c.2.1.2.4.1.6s-.4.2-.6.1a.9.9,0,0,1-.3-.5.8.8,0,0,1,.2-.5,1.6,1.6,0,0,1,.8-.6,2.8,2.8,0,0,1,2.2-.2.9.9,0,0,1,.6.7c.1.4-.1.6-.3.9a4.2,4.2,0,0,1-1.1,1.3,11,11,0,0,1-1.6,1.5,2.6,2.6,0,0,0-.8,1.2c0,.2,0,.3.1.4h.6a1.6,1.6,0,0,0,.6-.5c0-.1-.1-.2-.1-.4a2.4,2.4,0,0,0-.2-.8,13.1,13.1,0,0,0-1-2.1,5.4,5.4,0,0,1-.5-1.1.6.6,0,0,1,0-.6.5.5,0,0,1,.6-.4"/><path class="cls-5" d="M144.4,153.7c-.2.1-.5,0-.5-.2a.5.5,0,0,1,.2-.6,4.2,4.2,0,0,1,1.3-.3h.8a.9.9,0,0,1,.6.6,1.7,1.7,0,0,1,.1.7,6.2,6.2,0,0,1-.9,2.9,10.8,10.8,0,0,0-.7,2.7,12.6,12.6,0,0,0-.1,1.6.4.4,0,0,1-.3.5.5.5,0,0,1-.5-.4,13.6,13.6,0,0,1,.1-1.8,9.8,9.8,0,0,1,.8-2.9,6.9,6.9,0,0,0,.8-2.5.7.7,0,0,0-.1-.5h-.6a1.9,1.9,0,0,0-1,.3"/><path class="cls-5" d="M145,159.2c.1.2.1.4-.2.5s-.4.1-.5-.1l-.8-1.3a1.4,1.4,0,0,1-.2-.6.5.5,0,0,1,.2-.6l.4-.2h1.2l3.1-.3a.7.7,0,0,1,.5.4.4.4,0,0,1-.4.4,19.1,19.1,0,0,1-3.2.3H144v-.2c0,.1,0,.2.2.4l.7,1.3"/><path class="cls-5" d="M159.7,153.4c.3.1.3.3.3.6a.5.5,0,0,1-.6.2h-.1v.3c0,.6.9,1.6,1.2,2.6a2,2,0,0,1,.1,1.3,1.9,1.9,0,0,1-.7,1.1,1.7,1.7,0,0,1-1.2.3,1.1,1.1,0,0,1-.8-.7,2,2,0,0,1-.4-.8,1.5,1.5,0,0,1,.4-1.4l1.5-.8a13.7,13.7,0,0,0,2.3-1.7,2.1,2.1,0,0,0,.4-.6v-.2a.6.6,0,0,0-.1-.4h-.3l-.8.2-.7.5a1.7,1.7,0,0,0-.2.5.4.4,0,0,1-.4.4.4.4,0,0,1-.4-.4,2.1,2.1,0,0,1,.4-1.1,3.3,3.3,0,0,1,1-.6,2,2,0,0,1,1.1-.3,1,1,0,0,1,1,.3,1.2,1.2,0,0,1,.3.9c0,.2-.2.4-.2.6l-.7.8a8,8,0,0,1-2.5,1.8,4.1,4.1,0,0,0-1.2.8c-.2.2-.3.3-.2.5a1.4,1.4,0,0,0,.2.6c.1.2.3.2.3.3s.5,0,.6-.2a.9.9,0,0,0,.4-.6,1.4,1.4,0,0,0,0-.9c-.3-.7-1.3-1.6-1.4-2.7a1.4,1.4,0,0,1,.3-.9.5.5,0,0,1,.5-.3h.5"/><path class="cls-5" d="M166.7,153.3c.2,0,.3.3.3.5a.4.4,0,0,1-.5.3.7.7,0,0,0-.8.4c-.2.2-.2.2-.2.3a1.7,1.7,0,0,0,.1.7l.9.4.7.2a1.4,1.4,0,0,1,.4,1,1.3,1.3,0,0,1-.4.9l-.7.5a3.3,3.3,0,0,1-2.8.6c-.2,0-.3-.3-.2-.5s.3-.3.5-.3a2.4,2.4,0,0,0,2-.5l.6-.4.2-.3v-.3l-.5-.2a2.1,2.1,0,0,1-1.3-.7,2.3,2.3,0,0,1-.2-1.1,1.5,1.5,0,0,1,.3-.8,1.7,1.7,0,0,1,1.7-.7"/><path class="cls-5" d="M167.1,154a.4.4,0,0,1-.7-.3,2,2,0,0,1,1.8-1.3,10.5,10.5,0,0,1,3.5.1.4.4,0,0,1,.4.4.5.5,0,0,1-.5.4,9.4,9.4,0,0,0-3.3-.1,1.4,1.4,0,0,0-1.2.8"/><path class="cls-5" d="M204,153.7a.5.5,0,0,1,.2.6.4.4,0,0,1-.5.2l-.4-.2h.3a10.4,10.4,0,0,1,.4,1,8.4,8.4,0,0,1,.8,2.9,3.8,3.8,0,0,1-.1,1,2.4,2.4,0,0,1-1,1h-.9a1.7,1.7,0,0,1-1.3-1.3,1.6,1.6,0,0,1,.1-1.5,2.2,2.2,0,0,1,1.1-1l2.1-1.1a3.9,3.9,0,0,0,1-.8l.5-.5a.4.4,0,0,0,.1-.3h-.5a2.1,2.1,0,0,0-1.1.4l-.4.2v.2a.3.3,0,0,1-.5.3c-.2,0-.3-.2-.3-.4a.6.6,0,0,1,.3-.6,1.3,1.3,0,0,1,.6-.4,2.4,2.4,0,0,1,1.4-.5h.9l.4.2a.6.6,0,0,1,.1.7.8.8,0,0,1-.2.5l-.6.7-1.2.9-2.1,1.1a1.9,1.9,0,0,0-.8.7.6.6,0,0,0,0,.8c.1.4.5.8.7.8a.3.3,0,0,0,.4,0,1.2,1.2,0,0,0,.5-.5,1.5,1.5,0,0,0,.1-.7,12.3,12.3,0,0,0-.8-2.6,2.1,2.1,0,0,0-.3-.7,1.1,1.1,0,0,1-.1-.8l.2-.3h1"/><path class="cls-5" d="M213.6,153.1a.4.4,0,0,1-.2.5.5.5,0,0,1-.6-.2h-.1a1.4,1.4,0,0,0-.9.1,6.8,6.8,0,0,0-2.6,3.1,4.3,4.3,0,0,0-.4,2.4,1.1,1.1,0,0,0,.6,1.1h.5l.7-.4.5-.6v-.2h-.4l-.6.2c-.5.2-.9.4-1,.7a.6.6,0,0,1-.6.1c-.2-.1-.2-.4-.1-.6a2.4,2.4,0,0,1,1.4-1l.8-.2a1.5,1.5,0,0,1,.9.2,1,1,0,0,1,.4.5,2.1,2.1,0,0,1-.8,1.7,1.8,1.8,0,0,1-.9.6,1.7,1.7,0,0,1-1.2-.1,2.3,2.3,0,0,1-1.1-1.8,5.5,5.5,0,0,1,.6-2.7c.7-1.5,1.7-3,2.9-3.5l1.3-.3.5.2.4.4"/><path class="cls-5" d="M221.7,153.5a.4.4,0,1,1,.7.3h0a4.3,4.3,0,0,1,.1.5,32.7,32.7,0,0,1,1.4,3.4,5.9,5.9,0,0,1,.2,1.3,1.6,1.6,0,0,1-.4.7.8.8,0,0,1-.7.3,1.4,1.4,0,0,1-.9-.1,1.4,1.4,0,0,1-.8-.7,3.6,3.6,0,0,1-.4-.9,2.2,2.2,0,0,1,.1-1.1c.7-1,2.4-1.7,3.5-2.4l1-.8a.6.6,0,0,0,.2-.5s0-.1-.2-.2h-.7a.8.8,0,0,0-.7.1.7.7,0,0,0-.4.5c-.1.3-.3.4-.5.3s-.4-.2-.3-.5a1.8,1.8,0,0,1,.7-1,2.7,2.7,0,0,1,1.2-.3,2,2,0,0,1,1.1.3c.3.2.6.4.6.8a1.2,1.2,0,0,1-.4,1.1,5.2,5.2,0,0,1-1.1,1c-1.2.8-2.9,1.5-3.3,2.2s0,.2,0,.5.1.4.3.6.2.3.4.3h.8v-.2a4.4,4.4,0,0,0-.2-1c-.3-1.1-1.2-2.4-1.4-3.5a4.3,4.3,0,0,0-.1-.5v-.2m.8.3a.5.5,0,0,1-.4.5.4.4,0,0,1-.4-.4h0s.1.2,0,.1a.5.5,0,0,1,.1-.6.3.3,0,0,1,.5.1h.1a.4.4,0,0,1,.1.3"/><path class="cls-5" d="M228.5,153.5a.5.5,0,0,1-.5-.3c-.1-.2,0-.4.3-.5a8,8,0,0,1,2.1-.5h.7l.5.3.2.4a2.1,2.1,0,0,1,0,1.1,36.4,36.4,0,0,1-1.6,3.6,7.7,7.7,0,0,0-.5,1.7,2,2,0,0,0,.2.9.3.3,0,0,1-.1.5c-.2.2-.4.1-.6-.1a2.6,2.6,0,0,1-.3-1.4,9,9,0,0,1,.5-1.9,24.8,24.8,0,0,0,1.6-3.5q.1-.5,0-.6V153h-.6a7.7,7.7,0,0,0-1.9.5"/><path class="cls-5" d="M229.3,158.6a.7.7,0,0,1-.5.4.5.5,0,0,1-.4-.5c.1-.2-.1-.7-.3-1.1a2.5,2.5,0,0,1-.4-.7.5.5,0,0,1,.1-.6h1.3a14.4,14.4,0,0,0,3.1.1.4.4,0,0,1,.4.4.4.4,0,0,1-.4.4,15,15,0,0,1-3.2-.1h-.7c-.1,0,.1-.1.1-.1s0-.2,0-.1v-.2h0a6.1,6.1,0,0,0,.4.6,4.3,4.3,0,0,1,.5,1.6"/><path class="cls-5" d="M237,157c-.1-.2,0-.5.2-.5a.4.4,0,0,1,.5.2h0c.1.3-.1.5-.2.7l-.3.4a.8.8,0,0,0,.1.8,2,2,0,0,0,1.1.8c.3.1.4.3.3.5s-.3.4-.5.3a2.9,2.9,0,0,1-1.6-1.1,2,2,0,0,1-.1-1.7l.3-.5v-.2h.1m-.2-.6a.3.3,0,0,1-.5-.1c-.2-.2-.1-.4.1-.6h-.1l-.6.4a3,3,0,0,0-.7,1.1l-.2.4v.5h.2c.2.1.8-.3,1.2-.7l.5-.4c.1-.1.2-.2.2-.3h.3c.3,0,.5.1.5.3a.3.3,0,0,1-.3.5h.2l-.3.3-.6.6a2.6,2.6,0,0,1-1.7.9l-.6-.2a1,1,0,0,1-.4-.5,2.1,2.1,0,0,1,0-.8l.2-.6c.3-.5.5-1.1,1-1.4l.8-.5h.9a1.1,1.1,0,0,1,.3.8.9.9,0,0,1-.4.7"/><path class="cls-5" d="M265.5,154.1a.5.5,0,0,1,.2.6.7.7,0,0,1-.6.1h.2c-.1,0,.1-.2.1-.1h0v.2c.1.4.4,1,.6,1.6s.5,1.4.7,2a4,4,0,0,1,0,1.1,1.6,1.6,0,0,1-.9,1.2,1.4,1.4,0,0,1-1.4-.1,1.6,1.6,0,0,1-.9-1.1,2.5,2.5,0,0,1,.2-1.5c.6-1.3,2.4-2.1,3.5-3l.7-.5v-.2h0c0-.1.1,0,.1,0H268c0-.1-.1-.1-.2-.1l-.9-.2h-.5v-.2s-.1-.2,0-.1h0a.3.3,0,0,1,.1.5c-.2.2-.4.3-.6.1a.5.5,0,0,1-.3-.5.3.3,0,0,1,.3-.5,1.5,1.5,0,0,1,.9-.2l1.1.2.5.2c.1.1.3.2.3.4a1,1,0,0,1-.1.8,3.6,3.6,0,0,1-.9.8c-1.2.9-2.9,1.8-3.3,2.6a3.4,3.4,0,0,0-.1,1,.9.9,0,0,0,.4.6h.7c.3-.1.5-.3.5-.5s0-.5,0-.8l-.6-1.9a9.8,9.8,0,0,1-.7-1.6,1.1,1.1,0,0,1-.1-.8c.1-.1.4-.3.5-.2h.4"/><path class="cls-5" d="M270.8,153.7a.4.4,0,0,1-.4-.4.7.7,0,0,1,.5-.4h1.2a1.8,1.8,0,0,1,1.4.2.9.9,0,0,1,.3.6.9.9,0,0,1,0,.7,7,7,0,0,1-.8,2.6c-.4,1.2-.7,2.1-.9,2.9a6.9,6.9,0,0,0-.2,1.8.5.5,0,0,1-.5.4.4.4,0,0,1-.4-.4c.1-.5.1-1.2.3-2a20.8,20.8,0,0,1,1-3,10.1,10.1,0,0,0,.7-2.4v-.4h-.8a3.3,3.3,0,0,1-1.4.1"/><path class="cls-5" d="M271.8,159.1a.3.3,0,0,1-.1.5c-.1.2-.4.2-.6,0a2.7,2.7,0,0,0-.8-.7c-.2-.2-.4-.3-.5-.5s-.1-.2-.1-.4l.2-.2.4-.2h1l3.4-.4a.7.7,0,0,1,.5.4.5.5,0,0,1-.4.5l-3.4.3h-.9c-.1.1,0-.3,0-.2v-.2l.4.3,1,.9"/><path class="cls-5" d="M287.1,153.2a.4.4,0,0,1,.4.4c.1.2-.1.4-.3.4h-.5l-.2-.2h0c0,.1-.1.1-.1.2a2,2,0,0,0,0,.8,6.9,6.9,0,0,0,.5,1.3,14.4,14.4,0,0,1,.7,2.3,2.3,2.3,0,0,1,.1,1.2,2.8,2.8,0,0,1-1.6,1.2,2.5,2.5,0,0,1-2.5-.6,1.8,1.8,0,0,1-.5-1.3,1.4,1.4,0,0,1,.5-1l1-.6c.7-.5,1.5-.8,2.1-1.3a3.8,3.8,0,0,0,1.3-1.2,2.5,2.5,0,0,0,.2-.7h-.1l-.2-.2-.9.2a1,1,0,0,0-.5.7.5.5,0,0,1-.5.4.3.3,0,0,1-.3-.5,1.7,1.7,0,0,1,.9-1.3,2.5,2.5,0,0,1,1.5-.3l.6.3a.9.9,0,0,1,.3.7,1.7,1.7,0,0,1-.3,1,4.5,4.5,0,0,1-1.5,1.6l-2.2,1.3-.8.5c-.2.2-.3.3-.3.4a1.1,1.1,0,0,0,.3.7,1.9,1.9,0,0,0,1.6.5,2.6,2.6,0,0,0,1.1-.8,2,2,0,0,0-.1-.7,17.6,17.6,0,0,0-.7-2.2c-.2-.4-.3-.9-.5-1.4a2.2,2.2,0,0,1,.1-1.4l.4-.5h.8l.3.2a.1.1,0,0,1,.1.1h0c0,.1-.1,0-.1,0h-.1"/><path class="cls-5" d="M294,154.7c.1.2,0,.4-.3.5s-.4-.1-.5-.3H293a1.1,1.1,0,0,0-.7.3l-.3.5c0,.3,0,.6.2.7h.6c.3.1.6.1.8.3a1.5,1.5,0,0,1,.5,1.3,3.9,3.9,0,0,1-1.7,2.5l-.7.3h-.6c-.3-.1-.4-.3-.5-.6a1.4,1.4,0,0,1,0-.9c0-.2.2-.4.4-.3a.4.4,0,0,1,.4.4q-.1.4,0,.6h.2l.3-.2a3.2,3.2,0,0,0,1.4-1.9c0-.3-.1-.5-.2-.5l-.4-.2c-.2,0-.8.1-1.1-.4a1.3,1.3,0,0,1-.4-1.3,2.4,2.4,0,0,1,.6-1.1,2.8,2.8,0,0,1,1.2-.4h.6a.7.7,0,0,1,.4.5"/><path class="cls-5" d="M293,155.3c-.1.2-.3.3-.5.1s-.3-.3-.1-.5a2.5,2.5,0,0,1,2-1h3.2a.4.4,0,0,1,0,.8h-3.1a2.6,2.6,0,0,0-1.5.6"/><path class="cls-5" d="M330.6,155a.4.4,0,0,1-.3.6.4.4,0,0,1-.5-.2v-.3h.2v.4c0,.7.8,1.8,1.1,2.9a2,2,0,0,1-.1,1.5,1.3,1.3,0,0,1-.7.6l-.9.2a2.1,2.1,0,0,1-1.1-.4l-.7-.9a2.5,2.5,0,0,1-.1-1.2,1.4,1.4,0,0,1,1-1l1.4-.8,1.2-.7.5-.4.5-.6h-.3l-.4.2-.3.7a.4.4,0,0,1-.4.4.7.7,0,0,1-.4-.5,1.3,1.3,0,0,1,.5-1.1,1.6,1.6,0,0,1,.9-.5l.8.2a.5.5,0,0,1,.3.4.4.4,0,0,1,0,.5,2.1,2.1,0,0,1-.6,1l-.6.4a5.7,5.7,0,0,1-1.3.8l-1.4.8c-.4.2-.6.4-.6.5s0,.4.1.7a1,1,0,0,0,.4.5.9.9,0,0,0,.6.3h.6l.3-.3a1.4,1.4,0,0,0,0-.9c-.3-.9-1.1-1.9-1.2-3.1a1.6,1.6,0,0,1,.4-1.2h.8l.4.6"/><path class="cls-5" d="M336.2,154.8c.2.1.3.3.1.5a.4.4,0,0,1-.5.2h-.3c-.1,0-.2.2-.3.4a2.1,2.1,0,0,0,0,.8h-.1c.1,0-.3,0-.2-.1s-.2.1-.1.1h0a.4.4,0,0,1,.1-.3.4.4,0,0,1,.5-.3.5.5,0,0,1,.3.5c-.1.3-.2.6-.4.7a.6.6,0,0,1-.6.1l-.2-.3a2.2,2.2,0,0,1-.1-1.4,1.6,1.6,0,0,1,.6-.8,1.3,1.3,0,0,1,1.2,0"/><path class="cls-5" d="M337.9,154.5a.4.4,0,1,1-.7.5h-.6l-1.1,1a6.2,6.2,0,0,0-1.5,3.6,1.9,1.9,0,0,0,.2,1l.3.2h.5a2.9,2.9,0,0,0,1.1-1.1.8.8,0,0,0,.1-.4.4.4,0,0,0-.1-.5h-.7c-.4.2-.8.4-.9.7s-.4.2-.6,0a.3.3,0,0,1-.1-.5,1.9,1.9,0,0,1,1.4-.9l.8-.2a.9.9,0,0,1,.7.4,1.1,1.1,0,0,1,.3,1.1,1.4,1.4,0,0,1-.2.7,3.3,3.3,0,0,1-1.6,1.5h-.8a2,2,0,0,1-.8-.4,2.2,2.2,0,0,1-.4-1.6,7,7,0,0,1,1.7-4.1,3.9,3.9,0,0,1,1.4-1.2.8.8,0,0,1,.8-.2,1.2,1.2,0,0,1,.8.4"/><path class="cls-5" d="M347.2,153.5a.7.7,0,0,1-.5.4.4.4,0,0,1-.4-.4c0-.1.1-.1,0-.1h.3v.4c0,.4.8,1.5,1.1,2.6a3.2,3.2,0,0,1-.6,2.7,1,1,0,0,1-.6.5,1.9,1.9,0,0,1-1.3,0,1.2,1.2,0,0,1-.6-.6,3.1,3.1,0,0,1-.2-.8,1.9,1.9,0,0,1-.1-.8,2.6,2.6,0,0,1,1.5-1.4,18,18,0,0,0,2-1.1,4.7,4.7,0,0,0,1.4-1.4l.3-.6h-.7l-.5.2c-.1.1-.1.2,0,.5a.5.5,0,0,1-.3.5c-.2.1-.4-.1-.5-.3a1.2,1.2,0,0,1,.2-1.3,2.1,2.1,0,0,1,1-.4,2,2,0,0,1,1.1.2c.1.1.3.2.4.4a1.3,1.3,0,0,1,.1.6,3,3,0,0,1-.4,1,7.7,7.7,0,0,1-1.6,1.5,8.8,8.8,0,0,1-2.1,1.2,2.7,2.7,0,0,0-1.1.9,1.3,1.3,0,0,0,.1.5.7.7,0,0,0,.1.5l.2.2h.7c0-.1.1-.2.3-.4a2.8,2.8,0,0,0,.4-1.9c-.3-.9-1.2-1.8-1.2-2.9a.8.8,0,0,1,.1-.4V153l.3-.3a.8.8,0,0,1,.8.1.8.8,0,0,1,.3.7"/><path class="cls-5" d="M352.6,152.9c.1.2-.1.4-.3.4s-.4-.1-.5-.3v-.2h.4v1.5a22.6,22.6,0,0,1,.4,3.3,2.2,2.2,0,0,1-1.5,1.7,2.1,2.1,0,0,1-1.7-.4,1.1,1.1,0,0,1-.2-1,1.6,1.6,0,0,1,.6-.8,6.4,6.4,0,0,1,2-1.6,11.4,11.4,0,0,0,2.2-1.6c.1-.2.2-.5.1-.6a1,1,0,0,0-.1-.4h-.3a1.4,1.4,0,0,0-.6.8.4.4,0,0,1-.5.2.5.5,0,0,1-.3-.5,2.5,2.5,0,0,1,1-1.2,1.1,1.1,0,0,1,1.1,0,1.7,1.7,0,0,1,.6,1,2.3,2.3,0,0,1-.3,1.1,8.2,8.2,0,0,1-2.5,1.9,6.6,6.6,0,0,0-1.8,1.4,2.1,2.1,0,0,0-.4.6h0a1,1,0,0,0,.9.2,1.3,1.3,0,0,0,.9-1.1c.1-.6-.3-1.6-.4-3a9.6,9.6,0,0,1,0-1.7l.2-.4a.3.3,0,0,1,.3-.3h.4l.2.2a.9.9,0,0,1,.1.5"/><path class="cls-5" d="M357.7,156.7c-.1.2-.3.4-.5.3s-.4-.2-.3-.4v-.3h0l-1,.6a5.9,5.9,0,0,0-.8,1.1,1,1,0,0,0-.1.4h.3l.6-.2.5-.3a.6.6,0,0,1,.8-.1.2.2,0,0,1,.2.2v.8c-.1.2,0,.3,0,.3l.9.3a.4.4,0,0,1,.4.4.7.7,0,0,1-.5.4,2.2,2.2,0,0,1-1.3-.5,1.2,1.2,0,0,1-.4-1c.1-.1.1-.2.1-.4h.1c-.1,0,.2.1.1.1h-.1l-.6.3a1.1,1.1,0,0,1-.8.3h-.6a.8.8,0,0,1-.6-.4,1.7,1.7,0,0,1,.1-1,3.6,3.6,0,0,1,1.1-1.4,2.9,2.9,0,0,1,1.4-.8,1.1,1.1,0,0,1,.7.3c.2.2.2.5.2.9"/><path class="cls-5" d="M368.5,153.1a.5.5,0,0,1-.2.6.5.5,0,0,1-.5-.3l-.3-.3h0v.2a1.1,1.1,0,0,0,.1.5c.2,1,1.3,2.1,1.6,3.3a3.3,3.3,0,0,1,0,1.7,1.3,1.3,0,0,1-.9.7,2,2,0,0,1-1.3.1,2.7,2.7,0,0,1-1.2-.6,2.1,2.1,0,0,1-.5-1.2,1.9,1.9,0,0,1,.5-1.3,5.6,5.6,0,0,1,1.5-1,10.4,10.4,0,0,0,3-2,.6.6,0,0,0,.1-.4h0l-.3-.2-.8-.2H369c.2.1.2.4,0,.6a.5.5,0,0,1-.6-.1.7.7,0,0,1-.1-1.1,1.4,1.4,0,0,1,1.1-.3l1.1.3a.5.5,0,0,1,.4.3.5.5,0,0,1,.3.5,1,1,0,0,1-.3,1,7.7,7.7,0,0,1-3.3,2.2l-1.2.8a1.3,1.3,0,0,0-.3.7,1.5,1.5,0,0,0,.3.7,1.2,1.2,0,0,0,.8.4h.8c.3-.1.4-.2.4-.3a2.4,2.4,0,0,0,0-1.2c-.2-.9-1.3-2-1.6-3.3a1.9,1.9,0,0,1-.1-.8v-.3c.1-.2.2-.4.4-.4a.6.6,0,0,1,.8.1,1.3,1.3,0,0,1,.6.7"/><path class="cls-5" d="M372.7,153a.5.5,0,0,1-.6.2c-.2-.1-.2-.4-.1-.6s.4-.4.7-.5l1-.4a1.6,1.6,0,0,1,1.6.4,1.9,1.9,0,0,1,.4,1.7c-.2,1.3-1.2,2.6-1.7,3.8a3.9,3.9,0,0,0-.5,1.4v.7h-.1s-.2-.1-.1-.1h-.4c.1,0-.1.1,0,.1h-.1a.8.8,0,0,0,0-.7l-.2-.5-.8-.6-.5-.4a.5.5,0,0,1-.2-.4c0-.3.2-.4.3-.4h1.7a22,22,0,0,0,3.6-.1.4.4,0,0,1,.4.4c.1.2-.1.4-.3.5h-5v-.2h0V157c.1,0,0-.1,0-.1l.5.4a2.3,2.3,0,0,1,.9.8,2.3,2.3,0,0,1,.5,1,2.8,2.8,0,0,1-.1.9v.2c0,.1-.1.2-.3.2h-.3c-.3-.2-.2-.3-.2-.5a3.3,3.3,0,0,1,0-1,6.4,6.4,0,0,1,.6-1.6,26,26,0,0,0,1.6-3.5,1,1,0,0,0-.2-1,.7.7,0,0,0-.8-.2,3.6,3.6,0,0,0-1.2.5"/><path class="cls-5" d="M380.8,157.9c0-.2.2-.3.4-.3s.4.3.4.5h-.1a.3.3,0,0,1-.1.2,2.1,2.1,0,0,1-.4.6.5.5,0,0,0,0,.6,2.5,2.5,0,0,0,1.8.3.4.4,0,1,1,0,.8,3.3,3.3,0,0,1-2.4-.5,1.6,1.6,0,0,1-.3-.9,3.1,3.1,0,0,1,.2-.8,1,1,0,0,0,.4-.5h.1m.5-.8c-.1.3-.3.4-.5.3a.4.4,0,0,1-.2-.6.4.4,0,0,0-.1-.3h-.3l-.7.3a2,2,0,0,0-.9.9,1.8,1.8,0,0,0-.5.7c0,.2,0,.3.1.4s-.1-.1,0-.1h.3l.8-.2.9-.4.5-.2a.5.5,0,0,1,.4-.2.5.5,0,0,1,.5.4.4.4,0,0,1-.4.4h0l-.6.4-1,.4-1,.3h-.5c-.2-.1-.4-.1-.5-.3a1.1,1.1,0,0,1-.3-.9,2.2,2.2,0,0,1,.6-1.3l1.1-1a1.5,1.5,0,0,1,1.3-.4,1.2,1.2,0,0,1,.9.5.9.9,0,0,1,.1,1"/><path class="cls-6" d="M5.4,171.1a.4.4,0,0,1-.2.5.5.5,0,0,1-.6-.2,1.1,1.1,0,0,1-.1-.8c.1-.3.3-.4.5-.6a3.2,3.2,0,0,1,1.4-.3A2.9,2.9,0,0,1,9,171.1a1.9,1.9,0,0,1,.3,1,.9.9,0,0,1-.1.7,2.9,2.9,0,0,1-.7.8l-.6.2h0v.2l.4.6a2,2,0,0,1,.2,1.3,1.6,1.6,0,0,1-.6,1.2,4.6,4.6,0,0,1-2.7.8H3.1a.8.8,0,0,1-.2-.5c-.1-.2,0-.3.1-.4l.3-.4a.6.6,0,0,1,.6,0,.6.6,0,0,1,0,.6l-.2.2H5.2a3.6,3.6,0,0,0,2.1-.5.8.8,0,0,0,.4-.7,1.3,1.3,0,0,0-.2-.8c0-.2-.2-.4-.3-.6s-.1-.2-.1-.4a.4.4,0,0,1,0-.5c.1-.2.4-.3.5-.4H8l.5-.4v-.4a1.4,1.4,0,0,0-.2-.6,2.3,2.3,0,0,0-1.9-.9H5.3v.3"/><path class="cls-6" d="M12.7,172.9a.6.6,0,0,1,0,.6h-1a2.3,2.3,0,0,0-.5,1.1,1.7,1.7,0,0,0-.1,1.2l.5.3h.8a3.9,3.9,0,0,0,2.6-1.5,2.1,2.1,0,0,0,.4-1.2v-.2a2.1,2.1,0,0,0-1.5-.2,3,3,0,0,0-1.9.8.5.5,0,0,1-.6-.1.6.6,0,0,1,0-.6,5.4,5.4,0,0,1,2.4-.9,2.4,2.4,0,0,1,2.2.4,1.2,1.2,0,0,1,.2.8,2,2,0,0,1-.6,1.7,4.3,4.3,0,0,1-3.2,1.9l-1.1-.2a2.2,2.2,0,0,1-.9-.7,2.5,2.5,0,0,1,0-1.9,3.7,3.7,0,0,1,.7-1.4,1.1,1.1,0,0,1,.7-.3c.3-.1.6.1.9.3"/><path class="cls-6" d="M4.6,167.9a.4.4,0,0,1-.5.2.5.5,0,0,1-.2-.6H3.3A4.8,4.8,0,0,0,2,168.8a11.8,11.8,0,0,0-.9,3,18.4,18.4,0,0,0-.3,3.3,7.2,7.2,0,0,0,1,3.5,3.2,3.2,0,0,0,2.6,1.6c.3,0,.4.2.4.5a.3.3,0,0,1-.5.3,4.2,4.2,0,0,1-3.2-2A7.8,7.8,0,0,1,0,175.1a14.2,14.2,0,0,1,.3-3.5,10.3,10.3,0,0,1,1-3.1c.5-1,1.1-1.9,1.9-2.1a1.2,1.2,0,0,1,1,.2l.5.5a1.1,1.1,0,0,1-.1.8"/><path class="cls-6" d="M16.4,168.4a.5.5,0,0,1-.4-.5.4.4,0,0,1,.4-.4l.7.4a1.5,1.5,0,0,1,.4.6,12.2,12.2,0,0,1,.5,1.7c.1.8.4,1.6.5,2.5a10.2,10.2,0,0,1,.3,3.8,5,5,0,0,1-1.8,3.2.4.4,0,0,1-.6,0,.5.5,0,0,1,.1-.6c1.8-1.6,1.8-3.5,1.2-6.3-.1-.8-.4-1.6-.5-2.4a10.3,10.3,0,0,0-.5-1.6c-.1-.2-.1-.3-.2-.4h-.1"/><path class="cls-6" d="M100.2,168.6a.4.4,0,0,1-.1.6c-.2.1-.4.1-.5-.1l-.3-.3h.2c-.1.1-.1.2-.1.4a4.1,4.1,0,0,0,.2,1.5c.5,1.1,1.5,2,1.9,3.2a2.5,2.5,0,0,1-.1,1.7,1.4,1.4,0,0,1-1.3.8,2.7,2.7,0,0,1-1.6-.2,2.3,2.3,0,0,1-.8-.9,4.9,4.9,0,0,1-.1-1.2,5.5,5.5,0,0,1,2.1-3.2c.4-.4.9-.6,1.1-.9l.4-.8a.7.7,0,0,0-.1-.5h-.8l-.4.3c-.1.1-.1.1,0,.2a.6.6,0,0,1-.3.6.4.4,0,0,1-.5-.2,1,1,0,0,1,.1-1.1,2.4,2.4,0,0,1,.9-.6,1.7,1.7,0,0,1,1,0c.3.1.7.3.8.6a2.8,2.8,0,0,1,.1.9,2.3,2.3,0,0,1-.6,1.2,4,4,0,0,1-1.2,1,6.1,6.1,0,0,0-1.8,2.7,1.9,1.9,0,0,0,.1.8,1,1,0,0,0,.4.5,1.9,1.9,0,0,0,1.1.1.8.8,0,0,0,.7-.4,2,2,0,0,0,0-1.1c-.3-.8-1.3-1.8-1.8-3.1a3.3,3.3,0,0,1-.3-1.9,1.3,1.3,0,0,1,.1-.6l.4-.4h.6a1.2,1.2,0,0,1,.5.5"/><path class="cls-6" d="M105.1,169.5c-.2,0-.4-.2-.3-.4a.4.4,0,0,1,.4-.4h0l1.6-.4,1.3-.2h.7c.3.2.3.6.3.9a3.4,3.4,0,0,1-.1,1,18.9,18.9,0,0,1-.9,2.1,10.6,10.6,0,0,0-1,2.8,15.5,15.5,0,0,0-.3,1.7.5.5,0,0,1-.5.3c-.2-.1-.4-.3-.3-.5s.1-.9.3-1.7a20.8,20.8,0,0,1,1-3,6.5,6.5,0,0,0,.9-1.9c0-.3.1-.6.1-.8s0-.2-.1-.2.1,0,0-.1H108l-1,.2-1.1.3a1.1,1.1,0,0,1-.8.1"/><path class="cls-6" d="M106.4,175.1a.4.4,0,0,1-.5.2.3.3,0,0,1-.3-.5,6.5,6.5,0,0,0-.3-1c0-.2-.1-.5,0-.7a.9.9,0,0,1,.3-.5l.5-.2h1.2a15.5,15.5,0,0,0,3.4-.4.4.4,0,0,1,.2.8,12.7,12.7,0,0,1-3.6.4h-1.2c-.1,0,0-.1,0,0v.3a3.3,3.3,0,0,1,.3,1.5"/><path class="cls-6" d="M97.3,165.4c.2.1.4.3.3.5s-.3.4-.5.3a1.5,1.5,0,0,0-1.3.4l-.9.9a12.3,12.3,0,0,0-1.1,2.3,5.7,5.7,0,0,0,4.5,7.4.4.4,0,0,1,.4.4.7.7,0,0,1-.5.4,6.5,6.5,0,0,1-5.2-8.4,9,9,0,0,1,1.3-2.6l1-1a2.7,2.7,0,0,1,2-.6"/><path class="cls-6" d="M110.7,166.4c-.2,0-.3-.3-.3-.5a.5.5,0,0,1,.5-.3,3,3,0,0,1,1.7,1.1,10.7,10.7,0,0,1,.6,1.7,17,17,0,0,1-.1,5.5,13.2,13.2,0,0,1-.5,2.3l-.3.8c-.2.2-.3.4-.6.5a.5.5,0,0,1-.5-.4c0-.2.1-.4.3-.4h.1a2.5,2.5,0,0,1,.2-.7,9,9,0,0,0,.5-2.2,15.2,15.2,0,0,0,.1-5.2,10.9,10.9,0,0,0-.5-1.4,1.9,1.9,0,0,0-1.2-.7"/><path class="cls-6" d="M136.5,168.9c-.2-.1-.4-.3-.3-.5s.2-.4.4-.3a9.9,9.9,0,0,1,2.6-.1,2.3,2.3,0,0,1,1.2.6l.2.2c0,.1.1.2.1.4s-.3.4-.4.6l-.5.2-.4.2h.1v.2l.5.6a5.2,5.2,0,0,1,.8,1.1,2,2,0,0,1-.1,1.3,1.8,1.8,0,0,1-.9.6l-1.1.2h-1.1a1,1,0,0,1-.5-.4,1.7,1.7,0,0,1-.1-.7c.1-.2.3-.4.5-.3a.4.4,0,0,1,.3.5h.8l.9-.2a.6.6,0,0,0,.5-.2.6.6,0,0,0,0-.6c-.1-.3-.4-.5-.6-.8s-.5-.5-.6-.8-.2-.3-.2-.5a.7.7,0,0,1,.2-.6l.5-.3.4-.2h.1a.1.1,0,0,0-.1-.1c-.1-.2-.4-.3-.7-.4s-1.9.2-2.6.1"/><path class="cls-6" d="M145.1,170.4a.4.4,0,0,1,.2.6.4.4,0,0,1-.5.2h-.7a1.3,1.3,0,0,0-.5.7.8.8,0,0,0,.1.8,1.4,1.4,0,0,0,1,.6h1.4a2.8,2.8,0,0,0,1-.9,3.4,3.4,0,0,0,.4-1.2l-.2-.3a.6.6,0,0,0-.5-.2,5.5,5.5,0,0,0-2.6.4.4.4,0,0,1-.5-.2c-.1-.2,0-.5.2-.5a6.2,6.2,0,0,1,3-.5,1.8,1.8,0,0,1,1,.4,1.3,1.3,0,0,1,.4.9,3.3,3.3,0,0,1-.5,1.6,2.6,2.6,0,0,1-1.5,1.2,2.5,2.5,0,0,1-1.9.1,2.4,2.4,0,0,1-1.4-1,1.8,1.8,0,0,1-.2-1.6,2.2,2.2,0,0,1,.9-1,1.7,1.7,0,0,1,1.4-.1"/><path class="cls-6" d="M136.9,165.2a.6.6,0,0,1,0,.6c-.2.1-.5.1-.6-.1l-.3-.2h-.3a4.3,4.3,0,0,0-1.5,2,14.5,14.5,0,0,0-1.1,3.7,9.5,9.5,0,0,0,.5,4.1,5.1,5.1,0,0,0,2.7,2.9.4.4,0,0,1,.2.5.5.5,0,0,1-.6.2,6.2,6.2,0,0,1-3.1-3.3,11.1,11.1,0,0,1-.5-4.4,16.4,16.4,0,0,1,1.1-4.1,5.7,5.7,0,0,1,1.9-2.3,1.2,1.2,0,0,1,1-.1l.6.5"/><path class="cls-6" d="M148.3,165.9c-.1.2-.3.3-.5.1a.4.4,0,0,1-.2-.5.5.5,0,0,1,.4-.3h.6a3,3,0,0,1,1.1.4,4.4,4.4,0,0,1,1.1,1.2c.9,1.4.9,3.5.6,5.6a10.7,10.7,0,0,1-.6,2.7,2.9,2.9,0,0,1-1.3,1.7.4.4,0,0,1-.5-.2c-.1-.2-.1-.4.2-.5a4.2,4.2,0,0,0,.8-1.3,9.2,9.2,0,0,0,.6-2.5c.3-2,.2-4-.5-5.1a3.8,3.8,0,0,0-.9-.9l-.7-.3h-.2"/><path class="cls-6" d="M263.7,170.1a.4.4,0,0,1-.4-.4.7.7,0,0,1,.5-.4,8.2,8.2,0,0,1,2.1.2,1.3,1.3,0,0,1,.9.7,1.9,1.9,0,0,1,0,1.3l-.4.4h-.2v.2l.3.7.3.7a.9.9,0,0,1,0,.7l-.4.5-1.2.4h-1.2a1.4,1.4,0,0,1-1-.7c-.1-.2.1-.4.3-.5a.4.4,0,0,1,.5.2l.4.2h.9l.8-.2h.1c0-.1.1-.1,0-.2a1.7,1.7,0,0,0-.2-.5c-.1-.3-.3-.5-.4-.8s-.1-.2-.1-.4a.9.9,0,0,1,.1-.5l.4-.4h.1a2.3,2.3,0,0,0,.1-.7l-.4-.2a13.6,13.6,0,0,0-2-.2"/><path class="cls-6" d="M271.4,171.8a.4.4,0,0,1,.2.5.5.5,0,0,1-.6.2h-.4a1.6,1.6,0,0,0-.6.8,1.4,1.4,0,0,0,0,.9,2,2,0,0,0,1.3.6h.8c.4-.1.9-.7,1.2-1.2a1.7,1.7,0,0,0,.2-.5V173l-.5-.2a10.1,10.1,0,0,0-3,.1.4.4,0,0,1-.4-.4c-.1-.2.1-.4.3-.4a9.4,9.4,0,0,1,3.4-.1l.7.4a1,1,0,0,1,.4.7,1.7,1.7,0,0,1-.3,1,2.7,2.7,0,0,1-1.7,1.6,4,4,0,0,1-1.1,0,2.8,2.8,0,0,1-1.8-.9,1.6,1.6,0,0,1-.2-1.6,3.6,3.6,0,0,1,.8-1.2.9.9,0,0,1,.7-.3.6.6,0,0,1,.7.1"/><path class="cls-6" d="M264,165.7a.5.5,0,0,1,.2.6.4.4,0,0,1-.5.2h-.3l-.6.4a5.6,5.6,0,0,0-1.4,1.6,5.9,5.9,0,0,0-.4,4.9,7.2,7.2,0,0,0,3.8,4.3.4.4,0,0,1-.4.8,8.5,8.5,0,0,1-4.2-4.8,7.2,7.2,0,0,1,.5-5.6,7.7,7.7,0,0,1,1.6-1.9l.8-.5h.9"/><path class="cls-6" d="M274.7,167.5a.4.4,0,0,1-.5-.2.5.5,0,0,1,.2-.6h.4a.5.5,0,0,1,.4.2l.5.7a8.1,8.1,0,0,1,.7,2.2,14.2,14.2,0,0,1-.1,5.8,8.5,8.5,0,0,1-1.8,4.5H274c-.2-.2-.2-.5,0-.6s2.2-6.2,1.6-9.5a14.2,14.2,0,0,0-.6-2.1l-.4-.4h.1"/><path class="cls-6" d="M346.1,167.8a.4.4,0,0,1,.4-.4.4.4,0,0,1,.4.4c.1.6.7,1.7,1,3.2a8.6,8.6,0,0,1,.1,3.9,1.9,1.9,0,0,1-.6,1l-.4.3a.7.7,0,0,1-.6.1c-.3-.1-.5-.4-.7-.6a1.9,1.9,0,0,1-.3-.8,2.7,2.7,0,0,1-.3-1.2,1.3,1.3,0,0,1-.1-.6,1.8,1.8,0,0,1,.2-1c.5-.6,1.2-.7,1.7-1l.8-.5.6-.8a1.4,1.4,0,0,0,0-.9,1.4,1.4,0,0,0-.8-.5.9.9,0,0,0-.9.1,1,1,0,0,0-.5.8.4.4,0,0,1-.4.4.7.7,0,0,1-.4-.5,1.8,1.8,0,0,1,.9-1.4,1.9,1.9,0,0,1,1.5-.2,2.2,2.2,0,0,1,1.3.8,2,2,0,0,1,0,1.7,2.8,2.8,0,0,1-.8,1.1l-.9.6-1.4.8a.7.7,0,0,0-.1.5,1.1,1.1,0,0,0,.1.5,3.6,3.6,0,0,0,.2,1l.3.7.2.2h.2a1.6,1.6,0,0,0,.4-.7,11.1,11.1,0,0,0-.1-3.6c-.3-1.3-.9-2.3-1-3.3"/><path class="cls-6" d="M352.7,167.8a.5.5,0,0,1-.5-.4c0-.3.2-.4.4-.5h2.5l.4.2.3.4a1.5,1.5,0,0,1,.1.7,6.8,6.8,0,0,1-.7,2.6,10.6,10.6,0,0,0-1,2.8,3.3,3.3,0,0,0-.2,1.6h-.1c.1,0-.2-.1-.1-.1h0a.4.4,0,0,1,.6-.1c.1.1.2.4,0,.5l-.3.4c-.1.1-.2.2-.4.1a.6.6,0,0,1-.5-.3.8.8,0,0,0-.1-.4,6.7,6.7,0,0,1,.3-1.8c.2-.9.6-1.8,1-3a5.5,5.5,0,0,0,.7-2.2c0-.2,0-.3-.1-.4h-2.3"/><path class="cls-6" d="M354,173a.5.5,0,0,1,0,.6c-.1.2-.4.2-.6,0l-.7-.3-.5-.2c-.1,0-.2-.1-.2-.3s0-.3.1-.4a1.4,1.4,0,0,1,.8-.5l1.3-.3,3-.4a.5.5,0,0,1,.5.4.4.4,0,0,1-.4.4l-3,.4-1.6.5v-.2c0,.1-.1-.2,0-.1h.1a3.4,3.4,0,0,1,1.1.5"/><path class="cls-6" d="M345.6,165.3a.5.5,0,0,1-.5.4.3.3,0,0,1-.3-.5h-.5a7.4,7.4,0,0,0-1.8,2.4,6.8,6.8,0,0,0-.9,3.9,4.6,4.6,0,0,0,1.8,3.3c.2.1.2.3.1.5a.4.4,0,0,1-.6.1,5.1,5.1,0,0,1-2.1-3.8,6.8,6.8,0,0,1,1-4.4,6.7,6.7,0,0,1,2.1-2.7,1.5,1.5,0,0,1,1.1-.2l.5.3a1.1,1.1,0,0,1,.1.5"/><path class="cls-6" d="M357.3,166.1a.4.4,0,0,1,.4-.8,4.5,4.5,0,0,1,1.7,1.3,4.8,4.8,0,0,1,.6,1.8,17.1,17.1,0,0,1-.7,5.8,25.6,25.6,0,0,1-.9,2.6,6.4,6.4,0,0,1-1,1.6.4.4,0,0,1-.6,0c-.2-.1-.1-.4,0-.6a9.6,9.6,0,0,0,1.7-3.8,15.5,15.5,0,0,0,.6-5.5,2.6,2.6,0,0,0-.4-1.4,2.6,2.6,0,0,0-1.4-1"/><path d="M77.2,169.6c-.3,0-.5-.1-.5-.3a.4.4,0,0,1,.3-.5h1.7a4.8,4.8,0,0,1,2.1.1.4.4,0,0,1,.2.5c-.1.3-.3.4-.5.3a12.1,12.1,0,0,0-3.3,0"/><path d="M78.9,167.4c-.1.2-.4.4-.6.3a.4.4,0,0,1-.2-.5c0-.1,0-.2.3-.3s.3,0,.4.1h.1a.8.8,0,0,1,.1.4v1.3a19.3,19.3,0,0,1-.1,2.6.4.4,0,0,1-.4.4.5.5,0,0,1-.4-.5,17.8,17.8,0,0,0,.1-2.5v-1.4h.6c-.1.1.1-.1,0-.1h.1"/><path d="M78.5,165.6c.2.1.2.3.1.5a.5.5,0,0,1-.6.2q0-.2-.3,0l-.8.2a3.8,3.8,0,0,0-1.5,1.3,2.2,2.2,0,0,0-.3,1.6,5.3,5.3,0,0,0,2.3,2.7,3.6,3.6,0,0,0,2.7.7,5.7,5.7,0,0,0,2.3-2.5,8.5,8.5,0,0,0,.8-2.2c0-.4.1-.7,0-.8s-.2-.3-.6-.4a3.6,3.6,0,0,0-1.5-.2,8.4,8.4,0,0,0-3.6,1.1.4.4,0,0,1-.5-.1.4.4,0,0,1,.1-.6,8.9,8.9,0,0,1,3.9-1.2,5,5,0,0,1,1.8.2,1.6,1.6,0,0,1,1.2.9,4.8,4.8,0,0,1,0,1.2,7.6,7.6,0,0,1-.9,2.5,5.3,5.3,0,0,1-2.8,2.9,4.4,4.4,0,0,1-3.4-.8,6,6,0,0,1-2.6-3.3,3.1,3.1,0,0,1,.4-2.1,4.2,4.2,0,0,1,1.9-1.6,1.9,1.9,0,0,1,1-.3,1,1,0,0,1,.9.1"/><path d="M31.6,169.8a.6.6,0,0,1-.6.3.4.4,0,0,1-.2-.6,1.1,1.1,0,0,1,.9-.7h1.4a17,17,0,0,1,3.1.6.4.4,0,0,1,.2.5.4.4,0,0,1-.5.3,15,15,0,0,0-2.9-.6H31.9c-.2,0-.3.1-.3.2"/><path d="M32.6,165.8a.4.4,0,0,1,.3.5c0,.2-.2.3-.5.3a2.6,2.6,0,0,0-3.1,2.7,5.2,5.2,0,0,0,.3,1.8,5.1,5.1,0,0,0,1.3,1.6,4.1,4.1,0,0,0,4.6.4,8.3,8.3,0,0,0,3.6-4.7c.1-.5.1-.9-.1-1.1a2.9,2.9,0,0,0-2.3-.6,9.3,9.3,0,0,0-4,1.6.5.5,0,0,1-.6-.1.7.7,0,0,1,.1-.6,9.7,9.7,0,0,1,4.4-1.7,3.9,3.9,0,0,1,3,.8,2.4,2.4,0,0,1,.3,1.9,8.5,8.5,0,0,1-1.4,2.9,7.8,7.8,0,0,1-2.7,2.4,4.8,4.8,0,0,1-5.4-.6,5.2,5.2,0,0,1-1.5-1.8,6,6,0,0,1-.4-2.2,3.4,3.4,0,0,1,.7-2.2,3.5,3.5,0,0,1,3.4-1.3"/><path d="M204.8,169c-.2,0-.3-.2-.3-.5s.2-.3.5-.3a8.9,8.9,0,0,0,2.2-.1,4.7,4.7,0,0,1,2.4.1c.2.2.3.4.2.6s-.4.3-.6.2a3.6,3.6,0,0,0-1.9-.1,10.9,10.9,0,0,1-2.5.1"/><path d="M207.3,166.5c.2.2.3.4.2.6a.4.4,0,0,1-.6.1h.4c-.1.1.1,0,.1,0s0-.1,0-.1v.3c0,.3-.1.7-.1,1.1a4.1,4.1,0,0,0,.5,2.3.5.5,0,0,1-.1.6.3.3,0,0,1-.5-.1,4.2,4.2,0,0,1-.7-2.8,5.3,5.3,0,0,1,.1-1.3v-.4c.1-.1.1-.2.2-.2h.5"/><path d="M207.5,165.7a.4.4,0,0,1,.4.4c0,.3-.1.5-.4.5l-1.8-.3a1.9,1.9,0,0,0-1.4.5,3.1,3.1,0,0,0-.7,2.4,5,5,0,0,0,.5,2.1,2.4,2.4,0,0,0,2.1,1.1,4,4,0,0,0,2.2-.8,8.6,8.6,0,0,0,2.6-2.8,2.5,2.5,0,0,0,.5-1.8c0-.2-.1-.3-.5-.4a11.1,11.1,0,0,0-5.4.8c-.2.1-.5,0-.5-.2a.4.4,0,0,1,.2-.5c1.9-.8,4.4-1.4,6-.9a1.4,1.4,0,0,1,1,1,3.3,3.3,0,0,1-.6,2.4,9.5,9.5,0,0,1-2.9,3.1,5.1,5.1,0,0,1-2.5.9,3.1,3.1,0,0,1-2.9-1.5,6.6,6.6,0,0,1-.7-2.5,4.1,4.1,0,0,1,1.1-3.1,3.2,3.2,0,0,1,1.9-.7c.8,0,1.6.4,1.8.3"/><path d="M162.8,168.5c-.2.1-.4,0-.6-.2a.4.4,0,0,1,.2-.5,4.6,4.6,0,0,1,3.8-.1.4.4,0,0,1,.2.5.4.4,0,0,1-.5.3c-1.2-.4-2.1-.6-3.1,0"/><path d="M161.9,165.5c.3,0,.4.2.3.5s-.2.3-.5.2l-.8.3a2.4,2.4,0,0,0-.7,1.2,2.3,2.3,0,0,0,.3,1.6,2.8,2.8,0,0,0,1.3,1,6.4,6.4,0,0,0,2,.3,4.4,4.4,0,0,0,2-.3,5.4,5.4,0,0,0,2.8-3.8,1.4,1.4,0,0,0-.4-1.4,4.4,4.4,0,0,0-2.7-.5,4.8,4.8,0,0,0-2.9,1.2c-.2.2-.5.2-.6,0s-.2-.4,0-.6a6.1,6.1,0,0,1,3.4-1.4,4.5,4.5,0,0,1,3.3.6,2.3,2.3,0,0,1,.7,2.3,5.1,5.1,0,0,1-5.6,4.7,5.9,5.9,0,0,1-2.3-.4,2.7,2.7,0,0,1-1.7-1.3,2.9,2.9,0,0,1-.4-2.2,2.3,2.3,0,0,1,1-1.6,1.4,1.4,0,0,1,1.5-.4"/><path d="M329.6,168.4a.5.5,0,0,1,.5-.4.4.4,0,0,1,.4.4c0,.1-.1-.2-.1-.1s-.1-.2,0-.2h3c.2.1.4.3.3.5a.4.4,0,0,1-.4.4H330c-.1-.1-.4-.3-.4-.5"/><path d="M332.4,165.9c.2-.2.5-.2.6,0a.5.5,0,0,1,0,.6,4.6,4.6,0,0,0-.9,2.1,5.3,5.3,0,0,0-.1,1.2.4.4,0,0,1,.1.3h.1c.2,0,.3.3.3.5a.4.4,0,0,1-.5.2c-.3,0-.4-.2-.6-.4s-.1-.4-.2-.6a7.6,7.6,0,0,1,.1-1.5,4.5,4.5,0,0,1,1.1-2.5"/><path d="M332.6,165.4c.2,0,.4.2.3.4a.4.4,0,0,1-.4.4,3.9,3.9,0,0,0-2.4.2,2.9,2.9,0,0,0-1.6,1.8,4.8,4.8,0,0,0-.6,2.8,2.5,2.5,0,0,0,.5,1.5,1.6,1.6,0,0,0,1,.8,3.1,3.1,0,0,0,2.1-.1c1.4-.5,2.7-2.3,3.3-3.8a3.9,3.9,0,0,0,.3-1.4,1.9,1.9,0,0,0-.2-.8c-.2-.5-1-.8-1.8-1a5.2,5.2,0,0,0-2.1-.1.4.4,0,0,1-.5-.3.5.5,0,0,1,.3-.5,6.7,6.7,0,0,1,2.4.1,3.7,3.7,0,0,1,2.5,1.4,2.5,2.5,0,0,1,.2,1.2,5.5,5.5,0,0,1-.3,1.7,8,8,0,0,1-3.8,4.3,3.9,3.9,0,0,1-2.6.1,2.8,2.8,0,0,1-1.5-1.1,3.4,3.4,0,0,1-.6-2,5.6,5.6,0,0,1,.6-3.1,4.6,4.6,0,0,1,2-2.3,5.9,5.9,0,0,1,2.9-.2"/><path d="M287.1,169.6c-.2.1-.4-.1-.5-.3a.5.5,0,0,1,.3-.5,17.7,17.7,0,0,1,4.6-.1.4.4,0,0,1,.4.4c0,.3-.2.4-.5.4a20.5,20.5,0,0,0-4.3.1"/><path d="M288.9,165.5a.4.4,0,0,1,0,.6.3.3,0,0,1-.5,0c-.1,0,0,.1,0,.1h-.7l-1.5.9a3.5,3.5,0,0,0-1.2,2.2,2.6,2.6,0,0,0,.5,1.7,4,4,0,0,0,1.5,1.4,5.1,5.1,0,0,0,2.1.6h1.3a6.3,6.3,0,0,0,2.5-2,8.2,8.2,0,0,0,1.5-2.7,2,2,0,0,0,0-1.1c-.1-.3-.3-.5-.8-.7l-1.6-.2a4.8,4.8,0,0,0-3.2,1.1c-.2.2-.5.2-.6,0a.3.3,0,0,1,0-.5,5.1,5.1,0,0,1,3.8-1.4,5.4,5.4,0,0,1,1.9.3,1.9,1.9,0,0,1,1.3,1,3.3,3.3,0,0,1,0,1.7,9.2,9.2,0,0,1-1.7,3,5.9,5.9,0,0,1-2.9,2.3h-1.5a5.4,5.4,0,0,1-2.5-.6,5.8,5.8,0,0,1-1.8-1.7,3.8,3.8,0,0,1-.6-2.3,4.2,4.2,0,0,1,1.4-2.7,5.8,5.8,0,0,1,1.8-1.1h.8a.6.6,0,0,1,.7.1"/><path d="M13.8,184.4a.4.4,0,0,1-.2.5.4.4,0,0,1-.6-.2v-.3h0c-.1,0-.1-.1-.1-.2v-.2h.7l.5.8c.4.8.9,1.9,1.3,2.9a8.2,8.2,0,0,0,1.5,2.4c.1.1.2.4,0,.5a.5.5,0,0,1-.6.1,7.4,7.4,0,0,1-1.6-2.7l-1.4-2.9-.4-.7s.1.1,0,.1h.5l.2-.2c-.1.1,0-.1,0-.1h0c.1,0,.1.1.2.3"/><path d="M23.5,194.1a.4.4,0,0,1-.5.2c-.3-.1-.3-.3-.2-.5h-.2a1.1,1.1,0,0,0-.8-.1,2.3,2.3,0,0,0-1.2,1,.9.9,0,0,0-.1.5h.2l.8-.2c.3-.1.6-.6,1-.9s.5-.4.7-.4h.4l.4.3a1,1,0,0,1,0,.9c-.1.2-.1.5-.2.7v.6h.3l.9-.6a.3.3,0,0,1,.5.1c.2.2.1.4,0,.6l-1.2.7a.9.9,0,0,1-.9-.1.9.9,0,0,1-.4-.8c-.1-.2,0-.5,0-.8a2.5,2.5,0,0,0,.2-.7c0-.1.1-.2.1-.3h.1l-.3.2c-.4.3-.7.8-1.3,1l-1,.3h-.5c-.2-.1-.4-.1-.5-.3a.9.9,0,0,1-.1-.7,1.4,1.4,0,0,1,.2-.7,2.3,2.3,0,0,1,1.7-1.5,2.2,2.2,0,0,1,1.4.1c.1.1.3.2.4.4a.6.6,0,0,1,.1.7"/><path d="M29.3,189.6a.5.5,0,0,1-.3.5c-.2.1-.4-.1-.5-.3h.1a4.4,4.4,0,0,0-.6,1.2,10.4,10.4,0,0,0-.6,1.6,3.3,3.3,0,0,0,0,1.4,1.4,1.4,0,0,0,1.5,1.2,3,3,0,0,0,1.5-1.2c.2-.2.4-.3.6-.1s.2.3.1.5a3.8,3.8,0,0,1-2.1,1.6,2.1,2.1,0,0,1-1.7-.6,1.9,1.9,0,0,1-.7-1.2,4.8,4.8,0,0,1,0-1.7,13.9,13.9,0,0,1,.6-1.9,7.4,7.4,0,0,1,.8-1.3c.2-.2.4-.4.6-.4s.4,0,.5.2l.2.3"/><path d="M34.1,188.3c-.1.3-.3.4-.5.3a.3.3,0,0,1-.3-.5v-.3H34a4.2,4.2,0,0,1-.5,1.2c-.2.6-.5,1.4-.7,2.2a9.3,9.3,0,0,0-.3,2.7,3.4,3.4,0,0,0-.1.9h-.7c.1,0,0,.1,0,.1h0a4.4,4.4,0,0,0-.2-1,9,9,0,0,0-.5-.9l-.5-.5-.3-.3V192c0-.1.1-.2.1-.3a.6.6,0,0,1,.5-.2H31l.9.2a6.5,6.5,0,0,0,1.8.4.4.4,0,0,1,.4.4.5.5,0,0,1-.5.4,12.9,12.9,0,0,1-1.9-.4l-.8-.2h-.2s.1-.1.1,0,.1-.3.1-.3h0l.2.3c.2.1.3.3.5.6a3,3,0,0,1,.7,1.1,5.2,5.2,0,0,1,.2,1.1v.3h0c-.1.1-.1.2-.4.2s-.3-.1-.4-.1v-1.4a20.8,20.8,0,0,1,.4-3,14.3,14.3,0,0,1,.8-2.2l.5-1.3c.1-.1.1-.2.3-.2s.4,0,.5.1v.2a1.3,1.3,0,0,1-.1.6"/></g></svg>