<svg id="Ebene_1" data-name="Ebene 1" xmlns="http://www.w3.org/2000/svg" xmlns:xlink="http://www.w3.org/1999/xlink" viewBox="0 0 279.1 234.2"><defs><style>.cls-1{fill:none;}.cls-2{opacity:0;}.cls-3{clip-path:url(#clip-path);}.cls-4{fill:#00733b;}.cls-5{fill:#ed3624;}</style><clipPath id="clip-path"><rect class="cls-1" x="-70.8" y="-44.6" width="419.5" height="297.64"/></clipPath></defs><g class="cls-2"><path d="M73.5,17v-.9h1.9V8.6l-1.9.5v-1l3.2-.8v8.8h1.9V17Z"/></g><g class="cls-2"><path d="M74,52.2V33.4h2.7V52.2Z"/></g><g class="cls-2"><path d="M58.9,60.9V52.5h8.4v8.4Zm0,54.7V69.3h8.4v46.3Z"/><path d="M98,116.7c-4.3,0-7.6-1.2-10-3.7s-3.5-5.8-3.5-10.2V75.6H78.7V69.3h5.8V60.9l8.4-.8v9.2H105v6.3H92.9v25.7c0,6.1,2.6,9.1,7.8,9.1a16.8,16.8,0,0,0,4-.6v5.8A25.8,25.8,0,0,1,98,116.7Z"/></g><g class="cls-2"><path d="M15.9,115.3a2.8,2.8,0,0,1-1.5-2.3,2.5,2.5,0,0,1,.8-1.8,3.2,3.2,0,0,1,2.2-.7,3.5,3.5,0,0,1,2.1.6,1.8,1.8,0,0,1,.7,1.5,3.3,3.3,0,0,1-1.9,2.7c1.6.8,2.3,1.8,2.3,2.9a2.6,2.6,0,0,1-.9,2.1,4.1,4.1,0,0,1-2.5.8,3.6,3.6,0,0,1-2.4-.7,2.5,2.5,0,0,1-.9-2A3.4,3.4,0,0,1,15.9,115.3Zm.7.6a5.6,5.6,0,0,0-1.1,1.1,2.1,2.1,0,0,0-.3,1.2,1.9,1.9,0,0,0,2,1.9,2.5,2.5,0,0,0,1.5-.5,1.3,1.3,0,0,0,.5-1.2,1.9,1.9,0,0,0-.3-1,5.6,5.6,0,0,0-1.3-.9Zm1-1a2.6,2.6,0,0,0,1.4-2.1,1.1,1.1,0,0,0-.5-1,2.1,2.1,0,0,0-1.2-.3,2.1,2.1,0,0,0-1.2.3,1.4,1.4,0,0,0-.5,1,1.3,1.3,0,0,0,.4,1A6.1,6.1,0,0,0,17.6,114.9Z"/><path d="M24.6,115.3a2.8,2.8,0,0,1-1.5-2.3,2.3,2.3,0,0,1,.9-1.8,3.1,3.1,0,0,1,2.2-.7,3.2,3.2,0,0,1,2,.6,1.9,1.9,0,0,1,.8,1.5,3.5,3.5,0,0,1-1.9,2.7c1.5.8,2.3,1.8,2.3,2.9a2.4,2.4,0,0,1-1,2.1,3.9,3.9,0,0,1-2.5.8,3.6,3.6,0,0,1-2.4-.7,2.5,2.5,0,0,1-.9-2A3.6,3.6,0,0,1,24.6,115.3Zm.7.6a5.6,5.6,0,0,0-1.1,1.1,2.1,2.1,0,0,0-.3,1.2,2,2,0,0,0,.6,1.4,2.5,2.5,0,0,0,1.5.5,2,2,0,0,0,1.4-.5,1.5,1.5,0,0,0,.2-2.2,4,4,0,0,0-1.3-.9Zm1-1a2.5,2.5,0,0,0,1.5-2.1,1.4,1.4,0,0,0-.5-1,2.5,2.5,0,0,0-1.3-.3,2.1,2.1,0,0,0-1.2.3,1.3,1.3,0,0,0,0,2A7.3,7.3,0,0,0,26.3,114.9Z"/></g><g class="cls-2"><path d="M48.7,127.9v-1.2h2.4v-9.1l-2.4.5V117l3.9-1v10.7h2.3v1.2Z"/><path d="M59.9,121.6a3.2,3.2,0,0,1-1.7-2.7,2.9,2.9,0,0,1,.9-2.1,4.1,4.1,0,0,1,2.5-.8,3.6,3.6,0,0,1,2.4.7,2.1,2.1,0,0,1,.9,1.8c0,1.1-.8,2.1-2.2,3.1,1.7.8,2.6,1.9,2.6,3.3a2.9,2.9,0,0,1-1.1,2.4,4.3,4.3,0,0,1-2.8.9,4.1,4.1,0,0,1-2.8-.9,2.8,2.8,0,0,1-1-2.3A3.8,3.8,0,0,1,59.9,121.6Zm.8.6a7.9,7.9,0,0,0-1.3,1.3,2.5,2.5,0,0,0-.3,1.3,2.1,2.1,0,0,0,.6,1.6,2.5,2.5,0,0,0,1.7.6,2.9,2.9,0,0,0,1.7-.5,1.8,1.8,0,0,0,.6-1.4,1.5,1.5,0,0,0-.4-1.1,5.4,5.4,0,0,0-1.5-1.2Zm1.1-1.1a3,3,0,0,0,1.7-2.4,1.3,1.3,0,0,0-.6-1.1,2,2,0,0,0-1.4-.4,2.1,2.1,0,0,0-1.4.4,1.2,1.2,0,0,0-.5,1.1,1.5,1.5,0,0,0,.4,1.1A10.6,10.6,0,0,0,61.8,121.1Z"/><path d="M68.7,121.9a3.3,3.3,0,0,1,2.8-1.5,3.7,3.7,0,0,1,2.5,1,4,4,0,0,1,1,2.6,4.4,4.4,0,0,1-1.1,3,3.8,3.8,0,0,1-2.8,1.2,3.3,3.3,0,0,1-3-1.6,7.4,7.4,0,0,1-1.1-4.3,7,7,0,0,1,1.3-4.6,3.9,3.9,0,0,1,3.5-1.7,9.7,9.7,0,0,1,2.6.4v1.4a8.9,8.9,0,0,0-2.7-.7Q68.7,117.1,68.7,121.9Zm4.7,2.5a3.3,3.3,0,0,0-.6-2.1,1.9,1.9,0,0,0-1.6-.8,2.4,2.4,0,0,0-1.7.7,2,2,0,0,0-.7,1.6,3.9,3.9,0,0,0,.6,2.3,2.3,2.3,0,0,0,1.8.9,1.9,1.9,0,0,0,1.6-.7A2.9,2.9,0,0,0,73.4,124.4Z"/></g><g class="cls-2"><path d="M83.8,115.3a2.8,2.8,0,0,1-1.3-2.1,2.3,2.3,0,0,1,.7-1.8,3.5,3.5,0,0,1,2.1-.7,2.9,2.9,0,0,1,1.9.6,1.8,1.8,0,0,1,.7,1.5c0,.9-.6,1.7-1.8,2.5,1.5.7,2.2,1.6,2.2,2.7a2.3,2.3,0,0,1-.9,1.9,3.6,3.6,0,0,1-2.3.8,3.4,3.4,0,0,1-2.3-.8,2.2,2.2,0,0,1-.8-1.8A3.2,3.2,0,0,1,83.8,115.3Zm.7.5-1,1a2,2,0,0,0-.3,1.1,1.9,1.9,0,0,0,.5,1.3,2.2,2.2,0,0,0,1.4.5,2.1,2.1,0,0,0,1.4-.4,1.6,1.6,0,0,0,.5-1.1,1.7,1.7,0,0,0-.3-1l-1.3-.9Zm.9-.9c.9-.6,1.4-1.2,1.4-1.9a1.4,1.4,0,0,0-.5-1,2,2,0,0,0-1.1-.3,2.1,2.1,0,0,0-1.2.3,1.2,1.2,0,0,0-.4.9,1.3,1.3,0,0,0,.4,1Z"/><path d="M90.6,120.5v-1.2a3.9,3.9,0,0,0,1.8.4,2,2,0,0,0,1.4-.5,2,2,0,0,0,.6-1.5c0-1.5-1-2.2-3-2.2h-.6V111h4.7v1.1H91.9v2.5a4.1,4.1,0,0,1,2.8.8,3.1,3.1,0,0,1,.1,4.5,4,4,0,0,1-2.6.8Z"/></g><g class="cls-2"><path d="M123.9,116a2.6,2.6,0,0,1-1.4-2.1,2.1,2.1,0,0,1,.8-1.7,2.8,2.8,0,0,1,2.1-.7,3.1,3.1,0,0,1,1.9.6,1.9,1.9,0,0,1,.7,1.4,2.9,2.9,0,0,1-1.8,2.5c1.4.7,2.2,1.6,2.2,2.7a2.5,2.5,0,0,1-.9,2,3.6,3.6,0,0,1-2.4.7,3.2,3.2,0,0,1-2.2-.7,2.3,2.3,0,0,1-.9-1.8A3.5,3.5,0,0,1,123.9,116Zm.7.6a3.1,3.1,0,0,0-1,1,1.8,1.8,0,0,0-.3,1.1,2.1,2.1,0,0,0,.5,1.3,2.2,2.2,0,0,0,1.4.5,1.9,1.9,0,0,0,1.3-.5,1.1,1.1,0,0,0,.6-1.1,1.2,1.2,0,0,0-.4-.9l-1.2-.9Zm.9-.9a2.5,2.5,0,0,0,1.3-2,1,1,0,0,0-.4-.9,2.1,2.1,0,0,0-1.2-.3,2,2,0,0,0-1.1.3,1,1,0,0,0-.4.9,1.1,1.1,0,0,0,.4.9A6.7,6.7,0,0,0,125.5,115.7Z"/><path d="M132.1,116a2.6,2.6,0,0,1-1.4-2.1,2.1,2.1,0,0,1,.8-1.7,2.7,2.7,0,0,1,2-.7,2.9,2.9,0,0,1,1.9.6,1.6,1.6,0,0,1,.7,1.4,2.8,2.8,0,0,1-1.7,2.5q2.1,1.1,2.1,2.7a2.5,2.5,0,0,1-.9,2,3.3,3.3,0,0,1-2.3.7,3.1,3.1,0,0,1-2.2-.7,2.3,2.3,0,0,1-.9-1.8A3.3,3.3,0,0,1,132.1,116Zm.7.6a3.6,3.6,0,0,0-1.1,1,3.1,3.1,0,0,0-.2,1.1,1.7,1.7,0,0,0,.5,1.3,2,2,0,0,0,1.4.5,1.9,1.9,0,0,0,1.3-.5c.4-.2.5-.6.5-1.1a1.6,1.6,0,0,0-.3-.9l-1.2-.9Zm.9-.9a2.5,2.5,0,0,0,1.3-2,1,1,0,0,0-.4-.9,2.1,2.1,0,0,0-1.2-.3,1.8,1.8,0,0,0-1.1.3,1.1,1.1,0,0,0-.5.9,1.5,1.5,0,0,0,.4.9Z"/></g><g class="cls-2"><path d="M139.4,121.1a2.8,2.8,0,0,1-1.9.8,1.9,1.9,0,0,1-1.2-.4,1.6,1.6,0,0,1-.4-1.2,1.4,1.4,0,0,1,.8-1.4,3.7,3.7,0,0,1,2.3-.5h.2v-.8a.9.9,0,0,0-1-1,4.1,4.1,0,0,0-1.8.5v-.8a4.9,4.9,0,0,1,2-.5,2,2,0,0,1,1.4.5,1.7,1.7,0,0,1,.5,1.3v2.7c0,.6.2.9.5.9h.3v.6h-.8A.8.8,0,0,1,139.4,121.1Zm-.2-.6V119h-.3a2.6,2.6,0,0,0-1.4.3,1,1,0,0,0-.6.9,1.1,1.1,0,0,0,.9.9A2.2,2.2,0,0,0,139.2,120.5Z"/></g><g class="cls-2"><path d="M191.7,147.9v-5.1h1l1.4,3.9,1.5-3.9h.9v5.1h-.7v-4.2l-1.4,3.8h-.7l-1.4-3.8v4.2Z"/><path d="M199.9,147.4a1.5,1.5,0,0,1-1.1.5l-.8-.2a1.1,1.1,0,0,1-.3-.8,1.1,1.1,0,0,1,.5-.9,2.8,2.8,0,0,1,1.5-.3h.1v-.5a.5.5,0,0,0-.6-.6,2.7,2.7,0,0,0-1.2.3v-.6a3.2,3.2,0,0,1,1.3-.2c.4,0,.7,0,.9.2a1.2,1.2,0,0,1,.3.9v1.7c0,.4.1.6.4.6h.1v.3h-.5C200.2,147.9,200,147.8,199.9,147.4Zm-.1-.4v-.9h-.2a1.2,1.2,0,0,0-.9.3.5.5,0,0,0-.3.5c0,.2,0,.3.1.4l.5.2A1.2,1.2,0,0,0,199.8,147Z"/><path d="M202.1,147.9v-3.8h.7v.7a1.6,1.6,0,0,1,1.3-.7,1.1,1.1,0,0,1,.8.3,1,1,0,0,1,.3.8v2.7h-.7v-2.5c0-.3,0-.5-.1-.6l-.4-.2a1.7,1.7,0,0,0-1.2.8v2.5Z"/><path d="M207.8,147.9l-.8-.2a1.2,1.2,0,0,1-.3-.9v-2.2h-.4v-.5h.4v-.6h.7v.7h1v.5h-1v2.1c0,.5.2.7.6.7h.4v.5Z"/><path d="M211.5,147.4a1.6,1.6,0,0,1-1.2.5l-.8-.2a1.1,1.1,0,0,1-.3-.8,1.1,1.1,0,0,1,.5-.9,3.3,3.3,0,0,1,1.5-.3h.2v-.5c0-.4-.2-.6-.7-.6l-1.1.3v-.6a2.5,2.5,0,0,1,1.2-.2c.5,0,.8,0,1,.2a1.2,1.2,0,0,1,.3.9v1.7q0,.6.3.6h.1v.3h-.5C211.8,147.9,211.6,147.8,211.5,147.4Zm-.1-.4v-.9h-.2a1.2,1.2,0,0,0-.9.3.5.5,0,0,0-.4.5.5.5,0,0,0,.2.4l.4.2A1.2,1.2,0,0,0,211.4,147Z"/></g><g class="cls-2"><path d="M248,157.5V143h2.1v14.5Z"/><path d="M256.2,157.8a11.6,11.6,0,0,1-3.2-.6v-1.8a8.2,8.2,0,0,0,3.3.9,2.1,2.1,0,0,0,1.4-.4,1.3,1.3,0,0,0,.5-1.1c0-.7-.5-1.2-1.5-1.7l-1.1-.5c-1.7-.6-2.5-1.6-2.5-2.9a2.5,2.5,0,0,1,1-2.2,3.6,3.6,0,0,1,2.7-.8l2.2.2h.4v1.6a11.4,11.4,0,0,0-2.6-.5c-1.2,0-1.9.5-1.9,1.4s.5,1,1.5,1.4l.9.4a7,7,0,0,1,2.2,1.4,2.5,2.5,0,0,1,.7,1.9,3,3,0,0,1-1.1,2.3A4.6,4.6,0,0,1,256.2,157.8Z"/><path d="M266.3,157.8a2.9,2.9,0,0,1-3.1-3.2v-6.2h-1.3v-1.5h1.3V145l2-.2v2.1h2.7v1.5h-2.7v5.9c0,1.3.6,2,1.8,2h.9v1.3Z"/></g><g class="cls-2"><path d="M43.3,165.2a2.9,2.9,0,0,1-2.3-.9,3,3,0,0,1-.8-2.3v-6.3H38.8v-1.4h1.4v-2l1.9-.2v2.2h2.8v1.4H42.1v5.9q0,2.1,1.8,2.1h.9v1.3Z"/></g><g class="cls-2"><path d="M191.7,185V173.4h2.2l3.3,9,3.3-9h2V185H201v-9.4l-3.2,8.6h-1.6l-3.1-8.6V185Z"/><path d="M207.9,185V174.7h-4.1v-1.3h9.9v1.3h-4.1V185Z"/></g><g class="cls-2"><path d="M247.1,189V175.2H249V189Z"/><path d="M257.4,187.7a4.9,4.9,0,0,1-3.2,1.5,3.2,3.2,0,0,1-2.1-.8,2.8,2.8,0,0,1-.8-2,2.7,2.7,0,0,1,1.4-2.5,7.2,7.2,0,0,1,4-.9h.4v-1.2a1.6,1.6,0,0,0-1.8-1.8,6.4,6.4,0,0,0-3.1.9v-1.5a8.8,8.8,0,0,1,3.4-.8,3.4,3.4,0,0,1,2.5.8,2.9,2.9,0,0,1,.8,2.4v4.6c0,1,.4,1.5,1,1.5h.4v1a3.2,3.2,0,0,1-1.4.3A1.6,1.6,0,0,1,257.4,187.7Zm-.3-1v-2.6h-.6a4.9,4.9,0,0,0-2.5.5,1.8,1.8,0,0,0-.9,1.5,1.4,1.4,0,0,0,.5,1.1,1.6,1.6,0,0,0,1.1.5A3.6,3.6,0,0,0,257.1,186.7Z"/><path d="M264.9,189.2a9.9,9.9,0,0,1-3-.6v-1.7a7.1,7.1,0,0,0,3.1.9,1.8,1.8,0,0,0,1.3-.4,1.2,1.2,0,0,0,.5-1.1c0-.6-.5-1.1-1.4-1.5l-1.1-.5c-1.6-.6-2.4-1.6-2.4-2.8a2.4,2.4,0,0,1,1-2.1,3.7,3.7,0,0,1,2.5-.8l2.1.3h.4v1.6a9.3,9.3,0,0,0-2.4-.5c-1.2,0-1.8.4-1.8,1.3s.4,1,1.3,1.4l.9.4a5.1,5.1,0,0,1,2.1,1.3,2.4,2.4,0,0,1,.7,1.8,2.6,2.6,0,0,1-1.1,2.1A4,4,0,0,1,264.9,189.2Z"/><path d="M274.5,189.2a2.8,2.8,0,0,1-3-3v-6h-1.2v-1.3h1.2V177l1.9-.2v2.1H276v1.3h-2.6v5.6c0,1.4.5,2,1.7,2h.9V189Z"/></g><g class="cls-2"><path d="M-.9,238.6v-1.2a6.5,6.5,0,0,0,2.3.6,2.3,2.3,0,0,0,1.6-.6,2,2,0,0,0,.6-1.5q0-2.1-3-2.1H0v-.9H.5c1.9,0,2.8-.7,2.8-2s-.6-1.6-1.8-1.6a5.6,5.6,0,0,0-2.3.6v-1.2a10,10,0,0,1,2.4-.4c2,0,3.1.8,3.1,2.4s-.7,2-2.1,2.5q2.4.6,2.4,2.7a3,3,0,0,1-.9,2.3,4.2,4.2,0,0,1-2.6.8A8,8,0,0,1-.9,238.6Z"/><path d="M8.5,238.7v-1h2.1v-8l-2.1.5v-1l3.4-.9v9.4h2v1Z"/></g><g class="cls-3"><path d="M67.2,47.9a.4.4,0,0,1,.4-.4.4.4,0,0,1,.4.4V95.4c0,.3-.1.5-.4.5a.5.5,0,0,1-.4-.5Z"/><path d="M67.6,48.3a.4.4,0,0,1-.4-.4.4.4,0,0,1,.4-.4H83.5a.4.4,0,0,1,.4.4.4.4,0,0,1-.4.4Z"/><path d="M83.1,47.9a.4.4,0,0,1,.4-.4.4.4,0,0,1,.4.4V95.4a.5.5,0,0,1-.4.5c-.3,0-.4-.2-.4-.5Z"/><path d="M67.6,95.9a.5.5,0,0,1-.4-.5.4.4,0,0,1,.4-.4H83.5a.4.4,0,0,1,.4.4.5.5,0,0,1-.4.5Z"/><path d="M67.9,79.9c-.1.2-.4.2-.6,0a.6.6,0,0,1,0-.6L83.2,63.5c.1-.2.4-.2.6,0a.6.6,0,0,1,0,.6Z"/><path d="M52.8,72.1c0,.3-.2.4-.5.4a.4.4,0,0,1-.4-.4h0a.4.4,0,0,1,.4-.4.5.5,0,0,1,.5.4h0"/><path d="M51.8,72.4a.4.4,0,1,1,0-.8H67.6a.4.4,0,0,1,0,.8Z"/><path d="M83.5,72.3a.4.4,0,0,1,0-.8H99.3a.4.4,0,1,1,0,.8Z"/><path d="M51.4,72a.4.4,0,0,1,.8,0v39.3a.4.4,0,1,1-.8,0Z"/><path d="M98.9,71.5a.4.4,0,1,1,.8,0v39.8a.4.4,0,0,1-.8,0Z"/><path d="M74.8,16.4c0-.2.2-.3.5-.3a.5.5,0,0,1,.3.5,20.6,20.6,0,0,0-.5,3.9,5.4,5.4,0,0,0,0,1.8,1.3,1.3,0,0,0,.3.9c.2.1.2.4.1.6a.6.6,0,0,1-.6.1,2,2,0,0,1-.6-1.5,12.7,12.7,0,0,1-.1-2,31.3,31.3,0,0,1,.6-4"/><path d="M74.5,25.7a.4.4,0,0,1,.5-.2.5.5,0,0,1,.3.5,9,9,0,0,0-.2,2.6c0,.7-.1,1.4-.1,2a1.8,1.8,0,0,0,.6,1.3c.2.1.2.4.1.6a.4.4,0,0,1-.6,0,2.6,2.6,0,0,1-.9-1.8V28.6a8.6,8.6,0,0,1,.3-2.9"/><path d="M74.7,34.6a.5.5,0,0,1,.6-.2.5.5,0,0,1,.1.6s.1-.1,0-.1h.1v.2a3.4,3.4,0,0,1-.1.9v2.7c0,.4.1.7.1,1v.2c0,.1-.1,0,0,0a.5.5,0,0,1,.1.6c-.1.2-.3.3-.5.1s-.4-.5-.5-.8a3.7,3.7,0,0,1-.1-1.1V34.8h.1m.8.8a.4.4,0,0,1-.8,0v-.5h0a.7.7,0,0,1,.1-.6.5.5,0,0,1,.6.2h.1v.7"/><path d="M74.9,41.5a.4.4,0,1,1,.6.6h0v2.6c0,.7-.1,1.3-.1,1.6v.2h0s-.2-.2-.2-.1h-.1s-.2.1-.1.1-.1,0-.1,0H75c.1-.2.3-.3.5-.1a.4.4,0,0,1,.2.5l-.2.3a.6.6,0,0,1-.6.1.5.5,0,0,1-.3-.4v-.3c0-.4.1-.9.1-1.6s-.1-1.2-.1-1.8a1.9,1.9,0,0,1,.3-1.3"/><path d="M74.4,44.1a.4.4,0,0,1,.8,0h0v3h-.1c.1,0-.1-.1-.1-.1h-.1c.1,0-.2.1-.1,0h-.1c0-.1,0-.1.1-.3s.4-.2.6-.1a.4.4,0,0,1,.2.5c-.2.2-.2.4-.4.5a.4.4,0,0,1-.5.1c-.2-.1-.2-.2-.2-.3s-.1-.6-.1-.9V44.2h0m.8,0a.4.4,0,0,1-.8,0,.4.4,0,0,1,.8,0"/><path d="M36.4,111.3a.4.4,0,0,1-.4.4.5.5,0,0,1-.5-.4V8.7a.5.5,0,0,1,.5-.4.4.4,0,0,1,.4.4Z"/><path d="M115.6,111.3a.4.4,0,0,1-.4.4.5.5,0,0,1-.5-.4V11a.5.5,0,0,1,.5-.4.4.4,0,0,1,.4.4Z"/><path d="M36,9.1a.5.5,0,0,1-.5-.4.5.5,0,0,1,.5-.4H67.6a.4.4,0,1,1,0,.8Z"/><path d="M83.5,9.6a.4.4,0,0,1,0-.8h31.7a.4.4,0,1,1,0,.8Z"/><path d="M114.1,9.6a.4.4,0,0,1,.4-.4.5.5,0,0,1,.4.5h0v.5h-.1c.2.1.2.4.1.6s-.4.2-.6,0-.1-.2-.1-.3h-.1a.6.6,0,0,0,.1-.4.7.7,0,0,1,0-.5h.8v1.2h0l-.8.2c-.1-.2,0-.3,0-.4a.6.6,0,0,1,.1-.4,1.5,1.5,0,0,1,.1-.7l.7.3v1h0a.5.5,0,0,1,.2.6c-.1.2-.4.2-.6.1a1,1,0,0,1-.4-.5v-.6a2.2,2.2,0,0,1,.1-.9c0-.2.3-.3.5-.3a.4.4,0,0,1,.2.6h.1c-.1.1-.1.4-.1.6s-.1.3-.1.5h0c0,.2-.1.5-.3.5a.3.3,0,0,1-.5-.3c-.1-.3,0-.4,0-.7V9.4a.3.3,0,0,1,.3-.5.5.5,0,0,1,.5.4v1h-.2l-.5.6c-.3-.2-.1-.2-.2-.3h0V9.7h0m.8.1a.4.4,0,0,1-.4.4.4.4,0,0,1-.4-.4h0c-.1-.2,0-.5.2-.5a.4.4,0,0,1,.6.2h0"/><path d="M54.6,114.2a2.8,2.8,0,0,0-.4-1.3,2.4,2.4,0,0,0-2.1-1.2,2.4,2.4,0,0,0-2.5,2.5,2.4,2.4,0,0,0,.3,1.2,2.6,2.6,0,0,0,2.2,1.3,2.5,2.5,0,0,0,1.2-.4,2.3,2.3,0,0,0,1.3-2.1m.8,0a3.2,3.2,0,0,1-1.7,2.8,2.8,2.8,0,0,1-1.6.5,3.4,3.4,0,0,1-2.9-1.7,2.7,2.7,0,0,1-.4-1.6,3.4,3.4,0,0,1,1.6-2.9,3.3,3.3,0,0,1,1.7-.4,3.1,3.1,0,0,1,2.8,1.6,3.4,3.4,0,0,1,.5,1.7"/><path d="M102,114.2a2.5,2.5,0,1,0-5,0,1.7,1.7,0,0,0,.4,1.2,2.3,2.3,0,0,0,2.1,1.3,2,2,0,0,0,1.3-.4,2.4,2.4,0,0,0,1.2-2.1m.8,0a3.1,3.1,0,0,1-1.6,2.8,3.4,3.4,0,0,1-1.7.5,3.6,3.6,0,0,1-2.9-1.6,4.7,4.7,0,0,1-.4-1.7,3.6,3.6,0,0,1,1.6-2.9,3.3,3.3,0,0,1,1.7-.4,3.4,3.4,0,0,1,2.9,1.6,4.7,4.7,0,0,1,.4,1.7"/><path d="M117.7,114.2a2.4,2.4,0,0,0-2.5-2.5,2.4,2.4,0,0,0-1.2.3,2.6,2.6,0,0,0-1.3,2.2,2.5,2.5,0,0,0,.4,1.2,2.3,2.3,0,0,0,2.1,1.3,2,2,0,0,0,1.3-.4,2.4,2.4,0,0,0,1.2-2.1m.8,0a3.1,3.1,0,0,1-1.6,2.8,3.4,3.4,0,0,1-1.7.5,3.3,3.3,0,0,1-2.8-1.6,3.4,3.4,0,0,1-.5-1.7,3.4,3.4,0,0,1,1.7-2.9,2.7,2.7,0,0,1,1.6-.4,3.4,3.4,0,0,1,2.9,1.6,3.3,3.3,0,0,1,.4,1.7"/><path d="M38.8,114.2a2,2,0,0,0-.4-1.3,2.4,2.4,0,0,0-2.1-1.2,2.4,2.4,0,0,0-2.5,2.5,2.4,2.4,0,0,0,.3,1.2,2.6,2.6,0,0,0,2.2,1.3,2.1,2.1,0,0,0,1.2-.4,2.3,2.3,0,0,0,1.3-2.1m.8,0A3.3,3.3,0,0,1,38,117a3.4,3.4,0,0,1-1.7.5,3.4,3.4,0,0,1-2.9-1.7,2.9,2.9,0,0,1-.4-1.6,3.4,3.4,0,0,1,1.6-2.9,3.3,3.3,0,0,1,1.7-.4,3.4,3.4,0,0,1,2.9,1.6,4.7,4.7,0,0,1,.4,1.7"/><path d="M67.8,9.5c-.2.1-.4.1-.5-.1s-.1-.5.1-.6L83.3.1c.2-.2.4-.1.5.1s.1.5-.1.6Z"/><path d="M74.3,6.5a.4.4,0,0,1,.2-.5.5.5,0,0,1,.6.2,5.6,5.6,0,0,1,.1,2.9,8.7,8.7,0,0,0,0,2.8c.1.3,0,.5-.2.5s-.5,0-.5-.2A8.6,8.6,0,0,1,74.4,9a5,5,0,0,0-.1-2.5"/><path d="M50.8,117.9c0-.3.3-.4.5-.4s.4.3.3.5h0v.5c.1,1.2.3,2.9.3,4.5v2.1a10.9,10.9,0,0,1-.1,1.8c0,.2-.1.4-.1.6s0,.2-.2.5a.5.5,0,0,1-.6,0c-.1-.1-.2-.4,0-.5h-.1a7.4,7.4,0,0,0,.3-2.4V123c0-1.5-.2-3.2-.3-4.5V118h0m.8.1a.4.4,0,0,1-.4.4.4.4,0,0,1-.4-.4h0a.5.5,0,0,1,.4-.5.4.4,0,0,1,.4.4h0"/><path d="M45.6,129.5a.6.6,0,0,1,.3-.6.5.5,0,0,1,.5.3l5.8,16.4c.1.2-.1.4-.3.5a.4.4,0,0,1-.5-.2Z"/><path d="M36,152.2a.5.5,0,0,1-.5-.4c0-.3.2-.4.5-.4H51.8a.4.4,0,0,1,.4.4.4.4,0,0,1-.4.4Z"/><path d="M35.5,120.1a.5.5,0,0,1,.5-.4.4.4,0,0,1,.4.4v31.7a.4.4,0,0,1-.4.4.5.5,0,0,1-.5-.4Z"/><path d="M35.9,117.8c.1-.2.3-.4.5-.3a.5.5,0,0,1,.3.5,7.6,7.6,0,0,0-.1,1.6,2.8,2.8,0,0,1-.1.9,5.5,5.5,0,0,1-.1.9h0v-.2h-.2c.1.1-.2,0-.2,0s-.1.1-.1.1h0l.3-.5a.5.5,0,0,1,.6-.2c.2.1.2.4.1.6l-.4.6c-.1.1-.2.3-.5.2a.4.4,0,0,1-.3-.2v-.2c-.1-.4.1-.7.1-1.1s.1-.5.1-.8a5.6,5.6,0,0,1,.1-1.8"/><path d="M51.6,149.6a.4.4,0,0,1,0-.8h0a.4.4,0,0,1,0,.8h0"/><path d="M51.4,149a.4.4,0,0,1,.6-.1c.2.1.2.4,0,.6h.1a1.1,1.1,0,0,1-.3.8.3.3,0,0,1-.5,0,.3.3,0,0,1-.1-.5v-.2a.5.5,0,0,1,.1-.5"/><path d="M51.5,152.1c-.2-.2-.2-.5,0-.6a.4.4,0,0,1,.6,0,.6.6,0,0,1,0,.6h-.6"/><path d="M51.6,146a.5.5,0,0,1,.3-.5c.2,0,.5.1.5.3h0v6h-.1c.1,0-.1-.2,0-.2s-.1-.1-.1,0h-.3s-.2.1-.2,0-.1.2-.1.1,0,.1,0,.1h0a5.8,5.8,0,0,1,.2-1,.4.4,0,0,1,.4-.4.5.5,0,0,1,.4.5,5.6,5.6,0,0,1-.2,1v.4s0,.2-.4.2l-.3-.2h0v-.4c0-.2.1-.4.1-.6V146h0m.8,0a.4.4,0,0,1-.4.4c-.3,0-.4-.2-.4-.5h0c0-.2.3-.3.5-.3a.5.5,0,0,1,.3.5h0"/><path d="M35.2,150.3a.4.4,0,0,1,.4-.4c.3,0,.4.2.4.5s.2,2.9.3,4.3v2.5a8.7,8.7,0,0,0,.1,2c0,.2-.1.5-.3.5a.4.4,0,0,1-.5-.2,3.1,3.1,0,0,1-.1-1v-1.3a20.9,20.9,0,0,0-.1-2.5c0-1.3-.2-2.7-.2-4.4"/><path d="M36.6,150.9c-.2.1-.4,0-.5-.3a.5.5,0,0,1,.3-.5h-.1c0-.1-.1.2-.1.1h.1c-.1,0,0,.1,0,0h-.5l-.5.4a1.4,1.4,0,0,0-.1,1.1l.2.3h.9v-.2h0l-.2-.2-.8-.2h-.4v.5a.5.5,0,0,0,.3.4,1.1,1.1,0,0,0,.8.3,1.6,1.6,0,0,0,1.2-.6,1.6,1.6,0,0,0,.3-.9v-.4H36l-.3.4a2.2,2.2,0,0,0,0,.8.7.7,0,0,0,.5.4l.5-.3v-.3a.3.3,0,0,0-.1-.2h0a1.6,1.6,0,0,0-.5.6.4.4,0,0,1-.5.2.5.5,0,0,1-.2-.6c.3-.5.5-.8.8-.9h.6l.4.2a1.2,1.2,0,0,1,0,1.6,1.4,1.4,0,0,1-1.3.6,1.3,1.3,0,0,1-1-1,1.7,1.7,0,0,1-.1-1.2,1.2,1.2,0,0,1,.8-.9,2.5,2.5,0,0,1,1.2-.2l.7.2a.7.7,0,0,1,.4.5.9.9,0,0,1,.1.7,2.7,2.7,0,0,1-.4,1.4,2.2,2.2,0,0,1-2,.9,2.1,2.1,0,0,1-1.1-.4,1.2,1.2,0,0,1-.7-1.1,1.4,1.4,0,0,1,.2-.6c.1-.3.2-.5.5-.6h.6a2.1,2.1,0,0,1,1.2.3l.5.3a.9.9,0,0,1,.3.7,4.3,4.3,0,0,0-.1.5,1,1,0,0,1-.4.5,1,1,0,0,1-.9.1L35,153a1.3,1.3,0,0,1-.6-.7,1.9,1.9,0,0,1,.2-1.8,2.3,2.3,0,0,1,1.1-.8,1,1,0,0,1,.9.1l.4.4a.4.4,0,0,1,0,.5l-.4.2"/><path d="M31.6,159.2a.4.4,0,1,1,0,.8h-.3c-.1-.1-.1-.1-.1-.2l-.2-.3a.6.6,0,0,1,0-.6l.4-.3a1.4,1.4,0,0,1,1.1,0,15.1,15.1,0,0,0,3.1.2,16.2,16.2,0,0,1,2.2-.1,4.2,4.2,0,0,1,1.2.7.7.7,0,0,0,.8,0,.5.5,0,0,1,.6.2c0,.2-.1.5-.3.5a1.6,1.6,0,0,1-1.5,0l-.9-.6a9,9,0,0,0-2.1.2l-3.3-.3h-.6a.3.3,0,0,1,.1.2h0s-.1-.1,0-.1h-.2m-.4.3a.4.4,0,0,1,.5-.3.5.5,0,0,1,.3.5h-.1c0,.2-.3.3-.5.2a.5.5,0,0,1-.2-.6h0"/><path d="M30.7,158.9a.4.4,0,0,1,.8,0v24.6a.4.4,0,0,1-.8,0Z"/><path d="M31.3,183.9a.4.4,0,0,1-.4-.4c0-.3.1-.5.4-.5h9.8a.5.5,0,0,1,.5.5.5.5,0,0,1-.5.4Z"/><path d="M40.7,158.9a.4.4,0,0,1,.4-.4.5.5,0,0,1,.5.4v24.6a.5.5,0,0,1-.5.4.4.4,0,0,1-.4-.4Z"/><path d="M40.5,158.8a.7.7,0,0,1,.6.1.5.5,0,0,1-.2.6h-.2a.7.7,0,0,0-.5.4h-.6a.4.4,0,0,1,0-.6l.6-.5.2-.2h.1m.7.5a.3.3,0,0,1,.5.3.5.5,0,0,1-.4.5h-1a28.5,28.5,0,0,1-4.2.4H32.7l-.6-.4c0-.1-.1-.2-.1-.3s0-.2.1-.2.1-.2.2-.3l.5-.3a9.7,9.7,0,0,1,3.8-.4l2,.2h2.2l.3.2a.5.5,0,0,1-.2.6c-.2.1-.4.1-.5-.1H38.5l-2-.2a8.4,8.4,0,0,0-3.3.3l-.4.2h0c0,.1-.1-.3,0-.2h3.3c1.3,0,2.8-.3,4.1-.4h1m-9.5-.8a.4.4,0,0,1,.5-.2.4.4,0,0,1,.3.5h0v-.2H33c1.2-.1,2.5.1,3.5.1a16.7,16.7,0,0,1,2.6.6H40c.2-.1.4,0,.6,0h.3c.1,0,0,.1,0,.1h0a.3.3,0,0,1,.5-.3c.2,0,.3.3.3.5s-.2.3-.3.3H39c-1-.1-1.8-.6-2.5-.6s-2.3-.2-3.5-.1h-.8c-.1-.1-.3-.1-.4-.3a1.3,1.3,0,0,1-.1-.6"/><path d="M35.5,159.6a.5.5,0,0,1,.5-.4.4.4,0,0,1,.4.4v39.7a.4.4,0,0,1-.4.4.5.5,0,0,1-.5-.4Z"/><path d="M25.2,199.4a.5.5,0,0,1-.4-.5.4.4,0,0,1,.4-.4H46.9a.4.4,0,0,1,.4.4.5.5,0,0,1-.4.5Z"/><path d="M28.8,204.1a.4.4,0,1,1,.8,0v.4a.4.4,0,1,1-.8,0v-.4"/><path d="M29.1,204.1a.4.4,0,0,1-.4-.4.4.4,0,0,1,.4-.4H42.6a.4.4,0,0,1,.4.4.4.4,0,0,1-.4.4Z"/><path d="M35.5,203.7a.5.5,0,0,1,.5-.4.4.4,0,0,1,.4.4V231a.4.4,0,0,1-.4.4.5.5,0,0,1-.5-.4Z"/><path d="M20.1,231.4a.4.4,0,0,1-.4-.4.4.4,0,0,1,.4-.4H194.4a.4.4,0,0,1,.4.4.4.4,0,0,1-.4.4Z"/><path d="M36.2,232c.1.2,0,.5-.2.5a.4.4,0,0,1-.6-.2v-.2h.1c0-.2.1-.3.2-.5H36a.2.2,0,0,1,.4.1.4.4,0,0,1-.5.5H36c-.1,0,.3,0,.2.1h.2c-.1.1-.1.3-.2.4s.1-.1,0-.1h0m.3-1a.4.4,0,0,1-.5.2c-.2-.2-.3-.4-.1-.6h-.1v-.2h-.3c-.1,0-.3.3-.4.7a2.5,2.5,0,0,0-.2,1.2c0,.2.1.3.2.3a.6.6,0,0,0,.6.1c.2,0,.5-.3.6-.6s.1-.3,0-.4-.2-.3-.3-.4h-.1l-.2.2a1.5,1.5,0,0,0-.3.7,1.1,1.1,0,0,0,0,1h.4c.2,0,.5-.4.7-.9a8,8,0,0,0,.3-1.5c0-.4.1-.6,0-.7v-.2h-.4l-.3.3a1.9,1.9,0,0,0-.2.7,2,2,0,0,0-.1.7l.3.4H36a.9.9,0,0,0,.7-.9,1.1,1.1,0,0,0,.1-.5v-.2h-.4c-.1,0-.3.4-.5.8v.5s-.1-.1,0-.1h-.2v-.2H36l.8.2a1.6,1.6,0,0,1-.5.8.3.3,0,0,1-.1.2h-.3a.5.5,0,0,1-.5-.4.4.4,0,0,1,.4-.4c0-.1-.2,0-.2,0s0,.1,0,0h.1l.3-.5a.5.5,0,0,1,.5-.3c.2.1.4.3.3.5s-.1.2-.1.3l-.3.3-.2.2-.5.2-.4-.2a.5.5,0,0,1-.2-.4,1.2,1.2,0,0,1,.1-.8,1.8,1.8,0,0,1,.9-1.4h.6a.7.7,0,0,1,.6.2,1.1,1.1,0,0,1,.3.7v.7a1.7,1.7,0,0,1-.6,1.1,1.8,1.8,0,0,1-.7.5h-.4a.6.6,0,0,1-.5-.2,2.4,2.4,0,0,1-.6-.8,3.1,3.1,0,0,1,.1-1,1.7,1.7,0,0,1,.3-1,1.4,1.4,0,0,1,.7-.6h.9a1,1,0,0,1,.7.7,1.4,1.4,0,0,1,0,.9,5.3,5.3,0,0,1-.4,1.8A2,2,0,0,1,36,234h-.7l-.7-.4a2.2,2.2,0,0,1-.1-1.8,2.6,2.6,0,0,1,.5-.9l.4-.4H36a1.3,1.3,0,0,1,1,1.1,1.1,1.1,0,0,1,0,.8,1.7,1.7,0,0,1-1.2,1.1,1.9,1.9,0,0,1-1.3-.2,1.2,1.2,0,0,1-.5-1,4.1,4.1,0,0,1,.2-1.5,1.6,1.6,0,0,1,.9-1.2h.6a.9.9,0,0,1,.6.3.6.6,0,0,1,.3.6.5.5,0,0,1-.1.6"/><path d="M.5,227.6a.4.4,0,0,1,.1-.6c.2-.1.4-.1.5.1s-.1-.1,0-.1h.3a3.5,3.5,0,0,1,1.1-.3,2.2,2.2,0,0,1,2,.3.9.9,0,0,1,.6.6,1.9,1.9,0,0,1,.2.8c0,.5-.5.9-.7,1.1l-.6.4-.2.2s0,.2.3.4l.7.7.5.4c.1.2.3.3.3.7a.6.6,0,0,1-.1.4l-.2.3-.7.3-1.8.5-1.6.3H.4c-.1,0-.2,0-.3-.2a.6.6,0,0,1-.1-.4l.3-.4a.5.5,0,0,1,.6,0,.6.6,0,0,1,0,.6.1.1,0,0,0-.1.1h0s-.1-.3,0-.2H.6c.1,0,0-.1,0-.1h.5l1.6-.3,1.6-.5.5-.2h0l-.2-.3-.3-.3a2.7,2.7,0,0,1-.8-.7,1.5,1.5,0,0,1-.6-1.1,1.1,1.1,0,0,1,.7-.8l.4-.3a1.1,1.1,0,0,0,.4-.5v-.5l-.3-.3a1.6,1.6,0,0,0-1.4-.1,3.5,3.5,0,0,0-1.1.3H.8l-.3-.2"/><path d="M8,231.9a.4.4,0,0,1-.2.5c-.2.1-.5,0-.5-.2s.1-1,.3-1.5a9.5,9.5,0,0,1,1-1.7,2.6,2.6,0,0,1,1.3-1.1.8.8,0,0,1,.7.1c.2.2.3.3.3.5a5,5,0,0,1,.3,1.3,21,21,0,0,1-.1,2.7c0,.2-.2.3-.4.3a.4.4,0,0,1-.4-.4,10.4,10.4,0,0,0,0-2.5,3.1,3.1,0,0,0-.1-1.1v-.2h.1a1.7,1.7,0,0,0-.9.7,6.5,6.5,0,0,0-.9,1.6,3.6,3.6,0,0,0-.3.7v.2H8"/><path d="M20.8,168.3c-.1.2-.3.3-.5.1a.4.4,0,0,1-.2-.5c.3-.4.3-.6.7-.8s.4,0,.5.2a.4.4,0,0,1,.1.3v.3l-.8,2.3-.8,2.6-.2.6h0l-.2-.2H19c.2-.2.4-.3.6-.1s.2.3.1.5,0,.3-.4.3-.4-.2-.5-.3v-.2a4.5,4.5,0,0,1,.2-.8l.9-2.7.7-2.1v-.2h0s.1.2,0,.1h.6c-.1,0-.2.1-.4.4"/><path d="M18.5,167.8a.5.5,0,0,1-.6.2c-.2-.1-.2-.4-.1-.6s.4-.3.6-.4l.9-.2h2.2a19,19,0,0,0,3.7-.1.6.6,0,0,1,.6.3c0,.2-.1.5-.3.5H19.3l-.6.2h-.2"/><path d="M18.2,170.8a.4.4,0,0,1,.4.4.4.4,0,0,1-.4.4h-.3l-.2-.2a.4.4,0,0,1-.1-.3c0-.2.1-.3.2-.3s.1-.1.2-.2a6.4,6.4,0,0,1,2.6-.3h3.1a.4.4,0,0,1,.4.4c0,.2-.1.4-.3.4-1.9.1-4.8-.1-5.4.2h0c0,.1-.1-.3,0-.2l-.2-.2h0"/><path d="M17.4,110.4a.3.3,0,0,1-.1.5c-.2.2-.4.1-.6,0s0-.1-.1-.2h.5s.2-.2.1-.2.1-.2.1-.1h0a2.7,2.7,0,0,0,.4.7,13.5,13.5,0,0,1,1.9,3.3,4.9,4.9,0,0,1-.1,1.2,2,2,0,0,1-.8,1,1.8,1.8,0,0,1-1.6-.1,1.9,1.9,0,0,1-.7-1.5,2.3,2.3,0,0,1,.1-.7,3.3,3.3,0,0,1,1.7-1.8,18.9,18.9,0,0,0,1.9-1.4c.2-.2.4-.3.4-.5s.1-.2,0-.2a.5.5,0,0,0-.3-.4l-.8-.2a1.1,1.1,0,0,0-.8.3,1.9,1.9,0,0,0-.4,1,.4.4,0,0,1-.4.4.5.5,0,0,1-.4-.5,2.4,2.4,0,0,1,.7-1.5,2.1,2.1,0,0,1,1.3-.5,2.7,2.7,0,0,1,1.2.3,1.4,1.4,0,0,1,.8.9,2.2,2.2,0,0,1-.1.8c-.2.2-.3.5-.6.7a12.7,12.7,0,0,1-2.1,1.5c-.7.4-1.3.9-1.4,1.3a2,2,0,0,1,.1.5.9.9,0,0,0,.2.8h.8c.2,0,.3-.2.4-.4a2.8,2.8,0,0,0,.1-.9,12.5,12.5,0,0,0-1.8-3c-.2-.3-.4-.5-.4-.7v-.2s-.1-.1,0-.3l.4-.2h.2l.3.3"/><path d="M24.8,109.1c.1.2.1.5-.1.6a.5.5,0,0,1-.6-.1h.3a2.2,2.2,0,0,0-.1.6,5.3,5.3,0,0,0,.4,2.4,5,5,0,0,0,.5,1.3,3.2,3.2,0,0,1,.1,1.4c-.1.5-.6.7-1,.8a1.1,1.1,0,0,1-.8-.1l-.6-.5a2.5,2.5,0,0,1,0-3,10.9,10.9,0,0,1,2.6-2.1l.9-.9c.2-.2.2-.3.2-.4h-.2l-.8.3a6.4,6.4,0,0,0-1.6,1.1.3.3,0,0,1-.5.1.5.5,0,0,1-.1-.6,5,5,0,0,1,1.9-1.3l1-.4a1.5,1.5,0,0,1,.9.2c.1,0,.2.2.2.3s.1.3,0,.4a1.5,1.5,0,0,1-.3.7L26,111a19.8,19.8,0,0,0-2.5,2,2.2,2.2,0,0,0-.3,1,1.5,1.5,0,0,0,.3,1c.1.2.3.2.4.3h.2a.4.4,0,0,0,.4-.3c.1-.1,0-.5-.1-.8a11.2,11.2,0,0,0-.5-1.3,6.8,6.8,0,0,1-.4-2.8,1.7,1.7,0,0,1,.3-1v-.2h.4a.9.9,0,0,1,.5.3"/><path d="M61.9,112c-.2.1-.5,0-.5-.2s0-.5.2-.5h.5l.2.3a1,1,0,0,1,.4.5,4.4,4.4,0,0,1,1,2.6,3.6,3.6,0,0,1-.4.9,1.5,1.5,0,0,1-.9.4l-1-.2a2,2,0,0,1-.7-1,1.2,1.2,0,0,1,.3-1.2,2.7,2.7,0,0,1,1.6-.6,2.7,2.7,0,0,0,1.7-1.4c.1-.1.1-.2.1-.4s-.4-.6-.7-.6h-.3c-.1,0-.2.2-.3.5a.5.5,0,0,1-.5.3c-.3-.1-.4-.3-.3-.5a1.3,1.3,0,0,1,.7-1,1.1,1.1,0,0,1,1-.1,1.6,1.6,0,0,1,1.2,1.3,2.8,2.8,0,0,1-.1.9,3.9,3.9,0,0,1-2.3,1.8l-1.2.4a.4.4,0,0,0-.1.3l.3.6h.6l.3-.2c.1-.1.1-.2.1-.4a3.7,3.7,0,0,0-.7-2l-.4-.5h.2"/><path d="M70.3,108.9a.4.4,0,0,1-.2.5.5.5,0,0,1-.6-.2h.2a4.9,4.9,0,0,0-.8,1,9.9,9.9,0,0,0-1.1,1.7,5.3,5.3,0,0,0-.7,2.5,1.3,1.3,0,0,0,.1.6l.3.3a2.1,2.1,0,0,0,1.3-.2,1,1,0,0,0,.4-.5l.2-.3h0s.1.1,0,.1h-.1l-1,.2c-.3.1-.6.4-1.1.3a.4.4,0,0,1-.4-.4.5.5,0,0,1,.5-.4l.8-.3,1-.2h.8l.3.3c.1.2,0,.4,0,.6a.5.5,0,0,0-.2.4c-.2.2-.4.6-.8.8a2.3,2.3,0,0,1-2,.2,1.3,1.3,0,0,1-.7-.6,1.4,1.4,0,0,1-.2-1.1,5.5,5.5,0,0,1,.8-2.8,9.9,9.9,0,0,1,1.1-1.7,4.1,4.1,0,0,1,.9-1.2.5.5,0,0,1,.5-.3H70l.3.3"/><path d="M85.4,110.6a.5.5,0,0,1-.1.6.5.5,0,0,1-.6-.2H85c0,.1.1-.1.1,0h.1a.4.4,0,0,0-.1.3,4.3,4.3,0,0,0,.2,1.1,1.8,1.8,0,0,0,.6.9l.3.5a1.4,1.4,0,0,1,.2,1.1.9.9,0,0,1-.5.7l-.7.2h-.8a1.6,1.6,0,0,1-.9-.9.9.9,0,0,1,.1-1,4.7,4.7,0,0,1,.6-.9l1.9-1.5.9-1,.3-.3h0v.2c0-.1.1,0,.1,0H87l-.6.2a1.5,1.5,0,0,0-.5.9.3.3,0,0,1-.5.3c-.2,0-.3-.2-.3-.5a2.4,2.4,0,0,1,.8-1.3,1.5,1.5,0,0,1,1.1-.4h.7q.1,0,.3.3c.2.2.1.5,0,.7l-.3.5L86.6,112l-1.8,1.5-.5.7a.4.4,0,0,0-.1.3c.1.2.3.3.4.4h1a1.3,1.3,0,0,0-.1-.6l-.3-.4a3.5,3.5,0,0,1-.7-1.1,7.8,7.8,0,0,1-.2-1.4,1.2,1.2,0,0,1,.2-.8h.6l.3.3"/><path d="M90.8,111c.1.2,0,.5-.2.5s-.5,0-.5-.2h0l-.3.2-.3.8a1.1,1.1,0,0,0,.3.8l.8.4a.8.8,0,0,1,.5.5,1,1,0,0,1,0,.9l-.6.7a2.9,2.9,0,0,1-1,.3,1.9,1.9,0,0,1-1-.3c-.1-.2-.2-.5,0-.6a.4.4,0,0,1,.6,0h.4l.5-.2.4-.4h0s0-.1-.2-.2a3,3,0,0,1-1.1-.6,1.6,1.6,0,0,1-.4-1.4,2.6,2.6,0,0,1,.5-1.2,1,1,0,0,1,.8-.5.4.4,0,0,1,.5.1c.2.1.3.2.3.4"/><path d="M90.4,112.1c0,.2-.3.3-.5.2s-.3-.3-.2-.5a2.6,2.6,0,0,1,1.7-1.3,11.3,11.3,0,0,1,3.5-.5.4.4,0,0,1,0,.8,9.3,9.3,0,0,0-3.2.5,2,2,0,0,0-1.3.8"/><path d="M126.2,111.7a.4.4,0,0,1-.4.4.5.5,0,0,1-.4-.5v-.5h0s.1.1,0,.1.2.1.1.1.3,0,.2,0,.2-.1.2,0,.1-.2.1-.1h0v1.1a7.2,7.2,0,0,0,.8,2.2,3.6,3.6,0,0,1,.3.7,1.4,1.4,0,0,1,.3,1.1q-.2.3-.3.3h-.4a.7.7,0,0,1-.6-.1,2.4,2.4,0,0,1-1.1-.6,1.3,1.3,0,0,1-.6-.7,1.1,1.1,0,0,1-.1-.8,1,1,0,0,1,.7-.7l1-.4a6,6,0,0,0,1.6-.8,1.5,1.5,0,0,0,.7-.7c0-.2.1-.4.1-.6h-.8a.6.6,0,0,0-.6.3c-.2.1-.2.2-.2.4a.5.5,0,0,1-.4.5.4.4,0,0,1-.4-.4,1.3,1.3,0,0,1,.4-1.2,2.1,2.1,0,0,1,1-.4,2.1,2.1,0,0,1,1.1,0l.4.3.3.5a1.8,1.8,0,0,1-.2,1,2.3,2.3,0,0,1-.9,1.1,6.1,6.1,0,0,1-1.8.9,2.5,2.5,0,0,0-.9.4l-.4.2h.1l.4.4a2.4,2.4,0,0,0,.9.6h.3v.2c0-.1,0-.1-.1-.2s-.1-.2-.1-.4l-.3-.6a7.3,7.3,0,0,1-.9-2.5v-1.4h.1c0-.1.1-.3.4-.3h.3c.1.1.1.1.1.2a.4.4,0,0,1,.1.3.9.9,0,0,1,0,.7"/><path d="M133.1,111.1c.1.2.1.4-.1.5a.5.5,0,0,1-.6,0c-.1-.2-.1-.2-.2-.2l-.2.2a1.6,1.6,0,0,0,0,1.2c.2.6,1,1,1.5,1.6a1.3,1.3,0,0,1,.3,1.3c-.1.5-.5.7-.9.9h-1.1a1.8,1.8,0,0,1-.7-.5,1.9,1.9,0,0,1-.2-.7c-.1-.6.4-1.1.8-1.5l1.5-1.2.9-1a.5.5,0,0,0,.1-.3.2.2,0,0,0-.2-.2l-.3-.2h-.3q-.2,0-.3.3c-.1.3-.3.4-.5.3a.4.4,0,0,1-.3-.6,1.6,1.6,0,0,1,.7-.7,1.1,1.1,0,0,1,.8-.2,1.3,1.3,0,0,1,.8.3,1.6,1.6,0,0,1,.4.7,1.1,1.1,0,0,1-.2.8,3.3,3.3,0,0,1-1.1,1.3l-1.4,1.2a2.1,2.1,0,0,0-.6.8c0,.1,0,.3.1.3l.2.2h.6a.7.7,0,0,0,.4-.3c.1-.1,0-.4-.1-.6s-1.3-.8-1.7-1.8a2.5,2.5,0,0,1,.1-1.9,1.6,1.6,0,0,1,.8-.6,1.2,1.2,0,0,1,1,.5"/><path d="M139.3,114.3c-.2.1-.4.1-.5-.1a.4.4,0,0,1,.1-.6h.1s-.1.1-.1,0,0,.2,0,.2h-.1l-.5.3c-.3.1-.5.4-.7.6l-.3.8v.3h.7a1.1,1.1,0,0,0,.7-.3l.6-.2.4.2v.2a.3.3,0,0,1,.1.2v.8h.3a.4.4,0,0,1,.4.4c0,.3-.3.4-.5.4a1.2,1.2,0,0,1-.8-.4,1.1,1.1,0,0,1-.3-.7v-.5h0s.1.2,0,.2.2.1.2,0h-.1a1.9,1.9,0,0,1-.9.3H137l-.4-.3a1.2,1.2,0,0,1-.1-.8,7.6,7.6,0,0,1,.4-1.1,3.8,3.8,0,0,1,.9-.9,1.5,1.5,0,0,1,1.1-.4c.3.1.5.1.7.4a.6.6,0,0,1,.1.6c-.1.1-.2.3-.4.3"/><path d="M139.1,114.6a.4.4,0,0,1,.2-.6.6.6,0,0,1,.6.3,4,4,0,0,1,0,1.1c-.1.2,0,.3,0,.4h-.2c0,.1-.1,0-.1,0s.5.2.5.4a.5.5,0,0,1-.4.5l-.4-.2-.2-.3a1.3,1.3,0,0,1-.1-.6,3.7,3.7,0,0,0,.1-.8"/><path d="M98.9,120.1a.4.4,0,0,1,.8,0V231a.4.4,0,1,1-.8,0Z"/><path d="M99.5,229.9c.2-.1.4.1.5.3s0,.4-.3.5a.9.9,0,0,0-.7.6.5.5,0,0,0-.1.3h.8l.3-.2c0-.2.1-.4.1-.6a.4.4,0,0,0,0-.5h-1a2.3,2.3,0,0,0-1,.7,2.6,2.6,0,0,0-.3,1.1.8.8,0,0,0,.4.7,1.9,1.9,0,0,0,1,.3.5.5,0,0,0,.4-.3,2.5,2.5,0,0,0,.4-.7,1.7,1.7,0,0,0,.1-1.2.5.5,0,0,0-.2-.4l-.5-.2a.7.7,0,0,0-.6.3,2.3,2.3,0,0,0-.3,1.3,1.1,1.1,0,0,0,.7.9.6.6,0,0,0,.7-.1,2.6,2.6,0,0,0,.6-1.4v-.6h-.2l-.5.2a1.6,1.6,0,0,0-.8.8h0c0,.1-.1-.1-.1,0H99a.4.4,0,0,1,.4.8h-.5c-.2.1-.4.1-.5-.1a.5.5,0,0,1-.3-.4c0-.2,0-.3.1-.4a2.5,2.5,0,0,1,1.2-1.3l.7-.2a1.1,1.1,0,0,1,.8.2l.4.6v.7a2.6,2.6,0,0,1-1,2,1.4,1.4,0,0,1-1.4.2,1.9,1.9,0,0,1-1.2-1.6,3.6,3.6,0,0,1,.4-2,1.6,1.6,0,0,1,1.4-.5,1.6,1.6,0,0,1,.9.3,1.1,1.1,0,0,1,.5.9,2.9,2.9,0,0,1-.1,1.6,2.1,2.1,0,0,1-.6,1,1.8,1.8,0,0,1-.9.6,1.9,1.9,0,0,1-1.5-.4,1.6,1.6,0,0,1-.8-1.4,1.7,1.7,0,0,1,.5-1.5,2.4,2.4,0,0,1,1.3-1.1H100l.5.2a.7.7,0,0,1,.4.5,1.4,1.4,0,0,1,0,.9,3.1,3.1,0,0,1-.2.8,1.7,1.7,0,0,1-.8.6h-.8l-.6-.2a1.1,1.1,0,0,1-.4-.5,1.4,1.4,0,0,1,.1-.9,2.3,2.3,0,0,1,1.3-1"/><path d="M125.4,170.9a9.4,9.4,0,0,0-1.4-5,9.8,9.8,0,0,0-8.6-5,10.7,10.7,0,0,0-5.1,1.3,10.1,10.1,0,0,0-5,8.7,9.8,9.8,0,0,0,1.4,5.1,9.9,9.9,0,0,0,8.7,5,9.7,9.7,0,0,0,5-1.4,10,10,0,0,0,5-8.7m.8,0a10.8,10.8,0,0,1-5.4,9.4,10,10,0,0,1-5.4,1.5,10.7,10.7,0,0,1-9.4-5.4,10.3,10.3,0,0,1-1.5-5.5,10.8,10.8,0,0,1,5.4-9.4,11.3,11.3,0,0,1,5.5-1.5,11,11,0,0,1,9.4,5.4,11.5,11.5,0,0,1,1.4,5.5"/><path d="M114.7,120.1a.5.5,0,0,1,.5-.4.4.4,0,0,1,.4.4v40.4a.4.4,0,0,1-.4.4.5.5,0,0,1-.5-.4Z"/><path d="M114.7,183.5a.5.5,0,0,1,.5-.5.5.5,0,0,1,.4.5V231a.4.4,0,0,1-.4.4.5.5,0,0,1-.5-.4Z"/><path d="M115.8,230.2a.5.5,0,0,1-.1.6.5.5,0,0,1-.6-.2l-.3-.2h-.3c0,.1-.1.2-.1.4a2.4,2.4,0,0,0,0,1.2.8.8,0,0,0,.2.5h.1l.5-.2a1.3,1.3,0,0,0,.4-.6v-.4h-.9a.4.4,0,0,0-.1.3,1.1,1.1,0,0,0-.1.5h.7V231a3.5,3.5,0,0,0-.1-.6h-.3v.2c0,.1-.1.4-.1.6a1.1,1.1,0,0,0-.1.5c.1.2.1.4.2.4h0a1.2,1.2,0,0,0,.4-.9v-.2h.4l-.4.4v.2h0v0h-.2c.2-.1.4.1.4.3s-.1.4-.3.5-.5-.1-.5-.3h-.1a.8.8,0,0,1-.1-.4.4.4,0,0,1,.1-.3.8.8,0,0,1,.2-.4l.5-.4.2-.2h.5l.2.3c.1,0,.1.1.1.2v.3a1.7,1.7,0,0,1-.8,1.5l-.5.2a.7.7,0,0,1-.6-.3c-.2-.2-.2-.5-.3-.8a1.7,1.7,0,0,1,.1-.7,1.9,1.9,0,0,1,.2-.8c.1-.3.2-.6.6-.7h.6a.7.7,0,0,1,.6.4,1.8,1.8,0,0,1,.2,1,1.1,1.1,0,0,1,0,.8.8.8,0,0,1-.5.8h-1.3a1,1,0,0,1-.5-.6,2.8,2.8,0,0,1,.1-.9c.1-.3.2-.7.6-.8a.5.5,0,0,1,.5-.1h.8l.4.2c.1.1.3.2.3.4a1.6,1.6,0,0,1,0,.7,2,2,0,0,1-.8,1.2l-.7.3h-.4l-.5-.2a1.5,1.5,0,0,1-.4-1,3.3,3.3,0,0,1,0-1.4,1.4,1.4,0,0,1,.2-.7.7.7,0,0,1,.6-.4.8.8,0,0,1,.8.2,1,1,0,0,1,.6.5"/><path d="M114.9,183.4c-.1-.2-.1-.4.1-.5a.4.4,0,0,1,.6.1h0a1.3,1.3,0,0,1,.1.5c0,.1.1.2.1.3a.3.3,0,0,1,.1.5.5.5,0,0,1-.6.1.9.9,0,0,1-.4-.7v-.3h0m-.1-.9a.3.3,0,0,1,.1-.5.5.5,0,0,1,.6,0c.1.2.1.2.1.3v1.5a.4.4,0,1,1-.8,0v-.6h.1c.1-.2.4-.2.6-.1s.2.4,0,.6h.1v.5h-.8c-.1-.2,0-.5,0-.8v-.5h0s.1.2,0,.1"/><path d="M107.6,177.9a.4.4,0,1,1-.6-.6l15.9-13.6a.4.4,0,0,1,.6,0,.6.6,0,0,1,0,.6Z"/><path d="M107.7,163.7a.5.5,0,0,1,0-.5.4.4,0,0,1,.6,0l14.6,15a.3.3,0,0,1,0,.5c-.1.2-.4.2-.6,0Z"/><path d="M193.9,135.9a.5.5,0,0,1,.5-.4.4.4,0,0,1,.4.4v15.9a.4.4,0,0,1-.4.4.5.5,0,0,1-.5-.4Z"/><path d="M194.4,152.2a.5.5,0,0,1-.5-.4c0-.3.2-.4.5-.4h15.8a.4.4,0,0,1,.4.4.4.4,0,0,1-.4.4Z"/><path d="M209.8,135.9a.4.4,0,1,1,.8,0v15.9a.4.4,0,0,1-.8,0Z"/><path d="M194.4,136.3c-.3,0-.5-.1-.5-.4a.5.5,0,0,1,.5-.4h15.8a.4.4,0,0,1,.4.4.4.4,0,0,1-.4.4Z"/><path d="M193.9,167.6a.5.5,0,0,1,.5-.4.4.4,0,0,1,.4.4v15.9a.4.4,0,0,1-.4.4.5.5,0,0,1-.5-.4Z"/><path d="M194.4,183.9a.5.5,0,0,1-.5-.4.5.5,0,0,1,.5-.5h15.8a.5.5,0,0,1,.4.5.4.4,0,0,1-.4.4Z"/><path d="M209.8,167.6a.4.4,0,1,1,.8,0v15.9a.4.4,0,0,1-.8,0Z"/><path d="M194.4,168a.4.4,0,1,1,0-.8h15.8a.4.4,0,0,1,0,.8Z"/><path d="M227.1,142.8a.5.5,0,0,1,.5.4.4.4,0,0,1-.4.4h.1c-.1,0,.2-.2.1-.1s.1-.3.1-.2v-.2h0l.4.2h1.7a4.1,4.1,0,0,1,1.9-.1c.3.1.4.3.3.5s-.3.4-.5.3a4.8,4.8,0,0,0-1.6.1,3.8,3.8,0,0,1-2.1-.1l-.6-.3c-.1-.1-.2-.1-.2-.4s.1-.4.2-.4h.2"/><path d="M227.7,145.2c.2.2.2.5,0,.6a.4.4,0,0,1-.6,0,.9.9,0,0,1,0-.7l.4-.2H231c.2.1.4.3.3.5a.4.4,0,0,1-.4.4l-2.5-.2h-.7v-.4h-.1"/><path d="M253.1,140.4c-.2-.2-.1-.4.1-.5s.5-.1.6.1h0c.1.3,0,.3,0,.3a22.1,22.1,0,0,1-1.1,2.1,11.9,11.9,0,0,0-1,2.8,3.4,3.4,0,0,0-.1.9c0,.2-.1.3-.1.4h-.6l.2-.3a.4.4,0,0,1,.6-.1c.2.1.2.3.1.5l-.2.3v.2h-.4l-.3-.2a.3.3,0,0,1-.1-.2v-.2c0-.1.1-.2.1-.3a4.5,4.5,0,0,1,.1-1.1,14.3,14.3,0,0,1,1-2.9,14.7,14.7,0,0,0,1.1-2.1h.1m.3.2c.2.2.1.4-.1.5a.5.5,0,0,1-.6-.1v-.4h.1c0-.1.1-.2.1-.3l.2-.2v-.2h.2a.4.4,0,0,1,.4.4.4.4,0,0,1-.4.4h.2v.2h-.1m-.3-.2a.4.4,0,1,1,0,.8H253c-.2,0-.3-.3-.3-.5a.3.3,0,0,1,.5-.3h-.1"/><path d="M248.8,139.2c.1.2.2.4,0,.6a.3.3,0,0,1-.5.1c-.2-.2-.5-.2-.8-.4l-.2-.3v-.4a1,1,0,0,1,.5-.4l2.3-.5a25.3,25.3,0,0,1,5.5.1l4.1.5c.3,0,.4.2.4.5s-.2.4-.4.3-2.6-.3-4.2-.5a23.5,23.5,0,0,0-5.3-.1,8.1,8.1,0,0,0-2.1.5h0v-.2H248l.8.4"/><path d="M247.4,148.5a.4.4,0,0,1,.4.4c.1.2-.1.4-.3.4a.6.6,0,0,1-.7-.1.8.8,0,0,1-.2-.4c0-.2.1-.2.1-.3a1.5,1.5,0,0,1,1.3-.8,4.5,4.5,0,0,1,2.5.3l3.6.7a.4.4,0,0,1,.3.5c0,.2-.2.4-.4.3a24.5,24.5,0,0,1-3.7-.7,4.5,4.5,0,0,0-2.1-.3l-.8.4h-.1c.1,0,0-.1,0-.1h.1"/><path d="M263,148.4a.5.5,0,0,1-.5.3.5.5,0,0,1-.3-.6,2.6,2.6,0,0,0,.3-1.1c0-.2,0-.3-.1-.3h-.7l-.6.6c-.1.1-.1.3.1.5s.3.3.5.5l.7.4a2.1,2.1,0,0,1,.6,2.1,2.8,2.8,0,0,1-.9,1,3.1,3.1,0,0,1-1.3.3,2.7,2.7,0,0,1-1.3-.2,1,1,0,0,1-.5-.4.6.6,0,0,1-.3-.6.4.4,0,1,1,.8,0h.1l.2.2h.9a1.7,1.7,0,0,0,1-.3.8.8,0,0,0,.5-.5,1.1,1.1,0,0,0-.3-1.1l-.6-.5a1.3,1.3,0,0,1-.8-.7,1.2,1.2,0,0,1-.1-1.3,1.5,1.5,0,0,1,1-.9,1.4,1.4,0,0,1,.9-.1.9.9,0,0,1,.8.4,1,1,0,0,1,.2.7,2.4,2.4,0,0,1-.3,1.5"/><path d="M268.2,146a.6.6,0,0,1-.3.6c-.2,0-.5-.1-.5-.3h.2a2.5,2.5,0,0,0-.5.7,13.6,13.6,0,0,0-1.4,2.7,7.4,7.4,0,0,0-.3,1.9c0,.3,0,.6.1.7h.1l.5-.2a1.8,1.8,0,0,0,1-1.1.5.5,0,0,1,.5-.3c.3.1.4.3.3.5a3,3,0,0,1-1.4,1.7l-1,.2H265l-.3-.5a2.8,2.8,0,0,1-.1-.9,6.4,6.4,0,0,1,.4-2.2,13,13,0,0,1,1.4-2.9,2.4,2.4,0,0,1,.8-.9.4.4,0,0,1,.5-.1c.3,0,.4.3.5.4"/><path d="M264.6,149.5a.4.4,0,0,1-.4-.4c-.1-.2.1-.4.3-.4h3.6a.4.4,0,0,1,0,.8h-3.5m.1-.8a.4.4,0,1,1,0,.8h-.1c-.3,0-.5-.2-.4-.4a.4.4,0,0,1,.4-.4h.1"/><path d="M227.6,174.9a.5.5,0,0,1-.5-.3c0-.2.1-.5.3-.5s2.6,0,3.8-.2.5.1.5.4-.1.4-.3.4-3,0-3.8.2"/><path d="M227.7,175.5a.4.4,0,0,1,.4.4c.1.2-.1.4-.3.4h0c-.1,0,.1-.2.1-.1s-.1-.2-.1-.2,0-.1,0-.1l.3.2a3.3,3.3,0,0,0,2.3-.5.4.4,0,0,1,.4.8,4.2,4.2,0,0,1-3,.4.6.6,0,0,1-.7-.5.6.6,0,0,1,.1-.6l.5-.2"/><path d="M251.1,172.9c.1.2-.1.4-.3.5a.5.5,0,0,1-.5-.3,1.5,1.5,0,0,1,.2-1l.2-.2h.4l.3.3v.3a11.8,11.8,0,0,1-.9,2.3c-.5,1.1-1.1,2.2-1.4,3s-.3,1-.2,1h-.3l.2-.2a.4.4,0,0,1,.6,0,.5.5,0,0,1,0,.6l-.7.4h-.4a.4.4,0,0,1-.2-.4,2.8,2.8,0,0,1,.2-1.5l1.4-3a17.6,17.6,0,0,0,.9-2.1h.1c-.1,0,.1.1,0,.1h.6l-.2.5"/><path d="M247.4,171.2c.2.1.2.3.1.5a.4.4,0,0,1-.5.2l-.5-.4-.2-.2a.4.4,0,0,1,.1-.5.6.6,0,0,1,.5-.2h.5l5.4.6,2.8.4,1.8.4a.3.3,0,0,1,.3.5c0,.2-.3.3-.5.3l-1.7-.4c-2.6-.4-6.2-.9-8.2-1h-.2V171H247l.4.3"/><path d="M245.1,181.7c.2.1.2.3.1.5s-.4.3-.6.1-.5-.3-.6-.7,0-.3.1-.4l.4-.2h2.8a42.8,42.8,0,0,0,6.1-.2.4.4,0,0,1,.4.4c.1.2-.1.4-.3.4a32.9,32.9,0,0,1-6.2.2h-2.6c-.1,0,.1-.3.1-.2s-.1-.3,0-.2l.3.3"/><path d="M263.6,177.9c0,.2-.1.4-.3.4a.3.3,0,0,1-.5-.3h0s.1.1,0,.1.2.2.2.1h.4l-.2.4-1,2-1.2,1.9-.2.5c0,.2,0,.3.1.3h.9l1.3-.5a.5.5,0,0,1,.6.2c.1.2,0,.4-.3.5l-1.4.5a1.6,1.6,0,0,1-1.5,0,1,1,0,0,1-.5-1.1,1.3,1.3,0,0,1,.3-.8l1.1-1.9a18.2,18.2,0,0,0,1-1.9l.3-.6h.4a.3.3,0,0,1,.4.2v.2"/><path d="M267.8,181.7c0,.2-.3.3-.5.3a.4.4,0,0,1-.2-.6v-.2h-.3c-.2.1-.4.5-.6.8a1,1,0,0,0-.1.4h.2l.6-.4.4-.3c.1-.1.3,0,.5.1a.4.4,0,0,1,.1.3h0v.7h-.1a.5.5,0,0,0,.5-.1c.2-.1.5,0,.5.2s0,.5-.2.5a1.5,1.5,0,0,1-1.1.2.8.8,0,0,1-.4-.4.6.6,0,0,0-.1-.4c0-.3.1-.5.1-.7a.3.3,0,0,0,.1-.2h0c0-.1.1.1,0,.1s.2.1.1.1h.2a1.4,1.4,0,0,1-1,.6.9.9,0,0,1-.7-.1.8.8,0,0,1-.4-.7,1.4,1.4,0,0,1,.2-.7,3.4,3.4,0,0,1,.9-1.2,1.5,1.5,0,0,1,1.1-.2.7.7,0,0,1,.4.6.7.7,0,0,1-.1.6"/><path d="M272.7,181c0,.2-.2.3-.5.3s-.3-.2-.3-.5v.2h-.1a1.1,1.1,0,0,0,.1.5,8.9,8.9,0,0,0,.3,1.4,1.6,1.6,0,0,1-.9,1.5,1.4,1.4,0,0,1-1.1.2l-.3-.2a.8.8,0,0,1-.1-.4.9.9,0,0,1,.3-.7.4.4,0,0,1,.6,0,.3.3,0,0,1,.1.5l-.2.2c0,.1-.1-.1,0-.1h.3a.8.8,0,0,0,.5-.7,12.7,12.7,0,0,1-.4-1.4v-.7a.4.4,0,0,1,.1-.3c0-.2.1-.3.3-.4h.8c.1.1.3.1.4.3a.7.7,0,0,1,.1.5"/><path d="M277.8,176.5c.2-.1.4-.1.5.2a.4.4,0,0,1-.2.5,4,4,0,0,0-1,1.3,20,20,0,0,0-1,2.6,9.5,9.5,0,0,0-.4,2.1v.7a.4.4,0,0,1-.1.3v.2h-.5c-.2,0-.2-.1-.3-.2h-.1c0-.2-.1-.3-.1-.4l-.2-.8-.3-.6-.2-.2h-.1s-.1,0-.1-.2,0-.3.1-.4h.9a8.4,8.4,0,0,0,3.9,0,.4.4,0,1,1,.2.8,10.4,10.4,0,0,1-4.6,0h.2c0,.1.1-.3.1-.2v-.2c.1.1,0-.1,0,0h0c.1,0,.3.2.4.4a5.9,5.9,0,0,1,.4.8c.1.3.1.5.2.8v.2h-.1c.1,0-.2-.1-.1-.1s-.2,0-.1,0h-.3v-.2a1.5,1.5,0,0,1,0-.7,12.4,12.4,0,0,1,.4-2.3,20.3,20.3,0,0,1,1.1-2.6c.4-.8.8-1.5,1.4-1.7"/><path class="cls-4" d="M208.2,142.9c0-.2.3-.3.5-.3a.5.5,0,0,1,.3.5h-.1c0,.1,0,.1-.1.2l-.9,1.2-1.7,2.3-.9,1.4a.4.4,0,0,0-.1.3h-.1c0,.1-.1-.2,0-.1h-.2c.1,0-.2-.1-.1-.1h-.1l.3-.2,1-.9a8.6,8.6,0,0,0,.7-1l.5-.6.2-.2h0c.1,0,.1,0,.1-.1h.1s-.1.1-.1,0h0s-.1-.1.1-.2l.4.7c0,.1.1,0,0,.1l-.6,1.1a14.7,14.7,0,0,0-1,1.3,14.1,14.1,0,0,0-1.2,1.6h0s-.1-.2,0-.1-.2-.2-.1-.2h-.3l.5-.3,1.3-1.2,1.1-1.2.3-.2.4.2v.2a2,2,0,0,1-.1.5,15.5,15.5,0,0,1-1.3,1.7l-.4.8h-.1l.5-.6,1.5-1.4c.1-.1.1-.2.3-.2l.4.2a.4.4,0,0,1,.1.3.5.5,0,0,1-.2.4,7.6,7.6,0,0,1-.8,1.1l-.2.4h-.1s-.1-.2,0-.1a.4.4,0,0,1-.1.5.5.5,0,0,1-.6,0,1.1,1.1,0,0,1-.1-.5l.2-.3.3-.4a4.6,4.6,0,0,0,.7-1h.1s.1.1,0,.1h.2c-.1,0,.2.1.1.1h.2l-1.4,1.4-.6.6-.3.2a.4.4,0,0,1-.5.1H206l-.2-.4a1.3,1.3,0,0,1,.1-.6l.6-.8,1.1-1.7h.1c0-.1.1.2.1.1s.2.2.1.1h.4a7.1,7.1,0,0,0-1.1,1.2l-1.4,1.2-.6.4H205c-.1,0-.1.1-.3,0s-.3-.3-.3-.4.2-.6.5-.9l.8-1.1,1-1.3a2.5,2.5,0,0,0,.4-.7c.2-.3.2-.5.5-.7a.5.5,0,0,1,.6.2.4.4,0,0,1-.2.5c0,.1.1-.1.1,0H208l-.2.2-.5.6a6.1,6.1,0,0,1-.7,1,5,5,0,0,1-1.1,1,.5.5,0,0,1-.4.3h-.5l-.3-.3a1.6,1.6,0,0,1,.3-.9,8,8,0,0,1,.9-1.4l1.7-2.4,1-1.2h0m-.4-1.4a.4.4,0,0,1,.5.3c0,.2-.1.5-.3.5h0c-.1,0,.1-.1.1-.1h0c0,.1-.1.2-.2.3l-1.8,2.5-2.2,3.2a5.8,5.8,0,0,0-.7,1.1l-.2.4h0l-.2-.2h.1l.6-.4a10.8,10.8,0,0,0,1.3-1.5,26.6,26.6,0,0,0,2.4-3.2l.7-.9a1.1,1.1,0,0,1,.3-.5h.1c.2-.1.5-.1.6.1a.5.5,0,0,1-.1.6h.1l-.3.4-.7,1a41.2,41.2,0,0,1-2.5,3.3,10,10,0,0,1-1.4,1.5l-.7.5-.4.2a.5.5,0,0,1-.5-.1.8.8,0,0,1-.2-.4v-.3a.8.8,0,0,0,.2-.4,8.3,8.3,0,0,1,.8-1.2c.6-1,1.4-2.2,2.2-3.3l1.8-2.5c.2-.1.2-.2.3-.3h.3m-1-.6c.1-.2.4-.2.6,0s.2.4,0,.5h0l-.3.4a24.8,24.8,0,0,1-1.8,2.4l-2.2,3.1-.8,1.5h0s-.1-.1,0-.1h0c.2,0,.6-.5,1-.9a22.5,22.5,0,0,0,3-3.9l1-1.7c.1-.1.1-.3.2-.3h0v.2h0c-.1-.2.1-.4.3-.5s.4.1.5.3h0c0,.3,0,.3-.1.3l-.2.5-1,1.7a20.1,20.1,0,0,1-3.1,4.1,3.8,3.8,0,0,1-1.4,1.1h-.4l-.4-.2a.5.5,0,0,1-.2-.4v-.4a7.1,7.1,0,0,1,.9-1.7c.6-1,1.4-2.1,2.2-3.2l1.9-2.3.2-.4h.1m-2.7-.5a.4.4,0,0,1,.2.5.3.3,0,0,1-.5.3h.4l-.3.3-1.3,1.8-2.1,2.6a20.6,20.6,0,0,0-1.3,2.1,1,1,0,0,0-.2.6s-.1-.1,0-.1h-.2a7.9,7.9,0,0,0,2.2-2.1,43.8,43.8,0,0,0,3.5-4.7l1-1.4a9.1,9.1,0,0,1,.6-1.1v-.2h0s.1.2,0,.1v.2h.4l-2.2,2.6-2.4,3.2a15.4,15.4,0,0,0-1.4,2.2,3.1,3.1,0,0,0-.5,1.1h0s-.2-.1-.1-.1h.1c.3-.1.7-.7,1.2-1.2a31.5,31.5,0,0,0,3.1-4.1l1.2-1.9.6-1h0s.1.2,0,.2.2.1.1.1.3.1.3.1h.2l-.3.3-2,2.5-1.7,2.3-2.1,3.1-.3.6h0s-.1-.1,0-.1h0a6.9,6.9,0,0,0,1.6-1.5,39,39,0,0,0,3.2-4.2l1-1.5.4-.7h0a.4.4,0,0,1,.6-.2.4.4,0,0,1,.2.5h-.1l-.4.8-1,1.6a40.3,40.3,0,0,1-3.3,4.2,5.7,5.7,0,0,1-1.8,1.7l-.6.2a.9.9,0,0,1-.5-.3.8.8,0,0,1-.1-.4v-.4l.4-.7a31.3,31.3,0,0,1,2.2-3.2,19.5,19.5,0,0,1,1.7-2.3l2-2.5.4-.4h.5l.2.3c0,.2,0,.2-.1.3a12.9,12.9,0,0,1-.6,1.2l-1.2,1.8a26.7,26.7,0,0,1-3.2,4.3,5.7,5.7,0,0,1-1.4,1.3c-.3.2-.5.3-.8.1s-.3-.1-.4-.3-.1-.2,0-.4a2.9,2.9,0,0,1,.6-1.5,24.3,24.3,0,0,1,1.4-2.2c.8-1,1.6-2.2,2.5-3.2l2.2-2.6.2-.2h.3l.4.2v.3c0,.2-.1.3-.2.5a4.9,4.9,0,0,1-.7,1.1l-.9,1.5-3.5,4.7a7,7,0,0,1-2.6,2.4h-.6a.7.7,0,0,1-.3-.5,1.5,1.5,0,0,1,.2-1.1l1.5-2.1a26.9,26.9,0,0,1,2-2.7l1.4-1.8q.1-.3.3-.3v-.2h.4m-.7-1c.3.1.4.3.3.5s-.2.4-.4.3h.2c0,.1-.1.2-.3.4s-1.5,1.9-2.4,3.2a21.1,21.1,0,0,0-2.4,4.1c-.1.2-.1.3-.2.4h0c0,.1-.1-.1,0-.1s-.2,0-.2,0h0l.3-.3a28.5,28.5,0,0,0,2.2-2.4,22.1,22.1,0,0,0,2.1-3.3l.7-1,.2-.4a.1.1,0,0,1,.1-.1h-.1s.1.1,0,.1h.1a.3.3,0,0,1,.1-.5c.2-.2.4-.1.6.1a.3.3,0,0,1,.1.2c-.1.3-.1.3-.2.4s-.1.2-.2.4l-.7,1a24,24,0,0,1-2.2,3.4,13.9,13.9,0,0,1-2.3,2.5c-.2.2-.4.4-.6.4h-.4a.3.3,0,0,1-.3-.3c-.2-.4,0-.7.1-1.1a37.6,37.6,0,0,1,2.5-4.2c.9-1.3,1.9-2.5,2.5-3.3l.3-.4h.5m-1.1-.1c.2-.1.4,0,.5.3s-.1.4-.3.5h.1l-2,2.4c-1,1.2-1.9,2.5-2.6,3.5l-.5.9v.2h0s-.2-.3-.2-.2h.2l1-1,1.5-1.7a31.3,31.3,0,0,0,2.2-3.2l.6-.9a.4.4,0,0,0,.1-.3h0v.2h0a.4.4,0,0,1,.2-.5c.2-.1.4-.1.5.1h0c.1.3,0,.3,0,.3h0l-.2.3a4.7,4.7,0,0,1-.6.9,29.2,29.2,0,0,1-2.3,3.4l-1.5,1.6c-.4.5-.8,1.2-1.5,1.4a1.1,1.1,0,0,1-.7-.3.2.2,0,0,1-.2-.2.2.2,0,0,1,0-.3.6.6,0,0,1,.1-.4,9.3,9.3,0,0,1,.5-1,37.5,37.5,0,0,1,2.7-3.6l2-2.4h.3m-1.2.2c.1-.2.3-.4.5-.3s.4.2.3.5h0l-.2.2a17.7,17.7,0,0,1-1.5,1.8c-.9,1.1-1.8,2.2-2.4,3.1l-.7,1v.2h-.1s-.2-.1-.1-.1h-.1l.9-.8,1.3-1.4,1.6-2.2,1.1-1.5.4-.5h0a.5.5,0,0,1,.6-.2.4.4,0,0,1,.2.5h-.1l-.4.5-1.1,1.5-1.7,2.2-1.3,1.5c-.4.4-.7.9-1.3,1a.3.3,0,0,1-.4,0,.5.5,0,0,1-.3-.4.8.8,0,0,1,.2-.8,4.9,4.9,0,0,1,.7-1.1c.7-.9,1.5-2.1,2.4-3.1l1.6-1.8h0m-1.5-.1c-.1-.3,0-.5.3-.5a.4.4,0,0,1,.5.2h0c0,.2-.1.2-.1.2a6.2,6.2,0,0,1-1,1.7l-1.3,2a6.4,6.4,0,0,0-.6,1.1.1.1,0,0,0-.1.1h0s-.1-.1,0-.1h-.4c.1,0,.5-.6,1-1.1l2-2.1a5.7,5.7,0,0,1,1-1.1l.4-.4s-.1,0,.1-.1.5,0,.5.2a.4.4,0,0,1-.2.6h.1l-.3.3-1,1.1-2,2.2a5.3,5.3,0,0,1-1.3,1.3h-.5l-.2-.3v-.2a.9.9,0,0,1,.1-.5l.7-1.1,1.4-2a16.5,16.5,0,0,0,.9-1.6h0m-.3-.7a.4.4,0,0,1-.4.4c-.2.1-.4-.1-.4-.3h-.1c0-.1.2,0,.1,0h-.2a2.2,2.2,0,0,0-.5.8l-.2.5h-.1c.1,0-.1-.2,0-.1h-.4l.2-.2.6-.5.6-.6.3-.4c.1-.1.2-.1.2-.2h.3l.4.2a.6.6,0,0,1-.1.6c0,.2-.1.3-.2.5a5.3,5.3,0,0,0-.6,1l-.3.6-.2.4h-.1c.1.1-.2-.2-.1-.2h-.3l.4-.3.7-.8.4-.5.3-.3v-.2h.2c.2-.1.4.1.5.3a.5.5,0,0,1-.4.5h.2c-.1.1-.1.2-.3.3l-.4.5a3,3,0,0,1-.8.8c0,.1-.1.2-.2.4a.2.2,0,0,0-.2.2h-.4c-.2,0-.3-.1-.4-.3a.1.1,0,0,1,0-.2v-.2l.2-.4.3-.7.7-1,.2-.4h.5s.1-.1,0-.1h0l-.3.3-.7.7-.6.6-.3.2h-.2a.7.7,0,0,1-.6-.6c0-.1.1-.2.1-.3a2.5,2.5,0,0,1,.2-.7l.8-1a1,1,0,0,1,.8-.3l.5.2c.1.1.1.3.2.5"/><path class="cls-4" d="M199.2,150.2c-.3-.1-.3-.3-.2-.5a.4.4,0,0,1,.5-.2h-.4l.3-.3h.6a.4.4,0,0,1,0,.6l-.5.4s0,.2-.3,0m-.5-3.8a.4.4,0,0,1,.5.5h.1l-.7.9-1.2,1.7-.4.6h0s-.1-.2,0-.1h-.2l.5-.6a6,6,0,0,1,.8-.8c.2-.2.3-.5.5-.6l.3-.4h.2a.4.4,0,0,1,.4.2c.2.1.2.2.1.3a1.1,1.1,0,0,1-.5.9l-.9,1.4h0v-.2c.1.1-.1-.1,0-.1h-.2a.1.1,0,0,0,.1-.1c.3-.1.6-.5.9-.8l.5-.5.6-.5h.6v.2a.6.6,0,0,1-.1.6,6.2,6.2,0,0,1-.8,1.2v.2h0a.4.4,0,1,1-.8,0v-.2h.2a6.1,6.1,0,0,0,.7-1h.1c-.1-.1.1.1,0,.1h.4l-.4.4-.5.5-1,.9-.5.2h-.4c-.1-.1-.2-.2-.2-.3V150a7,7,0,0,1,1-1.6l.4-.6h.1s.1.1,0,.1h.5l-.2.2-.5.6-.8.9c-.2.2-.4.7-.9.8a.5.5,0,0,1-.6-.2.6.6,0,0,1-.1-.7,2.5,2.5,0,0,1,.4-.7l1.2-1.7.7-1h.1m-.4-.7a.7.7,0,0,1,.4-.5.4.4,0,0,1,.4.4c.1.3,0,.2,0,.2l-.2.4-.9,1.4-.9,1.5c0,.2-.1.2-.1.3h-.1c.1,0-.1-.2,0-.1h-.3a5.4,5.4,0,0,0,1.1-1.3l.5-.8.3-.4v-.2h0a.5.5,0,0,1,.6-.2c.1.1.2.4.1.5h-.1l-.3.4a4.1,4.1,0,0,1-.5.9c-.5.6-.8,1.2-1.4,1.5h-.4l-.3-.2-.2-.3c0-.3.2-.4.3-.6a8.9,8.9,0,0,1,.9-1.6,15.1,15.1,0,0,0,.9-1.4l.2-.3h-.1s.1.2,0,.1m.6-1.7a.5.5,0,0,1,.4.5c0,.2-.2.3-.4.3h0l-.4.6a14.7,14.7,0,0,0-1,1.3,16,16,0,0,0-1.5,2.5v.2h-.1c.1,0-.1-.2,0-.1h-.3l.3-.3.9-1c.6-.7,1-1.5,1.4-2l.2-.4h0a.4.4,0,1,1,.7.5h0l-.2.5a17.2,17.2,0,0,1-1.5,2.1,5.2,5.2,0,0,1-1,1.1l-.4.3-.2.2h-.5l-.2-.4v-.2a.4.4,0,0,1,.1-.3,10.5,10.5,0,0,1,1.5-2.6l1.1-1.4a2.1,2.1,0,0,1,.4-.6l.2-.2.4-.2m2.3-5.9a.3.3,0,0,1,.5-.3c.2,0,.3.2.3.4s-.1.2-.1.2h-.1l-1.2,1.6a29.5,29.5,0,0,0-2.3,3.2,10.3,10.3,0,0,0-1.6,2.8,2,2,0,0,0-.3.8h-.2l.3-.2.8-.7a11.5,11.5,0,0,0,1.5-2c.3-.5.7-.9.9-1.3l.5-.7.2-.2h0v-.3h0l.8.2c-.1.4-.4.6-.7.9l-1,1.1L198,146l-1.2,1.9-.2.5h0l-.2-.2h0l1-1.5a6.7,6.7,0,0,0,.6-1.2l.4-.6c0-.1,0-.2.1-.2h0c-.1-.2,0-.3,0-.4h0a.5.5,0,0,1,.6-.1c.2.1.3.4.1.5h.1s-.1-.2,0-.1,0,.3-.1.4v.2l-.3.7-.7,1.2a7.4,7.4,0,0,1-1.2,1.7.5.5,0,0,1-.5.3H196c-.1,0-.2-.3-.2-.4a1.3,1.3,0,0,1,.3-.8,12,12,0,0,1,1.2-2.1l1.7-2.4c.7-.9,1.5-1.6,1.5-1.7a.4.4,0,0,1,.5-.3.5.5,0,0,1,.3.5v.2a.7.7,0,0,1-.3.4l-.5.7-.9,1.4a16.6,16.6,0,0,1-1.6,2.1l-1,.8-.4.2c-.2.1-.3.2-.5.1a.4.4,0,0,1-.4-.4c-.1-.2,0-.3,0-.4l.3-.9a19.6,19.6,0,0,1,1.7-3c.8-1.1,1.6-2.3,2.4-3.3l1.2-1.5h0m-3.9-.3a.4.4,0,0,1-.5.2c-.2,0-.3-.3-.3-.5h.1c-.1,0,0,.2,0,.1h.3l-.7.8a2.1,2.1,0,0,0-.5.9h-.2a10.1,10.1,0,0,0,1.7-1.8l.5-.6.3-.3c0-.1.1-.2.4-.1l.2.3a.1.1,0,0,1,0,.2c0,.1,0,.2-.1.2l-.8,1.3a18.8,18.8,0,0,0-1.2,1.8,7.3,7.3,0,0,0-.9,2.2v.2h0s-.3-.2-.2-.2h-.2l.3-.2a16.8,16.8,0,0,0,1.9-2.4l.7-.9.2-.2h.5c.2.2.1.3.1.4v.2c-.4.8-1.1,1.8-1.7,2.8l-.6,1.1-.4.8v.2h0s-.1-.1,0-.1h-.2l.3-.3,1.1-1,2.5-3,.9-1.1.5-.8.2-.3h.1a.4.4,0,0,1,.5.2c.1.2.1.4-.1.5h0l-.6.8-.9,1.1a33.1,33.1,0,0,1-2.5,3,6.8,6.8,0,0,1-1.2,1.2l-.5.3a.4.4,0,0,1-.6,0c-.1,0-.2-.1-.2-.3v-.6a4.1,4.1,0,0,1,.5-.9,6.7,6.7,0,0,1,.6-1.2,23.3,23.3,0,0,0,1.6-2.6h.4s.1-.1.1,0,.1-.1,0-.1.1,0,.1,0-.4.5-.6.9a16.9,16.9,0,0,1-2,2.5l-.5.3h-.6l-.2-.2c-.2-.4,0-.5.1-.8a6.9,6.9,0,0,1,1-2.3,19.9,19.9,0,0,1,1.2-1.9,12.3,12.3,0,0,0,.8-1.2h.1l.2.2h.3c-.2.1-.3.4-.5.6s-1.2,1.7-2.1,2.1h-.7l-.2-.4c-.1-.1-.1-.2,0-.4a4.9,4.9,0,0,1,.7-1.1,3.4,3.4,0,0,1,.8-.9c.1-.1.2-.3.4-.3h.4c.1,0,.2.2.2.3s-.1.2-.1.3"/><path class="cls-4" d="M197.2,140.2a.4.4,0,1,1-.7.3h.5l-.3.5a10.1,10.1,0,0,0-.7,1.5,3.9,3.9,0,0,0-.2.6h-.2a.1.1,0,0,1,.1-.1l.9-.8a.5.5,0,0,1,.6.1.5.5,0,0,1,0,.5l-1,.9c-.3.1-.6.3-.9.1s-.3-.5-.3-.8a3.1,3.1,0,0,1,.2-.8,11.9,11.9,0,0,1,.8-1.6,2.1,2.1,0,0,1,.4-.6V140h.3a.4.4,0,0,1,.4.3"/><path class="cls-4" d="M208.2,141.6a.5.5,0,0,1,.1-.6.5.5,0,0,1,.6.2v.2h0c0,.1-.1.2-.1.3a2.5,2.5,0,0,1-.2.7,12.4,12.4,0,0,1-1,2l-.3.5v-.2h-.2l.6-.8.9-1.2v-.2h0l.8.3a2.1,2.1,0,0,1-.4.6l-.7.9-.5,1.1h0v-.2c.1.1-.1-.1,0-.1h-.2c.1,0-.2,0-.1-.1h0a.3.3,0,0,1,.5,0,.3.3,0,0,1,.1.5l-.3.2c0,.1-.1.2-.4.1l-.3-.2V145l.6-1.2,1-1.4a.5.5,0,0,1,.6-.2.4.4,0,0,1,.2.5l-.3.4-.8,1.2a8.1,8.1,0,0,1-.9,1h-.5l-.3-.2a.4.4,0,0,1-.2-.4,1.6,1.6,0,0,1,.4-.7l1-1.9a1.3,1.3,0,0,0,.1-.6h.1c-.1,0,0,.2,0,.1m1-3.3a.5.5,0,0,1,.6-.2c.2.1.2.4.1.6l-.9,1.5-1.1,1.9a1.1,1.1,0,0,0-.1.5c-.1,0-.1-.1,0-.1h-.4c.1,0,.3-.4.5-.7s.2-.3.5-.5a.4.4,0,0,1,.5.2.5.5,0,0,1-.2.6h.1c0,.1-.1.1-.2.3s-.4.7-.8.9a.4.4,0,0,1-.5.1l-.3-.2a.4.4,0,0,1-.1-.3l.3-.8,1.1-1.9c.4-.6.7-1.3.9-1.5m-.3-.3a.4.4,0,0,1,.2-.5c.2-.1.4-.1.5.1v.3l-.2.3-.6.8-1.2,1.5-.2.5v-.2h-.4l.5-.3a6.3,6.3,0,0,0,1.1-1.2c.2-.2.3-.3.3-.5l.2-.2h0a.7.7,0,0,1,.6-.1.5.5,0,0,1,.1.6h0l-.2.2-.4.5a3.7,3.7,0,0,1-1.2,1.3l-.6.4H207c-.1,0-.2,0-.3-.2v-.3a1,1,0,0,1,.4-.7l1.1-1.6.7-.8h0m-2.3-1.4a.3.3,0,0,1,.5-.3c.2,0,.3.3.3.5a7.1,7.1,0,0,1-.7.9,7.6,7.6,0,0,0-1.3,2v.2h-.2l.9-.8,1-.9.5-.5.3-.3c0-.1,0-.1.2-.1h.3l.2.3v.3a8.7,8.7,0,0,1-.9,1.1l-1.1,1.4v.2h0s-.1-.2-.1-.1h-.1c.1,0-.2-.1-.1-.1h0l.5-.3,1.2-1.1.8-.9.4-.3h.4a.4.4,0,0,1,.2.6c0,.2-.3.3-.5.2h.4l-.2.2c-.3.2-.5.6-.9.9l-1.4,1.1-.5.4h-.4c-.1,0-.4-.1-.4-.3a.5.5,0,0,1,0-.5v-.3l1.1-1.5c.4-.4.8-.8.8-1h0v.2h.5l-.2.2-.5.6-1,.9c-.4.3-.7.9-1.3,1h-.5l-.3-.4a2.2,2.2,0,0,1,.1-.8l1.4-2.1.6-.6m-5.5,1.4a.4.4,0,0,1-.8,0h.3l-.5.6-.8.9-.3.4h-.1s.1-.1,0-.1h.1v-.2h-.4l.7-.4c.5-.4,1-1.1,1.5-1.6l.4-.5.3-.3h.3c.1.1.3.2.3.3s0,.3,0,.3a3.9,3.9,0,0,1-.8,1l-.9,1.4h-.2a.1.1,0,0,0,.1-.1,3.7,3.7,0,0,0,.9-.9l1.1-1c0-.1.2-.2.4-.1l.3.2a.6.6,0,0,1,0,.6c-.1.4-.5.8-.6,1.1s-.1.1-.1.2h-.1c.1.1-.1-.1,0-.1h.1l1.3-1,.7-.6.5-.5.3-.4.5.7h0l-.7,1.1-.5.7a.8.8,0,0,0-.1.4h-.3l.4-.4,1.5-1.4.6-.7.2-.2h0c.2-.2.5-.2.6,0a.3.3,0,0,1,.1.5h-.1l-.2.2-.5.7-1.6,1.5-.5.4c-.1.1-.1.2-.2.2h-.6c-.1,0-.2-.2-.2-.3v-.3a1.9,1.9,0,0,1,.2-.7l.5-.8a3.5,3.5,0,0,0,.5-.8l.2-.2.2-.3a.5.5,0,0,1,.6.2.3.3,0,0,1-.1.5l-.7.8c-.3.1-.5.4-.7.6a6.6,6.6,0,0,1-1.7,1.2h-.6a.4.4,0,0,1-.4-.4c-.2-.4,0-.6.2-.9a2.8,2.8,0,0,0,.5-.9h.1c0-.1.1.1.1.1h.4l-1,1a3.2,3.2,0,0,1-1.2,1.1h-.7c-.1,0-.2-.2-.3-.3s0-.3,0-.5a6.6,6.6,0,0,1,1.1-1.6,2.6,2.6,0,0,0,.6-.8h0v.2h.6l-.5.6c-.5.5-1,1.1-1.6,1.6s-.5.6-1.1.7-.2,0-.3-.2a.5.5,0,0,1-.1-.3c0-.2,0-.2.1-.2v-.2l.2-.3.8-.9.8-.8h.3l.4.2a.7.7,0,0,1,.2.6"/><path class="cls-4" d="M205.3,140.2c0,.2-.3.3-.5.3a.5.5,0,0,1-.3-.5.8.8,0,0,0,.1-.4h.1a.1.1,0,0,1-.1.1l-.5.4-1.2,1.1a3.3,3.3,0,0,0-.6.8h-.6l.8-.8,1.4-1.4.5-.5h-.1c.1,0,0,.2,0,.1s.1.2,0,.1l.2.2h.3l-.9.9-1.4,1.4-.5.5a.7.7,0,0,1-.4.3.4.4,0,0,1-.3-.7h0l2-2,1.1-1.1h.6a.4.4,0,0,1,.1.3v.2H205l-.5.6-1.4,1.4-1,.9h-.3l-.3-.2a.4.4,0,0,1-.1-.3.6.6,0,0,1,.2-.5,3.2,3.2,0,0,1,.8-.9l1.2-1.2.6-.4.7-.2.3.3.2.3a2,2,0,0,1-.1.7"/><path class="cls-4" d="M36.4,197.4a.9.9,0,0,1,.9-.8.8.8,0,0,1,.7,1h0v.2a2.4,2.4,0,0,0,.2.8l-1.6.4v-8.7c.1-.9.1-2.1.1-3.1v-.5a1.5,1.5,0,0,0-.1-.7,5.4,5.4,0,0,0-.1-.8h0c0-.1.1.1.1,0s.1.2.1.2h1l.2-.2c-.1,0,0-.2,0-.1v.1a.9.9,0,0,1-.8.8.9.9,0,0,1-.9-.8,1.7,1.7,0,0,1,.1-.7c0-.1.1-.3.4-.5a.9.9,0,0,1,.9.1c.3.2.3.3.3.4l.3,1.2v4.6a17.7,17.7,0,0,0-.1,2.3c0,1.6,0,3.4.1,5s-.1.5,0,.6v.3h0s-.1-.2,0-.1a.8.8,0,0,1-1.6.4,3.3,3.3,0,0,1-.2-1.2v-.3h0m1.6.3a.8.8,0,1,1-1.6-.2h0a.9.9,0,0,1,.8-.8.8.8,0,0,1,.8.9h0v.2"/><path class="cls-4" d="M37.8,158.4a.8.8,0,0,1-.8.8.9.9,0,0,1-.8-.8h0v-.8a16.9,16.9,0,0,0-.1-2.3v-1.2a.6.6,0,0,1-.1-.4,7.1,7.1,0,0,1-.1-1.4c.1-.1.1-.2.1-.4l.3-.4c.2-.1.8-.2,1,0s.3.4.4.6a.8.8,0,0,0,.1.4,1,1,0,0,1-.7.9.7.7,0,0,1-.9-.7v-.2h1.1c-.1,0,.2-.2.2-.2h.2c-.1.1,0-.1,0,0v1c0,.1.1.2.1.4s.1.9.1,1.3v3.2h0m-1.6-.5a.9.9,0,0,1,.8-.8.8.8,0,0,1,.8.8v.5h0a.8.8,0,0,1-.8.8.9.9,0,0,1-.8-.8h0v-.5"/><path class="cls-4" d="M36,151.6a.7.7,0,0,1,.8-.7.8.8,0,0,1,.8.9v-.2c0,.1-.2-.2-.1-.2h.2a23.5,23.5,0,0,1,6.5-.1,28.3,28.3,0,0,0,3.6.7h3.4c.1,0,.2-.1.6.2a1,1,0,0,1,.2.9c-.1.3-.2.4-.3.4s-.5.3-1,.5a.7.7,0,0,1-1-.5.7.7,0,0,1,.4-1l.6-.3h-.1v.4c.1-.2.1.5.1.4l.2.3.2.2H47.7a23.2,23.2,0,0,1-3.8-.7,31.4,31.4,0,0,0-6.1.1,1.8,1.8,0,0,1-1-.1.7.7,0,0,1-.6-.4.8.8,0,0,1-.2-.8"/><path class="cls-4" d="M50.9,151.5a.8.8,0,0,1,.9-.6.7.7,0,0,1,.7.9c0,.2,0,.3-.1.4v.2c-.1.1-.1.3-.5.4a1.1,1.1,0,0,1-.8-.1c-.4-.3-.3-.4-.3-.5a1.6,1.6,0,0,1,0-.7v-1.8a1.3,1.3,0,0,1,.1-.6,11.5,11.5,0,0,1,.1-1.8,2.9,2.9,0,0,1,.2-.9.8.8,0,0,1,.2-.4,1.2,1.2,0,0,1,1-.3.8.8,0,0,1-.5,1.5h.5l.3-.2c-.1.1,0-.1,0-.1h0a1.8,1.8,0,0,1-.1.6,11.5,11.5,0,0,1-.1,1.8,4.3,4.3,0,0,0-.1.5v2h0s-.1-.1,0-.1h-.2l-.4-.2h-.7l-.2.2c.1-.1,0,.1,0,.1h-.1c.1-.1.1-.1.1-.3"/><path class="cls-4" d="M50.6,117.3a1,1,0,0,1,1.1-.5.9.9,0,0,1,.5,1.1v-.2h0v.4a.7.7,0,0,1-.8.8.8.8,0,0,1-.8-.8v-.5s-.1.1,0-.3m2,9a1,1,0,0,1-.7.9.7.7,0,0,1-.9-.7h-.1v-1.3c0-1.2-.2-2.6-.3-3.9v-3.5h.1a.8.8,0,0,1,.4-1.1.9.9,0,0,1,1.1.5v.2c.1.1,0,.1,0,.1a2.8,2.8,0,0,1,.1,1v.7a10.8,10.8,0,0,0,0,1.8c0,1.3.2,2.6.3,4v1.3h0m-1.6-.1a.7.7,0,0,1,.8-.7.8.8,0,0,1,.8.8v.2h0a.9.9,0,0,1-1,.6.8.8,0,0,1-.6-1c0-.1-.1.1,0,.1h0"/><path class="cls-4" d="M52,109.6a.9.9,0,0,1-.9.8.9.9,0,0,1-.8-.8,17,17,0,0,0-.1-2.2c0-1,0-2.1-.1-3.2a26.9,26.9,0,0,0-.2-3.1c0-.5-.1-1.1-.1-1.8a26.2,26.2,0,0,1,0-2.8V94.1a4.1,4.1,0,0,1,.1-1.2V90.2a15.4,15.4,0,0,1,.2-2.4,5.7,5.7,0,0,1,.1-1.4v-.8a10.3,10.3,0,0,1,.1-1.7c0-1.1.1-1.9.1-2.6s-.2-2.8-.2-4.1a7.5,7.5,0,0,0,0-1.5,6.2,6.2,0,0,0,.1-1.3,1.1,1.1,0,0,1,.1-.5,6.6,6.6,0,0,1,.1-1.4c.1-.4,0-.7.5-1.2a.6.6,0,0,1,.7-.2.8.8,0,0,1,.6.2,1.6,1.6,0,0,1,.4.7.7.7,0,0,1-.5,1,.7.7,0,0,1-1-.4h1c-.1.1,0-.1,0,0s-.1.2-.1.4-.1.8-.1,1.2v.5a4.9,4.9,0,0,0-.1,1.2v1.5c0,1.2,0,2.6.1,4a13.6,13.6,0,0,1-.1,2.8c0,.6-.1,1.2-.1,1.6v.9a8.6,8.6,0,0,1-.1,1.5,13.8,13.8,0,0,0-.2,2.2V93c0,.4-.1.7-.1,1.1v5.2c.1.6.1,1.1.2,1.6s.1,2,.2,3.2a31.1,31.1,0,0,0,.1,3.2c0,.8.1,1.4.1,2.3"/><path class="cls-4" d="M52.4,73.2a.8.8,0,0,1-1,.7.8.8,0,0,1-.6-.9c.1-.5.2-.5.2-.5l.3-.2.5-.3c1.5-.6,3.4.1,5.3,0s3.2.1,4.4.1h3.8a1.1,1.1,0,0,1,.6.3,1.4,1.4,0,0,1,.2.6c.1.1,0,.3,0,.4a.7.7,0,0,1-1,.5.8.8,0,0,1-.6-1v.2c0-.1.3.5.2.4l.2.2H61.5c-1.4,0-2.7-.2-4.3-.1s-4.3-.3-4.8-.1l-.3.2s.1-.1.1,0,.1-.1,0-.1h.1s.1-.4.1-.3m-1.1-.9a.9.9,0,1,1,.6,1.6s0,.2-.6,0h0a1,1,0,0,1-.5-1.1.9.9,0,0,1,1.1-.5h-.6"/><path class="cls-4" d="M84.4,73.2a.7.7,0,0,1-.6-.9.9.9,0,0,1,.9-.7c.1.1,0,0,.1,0h1.1l1.8.4a21.2,21.2,0,0,0,3.4-.2h4.5a5,5,0,0,1,2.4.2.7.7,0,0,1,.6,1,.8.8,0,0,1-.9.6,3.6,3.6,0,0,0-2-.2H91.2a22.9,22.9,0,0,1-3.7.1l-1.7-.3c-.5-.1-.8.1-1.4-.1"/><path class="cls-4" d="M99.8,111a.8.8,0,0,1-1.1.3.8.8,0,0,1-.3-1.1V110l.4-.3a.8.8,0,1,1,1.1,1.2l-.2.2c-.1,0,.1-.2,0-.1M98.7,72a.8.8,0,0,1-.1,1.2.7.7,0,0,1-1.1-.1c-.1,0,0,.1,0,0h.3c-.1-.1.5-.1.4-.1l.3-.2c-.1.1.1-.2.1-.2h0a.4.4,0,0,0,.1.3,4.5,4.5,0,0,0,.1,1.2c.1.9.6,1.8.7,3.2s0,2.8,0,4.2.1,2,.2,3,0,3.1,0,4.5.1,1.6.1,2.3.1,3.1.1,4.6a11.4,11.4,0,0,0,.3,2.8,24.3,24.3,0,0,1,0,2.7c0,.6.1,1.1.1,1.5v.4a4.9,4.9,0,0,0,.1,1.2v3c0,.6-.2,1.2-.2,1.7a2.8,2.8,0,0,0-.1.9c-.1.4,0,.3-.2.7l-.2.3h-.1a.7.7,0,0,1-1.1-.1.9.9,0,0,1,.1-1.2h0l-.2.2c.1-.1,0,.1,0,.1V110a2.8,2.8,0,0,0,.1-.9,10,10,0,0,0,.2-1.6,13.1,13.1,0,0,0,0-2.8c0-.4-.1-.8-.1-1.2v-2a19.3,19.3,0,0,0-.1-2.5,23.6,23.6,0,0,1-.2-3c0-1.5,0-3.2-.1-4.5a17.7,17.7,0,0,1-.1-2.4V84.6a26.6,26.6,0,0,1-.2-3c0-1.5.1-3,0-4.1s-.5-1.9-.7-3-.1-1-.2-1.3a2.1,2.1,0,0,1,0-.8c0-.2.1-.3.2-.5a1.1,1.1,0,0,1,.8-.3,1.4,1.4,0,0,1,.7.4"/><path class="cls-4" d="M99.8,118.5a.7.7,0,0,1-.1,1.1.8.8,0,0,1-1.1,0,1,1,0,0,1-.2-1c0-.2.1-.3.1-.4h0s.1.4,0,.3.3.3.2.2h.2c-.1,0,.1.1,0,.1a.9.9,0,0,1,.3-1.7l.4.2c.2,0,.3.2.4.4s.1.8,0,.9h0c-.1,0-.1-.3,0-.2s-.2-.4-.2-.3"/><path class="cls-4" d="M98.5,120.1a.8.8,0,0,1,.8-.8.7.7,0,0,1,.8.8V231a.8.8,0,0,1-.8.8.9.9,0,0,1-.8-.8Z"/><path class="cls-5" d="M35,196.8a.8.8,0,0,1-.4,1.1.8.8,0,0,1-1.1-.4c-.2-.4-.1-.4-.1-.4v-.2a1.5,1.5,0,0,0,.1-.7c.2-1.4.1-3,.2-4.7v-2.3c0-.6.1-1.4.1-2v-.8c0-.4.1-.7.1-1v-.6h1.7a7.1,7.1,0,0,0,.1,1.5.8.8,0,0,1-.5,1,.9.9,0,0,1-1.1-.5c-.2-.8-.1-1.6-.2-1.9a.9.9,0,0,1,.8-.8.8.8,0,0,1,.9.7v.5c0,.1-.1.2-.1.4v.8a2.8,2.8,0,0,1-.1.9c0,.6-.1,1.4-.1,2a17.7,17.7,0,0,1,0,2.3c-.1,1.6,0,3.2-.2,4.8v.7H35c0,.1-.1-.3,0-.2m-1.5.1a.8.8,0,0,1,1-.6.9.9,0,0,1,.5,1.1s.1,0-.2.3a.8.8,0,0,1-1.2-1.1c.1-.1-.1.2-.1.2s0,.1,0,.1"/><path class="cls-5" d="M32.8,195.3a.7.7,0,0,1,.5-1,.8.8,0,0,1,1,.5,6.8,6.8,0,0,1,.2,2.1,2.5,2.5,0,0,1,.1.8v.6h-.1l-.2-.2c.1.1-.3-.1-.2,0s-.5,0-.3-.1h-.3l-.3.3c.1-.1-.1.3-.1.3h0v-.3a.8.8,0,0,1,.7-1c.4,0,.9.3.9.7a.9.9,0,0,1,.1.5v.2c0,.1,0,.2-.2.4s-.8.3-1,.2l-.4-.4v-.2a6.4,6.4,0,0,1-.2-.9V197c0-.8-.1-1.7-.1-1.7"/><path class="cls-5" d="M33.8,158a.8.8,0,0,1,1-.5.7.7,0,0,1,.5,1v.2a.8.8,0,0,1-.7.5.9.9,0,0,1-.7-.4l-.2-.4v-1.5c0-.4-.1-.9-.1-1.4a9.5,9.5,0,0,1,0-1.7v-.3h0c0-.1,0-.4.6-.6a1,1,0,0,1,.8.2c.3.3.2.4.3.5v.3c.1.4-.3.8-.7.9a.8.8,0,0,1-.9-.7v-.2h.1l.3.2h.6l.3-.2h.1v-.2h0v1.5c0,.4.1.9.1,1.5v1.3h0s-.2-.4-.1-.3l-.2-.2h-.9c.1,0-.2.2-.1.2s-.2.1-.2.1,0,.2,0,.1"/><path class="cls-5" d="M36.8,151.8a.9.9,0,0,1-.8.8.9.9,0,0,1-.9-.8V120.1a.8.8,0,0,1,.9-.8.8.8,0,0,1,.8.8Z"/><path class="cls-5" d="M36.8,111.3a.9.9,0,0,1-.8.8.9.9,0,0,1-.9-.8V8.7a.8.8,0,0,1,.9-.8.8.8,0,0,1,.8.8Z"/><path class="cls-5" d="M36,9.5a.8.8,0,1,1,0-1.6H67.6a.8.8,0,1,1,0,1.6Z"/><path class="cls-5" d="M83.5,10a.7.7,0,0,1-.8-.8.8.8,0,0,1,.8-.8h31.7a.9.9,0,0,1,.8.8.8.8,0,0,1-.8.8Z"/><path class="cls-5" d="M114.3,9.2a.9.9,0,0,1,.9-.8.9.9,0,0,1,.8.8V111.3a.9.9,0,0,1-.8.8.9.9,0,0,1-.9-.8Z"/><path class="cls-5" d="M114.3,120.1a.8.8,0,0,1,.9-.8.8.8,0,0,1,.8.8v40.4a.9.9,0,0,1-.8.8.9.9,0,0,1-.9-.8Z"/><path class="cls-5" d="M114.3,183.5a.9.9,0,0,1,.9-.9.9.9,0,0,1,.8.9V231a.9.9,0,0,1-.8.8.9.9,0,0,1-.9-.8Z"/><path class="cls-5" d="M114.1,183.5a.9.9,0,0,1,1.5-.8c.1.3,0,.3,0,.3h.1v.4h-.1l-.4-.2a.8.8,0,0,1,.7.9.7.7,0,0,1-.9.7.8.8,0,0,1-.7-.4.8.8,0,0,1-.1-.4,1.3,1.3,0,0,1-.1-.6v-.2h0c0-.1.1.3.1.2m1.4,1.1a.8.8,0,0,1-1.1.3.7.7,0,0,1-.3-1.1c0-.1-.1.2-.1.2h0v-1h0s-.1,0,.1-.3a1,1,0,0,1,1.2-.3.8.8,0,0,1,.2,1.1v-.2h0v1.4m-.2-1.7a.8.8,0,0,1-1.4-.8l.3-.3a.9.9,0,0,1,1.1,0c.4.4.3.6.3.7v1.6h0s-.1-.3-.1-.2a.8.8,0,0,1-.4,1.1.8.8,0,0,1-1.1-.3v-.3a.4.4,0,0,1-.1-.3v-.7c0-.3.1-.6,0-.7h.1c-.1,0,0,.2,0,.2s.3.3.2.2l.2.2h.5l.3-.2h.1"/><path class="cls-5" d="M115.6,120.7a.9.9,0,0,1-.8.9.9.9,0,0,1-.9-.9v-1c.1-.2.1-.5.5-.7h.8a.9.9,0,0,1,.5.6,3.4,3.4,0,0,1,.1.9h0s-.1-.2,0-.1l-.2-.3h-1.1a.8.8,0,0,1,1.2-.1.8.8,0,0,1,.1,1.1l-.3.3a1.4,1.4,0,0,1-1.1-.1c-.4-.5-.2-.6-.2-.8a1,1,0,0,1-.1-.4h.1c0-.1.4.3.2.2h.8l.3-.3c0,.1.1-.3.1-.3v.9m-.7-3a.9.9,0,0,1,.8.8.8.8,0,0,1-.8.9h.5l.2-.2c-.1.1,0-.2,0-.1h0v1.7h0a.9.9,0,0,1-.9.8,1,1,0,0,1-.8-.9h0v-1.2c0-.2.1-.5.1-.7a12362528204854.5,12362528204854.5,0,0,1,.2-.6.9.9,0,0,1,.7-.4"/><path class="cls-5" d="M207.5,175.1a.8.8,0,0,1,.5-1.1.8.8,0,0,1,1,.5.4.4,0,0,1,.1.3c0,.6-.2.5-.3.7a15.8,15.8,0,0,1-1.2,1.5l-1.4,1.8a21.5,21.5,0,0,0-2.1,3.3h0v-.2c.1.1-.2-.4-.1-.3l-.4-.2h-.2l.7-.7a13.7,13.7,0,0,0,1.7-2.3l.7-1.1.3-.6.3-.2a.7.7,0,0,1,1.2.2.8.8,0,0,1,.2.4c0,.2-.1.3-.1.4a10,10,0,0,1-.8,1.4l-1.1,1.7-.4.7h0s-.2-.4-.1-.3l-.3-.3h-.5l.6-.7,1.1-1.1.4-.5.4-.5.5-.2.6.2a.7.7,0,0,1,.3.6,1.1,1.1,0,0,1-.1.6,8.6,8.6,0,0,1-1,1.6c-.4.6-.9,1.1-1.1,1.5l-.2.3v-.5l-.2-.3-.4-.2h-.5l.5-.6a7.1,7.1,0,0,0,1.2-1.3l.5-.4a1.1,1.1,0,0,1,.5-.4.8.8,0,0,1,1,.2.8.8,0,0,1,.3.8,2.6,2.6,0,0,1-.9,1.6c-.1.1-.1,0-.1.1v-.2s-.1-.3,0-.2l-.2-.3-.3-.2h-.5l.4-.3.9-1c.1-.1.1-.3.7-.3a1.1,1.1,0,0,1,.7.3l.2.5a2,2,0,0,1-.1.5l-.5.7-.5.7-.6.9a.8.8,0,0,1-1.2.1.8.8,0,0,1-.1-1.1,2.5,2.5,0,0,0,.5-.8l.5-.7.4-.5h0v.2s.1.3.1.2.2.4.1.3.4.3.3.3.4,0,.3,0,.4-.1.3,0,.1-.1.1-.1h0a7.5,7.5,0,0,1-.9.9c-.2.2-.3.6-.9.8h-.3a1,1,0,0,1-.7-.2.7.7,0,0,1-.2-.6v-.3l.3-.7.5-.6.2-.2h0v.3l.2.2.4.2h.5l-.2.2-.4.4-1.2,1.2a3.2,3.2,0,0,1-.8.9h-.3a1.3,1.3,0,0,1-.8-.2.7.7,0,0,1-.3-.7v-.2l.3-.7,1.1-1.6.9-1.2h0v.2c0-.1.1.2,0,.2h.1c0-.1.3.2.2.2h1l-.2.2-.5.6-1.1,1.1a3.1,3.1,0,0,1-1,1l-.4.2h-.6a1,1,0,0,1-.5-.7.7.7,0,0,1,.1-.5,2.4,2.4,0,0,1,.5-1,17.4,17.4,0,0,1,1.1-1.8l.7-1.1s-.1.2,0,.1v.4c-.1-.1.1.3.1.2l.2.2h.6c-.2,0,.2-.1.2-.1s.1-.1.1,0,.1-.2.1-.2a1.5,1.5,0,0,1-.3.6l-.7,1.1a21.4,21.4,0,0,1-1.9,2.6l-.8.8-.5.3a.9.9,0,0,1-.8.1,1,1,0,0,1-.6-.5.4.4,0,0,1,0-.5.9.9,0,0,1,.1-.5,17.1,17.1,0,0,1,2.3-3.7l1.4-1.8,1.1-1.4h.1c0-.1-.1.2,0,.1s.1.5,0,.4m0-4.7a.8.8,0,1,1,1.2,1.1h0l-.2.4-1.6,1.9-1.9,2.3a26.3,26.3,0,0,0-2.5,3.5,2.4,2.4,0,0,0-.6,1.1l-.2.3h.1v-.2c.1.1-.2-.4-.1-.3l-.4-.3h-.5a7.8,7.8,0,0,0,1.6-1.8l2-2.5,2-2.4.8-1.1.4-.5c.1,0,.1-.1.2-.2s-.1-.2.6-.3h.5a1,1,0,0,1,.4.5,1.6,1.6,0,0,1,0,.7,16.1,16.1,0,0,1-2.2,3,19.5,19.5,0,0,0-1.7,2.3,24.8,24.8,0,0,0-1.8,2.4l-.6,1v.2h0s-.1-.3,0-.2-.3-.3-.2-.3l-.3-.2c.1.1-.2,0-.2,0h0l.8-.7a20.8,20.8,0,0,0,2.9-3.5l1-1.3.5-.6.2-.2a.1.1,0,0,1,.1-.1c.1-.1.1-.3.6-.2a.8.8,0,0,1,.8.8.9.9,0,0,1-.9.8h.5l-.5.6-1,1.3a27.2,27.2,0,0,1-3.1,3.8l-.9.7-.5.3a1.3,1.3,0,0,1-.9.1,1.5,1.5,0,0,1-.5-.6c-.1-.2,0-.3,0-.5s.1-.3.1-.5l.7-1.3a27.7,27.7,0,0,1,1.9-2.5,19.5,19.5,0,0,1,1.7-2.3,26.5,26.5,0,0,0,1.9-2.5h0c0-.1.1.4,0,.2s.2.4.2.3l.2.2h.8l-.4.5-.9,1-1.9,2.4c-.7.9-1.4,1.7-1.9,2.5l-1.3,1.5c-.4.4-.7.8-1.2.9s-.3.1-.5,0a1.2,1.2,0,0,1-.6-.6c-.1-.3,0-.5.1-.5s.1-.3.1-.5l.8-1.4a28.4,28.4,0,0,1,2.6-3.6l1.9-2.3,1.6-1.9.2-.4h.1m-1-.3a.8.8,0,0,1,.8-.8.8.8,0,0,1,.9.8v.3a13.6,13.6,0,0,1-1.2,1.7c-.6.9-1.6,2-2.4,3.1a17.4,17.4,0,0,0-1.8,2.2,24.3,24.3,0,0,0-1.4,2.2.4.4,0,0,0-.1.3h0v-.2c.1.1-.4-.3-.3-.3h-.2l.2-.2c.3-.1.7-.6,1.2-1.2l1.4-1.8c1-1.2,1.8-2.2,2.5-3.2l.8-1.3a3,3,0,0,0,.6-.9h0a.9.9,0,0,1,1-.6,1,1,0,0,1,.6,1v.2l-.8,1.2a8,8,0,0,1-.9,1.4c-.7,1-1.6,2.1-2.5,3.2l-1.5,1.9c-.5.5-.9,1.1-1.4,1.5l-1,.4h-.6a.7.7,0,0,1-.5-.4,1,1,0,0,1-.1-.9,1.4,1.4,0,0,1,.2-.6l1.6-2.5,1.8-2.3c.9-1.1,1.8-2.1,2.4-3l1-1.3h-.1v.2m-1.2-.5a.9.9,0,1,1,1.1,1.3c-.1,0,0-.1,0-.1h0c-.4.4-1.1,1.4-2,2.6l-3.4,4.1a14.2,14.2,0,0,0-1.8,2.9v-.2h-.4l.9-.9,1.6-1.9,3.8-5a13.6,13.6,0,0,0,1.2-1.7l.4-.7v-.2l.3-.2a.7.7,0,0,1,1.1.3.8.8,0,0,1-.2,1.1c-.2.1.1-.2.1-.1h0l-.5.7-1.2,1.8-3.9,5.1c-.5.6-1,1.4-1.6,2l-1.2,1-.5.3a1.1,1.1,0,0,1-1,0c-.2-.1-.3-.4-.4-.5a1.1,1.1,0,0,1-.1-.5c.1-.2.1-.4.2-.6a14.6,14.6,0,0,1,2-3.4l3.4-4.1,2-2.7a.1.1,0,0,0,.1-.1h.1m-2.4-.8a.8.8,0,0,1,1.1-.5.7.7,0,0,1,.4,1c0,.2-.1.2-.1.3h-.1l-1.4,1.7-1.8,2-1.7,1.8a11,11,0,0,0-1.5,2v.2h0v-.4h-.3l.4-.2a11.6,11.6,0,0,0,2.4-2.5,32.4,32.4,0,0,0,2.6-3.8l.5-.8.2-.2h0s-.1.2,0,.1v.5l.2.3.4.2h.5c-.1.1.1,0,.1,0h0l-.4.4-2.8,3.5-2.9,3.9a6.9,6.9,0,0,0-.6,1.3.4.4,0,0,0-.1.3s-.1-.1,0-.1l-.3-.2h0a8.6,8.6,0,0,0,1.8-1.4,23.7,23.7,0,0,0,2.5-2.9,22.3,22.3,0,0,0,2-3l.9-1.3.5-.8h0a.8.8,0,1,1,1.5.7c-.1.2-.1.1-.1.1h-.1l-.4.8c-.3.3-.5.8-.9,1.3a31.5,31.5,0,0,1-2,3.1,28,28,0,0,1-2.8,3.1,5.6,5.6,0,0,1-2.5,1.8H197a1.6,1.6,0,0,1-.8-.6,2.6,2.6,0,0,1,0-1.5,5.6,5.6,0,0,1,.9-1.7l2.9-4c1.1-1.3,2.1-2.7,2.8-3.6l.5-.5.3-.2h.5c.3,0,.7.3.7.6s0,.5,0,.6h-.1l-.2.4-.5.8a33,33,0,0,1-2.8,3.9,12.6,12.6,0,0,1-2.7,2.9l-1.1.4h-.6a1.3,1.3,0,0,1-.7-.6,1.1,1.1,0,0,1,0-.8,1.4,1.4,0,0,1,.2-.6,22.2,22.2,0,0,1,1.8-2.2,14.5,14.5,0,0,1,1.7-1.9l1.7-2,1.4-1.6h.1v.2m-2.4.5a.8.8,0,0,1,1.2.1.8.8,0,0,1-.1,1.1h0l-.2.2-1.5,1.8-1.3,1.5a11,11,0,0,0-1.2,1.6h-.1v-.2c0,.1-.1-.2,0-.2l-.2-.2h-.3l.4-.2a11.1,11.1,0,0,0,1.5-1.2l2-2.1,1.4-1.6.6-.9.4-.4h.1a.8.8,0,0,1,1.2.2,1,1,0,0,1-.3,1.2c-.1,0,.1-.2.1-.1h0l-.2.3-.7.9a9.6,9.6,0,0,1-1.4,1.7l-2.1,2.2a13,13,0,0,1-1.8,1.5l-.9.3h-.6a.9.9,0,0,1-.6-.3,1.4,1.4,0,0,1-.2-.6v-.4l.3-.5a15.5,15.5,0,0,1,1.3-1.7l1.3-1.6,1.6-1.8.3-.3h0m-4,2.8a1,1,0,0,1-1.2-.3.8.8,0,0,1,.4-1.1c0-.1-.2.1-.1,0h-.1a2.2,2.2,0,0,1,.5-.6,8.6,8.6,0,0,1,.7-1l.5-.6.6-.3a1.3,1.3,0,0,1,.9.5,2,2,0,0,1,.1.7c-.1.1-.1.2-.2.4a19.1,19.1,0,0,1-2.2,3l-.7.9h0v-.2c0,.1-.1-.4-.1-.3s-.1-.2-.1-.2h-.2c.2,0-.5-.2-.3-.2h-.3l1.1-1,1.5-1.6,1.2-1.4.7-.7a1.1,1.1,0,0,1,.5-.4.8.8,0,0,1,.7,0,.9.9,0,0,1,.5.9c-.1.3-.2.3-.2.4a28.5,28.5,0,0,1-2.2,2.8l-1.8,2.1-1,1.4h0c0,.1-.2-.4-.1-.3l-.4-.2h.1l.7-.5a11,11,0,0,0,1.6-1.5l2-2.5.6-.8h0a1,1,0,0,1,1.1-.5.8.8,0,0,1,.4,1.1h-.1l-.7.9a30,30,0,0,1-2.1,2.6l-1.8,1.7-.9.6a1.3,1.3,0,0,1-1.1.3.7.7,0,0,1-.6-.3.9.9,0,0,1-.3-.6,1.2,1.2,0,0,1,.2-1,6.6,6.6,0,0,1,1.1-1.6l1.9-2.2a21.2,21.2,0,0,0,2-2.5h0s-.1.3-.1.1.1.5.1.4v.2l.3.3h.2c-.1-.1.4-.1.3-.1h.1s.2-.1.1,0h-.1l-.6.6-1.2,1.4-1.6,1.7a6.9,6.9,0,0,1-1.3,1.1l-.4.2a.8.8,0,0,1-.8-.1l-.3-.4a.8.8,0,0,1-.1-.4c.1-.2.1-.4.2-.5a7.6,7.6,0,0,1,.8-1.1,19.8,19.8,0,0,0,2-2.7c.1,0,0,.1,0,0h0s.2.4.1.3l.3.3h.8l-.3.5a2.7,2.7,0,0,0-.7.8,2.8,2.8,0,0,1-.7.9h-.1m1.6-2.8a.9.9,0,0,1-1.1,1.3h.7l-.3.3-.5.6h0a.9.9,0,0,1-1,.7.8.8,0,0,1-.6-.9V171h.1l.3-.4.4-.5.6-.6.5-.3.9.2"/><path class="cls-5" d="M195.9,175.1c0-.4.5-.7.9-.7a.9.9,0,0,1,.7,1h0l-.2.3-.4.8-.5,1.4h0c0,.1-.2-.3-.1-.2l-.2-.2-.3-.2h-.2l.4-.4.5-.3a.6.6,0,0,1,.6-.1.9.9,0,0,1,.6.7,2.1,2.1,0,0,1-.4,1.7c-.3.8-.7,1.5-.7,1.7v-.2h-.1l-.2-.2h-.1l.2-.2a1.2,1.2,0,0,1,.7-.4,1.1,1.1,0,0,1,.7.3.9.9,0,0,1,.3.6,2.1,2.1,0,0,1-.3,1.3l-.3.6v.2h0V182c.1.1-.2-.3-.1-.2l-.4-.2h-.4l.4-.3.8-.9.5-.5a.7.7,0,0,1,.6-.1.7.7,0,0,1,.6.3.7.7,0,0,1,.2.6,1.5,1.5,0,0,1-.2.9h0v-.2c0,.1-.2-.3-.1-.2l-.3-.2h-.3l.9-.3h.6a1.5,1.5,0,0,1,.7.5,1.5,1.5,0,0,1,.1,1.3.8.8,0,0,1-1,.7,1,1,0,0,1-.6-1v-.3h0s.2.2.1.2h.5a2.1,2.1,0,0,1-1.3.4.9.9,0,0,1-.7-.4.6.6,0,0,1-.2-.5,1.9,1.9,0,0,1,.1-.8h.1c0-.1.2.3.1.2s.3.3.3.2h.3c-.1,0,.4-.1.3,0h.2c-.1,0,0-.1,0,0l-.3.2-.8.9a1.9,1.9,0,0,1-.7.6l-.4.2h-.3a1.4,1.4,0,0,1-.8-.6q-.2-.4,0-.6c0-.2,0-.3.1-.4l.3-.6a.8.8,0,0,1,.2-.5h0s.1.3,0,.2l.2.3.4.2h.5l-.7.5a1.2,1.2,0,0,1-1,.2,1,1,0,0,1-.8-.5,1,1,0,0,1-.1-.9,7.7,7.7,0,0,1,.8-1.9l.3-.7v-.2h0s.1.2,0,.1l.2.3.4.3h.4a2,2,0,0,1-.5.5.9.9,0,0,1-.6.3h-.4l-.4-.2a1,1,0,0,1-.4-.5,2.2,2.2,0,0,1,0-.8,8.8,8.8,0,0,1,.6-1.7l.5-.9h0m1.4.7a.8.8,0,0,1-1.1.3,1,1,0,0,1-.3-1.2h.1s-.1,0,.1-.2a.9.9,0,1,1,1.1,1.3c-.1,0,.1-.2.1-.1h.1c-.1,0-.1,0-.1.1"/><path class="cls-5" d="M207.5,169.1a.8.8,0,0,1,1.1-.3.8.8,0,0,1,.2,1.2h0c0,.1.1-.2.1-.1s-.1-.4,0-.3l-.2-.3-.2-.2H208l-.2.2c.1-.1,0,.7-.1.5s.3.5.2.4h.2a.8.8,0,1,1,.8-1.4,1.6,1.6,0,0,1,.5.6,1.2,1.2,0,0,1-.3.8.8.8,0,0,1-.7.3.9.9,0,0,1-.9-.3.7.7,0,0,1-.2-.7.6.6,0,0,1,.2-.5"/><path class="cls-5" d="M205.1,170.3a.8.8,0,0,1-1,.6c-.4,0-.7-.5-.7-.9l.2-.5a1,1,0,0,1,.6-.5h.6l.3.2v.2h.1v.2h-.8l.4-.3c.2-.2.3-.6.9-.8s.5-.2.6-.1h.4l.3.3a1.1,1.1,0,0,1,.2.9c-.1.1-.1.3-.2.4s-.1.5-.2.6v-.2c0,.1-.1-.2,0-.1l-.2-.2h-.3l.5-.2h.7c.3,0,.7.4.9.7a1.8,1.8,0,0,1-.1,1.3c-.1.5-.3.8-.3,1h0c0,.1-.2-.3-.1-.2l-.4-.2h-.3l.3-.2a5.7,5.7,0,0,0,.8-.8h.7l.4.2a.9.9,0,0,1,.3.6c.2.6-.1.8-.2,1.1a10.4,10.4,0,0,1-.4,1,1.6,1.6,0,0,0-.3.9.8.8,0,0,0-.1.4c0,.1-.1-.4,0-.3s-.2-.2-.1-.2h-.1l.3.3a1.8,1.8,0,0,1,.1,1.6c-.1.4,0,.8-.7,1.2a1,1,0,0,1-1.2-.3.8.8,0,0,1,.4-1.1h-.2a.4.4,0,0,0,.1-.3.5.5,0,0,0,.1-.3h0s.1.2,0,.2.2.1.1.1h0l-.2-.2a1.1,1.1,0,0,1-.2-.6,2.2,2.2,0,0,1,.1-.8c.1-.3.2-.7.4-1.2l.4-.9a.8.8,0,0,0,.1-.3h0c0-.1.1.2,0,.1s.3.4.2.3h1c-.1,0-.3.4-.8.7l-.4.3a1.2,1.2,0,0,1-.9.2,1.4,1.4,0,0,1-.8-.7,2.2,2.2,0,0,1,0-.8,9.2,9.2,0,0,0,.3-.9,4.3,4.3,0,0,1,.1-.5h0l.2.3h.5a1.8,1.8,0,0,1-1.3.4,1.6,1.6,0,0,1-.8-.6,1.5,1.5,0,0,1-.2-.9l.3-.8h.1c-.1-.1.1.3.1.2h.8a2.3,2.3,0,0,1-.7.6l-.3.4-.4.2h-.7a1,1,0,0,1-.7-.6v-.2h.1l.2.2h.8v-.2h.1"/><path class="cls-5" d="M207.7,173.9a.8.8,0,0,1,1.5.5c-.1.5-.2,1.7-.3,3s-.2,1.2-.3,1.6l-.2.7h0s-.1-.3-.1-.2-.1-.2-.1-.2-.5-.2-.3-.2h-.8a.7.7,0,0,1,1.1-.2.7.7,0,0,1,.2,1.1v.2c-.1.1-.1.2-.6.3a1.3,1.3,0,0,1-.8-.3,1.1,1.1,0,0,1-.1-.5v-.2a2.4,2.4,0,0,1,.2-.8l.3-1.5a16.6,16.6,0,0,1,.4-3.3"/><path class="cls-5" d="M199,176.4a.8.8,0,0,1-.8.8c-.4.1-.8-.3-.8-.8h0s.1.2,0,.2h.1s.3.2.2.2h.7c-.2,0,.3-.2.2-.2h.1a2.4,2.4,0,0,0-.3.7,2.6,2.6,0,0,0-.3,1.1v.2h0c0,.1-.2-.3-.1-.2s-.5-.3-.3-.3h-.5l.4-.5a7.3,7.3,0,0,0,.9-1.3,1,1,0,0,1,.4-.5l.2-.2c.1,0,.3-.2.6,0a.8.8,0,0,1,.6.7v.3a2.6,2.6,0,0,1-.4.9l-.4.9h0s-.1-.3,0-.2l-.3-.3h-.2a1,1,0,0,1,.9.7.8.8,0,0,1-.8.9c-.1.1-.3,0-.5,0a1.2,1.2,0,0,1-.5-.5c-.3-.3-.2-.6-.2-.9a6.9,6.9,0,0,1,.5-1.3l.3-.6h0s.2.5.1.4l.2.2h.8c-.1,0,.1-.1.1,0s.1-.1.1-.1v.2a7.7,7.7,0,0,1-1,1.5l-.7.7-.4.2h-.4a1,1,0,0,1-.7-.4.9.9,0,0,1-.1-1.1,6.1,6.1,0,0,1,.3-1.3,4.6,4.6,0,0,1,.5-1c.1-.2,0-.4.6-.6a1,1,0,0,1,1,.5.8.8,0,0,1,.1.4"/><path class="cls-5" d="M195.1,170a.9.9,0,0,1,0-1.2.7.7,0,0,1,1.1.1c.4.3.3.4.3.4v1.2s-.1-.3,0-.2l-.2-.2c.1.1-.5-.2-.3-.2h-.8v-.6h0v-.3l.4-.4a.7.7,0,0,1,.6-.1h-.2a.9.9,0,0,1,.9,0h1.1a.8.8,0,0,1-.7,1.5h-1.1l-.4-.2c-.1,0-.1,0-.1-.1s.2.1.1.1h.5l.3-.2v-.2h.1v.4a1.1,1.1,0,0,1-.2.9l-.2.3-.3.2a.6.6,0,0,1-.6.1.6.6,0,0,1-.5-.5.4.4,0,0,1-.1-.3.4.4,0,0,0-.1-.3c0-.2.1-.4,0-.6s.1-.2,0-.2h.1v.2c0-.1.3.3.2.2m.6,1.8a.8.8,0,0,1-1.1-.4.8.8,0,0,1,.4-1.1l-.3.2h-.1c.1-.1,0,.1,0,.1h0v-.2a.6.6,0,0,0,.1-.4.8.8,0,0,1,.1-.4v-.6h0a.8.8,0,1,1,1.5.7h0v.2a.6.6,0,0,1-.1.4,1.3,1.3,0,0,1-.1.6.4.4,0,0,1-.1.3h0v.2l-.3.3m-.4-3.6a.8.8,0,0,1,1,.6.9.9,0,0,1-.6,1h.2l.2-.2h.1c-.1.1,0-.1,0-.1h0a.8.8,0,0,1-.1.4v1.2s-.1-.2,0-.1l-.2-.3-.2-.2h-.3a.8.8,0,0,1,.7,1,.8.8,0,0,1-.9.7l-.5-.3c-.1-.2-.2-.3-.2-.4v-.5c-.1-.1,0-.3,0-.4s0-.5,0-.9a.6.6,0,0,0,.1-.4.4.4,0,0,1,.1-.3h0c.1-.1.2-.4.6-.4m.4,3.4a.8.8,0,0,1-1.1-.1.9.9,0,0,1,.1-1.2c.1,0-.1.1,0,.1h-.1v-1.2c0-.1.1-.2.1-.3h0v.2h0c-.2-.4.1-.8.5-1a.7.7,0,0,1,1,.5c.1,0,.1,0,.1.1h0v.9a3.2,3.2,0,0,1-.2,1.3c0,.1-.1.1-.1.2h-.1v.2h-.1m.5-2.2a.9.9,0,0,1-.7.9.8.8,0,0,1-.9-.8s.1.3,0,.2l.2.2c-.1,0,.2.2.1.1h.9l.2-.2c-.1.1.1-.2.1-.2s0,0-.1.2v1h0v-.2h0v-.2h-.2a.8.8,0,0,1,.4,1.1.8.8,0,0,1-1.1.3c-.5-.2-.5-.5-.5-.5a1,1,0,0,1-.1-.7,4.3,4.3,0,0,0,.1-.5v-.4c0-.1-.1-.2.2-.6l.2-.3.8-.2a.8.8,0,0,1,.5.5.8.8,0,0,1,.1.4"/><path class="cls-5" d="M194.9,178.5a.8.8,0,0,1,.5-1.1.8.8,0,0,1,1,.5h.1v1.2h0a3.1,3.1,0,0,0,.1,1v.4h0a.9.9,0,0,1-.9.8.9.9,0,0,1-.8-.8h0v-.5a.9.9,0,0,1,.8-.8.9.9,0,0,1,.9.8v.9h0v.2h0v-.2c.1.1-.2-.3-.2-.2h9.6l.5.2h2.1a1.1,1.1,0,0,1,.7.3l.3.4h0a.8.8,0,0,1-.3,1.1,1.1,1.1,0,0,1-1.2-.3v-.3l.2.3c-.1-.1.2.1.1.1s.1,0,0,0h-4s.1-.1,0-.1-.1.1-.3.2h-8.4l-.4-.4c-.2-.2-.1-.4-.2-.5v-1.4a.9.9,0,0,1,.8-.8.9.9,0,0,1,.9.8v.5h0a.9.9,0,0,1-.9.8.9.9,0,0,1-.8-.8h0v-1.4h0v-1h0m.9,2.2a.8.8,0,1,1-.4-1.6h-.2l-.3.2c.1,0-.1.2,0,.2h-.1v-1.5h.1a.8.8,0,0,1,1-.6.9.9,0,0,1,.5,1.1h.1v.2a.9.9,0,0,0-.1.5v1.3c0,.1-.1.3-.5.4m-1.1-4.1a.8.8,0,0,1,.1-1.2.7.7,0,0,1,1.1.2.4.4,0,0,1,.2.5h.1V179c0,.1.1.2.1.4v.2h0s-.1-.2,0-.1h-.2a.8.8,0,0,1,.1,1.1.8.8,0,0,1-1.1.2H195v-.2h-.1a.5.5,0,0,1-.1-.5.7.7,0,0,1-.1-.5.9.9,0,0,0-.1-.5v-2.5h0c0-.1.3.4.2.3m1.4-.8a.9.9,0,0,1-.5,1.1.9.9,0,0,1-1.1-.6.9.9,0,0,1,.1-.7.8.8,0,0,1,1.4.9c-.1.1.1-.4.1-.3s-.1-.5,0-.4m.1,3.3a.7.7,0,0,1-.7.9.9.9,0,0,1-.9-.8h0v-2.8h0a.7.7,0,0,1,.9-.7.7.7,0,0,1,.7.9h0v1.6c0,.2,0,.3.1.4h0v.8h-.1m-1.7-4.7a.8.8,0,0,1,.7-.9.7.7,0,0,1,.9.7h0v2.3c0,.1.1.2.1.3v1.9H196a.8.8,0,0,1-1.1,1.2c-.4-.4-.3-.4-.3-.4v-.2a4.3,4.3,0,0,1-.1-.5v-4.4h0m1.7.4a.9.9,0,0,1-.8.8.9.9,0,0,1-.8-.9h0s.1.2,0,.1h.1l.3.2a.8.8,0,0,1-.4-1.1.7.7,0,0,1,1-.4c.5.3.4.4.4.4a.8.8,0,0,1,.2.6v.3"/><path class="cls-5" d="M195.9,169.8a.8.8,0,0,1-1.1-.3.7.7,0,0,1,.3-1.1h.1a.9.9,0,0,1,1.1.3,1,1,0,0,1-.3,1.2h-.1m3.1.3a.8.8,0,1,1,.7-1.5H204l-.2.3v.4c-.1-.1.1.2.1.2h-2.3l-.2-.2c-.1,0,0,.1,0,.1H196a.9.9,0,0,1-1.2-.2.7.7,0,0,1,.2-1.1.7.7,0,0,1,.7-.2h4.4c.2.1.1.1.1.1h4.7a1,1,0,0,1,.4.5c0,.1.1.2.1.4a.7.7,0,0,1-.3.7l-.5.3h-5.3s0,.1-.3-.1m10.4,9.5a.9.9,0,0,1-1.1.2.8.8,0,0,1-.2-1.2v.2c0-.1-.1.3-.1.2h0v-2.2a1.3,1.3,0,0,0-.1-.6v-5.8h0a3.5,3.5,0,0,1-.1-.6v-.3h0c0-.1.2.2.1.2h.3l-.4-.2v-.2h.3a1.5,1.5,0,0,1-.7,0c-.1.1-.1,0-.1.1s.1-.1.1-.1a.1.1,0,0,0-.1.1h-7.7a.8.8,0,0,1-.9-.8.8.8,0,0,1,.8-.8h8.2a1,1,0,0,1,.8-.1c.1,0,.3,0,.6.4h-.1c.2.1.4.3.4.4h.1v.6a3.5,3.5,0,0,1,.1.6.4.4,0,0,1,.1.3v6.2a2.8,2.8,0,0,1,0,1.3v.9h0c0,.1.1.2-.2.6m-1.3-6.6a1,1,0,0,1-.3-1.2.8.8,0,0,1,1.1-.3c.5.3.4.5.4.6a.3.3,0,0,1,.1.2v6.3h-.1a.8.8,0,0,1,0,1.2.8.8,0,0,1-1.1,0c-.2-.1-.2-.2-.2-.3h-.1c0-.1-.1-.2-.1-.4v-6.2a.4.4,0,0,1-.1-.3h.1c-.1-.1,0,.2,0,.1v.2l.2.2m.4,7.5a.9.9,0,0,1,.9.8,1.1,1.1,0,0,1-.8.9.6.6,0,0,1-.6-.3l-.3-.3v-.3a.6.6,0,0,1-.1-.4v-.4a.4.4,0,0,0-.1-.3V180c0-.1,0-.2-.1-.2v-2.6h0a.6.6,0,0,0,.1-.4v-.9h0v-.3h0v-.5a.2.2,0,0,1,0-.3v-.2c0-.1-.1-.2,0-.3v-.5a.8.8,0,0,1,.1-.4v-.6h.1v-.3h0a1,1,0,0,1,1-.7.8.8,0,0,1,.6,1h0v.4h0v.4a1.1,1.1,0,0,0-.1.5c-.1,0-.1.1-.1.2v.2h0v1.1h0v2h0a.8.8,0,0,0-.1.4v.9a1.9,1.9,0,0,0,.1.8v.2a.3.3,0,0,0,.1.2v.4a1.1,1.1,0,0,0,.1.5v.3s-.1-.2,0-.1l-.2-.3c0,.1-.4-.2-.3-.1h-.3"/><path class="cls-4" d="M195.7,138a.8.8,0,0,1-.5-1,.7.7,0,0,1,1-.5h.1a.7.7,0,0,1,.5,1,.8.8,0,0,1-1,.6h-.1m13.5,13.1a.8.8,0,0,1-1.1.1.8.8,0,0,1-.1-1.2.9.9,0,0,1,.6-.3h-.3l-.2.2c.1-.1,0,.2,0,.1h0v-.5a4.9,4.9,0,0,1-.1-1.2v-1.1a.3.3,0,0,0-.1-.2h0v-.8a.8.8,0,0,0-.1-.4v-1.3c0-.3.1-.6.1-.8v-2.4a2,2,0,0,1,.1-.7v-1.9h0v-.6h0c-.1-.1,0,.1,0,.1h0a.4.4,0,0,1-.1-.3h-.1s.1.2.1.1h-.1v.2c0-.1.3.2.3.2h-5.6c0,.1-.1.1-.3.2h-6.3c-.4-.1-.8-.5-.7-.9a.8.8,0,0,1,.9-.8h5.5c.1-.1,0,0,0-.1h.2l.7-.2h2.8l.6.2h2.4a.8.8,0,0,1,.8.3v.3c.1.1,0-.1,0,0v.2h0a.3.3,0,0,0,.1.2v.7h0a1.2,1.2,0,0,1,.1.5c.1.1,0,.2,0,.3v.4a.8.8,0,0,1,0,.7v3.1a.8.8,0,0,1-.1.4v3.2c0,.1.1.2.1.3v1.3c0,.4.1.8.1,1.3v.7a1.5,1.5,0,0,1-.2.6.9.9,0,0,1-.7.4h.1s.2-.1.1-.1.3-.2.2-.1m-11-5.3a.8.8,0,0,1-.1,1.2.7.7,0,0,1-1.1-.1c-.1,0,.2.2.1.2h.7c-.1,0,.2-.2.1-.2h.1l-.2.5a2.5,2.5,0,0,0-.2.7,1.3,1.3,0,0,1-.1.6c0,.2-.1.3-.1.4v.8h0s-.1-.3,0-.2v-.2l-.2-.2.3.3a.8.8,0,0,1,.1.4h0v-.2s-.1-.2-.1-.1-.3-.2-.2-.2h5.1l.4.2H207c.1,0,.2-.1.4,0h.8l-.3.2h.1a.8.8,0,0,1,1.1-.1.8.8,0,0,1,.1,1.2h0a1,1,0,0,1-.7.4h-5.2a2.3,2.3,0,0,1-1.1-.1h-5.3a.7.7,0,0,1-.7-.2c-.1,0-.3-.2-.4-.4v-.2s.1.1,0,.1.2.2.1.2h.1l-.3-.4c-.1-.2,0-.3,0-.3h0v-1.1c.1,0,.1-.1.1-.2v-.2c0-.2.1-.4.1-.6a1.9,1.9,0,0,1,.2-.7l.3-.9c0-.1,0-.2.3-.4a.6.6,0,0,1,.5-.2h.3a.8.8,0,0,1,.6.2m-.9-1.3a.8.8,0,1,1,1.2-1.1v.2a.3.3,0,0,1,.1.2v2.1a1.9,1.9,0,0,1-.2.7l-.2.2-.4.3a.8.8,0,0,1-1.1-.4.9.9,0,0,1,.4-1.1c.1,0-.2.2-.2.2h-.1c.1-.2.2-.2.2-.2h0v-.4a3.3,3.3,0,0,1,0-1v-.3s.1.3,0,.2.2.3.2.2m1.3,0a.9.9,0,0,1-1.1.5.8.8,0,0,1-.4-1.1H197c.1,0,0,.1,0,.1h0a.6.6,0,0,1,.2-.5v-.2a.9.9,0,1,1,1.1,1.3h.1c-.1.1.1-.4.1-.3v.3h0m-1.4-3.3a.8.8,0,0,1,.7-1,1,1,0,0,1,.9.7h0c0,.3-.1.6-.1.9a3.4,3.4,0,0,0-.1,1v1h0s-.1-.3-.1-.2a.8.8,0,0,1-.3,1.1.7.7,0,0,1-1.1-.3,1.1,1.1,0,0,1-.2-.9v-.9c.1-.3.1-.6.2-1a5.6,5.6,0,0,1,.1-.7h0m-1.7-2.9a.9.9,0,0,1-.6-1,1,1,0,0,1,1.1-.6h.2a2,2,0,0,1,.5.5l.2.4c.1.1.1.3.2.5a6.5,6.5,0,0,1,.4,1.3,2.9,2.9,0,0,1,.2.9,1.3,1.3,0,0,1,.1.6v.7a1.3,1.3,0,0,1,.1.6c.1,0,.1.1.1.2h0l-.3-.2c.2.1-.6.1-.5.1h-.3v-.2a.6.6,0,0,0,.1-.4c0-.3.1-.5.1-.8V141h.1c0-.1-.1-.1.2-.4a.8.8,0,0,1,1.2,1.1v-.2c0,.1.1-.1,0-.1h.1c0,.1-.1.2-.1.3a2.5,2.5,0,0,1-.1.8,1.3,1.3,0,0,1-.1.6.8.8,0,0,1-.1.4c-.1.1-.1.4-.5.6a1.2,1.2,0,0,1-.9-.1l-.2-.2a.8.8,0,0,1-.2-.4l-.3-.5c0-.3-.1-.6-.1-.9v-.7c0-.2-.1-.3-.1-.4a2.4,2.4,0,0,0-.2-.8l-.3-1.1c0-.1-.1-.2-.2-.3s-.1-.2-.1-.3h0c-.1-.1.2.1.1.1h.1m1.1,11.4a.8.8,0,0,1-1.5.7H195v-3.1a6.1,6.1,0,0,1,.2-1.5v-2.7a.4.4,0,0,0,.1-.3v-1.3a2,2,0,0,1-.1-.5c0-.1-.1-.2-.1-.3a.8.8,0,0,0-.1-.4v-1h0a1.1,1.1,0,0,1-.1-.5v-.5h0a1.1,1.1,0,0,1,0-.6c.1-.1,0,.1,0,.1s-.1-.2.2-.5a.8.8,0,0,1,1.1-.1.8.8,0,0,1,.2,1.1v1.5a.6.6,0,0,0,.1.4v.3a.4.4,0,0,1,.1.3c0,.2.1.5.1.8v3a1.1,1.1,0,0,0-.1.5v.9c0,.5-.1,1-.1,1.4V149a.9.9,0,0,0-.1.5v.3h0m-1.5-11.8a.8.8,0,1,1,1.4-.8c.1.1.1.1.1.2v1h.1c0,.2.1.3.1.5a2.4,2.4,0,0,1,0,1.2v5.3h0a.8.8,0,0,0,.1.4v3.2a.4.4,0,0,0-.1.3.4.4,0,0,1-.1.3v.3h0a.3.3,0,0,0-.1.2,1,1,0,0,1-.4.5c-.1,0,0-.1,0-.1s-.1.1-.2.1a.7.7,0,0,1-1-.5c-.2-.4,0-.8.5-1h0l-.3.2v.2h-.1c.1,0,.1-.1.1-.2a.4.4,0,0,1,.1-.3v-2.2a2.5,2.5,0,0,0,.1-.8v-.2c-.1-.1-.1-.2-.1-.4v-6.5a3090632051233.5,3090632051233.5,0,0,1-.2-.6v-.7H195c0-.1.1.1.1.1m1.5-.4a1,1,0,0,1-.7.9.8.8,0,0,1-.9-.8s-.2.1,0-.4a.9.9,0,0,1,1.1-.5.8.8,0,0,1,.4,1.1v-.2h0"/><path class="cls-4" d="M206.8,141.2a.7.7,0,0,1,1.1-.2.8.8,0,0,1,.2,1.2h0v.2a.9.9,0,0,1-1.2.1.8.8,0,0,1-.1-1.1v-.2h0m.8,2.8a.8.8,0,0,1-1.1,0,.7.7,0,0,1-.1-1.1h0v-.3c0-.3.1-.5.1-.7v-.2h0a.8.8,0,0,1,.6-.9.8.8,0,0,1,1,.6h0c.1.5,0,.5-.1.6s-.1.6-.1.8,0,.5-.3.9l-.2.2h0m-.1-1a.7.7,0,0,1-1.1.2.8.8,0,0,1-.3-1.1h0a1.3,1.3,0,0,1,.1-.5v-.2c.1-.1.1-.3.2-.4l.3-1.1c0-.2-.1-.2.3-.7v.2h-.1v-.3a1.1,1.1,0,0,1,1.2-.2.7.7,0,0,1,.2,1.1V140h0v.6c-.1.5-.3,1.1-.4,1.6v.2a6.4,6.4,0,0,1-.2.7v.2h0c.1.2,0,.3,0,.4h0v-.2a.8.8,0,0,1-.6,1,.8.8,0,0,1-1-.6c-.1-.3,0-.3,0-.3s.1.3,0,.2v-.7a3.1,3.1,0,0,1,.2-.8v-.3c.2-.6.3-1.1.4-1.5V140c0-.1-.2-.2.1-.7l1.4.9V140a.4.4,0,0,1-.1.3c-.1.1.1-.1,0-.1v.3l-.3,1-.2.5h0c-.1.3-.1.5-.2.8h-.1m-.5-4.5a.8.8,0,0,1,1.2.1.8.8,0,0,1-.1,1.1h.1c-.1,0,0-.1,0-.1l-.2.9-.3,1.5v.6h0s-.1-.2,0-.2a.9.9,0,0,1-.5,1.1.8.8,0,0,1-1.1-.5c-.1-.4,0-.3,0-.4h0a1.3,1.3,0,0,1,.1-.6,11,11,0,0,1,.3-1.6,5.3,5.3,0,0,1,.3-1.2l.2-.2v-.2h0m1.6,8.3a.9.9,0,0,1-.1,1.2,1,1,0,0,1-1.2-.1c-.2-.3-.1-.4-.1-.4a1.5,1.5,0,0,1-.1-.6,7.4,7.4,0,0,0-.2-1.2c0-.2-.1-.5-.1-.7a2.8,2.8,0,0,1-.1-.9,2.5,2.5,0,0,1-.1-.8,2.1,2.1,0,0,1,0-1.1V141c0-.4.1-.8.1-1.2v-.4h.1a.5.5,0,0,1-.1-.3h0s.1.2,0,.2a1,1,0,0,1,.7-1,.9.9,0,0,1,1,.7v.2h0V139a.9.9,0,0,1,0,.9v1.2a4.5,4.5,0,0,0-.1,1.1v1a2,2,0,0,0,.1.7,2.2,2.2,0,0,0,.1.8c0,.2.1.5.1.8a5.9,5.9,0,0,1,.2,1.3v.3h0v-.2m.2,1.1a.9.9,0,0,1-.6,1,.8.8,0,0,1-1-.6V148c0-.1.1-.2.1-.3a1.7,1.7,0,0,1,.1-.7v-.4a1.8,1.8,0,0,1,.1-.6l1.5.7v.1c-.1.2-.1.4-.2.4v.5a.7.7,0,0,1-1.1.3.8.8,0,0,1-.4-1.1c.1,0,0,.1,0,.1h0v-.5c.1-.1-.1,0,.1-.5a.8.8,0,1,1,1.5.7c0,.1.1-.1.1-.1v.6c0,.3-.1.5-.1.7v.2h0c0,.1-.1-.2,0-.1m-4.1.8a.8.8,0,0,1-.2-1.2.9.9,0,0,1,1.1-.2c.4.3.3.5.4.6a2.5,2.5,0,0,1-.1.9,2.2,2.2,0,0,1-.1.9h0c0,.1-.1-.2-.1-.2l-.3-.2h-.5c.1-.1-.1,0-.1,0l.2-.3.3-.5a1.4,1.4,0,0,1,.2-.6v-.4l.2-.3h.1l.2-.3a1.1,1.1,0,0,1,.8,0,1.2,1.2,0,0,1,.5.5,2.8,2.8,0,0,1,.1.6s-.1-.1,0-.1l-.3-.2H207c.1.1-.4.2-.3.1s-.2.2-.2.1,0,.1,0,0v-.3a4.2,4.2,0,0,1,.4-1c0-.2.1-.3.1-.5a.3.3,0,0,0,.1-.2l.4-.4a1,1,0,0,1,.9.1l.3.3c.2.5,0,.6,0,.9v1.7a.8.8,0,0,1-1,.6.9.9,0,0,1-.5-1.1c0-.1-.1.2-.1.2h0v-.8a1.9,1.9,0,0,0,.1-.8v-.3h0s.1.2,0,.1v.2l.2.2h.4c-.1,0,.5-.1.4,0s.3-.2.2-.2h.1a.4.4,0,0,1-.1.3l-.3,1.2a2.5,2.5,0,0,1-.5.8,1,1,0,0,1-.8.4,1,1,0,0,1-.8-.5,1.7,1.7,0,0,1-.2-.5v-.3h.1c-.1,0,.1.3.1.2s.3.2.2.2.5,0,.4,0h.3c0,.1.3-.1.2-.1h.1c-.1.1-.1.2-.2.4a1.4,1.4,0,0,1-.2.6l-.3.6a1.6,1.6,0,0,1-.6.8l-.4.3h-.8a.7.7,0,0,1-.4-.6v-.7c0-.2.1-.5.1-.9a1,1,0,0,1,.1-.4c-.1-.1,0,.2,0,.1v.2l.2.2m-.8.1a.7.7,0,0,1-.4-1,.9.9,0,0,1,1.1-.5c.3.2.4.4.4.5v.4c0,.2,0,.3-.1.3v.8h-.1l-.2-.3h-.8c.1,0,0,0,.1-.2a1.1,1.1,0,0,0,.2-.6.4.4,0,0,0,.1-.3c.1-.1,0-.1.2-.3h0a.8.8,0,0,1,1.2-.1.8.8,0,0,1,.1,1.1h.1a.4.4,0,0,0-.1.3l-.3.7a2.1,2.1,0,0,1-.4.6.8.8,0,0,1-.8.4l-.6-.2a.5.5,0,0,1-.3-.4.9.9,0,0,1,0-.9v-.7h0v.4l.3.2m-1-.8a.8.8,0,0,1-.4-1.1.7.7,0,0,1,1-.4,1.1,1.1,0,0,1,.5.4.4.4,0,0,0,.1.3v.8a2,2,0,0,0-.1.7v.5h-.1s-.2-.3-.1-.2h-.6l-.3.2c.1-.1,0,.1,0,.1h0a.4.4,0,0,0,.1-.3l.3-.5v-.3h.1v-.2h.1a.7.7,0,0,1,1.1-.1.8.8,0,0,1,.2,1.1c-.1,0,0-.1,0,0s.1-.1,0-.1h0v.3l-.3.5a.4.4,0,0,1-.1.3c-.1.1,0,.4-.6.6h-.6a1.8,1.8,0,0,1-.7-.5c-.1-.2-.1-.4-.2-.5v-.8a2,2,0,0,0,.1-.7v-.4h.1s.2.2.1.2l.3.2m-1.6-.2a.8.8,0,0,1,.4-1.1.8.8,0,0,1,1.1.4h0v.3a3.1,3.1,0,0,0-.1,1.1,1.1,1.1,0,0,0-.1.5h-.1c.1,0-.2-.3-.1-.2l-.4-.2c.2,0-.4,0-.3-.1h-.1c.1,0-.1.1-.1.1h0a1.4,1.4,0,0,1,.4-.7l.3-.7v-.4c0-.1.1-.3.5-.4s-.3.2-.3.2h.1a.7.7,0,0,1,1.1.2.8.8,0,0,1-.3,1.1h.1l-.4.2h.3l.2-.2c-.1.1,0-.1,0-.1s.1,0,0,0a.3.3,0,0,1-.1.2,1.4,1.4,0,0,1-.2.6l-.3.6c-.1.2-.1.4-.3.5a.7.7,0,0,1-.7.5h-.1a1.3,1.3,0,0,1-.8-.3c-.2-.2-.2-.3-.2-.4s-.1-.4,0-.5v-.7a3.1,3.1,0,0,0,.1-.9h0v.2c-.1-.1,0,.1,0,.1m4.5-8.4a.8.8,0,0,1,.5-1,.8.8,0,0,1,1.1.4v.6a4.3,4.3,0,0,0-.1.5,4.6,4.6,0,0,0-.3.9l-.3,1-.3,1c0,.2-.1.3-.1.5s-.1.5-.2.7a8.3,8.3,0,0,1-.4,1.5v.3l-.2.6c0,.1-.1.2-.1.4a1.7,1.7,0,0,1-.8.6H204c-.1,0,.3-.1.2,0h.2c-.1,0,.2-.3.1-.2s-.3.3-.3.3a.5.5,0,0,1-.4.3,1.1,1.1,0,0,1-.7.3,1.7,1.7,0,0,1-.9-.3h.4v.2a.8.8,0,0,0-.2.5l-.2.5v.5H202s-.1-.2,0-.1l-.3-.3h-.8c.1-.1-.2.1-.1.1s-.1.1-.1,0h0c0-.1,0-.2.1-.2a1.9,1.9,0,0,1,.2-.7c.1-.2.1-.4.2-.6a.4.4,0,0,1,.1-.3v-.3a.8.8,0,0,1,1.2,1.2v-.2c0,.1.1-.1.1,0s0-.1,0-.1h0a1.4,1.4,0,0,0-.2.7l-.3.8c-.1.1-.1.3-.3.6l-.3.2h-.9a.9.9,0,0,1-.3-.5v-.7a.9.9,0,0,0,.1-.5,4.1,4.1,0,0,1,.3-.8l.3-.8.4-.5a1.3,1.3,0,0,1,.8-.3,1.1,1.1,0,0,1,.7.1h0c.1,0-.2.1-.1.1h.1l.2-.2h-.1l.4-.4h.5v0c.1-.1.1-.3.2-.5a.4.4,0,0,1,.1-.3l.3-1.5a1.9,1.9,0,0,0,.2-.7.9.9,0,0,0,.1-.5l.3-1.1.3-1,.3-.9a.8.8,0,0,0,.1-.4h0v.2s.1.2,0,.1m-.8.1a1,1,0,0,1,.7-.9.8.8,0,0,1,.9.8c.1.1.1.1,0,.2h0a4.9,4.9,0,0,1-.4,1.1,3.1,3.1,0,0,0-.2.8h0c0,.1-.4-.5-.2-.4H205c.1-.1-.1.1-.1,0h.1l.3-.7c.2-.4.3-.8.4-.9a2,2,0,0,1,.1-.5.8.8,0,0,1,.1-.4h0a.8.8,0,0,1,1.2-.2.9.9,0,0,1,.2,1.1c-.1,0,0-.1,0-.1s.1-.3.1-.2-.1.3-.1.6a11.2,11.2,0,0,1-.5,1.3l-.4.8a.9.9,0,0,1-.7.6,1.2,1.2,0,0,1-1.1-.2,1,1,0,0,1-.3-.8.6.6,0,0,0,.1-.4l.3-.9a9.3,9.3,0,0,0,.3-1h0m-.4-.2a.9.9,0,0,1,.2-1.2,1.1,1.1,0,0,1,1.2.2.8.8,0,0,1,.1.4v.4c0,.1-.1.2-.1.4l-.2.5-.3.9a.8.8,0,0,0-.1.4h0s-.1-.2,0-.1-.2-.2-.1-.2l-.2-.2h-.3c.1.1,0,.1,0,.1h-.4l.3-.5a1.4,1.4,0,0,0,.2-.6.4.4,0,0,0,.1-.3h0a1,1,0,0,1,1-.7.9.9,0,0,1,.6,1h0c0,.1-.1.2-.1.4l-.3.7-.2.6c-.2.3-.3.7-.9.8h-.6a1,1,0,0,1-.5-.4.5.5,0,0,1-.2-.4v-.3a2.8,2.8,0,0,1,.1-.9l.3-.9.2-.5v-.2h0v.2c0-.1.2.3.1.2m-2.1-1.5c.1-.5.4-.9.9-.9a1,1,0,0,1,.8.9h0v.4a3.3,3.3,0,0,1-.5,1.2,3.1,3.1,0,0,0-.2.8.3.3,0,0,0-.1.2v-.2c0,.1-.1-.4-.1-.2s-.2-.3-.1-.3l-.3-.2h-.6c.1,0,0,.1,0,.1h-.1l.2-.2c.1-.2.1-.3.2-.4s-.1-.3.6-.6h.4a.9.9,0,0,1,.8,1.2v.6a1.3,1.3,0,0,0-.1.6v.3h-.4s-.3.1-.2,0-.2.2-.1.2l.2-.4.3-.8.4-1h.2a.8.8,0,0,1,1.4.8h0a.3.3,0,0,1-.1.2,9.2,9.2,0,0,1-.3.9l-.5.9a1.2,1.2,0,0,1-.8,1h-.9a1.7,1.7,0,0,1-.6-.6,2.6,2.6,0,0,1-.1-1.2v-.7a1.1,1.1,0,0,0,.1-.5h0v.2l.2.2h.7c-.1,0,.2-.1.1,0h.2v.2l-.3.4c0,.1-.1.3-.5.6H203c-.1.1-.3.2-.7.1a1.2,1.2,0,0,1-.5-.5.4.4,0,0,0-.1-.3c0-.2.1-.2.1-.3v-.4l.3-.8.4-.8h-.1m-.8,3.2a.8.8,0,0,1,.4-1.6h-.7l.2-.3a4.7,4.7,0,0,0,.5-1l.3-.5.4-.5s-.2.2-.1.2-.1-.1.1-.3a.9.9,0,1,1,1.1,1.3c-.1,0,.1-.2.1-.1h.1l-.2.2h.1v.2l-.3.5-.6,1-.4.7h-.2a1.1,1.1,0,0,1-.7.1m1.1-3.3a.9.9,0,0,1,.8.9.9.9,0,0,1-.9.8c-.1-.1.5-.2.4-.2s.1-.1.1,0h0v.3l-.3.6v.2h0v.2h0a.8.8,0,0,1-.8.9.8.8,0,0,1-.8-.7h0V140h0a1.2,1.2,0,0,1,.2-.7l.3-.6a.8.8,0,0,1,.2-.4l.3-.4.7-.2"/></g></svg>