<svg id="Ebene_1" data-name="Ebene 1" xmlns="http://www.w3.org/2000/svg" xmlns:xlink="http://www.w3.org/1999/xlink" viewBox="0 0 129.9 193.4"><defs><style>.cls-1{fill:none;}.cls-2{opacity:0;}.cls-3{clip-path:url(#clip-path);}.cls-4{fill:#00733b;}</style><clipPath id="clip-path"><rect class="cls-1" x="-149" y="-37.5" width="419.5" height="297.64"/></clipPath></defs><g class="cls-2"><path d="M51.8,27.3V23.4h3.9v3.9Zm0,25.1V31.1h3.9V52.4Z"/></g><g class="cls-3"><path d="M36.6,47.9a.4.4,0,0,1,.4-.4.4.4,0,0,1,.4.4V95.4c0,.3-.1.5-.4.5a.5.5,0,0,1-.4-.5Z"/><path d="M37,48.3a.4.4,0,0,1-.4-.4.4.4,0,0,1,.4-.4H68.7a.4.4,0,0,1,.4.4.4.4,0,0,1-.4.4Z"/><path d="M68.3,47.9a.4.4,0,1,1,.8,0V95.4a.4.4,0,1,1-.8,0Z"/><path d="M37,95.9a.5.5,0,0,1-.4-.5A.4.4,0,0,1,37,95H68.7a.4.4,0,0,1,.4.4.5.5,0,0,1-.4.5Z"/><path d="M52.5,63.8c0-.3.1-.4.4-.4a.4.4,0,0,1,.4.4V79.6a.4.4,0,0,1-.4.4.4.4,0,0,1-.4-.4Z"/><path d="M43.4,80a.4.4,0,0,1,0-.8h9.5a.4.4,0,0,1,0,.8Z"/><path d="M52.9,64.2a.4.4,0,0,1-.4-.4c0-.3.1-.4.4-.4h6.8a.4.4,0,0,1,.4.4.4.4,0,0,1-.4.4Z"/><path d="M21.2,71.5a.4.4,0,0,1-.4-.4.4.4,0,0,1,.4-.4H37a.4.4,0,0,1,.4.4c0,.3-.1.4-.4.4Z"/><path d="M20.8,71.1a.4.4,0,1,1,.8,0v56a.4.4,0,1,1-.8,0Z"/><path d="M68.7,71.2a.4.4,0,0,1-.4-.4.4.4,0,0,1,.4-.4H84.6a.4.4,0,0,1,.4.4.4.4,0,0,1-.4.4Z"/><path d="M84.1,71a.5.5,0,0,1,.5-.4.4.4,0,0,1,.4.4v56.1a.4.4,0,0,1-.4.4c-.3,0-.5-.1-.5-.4Z"/><path d="M52.5,47.2a.4.4,0,0,1,.4.4.5.5,0,0,1-.5.4l-.4-.4a.4.4,0,0,0-.1-.3v-.9c0-.8.1-1.7.2-2.7a25,25,0,0,0,.2-4.3.5.5,0,0,1,.3-.5c.2,0,.5.1.5.3a5.4,5.4,0,0,1,0,1.8,26.4,26.4,0,0,1-.2,2.8c-.1,1-.1,1.9-.2,2.6v.8h0c.1,0-.1-.1,0-.1h-.2"/><path d="M53.2,34.1a.4.4,0,0,1-.8,0,14.1,14.1,0,0,0-.7-3,4.6,4.6,0,0,1,.5-3.6.5.5,0,0,1,.6-.1c.2.1.2.4.1.6a3.6,3.6,0,0,0-.4,2.9,13.2,13.2,0,0,1,.7,3.2"/><path d="M53.3,23.4a.4.4,0,1,1-.8,0,14.2,14.2,0,0,0-.4-3.4,4.6,4.6,0,0,1,.3-3.3.6.6,0,0,1,.6-.1.7.7,0,0,1,.1.6,3.9,3.9,0,0,0-.2,2.7,14.5,14.5,0,0,1,.4,3.5"/><path d="M36.9.8a.5.5,0,0,1-.2-.6.4.4,0,0,1,.5-.2L68.9,15.9a.4.4,0,0,1,.2.5.5.5,0,0,1-.6.2Z"/><path d="M52.6,9.1c.1-.2.4-.2.6-.1a.5.5,0,0,1,.1.6,6.9,6.9,0,0,0-.2,2,6.4,6.4,0,0,0,.5,2.2c.1.2.1.4-.1.5a.4.4,0,0,1-.6-.1,5.4,5.4,0,0,1-.6-2.5,5.2,5.2,0,0,1,.3-2.6"/><path d="M68.7.8a.4.4,0,0,1-.4-.4.4.4,0,0,1,.4-.4h47.5a.4.4,0,0,1,.4.4.4.4,0,0,1-.4.4Z"/><path d="M115.8.4a.4.4,0,0,1,.4-.4.4.4,0,0,1,.4.4V127.1c0,.3-.1.4-.4.4a.4.4,0,0,1-.4-.4Z"/><path d="M68.7,16.7a.5.5,0,0,1-.4-.5.4.4,0,0,1,.4-.4h31.7a.4.4,0,0,1,.4.4.5.5,0,0,1-.4.5Z"/><path d="M100,16.2a.4.4,0,1,1,.8,0V127.1a.4.4,0,1,1-.8,0Z"/><path d="M4.9.4A.5.5,0,0,1,5.4,0a.4.4,0,0,1,.4.4V127.1a.4.4,0,0,1-.4.4c-.3,0-.5-.1-.5-.4Z"/><path d="M5.4.8A.5.5,0,0,1,4.9.4.5.5,0,0,1,5.4,0H37a.4.4,0,0,1,.4.4.4.4,0,0,1-.4.4Z"/><path d="M115.9,132.6a.5.5,0,0,1,0-.5.4.4,0,0,1,.6,0,.3.3,0,0,1,0,.5.4.4,0,0,1-.6,0"/><path d="M120.2,131.8a4.3,4.3,0,0,0-.6-2.2,4.3,4.3,0,0,0-3.7-2.1,3.9,3.9,0,0,0-2.1.6,4.3,4.3,0,0,0-2.1,3.7,3.9,3.9,0,0,0,.6,2.1,4.1,4.1,0,0,0,3.6,2.1,4,4,0,0,0,2.2-.6,4.3,4.3,0,0,0,2.1-3.6m.8,0a4.9,4.9,0,0,1-2.5,4.3,4.6,4.6,0,0,1-2.6.7,5,5,0,0,1-4.3-2.5,4.3,4.3,0,0,1-.7-2.5,5.1,5.1,0,0,1,2.5-4.4,5.2,5.2,0,0,1,2.5-.7,5.1,5.1,0,0,1,4.4,2.5,5.6,5.6,0,0,1,.7,2.6"/><path d="M5,132.6a.5.5,0,0,1,0-.5.4.4,0,0,1,.6,0,.3.3,0,0,1,0,.5.4.4,0,0,1-.6,0"/><path d="M9.3,131.8a4.3,4.3,0,0,0-4.2-4.3,4,4,0,0,0-2.2.6,4.3,4.3,0,0,0-2.1,3.7,3.9,3.9,0,0,0,.6,2.1A4.1,4.1,0,0,0,5.1,136a3.9,3.9,0,0,0,2.1-.6,4.3,4.3,0,0,0,2.1-3.6m.8,0a4.9,4.9,0,0,1-2.5,4.3,4.3,4.3,0,0,1-2.5.7,5.1,5.1,0,0,1-4.4-2.5,5.2,5.2,0,0,1-.7-2.5,5.1,5.1,0,0,1,2.5-4.4,5.6,5.6,0,0,1,2.6-.7,5,5,0,0,1,4.3,2.5,4.6,4.6,0,0,1,.7,2.6"/><path d="M20.9,132.6a.4.4,0,0,1,.5-.5.4.4,0,0,1-.5.5"/><path d="M25.1,131.8a4.2,4.2,0,0,0-6.4-3.7,4.3,4.3,0,0,0-2.1,3.7,5.1,5.1,0,0,0,.6,2.1,4.2,4.2,0,0,0,3.7,2.1,3.7,3.7,0,0,0,2.1-.6,4.1,4.1,0,0,0,2.1-3.6m.8,0a4.9,4.9,0,0,1-2.5,4.3,4.3,4.3,0,0,1-2.5.7,5.1,5.1,0,0,1-4.4-2.5,5.2,5.2,0,0,1-.7-2.5,5.1,5.1,0,0,1,2.5-4.4,5.9,5.9,0,0,1,2.6-.7,4.9,4.9,0,0,1,4.3,2.5,4.6,4.6,0,0,1,.7,2.6"/><path d="M84,132.6c-.2-.1-.2-.4,0-.6h.6a.6.6,0,0,1,0,.6.4.4,0,0,1-.6,0"/><path d="M88.3,131.7a5.1,5.1,0,0,0-.6-2.1,4.5,4.5,0,0,0-3.7-2.1,3.7,3.7,0,0,0-2.1.6,4.1,4.1,0,0,0-2.1,3.6,4.2,4.2,0,0,0,6.4,3.7,4.3,4.3,0,0,0,2.1-3.7m.8,0a5.1,5.1,0,0,1-2.5,4.4,5.6,5.6,0,0,1-2.6.7,4.9,4.9,0,0,1-4.3-2.5,4.6,4.6,0,0,1-.7-2.6,5,5,0,0,1,2.5-4.3,4.3,4.3,0,0,1,2.5-.7,5.1,5.1,0,0,1,4.4,2.5,5.2,5.2,0,0,1,.7,2.5"/><path d="M100.5,132.6a.5.5,0,0,1,0-.5c.2-.2.5-.2.6,0a.3.3,0,0,1,0,.5c-.1.2-.4.2-.6,0"/><path d="M104.8,131.8a4.2,4.2,0,0,0-6.4-3.7,4.3,4.3,0,0,0-2.1,3.7,3.9,3.9,0,0,0,.6,2.1,4.1,4.1,0,0,0,3.7,2.1,3.9,3.9,0,0,0,2.1-.6,4.1,4.1,0,0,0,2.1-3.6m.8,0a4.9,4.9,0,0,1-2.5,4.3,4.3,4.3,0,0,1-2.5.7,5.1,5.1,0,0,1-4.4-2.5,5.2,5.2,0,0,1-.7-2.5,5.1,5.1,0,0,1,2.5-4.4,5.6,5.6,0,0,1,2.6-.7,4.9,4.9,0,0,1,4.3,2.5,4.6,4.6,0,0,1,.7,2.6"/><path class="cls-4" d="M52.5,79.5c0-.2.2-.3.5-.3s.3.3.3.5L37.4,164.9c0,.2-.2.3-.4.3a.5.5,0,0,1-.4-.5Z"/><path class="cls-4" d="M14.9,175.8c.2,0,.5.1.5.3s0,.4-.3.5h0a4.5,4.5,0,0,1-.2.8c-.1.6-.2,1.5-.3,2.5s-.3,3.2-.4,4.4v2l-.2.2a.2.2,0,0,1-.2.2c-.2.1-.3,0-.4-.1s-.3-.5-.4-.9a7.7,7.7,0,0,1-.2-1.5c-.1-1.2-.2-2.6-.2-3.9s-.2-3.9.7-4.9,2-1,3.1-1a4.4,4.4,0,0,1,1.6.2,1.8,1.8,0,0,1,1,1.4c.2,1.2-.7,2.4-1.4,3.4A3,3,0,0,0,17,183c.6,1.7,1,3.9,2.1,5s.2.4,0,.6a.4.4,0,0,1-.6,0c-1.4-1.4-1.7-3.7-2.3-5.3a4.4,4.4,0,0,1-.3-2.2,4.1,4.1,0,0,1,1-2.1c.7-.9,1.4-2.1,1.3-2.7a1.9,1.9,0,0,0-.5-.9H16.4a3.6,3.6,0,0,0-2.5.7,3,3,0,0,0-.5,1.6v2.8c0,1.2.1,2.6.2,3.8s.1,1,.2,1.4.1.3.1.4h-.5c.1,0,0,.1,0,.1h0v-1.8a37.5,37.5,0,0,1,.4-4.5c.1-1,.2-1.9.3-2.6l.3-.9.2-.3.3-.3"/><path class="cls-4" d="M26.8,181a.5.5,0,0,1-.1.6c-.2.1-.5.1-.6-.1H26a5.5,5.5,0,0,0-.4,1.2,4.5,4.5,0,0,0,.7,2.9c.3.2.6.4.8.3s.7-.3,1.1-.9.4-.3.6-.1a.3.3,0,0,1,.1.5,2.4,2.4,0,0,1-1.6,1.3,1.9,1.9,0,0,1-1.6-.6,4.7,4.7,0,0,1-.9-3.6,3.8,3.8,0,0,1,.5-1.5.9.9,0,0,1,1.5.1"/><path class="cls-4" d="M27.5,182c0,.2-.1.3-.4.4s-.4-.1-.4-.3-.1-.3,0-.4.1-.3.4-.3h.4a2.1,2.1,0,0,1,.4.6,1.4,1.4,0,0,1,.1.9.9.9,0,0,1-.5.3.8.8,0,0,1-.7-.1c-.3,0-.3-.2-.3-.3a.5.5,0,0,1,.6-.2h.1a1.1,1.1,0,0,0-.1-.5c0-.2-.1-.3-.2-.3h.6"/><path class="cls-4" d="M34.9,181.7c0,.2-.2.3-.5.3a.5.5,0,0,1-.3-.5q.1-.3,0-.3h0a.4.4,0,0,0-.4.1c-.1,0-.3.4-.5.9a3.5,3.5,0,0,0-.1,3,1.3,1.3,0,0,0,1,.6c.2.1.5-.1.8-.3a5.2,5.2,0,0,0,1-1.1,8.2,8.2,0,0,0,1.6-4.5c0-.6.1-1.3.1-2s.1-1.3.1-1.9a4.4,4.4,0,0,1,.2-1.3v-.5h0s.1.1,0,.1.2.2.1.1h.6c-.1,0,0-.1,0-.1h.1a6.3,6.3,0,0,0-.7,1.9,15.1,15.1,0,0,0-.5,2.8,3.2,3.2,0,0,0,0,1.4l.5.4h.6a1.7,1.7,0,0,1,1.3.4,1.6,1.6,0,0,1,.6,1.5,12.8,12.8,0,0,1-.1,1.9c-.1.6-.1,1.2-.2,1.7v.6h0a.3.3,0,0,1,.1.5.5.5,0,0,1-.6.1.9.9,0,0,1-.3-.6v-.8c.1-.5.1-1.1.2-1.7a12.1,12.1,0,0,0,.1-1.8,1.3,1.3,0,0,0-.3-.9l-.9-.2h-.9a1.9,1.9,0,0,1-.9-.9,3.3,3.3,0,0,1,0-1.7,11.8,11.8,0,0,1,.5-3.1c.3-.8.5-1.6.7-2H38c0-.1.1-.2.3-.2s.4.2.4.3,0,.2,0,.3v.5c-.1.3-.1.8-.2,1.2s-.1,1.3-.1,1.9-.1,1.4-.1,2a9.4,9.4,0,0,1-1.7,5,6.3,6.3,0,0,1-1.1,1.2,2.1,2.1,0,0,1-1.5.5,1.9,1.9,0,0,1-1.6-1,4,4,0,0,1,0-3.7,2.4,2.4,0,0,1,.9-1.3,1.1,1.1,0,0,1,1.2-.2,1,1,0,0,1,.4.5,1.1,1.1,0,0,1,0,.8"/><path class="cls-4" d="M47.6,173.3c.2,0,.5.1.5.3s-.1.4-.3.5h.1l-.2.3a6.8,6.8,0,0,0-.4,1.3,17.3,17.3,0,0,0-.9,3.9,21.4,21.4,0,0,0-.3,3.4,6.5,6.5,0,0,0,0,1.4,4.3,4.3,0,0,1-.1.5c-.1.2-.1.3-.3.4h-.4c-.1-.1-.2-.1-.2-.2l-.3-.3a5.6,5.6,0,0,1-.5-.8,5.4,5.4,0,0,1-.5-1.1.9.9,0,0,1,0-.7.7.7,0,0,1,.4-.5,4,4,0,0,1,1.9-.5c.9,0,2.2-.1,3.8,0a.4.4,0,1,1,0,.8H46.2a3.6,3.6,0,0,0-1.6.3h0a3.7,3.7,0,0,0,.4,1.1,6.1,6.1,0,0,1,.4.6l.2.2h-.4v-.3a6.4,6.4,0,0,0,0-1.4c.1-1,.2-2.3.4-3.6a23.5,23.5,0,0,1,.9-4,3.9,3.9,0,0,1,.5-1.3c0-.2.1-.3.2-.5l.4-.3"/><path class="cls-4" d="M57.5,179.8a.4.4,0,0,1,0,.6h-.6c-.2-.2-.3-.3-.5-.3a1.5,1.5,0,0,0-.7.5,4.4,4.4,0,0,0-1.3,2.3,3.2,3.2,0,0,0,0,1.7,1.6,1.6,0,0,0,.9.7,2.4,2.4,0,0,0,1.4-.2,4.8,4.8,0,0,0,1.6-1.6.6.6,0,0,1,.6-.1.7.7,0,0,1,.1.6,5.3,5.3,0,0,1-1.9,1.8,2.9,2.9,0,0,1-2,.3,2.4,2.4,0,0,1-1.4-1.2,3.3,3.3,0,0,1-.1-2.2,6.5,6.5,0,0,1,1.5-2.7,2.6,2.6,0,0,1,1.1-.7,1.5,1.5,0,0,1,1.3.5"/><path class="cls-4" d="M57,180.8c0-.2.3-.3.5-.3a.5.5,0,0,1,.3.5c-.2.4-.2.7-.4.9l-.7.7c-.2.1-.5.1-.6-.1a.5.5,0,0,1,.1-.6c.7-.5.5-.3.8-1.1"/><path class="cls-4" d="M71.5,172a.5.5,0,0,1,.3-.5c.2,0,.5.1.5.3v.2h0v.2a2.6,2.6,0,0,1-.3,1.1c-.6,1.8-1.7,4.5-2.4,6.9a18.7,18.7,0,0,0-.7,3.4,4.6,4.6,0,0,0-.1,1h0l.3-.3.6-.8a28.1,28.1,0,0,1,2.5-3.1,6,6,0,0,1,1.2-1.1l.5-.3h.7a.4.4,0,0,1,.2.6.4.4,0,0,1-.5.2h-.1l-.4.2-1,.9c-.8.9-1.7,2-2.5,3.1l-.6.8-.3.4-.5.2-.6-.2-.3-.6a5.7,5.7,0,0,1,.1-1.2,19.5,19.5,0,0,1,.7-3.5c.7-2.5,1.8-5.2,2.4-7a2.3,2.3,0,0,0,.3-.9v-.3h0m-7.4,7.8a.4.4,0,0,1-.3.7h-.2l-.5.8a9.9,9.9,0,0,0-.7,2.6,3.7,3.7,0,0,0,.1,1.1,1.2,1.2,0,0,0,.2.7.8.8,0,0,0,.7.1c.3-.1.7-.6,1.2-1.2a18.1,18.1,0,0,0,1.6-2.5l3.3-6.3,1.7-3.4c.2-.4.2-.6.3-.7h0c.2-.2.4-.3.6-.1s.3.3.1.5h.1l-.3.7-1.8,3.4c-1,2-2.1,4.3-3.3,6.4a19.7,19.7,0,0,1-1.6,2.6,4.5,4.5,0,0,1-1.6,1.5,1.6,1.6,0,0,1-1.5-.3,1.6,1.6,0,0,1-.5-1.1,6.1,6.1,0,0,1-.1-1.4,9.6,9.6,0,0,1,.8-2.9l.6-1,.5-.3h.6"/><path class="cls-4" d="M71.5,183.4c.2-.1.5-.1.6.1s.1.5-.1.6l-.3.5a3.4,3.4,0,0,0,0,1,2.5,2.5,0,0,0,1.3,1.9.4.4,0,1,1-.3.7,3.1,3.1,0,0,1-1.8-2.5,2.9,2.9,0,0,1,0-1.3,3.3,3.3,0,0,1,.6-1"/><path class="cls-4" d="M85.5,181.5a.3.3,0,0,1-.5.3c-.2,0-.3-.2-.3-.4a1.1,1.1,0,0,0-.3-.8,2.3,2.3,0,0,0-1-.7,1.6,1.6,0,0,0-1.3.3,2.2,2.2,0,0,0-1,.9c-.1.1-.1.4-.1.7v.7l.2.4a.8.8,0,0,1,.3.8,2.3,2.3,0,0,1-1.2,1.2l-1.6.7-.6.2h-.3s-.1.1-.4-.1a.6.6,0,0,1,0-.6c.1-.2.2-.2.3-.2l.9-.4a.4.4,0,0,1,.5.3.4.4,0,0,1-.2.5l-.8.3h0c-.1,0,0-.1,0-.1v-.2s-.1-.2,0-.1H78c.1,0-.2-.1-.1-.1h0l.6-.2a4.2,4.2,0,0,0,1.4-.6,1.4,1.4,0,0,0,.8-.7l-.2-.2a2.4,2.4,0,0,1-.3-.7,2.1,2.1,0,0,1,0-.8,2.5,2.5,0,0,1,.2-1.2,3.7,3.7,0,0,1,1.3-1.2,3.1,3.1,0,0,1,1.9-.3,4.2,4.2,0,0,1,1.4.9,2.1,2.1,0,0,1,.5,1.5"/><path class="cls-4" d="M88.4,182.3a.6.6,0,0,1,.3-.6c.2-.1.4.1.5.3s0,.8-.1,1.2-.3,1-.5,1.5a3.9,3.9,0,0,0-.3,1.4,4.3,4.3,0,0,1-.1.5h-.4c.1,0,0,.1,0,.1h0c.1,0,.2-.2.3-.3s.3-.2.5-.1.3.4.1.6l-.2.3-.2.2H88l-.5-.2a.8.8,0,0,1-.1-.4,1.3,1.3,0,0,1,.1-.6,5,5,0,0,1,.3-1.6,6.7,6.7,0,0,0,.6-2.1"/><path class="cls-4" d="M91.2,179.5a.5.5,0,0,1-.1.6.3.3,0,0,1-.5-.1l-.5-.3h.4c-.1,0,.1-.2.1-.2s0-.2,0-.2h0l.2.2a.6.6,0,0,1,0,.6h-.6l-.4-.5c0-.1-.1-.2,0-.3l.3-.3h.3a1.6,1.6,0,0,1,.8.6"/><path class="cls-4" d="M98.4,182.1a.4.4,0,0,1-.4.4c-.2.1-.4-.1-.4-.3l-.2-.3h-.2a1,1,0,0,0-.9.2,1.9,1.9,0,0,0-.6.7h.9l.7.2a1,1,0,0,1,.4.5,1.4,1.4,0,0,1-.2,1.1A6.1,6.1,0,0,0,97,186a10.9,10.9,0,0,0-.6,3.6,7.5,7.5,0,0,1,0,1.5,3.1,3.1,0,0,1-1.2,1.6,3.8,3.8,0,0,1-2.1.7,2.8,2.8,0,0,1-2.6-1,1.7,1.7,0,0,1-.3-1.4,4.1,4.1,0,0,1,1.1-1.7.4.4,0,0,1,.6,0c.2.1.2.4,0,.6a3.1,3.1,0,0,0-.9,1.3.6.6,0,0,0,.2.7,2,2,0,0,0,1.9.7,2.3,2.3,0,0,0,1.6-.6,1.9,1.9,0,0,0,.9-1.1v-1.4a10.7,10.7,0,0,1,.6-3.8l.5-1.2a1.2,1.2,0,0,0,.2-.6h-.3c-.2,0-.7.2-1.1,0a1,1,0,0,1-.6-.5,1.1,1.1,0,0,1,0-.8,2.6,2.6,0,0,1,1-1.1,3.3,3.3,0,0,1,1.4-.4l.7.3a2,2,0,0,1,.4.8"/><path class="cls-4" d="M103.4,180.1a.4.4,0,0,1,.4.8.7.7,0,0,0-.3.4,2.9,2.9,0,0,0-.2.9l-.3,1.1c-.1.2-.1.5-.2.8a1,1,0,0,1-.6.5l-.4-.2c-.2-.1-.2-.3-.2-.5a2.3,2.3,0,0,1,.7-1l1.1-1a8.9,8.9,0,0,1,2.4-1.7,1.5,1.5,0,0,1,1.3-.1,1,1,0,0,1,.5.4,1.4,1.4,0,0,1,.2.7,6.1,6.1,0,0,1,.1,1.4,6.1,6.1,0,0,0,0,2.4.4.4,0,0,1-.3.6.4.4,0,0,1-.5-.2,6.6,6.6,0,0,1,0-2.8,5.3,5.3,0,0,0-.1-1.3c0-.1,0-.3-.1-.3h-.1c-.1-.1-.4-.1-.7.1a6.4,6.4,0,0,0-2.1,1.5,10.8,10.8,0,0,0-1.6,1.6h0v-.2c.1,0-.1-.1-.1-.1s-.1,0-.1,0-.1.1-.1.1h0a6.4,6.4,0,0,0,.2-.7l.3-1.1a1.9,1.9,0,0,1,.3-1,1.5,1.5,0,0,1,.6-.9"/><path class="cls-4" d="M117.1,180.8c-.1.3-.3.4-.5.3a.3.3,0,0,1-.3-.5v-.3h-.2a3.2,3.2,0,0,0-1.5.8,3.4,3.4,0,0,0-.8,1.4,1,1,0,0,0-.1.4h.2l1-.2.9-.3a1.3,1.3,0,0,1,.9.1l.5.6a2,2,0,0,1,.1,1.3h-.1l.8-.4a.4.4,0,0,1,.5.2c.2.2.1.4-.1.5a2.4,2.4,0,0,1-1.2.5l-.5-.2-.2-.4a3.9,3.9,0,0,1,0-1.1l-.2-.2H116l-.9.3-1.1.2h-.5c-.2-.1-.4-.1-.5-.4a1,1,0,0,1,0-.9,3.2,3.2,0,0,1,1.1-1.8,3.5,3.5,0,0,1,1.9-1c.3,0,.7,0,.9.3a1.2,1.2,0,0,1,.2,1"/><path class="cls-4" d="M128.6,173.4c-.1.2-.3.4-.5.3s-.4-.3-.3-.5h0c0-.1.1.1.1,0s.1.2.1.2h.1l-1.2,1.8a28.4,28.4,0,0,0-2.1,3.9,15.9,15.9,0,0,0-1.1,3.8,3.9,3.9,0,0,0,0,1.9,1.2,1.2,0,0,0,.8.6,4.3,4.3,0,0,0,1.9-.1l3-.7c.2-.1.4,0,.5.3a.5.5,0,0,1-.3.5c-2.3.6-4,1.1-5.3.8a1.6,1.6,0,0,1-1.3-1.1,3.5,3.5,0,0,1-.1-2.3,20.3,20.3,0,0,1,1.2-4.1,28.4,28.4,0,0,1,2.1-3.9,12.2,12.2,0,0,1,1.3-1.9l.3-.3h.7a.4.4,0,0,1,.1.3v.4"/></g></svg>