<svg id="Ebene_1" data-name="Ebene 1" xmlns="http://www.w3.org/2000/svg" xmlns:xlink="http://www.w3.org/1999/xlink" viewBox="0 0 111.7 33.3"><defs><style>.cls-1{fill:none;}.cls-2{opacity:0;}.cls-3{clip-path:url(#clip-path);}</style><clipPath id="clip-path"><rect class="cls-1" x="-138.1" y="-85" width="419.5" height="297.64"/></clipPath></defs><g class="cls-2"><path d="M97.3,37.7V12.3h3.6V37.7Z"/></g><g class="cls-3"><path d="M16.2.8a.4.4,0,0,1-.4-.4.4.4,0,0,1,.4-.4H95.4a.5.5,0,0,1,.5.4.5.5,0,0,1-.5.4Z"/><path d="M16.2,32.5a.4.4,0,1,1,0-.8H95.4a.4.4,0,1,1,0,.8Z"/><path d="M.4,16.7a.5.5,0,0,1-.4-.5.4.4,0,0,1,.4-.4H47.9a.4.4,0,0,1,.4.4c0,.3-.1.5-.4.5Z"/><path d="M63.8,16.7c-.3,0-.4-.2-.4-.5a.4.4,0,0,1,.4-.4h47.5a.4.4,0,0,1,.4.4.5.5,0,0,1-.4.5Z"/><path d="M15.9.2c.2-.2.4-.3.6-.1s.2.4.1.6c-8.3,10.2-8.3,20.6,0,31.1.1.2.1.5-.1.6s-.4.1-.6-.1C7.4,21.5,7.4,10.7,15.9.2"/><path d="M96.1,15.3c.2,0,.3.2.3.4s-.2.4-.5.4H96c-.1,0,.1-.1,0-.1s.2-.1.2-.1.1-.2,0-.2h0c.1,0,0-.2,0-.1h-.1a.5.5,0,0,1,.2.6.5.5,0,0,1-.6.1h-.1v-.2a.3.3,0,0,1,0-.4c.2-.2.3-.2.4-.2h.2"/><path d="M95.9.8c-.1.3-.3.4-.5.3S95,.8,95.1.6s0-.2.2-.3h.3c.1,0,.2,0,.2.1l.2.2c.1.2.6.4,1.2.8a11,11,0,0,1,2.6,3,16.6,16.6,0,0,1,1.3,2.7,34.1,34.1,0,0,1,1,4.6,26.1,26.1,0,0,1,0,2.8,10.3,10.3,0,0,1-.1,1.7,4,4,0,0,0-.3,1.5,21.5,21.5,0,0,1-.2,2.3c-.2,1-.4,1.6-.6,2.3l-.3.9c-.2.6-.4,1.5-.6,2.2s-.6,1.8-.8,2.4a21.4,21.4,0,0,1-1,2.2l-.8,1.4a1.3,1.3,0,0,1-.4.6l-.7.4a.2.2,0,0,0-.2.2l-.2.4h0v-.2c.1.1-.2-.2-.2-.1s-.2-.1-.1-.1h-.3a.1.1,0,0,0,.1-.1.5.5,0,0,1,.6-.1c.2.1.2.4.1.6l-.2.2a.1.1,0,0,1-.1.1h-.2l-.4-.2c-.1-.2,0-.3,0-.4h0l.3-.5a.8.8,0,0,1,.4-.4l.7-.5.2-.2.7-1.4a12.5,12.5,0,0,0,1-2.1c.2-.7.4-1.4.8-2.5s.4-1.4.6-2.1l.3-.9c.2-.7.4-1.3.6-2.3s.1-1.5.2-2.1a4.3,4.3,0,0,1,.3-1.7,7.6,7.6,0,0,0,.1-1.5,24.4,24.4,0,0,0-.1-2.7,22.4,22.4,0,0,0-.9-4.5,27.2,27.2,0,0,0-1.2-2.5,10.9,10.9,0,0,0-2.5-2.7c-.4-.4-1-.5-1.4-1.1h.5c0,.1.2-.1.2-.1s0-.1,0-.1"/><path d="M47.8,16.6a.4.4,0,0,1,.3-.7l15.8,7.2a.5.5,0,0,1,.2.6.4.4,0,0,1-.5.2Z"/><path d="M64,16.2c.2.2.1.4-.1.5s-.4.1-.6-.1h.1s.2.1.1.1h.4c-.1,0,0-.1,0-.1s.1-.1,0-.1h0c.1,0,0-.1,0-.1h-.1c.2.1.2.4.1.6a.4.4,0,0,1-.6,0h-.1a.4.4,0,0,1-.1-.3l.3-.4h.3c.1,0,.2,0,.3.2"/><path d="M47.7,8.7c-.2-.1-.2-.3-.1-.5a.4.4,0,0,1,.5-.2L64,15.9c.2.1.2.3.1.5a.4.4,0,0,1-.5.2Z"/></g></svg>