<svg id="Ebene_1" data-name="Ebene 1" xmlns="http://www.w3.org/2000/svg" xmlns:xlink="http://www.w3.org/1999/xlink" viewBox="0 0 400.9 263.7"><defs><style>.cls-1{fill:none;}.cls-2,.cls-3{opacity:0;}.cls-4{clip-path:url(#clip-path);}.cls-5{fill:#00733b;}.cls-6{fill:#ed3624;}.cls-7{fill:#1749b3;}</style><clipPath id="clip-path"><rect class="cls-1" x="-4.1" y="-16.6" width="419.5" height="297.64"/></clipPath></defs><g class="cls-2"><path d="M0,13.4V12a7.9,7.9,0,0,0,2.5.6A2.5,2.5,0,0,0,4.2,12a2,2,0,0,0,.6-1.5c0-1.6-1.1-2.3-3.2-2.3H1v-1h.5q3,0,3-2.1c0-1.2-.6-1.7-1.9-1.7A5.3,5.3,0,0,0,.2,4V2.7a7.3,7.3,0,0,1,2.5-.4C4.9,2.3,6,3.1,6,4.8S5.2,7,3.7,7.6c1.8.4,2.7,1.3,2.7,2.8a2.8,2.8,0,0,1-1.1,2.4,3.8,3.8,0,0,1-2.7.9Z"/><path d="M12.5,13.7a3.1,3.1,0,0,1-2.8-1.6A7.1,7.1,0,0,1,8.7,8a7.1,7.1,0,0,1,1-4.1,3.3,3.3,0,0,1,5.6,0,7.1,7.1,0,0,1,1,4.1,7.7,7.7,0,0,1-1,4.2A3.3,3.3,0,0,1,12.5,13.7Zm0-1.1c1.5,0,2.3-1.5,2.3-4.6S14,3.4,12.5,3.4,10.2,4.9,10.2,8,11,12.6,12.5,12.6Z"/></g><g class="cls-2"><path d="M.4,32.8V31.4a6.3,6.3,0,0,0,2.2.5,2.5,2.5,0,0,0,1.8-.7,2.5,2.5,0,0,0,.7-1.9c0-1.7-1.2-2.6-3.6-2.6H.6V21.1H6.5v1.4H2v3a5.4,5.4,0,0,1,3.5,1.1,3.5,3.5,0,0,1,1.2,2.8,3.3,3.3,0,0,1-1.1,2.7,5.1,5.1,0,0,1-3.2.9Z"/><path d="M12,26.4a3.3,3.3,0,0,1-1.7-2.6,2.4,2.4,0,0,1,1-2.1,3.5,3.5,0,0,1,2.5-.9,3.9,3.9,0,0,1,2.3.7,2.3,2.3,0,0,1,.9,1.8c0,1.2-.7,2.2-2.1,3.1,1.7.9,2.6,2,2.6,3.3a3,3,0,0,1-1.1,2.4,4.6,4.6,0,0,1-2.9.9,4.6,4.6,0,0,1-2.7-.8,3,3,0,0,1-1.1-2.3A4.1,4.1,0,0,1,12,26.4Zm.9.6a3.9,3.9,0,0,0-1.3,1.3,2.8,2.8,0,0,0-.3,1.3,2.5,2.5,0,0,0,.6,1.7,2.4,2.4,0,0,0,1.7.6,2.5,2.5,0,0,0,1.7-.6,1.6,1.6,0,0,0,.6-1.3,1.6,1.6,0,0,0-.4-1.2A7.3,7.3,0,0,0,14,27.7ZM14,25.9a2.9,2.9,0,0,0,1.6-2.3,1.7,1.7,0,0,0-.5-1.2,2.3,2.3,0,0,0-1.4-.4,2,2,0,0,0-1.4.4,1.4,1.4,0,0,0-.6,1.1,2.1,2.1,0,0,0,.5,1.2A9,9,0,0,0,14,25.9Z"/></g><g class="cls-2"><path d="M172.3,63.7V37.6h14.6v2.7H176v8.8h9.2v2.7H176V63.7Z"/><path d="M191.6,63.7V59.3h4.3v4.4Z"/><path d="M203.1,63.7V37.6h3.7V63.7Z"/><path d="M213.9,63.7V37.6h14.6v2.7H217.6v8.4h9.1v2.7h-9.1v9.5h11.7v2.8Z"/></g><g class="cls-2"><path d="M146.7,89.8V84.4h-8.5V82.5l8.5-11.6h2.4V82.4h2.5v2h-2.5v5.4Zm-6-7.4h6.2V74Z"/></g><g class="cls-2"><path d="M61,106.2h1.9v8.2a4.6,4.6,0,0,0,.7,2.9,2.7,2.7,0,0,0,2.3.9,2.5,2.5,0,0,0,2.2-.9,4.7,4.7,0,0,0,.7-2.8v-8.3h1.6v8.3a6,6,0,0,1-1.1,3.9,4.6,4.6,0,0,1-3.5,1.2,4.5,4.5,0,0,1-3.6-1.3,5.4,5.4,0,0,1-1.2-3.9Z"/><path d="M73.2,119.3v-9.6H75v1.8a3.2,3.2,0,0,1,3-2h.5v1.6h-.8a3,3,0,0,0-2.7,1.9v6.4Z"/></g><g class="cls-2"><path d="M107.2,119.9,103,109.1h1.6L108,118l3.2-8.9h1.4l-4,10.8Z"/></g><g class="cls-2"><path d="M164.5,118.5V104.8h2v13.7Z"/><path d="M172.3,118.8a9.9,9.9,0,0,1-3-.6v-1.7a7.1,7.1,0,0,0,3.1.9,2,2,0,0,0,1.3-.4,1.6,1.6,0,0,0,.5-1.1c0-.6-.5-1.1-1.4-1.5l-1.1-.5c-1.6-.7-2.4-1.6-2.4-2.8a2.6,2.6,0,0,1,.9-2.1,4.2,4.2,0,0,1,2.6-.8l2.1.2h.4V110a9.1,9.1,0,0,0-2.5-.4c-1.1,0-1.7.4-1.7,1.3s.4,1,1.3,1.4l.9.3a6.3,6.3,0,0,1,2.1,1.4,2.5,2.5,0,0,1,.6,1.7,2.6,2.6,0,0,1-1,2.2A4,4,0,0,1,172.3,118.8Z"/><path d="M181.9,118.8a2.9,2.9,0,0,1-2.2-.8,3.3,3.3,0,0,1-.8-2.2v-6h-1.3v-1.4h1.3v-1.8l1.8-.2v2h2.7v1.4h-2.7v5.6c0,1.3.6,2,1.7,2h.9v1.2Z"/></g><g class="cls-2"><path d="M232,117.5V105.2h6.9v1.3h-5.1v4.1h4.3v1.3h-4.3v5.6Z"/><path d="M244.3,117.7a3.8,3.8,0,0,1-3-1.3,5,5,0,0,1-1.2-3.4,4.8,4.8,0,0,1,1.2-3.5,4.5,4.5,0,0,1,3.3-1.2l2.4.3v1.3a12.4,12.4,0,0,0-2.3-.4,2.6,2.6,0,0,0-2,1,3.9,3.9,0,0,0-.8,2.5,4.1,4.1,0,0,0,.8,2.5,2.7,2.7,0,0,0,2.1.9,5.3,5.3,0,0,0,2.3-.6v1.5A10.4,10.4,0,0,1,244.3,117.7Z"/><path d="M253.8,116.4a4.2,4.2,0,0,1-2.9,1.3,2.4,2.4,0,0,1-1.8-.7,2.1,2.1,0,0,1-.8-1.7,2.6,2.6,0,0,1,1.3-2.3,6,6,0,0,1,3.6-.8h.3v-1.1a1.4,1.4,0,0,0-1.6-1.6,6.7,6.7,0,0,0-2.8.8V109a7.6,7.6,0,0,1,3.1-.7,3.2,3.2,0,0,1,2.3.7,2.9,2.9,0,0,1,.7,2.1v4.1c0,.9.3,1.4.9,1.4h.3v.9l-1.2.2A1.4,1.4,0,0,1,253.8,116.4Zm-.3-.9v-2.4H253a4.8,4.8,0,0,0-2.2.5,1.7,1.7,0,0,0-.8,1.4,1.4,1.4,0,0,0,1.4,1.4A3.2,3.2,0,0,0,253.5,115.5Z"/></g><g class="cls-2"><path d="M302.2,120.6v-8.7h1.7l2.4,6.7,2.5-6.7h1.5v8.7h-1.1v-7.1l-2.4,6.5h-1.2l-2.3-6.5v7.1Z"/><path d="M314.5,120.7a1.7,1.7,0,0,1-1.4-.5,2,2,0,0,1-.4-1.4v-3.7h-.8v-.9h.8V113h1.1v1.3h1.7v.9h-1.7v3.5c0,.8.4,1.3,1.1,1.3h.6v.8Z"/><path d="M317.1,122.7v-1a5.3,5.3,0,0,0,2,.5,1.8,1.8,0,0,0,2-2.1v-1a2.5,2.5,0,0,1-4,.5,4.4,4.4,0,0,1,.1-4.6,2.5,2.5,0,0,1,2-.9,2.9,2.9,0,0,1,1.9.8v-.7h1.1v4.6a14.2,14.2,0,0,1-.1,2.3,2.4,2.4,0,0,1-.6,1.1,3,3,0,0,1-2.4.9A7.8,7.8,0,0,1,317.1,122.7Zm4.1-4.3v-2.7a2.7,2.7,0,0,0-1.7-.8,1.5,1.5,0,0,0-1.3.7,2.9,2.9,0,0,0-.4,1.7q0,2.1,1.5,2.1A2.6,2.6,0,0,0,321.2,118.4Z"/><path d="M327.1,120.7a2.8,2.8,0,0,1-2.2-.9,4,4,0,0,1,0-4.8,3.1,3.1,0,0,1,4.4,0,3.7,3.7,0,0,1,0,4.8A2.8,2.8,0,0,1,327.1,120.7Zm0-.8c1.2,0,1.8-.9,1.8-2.5s-.6-2.5-1.8-2.5-1.8.9-1.8,2.5S325.9,119.9,327.1,119.9Z"/><path d="M333.7,120.7l-2-.3v-1.1a4.5,4.5,0,0,0,2,.6,1.1,1.1,0,0,0,.8-.3.8.8,0,0,0,.4-.7c0-.4-.3-.7-1-1l-.6-.3c-1-.4-1.5-1-1.5-1.7a1.8,1.8,0,0,1,.6-1.4,2.4,2.4,0,0,1,1.6-.4h1.5v.9l-1.5-.3c-.7,0-1.1.3-1.1.8s.3.7.8.9l.6.3a2.6,2.6,0,0,1,1.3.8,1.5,1.5,0,0,1,.4,1.1,1.8,1.8,0,0,1-.6,1.4A2.6,2.6,0,0,1,333.7,120.7Z"/></g><g class="cls-2"><path d="M359.5,109.4H361v6.4a4,4,0,0,0,.5,2.2,2.1,2.1,0,0,0,1.8.7,2.1,2.1,0,0,0,1.7-.6,3.6,3.6,0,0,0,.5-2.3v-6.4h1.3v6.4a4.7,4.7,0,0,1-.8,3,3.4,3.4,0,0,1-2.8,1,3.6,3.6,0,0,1-2.8-1,4.3,4.3,0,0,1-.9-3Z"/><path d="M369.2,122v-1.2a5.3,5.3,0,0,0,2.3.6,2.1,2.1,0,0,0,2.3-2.4v-1.2a2.6,2.6,0,0,1-2.4,1.6,3,3,0,0,1-2.2-1,4.2,4.2,0,0,1-.8-2.6,4.1,4.1,0,0,1,.9-2.8,3,3,0,0,1,2.4-1.1,3,3,0,0,1,2.1,1v-.8h1.4v5.4a15.1,15.1,0,0,1-.2,2.6,3.1,3.1,0,0,1-.7,1.4,3.8,3.8,0,0,1-2.8.9A6.4,6.4,0,0,1,369.2,122Zm4.7-5v-3.1a2.4,2.4,0,0,0-1.9-1,1.8,1.8,0,0,0-1.5.8,3.9,3.9,0,0,0-.5,2c0,1.7.6,2.5,1.7,2.5A2.9,2.9,0,0,0,373.9,117Z"/><path d="M383.2,119.3a7.4,7.4,0,0,1-2.3.4,3.7,3.7,0,0,1-2.7-1.1,3.9,3.9,0,0,1-1-2.8,4.1,4.1,0,0,1,.9-2.8,3,3,0,0,1,2.3-1.1,2.4,2.4,0,0,1,2.1,1,4.1,4.1,0,0,1,.7,2.7v.4h-4.7c.2,1.8,1.1,2.7,2.6,2.7a6.3,6.3,0,0,0,2.1-.5Zm-4.6-4.3h3.3c0-1.4-.5-2.1-1.6-2.1S378.7,113.6,378.6,115Z"/><path d="M387.4,119.7a6.4,6.4,0,0,1-2.2-.4V118a4.3,4.3,0,0,0,2.3.7,1.4,1.4,0,0,0,.9-.3.9.9,0,0,0,.4-.8c0-.5-.3-.9-1.1-1.2l-.8-.3c-1.1-.5-1.7-1.2-1.7-2.1a1.8,1.8,0,0,1,.7-1.5,2.7,2.7,0,0,1,1.9-.6l1.5.2h.3v1.1l-1.8-.4c-.9,0-1.3.4-1.3,1s.3.7,1,1l.6.3a3.4,3.4,0,0,1,1.6,1,1.7,1.7,0,0,1,.5,1.3,2.1,2.1,0,0,1-.8,1.6A3.2,3.2,0,0,1,387.4,119.7Z"/></g><g class="cls-2"><path d="M105.2,147.6v-6.4h1.2v1.2a2.5,2.5,0,0,1,2.2-1.3,1.7,1.7,0,0,1,1.8,1.9v4.6h-1.1v-4.2a2.2,2.2,0,0,0-.2-1,.9.9,0,0,0-.7-.3,2.4,2.4,0,0,0-2,1.4v4.1Z"/></g><path class="cls-3" d="M62.6,156.2h1.8V161a3,3,0,0,0,.2,1,1.8,1.8,0,0,0,.5.7l.9.2a1.4,1.4,0,0,0,.9-.3,1.1,1.1,0,0,0,.6-.7,1.5,1.5,0,0,0,.3-1v-4.7h1.8V162c0,.3,0,.6.1.7l.6.2h.3v1.4h-.8a2.5,2.5,0,0,1-1.3-.3,1.9,1.9,0,0,1-.5-1h-.2a2,2,0,0,1-.4.8c-.1.3-.4.4-.6.5s-.5.2-.9.2h-.6a.5.5,0,0,1-.4-.2c-.2-.1-.3-.3-.4-.4h-.1v3.2H62.6Z"/><g class="cls-2"><path d="M160.8,135.4a2.7,2.7,0,0,1-1.5-2.2,2.3,2.3,0,0,1,.9-1.9,3.1,3.1,0,0,1,2.2-.7,3.2,3.2,0,0,1,2,.6,1.9,1.9,0,0,1,.8,1.6c0,.9-.6,1.8-1.9,2.6,1.5.8,2.3,1.8,2.3,2.9a2.4,2.4,0,0,1-1,2.1,3.3,3.3,0,0,1-2.5.8,3.6,3.6,0,0,1-2.4-.7,2.5,2.5,0,0,1-.9-2A3.8,3.8,0,0,1,160.8,135.4Zm.7.6-1.1,1.1a2.1,2.1,0,0,0-.3,1.2,2,2,0,0,0,.6,1.4,2.5,2.5,0,0,0,1.5.5,2,2,0,0,0,1.4-.4,1.7,1.7,0,0,0,.6-1.2,1.2,1.2,0,0,0-.4-1,3.8,3.8,0,0,0-1.3-1Zm1-1a2.5,2.5,0,0,0,1.5-2.1,1.1,1.1,0,0,0-.5-.9,1.7,1.7,0,0,0-1.3-.4,1.6,1.6,0,0,0-1.2.4,1,1,0,0,0-.4.9,1.3,1.3,0,0,0,.4,1A7.3,7.3,0,0,0,162.5,135Z"/><path d="M168.7,135.7a2.9,2.9,0,0,1,2.4-1.2,3.3,3.3,0,0,1,2.2.8,3.1,3.1,0,0,1,.8,2.3,3.7,3.7,0,0,1-.9,2.6,3,3,0,0,1-2.4,1,2.9,2.9,0,0,1-2.6-1.3,6.1,6.1,0,0,1-1-3.8,7.1,7.1,0,0,1,1.1-4.1,3.4,3.4,0,0,1,3.1-1.4l2.2.3v1.2a8,8,0,0,0-2.3-.5C169.5,131.6,168.7,133,168.7,135.7Zm4.1,2.2a3,3,0,0,0-.5-1.8,2.1,2.1,0,0,0-1.5-.7,2,2,0,0,0-1.4.6,1.7,1.7,0,0,0-.7,1.4,3.2,3.2,0,0,0,.6,2,1.7,1.7,0,0,0,1.6.8,1.8,1.8,0,0,0,1.4-.6A2.9,2.9,0,0,0,172.8,137.9Z"/></g><path class="cls-3" d="M165.6,184.8h1.7v4.4a3.1,3.1,0,0,0,.1,1,1,1,0,0,0,.5.6l.8.2.9-.2a2,2,0,0,0,.6-.7,2.9,2.9,0,0,0,.2-.9v-4.4h1.7v5.3c0,.4,0,.6.1.7l.5.2h.4v1.3h-.8l-1.2-.2a1.9,1.9,0,0,1-.5-1h-.2l-.3.8-.6.5h-1.4l-.4-.2-.3-.4h-.1v3.1h-1.7Z"/><g class="cls-2"><path d="M224.7,135.6a2.9,2.9,0,0,1-1.6-2.4,2.4,2.4,0,0,1,.9-2,4,4,0,0,1,4.5-.2,2,2,0,0,1,.8,1.7,3.3,3.3,0,0,1-2,2.9c1.7.8,2.5,1.9,2.5,3.1a3.3,3.3,0,0,1-1,2.3,4.6,4.6,0,0,1-2.7.8,4.2,4.2,0,0,1-2.6-.8,2.4,2.4,0,0,1-1-2.1A3.8,3.8,0,0,1,224.7,135.6Zm.8.6a6.6,6.6,0,0,0-1.2,1.2,2.1,2.1,0,0,0-.3,1.2,2.1,2.1,0,0,0,.6,1.6,2.5,2.5,0,0,0,1.5.5,2.1,2.1,0,0,0,1.6-.5,1.4,1.4,0,0,0,.6-1.2,1.4,1.4,0,0,0-.4-1.1,4.5,4.5,0,0,0-1.4-1.1Zm1-1a2.8,2.8,0,0,0,1.5-2.3,1.1,1.1,0,0,0-.5-1,2.3,2.3,0,0,0-2.6,0,1.2,1.2,0,0,0-.5,1,1.5,1.5,0,0,0,.4,1.1Z"/><path d="M234,135.6a2.9,2.9,0,0,1-1.6-2.4,2.4,2.4,0,0,1,.9-2,4,4,0,0,1,4.5-.2,2,2,0,0,1,.8,1.7,3.3,3.3,0,0,1-2,2.9c1.7.8,2.5,1.9,2.5,3.1A3,3,0,0,1,238,141a4.6,4.6,0,0,1-5.2,0,2.4,2.4,0,0,1-1-2.1A3.8,3.8,0,0,1,234,135.6Zm.7.6-1.1,1.2a2.1,2.1,0,0,0-.4,1.2,2.1,2.1,0,0,0,.6,1.6,3,3,0,0,0,1.6.5,2.1,2.1,0,0,0,1.6-.5,1.4,1.4,0,0,0,.6-1.2,1.4,1.4,0,0,0-.4-1.1,4.5,4.5,0,0,0-1.4-1.1Zm1.1-1a2.8,2.8,0,0,0,1.5-2.3,1.1,1.1,0,0,0-.5-1,1.8,1.8,0,0,0-1.3-.4,1.7,1.7,0,0,0-1.3.4,1,1,0,0,0-.5,1,1.5,1.5,0,0,0,.4,1.1Z"/></g><g class="cls-2"><path d="M107,165.1l-4.1-10.9h1.5l3.4,8.9,3.2-8.9h1.4l-4,10.9Z"/></g><g class="cls-2"><path d="M132.7,167.3V152.8h2v14.5Z"/></g><g class="cls-2"><path d="M170.2,159.8v10.1h-2.1V159.8h-1.6v-1.6h1.6v-1.4c0-2.8,1.3-4.2,3.8-4.2a8.1,8.1,0,0,1,2.5.4v1.6l-2.3-.4a2.1,2.1,0,0,0-1.5.5,3.8,3.8,0,0,0-.4,1.9v1.6h3v1.6Z"/></g><g class="cls-2"><path d="M259.3,164.2a11.4,11.4,0,0,1-2.6-.5v-1.4a8.1,8.1,0,0,0,2.8.8,2,2,0,0,0,1.4-.5,1.2,1.2,0,0,0,.5-1.1,1.5,1.5,0,0,0-.3-1,5.3,5.3,0,0,0-1.3-1l-.7-.4a7,7,0,0,1-1.8-1.4,2.5,2.5,0,0,1-.5-1.5,2.6,2.6,0,0,1,.8-1.9,3.3,3.3,0,0,1,2.2-.8,7.7,7.7,0,0,1,2.5.4v1.3a8.1,8.1,0,0,0-2.4-.6,2,2,0,0,0-1.3.4,1.2,1.2,0,0,0-.4,1,1.6,1.6,0,0,0,.3.9l1.3.9.7.4a8.4,8.4,0,0,1,1.9,1.4,3,3,0,0,1,.5,1.6,2.7,2.7,0,0,1-1,2.2A4,4,0,0,1,259.3,164.2Z"/><path d="M267.7,164.1a3.4,3.4,0,0,1-2.5-1.1,4.6,4.6,0,0,1-1-2.9,4.1,4.1,0,0,1,1-2.8,3.7,3.7,0,0,1,2.8-1l1.9.2v1.2a5.4,5.4,0,0,0-1.9-.4,1.9,1.9,0,0,0-1.6.8,3.3,3.3,0,0,0-.7,2.1,3.2,3.2,0,0,0,.7,2,2.1,2.1,0,0,0,1.7.8,4.9,4.9,0,0,0,1.9-.5v1.2A11.1,11.1,0,0,1,267.7,164.1Z"/><path d="M271.9,163.9V153.1h1.3v4.8a3,3,0,0,1,2.6-1.6,2.1,2.1,0,0,1,1.6.6,2.4,2.4,0,0,1,.6,1.7v5.3h-1.4V159a2.9,2.9,0,0,0-.2-1.2,1.1,1.1,0,0,0-.8-.3c-.9,0-1.6.5-2.4,1.6v4.8Z"/><path d="M280.4,163.9V153.1h1.4v10.8Z"/><path d="M284.4,155.1v-1.3h1.3v1.3Zm0,8.8v-7.4h1.3v7.4Z"/><path d="M293.7,163.7a11.1,11.1,0,0,1-2.3.4,3.7,3.7,0,0,1-2.7-1.1,3.9,3.9,0,0,1-1-2.9,4,4,0,0,1,.9-2.7,2.7,2.7,0,0,1,2.3-1.1,2.6,2.6,0,0,1,2.1.9,4.7,4.7,0,0,1,.8,2.8v.4h-4.7c.2,1.8,1,2.7,2.6,2.7a6.4,6.4,0,0,0,2-.5Zm-4.6-4.3h3.3q0-2.1-1.5-2.1T289.1,159.4Z"/><path d="M296,163.9V156a3.9,3.9,0,0,1,.5-2.4,2.4,2.4,0,0,1,2-.7,3.5,3.5,0,0,1,1.8.5,1.7,1.7,0,0,1,.7,1.3,3.5,3.5,0,0,1-.9,2c-.4.5-.6.8-.6,1s.3.6.8,1.1l1.1.9a2.9,2.9,0,0,1,1.2,2.2,2,2,0,0,1-.7,1.6,2.4,2.4,0,0,1-1.7.6,6.5,6.5,0,0,1-1.9-.4v-1.2a4.9,4.9,0,0,0,1.9.6,1,1,0,0,0,1.1-1.1,1.7,1.7,0,0,0-.8-1.3l-1.3-1.1a1.9,1.9,0,0,1-.8-1.5,3.5,3.5,0,0,1,.6-1.6,2.9,2.9,0,0,0,.6-1.5,1,1,0,0,0-.3-.8,1.2,1.2,0,0,0-.9-.3.9.9,0,0,0-.8.4,1.8,1.8,0,0,0-.3,1.1v8.5Z"/><path d="M309.7,163.7a12.4,12.4,0,0,1-2.3.4,3.7,3.7,0,0,1-2.7-1.1,4.4,4.4,0,0,1-.2-5.6,2.9,2.9,0,0,1,2.4-1.1,2.6,2.6,0,0,1,2.1.9,4.7,4.7,0,0,1,.7,2.8v.4H305c.2,1.8,1.1,2.7,2.6,2.7a6.3,6.3,0,0,0,2.1-.5Zm-4.6-4.3h3.3c0-1.4-.6-2.1-1.6-2.1S305.2,158,305.1,159.4Z"/><path d="M311.9,163.9v-7.4h1.4v1.4a2.4,2.4,0,0,1,2.3-1.6h.4v1.3h-.6a2.3,2.3,0,0,0-2.1,1.5v4.9Z"/></g><g class="cls-2"><path d="M227.2,185.7a3.1,3.1,0,0,1-1.6-2.5,2.5,2.5,0,0,1,.9-2,3.6,3.6,0,0,1,2.3-.8,3.1,3.1,0,0,1,2.2.7,1.9,1.9,0,0,1,.8,1.7c0,1-.6,2-2,2.9,1.7.8,2.5,1.8,2.5,3.1a2.8,2.8,0,0,1-1.1,2.2,3.6,3.6,0,0,1-2.6.9,3.7,3.7,0,0,1-2.6-.9,2.4,2.4,0,0,1-1-2.1A3.6,3.6,0,0,1,227.2,185.7Zm.8.5a6.6,6.6,0,0,0-1.2,1.2,2.8,2.8,0,0,0-.3,1.3,2.1,2.1,0,0,0,2.1,2.1,2.5,2.5,0,0,0,1.6-.5,1.8,1.8,0,0,0,.6-1.3,1.5,1.5,0,0,0-.4-1.1,4.6,4.6,0,0,0-1.4-1Zm1-1a2.8,2.8,0,0,0,1.5-2.2,1.2,1.2,0,0,0-.5-1.1,2.3,2.3,0,0,0-2.6,0,1.4,1.4,0,0,0-.5,1,1.5,1.5,0,0,0,.4,1.1Z"/><path d="M236.5,185.7a3.1,3.1,0,0,1-1.6-2.5,2.5,2.5,0,0,1,.9-2,3.6,3.6,0,0,1,2.3-.8,3.2,3.2,0,0,1,2.2.7,1.9,1.9,0,0,1,.8,1.7c0,1-.6,2-2,2.9,1.7.8,2.5,1.8,2.5,3.1a2.8,2.8,0,0,1-1.1,2.2,3.7,3.7,0,0,1-2.6.9,3.6,3.6,0,0,1-2.6-.9,2.4,2.4,0,0,1-1-2.1A3.6,3.6,0,0,1,236.5,185.7Zm.7.5-1.1,1.2a2,2,0,0,0-.4,1.3,2,2,0,0,0,.6,1.5,2.3,2.3,0,0,0,1.6.6,2.5,2.5,0,0,0,1.6-.5,1.8,1.8,0,0,0,.6-1.3,1.5,1.5,0,0,0-.4-1.1,4.6,4.6,0,0,0-1.4-1Zm1.1-1a2.8,2.8,0,0,0,1.5-2.2,1.2,1.2,0,0,0-.5-1.1,2.5,2.5,0,0,0-1.3-.4,2.2,2.2,0,0,0-1.3.4,1.1,1.1,0,0,0-.5,1,1.5,1.5,0,0,0,.4,1.1Z"/></g><g class="cls-2"><path d="M227.3,214.7v-1.1a3.8,3.8,0,0,0,1.7.4,1.8,1.8,0,0,0,2-2.1c0-1.4-.9-2.1-2.9-2.1h-.7v-4.6h4.8v1.1h-3.7v2.5a4.3,4.3,0,0,1,2.9.8,3.1,3.1,0,0,1,1,2.3,2.7,2.7,0,0,1-1,2.2,3.7,3.7,0,0,1-2.5.7A4.7,4.7,0,0,1,227.3,214.7Z"/><path d="M235.4,214.7v-1.1a4.2,4.2,0,0,0,1.8.4,2.5,2.5,0,0,0,1.5-.5,2.5,2.5,0,0,0,.5-1.6c0-1.4-1-2.1-2.9-2.1h-.7v-4.6h4.8v1.1h-3.7v2.5a4.1,4.1,0,0,1,2.8.8,2.8,2.8,0,0,1,1,2.3,2.9,2.9,0,0,1-.9,2.2,4,4,0,0,1-2.6.7A5,5,0,0,1,235.4,214.7Z"/></g><g class="cls-2"><path d="M296.6,214v-1.1a3.8,3.8,0,0,0,1.7.4,1.9,1.9,0,0,0,1.5-.6,2.1,2.1,0,0,0,.5-1.5c0-1.4-.9-2.1-2.9-2.1h-.7v-4.6h4.8v1.1h-3.7v2.5a3.9,3.9,0,0,1,2.8.8,2.9,2.9,0,0,1,.1,4.5,3.7,3.7,0,0,1-2.5.7A4.7,4.7,0,0,1,296.6,214Z"/><path d="M304.7,214v-1.1a3.9,3.9,0,0,0,1.8.4,2,2,0,0,0,1.5-.6,2.1,2.1,0,0,0,.5-1.5c0-1.4-1-2.1-2.9-2.1h-.7v-4.6h4.7v1.1H306v2.5a4.1,4.1,0,0,1,2.8.8,2.6,2.6,0,0,1,1,2.3,2.9,2.9,0,0,1-.9,2.2,4,4,0,0,1-2.6.7A5,5,0,0,1,304.7,214Z"/></g><g class="cls-2"><path d="M317.1,226.7v-6.5h1l3.2,5v-5h.8v6.5h-.9l-3.3-5v5Z"/><path d="M327.5,226.6l-1.5.2a2.1,2.1,0,0,1-1.7-.7,2.1,2.1,0,0,1-.7-1.8,2.8,2.8,0,0,1,.6-1.8,2.1,2.1,0,0,1,1.5-.7,1.8,1.8,0,0,1,1.4.6,3.2,3.2,0,0,1,.4,1.8v.3h-3a1.6,1.6,0,0,0,1.7,1.7l1.3-.3Zm-2.9-2.8h2.1c0-.9-.4-1.3-1-1.3S324.6,222.9,324.6,223.8Z"/><path d="M329.2,226.8v-7h.9v3a1.8,1.8,0,0,1,1.6-1,1.4,1.4,0,0,1,1.3.7,2.3,2.3,0,0,1,.5,1.7,3.6,3.6,0,0,1-.5,1.9,1.9,1.9,0,0,1-2.9.1v.6Zm.9-1.2a1.8,1.8,0,0,0,1.3.6c.8,0,1.2-.7,1.2-1.9s-.4-1.7-1.1-1.7a1.9,1.9,0,0,0-1.4.8Z"/><path d="M338.6,226.6l-1.5.2a2.4,2.4,0,0,1-1.8-.7,2.4,2.4,0,0,1-.6-1.8,2.8,2.8,0,0,1,.6-1.8,2.1,2.1,0,0,1,1.5-.7,1.6,1.6,0,0,1,1.3.6,3.2,3.2,0,0,1,.5,1.8v.3h-3c.1,1.1.6,1.7,1.6,1.7l1.4-.3Zm-3-2.8h2.1c0-.9-.3-1.3-1-1.3S335.7,222.9,335.6,223.8Z"/><path d="M340.3,226.7v-6.9h.8v6.9Z"/><path d="M344.3,226.8l-1.4-.2v-.8a4.3,4.3,0,0,0,1.4.4l.7-.2c.1-.2.2-.3.2-.5s-.2-.6-.7-.8l-.5-.2c-.7-.3-1.1-.7-1.1-1.3a1.2,1.2,0,0,1,.4-1,1.6,1.6,0,0,1,1.2-.4h1.2v.7l-1.1-.2q-.9,0-.9.6c0,.3.2.5.6.7h.5a2.6,2.6,0,0,1,1,.7,1.1,1.1,0,0,1,.3.8,1.2,1.2,0,0,1-.5,1A2,2,0,0,1,344.3,226.8Z"/><path d="M349.7,226.8a1.9,1.9,0,0,1-1.6-.7,2.4,2.4,0,0,1-.7-1.8,2.4,2.4,0,0,1,.6-1.8,2.4,2.4,0,0,1,1.8-.7l1.3.2v.7l-1.2-.2a1.4,1.4,0,0,0-1.1.5,1.8,1.8,0,0,0-.4,1.3,1.7,1.7,0,0,0,.4,1.3,1.2,1.2,0,0,0,1.1.5l1.2-.3v.8Z"/><path d="M352.6,226.7v-6.9h.8v3a2.4,2.4,0,0,1,1.7-1,1.5,1.5,0,0,1,1,.4,1.4,1.4,0,0,1,.4,1.1v3.4h-.9v-3.1a1.7,1.7,0,0,0-.1-.8l-.5-.2a1.9,1.9,0,0,0-1.6,1v3.1Z"/><path d="M361.9,226.6l-1.5.2a2.4,2.4,0,0,1-1.8-.7,2.4,2.4,0,0,1-.6-1.8,2.8,2.8,0,0,1,.6-1.8,2,2,0,0,1,1.5-.7,1.6,1.6,0,0,1,1.3.6,3.2,3.2,0,0,1,.5,1.8v.3h-3c.1,1.1.6,1.7,1.6,1.7l1.4-.3Zm-3-2.8H361c0-.9-.3-1.3-1-1.3S359,222.9,358.9,223.8Z"/><path d="M363.5,221.1v-.9h.9v.9Zm0,5.6v-4.8h.9v4.8Z"/><path d="M366.3,226.7v-4.8h.9v.9a2.1,2.1,0,0,1,1.7-1,1.8,1.8,0,0,1,1,.4,1.8,1.8,0,0,1,.3,1.1v3.4h-.8v-3.1a1.5,1.5,0,0,0-.2-.8l-.5-.2a1.9,1.9,0,0,0-1.5,1v3.1Z"/><path d="M372.5,226.7l-1.4-4.8h.9l1,3.7,1.1-3.7h.9l1,3.7,1.2-3.7h.7l-1.5,4.8h-.9l-1-3.7-1.2,3.7Z"/><path d="M382.4,226.6l-1.5.2a2.4,2.4,0,0,1-1.8-.7,2.4,2.4,0,0,1-.6-1.8,2.8,2.8,0,0,1,.6-1.8,2.1,2.1,0,0,1,1.5-.7,1.6,1.6,0,0,1,1.3.6,3.2,3.2,0,0,1,.5,1.8v.3h-3c.1,1.1.6,1.7,1.6,1.7l1.4-.3Zm-3-2.8h2.1c0-.9-.3-1.3-1-1.3S379.5,222.9,379.4,223.8Z"/><path d="M384.1,226.7v-4.8h.8v.9a1.9,1.9,0,0,1,1.5-1h.3v.8h-.4a1.7,1.7,0,0,0-1.4,1v3.1Z"/><path d="M389.2,222.6v4.1h-.9v-4.1h-.7v-.7h.7v-.5c0-1.2.5-1.7,1.6-1.7h1v.7l-1-.2-.6.2c-.1.1-.1.4-.1.8v.6h1.2v.7Z"/><path d="M395,226.6l-1.5.2a2.4,2.4,0,0,1-1.8-.7,2.4,2.4,0,0,1-.6-1.8,2.8,2.8,0,0,1,.6-1.8,2.1,2.1,0,0,1,1.5-.7,1.6,1.6,0,0,1,1.3.6,3.2,3.2,0,0,1,.5,1.8v.3h-3c.1,1.1.6,1.7,1.6,1.7l1.4-.3Zm-3-2.8h2.1c0-.9-.3-1.3-1-1.3S392.1,222.9,392,223.8Z"/><path d="M396.7,226.7v-4.8h.8v.9a1.9,1.9,0,0,1,1.5-1h.3v.8h-.4a1.7,1.7,0,0,0-1.4,1v3.1Z"/></g><g class="cls-2"><path d="M348.7,262.4a6.9,6.9,0,0,1-2.6.5,4.1,4.1,0,0,1-3.1-1.2,4.6,4.6,0,0,1-1.2-3.3,4.5,4.5,0,0,1,1.1-3.1,3.2,3.2,0,0,1,2.7-1.3,2.7,2.7,0,0,1,2.3,1.1,4.8,4.8,0,0,1,.9,3.1v.5h-5.4q.3,3,3,3a5.6,5.6,0,0,0,2.3-.5Zm-5.2-4.9h3.7c0-1.5-.6-2.3-1.7-2.3S343.6,256,343.5,257.5Z"/><path d="M351.1,262.7v-8.5h1.6v1.6a2.9,2.9,0,0,1,2.7-1.8h.4v1.4h-.7a2.7,2.7,0,0,0-2.4,1.7v5.6Z"/></g><g class="cls-2"><path d="M1.4,267.1v-1.4a7.9,7.9,0,0,0,2.5.6,2.4,2.4,0,0,0,1.7-.6,2,2,0,0,0,.6-1.5c0-1.6-1-2.3-3.2-2.3H2.5v-1H3q3,0,3-2.1c0-1.1-.7-1.7-2-1.7a6,6,0,0,0-2.4.6v-1.3a10.9,10.9,0,0,1,2.5-.4c2.2,0,3.3.9,3.3,2.5s-.7,2.2-2.2,2.8c1.7.4,2.6,1.3,2.6,2.8a3.4,3.4,0,0,1-1,2.5,4.7,4.7,0,0,1-2.8.8Z"/><path d="M11.5,267.2v-1.1h2.1v-8.6l-2.1.5v-1.1l3.6-.9v10.1h2.2v1.1Z"/></g><g class="cls-4"><path class="cls-5" d="M39,21.6a.6.6,0,0,1,0-.6.4.4,0,0,1,.6.6H39"/><path d="M26.9,5.9a3.4,3.4,0,0,0-.6-2,3.8,3.8,0,0,0-5.2-1.4,3.9,3.9,0,0,0-2,3.4,3.3,3.3,0,0,0,.6,1.9,3.9,3.9,0,0,0,7.2-1.9m.8,0a4.6,4.6,0,0,1-2.3,4,4.8,4.8,0,0,1-2.4.6,4.6,4.6,0,0,1-4-2.3,4.8,4.8,0,0,1-.7-2.3,4.8,4.8,0,0,1,2.3-4.1A4.8,4.8,0,0,1,23,1.2a4.6,4.6,0,0,1,4,2.3,4,4,0,0,1,.7,2.4"/><path d="M26.9,21.3a3.6,3.6,0,0,0-.6-2A3.8,3.8,0,0,0,23,17.4a3.1,3.1,0,0,0-1.9.6,3.7,3.7,0,0,0-2,3.3,3.1,3.1,0,0,0,.6,1.9,3.7,3.7,0,0,0,3.3,2,3.1,3.1,0,0,0,1.9-.6,3.7,3.7,0,0,0,2-3.3m.8,0a4.6,4.6,0,0,1-2.3,4A4.8,4.8,0,0,1,23,26a4.7,4.7,0,0,1-4-2.4,4.5,4.5,0,0,1-.7-2.3,5.1,5.1,0,0,1,2.3-4.1,4.8,4.8,0,0,1,2.4-.6,4.6,4.6,0,0,1,4,2.3,4,4,0,0,1,.7,2.4"/><path d="M26.9,259a3.3,3.3,0,0,0-.6-1.9,3.9,3.9,0,0,0-7.2,1.9,3.4,3.4,0,0,0,.6,2,3.8,3.8,0,0,0,5.2,1.4,3.9,3.9,0,0,0,2-3.4m.8,0a4.6,4.6,0,0,1-2.3,4.1,4.8,4.8,0,0,1-2.4.6,4.6,4.6,0,0,1-4-2.3,4.6,4.6,0,0,1,1.6-6.4,4.8,4.8,0,0,1,2.4-.6,4.6,4.6,0,0,1,4,2.3,3.9,3.9,0,0,1,.7,2.3"/><path d="M120.8,155.9a11.9,11.9,0,0,0-1.8-6.4,12.6,12.6,0,0,0-11.1-6.4,12.9,12.9,0,0,0-11.1,19.3,12.8,12.8,0,0,0,17.6,4.6,12.8,12.8,0,0,0,6.4-11.1m.8,0a13.4,13.4,0,0,1-6.8,11.8,13.2,13.2,0,0,1-6.9,1.9,13.7,13.7,0,0,1-11.8-6.8,13.4,13.4,0,0,1-1.8-6.9,13.7,13.7,0,0,1,6.8-11.8,13,13,0,0,1,6.8-1.8,13.8,13.8,0,0,1,11.9,6.7,14.8,14.8,0,0,1,1.8,6.9"/><path d="M27.3,6.4a.4.4,0,0,1-.4-.4.4.4,0,0,1,.4-.4L387.8,5a.4.4,0,0,1,.4.4.5.5,0,0,1-.4.5Z"/><path d="M27.3,22a.4.4,0,0,1-.4-.4c0-.3.1-.4.4-.4H387.8a.4.4,0,0,1,.4.4.4.4,0,0,1-.4.4Z"/><path d="M27.3,259.1a.5.5,0,0,1-.5-.4c0-.3.2-.4.5-.4H387.8a.4.4,0,0,1,.4.4.4.4,0,0,1-.4.4Z"/><path d="M145.6,27.4a.4.4,0,1,1-.5-.7,3.2,3.2,0,0,1,1.7-.3h2.3a39.6,39.6,0,0,1,4.7-.5,4.2,4.2,0,0,1,3.7,1.3.3.3,0,0,1-.1.5c-.2.2-.4.1-.6,0s-1.7-1-3-1a44.5,44.5,0,0,0-4.7.5c-1.7.2-3.2,0-3.5.3"/><path d="M145.6,27.5a.5.5,0,0,1-.2.6.5.5,0,0,1-.5-.3h0s.1.2.1.1.1.1.1.1.3-.1.2,0,.2-.1.1-.1h.1a3.7,3.7,0,0,0-.2,1.2c-.2,1.6-.2,3.7-.3,5.8v6.9c0,2.5-.1,4.5-.1,6.2s-.1,2.9-.1,3.9.1,2.3,0,3.3v1c-.1.5-.2,1-.1,1.1s-.1,0,0,0-.1,0-.1,0h.3a.4.4,0,0,1,.5.2.5.5,0,0,1-.2.6,1.2,1.2,0,0,1-.8.1l-.4-.3a.4.4,0,0,1-.1-.3,5.7,5.7,0,0,1,0-1.3,3.4,3.4,0,0,0,.1-1V51.9c0-1,.1-2.3.1-3.9s.1-3.7.1-6.2V34.9a51.5,51.5,0,0,1,.3-5.9,3.7,3.7,0,0,1,.2-1.2.6.6,0,0,1,.2-.5c.1-.1.4-.2.5,0s.2.1.2.2"/><path d="M157,27.6c.2-.1.4-.2.6,0a.3.3,0,0,1,.1.5c-.6.8-.9,3.4-1.2,6.2s0,5.7-.1,8.8-.4,6-.4,8.2.1,2.6,0,3.8-.1,1.2-.1,1.8a5.8,5.8,0,0,0-.2,1h0c.1,0-.1-.1,0-.1s-.1,0-.1,0h0c.2-.1.5,0,.5.2s0,.5-.3.5h-.3l-.3-.2a.5.5,0,0,1-.3-.5c0-.4.1-.7.1-1.1a11.1,11.1,0,0,0,.2-1.7V51.3c0-2.2.3-5.4.4-8.2a88.1,88.1,0,0,1,.1-8.9c.2-1.4.3-2.7.5-3.9a7.2,7.2,0,0,1,.8-2.7"/><path d="M143.7,58.6c0-.2.1-.5.3-.5s.5,0,.5.2.3.4.6.6l1.2.3,3.8-.3a26,26,0,0,1,3.7-.4,2.7,2.7,0,0,1,1.3.2,1,1,0,0,1,.7.9c0,.3-.2.5-.4.4a.4.4,0,0,1-.4-.4c0-.1,0-.1-.2-.2h-1a26.3,26.3,0,0,0-3.6.4l-3.9.3-1.6-.4a1.9,1.9,0,0,1-1-1"/><path d="M154.6,88.9a3.6,3.6,0,0,0-.6-2,3.8,3.8,0,0,0-3.3-1.9,3.6,3.6,0,0,0-2,.6,3.8,3.8,0,0,0-1.9,3.3,3.1,3.1,0,0,0,.6,1.9,3.7,3.7,0,0,0,3.3,2,3.1,3.1,0,0,0,1.9-.6,3.7,3.7,0,0,0,2-3.3m.8,0a4.8,4.8,0,0,1-4.7,4.7,5.1,5.1,0,0,1-4.1-2.3,4.8,4.8,0,0,1-.6-2.4,4.9,4.9,0,0,1,2.3-4.1,4.8,4.8,0,0,1,2.4-.6,4.6,4.6,0,0,1,4,2.3,4.8,4.8,0,0,1,.7,2.4"/><path d="M154.6,133.7a3.1,3.1,0,0,0-.6-1.9,3.6,3.6,0,0,0-3.3-1.9,3.5,3.5,0,0,0-2,.5,3.8,3.8,0,0,0-1.9,3.3,3.6,3.6,0,0,0,.6,2,3.8,3.8,0,0,0,5.2,1.4,4,4,0,0,0,2-3.4m.8,0a5.1,5.1,0,0,1-2.3,4.1,4.8,4.8,0,0,1-2.4.6,4.9,4.9,0,0,1-4.1-2.3,4.8,4.8,0,0,1-.6-2.4,4.6,4.6,0,0,1,2.3-4,4.8,4.8,0,0,1,2.4-.7,4.7,4.7,0,0,1,4,2.4,4.5,4.5,0,0,1,.7,2.3"/><path d="M217.4,133.7a3.8,3.8,0,0,0-.5-1.9,3.7,3.7,0,0,0-3.3-1.9,3.3,3.3,0,0,0-2,.5,3.8,3.8,0,0,0-1.9,3.3,4.6,4.6,0,0,0,.5,2,4,4,0,0,0,3.4,1.9,3.8,3.8,0,0,0,3.8-3.9m.8,0a4.9,4.9,0,0,1-2.3,4.1,4.8,4.8,0,0,1-6.4-1.7,4.8,4.8,0,0,1-.6-2.4,4.6,4.6,0,0,1,2.3-4,4.8,4.8,0,0,1,2.4-.7,4.7,4.7,0,0,1,4,2.4,4.4,4.4,0,0,1,.6,2.3"/><path d="M149.3,93.1a.5.5,0,0,1,.4-.5.4.4,0,0,1,.4.4l.8,36.4a.5.5,0,0,1-.4.5.4.4,0,0,1-.4-.4Z"/><path d="M133.7,148.1a.4.4,0,0,1-.2.5.5.5,0,0,1-.6-.1h.8v.7a6.3,6.3,0,0,1,.2,1.6c.1,1.5-.2,3.6-.3,5.5v3.6a2.9,2.9,0,0,1,0,1.3,7.7,7.7,0,0,1-.1,1h.3a.5.5,0,0,1,.5.3c0,.2-.1.5-.4.5a1.1,1.1,0,0,1-.8,0l-.3-.2a.6.6,0,0,1-.1-.4c0-.4.1-.7.1-1v-5a52.9,52.9,0,0,0,.3-5.3,12.8,12.8,0,0,1-.2-1.7v-.7c0-.1-.1-.1,0-.2V148l.4-.2.3.2h.1"/><path d="M134.4,148.4a.4.4,0,1,1,0-.8H166a.4.4,0,0,1,0,.8Z"/><path d="M166.4,164.6a.5.5,0,0,1,.3.5.4.4,0,0,1-.6.2c-.3-.1-.2-.1-.2-.2h0c-.1-.1-.1-.4-.3-.8a.5.5,0,0,1,.3-.5c.2,0,.5.1.5.3a4.5,4.5,0,0,1,.2.8h-.2m0-15.7a.5.5,0,0,1-.2.6c-.2.1-.5,0-.5-.2l-.2-.4h.3c-.1,0,.2-.1.1-.1h.1v7c.1,2.2.1,3.9.2,5.3a11.1,11.1,0,0,1,.2,1.7,2.2,2.2,0,0,1,.1.8,6.8,6.8,0,0,0,.3,1.2h0c0,.1.1.1-.1.3a.5.5,0,0,1-.6.1.4.4,0,0,1,0-.6h-.1a13,13,0,0,1-.3-1.3,1.5,1.5,0,0,0-.1-.7c-.1-.6-.1-1.2-.2-1.9s-.2-3.1-.2-5.3,0-2.9-.1-4.2a18.6,18.6,0,0,1,.1-2.7.8.8,0,0,0,.1-.4c.1-.2.4-.4.6-.3s.3.2.4.3.1.3.2.4"/><path d="M134.4,164.3a.5.5,0,0,1-.5-.4.5.5,0,0,1,.5-.5H166c.3,0,.4.2.4.5a.4.4,0,0,1-.4.4Z"/><path d="M143.2,148.3a.4.4,0,0,1,0-.6h.5l16,15.9a.4.4,0,0,1-.5.5Z"/><path d="M150,138a.4.4,0,0,1,.8,0v10a.4.4,0,0,1-.8,0Z"/><path d="M150,188.2a.4.4,0,0,1,.8,0v70.5a.4.4,0,0,1-.8,0Z"/><path d="M150.2,257.5a.4.4,0,1,1-.7.3v-.2h.2a3.3,3.3,0,0,0-.2,1.2,3.8,3.8,0,0,0,0,1.5.3.3,0,0,1,.1.2h.3l.4-.2a1.9,1.9,0,0,0,.4-.9,2.4,2.4,0,0,0,0-1.2l-.3-.3H150a.7.7,0,0,0-.6.4,2.1,2.1,0,0,0-.4,1,2,2,0,0,0,0,.8h.4c.3,0,.7-.5.9-1.1a1.3,1.3,0,0,0,.1-.6V258h-.5a1.9,1.9,0,0,0-.7.8,1.6,1.6,0,0,0,.1,1l.3.2a1.5,1.5,0,0,0,.8-.5,3.9,3.9,0,0,0,.5-1.4v-.4h0l-.2.3c0,.3-.1.6-.1.9v.8a.4.4,0,0,0,.1.3h.4l.5-.6a2.5,2.5,0,0,0,.1-.8.1.1,0,0,0-.1-.1H151a2,2,0,0,0-1.1.3.8.8,0,0,0-.4.4v.5c0,.1.1.1.2.2l.7-.3c.2-.2.4-.1.6.1s.1.4-.1.5a2.2,2.2,0,0,1-1.4.5,1.1,1.1,0,0,1-.8-.7,1.4,1.4,0,0,1,.1-1.1,1.6,1.6,0,0,1,.6-.8,2.4,2.4,0,0,1,1.6-.4h.8a1.1,1.1,0,0,1,.6.7,1.8,1.8,0,0,1-.2,1.4l-.6.8a1.2,1.2,0,0,1-1,.3.9.9,0,0,1-.6-.3.7.7,0,0,1-.3-.6,2.1,2.1,0,0,1,0-1.1,3.6,3.6,0,0,1,.2-1,1.2,1.2,0,0,1,.5-.9h.6a.9.9,0,0,1,.6.4,2.2,2.2,0,0,1,0,.8,3.4,3.4,0,0,1-.7,1.8,2,2,0,0,1-1.3.8,1.1,1.1,0,0,1-1.1-.6,2,2,0,0,1-.1-1.7,2.1,2.1,0,0,1,1.3-1.3,2.3,2.3,0,0,1,1.1.2,1.2,1.2,0,0,1,.4.8,3.4,3.4,0,0,1-.1,1,2.2,2.2,0,0,1-1.5,1.6H149a.9.9,0,0,1-.7-.4,1.9,1.9,0,0,1-.1-1.3,2.4,2.4,0,0,1,.5-1.4,1.5,1.5,0,0,1,1.3-.7,1.1,1.1,0,0,1,.8.3,1.1,1.1,0,0,1,.6.7,3.8,3.8,0,0,1,0,1.5,2.1,2.1,0,0,1-.7,1.4,1.1,1.1,0,0,1-.7.3,1.1,1.1,0,0,1-.8,0,1.1,1.1,0,0,1-.6-.7,4.8,4.8,0,0,1,0-1.7,3.3,3.3,0,0,1,.3-1.5c0-.1.1-.2.2-.3a.4.4,0,0,1,.5-.1.5.5,0,0,1,.4.2c.1.1.1.2.2.4"/><path d="M149.5,20.3c.2-.1.4.1.4.3s-.1.4-.3.5-.1,0-.2.2-.1.5-.2.8a2.8,2.8,0,0,0,.1,1h.2a.9.9,0,0,0,.7,0h.6a.4.4,0,0,0,.1-.3,1.9,1.9,0,0,0,.2-.7c.1-.1,0-.2,0-.3l-.4-.3a2.2,2.2,0,0,0-1.1-.2c-.2,0-.3.1-.4.3s-.1.3,0,.5a1.2,1.2,0,0,0,.4.8h.7l.3-.4a1.4,1.4,0,0,0,.2-.7v-.5l-.2-.2-.6-.2-.7.2a2,2,0,0,0-.1.9c.1.2.1.4.2.5l.2.2h.1l.3-.3a2.2,2.2,0,0,0,.5-.8v-.4h.2a.1.1,0,0,0-.1.1,1,1,0,0,0-.2.7.4.4,0,0,1-.3.5c-.2.1-.4-.1-.5-.3a1.8,1.8,0,0,1,.3-1.3.8.8,0,0,1,.4-.4h.7a.7.7,0,0,1,.3.6.8.8,0,0,1-.1.8,3.9,3.9,0,0,1-.6,1.1l-.5.4a.9.9,0,0,1-.7.1,1.8,1.8,0,0,1-.7-.5l-.3-.8a1.8,1.8,0,0,1,.3-1.6,1.7,1.7,0,0,1,1.5-.5l.8.3c.2.2.5.3.6.7a2.1,2.1,0,0,1,0,.8,4.4,4.4,0,0,1-.2,1,2,2,0,0,1-.8.8h-.7a1.1,1.1,0,0,1-.8-.3,2.2,2.2,0,0,1-.8-1.3,2.8,2.8,0,0,1,.1-.9,1.5,1.5,0,0,1,1.1-.8,2.3,2.3,0,0,1,1.6.3,1.8,1.8,0,0,1,.7.5,1.4,1.4,0,0,1,.1.9,2.9,2.9,0,0,1-.2.9,1,1,0,0,1-.7.7c-.3.2-.6,0-.7.1h-.9a1.5,1.5,0,0,1-.9-.6,6.2,6.2,0,0,1-.1-1.3,3.5,3.5,0,0,1,.3-1.1,1.1,1.1,0,0,1,.8-.7"/><path d="M213.9,4.1a.4.4,0,0,1,.2.5.4.4,0,0,1-.5.3h-.2l-.2.3a2.3,2.3,0,0,0-.4,1,2.8,2.8,0,0,0,.1,1l.3.3h.3V7.4a4.3,4.3,0,0,0,.1-.5,1.5,1.5,0,0,0-.1-.7.1.1,0,0,0-.1-.1h-1.3l-.2.3c0,.2-.1.5-.1.7a2.3,2.3,0,0,0-.1.7.4.4,0,0,0,.1.3,1.2,1.2,0,0,0,.9.1c.4-.1.9-.8,1.2-1.5a3.1,3.1,0,0,0,.2-.8l-.2-.2h-.4c-.2,0-.4.2-.6.4a2.4,2.4,0,0,0-.6.9,2.1,2.1,0,0,0,0,.8c0,.1,0,.1.1.1h.1l.5-.3a2.4,2.4,0,0,0,.6-.8,1.6,1.6,0,0,0,.3-.8c0-.1-.1-.1-.1-.2h-.3a.6.6,0,0,0-.1.6.4.4,0,0,1-.4.4c-.3,0-.5-.1-.5-.4a1.7,1.7,0,0,1,.3-1c.2-.3.4-.5.7-.5a.8.8,0,0,1,.8.2.8.8,0,0,1,.4.7,2.7,2.7,0,0,1-.4,1.4l-.7.9a1.6,1.6,0,0,1-1.1.5l-.6-.2c-.2-.2-.4-.4-.4-.6a2.4,2.4,0,0,1,0-1.2,2.5,2.5,0,0,1,.8-1.2,1.5,1.5,0,0,1,1.2-.7,1.5,1.5,0,0,1,.9.2,1.2,1.2,0,0,1,.5.8,3.2,3.2,0,0,1-.2,1.3c-.4.7-.9,1.7-1.8,1.9a1.7,1.7,0,0,1-1.7-.3,1.1,1.1,0,0,1-.3-.8,2.8,2.8,0,0,1,.1-.9,3.1,3.1,0,0,1,.2-.8,1,1,0,0,1,.5-.8c.5-.3,1-.1,1.4-.1h.6a1.2,1.2,0,0,1,.6.6,3.7,3.7,0,0,1,.1,1.1c0,.2-.1.5-.1.7a.9.9,0,0,1-.6.6.7.7,0,0,1-.8-.1,1.3,1.3,0,0,1-.9-.7,2.2,2.2,0,0,1-.1-1.4,5.8,5.8,0,0,1,.5-1.4c.2-.2.3-.4.6-.5a1.1,1.1,0,0,1,.8-.1"/><path d="M212.7,139.1c-.1-.2-.1-.5.1-.6a.3.3,0,0,1,.5.1h.1a.4.4,0,0,1,.1.3.4.4,0,0,1-.2.6c-.2,0-.5-.1-.5-.3v-.3h0c-.1,0,0,.1,0,.1m.3,1.9a.4.4,0,0,1,.4-.4.5.5,0,0,1,.4.5h0v1c0,.2-.2.4-.4.3a.4.4,0,0,1-.4-.4V141c-.1-.6-.2-1.3-.3-1.8V139h0c0-.3.3-.4.5-.4s.4.3.3.5h0v.3c.1.4.2,1.1.3,1.8a5.6,5.6,0,0,1,0,1.3H213v-.9h0m1.5-1.1a.4.4,0,0,1-.2.5.5.5,0,0,1-.6-.2h.6c-.1,0-.1.1-.1.2a5.2,5.2,0,0,0-.2,1.4v3.2h-.1s-.2-.1-.1-.1h-.5c.1,0,0,.1,0,0v-.6a14.8,14.8,0,0,0-.1-2.1,3.6,3.6,0,0,0-.2-1.1v-.2c0-.2.1-.4.3-.4a.3.3,0,0,1,.5.3v.2a3.6,3.6,0,0,1,.2,1.1,17,17,0,0,1,.1,2.2c0,.2.2.6,0,1l-.4.2c-.2.1-.3,0-.3-.1l-.2-.2v-3.5a7,7,0,0,1,.2-1.6l.2-.6c.1,0,.3-.2.5-.1a.7.7,0,0,1,.4.3"/><path d="M213.2,148.2c-.1-.2,0-.4.2-.6a.4.4,0,0,1,.5.2l8.4,15.9a.4.4,0,1,1-.7.3Z"/><path d="M213.1,140.8a.4.4,0,0,1,.2-.6c.2-.1.4,0,.5.3h0a7.6,7.6,0,0,1,.1,1.6c0,1,0,2-.1,3v2.7H213v-.9a28.5,28.5,0,0,1-.2-3.1v-1.8a1.3,1.3,0,0,1,.1-.6.4.4,0,0,1,.1-.3l.5-.2c.2.1.4.3.3.5a.4.4,0,0,1-.5.3h.4a.7.7,0,0,0-.1.5v1.6c.1,1.1.2,2.2.2,3.2v1a.5.5,0,0,1-.5.4c-.2-.1-.4-.3-.3-.5V145c0-1,.1-1.9.1-2.9a4.9,4.9,0,0,0-.1-1.4h.1m1.1-1.7a.3.3,0,0,1,0,.5.5.5,0,0,1-.6,0h.6c-.1.1-.1.2-.1.4s-.1,1-.2,1.6v5.4c0,.2-.1.4-.1.6v.2c-.1,0,0,.1-.2.2a.4.4,0,0,1-.6,0,.5.5,0,0,1,.1-.6H213v-.3a2.2,2.2,0,0,1-.1-.8v-3.1a7.1,7.1,0,0,1,.1-1.5v-1.1h0a.5.5,0,0,1,.6-.3.4.4,0,0,1,.2.5h0v1.1a7.6,7.6,0,0,1-.1,1.5c0,1,.1,2.1,0,3.1s.1.5.1.7v.4a.4.4,0,0,1-.2.4l-.5-.6H213v-.2a4.3,4.3,0,0,0,.1-.5v-5.3a7.2,7.2,0,0,1,.2-1.7,1.3,1.3,0,0,1,.1-.6l.3-.3c.1-.1.4,0,.5.2"/><path d="M213.1,163.9a.5.5,0,0,1,.5-.5.5.5,0,0,1,.4.5v15.8a.4.4,0,0,1-.4.4.5.5,0,0,1-.5-.4Z"/><path d="M154.1,184a3.6,3.6,0,0,0-.6-2,3.8,3.8,0,0,0-5.2-1.4,3.9,3.9,0,0,0-2,3.4,3.3,3.3,0,0,0,.6,1.9,3.6,3.6,0,0,0,3.3,1.9,3.9,3.9,0,0,0,3.9-3.8m.8,0a4.6,4.6,0,0,1-4.7,4.6,4.6,4.6,0,0,1-4-2.3,3.9,3.9,0,0,1-.7-2.3,4.6,4.6,0,0,1,2.3-4.1,4.8,4.8,0,0,1,2.4-.6,4.6,4.6,0,0,1,4,2.3,4.8,4.8,0,0,1,.7,2.4"/><path d="M217.9,183.9a3.2,3.2,0,0,0-.5-1.9,3.7,3.7,0,0,0-3.3-1.9,4.6,4.6,0,0,0-2,.5,4,4,0,0,0-1.9,3.3,4.6,4.6,0,0,0,.5,2,4.1,4.1,0,0,0,3.4,1.9,3.8,3.8,0,0,0,1.9-.5,3.8,3.8,0,0,0,1.9-3.4m.9,0a4.7,4.7,0,0,1-2.4,4.1,4.6,4.6,0,0,1-2.3.6,4.6,4.6,0,0,1-4.7-4.7,4.6,4.6,0,0,1,2.3-4,4.8,4.8,0,0,1,2.4-.7,4.7,4.7,0,0,1,4,2.4,4.8,4.8,0,0,1,.7,2.3"/><path d="M213,188.1a.4.4,0,0,1,.8,0V203a.4.4,0,0,1-.8,0Z"/><path d="M227.1,227.1a13.6,13.6,0,0,0-1.8-6.6,13.1,13.1,0,0,0-11.4-6.5,12.3,12.3,0,0,0-6.6,1.8,13.1,13.1,0,0,0-6.6,11.3,13.7,13.7,0,0,0,1.8,6.7,13.1,13.1,0,0,0,11.4,6.5,13.3,13.3,0,0,0,13.2-13.2m.8,0a13.9,13.9,0,0,1-7,12.1,13.6,13.6,0,0,1-7,1.9,14,14,0,0,1-12.1-6.9,14.2,14.2,0,0,1-1.9-7.1,13.8,13.8,0,0,1,7-12,12.7,12.7,0,0,1,7-1.9,13.8,13.8,0,0,1,12.1,6.9,14.1,14.1,0,0,1,1.9,7"/><path d="M205.4,237.7c-.2.2-.5.2-.6,0a.3.3,0,0,1-.1-.5L222.9,217a.5.5,0,0,1,.6-.1c.1.2.2.5,0,.6Z"/><path d="M204.6,217.3c-.2-.2-.2-.5,0-.6s.4-.1.6,0l17.4,20.9a.4.4,0,1,1-.7.5Z"/><path d="M290.2,227.4a13.3,13.3,0,0,0-1.8-6.6,13.4,13.4,0,0,0-18-4.8,13.4,13.4,0,0,0-6.6,11.4,14,14,0,0,0,1.8,6.7,13.1,13.1,0,0,0,11.4,6.5,13.3,13.3,0,0,0,13.2-13.2m.8,0a13.9,13.9,0,0,1-7,12.1,13.6,13.6,0,0,1-7,1.9,14,14,0,0,1-12.1-6.9,14,14,0,0,1,5.1-19.2,13.6,13.6,0,0,1,7-1.9,14.1,14.1,0,0,1,14,14"/><path d="M268.5,238c-.2.2-.5.2-.6,0s-.2-.4-.1-.6L286,217.3a.5.5,0,0,1,.6-.1.4.4,0,0,1,0,.6Z"/><path d="M267.7,217.5a.3.3,0,0,1,0-.5c.2-.2.4-.1.6,0l17.4,20.9a.4.4,0,1,1-.7.5Z"/><path d="M217.6,207.3a3.4,3.4,0,0,0-.6-2,3.8,3.8,0,0,0-5.2-1.4,3.9,3.9,0,0,0-2,3.4,3.3,3.3,0,0,0,.6,1.9,3.8,3.8,0,0,0,3.3,1.9,4.6,4.6,0,0,0,2-.5,4,4,0,0,0,1.9-3.3m.8,0a4.6,4.6,0,0,1-2.3,4,4.8,4.8,0,0,1-2.4.6,4.6,4.6,0,0,1-4-2.3,4.8,4.8,0,0,1-.7-2.3,4.8,4.8,0,0,1,2.3-4.1,4.8,4.8,0,0,1,2.4-.6,4.9,4.9,0,0,1,4.1,2.3,4.8,4.8,0,0,1,.6,2.4"/><path d="M217.4,249.6a3.8,3.8,0,0,0-.5-1.9,3.7,3.7,0,0,0-3.3-1.9,3.3,3.3,0,0,0-2,.5,4,4,0,0,0-1.9,3.3,4.6,4.6,0,0,0,.5,2,4,4,0,0,0,3.4,1.9,3.8,3.8,0,0,0,3.8-3.9m.8,0a4.7,4.7,0,0,1-2.3,4.1,4.8,4.8,0,0,1-6.4-1.7,4.8,4.8,0,0,1-.6-2.4,4.6,4.6,0,0,1,2.3-4,4.8,4.8,0,0,1,2.4-.7,4.7,4.7,0,0,1,4.6,4.7"/><path d="M281.1,249.6a3.8,3.8,0,0,0-.5-1.9,3.8,3.8,0,0,0-3.4-1.9,3.2,3.2,0,0,0-1.9.5,3.7,3.7,0,0,0-1.9,3.3,4.6,4.6,0,0,0,.5,2,4,4,0,0,0,3.3,1.9,4.6,4.6,0,0,0,2-.5,4.1,4.1,0,0,0,1.9-3.4m.8,0a4.6,4.6,0,0,1-4.7,4.7,4.6,4.6,0,0,1-4-2.3,4.8,4.8,0,0,1-.7-2.4,4.7,4.7,0,0,1,2.4-4,4.5,4.5,0,0,1,6.4,1.7,4.6,4.6,0,0,1,.6,2.3"/><path d="M280.5,207.3a4.2,4.2,0,0,0-.5-2,4,4,0,0,0-3.3-1.9,4.2,4.2,0,0,0-2,.5,4,4,0,0,0-1.9,3.4,4.1,4.1,0,0,0,.5,1.9,4,4,0,0,0,3.4,1.9,4.1,4.1,0,0,0,1.9-.5,4,4,0,0,0,1.9-3.3m.8,0a4.6,4.6,0,0,1-2.3,4,4.7,4.7,0,0,1-4.7-8.1,4.8,4.8,0,0,1,2.4-.6,4.6,4.6,0,0,1,4,2.3,4.8,4.8,0,0,1,.6,2.4"/><path d="M120.8,111.2a11.9,11.9,0,0,0-1.8-6.4,12.8,12.8,0,0,0-22.2,12.9,13,13,0,0,0,11.1,6.4,12.9,12.9,0,0,0,6.5-1.7,13.1,13.1,0,0,0,6.4-11.2m.8,0a13.7,13.7,0,0,1-6.8,11.9,14.2,14.2,0,0,1-6.9,1.8,13.7,13.7,0,0,1-11.8-6.8,13.1,13.1,0,0,1-1.8-6.9,13.7,13.7,0,0,1,6.8-11.8,14.1,14.1,0,0,1,6.8-1.8,13.7,13.7,0,0,1,11.9,6.8,14.1,14.1,0,0,1,1.8,6.8"/><path d="M131.3,129.9c-.2-.1-.4-.3-.3-.5a.4.4,0,0,1,.5-.3l19.3,4.2a.5.5,0,0,1,.3.5c-.1.2-.3.4-.5.3Z"/><path class="cls-6" d="M131.4,137.1c-.2.1-.4-.1-.4-.3s.1-.4.3-.5l19.3-3c.3,0,.5.1.5.4s-.1.4-.3.4Z"/><path d="M107.5,125.1a.4.4,0,0,1,.4-.4c.3,0,.4.1.5.4a16.1,16.1,0,0,1,0,2.2v1.9h0s-.1-.1,0-.1-.1,0-.1,0-.1-.1,0-.1h-.7c.1,0,0,.1,0,.1h0c.1-.3.3-.4.5-.3a.4.4,0,0,1,.3.5h0l-.3.2c-.1.1-.3,0-.4-.1s-.1-.2-.1-.2v-2.2a16.2,16.2,0,0,0-.1-2.2"/><path d="M107.3,138.1a.5.5,0,0,1,.5-.3.4.4,0,0,1,.3.5h.1c0,.1-.1.1-.1.2v.6a23.7,23.7,0,0,0-.2,3.5.4.4,0,0,1-.4.4c-.2.1-.4-.1-.4-.3a23,23,0,0,1,.2-3.6v-.9m.8.3a.4.4,0,1,1-.8,0v-.2h0a.4.4,0,0,1,.4-.4.5.5,0,0,1,.5.4h-.1"/><path d="M108,130.2a.4.4,0,1,1,0-.8h23.4a.4.4,0,1,1,0,.8Z"/><path class="cls-6" d="M107.6,138.6a.4.4,0,0,1-.4-.4.4.4,0,0,1,.4-.4l23.8-1.5a.4.4,0,1,1,0,.8Z"/><path d="M107.7,169.2a.4.4,0,0,1,.8,0V184a.4.4,0,1,1-.8,0Z"/><path d="M149.8,163.9a.4.4,0,1,1,.8,0v15.8a.4.4,0,0,1-.8,0Z"/><path class="cls-6" d="M108,88.6a.4.4,0,0,1,.8,0V98a.4.4,0,1,1-.8,0Z"/><path class="cls-6" d="M108.4,89a.4.4,0,0,1,0-.8h41.8a.4.4,0,1,1,0,.8Z"/><path d="M108.1,184.4a.4.4,0,0,1-.4-.4.4.4,0,0,1,.4-.4h42.1a.4.4,0,0,1,.4.4.4.4,0,0,1-.4.4Z"/><path d="M108.1,139.9a.4.4,0,0,1,.4.4.7.7,0,0,1-.5.4.4.4,0,0,1-.3-.2c-.1,0,.2.1.1.1h.3a.4.4,0,0,1-.6.3c-.2,0-.3-.3-.2-.5a1,1,0,0,1,.2-.5h.6"/><path class="cls-6" d="M106.9,138.9a.4.4,0,0,1,.4-.4c.3-.1.4.1.5.4v2.4a.4.4,0,0,1-.2.6.5.5,0,0,1-.6-.2v-.5a14.8,14.8,0,0,1-.1-2.1v-.2m1.1,3.4a.4.4,0,0,1-.6.2c-.2,0-.3-.3-.2-.5h0a.4.4,0,0,1-.1-.3v-2.1a.4.4,0,0,1-.1-.3V139h0a.4.4,0,0,1,.4-.4c.3,0,.4.1.5.4h0a.4.4,0,0,0,.1.3v.7a5.6,5.6,0,0,1,0,1.3v.5h0v.2m-.9-3.3c.1-.2.2-.4.5-.4a.4.4,0,0,1,.4.4h0v3.1c0,.1.1.1-.1.3a.5.5,0,0,1-.6.1c-.2-.2-.2-.5,0-.6h-.1v-1.5c0-.6-.1-1.1-.1-1.4h0m1,2.7a.4.4,0,0,1-.6,0,.6.6,0,0,1,0-.6c.1,0,0,.2,0,.1h-.1v-.2a2.5,2.5,0,0,0-.1-.8c0-.4-.1-.7-.1-1v-.2h0a.3.3,0,0,1,.3-.5c.2-.1.4.1.5.3h0v.2c0,.3.1.6.1.9a3.8,3.8,0,0,1,.1,1c0,.2.1.3,0,.4s.1.1-.1.2m-1-2.9a.6.6,0,0,1,0-.6c.2-.1.5-.1.6.1h.1a.4.4,0,0,1,.1.3c0,.3.1.6.1,1a1.3,1.3,0,0,0,.1.6v.5a.4.4,0,0,0,.1.3h0c0,.1-.1,0,0,0a.5.5,0,0,1-.2.6.4.4,0,0,1-.5-.2h-.1c0-.2,0-.2-.1-.3v-.8a1.5,1.5,0,0,1-.1-.7c0-.3-.1-.6-.1-.8s-.1-.2-.1-.3h.1m.7,0c.1.2-.1.4-.3.4s-.5-.1-.5-.3v-.4h0a.5.5,0,0,1,.6-.2.4.4,0,0,1,.2.5h0v.2"/><path class="cls-7" d="M110.9,106.8a.5.5,0,0,1,.3-.5c.2,0,.5.1.5.3s0,.2,0,.2h0a.4.4,0,0,0-.1.3,2.9,2.9,0,0,0-.4.8.4.4,0,0,1-.8-.4l.4-.8c.1-.1.1-.1.1-.2h0m-5.8.1a.4.4,0,0,1-.2.5.4.4,0,0,1-.6-.2.4.4,0,0,0-.1-.3h0a.4.4,0,0,1,.1-.3.3.3,0,0,1,.5-.1c.3.1.2.2.2.2v.2a2.5,2.5,0,0,1,.4.9c.2.6.5,1.2.8,2.1s.4,2.2.6,3.1a10.4,10.4,0,0,0,.3,1.2.4.4,0,0,1,.1.3l.2.3h-.2a.4.4,0,0,1,.1-.3c.2-.6.4-1.3.8-2.3a29.3,29.3,0,0,1,1.2-2.8l.9-1.7.5-1c0-.1.1-.1.1-.2h.2c0-.1,0-.1.1-.1a.5.5,0,0,1,.5.3.4.4,0,0,1-.2.5h.1l-.6,1.2a6,6,0,0,0-.8,1.6,29.3,29.3,0,0,0-1.2,2.8,15.9,15.9,0,0,0-.8,2.2c-.1.1-.1.3-.2.4v.2c0,.1-.1.2-.3.2l-.5-.2-.3-.3-.2-.4-.2-.3a13,13,0,0,1-.3-1.3c-.2-1-.4-2.2-.6-3.1a9.3,9.3,0,0,0-.8-2,2.2,2.2,0,0,0-.3-.8c0-.1,0-.1-.1-.2h.2c-.1,0,.1.1,0,.1s.2,0,.2,0h.2c-.1,0,.1-.2.1-.1v-.2h0a.3.3,0,0,1,.1.2"/><path class="cls-7" d="M105.1,152.1a.5.5,0,0,1-.4.5.4.4,0,0,1-.4-.4s-.1-.1.1-.3h.7c.1.1.1.2.2.4a8.4,8.4,0,0,1,.7,1.6l.3,1c.4,1.3.7,2.9,1,4.1a5.6,5.6,0,0,0,.1.7v.2s-.1-.1,0-.1h-.4a1.4,1.4,0,0,0,.3-.6c.3-.8.6-2.1,1.1-3.3a33.9,33.9,0,0,1,1.5-3.2l.5-1a.3.3,0,0,1,.1-.2h.5c.2.1.2.2.2.3s0,.2,0,.4a.4.4,0,0,1-.4.4.5.5,0,0,1-.4-.5h.2c-.1,0,.2.1.1.1s.3-.1.2-.1h.2l-.5,1a23.3,23.3,0,0,0-1.4,3.1,24.6,24.6,0,0,0-1.1,3.2,3,3,0,0,1-.5,1l-.4.2H107c-.2-.2-.3-.3-.3-.5a2,2,0,0,1-.2-.9c-.3-1.1-.6-2.7-1-3.9l-.3-1.1a6.4,6.4,0,0,0-.6-1.4c-.1-.1-.1-.3-.2-.3h.6c-.1,0,.1-.2.1-.2s0-.1,0-.1h0"/><path d="M165.8,156.6a.4.4,0,0,1-.5-.3.4.4,0,0,1,.2-.5,12.2,12.2,0,0,1,3.4-.4l4.5-.2a.4.4,0,0,1,.4.4c0,.3-.2.4-.4.5H169a9.6,9.6,0,0,0-3.2.4"/><path d="M179.4,155.6c-.3,0-.5-.2-.4-.4a.4.4,0,0,1,.4-.4h2.7l5,.3a.5.5,0,0,1,.3.5.5.5,0,0,1-.5.4,30.8,30.8,0,0,0-4.8-.4h-2.7"/><path d="M192.1,156.2a.5.5,0,0,1-.4-.5c0-.2.2-.3.5-.3h2.4a19.1,19.1,0,0,1,4,.2c.2,0,.4.2.3.4a.4.4,0,0,1-.4.4,28.2,28.2,0,0,0-3.9-.2,20.4,20.4,0,0,1-2.5,0"/><path d="M205.8,155.8c-.2-.1-.4-.3-.3-.5a.4.4,0,0,1,.5-.3,6.6,6.6,0,0,0,1.9-.1l3.2-.4a.5.5,0,0,1,.5.4.4.4,0,0,1-.4.4l-3.2.5h-2.2"/><path d="M214.3,156a.5.5,0,0,1-.5-.4.4.4,0,0,1,.4-.4,12.2,12.2,0,0,1,3.4-.2.4.4,0,0,1,0,.8,29.2,29.2,0,0,0-3.3.2"/><path d="M162.5,45.3a.5.5,0,0,1-.6.2c-.2-.1-.2-.4-.1-.6h-.1l.3-1.2c.1-.2.3-.4.5-.3a.3.3,0,0,1,.3.5,9.1,9.1,0,0,1-.3,1.2h0m1.1-5.3c-.1.2-.3.4-.5.3s-.4-.3-.3-.5a4.3,4.3,0,0,1,.1-.5l.3-.2c.1-.1.4,0,.4.1a.3.3,0,0,1,.1.2v.2a7.4,7.4,0,0,1-.2,1.2l-.8,3.7a1.1,1.1,0,0,0-.1.5h-.1c.1.2-.1.4-.3.4s-.5-.1-.5-.4h0a.1.1,0,0,1,.1-.1,1.5,1.5,0,0,1,.1-.6c.2-.9.5-2.4.8-3.6a9.6,9.6,0,0,0,.2-1.2h.1c-.1,0,.1.2.1.1h.2c-.1,0,.2-.1.1,0h.2s.1-.1,0-.1h.1a.4.4,0,0,0-.1.3"/><path d="M160.4,37a.4.4,0,0,1,.4.4c0,.3-.2.5-.4.4h-.9a4.3,4.3,0,0,1,.1-.5h.2c.2-.1.4,0,.7,0l2,.2a17.7,17.7,0,0,0,3.7.2.4.4,0,0,1,.4.4c.1.2-.1.4-.3.4a19.2,19.2,0,0,1-3.9-.2l-1.9-.2h-.3s.1-.1,0-.1.1-.1.1-.1h0v-.2h.1"/><path d="M159.9,42.1a.5.5,0,0,1,.6-.2c.2.1.2.4.1.6s.1-.1,0-.1h0v-.2h-.2l.6-.3a7.1,7.1,0,0,1,2.2-.6,4.4,4.4,0,0,1,2.4.7.4.4,0,0,1-.5.7,2.7,2.7,0,0,0-1.9-.6,4.8,4.8,0,0,0-1.8.6l-.8.3h-.2a.2.2,0,0,1-.3-.1.4.4,0,0,1-.2-.4.3.3,0,0,0,.1-.2"/><path d="M166.1,46.3c-.1-.2-.1-.5.1-.6s.4-.1.5,0h0l.5-.4a1.8,1.8,0,0,1,.7-.5l.5-.2a.6.6,0,0,1,.6,0,2.5,2.5,0,0,1,.4.7V46a4,4,0,0,1-.4,1.3c-.1.2-.4.3-.5.2a.5.5,0,0,1-.2-.6,4.1,4.1,0,0,0,.3-1,.7.7,0,0,0-.1-.5v-.2h-.2l-.6.4-.6.5-.4.2-.6-.2"/><path d="M230.7,41.4a.5.5,0,0,1,.1-.6.5.5,0,0,1,.6.1h0c.1.2,0,.2,0,.3h0a.8.8,0,0,1-.1.4,8.3,8.3,0,0,0-.4,1.2,15.2,15.2,0,0,0-.9,2.5,4.6,4.6,0,0,1-.3.9v.3h-.2a.5.5,0,0,1,.1.6c-.2.2-.5.2-.6,0s-.2-.3-.2-.3,0-.1.1-.1v-.4a4.6,4.6,0,0,0,.3-.9,16.1,16.1,0,0,1,.9-2.6c.2-.5.3-.9.4-1.2a.8.8,0,0,0,.1-.3h0c0-.1.1.2.1.1s.1.2,0,.1m.7,0a.4.4,0,0,1-.6.1c-.2-.1-.2-.3-.1-.5h0l.3-.2a.4.4,0,0,1,.4.4c.1.2-.1.4-.3.5s.1-.1.1-.1.1-.1.1,0h.1"/><path d="M228,40.7a.5.5,0,0,1-.5-.4.4.4,0,0,1,.4-.4c1.8-.2,4.7-.5,6.2.1s.3.3.2.5-.3.3-.5.2-4.1-.2-5.8,0"/><path d="M228.4,43.5c0-.3.2-.4.4-.5a.4.4,0,0,1,.4.4h0c.1.1,0,0,.1,0s.3,0,.6,0a3.9,3.9,0,0,1,2.4,0,.5.5,0,0,1,.2.6c-.1.2-.4.2-.6.1a3.8,3.8,0,0,0-1.8.1,3.3,3.3,0,0,1-1,0,.5.5,0,0,1-.5-.3.8.8,0,0,1-.2-.5"/><path d="M233.4,46.4a.4.4,0,0,1,0-.8,2.9,2.9,0,0,1,1.8.2l.3.4v.4a1.1,1.1,0,0,1-.3.8,7.9,7.9,0,0,1-1.3,1.3c0,.1-.1.1-.1.2h0a.3.3,0,0,0,.1.2h.9l1.2-.2c.2-.1.4.1.5.3a.7.7,0,0,1-.4.5l-1.3.2a2.5,2.5,0,0,1-1.5-.3,1.1,1.1,0,0,1-.3-.8.9.9,0,0,1,.3-.6c.4-.5,1-.8,1.2-1.2s.2-.3.2-.5h0s.1.1,0,.1h-1.3"/><path class="cls-7" d="M64.1,102.8a.4.4,0,0,1,.8,0h0c-.1.1-.1.3-.2.5a16.1,16.1,0,0,0-1,2.5,17,17,0,0,0-.6,3.1,8.4,8.4,0,0,0,0,2.3.3.3,0,0,1,.1.2h.2a2.6,2.6,0,0,0,1.2-.7,21.5,21.5,0,0,0,2.1-3.5l.9-1.6.4-.6.3-.2.5.2v.3a6,6,0,0,1-.5,1.4,14.9,14.9,0,0,0-.7,2.5,4.3,4.3,0,0,0,0,1.6c0,.2.1.3.2.3h.5a7.1,7.1,0,0,0,1.9-.8c.2-.2.4-.1.6.1a.4.4,0,0,1-.1.5,6.4,6.4,0,0,1-2.3,1,1.2,1.2,0,0,1-1-.2,1,1,0,0,1-.6-.9,6,6,0,0,1,0-1.9,19.7,19.7,0,0,1,.7-2.6,5.9,5.9,0,0,0,.5-1.2h0s.1.2,0,.2.1.1.1.1h.5l-.3.5a8.9,8.9,0,0,1-.9,1.6,12.8,12.8,0,0,1-2.3,3.7,2.4,2.4,0,0,1-1.6.9.9.9,0,0,1-.7-.1.7.7,0,0,1-.4-.6,5.9,5.9,0,0,1-.1-2.7,18,18,0,0,1,.6-3.2c.3-1.1.8-2,1-2.6a1.7,1.7,0,0,0,.2-.5h0m-.6,2.5a.4.4,0,0,1-.2.6c-.2,0-.5-.1-.5-.3a1.7,1.7,0,0,1,.2-1.4,1,1,0,0,1,.4-.5,1.8,1.8,0,0,1,.5-.7l.3-.4a.5.5,0,0,1,.6-.1.4.4,0,0,1,0,.6l-.3.5-.5.5-.3.5a1.2,1.2,0,0,0-.2.7"/><path class="cls-7" d="M72.8,110.8a.4.4,0,0,1,.4-.4c.2-.1.4.1.4.3s-.1,1.7,0,2.4.1.3.1.4h.1c.1,0,.1,0,.1-.1l.3-.4.6-1.3.6-1.3a1.2,1.2,0,0,1,.7-.7.4.4,0,0,1,.6.2.6.6,0,0,1-.3.6q-.2,0-.3.3c-.2.3-.3.7-.6,1.2a7.5,7.5,0,0,1-.6,1.3l-.3.6c-.2.2-.3.4-.6.4s-.5-.1-.7-.2a1,1,0,0,1-.4-.5c0-.2-.1-.4-.1-.6s.1-2,0-2.4"/><path class="cls-7" d="M62.1,154.5c-.2.2-.4.1-.6,0s-.1-.5.1-.6a22.2,22.2,0,0,1,1.7-1.8l.8-.7c.2-.1.3-.4.7-.5l.5.2.2.3a1.9,1.9,0,0,1,.1.8,20.2,20.2,0,0,1-1.1,2.8,20.6,20.6,0,0,0-.7,3.4v.5h0l.8-.6a14.3,14.3,0,0,0,1.9-2.7,3.3,3.3,0,0,0,.6-.8l.5-.4H68l.3.3c.2.2.1.5.1.7s-.1.5-.1.8a16.5,16.5,0,0,0-.2,2.1c0,.2,0,.3.1.4h.3a3.3,3.3,0,0,0,1.8-1.1h.6a.6.6,0,0,1,0,.6,4.5,4.5,0,0,1-2.3,1.4,1.1,1.1,0,0,1-1.3-1.3,16.4,16.4,0,0,1,.2-2.2c0-.3.1-.5.1-.7V155h.3v.2l-.6.8a17.9,17.9,0,0,1-2,2.8,3.4,3.4,0,0,1-1.4.8h-.4a.8.8,0,0,1-.4-.4,2.2,2.2,0,0,1,0-.8,10.8,10.8,0,0,1,.7-3.6,13.4,13.4,0,0,0,1-2.7c.1-.2.1-.4,0-.4H65c0,.1-.2.2-.4.4a1.9,1.9,0,0,0-.7.6l-1.8,1.8"/><path class="cls-7" d="M71.9,158.2a.4.4,0,0,1,.2-.5.4.4,0,0,1,.6.2,12.5,12.5,0,0,1,.3,1.9v.5h-.1l.2-.2a3.5,3.5,0,0,1,.5-.8l.9-1.8c.3-.5.4-.9.8-1.1a.5.5,0,0,1,.6.2.4.4,0,0,1-.2.5h0a24.1,24.1,0,0,0-1.4,2.6c-.2.2-.3.6-.5.8l-.3.4c-.2.1-.3.3-.6.2l-.4-.2-.2-.3a1.7,1.7,0,0,1-.1-.7c-.1-.6-.2-1.4-.3-1.7"/><path d="M163.8,130.3a.3.3,0,0,1,.3.5c0,.2-.2.3-.4.3h0v-.2c0,.1,0,.2.2.4a6.7,6.7,0,0,1,1.1,3.7,2,2,0,0,1-.6,1.5,1.9,1.9,0,0,1-.9.5,1.6,1.6,0,0,1-.9-.3,1.5,1.5,0,0,1-.5-.6,2.8,2.8,0,0,1-.1-.9,4.1,4.1,0,0,1,.5-1.8,8.5,8.5,0,0,1,2.5-2.5,11.4,11.4,0,0,0,1.1-1.1.8.8,0,0,0,.1-.4h-.9l-.6.2h-.1c.1.2.1.5-.1.6a.5.5,0,0,1-.6-.2,1.7,1.7,0,0,1-.1-.7,1,1,0,0,1,.4-.5,2.1,2.1,0,0,1,1-.4h1.2l.4.3a.9.9,0,0,1,.3.6l-.4.8-1.2,1.3a9.7,9.7,0,0,0-2.3,2.2,3.7,3.7,0,0,0-.4,1.5.7.7,0,0,0,.1.5.3.3,0,0,0,.1.2h.5c.1,0,.2,0,.3-.2a1.3,1.3,0,0,0,.4-.9,7.9,7.9,0,0,0-1-3.3,1.6,1.6,0,0,1-.4-.7.4.4,0,0,1,.1-.3l.3-.3h.5"/><path d="M171.5,129a.4.4,0,0,1-.5.3.5.5,0,0,1-.3-.5h0s.1.1,0,.1h.4a5.7,5.7,0,0,0-1,1.1l-1.2,1.9a5,5,0,0,0-.6,2.4,1.3,1.3,0,0,0,.4,1,1,1,0,0,0,.9.2,1.3,1.3,0,0,0,1-.6c.1-.1.1-.2.1-.4h-.4a2.4,2.4,0,0,0-1.2.3.4.4,0,0,1-.5-.2c-.1-.2-.1-.4.1-.5a2.6,2.6,0,0,1,1.5-.4h.8l.3.2a.8.8,0,0,1,.2.5,1.1,1.1,0,0,1-.2.9,2.3,2.3,0,0,1-1.6,1,2.1,2.1,0,0,1-1.5-.5,2,2,0,0,1-.7-1.6,4.9,4.9,0,0,1,.7-2.7,9.2,9.2,0,0,1,1.3-2.1,6.3,6.3,0,0,1,1-1.2c.2-.1.3-.3.6-.3s.4.2.4.4,0,.2,0,.3"/><path d="M164,181c.1.2.1.5-.1.6a.5.5,0,0,1-.6-.2h.4c-.1,0,.1-.1,0-.1h.1v.2a4.1,4.1,0,0,0,.4,1.5c.4.8,1,1.5,1.3,2.3a2,2,0,0,1,.2,1.3,1.7,1.7,0,0,1-.5,1.2,1.1,1.1,0,0,1-1.1.2.8.8,0,0,1-.7-.5,2,2,0,0,1-.4-.8,2.3,2.3,0,0,1,0-1.8,10,10,0,0,1,2.2-2.4l.6-.7.2-.4c.1-.1,0-.3,0-.3h-.1l-.4.2a1.6,1.6,0,0,0-.7.9c0,.2-.2.3-.5.3a.5.5,0,0,1-.3-.5,2.6,2.6,0,0,1,1.1-1.4,1.2,1.2,0,0,1,1.5-.1,1.2,1.2,0,0,1,.2,1.2l-.3.6-.8.8a11.6,11.6,0,0,0-1.9,2.1,1.5,1.5,0,0,0,0,1.3.8.8,0,0,0,.2.5l.2.2h.5a.8.8,0,0,0,.2-.5,3.4,3.4,0,0,0-.1-1,20.9,20.9,0,0,1-1.3-2.3,5.2,5.2,0,0,1-.6-1.9c0-.1.1-.2.1-.3s0-.2.2-.3h.6l.2.3"/><path d="M170.4,182.6a.4.4,0,0,1-.5.2c-.3-.1-.4-.3-.3-.5v-.2s.2.2.1.2.2.1.2,0h-.2a2,2,0,0,0-.1.5,1.4,1.4,0,0,0,.2.7l.4.2a2.1,2.1,0,0,1,.6,2.4,2.2,2.2,0,0,1-1.4.9,1,1,0,0,1-.9-.1,1.3,1.3,0,0,1-.7-.6.4.4,0,0,1,.2-.5c.2-.1.4-.1.5.1s.2.2.3.3h.4a1,1,0,0,0,.8-.5.8.8,0,0,0,.1-.7.9.9,0,0,0-.3-.6c-.2-.1-.5-.1-.7-.4a2.7,2.7,0,0,1-.3-1.2,1.5,1.5,0,0,1,.3-1.1l.4-.2.5-.2.3.2a.4.4,0,0,1,.1.3c.1.2,0,.4,0,.6"/><path d="M170.2,182a.3.3,0,0,1-.5.1c-.2-.2-.3-.4-.1-.6s2.2-.5,4.9-1.6a.4.4,0,0,1,.5.2.5.5,0,0,1-.2.6,16.7,16.7,0,0,1-3.3.8,2,2,0,0,0-1.3.5"/><path d="M225.3,129.9a.4.4,0,0,1,.2-.5.4.4,0,0,1,.5.3h.1l.2.8a35.2,35.2,0,0,1,1.6,3.9,4.5,4.5,0,0,1,.1,1.1,1.9,1.9,0,0,1-.5,1,1.7,1.7,0,0,1-1.4.1,1.5,1.5,0,0,1-.7-.7,2.4,2.4,0,0,1-.4-2.3c.6-1.2,2.3-2,3.5-3a2.9,2.9,0,0,0,.9-1.1,1.6,1.6,0,0,0,.1-.4l-.3-.2h-1l-.9.3a1.1,1.1,0,0,0-.5.4c0,.2-.3.3-.5.2a.4.4,0,0,1-.2-.6,1.4,1.4,0,0,1,.8-.7l1.2-.4h1.2c.4.1.8.3.9.6a1.4,1.4,0,0,1,0,1.1,5.3,5.3,0,0,1-1.2,1.5c-1.3,1-2.8,1.8-3.2,2.7a1.1,1.1,0,0,0,.2,1.4l.4.4h.6c.1-.1.1-.2.2-.4a3.4,3.4,0,0,0-.1-.9c-.3-1-1.1-2.5-1.5-3.7a2.3,2.3,0,0,1-.3-.9h0m.8.1c.1.2-.1.4-.3.5a.5.5,0,0,1-.5-.3c0-.2,0-.3-.1-.3h0a.5.5,0,0,1,.4-.5c.2,0,.4.1.4.3h0c.1,0,.1.1.1.3"/><path d="M233.8,130.3c.1.2-.1.4-.3.4s-.4-.1-.5-.3h.8c-.1,0,0-.1,0-.1h0v.5a13.7,13.7,0,0,0,.2,1.9,7,7,0,0,1,.4,2.8,1.8,1.8,0,0,1-.9,1.2l-.8.2-.4-.2-.2-.3a1.3,1.3,0,0,1-.1-.6,2.8,2.8,0,0,1,1.1-2.2l2.3-2a3,3,0,0,0,1-.9h-.9a2.9,2.9,0,0,0-1.6.7.6.6,0,0,1-.6,0,.6.6,0,0,1,0-.6,3.6,3.6,0,0,1,2.1-.9h1a.7.7,0,0,1,.7.4.8.8,0,0,1,.1.9,4,4,0,0,1-1.3,1.3,13.2,13.2,0,0,0-2.2,1.8c-.6.7-1,1.3-.9,1.6a.4.4,0,0,0,.1.3h.2c.3-.1.4-.3.5-.6a9,9,0,0,0-.4-2.4,7.8,7.8,0,0,1-.2-2.1v-.6h0v-.2h.6c.2.3.1.3.1.4"/><path d="M229.9,179.2c.2.2.1.4,0,.6h-.6v-.2h.3c-.1,0,0-.1,0-.1h0v.2c.1.3.5,1,.8,1.8a7.2,7.2,0,0,1,.9,3.9,3,3,0,0,1-.4,1l-.8.5h-.6l-.5-.3a2.4,2.4,0,0,1-.6-1.1,2.5,2.5,0,0,1,.5-2.6c.8-.8,2.1-1.4,2.7-2.1a1.6,1.6,0,0,0,.4-.9l-.2-.2-.4-.2h-1.1c-.1.2-.4.1-.5-.1s-.1-.4.1-.5a1.7,1.7,0,0,1,1.7-.2l.7.4c.3.2.5.4.5.7a2.1,2.1,0,0,1-.5,1.5c-.8.9-2.1,1.5-2.8,2.2a1.5,1.5,0,0,0-.3,1.8,2.5,2.5,0,0,0,.4.7h.3l.3-.2c.2-.2.2-.4.3-.6a7,7,0,0,0-.8-3.5,11.3,11.3,0,0,1-.9-2v-.4a.4.4,0,0,1,.2-.4l.3-.2h.3l.4.3"/><path d="M235.2,178.7a.5.5,0,0,1,.6-.2.5.5,0,0,1,.1.6,26,26,0,0,0,.1,4.7,7.2,7.2,0,0,1-.2,2.2,1.2,1.2,0,0,1-.7.7,1.1,1.1,0,0,1-.8.1c-.2-.1-.3-.2-.3-.4a.4.4,0,0,1-.1-.3,1.7,1.7,0,0,1-.1-.7,3.8,3.8,0,0,1,1.1-2.5c.7-.7,1.6-1.4,2.3-2.2a2.8,2.8,0,0,0,.8-1.2.6.6,0,0,0,.1-.4h-.7l-.7.3a.9.9,0,0,0-.3.5.4.4,0,0,1-.5.2.3.3,0,0,1-.3-.5,2.8,2.8,0,0,1,.7-.9l1-.4h1l.4.3a.8.8,0,0,1,.2.5,1.4,1.4,0,0,1-.1.9,10.1,10.1,0,0,1-.9,1.3c-.8.9-1.8,1.6-2.4,2.2a3,3,0,0,0-.9,2c0,.2.1.4.1.6h.1c.1-.1.2-.1.2-.3a3.5,3.5,0,0,0,.1-1.9c0-.9-.1-1.9-.1-2.9a4.8,4.8,0,0,1,.2-2.2"/><path d="M242.5,183.8a.4.4,0,0,1-.5.2c-.2,0-.3-.3-.3-.5v-.2h0l-.6.9a12.1,12.1,0,0,0-.5,1.4v.3h.1c.1.1.3,0,.5-.2l.7-.7.2-.2h.5a.3.3,0,0,1,.3.3v.2c.1.1,0,.2,0,.3v.7c.1.2.1.4.2.4h.4c.2-.1.4,0,.5.3a.5.5,0,0,1-.3.5,1.2,1.2,0,0,1-1.2-.3,1.8,1.8,0,0,1-.4-.9v-1.1s.1.1,0,.1h.6l-.2.2-.8.7a1.4,1.4,0,0,1-1.1.5,1.4,1.4,0,0,1-.8-.5c-.2-.4,0-.7,0-.9a4.9,4.9,0,0,1,.6-1.7,3.4,3.4,0,0,1,.9-1.2l.4-.2h.6a1.4,1.4,0,0,1,.2.6,1.1,1.1,0,0,1-.1.5"/><path d="M243.1,183.9a.4.4,0,0,1-.2.5c-.2.2-.4.1-.6-.1h.7c-.1,0,0-.1,0-.1h0v.3a2.6,2.6,0,0,0-.1.7.4.4,0,0,1-.2.5.5.5,0,0,1-.6-.2,2,2,0,0,1,.1-1.1,4.3,4.3,0,0,1,.1-.5v-.2c.1-.1.1-.2.3-.2s.4.1.5.2"/><path d="M231.2,205.6c0,.3-.1.5-.3.5a.5.5,0,0,1-.5-.4l-.2-.3a.5.5,0,0,0-.4-.2,1.8,1.8,0,0,0-.9.4.8.8,0,0,0-.2.5h.1l.7.4a2.6,2.6,0,0,1,1.2.9,1.5,1.5,0,0,1,.1,1.3,2.4,2.4,0,0,1-.9,1.1,2.2,2.2,0,0,1-1.4.3,1.8,1.8,0,0,1-1.3-1,.4.4,0,0,1,.8-.4c.2.4.4.6.7.6a1,1,0,0,0,.7-.2,1.3,1.3,0,0,0,.6-.7.6.6,0,0,0,0-.6l-.9-.6-.7-.4-.3-.3a.5.5,0,0,1-.2-.4,1.5,1.5,0,0,1,.4-1.1,2.3,2.3,0,0,1,1.6-.6,1.8,1.8,0,0,1,.9.4,1.2,1.2,0,0,1,.4.8"/><path d="M229.5,205.8a.5.5,0,0,1-.6.1.4.4,0,0,1-.2-.5,3.4,3.4,0,0,1,2.3-1.3l1.5-.4a1.8,1.8,0,0,1,1.4.6.4.4,0,0,1-.1.6.3.3,0,0,1-.5-.1.6.6,0,0,0-.7-.2l-1.4.3c-.8.2-1.5.4-1.7.9"/><path d="M236.3,205.6c.1.2-.1.4-.3.5s-.4-.1-.5-.3h.1c-.1,0,0,.1,0,.1h-.2v.4c0,.2.3.5.5.8l.3,1a1.4,1.4,0,0,1-.5,1,1.2,1.2,0,0,1-.9.3,1.9,1.9,0,0,1-1.8-1,.4.4,0,0,1,.2-.5c.2-.1.4-.1.5.1a1.3,1.3,0,0,0,1.1.6.5.5,0,0,0,.4-.2v-.2a1.1,1.1,0,0,0-.2-.7,5.8,5.8,0,0,1-.5-1.1,4.3,4.3,0,0,1-.1-.5c.1-.2.1-.5.3-.7a2,2,0,0,1,.8-.4l.4.2c.2.1.3.2.3.4"/><path d="M236.1,205.9c0,.2-.2.3-.5.3s-.3-.2-.3-.5a1.8,1.8,0,0,1,.7-1,5.2,5.2,0,0,1,1.3-.6l3.2-.4c.2,0,.4.1.4.3s-.1.5-.3.5l-3.1.4a3.4,3.4,0,0,0-1,.4c-.2.2-.4.4-.4.6"/><path d="M300.6,204.7a.4.4,0,0,1-.8,0h-.2a.9.9,0,0,0-.8.2,1.5,1.5,0,0,0-.5.6v.3h.8l.6.2.4.4a1.1,1.1,0,0,1,.1.5,3.1,3.1,0,0,1-1.5,1.9l-1.1.5-.6-.2a.8.8,0,0,1-.4-.4.5.5,0,0,1,.2-.6.4.4,0,0,1,.5.2h.2l.8-.3a3.2,3.2,0,0,0,1.1-1.3h-1.1c-.2-.1-.5-.1-.7-.4a1.2,1.2,0,0,1,0-1,1.9,1.9,0,0,1,.8-1,1.6,1.6,0,0,1,1.3-.3.7.7,0,0,1,.6.2.6.6,0,0,1,.3.6"/><path d="M300.1,204.6c0,.2-.1.4-.3.4a.3.3,0,0,1-.5-.3.5.5,0,0,1,.2-.6c.1-.2.2-.3.4-.3l1.3-.4,2.8-.4a.4.4,0,0,1,.4.4c.1.2-.1.4-.3.4l-2.7.4-1.1.3h-.2"/><path d="M306.5,204.4c.1.2.1.5-.1.6s-.5.1-.6-.1h-.6c-.1.1-.1.3-.1.6a10.3,10.3,0,0,0,.3,1.2,2.6,2.6,0,0,1,0,1.5,1.6,1.6,0,0,1-.6.8,1.9,1.9,0,0,1-1,.3l-1-.4a1.5,1.5,0,0,1-.7-1c-.1-.2.1-.4.3-.5a.5.5,0,0,1,.5.3l.3.6h1.2l.3-.4a4.1,4.1,0,0,0-.1-1,12.7,12.7,0,0,1-.4-1.4,2,2,0,0,1,.3-1.1,1.9,1.9,0,0,1,1-.5,1.6,1.6,0,0,1,1,.5"/><path d="M305.8,205.6a.5.5,0,0,1-.6.1c-.2-.1-.2-.4-.1-.6s1-.6,1.8-.8a12.3,12.3,0,0,1,2.9-.3.4.4,0,0,1,.4.4.4.4,0,0,1-.4.4l-2.8.3-1.2.5"/><path d="M227.4,249.4c.2-.1.5-.1.6.1a.5.5,0,0,1-.1.6h.1v-.2c-.1.1-.1-.2-.1-.2h.7a5.6,5.6,0,0,0,2.6-1.1c.2-.1.5-.1.6.1a.5.5,0,0,1-.1.6,6.5,6.5,0,0,1-3,1.2h-1l-.4-.2c-.1,0-.2-.2-.2-.3a.5.5,0,0,1,.2-.4"/><path d="M290.2,250.3a.4.4,0,1,1-.6-.6,2.5,2.5,0,0,1,1.9-.2,10,10,0,0,0,2.4-.1.5.5,0,0,1,.5.3c0,.3-.1.5-.4.5a7.8,7.8,0,0,1-2.6.1q-1-.2-1.2,0"/><path d="M213.4,240.4c.2-.1.4-.2.6,0a.3.3,0,0,1,0,.5h.1a10.9,10.9,0,0,0-.1,1.3,1.9,1.9,0,0,1-.1.8v1.2h-.1s-.1-.1,0-.1h-.1s-.4,0-.3-.1h-.2l.2-.5a.3.3,0,0,1,.5-.3c.2,0,.3.3.2.5a.8.8,0,0,1-.2.6v.2c-.1.1-.3.2-.4.1s-.3-.1-.3-.2a.8.8,0,0,1-.1-.4V243c0-.3.1-.6.1-.9v-.9a.8.8,0,0,0,.1-.4c0-.1-.1-.2.1-.4"/><path d="M214.1,254.1a.5.5,0,0,1-.5.4.4.4,0,0,1-.4-.4v-.2h.8v.4a12.5,12.5,0,0,0-.3,1.9,3.4,3.4,0,0,0-.1,1v.8h-.1s-.3,0-.2-.1h-.1a.4.4,0,1,1,.7.5c-.2.2-.2.3-.5.4l-.5-.2v-2.3a18.1,18.1,0,0,0,.3-1.9,1.1,1.1,0,0,0,.1-.5h.1l.2-.2h.4l.2.2h0v.3"/><path d="M213.6,257.3a.7.7,0,0,1,.4.5c-.1.2-.3.4-.5.3h-1.1s.1-.1,0-.1,0,0,.1.1v.4a1.3,1.3,0,0,0,.1.6v.2h.4a1.5,1.5,0,0,0,.2-.8c.1-.3,0-.4,0-.4s.1,0,.1,0h-.4a.7.7,0,0,0-.3.3.8.8,0,0,0-.2.5.6.6,0,0,0-.1.4l.2.2h.4l.3-.2a2,2,0,0,0,.3-.8v-.3h-.2l-.2.3c-.1.2-.1.4-.2.6v.5h0a2.4,2.4,0,0,0,.3-.7h.2c0,.1-.1.1-.2.2s-.5.2-.6,0-.2-.4,0-.6l.5-.3a.4.4,0,0,1,.5,0c.3.1.4.3.4.4a.9.9,0,0,1-.1.5,1.9,1.9,0,0,1-.4,1.1l-.7.3h-.4l-.3-.3a3.4,3.4,0,0,1,0-1,4.1,4.1,0,0,1,.3-.8.9.9,0,0,1,.6-.6,1,1,0,0,1,.9,0,1.1,1.1,0,0,1,.4.9,1.1,1.1,0,0,1-.1.8,2.5,2.5,0,0,1-.4.7,1.8,1.8,0,0,1-.9.4l-.8-.2a1,1,0,0,1-.5-.6,1.7,1.7,0,0,1,0-1,3,3,0,0,1,.4-.8,1.6,1.6,0,0,1,.8-.5h.5a.7.7,0,0,1,.6.3,1.8,1.8,0,0,1,.2,1,2.5,2.5,0,0,1-.6,1.3l-.6.3a1.2,1.2,0,0,1-.8-.2.9.9,0,0,1-.3-.7,1.3,1.3,0,0,1-.1-.6,4.3,4.3,0,0,1-.1-.5.6.6,0,0,1,.2-.5,1.4,1.4,0,0,1,1.2-.4h.6"/><path d="M276.5,254.3a.4.4,0,0,1,.4-.4.4.4,0,0,1,.4.4,14.7,14.7,0,0,1,0,2.1v1.2c0,.2-.1.3-.1.4v.3h0c0,.1-.2-.1-.2-.1s-.1-.1-.1-.1h0a.4.4,0,0,1,.6.2.4.4,0,0,1-.2.5h-.6c-.1,0-.2,0-.3-.2s0-.4,0-.5h0v-.5a3.7,3.7,0,0,0,.1-1.1v-2.1"/><path d="M277.9,258.2a.5.5,0,0,1,.2.6.4.4,0,0,1-.5.2h-.3l-.6.5a1.7,1.7,0,0,0-.2.5v.2h.1a2.2,2.2,0,0,0,.5-1v-.3c0-.1,0-.1-.1-.2h-.2l-.4.4a4.3,4.3,0,0,0-.1.5h.2a.4.4,0,0,0,.1-.3v-.2h-.3c.2.1.4.3.3.5s-.2.4-.4.3l-.5-.2a.5.5,0,0,1-.2-.4.6.6,0,0,1,.2-.7l.5-.4h.8a.5.5,0,0,1,.3.5,1.3,1.3,0,0,1,.1.6,1.1,1.1,0,0,1-.1.5.8.8,0,0,1-.5.5,1.2,1.2,0,0,1-.8-.1.8.8,0,0,1-.5-.8,1.5,1.5,0,0,1,.2-.9,2.3,2.3,0,0,1,.7-.7.9.9,0,0,1,.9-.1.9.9,0,0,1,.6.8.6.6,0,0,1-.1.6,2,2,0,0,1-.9,1.5l-.4.2H276a.9.9,0,0,1-.3-.8,1.2,1.2,0,0,1,.4-.9,2.7,2.7,0,0,1,.7-.8,1.5,1.5,0,0,1,1.1-.2"/><path d="M276.2,241.8a.4.4,0,0,1,.8,0h0v2.8h-.4v-.2c.2-.1.4-.2.6,0a.4.4,0,0,1,0,.6.6.6,0,0,1-.5.3c-.1.1-.3,0-.4-.1l-.2-.3a2.2,2.2,0,0,1,0-.8v-2.2m.6,3c-.1.2-.4.2-.6,0a.6.6,0,0,1,0-.6c.1,0,0,.2,0,.1h-.1a5.3,5.3,0,0,0,.1-1.4v-1.1h0a.4.4,0,0,1,.8,0h0v2.7h-.1m.3-3.6c.2.1.2.4.1.6s-.4.2-.6.1h.4c-.1.1-.1.4-.1.8v1.7h0s-.1-.2-.1-.1a.3.3,0,0,1,0,.5c-.2.2-.5.2-.6,0s0-.1-.1-.1h0v-1.9a3.1,3.1,0,0,1,.1-1,.6.6,0,0,1,.2-.5h.7"/><path d="M276.9,214.2c.1.2-.1.4-.3.4s-.5-.1-.5-.4h0v-1.1a.5.5,0,0,1,.6-.3.4.4,0,0,1,.2.5,1.1,1.1,0,0,0,.1.5.5.5,0,0,1-.2.6.4.4,0,0,1-.5-.2,1.5,1.5,0,0,1-.2-1.1l.8.2h0v1h0m.4-1.7a.4.4,0,0,1-.8,0h.6c0,.2-.1.8-.1,1.2s0,.3-.1.4h0c0,.2-.2.4-.4.3a.4.4,0,0,1-.4-.4h0v-.4c.1-.5.1-1,.2-1.4v-.4h.3l.4.2v.5"/><path d="M212.8,212.5a.5.5,0,0,1,.5-.3c.2,0,.4.2.3.4h0v.8a.4.4,0,0,1-.8,0v-.9m.5,1.9a.5.5,0,0,1-.6-.1.5.5,0,0,1,.2-.6s-.2.1-.1.1h-.1c0-.1,0-.2.1-.2v-1h0a.4.4,0,0,1,.4-.4.4.4,0,0,1,.4.4h0v1a.4.4,0,0,1-.1.3.4.4,0,0,1-.2.4m0-3.2c.2-.1.4.1.5.3a.5.5,0,0,1-.3.5h.1v.2a1.5,1.5,0,0,0-.1.7v1.1h0v-.2c.1.2.1.5-.1.6a.5.5,0,0,1-.6-.1v-.2h0v-1.1a2.8,2.8,0,0,1,.1-.9.6.6,0,0,1,.1-.4c.1-.1.2-.3.4-.3"/><path d="M213.5,195.9a.4.4,0,0,1-.4-.4.4.4,0,0,1,.4-.4h63.4a.4.4,0,0,1,.4.4.4.4,0,0,1-.4.4Z"/><path d="M275.9,195.7a.5.5,0,0,1,.4-.5.4.4,0,0,1,.4.4v.7c.1,1,.4,2,.5,3.1a9.1,9.1,0,0,0,.1,1.7v1.5l-.2.3h-.4l-.2-.2-.2-.5a.5.5,0,0,1,.4-.5.4.4,0,0,1,.4.4.1.1,0,0,1,.1.1h0s-.1-.1,0-.1-.1-.1-.1,0h-.4c.1,0-.1.1-.1.1s-.1.1-.1.1h0v-.6a1.3,1.3,0,0,0-.1-.6v-1.7a28.7,28.7,0,0,1-.5-3.1v-.7m.8.6a.4.4,0,1,1-.8,0v-.6h0a.5.5,0,0,1,.4-.5.4.4,0,0,1,.4.4h0v.6"/><path d="M213.8,194.3c.2.1.2.4.1.6s-.4.2-.6,0h-.2a1,1,0,0,0-.5.4,2.9,2.9,0,0,0-.2.9v.2h.3c.1,0,.4-.4.6-.7v-.2h-.4c-.2,0-.5.3-.6.6v.3h.3a.6.6,0,0,0,.5-.2l.5-.7a1.4,1.4,0,0,0,.1-.9h-1a1.1,1.1,0,0,0-.3.7,1.7,1.7,0,0,0-.1,1c0,.2.1.4.3.4h.4l.4-.4h.1s.1.1,0,.1h0a.5.5,0,0,1-.6-.2.5.5,0,0,1,.3-.5l.5-.2c.2,0,.4,0,.5.3a.5.5,0,0,1,.1.5l-.3.3a1.3,1.3,0,0,1-.7.6,1.6,1.6,0,0,1-1,.1,1.3,1.3,0,0,1-.8-1.1,2,2,0,0,1,.1-1.3,1.5,1.5,0,0,1,.8-1.2,2,2,0,0,1,1.1-.2l.7.3a1.6,1.6,0,0,1,.4.7,3,3,0,0,1-.2,1.3,2.7,2.7,0,0,1-.8,1,1.4,1.4,0,0,1-1.2.4l-.6-.3a.9.9,0,0,1-.3-.6.9.9,0,0,1,.1-.7,1.8,1.8,0,0,1,1-1.1h.6l.7.3a1.4,1.4,0,0,1,.2.6,1.7,1.7,0,0,1-.1.7,2,2,0,0,1-1.1,1.1,1.1,1.1,0,0,1-1.1-.2,1.4,1.4,0,0,1-.3-.9,5.6,5.6,0,0,1,.4-1.2,1.3,1.3,0,0,1,.9-.7.8.8,0,0,1,1,.1"/><path class="cls-5" d="M318.9,224.5a.4.4,0,1,1-.8-.4c.1,0,0,.1,0,.1h0c.1-.7.1-2.7.2-4.6s.2-1.8.3-2.4-.1-.5,0-.7v-.2a.6.6,0,0,1,.6,0c.2.1.1.1.1.2v.2c.1.2.1.5.2.8l.6,2.3a15.6,15.6,0,0,0,.5,1.6l.4.5H321a.1.1,0,0,0,.1-.1,4.4,4.4,0,0,0,.6-1,21.8,21.8,0,0,0,.9-2.3,14.4,14.4,0,0,1,.7-1.6.4.4,0,0,1,.5-.2c.2.2.3.4.2.6s-.8,2.2-1.6,3.9l-.6,1.1-.4.4h-.7a2.4,2.4,0,0,1-.6-.8,18.9,18.9,0,0,1-.6-1.8l-.6-2.3c-.1-.3-.1-.6-.2-.7v-.2h.6s.1-.2.1-.1h0v.5q-.1.9-.3,2.4a23.5,23.5,0,0,1-.1,2.7,9.8,9.8,0,0,1-.1,1.9h0m.6-6.7a.5.5,0,0,1,0,.5.5.5,0,0,1-.6.1h.2c-.1,0,.2-.1.1-.1h.1a.4.4,0,0,0-.1.3c-.1.7-.2,1.8-.3,2.9v2.7h0a.4.4,0,0,1-.8.4v-.2h0v-2.9a20,20,0,0,1,.3-2.9,1.1,1.1,0,0,1,.2-.7c0-.1.2-.2.4-.2l.5.2"/><path class="cls-5" d="M328.3,219.7a.5.5,0,0,1-.2.6.4.4,0,0,1-.5-.2h0a1.8,1.8,0,0,0-.6.8,3.9,3.9,0,0,0-.2,1.8.8.8,0,0,0,.2.5l.5.2a1.2,1.2,0,0,0,1-.6c.2-.2.4-.3.6-.2a.5.5,0,0,1,.2.6,2.1,2.1,0,0,1-1.9,1,1.3,1.3,0,0,1-.9-.4,1.2,1.2,0,0,1-.5-1,5.1,5.1,0,0,1,1-3.4l.7-.2a1,1,0,0,1,.6.5"/><path class="cls-5" d="M328.3,219.7a.4.4,0,0,1,.4-.4.7.7,0,0,1,.4.5v.3a.7.7,0,0,1-.2.6c-.1.2-.3.2-.5.1a.4.4,0,0,1-.1-.6h0c0-.1-.1-.3,0-.5"/><path class="cls-5" d="M333.6,215.7a.4.4,0,0,1-.3.5.5.5,0,0,1-.5-.3h.4l-.4.8-.7,1.5a11,11,0,0,0-.3,1.6c0,.5,0,.6.2.8s.3.1.6.4a2,2,0,0,1,.4,1.5,4.5,4.5,0,0,1-.1,1.1,1.9,1.9,0,0,1-.7.8h-.8l-.5-.4a4.2,4.2,0,0,1-.7-1.3.5.5,0,0,1,.3-.5c.2,0,.5.1.5.3a2.6,2.6,0,0,0,.5.9l.3.3h0l.3-.4a1.9,1.9,0,0,0,.1-.8,1.7,1.7,0,0,0-.2-.9,2.2,2.2,0,0,1-.6-.5,2,2,0,0,1-.4-1.4,4.5,4.5,0,0,1,.4-1.8l.6-1.5a2.9,2.9,0,0,1,.6-1l.2-.2h.4c.2,0,.3.1.3.2a.4.4,0,0,1,.1.3"/><path class="cls-5" d="M336.4,219.1a.5.5,0,0,1,.4.5.5.5,0,0,1-.5.4h-.1a.8.8,0,0,0-.2.6,4.6,4.6,0,0,0,.1,2.4v.2h.2q.2,0,.3-.3c.2-.2.4-.3.6-.1s.2.4.1.6l-.6.5c-.1.2-.4.2-.6.2l-.6-.2-.3-.5a5.6,5.6,0,0,1-.1-2.9,1.6,1.6,0,0,1,.3-.9,1.1,1.1,0,0,1,.9-.5"/><path class="cls-5" d="M336.6,220.2a.3.3,0,0,1,.3-.5.4.4,0,0,1,.5.2,1.1,1.1,0,0,1-.1.8,1.4,1.4,0,0,0-.2.6.5.5,0,0,1-.5.3c-.2-.1-.4-.3-.3-.5l.3-.7v-.2"/><path class="cls-5" d="M342.1,216c-.1.2-.4.2-.6.1a.6.6,0,0,1,0-.6l.3-.2c.2,0,.5.1.5.3a.1.1,0,0,1,0,.2c0,.2-.1.3-.2.5a9.3,9.3,0,0,1-.7,1.5,16,16,0,0,0-1.3,3,6.2,6.2,0,0,0-.2,1.8,1.3,1.3,0,0,0,.2.8c0,.1.1.2.3.2a3.3,3.3,0,0,0,2-.6c.2-.1.4-.1.5.1s.1.5-.1.6a4.5,4.5,0,0,1-2.5.7,1.1,1.1,0,0,1-.9-.6,2.1,2.1,0,0,1-.3-1.2,7.5,7.5,0,0,1,.2-2,18.3,18.3,0,0,1,1.4-3.2l.7-1.5a.3.3,0,0,0,.1-.2h0c0-.1.1.1.1.1s.1.1,0,.1h.5"/><path class="cls-5" d="M330.4,223.5a.5.5,0,0,1-.6-.2.4.4,0,0,1,.2-.5c0-.1-.2.1-.1.1h-.1c.1-.1.1-.3.2-.6a2,2,0,0,1,.4-.8.6.6,0,0,1,.6-.4.8.8,0,0,1,.7.1,2.4,2.4,0,0,1,.8,1.1,4.3,4.3,0,0,1,0,1.6,1.1,1.1,0,0,1-.1.5.9.9,0,0,1-.6.6H331a1.1,1.1,0,0,1-.7-.6,1.8,1.8,0,0,1-.3-1.1.5.5,0,0,1,.5-.4c.2.1.4.2.4.5a.6.6,0,0,0,.1.6l.3.2c0,.1.1.1.2,0h.2v-.3a2.8,2.8,0,0,0,0-1.3,1.5,1.5,0,0,0-.4-.6h-.2a2.4,2.4,0,0,0-.3.7,6.4,6.4,0,0,0-.2.7h-.1v.2m1.9-8c.1-.2.3-.3.5-.1a.4.4,0,0,1,.2.5l-.7,1.3c-.3.6-.7,1.5-1,2.3s-.4,1.6-.6,2.3-.1.8-.1,1v.3h-.1c.1,0,0-.1,0-.1a.5.5,0,0,1-.1.6.7.7,0,0,1-.6-.1c-.1-.2,0-.2,0-.3s0,0,0-.1v-.3c0-.3.1-.6.1-1a16.1,16.1,0,0,1,.7-2.5c.3-.9.7-1.7,1-2.4a11.1,11.1,0,0,1,.7-1.3"/><path class="cls-5" d="M349.2,220.2c-.1.2-.4.2-.6.1s-.2-.4-.1-.6a.4.4,0,0,0,.1-.3c0-.1,0-.2-.1-.2h-.1l-.5.5c0,.1-.1.2-.1.4a2.8,2.8,0,0,0,.5.9l.2.4a.8.8,0,0,1,.1.7,1.1,1.1,0,0,1-.5.9,1.9,1.9,0,0,1-.9.5,1.7,1.7,0,0,1-1,.1,1,1,0,0,1-.7-.8c-.1-.2.1-.4.3-.4s.4.1.5.3h.7l.6-.3.2-.3c0-.2,0-.3-.1-.4a.8.8,0,0,0-.1-.3c-.2-.3-.7-.8-.6-1.4a1.9,1.9,0,0,1,.2-.7,3,3,0,0,1,.8-.8l.5-.2a1,1,0,0,1,.7.2,1.7,1.7,0,0,1,0,1.6"/><path class="cls-5" d="M352.9,219.8c.1.2.1.5-.1.6a.3.3,0,0,1-.5,0h-.2a2.2,2.2,0,0,0-.5.8,3.6,3.6,0,0,0-.4.9.6.6,0,0,1-.1.4h.2c.8-.5,1.8-2.8,2.8-4.8a16.5,16.5,0,0,0,1.1-2.6l.2-.5h.4s.1-.1,0-.1h0l-.7,1a7.5,7.5,0,0,0-.6,1.3,3.4,3.4,0,0,0-.4,2.1,1.9,1.9,0,0,0,.2.8l.6.4.6.2a1.1,1.1,0,0,1,.3.7v.8l-.4,1.3a.4.4,0,0,1-.4.4.5.5,0,0,1-.4-.5c.1-.5.3-1,.4-1.4v-.5h-.1l-.4-.2a1.7,1.7,0,0,1-.9-.7,2.1,2.1,0,0,1-.3-1.2,4.3,4.3,0,0,1,.4-2.4c.2-.5.5-1,.7-1.4a3.8,3.8,0,0,1,.9-1.2c0-.1.1-.1.1-.2h.4c.1,0,.3.1.3.2v.2a2.9,2.9,0,0,1-.2.9c-.3.7-.7,1.7-1.2,2.7s-.9,2-1.5,3a6,6,0,0,1-1.5,2.1l-.8.2a.6.6,0,0,1-.6-.5,2.7,2.7,0,0,1,0-.9,4.2,4.2,0,0,1,.4-1,3.1,3.1,0,0,1,.8-1.1.7.7,0,0,1,.6-.3l.7.2"/><path class="cls-5" d="M361.5,219.3a.5.5,0,0,1-.2.6.4.4,0,0,1-.5-.2s.1.1,0,.1.1,0,.1,0h-.2l-.8,1a4.5,4.5,0,0,0-.6,1.2,1.1,1.1,0,0,0-.1.5v.2l.5.2h.6c.2,0,.3-.2.4-.3a.4.4,0,0,1,.6-.1.4.4,0,0,1,.1.5,1.8,1.8,0,0,1-.8.7h-1a1.1,1.1,0,0,1-.8-.3,1.1,1.1,0,0,1-.5-.9,1.7,1.7,0,0,1,.1-.7,3.7,3.7,0,0,1,.7-1.4,4,4,0,0,1,1-1.2.9.9,0,0,1,.6-.3h.4l.3.3"/><path class="cls-5" d="M361.5,219.7a.4.4,0,0,1,.4.4.4.4,0,0,1-.4.4h0a.2.2,0,0,0-.2.2l-.3.2h-.2c-.1,0-.4,0-.5-.2a.5.5,0,0,1,.1-.6.5.5,0,0,1,.6.2h-.3l.3-.3.5-.2"/><path class="cls-5" d="M364.1,220.3a.4.4,0,0,1,.4-.4.4.4,0,0,1,.4.4,2.2,2.2,0,0,1-.3,1.3l-.6,1.5c-.1.2-.1.4-.2.5v.2h.1c-.1.1-.1-.1-.1-.1h0c0,.1-.2-.1-.1-.1h-.5l.5-.7c.1-.2.3-.2.5-.1a.5.5,0,0,1,.2.6l-.5.6v.2h-.6l-.2-.3c0-.2,0-.2.1-.3a1.3,1.3,0,0,1,.3-.7,21.5,21.5,0,0,0,.8-2.5"/><path class="cls-5" d="M366.4,216.9a.3.3,0,0,1,.1.5.5.5,0,0,1-.6.1h-.3c-.1,0,0-.1,0,0h.1v-.2h-.1c.1,0,0-.1,0-.1h.2c.2.1.4.3.3.5s-.3.4-.5.3h-.4l-.3-.4c-.1-.2.1-.4.2-.5h.8a.4.4,0,0,1,.5.2"/><path class="cls-5" d="M366.6,220a.3.3,0,0,1,.5.3.4.4,0,0,1-.2.5h-.1a1.4,1.4,0,0,1-.2.6,2.2,2.2,0,0,1-.3.8h0c0,.1-.2-.1-.2,0h0l.4-.4.6-.5h.5c.1-.1.4,0,.5.2a1,1,0,0,1,.2.7v.7a1.3,1.3,0,0,0-.1.6v.2h0s-.1-.1,0-.1a.4.4,0,1,1-.7.5c-.2-.2-.1-.5-.1-.7a1.3,1.3,0,0,1,.1-.6v-.8h0l-.5.4-.3.4-.3.2H366l-.3-.2-.2-.3v-.5a2.9,2.9,0,0,1,.4-.8,1.9,1.9,0,0,1,.2-.7c.1-.2.2-.5.5-.6"/><path class="cls-5" d="M374.5,219.8c.1.2-.1.4-.3.5s-.4-.1-.5-.3v-.2h.1c-.1,0,0,.1,0,.1h.6c-.1,0,0-.1,0-.1h.1v.3a7.6,7.6,0,0,1,.1,1.5v.7a.2.2,0,0,0,.2.2h0l.6-.2h.6l.5.2a.5.5,0,0,0,.2.4l.3.8.3.6c0,.2.1.2.1.2h.1l.5-.7a16.9,16.9,0,0,0,.8-2.4,2.1,2.1,0,0,1,1.8-1.8c.3,0,.4.2.5.4s-.2.4-.4.5a.8.8,0,0,0-.7.3c-.2.1-.3.4-.4.8a13.4,13.4,0,0,1-.9,2.6l-.6.9-.4.3c-.2,0-.4.1-.6,0a1.2,1.2,0,0,1-.6-.6l-.3-.7-.3-.8h-.3c-.3.1-.6.4-1.2.1a1.3,1.3,0,0,1-.6-.8v-.7a8.1,8.1,0,0,1-.1-1.5c0-.2-.1-.3,0-.6h0l.5-.2c.3.1.3.2.3.3v.3"/><path class="cls-5" d="M383.7,220.4a.4.4,0,1,1-.3.7H383c-.2.1-.3.3-.5.6l-.3,1v.4a.2.2,0,0,0,.2.2H384a.3.3,0,0,1,.5-.1.4.4,0,0,1,.1.6c-.1.2-.4.3-.7.4l-.9.2-.9-.2a1.2,1.2,0,0,1-.7-.7,2.1,2.1,0,0,1,0-.8,2.5,2.5,0,0,1,.4-1.2,2.6,2.6,0,0,1,.7-1,1.3,1.3,0,0,1,1.2-.1"/><path class="cls-5" d="M384.4,220.4a.4.4,0,0,1-.4.8l-.3-.2h.2s.2-.3.1-.2v-.2h.1l.6.4a3.4,3.4,0,0,1,.6,1.2,1.3,1.3,0,0,1,.1.6v.9l-.3.2c-.1.1-.4,0-.5-.1s-.1-.3-.1-.4v-1.5a1.6,1.6,0,0,1,1.1-1.3,4.1,4.1,0,0,1,2.5-.2c.2,0,.4.2.3.4a.4.4,0,0,1-.4.4,4,4,0,0,0-2,.1c-.5.2-.7.5-.7.7v1.3h0s-.1-.1,0-.1h-.5s-.2.1-.1.1h-.1v-.9a1.9,1.9,0,0,0-.4-.9l-.6-.4-.2-.2h-.1a.3.3,0,0,0-.1-.2l.2-.3c.2-.2.3-.2.4-.1h.2l.4.2"/><path class="cls-5" d="M391.9,212.9a.6.6,0,0,1,.3.6.4.4,0,0,1-.6.2h.3a1,1,0,0,0-.1.4c-.1.4-.2,1.1-.3,1.8s-.3,1.6-.5,2.5-.6,3.4-.9,5.1-.6,3.1-.7,4.2-.1.9-.2,1.2a.9.9,0,0,1-.1.5l-.2.2h-.3l-.3-.2h-.1a5.9,5.9,0,0,1-.2-2,11,11,0,0,1-.2-1.8c-.1-1.1-.4-1.8,0-2.4s1.2-1,2.8-1.5.5,0,.5.2a.5.5,0,0,1-.2.6l-1.8.6c-.4.2-.5.3-.6.5s-.1.3-.1.6.1.8.2,1.4.1,1.2.2,1.8a10.8,10.8,0,0,0,.2,1.6h-.1c.1,0-.1-.1,0-.1h-.2c.1,0-.2.1-.1.1h-.2c.1,0,0,.1,0,.1v-.2c.1-.3.1-.7.2-1.2s.4-2.6.7-4.3.7-3.5.9-5,.4-1.8.5-2.5a9.5,9.5,0,0,1,.3-1.9,1.4,1.4,0,0,1,.2-.7c0-.1.1-.2.3-.2h.4"/><path class="cls-5" d="M395.8,219.3a.5.5,0,0,1,.2.6.5.5,0,0,1-.6.1h-.3l-.5.4a4.6,4.6,0,0,0-1,1.8,2.3,2.3,0,0,0-.1.7.5.5,0,0,0,.2.4h.4c.3,0,.6-.3,1-.6a.4.4,0,0,1,.6,0,.6.6,0,0,1,0,.6,3.8,3.8,0,0,1-1.3.8,1.1,1.1,0,0,1-1.1,0,1.3,1.3,0,0,1-.6-.9,2.5,2.5,0,0,1,.1-1.2,4.9,4.9,0,0,1,1.1-2l.9-.7a1.2,1.2,0,0,1,1,0"/><path class="cls-5" d="M395.5,220a.3.3,0,0,1,.3.5c0,.2-.2.4-.4.3h-.3s.2-.1.1,0h.2v-.2h-.1c.1,0,0-.1,0-.1s.3.2.6.4.2.4.1.6-.4.2-.5.1l-.8-.5a.4.4,0,0,1-.1-.5q.1-.3.3-.3h.6"/><path class="cls-5" d="M396.5,222.7a.4.4,0,0,1,.8,0v.2h-.1c0,.1-.2-.1-.1-.1h-.4c.1,0-.1.2-.1.1h-.1c.1,0,.1-.1.1-.3s.1-.7.1-1.1a2.3,2.3,0,0,1,.2-1.4,1,1,0,0,1,.6-.5l.8-.2h2.2a.5.5,0,0,1,.4.5.4.4,0,0,1-.4.4h-2.1l-.6.2h-.2c-.1.1,0,.5-.1,1.1a3.7,3.7,0,0,1-.1,1.1.7.7,0,0,1-.1.5h0l-.2.2h-.3c-.3-.1-.3-.2-.3-.3h0v-.3"/><path class="cls-5" d="M384.4,220.3a.4.4,0,1,1-.3.7h-.7l-.8.6a5.1,5.1,0,0,0-.7,1.7,1.5,1.5,0,0,0,2,2.1.4.4,0,0,1,.5.3c.1.2-.1.4-.3.5a3,3,0,0,1-2.5-.5,2.6,2.6,0,0,1-.5-2.6,4,4,0,0,1,.9-2,3.1,3.1,0,0,1,1.1-.9,1.9,1.9,0,0,1,1.3,0"/><path class="cls-5" d="M383.4,221.5c-.3,0-.5-.1-.5-.4s.1-.4.3-.4a.5.5,0,0,1,.6.2c.2.1.2.3.3.5a2,2,0,0,1,0,1.1,2.4,2.4,0,0,1-.5,1,.8.8,0,0,1-.7.1l-.6-.3c-.2-.2-.2-.5,0-.6s.4-.2.6,0h.2l.2-.5v-.9h.2"/><path class="cls-5" d="M383.4,222.8a.5.5,0,0,1,.5.3c0,.3-.1.5-.3.5h0s.1-.1,0-.1h.1s-.1-.3,0-.3-.2-.1-.1-.1h.4a.4.4,0,0,0,.1-.3v-.6h0c-.1,0-.1.1-.1.3s-.3.4-.5.3-.4-.2-.3-.4a1.4,1.4,0,0,1,.2-.7l.6-.3.6.2a.9.9,0,0,1,.3.6,1.4,1.4,0,0,1,0,.9,1.3,1.3,0,0,1-.6.9h-.7c-.2,0-.3.1-.5-.1s-.2-.3-.2-.5.2-.2.3-.2h.2"/><path class="cls-5" d="M385.2,222.1a.4.4,0,0,1,.4-.4.4.4,0,0,1,.4.4c0,.3.1.8.1,1.2v1.3h0s-.1-.2,0-.1a.5.5,0,0,1-.1.6.3.3,0,0,1-.5-.1c-.2-.1-.2-.2-.2-.3v-2.5a2.7,2.7,0,0,1,0-.9s-.2-.2,0-.6a.2.2,0,0,1,.2-.2h.9l1.6-.3h1l.9.4a.4.4,0,0,1,0,.6c-.1.2-.4.2-.6,0l-.4-.2h-.7a5.7,5.7,0,0,1-1.8.3h-.5c-.1,0,.1-.1,0-.1h.2v1.2a12.1,12.1,0,0,0,.1,1.9v.4h0s-.1-.2,0-.1l-.7.5v-.5c0-.2-.1-.4-.1-.6v-1.8"/><path class="cls-5" d="M267.2,153c0,.3-.2.5-.4.4s-.4-.1-.4-.4a4.7,4.7,0,0,0-.2-1.8l-.8-.2a2.3,2.3,0,0,0-1.1.5,1.4,1.4,0,0,0-.2.7,11,11,0,0,0,.9,1.5,2.4,2.4,0,0,1,.4,2.3,3.4,3.4,0,0,1-2,1.9,4.5,4.5,0,0,1-1.6.3,2.6,2.6,0,0,1-1.5-.7.6.6,0,0,1,0-.6.4.4,0,0,1,.6,0,1.4,1.4,0,0,0,1,.5l1.2-.2a2.6,2.6,0,0,0,1.5-1.4,1.7,1.7,0,0,0-.3-1.7c-.3-.6-1.1-1.1-1-1.9a1.7,1.7,0,0,1,.4-1.2,2.5,2.5,0,0,1,1.5-.8,2.1,2.1,0,0,1,1.6.5,3.3,3.3,0,0,1,.4,2.3"/><path class="cls-5" d="M271,154.9c.1.2.1.5-.1.6s-.4.1-.6-.1h-.2a.2.2,0,0,0-.3,0,2.2,2.2,0,0,0-.9.8,4.5,4.5,0,0,0-.5,1.8v.4h0s-.2-.2-.2-.1h.2l.9-.7a31.6,31.6,0,0,0,4.5-5.5l2-3.3a9.8,9.8,0,0,0,.9-2.1h-.1a11.2,11.2,0,0,0-1.7,2.2,8.6,8.6,0,0,0-1.4,3.5c-.1.7-.2,1.2,0,1.5l.3.3h.9a5.3,5.3,0,0,0,1.2-.3l.5.2.2.3a1.4,1.4,0,0,1,0,.9,7.9,7.9,0,0,1-1.1,2.4c-.1.2-.4.2-.6.1s-.2-.4-.1-.6a6.3,6.3,0,0,0,1-2.1,1,1,0,0,0,.1-.4h.1l-1.3.2h-1.1a1.2,1.2,0,0,1-.9-.8,3.1,3.1,0,0,1,0-1.9,11.2,11.2,0,0,1,1.5-3.9,9,9,0,0,1,1.9-2.3l.4-.3c.2,0,.4-.1.6,0l.4.4v.6a12.1,12.1,0,0,1-1,2.3l-2.1,3.4a25.8,25.8,0,0,1-4.6,5.7,3.4,3.4,0,0,1-1.1.7l-.4.2H268l-.3-.2c-.3-.4-.1-.7-.1-1a4.5,4.5,0,0,1,.6-2.1,3.7,3.7,0,0,1,1.3-1.2h.8a1,1,0,0,1,.7.4"/><path class="cls-5" d="M284.8,148.5a.5.5,0,0,1,.3.5.4.4,0,0,1-.6.3h-.3l-.7.7a21,21,0,0,0-1.9,2.7,11.8,11.8,0,0,0-1.3,3.3,1.6,1.6,0,0,0,0,1l.3.2h.8a3.4,3.4,0,0,0,1.9-.7c.2-.1.5-.1.6.1s.1.5-.1.6a7,7,0,0,1-2.3.8h-1.2a1.3,1.3,0,0,1-.8-.7,3.8,3.8,0,0,1,0-1.5,12.2,12.2,0,0,1,1.4-3.5,12.6,12.6,0,0,1,2-2.8l.9-.9.5-.2h.5"/><path class="cls-5" d="M285.7,154.6c.2-.2.4-.3.6-.1s.3.3.1.5a10.9,10.9,0,0,0-.5,1.4,3.1,3.1,0,0,0-.2.8.4.4,0,0,0,.1.3.6.6,0,0,1,0,.6c-.2.1-.5.1-.6-.1a.8.8,0,0,1-.3-.8,3,3,0,0,1,.2-1,5.9,5.9,0,0,1,.6-1.6"/><path class="cls-5" d="M287.3,152.2a.4.4,0,0,1-.4.4c-.2,0-.4-.1-.4-.3a.7.7,0,0,1,0-.5h.2c-.3,0-.4-.2-.4-.5a.5.5,0,0,1,.5-.3.5.5,0,0,1,.4.3.4.4,0,0,1,.1.3v.4"/><path class="cls-5" d="M290.7,154.1a.5.5,0,0,1,.2.6c-.1.2-.4.2-.6.1a.5.5,0,0,0-.7.1,2.7,2.7,0,0,0-.8,1,3,3,0,0,0-.3,1.2v.6h.2a.8.8,0,0,0,.7,0,4.4,4.4,0,0,0,1.6-.6c.2-.2.4-.1.6.1s.1.4-.1.5a5,5,0,0,1-2,.8h-1a1,1,0,0,1-.8-.5,2.1,2.1,0,0,1,0-.8,3.5,3.5,0,0,1,.4-1.7,2.6,2.6,0,0,1,1-1.3,1.5,1.5,0,0,1,1.6-.1"/><path class="cls-5" d="M292.2,155a.4.4,0,1,1-.5.7l-.7-.2-.7.6c-.2.2-.5.2-.6,0s-.2-.4,0-.6a3.1,3.1,0,0,1,1.1-.8,1.9,1.9,0,0,1,1.4.3"/><path class="cls-5" d="M296,150.5c.3,0,.5.1.5.4s-.1.4-.3.4h.1c-.1,0-.1.1-.2.2a6.2,6.2,0,0,0-.3,1q-.3,1.4-.6,3.3a23.3,23.3,0,0,0-.5,2.8c-.2,1.1-.3,2.3-.4,3.3a13.4,13.4,0,0,1-.1,2.1,3.3,3.3,0,0,1,0,1h-.8a5.1,5.1,0,0,0-.2-.9,22.5,22.5,0,0,1,0-3.7,26.7,26.7,0,0,1,.7-4.7,13.4,13.4,0,0,1,1.3-3.4,4.4,4.4,0,0,1,2.3-2.2,2.6,2.6,0,0,1,2.3.6,3.4,3.4,0,0,1,.9,1.8,3.1,3.1,0,0,1-.3,1.9,2.9,2.9,0,0,1-2,1.4l-1.7.5a.5.5,0,0,1-.5-.3.4.4,0,0,1,.3-.5l1.7-.4a3,3,0,0,0,1.5-1,3.6,3.6,0,0,0,.2-1.5,2.6,2.6,0,0,0-.6-1.3,1.9,1.9,0,0,0-1.6-.4,3.4,3.4,0,0,0-1.8,1.8,19.5,19.5,0,0,0-1.2,3.2,24.4,24.4,0,0,0-.7,4.6,18.6,18.6,0,0,0,.1,3.5c0,.4.2.7.1,1.1s-.2.4-.4.3a.4.4,0,0,1-.4-.4v-1c0-.5.1-1.2.1-2.1s.2-2.2.4-3.3a23.3,23.3,0,0,1,.5-2.8c.2-1.3.4-2.5.6-3.4s.3-.8.4-1.1l.2-.4c.1-.1.2-.3.4-.3"/><path class="cls-5" d="M297.1,151.6a.4.4,0,1,1-.8.4.4.4,0,0,1,0-.5.5.5,0,0,1,.2-.4,1.7,1.7,0,0,1,.6-.6,1.2,1.2,0,0,1,1.3.1,5.2,5.2,0,0,1,1.1,1l.4.4a2.2,2.2,0,0,1,.4,1.3,1.1,1.1,0,0,1-.3.8,1.5,1.5,0,0,1-.6.5,3.9,3.9,0,0,1-1.5.6l-1.1.4c-.2.1-.4.1-.4.2h.1l.7.3a7.2,7.2,0,0,1,2.1,1.2,2.2,2.2,0,0,1,.8,1.3c0,.3.1.6.1.9a2,2,0,0,1-.4.8l-.8.4a5.8,5.8,0,0,1-1.9.3,5.2,5.2,0,0,1-1.8-.3l-.6-.5a1.1,1.1,0,0,1,0-.8.4.4,0,1,1,.7.3h.3a2.9,2.9,0,0,0,1.4.3,3.8,3.8,0,0,0,1.6-.3l.5-.2.2-.3a3.5,3.5,0,0,1-.1-.6,1.5,1.5,0,0,0-.6-.9,4.5,4.5,0,0,0-1.8-1c-.3-.2-.7-.2-1-.5a.8.8,0,0,1-.2-.4.7.7,0,0,1,.2-.6l.6-.3,1.2-.4,1.3-.5.4-.3a.4.4,0,0,0,.1-.3,1.3,1.3,0,0,0-.3-.8q0-.1-.3-.3a3.7,3.7,0,0,0-.9-.9c-.3-.2-.3-.2-.5-.1s-.3.2-.4.4h0s-.1-.1,0-.1"/><path class="cls-5" d="M308,154.8c.1.2,0,.5-.2.5s-.5,0-.5-.3H307a3.5,3.5,0,0,0-.9.6,2.8,2.8,0,0,0-1,1.7,3.2,3.2,0,0,0,.3,1.4,1.4,1.4,0,0,0,1,.5,2.2,2.2,0,0,0,1.5-.8h.6a.6.6,0,0,1,0,.6,2.6,2.6,0,0,1-2.1,1,2,2,0,0,1-1.7-.9,3,3,0,0,1-.4-1.9,3.7,3.7,0,0,1,1.2-2.2,3.1,3.1,0,0,1,1.3-.8h.7a.7.7,0,0,1,.5.6"/><path class="cls-5" d="M308.7,156c.1.2-.1.4-.3.5a.5.5,0,0,1-.5-.3c0-.2,0-.3-.1-.3h.5v.2l-.3.6-.2.2a.9.9,0,0,1-.7.1.6.6,0,0,1-.1-.6c.1-.2.4-.2.6-.1s-.2-.1-.1,0h-.2c.1-.1-.1,0-.1,0s0,0,.1-.1.1-.3.2-.5l.2-.3a.6.6,0,0,1,.5-.2.9.9,0,0,1,.5.3c0,.2.1.3.1.5"/><path class="cls-5" d="M310.3,158.6c.1.2-.1.4-.3.4a.3.3,0,0,1-.5-.3h0v-2.6a5,5,0,0,1,.2-1.2,1.1,1.1,0,0,1,.9-.6h1.2a34.6,34.6,0,0,0,3.9.3.4.4,0,1,1,0,.8,31,31,0,0,1-3.9-.3h-1.3a5.6,5.6,0,0,0-.2,1v2.4m-.9-1.3a.4.4,0,0,1,.2-.5c.2,0,.5.1.5.3a2.5,2.5,0,0,1,.2.7v.8h0a.4.4,0,0,1-.4.4c-.2-.1-.4-.2-.4-.5h0v-.7a3.5,3.5,0,0,1-.1-.6"/><path class="cls-5" d="M170.9,103.5c.3.1.4.3.3.5s-.3.4-.5.3h.3v.3a10.4,10.4,0,0,0-.3,1.2c-.2.8-.5,1.7-.7,2.3a1.4,1.4,0,0,1-.2.7q0,.1-.3.3H169a1,1,0,0,1-.4-.5,13.1,13.1,0,0,1,0-2.8.3.3,0,0,1,.5-.3c.2,0,.4.2.3.4a18.3,18.3,0,0,0,0,2.4H169l.2-.5.6-2.3.3-1.3c.1-.1.1-.3.2-.4l.2-.2c.1-.1.3-.2.4-.1"/><path class="cls-5" d="M166.9,100.9a.4.4,0,0,1,.4.4c0,.2-.1.4-.3.4h-.3v-.4s-.1-.1,0-.1-.1-.1-.1,0h.9a10.3,10.3,0,0,0,3.8-.4,7.2,7.2,0,0,1,1.9-.4,1.4,1.4,0,0,1,1.4.8.5.5,0,0,1-.2.6.4.4,0,0,1-.5-.2c-.2-.4-.3-.4-.7-.4l-1.7.4a14.4,14.4,0,0,1-4.1.5l-1.2-.3c-.1-.1-.2-.1-.2-.3a.6.6,0,0,1,.1-.6h.7"/><path class="cls-5" d="M165.2,110a.5.5,0,0,1-.6.2.5.5,0,0,1-.1-.6,2.7,2.7,0,0,1,1.5-1h2a15,15,0,0,0,4.7-.4c.2-.1.4,0,.5.3s-.1.4-.3.5a13.9,13.9,0,0,1-4.9.4,12,12,0,0,0-1.9,0,1.5,1.5,0,0,0-.9.6"/><path class="cls-5" d="M179.3,109.5a.5.5,0,0,1-.4.5.4.4,0,0,1-.4-.4c0-.5.1-1.1.1-1.3H178l-.9.2v.2c0,.1.1.2.1.4l.6.5a1.9,1.9,0,0,1,.8,1.4,2.4,2.4,0,0,1-.5,1.4,3.3,3.3,0,0,1-3.3.9c-.2,0-.3-.3-.3-.5a.5.5,0,0,1,.5-.3,2.5,2.5,0,0,0,2.5-.6,1.6,1.6,0,0,0,.3-.9,1.5,1.5,0,0,0-.5-.8c-.2-.2-.6-.4-.8-.8a1.9,1.9,0,0,1-.2-.7,1,1,0,0,1,.3-.8,2.4,2.4,0,0,1,1.5-.4l.7.2a.9.9,0,0,1,.6.6,4.9,4.9,0,0,1-.1,1.4"/><path class="cls-5" d="M182.5,106.8a.5.5,0,0,1-.5.3c-.3-.1-.4-.3-.3-.5h0c-.1,0,.1.2,0,.2s.2.1.1.1h.5v.2l-.7,1a8.9,8.9,0,0,0-.8,1.7,3.3,3.3,0,0,0-.4,1.8,2.1,2.1,0,0,0,.3,1.2l.6.3c.2,0,.4-.2.6-.5s.4-.2.6-.1a.5.5,0,0,1,.1.6,1.7,1.7,0,0,1-1.3.8,1.7,1.7,0,0,1-1.2-.6,2.8,2.8,0,0,1-.6-1.6,6.3,6.3,0,0,1,.5-2.2,15,15,0,0,1,.9-1.8l.7-1.1.2-.3h.7a.5.5,0,0,1,.1.5"/><path class="cls-5" d="M180.4,111c.2,0,.3.3.2.5s-.3.3-.5.2l-.5-.2-.2-.3c0-.2.1-.4.2-.4s.6-.2.9-.2h2.1c.3,0,.5.1.5.3s-.1.5-.4.5h-2.6c-.1,0,.1-.2.1-.1v-.2h.2"/><path class="cls-5" d="M151.6,107.5c.2-.1.4.1.5.3a.5.5,0,0,1-.3.5l-3.1.5c-.2,0-.4-.1-.4-.3a.3.3,0,0,1,.3-.5l3-.5m-3.4,0a.4.4,0,0,1,0,.8h-.1s.2-.1.1-.1h.1v-.2c0,.1-.1-.2,0-.2h4c.2,0,.3,0,.4.2l.2.3c0,.1-.1.3-.2.3a.5.5,0,0,1-.5.3h-5.1l-.5-.2h-.2c0-.1-.1-.1-.1-.2s0-.3,0-.4a.6.6,0,0,1,.5-.2H150l.8-.2h.8c.2-.1.4,0,.5.3a.5.5,0,0,1-.3.5H151l-.9.2a8.1,8.1,0,0,1-2.2.1h-1c-.1,0,0-.1,0,0h.1s.1-.3.1-.2-.1-.2,0-.2h5s-.1.1,0,.1-.1.1-.1.1v.2h-3.2l-1-.2h-.2c-.1,0-.1-.1-.2-.2v-.4l.4-.2h.2"/><path class="cls-5" d="M150,112a.4.4,0,0,1-.1.6c-.1.2-.4.1-.5-.1a11.5,11.5,0,0,1-1.3-2,8.3,8.3,0,0,1-.8-1.2l-.3-.4h.1s.3-.1.2,0,.2-.2.2-.2h0a.1.1,0,0,1,.1.1c0,.2.1.3.2.5a6.2,6.2,0,0,0,1.1,1.7,3.1,3.1,0,0,0,1.2.7.4.4,0,1,1,0,.8,2.6,2.6,0,0,1-1.8-1,7.5,7.5,0,0,1-1.3-1.8c-.1-.2-.1-.4-.2-.6v-.3a.6.6,0,0,1,.1-.4.4.4,0,0,1,.4-.2c.1,0,.2,0,.2.1a.2.2,0,0,1,.2.2,1,1,0,0,1,.4.5l.7,1.2L150,112m-1.9-2.7c.2.1.2.4.1.6h-.4c-.1,0,.2-.1.1-.1s.2-.1.1,0h.1s.1-.2.1-.1h0a.5.5,0,0,0,.1.3,5.1,5.1,0,0,0,.9,1.3l.6.6a3.7,3.7,0,0,1,.7,1.6,1.1,1.1,0,0,1,.1.5v.4l-.3.2h-.4c-.3-.1-.4-.4-.5-.7a9.3,9.3,0,0,1-.5-1l-1.1-2.1a1.3,1.3,0,0,1-.4-.6.3.3,0,0,1,0-.4c0-.2.1-.3.2-.3h.7a3.2,3.2,0,0,1,1,1.3,3.6,3.6,0,0,1,.4.9c.1.2.2.3.2.4h.1a.4.4,0,0,1-.1.6c-.2.2-.4.1-.5-.1h-.1v-.2a.8.8,0,0,1-.2-.5l-.4-.8c-.3-.5-.6-.9-.7-.9h.2l.4.5,1.1,2.2a11.8,11.8,0,0,0,.8,1.3h-.6c.1-.1,0,.1,0,.1h0a.8.8,0,0,0-.1-.4,6.9,6.9,0,0,0-.5-1.3l-.6-.6a7.6,7.6,0,0,1-1.1-1.4c0-.2-.1-.4-.1-.6s-.1-.1,0-.1a.8.8,0,0,1,.1-.4.4.4,0,0,1,.5,0h.1"/><path class="cls-5" d="M151.4,109.5a.4.4,0,0,1,.4.4.4.4,0,0,1-.4.4h-3.3s.1-.1.1,0,.1-.3.1-.2v-.2h0c0,.1.1.2.4.4a.3.3,0,0,1,.1.5c-.2.2-.4.3-.6.1l-.6-.4c0-.1-.1-.1-.1-.3s.1-.4.3-.4h3.6m.6-.8a.4.4,0,0,1-.2-.5.5.5,0,0,1,.6-.2c.2.2.2.3.2.4h0c0,.1-.1.1-.1.2a.4.4,0,0,1-.1.3,4.2,4.2,0,0,1-.4,1c-.2.8-.6,1.5-.8,2.2s-.2.5-.3.6h-.1c.1,0-.1-.2,0-.1h-.6c.1-.1.2-.5.4-.9a5.3,5.3,0,0,0,.6-1.4V110h.1c-.1-.1.1.2.1.1h.4c0,.1.1,0,0,0h.1a14.6,14.6,0,0,0-.9,1.5,1.3,1.3,0,0,1-.3.5h-.4c-.1,0-.2,0-.2-.1s-.1-.1-.1-.2-.1-.6-.1-.9-.1-.4-.1-.6l-.5-.6-.3-.2h.3v-.2h-.1c.1,0,0-.1,0-.1h.3l.6.3a.7.7,0,0,0,.6-.3l.2-.2h0s.1.1,0,.1h-1.2l-.8.3h-.1v-.2h0l1,.2h1.5a.4.4,0,0,1,0,.8h-1.5a2.2,2.2,0,0,1-1.4-.3c-.2,0-.3-.1-.3-.2a.9.9,0,0,1-.1-.5,1,1,0,0,1,.5-.4,2.3,2.3,0,0,1,1-.5h1.3l.5.2.3.2c.1.1.1.2.1.4a1,1,0,0,1-.4.7,1.4,1.4,0,0,1-1.3.5l-.9-.3-.4-.2c0-.1-.1-.1-.1-.2s-.2-.1-.1-.4.2-.2.3-.3h.6l.6.5a2.2,2.2,0,0,1,.5.8,2.9,2.9,0,0,1,.2.9v.6h-.1c.1,0-.1-.1-.1-.1s-.1,0-.1,0h-.1c.1,0-.1.1-.1.1h0a.3.3,0,0,1,.1-.2,13.1,13.1,0,0,1,.9-1.7h.4c.3,0,.4.2.4.3v.2a1.1,1.1,0,0,1-.1.5,11.6,11.6,0,0,0-.6,1.5l-.6,1a.1.1,0,0,1-.1.1h-.5c-.2-.2-.1-.3-.1-.3h0v-.2l.3-.8.9-2.1.3-.9a.8.8,0,0,0,.1-.4h.1s.1.2,0,.1h.2m.7,1a.4.4,0,0,1-.6,0,.6.6,0,0,1,0-.6h.2c-.1-.1.1.2.1.2s.2,0,.1,0h0a8,8,0,0,0-1.1,2.1l-.2.6h0v-.2h-.4c.1,0-.1.1-.1.1h-.1a3.4,3.4,0,0,0,.4-1,7,7,0,0,0,.6-1.7,1.4,1.4,0,0,0,.2-.6h.1a.4.4,0,1,1,.8,0h-.1v.2c-.1.1-.1.3-.2.6a16.2,16.2,0,0,0-.6,1.7l-.5,1.2-.3.2h-.4a.4.4,0,0,1-.1-.3v-.3a3.6,3.6,0,0,1,.3-.7,5.1,5.1,0,0,1,1.3-2.4.5.5,0,0,1,.4-.2h.3c.1.1.3.2.3.4a.5.5,0,0,1,0,.5l-.3.4"/><path class="cls-6" d="M214.4,108.3a.3.3,0,0,1,.5-.1.5.5,0,0,1,.1.6h0l-.3.5-.5,1.1-.4.5-.3.2c0,.1-.1.1-.3.1a.3.3,0,0,1-.3-.3.6.6,0,0,1,0-.6c.1-.2.1-.5.3-.7l.6-1.5a1.7,1.7,0,0,0,.2-.5h0s.2.2.1.2.1.1.1.1h.3l-.7.8a1,1,0,0,1-.7.4,1.1,1.1,0,0,1-.8-.1c-.2-.1-.3-.3-.4-.4s-.2-.3-.2-.5a.7.7,0,0,1,.1-.6,1,1,0,0,1,.8-.3H214c.1,0-.1.1,0,.1s-.1.1-.1.1h0l-1-.5-.5-.2h-.3a.5.5,0,0,1,0-.5c.2-.2.3-.1.3-.1h2.3a.4.4,0,0,1,.1.3c.1.1,0,.3,0,.4a1,1,0,0,1-.6.2h-.4l-1.2.5h-.8a.8.8,0,0,1-.2-.5c0-.1.1-.2.2-.3h.3l.8-.2c.2-.1.4.1.4.3s-.1.5-.3.5h-.6c-.1,0,0-.2,0-.1V107h0l1.3-.5h.5c.1,0-.1.2,0,.2v.2c-.1-.1.1.1,0,.1h-1.3c-.1.1.1-.3.1-.2s-.1-.2-.1-.2-.1-.1-.1-.1h-.1l.6.2a3.4,3.4,0,0,1,1.4.8,1.3,1.3,0,0,1,.1.6l-.2.3h-.4c-.2.1-.5,0-.8,0h-.9s.1-.1,0-.1h.1l.3.2h.1a.4.4,0,0,0,.3-.2,4.6,4.6,0,0,0,.7-.7.7.7,0,0,1,.4-.3h.4a.4.4,0,0,1,.1.3v.2l-.3.7a14.7,14.7,0,0,1-.6,1.4,1.4,1.4,0,0,0-.2.6v.2h-.5c0-.1.1-.2.3-.4a3.7,3.7,0,0,1,.5-1.1l.2-.4h.1c0-.1,0-.1.1-.1m-.5,3c.1.2,0,.5-.2.5s-.5,0-.5-.2,0-.3,0-.3h0v-.2l.3-.6a12.1,12.1,0,0,0,.5-1.4,3.6,3.6,0,0,0,.3-.7h0a.4.4,0,0,1,.4-.4.5.5,0,0,1,.4.5h0a2.4,2.4,0,0,0-.3.7l-.6,1.4c-.1.2-.1.4-.2.6h-.1m.6.4a.4.4,0,0,1,0,.6.3.3,0,0,1-.5,0h-.1l-.2-.2-.5-.8a11,11,0,0,1-1.4-2.1c-.2-.3-.3-.7-.5-1a2.9,2.9,0,0,1-.2-.9,1.1,1.1,0,0,1-.1-.5c0-.1.1-.2.1-.3l.2-.2h.3a.7.7,0,0,1,.5.4c.1.2.2.3.2.5a7.8,7.8,0,0,1,.5,1.4,13.6,13.6,0,0,1,.4,1.7l.2.4h0c.1,0,0-.1,0-.1H213c.1,0-.1.2-.1.1s-.1.2-.1.1h0v-.3l-.3-.8a16.7,16.7,0,0,0-1.2-2.3l-.6-.9a1.3,1.3,0,0,1,.1-.6c.1-.2.3-.2.4-.3a4.8,4.8,0,0,1,1.2,0h3.4a.6.6,0,0,1,.5.2.6.6,0,0,1,.1.4v.3l-.3.6-.7,1.3a9.1,9.1,0,0,0-.7,1.4l-.4.8-.3.6v.2c-.1,0-.1,0-.1.1s0,.2-.3.2a.5.5,0,1,1-.1-.9h-.3V111l.3-.5a2,2,0,0,1,.4-.8l.6-1.5.8-1.3.2-.4h-4.1c-.1,0,0-.2,0-.1h0c0,.1.3.4.5.8a13.4,13.4,0,0,1,1.2,2.4,4.1,4.1,0,0,1,.3.8.8.8,0,0,1,.1.4.4.4,0,0,1,0,.5l-.5.2-.2-.2-.2-.2a3.3,3.3,0,0,1-.3-.6,9.4,9.4,0,0,0-.4-1.6,10.4,10.4,0,0,0-.4-1.3l-.2-.5h-.1s.1.1,0,.1h.4c-.1,0,.1-.2.1-.1h0a.3.3,0,0,0,.1.2,3.1,3.1,0,0,0,.2.8,10.4,10.4,0,0,1,.4,1l1.3,1.9.6.8c0,.1.1.1.1.2h0m-3.1-4.7a.4.4,0,1,1,.8,0,19.4,19.4,0,0,0,1.3,2.6l.7,1.6.4.6h0c.1.2.1.5-.1.6a.5.5,0,0,1-.6-.2h0a1.4,1.4,0,0,1-.4-.7c-.3-.4-.4-1-.7-1.5l-.9-1.6a3,3,0,0,1-.5-1.4"/><path class="cls-6" d="M238.2,103.2a.4.4,0,0,1-.8,0,1.2,1.2,0,0,1,.3-.9l.3-.2h.3l.2.3v.3a12.4,12.4,0,0,1-.4,1.6,19.1,19.1,0,0,1-.9,2.6l-.3.4a.6.6,0,0,1-.7.2,1,1,0,0,1-.4-.5c-.1-.1-.1-.4-.2-.6a.4.4,0,0,1,.3-.5c.2-.1.4,0,.5.3a.8.8,0,0,0,.2.5h-.3s.1,0,.1-.2a13.7,13.7,0,0,0,.9-2.5,5.8,5.8,0,0,0,.4-1.3h.6c-.1,0,.1-.1.1-.1a1.5,1.5,0,0,0-.2.4"/><path class="cls-6" d="M234.8,101.5a.5.5,0,0,1,.3.5c-.1.3-.3.4-.5.3h-.2c-.1,0,.1-.2,0-.2s0-.2.1-.1-.2-.2-.1-.2h1c2.3.1,4.8-.3,6.7.2.2,0,.3.2.3.5a.5.5,0,0,1-.5.3c-1.6-.5-4.1,0-6.6-.2h-1.5a.3.3,0,0,1-.1-.2.5.5,0,0,1,0-.4.6.6,0,0,1,.5-.2h.6"/><path class="cls-6" d="M233.5,108.5a.5.5,0,0,1,.4.5.4.4,0,0,1-.4.4H233c-.1-.1-.3-.1-.3-.4s.1-.4.2-.4a1.2,1.2,0,0,1,.8-.2,10,10,0,0,1,2.4.1h3.6a.5.5,0,0,1,.5.4.4.4,0,0,1-.4.4H236a8.6,8.6,0,0,0-2.2-.1h-.3c-.1,0,0-.3,0-.2s-.1-.2-.1-.2h.1"/><path class="cls-6" d="M248.9,106a.3.3,0,0,1,.5.1.4.4,0,0,1,0,.6c-.1,0,.1-.1.1-.1s0-.1,0-.1h0l-.2.3-.3,1c-.6,1.2-1.4,2.6-1.8,3.5l-.3.7c0,.1-.1-.1-.1-.1h2.3a.4.4,0,1,1,0,.8h-2.5l-.4-.2a.7.7,0,0,1-.1-.5,1.7,1.7,0,0,1,.3-1c.5-1,1.3-2.4,1.8-3.6l.4-.8c0-.2.1-.3.1-.4h0l.2-.2m-.3,1.6a.4.4,0,0,1-.6-.1.3.3,0,0,1,.1-.5h0l.2-.3.3-.5h.6c.2.1.4.3.3.5a.3.3,0,0,1-.5.3h.3l-.3.3a1,1,0,0,1-.4.5"/><path class="cls-6" d="M255.1,109.4a.4.4,0,1,1-.8,0v-.3h-.2a1.1,1.1,0,0,0-1,.4,2.9,2.9,0,0,0-.8,1.3,1.5,1.5,0,0,0-.1.6c0,.1,0,.2.1.2s.1.1.2.2l.4-.3a4.6,4.6,0,0,0,.7-.7l.6-.6.2-.3h.6a.4.4,0,0,1,.2.3,3.3,3.3,0,0,1-.5,1.5v.4l.2.2a1.5,1.5,0,0,0,1.2.2c.3,0,.5.1.5.3s-.1.5-.3.5a2.9,2.9,0,0,1-1.9-.3,1.5,1.5,0,0,1-.5-.6v-.9a10.6,10.6,0,0,1,.5-1.2h0s.1.1,0,.1.2.1.1.1h.2c-.1-.1.2-.1.2-.1h.1l-.2.3a1.7,1.7,0,0,0-.6.6l-.8.7a1.4,1.4,0,0,1-1.1.5l-.7-.4a1.9,1.9,0,0,1-.2-.8,1.1,1.1,0,0,1,.1-.8,3.2,3.2,0,0,1,1.1-1.7,2.3,2.3,0,0,1,1.5-.7.9.9,0,0,1,.8.4,1.1,1.1,0,0,1,.2.8"/><path class="cls-6" d="M236.7,108.8a.5.5,0,0,1-.5.3.5.5,0,0,1-.3-.6c.1-.1.1-.4.2-.8a16.7,16.7,0,0,1,.8-2,8.3,8.3,0,0,1,.4-1.2v-.2h0s.1.1,0,.1h.6c-.1,0,0-.1,0-.1s-.2.5-.4.9a5.2,5.2,0,0,0-.6,1.6,2.4,2.4,0,0,1-.3.7v.2h0c0,.1-.1-.1-.1-.1h-.3c.1,0-.2.1-.1.1H236l.3-.5a7.6,7.6,0,0,1,.4-1.1,5.4,5.4,0,0,0,.4-1.5v-.3a.5.5,0,0,1,.5-.4c.2.1.4.3.3.5a2.6,2.6,0,0,1-.5.9,6.9,6.9,0,0,0-.5,1.7v.3c0,.1-.1,0,0,.1s-.2-.2-.1-.2-.3,0-.2,0h0c.2-.2.5-.2.6,0s.1.4,0,.6l-.5.2c-.2.1-.5-.1-.6-.3a1.4,1.4,0,0,1,0-.9,6,6,0,0,1,.6-1.9l.3-.5h.9v.2a5.5,5.5,0,0,1-.5,1.8l-.5,1.2c-.1.3-.2.7-.6.8a.3.3,0,0,1-.4,0c-.2-.1-.2-.2-.2-.3v-.5l.3-.7.6-1.8.6-1h.4a.5.5,0,0,1,.4.2v.2a.9.9,0,0,1-.1.5,8.4,8.4,0,0,1-.4,1.2c-.2.7-.5,1.4-.7,2s-.1.7-.2.9m1.4-5.4a.5.5,0,0,1-.3.5.4.4,0,0,1-.5-.3s.1.2,0,.1h.1s.2.1.1.1.3,0,.3,0,.1-.1.1,0,.1-.1.1-.1h0c-.1.2-.1.4-.2.6a8.7,8.7,0,0,0-.5,1.9,13.6,13.6,0,0,0-.4,1.7,1.3,1.3,0,0,0-.1.6h-.1a.5.5,0,0,1-.5.3.5.5,0,0,1-.3-.6h.1a1.3,1.3,0,0,1,.1-.6,13.6,13.6,0,0,1,.4-1.7c.2-.7.3-1.4.5-1.9a3.9,3.9,0,0,0,.2-.6v-.2c0-.1,0-.1.1-.2s.2-.2.4-.1.3.2.3.3"/><path class="cls-7" d="M339.9,21.3a.4.4,0,0,1,.4-.4.4.4,0,0,1,.4.4V253.2a.4.4,0,0,1-.4.4.4.4,0,0,1-.4-.4Z"/><path class="cls-7" d="M340.6,256.3c0,.2-.3.3-.5.2s-.3-.3-.2-.5h0v-.2a4.3,4.3,0,0,1,.1-.5c.3-1.1,1-2.2,1.5-3.5a18.6,18.6,0,0,0,.8-2.6c0-.3.1-.5.1-.7h.1c0-.1.2-.2.4-.2l.3.3c.1.2,0,.2,0,.2v.3c0,.3-.2.4-.5.4s-.4-.2-.3-.4v-.3h0s.1.1,0,.1h.1c0-.1.2.1.1.1h.4c-.1,0,.2-.1.1-.1h.1a2.2,2.2,0,0,0-.1.6,24.6,24.6,0,0,1-.8,2.7,36.4,36.4,0,0,0-1.5,3.4,4.3,4.3,0,0,0-.1.5v.2h-.1m-2.1-4.7a.4.4,0,0,1-.6,0,.5.5,0,0,1,0-.5h-.1c.1-.1,0,.1,0,.1h0c0-.1-.1-.2-.2-.3a.5.5,0,0,0-.2-.4h.1c-.2,0-.3-.2-.3-.5a.5.5,0,0,1,.5-.3c.3.1.3.2.3.3h0v.2c.1.2.1.4.2.6s.9,2,1.4,3l.5,1.1c.1.2.1.4.2.4s.1.3.2.4h-.2a.5.5,0,0,1,.3.5.7.7,0,0,1-.6.3l-.2-.3a.1.1,0,0,1-.1-.1V256c-.1-.2-.2-.3-.2-.5l-.6-1.2c-.4-1-1-2.1-1.4-3s-.1-.5-.2-.7h.2l.2-.8c.3.1.3.2.4.4l.2.3.3.5v.4s0,.2-.1.2"/><path class="cls-7" d="M355.7,5.5a.4.4,0,1,1,.8,0V258.9a.4.4,0,1,1-.8,0Z"/><path class="cls-7" d="M353.5,251.6a.3.3,0,0,1-.1.5c-.2.2-.4.1-.6-.1l-.2-.2h.1c-.1,0,0-.1,0,0h0a2,2,0,0,1,.1.5c.2.8.8,1.7,1.2,2.8a20.9,20.9,0,0,0,1,2.1.5.5,0,0,0,.4.3h.1a2.7,2.7,0,0,0,.7-1.2l.9-2.3a11.8,11.8,0,0,1,1.4-2.8,6,6,0,0,1,1.9-1.5.5.5,0,0,1,.6.2c.1.2,0,.4-.2.6a4.4,4.4,0,0,0-1.6,1.2,10.1,10.1,0,0,0-1.3,2.6l-.9,2.3c-.3.7-.5,1.4-1.1,1.6a.7.7,0,0,1-.9,0l-.6-.5a12,12,0,0,1-1.1-2.3,18.5,18.5,0,0,1-1.3-2.9,1.4,1.4,0,0,1,0-1.1.3.3,0,0,1,.3-.3h.4a1.6,1.6,0,0,1,.8.6"/><path class="cls-7" d="M353.3,251.5h.6a.6.6,0,0,1,0,.6l-.4.2a.5.5,0,0,1-.4-.2l-.3-.3-.2-.4.6-.5c.2.2.2.4.3.7a2.9,2.9,0,0,0,.2.9l1.4,3.3.2.4h0c0,.1.1.1,0,.2a.5.5,0,0,1-.3.4c-.4,0-.4-.2-.5-.2l-.2-.3-.5-.9-1.1-2.6c-.3-1.2-.5-2.3-.7-3.1a2.5,2.5,0,0,1-.2-.7h0s.2.1.1.1h.4c-.1.1.2-.1.1-.1s.1-.1.1-.1h.1c.3,1.2,1.5,3.6,2.2,5.6l.5,1.5c.1.2.1.3.2.4h-.1c.1,0-.1-.1-.1,0s-.2,0-.2-.1-.2.1-.1.1h-.2c-.1-.1-.1-.4-.2-.6s-.3-1.3-.5-2.1l-.9-2.5a6.2,6.2,0,0,0-.3-1h.6c.1.5.4,1.4.7,2.4s.7,2.9,1,3.8a1.1,1.1,0,0,0,.3.5h-.1l.2-.3.4-.9a.4.4,0,0,1,.5-.2c.2,0,.3.3.3.5a4.6,4.6,0,0,1-.5,1c-.2.3-.3.5-.6.6h-.5l-.3-.3c-.2-.1-.3-.4-.4-.7s-.7-2.5-1.1-3.9-.6-1.9-.7-2.5v-.3h0l.2-.3h.5v.2c.1,0,.1.1.1.2a10.4,10.4,0,0,1,.4,1l.9,2.5a21.8,21.8,0,0,0,.6,2.2c0,.3.1.5.1.7v.2h0c0,.1,0,.2-.3.3h-.4c0-.1,0-.1-.1-.1a6.4,6.4,0,0,1-.2-.7c-.2-.4-.3-.9-.6-1.5s-1.9-4.3-2.2-5.6a.9.9,0,0,1-.1-.5v-.2a.6.6,0,0,1,.6-.1c.2.1.1.2.2.3l.2.7c.2.8.4,2,.7,3a9.8,9.8,0,0,0,1.1,2.5,2.9,2.9,0,0,0,.4.8.3.3,0,0,1,.1.2h-.2c0-.1-.2,0-.2,0s-.1.1-.1.1h-.1c.1,0,0,.1,0,.1h0c0-.1-.1-.2-.1-.4s-.9-2-1.4-3.3a5.4,5.4,0,0,1-.3-1,.4.4,0,0,1-.1-.3h0a.3.3,0,0,1,0-.5.4.4,0,0,1,.6,0l.3.4v.2h-.3"/><path class="cls-7" d="M357.8,254.5a.4.4,0,0,1-.7.3c-.1-.3,0-.3,0-.3a7.1,7.1,0,0,1,.9-1.7l1.5-2.4a2.4,2.4,0,0,1,.3-.7h.5c-.1,0,.1-.1,0,0h0a35.6,35.6,0,0,0-2.3,3.5l-.9,1.7-.2.3h0v-.2h-.4s-.1.1-.1,0h0a.3.3,0,0,1,.5,0,.4.4,0,0,1,0,.6c-.1,0-.1.2-.4.1a.4.4,0,0,1-.4-.3v-.2l.2-.6a19.4,19.4,0,0,0,1-1.7,20.3,20.3,0,0,1,2.4-3.6v-.2c.1-.1.2-.2.4-.1l.4.2v.5l-.4.8-1.5,2.4a7.6,7.6,0,0,0-.8,1.5h-.1m-.7,1.9a.3.3,0,0,1,.3.5c0,.2-.3.3-.5.3a.8.8,0,0,1-.4-.4.9.9,0,0,1-.1-.5,3.6,3.6,0,0,1,.4-.9,18.6,18.6,0,0,1,1.3-2.3c.3-.6.7-1.1.9-1.6l.5-.7a.5.5,0,0,1,.2-.4h.4l.4.4c0,.1-.1.1-.1.2a4.4,4.4,0,0,1-.5.9l-.8,1.2-.8,1.2-.4.5c0,.1-.1.1-.1.2h-.3c-.2,0-.4-.1-.4-.3a.3.3,0,0,1,.3-.5h-.1l.3-.5a10.5,10.5,0,0,0,.8-1.1,10.8,10.8,0,0,0,1.2-2h0c0-.1.1.1,0,0s.2.2.1.2h.6v.2l-.5.7a8.9,8.9,0,0,1-.9,1.6l-1.3,2.2a2.4,2.4,0,0,1-.3.7h0c.1,0-.1-.1-.1-.1"/><path class="cls-7" d="M337.3,250.6a.4.4,0,0,1,.5-.7c.2.1.1.1.1.2a4.6,4.6,0,0,1,.5,1c.4.9.8,2,1.2,2.7a3,3,0,0,0,.7.8h.4c.2-.2.4-.1.5.1a.4.4,0,0,1-.1.6,1.5,1.5,0,0,1-1.3-.1l-.9-1c-.5-.9-.9-2-1.3-2.8a2.5,2.5,0,0,0-.4-1h.1m3.5,5.6c0,.2-.3.3-.5.3a.5.5,0,0,1-.3-.5c.1-.1,0,.1,0,.1h0c0-.1-.9-1.8-1.7-3.2l-.8-1.7a1.6,1.6,0,0,0-.3-.6v-.2c0-.1-.1-.1,0-.2a.4.4,0,0,1,.4-.4.7.7,0,0,1,.4.5h0c.1.1.1.3.3.6s.5,1,.8,1.6a13.9,13.9,0,0,0,1.1,2.1l.4.8c.1.3.2.4.2.6s.1.1,0,.2m-4.2-7.6c-.2-.1-.2-.4-.1-.6s.4-.2.6,0h.1l.9,1.7,1.5,3.1c.3.7.5,1.4.7,1.9l.4.7c0,.1,0,.2.1.2h-.1s-.1-.1,0-.1-.2,0-.1,0a.4.4,0,0,1,.2.5.5.5,0,0,1-.5.3l-.2-.2h0l-.2-.2-.3-.8c-.2-.6-.5-1.2-.8-1.9s-1-2.1-1.5-3.1l-.8-1.6h.1m1.8.9a.5.5,0,0,1,.2.6.6.6,0,0,1-.6.1l-.9-.6h.5v-.2c0,.1-.1-.1-.1-.1h0a.3.3,0,0,1,.1.2l.4.5a17.4,17.4,0,0,0,1.1,1.8l1.3,2,.3.6.2.2h-.1l.3.2h0a.3.3,0,0,1,0,.5c-.1.2-.4.2-.6,0a.4.4,0,0,1-.2-.4c-.1-.2-.1-.4-.2-.5s-1.4-2-2.2-3.3a12.5,12.5,0,0,1-1.1-1.8,6.1,6.1,0,0,1-.4-.6v-.2h0a.4.4,0,0,1,.4-.4.4.4,0,0,1,.4.4h0a2.1,2.1,0,0,0,.4.6c.3.5.6,1.1,1.1,1.8s1.7,2.4,2.2,3.3a1.4,1.4,0,0,1,.2.6v.2h0l-.6.5h-.1l-.4-.5a3.3,3.3,0,0,1-.3-.6l-1.3-1.9-1.1-1.8-.4-.7h-.1c-.1-.1-.1-.1,0-.3l.2-.3h.3l1,.6"/><path class="cls-7" d="M341.1,254.4a.5.5,0,0,1,.5.3c.1.2-.1.4-.3.5s-.3.1-.5-.1-.2-.4-.1-.5a1.1,1.1,0,0,1,.3-.7l1.3-2a15.7,15.7,0,0,0,1.2-2.1c.1-.3.3-.5.3-.7h0c0-.1.2.1.1.1h.2a11.4,11.4,0,0,0-1.7,2.8,6.9,6.9,0,0,0-.6,1.3h0s-.1-.1,0-.1h-.5a12.5,12.5,0,0,0,1.3-2.6,7.7,7.7,0,0,0,.6-1.5v-.2h.4a5.9,5.9,0,0,0-1.7,2.5c-.2.6-.4,1.1-.3,1.3h.2c.2-.1.5.1.6.3a.5.5,0,0,1-.3.5,1.4,1.4,0,0,1-.9.1,1.3,1.3,0,0,1-.4-.7,3.6,3.6,0,0,1,.3-1.7,9.5,9.5,0,0,1,1-1.7,2.6,2.6,0,0,1,1.1-1.2c.1-.1.2-.2.4-.1s.3.2.3.3a2,2,0,0,1,.1.7,6.4,6.4,0,0,1-.6,1.6,24.3,24.3,0,0,1-1.4,2.8l-.3.2h-.2c-.1.1-.2,0-.4-.1s-.1-.2-.1-.2v-.5l.6-1.5a14.1,14.1,0,0,1,1.9-3,1.5,1.5,0,0,1,.7-.3l.4.4v.4l-.4.8a15.7,15.7,0,0,1-1.2,2.1l-1.3,2c-.1.3-.2.5-.3.5h0v-.2h-.2"/><path class="cls-7" d="M370.3,105.2a.4.4,0,0,1,.8,0h0a3.1,3.1,0,0,1-.5,1,10.7,10.7,0,0,0-.7,1.5,6.5,6.5,0,0,0-.8,2.6,2.2,2.2,0,0,0,.2,1.2,1.1,1.1,0,0,0,.6.7,3.1,3.1,0,0,0,2.9-.3.4.4,0,1,1,.4.8,4.1,4.1,0,0,1-3.7.2,2.2,2.2,0,0,1-1-1.1,2.7,2.7,0,0,1-.2-1.6,11.5,11.5,0,0,1,.8-2.9,17.6,17.6,0,0,0,1.2-2.3h0m-6.5-1.1a.5.5,0,0,1,.1.6c-.1.2-.4.2-.6.1a.8.8,0,0,1-.4-.7.9.9,0,0,1,.3-.7l1.2-.9,1.1-.8a2.3,2.3,0,0,1,1-.7h.5c.1,0,.2.2.3.3a3.1,3.1,0,0,1-.1.9,22.7,22.7,0,0,1-1.3,3,28.8,28.8,0,0,0-1.5,4,5.9,5.9,0,0,0-.2,1.7c0,.4.1.7.2.7h.5c.8-.3,2-1.9,3.2-3.5l1.7-2.4.4-.7V105h.2c.2-.2.4-.1.6.1s0,.4-.2.6h.1v.2l-.4.6-1.8,2.5a19.5,19.5,0,0,1-1.7,2.3,4.4,4.4,0,0,1-1.9,1.5,1.4,1.4,0,0,1-1.1-.2,1.6,1.6,0,0,1-.6-1.3,4.7,4.7,0,0,1,.2-2,41.4,41.4,0,0,1,1.5-4.1,20.6,20.6,0,0,0,1.3-2.9v-.4h.2l-.7.5a5,5,0,0,1-1.2.8,4.5,4.5,0,0,0-1,.9h0"/><path class="cls-7" d="M378.9,109.4a.4.4,0,0,1-.2.5c-.2.1-.5,0-.5-.2H378a1.1,1.1,0,0,0-.7.3,1.9,1.9,0,0,0-.6.7h.1c0,.1.1.1.2.1l.8-.6.4-.3h.1a.4.4,0,0,1,.5.2v.3h0l-.8,1.3c-.8,1.3-1.1,3.6-1.2,5.6a19.1,19.1,0,0,0,0,2.4,2.2,2.2,0,0,1,0,.8,2.1,2.1,0,0,1-.4.6l-.5.2a1.6,1.6,0,0,1-1.2-.4,2.2,2.2,0,0,1-1-.9,2.1,2.1,0,0,1-.5-1.3,1.6,1.6,0,0,1,.8-1.3c.2-.2.4-.1.5.1s.1.4-.1.5l-.4.7a1.3,1.3,0,0,0,.3.8,1.8,1.8,0,0,0,.8.7l.7.3h.1c.1,0,.1,0,.1-.1v-.5a22.4,22.4,0,0,1,0-2.6,14.7,14.7,0,0,1,1.3-6l.7-1.1h0s.1.2,0,.2.2.1.1.1h.4s.1-.1,0-.1l-.2.2a1.8,1.8,0,0,1-1.3.8,1.1,1.1,0,0,1-.8-.3.8.8,0,0,1-.3-.8,2.7,2.7,0,0,1,.9-1.2,3,3,0,0,1,1.1-.4h.6a.7.7,0,0,1,.4.5"/><path class="cls-7" d="M384.4,109.7c.1.2.1.5-.1.6s-.4.1-.5-.1-.2-.2-.4-.1l-.6.3a6.7,6.7,0,0,0-1.2,2,2,2,0,0,0,0,1.1.4.4,0,0,0,.3.4,1,1,0,0,0,.9-.1,4,4,0,0,0,1.3-1.1c.1-.2.4-.2.6-.1s.2.4,0,.6a3.2,3.2,0,0,1-1.6,1.3,1.5,1.5,0,0,1-1.4.2,1.2,1.2,0,0,1-.9-1,2,2,0,0,1,.1-1.5,4.5,4.5,0,0,1,1.4-2.4,3.3,3.3,0,0,1,1-.6,1.6,1.6,0,0,1,1.1.5"/><path class="cls-7" d="M384.4,110.1a.6.6,0,0,1-.1.6.5.5,0,0,1-.6-.2l.2.2c-.1-.1.1,0,.1,0h0a.4.4,0,0,1,.2.5.5.5,0,0,1-.6.2c-.3-.1-.4-.4-.5-.6a.8.8,0,0,1,.1-.7c.2-.1.3-.3.5-.3s.2-.1.4,0l.3.2"/><path class="cls-7" d="M387.9,108.8a.5.5,0,0,1,.5.3c0,.3-.1.5-.3.5a1.3,1.3,0,0,0-1,.9,2.8,2.8,0,0,0-.1,1,3.4,3.4,0,0,0,.1.9,1.4,1.4,0,0,1,.2.7,2.2,2.2,0,0,1-1,1.8,2,2,0,0,1-1.1.3,1.2,1.2,0,0,1-1-.5c-.2-.1-.1-.4,0-.5s.5-.2.6,0a.4.4,0,0,0,.4.2l.6-.2a1.5,1.5,0,0,0,.7-1,1.4,1.4,0,0,0-.2-.6,4.3,4.3,0,0,1-.2-1.2,5.3,5.3,0,0,1,.3-1.2,2.1,2.1,0,0,1,1.5-1.4"/><path class="cls-7" d="M307.1,108.7a.4.4,0,0,1,.4.4.7.7,0,0,1-.5.4.9.9,0,0,1-.7-.3.8.8,0,0,1-.2-.4c0-.2,0-.3.1-.4a5,5,0,0,1,1-1.3c.6-.7,1.2-1.7,1.8-2.3a6,6,0,0,1,.8-.8h.4l.4.2c.2.2.2.5.3.8s-.7,2.5-1,3.8a5,5,0,0,0-.2,1.6.8.8,0,0,1,.1.4v.2h.2l1-.6a10,10,0,0,0,1.4-1.5l.6-.7h.6a1,1,0,0,1,.4.5,4.3,4.3,0,0,1-.4,1.9,13.6,13.6,0,0,0-.6,2.7h.1a3.3,3.3,0,0,0,1.3-.8.4.4,0,0,1,.6,0,.6.6,0,0,1,0,.6,3.3,3.3,0,0,1-1.8,1,.8.8,0,0,1-.8-.2.8.8,0,0,1-.2-.7,8.8,8.8,0,0,1,.6-2.9,11.7,11.7,0,0,0,.4-1.6h0c0-.1.1.1.1,0s.1.1.1.1h.1l-.5.4a11,11,0,0,1-1.5,1.6,3.7,3.7,0,0,1-1.2.7l-.6.2h-.3l-.3-.3a1.1,1.1,0,0,1-.2-.9,6.5,6.5,0,0,1,.2-1.9c.3-1.4,1-2.8.9-3.6v-.2h.1l-.5.5-1.8,2.3-.9,1.1h0s-.1-.2,0-.2-.1,0,0,0h.2"/><path class="cls-7" d="M322.3,111.2a.5.5,0,0,1-.5.3c-.2-.1-.4-.3-.3-.5s0-.3-.1-.4h-.6c-.1,0-.3.2-.4.5a4.2,4.2,0,0,0-.4,1c0,.4,0,.7.1.7s-.1,0-.1,0h.3l.7-.3.6-.5.2-.3h.6a.5.5,0,0,1,.3.4v.2c.1.2,0,.4,0,.6a7.7,7.7,0,0,1-.2,1.5,47.3,47.3,0,0,0-.1,5.3,10.7,10.7,0,0,1,0,1.8,1.6,1.6,0,0,1-.4,1.2,1.1,1.1,0,0,1-.8.3,1.6,1.6,0,0,1-.9-.3,4.5,4.5,0,0,1-1.5-1.3,5,5,0,0,1-.8-2,2.3,2.3,0,0,1,1.1-1.9.5.5,0,0,1,.6.1c.1.2,0,.4-.2.6a1.3,1.3,0,0,0-.7,1.2,3.4,3.4,0,0,0,.7,1.5,3.1,3.1,0,0,0,1.2,1.1l.5.2h.2a.8.8,0,0,0,.2-.6v-1.8a49.5,49.5,0,0,1,.1-5.4,7.7,7.7,0,0,0,.2-1.5v-.5h0s.1.1.1,0,.1.2,0,.1h.4l-.2.2a2.9,2.9,0,0,1-.8.7,1.6,1.6,0,0,1-.9.3H320a.6.6,0,0,1-.5-.2,1.6,1.6,0,0,1-.3-1.5,6.1,6.1,0,0,1,.5-1.2,1.6,1.6,0,0,1,.9-.9,1.3,1.3,0,0,1,1.2.2,1.1,1.1,0,0,1,.5,1.2"/><path class="cls-7" d="M327.1,111.4a.3.3,0,0,1,0,.5c-.1.2-.4.2-.6,0s-.2-.2-.3-.1-.2,0-.3.2a4.4,4.4,0,0,0-.7,1.7,2,2,0,0,0,0,1.1l.3.5h.6a3.5,3.5,0,0,0,1.2-1,.4.4,0,0,1,.6-.1.5.5,0,0,1,0,.6,3.7,3.7,0,0,1-1.4,1.2,1.5,1.5,0,0,1-1.3.1,1.6,1.6,0,0,1-.8-1,3.3,3.3,0,0,1,0-1.4,4.4,4.4,0,0,1,.8-2.1,1.8,1.8,0,0,1,.9-.6,1.2,1.2,0,0,1,1,.5"/><path class="cls-7" d="M327.8,111.9c.1.2.1.5-.1.6s-.4.1-.6-.1.2.1.1.1h.2c.2.1.2.4.1.6s-.4.2-.6.1-.4-.4-.4-.6a.8.8,0,0,1,.2-.6.5.5,0,0,1,.5-.3.7.7,0,0,1,.6.2"/><path class="cls-7" d="M333.3,111.1c0,.2-.1.5-.3.5a.4.4,0,0,1-.5-.2c-.1-.2,0-.3,0-.4v-.6h.1c-.1,0,.1-.1.1,0h0c0,.1,0,.1-.1.2l-.3.4a3.1,3.1,0,0,0-.2.8q-.2.5,0,.6c0,.1.3.3.6.5s.4.3.5.6a1.1,1.1,0,0,1-.2,1.1,3.6,3.6,0,0,1-1.9,1.5,1.1,1.1,0,0,1-1.1-.2c-.2-.2-.2-.5,0-.6a.3.3,0,0,1,.5,0h.4l.8-.4a1.9,1.9,0,0,0,.6-.7.6.6,0,0,0,.2-.4l-.3-.2c-.2-.2-.8-.3-.9-1a1.1,1.1,0,0,1,0-.8,2.7,2.7,0,0,1,.3-1.2l.4-.5.2-.3a.4.4,0,0,1,.5-.1c.3,0,.4.2.5.4a1.4,1.4,0,0,1,.2.7.6.6,0,0,0-.1.4h0s-.1-.1,0-.1"/><path class="cls-7" d="M306.6,108.1a.4.4,0,0,1-.5.2c-.3-.1-.4-.3-.3-.5a5.1,5.1,0,0,1,1.8-2.5l1.5-.6.7-.4h.5a.5.5,0,0,1,.6.1c.2.1.2.2.2.3s0,.2,0,.3v.5a12.6,12.6,0,0,1-1.4,3.6l-1,1.7a8.3,8.3,0,0,0-.4,1.5v.7a4.7,4.7,0,0,0,0,1.2h-.1c.8-.5,1.9-2.3,2.7-4a12.6,12.6,0,0,1,1.3-2.3,5.6,5.6,0,0,1,.5-.8.5.5,0,0,1,.4-.2h.4l.3.2a2.2,2.2,0,0,1,0,1.4,16.9,16.9,0,0,1-1.3,3.6,10.3,10.3,0,0,0-.3,1.2v.3h0s-.1-.1,0-.1h.1l1.1-.6a3.3,3.3,0,0,1,1.7-.4.4.4,0,0,1,.2.6c0,.2-.3.3-.5.2l-1,.4a5.9,5.9,0,0,1-1.4.6h-.7l-.3-.3a2.1,2.1,0,0,1,0-.8,5.1,5.1,0,0,1,.4-1.4,17.4,17.4,0,0,0,1.2-3.4,5.1,5.1,0,0,0,.1-.9c-.1,0,0,.1,0,.1s.1.1.1,0h.2c-.1.1,0,.1-.1.1a1.5,1.5,0,0,0-.4.6,23.6,23.6,0,0,0-1.3,2.3,12,12,0,0,1-2.9,4.3l-.7.2-.3-.2a.4.4,0,0,1-.2-.4,5.7,5.7,0,0,1,0-1.3v-.7a6.7,6.7,0,0,1,.5-1.9l1-1.7a11.8,11.8,0,0,0,1.3-3.3v-.4h0l.2.2h-.4l-.6.3a10.7,10.7,0,0,0-1.5.7,3.4,3.4,0,0,0-1.4,2"/><path class="cls-7" d="M308.9,105.7a.4.4,0,1,1-.8.4v-.6l.4-.3.7-.2h.6a1.1,1.1,0,0,1,.7.3,1,1,0,0,1,.2.7,1.5,1.5,0,0,1-.1.7c-.3,1.5-1.4,2.8-1.8,4.1a3.2,3.2,0,0,0-.3,1.4v1.2a4.3,4.3,0,0,0,.1.5c.1.2.2.2.2.2h.2l.6-.7a4.2,4.2,0,0,0,.8-1.8.5.5,0,0,1,.5-.3c.3.1.4.3.3.5a4.5,4.5,0,0,1-1,2.1,2.7,2.7,0,0,1-.7.8.8.8,0,0,1-.8.3.9.9,0,0,1-.8-.6,2.4,2.4,0,0,1-.2-.8,6.5,6.5,0,0,1,0-1.4,4.1,4.1,0,0,1,.3-1.6c.5-1.4,1.6-2.7,1.8-4a1.1,1.1,0,0,0,.1-.5v-.2h0s0-.1-.2-.1h-.9s.1-.1.1,0h0"/><path class="cls-7" d="M310.5,109.7c.2.2.1.4,0,.6s-.5.1-.6-.1h0l-.4.6a4.2,4.2,0,0,0-.4,1.2,2,2,0,0,0-.1.7h-.1c.1,0,0-.1,0-.1h-.2c.1.1-.2,0-.2,0h-.3c.1-.1.1-.3.2-.7h0s.1.1,0,.1h.5l-.3.2H308a.4.4,0,0,1-.2-.3v-.2l.2-.3a.5.5,0,0,1,.6-.2.5.5,0,0,1,.1.6c0,.1-.1.1-.1.2H308l.6-.4h.3q.3.2.3.3c.1.2,0,.3,0,.5a2.5,2.5,0,0,0-.2.7h-.1s.1.1-.2.2l-.5-.2v-.2h0c.1-.2.1-.5.2-.8a5.8,5.8,0,0,1,.5-1.4,2.7,2.7,0,0,1,.7-.8c.1-.2.3-.2.5-.2a.5.5,0,0,1,.5.3"/><path class="cls-7" d="M2.8,1.4A.5.5,0,0,1,3,2a.5.5,0,0,1-.6.2l-.3-.3c-.1-.2,0-.4,0-.5L2.6.9,4,.3,5.5,0A1.8,1.8,0,0,1,7,.5a1.2,1.2,0,0,1,.3,1,2.9,2.9,0,0,1-.2.9A2.8,2.8,0,0,1,6,3.7l-.8.5h.1V3.9h0a.1.1,0,0,0,.1.1l.5.4A2.3,2.3,0,0,1,7,6a3,3,0,0,1-.5,1.5A6.9,6.9,0,0,1,5.2,8.6a2.5,2.5,0,0,1-1.5.3,1.2,1.2,0,0,1-1.1-1c-.1-.2,0-.4.3-.5s.4.1.5.3.2.4.4.4a1.8,1.8,0,0,0,1-.2,4.5,4.5,0,0,0,1-.9,1.4,1.4,0,0,0,.4-1,1.4,1.4,0,0,0-.7-1,1.5,1.5,0,0,1-.6-.5l-.3-.2V4a.6.6,0,0,1,.1-.4L5.5,3a3.8,3.8,0,0,0,.9-.9c0-.2.1-.5.1-.7s0-.3-.1-.3S6,.8,5.6.8a3.1,3.1,0,0,0-1.3.3L3,1.6H2.9s-.1-.2,0-.2-.1-.1-.1-.1h0"/><path class="cls-7" d="M9.9,4.4c.2.2.3.4.2.6a.5.5,0,0,1-.6.1h0a3.9,3.9,0,0,1-.2.6,4.5,4.5,0,0,0-.1,1.1,1.5,1.5,0,0,0,.4.8,2,2,0,0,0,1.1.1,3.2,3.2,0,0,0,1.5-1.2,10.6,10.6,0,0,0,1.1-2.1A2.3,2.3,0,0,0,13.4,3a1,1,0,0,0-.6-.5,2.4,2.4,0,0,0-1.5-.1A2.8,2.8,0,0,0,9,4.3a.5.5,0,0,1-.5.3c-.2-.1-.4-.3-.3-.5a3.5,3.5,0,0,1,3-2.5,3.6,3.6,0,0,1,1.8.1,1.7,1.7,0,0,1,1.2,1.1,2.8,2.8,0,0,1-.1,1.8,7.6,7.6,0,0,1-1.3,2.3,3.3,3.3,0,0,1-1.9,1.6,3.2,3.2,0,0,1-1.7-.2,2,2,0,0,1-.8-1.4,7.1,7.1,0,0,1,.1-1.4,3.6,3.6,0,0,1,.4-.9.9.9,0,0,1,.5-.3h.5"/><path class="cls-7" d="M5.5,19.5a.4.4,0,0,1-.7.3H4.5a2.1,2.1,0,0,0-.8.6,1.4,1.4,0,0,0-.4,1,1.5,1.5,0,0,0,.1.7H5.2a2.2,2.2,0,0,1,1.4.1,1.1,1.1,0,0,1,.6.7,2.8,2.8,0,0,1-.1.9,5.9,5.9,0,0,1-1.2,1.7A4.6,4.6,0,0,1,4.1,27,2.2,2.2,0,0,1,2,26.9a.4.4,0,0,1-.2-.5c.2-.2.4-.3.6-.2a1.4,1.4,0,0,0,1.4.1,5.7,5.7,0,0,0,1.5-1.2,4.1,4.1,0,0,0,1-1.4,1,1,0,0,0,.1-.4v-.2h-3c-.2-.1-.5-.2-.6-.4a2,2,0,0,1-.2-1.1,2.7,2.7,0,0,1,.6-1.6,2.8,2.8,0,0,1,1.1-.8h.7c.3.1.5.2.6.5"/><path class="cls-7" d="M3.8,21.5a.4.4,0,0,1-.4.4.4.4,0,0,1-.4-.4.7.7,0,0,1,.4-.6.6.6,0,0,1,.6-.3l1.6-.5,3.3-.6c.2-.1.5,0,.5.2a.4.4,0,0,1-.2.5,25.3,25.3,0,0,1-3.4.7l-1.5.4-.4.2c-.1.1-.1,0-.1,0"/><path class="cls-7" d="M10.9,19.3c.1-.2.4-.2.6-.1a.6.6,0,0,1,.1.6,1.6,1.6,0,0,0-.3,1.7c.2.4.6.9,1,1.5a3.5,3.5,0,0,1,.7,3,3.9,3.9,0,0,1-2.6,2.4,2.1,2.1,0,0,1-1.1-.1,4.6,4.6,0,0,1-.7-.7,1.7,1.7,0,0,1,0-1.8,4.1,4.1,0,0,1,1.3-1.7c1-1,2.3-1.9,3.4-2.8l1.4-1.5a1.3,1.3,0,0,0,.3-.7h-.2l-.9-.2a2.7,2.7,0,0,0-2.1.9c-.2.1-.5.2-.6,0s-.2-.4-.1-.6a4,4,0,0,1,2.8-1.1,2.1,2.1,0,0,1,1.2.3,1,1,0,0,1,.5.4,1.1,1.1,0,0,1,.2.6,2.1,2.1,0,0,1-.4,1,8.3,8.3,0,0,1-1.6,1.7c-1.1,1-2.4,1.9-3.3,2.8a4.7,4.7,0,0,0-1.2,1.4c-.2.5-.2.8,0,1l.4.4h.5a2.9,2.9,0,0,0,2-1.9,2.7,2.7,0,0,0-.6-2.2,10.8,10.8,0,0,1-1.1-1.8,2.7,2.7,0,0,1,.4-2.4"/><path class="cls-7" d="M7.9,18.3a.4.4,0,0,1,.2.5.5.5,0,0,1-.6.2c-.1-.1.1,0,.1,0H6.8a6.4,6.4,0,0,0-2,.3l-.6.3c-.1.1-.1.2,0,.4a.5.5,0,0,1-.3.6.5.5,0,0,1-.5-.3,1.3,1.3,0,0,1,.2-1.2,1.5,1.5,0,0,1,.9-.6,9.1,9.1,0,0,1,2.3-.3H7.9m.2.5c.2.1.2.3.1.5a.4.4,0,0,1-.5.2H3.9a.4.4,0,0,1-.5-.2c-.1-.2-.1-.4.1-.5a.7.7,0,0,1,.6-.1H6.3l.6-.2.5-.2h0c.1,0-.1.1,0,.1v.2a.4.4,0,0,1,.4-.4.4.4,0,0,1,.4.4.4.4,0,0,1-.1.3H7.8a.1.1,0,0,1-.1.1l-.5.2-.8.2H3.8s.2-.1.1,0l-.4-.7H8.1m-4.5.6a.7.7,0,0,1,.4.5c-.1.2-.3.4-.5.3s-.2.1-.4-.2,0-.3,0-.4.1-.2.2-.2h.4L5.1,19l1.7-.3h.9s-.1.1,0,.1H7.6a.6.6,0,0,1,.6,0,.6.6,0,0,1,0,.6.1.1,0,0,0-.1.1H7.6a2.1,2.1,0,0,0-.8,0l-1.6.2-1.3.3H3.8s.1-.3.1-.2-.1-.3-.1-.2H3.6"/><path class="cls-7" d="M5.6,20a.5.5,0,0,1-.5.3c-.2-.1-.4-.3-.3-.5h0c0-.1.1,0,0,0a.6.6,0,0,0-.4.2c-.3.1-.5.8-.7,1.4a6,6,0,0,0-.2,1.2.6.6,0,0,0,.2.5h.8a1.8,1.8,0,0,1,1,.2.3.3,0,0,1,.3.3c.1.2.1.3.2.4v.7a2.5,2.5,0,0,1-.8,1.8l-1.1.9a6,6,0,0,1-1.3.9,2,2,0,0,1-1.1.2L.3,28c-.1,0-.2,0-.2-.2a.6.6,0,0,1-.1-.4l.3-.2c.2-.2.4-.1.8-.1a.4.4,0,0,1,.4.4c-.1.2-.2.4-.5.4H.7c0,.1.1-.1.1,0s0-.3,0-.2v-.2H.7l1.1.3.7-.2a3.4,3.4,0,0,0,1.1-.7l1-.9a1.4,1.4,0,0,0,.6-1.2,1.3,1.3,0,0,0-.1-.6H4.5c-.3,0-.8.3-1.3,0a1.5,1.5,0,0,1-.5-1.2,3.4,3.4,0,0,1,.2-1.4,3.2,3.2,0,0,1,1-1.9A1.4,1.4,0,0,1,5,19a.5.5,0,0,1,.5.3,1.5,1.5,0,0,1,.1.7"/><path class="cls-7" d="M5.6,20c-.3,0-.4-.3-.4-.5s.3-.4.5-.3h1l1-.3H8.8a.7.7,0,0,1,.1.5.5.5,0,0,1-.2.4c-.1.2-.4.2-.6.1a.5.5,0,0,1-.1-.6h.1v.2c0-.1.2.2.1.2s.2,0,.2,0H7.9a3.5,3.5,0,0,1-1.2.3H5.6m.1-.8a.4.4,0,1,1,0,.8H5.6a.4.4,0,1,1,0-.8h.1"/><path class="cls-7" d="M3.2,255.1c-.1.3-.3.4-.5.3a.3.3,0,0,1-.3-.5c.1-.3.3-.4.5-.6l.8-.3,2-.4H7.2a1,1,0,0,1,.7.1l.4.4v.4c-.1.2-.1.5-.2.7a4.9,4.9,0,0,1-1.3,1.5,2.5,2.5,0,0,0-.4.7l.2.4a4.6,4.6,0,0,1,.7.7l.4.4a2,2,0,0,1,.4,1.3,1.9,1.9,0,0,1-.3.8l-.7.4a4.9,4.9,0,0,1-1.6.5H3.7a.4.4,0,0,1-.4-.3.5.5,0,0,1,0-.6l.4-.5a.5.5,0,0,1,.5,0,.4.4,0,0,1,0,.6l-.2.3H4s-.1-.2-.1-.1-.1-.1-.1-.1H5.3l1.4-.4.5-.3v-.2a1.6,1.6,0,0,0-.3-.9l-.3-.2-.7-.8c-.2-.3-.5-.7-.4-1.1a2.1,2.1,0,0,1,.6-1c.4-.6,1-1,1.1-1.3s.1-.4.2-.5H5.8l-1.8.4-.7.2H3.2"/><path class="cls-7" d="M9.5,261.1a.4.4,0,0,1-.4.4.5.5,0,0,1-.5-.3c0-.3.1-.3.1-.4a5.9,5.9,0,0,1,.8-1.1l1.7-2.2a4.9,4.9,0,0,1,1.3-1.2,1,1,0,0,1,.9-.2,1.2,1.2,0,0,1,.8.4c.5.8.3,1.9,0,3.1s-.6,2.2-.6,2.8-.3.4-.5.3a.4.4,0,0,1-.4-.4c.1-.7.5-1.8.7-2.9a4,4,0,0,0,.1-2.4c0-.1-.1-.1-.2-.1h-.4a5.6,5.6,0,0,0-1.1,1.1,14,14,0,0,0-1.6,2,3.3,3.3,0,0,0-.6.8c0,.1-.1.2-.1.3h0"/><path d="M208.6,26.6c-.2.1-.5.1-.6-.1s-.1-.5.1-.6a2.9,2.9,0,0,1,1.7-.3H212a41.9,41.9,0,0,1,4.7-.5,4.2,4.2,0,0,1,3.7,1.2.4.4,0,1,1-.6.6,3.3,3.3,0,0,0-3-1,44.5,44.5,0,0,0-4.7.5c-1.7.2-3.2,0-3.5.3"/><path d="M208.6,26.7a.4.4,0,0,1-.2.5.5.5,0,0,1-.6-.2h0s.2.1.1.1h.4c-.1,0,.1-.2.1-.1h0c0,.3-.1.7-.1,1.1a51.5,51.5,0,0,0-.3,5.9c-.1,2.2-.1,4.6-.1,6.9v6.2c-.1,1.6-.1,2.9-.1,3.9v3.3c0,.4-.1.7-.1,1a10.4,10.4,0,0,1-.1,1.1h.2a.4.4,0,0,1,.6.2.4.4,0,0,1-.2.5,1.5,1.5,0,0,1-.9.2c-.1-.1-.3-.2-.3-.3l-.2-.3a6.6,6.6,0,0,1,.1-1.4c0-.3.1-.6.1-.9V47.2c.1-1.7.1-3.7.1-6.2s0-4.7.1-6.9.1-4.2.2-5.9.1-.9.2-1.3,0-.2.2-.4a.6.6,0,0,1,.6-.1l.2.3"/><path d="M220,26.8c.1-.2.4-.2.6-.1s.2.4,0,.6-.9,3.4-1.1,6.2a85.4,85.4,0,0,0-.1,8.8c-.1,2.9-.4,6-.4,8.2s0,2.6,0,3.8-.1,1.2-.2,1.8a7.8,7.8,0,0,1-.1.9h-.1a.5.5,0,0,1,.5.3c0,.2-.1.5-.3.5h-.3l-.4-.2c-.2-.1-.2-.4-.2-.5s.1-.7.1-1.1.1-1.2.1-1.8,0-2.2,0-3.7.4-5.4.4-8.2-.1-5.9.2-8.9a37.4,37.4,0,0,1,.5-3.9,7.2,7.2,0,0,1,.8-2.7"/><path d="M206.7,57.8a.4.4,0,0,1,.3-.6.5.5,0,0,1,.5.3,1,1,0,0,0,.5.6l1.3.2a15.9,15.9,0,0,0,3.7-.2,29.4,29.4,0,0,1,3.7-.4,3.2,3.2,0,0,1,1.4.2,1,1,0,0,1,.7.9.4.4,0,0,1-.8,0l-.2-.2h-1.1l-3.6.4a26.6,26.6,0,0,1-3.9.3l-1.5-.4a1.9,1.9,0,0,1-1-1"/><path d="M149.9,63.5a.5.5,0,0,1,.5-.3.5.5,0,0,1,.3.6h-.1l-.9,1.1L147,68.5a13.6,13.6,0,0,0-1.2,1.7l-.6.8L144,72.9l-1.1,1.7-.5.6a6.8,6.8,0,0,0-.9,1.7l-.3.5-.4.9v.2h-.1c.1.1-.1-.1,0-.1h-.2c.1.1-.2.1-.2,0h-.1l.5-.6c.2-.2.4-.3.6-.1a.3.3,0,0,1,.1.5,3.8,3.8,0,0,1-.8.9h-.5a.8.8,0,0,1-.1-.4v-.3a5.4,5.4,0,0,1,.5-1.1l.2-.6a10.8,10.8,0,0,1,1.1-1.8l.5-.6,1-1.6,1.2-2,.6-.8a12.9,12.9,0,0,1,1.3-1.7l2.7-3.5.8-1.1h0M140.4,78c-.2.1-.4-.1-.5-.3s.1-.4.3-.5H140c.1,0,.3-.4.5-.7l3.1-4.2,1.2-1.7.9-1.3c.7-1,1.6-2,2.3-2.9l.8-1.2a.8.8,0,0,0,.2-.5,2.5,2.5,0,0,0,.4-.7l.4-.6.2-.2h.1c.1-.2.4-.1.5.1s.1.4-.1.5.1,0,.1,0h-.1l-.3.5a2.5,2.5,0,0,0-.4.7l-.3.6-.9,1.2c-.7.9-1.6,1.9-2.3,2.9l-.9,1.3-1.2,1.6-3,4.3c-.2.2-.3.6-.6.8h-.2m9.2-13.5a.4.4,0,0,1-.2-.5.5.5,0,0,1,.5-.3h-.2c.1,0-.2.1-.1.1s-.2.1-.1.1-.1.1-.1,0h0c0-.1.1,0,.1,0h.4a.1.1,0,0,0-.1.1l-.2.5a28.5,28.5,0,0,1-3.5,5.5,31.6,31.6,0,0,0-2.1,3.3l-1.4,2-.8,1-.3.4-.6.7c-.1.1-.2.2-.2.3h0c0,.3-.1.5-.3.5a.3.3,0,0,1-.5-.3v-.2c0-.1.1-.1.1-.2l.2-.4.6-.7.4-.4a8.6,8.6,0,0,0,.7-1,11.5,11.5,0,0,0,1.4-2,37.8,37.8,0,0,1,2.2-3.3,29.3,29.3,0,0,0,3.3-5.3l.3-.5c0-.1,0-.2.1-.2s0-.1.1-.2.1-.2.4-.1a.4.4,0,0,1,.4.4.6.6,0,0,1,.1.4v.3l-.2.2h-.4"/><path d="M149.8,84.8a.4.4,0,0,1-.4.4.4.4,0,0,1-.4-.4v-.9h.5c-.2.1-.5.1-.6-.1a.6.6,0,0,1,.1-.6h.5l.3.3V84a2.1,2.1,0,0,1,0,.8m-.8-3.1a.4.4,0,0,1,.4-.4.4.4,0,0,1,.4.4v2.9h0a.4.4,0,0,1-.4.4.4.4,0,0,1-.4-.4h0V81.7m.8,3a.4.4,0,0,1-.4.4.4.4,0,0,1-.4-.4V81.8h0a.4.4,0,0,1,.4-.4.4.4,0,0,1,.4.4h0v2.9m-.8-4.5a.4.4,0,0,1,.4-.4.4.4,0,0,1,.4.4v4.4h0c0,.3-.1.5-.4.5a.4.4,0,0,1-.4-.4h0V80.2m.8,4.5c.1.3-.1.5-.4.5a.4.4,0,0,1-.4-.4V80.3h0a.4.4,0,0,1,.4-.4.4.4,0,0,1,.4.4h0v4.4m-.5-6.1a.4.4,0,0,1,.8,0h0v1.2a24.5,24.5,0,0,1-.2,2.7,6.1,6.1,0,0,1-.1,1.4v.7h0a.4.4,0,0,1-.4.4.4.4,0,0,1-.4-.4h0v-.8c0-.5.1-1,.1-1.5a22.8,22.8,0,0,0,.2-2.6V78.6h0m.8.1c0,.3-.1.4-.4.5a.5.5,0,0,1-.4-.5h0a.4.4,0,0,1,.4-.4.4.4,0,0,1,.4.4h0"/><path d="M149.8,21.5a.4.4,0,1,1,.8,0V63.2a.4.4,0,1,1-.8,0Z"/><path d="M213.1,5.7a.5.5,0,0,1,.5-.4.4.4,0,0,1,.4.4l-.7,123.8a.4.4,0,0,1-.4.4.4.4,0,0,1-.4-.4Z"/></g></svg>