<svg xmlns="http://www.w3.org/2000/svg" xmlns:xlink="http://www.w3.org/1999/xlink" viewBox="0 0 326.8 225"><defs><style>.cls-1{fill:none;}.cls-2{isolation:isolate;}.cls-3{opacity:0;}.cls-4{clip-path:url(#clip-path);}.cls-5,.cls-6,.cls-8{fill:#ed3624;}.cls-5,.cls-6{mix-blend-mode:darken;}.cls-5{opacity:0.42;}.cls-6{opacity:0.42;}.cls-7{fill:#1749b3;}.cls-9{fill:#00733b;}</style><clipPath id="clip-path"><rect class="cls-1" x="-58.1" y="-27.6" width="419.5" height="297.64"/></clipPath></defs><g class="cls-2"><g id="Ebene_1" data-name="Ebene 1"><g class="cls-3"><path d="M84.3,15.8v-.9h.9v.9Zm0,5.7V16.7h.9v4.8Z"/></g><g class="cls-3"><path d="M132.8,35.3V17.9h2.5V35.3Z"/></g><g class="cls-3"><path d="M233.3,17.7V16.1a3.2,3.2,0,0,1-2.9,1.8,2.9,2.9,0,0,1-2.4-1.2,4.5,4.5,0,0,1-.9-3,5.7,5.7,0,0,1,1-3.4A3.2,3.2,0,0,1,230.8,9a3.4,3.4,0,0,1,2.5,1.1V5.3h1.5V17.7Zm0-6.5a3.7,3.7,0,0,0-2.3-1.1c-1.5,0-2.2,1.2-2.2,3.4s.6,3,2,3a3.6,3.6,0,0,0,2.5-1.4Z"/><path d="M243.8,17.4a9.8,9.8,0,0,1-2.6.5,3.9,3.9,0,0,1-3.1-1.3,4.4,4.4,0,0,1-1.2-3.2,4.8,4.8,0,0,1,1.1-3.2A3.4,3.4,0,0,1,240.7,9a2.5,2.5,0,0,1,2.3,1.1,4.6,4.6,0,0,1,.9,3.1v.5h-5.4q.3,3,3,3a8,8,0,0,0,2.3-.5Zm-5.2-4.9h3.7c0-1.6-.6-2.4-1.7-2.4S238.7,10.9,238.6,12.5Z"/><path d="M246.2,17.7V9.2h1.6v1.6a3.5,3.5,0,0,1,3-1.8,2.1,2.1,0,0,1,1.7.7,2.4,2.4,0,0,1,.7,1.9v6.1h-1.5V12.1a2.4,2.4,0,0,0-.3-1.4,1,1,0,0,0-.9-.4,3.3,3.3,0,0,0-2.7,1.9v5.5Z"/></g><g class="cls-3"><path d="M255.7,12v-.9l4-4.6h-3.8V5.6h5.2v.9l-4,4.6h4.1V12Z"/><path d="M267,12V10.8a2.5,2.5,0,0,1-2.2,1.3,1.4,1.4,0,0,1-1.3-.5,1.6,1.6,0,0,1-.5-1.4V5.6h1.1V9.8a2.2,2.2,0,0,0,.2,1,.9.9,0,0,0,.7.3c.8,0,1.4-.4,2-1.4V5.6h1.2V12Z"/><path d="M272.2,12.1l-1.9-.3V10.7a4.1,4.1,0,0,0,2,.6,1.1,1.1,0,0,0,.8-.3.9.9,0,0,0,.3-.7c0-.4-.3-.7-.9-1l-.7-.2q-1.5-.7-1.5-1.8a1.8,1.8,0,0,1,.6-1.4,2.5,2.5,0,0,1,1.6-.4h1.6v.9l-1.5-.3c-.8,0-1.2.3-1.2.8s.3.7.9.9l.5.3a3,3,0,0,1,1.4.8,2.1,2.1,0,0,1,.4,1.1,1.6,1.6,0,0,1-.7,1.4A2.3,2.3,0,0,1,272.2,12.1Z"/><path d="M278.5,12.1a1.5,1.5,0,0,1-1.3-.5,1.6,1.6,0,0,1-.5-1.4V6.5h-.8V5.6h.8V4.5l1.1-.2V5.6h1.7v.9h-1.7V10c0,.9.4,1.3,1.1,1.3h.6V12Z"/><path d="M284.4,11.2a3,3,0,0,1-2,.9,1.5,1.5,0,0,1-1.3-.5,1.7,1.7,0,0,1-.5-1.2,1.8,1.8,0,0,1,.9-1.6,4.2,4.2,0,0,1,2.5-.6h.2V7.4a1,1,0,0,0-1.1-1.1,4.1,4.1,0,0,0-2,.6v-1a6,6,0,0,1,2.2-.4,2.4,2.4,0,0,1,1.6.4,2.5,2.5,0,0,1,.5,1.5v2.9c0,.7.2,1,.6,1h.2V12h-.8C284.9,12.1,284.6,11.8,284.4,11.2Zm-.2-.6V8.9h-.3a2.5,2.5,0,0,0-1.6.4,1,1,0,0,0-.6.9.9.9,0,0,0,.3.7,1.1,1.1,0,0,0,.7.3A2.4,2.4,0,0,0,284.2,10.6Z"/><path d="M287.8,12V5.6h1.1V6.8a2.7,2.7,0,0,1,2.3-1.3,1.5,1.5,0,0,1,1.3.5,2,2,0,0,1,.5,1.4V12h-1.2V7.8c0-.5,0-.8-.2-1s-.3-.3-.7-.3-1.3.4-2,1.4V12Z"/><path d="M299.3,12V10.8a2.1,2.1,0,0,1-2.1,1.3,1.9,1.9,0,0,1-1.8-.8,3.9,3.9,0,0,1-.7-2.3,4.2,4.2,0,0,1,.8-2.6,2.4,2.4,0,0,1,2-.9,2.5,2.5,0,0,1,1.8.8V2.7h1.2V12Zm0-4.9a2.7,2.7,0,0,0-1.7-.8c-1.1,0-1.6.9-1.6,2.6s.5,2.2,1.5,2.2a2.4,2.4,0,0,0,1.8-1Z"/></g><g class="cls-3"><path d="M54.2,86.9v-13h3.9a4.8,4.8,0,0,1,2.9.8,3,3,0,0,1,1,2.4,3.7,3.7,0,0,1-2.6,3.7l4.3,6.1H61.4l-3.7-5.5H56v5.5ZM56,80h.6c2.3,0,3.5-.9,3.5-2.7s-1-2-2.9-2H56Z"/><path d="M65.2,75.6V73.9h1.7v1.7Zm0,11.3V77.4h1.7v9.5Z"/></g><g class="cls-3"><path d="M82,84.5V76h1.5v1.6a3.5,3.5,0,0,1,3-1.8,2.4,2.4,0,0,1,1.8.7,2.9,2.9,0,0,1,.6,1.9v6.1H87.4V78.9a2.6,2.6,0,0,0-.3-1.4,1.3,1.3,0,0,0-.9-.4c-1,0-1.8.6-2.7,1.9v5.5Z"/><path d="M91.6,74.4V72.9h1.6v1.5Zm0,10.1V76h1.6v8.5Z"/></g><g class="cls-3"><path d="M196.9,136.9l.3-1.6a7.1,7.1,0,0,0,3.1.8c2.1,0,3.1-1.1,3.1-3.3v-1.6a3.5,3.5,0,0,1-3.3,2.1,3.4,3.4,0,0,1-2.9-1.3,5.7,5.7,0,0,1-1.1-3.6,5.5,5.5,0,0,1,1.2-3.7,3.9,3.9,0,0,1,3.2-1.5,3.8,3.8,0,0,1,2.9,1.4v-1.2h1.8v7.4a26.1,26.1,0,0,1-.2,3.5,4.8,4.8,0,0,1-.9,1.9,5.3,5.3,0,0,1-3.8,1.3A9.7,9.7,0,0,1,196.9,136.9Zm6.5-6.8v-4.2a3.5,3.5,0,0,0-2.6-1.3,2.2,2.2,0,0,0-2,1,4.7,4.7,0,0,0-.7,2.8c0,2.2.7,3.3,2.3,3.3A3.8,3.8,0,0,0,203.4,130.1Z"/><path d="M208.4,136.9l.2-1.6a7.5,7.5,0,0,0,3.1.8c2.1,0,3.1-1.1,3.1-3.3v-1.6a3.4,3.4,0,0,1-3.3,2.1,3.5,3.5,0,0,1-2.9-1.3,5.7,5.7,0,0,1-1.1-3.6,5.5,5.5,0,0,1,1.3-3.7,3.7,3.7,0,0,1,3.1-1.5,3.7,3.7,0,0,1,2.9,1.4v-1.2h1.9v7.4a14.4,14.4,0,0,1-.3,3.5,3.1,3.1,0,0,1-.9,1.9,5,5,0,0,1-3.7,1.3A9.7,9.7,0,0,1,208.4,136.9Zm6.4-6.8v-4.2a3.3,3.3,0,0,0-2.6-1.3,2.3,2.3,0,0,0-2,1,4.7,4.7,0,0,0-.7,2.8c0,2.2.8,3.3,2.3,3.3A3.8,3.8,0,0,0,214.8,130.1Z"/></g><g class="cls-3"><path d="M251.4,103.1V93h1.3v6.5l2.9-3.3h1.3l-2.8,3.2,3.4,3.7h-1.6l-3.2-3.6v3.6Z"/></g><g class="cls-3"><path d="M284.8,108.2l.2-1.2a5.4,5.4,0,0,0,2.5.6c1.6,0,2.4-.9,2.4-2.6v-1.3a2.7,2.7,0,0,1-2.6,1.7,3.1,3.1,0,0,1-2.3-1,4.9,4.9,0,0,1,.1-5.8,3.2,3.2,0,0,1,2.5-1.2,3,3,0,0,1,2.3,1.1v-.9h1.5v5.8a17,17,0,0,1-.2,2.8,3.6,3.6,0,0,1-.8,1.5,4,4,0,0,1-2.9,1A8.6,8.6,0,0,1,284.8,108.2Zm5.1-5.4V99.5a2.6,2.6,0,0,0-2.1-1,1.8,1.8,0,0,0-1.5.8,3.6,3.6,0,0,0-.6,2.2c0,1.8.6,2.6,1.8,2.6A3,3,0,0,0,289.9,102.8Z"/></g><g class="cls-3"><path d="M308,102.4V90h2.4l3.4,9.6,3.5-9.6h2.2v12.4h-1.7V92.3l-3.4,9.2h-1.6l-3.3-9.2v10.1Z"/><path d="M325.8,102.6a4.2,4.2,0,0,1-3.1-1.3,4.9,4.9,0,0,1-1.1-3.5,4.7,4.7,0,0,1,1.1-3.4,3.9,3.9,0,0,1,3.2-1.3,3.9,3.9,0,0,1,3.1,1.3,4.7,4.7,0,0,1,1.2,3.4,4.8,4.8,0,0,1-1.2,3.5A4.3,4.3,0,0,1,325.8,102.6Zm0-1.3c1.8,0,2.6-1.1,2.6-3.5s-.8-3.5-2.5-3.5-2.6,1.2-2.6,3.5S324.2,101.3,325.8,101.3Z"/></g><g class="cls-3"><path d="M269.8,172.8,266,162.6h1.4l3.1,8.3,3.1-8.3h1.2l-3.6,10.2Z"/></g><g class="cls-3"><path d="M1.5,220.5v-9.4H4.4a3,3,0,0,1,2,.6,2.1,2.1,0,0,1,.8,1.7,2.8,2.8,0,0,1-2,2.7l3.2,4.4H6.8l-2.7-4H2.8v4Zm1.3-5h.5c1.6,0,2.5-.6,2.5-1.9s-.7-1.5-2.1-1.5H2.8Z"/><path d="M14.6,220.3a6.9,6.9,0,0,1-2.2.4,3.7,3.7,0,0,1-2.5-1A4,4,0,0,1,9,217a3.4,3.4,0,0,1,.8-2.5,2.7,2.7,0,0,1,2.2-1,2.1,2.1,0,0,1,1.9.8,4,4,0,0,1,.7,2.6v.4H10.2c.2,1.6,1,2.4,2.5,2.4a5.4,5.4,0,0,0,1.9-.4Zm-4.3-4h3c0-1.3-.4-1.9-1.4-1.9S10.4,215,10.3,216.3Z"/><path d="M16.7,212.4v-1.3H18v1.3Zm0,8.1v-6.9H18v6.9Z"/><path d="M20.4,220.5v-10h1.3v4.4a2.6,2.6,0,0,1,2.4-1.4,1.6,1.6,0,0,1,1.4.5,2.1,2.1,0,0,1,.6,1.6v4.9H24.8V216a2.7,2.7,0,0,0-.2-1.1,1,1,0,0,0-.8-.4,2.6,2.6,0,0,0-2.1,1.6v4.4Z"/><path d="M33.5,220.3a6.9,6.9,0,0,1-2.2.4,3.7,3.7,0,0,1-2.5-1,4,4,0,0,1-.9-2.7,3.9,3.9,0,0,1,.8-2.5,2.7,2.7,0,0,1,2.2-1,2.1,2.1,0,0,1,1.9.8,4,4,0,0,1,.7,2.6v.4H29.2q.2,2.4,2.4,2.4a5.4,5.4,0,0,0,1.9-.4Zm-4.3-4h3.1c0-1.3-.5-1.9-1.5-1.9S29.3,215,29.2,216.3Z"/><path d="M35.6,220.5v-6.9h1.3v1.3a2.6,2.6,0,0,1,2.4-1.4,1.6,1.6,0,0,1,1.4.5,2.1,2.1,0,0,1,.6,1.6v4.9H40V216a2.7,2.7,0,0,0-.2-1.1,1,1,0,0,0-.8-.4c-.7,0-1.4.5-2.1,1.6v4.4Z"/><path d="M45.5,220.7a5.9,5.9,0,0,1-2.1-.4v-1.2a4.8,4.8,0,0,0,2.1.6l.9-.2a.9.9,0,0,0,.4-.8c0-.4-.4-.8-1-1l-.8-.4a2.2,2.2,0,0,1-1.6-1.9,1.5,1.5,0,0,1,.7-1.4,2.3,2.3,0,0,1,1.7-.5h1.7v1l-1.7-.3q-1.2,0-1.2.9t.9.9l.7.3a5.6,5.6,0,0,1,1.4.9,1.6,1.6,0,0,1,.4,1.2,1.8,1.8,0,0,1-.7,1.5A2.8,2.8,0,0,1,45.5,220.7Z"/><path d="M52.9,220.7a3,3,0,0,1-2.3-1.1,4.2,4.2,0,0,1,0-5.2,3.3,3.3,0,0,1,2.5-.9,5.5,5.5,0,0,1,1.8.2v1l-1.7-.3a2.1,2.1,0,0,0-1.5.7,3.2,3.2,0,0,0-.6,2,3.1,3.1,0,0,0,.6,1.9,2.2,2.2,0,0,0,1.6.7,4.1,4.1,0,0,0,1.7-.5v1.1A5.9,5.9,0,0,1,52.9,220.7Z"/><path d="M56.8,220.5v-10h1.3v4.4a2.8,2.8,0,0,1,2.4-1.4,2,2,0,0,1,1.5.5,2.5,2.5,0,0,1,.5,1.6v4.9H61.2V216c0-.5,0-.9-.2-1.1a.8.8,0,0,0-.7-.4c-.8,0-1.5.5-2.2,1.6v4.4Z"/><path d="M68.4,219.6a3.3,3.3,0,0,1-2.2,1.1,2,2,0,0,1-1.4-.6,1.5,1.5,0,0,1-.5-1.3,2.1,2.1,0,0,1,.9-1.8,4.9,4.9,0,0,1,2.7-.6h.3v-.8a1.1,1.1,0,0,0-1.2-1.2,4.9,4.9,0,0,0-2.2.6v-1a5.7,5.7,0,0,1,2.4-.5c.8,0,1.4.1,1.7.5a2,2,0,0,1,.6,1.6v3.1c0,.8.2,1.1.6,1.1h.3v.7l-1,.2C69,220.7,68.6,220.3,68.4,219.6Zm-.2-.6v-1.8h-.4a3.1,3.1,0,0,0-1.7.4,1.1,1.1,0,0,0-.6,1,1.2,1.2,0,0,0,1.1,1.1A2.8,2.8,0,0,0,68.2,219Z"/><path d="M72,220.5v-10h1.2v10Z"/><path d="M77.8,220.7a2.1,2.1,0,0,1-2.1-2.1v-4h-.8v-1h.8v-1.2l1.3-.2v1.4h1.8v1H77v3.8c0,.9.4,1.3,1.2,1.3h.6v.8Z"/><path d="M84.8,220.5v-1.3a2.7,2.7,0,0,1-2.4,1.5,1.7,1.7,0,0,1-1.4-.6,2,2,0,0,1-.6-1.5v-5h1.3v4.6a2.7,2.7,0,0,0,.2,1.1,1,1,0,0,0,.8.3,2.7,2.7,0,0,0,2.1-1.5v-4.5h1.3v6.9Z"/><path d="M88.5,220.5v-6.9h1.3v1.3a2.6,2.6,0,0,1,2.4-1.4,1.6,1.6,0,0,1,1.4.5,2.1,2.1,0,0,1,.6,1.6v4.9H92.9V216a2.7,2.7,0,0,0-.2-1.1,1,1,0,0,0-.8-.4c-.7,0-1.4.5-2.1,1.6v4.4Z"/><path d="M96.6,222.8v-1.1a4.6,4.6,0,0,0,2.2.6c1.4,0,2.1-.8,2.1-2.3v-1.1a2.4,2.4,0,0,1-2.3,1.5,2.5,2.5,0,0,1-2-.9,4.5,4.5,0,0,1,.1-5,2.7,2.7,0,0,1,2.2-1,2.7,2.7,0,0,1,2,.9v-.8h1.2v5a14.9,14.9,0,0,1-.1,2.4,2.3,2.3,0,0,1-.7,1.3,3.2,3.2,0,0,1-2.5.9A5.9,5.9,0,0,1,96.6,222.8Zm4.4-4.7v-2.8a2.6,2.6,0,0,0-1.8-.9,1.5,1.5,0,0,0-1.4.7,3.6,3.6,0,0,0-.5,1.9c0,1.5.6,2.3,1.6,2.3A2.7,2.7,0,0,0,101,218.1Z"/></g><g class="cls-4"><path class="cls-5" d="M39,128.4a1.4,1.4,0,0,1,1.3-1.4,1.4,1.4,0,0,1,1.4,1.4v40.4a1.3,1.3,0,0,1-1.4,1.3,1.3,1.3,0,0,1-1.3-1.3Z"/><path class="cls-5" d="M40.3,170.1a1.3,1.3,0,0,1-1.3-1.3,1.3,1.3,0,0,1,1.3-1.4H171a1.3,1.3,0,0,1,1.3,1.4,1.3,1.3,0,0,1-1.3,1.3Z"/><path class="cls-5" d="M174.1,137.1a1.4,1.4,0,0,1,1.4-1.4,1.3,1.3,0,0,1,1.3,1.4V164a1.3,1.3,0,0,1-1.3,1.3,1.3,1.3,0,0,1-1.4-1.3Z"/><path class="cls-5" d="M174.1,73.7a1.3,1.3,0,0,1,1.4-1.3,1.3,1.3,0,0,1,1.3,1.3v31.7a1.3,1.3,0,0,1-1.3,1.4,1.4,1.4,0,0,1-1.4-1.4Z"/><path class="cls-6" d="M176,32.9a1.3,1.3,0,0,1-2.6-.7c0-.2.1-.5.6-.8a1.5,1.5,0,0,1,1.6,0c.4.4.4.5.4.6a1.4,1.4,0,0,1,.2.6,18.6,18.6,0,0,1,.1,4.1V43c.1.1-.2-.4-.1-.3l-.3-.2c.1.1-.8-.3-.6-.3s-.8.2-.6.1-.5.4-.5.3-.1.2-.1.2a1.4,1.4,0,0,1,1.9-.5,1.4,1.4,0,0,1,.4,1.9,1.1,1.1,0,0,1-1.4.7,1.2,1.2,0,0,1-1.2-1,2,2,0,0,1-.2-1V36.7a17.1,17.1,0,0,0-.1-3.5h.1s.1.2.1.1l.2.2c-.1,0,.3.3.2.2s.9.2.6.2l.8-.3.3-.2c-.1.1.2-.4.2-.4s0-.2,0-.1"/><path class="cls-5" d="M40.6,27.6a1.4,1.4,0,0,1-1.4-1.4,1.4,1.4,0,0,1,1.4-1.3H172.1a1.4,1.4,0,0,1,1.4,1.3,1.4,1.4,0,0,1-1.4,1.4Z"/><path class="cls-5" d="M39.2,26.2a1.4,1.4,0,0,1,1.4-1.3A1.3,1.3,0,0,1,42,26.2V57.9a1.4,1.4,0,0,1-1.4,1.4,1.4,1.4,0,0,1-1.4-1.4Z"/><path class="cls-6" d="M40.9,121.6a1.4,1.4,0,0,1-2-.2,1.3,1.3,0,0,1,.2-1.9c.4-.4.2-.1.2-.1l.3-.3a1.3,1.3,0,0,1,1.9.2,1.4,1.4,0,0,1-.1,1.9l-.7.5h.2m.4-.3a1.4,1.4,0,0,1-1.6,1.1,1.5,1.5,0,0,1-1.1-1.6h0v0a1.4,1.4,0,1,1,2.7-.5v.3a1.1,1.1,0,0,1,0,.6h0m-.3-30a1.4,1.4,0,0,1-1.6,1.2A1.3,1.3,0,0,1,38.3,91v-.2H41v1.4a10.9,10.9,0,0,0,.1,1.7c0,.9.1,2,.1,3.3s.1,2.5.1,3.6v1.9c0,1-.1,2-.1,2.9-.2,3-.2,5.3-.2,7.1a23.6,23.6,0,0,1,.1,2.5c0,.6.1,1.2.1,1.8v2.7a2.5,2.5,0,0,0,.1.8v.4h0c0,.1-.1-.3,0-.1a1.3,1.3,0,0,1-1,1.6,1.4,1.4,0,0,1-1.7-.9v-.7a3.1,3.1,0,0,1-.1-1V117c0-.6-.1-1.1-.1-1.7a20.9,20.9,0,0,1-.1-2.6c0-1.9,0-4.3.1-7.3a27.2,27.2,0,0,0,.1-2.8,12.1,12.1,0,0,0,0-1.9,20.5,20.5,0,0,0,0-3.5,28.8,28.8,0,0,0-.2-3.2V90.8a1.4,1.4,0,0,1,2.7-.1v.6"/></g><g class="cls-4"><path d="M32.5,57.9a.4.4,0,0,1,.8,0V89.6a.4.4,0,0,1-.8,0Z"/><path d="M32.9,58.3a.4.4,0,0,1,0-.8H48.7a.4.4,0,1,1,0,.8Z"/><path d="M48.3,57.9a.4.4,0,0,1,.4-.4.5.5,0,0,1,.5.4V89.6a.5.5,0,0,1-.5.4.4.4,0,0,1-.4-.4Z"/><path d="M32.9,90a.4.4,0,0,1,0-.8H48.7a.4.4,0,1,1,0,.8Z"/><path d="M26.7,121.7a.4.4,0,0,1-.4-.4.5.5,0,0,1,.4-.5H55.2a.5.5,0,0,1,.4.5.4.4,0,0,1-.4.4Z"/><path d="M32.9,128.7a.4.4,0,0,1-.4-.4.5.5,0,0,1,.4-.5H48.7a.5.5,0,0,1,.5.5.5.5,0,0,1-.5.4Z"/><path d="M39.5,89.6a.4.4,0,0,1,.4-.4.4.4,0,0,1,.4.4v31.7a.4.4,0,0,1-.4.4.4.4,0,0,1-.4-.4Z"/><path d="M39.9,128.4a.4.4,0,0,1,.4-.4.4.4,0,0,1,.4.4v40.4a.4.4,0,0,1-.4.4.4.4,0,0,1-.4-.4Z"/><path d="M41.3,57.9a.4.4,0,0,1-.8,0V26.2a.4.4,0,1,1,.8,0Z"/><path d="M175.1,31a.4.4,0,0,1,.4-.4.4.4,0,0,1,.4.4V42.1a.4.4,0,0,1-.4.4.4.4,0,0,1-.4-.4Z"/><path d="M175.1,42.2c-.1-.2,0-.5.2-.5a.5.5,0,0,1,.6.2l11.3,31.7a.5.5,0,0,1-.3.5.4.4,0,0,1-.5-.2Z"/><path d="M175.1,73.7a.4.4,0,0,1,.4-.4.4.4,0,0,1,.4.4v31.7a.4.4,0,0,1-.4.4.4.4,0,0,1-.4-.4Z"/><path d="M190.6,120.6a15.4,15.4,0,0,0-2-7.4,15,15,0,0,0-12.8-7.4,15.8,15.8,0,0,0-7.5,2,15.1,15.1,0,0,0-7.3,12.8,14.8,14.8,0,0,0,2,7.5,15,15,0,0,0,12.8,7.3,14.1,14.1,0,0,0,7.4-2,14.8,14.8,0,0,0,7.4-12.8m.8,0a15.6,15.6,0,0,1-7.7,13.5,16.3,16.3,0,0,1-7.9,2.1,15.6,15.6,0,0,1-13.5-7.7,16,16,0,0,1-2.1-7.9,15.7,15.7,0,0,1,7.7-13.5,16,16,0,0,1,7.9-2.1,15.6,15.6,0,0,1,15.6,15.6"/><path d="M175.1,137.1a.4.4,0,0,1,.4-.4.4.4,0,0,1,.4.4V164a.4.4,0,0,1-.4.4.4.4,0,0,1-.4-.4Z"/><path d="M40.3,169.2a.4.4,0,0,1,0-.8H171a.4.4,0,0,1,0,.8Z"/><path d="M165.6,131.9a.4.4,0,0,1-.6,0,.6.6,0,0,1,0-.6l21.4-21.6a.3.3,0,0,1,.5,0c.2.1.2.4,0,.6Z"/><path d="M164.5,110.4a.6.6,0,0,1,0-.6h.6l21,21.9c.2.2.2.5,0,.6a.4.4,0,0,1-.6,0Z"/><path d="M197.6,44.1a.5.5,0,0,1-.4.5c-.2,0-.4-.1-.4-.3s0-.2-.1-.2.1.1.1,0,0,.1,0,.1h.6c-.1.1.1-.1,0-.1h.1c-.1,0-.1.3-.1.6s-.2,2.1-.3,3.5-.3,2.3-.4,3.4a13.4,13.4,0,0,0,0,3.6h-.1l.7-.8c.1-.2.4-.2.6,0a.3.3,0,0,1,.1.5c-.5.5-.8.9-1.2,1a.5.5,0,0,1-.6-.1.5.5,0,0,1-.3-.5,3.5,3.5,0,0,1-.1-1.5,20.9,20.9,0,0,1,.1-2.4c.1-1.1.3-2.3.4-3.4s.2-2.6.3-3.4a2.2,2.2,0,0,1,.1-.9s0-.2.3-.3h.4v.2c0,.1.1.2.1.3"/><path d="M196.6,43.7c.2-.2.4-.3.6-.1a.3.3,0,0,1,.1.5h0c-.1.2,0,2.8-.1,5.2s-.2,2.6-.3,3.6-.1.9-.1,1.3a4.3,4.3,0,0,1-.1.5v1a.4.4,0,0,1-.8,0,2.8,2.8,0,0,1,.2-1.4.6.6,0,0,1,.6-.1c.2.1.2.4.1.6a2.5,2.5,0,0,0-.1.9h-.8v-1a1.3,1.3,0,0,1,.1-.6c0-.4.1-.8.1-1.2s.2-2.4.3-3.7.1-2.4.1-3.4V44.5c0-.3-.1-.5.1-.8m.7,1.3a.5.5,0,0,1-.6.1c-.2-.1-.2-.4-.1-.6h-.1c.1,0,0,.1,0,.1h0V44h0a.5.5,0,0,1,.4-.5.5.5,0,0,1,.5.4h0v.4a.4.4,0,0,1-.1.3h0"/><path d="M200,44.8c-.1-.2,0-.4.3-.5a.5.5,0,0,1,.5.3h0v.2a11.8,11.8,0,0,1-.1,1.6c0,.8-.1,1.6-.2,2.7s-.5,4.6-.6,6.3-.1.7-.1.9h0c0,.1-.1-.1-.1-.1h-.5l.6-1.3c0-.2.3-.3.5-.2a.4.4,0,0,1,.2.6l-.4,1a.9.9,0,0,1-.4.5.5.5,0,0,1-.5,0c-.2-.1-.2-.2-.2-.3v-.3a3.4,3.4,0,0,1,.1-.9c.1-1.7.3-4.2.5-6.3s.3-1.9.3-2.7a10.6,10.6,0,0,0,.1-1.5h0m.8.4a.4.4,0,0,1-.8,0v-.5s-.1,0,0-.1.3-.3.5-.3a.5.5,0,0,1,.3.5h0v.4"/><path d="M193.5,52.7a.3.3,0,0,1-.1.5c-.2.2-.4.1-.6-.1l-.2-.3v-.3c0-.1.1-.2.2-.3s.4,0,.5,0l.3.2a2.3,2.3,0,0,1,.8,1.1c1,1.8,1.7,4.7,2.6,6.8a4.6,4.6,0,0,0,1,1.7c0,.1-.1,0-.1,0h.3l.8-1.4,1-2.2,1.8-3.9a8.8,8.8,0,0,1,.7-1.4c.1,0,.1-.2.3-.2s.4,0,.4.1l.2.2v.6a.5.5,0,0,1-.5.4.4.4,0,0,1-.4-.4.8.8,0,0,0,.1-.3h0c0-.1.2.1.2.1h.2c-.1,0,.1-.1.1,0h.1l-.6,1.2c-.6,1.1-1.3,2.6-1.9,3.9l-1,2.3a9.9,9.9,0,0,1-.9,1.5c-.2.2-.4.4-.6.4a.8.8,0,0,1-.8-.2,5.3,5.3,0,0,1-1.1-2c-1-2.1-1.7-5-2.6-6.7l-.6-.9h0s.2-.1.1-.1.2-.1.2-.1,0-.1,0-.1h.1"/><path d="M179.2,168.6a3.4,3.4,0,0,0-.5-1.7,3.3,3.3,0,0,0-2.9-1.7,3.4,3.4,0,0,0-3.3,3.4,3.3,3.3,0,0,0,.4,1.7,3.4,3.4,0,0,0,2.9,1.7,3.4,3.4,0,0,0,1.7-.5,3.4,3.4,0,0,0,1.7-2.9m.8,0a4.1,4.1,0,0,1-2.1,3.6,3.7,3.7,0,0,1-2.1.6,4.1,4.1,0,0,1-3.6-2.1,3.7,3.7,0,0,1-.6-2.1,4.3,4.3,0,0,1,2.1-3.6,3.9,3.9,0,0,1,2.1-.6,4.2,4.2,0,0,1,3.6,2.1,3.7,3.7,0,0,1,.6,2.1"/><path d="M175.7,25.9c0,.2-.3.3-.5.3a.4.4,0,0,1-.2-.6c.1-.3.1-.6.2-.8v-.2h0a.4.4,0,0,1-.2-.5c.1-.3.3-.4.5-.3a.7.7,0,0,1,.4.5.7.7,0,0,1,.1.5,2.2,2.2,0,0,1-.3,1"/><path d="M178.8,26.6a3.7,3.7,0,0,0-.4-1.5,3.2,3.2,0,0,0-2.8-1.6,2.6,2.6,0,0,0-1.5.4,3.2,3.2,0,0,0-1.6,2.7,3.8,3.8,0,0,0,.4,1.6,3.2,3.2,0,0,0,2.7,1.6,3.8,3.8,0,0,0,1.6-.4,3.2,3.2,0,0,0,1.6-2.8m.8,0a4.2,4.2,0,0,1-1.9,3.5,4.6,4.6,0,0,1-2.1.5,4,4,0,0,1-3.4-2,3.9,3.9,0,0,1-.5-2,4.1,4.1,0,0,1,1.9-3.4,4.6,4.6,0,0,1,2-.5,4.2,4.2,0,0,1,3.5,1.9,4.6,4.6,0,0,1,.5,2"/><path d="M40.6,26.6a.4.4,0,0,1,0-.8H172.1a.4.4,0,0,1,0,.8Z"/><path d="M179.6,169a.5.5,0,0,1-.4-.5.4.4,0,0,1,.4-.4H302.2a.4.4,0,0,1,.4.4.5.5,0,0,1-.4.5Z"/><path d="M179.8,27.9c.1.2.1.5-.1.6a.5.5,0,0,1-.6-.2c-.1-.2,0-.4,0-.5s.1-.2.1-.4a.4.4,0,0,1,.5-.3c.2,0,.3.2.3.5s-.1.3-.1.4h0c0,.1-.1-.1-.1-.1"/><path d="M179.2,26.8a.4.4,0,0,1-.4-.4.4.4,0,0,1,.4-.4h123a.4.4,0,0,1,.4.4.4.4,0,0,1-.4.4Z"/><path d="M238.4,29.6a.4.4,0,0,1,.4-.4.4.4,0,0,1,.4.4V164.1c0,.3-.1.4-.4.4a.4.4,0,0,1-.4-.4Z"/><path d="M236.8,162.6a.4.4,0,0,1-.5-.2c-.1-.2,0-.5.2-.5h-.2v-.5h0v-.2a.4.4,0,0,1,.5-.2.5.5,0,0,1,.2.6v-.2h.1c0,.1.1.2.1.4l1,2.6a11.6,11.6,0,0,0,.6,1.5l.2.3h-.5v-.3a2,2,0,0,0,.2-.9c.3-1.1.7-2.1,1-3.1a21.7,21.7,0,0,1,1-2.1.5.5,0,0,1,.6-.2c.2.1.2.4.1.6l-.9,2a26.4,26.4,0,0,0-1,3,1.7,1.7,0,0,1-.3,1c0,.2-.1.3-.1.4l-.2.2h-.5c-.3-.2-.3-.4-.4-.6l-.7-1.6a21.3,21.3,0,0,1-.9-2.7l-.2-.3v-.2a.8.8,0,0,1,.1-.4l.7.4v-.2h0a.4.4,0,0,1,.1.3v.3h0v.2l-.3.2"/><path d="M270.1,30.3a.4.4,0,1,1,.8,0V168.7a.4.4,0,0,1-.8,0Z"/><path d="M267.5,163.2a.4.4,0,0,1-.1-.6.5.5,0,0,1,.6,0c.1,0,0,0,0,.1h.1l.3.4,1.6,2.7.7,1.2.2.3h.2l.2-1.2c.2-1.8.2-3.7,1.6-5.4a.4.4,0,1,1,.7.5c-1.2,1.5-1.2,3.2-1.5,5s0,1.3-.5,1.7a.7.7,0,0,1-.6.3l-.6-.3c-.2-.1-.3-.3-.4-.4s-.5-.8-.7-1.3l-1.6-2.6-.3-.4h.1m.6-.4c.1.2.1.4-.1.5a.4.4,0,0,1-.6-.1h0c-.1,0-.1.1-.1-.2a.4.4,0,0,1,.8,0h0"/><path d="M175.5,74.1c-.3,0-.4-.1-.4-.4a.4.4,0,0,1,.4-.4h11.3a.4.4,0,0,1,.4.4.4.4,0,0,1-.4.4Z"/><path d="M1.2,16a.4.4,0,0,1-.4-.4.5.5,0,0,1,.4-.5H28a.5.5,0,0,1,.4.5.4.4,0,0,1-.4.4Z"/><path d="M38,15.5c-.1.2-.4.3-.5.1a.4.4,0,0,1-.2-.5h0s.1.3,0,.2h.2v-.2h0c.3.1.3.3.2.5a.4.4,0,0,1-.5.2l-.3-.2c-.1,0-.2-.2-.2-.4s.3-.3.4-.4h.7l.2.2a.4.4,0,0,1,0,.5"/><path d="M48.7,15.7a.5.5,0,0,1-.4-.5.4.4,0,0,1,.4-.4H71.5a.4.4,0,0,1,.4.4.5.5,0,0,1-.4.5Z"/><path d="M85,16.4a.3.3,0,0,1-.5.3.4.4,0,0,1-.2-.5h-.1v-.2a.9.9,0,0,1,.1-.5l.4-.2c.2-.1.5,0,.5.2a.4.4,0,0,1-.2.5h0c-.1.1,0-.1,0-.1h0s.1,0,0,.2m-.4.3a.4.4,0,0,1-.4-.4.5.5,0,0,1,.5-.4h-.1a.4.4,0,0,1,.4.4c.1.2-.1.4-.3.4h-.1"/><path d="M96.3,15.7a.4.4,0,0,1-.4-.4c0-.3.1-.4.4-.4h12.1c.3,0,.4.1.4.4a.4.4,0,0,1-.4.4Z"/><path d="M108,15.3a.4.4,0,0,1,.4-.4c.3,0,.4.1.4.4V34.5c0,.3-.1.4-.4.4a.4.4,0,0,1-.4-.4Z"/><path d="M107.9,44.3a.4.4,0,0,1,.4.4.4.4,0,0,1-.4.4h-.4c-.1.1.1-.2,0-.1s0-.3.1-.2v-.2c0,.1-.1,0-.1,0h.2a.5.5,0,0,1,.2.6.4.4,0,0,1-.5.2H107c-.1-.1-.2-.1-.2-.3s0-.3,0-.4.2-.1.2-.2h.9"/><path d="M106.6,57.9a.4.4,0,1,1,.8,0V82.8a.4.4,0,1,1-.8,0Z"/><path d="M107.9,92.6c.2.1.3.3.1.5s-.3.3-.5.1h.2v-.4h0a.5.5,0,0,1,.2.6.4.4,0,0,1-.5.2l-.4-.3c0-.1-.1-.2-.1-.4s.2-.3.3-.3.4-.1.6.1"/><path d="M106.9,101.3a.4.4,0,0,1,.8,0v5.4c0,1,0,2.1.1,3.2v3.7c0,1-.1,2-.1,2.9v7.3a28.3,28.3,0,0,0,.1,3.3,2.9,2.9,0,0,0,.2.9v.4a.4.4,0,0,0,.1.3h0a.4.4,0,0,1-.4.4c-.2.1-.4-.1-.4-.3s-.1-.2-.1-.4v-.4c.1-.2.2-.4.4-.4s.5,0,.5.2a.4.4,0,0,1-.2.6s.1-.1,0-.1h.1a2,2,0,0,0,.1.5h-.8a.4.4,0,0,1-.1-.3c0-.1-.1-.2-.1-.4l-.3-1c-.1-.9,0-1.9,0-3.4V113.6a22.8,22.8,0,0,0,0-3.7v-8.6"/><path d="M107,138.3c.2-.1.5-.1.6.1a.6.6,0,0,1-.1.6h-.2c-.1,0,.1-.3.1-.2s0-.2,0-.2h.1a.4.4,0,0,1,0,.6.3.3,0,0,1-.5.1l-.4-.4c0-.1-.1-.2,0-.4l.3-.2h.1"/><path d="M106,145.2a.4.4,0,0,1,.8,0v32.6a.4.4,0,1,1-.8,0Z"/><path d="M91.9,178.2a.4.4,0,0,1,0-.8h14.5a.4.4,0,1,1,0,.8Z"/><path d="M81.6,178.1a.5.5,0,0,1-.5.4c-.2-.1-.4-.3-.3-.5h0s.1.1,0,.1h.5a.4.4,0,0,1-.5.2.5.5,0,0,1-.2-.6l.2-.2c0-.1.2-.2.4-.1l.3.2v.4h0m-.8,0c-.1-.2.1-.4.3-.5a.5.5,0,0,1,.5.4h0a.6.6,0,0,1-.3.6.5.5,0,0,1-.5-.3h0"/><path d="M44.6,178a.4.4,0,0,1,0-.8H70.1a.4.4,0,0,1,0,.8Z"/><path d="M34.5,176.9c.2-.2.4-.1.6,0s.1.4,0,.6h0c0,.3-.2.4-.4.5a.4.4,0,0,1-.4-.4c0-.1-.1-.1,0-.3l.5-.2.2.2h-.5"/><path d="M1.2,177.2a.4.4,0,1,1,0-.8H27a.4.4,0,1,1,0,.8Z"/><path d="M.8,15.6a.5.5,0,0,1,.4-.5c.3,0,.4.2.4.5V31.7a.4.4,0,0,1-.4.4.4.4,0,0,1-.4-.4Z"/><path d="M.7,38.3c.2,0,.4.1.4.3a.3.3,0,0,1-.3.5H.4c-.1,0-.2,0-.3-.2s-.1-.1-.1-.3.2-.3.3-.3H.8l.4.4c.1.2.1.5-.1.6a.5.5,0,0,1-.6-.1v-.2H.5s.1-.1.1,0,.1-.1.1-.1.1-.2.1-.1h0v-.4c.1.1-.1-.1-.1,0s-.1-.1,0-.1H.7"/><path d="M.8,47.7a.4.4,0,0,1,.4-.4.4.4,0,0,1,.4.4V67.2a.4.4,0,0,1-.4.4.4.4,0,0,1-.4-.4Z"/><path d="M1.4,75.8a.5.5,0,0,1-.5-.3.4.4,0,0,1,.3-.5c.3-.1.3,0,.4.1h.2c.2.2.2.5,0,.6s-.4.2-.6,0h.2m0-.8c.3,0,.5.1.5.3s-.1.5-.3.5H1c-.1-.2-.2-.4,0-.6s.4-.2.6,0H1.4"/><path d="M.8,82.7a.4.4,0,0,1,.4-.4.4.4,0,0,1,.4.4v27.4a.4.4,0,0,1-.4.4.4.4,0,0,1-.4-.4Z"/><path d="M1.1,118.5a.4.4,0,1,1,0,.8h.3c.2.2.3.4.1.6a.3.3,0,0,1-.5.1,1,1,0,0,1-.5-.4V119a.4.4,0,0,1,.1-.3c.1-.2.3-.2.5-.2"/><path d="M.8,126.6a.4.4,0,0,1,.4-.4.4.4,0,0,1,.4.4v21.5a.4.4,0,0,1-.4.4.4.4,0,0,1-.4-.4Z"/><path d="M.5,155.9H1a.4.4,0,0,1,0,.6H.8v-.2h0c0,.1-.1-.2,0-.2h0a.4.4,0,0,1,.2.5.5.5,0,0,1-.6.2l-.2-.2H.1a1.4,1.4,0,0,1,.2-.6c.2-.1.2,0,.3,0H.5"/><path d="M.8,165.1a.4.4,0,0,1,.4-.4.4.4,0,0,1,.4.4v11.7a.4.4,0,0,1-.4.4.4.4,0,0,1-.4-.4Z"/><path class="cls-7" d="M55.5,70.5a.4.4,0,1,1,.8,0V72c0,1.3,0,2.9-.1,4.3V79h-.4s-.2.1-.1.1h-.1a19.3,19.3,0,0,0,0-3.5,23,23,0,0,0-.2-2.8,2,2,0,0,1-.1-1.1,2,2,0,0,1,1.1-1.3,3.8,3.8,0,0,1,1.8-.3,1.7,1.7,0,0,1,1.4.9,3.3,3.3,0,0,1-.1,2.4,4.2,4.2,0,0,0-.6,2.7,8.2,8.2,0,0,0,.7,2.5c.1.3.3.4.6.5a1.7,1.7,0,0,0,1.2-.4.4.4,0,1,1,.4.8,3.1,3.1,0,0,1-1.8.4,1.7,1.7,0,0,1-1.1-.9,9.2,9.2,0,0,1-.8-2.7,6.1,6.1,0,0,1,.6-3.2c.2-.7.4-1.4.2-1.7a.8.8,0,0,0-.8-.5,3.1,3.1,0,0,0-1.3.3c-.4.2-.7.4-.7.7a3.2,3.2,0,0,0,.1.8,23.3,23.3,0,0,1,.2,2.9,16.2,16.2,0,0,1,.1,2.2,6.6,6.6,0,0,1-.1,1.5c0,.1-.1.2-.1.3h-.4l-.4-.2a.4.4,0,0,1-.1-.3V76.3c0-1.4.1-3,.1-4.3V70.5m.8.2a.4.4,0,0,1-.4.4.4.4,0,0,1-.4-.4v-.2h0a.4.4,0,0,1,.4-.4.4.4,0,0,1,.4.4h0v.2"/><path class="cls-7" d="M55.8,78.4a.6.6,0,0,1-.1.6c-.2.1-.5.1-.6-.1v-.2a3.4,3.4,0,0,1-.1-1.1,13.1,13.1,0,0,1,.3-3.3c.2-.7.3-1.4.5-2a3,3,0,0,1,.4-1.1,1.9,1.9,0,0,1,1.7-.5,1.4,1.4,0,0,1,1.2.6,1.9,1.9,0,0,1,.1,1.5,6,6,0,0,1-.8,1.6l-.9,1.4-.5.6H57c-.1,0,0-.2,0-.1h0V76c.1.1-.1-.2-.1-.1s-.2-.1-.1-.1h.2c.4-.1.7.2,1,.4l.9.8c.2.3.6.5.8.9a5.4,5.4,0,0,1,.3,1v.9c0,.1-.1,0-.1,0s-.1-.1-.1-.1h-.1l.5-.3c.2-.2.4-.1.6,0s.1.5-.1.6a1.8,1.8,0,0,1-.8.5h-.4a.3.3,0,0,1-.3-.3c-.2-.4,0-.8-.1-1.1s0-.5-.1-.6-.4-.5-.7-.8l-.8-.8-.5-.2h-.2s-.1.1-.3,0a.8.8,0,0,1-.2-.5v-.2l.5-.6.8-1.3a6.1,6.1,0,0,0,.7-1.4c.1-.4.1-.7,0-.8a.5.5,0,0,0-.5-.3,1.8,1.8,0,0,0-1.1.3c-.1.1-.1.3-.2.7s-.3,1.2-.5,1.9a12,12,0,0,0-.3,3.1,7.7,7.7,0,0,0,.1,1h0s-.1-.1,0-.1m-.5-7.3a.4.4,0,0,1,.4-.4.5.5,0,0,1,.5.4c0,1.2-.1,3-.2,4.4s-.1,1.4-.2,2v1.2h0c-.1.3-.3.3-.5.3s-.3-.4-.3-.6h0c.1,0,0,.1,0,.1h0V77.4a15,15,0,0,1,.2-2,31.9,31.9,0,0,0,.1-4.3"/><path class="cls-7" d="M64.4,78.2a.4.4,0,0,1,.5.2.5.5,0,0,1-.2.6h0c-.1,0-.1.1-.1.2a1.4,1.4,0,0,0-.2.7,1.7,1.7,0,0,0-.1.7,1.7,1.7,0,0,0,.1.8.5.5,0,0,0,.6.2l.3-.2a.8.8,0,0,0,.2-.5.5.5,0,0,1,.5-.4c.2.1.4.3.3.5a1.8,1.8,0,0,1-.4,1,1.2,1.2,0,0,1-.8.4,1.3,1.3,0,0,1-1.4-.6,2.5,2.5,0,0,1-.2-1.2,1.9,1.9,0,0,1,.1-.8,2,2,0,0,1,.2-.9,1,1,0,0,1,.6-.7"/><path class="cls-7" d="M64.5,76a.3.3,0,0,1-.5-.3c-.1-.2.1-.4.3-.5h-.1l.6-.7a.4.4,0,0,1,.6-.1.4.4,0,0,1,.1.5l-.3.3-.3.3-.2.2h0c0,.2-.1.5-.3.5s-.5,0-.5-.2a.8.8,0,0,1,.1-.7l.3-.5.4-.4h.1l.7.4a3.1,3.1,0,0,1-.8,1h-.2m.6-.8a.4.4,0,0,1,.4.4c0,.3-.2.4-.5.4h-.4a.5.5,0,0,1-.6-.2.4.4,0,0,1,.2-.5h.9"/><path class="cls-7" d="M76.6,61.2a.4.4,0,0,1,.4-.4.4.4,0,0,1,.4.4l-.5,28.4c-.1.2-.2.4-.5.4a.4.4,0,0,1-.4-.4Z"/><path class="cls-7" d="M76.8,59.8c.2,0,.3.2.3.5s-.3.3-.5.3h-.2a.9.9,0,0,0-.4.6,2.5,2.5,0,0,0-.4.7l-.4.7a.5.5,0,0,1-.6.2.5.5,0,0,1-.1-.6,4.4,4.4,0,0,1,.3-.8,11.8,11.8,0,0,1,1-1.9,1.8,1.8,0,0,1,.5-.7.8.8,0,0,1,.7-.3,1.2,1.2,0,0,1,.5.5,5,5,0,0,1,.2,1.2,3.7,3.7,0,0,0,.7,2.3.3.3,0,0,1,0,.5.4.4,0,0,1-.6,0,4.5,4.5,0,0,1-1-2.8v-.9h.1a1.5,1.5,0,0,0-.4.6,17.4,17.4,0,0,0-1,1.9l-.3.8-.7-.4c0-.1.2-.3.3-.6l.4-.8.6-.8a1.1,1.1,0,0,1,1-.3"/><path class="cls-7" d="M82,73.2a.5.5,0,0,1-.4.5c-.2,0-.4-.1-.4-.3a2.6,2.6,0,0,1,.6-2.1l.7-1.1.5-.4h.3c.2-.1.4.1.5.2s.1.6,0,1a3.6,3.6,0,0,1-.2,1c-.1.9-.3,1.7-.4,2.4a2.5,2.5,0,0,0-.1.8.1.1,0,0,0,.1.1h-.1s-.2-.1-.1-.1h0l.3-.3.9-1,1-1.4.2-.2c.1,0,.3-.1.5,0l.3.3v.3a8.8,8.8,0,0,1-.2,1.6,5.5,5.5,0,0,0-.3,1.7v.5h-.1c.1,0,0-.1,0-.1h0l.7-.3,1.8-1a.4.4,0,1,1,.3.7L86.6,77l-.9.3c-.1,0-.3.1-.5,0a.9.9,0,0,1-.3-.5,1.1,1.1,0,0,1,0-.8,5.5,5.5,0,0,1,.3-1.7c0-.6.2-1.1.2-1.5h.1s.3,0,.2.1h.1a15.7,15.7,0,0,1-1,1.3l-.9,1.1-.5.4a.6.6,0,0,1-.6.1.4.4,0,0,1-.4-.4.4.4,0,0,1-.1-.3,4.5,4.5,0,0,1,.1-1.1c.1-.7.3-1.5.4-2.3a11.6,11.6,0,0,0,.3-1.5h.1c-.1,0,.2.1.1.1h.1l-.2.2-.7,1.1a1.7,1.7,0,0,0-.5,1.4"/><path class="cls-7" d="M90.6,76.2c0-.2.3-.3.5-.2s.3.3.3.5a10.2,10.2,0,0,0-.6,2.5c0,.2-.1.3-.1.4h.1s-.2-.1-.1-.1h.1c.2,0,.4-.2.7-.4a3.5,3.5,0,0,0,1-1.6.4.4,0,0,1,.8,0A3.8,3.8,0,0,1,92,79.5a2.4,2.4,0,0,1-.9.6h-.5a.5.5,0,0,1-.5-.3,1.1,1.1,0,0,1-.1-1,12.2,12.2,0,0,1,.6-2.7"/><path class="cls-7" d="M92.2,73.7a.5.5,0,0,1,.2.6.4.4,0,0,1-.5.2h-.4c-.1,0,.1-.1,0-.1s.1-.2.1-.1-.1-.3,0-.2v-.2c0,.1-.1-.1-.1,0h0c0-.1.1-.1.1-.2s.1-.3.2-.4h-.1a.3.3,0,0,0-.1.2.4.4,0,0,1-.4.4c-.2.1-.4-.1-.4-.3a.9.9,0,0,1,.5-1l.4-.2a.5.5,0,0,1,.6.1c.2.1.3.2.3.4v.6l-.3.5a.8.8,0,0,1-.5.5h-.8c-.1-.1-.2-.4-.1-.5a.9.9,0,0,1,.6-.3,1.2,1.2,0,0,1,.8.1"/><path class="cls-7" d="M200.6,125.8a.4.4,0,0,1-.8,0h0v-1.5c0-1.3,0-2.6.1-3.6a10.9,10.9,0,0,1,.6-3.9,1.6,1.6,0,0,1,1.2-1.1,2.2,2.2,0,0,1,1.6.1,2,2,0,0,1,1.2,1,2.2,2.2,0,0,1,.1,1.6,10.4,10.4,0,0,1-.6,1.6l-.8,1.3c-.2.3-.4.4-.4.5s-.1.1-.1.2a8.6,8.6,0,0,0,1.3,2.8,8.8,8.8,0,0,0,1.5,2.1.4.4,0,1,1-.5.7,9.1,9.1,0,0,1-1.7-2.3,9.8,9.8,0,0,1-1.4-3.2,1.2,1.2,0,0,1,.2-.7c.1-.3.3-.4.4-.6a6.3,6.3,0,0,0,.7-1.2,3.5,3.5,0,0,0,.6-1.4,1.7,1.7,0,0,0,0-1c-.1-.3-.5-.5-.8-.7a2,2,0,0,0-1.1,0c-.3,0-.5.3-.7.6a11.2,11.2,0,0,0-.5,3.6c0,1-.1,2.3-.1,3.6v1.5h0m.8-8.5a.4.4,0,0,1,.2.5c0,.2-.2.3-.5.3h.2c-.1,0,.1-.1,0-.1h0a2,2,0,0,0-.2.9c-.1.7-.2,1.7-.3,2.8s-.2,1.9-.2,2.7v1.3h0a.4.4,0,0,1-.4.4.4.4,0,0,1-.4-.4h0v-1.3c0-.8.1-1.8.2-2.8a12.9,12.9,0,0,1,.3-2.9,3,3,0,0,1,.2-1l.3-.4a.6.6,0,0,1,.6-.1"/><path class="cls-7" d="M211.3,126.6a.4.4,0,0,1-.8,0c0-.3.1-.8.1-1.3V125H210a3.1,3.1,0,0,0-1.2,1.5,3.9,3.9,0,0,0-.2.6v.3h.4l.9-.4.6-.4.3-.2h.6a.4.4,0,0,1,.2.4v.6c0,.2,0,.3.2.4a1.3,1.3,0,0,0,.9.1.4.4,0,0,1,.5.3c.1.2-.1.4-.3.5a2.3,2.3,0,0,1-1.5-.2,1.4,1.4,0,0,1-.7-1.1c0-.2.1-.3.1-.4v-.2h.1c-.1,0,.1.1.1.1s.1,0,.1,0H211l-.7.5-1,.4h-.6l-.6-.3c-.2-.2-.2-.5-.3-.7a3.6,3.6,0,0,1,.2-1,3.5,3.5,0,0,1,1.7-1.9,1.2,1.2,0,0,1,1.3,0,1,1,0,0,1,.4.5v.4a10.9,10.9,0,0,1-.1,1.3"/><path class="cls-7" d="M244.1,89.3a.4.4,0,0,1-.8,0,2,2,0,0,1,.9-1.6l.8-.7.8-.7.4-.2h.5c.1.1.2.2.2.3v.2a7.4,7.4,0,0,1-.8,1.5,15.9,15.9,0,0,0-1.2,4.1,4.6,4.6,0,0,0-.1,1,.3.3,0,0,1,.1.2h.5a12,12,0,0,0,2-2.8l1-1.8.2-.2h.4l.3.2v.3c0,.1,0,.1-.1.1a.4.4,0,0,1-.1.3c-.1.5-.5,1-.7,1.6a9,9,0,0,0-.5,1.9.9.9,0,0,0,0,.6h.3a3.2,3.2,0,0,0,1.7-.7.5.5,0,0,1,.6.1.6.6,0,0,1-.1.6,3.5,3.5,0,0,1-2.2.8,1,1,0,0,1-.9-.4,1.2,1.2,0,0,1-.2-1.2,5.8,5.8,0,0,1,.5-2.1l.8-1.6v-.2c.1,0,0,.1,0,0h.1c-.1,0,0,.1,0,.1h0c0-.1.2.1.1.1s.2.1.2,0h.1c0,.1.2,0,.1,0h0a11.9,11.9,0,0,1-1,1.8,9.1,9.1,0,0,1-2.2,3.1,2,2,0,0,1-1,.2l-.6-.2-.3-.6a6.2,6.2,0,0,1,.1-1.3,15.6,15.6,0,0,1,1.3-4.4,9.2,9.2,0,0,0,.7-1.3h0s.1.2,0,.1l.2.2h.2l-.2.2-.8.6-.8.7c-.4.4-.6.6-.6,1"/><path class="cls-7" d="M252.7,92.4a.5.5,0,0,1,.6-.1.4.4,0,0,1,0,.6,5.6,5.6,0,0,0-.8,2.4c-.2.6-.2,1.1-.3,1.4V97h0s-.2-.2-.1-.2h-.2l.8-1.3a9.8,9.8,0,0,1,1.7-2.2,2.8,2.8,0,0,1,1.6-1.1.4.4,0,0,1,.4.4c.1.2-.1.4-.3.4L255,94a8.3,8.3,0,0,0-1.6,2c-.4.6-.5,1.3-1.1,1.6h-.5c-.1,0-.3-.2-.4-.4s0-.4,0-.6a7.7,7.7,0,0,1,.2-1.5,6.6,6.6,0,0,1,1.1-2.8"/><path class="cls-7" d="M254.7,94.6c0-.3.3-.4.5-.4a.5.5,0,0,1,.3.5,11,11,0,0,0-.3,1.6,1.5,1.5,0,0,0,.9,1.3.4.4,0,0,1,.1.6.3.3,0,0,1-.5.1,2.5,2.5,0,0,1-1.3-2,6.5,6.5,0,0,1,.3-1.7"/><path class="cls-7" d="M275.6,89.4c0,.2-.1.5-.4.5s-.4-.1-.4-.3a1.4,1.4,0,0,1,.3-1.3l1-.7.8-.3c.2-.1.3-.3.7-.3a.6.6,0,0,1,.6.4,1.5,1.5,0,0,1,.1.7,18.9,18.9,0,0,1-.9,2.1,6.7,6.7,0,0,0-.5,3.3h0l.4-.2a24.9,24.9,0,0,0,2.2-2.7l1.1-1.4.5-.4h.8a.4.4,0,0,1,.1.3v.2c0,.2,0,.3-.1.4a3.1,3.1,0,0,1-.2.8,9.9,9.9,0,0,0-.6,3.1,3,3,0,0,0,.3.9,1.2,1.2,0,0,0,.9.1.4.4,0,0,1,.2.8,2.1,2.1,0,0,1-1.6-.3,2,2,0,0,1-.6-1.4,8.6,8.6,0,0,1,.6-3.5l.3-.7v-.3h0s.1.1,0,.1h.3l-.3.3-1.1,1.3a13.2,13.2,0,0,1-2.3,2.8,1.2,1.2,0,0,1-.9.4.8.8,0,0,1-.8-.5,3.2,3.2,0,0,1,0-1.7,9.7,9.7,0,0,1,.6-2.1,10.1,10.1,0,0,0,.7-2.1h.2c0,.1-.2.1-.4.2l-.7.4a1.6,1.6,0,0,0-.8.5.4.4,0,0,0-.1.5"/><path class="cls-7" d="M288.6,92.8a.3.3,0,0,1-.3.5.5.5,0,0,1-.5-.4h-.1l-.6.4a1.6,1.6,0,0,0-.3.9v.2h.2l.6-.2,1.2-.9.3-.3a.5.5,0,0,1,.4-.2l.4.2v.3c.1.3-.1.7-.2,1.1a41.1,41.1,0,0,0-1,4.1,3,3,0,0,0-.1,1.6v.3h.3a.5.5,0,0,1,.3.5c0,.2-.2.4-.4.3a1,1,0,0,1-1.1-1.1,4.2,4.2,0,0,1,.1-1.9c.2-1.4.7-3,1-4.2a1.5,1.5,0,0,0,.2-.8h.5l-.3.3a5,5,0,0,1-1.4,1,1.1,1.1,0,0,1-.7.3,1,1,0,0,1-.9-.1,1.1,1.1,0,0,1-.4-.9,2,2,0,0,1,.6-1.4,1.9,1.9,0,0,1,1.1-.7h.7a1.1,1.1,0,0,1,.3.7"/><path class="cls-7" d="M296.9,89.5a.4.4,0,0,1,.5-.2.5.5,0,0,1,.2.6c-.1,0,0-.2,0-.1v-.2h-.1c.1,0,0-.1,0-.1h.1l.9.2h1.4a2.6,2.6,0,0,1,1.7.5c.2.2.3.4.1.6s-.4.2-.6.1a1.5,1.5,0,0,0-1.1-.4,3.3,3.3,0,0,1-1.7,0,2.8,2.8,0,0,1-1.2-.4h-.2v-.2a.5.5,0,0,1,.1-.3m.9.1a.4.4,0,0,1,0,.6.3.3,0,0,1-.5,0h-.4a.6.6,0,0,1,0-.6c.2-.2.3-.1.4-.1h.3l.2.2"/><path class="cls-7" d="M298.2,92.5a.3.3,0,0,1-.1.5c-.1.2-.4.1-.5,0s-.3-.4-.1-.6a.4.4,0,0,1,.4-.3h.8l1.7.2a.4.4,0,0,1,.4.4c.1.2-.1.4-.4.4l-1.8-.2h-.5c-.1,0,.1-.1,0-.1s.1-.1.1-.1h0"/><path class="cls-7" d="M300.6,87.7a.5.5,0,0,1-.1.6.7.7,0,0,1-.6-.1,1.3,1.3,0,0,1,0-1.2,2.4,2.4,0,0,1,.6-.9l1-.7a1.1,1.1,0,0,1,.8,0,1,1,0,0,1,.6.5,3.4,3.4,0,0,1,.4,1.8.5.5,0,0,1-.9-.1,1.8,1.8,0,0,0-.2-1.3l-.2-.2h-.1c-.3.1-.5.4-.8.6l-.5.7c-.1.1,0,.2,0,.3"/><path class="cls-7" d="M311.7,90.2c.1.2.1.5-.1.6a.5.5,0,0,1-.6-.1,1.8,1.8,0,0,1-.2-1,3.6,3.6,0,0,1,.4-.9,5.7,5.7,0,0,1,1.6-1.5l1.6-.9a.9.9,0,0,1,.7.1.5.5,0,0,1,.3.5.9.9,0,0,1-.1.5,6.1,6.1,0,0,1-.5,1.2l-1.1,2.8a2,2,0,0,0-.1,1.3h0a2,2,0,0,0,.9-.4,15.9,15.9,0,0,0,2.6-2.6l1-1a1.4,1.4,0,0,1,.8-.5l.5.2a.7.7,0,0,1,.1.5c.1.6-.3,1.1-.6,1.7a8.9,8.9,0,0,0-.6,2c0,.2,0,.3.1.4s.1.1.2.2a5.4,5.4,0,0,0,1.8-.4.4.4,0,1,1,.3.7,3.9,3.9,0,0,1-2.2.5,1.6,1.6,0,0,1-.8-.6,1.5,1.5,0,0,1-.2-1c.2-.6.4-1.3.7-2.1a13,13,0,0,0,.5-1.4h.2c-.1-.1.1,0,0,0l-.2.2a9.3,9.3,0,0,0-1,1,14.3,14.3,0,0,1-2.8,2.7,1.6,1.6,0,0,1-1.4.5.9.9,0,0,1-.7-.5,2.8,2.8,0,0,1,.1-1.8c.3-.9.8-2,1.2-2.9l.4-1.1V87h0s.1.1,0,.1h0l-1.3.8a3.5,3.5,0,0,0-1.4,1.3l-.3.5c0,.2,0,.3.1.4"/><path class="cls-7" d="M324.4,93.3a.5.5,0,0,1,.2.6.4.4,0,0,1-.5.2h-.3l-.3.3a2.3,2.3,0,0,0-.5,1.1,4.8,4.8,0,0,0,0,1.2V97h.2c.1,0,.3.1.4,0a1.4,1.4,0,0,0,.9-.5,5.4,5.4,0,0,0,.9-1.2,4.3,4.3,0,0,0,.5-1.3v-.2h-1l-.8.2h-.1a.4.4,0,0,1-.4.4.4.4,0,0,1-.4-.4.8.8,0,0,1,.2-.5l.4-.2a1.7,1.7,0,0,1,1-.3h1.5l.4.5a.6.6,0,0,1-.1.6,4.7,4.7,0,0,1-.6,1.5,7.1,7.1,0,0,1-1,1.4,2.9,2.9,0,0,1-1.4.8h-.8a1.3,1.3,0,0,1-.7-.6,1.6,1.6,0,0,1,0-.7,3.3,3.3,0,0,1,0-1.4,6.9,6.9,0,0,1,.7-1.5l.7-.4h.8"/><path d="M177.4,183.4a.4.4,0,1,1,.8.3l-.2.2h-3.4c-.2.1-.4,0-.6-.2a.4.4,0,0,1,.2-.5,5.1,5.1,0,0,1,2.5-.2h.9s-.1.1-.1,0v.2m-4.3.3a.4.4,0,0,1-.4-.4c0-.3.2-.4.5-.4h0l1.1.2h3.2s-.1.1,0,.1.3-.3.5-.1a.4.4,0,0,1,.2.5l-.2.2h-3.8l-1.1-.2h0m.6-.1a.5.5,0,0,1,0,.5.5.5,0,0,1-.6.1l-.3-.4c0-.2,0-.3.1-.4l.2-.2h.8l2,.2h2.3l.2.3v.3l-.2.2h-1.3a11,11,0,0,1-2.6-.2l-.9-.2H173a.4.4,0,0,1,.2-.8h.5l.8.2a9,9,0,0,0,2.3.2h.9c.1,0-.1.1,0,.1h-.1v.2c0-.1.1.1.1.1h-4.2c-.1,0,0-.1,0-.1h.1v-.2h.1"/><path d="M173.8,179.7a.5.5,0,0,1,.2.6c-.1.2-.4.2-.6.1h-.7l-1.3.4a4.7,4.7,0,0,0-1.5,1.3,3.8,3.8,0,0,0-.7,2.8,3.4,3.4,0,0,0,.9,2,3.6,3.6,0,0,0,3.1.9,11.1,11.1,0,0,0,4.2-1.2,8.6,8.6,0,0,0,4.1-3.4,1.9,1.9,0,0,0,.2-1.2,5.4,5.4,0,0,0-2.8-2,10.2,10.2,0,0,0-2.5-.6,6.3,6.3,0,0,0-4.1.8c-.2.1-.5.1-.6-.1a.5.5,0,0,1,.2-.6,7.1,7.1,0,0,1,4.5-.9,8.9,8.9,0,0,1,2.8.7c1.5.5,2.8,1.3,3.2,2.4a2.3,2.3,0,0,1-.1,1.8,9.2,9.2,0,0,1-4.5,3.8,13.3,13.3,0,0,1-4.6,1.3,4.5,4.5,0,0,1-3.7-1.1,4.7,4.7,0,0,1-1.1-2.5A4.6,4.6,0,0,1,171,180a3.7,3.7,0,0,1,1.6-.5,2.2,2.2,0,0,1,1.2.2"/><path class="cls-8" d="M174.3,14.3a.4.4,0,0,1,0,.6h-.6a4.3,4.3,0,0,1-.1-.5.3.3,0,0,1,.3-.3h5l-.5.7H178l-2.5.2h-1.8a.5.5,0,0,1-.2-.4c0-.2.2-.2.2-.3h.5l1.1-.2a3,3,0,0,1,2.3.3c.2.1.2.4,0,.6s-.4.2-.5,0a4.1,4.1,0,0,0-1.7-.1l-1,.2h-.1v-.3h-.1c.1,0-.1-.1-.1-.1h1.4l2.4-.2h1a.5.5,0,0,1,.1.6c-.1.2-.4.2-.6.1h-1.3l-1.4.2h-1.4c0,.1.1-.2.1-.1v-.2h-.1"/><path class="cls-8" d="M176.7,15.8c0,.2-.3.3-.5.3a.5.5,0,0,1-.3-.5c.1-.2.1-1.6.2-2.6a3.4,3.4,0,0,0,.1-.9v-.2h.2a.3.3,0,0,1,.4,0c.2.2.2.3.2.4v.2a3.8,3.8,0,0,1-.4,1.3c-.1.7-.3,1.4-.4,1.9a5.4,5.4,0,0,1-.1.8h.3a.5.5,0,0,1,.5.3.5.5,0,0,1-.4.5h-.7a1.2,1.2,0,0,1-.5-.5,3.7,3.7,0,0,1,.1-1.1,8.4,8.4,0,0,1,.5-2,11.1,11.1,0,0,0,.3-1.3h.7a3.2,3.2,0,0,1-.1.8,9.2,9.2,0,0,1-.1,1.6,3.4,3.4,0,0,1-.1,1.1m.5-4.5c.1.2.1.5-.1.6s-.5.1-.6-.1h.5a3.5,3.5,0,0,0-.1.6,13.6,13.6,0,0,0-.2,2v1.1h0c0,.3-.1.5-.3.5a.5.5,0,0,1-.5-.4h0v-1a16.4,16.4,0,0,1,.2-2.2,1.9,1.9,0,0,1,.2-.7c0-.1,0-.2.2-.4h.3l.4.2"/><path class="cls-8" d="M176,10.1a.6.6,0,0,1,0,.6c-.2.2-.5.2-.6,0h-.6a1.7,1.7,0,0,0-1.1.6,5.7,5.7,0,0,0-1,3.8,5.2,5.2,0,0,0,.7,2.1,2.7,2.7,0,0,0,1.5,1.1,3.7,3.7,0,0,0,2.1.1,7.2,7.2,0,0,0,3.4-3.3,3.3,3.3,0,0,0,.4-1.9,2,2,0,0,0-.3-1.1,4,4,0,0,0-2.6-1.3,2.8,2.8,0,0,0-1.3,0c-.3.1-.5.3-.7.8a.4.4,0,1,1-.8-.4,2.5,2.5,0,0,1,1.3-1.2H178c1.1.2,2.6.6,3.2,1.7a2.8,2.8,0,0,1,.4,1.5,3.9,3.9,0,0,1-.5,2.3,7.2,7.2,0,0,1-3.9,3.6,4.6,4.6,0,0,1-2.6,0,3.1,3.1,0,0,1-1.8-1.4,5,5,0,0,1-.9-2.5,5.9,5.9,0,0,1,1.2-4.4,3,3,0,0,1,1.5-.9,1.4,1.4,0,0,1,1.4.2"/><path class="cls-8" d="M132.1,29.6c-.2.1-.4.1-.5-.1s-.1-.5.1-.6-.1.2-.1.1h-.1v-1a3.1,3.1,0,0,1,.1-1.3c0-.2.3-.3.5-.3a.5.5,0,0,1,.3.5,4.5,4.5,0,0,0-.1,1.1v.6a.4.4,0,0,0,.1.3v.2s.1.2-.2.3m-.4-6a.5.5,0,0,1,.5-.4.7.7,0,0,1,.4.5h0a1.3,1.3,0,0,1-.1.6v1.9a10.9,10.9,0,0,1-.1,1.8V29c-.1,0-.1.1-.1.2h0a.4.4,0,0,1-.4.4.5.5,0,0,1-.4-.5h0v-.3a2.2,2.2,0,0,0,.1-.9,9.7,9.7,0,0,0,.1-1.8V23.8h0m.2-.9a.4.4,0,0,1,.5.2c.1.2,0,.5-.2.5s.1,0,.1,0,0-.1,0-.1h0a1.3,1.3,0,0,0-.1.6v5.9h0c.1,0-.1-.1,0,0s-.2-.1-.1-.1h-.2c.1,0-.1.1-.1,0h-.1c.1,0,0,.1,0,.1v-2c.1-1.4,0-2.9,0-3.8v-.6h0a.5.5,0,1,1,.9-.1h0a1.1,1.1,0,0,0,0,.6v3.8a7.9,7.9,0,0,1-.2,2.3c0,.1,0,.1-.1.2h-.6a.1.1,0,0,1-.1-.1,1.4,1.4,0,0,1-.2-.6V24a1.5,1.5,0,0,1,.1-.7.4.4,0,0,1,.1-.3q0-.2.3-.3"/><path class="cls-8" d="M133,23a.4.4,0,0,1,.4.4.5.5,0,0,1-.5.4h-.3s.2-.2.2-.1,0-.3,0-.2v-.2h-.1c.1,0,0-.1,0,0h.3l1.1,1.2,2,1.8a2.4,2.4,0,0,0,1.3.6c.2-.1.4.1.4.3a.5.5,0,0,1-.4.5,2.9,2.9,0,0,1-1.8-.8,17.1,17.1,0,0,1-2.1-1.9l-1.1-1-.2-.2c-.1-.1-.1-.1-.1-.2s-.1-.1-.1-.2a.8.8,0,0,1,.2-.4h.8"/><path class="cls-8" d="M133.1,29a.4.4,0,1,1-.3.7h0s-.1-.1,0-.1-.2-.1-.1-.1h-.1l.5-.4,1.1-1.1a5.3,5.3,0,0,1,1.2-1l.5-.4h.7a.6.6,0,0,1,.3.6.5.5,0,0,1-.6.2h-.1l-.3.2-1.1,1-1.2,1.1-.6.5h-.7L132,30c-.1-.1-.1-.2,0-.4a.9.9,0,0,1,.3-.6c.2-.1.6-.2.8,0"/><path class="cls-8" d="M134,25.6a.4.4,0,0,1,.6.1c.1.2,0,.4-.2.6s.2-.1.1-.1h.1c-.1.1-.1.4-.2.7a7.6,7.6,0,0,0-.1,1.5c0,.2,0,.3.1.4h-.6c.1,0,0,.1,0,.1h.1a.6.6,0,0,1,.1-.4,1.2,1.2,0,0,1,.2-.8l.6-.2c.2,0,.3.1.5.3s.2.3.1.5a.4.4,0,0,1-.6.1h0v.3c-.1.2-.1.4-.2.5a.4.4,0,0,1-.1.3h0c-.1,0-.2.2-.5.1s-.2-.1-.3-.2a.4.4,0,0,1-.1-.3,1.7,1.7,0,0,1-.1-.7,8.6,8.6,0,0,1,.1-1.6,6.4,6.4,0,0,1,.2-.9h.2m-.5-.3a.4.4,0,0,1-.8,0h0s.1.1,0,.1h.6c-.1,0,.1-.1.1-.1h0a6.8,6.8,0,0,0-.3,1.2,16.8,16.8,0,0,0-.3,2.7v.2h0s-.1-.2-.1-.1-.1-.1-.1-.1h-.4a.8.8,0,0,0,.2-.5,9.4,9.4,0,0,0,.4-1.6,7.8,7.8,0,0,0,.2-1.4v-.3h0s.1.1,0,.1h.1c0-.1.1,0,.1,0h.2c-.1,0,.2-.1.2,0s.1-.1.1-.1,0-.1,0-.1h0a8.7,8.7,0,0,0-.1,1.9,1.7,1.7,0,0,0,0,1h-.2a10.1,10.1,0,0,0,.4-1.8V26h.1c-.1-.1,0,.1,0,.1s-.1-.5.1-.6.4-.1.6.1h0c.1.2,0,.2,0,.2v.5c-.1.6,0,1.7-.6,2.3l-.4.2h-.4a1.3,1.3,0,0,1-.5-.7V27.1c.1-.7.1-1.5.2-2s.1-.1.1-.2a.4.4,0,0,1,.5-.1c.2,0,.2.1.2.2h.1v.6a7.8,7.8,0,0,1-.2,1.4,11.6,11.6,0,0,1-.4,1.8c-.1.2-.1.4-.2.6l-.2.2c0,.1-.1.3-.4.2h-.3c0-.1-.1-.1-.1-.2h0v-.2a18.9,18.9,0,0,1,.3-3,10.4,10.4,0,0,1,.3-1.2c0-.1,0-.2.1-.2v-.2h.5a.4.4,0,0,1,.2.3v.3"/><path class="cls-8" d="M133.2,12.4c-.1-.2-.1-.5.1-.6s.5-.1.6.1v.2a1.5,1.5,0,0,1-.1.6,5.2,5.2,0,0,1-.6,1.9,4.3,4.3,0,0,0-.2,1.1c-.1.2-.1.4-.2.6a.4.4,0,0,1-.1.3v.2c0,.1-.2.2-.4.1H132v-.2h-.1v-.4c-.1-.2,0-.4.3-.4s.4,0,.5.3v.3h-.6a1.9,1.9,0,0,1,.2-.7,4.5,4.5,0,0,1,.3-1.1,9,9,0,0,0,.5-1.9c0-.1,0-.2.1-.2h0s.1.1,0,.1m.7.2a.4.4,0,0,1-.4.4.5.5,0,0,1-.4-.5v-.3h.1c0-.1-.1-.1,0-.2a.5.5,0,0,1,.6-.1.5.5,0,0,1,.1.6c-.1,0,0-.1,0-.1h.1c0,.1-.1.2-.1.4"/><path class="cls-8" d="M129.9,12c-.2,0-.4-.2-.3-.4s.2-.4.5-.4-.1,0-.1,0a6.4,6.4,0,0,0,1.4,0l3.7-.4a5.5,5.5,0,0,1,3.4.5.7.7,0,0,1,.1.6.5.5,0,0,1-.6.1c-1.3-.8-4.2-.1-6.6,0h-1.5m1.2-.6c.2.2.3.4.1.6a.3.3,0,0,1-.5.1h-.6a.3.3,0,0,1-.5-.3c-.1-.2.1-.4.3-.5h.4c.3.1.5,0,.8.2"/><path class="cls-8" d="M129.6,18.3c.2.2.2.5,0,.6a.4.4,0,0,1-.6,0c0-.1-.1-.1-.1-.2a.3.3,0,0,1,0-.4.2.2,0,0,1,.2-.2h1c1.6-.1,4.3-1.4,6.3-.9a.4.4,0,0,1,.2.5.3.3,0,0,1-.5.3c-1.4-.4-4.1.8-6,.9h-.6s.1-.1,0-.1.1-.1.1-.1.1-.2.1-.1h-.1"/><path class="cls-9" d="M209.3,40.9a.4.4,0,0,1-.5.3c-.2,0-.4-.2-.3-.4a3.1,3.1,0,0,1,.7-1.4,14.4,14.4,0,0,1,1.5-2.2c.6-.9,1.3-2.1,2.3-3.5,2.2-3.3,5.1-7.5,7.9-11.2,1-1.4,1.9-2.7,2.8-3.8l2.3-3,.7-.9.2-.2a.7.7,0,0,1,.6.3c.1.2,0,.3,0,.5a6.9,6.9,0,0,1-.4,1c-.1.2-.3.2-.5.1a.4.4,0,0,1-.2-.5,1.6,1.6,0,0,0,.3-.8h0s.1.2.1.1.1.1,0,.1h.5l-.6.8-2.4,3L221.5,23c-2.7,3.7-5.6,7.9-7.8,11.2-1,1.3-1.7,2.5-2.4,3.5l-1.5,2.1a3.1,3.1,0,0,0-.5,1.1"/><path class="cls-9" d="M237.2.9a.4.4,0,0,1,.3.5c0,.2-.3.3-.5.3h.3a.1.1,0,0,0-.1.1l-.4.5a12.4,12.4,0,0,0-1.1,2.3,7.8,7.8,0,0,0-.6,2.7,1.4,1.4,0,0,0,.3,1.1c.1.2.5.3.9.4a.5.5,0,0,1,.4.5.5.5,0,0,1-.5.3,2,2,0,0,1-1.4-.6,2,2,0,0,1-.5-1.7,9.3,9.3,0,0,1,.6-3,14.6,14.6,0,0,1,1.3-2.5l.4-.6a.3.3,0,0,0,.1-.2h.5m-3.3,4.3c-.2.2-.4.3-.6.2a.5.5,0,0,1-.2-.6h-.2a1.9,1.9,0,0,0-.7.8,11.1,11.1,0,0,0-.7,1.6,1.9,1.9,0,0,0,0,1.1c0,.1,0,.1.1.1a.9.9,0,0,0,.6-.3,12.3,12.3,0,0,0,2.5-3.1,26.9,26.9,0,0,0,1.9-3.4c0-.1.1-.2.1-.3h0s.1.2.1.1-.1-.4.1-.5.4-.1.5.1h.1v.2h0l-.2.3a21.5,21.5,0,0,1-1.9,3.5,13.9,13.9,0,0,1-2.7,3.4,2.6,2.6,0,0,1-1,.4,1.3,1.3,0,0,1-.9-.4,2.7,2.7,0,0,1-.1-1.8,13.4,13.4,0,0,1,.7-1.8c.4-.5.7-1,1.3-1.2a1.2,1.2,0,0,1,1,.2l.3.5c0,.2-.1.4-.1.6"/><path class="cls-9" d="M239.5,5.9c.1-.3.3-.3.5-.2s.3.3.2.5l-.5,1.1a.8.8,0,0,0-.1.4h.2l.8-.7,1.7-1h.6c.2.1.2.2.2.4v.3a4.1,4.1,0,0,1-1,1.6l-2.7,3.9-1.3,2-.3.6h0v-.2h-.2c.2,0,.3.3.3.5a.5.5,0,0,1-.5.3.5.5,0,0,1-.3-.4c-.1-.1,0-.1,0-.2v-.2c0-.2.2-.4.3-.7l1.3-2,2.7-3.9.9-1.4h.3l-1.5.9-.8.6-.4.3h-.6a.3.3,0,0,1-.3-.3l-.2-.3a1.9,1.9,0,0,1,.1-.8,6.7,6.7,0,0,1,.6-1.2"/><path class="cls-9" d="M245.4,9.4c-.2.1-.5.1-.6-.1a.5.5,0,0,1,.2-.6h-.1l.5-.7,1.5-1.5.8-.4c.3,0,.6.2.6.4a.9.9,0,0,1,.1.5l-.3,1.2a5.2,5.2,0,0,0-.2,1.1.8.8,0,0,0-.1.4h-.1c.2.1.2.4.1.6a.6.6,0,0,1-.6.1.8.8,0,0,1-.2-.6.9.9,0,0,1,.1-.5,5,5,0,0,1,.2-1.2,5.2,5.2,0,0,0,.2-1.1h.1s.2.1.1.1h.1l-.4.2-1.3,1.4-.6.7h-.1m1.3-3.2a.4.4,0,0,1,.5.2.4.4,0,0,1-.2.6,2.9,2.9,0,0,0-.8,1.1l-.5.9-.2.3h0s.1-.1,0-.1-.3.3-.5.3a.5.5,0,0,1-.2-.6h0c.1,0,.1-.1.1-.2l.6-.9c.3-.6.6-1.3,1.2-1.5"/><path class="cls-9" d="M249.9,8.7a.7.7,0,0,1,.5.4.7.7,0,0,1-.4.5h.2a.7.7,0,0,1-.4.7.4.4,0,0,1-.5-.2c-.1-.2-.1-.4.1-.5h0a.4.4,0,0,1,.1-.3V8.9l.3-.2"/><path class="cls-9" d="M260.4,1.7a.4.4,0,0,1-.2-.5.4.4,0,0,1,.5-.2,6.7,6.7,0,0,1,1.9,1.2c.2.1.6.2.7.6a1.7,1.7,0,0,1,.1.7,2.5,2.5,0,0,1-.4.7,8.8,8.8,0,0,1-1.5,1.2,7.7,7.7,0,0,0-1.8,2.9.5.5,0,0,0,0,.4h.3a1.9,1.9,0,0,0,1.4-.9.4.4,0,0,1,.7.5A2.5,2.5,0,0,1,260,9.6a1.1,1.1,0,0,1-.9-.4,1.2,1.2,0,0,1-.2-1.2A7.4,7.4,0,0,1,261,4.8l1.4-1.1c.1-.2.1-.3.2-.4V3.1l-.5-.3-1.7-1.1"/><path class="cls-9" d="M259.9,5.2a.4.4,0,0,1,.4.4.4.4,0,0,1-.4.4h-.7c-.1-.1-.2-.4-.1-.5s.1-.2.2-.2.4-.1.8-.2l2.7-.3c.3,0,.5.1.5.4a.4.4,0,0,1-.4.4l-2.7.3h-.4c-.1,0,.1-.3,0-.2V5.4h-.1c.1,0-.1-.1-.1-.1h.3"/><path class="cls-9" d="M263.3,9.2c-.2.1-.4.2-.6,0s-.2-.4,0-.6l1.7-1.8a3.9,3.9,0,0,1,1-.8.9.9,0,0,1,.7-.1q.3.1.3.3a.6.6,0,0,1,.1.4,2.3,2.3,0,0,1-.6,1.2l-.3.6v.2h-.1c.1,0-.1-.2-.1-.2h0l.4-.2,1.1-.7.5-.2a.9.9,0,0,1,.5.3,2,2,0,0,1,.2,1.1.4.4,0,0,1-.4.4.5.5,0,0,1-.5-.4V8h.2l-1.3.7-.5.2h-.5l-.3-.2a.4.4,0,0,1,0-.5.4.4,0,0,1,.1-.3l.3-.7.5-.9h.1c-.1-.1.1,0,.1,0h-.1l-.9.7-1.6,1.8"/><path class="cls-9" d="M272.8,4.9a.5.5,0,0,1,.3.5c-.1.2-.3.4-.5.3h-.4V7.7A1.9,1.9,0,0,1,271,9.4a.4.4,0,0,1-.5.1.5.5,0,0,1-.5-.3,2.1,2.1,0,0,1-.1-1.4c0-.2.2-.3.4-.3a.5.5,0,0,1,.4.5c-.1.5-.1.7,0,.7h0a1.3,1.3,0,0,0,.7-1.1v-1a2.5,2.5,0,0,1,.1-1.2l.5-.5h.8"/><path class="cls-9" d="M274.2,6.5c-.2-.1-.2-.4-.1-.6s.4-.2.6,0h0a4.8,4.8,0,0,0,1.8.4.4.4,0,0,1,.4.4.4.4,0,0,1-.4.4,4.7,4.7,0,0,1-2.2-.5h-.1M278.5.8a.3.3,0,0,1-.5.3c-.2,0-.3-.2-.3-.5h.1c-.1,0,0,.1,0,.1h.4c-.1.3-.4.7-.7,1.3l-1.3,2.7a16.8,16.8,0,0,0-.6,2.7,3.4,3.4,0,0,0-.1.9v.2a.2.2,0,0,1-.2.2h-.6c-.1-.2-.1-.4-.2-.6s-.1-.8-.2-1.2-.1-.3-.1-.5h.1c-.2-.1-.2-.4-.1-.6s.4-.2.6,0h0c.1.1.2.2.2.3a3.5,3.5,0,0,1,.1.6,5.2,5.2,0,0,1,.2,1.1v.3h-.1c.1,0-.2-.1-.1-.1h-.4c.1,0,0,.1,0,.1h0a3.4,3.4,0,0,1,.1-.9,13.3,13.3,0,0,1,.7-2.9,18.2,18.2,0,0,1,1.3-2.8l.8-1.4.2-.2c.1,0,.2-.2.5-.1a.5.5,0,0,1,.3.5c0,.1-.1.2-.1.3"/><path class="cls-9" d="M281.5,6a.5.5,0,0,1,.6-.2c.2.2.3.4.2.6s-.1.1-.1.2a2.4,2.4,0,0,0-.3,1,1.2,1.2,0,0,0,.2.7h.2l.5-.2,1.3-1A11.3,11.3,0,0,1,285.2,6l.3-.2h.3c.2,0,.3.1.3.2a.4.4,0,0,1,.1.3.9.9,0,0,1-.2.6c0,.1-.1-.2-.1-.1s0-.1,0-.1h1.4a1.1,1.1,0,0,1,.8.3,1.6,1.6,0,0,1,.1,1,.5.5,0,0,1-.5.4.5.5,0,0,1-.3-.5V7.6h-.1a3.5,3.5,0,0,1-1.2.1h-.5l-.3-.2a.4.4,0,0,1-.1-.5c0-.2.1-.3.1-.4h.4l-1.1,1.1-1.4,1.1-.7.3a1.1,1.1,0,0,1-.8-.2,1.3,1.3,0,0,1-.6-1.4,4.2,4.2,0,0,1,.3-1.3V6m.5-.7a.4.4,0,0,1,.2.5.5.5,0,0,1-.6.2l-.8-.4h-.5a2.3,2.3,0,0,0-.5.5,4.7,4.7,0,0,0-.5,1,2.5,2.5,0,0,0-.2.7.3.3,0,0,0,.1.2h.2l.5-.3A11.4,11.4,0,0,0,281,6.7l.5-.6h.1c.1-.2.4-.3.5-.1s.3.4.1.5h0l-.6.8-1.2,1.1-.7.4a1.1,1.1,0,0,1-.8.1l-.5-.5c0-.2-.1-.4-.1-.6a3.6,3.6,0,0,1,.2-1,3,3,0,0,1,.6-1.1,1.8,1.8,0,0,1,1-.9h.9a3,3,0,0,1,1,.5"/><path class="cls-9" d="M297.6,1a.4.4,0,0,1,.2-.5.5.5,0,0,1,.6.2c.1.3,0,.4-.1.4v.2l-.4.5-1,1.3a9.8,9.8,0,0,0-1.4,4.3,1.6,1.6,0,0,0,.3,1.1,1.6,1.6,0,0,0,1.4.1.6.6,0,0,1,.6.3.5.5,0,0,1-.3.5,2.3,2.3,0,0,1-2.2-.2,2.3,2.3,0,0,1-.7-1.8,9.8,9.8,0,0,1,1.6-4.7l1.1-1.4.3-.5a.1.1,0,0,0,.1-.1h0m-4.2,4.6a.4.4,0,0,1-.4.4.4.4,0,0,1-.4-.4h.1c0-.1.1,0,.1,0h-.1a3.5,3.5,0,0,0-.7,1.1,2.9,2.9,0,0,0-.3.9h0l.4-.2a6.1,6.1,0,0,0,1.4-1.4,43.9,43.9,0,0,0,2.8-3.6l.9-1.3.3-.4h.1a.4.4,0,0,1,.5-.2.4.4,0,0,1,.3.5.1.1,0,0,1-.1.1h0v.2l-.3.4L297,3a30.5,30.5,0,0,1-2.9,3.6,5.8,5.8,0,0,1-1.5,1.6c-.4.2-.7.4-1,.3a.9.9,0,0,1-.7-.6,2.7,2.7,0,0,1,.3-1.5,4.5,4.5,0,0,1,1-1.3l.3-.2c.1,0,.2-.1.4,0s.3.2.4.3v.4"/><path class="cls-9" d="M6.1,212.7a.4.4,0,0,1-.5.2c-.3-.1-.4-.3-.3-.5s0,.2,0,.1h0a2.6,2.6,0,0,0-.3-.7,16.4,16.4,0,0,1-.5-3.2c0-.6-.1-1.1-.1-1.8a8.2,8.2,0,0,1,.5-3,4.7,4.7,0,0,1,1.5-2.1,2.1,2.1,0,0,1,2-.3,1.3,1.3,0,0,1,.7.6c.2.2.2.6.3.9a4.6,4.6,0,0,1-.5,2l-.8,1.6c-.1.3-.1.4,0,.5l.4.5a3.1,3.1,0,0,1,1,1.2,20.2,20.2,0,0,1,.7,2.3,2.6,2.6,0,0,0,.8,1.5.4.4,0,0,1-.3.7c-.8-.3-1-1.1-1.3-1.9a16.2,16.2,0,0,0-.6-2.2,2.1,2.1,0,0,0-.8-1,4.6,4.6,0,0,1-.7-.7,1.7,1.7,0,0,1,0-1.2l.9-1.6a6.2,6.2,0,0,0,.4-1.6c-.1-.2-.1-.4-.2-.6l-.3-.3a1.4,1.4,0,0,0-1.2.3,3.2,3.2,0,0,0-1.2,1.7,6.8,6.8,0,0,0-.5,2.7c0,.6.1,1.1.1,1.7a12.5,12.5,0,0,0,.5,3,2.4,2.4,0,0,1,.3.9v.2m.1-8.9c.1.3,0,.5-.2.5s-.5,0-.5-.2h.6a1.8,1.8,0,0,1-.1.5v7.8H5.9a.4.4,0,0,1-.3.7H5.5c-.2-.1-.2-.2-.2-.2v-8.2c0-.3.1-.6.1-.8v-.2a.6.6,0,0,1,.6-.1c.2.2.2.3.2.4"/><path class="cls-9" d="M17,206.9a.5.5,0,0,1,.1.6.4.4,0,0,1-.6.1h-.1l-.2.2a2.8,2.8,0,0,0-.4,1.1,2.4,2.4,0,0,0,.2,1.5,1.8,1.8,0,0,0,.8.9,1.1,1.1,0,0,0,1.1,0,3.7,3.7,0,0,0,1.5-1.4c.1-.2.4-.2.6-.1a.5.5,0,0,1,.1.6,4.9,4.9,0,0,1-1.9,1.7,2.2,2.2,0,0,1-1.8-.1,2.6,2.6,0,0,1-1.2-1.3,4,4,0,0,1-.2-1.9,3.9,3.9,0,0,1,.6-1.5,1.2,1.2,0,0,1,.5-.5,1.4,1.4,0,0,1,.9.1"/><path class="cls-9" d="M18.5,207.8c.2.2.1.4-.1.6a.3.3,0,0,1-.5-.1h.2v.2l-.2.5a.8.8,0,0,1-.8.3c-.2,0-.4-.2-.3-.4a.4.4,0,0,1,.4-.4c.1,0,0,.1,0,0s.1-.2.2-.3a.4.4,0,0,1,.1-.3l.3-.3h.5l.3.3"/><path class="cls-9" d="M22.1,208.7c-.1-.2-.1-.5.1-.6a.5.5,0,0,1,.6.2c.2.3.1.6.1.9a4.4,4.4,0,0,0-.2,1c-.1.2-.1.5,0,.5s-.1,0-.1,0h.1c.2-.1.4.1.5.3s-.1.5-.3.5h-.6a.4.4,0,0,1-.4-.4,1.7,1.7,0,0,1,0-1l.2-1.3"/><path class="cls-9" d="M22.9,206.5a.4.4,0,0,1-.7.5,2.4,2.4,0,0,1-.6-.9,1.6,1.6,0,0,1,.1-1,.4.4,0,0,1,.5-.2c.2,0,.3.3.3.5a.8.8,0,0,0-.1.4c0,.2.2.4.5.7"/><path class="cls-9" d="M28,201.9a.4.4,0,0,1-.6.6h.3c-.1.3-.1.8-.2,1.4s-.5,2.9-.6,4.2a7.8,7.8,0,0,0-.2,1.4v.6h0c.1,0-.1-.1,0-.1h-.1l.2-.3.8-.8c.5-.6.9-1.2,1.5-1.4h.6c.2,0,.3.2.4.3a3,3,0,0,1,.2,2.1,5.2,5.2,0,0,0,0,1.8c0,.2-.1.5-.3.5a.4.4,0,0,1-.5-.2,5.4,5.4,0,0,1,0-2.2,5,5,0,0,0-.1-1.5h0l-1.2,1.2-.8.8-.4.3-.5.2c-.2,0-.3-.1-.4-.3l-.2-.3v-.8c0-.4.1-1,.1-1.5s.5-2.9.7-4.2a6.1,6.1,0,0,1,.2-1.5c.1-.2.1-.4.4-.5h.4l.3.2"/><path class="cls-9" d="M36,206.5a.4.4,0,1,1-.2.8h-.3a1.5,1.5,0,0,0-.4.6,8.5,8.5,0,0,0-.4,2.2,1.1,1.1,0,0,0,.3.8l.5.2a1.2,1.2,0,0,0,.8-.4,10.4,10.4,0,0,0,1-1.4c0-.2.3-.3.5-.2a.4.4,0,0,1,.2.5,3.7,3.7,0,0,1-1.2,1.7,1.9,1.9,0,0,1-1.3.6,1.7,1.7,0,0,1-1.2-.5,2.5,2.5,0,0,1-.4-1.3,5.6,5.6,0,0,1,.5-2.5,1.8,1.8,0,0,1,.6-.9.9.9,0,0,1,1-.3"/><path class="cls-9" d="M36.3,207.5c-.2-.1-.4-.3-.3-.5s.3-.4.5-.3l.5.3c.2.1.2.4.2.6s-.1.3-.3.4a.5.5,0,0,1-.5.3.4.4,0,0,1-.5-.2c-.1-.2,0-.5.2-.5l.3-.2h-.1"/><path class="cls-9" d="M39.2,207.2c-.1-.1,0-.4.2-.5s.4-.1.5.1a1.1,1.1,0,0,1,.2.7c0,.2-.1.5-.1.7v.6h.3l.7-.6.7-.2a.7.7,0,0,1,.6.1.7.7,0,0,1,.3.7,1.3,1.3,0,0,1-.1.6,1.5,1.5,0,0,0,.2,1,.4.4,0,0,1-.2.5.5.5,0,0,1-.6-.1,4.1,4.1,0,0,1-.2-1.5,4.3,4.3,0,0,1,.1-.5.1.1,0,0,0-.1-.1h0s.1.1.1,0h-.3a1.9,1.9,0,0,1-1.1.7h-.6a1,1,0,0,1-.5-.4,1.8,1.8,0,0,1-.1-1v-.9h0"/><path class="cls-9" d="M51,207.9a.5.5,0,0,1-.5.3c-.2-.1-.4-.3-.3-.5l-.2-.3-.6-.5h-.5a1,1,0,0,0-.4.5,2.9,2.9,0,0,0,.1,1.8,6.6,6.6,0,0,1,.4,1.1,2.2,2.2,0,0,1-1.8,1.7,1.1,1.1,0,0,1-1.2-.3,1.5,1.5,0,0,1-.4-1.5.5.5,0,0,1,.5-.4.5.5,0,0,1,.3.5c-.1.5,0,.7.1.8a.6.6,0,0,0,.6.1,1.2,1.2,0,0,0,.8-.4.4.4,0,0,0,.2-.5,5.1,5.1,0,0,0-.2-.9,2.5,2.5,0,0,1-.1-2.4c.1-.4.4-.6.8-.8a1.1,1.1,0,0,1,1.1,0,1.5,1.5,0,0,1,.9.6,2.1,2.1,0,0,1,.4,1.1"/><path class="cls-9" d="M54.6,206.6a.5.5,0,0,1,.5.3c.1.2-.1.4-.3.5l-.4.4a2.9,2.9,0,0,0-.2.9,4.5,4.5,0,0,0-.1,1.1,1.3,1.3,0,0,1,.1.5h.5a6.1,6.1,0,0,0,1.4-1.6,26.1,26.1,0,0,0,2.1-4.1,20.3,20.3,0,0,0,.9-2.6,3.9,3.9,0,0,0,.1-.9s.1.1,0,.1.2.1.1.1.1,0,.1,0h0a.5.5,0,0,0-.4.3,6,6,0,0,0-.8,1.6,5,5,0,0,0-.1,2.1,4.2,4.2,0,0,0,1,1.7,6.9,6.9,0,0,1,2.1,3.1.5.5,0,0,1-.3.5.4.4,0,0,1-.5-.3c-.4-1.4-.9-1.7-1.9-2.8a4.3,4.3,0,0,1-1.2-2.1,5,5,0,0,1,.2-2.4,8.4,8.4,0,0,1,.8-1.9,2.1,2.1,0,0,1,.8-.6h.5c.2,0,.3.2.4.4a3,3,0,0,1-.1,1.3,21.3,21.3,0,0,1-.9,2.7,25,25,0,0,1-2.3,4.3,5.5,5.5,0,0,1-1.8,1.9h-.7a1,1,0,0,1-.7-.4,1.2,1.2,0,0,1-.2-.8,5.7,5.7,0,0,1,.1-1.3,2,2,0,0,1,.3-1.1,2,2,0,0,1,.9-.9"/><path class="cls-9" d="M66.7,208.6a.4.4,0,1,1-.7-.3V208h-.2l-.3.2-.6.7a1.5,1.5,0,0,0-.2.9h.2l1.6-.5a1.2,1.2,0,0,1,1,.2l.8.8a.4.4,0,0,1,0,.6h-.6l-.7-.8h-.3a4.3,4.3,0,0,1-1.9.5l-.6-.3a.9.9,0,0,1-.3-.6,1.7,1.7,0,0,1,.4-1.5,2.7,2.7,0,0,1,.7-.8c.2-.2.3-.3.5-.3h.6a1.2,1.2,0,0,1,.6.6,1.4,1.4,0,0,1,0,.9"/><path class="cls-9" d="M74.2,201.1c.2.1.4.3.3.5a.4.4,0,0,1-.5.3h.3c-.1,0,0-.1,0,0h-.1a3.9,3.9,0,0,0-.4.9,13.8,13.8,0,0,0-1.1,2.7,19.7,19.7,0,0,0-1,3.6,5.4,5.4,0,0,0,.1,2.3c.1.3.3.4.6.5a1.4,1.4,0,0,0,1.1-.1,6.2,6.2,0,0,0,2.9-2.4c.1-.2.4-.2.6-.1s.2.4.1.6a7.3,7.3,0,0,1-3.3,2.7,3.3,3.3,0,0,1-1.7.1,1.6,1.6,0,0,1-1.1-1,5.9,5.9,0,0,1-.1-2.7,17,17,0,0,1,1-3.7l1.1-2.9a4.1,4.1,0,0,0,.5-.9l.2-.3a.1.1,0,0,0,.1-.1h.4"/><path class="cls-9" d="M80.6,201.7a.6.6,0,0,1-.1.6.5.5,0,0,1-.6-.2H80l-.2.3a7.6,7.6,0,0,0-1,2.2,18.6,18.6,0,0,0-1,3.1,9,9,0,0,0-.1,2.8c0,.3.1.5.1.7h0s-.1-.1,0-.1h-.5a1.3,1.3,0,0,0-.1-.6,3.7,3.7,0,0,0-.7-1.6l-.5-.4-.3-.2c-.1-.1-.2-.1-.3-.3l.7-.4c.1,0-.1-.1-.1-.1s0-.1,0-.1h1.2a15.8,15.8,0,0,0,3-.1c.2,0,.5.1.5.3s-.1.5-.4.5a11,11,0,0,1-3.1.1H75.6s-.1,0-.2-.2a.5.5,0,0,1,.2-.6.4.4,0,0,1,.5.2c.1,0,0-.1,0-.1l.5.4.5.5a5.2,5.2,0,0,1,.9,2,1.3,1.3,0,0,1,.1.6c0,.2.1.4-.1.6l-.4.2h-.3l-.2-.3-.3-.9a11.3,11.3,0,0,1,.2-3.1,17,17,0,0,1,1-3.2,9.9,9.9,0,0,1,1.1-2.3,2,2,0,0,1,.6-.7h.6l.3.4"/><path class="cls-9" d="M83.9,206.8c.1-.2.4-.2.6-.1a.6.6,0,0,1,0,.6,3.8,3.8,0,0,0-.4,2.3c0,.4.2.5.5.6s.5.1.6,0,1-.8,1.4-1.4l.7-1c0-.1.1-.2.2-.3s.1-.2.3-.2h.3v.2c.3.5.1,1.1.2,1.5s.2.3.3.4H89l.5-.4a13.6,13.6,0,0,1,1.2-1.2c.3-.3.5-.5.8-.5a.9.9,0,0,1,.7,0l.4.4c.4.5.2,1.1.3,1.4l.2.3h.3l.8-.8a4,4,0,0,1,1.5-.9H96l.4.2a1.5,1.5,0,0,1,.2.9c0,.3-.1.6,0,.8s0,.4.1.4h.5c.2-.1.5,0,.5.2a.4.4,0,0,1-.2.6h-.8l-.6-.2a2.1,2.1,0,0,1-.4-1,2.5,2.5,0,0,1,.1-.9v-.4h0a3.3,3.3,0,0,0-1.1.8,8.7,8.7,0,0,1-1,.8,1.2,1.2,0,0,1-1,0,1.1,1.1,0,0,1-.6-.9c-.2-.5-.1-1-.2-1V208h-.1l-.4.4-1.2,1.2-.7.5-.8.2a1.4,1.4,0,0,1-1-1,9.5,9.5,0,0,1-.1-1.4h.6v.2a7.2,7.2,0,0,0-.7,1.1,4.9,4.9,0,0,1-1.8,1.7h-1a1.5,1.5,0,0,1-1.2-1.3,3.6,3.6,0,0,1,.6-2.9"/><path class="cls-9" d="M101.8,208.8a.5.5,0,0,1-.1.6.5.5,0,0,1-.6-.1h0s.1-.1,0-.1h0a4.8,4.8,0,0,0-.4,1.5,18.4,18.4,0,0,0-.2,2.6v2.4a21.7,21.7,0,0,0,.4,2.5,25.3,25.3,0,0,1,.3,4.5,6.6,6.6,0,0,1-.3,1.8l-.5.4h-.6l-.9-.6a8,8,0,0,1-1.9-1.8,4.8,4.8,0,0,1-.7-1.8,5.4,5.4,0,0,1,.9-2.6c.1-.2.4-.3.5-.1a.4.4,0,0,1,.2.5,3.4,3.4,0,0,0-.7,2.2,2.1,2.1,0,0,0,.5,1.3,6.9,6.9,0,0,0,1.7,1.7l.7.4h.1c0-.2.1-.7.1-1.5a15.5,15.5,0,0,0-.2-4.2,21.9,21.9,0,0,1-.4-2.7,9.6,9.6,0,0,1,0-2.4,19.9,19.9,0,0,1,.2-2.7,4.3,4.3,0,0,1,.5-1.9.8.8,0,0,1,1.4,0"/></g></g></g></svg>