<svg id="Ebene_1" data-name="Ebene 1" xmlns="http://www.w3.org/2000/svg" xmlns:xlink="http://www.w3.org/1999/xlink" viewBox="0 0 248.7 125.6"><defs><style>.cls-1{fill:none;}.cls-2{clip-path:url(#clip-path);}.cls-3{fill:#1749b3;}</style><clipPath id="clip-path"><rect class="cls-1" x="-153.5" y="-100.5" width="419.5" height="297.64"/></clipPath></defs><g class="cls-2"><path d="M15.8.8a.9.9,0,0,1,.9-.8.9.9,0,0,1,.8.8V16.7a.9.9,0,0,1-.8.8.9.9,0,0,1-.9-.8Z"/><path d="M16.7,1.6a.8.8,0,0,1-.9-.8.9.9,0,0,1,.9-.8H64.2a.9.9,0,0,1,.8.8.8.8,0,0,1-.8.8Z"/><path d="M63.4.8a.8.8,0,0,1,.8-.8.9.9,0,0,1,.8.8V16.7a.9.9,0,0,1-.8.8.8.8,0,0,1-.8-.8Z"/><path d="M16.7,17.5a.9.9,0,0,1-.9-.8.9.9,0,0,1,.9-.9H64.2a.9.9,0,0,1,.8.9.9.9,0,0,1-.8.8Z"/><path d="M.8,9.4A.8.8,0,0,1,0,8.6a.9.9,0,0,1,.8-.8H16.7a.9.9,0,0,1,.8.8.8.8,0,0,1-.8.8Z"/><path d="M64.2,9.3a.7.7,0,0,1-.8-.8.8.8,0,0,1,.8-.8H80a.8.8,0,0,1,.8.8.7.7,0,0,1-.8.8Z"/><path d="M15.8,32.5a.8.8,0,0,1,.9-.8.8.8,0,0,1,.8.8V48.3a.9.9,0,0,1-.8.9.9.9,0,0,1-.9-.9Z"/><path d="M16.7,33.3a.8.8,0,1,1,0-1.6H64.2a.8.8,0,0,1,0,1.6Z"/><path d="M63.4,32.5a.7.7,0,0,1,.8-.8.8.8,0,0,1,.8.8V48.3a.9.9,0,0,1-.8.9.8.8,0,0,1-.8-.9Z"/><path d="M16.7,49.2a.9.9,0,0,1-.9-.9.9.9,0,0,1,.9-.8H64.2a.9.9,0,0,1,.8.8.9.9,0,0,1-.8.9Z"/><path d="M.8,41.1a.8.8,0,0,1-.8-.8.9.9,0,0,1,.8-.8H16.7a.9.9,0,0,1,.8.8.8.8,0,0,1-.8.8Z"/><path d="M64.2,41a.8.8,0,1,1,0-1.6H80A.8.8,0,1,1,80,41Z"/><path d="M15.8,64.2a.8.8,0,0,1,.9-.8.8.8,0,0,1,.8.8V80a.8.8,0,0,1-.8.8.8.8,0,0,1-.9-.8Z"/><path d="M16.7,65a.9.9,0,0,1-.9-.8.8.8,0,0,1,.9-.8H64.2a.8.8,0,0,1,.8.8.9.9,0,0,1-.8.8Z"/><path d="M63.4,64.2a.7.7,0,0,1,.8-.8.8.8,0,0,1,.8.8V80a.8.8,0,0,1-.8.8.7.7,0,0,1-.8-.8Z"/><path d="M16.7,80.8a.8.8,0,0,1-.9-.8.9.9,0,0,1,.9-.8H64.2a.9.9,0,0,1,.8.8.8.8,0,0,1-.8.8Z"/><path d="M.8,72.8A.9.9,0,0,1,0,72a.8.8,0,0,1,.8-.8H16.7a.8.8,0,0,1,.8.8.9.9,0,0,1-.8.8Z"/><path d="M64.2,72.7a.8.8,0,0,1-.8-.8.7.7,0,0,1,.8-.8H80a.7.7,0,0,1,.8.8.8.8,0,0,1-.8.8Z"/><path d="M15.8,95.9a.9.9,0,0,1,.9-.9.9.9,0,0,1,.8.9v15.8a.8.8,0,0,1-.8.8.8.8,0,0,1-.9-.8Z"/><path d="M16.7,96.7a.9.9,0,0,1-.9-.8.9.9,0,0,1,.9-.9H64.2a.9.9,0,0,1,.8.9.9.9,0,0,1-.8.8Z"/><path d="M63.4,95.9a.8.8,0,0,1,.8-.9.9.9,0,0,1,.8.9v15.8a.8.8,0,0,1-.8.8.7.7,0,0,1-.8-.8Z"/><path d="M16.7,112.5a.8.8,0,1,1,0-1.6H64.2a.8.8,0,0,1,0,1.6Z"/><path d="M.8,104.5a.9.9,0,0,1-.8-.8.9.9,0,0,1,.8-.9H16.7a.9.9,0,0,1,.8.9.9.9,0,0,1-.8.8Z"/><path d="M64.2,104.4a.8.8,0,0,1-.8-.8.8.8,0,0,1,.8-.9H80a.8.8,0,0,1,.8.9.8.8,0,0,1-.8.8Z"/><path class="cls-3" d="M103.6,1.9a.4.4,0,0,1-.4.4.4.4,0,0,1-.4-.4h0s.1.1,0,.1h.6c-.1,0,.1-.1.1-.1s0-.1,0-.1h0V5.3a14.1,14.1,0,0,0,.1,2c0,1.3,0,2.6.1,3.8a14.2,14.2,0,0,0,.1,2.3.4.4,0,0,0,.1.3h-.2l.6-.7.9-1.6c.3-.5.7-1.1,1.1-1.9s1.9-3.6,2.9-5.2l1.2-1.8L111,2h.4a.8.8,0,0,1,.4.4c.1.2,0,.4-.3.5a.4.4,0,0,1-.5-.2c0-.1.1,0,0,0h.3l-.2.3a11.2,11.2,0,0,0-1.2,1.7L107,9.8c-.4.8-.8,1.4-1.1,1.9l-.9,1.6a2.7,2.7,0,0,1-1,1.1h-.4c-.1,0-.3-.1-.3-.2a.9.9,0,0,1-.3-.7,16.3,16.3,0,0,1-.1-2.4c-.1-1.2-.1-2.5-.1-3.7a16.2,16.2,0,0,1-.1-2.1V1.4h.2a.2.2,0,0,1,.3,0c.3.1.2.2.2.2s.1.2.1.4"/><path class="cls-3" d="M113.4,7.7a.4.4,0,0,1,.3.7,2.5,2.5,0,0,0-1.1,1.3,4.7,4.7,0,0,0-.6,2.1,3.3,3.3,0,0,0,0,1.4c0,.1.1.2.3.2h.7a3.1,3.1,0,0,0,1.5-1.5c.1-.2.3-.4.5-.3a.5.5,0,0,1,.3.5,3.6,3.6,0,0,1-2,2,1.7,1.7,0,0,1-1.2.1,1.2,1.2,0,0,1-.9-.8,3.3,3.3,0,0,1,0-1.7,5.1,5.1,0,0,1,.7-2.4c.4-.7.8-1.4,1.5-1.6"/><path class="cls-3" d="M114.5,8.9c.1.2,0,.5-.2.5s-.5,0-.5-.2h.2c-.1-.1.3-.1.2-.1s.1-.1.1-.1h0a1.3,1.3,0,0,1-1.2.7.4.4,0,0,1,0-.8c.3,0,.4-.1.4-.2h.1c0-.1,0-.2.2-.3h.5v.4"/><path class="cls-3" d="M116.5,12.4c.1-.2.3-.4.5-.3a.4.4,0,0,1,.4.4.8.8,0,0,0-.1.4h-.7v-.2l.3-1.3.3-1.1c.1-.2.2-.5.4-.6l.7-.2h2.3c.2,0,.4.1.4.3s-.1.5-.4.5l-2.2.2h-.4l-.3,1.1-.3,1.3a.4.4,0,0,0-.1.3h-.1c0,.1,0,.2-.3.3s-.4-.1-.4-.2V13h0v-.5"/><path class="cls-3" d="M128,1.6a.4.4,0,0,1,.7.3c-.1.5-.3,1-.5,1.9s-.6,3.4-1,5.1a12.7,12.7,0,0,1-.4,1.8.4.4,0,0,0-.1.3h-.1c.1.1-.1-.1,0-.1h-.2c.1.1-.2,0-.1,0h-.2l1.2-1.4a14,14,0,0,1,2-1.7,1.6,1.6,0,0,1,.9-.3,1.1,1.1,0,0,1,1,.6c.5.8.2,2,0,3.1a3.9,3.9,0,0,0-.3,1.4.5.5,0,0,0-.1.3h-.2c.2,0,.4.2.3.4s-.2.4-.5.4a.6.6,0,0,1-.4-.6v-.6a10.3,10.3,0,0,1,.4-1.4,5.4,5.4,0,0,0,.1-2.5c0-.1-.1-.2-.3-.2l-.5.2a10.9,10.9,0,0,0-1.8,1.5,9.4,9.4,0,0,1-1.2,1.4.2.2,0,0,1-.2.2h-.4l-.2-.2v-.2a.6.6,0,0,1,.1-.6,14.6,14.6,0,0,0,.4-1.7c.4-1.7.8-3.7,1-5.2a12.4,12.4,0,0,1,.6-2"/><path class="cls-3" d="M138.2,9.8a.5.5,0,0,1-.5.3c-.3-.1-.4-.3-.3-.5V9.1c-.1-.2-.1-.4-.2-.4h.1L137,9a8.8,8.8,0,0,0-1.2,1.9c-.1.4-.2.6-.1.7h-.1c.1,0-.1-.1,0-.1h-.1l1.2-.6c.2-.1.4-.3.6-.3a.6.6,0,0,1,.7.1c.1.2.2.3.2.5a5.6,5.6,0,0,1,0,1.3v.3h0c.2-.1.4.1.5.3a.5.5,0,0,1-.4.5h-.5l-.3-.3a1.7,1.7,0,0,1-.1-.7,4,4,0,0,0,0-1.1h.2l-.5.3a2.6,2.6,0,0,1-1.5.7c-.2,0-.4,0-.5-.2s-.2-.2-.2-.3a2.6,2.6,0,0,1,.1-1.2,16.4,16.4,0,0,1,1.4-2.2L137,8a.8.8,0,0,1,.8.1,2,2,0,0,1,.4.8v.9"/><path class="cls-3" d="M138.7,3.5a.4.4,0,0,1,.7.3h-.1l-.4.5c-.2.2-.5.2-.6,0a.3.3,0,0,1,0-.5c.2-.3.3-.5.4-.5h0c.1,0,0,.1,0,.1h0m-.4-1.8c.1-.2.4-.2.6-.1s.2.4,0,.6a4.7,4.7,0,0,0-.7,1.2l-.2.4v.3h-.1l.2-.2.7-.5s-.1,0,.1-.1.5,0,.5.2a.5.5,0,0,1-.2.6h.1l-.7.6-.4.2h-.7a.8.8,0,0,1-.2-.5,1.1,1.1,0,0,1-.1-.5,1.4,1.4,0,0,1,.2-.7,6.7,6.7,0,0,1,.9-1.4"/><path class="cls-3" d="M138.6,1.9a.5.5,0,0,1,.6-.2.5.5,0,0,1,.1.6l-1.1,1.5-.4.6c0,.1,0,.2-.1.2h0a.4.4,0,1,1-.7.3c-.2-.3,0-.6.1-.8s.3-.5.4-.8a11,11,0,0,0,1.1-1.4"/><path class="cls-3" d="M139.8,2.2a.3.3,0,0,1,.5.1.3.3,0,0,1,0,.5,6,6,0,0,0-1.6,2.3.5.5,0,0,1-.5.4c-.2,0-.3-.2-.3-.5a2.6,2.6,0,0,1,.7-1.5,7.7,7.7,0,0,1,1.2-1.3"/><path class="cls-3" d="M146,2.7c-.2-.1-.2-.4,0-.6a.5.5,0,0,1,.5,0,.6.6,0,0,1,.2.5.4.4,0,0,1-.1.3,1.1,1.1,0,0,1-.3.7,18.9,18.9,0,0,1-1,2.1,20.6,20.6,0,0,0-1.2,2.6,6.4,6.4,0,0,0-.8,2,1.5,1.5,0,0,0-.1,1.1c0,.2.1.3.4.4h1.5a.4.4,0,0,1,.5.3.5.5,0,0,1-.3.5h-1.9a1.3,1.3,0,0,1-1-1c-.3-.9.2-2.1.9-3.7l1.2-2.6a21.9,21.9,0,0,0,1.1-2l.2-.6c.1-.1.1-.1.1-.2h.1"/><path class="cls-3" d="M149,13.1c0,.2-.2.3-.5.3a.5.5,0,0,1-.3-.5h0a4.9,4.9,0,0,0,.1-1.3,5.3,5.3,0,0,0,.1-1.2,1.3,1.3,0,0,0,.1-.5l-.2-.2h-.1c0-.1-.1-.2,0-.4s.2-.2.3-.3h.4a11,11,0,0,0,3.5-.3.4.4,0,0,1,.5.2c.1.2,0,.5-.2.5a7.8,7.8,0,0,1-3.9.4h.2c-.1,0,0-.2,0-.2s-.1-.1-.1-.1,0-.1,0,0h0c0,.1.3.3.4.6v.7c-.1.4-.1.9-.2,1.3a5.3,5.3,0,0,1-.1,1.3h0m4.5-9.4c0,.2-.2.3-.5.3a.5.5,0,0,1-.3-.5h0s.1.1,0,.1h.1c0-.1.2.1.1.1s.3.1.2,0h.2c0,.1-.2.3-.3.6a21.5,21.5,0,0,0-1.4,2.7,38.1,38.1,0,0,0-2,4.1c-.2.7-.4,1.2-.5,1.5s-.1.3-.1.4-.2.3-.5.3a.5.5,0,0,1-.3-.5h0c0-.1.1-.2.1-.4a11.6,11.6,0,0,1,.6-1.6c.5-1.2,1.2-2.8,1.9-4.2s1.1-2,1.4-2.7l.5-.7c0-.1.1-.1.1-.2s.3-.1.5,0,.2.3.2.4v.2"/><path class="cls-3" d="M155.6,8.5c.1-.2.4-.2.6-.1a.5.5,0,0,1,.1.6,5.3,5.3,0,0,0-.7,1.5,4.1,4.1,0,0,0-.3.8h-.1s-.2-.1-.1-.1-.1,0-.1,0h-.1c.1,0,.1-.1.2-.2l.5-.6A6.9,6.9,0,0,1,157,9.3a1.1,1.1,0,0,1,.8-.1l.4.4v.5a4.5,4.5,0,0,1-.1,1.1l-.2,1.7a.4.4,0,0,1-.4.4c-.2.1-.4-.1-.5-.3s.1-.5.1-.8a3.6,3.6,0,0,0,.2-1.1,3.8,3.8,0,0,0,.1-1V9.9h0l-1.2,1-.4.6a1.3,1.3,0,0,1-.7.5h-.4c-.1-.1-.2-.2-.2-.3s0-.4,0-.6l.3-.9a13.8,13.8,0,0,1,.8-1.7"/><path class="cls-3" d="M162.9,10.1c0-.2.1-.5.4-.5s.4.1.4.3-.2.9-.4,1.4a3,3,0,0,0-.6,1.1c-.1.2-.3.4-.5.3a.4.4,0,0,1-.3-.5,7.5,7.5,0,0,1,.6-1.3l.4-.6v-.2h0"/><path class="cls-3" d="M165.3,8.7c-.2.1-.4.2-.6,0a.3.3,0,0,1-.1-.5h0s.1.2,0,.2h-.2V8.3h0c.1.2-.1.4-.3.4s-.4-.1-.5-.3a.5.5,0,0,1,.2-.4h.8a.6.6,0,0,1,.5.2.5.5,0,0,1,.2.4.6.6,0,0,1-.1.4"/><path class="cls-3" d="M170.9,6.9c.1.2.1.5-.1.6a.6.6,0,0,1-.6-.1c0-.1,0-.1-.1-.1h-.4a2.1,2.1,0,0,0-1.1.4A1.6,1.6,0,0,0,168,9c0,.5.6,1.1,1.1,1.6a1.4,1.4,0,0,1,.6,1,.9.9,0,0,1-.4.9l-.9.6a3.2,3.2,0,0,1-2.1.3c-.3-.1-.4-.3-.3-.5s.2-.3.5-.3a2.6,2.6,0,0,0,1.6-.3l.7-.4a.3.3,0,0,0,.1-.2c0-.1-.1-.3-.4-.6S167.2,10,167.2,9a2.1,2.1,0,0,1,.9-1.9,2,2,0,0,1,1.5-.6h.7c.2.1.5.2.6.4"/><path class="cls-3" d="M187,12.2c.2-.1.5,0,.5.2s0,.5-.2.5l-.7.3h-.3a.8.8,0,0,1-.2-.4l.2-.3.2-.2,2-1.8,3.2-3.1L195,4.4a11.3,11.3,0,0,1,1.6-1.3l.5-.2a.7.7,0,0,1,.5.4,1.8,1.8,0,0,1-.1,1L196.4,6c-1.4,2.2-2.9,4.9-2.7,5.9a.5.5,0,0,1-.9.1,6.4,6.4,0,0,1,.9-2.9,39.7,39.7,0,0,1,2-3.5,18.1,18.1,0,0,0,1-1.7.4.4,0,0,0,.1-.3h.2L195.6,5a40.3,40.3,0,0,0-3.3,2.9L189,11a17.9,17.9,0,0,0-1.9,1.8h-.2s.1-.2.1-.1v-.2c.1,0-.1-.2-.1-.2h.2"/><path class="cls-3" d="M205.2,8.4c.1.2,0,.4-.2.6a.4.4,0,0,1-.5-.2h0l-.5.4a.9.9,0,0,0-.3.5h0c.1,0,.4-.3.7-.7l.4-.4h-.1s.1.2,0,.2h.1l-.3.2h0a.4.4,0,0,1-.4.4c-.2.1-.4-.1-.4-.3a.6.6,0,0,1,.3-.7.5.5,0,0,1,.5-.3h.6c.1,0,.2,0,.4.2s0,.4,0,.6l-.5.5a2.5,2.5,0,0,1-1.1.9.7.7,0,0,1-1-.8,1.6,1.6,0,0,1,.5-1,2.4,2.4,0,0,1,.8-.6h.4a.7.7,0,0,1,.6.3"/><path class="cls-3" d="M202.9,12.8a.4.4,0,1,1,0,.8h-.2c0,.1-.1.2-.1.3a1.3,1.3,0,0,0-.1.6h.3l.9-.4.3-.3h-.1l-.4.2-.3.3c0,.2-.3.3-.5.3a.5.5,0,0,1-.3-.5,1.9,1.9,0,0,1,.7-.8,1.2,1.2,0,0,1,1-.3l.5.3.2.3a.6.6,0,0,1-.1.4l-.4.6a2.5,2.5,0,0,1-1.6.6.7.7,0,0,1-.6-.2.7.7,0,0,1-.4-.6,2.8,2.8,0,0,1,.1-.9,1.3,1.3,0,0,1,.4-.7.8.8,0,0,1,.7-.3"/><path class="cls-3" d="M216.6,5.5a.4.4,0,0,1-.5.2.5.5,0,0,1-.2-.6,1.4,1.4,0,0,1,.8-.5h1.1a10.7,10.7,0,0,1,2.5.3c.7.2,1.3.4,1.5,1a1.2,1.2,0,0,1,.1,1.2,3.8,3.8,0,0,1-1.5,1.3l-1.7.9-.4.2h0s-.1.1,0,.3a3.1,3.1,0,0,0,.2.8l1,2c.2.4.6.7.7,1.3a1.3,1.3,0,0,1-.1.6,1.2,1.2,0,0,1-.5.5,4.9,4.9,0,0,1-2.5.5,5.9,5.9,0,0,0-2.2.2c-.3,0-.5-.1-.5-.3s0-.5.2-.5a8.6,8.6,0,0,1,2.4-.2,7.8,7.8,0,0,0,2.2-.4h.1v-.2a5.2,5.2,0,0,1-.7-1.1l-1-2-.3-1a1.2,1.2,0,0,1,.3-1l.6-.3,1.7-.9c.5-.4,1.1-.7,1.1-.9a.6.6,0,0,0,0-.6c-.1-.2-.4-.4-1-.5a9.1,9.1,0,0,0-2.3-.3h-1.2"/><path class="cls-3" d="M33.8,36.5c.2.1.4.3.3.5s-.2.4-.4.3h.1l-.4.3a4.6,4.6,0,0,0-.7.7v.2h0a1.2,1.2,0,0,0,.8.5,4.8,4.8,0,0,1,2,1.7,1.6,1.6,0,0,1,0,.7,1.4,1.4,0,0,1-.8.9,3.8,3.8,0,0,1-1.3.6,16.1,16.1,0,0,1-2.5.3c-.2.1-.4-.1-.5-.3s.1-.4.3-.5a22.4,22.4,0,0,0,2.4-.3l1.1-.5.6-.5h-.1a3.2,3.2,0,0,0-1.5-1.3,3,3,0,0,1-1.1-.7.9.9,0,0,1-.3-.6.9.9,0,0,1,.3-.7,3,3,0,0,1,.8-.8l.5-.4h.1s0-.1.3-.1m.1.8a.5.5,0,0,1-.6-.1.3.3,0,0,1,.1-.5h0s-.1.2-.1.1a.5.5,0,0,1,.5-.3c.2.1.4.3.3.5s-.1.2-.1.2h-.1"/><path class="cls-3" d="M34.4,37.1a.3.3,0,0,1-.3.5.5.5,0,0,1-.5-.3v-.6a.7.7,0,0,1,.5-.4c.4-.1.6.1.9.2s4.5-.1,6.5-.3a.4.4,0,0,1,.4.4.4.4,0,0,1-.4.4c-1.9.2-5,.7-6.7.2h-.4c-.1.1,0-.1,0-.1v.2"/><path class="cls-3" d="M42.2,38a.4.4,0,0,1-.5-.2c-.2-.2-.1-.4.1-.5a1.7,1.7,0,0,1,1.4-.3l1.2.5.5.4a.9.9,0,0,1,.3.7,1.5,1.5,0,0,1-.6,1A19.1,19.1,0,0,1,42.5,41a8,8,0,0,0-2,1.4h-.1l.6.3,2.4.3a.5.5,0,0,1,.4.5c0,.2-.2.4-.4.3a7.7,7.7,0,0,1-2.7-.4,1.6,1.6,0,0,1-.9-.5.8.8,0,0,1-.2-.5.5.5,0,0,1,.3-.5,8.9,8.9,0,0,1,2.2-1.6l2-1.3.3-.4h-.1l-.4-.3a1.9,1.9,0,0,0-.9-.4,1.1,1.1,0,0,0-.8.2"/><path class="cls-3" d="M48.6,38.9a.5.5,0,0,1,.4.5.5.5,0,0,1-.5.3h0c-.1.1-.3.2-.4.4a3.4,3.4,0,0,0-.9,1.2,1.5,1.5,0,0,0-.1,1.1,1,1,0,0,0,.9.4,2.4,2.4,0,0,0,1.7-.7,6.8,6.8,0,0,0,1.8-1.5,2,2,0,0,0,.5-.9v-.2a1.5,1.5,0,0,0-.8-.2,3.3,3.3,0,0,0-2.4.7.6.6,0,0,1-.6-.1c-.1-.2-.1-.5.1-.6a4.4,4.4,0,0,1,3-.8,2,2,0,0,1,1.1.3,1.1,1.1,0,0,1,.5,1.1,2.5,2.5,0,0,1-.7,1.2,10.5,10.5,0,0,1-1.9,1.7,3.6,3.6,0,0,1-2.3.8,1.8,1.8,0,0,1-1.5-.8,1.9,1.9,0,0,1,.1-1.8,7.5,7.5,0,0,1,.9-1.5l.6-.5a.6.6,0,0,1,.6-.2"/><path class="cls-3" d="M29.1,68.2c.2.1.2.3.1.5a.4.4,0,0,1-.5.2l-.2-.2a.4.4,0,0,1-.1-.5l.3-.2h1a2.6,2.6,0,0,1,1.3.6,2,2,0,0,1,.8,1.2,2.2,2.2,0,0,1-.4,1.3,10.2,10.2,0,0,1-2.3,1.5l-.9.6a.1.1,0,0,0-.1.1h0c0,.1-.2-.2-.1-.1h1.1a7.3,7.3,0,0,1,3.5.5.4.4,0,1,1-.3.7,7.1,7.1,0,0,0-3.2-.4c-.5,0-1,.3-1.6,0a.5.5,0,0,1-.2-.4c-.1-.1,0-.3,0-.4a1,1,0,0,1,.4-.5l1-.6a9.5,9.5,0,0,0,2.1-1.4.7.7,0,0,0,.2-.6,1.3,1.3,0,0,0-.5-.6,1.1,1.1,0,0,0-.9-.4h-.5c-.1.1.1-.1,0-.1s.1-.3.1-.2v-.2h0"/><path class="cls-3" d="M36.1,68.9c.1-.2.4-.2.6-.1s.2.3.1.5.1,0,.1,0h0v.2a2,2,0,0,1-.1.7l-.3,2a6.9,6.9,0,0,0-.2,1.3v.6s-.1-.1,0-.1H36l.7-.7c1.2-1.4,2.2-3.2,3.8-3.8a.4.4,0,1,1,.3.7c-1.2.5-2.2,2.2-3.5,3.6l-.8.8-.5.2h-.4a.8.8,0,0,1-.2-.4c-.1-.3,0-.5,0-.9a7.8,7.8,0,0,1,.2-1.4l.3-2a1.7,1.7,0,0,0,.1-.7.3.3,0,0,0,.1-.2s-.1.1,0-.2"/><path class="cls-3" d="M38.5,72.9c0-.3.1-.5.3-.5a.4.4,0,0,1,.5.3,13.3,13.3,0,0,1,0,2,2,2,0,0,0,.4,1.4c.2.1.2.4,0,.6h-.6a3,3,0,0,1-.6-2,10.7,10.7,0,0,0,0-1.8"/><path class="cls-3" d="M44.4,70.1a.5.5,0,0,1-.5-.3c0-.2.1-.5.3-.5a2.3,2.3,0,0,1,1.9.4,1.1,1.1,0,0,1,.3.7,1.1,1.1,0,0,1-.1.8,6,6,0,0,1-.9,1.5l-.9,1.2h0l.6.3a6.1,6.1,0,0,0,2.7,0c.2,0,.5.1.5.3s-.1.5-.3.5a8,8,0,0,1-3.1,0,1.7,1.7,0,0,1-1-.6.7.7,0,0,1-.2-.6.7.7,0,0,1,.1-.5,6.4,6.4,0,0,1,1-1.3,5.6,5.6,0,0,0,.7-1.3.8.8,0,0,0,.1-.4h0a1.6,1.6,0,0,0-1.2-.3"/><path class="cls-3" d="M26.1,105.8c.1-.2.4-.1.5.1s.1.5-.1.6h-.6c-.2-.1-.2-.4-.2-.5v-.2a.1.1,0,0,0,.1-.1l.7-.6,3.7-3.3,1.8-1.3c.3-.1.5-.3.9-.2a.6.6,0,0,1,.4.6c0,.2-.1.4-.1.6a12.1,12.1,0,0,1-.5,1.4l-.5,1.3a.8.8,0,0,0-.1.4h0s-.2-.3-.1-.2h-.3a.4.4,0,1,1,0,.8.4.4,0,0,1-.4-.4v-.2c0-.2.1-.3.1-.5a5.8,5.8,0,0,0,.5-1.4,11.2,11.2,0,0,0,.5-1.3.4.4,0,0,1,.1-.3h0s.2.1.1.1h-.3l-1.6,1.2-3.6,3.3-.7.6h.1V106c.1.1-.2-.2-.1-.2s-.2,0-.1,0h-.1"/><path class="cls-3" d="M35.6,106.4a.4.4,0,0,1-.2.5.5.5,0,0,1-.6-.2,1.9,1.9,0,0,1,0-1.3l.7-1.1,1.3-1.9.6-.8.6-.3h.3l.4.2a.6.6,0,0,1,.2.5c0,.2,0,.3-.1.4a2.9,2.9,0,0,1-.2.9,4.3,4.3,0,0,1-.1.5h-.1l.7-.6,1.1-.8a.9.9,0,0,1,.7-.3.7.7,0,0,1,.6.3.7.7,0,0,1,.1.5,2,2,0,0,1,0,1.1,18.6,18.6,0,0,0-.1,2.2.5.5,0,0,1-.5.4.4.4,0,0,1-.4-.4c0-.6.2-1.5.2-2.3s.1-.7,0-.9v-.2s.1.1,0,.1H41l-.4.2-1,.7a2.4,2.4,0,0,1-.9.8c-.2,0-.4.1-.6,0a.8.8,0,0,1-.4-.6c0-.2.1-.5.1-.7a3.1,3.1,0,0,0,.2-.8.4.4,0,0,0,.1-.3h0s.1.1,0,.1h.2l-.3.2-.5.7-1.3,1.8a3.7,3.7,0,0,0-.6,1,.8.8,0,0,0,0,.7"/><path class="cls-3" d="M46,101.8a.5.5,0,0,1-.3-.5c.1-.3.3-.4.5-.3l1.9-.2a1.2,1.2,0,0,1,1.2.7.8.8,0,0,1,.1.8,1.6,1.6,0,0,1-.3.9l-1,1.8c-.3.5-.5,1-.7,1.4a4.3,4.3,0,0,1-.1.5,1,1,0,0,0-.1.4h0s-.1-.1,0-.1h-.5a.4.4,0,0,1,.5.2c.2.1.1.4-.1.5h-.6a.4.4,0,0,1-.1-.3h0a1.3,1.3,0,0,1,.1-.6,1.4,1.4,0,0,1,.2-.6,10.1,10.1,0,0,1,.7-1.5l1-1.8.2-.6c.1-.2,0-.3,0-.4h-.5a14.1,14.1,0,0,1-2.1.1"/><path class="cls-3" d="M46.3,105.2c.2.1.2.3.1.5a.4.4,0,0,1-.6.1c-.2-.1-.3-.3-.5-.3h-.1c0-.1,0,0-.2-.2v-.3a.5.5,0,0,1,.4-.3H46a6,6,0,0,0,3.1.2c.2-.1.4,0,.5.3s-.1.4-.3.4a6.5,6.5,0,0,1-3.5-.1l-.4-.2h.3c-.1,0,.1-.2.1-.1v-.4c0,.1-.1-.1-.1,0s0-.1,0-.1l.6.5"/><path class="cls-3" d="M108.2,37a.3.3,0,0,1-.5,0,.3.3,0,0,1-.1-.5h0s-.1.2-.1.1.1.3.1.2.2.2.1.2.2,0,.1,0h-.1l-.9.7-.3.5h0l.3.2,1.4.3a3.8,3.8,0,0,1,1.6.6,2,2,0,0,1,.5.9,1.5,1.5,0,0,1-.5,1.3,3.5,3.5,0,0,1-1.4.6,5.5,5.5,0,0,1-2.8.2.4.4,0,0,1-.4-.4.5.5,0,0,1,.5-.4,5.6,5.6,0,0,0,2.5-.2,2.3,2.3,0,0,0,1-.5.5.5,0,0,0,.3-.4c-.1-.2-.1-.4-.2-.4a2.7,2.7,0,0,0-1.3-.5l-1.4-.4a.6.6,0,0,1-.6-.3c-.2-.2-.4-.5-.3-.7a2.2,2.2,0,0,1,.5-.8,4.4,4.4,0,0,1,1.1-.9l.5-.2h.2q.1,0,.3.3c.2.3,0,.4-.1.5"/><path class="cls-3" d="M108.4,37a.5.5,0,0,1-.5.3c-.3-.1-.4-.3-.3-.5a1.2,1.2,0,0,1,.8-.9,3.3,3.3,0,0,1,1.5-.3,36.3,36.3,0,0,1,4.4.2.7.7,0,0,1,.4.5.5.5,0,0,1-.5.4,22.8,22.8,0,0,0-4.2-.3,2.9,2.9,0,0,0-1.2.2c-.3.1-.4.3-.4.4"/><path class="cls-3" d="M117.1,37.9a.5.5,0,0,1-.5-.4.5.5,0,0,1,.3-.5,5.9,5.9,0,0,1,2.5.4,2.6,2.6,0,0,1,1.1.7,1.2,1.2,0,0,1,.1,1l-.6.9-1.9,1.6a7.9,7.9,0,0,0-1.9,1.9.4.4,0,0,0,.1.3h3c.3,0,.4.2.4.5s-.2.3-.5.3h-2.8a2,2,0,0,1-.8-.4,2.9,2.9,0,0,1-.2-.9c.1-1,1.2-1.6,2.2-2.4l1.8-1.6.4-.6v-.2l-.7-.4a3.9,3.9,0,0,0-2-.3"/><path class="cls-3" d="M125.4,39.5a.4.4,0,1,1-.3.7h-.3l-.3.2a2.7,2.7,0,0,0-.8,1,2.6,2.6,0,0,0-.3,1c.1.2.1.3.2.3l.6.3,1.9-.3a8.9,8.9,0,0,0,2.2-1.6,1.4,1.4,0,0,0,.4-.8v-.2l-.5-.2a4.8,4.8,0,0,0-2.9.4c-.2.1-.5.1-.6-.1a.7.7,0,0,1,.1-.6,5.6,5.6,0,0,1,3.6-.5l.9.4a1.1,1.1,0,0,1,.3.8,2.4,2.4,0,0,1-.7,1.3,6.7,6.7,0,0,1-2.5,1.8,4.9,4.9,0,0,1-2.3.4l-1-.4a2.2,2.2,0,0,1-.5-.8,3.6,3.6,0,0,1,1.4-2.8l.6-.4h.8"/><path class="cls-3" d="M144.8,38.7a.4.4,0,0,1-.6,0,.3.3,0,0,1-.1-.5h.1c0-.1-.1-.1-.2-.2a3.7,3.7,0,0,0-1.5-.1l-.7.2a.1.1,0,0,0,0,.2l.5.5,1,.8a2.3,2.3,0,0,1,.7,1.9,2.5,2.5,0,0,1-.6,1.4,6.1,6.1,0,0,1-1.4.7,3,3,0,0,1-1.6-.2,2.3,2.3,0,0,1-1.3-1.1.4.4,0,0,1,.2-.5c.2-.1.4-.1.5.1a2.3,2.3,0,0,0,.9.8h1.1l1-.5a1.5,1.5,0,0,0,.4-.9,1.5,1.5,0,0,0-.5-1.2l-.9-.8a1.2,1.2,0,0,1-.8-1,.6.6,0,0,1,.1-.7c.3-.5.8-.5,1.3-.6a3.6,3.6,0,0,1,1.8.2c.3.1.6.2.7.5a.7.7,0,0,1,.1.5.8.8,0,0,1-.2.4"/><path class="cls-3" d="M144.2,39c-.2-.1-.4-.3-.3-.5s.2-.4.4-.3a6.4,6.4,0,0,1,3.2.3c.4.1.6.4.8.8a1.8,1.8,0,0,1,.2,1,4.5,4.5,0,0,1-1.4,2.3l-.7.6c-.2.1-.2.2-.2.2h.1l.5.2c.7.3,2.3,0,3.9.3a.4.4,0,0,1,.4.4.7.7,0,0,1-.5.4c-1.5-.3-3,.1-4.1-.3l-.7-.4a.8.8,0,0,1-.4-.6,1.3,1.3,0,0,1,.4-.9l.7-.6a5.3,5.3,0,0,0,1.2-1.7,1.5,1.5,0,0,0-.1-.7c-.1-.2-.3-.3-.4-.4a3.9,3.9,0,0,0-1.6-.2h-1.4"/><path class="cls-3" d="M104.2,68.9a.5.5,0,0,1-.6.2.4.4,0,0,1-.2-.6,1,1,0,0,1,.5-.4l.6-.3h1.3a.5.5,0,0,1,.5.3.7.7,0,0,1,.2.6,2.6,2.6,0,0,1-.7,1.6,10.7,10.7,0,0,1-1.4,1.6l-.9,1.1c-.2.2-.4.3-.4.4v.2h.5a10.6,10.6,0,0,0,2.9-.3.4.4,0,0,1,.5.3.4.4,0,0,1-.2.5,9.9,9.9,0,0,1-3.2.3h-.4a.7.7,0,0,1-.6-.2.5.5,0,0,1-.3-.5,1.4,1.4,0,0,1,.2-.6l.5-.6.9-1c.9-1,1.9-2.2,1.9-2.7h-1l-.4.2c-.1,0-.1,0-.1.1"/><path class="cls-3" d="M109.5,73.9c-.1-.2.1-.4.3-.5a.5.5,0,0,1,.5.3,3.1,3.1,0,0,1-.4,1.7,1.3,1.3,0,0,0-.1.6c0,.1,0,.2.1.2s.2.4,0,.6-.4.2-.6.1a1.8,1.8,0,0,1-.4-.9c.1-.4.1-.6.2-.9a5.4,5.4,0,0,0,.4-1.2"/><path class="cls-3" d="M116.4,69.1a.4.4,0,0,1,0-.8,3,3,0,0,1,1.3.2,1.6,1.6,0,0,1,1.2.8,1.1,1.1,0,0,1,0,.8l-.4.7-1.3,1.4-1.5,1.5h0c0,.1-.1-.1-.1-.1h.9a7.4,7.4,0,0,1,2.9.2.4.4,0,0,1,.3.5c0,.2-.3.3-.5.3a8,8,0,0,0-2.7-.2h-1.2c-.1-.1-.3-.1-.4-.4a1.2,1.2,0,0,1,.1-.8,12,12,0,0,1,1.6-1.7,7.1,7.1,0,0,0,1.2-1.3.9.9,0,0,0,.3-.5v-.2c0-.1-.3-.3-.6-.4h-1.1"/><path class="cls-3" d="M125.8,69a.3.3,0,0,1,.3-.5c.2-.1.4.1.5.3a4.7,4.7,0,0,1-.2,1.6c-.2.7-.5,1.4-.7,2s-.2,1.3-.3,1.7-.1.6,0,.8v.3h-.2l.6-.5a15.2,15.2,0,0,0,1.7-1.8l2-2.3.9-.6a1.7,1.7,0,0,1,1-.1c.2.1.4.3.3.5s-.3.4-.5.3h-.5c-.2,0-.4.2-.7.4s-1.1,1.3-1.9,2.3-1.1,1.4-1.7,1.9l-.8.5h-.4c-.1,0-.2.1-.3,0l-.3-.2a1.1,1.1,0,0,1-.1-.5h.1a1.7,1.7,0,0,1,0-1,7.4,7.4,0,0,1,.4-1.8,27.8,27.8,0,0,0,.8-3.2"/><path class="cls-3" d="M128.8,73.1a.5.5,0,0,1,.5-.4.3.3,0,0,1,.3.5,8.6,8.6,0,0,0-.1,1.6.8.8,0,0,0,.2.6c.1.2.3.3.7.3a.4.4,0,0,1,.4.4.5.5,0,0,1-.5.4,1.7,1.7,0,0,1-1.2-.5,1.5,1.5,0,0,1-.4-1.1,9.2,9.2,0,0,1,.1-1.8"/><path class="cls-3" d="M142.3,71a.5.5,0,0,1-.5.3c-.2-.1-.4-.3-.3-.5a1.3,1.3,0,0,0-.1-.6.7.7,0,0,0-.5-.4l-1.5.3-.8.5h0l.2.3a3.5,3.5,0,0,1,.7.9,1.7,1.7,0,0,1,.3,1.4,2.3,2.3,0,0,1-.7,1l-1.2.6a2.3,2.3,0,0,1-1.4.2,1.4,1.4,0,0,1-1.1-.6c-.1-.2-.1-.5.1-.6s.5-.1.6.1a.5.5,0,0,0,.5.3h1a3.3,3.3,0,0,0,1-.6c.2-.2.4-.4.4-.5a1.1,1.1,0,0,0-.1-.8l-.8-.8-.3-.6a1.3,1.3,0,0,1,.2-.8,2.4,2.4,0,0,1,1.1-.8,4.4,4.4,0,0,1,2-.3,1.6,1.6,0,0,1,1,.8,2.5,2.5,0,0,1,.2,1.2"/><path class="cls-3" d="M141,70.7c-.2.1-.5.1-.6-.1s-.1-.4,0-.6a1.7,1.7,0,0,1,1.4-.3,2,2,0,0,1,1.4.6,1.5,1.5,0,0,1,.4,1.3,2.8,2.8,0,0,1-.4,1.2c-.4.6-1.1.9-1.4,1.3l-.3.4c-.1.1,0,.2.1.3a1,1,0,0,0,.7.5,4.6,4.6,0,0,0,2.7.2c.2,0,.4.1.4.3a.3.3,0,0,1-.3.5,4.9,4.9,0,0,1-3.2-.3,2.3,2.3,0,0,1-1-.7,1.4,1.4,0,0,1-.2-1.1,1.8,1.8,0,0,1,.5-.7,15.4,15.4,0,0,0,1.3-1.2,1.3,1.3,0,0,0,.3-.8c0-.3,0-.5-.2-.6a1.3,1.3,0,0,0-.9-.4l-.7.2"/><path class="cls-3" d="M157.2,75.5a.5.5,0,0,1,.6-.1.4.4,0,0,1,0,.6l-1,2.2a7.1,7.1,0,0,0-.8,2.5.5.5,0,0,1-.3.6.5.5,0,0,1-.5-.3,2.3,2.3,0,0,1,.2-1.4,12.7,12.7,0,0,1,.6-1.8c.3-.5.5-1.1.8-1.5a5.6,5.6,0,0,1,.4-.8"/><path class="cls-3" d="M166.3,69.1a.4.4,0,0,1,.4-.4.4.4,0,0,1,.4.4s0,.1.2.2l.5.3.9.2a.8.8,0,0,1,.5.7.4.4,0,0,1-.1.5l-.2.3a2.7,2.7,0,0,1-.8.7l-1.8,1.3-.9,1.1a.5.5,0,0,0-.1.3h1.1l2.1-.4a.4.4,0,0,1,.4.4c.1.2-.1.4-.3.5l-2.1.3h-.9c-.3-.1-.6-.1-.8-.3a.9.9,0,0,1-.3-.6,1.2,1.2,0,0,1,.2-.8,5.8,5.8,0,0,1,1.1-1.3c.5-.5,1.2-.9,1.8-1.4l.7-.5a.3.3,0,0,0,.1-.2h0l-.8-.2-.9-.4a1.3,1.3,0,0,1-.4-.9"/><path class="cls-3" d="M173.6,71c-.3,0-.5-.1-.5-.4s.1-.4.3-.4a4.1,4.1,0,0,1,1.6.2l.6.2c.3.1.5.2.5.5a.9.9,0,0,1-.1.7c-.4.6-1.3,1-1.9,1.5a4.2,4.2,0,0,0-1.3,1.4v.2h1.9a.5.5,0,0,1,.5.4.4.4,0,0,1-.4.4,4.1,4.1,0,0,1-2.2,0,1.2,1.2,0,0,1-.6-.6,1.4,1.4,0,0,1,.1-.9,7.3,7.3,0,0,1,1.5-1.7,10.2,10.2,0,0,0,1.7-1.3h.1l-.7-.2a1.7,1.7,0,0,0-1.1-.2"/><path class="cls-3" d="M180.7,71.5c.2.1.4.3.3.5s-.3.4-.5.3l-.5.3a1.8,1.8,0,0,0-.7.8,1.3,1.3,0,0,0-.2.8,1.2,1.2,0,0,0,.5.5,2.5,2.5,0,0,0,1.8-.5,8.3,8.3,0,0,0,2.1-1.6,3.7,3.7,0,0,0,.6-1v-.3l-.3-.2h-2.6c0,.2-.2.4-.4.3a.4.4,0,0,1-.4-.4.7.7,0,0,1,.3-.6l.6-.3h1.4a2.3,2.3,0,0,1,1.4.1,1.8,1.8,0,0,1,.7.5,1.4,1.4,0,0,1,.1.9,4.1,4.1,0,0,1-.8,1.4,14.1,14.1,0,0,1-2.3,1.8,3.4,3.4,0,0,1-2.5.5,1.5,1.5,0,0,1-.9-1,1.7,1.7,0,0,1,.1-1.4,3.8,3.8,0,0,1,.9-1.2,1.6,1.6,0,0,1,1.3-.4"/><path class="cls-3" d="M188.4,70.9c.2-.1.4.1.5.3a.5.5,0,0,1-.3.5,3.5,3.5,0,0,0-1.7,1.7,1.4,1.4,0,0,0-.2,1v.2a3.4,3.4,0,0,0,1.7-.1,4.5,4.5,0,0,0,2.3-1.9.8.8,0,0,0,.1-.3v-.2a10.6,10.6,0,0,0-2.6-.1.4.4,0,0,1-.4-.4.4.4,0,0,1,.4-.4h1.4a2.7,2.7,0,0,1,1.6.3.9.9,0,0,1,.4.7,1.1,1.1,0,0,1-.1.8,5.4,5.4,0,0,1-2.9,2.4,3,3,0,0,1-2.3,0,.9.9,0,0,1-.4-.7,2.4,2.4,0,0,1,.3-1.6,3.8,3.8,0,0,1,2.2-2.1"/><path class="cls-3" d="M203.4,70c0,.2-.3.3-.5.3a.5.5,0,0,1-.3-.5h-.1l-.5-.3h-.5a1.5,1.5,0,0,1-.7,0,1.7,1.7,0,0,0-.6.8c-.1.2,0,.4.2.7l.7,1.1a1.4,1.4,0,0,1-.2,1.6,2.4,2.4,0,0,1-2.1.8,2.2,2.2,0,0,1-1.1-.5,1.5,1.5,0,0,1-.5-1.3.4.4,0,0,1,.8,0,1.4,1.4,0,0,0,.2.7l.7.2a1.7,1.7,0,0,0,1.4-.4.8.8,0,0,0,.1-.8l-.7-.9a1.9,1.9,0,0,1-.3-1.5,1.9,1.9,0,0,1,1.2-1.3h1.7l.8.5a.5.5,0,0,1,.2.4.7.7,0,0,1,.1.5"/><path class="cls-3" d="M202.6,70.3c-.2.1-.4-.1-.5-.3s.1-.4.3-.5a3.1,3.1,0,0,1,2.1.3l1,.4.7.4a1.2,1.2,0,0,1,.2,1.1c0,.5-.5.9-.9,1.2l-1.3.8a2.7,2.7,0,0,0-.6,1h0c0,.1,0,.1.1.1a4.8,4.8,0,0,0,2.1,0,7.2,7.2,0,0,1,2.5-.1.5.5,0,0,1,.3.5.4.4,0,0,1-.5.3,8.8,8.8,0,0,0-2.2.1,6.4,6.4,0,0,1-2.4,0,1,1,0,0,1-.6-.5,1.5,1.5,0,0,1-.1-.7,2.4,2.4,0,0,1,.9-1.4,10.1,10.1,0,0,1,1.3-.9q.6-.5.6-.6v-.4l-.5-.3-.9-.3a2.5,2.5,0,0,0-1.6-.3"/><path class="cls-3" d="M214,76.5c0-.2.3-.3.5-.3a.4.4,0,0,1,.2.5c0,.2-.1.3-.3.6a42.1,42.1,0,0,1-2.5,4.3c-.1.2-.3.3-.5.1s-.3-.3-.1-.5l2.7-4.7"/><path class="cls-3" d="M225.9,69c0,.3-.1.5-.4.5s-.4-.1-.4-.3.1-.4.1-.4h2.2a.8.8,0,0,1,.7.4,1.1,1.1,0,0,1,.3.7,2.2,2.2,0,0,1-.4,1.3,19.7,19.7,0,0,1-3.4,3l-.6.6h1.3a3.1,3.1,0,0,1,2.3.6c.2.1.2.4,0,.6H227c-.3-.4-.9-.4-1.6-.4h-1a1.6,1.6,0,0,1-1-.2.8.8,0,0,1-.2-.5.6.6,0,0,1,.2-.7,2.3,2.3,0,0,1,.7-.7,33.5,33.5,0,0,0,3.2-2.8,2,2,0,0,0,.3-.8.4.4,0,0,1-.1-.3h-1.7c0,.1.1-.1.1-.1s0-.2,0-.2"/><path class="cls-3" d="M236.8,69.4a.5.5,0,0,1-.6-.1c-.2-.1-.1-.4,0-.5l.3-.2c.1-.1.2-.2.4-.1s.4.3.4.4a.4.4,0,0,1-.1.3,3.4,3.4,0,0,1-.5,1.4,26.1,26.1,0,0,0-1.4,3.2v.3c0,.1-.1-.1-.1-.1h.2a22.3,22.3,0,0,0,2.4-2,6.6,6.6,0,0,1,3-1.5c.2-.1.4.1.4.3a.4.4,0,0,1-.3.5,4.5,4.5,0,0,0-2.6,1.4c-.9.6-1.7,1.7-2.7,2h-.6l-.3-.2a.5.5,0,0,1-.2-.4.7.7,0,0,1,.1-.6,16.1,16.1,0,0,1,1.5-3.4,5.4,5.4,0,0,0,.4-1.2h.2s.2.1.1.1h.2a.1.1,0,0,0-.1.1"/><path class="cls-3" d="M238.6,72.8c.1-.2.4-.2.6-.1a.4.4,0,0,1,.2.5,4,4,0,0,0-.7,1.8,1.1,1.1,0,0,0,0,.6h.1a.3.3,0,0,0,.4,0,.5.5,0,0,1,.5.4.5.5,0,0,1-.4.5h-.7a.9.9,0,0,1-.5-.3,1.8,1.8,0,0,1-.3-1.2,15.6,15.6,0,0,1,.8-2.1"/><path class="cls-3" d="M246.3,70.2a.4.4,0,0,1-.3.5c-.2.1-.4-.1-.5-.3a.7.7,0,0,1,.1-.5.8.8,0,0,1,.4-.4l.8-.2a1.8,1.8,0,0,1,1,.4,3.1,3.1,0,0,1,.5,1,2.3,2.3,0,0,1-.7,1.7L246,74a5.6,5.6,0,0,0-1.6,1.6c0,.1-.1.3,0,.4h.4l3.6.5a.5.5,0,0,1,.3.5.3.3,0,0,1-.5.3l-3.5-.5h-.5l-.4-.2c-.1,0-.2-.2-.2-.3a1.1,1.1,0,0,1,0-.8c.2-.8,1-1.3,1.8-2.1a5.1,5.1,0,0,0,1.5-1.4,2.4,2.4,0,0,0,.6-1.1l-.3-.5h-.4c-.2-.1-.4,0-.5,0h0"/><path class="cls-3" d="M99.8,105.1a.4.4,0,0,1,.6-.1c.2.1.2.3.1.5s-.1.1-.1.2h0s-.1-.1,0-.1-.3-.2-.2-.2-.2,0-.2,0h-.2l.3-.3,1.5-1.5,1.9-1.8,1.5-1.1c.3-.2.4-.4.8-.4s.5.2.5.4,0,.3,0,.5a2.6,2.6,0,0,1-.3,1.1,14.3,14.3,0,0,0-.5,2c0,.2-.2.3-.5.3s-.4-.2-.3-.4a7.3,7.3,0,0,1,.6-2.2,4.4,4.4,0,0,0,.2-1h0l.2.2c-.1-.1.2,0,.2,0h0l-.4.3-1.5,1-1.8,1.8a20.9,20.9,0,0,0-1.5,1.5l-.5.4H100c-.1,0-.3,0-.3-.2a.4.4,0,0,1-.1-.3.1.1,0,0,1,.1-.1v-.2"/><path class="cls-3" d="M108.3,105.1c-.1-.2.1-.4.3-.5a.4.4,0,0,1,.5.2,3.1,3.1,0,0,1-.5,2.1c-.1.4-.2.7-.2.8h-.1a.4.4,0,0,1,.4.4.4.4,0,0,1-.4.4c-.2,0-.4,0-.5-.2a.6.6,0,0,1-.2-.5,1.7,1.7,0,0,1,.3-1,5.7,5.7,0,0,0,.4-1.6"/><path class="cls-3" d="M114.7,101a.4.4,0,0,1-.4-.4.4.4,0,0,1,.4-.4h2.2a4.7,4.7,0,0,1,1.2,0,1.1,1.1,0,0,1,.7.8c.1.6-.2,1-.6,1.6l-1.1,1.6a4.8,4.8,0,0,0-1,3.3.4.4,0,0,1-.4.4.4.4,0,0,1-.4-.4,5.7,5.7,0,0,1,1.1-3.8l1.1-1.6a2.1,2.1,0,0,0,.5-1h-3.3"/><path class="cls-3" d="M115.5,104.8c.3.1.3.3.2.5a.4.4,0,0,1-.5.2l-.9-.5h-.2a.6.6,0,0,1,0-.6c.2-.2.3-.1.5-.2h1.1l2-.4a.5.5,0,0,1,.5.3c0,.2-.1.5-.3.5l-2.1.4-1.1.2h.1v-.4c0,.1-.1-.1-.1,0h0l.8.4"/><path class="cls-3" d="M123,106.8a.4.4,0,0,1,.6.1.3.3,0,0,1-.1.5l-.3.2h-.3l-.3-.2c-.2-.3-.1-.4,0-.5s.1-.2.1-.3A13.1,13.1,0,0,1,124,105a31.7,31.7,0,0,1,3.1-3.7,1.7,1.7,0,0,1,.6-.6l.5-.2h.3c.1.1.2.2.2.3a2.9,2.9,0,0,1-.2,1.6.4.4,0,0,0-.1.3h0c0,.1-.1-.1,0,0h0l1.2-.8.8-.5a1.2,1.2,0,0,1,.8-.2,1.5,1.5,0,0,1,.6.5,3.4,3.4,0,0,1,0,2,3.8,3.8,0,0,0-.2,1.7.4.4,0,0,1-.8.2,3.8,3.8,0,0,1,.2-2.1,10.3,10.3,0,0,0,.1-1.4h-.3l-.7.5a5.1,5.1,0,0,1-1.6.9H128l-.3-.3a.5.5,0,0,1-.1-.5.6.6,0,0,1,.1-.4l.2-1.2h.1c0-.1.1.1,0,.1h.2a2.3,2.3,0,0,0-.5.5c-.8.8-2,2.3-3.1,3.6a11,11,0,0,0-1.2,1.6h-.1V107H123"/><path class="cls-3" d="M141,101.5a.4.4,0,0,1-.3.6.5.5,0,0,1-.5-.3,1.7,1.7,0,0,0-.6-.6h-1c-.3.1-.5.2-.6.5a.8.8,0,0,0,0,.7c0,.1.3.4.5.8a1.6,1.6,0,0,1,.2,1.5,2.2,2.2,0,0,1-1,.9,2.5,2.5,0,0,1-2.8-.5.4.4,0,0,1,.5-.5,1.8,1.8,0,0,0,2,.2,1.2,1.2,0,0,0,.5-.5.5.5,0,0,0-.1-.6c-.1-.3-.6-.6-.7-1.2a3.7,3.7,0,0,1,.1-1.1,1.7,1.7,0,0,1,1.3-1,3.6,3.6,0,0,1,1.4.2,2.1,2.1,0,0,1,1.1,1"/><path class="cls-3" d="M139.7,101.5a.7.7,0,0,1-.6.3.5.5,0,0,1-.2-.6,1.2,1.2,0,0,1,.5-.5h.6l1.2.4a2.8,2.8,0,0,1,.9,1,1.2,1.2,0,0,1-.3,1.3,3.9,3.9,0,0,1-.8,1,3.5,3.5,0,0,0-.5.8.4.4,0,0,0-.1.3v.2c.1,0,0-.1,0-.1h1.1a3.4,3.4,0,0,1,2.2.2.5.5,0,0,1,.2.6c-.1.2-.4.2-.6.1a4.6,4.6,0,0,0-1.7-.1l-.9.2c-.3,0-.7,0-.9-.3a1.4,1.4,0,0,1-.2-.7,2,2,0,0,1,.1-.7l.7-.9.7-.9a1,1,0,0,0,.2-.5,1.3,1.3,0,0,0-.6-.7l-.8-.2h-.2"/><path class="cls-3" d="M153.2,106.6a.4.4,0,0,1,.2-.6.6.6,0,0,1,.6.3,2,2,0,0,1-.1,1.1,3.1,3.1,0,0,1-.5,1l-.4.8v.2h0c.1.2.1.5-.1.6a.3.3,0,0,1-.5,0,.5.5,0,0,1-.3-.5,4.3,4.3,0,0,1,.1-.5l.5-1a5.9,5.9,0,0,0,.4-.8c.1-.3.2-.5.1-.6"/><path class="cls-3" d="M164.3,106.8a.5.5,0,0,1,.5-.4.4.4,0,0,1,.4.4h-.3l.6-.4,2.6-2.2,2.9-2.2a8.6,8.6,0,0,1,2.1-1.3h.9c.2.2.3.3.3.5a.9.9,0,0,1,.1.5,5.2,5.2,0,0,1-.2,1.1,10.3,10.3,0,0,1-1.1,2.1l-.4.7v.2s-.1-.1,0-.1a.4.4,0,0,1-.6.6.8.8,0,0,1-.2-.5.6.6,0,0,1,.1-.4,3.6,3.6,0,0,1,.4-.9,7.5,7.5,0,0,0,1-2c.1-.3.1-.6.2-.8s0-.3-.1-.3h-.1a5.6,5.6,0,0,0-1.9,1.1l-2.8,2.2a21.9,21.9,0,0,1-2.7,2.2l-.8.6a.6.6,0,0,1-.6,0,.7.7,0,0,1-.3-.5"/><path class="cls-3" d="M179.2,101.2a.4.4,0,0,1-.4-.4.5.5,0,0,1,.4-.5h3c.3.1.6-.1,1,.1s.3.3.4.4v.4a1.3,1.3,0,0,1-.3.8,24.6,24.6,0,0,1-2.5,3.4,7.7,7.7,0,0,0-.6,1.5.8.8,0,0,0-.1.4h0c0,.1-.2-.1-.1,0h-.3l.2-.2a.5.5,0,0,1,.6-.1.4.4,0,0,1,0,.6c-.1.2-.3.3-.4.4h-.4c-.2,0-.3-.2-.4-.3s0-.6.1-1a3.7,3.7,0,0,1,.8-1.7c.8-1.3,2-2.5,2.4-3.4a.8.8,0,0,0,.2-.5h.1c-.1-.1-.1-.1-.2,0h-3.5"/><path class="cls-3" d="M180.7,104.8a.5.5,0,0,1-.5.3.5.5,0,0,1-.2-.6v.2h.6a4.1,4.1,0,0,0,1.9-.4.5.5,0,0,1,.6.2.4.4,0,0,1-.2.5,4.8,4.8,0,0,1-2.3.5,3.3,3.3,0,0,1-1,0h-.3a.6.6,0,0,1-.3-.5.7.7,0,0,1,.3-.6l.6-.2.6.2c.1.1.2.1.2.3a.3.3,0,0,1,0,.4"/><path class="cls-3" d="M186.8,102.6a.4.4,0,0,1,.3.7,2.4,2.4,0,0,0-.9.8,1.1,1.1,0,0,0-.1.5.5.5,0,0,0,.3.4h.4l.7-.4a5,5,0,0,0,1.3-1.2,1.2,1.2,0,0,0,.4-.8l-.2-.2a.8.8,0,0,0-.7-.1h-.1c0,.1.1.1.2.2a.6.6,0,0,1,0,.6c-.2.1-.4.2-.6,0l-.3-.4a.7.7,0,0,1-.1-.5c0-.3.3-.5.5-.6a1.8,1.8,0,0,1,1.6.1,1.1,1.1,0,0,1,.5,1,2.4,2.4,0,0,1-.5,1.2,7.3,7.3,0,0,1-1.6,1.4,1.8,1.8,0,0,1-.9.4,1,1,0,0,1-.9,0,1.4,1.4,0,0,1-.8-1,1.2,1.2,0,0,1,.2-1,2.8,2.8,0,0,1,1.3-1.1"/><path class="cls-3" d="M189.9,104.5c.1-.2.3-.4.5-.3a.4.4,0,0,1,.3.5.4.4,0,0,0,.1.3.8.8,0,0,0,.6.2,4.8,4.8,0,0,0,3.3-1.2,1.5,1.5,0,0,0,.5-.8.4.4,0,0,0,.1-.3h-1a3.4,3.4,0,0,1-1.4.1c-.3-.1-.4-.3-.3-.5s.2-.3.4-.3h2.2a.8.8,0,0,1,.8.5,1.4,1.4,0,0,1,0,.9,4.9,4.9,0,0,1-.7,1.1,6.2,6.2,0,0,1-4,1.5l-1.1-.5a1.1,1.1,0,0,1-.3-1.1"/><path class="cls-3" d="M204.1,101.5c.1.2.1.4-.1.5a.4.4,0,0,1-.6-.1h0l-.4.3a3,3,0,0,0-.8,1.6,2.2,2.2,0,0,0,0,1.4h.9a3.6,3.6,0,0,0,1.6-1.4,2.1,2.1,0,0,0,.3-1.3.5.5,0,0,0-.2-.4l-.5-.2h-.5a.4.4,0,0,1-.4.4.4.4,0,0,1-.4-.4.9.9,0,0,1,.5-.8,1,1,0,0,1,.9-.1,1.8,1.8,0,0,1,.9.4,1.2,1.2,0,0,1,.5,1,2.8,2.8,0,0,1-.4,1.7,3.7,3.7,0,0,1-2.1,1.8h-1a1,1,0,0,1-.8-.5,2.7,2.7,0,0,1-.1-2,5.4,5.4,0,0,1,1-2,1.6,1.6,0,0,1,.9-.5h.5l.3.4"/><path class="cls-3" d="M207.1,103.7a.3.3,0,0,1,.5-.3c.2,0,.3.2.3.4a4.4,4.4,0,0,0-.3,1.6h.6a3.6,3.6,0,0,0,2.2-1.8,2.1,2.1,0,0,0,.3-1.3c0-.2-.1-.2-.2-.3h-.8l-.7.3a.8.8,0,0,0-.1.4.3.3,0,0,1-.3.5.4.4,0,0,1-.5-.2,1.5,1.5,0,0,1,.4-1.3l1.1-.5a2.5,2.5,0,0,1,1.2.1,1.2,1.2,0,0,1,.7,1.1,2.3,2.3,0,0,1-.4,1.7,4.4,4.4,0,0,1-2.9,2.3h-.8a.9.9,0,0,1-.6-.6,3.4,3.4,0,0,1,.3-2"/><path class="cls-3" d="M212.2,105c0-.2.2-.3.5-.3s.3.2.3.5v.2l.3.2h1.1a2.1,2.1,0,0,0,1.5-1.1,1,1,0,0,0,.2-.7v-.2a3.2,3.2,0,0,0-1.7-.3,4.7,4.7,0,0,0-1.9.3c-.2.1-.4-.1-.5-.3a.4.4,0,0,1,.2-.5,6.5,6.5,0,0,1,2.2-.3,3.2,3.2,0,0,1,2.2.5.7.7,0,0,1,.3.7,2.7,2.7,0,0,1-.3,1.2,2.7,2.7,0,0,1-2.1,1.5,2.5,2.5,0,0,1-1.5-.2.9.9,0,0,1-.6-.4,1.5,1.5,0,0,1-.2-.9"/><path class="cls-3" d="M227.1,101.7a.4.4,0,0,1-.7-.5h-.2c-.2,0-.7.5-1,1a.7.7,0,0,0-.1.6.6.6,0,0,0,.1.4l.7.2.5.2a.9.9,0,0,1,.3.5,1,1,0,0,1-.2.9,1.5,1.5,0,0,1-.9.6h-2.8c-.2.1-.4-.1-.5-.3a.5.5,0,0,1,.3-.5h2.8l.4-.2v-.3c0-.1.1,0,.1,0h-.4c-.2-.1-.7-.1-1-.5a1.4,1.4,0,0,1-.1-1.9c.3-.6.8-1.3,1.5-1.4a1.4,1.4,0,0,1,1.1.2,1,1,0,0,1,0,1.2"/><path class="cls-3" d="M227.3,101.2c-.2,0-.5-.1-.5-.3s0-.4.3-.5a3.2,3.2,0,0,1,1.9.1,2.9,2.9,0,0,1,1.6,1.5,3.2,3.2,0,0,1,.3,1.9,3.8,3.8,0,0,1-1.6,2.1l-.6.3h0l.7.2a38.8,38.8,0,0,0,4.1.3.5.5,0,0,1,.4.5c0,.2-.2.3-.5.3a25.8,25.8,0,0,1-4.2-.3l-.9-.3a.7.7,0,0,1-.4-.5c-.1-.3.1-.5.2-.7l.7-.4c.5-.4,1.2-1,1.3-1.5a2.2,2.2,0,0,0-.2-1.4,2.2,2.2,0,0,0-1.2-1.1,2.3,2.3,0,0,0-1.4-.1"/><path class="cls-3" d="M106.5,125.4c-.1.2-.4.2-.6.1a.4.4,0,0,1,0-.6,9.2,9.2,0,0,1,1.7-1.5l2.8-2.1,3.4-2.6,1.4-1h.9a.8.8,0,0,1,.2.4c.1.2.1.3,0,.4a4.7,4.7,0,0,1-1.2,2,2,2,0,0,0-.4.8h-.1s-.1-.2,0-.2-.1,0-.1,0,.3.3.2.5a.4.4,0,0,1-.5.2c-.2,0-.4-.3-.4-.5s.1-.3.1-.5a4.7,4.7,0,0,1,.6-.9c.4-.6,1-1.3,1-1.7h.1l-1.3.9-3.4,2.7-2.8,2.1-1.6,1.3"/><path class="cls-3" d="M120.5,124.8a.4.4,0,0,1-.6.1c-.1-.1-.2-.4-.1-.5l1.1-1.6a22,22,0,0,1,1.8-2.8,19.2,19.2,0,0,1,1.6-2.1l.5-.7c.2-.2.3-.4.6-.5h.5a.4.4,0,0,1,.1.3v.3a2.5,2.5,0,0,1-.1.8c-.1.4-.3.8-.4,1.1s-.1.3-.1.4h0s-.2-.2-.1-.2h.1l.7-.2,1.8-1.1h.4l.5.2a1.1,1.1,0,0,1,.1.5v.5c-.1.4-.3.8-.4,1.2a7.6,7.6,0,0,0-.4,1.1c0,.1-.1.3-.1.4h0a.4.4,0,1,1-.7.3,1.2,1.2,0,0,1,0-1l.4-1.2c.1-.4.3-.8.4-1.1v-.3h.2a.1.1,0,0,0-.1.1,20,20,0,0,1-1.8,1l-.7.3h-.9a.5.5,0,0,1-.2-.4v-.3c0-.1.1-.3.1-.4a3,3,0,0,0,.4-1.1,1.5,1.5,0,0,0,.1-.6h.4l-.7.9-1.5,2.1-1.9,2.7a17.4,17.4,0,0,1-1,1.6"/><path class="cls-3" d="M134.2,117.4a.4.4,0,0,1-.3-.5c0-.2.2-.4.4-.3h-.1a4,4,0,0,1,1.5-.2,1.4,1.4,0,0,1,.8.5,1.5,1.5,0,0,1,.3.7,2.1,2.1,0,0,1-.4,1.5l-1.8,2.9-.7,1.2a.4.4,0,0,1-.1.3h0s-.1-.1,0-.1h-.1c.2.1.2.4.1.6s-.3.2-.5.1-.3-.4-.3-.6.1-.3.2-.5a5.6,5.6,0,0,1,.7-1.3l1.8-2.9a4.2,4.2,0,0,0,.3-.9.5.5,0,0,0-.2-.4l-.2-.2h-1.4"/><path class="cls-3" d="M133.4,121a.5.5,0,0,1,.3.5.4.4,0,0,1-.4.4l-1-.3h-.1l-.2-.3c0-.2.1-.4.2-.4h4.1a.4.4,0,0,1,.4.4.4.4,0,0,1-.4.4h-3.6c-.1,0,0-.1,0-.1h.1c0,.1.1-.2,0-.1v-.2h-.1c.1,0-.1-.1-.1-.1h.8"/></g></svg>