<svg id="Ebene_1" data-name="Ebene 1" xmlns="http://www.w3.org/2000/svg" xmlns:xlink="http://www.w3.org/1999/xlink" viewBox="0 0 294.3 102.6"><defs><style>.cls-1{fill:none;}.cls-2{opacity:0;}.cls-3{clip-path:url(#clip-path);}.cls-4{fill:#ed3624;}.cls-5{fill:#1749b3;}</style><clipPath id="clip-path"><rect class="cls-1" x="-67.8" y="-66.6" width="419.5" height="297.64"/></clipPath></defs><path d="M205.3,97.6h-1l-1.4-2.5h-.4v1.5c0,.4,0,.6.1.6s.1.2.3.2h.2v.2h-1.8v-.2h.2l.3-.2c.1-.1.1-.3.1-.6V93.2c0-.4,0-.6-.1-.7h-.5v-.2h1.5l.9.2c.2,0,.4.2.6.4a1.9,1.9,0,0,1,.2.8,1.6,1.6,0,0,1-.3.9,1.3,1.3,0,0,1-.7.5l.8,1.5a2.5,2.5,0,0,0,.5.7l.5.2Zm-2.8-2.8h.1a1.2,1.2,0,0,0,.9-.3,1.1,1.1,0,0,0,.3-.8,2,2,0,0,0-.2-.9.9.9,0,0,0-.7-.3h-.4Z"/><path d="M206.8,93.9a1.1,1.1,0,0,1,1,.6,2.1,2.1,0,0,1,.3,1.2,3.8,3.8,0,0,1-.1,1c-.2.3-.3.6-.5.7a1.1,1.1,0,0,1-.7.3,1,1,0,0,1-1-.7,2.1,2.1,0,0,1-.3-1.2,3.6,3.6,0,0,1,.2-1,1.3,1.3,0,0,1,.5-.7A.7.7,0,0,1,206.8,93.9Zm-.1.2h-.3l-.3.5c0,.2-.1.4-.1.8a2.8,2.8,0,0,0,.3,1.3.7.7,0,0,0,.6.6.5.5,0,0,0,.5-.3,2.7,2.7,0,0,0,.2-1.1,3.3,3.3,0,0,0-.3-1.5A.7.7,0,0,0,206.7,94.1Z"/><path d="M209.3,92.8V94h.7v.2h-.7v2.4a1,1,0,0,0,.1.4c.1.1.1.2.2.2h.2c0-.1.1-.1.1-.3h.1a.8.8,0,0,1-.2.6l-.4.2h-.3c-.1,0-.2-.1-.2-.3a4.3,4.3,0,0,1-.1-.5V94.2h-.4l.3-.3a.5.5,0,0,0,.3-.5.8.8,0,0,0,.2-.5Z"/><path d="M211.2,93.9v3.3c0,.1.1.1.1.2h.3v.2h-1.3v-.2h.2v-.2c.1-.1.1-.2.1-.4V95.4c0-.4,0-.7-.1-.8v-.2h-.4l.8-.4Zm-.3-1.9h.2a.4.4,0,0,1,.1.3c0,.1,0,.2-.1.2a.2.2,0,0,1-.2.2l-.2-.2c-.1,0-.1-.1-.1-.2a.4.4,0,0,1,.1-.3Z"/><path d="M212.4,95.3a2.3,2.3,0,0,0,.3,1.3.8.8,0,0,0,.7.4c.2,0,.3,0,.4-.2a.9.9,0,0,0,.4-.6h.1a3.6,3.6,0,0,1-.4.9c-.2.3-.4.5-.7.5a1.1,1.1,0,0,1-.9-.5,2.9,2.9,0,0,1-.3-1.4,2.6,2.6,0,0,1,.3-1.4,1.2,1.2,0,0,1,.9-.6,1.2,1.2,0,0,1,.8.4,2,2,0,0,1,.3,1.1Zm0-.2h1.3a1.1,1.1,0,0,1-.1-.5c-.1-.1-.1-.3-.2-.3l-.3-.2a.5.5,0,0,0-.5.3A1.4,1.4,0,0,0,212.4,95.1Z"/><path d="M215.4,93.9v.8c.3-.6.5-.8.7-.8h.3a.4.4,0,0,1,.1.3c0,.1,0,.2-.1.2v.2l-.3-.2h-.3a1.1,1.1,0,0,0-.3.5v1.7a4.3,4.3,0,0,0,.1.5.3.3,0,0,1,.1.2h.3v.2h-1.4v-.2c.2,0,.3,0,.3-.1s.1-.1.1-.2V94.4h-.4l.8-.4Z"/><path d="M217.1,95.3a2.3,2.3,0,0,0,.3,1.3.9.9,0,0,0,.7.4c.2,0,.4,0,.5-.2a1.6,1.6,0,0,0,.3-.6h.1a1.6,1.6,0,0,1-.3.9.9.9,0,0,1-1.6,0,2.1,2.1,0,0,1-.4-1.4,2,2,0,0,1,.4-1.4,1,1,0,0,1,.9-.6,1,1,0,0,1,.7.4,2,2,0,0,1,.3,1.1Zm0-.2h1.3a.7.7,0,0,0-.1-.5c0-.1-.1-.3-.2-.3l-.3-.2c-.2,0-.3.1-.4.3S217.2,94.8,217.1,95.1Z"/><path d="M220.2,94.6c.3-.5.6-.7.9-.7h.4a.8.8,0,0,1,.2.5c.1.1.1.4.1.7v2c.1.1.1.1.1.2h.3v.2h-1.3v-.2h.3a.3.3,0,0,0,.1-.2V95.3c0-.4,0-.6-.1-.7l-.3-.3c-.3,0-.5.2-.7.5v2.4c0,.1.1.1.1.2h.3v.2h-1.3v-.2h0c.2,0,.3,0,.3-.1a.7.7,0,0,0,.1-.5V94.4h-.4l.9-.4h.1Z"/><path d="M224.4,97.2c-.2.1-.3.3-.4.4h-.4a1,1,0,0,1-.8-.5,2.5,2.5,0,0,1-.4-1.3,3.3,3.3,0,0,1,.4-1.4c.3-.4.6-.7,1-.7s.4.2.6.4v-.7c0-.4,0-.7-.1-.8v-.2h-.4l.8-.4h.2v4.9c0,.1,0,.2.1.2a.1.1,0,0,0,.1.1h.2l-.8.5h-.1Zm0-.3V95c0-.2-.1-.3-.1-.5l-.3-.3h-.3a.5.5,0,0,0-.4.3,2.6,2.6,0,0,0,0,2.4.5.5,0,0,0,.5.4Z"/><path d="M226,95.3a1.7,1.7,0,0,0,.2,1.3.9.9,0,0,0,.7.4c.2,0,.4,0,.5-.2a.9.9,0,0,0,.3-.6h.1a1.6,1.6,0,0,1-.3.9.9.9,0,0,1-1.6,0,2.1,2.1,0,0,1-.4-1.4,2,2,0,0,1,.4-1.4,1,1,0,0,1,.9-.6,1,1,0,0,1,.7.4,2,2,0,0,1,.3,1.1Zm0-.2h1.2v-.5l-.3-.3-.3-.2a.5.5,0,0,0-.4.3A.8.8,0,0,0,226,95.1Z"/><path d="M230.8,94.7h1.9V93.2c0-.3,0-.5-.1-.6h-.5v-.2h1.7v.2h-.4c-.1,0-.1.1-.1.2a1.2,1.2,0,0,0-.1.5v3.4a3.5,3.5,0,0,0,.1.6h.5v.2h-1.7v-.2h.1c.2,0,.3,0,.4-.2a3.5,3.5,0,0,0,.1-.6V95h-1.9v2.2h.2c0,.1.1.1.2.1h.2v.2h-1.8v-.2h.2c.2,0,.3,0,.4-.2V92.6h-.6v-.2h1.8v.2H231l-.2.2v2Z"/><path d="M235.5,93.9a1.2,1.2,0,0,1,1,.6,2.1,2.1,0,0,1,.3,1.2,4.4,4.4,0,0,1-.2,1,1.3,1.3,0,0,1-.5.7.9.9,0,0,1-.7.3.9.9,0,0,1-.9-.7,2.1,2.1,0,0,1-.3-1.2,3.4,3.4,0,0,1,.1-1c.2-.3.3-.6.5-.7A1,1,0,0,1,235.5,93.9Zm-.1.2h-.3l-.3.5a1.7,1.7,0,0,0-.1.8,5.1,5.1,0,0,0,.2,1.3c.2.4.4.6.7.6s.3-.1.5-.3a3.1,3.1,0,0,0,.1-1.1,3.3,3.3,0,0,0-.3-1.5A.5.5,0,0,0,235.4,94.1Z"/><path d="M239.5,96.2a2.8,2.8,0,0,1-.4,1.1,1.3,1.3,0,0,1-.7.4,1,1,0,0,1-.8-.5,2.1,2.1,0,0,1-.4-1.4,2,2,0,0,1,.4-1.4,1.1,1.1,0,0,1,.9-.5.8.8,0,0,1,.7.2.7.7,0,0,1,.2.6V95h-.2c-.2,0-.2-.1-.3-.2s-.1-.2-.1-.3,0-.3-.1-.4h-.3c-.2,0-.3.1-.5.3a3,3,0,0,0-.2,1,4.3,4.3,0,0,0,.2,1.2c.2.3.4.5.7.5a.5.5,0,0,0,.5-.3,1.5,1.5,0,0,0,.3-.7Z"/><path d="M240.7,92v2.6l.5-.6h.8l.3.6v2.2c0,.2,0,.3.1.4v.2h.2v.2h-1.3v-.2h.1c.1,0,.2,0,.2-.1s.1-.1.1-.2V94.7c0-.1-.1-.2-.2-.3h-.5l-.4.4v2.4l.2.2h.3v.2h-1.4v-.2h.4V92.7c0-.1,0-.1-.1-.2h-.3l.8-.4Z"/><path d="M244.7,93.9v1.2h-.1c0-.4-.1-.7-.3-.8l-.4-.2h-.4c0,.1-.1.2-.1.4s.1.2.1.3.2.3.4.4l.4.3a1.1,1.1,0,0,1,.6,1,1.9,1.9,0,0,1-.2.8.9.9,0,0,1-.7.3h-.9V96.3h.1a1.2,1.2,0,0,0,.3.9.6.6,0,0,0,.5.2h.4c0-.1.1-.2.1-.4s-.1-.3-.2-.5-.2-.2-.5-.4l-.6-.5a1.3,1.3,0,0,1-.1-.6.8.8,0,0,1,.2-.7.9.9,0,0,1,.6-.3h.8Z"/><path d="M245.1,94.3l.9-.4h.1v.8a4.3,4.3,0,0,1,.4-.7h.5a.9.9,0,0,1,.7.4,2.5,2.5,0,0,1,.3,1.3,2.5,2.5,0,0,1-.4,1.6,1.1,1.1,0,0,1-.9.5h-.3l-.3-.2v1.5l.2.2h.3v.2h-1.5v-.2h.4V94.4h-.4Zm1,.6v2c.1.1.1.3.2.4h.4a.5.5,0,0,0,.5-.3,1.6,1.6,0,0,0,.3-1.1,2.5,2.5,0,0,0-.3-1.3.5.5,0,0,0-.5-.3h-.2Z"/><path d="M249.9,97l-.5.5h-.3c-.2,0-.4,0-.5-.2a1.4,1.4,0,0,1-.2-.7c0-.2,0-.3.1-.4a1,1,0,0,1,.4-.5l1-.6V95c0-.3,0-.6-.1-.7l-.4-.2h-.3V95h-.4c-.1,0-.1-.1-.1-.2a.9.9,0,0,1,.3-.7.8.8,0,0,1,.7-.2h.6l.3.4v2.7h.2l.2-.3V97q-.3.6-.6.6H250A2,2,0,0,1,249.9,97Zm0-.2V95.4l-.5.4-.4.3c0,.1-.1.3-.1.4a4.3,4.3,0,0,0,.1.5l.3.2A.7.7,0,0,0,249.9,96.8Z"/><path d="M251.9,94.6c.3-.5.6-.7.9-.7h.4l.3.5v2.3c0,.2,0,.3.1.4v.2h.2v.2h-1.3v-.2h0c.2,0,.3,0,.3-.1s.1-.1.1-.2V95.3c0-.4,0-.6-.1-.7a.3.3,0,0,0-.3-.3,1,1,0,0,0-.7.5v2.4c.1.1.1.1.1.2h.3v.2H251v-.2h.1c.1,0,.2,0,.2-.1a.7.7,0,0,0,.1-.5V94.4h-.4l.9-.4h.1Z"/><path d="M255,94.6c.3-.5.6-.7.9-.7h.4c.1.1.1.3.2.5s.1.4.1.7v2c0,.1.1.1.1.2h.3v.2h-1.4v-.2h.4a.3.3,0,0,0,.1-.2V95.3c0-.4,0-.6-.1-.7s-.2-.3-.3-.3-.5.2-.7.5v2.4c0,.1.1.1.1.2h.3v.2H254v-.2h.4a4.3,4.3,0,0,0,.1-.5V95.4c0-.4,0-.7-.1-.8v-.2H254l.8-.4h.2Z"/><path d="M259.6,94v3.1h.4l-.8.5h-.2v-.8c-.2.3-.4.6-.5.6l-.4.2a.5.5,0,0,1-.4-.2.8.8,0,0,1-.2-.4,1.9,1.9,0,0,1-.1-.8V94.7c0-.2,0-.3-.1-.4h-.1c0-.1-.1-.1-.3-.1h1v2.4c0,.3,0,.5.1.6l.3.2h.3l.4-.4V94.6c0-.2,0-.3-.1-.4s-.1-.1-.3-.1h.9Z"/><path d="M261.1,94.6c.3-.5.6-.7.9-.7h.4a.8.8,0,0,1,.2.5c.1.1.1.4.1.7v2c0,.1.1.1.1.2h.3v.2h-1.3v-.2h.3a.3.3,0,0,0,.1-.2V95.3c0-.4,0-.6-.1-.7l-.3-.3c-.3,0-.5.2-.7.5v2.4c0,.1.1.1.1.2h.3v.2h-1.3v-.2h.3a4.3,4.3,0,0,0,.1-.5V95.4c0-.4,0-.7-.1-.8v-.2h-.4l.8-.4h.2Z"/><path d="M264.1,96.3l-.4-.5a1.4,1.4,0,0,1-.2-.6,1.7,1.7,0,0,1,.3-1,1.1,1.1,0,0,1,.8-.3.8.8,0,0,1,.7.2h.8v.2h-.6a1.2,1.2,0,0,1,.2.7,1.1,1.1,0,0,1-.3.8.9.9,0,0,1-.8.4h-.4l-.2.3v.2h1.4a.5.5,0,0,1,.5.3.7.7,0,0,1,.1.5,1.1,1.1,0,0,1-.3.8,1.4,1.4,0,0,1-1.2.6,1.7,1.7,0,0,1-1-.3c-.1-.2-.2-.3-.2-.4v-.2c.1-.1.1-.3.3-.4l.3-.5-.3-.2v-.2a.4.4,0,0,1,.1-.3C263.7,96.7,263.8,96.5,264.1,96.3Zm-.1,1.3-.2.3c0,.2-.1.3-.1.4s.1.2.2.3.5.2.9.2a1.1,1.1,0,0,0,.8-.2,1.7,1.7,0,0,0,.2-.5c0-.2,0-.3-.1-.3H264Zm.6-3.6c-.2,0-.3.1-.4.3s-.1.4-.1.7a1.6,1.6,0,0,0,.2,1l.3.2a.5.5,0,0,0,.4-.2,1.4,1.4,0,0,0,.2-.7,2.5,2.5,0,0,0-.2-1A.5.5,0,0,0,264.6,94Z"/><path d="M268.1,93.9v1.2H268a1.3,1.3,0,0,0-.2-.8l-.5-.2c-.1,0-.3,0-.3.1a.5.5,0,0,0-.2.4c0,.1.1.2.1.3l.4.4.4.3a1.1,1.1,0,0,1,.6,1,1.1,1.1,0,0,1-.2.8.9.9,0,0,1-.7.3h-.9V96.3h.1a1.9,1.9,0,0,0,.3.9.6.6,0,0,0,.5.2h.4c.1-.1.1-.2.1-.4a.9.9,0,0,0-.1-.5l-.6-.4-.6-.5a1.3,1.3,0,0,1-.1-.6,1.4,1.4,0,0,1,.2-.7.9.9,0,0,1,.6-.3h.8Z"/><path d="M268.6,94h1v.5l.7,2,.6-2.1a.4.4,0,0,0,.1-.3h0a.1.1,0,0,1-.1-.1h.4c0,.1-.1.2-.1.4l-1,3.1h-.1l-1-3.1a.4.4,0,0,1-.1-.3h-.2c0-.1-.1-.1-.2-.1Z"/><path d="M272.3,95.3a2.3,2.3,0,0,0,.3,1.3.8.8,0,0,0,.7.4.4.4,0,0,0,.4-.2.9.9,0,0,0,.4-.6h.1a3.6,3.6,0,0,1-.4.9.9.9,0,0,1-1.6,0,2.9,2.9,0,0,1-.4-1.4,2.6,2.6,0,0,1,.4-1.4,1,1,0,0,1,.9-.6,1.2,1.2,0,0,1,.8.4,2,2,0,0,1,.3,1.1Zm0-.2h1.2v-.5c-.1-.1-.2-.3-.3-.3l-.3-.2a.5.5,0,0,0-.4.3A1.4,1.4,0,0,0,272.3,95.1Z"/><path d="M275.3,93.9v.8c.2-.6.5-.8.7-.8h.3a.4.4,0,0,1,.1.3c0,.1,0,.2-.1.2l-.2.2-.2-.2h-.3a1.1,1.1,0,0,0-.3.5v1.7a.7.7,0,0,0,.1.5v.2h.3v.2h-1.4v-.2h.3c.1,0,.1-.1.1-.2V94.4h-.3l.8-.4Z"/><path d="M277.3,92.8V94h.7v.2h-.7v2.4a1,1,0,0,0,.1.4c.1.1.1.2.2.2h.2l.2-.3h.1l-.3.6c-.2.2-.3.2-.4.2h-.3c-.1,0-.1-.1-.2-.3v-3h-.5l.4-.3.3-.5.2-.5Z"/><path d="M278.7,95.3a2.3,2.3,0,0,0,.3,1.3.8.8,0,0,0,.7.4.6.6,0,0,0,.5-.2,1.6,1.6,0,0,0,.3-.6h.1a1.8,1.8,0,0,1-.4.9c-.2.3-.4.5-.7.5a1.4,1.4,0,0,1-.9-.5,2.9,2.9,0,0,1-.3-1.4,2.6,2.6,0,0,1,.3-1.4,1.2,1.2,0,0,1,.9-.6,1,1,0,0,1,.8.4,2,2,0,0,1,.3,1.1Zm0-.2H280a4.3,4.3,0,0,0-.1-.5c0-.1-.1-.3-.2-.3l-.3-.2c-.2,0-.3.1-.5.3A1.4,1.4,0,0,0,278.7,95.1Z"/><path d="M281.9,93.9v3.3l.2.2h.2v.2H281v-.2h.3c0-.1,0-.1.1-.2V94.4h-.4l.9-.4Zm-.2-1.9h.2c0,.1.1.2.1.3v.2l-.2.2-.3-.2v-.5Z"/><path d="M283.6,92v5.2l.2.2h.2v.2h-1.3v-.2h.3c0-.1,0-.1.1-.2V92.7c0-.1-.1-.1-.1-.2h-.4l.9-.4Z"/><path d="M286.8,94v3.1h.4l-.8.5h-.1v-.8c-.3.3-.5.6-.6.6a.5.5,0,0,1-.4.2l-.4-.2a.8.8,0,0,1-.2-.4c0-.2-.1-.5-.1-.8v-2h.5v2.4a.8.8,0,0,0,.2.6l.3.2h.3l.4-.4V94.6c0-.2-.1-.3-.1-.4h.6Z"/><path d="M288.2,94.6c.3-.5.6-.7.9-.7h.4l.3.5v2.3c0,.2,0,.3.1.4v.2h.2v.2h-1.3v-.2h.1c.1,0,.2,0,.2-.1s.1-.1.1-.2V95.3c0-.4,0-.6-.1-.7a.3.3,0,0,0-.3-.3,1,1,0,0,0-.7.5v2.4l.2.2h.3v.2h-1.4v-.2h.1c.1,0,.2,0,.2-.1a.7.7,0,0,0,.1-.5V94.4h-.3l.8-.4h.1Z"/><path d="M291.2,96.3l-.4-.5a1.3,1.3,0,0,1-.1-.6,1.7,1.7,0,0,1,.3-1,1,1,0,0,1,.8-.3c.2,0,.5,0,.6.2h.8v.2h-.5c.1.1.1.4.1.7a1.1,1.1,0,0,1-.3.8.8.8,0,0,1-.7.4h-.5c0,.1-.1.2-.1.3v.2a.1.1,0,0,0,.1.1h1.4c.2,0,.3.1.4.3a.8.8,0,0,1,.2.5,1.1,1.1,0,0,1-.3.8,1.6,1.6,0,0,1-1.2.6,1.5,1.5,0,0,1-1-.3c-.2-.2-.2-.3-.2-.4v-.2a.8.8,0,0,1,.2-.4l.3-.5a.2.2,0,0,1-.2-.2c-.1,0-.1-.1-.1-.2a.4.4,0,0,1,.1-.3Zm0,1.3c-.1.1-.2.2-.2.3a.8.8,0,0,0-.1.4c0,.1,0,.2.2.3s.4.2.8.2.6,0,.8-.2a.9.9,0,0,0,.3-.5c0-.2-.1-.3-.2-.3h-1.6Zm.5-3.6a.5.5,0,0,0-.4.3c-.1.1-.1.4-.1.7a3,3,0,0,0,.2,1l.4.2.4-.2a1.5,1.5,0,0,0,.1-.7,2.5,2.5,0,0,0-.2-1C292,94.1,291.9,94,291.7,94Z"/><g class="cls-2"><path d="M114.3,13.5V12.4h2.2V3.8l-2.2.6V3.3l3.6-.9v10h2.2v1.1Z"/><path d="M123.2,13.6V12.3a5.1,5.1,0,0,0,2,.4,2.4,2.4,0,0,0,1.7-.6,2.6,2.6,0,0,0,.6-1.8q0-2.4-3.3-2.4h-.8V2.6h5.5V3.9h-4.3V6.8a5.4,5.4,0,0,1,3.3.9,3.4,3.4,0,0,1,1.2,2.7,3.1,3.1,0,0,1-1.1,2.5,4.5,4.5,0,0,1-3,.9Z"/></g><g class="cls-2"><path d="M153.3,12.1V9.2h-4.5v-1l4.5-6.3h1.3V8.1H156V9.2h-1.4v2.9Zm-3.2-4h3.3V3.6Z"/></g><g class="cls-2"><path d="M-3,50.9V42.1H-.3a2.9,2.9,0,0,1,1.9.6,2.2,2.2,0,0,1,.7,1.6A2.5,2.5,0,0,1,.5,46.8l2.9,4.1H1.9L-.6,47.2H-1.7v3.7Zm1.3-4.7h.4c1.5,0,2.3-.6,2.3-1.8s-.7-1.3-2-1.3h-.7Z"/><path d="M4.7,53.2V44.5H5.8v1.2A2.4,2.4,0,0,1,8,44.3a2.1,2.1,0,0,1,1.8.9,3.7,3.7,0,0,1,.7,2.3A3.9,3.9,0,0,1,9.7,50a2.3,2.3,0,0,1-2,1,2.5,2.5,0,0,1-1.9-.9v3.1Zm1.1-3.9a2.4,2.4,0,0,0,1.8.8c1.1,0,1.6-.8,1.6-2.5s-.5-2.3-1.5-2.3a2.9,2.9,0,0,0-1.9,1.1Z"/><path d="M12.3,50.9V44.5h1.1v1.2a2.3,2.3,0,0,1,2-1.4h.4v1h-.5a2.3,2.3,0,0,0-1.9,1.3v4.3Z"/><path d="M17.2,43.3V42.1h1.2v1.2Zm0,7.6V44.5h1.2v6.4Z"/><path d="M20.7,50.9V44.5h1.1v1.2A2.6,2.6,0,0,1,24,44.3c.9,0,1.4.5,1.8,1.4a2.4,2.4,0,0,1,2.1-1.4,1.7,1.7,0,0,1,1.3.5,2,2,0,0,1,.5,1.4v4.7H28.5V46.4c0-.7-.3-1.1-.9-1.1s-1.2.4-1.8,1.3v4.3H24.6V46.4c0-.7-.3-1.1-.9-1.1s-1.2.4-1.9,1.3v4.3Z"/><path d="M35.2,50a2.9,2.9,0,0,1-2,1,1.9,1.9,0,0,1-1.3-.5,1.4,1.4,0,0,1-.5-1.3,1.9,1.9,0,0,1,.8-1.6,6,6,0,0,1,2.6-.5H35v-.8a1,1,0,0,0-1.1-1.1,4.1,4.1,0,0,0-2,.6v-1a6.3,6.3,0,0,1,2.2-.5,2.5,2.5,0,0,1,1.6.5,2.1,2.1,0,0,1,.5,1.5v2.9c0,.7.2,1,.6,1H37v.6l-.9.2C35.7,51,35.4,50.7,35.2,50Zm-2.8-6.7v-1h1.1v1ZM35,49.4V47.8h-.4a3.3,3.3,0,0,0-1.5.4,1.1,1.1,0,0,0-.6,1,1.1,1.1,0,0,0,.3.7.9.9,0,0,0,.7.3A2.6,2.6,0,0,0,35,49.4Zm-.2-6.1v-1h1v1Z"/><path d="M38.6,50.9V44.5h1.1v1.2a2.2,2.2,0,0,1,2-1.4h.4v1h-.5a2.3,2.3,0,0,0-1.9,1.3v4.3Z"/></g><g class="cls-2"><path d="M62.6,60a10.4,10.4,0,0,1-3.2-.5V57.8a9,9,0,0,0,3.4.9,3.1,3.1,0,0,0,1.7-.5,1.8,1.8,0,0,0,.6-1.4,2,2,0,0,0-.4-1.3,7.3,7.3,0,0,0-1.5-1.1l-.9-.5a8.8,8.8,0,0,1-2.2-1.7,2.9,2.9,0,0,1-.7-1.8A3,3,0,0,1,60.5,48a3.7,3.7,0,0,1,2.6-.9,10.5,10.5,0,0,1,3,.5v1.6a9.1,9.1,0,0,0-2.9-.8,2.5,2.5,0,0,0-1.5.5,1.4,1.4,0,0,0-.6,1.2,1.6,1.6,0,0,0,.5,1.1,5.2,5.2,0,0,0,1.5,1.1l.9.5a9.7,9.7,0,0,1,2.3,1.7,3.4,3.4,0,0,1,.6,2,3.2,3.2,0,0,1-1.2,2.6A5,5,0,0,1,62.6,60Z"/><path d="M68.7,59.7V58.3a14,14,0,0,1,2.9-3.7l1-.8a4.6,4.6,0,0,0,1.8-3.3,2.3,2.3,0,0,0-.6-1.6,2.5,2.5,0,0,0-1.7-.6,7.4,7.4,0,0,0-3.1,1V47.9a8,8,0,0,1,3.3-.8,4.3,4.3,0,0,1,2.8.9,3.2,3.2,0,0,1,1,2.5,4.6,4.6,0,0,1-.5,2,12.3,12.3,0,0,1-2,2l-.6.6a6.2,6.2,0,0,0-2.3,3.2h5.4v1.4Z"/></g><g class="cls-2"><path d="M112.5,48.9h1.4v6.4a3.5,3.5,0,0,0,.6,2.3,2.5,2.5,0,0,0,1.8.7,2.1,2.1,0,0,0,1.7-.7,3.3,3.3,0,0,0,.5-2.2V48.9h1.3v6.5a4.3,4.3,0,0,1-.9,3,3.4,3.4,0,0,1-2.7.9,3.9,3.9,0,0,1-2.8-.9,4.6,4.6,0,0,1-.9-3.1Zm1.7-.8V46.9h1.2v1.2Zm2.7,0V46.9h1.2v1.2Z"/><path d="M122.2,61.8V51.6h1.4V53a2.6,2.6,0,0,1,2.5-1.5,2.6,2.6,0,0,1,2.1.9,4.5,4.5,0,0,1,.7,2.7,4.5,4.5,0,0,1-.8,3,2.9,2.9,0,0,1-4.5.1v3.6Zm1.4-4.5a3,3,0,0,0,2,.9c1.3,0,1.9-1,1.9-2.9s-.6-2.7-1.7-2.7a3.1,3.1,0,0,0-2.2,1.3Z"/><path d="M130.9,61.8V51.6h1.4V53a2.6,2.6,0,0,1,2.5-1.5,2.6,2.6,0,0,1,2.1.9,4.6,4.6,0,0,1,.8,2.7,4.5,4.5,0,0,1-.9,3,2.9,2.9,0,0,1-4.5.1v3.6Zm1.4-4.5a3,3,0,0,0,2,.9c1.3,0,1.9-1,1.9-2.9s-.6-2.7-1.7-2.7a3.1,3.1,0,0,0-2.2,1.3Z"/><path d="M139.6,50.3V48.9H141v1.4Zm0,8.8V51.6H141v7.5Z"/><path d="M143.6,61.6V60.4a5,5,0,0,0,2.3.5c1.6,0,2.3-.8,2.3-2.4V57.3a2.5,2.5,0,0,1-2.4,1.6,2.7,2.7,0,0,1-2.2-1,4,4,0,0,1-.7-2.6,4.3,4.3,0,0,1,.9-2.8,2.9,2.9,0,0,1,4.4,0v-.9h1.4V57a14.2,14.2,0,0,1-.2,2.6,2.6,2.6,0,0,1-.7,1.4,3.7,3.7,0,0,1-2.7,1A10.1,10.1,0,0,1,143.6,61.6Zm4.7-5.1V53.4a2.6,2.6,0,0,0-1.9-.9,1.8,1.8,0,0,0-1.5.7,4.1,4.1,0,0,0-.5,2.1c0,1.6.6,2.4,1.7,2.4A2.9,2.9,0,0,0,148.3,56.5Z"/><path d="M157.6,58.8a7.4,7.4,0,0,1-2.3.4,3.6,3.6,0,0,1-2.7-1,4.1,4.1,0,0,1-1-2.9,4.5,4.5,0,0,1,.9-2.8,2.9,2.9,0,0,1,2.3-1,2.6,2.6,0,0,1,2.1.9,4.5,4.5,0,0,1,.7,2.7v.5h-4.7c.2,1.7,1.1,2.6,2.6,2.6a5.9,5.9,0,0,0,2.1-.4ZM153,54.6h3.3c0-1.4-.5-2.1-1.6-2.1S153.1,53.2,153,54.6Z"/></g><g class="cls-2"><path d="M188.5,60.5V59a6.8,6.8,0,0,0,2.3.5,2.4,2.4,0,0,0,2.6-2.7c0-1.9-1.3-2.8-3.8-2.8h-.9v-6h6.2v1.4h-4.8v3.3a5.3,5.3,0,0,1,3.7,1.1,3.6,3.6,0,0,1,1.4,3,3.5,3.5,0,0,1-1.2,2.8,5.3,5.3,0,0,1-3.4,1Z"/><path d="M198.2,60.4V59a11.1,11.1,0,0,1,2.9-3.7l.9-.8a4.6,4.6,0,0,0,1.8-3.3,2.1,2.1,0,0,0-.6-1.6,2.4,2.4,0,0,0-1.7-.6,6.2,6.2,0,0,0-3,1V48.6a6.6,6.6,0,0,1,3.2-.8,4.1,4.1,0,0,1,2.8.9,3.3,3.3,0,0,1,1.1,2.5,3.1,3.1,0,0,1-.6,1.9,8.5,8.5,0,0,1-1.9,2.1l-.7.6a6,6,0,0,0-2.2,3.2h5.3v1.4Z"/></g><g class="cls-2"><path d="M238.5,56.6a6.9,6.9,0,0,1-2.2-.4V54.9a4.9,4.9,0,0,0,2.3.7,1.7,1.7,0,0,0,1-.3,1.2,1.2,0,0,0,.4-.8c0-.5-.4-.8-1.1-1.1l-.8-.4q-1.8-.7-1.8-2.1a2.1,2.1,0,0,1,.7-1.5,2.9,2.9,0,0,1,1.9-.6l1.6.2h.2v1.1l-1.8-.3c-.8,0-1.3.3-1.3.9s.4.8,1,1l.7.3a3.6,3.6,0,0,1,1.5,1,1.5,1.5,0,0,1,.5,1.3,2.1,2.1,0,0,1-.8,1.6A3,3,0,0,1,238.5,56.6Z"/><path d="M249.1,56.2a8,8,0,0,1-2.4.4,3.3,3.3,0,0,1-2.7-1.1,3.7,3.7,0,0,1-1-2.8,4.3,4.3,0,0,1,.9-2.8,3,3,0,0,1,2.4-1.1,2.3,2.3,0,0,1,2,1,4.1,4.1,0,0,1,.8,2.7v.4h-4.7c.2,1.8,1,2.7,2.6,2.7a7.6,7.6,0,0,0,2.1-.5Zm-4.7-4.3h3.3q0-2.1-1.5-2.1C245.1,49.8,244.6,50.5,244.4,51.9Z"/><path d="M251.3,56.5V45.6h1.3v7l3.2-3.6h1.4l-3,3.5,3.7,4h-1.8l-3.5-3.9v3.9Z"/><path d="M264,56.5V55.1a3.1,3.1,0,0,1-2.6,1.5,2.1,2.1,0,0,1-1.6-.6,2.2,2.2,0,0,1-.5-1.6V49h1.3v4.9a2.9,2.9,0,0,0,.2,1.2,1.3,1.3,0,0,0,.9.4,3,3,0,0,0,2.3-1.7V49h1.3v7.5Z"/><path d="M267.9,56.5V49h1.4v1.4a3.1,3.1,0,0,1,2.6-1.6,1.8,1.8,0,0,1,1.5.7,2.1,2.1,0,0,1,.6,1.6v5.4h-1.4v-5c0-.5,0-.9-.2-1.1a.8.8,0,0,0-.8-.4,2.9,2.9,0,0,0-2.3,1.6v4.9Z"/><path d="M281.3,56.5V55.1a2.7,2.7,0,0,1-2.5,1.5,2.4,2.4,0,0,1-2.1-1,4,4,0,0,1-.8-2.6,4.5,4.5,0,0,1,.9-3,2.7,2.7,0,0,1,2.3-1.2,2.8,2.8,0,0,1,2.2,1.1V45.6h1.3V56.5Zm0-5.7a3.2,3.2,0,0,0-2-.9c-1.3,0-2,.9-2,2.9s.6,2.6,1.8,2.6a3.3,3.3,0,0,0,2.2-1.2Z"/><path d="M289,55.5a3.3,3.3,0,0,1-2.3,1.1,2,2,0,0,1-1.5-.6,1.5,1.5,0,0,1-.7-1.4,2.1,2.1,0,0,1,1.1-1.9,5.6,5.6,0,0,1,2.9-.7h.3v-.8c0-.9-.4-1.3-1.3-1.3a5.3,5.3,0,0,0-2.3.6V49.4a6.1,6.1,0,0,1,2.5-.6,2.5,2.5,0,0,1,1.9.6,2.4,2.4,0,0,1,.6,1.8v3.3c0,.8.2,1.2.7,1.2h.3v.7l-1,.2C289.6,56.6,289.2,56.3,289,55.5Zm-3.2-7.8V46.5H287v1.2Zm3,7.1v-2h-.4a3,3,0,0,0-1.8.5,1.1,1.1,0,0,0-.7,1.1,1.1,1.1,0,0,0,.3.8,1.4,1.4,0,0,0,.9.3A2.7,2.7,0,0,0,288.8,54.8Zm-.3-7.1V46.5h1.2v1.2Z"/><path d="M292.8,56.5V49h1.4v1.4a2.6,2.6,0,0,1,2.3-1.6h.4v1.2h-.6a2.3,2.3,0,0,0-2.1,1.5v5Z"/></g><g class="cls-3"><path d="M70.7,19.3a.4.4,0,1,1,0-.8h47.5a.4.4,0,1,1,0,.8Z"/><path d="M152.9,19.7a.4.4,0,1,1,0-.8h44.5a.4.4,0,0,1,0,.8Z"/><path d="M123.3,18.5a2.5,2.5,0,0,0-2.5-2.5,1.7,1.7,0,0,0-1.2.4,2.3,2.3,0,0,0-1.3,2.1,2.8,2.8,0,0,0,.4,1.3,2.4,2.4,0,0,0,2.1,1.2,2.8,2.8,0,0,0,1.3-.3,2.5,2.5,0,0,0,1.2-2.2m.9,0a3.3,3.3,0,0,1-1.7,2.9,3.4,3.4,0,0,1-1.7.5,3.2,3.2,0,0,1-2.8-1.7,3.4,3.4,0,0,1-.5-1.7,3.2,3.2,0,0,1,1.7-2.8,3,3,0,0,1,1.6-.5,3.3,3.3,0,0,1,2.9,1.7,2.8,2.8,0,0,1,.5,1.6"/><path d="M152.5,19.4a2.4,2.4,0,0,0-.3-1.2,2.6,2.6,0,0,0-2.2-1.3,2,2,0,0,0-1.3.4,2.4,2.4,0,0,0-1.2,2.1,2.8,2.8,0,0,0,.3,1.3,2.7,2.7,0,0,0,3.5.9,2.5,2.5,0,0,0,1.2-2.2m.8,0a3.2,3.2,0,0,1-1.6,2.9,3.4,3.4,0,0,1-1.7.5,3.4,3.4,0,0,1-2.9-1.7,3.3,3.3,0,0,1-.4-1.7,3.1,3.1,0,0,1,1.6-2.8,3.4,3.4,0,0,1,1.7-.5,3.4,3.4,0,0,1,2.9,1.7,2.7,2.7,0,0,1,.4,1.6"/><path d="M123.3,99.2A2.7,2.7,0,0,0,123,98a2.4,2.4,0,0,0-2.2-1.3,2.5,2.5,0,0,0-1.2.4,2.3,2.3,0,0,0-1.3,2.1,2.8,2.8,0,0,0,.4,1.3,2.3,2.3,0,0,0,2.1,1.3,2.8,2.8,0,0,0,1.3-.4,2.5,2.5,0,0,0,1.2-2.2m.9,0a3.3,3.3,0,0,1-1.7,2.9,3.4,3.4,0,0,1-1.7.5,3.2,3.2,0,0,1-2.8-1.7,3.1,3.1,0,0,1-.5-1.7,3.3,3.3,0,0,1,1.7-2.8,3,3,0,0,1,1.6-.5,3.3,3.3,0,0,1,2.9,1.7,3,3,0,0,1,.5,1.6"/><path d="M115.3,36.2a.4.4,0,0,1,.6.1.3.3,0,0,1-.1.5h-.6q-.2,0-.3-.3c0-.2,0-.3.1-.4l.2-.2c.2-.1.4-.1.5.1a.4.4,0,0,1-.1.6h.1c-.1,0,0-.1,0-.1h-.4m0,.6c-.2-.1-.2-.4,0-.6s.4-.2.5,0h.1a.5.5,0,0,1-.1.6.5.5,0,0,1-.6-.2c0-.1.1.1.1.1h0"/><path d="M116.2,35.8a.4.4,0,0,1-.4.8h-.1a.4.4,0,0,1-.2-.5.5.5,0,0,1,.6-.2h.1m.1.3a.4.4,0,0,1-.2.6.4.4,0,0,1-.5-.2c0-.1-.1-.1-.1-.2a.4.4,0,0,1,.1-.3l.3-.2h.2c.2.1.4.3.3.5a.3.3,0,0,1-.5.3h.1s.2-.1.1,0,.2-.2.2-.1,0-.2,0-.2h0"/><path d="M114.4,34.7a.4.4,0,0,1,.8,0V66.4a.4.4,0,0,1-.8,0Z"/><path d="M114.8,35.2a.5.5,0,0,1-.4-.5.4.4,0,0,1,.4-.4h12.1a.4.4,0,0,1,.4.4.5.5,0,0,1-.4.5Z"/><path d="M126.5,34.7a.4.4,0,1,1,.8,0V66.4a.4.4,0,1,1-.8,0Z"/><path d="M114.8,66.8a.4.4,0,0,1,0-.8h12.1a.4.4,0,0,1,0,.8Z"/><path d="M145,36.2a.4.4,0,0,1,.6.1.3.3,0,0,1-.1.5h-.6q-.2,0-.3-.3c0-.2,0-.3.1-.4l.2-.2c.2-.1.4-.1.5.1a.4.4,0,0,1-.1.6h.1c-.1,0,0-.1,0-.1H145m0,.6c-.2-.1-.2-.4,0-.6s.4-.2.5,0h.1a.5.5,0,0,1-.1.6.5.5,0,0,1-.6-.2c0-.1.1.1.1.1h0"/><path d="M145.9,35.8a.4.4,0,0,1-.4.8h-.1a.4.4,0,0,1-.2-.5.5.5,0,0,1,.6-.2h.1m.1.3a.4.4,0,0,1-.2.6.4.4,0,0,1-.5-.2c0-.1-.1-.1-.1-.2a.4.4,0,0,1,.1-.3l.3-.2h.2a.5.5,0,0,1,.3.5.4.4,0,0,1-.5.3h.1s.2-.1.1,0,.2-.2.2-.1,0-.2,0-.2h0"/><path d="M144.1,34.7a.4.4,0,1,1,.8,0V66.4a.4.4,0,0,1-.8,0Z"/><path d="M144.5,35.2a.5.5,0,0,1-.4-.5.4.4,0,0,1,.4-.4h12.1a.4.4,0,0,1,.4.4.5.5,0,0,1-.4.5Z"/><path d="M156.2,34.7a.4.4,0,0,1,.8,0V66.4a.4.4,0,0,1-.8,0Z"/><path d="M144.5,66.8a.4.4,0,0,1,0-.8h12.1a.4.4,0,1,1,0,.8Z"/><path d="M120.4,66.4a.4.4,0,0,1,.4-.4.4.4,0,0,1,.4.4V96.3c0,.3-.1.5-.4.5a.5.5,0,0,1-.4-.5Z"/><path d="M120.6,21.4a.4.4,0,0,1,.4-.4.5.5,0,0,1,.5.4V34.7a.5.5,0,0,1-.5.5.5.5,0,0,1-.4-.5Z"/><path d="M121,82.7a.4.4,0,0,1-.4-.4.4.4,0,0,1,.4-.4h28.9a.4.4,0,0,1,.4.4.4.4,0,0,1-.4.4Z"/><path d="M149.4,66.4a.5.5,0,0,1,.5-.4.4.4,0,0,1,.4.4V82.3a.4.4,0,0,1-.4.4.5.5,0,0,1-.5-.4Z"/><path d="M150.3,34.7a.5.5,0,0,1-.4.5.5.5,0,0,1-.5-.5V22.3a.5.5,0,0,1,.5-.4.4.4,0,0,1,.4.4Z"/><path d="M70.5,100.7a.9.9,0,0,1-.9-.8.9.9,0,0,1,.9-.9H118a.9.9,0,0,1,.8.9.9.9,0,0,1-.8.8Z"/><path d="M123.7,100.5a.8.8,0,0,1-.8-.8.9.9,0,0,1,.8-.8h73.7a.9.9,0,0,1,.8.8.8.8,0,0,1-.8.8Z"/><path d="M85,50.6a13.7,13.7,0,0,0-2-7.2,14.2,14.2,0,0,0-12.3-7.1,15,15,0,0,0-7.3,1.9,14.5,14.5,0,0,0-7.1,12.4,14.7,14.7,0,0,0,2,7.2,14.5,14.5,0,0,0,12.4,7.1,13.9,13.9,0,0,0,7.2-2A14.2,14.2,0,0,0,85,50.6m.8,0a15.2,15.2,0,0,1-7.5,13.1,15.4,15.4,0,0,1-7.6,2,15.1,15.1,0,0,1-13.1-7.5,14.9,14.9,0,0,1-2.1-7.6A15.1,15.1,0,0,1,63,37.5a15.6,15.6,0,0,1,7.7-2.1,15.1,15.1,0,0,1,13,7.6,14.9,14.9,0,0,1,2.1,7.6"/><path d="M211.7,50.6a13.7,13.7,0,0,0-2-7.2,14,14,0,0,0-12.3-7.1,14.2,14.2,0,0,0-14.3,14.3,14.2,14.2,0,0,0,14.3,14.3,13.7,13.7,0,0,0,7.2-2,14.2,14.2,0,0,0,7.1-12.3m.8,0A15.2,15.2,0,0,1,205,63.7a14.9,14.9,0,0,1-7.6,2,15.1,15.1,0,0,1-13.1-7.5,14.9,14.9,0,0,1-2.1-7.6,15.2,15.2,0,0,1,7.6-13.1,14.9,14.9,0,0,1,7.6-2.1A15.3,15.3,0,0,1,210.5,43a14.9,14.9,0,0,1,2,7.6"/><path d="M69.8,66.4a.9.9,0,0,1,.9-.8.9.9,0,0,1,.8.8V99.9a.9.9,0,0,1-.8.8.9.9,0,0,1-.9-.8Z"/><path d="M196.6,66.4a.8.8,0,0,1,.8-.8.9.9,0,0,1,.8.8V99.7a.8.8,0,0,1-.8.8.7.7,0,0,1-.8-.8Z"/><path class="cls-4" d="M120.4,17.8a1,1,0,0,1,1.2.3.8.8,0,0,1-.4,1.1L102.7,29.5a.8.8,0,0,1-1.1-.4.8.8,0,0,1,.3-1.1Z"/><path class="cls-4" d="M70.7,29.1a.9.9,0,0,1-.9-.8.8.8,0,0,1,.9-.8h31.6a.8.8,0,0,1,.9.8.9.9,0,0,1-.9.8Z"/><path class="cls-4" d="M69.8,28.3a.8.8,0,0,1,.9-.8.8.8,0,0,1,.8.8v6.4a.9.9,0,0,1-.8.9.9.9,0,0,1-.9-.9Z"/><path class="cls-4" d="M149.6,20.2a.8.8,0,0,1-.3-1.1.7.7,0,0,1,1-.4l20,9.6a.8.8,0,1,1-.7,1.4Z"/><path class="cls-4" d="M169.9,29.8a.8.8,0,0,1,0-1.6h27.5a.8.8,0,1,1,0,1.6Z"/><path class="cls-4" d="M196.6,28.9a.8.8,0,0,1,.8-.9.9.9,0,0,1,.8.9v5.8a.9.9,0,0,1-.8.9.8.8,0,0,1-.8-.9Z"/><path class="cls-5" d="M112.4,8.2a.5.5,0,0,1-.3.5.4.4,0,0,1-.5-.3,1.1,1.1,0,0,1,0-.8,5.6,5.6,0,0,1,.5-.8l1.6-2,2.1-2a9.6,9.6,0,0,1,1.7-1.4l.7-.4h.7c0,.1.1.2.1.3s-.2.8-.3,1.1a13.2,13.2,0,0,1-1.2,2c-.1.3-.3.5-.3.7v.2H117a.4.4,0,0,1,0,.6c-.1.1-.4.2-.5,0a.6.6,0,0,1-.2-.5c0-.2,0-.3.1-.4s.3-.5.4-.8a13,13,0,0,0,1.1-1.9l.2-.5c.1-.1.1-.1.1-.2h.3l-.5.4-1.7,1.3-2,2-1.5,1.8-.4.7q-.2.3,0,.3"/><path class="cls-5" d="M123.8.6c.2.1.2.4.1.6s-.4.2-.6.1H123c-.2.2-.5.4-.6.7a1.7,1.7,0,0,0-.1.7h.2l.7.2a4.1,4.1,0,0,1,1.1.7,1.5,1.5,0,0,1,.2,1.3,4.4,4.4,0,0,1-.8,1.1,2,2,0,0,1-1.4.6,1.6,1.6,0,0,1-1.5-.6.5.5,0,0,1,0-.5c.2-.2.5-.2.6,0s.5.4.8.3a1.5,1.5,0,0,0,.9-.4,1.6,1.6,0,0,0,.6-.8.4.4,0,0,0,0-.5l-.7-.4-.8-.2-.7-.7a1.5,1.5,0,0,1,.2-1.3,2.4,2.4,0,0,1,.8-.9l.6-.3h.7"/><path class="cls-5" d="M123.6,1.6a.5.5,0,0,1-.5.3.5.5,0,0,1-.3-.6,1.1,1.1,0,0,1,.8-.7,3.5,3.5,0,0,1,1.2-.3h4.1a.4.4,0,0,1,.4.4c0,.3-.2.5-.4.4h-5q-.3.1-.3.3"/><path class="cls-5" d="M151.9.8c0,.2-.2.4-.4.3a.4.4,0,0,1-.4-.4.8.8,0,0,0,.1-.4h.1c0-.1.1-.2.3-.2a.5.5,0,0,1,.4.2h0a1.1,1.1,0,0,1,0,.8,8,8,0,0,1-1.1,2.5,3.9,3.9,0,0,0-.2.6h.5a3.8,3.8,0,0,0,1.8-.5.5.5,0,0,1,.5.3.4.4,0,0,1-.2.5,5.8,5.8,0,0,1-2.1.5,1.1,1.1,0,0,1-.8-.2c-.2,0-.3-.1-.4-.3a.4.4,0,0,1-.1-.5,1.5,1.5,0,0,1,.3-.7,20.8,20.8,0,0,0,1-2.4V.6s.1,0,0-.1h.6c-.1,0,.1-.1.1-.1h.1V.8"/><path class="cls-5" d="M154.6,1.6a.4.4,0,0,1,.6-.1c.2.1.2.3.1.5l-1.1,2.5a8.2,8.2,0,0,0-.6,1.6,1.5,1.5,0,0,0-.1.6h-.1a.4.4,0,0,1-.1.6.3.3,0,0,1-.5-.1.5.5,0,0,1-.1-.6,1.7,1.7,0,0,1,.1-.7l.6-1.7c.3-.6.5-1.2.8-1.7l.4-.9"/><path class="cls-5" d="M125.6,92.9a.5.5,0,0,1,.6-.1c.2.1.2.4.1.6v.2h0v-.2c.1.1-.1-.1,0-.1h-.2c.1.1-.2,0-.1,0h-.1l1.2-1,2.5-2.1a6,6,0,0,1,1.1-.6.5.5,0,0,1,.4-.2h.3c.1,0,.3.1.3.2a1.5,1.5,0,0,1,.2.9c0,.3-.1.6-.1.8a6.1,6.1,0,0,1-.8,1.8,1.1,1.1,0,0,0,0,1.1.5.5,0,0,1-.1.6c-.2.1-.5.1-.6-.1a1.9,1.9,0,0,1,0-1.9c.2-.6.6-1.1.7-1.6s.1-.6.1-.8v-.3h-.1l-.9.6-2.5,2-1.2,1-.2.2h-.2a.4.4,0,0,1-.4-.4c-.1-.2,0-.2.1-.3s.1-.2.1-.3"/><path class="cls-5" d="M70.7,46c-.1.3-.3.4-.5.3a.3.3,0,0,1-.3-.5,1,1,0,0,0-.2-.7l-.8-.5a2.3,2.3,0,0,0-1.5.5,6.3,6.3,0,0,0-1.1,1.2,1.9,1.9,0,0,0,0,1.5l1.1,1.6a3.8,3.8,0,0,1,.9,1.3,2,2,0,0,1,.3,1.7,2,2,0,0,1-1.2,1.2,6.1,6.1,0,0,1-2.5.6,3.2,3.2,0,0,1-2.8-1.1.4.4,0,0,1,0-.6.6.6,0,0,1,.6,0,2.7,2.7,0,0,0,2.2.9,5.1,5.1,0,0,0,2.2-.6,1,1,0,0,0,.7-.7,1.3,1.3,0,0,0-.2-1,8.3,8.3,0,0,0-.8-1.2,9.4,9.4,0,0,1-1.2-1.8,2.2,2.2,0,0,1,0-2.1A4.3,4.3,0,0,1,67,44.4a3,3,0,0,1,2-.6,2,2,0,0,1,1.3.8,1.5,1.5,0,0,1,.4,1.4"/><path class="cls-5" d="M69.3,45.5a.4.4,0,0,1-.5.2.4.4,0,0,1-.2-.6,1.2,1.2,0,0,1,.9-.8,2.8,2.8,0,0,1,1.3.3,5,5,0,0,1,1.2.8,13.6,13.6,0,0,1,1.2,1.2,2.5,2.5,0,0,1,.4,1.7c-.2,1.3-1.4,2.3-2.1,3.4a3.8,3.8,0,0,0-.6,1.3v.4a.8.8,0,0,0,.2.4h.7c1.4-.1,2.3.9,4,.7a.4.4,0,0,1,.4.4c.1.2-.1.4-.3.5a4.5,4.5,0,0,1-2.5-.4,5.3,5.3,0,0,0-1.6-.4c-.3,0-.7.3-1.2-.1a1.2,1.2,0,0,1-.5-.9c-.1-.2,0-.4,0-.6a4.7,4.7,0,0,1,.7-1.7c.8-1.1,1.9-2.2,2-3.1a1,1,0,0,0-.3-1l-1-1.1a4.6,4.6,0,0,0-1-.7,1.3,1.3,0,0,0-.8-.2l-.4.4"/><path class="cls-5" d="M198.6,46.7a.4.4,0,0,1-.5.2c-.2,0-.3-.3-.3-.5a.6.6,0,0,0,.1-.7.8.8,0,0,0-.4-.4,1.8,1.8,0,0,0-1.6-.1,3.5,3.5,0,0,0-2.2,2.7,4.5,4.5,0,0,0,.4,2.3,15.6,15.6,0,0,1,1.1,2.6,1.1,1.1,0,0,1,0,.8,1.6,1.6,0,0,1-.4.7,3.3,3.3,0,0,1-1.5.5l-2.9.2a.3.3,0,0,1-.5-.3c-.1-.2.1-.4.3-.5a26.6,26.6,0,0,1,3-.2,2.3,2.3,0,0,0,1.1-.4c.1,0,.1-.1.1-.2s.1-.2,0-.4a17.4,17.4,0,0,0-1.1-2.5,5.9,5.9,0,0,1-.4-2.7,4.5,4.5,0,0,1,2.7-3.4,2.9,2.9,0,0,1,2.4.2,1.8,1.8,0,0,1,.7.8,2,2,0,0,1-.1,1.3"/><path class="cls-5" d="M197.6,46.4c-.3,0-.5-.1-.5-.3s0-.5.3-.5a2.9,2.9,0,0,1,2,.3,3.1,3.1,0,0,1,1.3,1.7,2.5,2.5,0,0,1-.3,2.2,12,12,0,0,1-1.3,2.1,3.8,3.8,0,0,0-.8,1.3c0,.2-.1.4-.1.6a2.7,2.7,0,0,0,.6,1,1.9,1.9,0,0,0,1.7.4c.8,0,1.8-.3,2.8-.4a.7.7,0,0,1,.5.4.4.4,0,0,1-.4.4l-2.8.5a3.3,3.3,0,0,1-2.4-.7,3,3,0,0,1-.8-1.6,2.8,2.8,0,0,1,.1-.9,6,6,0,0,1,.9-1.5,11.3,11.3,0,0,0,1.3-2,2.2,2.2,0,0,0,.3-1.5,2.2,2.2,0,0,0-1.1-1.2,1.6,1.6,0,0,0-1.3-.3"/><path class="cls-5" d="M1.4,33.6a.5.5,0,0,1,.6.2.4.4,0,0,1-.2.5c-.1.1.1,0,0,0v.2c-.1.1-.1.4-.1.7a13.8,13.8,0,0,0-.2,2.2,21.8,21.8,0,0,1-.1,2.5c0,1.3-.1,2.6-.2,3.7a4.1,4.1,0,0,1-.1,1.2v.5c0,.1,0,.1-.1.2H1a.5.5,0,0,1-.4.2c-.3,0-.3-.2-.4-.2v-.4a.6.6,0,0,1-.1-.4A16.3,16.3,0,0,1,0,42.4a18,18,0,0,1,.3-3.1,9.4,9.4,0,0,1,2.1-4.6l.8-.5a1.1,1.1,0,0,1,.8,0,1.7,1.7,0,0,1,1.1,1.2A4.3,4.3,0,0,1,5.2,37a3.9,3.9,0,0,1-1.1,2c-.3.4-.5.6-.5.8V40l.5.6a13,13,0,0,1,1.4,2.9l.6,1.1c.2.2.3.3.5.3a.4.4,0,0,1,0,.8,1.7,1.7,0,0,1-1.2-.6,5.4,5.4,0,0,1-.7-1.3,8.5,8.5,0,0,0-1.3-2.7L3,40.4a1,1,0,0,1-.2-.9c.1-.4.4-.6.7-1a4.3,4.3,0,0,0,.9-1.6,4.5,4.5,0,0,0-.1-1.2c-.1-.4-.4-.7-.6-.7a.2.2,0,0,0-.3,0,.5.5,0,0,0-.4.3,9.1,9.1,0,0,0-1.9,4.2,19.2,19.2,0,0,0-.2,5.2.6.6,0,0,0,.1.4H.8c.1.1-.2,0-.2,0H.3c.1,0,0,.1,0,.1h0v-.4c0-.3.1-.8.1-1.3s.2-2.4.2-3.6a21.8,21.8,0,0,0,.1-2.5c0-.9.1-1.7.1-2.3s.1-.6.2-.9.1-.4.4-.6"/><path class="cls-5" d="M10.2,45.9a.4.4,0,0,1,.4-.4.5.5,0,0,1,.4.5,8.8,8.8,0,0,0-.2,1.4c-.1.6-.2,1.4-.3,2.3s-.2,1.8-.3,2.5a5.6,5.6,0,0,1-.2,1c0,.1-.1.2-.1.3s-.1.1-.2.2H9.2a.6.6,0,0,1-.2-.5v-.3A2.7,2.7,0,0,1,9,52a15,15,0,0,1,.7-5.1,4.7,4.7,0,0,1,1.2-1.8,2.4,2.4,0,0,1,1.5-.6,1.3,1.3,0,0,1,.9.7,2,2,0,0,1,0,1.1,2.2,2.2,0,0,1-1.7,1.8c-.3,0-.5-.1-.5-.3a.3.3,0,0,1,.3-.5,1.4,1.4,0,0,0,1.1-1.1.8.8,0,0,0,0-.7c0-.1-.1-.1-.2-.1s-.5,0-.9.3a3.8,3.8,0,0,0-.9,1.5A13,13,0,0,0,9.8,52v1.1H9.7c0,.1-.1,0-.1,0H9.2v-.2c.1,0,.1-.4.2-.8s.2-1.6.3-2.5.2-1.7.3-2.3a3.7,3.7,0,0,1,.2-1.4"/><path class="cls-5" d="M14.4,46.7a.4.4,0,0,1,.4-.4c.3,0,.4.2.4.5a3.1,3.1,0,0,1-.2.8.9.9,0,0,1-.1.5l-.2.2h-.3a.4.4,0,0,1-.3-.2,1.2,1.2,0,0,1,0-1,2.4,2.4,0,0,1,.7-1.6,1.9,1.9,0,0,1,1.5-.8,1.9,1.9,0,0,1,1.3.2.9.9,0,0,1,.7.4,2.5,2.5,0,0,1,0,1.9.9.9,0,0,1-.3.7q0,.2-.3.3h-.4c-.1-.1-.2-.1-.2-.2s0-.5.2-.5a.4.4,0,0,1,.6.2s-.1-.1,0-.1-.1,0-.1,0h-.4c0-.1-.1,0-.1,0h.1a4.3,4.3,0,0,0,.1-.5,2,2,0,0,0,.1-1.3H16.4a1.4,1.4,0,0,0-1,.5,1.8,1.8,0,0,0-.5,1.2.8.8,0,0,0-.1.4h-.6c0-.1-.1,0,0,0h0v-.3a1.9,1.9,0,0,0,.2-.7"/><path class="cls-5" d="M18.6,40.8a.4.4,0,0,1,.2-.6.7.7,0,0,1,.6.3,4.8,4.8,0,0,1,0,1.2.4.4,0,0,1-.4.4c-.3,0-.5-.2-.4-.4v-.9m.8.8a.5.5,0,0,1-.3.5c-.3,0-.5-.1-.5-.4v-.6c0-.2-.1-.3-.1-.4s.1,0,.1-.1h0a.4.4,0,0,1,.4-.4.7.7,0,0,1,.4.5h0v.9"/><path class="cls-5" d="M19.9,44.8c0-.2.2-.4.4-.3a.4.4,0,0,1,.4.4,9,9,0,0,1-.3,1.6c0,.3-.1.6-.1.8a.9.9,0,0,0-.1.5h0s-.1-.1,0-.1h-.4c.1,0-.1.1-.1.1h0a.1.1,0,0,1,.1-.1l.3-.3a12.5,12.5,0,0,0,.9-1.2l.5-.6.6-.5h.4l.3.2.3.4a3.3,3.3,0,0,1,0,1v1h0s-.1-.2-.1-.1-.2-.2-.1-.2h-.1l.6-.4a4.2,4.2,0,0,1,1.3-.7l.8-.2c.2.1.4.2.4.3s.2.3.2.4v.9a1.7,1.7,0,0,0,.1.7v.2h0a.5.5,0,0,1,.1.6.3.3,0,0,1-.5.1,1.4,1.4,0,0,1-.5-.8V46.7a.1.1,0,0,0-.1-.1H25l-1.1.7-.7.4h-.5a.4.4,0,0,1-.4-.2c-.1-.2,0-.4,0-.5V45.8h.2l-.4.4-.4.5-1,1.2-.4.4h-.2c0,.1,0,.1-.1.1h-.1a.4.4,0,0,1-.4-.2c-.2-.2-.1-.4-.1-.6a.7.7,0,0,1,.1-.5c0-.3.1-.6.1-.9a9.9,9.9,0,0,0,.3-1.5"/><path class="cls-5" d="M31.3,45.6a.5.5,0,0,1-.6.2.4.4,0,0,1-.2-.5h.1c0-.1.1.1,0,.1h.1a.6.6,0,0,0-.4.2,3.6,3.6,0,0,0-1.1,1.3l-.2.3h.2l.3-.2.5-.4c.1,0,.4-.1.5,0s.2.1.2.2l.2.2c.1.2.2.3.6.3a.4.4,0,0,1,.4.4.4.4,0,0,1-.4.4,1.5,1.5,0,0,1-1.3-.6c-.1-.1-.1-.3-.2-.3s.1.1.1,0,.1.1.1.1h.3l-.6.4-.4.3h-.7l-.4-.4a.8.8,0,0,1-.2-.6l.3-.7a4,4,0,0,1,1.4-1.5,1.3,1.3,0,0,1,1-.3,1.2,1.2,0,0,1,.5.5,1.3,1.3,0,0,1-.1.6"/><path class="cls-5" d="M29.8,41c-.1-.2.1-.4.3-.4a.3.3,0,0,1,.5.3c0,.1-.1-.2-.1-.1s0-.1,0-.1h.3c.6.3,2.3.3,3.6.8a.4.4,0,0,1,.2.5c-.1.2-.3.4-.5.3s-2.7-.4-3.7-.8l-.4-.2c0-.1,0,0-.2-.2V41m.5-.4a.3.3,0,0,1,.3.5c0,.2-.3.3-.5.3h.2c0,.1.2,0,.1,0a.5.5,0,0,1-.6-.1.5.5,0,0,1,.2-.6h.2a.1.1,0,0,1,.1.1"/><path class="cls-5" d="M34.6,45.7c.1-.2.4-.2.6-.1s.2.4,0,.6l-.7,1.3a3.5,3.5,0,0,1-.1.6h-.3s-.1.1,0,.1h0c0-.1.1-.2.1-.3a3.6,3.6,0,0,0,.2-1,2.5,2.5,0,0,0,.1-.8h-.2c-.1,0-.1-.1-.1-.3l.2-.3h.2c0-.1.1-.1.2-.1h.6a12.3,12.3,0,0,1,2.9-.2.4.4,0,0,1,.4.4.4.4,0,0,1-.4.4,12.3,12.3,0,0,0-2.8.2H35c-.1.1,0-.2,0-.1v-.2h.1a.8.8,0,0,1,.2.6,4.1,4.1,0,0,1-.1,1,3.6,3.6,0,0,1-.2,1l-.2.5c-.1.1-.1.3-.4.4h-.3c-.2,0-.2-.1-.3-.2a.8.8,0,0,1-.2-.5,3.1,3.1,0,0,1,.2-.8,6,6,0,0,1,.8-1.6"/><path class="cls-5" d="M230.5,47.8c0,.3-.1.5-.3.5a.4.4,0,0,1-.5-.3h0v-.4a21,21,0,0,1-.1-2.8,8.7,8.7,0,0,1,1.6-4.9,2.9,2.9,0,0,1,1.2-1,1.9,1.9,0,0,1,1.3-.2.9.9,0,0,1,.6.3.9.9,0,0,1,.3.7,2.1,2.1,0,0,1-.7,1.6l-1,1.4a1.6,1.6,0,0,0-.3.8c-.1.5.5,1.2,1.1,1.8a15.6,15.6,0,0,1,1.8,1.7.5.5,0,0,1-.2.6c-.2.1-.4,0-.6-.2a19.6,19.6,0,0,0-1.5-1.5,3.1,3.1,0,0,1-1.4-2.5,2.1,2.1,0,0,1,.4-1.1l1.1-1.5a2.9,2.9,0,0,0,.5-1v-.2h-.2c-.2-.1-.4,0-.8.1l-.9.8a8.5,8.5,0,0,0-1.4,4.4c0,1.1.1,2.1.1,2.8v.3h0m.8-6.1c.1.2-.1.4-.3.4a.3.3,0,0,1-.5-.3h.1c0-.1.2.1.1.1s.2,0,.2,0h.2c-.1.1.1-.1.1,0s0-.1,0-.1h0v.2c0,.2-.1.7-.1,1.1s-.4,2.4-.5,3.5-.1,1-.1,1.3V48h0c-.1.3-.3.4-.5.3a.4.4,0,0,1-.3-.5h0a8.2,8.2,0,0,1,.1-1.4c.1-1.1.3-2.4.4-3.4s.1-1,.2-1.3-.1-.2.2-.4.4-.2.5-.1.2.2.2.3v.2"/><path class="cls-5" d="M243.2,48.1a.7.7,0,0,1-.1-.6.5.5,0,0,1,.6-.1s-.2-.1-.1-.1-.2.1-.1,0h-.1l.2-.2a.1.1,0,0,0-.1-.1.3.3,0,0,0-.1-.2c-.1-.1-.2-.1-.5,0l-.7.3a1.2,1.2,0,0,0-.3.9,4.8,4.8,0,0,0,.6,1.4,1.3,1.3,0,0,1,.3,1.1,1.7,1.7,0,0,1-.6,1.1,2.1,2.1,0,0,1-1.2.5,2,2,0,0,1-1.5-.3,1.6,1.6,0,0,1-.4-.7,1.4,1.4,0,0,1,0-.9.7.7,0,0,1,.6-.3.4.4,0,0,1,.2.6.3.3,0,0,0,0,.4.3.3,0,0,0,.1.2,1,1,0,0,0,.9.2,1.1,1.1,0,0,0,.7-.3.7.7,0,0,0,.4-.6,2.5,2.5,0,0,0-.2-.7,3.8,3.8,0,0,1-.7-1.8,2,2,0,0,1,.6-1.4l1-.5c.4-.1.8-.2,1.1.1a1,1,0,0,1,.5.6.9.9,0,0,1,0,.7l-.3.5h-.3a.4.4,0,0,1-.5,0"/><path class="cls-5" d="M249.2,46.9a.5.5,0,1,1-.1.9c-.2-.1-.5.1-.8.3a12.5,12.5,0,0,0-.9,1.2,2.6,2.6,0,0,0-.3,1.1,1.2,1.2,0,0,0,.2.7.4.4,0,0,0,.5.1,2.4,2.4,0,0,0,1.1-.6.3.3,0,0,1,.5.1.3.3,0,0,1,0,.5,2.2,2.2,0,0,1-1.5.8,1.1,1.1,0,0,1-1.2-.4,1.6,1.6,0,0,1-.4-1.2,2.8,2.8,0,0,1,.4-1.5,4.9,4.9,0,0,1,1.1-1.4,2.5,2.5,0,0,1,1.4-.6"/><path class="cls-5" d="M249.2,48.1a.4.4,0,0,1,.4.4c0,.3-.1.4-.4.5s-.6-.1-.7,0a.5.5,0,0,1-.5-.3c0-.3.1-.5.3-.5h.9"/><path class="cls-5" d="M255.2,43c.2-.1.5-.1.6.1s.1.5-.1.6a16.1,16.1,0,0,0-2.2,4.6,5.8,5.8,0,0,0-.4,1.9v.5h-.3l.3-.2,1-1,1.5-1.6a13,13,0,0,1,2.6-2,.5.5,0,0,1,.6.2.4.4,0,0,1-.2.5,11.5,11.5,0,0,0-2.4,1.8l-1.5,1.7-1.1,1-.4.3h-.7c-.1-.1-.2-.2-.2-.3v-.7a6.9,6.9,0,0,1,.4-2.2,16,16,0,0,1,1.3-3,5.4,5.4,0,0,1,.7-1.3,1.8,1.8,0,0,1,.5-.7"/><path class="cls-5" d="M256.9,47.7a.5.5,0,0,1,.6.2.4.4,0,0,1-.2.5,4.2,4.2,0,0,0-1.1,2.2c-.1.2,0,.4,0,.5s0,.1.1.1h.3l.8-.3a.5.5,0,0,1,.6.2.4.4,0,0,1-.2.5l-1.1.5h-.8a1.2,1.2,0,0,1-.5-.7,1.1,1.1,0,0,1,0-.8,4.1,4.1,0,0,1,1.5-2.8"/><path class="cls-5" d="M261.4,47.3c.2-.1.4,0,.6.2a.4.4,0,0,1-.2.5,4.3,4.3,0,0,0-.9,1.7c-.2.4-.2.7-.1.8s0,.2.1.2h0c0-.1.2-.1.3-.2l1-.7,1-1,.6-.4.3-.2c.1,0,.2-.1.4,0a.5.5,0,0,1,.3.4v.2c0,.1-.1.2-.1.3a3.1,3.1,0,0,0-.2.8,1.5,1.5,0,0,0-.1.6s-.1-.1,0-.1-.1,0,0,0l1-.6a9.1,9.1,0,0,1,1.3-1l.6-.3a.4.4,0,0,1,.5,0l.2.2a.7.7,0,0,1,.2.6.9.9,0,0,1-.1.7h.3l.8-.5.5-.2a1.1,1.1,0,0,1,.7.3c.3.3.2.7.2,1.2a3.6,3.6,0,0,1-.2,1.1.4.4,0,0,1-.5.3c-.2,0-.3-.2-.3-.5a3,3,0,0,0,.2-1,2.2,2.2,0,0,0-.1-.6h-.2l-.7.5a1.6,1.6,0,0,1-1,.2l-.4-.2a.4.4,0,0,1-.1-.5c0-.4.1-.4.1-.5v-.2h.2l-.4.3a5.1,5.1,0,0,0-1.3.9,5,5,0,0,1-1.4.8H264a1,1,0,0,1-.4-.5,3.4,3.4,0,0,1,.1-1,1.9,1.9,0,0,1,.2-.8.3.3,0,0,1,.1-.2h.1s.2.1.1.1h0l-.4.3-1.1,1-1.1.8-.5.2a.6.6,0,0,1-.6,0c-.3-.2-.5-.4-.5-.7a1.5,1.5,0,0,1,.1-1.3,4.4,4.4,0,0,1,1.3-2.1"/><path class="cls-5" d="M276.1,47.6a.4.4,0,0,1-.5.7h-.4l-.6.4a4.5,4.5,0,0,0-1.1,1.9,2,2,0,0,0-.1.7c0,.2,0,.3.1.3a.5.5,0,0,0,.4,0,3.1,3.1,0,0,0,1-.5,10.6,10.6,0,0,0,1.6-1.5c1.2-1.3,2.5-2.9,3.4-4.1l1.1-1.5a.3.3,0,0,1,.1-.2h0c0-.1.1.2.1.1l.2.2c-.1-.1.2,0,.1,0h.2c-.1,0,0,0-.1.1l-.9,1.1-1.3,2a8.1,8.1,0,0,0-1,3.4,2.4,2.4,0,0,0,0,1.2c.1.3.2.5.4.5a.4.4,0,0,1-.4.8,2,2,0,0,1-.8-1,8.1,8.1,0,0,1-.1-1.6,9,9,0,0,1,1.2-3.6,9.3,9.3,0,0,1,1.4-2.2c.3-.5.7-.9.9-1.2l.2-.2c.1,0,.2-.1.4,0l.3.2v.2c0,.3-.1.3-.2.5l-1.1,1.5c-1,1.3-2.2,2.9-3.5,4.3a9,9,0,0,1-1.8,1.6l-1.2.6a1.1,1.1,0,0,1-1-.1,1,1,0,0,1-.5-.9,2.1,2.1,0,0,1,.1-1.1A6.1,6.1,0,0,1,274,48a2.1,2.1,0,0,1,1-.6,1.4,1.4,0,0,1,1.1.2"/><path class="cls-5" d="M285.1,48.8c-.1.2-.4.2-.6.1s-.2-.4,0-.6a1,1,0,0,0,.1-.3h.1c-.1-.1.1.1,0,.1s.2,0,.2,0h0l-.3.2a6,6,0,0,0-.8.8,4.1,4.1,0,0,0-.5.9.8.8,0,0,0-.2.5s-.1-.2,0-.2-.2-.2-.2-.1-.1-.1-.1-.1h.3l.9-.4.5-.3h.4l.3.2a1.3,1.3,0,0,1,.1.6,8.9,8.9,0,0,1,.2,1.1s-.1-.1,0-.1h-.1l.7-.5a.4.4,0,0,1,.6,0,.3.3,0,0,1,0,.5,3.1,3.1,0,0,1-1,.8c-.1,0-.3.1-.5,0s-.3-.2-.4-.3a3.9,3.9,0,0,1-.3-1.4v-.2h-.1l-1,.5h-.8c-.1,0-.3-.3-.3-.5a1.4,1.4,0,0,1,.2-.7,4.1,4.1,0,0,1,.7-1.1,3.8,3.8,0,0,1,.9-.9l.5-.3h.6c.2.1.2.3.3.5s-.1.2-.1.3l-.3.5"/><path class="cls-5" d="M286,44.5a.4.4,0,0,1,.6,0,.3.3,0,0,1,.1.5c-.1.1,0-.1,0-.1v-.2c.1,0,0-.1,0-.1s-.1-.1,0-.1h0l.4.3,1.3.6c.2.2.3.4.2.6a.5.5,0,0,1-.6.2l-1.2-.7-.5-.3h-.2a.1.1,0,0,1-.1-.1.5.5,0,0,1,0-.5"/><path class="cls-5" d="M289.1,50.5c.1-.2.4-.2.6-.1a.4.4,0,0,1,.2.5c-.1.1-.1.2-.2.2l-.3.2c-.2,0-.4-.1-.4-.2a.3.3,0,0,1-.1-.2,2.8,2.8,0,0,1-.1-.9,3.1,3.1,0,0,1,1.3-2.5c.8-.6,2.1-.7,3.9-.4a.5.5,0,0,1,.3.5.3.3,0,0,1-.5.3h-2.1l-1.2.4a2.2,2.2,0,0,0-.9,1.8v.7h-.1c.1.1-.2,0-.2,0h-.2"/><path d="M117.8,55.7a.4.4,0,0,1,.4-.4c.3,0,.5.1.5.4h0a5.4,5.4,0,0,0-.2,1.1l-.3,1.9a6.4,6.4,0,0,1-.2.9v.2h0s-.2-.1-.1-.1h-.2c.1.1-.2.1-.1.1h-.1a.8.8,0,0,1,.1-.3.4.4,0,0,1,.8.4l-.3.4c-.1.1-.1.2-.3.2a.2.2,0,0,1-.3,0l-.2-.2a1.1,1.1,0,0,1-.1-.5,4.4,4.4,0,0,1,.2-1c.1-.7.2-1.4.3-1.9a5.9,5.9,0,0,0,.1-1.1h0m1.8,8.2a.4.4,0,0,1-.4.4.4.4,0,0,1-.4-.4h0V56.4c0-.4-.1-.7-.1-.9v-.2h0s.1.2.1.1.1.1,0,.1.2.1.2,0h.2c-.1.1.1-.1.1,0h.1c-.1,0,0,0-.1.1v.4c-.1.4-.1.8-.2,1.3a14.9,14.9,0,0,1-.2,2.1,10,10,0,0,0-.2,1.6c-.1.4,0,.7-.1,1s0-.1,0-.1h0l-.8-.2h0a10.5,10.5,0,0,1-.1-1.2V56.8a7.8,7.8,0,0,1,.1-.9v-.3h0c.1-.2.3-.4.5-.3s.4.2.3.5h0V56a3.2,3.2,0,0,1-.1.8v3.7a1.9,1.9,0,0,0,.1.8v.6c-.1.3-.3.4-.5.3a.3.3,0,0,1-.3-.5h0v-.3h0a2.3,2.3,0,0,1,.1-.7,11.5,11.5,0,0,1,.2-1.6,13.6,13.6,0,0,1,.2-2.1c.1-.5.1-.9.2-1.3v-.5a1.3,1.3,0,0,1,.3-.5c.1-.1.5,0,.6.1s.1.1.1.2v.3a2.5,2.5,0,0,1,.1.9v7.5h0m1.1-1a.5.5,0,0,1-.3.5.4.4,0,0,1-.5-.2h0a7.2,7.2,0,0,1-.1-1.7c0-.3-.1-.8-.1-1.2a12.1,12.1,0,0,1-.1-1.9c-.1-.6-.1-1.1-.2-1.4h0s.1.1.1,0,.1.2.1.1h.3c-.1,0,.1-.1.1-.1h.1a.8.8,0,0,1-.1.3c-.1.4-.1,1.1-.2,1.9a1.3,1.3,0,0,1-.1.6v2a5.7,5.7,0,0,0-.1,1.2v1a.4.4,0,0,1-.8,0V61.7a12.7,12.7,0,0,0,.1-2c0-.3.1-.5.1-.7s.1-1.5.2-2,0-.4.3-.6a.4.4,0,0,1,.5-.1c.1.1.1.2.2.2v.3c.1.3.1.8.2,1.4s.1,1.3.1,2,.1.8.1,1.2.1,1.3.1,1.6h0m1.4,1.3a.5.5,0,0,1-.6-.1.6.6,0,0,1,.1-.6c.1,0-.1.2-.1.2h0a.3.3,0,0,1-.1-.2c-.1-.3-.1-.5-.2-.8s-.2-1.4-.3-2.1-.2-1.5-.3-1.9v-.3h.4c-.1,0,.1-.1.1-.1h0a5.4,5.4,0,0,0-.1.8,6.8,6.8,0,0,0-.2,1.5,9.7,9.7,0,0,0-.1,1.6v.5h0a.3.3,0,0,1-.5.3c-.2,0-.4-.2-.3-.4h0v-.6a8.6,8.6,0,0,1,.1-1.5,8.8,8.8,0,0,1,.2-1.7,2.4,2.4,0,0,1,.2-.9.5.5,0,0,1,.3-.4h.5a.7.7,0,0,1,.2.6c.1.5.2,1.2.4,2s.1,1.5.2,2,.1.5.2.8,0,.2.1.2v.2s.1.2-.2.4m-.6-.5c0-.2.3-.3.5-.3a.5.5,0,0,1,.3.5h0c-.1.2-.3.4-.5.3s-.4-.2-.3-.4h0m1.1-4.5c.2,0,.3.3.2.5s-.3.3-.5.2h.2c0,.1.1,0,.1,0h.1a5.1,5.1,0,0,1-.1,1c-.1.6-.1,1.2-.2,1.8a1.5,1.5,0,0,1-.1.7v.4h0V64c-.1,0-.1.2-.3.2s-.5-.1-.5-.3a.3.3,0,0,1,.3-.5c.1,0-.2.1-.1,0h-.2v-.3a2.2,2.2,0,0,0,.1-.8,11,11,0,0,1,.2-1.8,1.7,1.7,0,0,1,.1-.7,1.2,1.2,0,0,1,.2-.8h.4a.1.1,0,0,1,.1.1m1,5.1a.4.4,0,0,1-.4.4.4.4,0,0,1-.4-.4h0c-.1-.5-.2-1.6-.3-2.6a13,13,0,0,0-.3-1.3c0-.3,0-.4-.1-.5h.1c-.1-.1,0,.1,0,0h.5a.3.3,0,0,1-.5,0c-.2-.1-.2-.4,0-.6h.4l.3.3v.2a.7.7,0,0,1,.1.5l.3,1.4c.1,1,.2,2.1.3,2.6v.2h0m-.7-5.6a.5.5,0,0,1,.6-.1c.2.1.2.4.1.6h.1a7.2,7.2,0,0,0-.1,1.8v3.5h0a.4.4,0,0,1-.4.4c-.2,0-.4-.1-.4-.3h0V62.4a9.6,9.6,0,0,1,0-1.7,8.2,8.2,0,0,1,.1-1.8h0m1.4,4.7a.5.5,0,0,1-.1.6c-.2.1-.5.1-.6-.1h-.1c0-.2-.1-.5-.1-.9l-.3-1.9c-.1-.6-.1-1.2-.2-1.5V59h0c0-.1.1.1.1.1s-.2-.5,0-.6a.5.5,0,0,1,.6.1h.1v.4c.1.4.1.9.2,1.5s.2,1.3.3,1.8.1.7.1.9h0m1.3-4.3a.5.5,0,0,1,.5-.3c.2.1.4.3.3.5h0v1.6a10.3,10.3,0,0,0-.1,1.7v1.7h-.6l-.2-.3c-.1-.5-.3-1.4-.6-2.5s-.1-.5-.2-.8-.3-1.2-.4-1.5h0s.2.1.1.1h.2s.2-.1.1-.1h0c-.1.4-.1,1-.2,1.7v2.7c0,.1,0,.1-.1.2h0a.4.4,0,1,1-.7-.3h-.1V62.4a8.1,8.1,0,0,0,.1-1.6c.1-.6.1-1.3.2-1.8l.2-.3c0-.1.1-.2.3-.2s.4,0,.5.1a.4.4,0,0,1,.1.3,15.6,15.6,0,0,1,.5,1.6c.1.3.1.6.2.9s.5,2,.6,2.4h0s-.1-.1,0-.1h-.1c0,.1-.2,0-.1,0h-.5v-3a12.3,12.3,0,0,0,.1-1.7h0m-.4-.2c-.1-.2.1-.4.3-.4s.5.1.5.4h0v.9a12.1,12.1,0,0,0,.1,1.8,17.2,17.2,0,0,0,.2,2.6.7.7,0,0,0,.1.5h-.2c.1,0-.1-.1,0-.1h-.6a5.3,5.3,0,0,0,.1-1.4,18.5,18.5,0,0,0-.1-2.3V59.3h0c0-.3.1-.5.4-.5s.4.1.4.3,0,.1,0,.2a.8.8,0,0,0,.1.4v5.1a.3.3,0,0,1-.1.2s.1.1-.1.3-.4,0-.5,0-.1-.2-.2-.2v-.2c-.1-.1-.1-.3-.1-.6a18.7,18.7,0,0,1-.2-2.7,11.5,11.5,0,0,1-.1-1.8v-.9h0m.8,4.8a.4.4,0,0,1-.4.4.4.4,0,0,1-.4-.4h0V59h0a.4.4,0,0,1,.4-.4.4.4,0,0,1,.4.4h0v4.7h0m-.7-7.6c-.1-.2-.1-.5.1-.6s.4-.1.5.1.1.2.1.2v7.9h0a.4.4,0,0,1-.4.4.4.4,0,0,1-.4-.4h0V62.3a17.6,17.6,0,0,1,0-2.3V56h0c0-.1.1.1.1.1m.1-3.6c0-.3.3-.4.5-.4a.5.5,0,0,1,.3.5h0v1.9a2.8,2.8,0,0,0-.1.9V56c-.1.7-.1,1.5-.2,2.2v2a5.4,5.4,0,0,0,0,1.8v.7h-.1c.1,0-.2-.1-.1-.1h-.5V55.8h0a.5.5,0,0,1,.5-.3c.2.1.4.3.3.5h0v7.3a.4.4,0,0,1-.5.1.2.2,0,0,1-.2-.2h-.1v-.3c0-.2-.1-.4-.1-.8V60.1a11.5,11.5,0,0,0,.1-1.9c.1-.8.1-1.5.2-2.2V53.9a10.3,10.3,0,0,0,.1-1.4h0m-.7-5.1c-.1-.2.1-.4.3-.5a.5.5,0,0,1,.5.4h0v.3c0,.7-.2,1.9-.3,3.5V52a14.9,14.9,0,0,0-.2,2.1,21.8,21.8,0,0,0-.1,2.5v1.3a2.7,2.7,0,0,0,.3,1.5h0c0,.1-.2,0-.2,0s-.2.1-.1,0h-.2c.1,0,.1-.4.1-1.1a.9.9,0,0,1,.1-.5V55.5a1.7,1.7,0,0,0,.1-.7v-1a1.7,1.7,0,0,1,.1-.7,23.5,23.5,0,0,1,.1-2.8,2.2,2.2,0,0,1,.1-.9c0-.1-.1-.1,0-.3a.1.1,0,0,0,.1-.1.6.6,0,0,1,.6,0,.3.3,0,0,1,.1.2h0a25,25,0,0,1,0,2.8c0,.7-.1,1.6-.1,2.4s-.1,2.6-.1,3.7v2.3h-.1c.1,0-.1-.1-.1-.1h-.2c.1,0-.2.1-.1,0h-.2a3.8,3.8,0,0,0,.1-1.2V56.8a7.6,7.6,0,0,0,.1-1.5V52.6h0c0-.2.1-.5.4-.5a.4.4,0,0,1,.4.4h0v4.7a14.1,14.1,0,0,0-.1,2v1.5s0,.1-.2.2h-.4l-.2-.2v-.2c-.1-.1-.1-.4-.1-.7V58.2c0-1.1,0-2.4.1-3.7s.1-1.7.1-2.5V49.4h0c0-.1.1.1.1,0s0,.1,0,.1h.5c0,.1.1-.1.1,0h.1c-.1,0,0-.1,0-.1h0a2.2,2.2,0,0,0-.1.9c0,.7-.1,1.7-.1,2.7a1.7,1.7,0,0,1-.1.7v1.7a21.8,21.8,0,0,0-.1,2.5c0,.1-.1.3-.1.4a3.4,3.4,0,0,1-.1,1.5c-.1.1-.1.2-.3.3h-.4c-.2-.1-.2-.2-.3-.3a3.3,3.3,0,0,1-.4-2V56.6a23.5,23.5,0,0,1,.1-2.6c0-.7.1-1.4.1-2a2.5,2.5,0,0,0,.1-.8c.1-1.6.2-2.8.3-3.5v-.3h0m-.5-1.9c-.1-.2-.1-.5.1-.6s.4-.1.6.1h0v.7c-.1.6-.2,1.4-.3,2.3s-.3,2.6-.4,4-.1.6-.1.9-.1,2.1-.2,3v1.7c.1.5.2.8.2.9s0,.1.1.1-.1-.1-.1,0h-.3c.1,0-.2.1-.1,0h-.1a.8.8,0,0,1,.1-.3c0-.3.1-.9.1-1.6s.1-1.6.2-2.5.1-1.2.1-1.8.3-2.9.4-3.9v-1c0-.1,0-.1.1-.2s-.1,0,0-.1a.4.4,0,0,1,.5-.2c.2,0,.3.3.3.5s0-.1,0-.1h0v.2a2.2,2.2,0,0,0-.1.9c-.1,1-.2,2.5-.4,4s-.1,1.2-.1,1.8-.1,1.7-.2,2.5a8.6,8.6,0,0,1-.1,1.7.6.6,0,0,0-.1.4c-.1.1-.1.2-.3.3h-.4l-.2-.2a.4.4,0,0,1-.1-.3,5.3,5.3,0,0,1-.3-1.1V55.8c0-.9.1-1.9.2-2.9a3.1,3.1,0,0,1,.1-1c.1-1.4.3-2.8.4-4s.2-1.7.2-2.2a.8.8,0,0,0,.1-.4h0m-.5-2.3a.4.4,0,1,1,.7-.3h0c.1.1.1.1,0,.2s-.1,1.4-.2,2.8a25.3,25.3,0,0,0-.4,3.2c-.1.5-.1,1-.2,1.5a4.1,4.1,0,0,1-.1,1.1,24.6,24.6,0,0,0-.2,2.6,25.6,25.6,0,0,0-.1,3.8,5.3,5.3,0,0,0,.1,1.4v.3h0s-.1-.1,0-.1-.3,0-.2,0h-.2a18.1,18.1,0,0,0,.4-3.7c.1-1.1.2-2.2.2-3.3a5.3,5.3,0,0,0,.1-1.3,2.8,2.8,0,0,0,.1-.9c.1-1.1.2-2.1.2-2.9s.1-1.1.2-1.6v-.8c0-.1,0-.1.1-.2h0c.2-.1.4-.2.6,0s.2.4.1.6h0v.8c-.1.4-.1,1-.2,1.5s-.1,1.9-.2,3v.9a5.7,5.7,0,0,0-.1,1.3l-.3,3.2c0,.9-.1,1.8-.1,2.4a5.7,5.7,0,0,1-.3,1.6c-.1.3-.3.5-.4.5a.5.5,0,0,1-.5,0l-.2-.2a.9.9,0,0,1-.1-.5,6.3,6.3,0,0,1-.2-1.6c0-1,.1-2.3.2-3.8a24.5,24.5,0,0,1,.2-2.7c0-.4.1-.7.1-1.1s.1-1,.2-1.4a24.8,24.8,0,0,1,.4-3.3c.1-1.4.2-2.3.2-2.7h.1m-.3-.3c-.1-.2.1-.4.3-.5a.5.5,0,0,1,.5.4h0a12.5,12.5,0,0,1-.1,1.4l-.3,1.9c-.1.7-.1,1.4-.2,2.1l-.3,2.7-.3,2.5a5.7,5.7,0,0,0-.1,1.3c0,.4-.1.7-.1,1,0,1.8-.1,3.3,0,4.2s.1.5.2.6-.1,0,0,0-.2,0-.1,0h-.3a.4.4,0,0,0,.1-.3,3.8,3.8,0,0,0,.1-1.2,15.5,15.5,0,0,0,.1-2.2,15.5,15.5,0,0,0,.1-2.2,7.6,7.6,0,0,0,.1-1.5c0-.8.1-1.7.1-2.5s.1-3.4.2-4.7.1-1.8.1-2.3a1.8,1.8,0,0,0,.1-.6h0c0-.1,0-.1.1-.2s.4-.2.6-.1a.6.6,0,0,1,.1.6h0v.6a11.8,11.8,0,0,0-.2,2.2c-.1,1.4-.1,3-.2,4.7a20.9,20.9,0,0,1-.1,2.5v1.5c-.1.8-.1,1.5-.2,2.2a14.8,14.8,0,0,1-.1,2.2,5.7,5.7,0,0,1-.1,1.4,1.4,1.4,0,0,1-.2.6l-.4.3h-.5c-.1-.1-.1-.2-.2-.4a1.9,1.9,0,0,1-.2-.8,30.3,30.3,0,0,1,0-4.3,3.4,3.4,0,0,1,.1-1,6.6,6.6,0,0,1,.1-1.4,21.1,21.1,0,0,1,.2-2.5c.1-.9.3-1.8.4-2.7a14.9,14.9,0,0,1,.2-2.1,15.4,15.4,0,0,0,.2-1.9c.1-.9.2-1.3.2-1.4h0m-.9-.7c0-.2.1-.4.3-.4s.5.1.5.4h0c0,.3-.1.8-.2,1.5s-.3,2.4-.5,3.8l-.3,2.1c0,.4-.1.8-.1,1.3s-.1.6-.1.9-.1.9-.1,1.3a26.1,26.1,0,0,0,0,4,3,3,0,0,0,.2.9H122s-.1.1-.1,0h0a10,10,0,0,0,.4-2.6c0-.4.1-.8.1-1.2a2.5,2.5,0,0,1,.1-.9c0-1.2.1-2.4.2-3.5s.1-2.2.2-3.2a13.7,13.7,0,0,0,.2-1.9,13.7,13.7,0,0,0,.2-1.6c0-.1,0-.3.1-.3h0c0-.2.3-.3.5-.3a.6.6,0,0,1,.3.6h0c0,.1-.1.2-.1.4s-.1.8-.2,1.5a13.7,13.7,0,0,1-.2,1.9c-.1,1-.1,2-.2,3.1s-.2,2.4-.2,3.5-.1.6-.1.9a4.5,4.5,0,0,1-.1,1.2,10.8,10.8,0,0,1-.4,3c-.1,0-.1.1-.2.2a.5.5,0,0,1-.4.2h-.3l-.2-.2a2.2,2.2,0,0,1-.4-1.3,29,29,0,0,1,0-4.2c0-.4.1-.8.1-1.2a3.1,3.1,0,0,1,.1-1c0-.4.1-.9.1-1.3l.3-2.1c.2-1.4.4-2.8.5-3.8a13.9,13.9,0,0,1,.2-1.5h0m-.8.4c0-.2.2-.4.4-.3a.4.4,0,0,1,.4.4h0c0,.2-.1.5-.1,1l-.3,1.3-.3,1.9-.3,1.7a14.9,14.9,0,0,0-.2,2.1,25,25,0,0,0-.2,2.5v1.5c0,.3.1.6.1.8s.2.4.2.5h-.2a10.6,10.6,0,0,0,.3-1.4c0-.7.1-1.6.1-2.6a4.5,4.5,0,0,0,.1-1.1c0-.4.1-.9.1-1.3s.1-.7.1-1,.1-2.3.2-3.2.1-.5.1-.8.1-1.5.2-1.9,0-.3.1-.4-.1,0,0-.2a.5.5,0,0,1,.6-.2c.2.1.2.4.1.6h.1c0,.1-.1.2-.1.4s-.1,1.1-.2,1.9a1.7,1.7,0,0,1-.1.7c0,1-.1,2.1-.2,3.3s-.1.6-.1.9a6.6,6.6,0,0,1-.1,1.4v1c-.1,1-.1,1.9-.2,2.7a5.3,5.3,0,0,1-.4,1.6l-.2.3-.5.2a.5.5,0,0,1-.4-.2,2,2,0,0,1-.4-.8c0-.2-.1-.6-.1-1V53.2a24.6,24.6,0,0,1,.2-2.6,14.9,14.9,0,0,1,.2-2.1l.3-1.8.3-1.8a8.6,8.6,0,0,1,.3-1.3c0-.5.1-.8.1-1h0m-.4-1.4c.2-.2.4-.1.6.1s.1.4-.1.5h.1c-.1.1,0-.1,0,0h0v.2a1.1,1.1,0,0,1,0,.6,11.1,11.1,0,0,1-.2,1.7c-.2,1.2-.4,2.7-.6,4.2s-.1.9-.1,1.4a2.8,2.8,0,0,0-.1.9,7.1,7.1,0,0,0-.1,1.4,3.8,3.8,0,0,0-.1,1,4.1,4.1,0,0,1-.1,1.1v1.8a4.2,4.2,0,0,0,.3,1.7h0s-.1-.1-.1,0-.2-.1-.1-.1h-.1a.8.8,0,0,1,.1-.3,5.7,5.7,0,0,1,.1-1.2v-1a5.3,5.3,0,0,0,.1-1.3v-1a5.7,5.7,0,0,0,.1-1.3,4.1,4.1,0,0,1,.1-1.1,19.3,19.3,0,0,1,.1-2.4,6.6,6.6,0,0,1,.1-1.4v-.9q.2-1.5.3-2.4c0-.3,0-.5.1-.6v-.2h0a.3.3,0,0,1,.5-.3c.2,0,.3.2.3.4h0v.2c-.1.1-.1.3-.1.6s-.2,1.4-.3,2.3v1c0,.4-.1.9-.1,1.3s-.1,1.7-.1,2.5-.1.7-.1,1V53a3.4,3.4,0,0,0-.1,1v1.2a3.8,3.8,0,0,0-.1,1c0,.5-.1.9-.1,1.3s-.1.6-.4.8a.4.4,0,0,1-.3.2h0c-.1.1.2,0,.1,0s-.2.1-.4,0h-.2l-.2-.3a5.1,5.1,0,0,1-.3-2.1V54.1a4.9,4.9,0,0,1,.1-1.2V52c.1-.5.1-1,.2-1.4a3.1,3.1,0,0,1,.1-1c0-.5.1-1,.1-1.4s.4-3,.6-4.2a12.8,12.8,0,0,0,.2-1.7v-.7h0c0-.1,0-.2.2-.3m-.9,0a.4.4,0,0,1,.4-.4c.2,0,.4.1.4.3v.2a13.5,13.5,0,0,1-.3,2,2.2,2.2,0,0,1-.1.8c-.1,1-.3,2.1-.4,3.3l-.3,3.5a5.3,5.3,0,0,0-.1,1.3V53a15,15,0,0,0,0,3,4.9,4.9,0,0,0,.2,1.5l.2.3H120v-.2c.1-.4.1-.8.2-1.3s.1-1.4.1-2.3a2.8,2.8,0,0,0,.1-.9,6.6,6.6,0,0,1,.1-1.4c0-1.2,0-2.4.1-3.6V46.5c0-.3.1-.7.1-1s.2-2.2.3-2.9a1.7,1.7,0,0,1,.1-.8v-.3h0l.2-.2c.2-.2.4-.1.6,0s.1.5-.1.6.1-.1.1,0,0-.1,0-.1h0v.2c0,.2-.1.4-.1.8s-.2,1.7-.3,2.8a4.1,4.1,0,0,1-.1,1.1v1.5c-.1,1.2-.1,2.4-.1,3.6s-.1,1-.1,1.5v.9c-.1.8-.1,1.6-.2,2.2a4.6,4.6,0,0,1-.2,1.4.7.7,0,0,1-.2.6.5.5,0,0,1-.8,0c-.2-.1-.2-.3-.3-.5a4.2,4.2,0,0,1-.3-1.8,15,15,0,0,1,0-3v-.9a5.7,5.7,0,0,1,.1-1.3c0-1.1.2-2.3.3-3.4s.3-2.4.4-3.4a2.5,2.5,0,0,0,.1-.8,13.5,13.5,0,0,0,.3-2h0m.2.3c-.2-.1-.2-.4-.1-.6a.5.5,0,0,1,.6,0h.1l-.8.4v-.2a.4.4,0,0,1,.4-.4.4.4,0,0,1,.4.4V41a.4.4,0,0,1-.8.4c0-.1.2.2.2.1m-1.4.1a.4.4,0,0,1,.5-.2.5.5,0,0,1,.2.6h0a4.5,4.5,0,0,0-.2.8c-.1.3-.1.8-.2,1.3V45a26.6,26.6,0,0,0-.2,3v5.8c.1.8.2,1.4.3,1.9a1.5,1.5,0,0,0,.3.7h-.1c0,.1-.3.1-.2,0s-.1.1-.1.1a7.1,7.1,0,0,0,.2-1.2,15.6,15.6,0,0,1,.1-2V51.2c0-.4.1-.9.1-1.4v-.9c0-.8.1-1.7.1-2.5a11.5,11.5,0,0,1,.1-1.9V43.4c.1-.7.1-1.3.2-1.7s.1-.3.1-.5h0s0-.1.3-.2.4,0,.5.3a.4.4,0,0,1-.2.5c-.1,0,.1-.1.1-.1h.1c0,.1-.1.2-.1.4a13.7,13.7,0,0,1-.2,1.6v1.1c0,.6-.1,1.2-.1,1.9s-.1,1.7-.1,2.5v1a5.7,5.7,0,0,1-.1,1.3v2.2c0,.7-.1,1.4-.1,2a12.3,12.3,0,0,1-.2,1.3,1.1,1.1,0,0,1-.5.5h-.5c-.1-.1-.2-.2-.2-.3l-.3-.8a11.8,11.8,0,0,1-.3-2.1,26.2,26.2,0,0,1-.1-2.9v-.8a5.3,5.3,0,0,1,.1-1.3V48a28.5,28.5,0,0,1,.2-3.1v-.8c.1-.5.1-1,.2-1.4a4.5,4.5,0,0,1,.2-.8v-.2h.1m0,0c0-.2.3-.3.5-.2a.4.4,0,0,1,.2.5h0a.4.4,0,0,1-.4.4c-.2,0-.4-.3-.4-.5h.1m0-2.6c-.2-.2-.2-.5,0-.6a.3.3,0,0,1,.5,0h.1c.2.3.1.3.1.3s-.2,1-.3,1.8a2,2,0,0,1-.1.7c0,.3-.1.7-.1,1s-.3,2-.4,3.1-.1.8-.1,1.3-.1.6-.1,1-.1,2.8-.1,4.1A14.3,14.3,0,0,0,119,54a3.9,3.9,0,0,0,.4,1.4.8.8,0,0,0,.2.6h-.1c.1.1-.1,0-.1,0h-.3c0-.1.1-.2.1-.4V48.1c0-1.5-.1-2.8-.1-3.9V41.9h0s.1.1,0,.1.1-.5.3-.5a.3.3,0,0,1,.5.3h.1c0,.2-.1.5-.1.8v1.5c.1,1.1.1,2.4.1,3.9v2.1c0,.4.1.8.1,1.2v2.8c0,.6-.1,1.1-.1,1.5s-.1.4-.1.6l-.3.4H119l-.2-.3a1.4,1.4,0,0,0-.2-.6,5.4,5.4,0,0,1-.4-1.5,15.6,15.6,0,0,1-.3-2.5c0-1.3,0-2.7.1-4.2s.1-.6.1-1,.1-.9.1-1.3.3-2.1.4-3.1.1-.7.1-1a2,2,0,0,0,.1-.7c.1-.8.3-1.4.3-1.7h0s.1.1,0,.1h.1m-1.3.4a.4.4,0,0,1,.4-.4.4.4,0,0,1,.4.4v1.1c0,.3-.1.8-.1,1.2s-.1,1.2-.2,1.8a1.9,1.9,0,0,1-.1.8l-.3,3.1c-.1,1.4-.2,2.8-.2,4.1v4.4h-.4c.1-.1-.1,0-.1,0h-.1a16.2,16.2,0,0,0,.3-2.5c0-.2.1-.5.1-.7V51.4q.2-1.5.3-3.3c0-.5.1-1,.1-1.5s.1-1.5.2-2.3a19.4,19.4,0,0,1,.2-2.4l.3-1.9a5.8,5.8,0,0,0,.2-1l.2-.4v-.2h.2a.4.4,0,1,1,.3.7c0,.1.2-.1.2-.1h0a.8.8,0,0,1-.1.4,5.8,5.8,0,0,1-.2,1q-.1.8-.3,1.8c-.1.7-.1,1.5-.2,2.4s-.1,1.5-.2,2.3-.1,1-.1,1.5-.2,2.3-.2,3.3a4.5,4.5,0,0,0-.1,1.1,2.2,2.2,0,0,1-.1.8,14.5,14.5,0,0,1-.3,2.7l-.2.2c0,.1-.1.1-.2.2l-.4-.2c-.3-.2-.2-.3-.2-.5V54a22.5,22.5,0,0,1,0-2.6c0-1.2.1-2.6.2-4s.2-2.2.3-3.1.1-.6.1-.9.1-1.2.2-1.7.1-.9.1-1.3v-1h0m.6,14.9a.4.4,0,0,1-.4.4c-.2.1-.4-.1-.5-.3h0v-.9a18.3,18.3,0,0,0-.2-2.1c0-1-.1-2-.2-3.2v-.9c0-1.2,0-2.5.1-3.7a2.8,2.8,0,0,1,.1-.9c0-.4.1-.8.1-1.1a10.6,10.6,0,0,1,.3-1.4,1.5,1.5,0,0,1,.1-.7h0c0-.2.2-.3.4-.3a.4.4,0,0,1,.4.4h0v.2a2.2,2.2,0,0,0-.1.6c-.1.4-.2.8-.3,1.4s-.1.7-.1,1.1-.1.6-.1.9-.1,2.4-.1,3.6v.9c.1,1.1.2,2.1.2,3.1a18.3,18.3,0,0,1,.2,2.1,2,2,0,0,0,.1.9h0M118,39.6a.4.4,0,0,1-.2.5.4.4,0,0,1-.6-.3h0s.1.1.1,0h.3c-.1,0,.2-.1.1,0s.2-.2.1-.2h.1v.2a1.5,1.5,0,0,0-.1.7v1.8a5.3,5.3,0,0,1,.1,1.3v.5c.1.7.1,1.5.2,2.4v.7a3.1,3.1,0,0,1,.1,1,1.3,1.3,0,0,1,.1.6,18.5,18.5,0,0,1,.1,2.3c.1,1.1.1,1.9.1,2.5v.5h0c0,.3-.2.4-.5.4a.4.4,0,0,1-.4-.4h0v-.6a20.4,20.4,0,0,0,0-2.5,17,17,0,0,0-.1-2.2c0-.2-.1-.4-.1-.7a2.8,2.8,0,0,0-.1-.9v-.7c-.1-.9-.1-1.7-.2-2.5v-.5a6.2,6.2,0,0,1-.1-1.3V39.8c0-.1.1-.2.1-.3s-.1-.2.2-.3a.5.5,0,0,1,.5,0h.1a.4.4,0,0,1,.1.3"/><path d="M119.2,39.5a.8.8,0,0,1-.6.9.8.8,0,0,1-1-.6h0a.3.3,0,0,1-.1-.2,3.7,3.7,0,0,1,.2-1.2c0-.2.1-.5.1-.7v-.3h0c0-.1.1.2.1.1s.2.4.1.3.3.2.2.1h.7c-.1.1,0-.1,0-.1h0a1,1,0,0,0-.1.3c-.1.2-.2.3-.2.4l-.3.7a.3.3,0,0,1-.1.2h0c0,.1.2.1-.3.5a.8.8,0,0,1-1.2-.2.8.8,0,0,1,.2-1.1l-.2.2c.1-.1-.1.2-.1.1h0v-.6a2.5,2.5,0,0,0,.2-.7v-.2s.1.3,0,.2.2.3.1.2l.2.2h.8c-.1,0,.1-.1.1,0s.1-.1.1-.1a.1.1,0,0,0-.1.1.3.3,0,0,0-.1.2,1.4,1.4,0,0,1-.7.5l.3-.2c-.1.1.2-.4.2-.3s0-.3,0-.3v-.2c0,.1-.1-.2-.1-.1h-.1c.1,0,0-.1,0,0a.8.8,0,0,1,.4,1.1.8.8,0,0,1-1.1.3l-.5-.3c0-.1-.1-.2-.2-.4s-.1-.3,0-.5l.5-.5h0c.1,0-.2.3-.1.2l.2-.5.2-.2h.2a.6.6,0,0,1,.7-.1.9.9,0,0,1,.5.3.4.4,0,0,1,.1.3.2.2,0,0,1,0,.3v.4c0,.2-.1.5-.1.7a.4.4,0,0,0-.1.3v.4a.5.5,0,0,1-.3.5l-1-1.3-.2.2h-.1c.1-.1,0,.1,0,.1a1.7,1.7,0,0,1,.2-.5l.3-.8c.1-.1.1-.3.2-.3a.8.8,0,0,1,.2-.4.8.8,0,0,1,.5-.7c.2,0,.4-.1.6,0a.7.7,0,0,1,.6.3.8.8,0,0,1,.3.8.4.4,0,0,0-.1.3c0,.2-.1.5-.1.8s-.2.6-.1.7h0m-.1-3.2a.9.9,0,0,1,1.1.3.8.8,0,0,1-.3,1.1h.1c-.1.1.2-.2.1-.2s.1,0,0,0l-.5,1.4-.3.6c0,.2,0,.3-.3.6s.2-.2.1-.1h.1s0,.2-.3.4a.8.8,0,0,1-1.2-.2.8.8,0,0,1,.2-1.1l-.2.2c0-.1-.1.2-.1.2l.2-.4c.1-.1-.1.2-.1.1a4.5,4.5,0,0,0,.3-.8c.3-.5.5-1.1.7-1.5s-.1-.1.3-.4h.1m1.5,5.4a.9.9,0,0,1-.5,1.1.8.8,0,0,1-1-.5c-.1-.2-.1-.2-.1-.3a6.9,6.9,0,0,1,.2-1.3c.1-.5.1-.9.2-1.3a4.5,4.5,0,0,0,.1-1.1v-.6h0s.2.4.1.3.3.2.2.1l.3.2h.3c-.2,0,.3-.1.2-.1s.1,0,.1,0,0,0-.1,0l-.7,2a7.6,7.6,0,0,0-.4,1.1.8.8,0,0,1-.1.4c-.1,0-.1.1-.2.2l-.2.2c-.2,0-.5.1-.7-.1s-.5-.5-.5-.6v-.2a4.4,4.4,0,0,1,.2-1l.3-1.3a10.6,10.6,0,0,1,.3-1.4,1,1,0,0,1,.1-.4h0v.2c0-.1.1.3,0,.2a.9.9,0,0,1,.5-1.1.7.7,0,0,1,1,.4.3.3,0,0,1,.1.2v.3c0,.2-.1.3-.1.5a9.6,9.6,0,0,0-.3,1.5l-.3,1.2c-.1.4-.2.7-.2.8h0s-.1-.3,0-.2v-.2l-.3-.2h-.4c.1,0-.3.1-.3,0s-.2.2-.2.2h-.2c.1-.1,0,0,.1-.2a6.2,6.2,0,0,0,.3-1,8.7,8.7,0,0,1,1-2.4c.1-.2.3-.4.4-.4h.1a1.1,1.1,0,0,1,.7-.1l.5.3a.4.4,0,0,1,.1.3c.1.2,0,.3,0,.4a1.1,1.1,0,0,1,0,.8,5.3,5.3,0,0,1-.1,1.2,5.1,5.1,0,0,1-.2,1.3c-.1.6-.2,1-.2,1h0v-.2h0m1.4,2a.8.8,0,0,1-.5,1.1.8.8,0,0,1-1-.5c-.1-.1-.1-.1-.1-.2a10.9,10.9,0,0,1,.1-1.7.9.9,0,0,0,.1-.5.4.4,0,0,0,.1-.3c.1-.5.1-.9.2-1.4V39a4.1,4.1,0,0,0,0-1.2s.2.3.1.2l.4.2c-.2,0,.5-.1.4,0h.1a4.8,4.8,0,0,0-.4.8c-.1.2-.1.5-.2.7s-.3,1.2-.4,1.6a4.5,4.5,0,0,0-.2.8.4.4,0,0,1-.1.3s.2.1-.4.4a.8.8,0,1,1-.7-1.4h-.3v.2h0a6.4,6.4,0,0,0,.2-.7,13.6,13.6,0,0,1,.4-1.7l.3-.8a3.1,3.1,0,0,1,.8-1.5l.3-.2h.6l.6.3.2.4a4.9,4.9,0,0,1,.1,1.7,5.7,5.7,0,0,1-.1,1.3,7.8,7.8,0,0,1-.2,1.6.4.4,0,0,1-.1.3v.4l-.2,1.3c.1,0,0-.3,0-.2m1.3.9a.9.9,0,0,1-.6,1,1,1,0,0,1-1-.7v-.2h0c0-.3.1-1.1.2-2a3.4,3.4,0,0,0,.1-1,9.2,9.2,0,0,0,.1-1.6v-.8c0-.2.1-.2,0-.3l.2.3c0-.1.3.1.2.1h.7c-.1,0-.2.3-.3.7s-.1.7-.2,1a3.1,3.1,0,0,0-.2.8,8.6,8.6,0,0,0-.3,1.7c0,.2-.1.4-.1.6s0,.1-.1.2v.2h-.1a.9.9,0,0,1-1.2.2.9.9,0,0,1-.1-1.2c.1-.1-.1.2-.1.2s0,.1,0,.1h0a1.1,1.1,0,0,1,.1-.5,7.5,7.5,0,0,1,.3-2,6.4,6.4,0,0,0,.2-.7,3.7,3.7,0,0,0,.2-.9,2.9,2.9,0,0,1,.5-1.4,1.3,1.3,0,0,1,.9-.5l.7.2c.2.2.2.4.3.5a4.3,4.3,0,0,1,0,1.6v1.7c-.1.4-.1.8-.2,1.2a14.9,14.9,0,0,0-.1,1.9c-.1,0,0-.1,0-.1s-.1-.2-.1-.1m.8-1.4a.9.9,0,0,1,.2,1.1.8.8,0,0,1-1.2.2l-.2-.3c-.1-.1-.1-.1-.1-.2v-.3a2.4,2.4,0,0,1,0-1.2,7.6,7.6,0,0,1,.1-1.6A12.1,12.1,0,0,0,123,39V37.9s.1.2,0,.1.2.3.1.2l.2.2h.9c-.1,0,.2-.2.1-.1s.2-.2.1-.2l-.2.6v.3c-.1.4-.2,1-.3,1.6l-.3,1.4c0,.4-.1.7-.1,1.1a5.4,5.4,0,0,0-.1,1.1v.5h-.1v.2a.8.8,0,0,1-1.5-.7s-.1.2-.1.1h0a.4.4,0,0,1,.1-.3V43c.1-.4.1-.8.2-1.1a7.7,7.7,0,0,0,.2-1.5c.1-.6.3-1.2.4-1.7a.8.8,0,0,1,.1-.4,3,3,0,0,1,.4-1h.1a.8.8,0,0,1,.9-.2.6.6,0,0,1,.5.5v.6a1.4,1.4,0,0,1,0,.9,16.2,16.2,0,0,1-.1,2.1c0,.4-.1,1-.1,1.4v1.1h0c0,.1-.1-.3-.1-.2s-.4-.3-.2-.2m1.5,2.4a1,1,0,0,1-.7.9.8.8,0,0,1-.9-.7h0c-.1,0-.1,0-.1-.1V44.3a10.9,10.9,0,0,0,.1-1.8V40.8a2.8,2.8,0,0,0,.1-.9V38.4h0s.1.2,0,.1v.2c0-.1.3.3.2.2l-.2-.2h0s.2.2.1.2.4.1.3.1h.9c0,.1-.1.2-.1.3a.1.1,0,0,0-.1.1c-.1.5-.2,1.2-.3,1.9a5,5,0,0,0-.2,1.2.7.7,0,0,0-.1.5V43c-.1.2-.1.4-.2.6a.7.7,0,0,1-.2.7l-.2.2h-.3a.8.8,0,0,1-1-.6,1,1,0,0,1,.6-1c.1,0-.3.2-.2.2H123v.2h0v-.2a1.3,1.3,0,0,0,.1-.6V42a5,5,0,0,0,.2-1.2c.2-.8.3-1.5.4-2.1l.2-.3a.8.8,0,0,1,.1-.4.3.3,0,0,0,.1-.2l.6-.4.7.2.2.2h-.1c.1,0-.2-.3-.1-.2s.3.3.3.4v2.9a8.6,8.6,0,0,1-.1,1.6v3.1h0M124,41.4a.8.8,0,1,1,1.5.7c-.1.1,0-.1,0-.1h0v1.7a4.5,4.5,0,0,0,.1,1.1v1h0a1,1,0,0,1-.9.7.8.8,0,0,1-.7-.9h-.1V42.4a2.6,2.6,0,0,1,0-.9h.1m.7-.9a.8.8,0,0,1,1,.6.7.7,0,0,1-.5,1h.2c-.1.1.2-.2.2-.1s0-.1,0-.1h0c-.1,0,0-.2,0-.2v4.4c.1.3.1.6.2.9v.5h0l-1.5.4c-.2-.5-.1-.3-.1-.4h0a.9.9,0,0,0,.1-.5V45.3c0-.7-.1-1.3-.1-1.9s-.1-.5-.1-.7a2.1,2.1,0,0,1-.1-.6h.1l.2.2a.7.7,0,0,1-.2-1.1.7.7,0,0,1,1.1-.2c.4.3.3.4.3.4a.3.3,0,0,1,.1.2,2,2,0,0,0,.1.7c0,.2.1.5.1.8a14.1,14.1,0,0,1,.1,2v2.5h0c0,.1-.1-.2-.1-.1s-.1.8-.5,1a.8.8,0,0,1-1-.6s-.1,0-.1-.3v-.4a2,2,0,0,1-.2-.9v-.8a13.3,13.3,0,0,1,0-2V42.2a1.5,1.5,0,0,1,.1-1.1.1.1,0,0,1,.1-.1c0-.1,0-.1.1-.2l.2-.2h.2m-2.6,19.9a.8.8,0,0,1,1.5-.7c.1.1.1.1.1.2v2.7c0,.5.1.9.1,1.1h0s-.1-.2,0-.1h-.1l-.3-.2c.1.1-.5.1-.4,0l-.2.2c0-.1-.2.1-.2.1a1.6,1.6,0,0,0,.2-1c.1-.6.3-1.2.4-1.7s.1-.6.1-.9.1-.2.1-.4a.3.3,0,0,0,.1-.2s0-.1.2-.2a.8.8,0,0,1,1-.2.6.6,0,0,1,.4.6v.6a2.1,2.1,0,0,1,0,.8V62h0s-.1-.2,0-.1l-.2-.3h-.7l-.3.2c.1-.1-.1.2-.1.1V62c.1-.1,0,0,0-.1a3.7,3.7,0,0,0,.2-.9c.1-.5.1-1.1.2-1.7v-.9q.2-1.6.3-2.4a.8.8,0,0,0,.1-.4V54.2a4.3,4.3,0,0,0,.1-.5,5.3,5.3,0,0,1,.1-1.3c0-.3.1-.5.1-.7s0-.2.2-.6h0a.8.8,0,0,1,1.1-.4.7.7,0,0,1,.3,1.1c0,.1.1-.2.1-.1v-.2a1.1,1.1,0,0,1,0,.6v4.3c0,.4-.1.6,0,.7s-.1,0-.1,0h-.1c.1,0-.1-.2-.1-.1l-.2-.2h-.4l-.4.2s-.2.3-.2.2-.1.3-.1.2,0,.1,0,.1h0v-.2c0-.2-.1-.5-.1-.8s-.1-.6-.1-.9-.1-.6-.2-.9-.3-.8-.4-1.3a1.5,1.5,0,0,0-.1-.7,4.1,4.1,0,0,0-.1-1.1V50.4a4,4,0,0,0,0-1.1V46.6c.1-.6.2-.9.2-1.1V42.2a.7.7,0,0,1,.1-.5v-.2h0c0-.1.1.2,0,.1s0-.3-.1-.4.1.2.1.1.2.4.1.3a.8.8,0,1,1,1.3-.9l.2.2v.2h0v-.2c.3.6.1.6.1.8s-.1.3-.1.4v3.3c0,.5-.1.7-.1,1.1v.6c0,.2-.1.5,0,.7v3.4a3.1,3.1,0,0,0,.1,1v.5c.1.5.3.8.4,1.3a3.6,3.6,0,0,0,.2,1c0,.4.1.7.1.9a3.4,3.4,0,0,1,.1.9.4.4,0,0,0,.1.3v.2a.8.8,0,0,1-.3.6.8.8,0,0,1-.8.2.7.7,0,0,1-.4-.3l-.2-.3a4.3,4.3,0,0,1-.1-.5V53.4a2.5,2.5,0,0,1,.1-.8v-.9c0-.1-.2-.1.1-.6l1.4.7c0,.1.1-.1.1-.1v.2h.1a.3.3,0,0,0-.1.2,1.5,1.5,0,0,1-.1.6c0,.4-.1.8-.1,1.2v1.3a2,2,0,0,1-.1.7v.5a10.6,10.6,0,0,0-.3,2.2,2.8,2.8,0,0,0-.1.9,9.9,9.9,0,0,1-.2,1.8,3.8,3.8,0,0,1-.1.8.8.8,0,0,1-.1.4.3.3,0,0,1-.1.2c0,.1-.1.3-.4.4a1,1,0,0,1-1.2-.5,1,1,0,0,1-.1-.9V60.1h0c0-.1.1.2.1.1s.1.2.1.2h.5c-.2,0,.6-.1.4,0s.3-.3.3-.2.1-.2.1-.2h0a.8.8,0,0,1-.1.4c0,.2-.1.5-.1.9a8,8,0,0,0-.3,1.5c-.1.4-.1.7-.2,1a1.4,1.4,0,0,1-.5.9.6.6,0,0,1-.7.2.9.9,0,0,1-.6-.3c-.2-.2-.2-.4-.3-.6a6.6,6.6,0,0,1-.1-1.5V60.2s.1.3,0,.2m-.7-.9a.8.8,0,0,1,.5-1.1.7.7,0,0,1,1,.5v.2h0v1.1a2.9,2.9,0,0,1,0,1.3V63c0,.2,0,.3.1.3s-.1,0,0,0-.1-.1-.1-.1h-.1s-.2-.2-.1-.2-.4-.1-.3-.1h-.7c.1,0-.2.2-.2.2s0,.1,0,.1a5.1,5.1,0,0,1,.1-.9,6.8,6.8,0,0,1,.2-1.4c0-.3.1-.5.1-.8a.3.3,0,0,1,.1-.2s-.1,0,.1-.3a.8.8,0,0,1,1.1-.3,1,1,0,0,1,.3,1.2c-.1.1,0-.2,0-.2s.1-.1.1-.1a.3.3,0,0,0-.1.2,2.5,2.5,0,0,1-.1.8,6.9,6.9,0,0,0-.2,1.3c-.1.6.1.9-.4,1.6a1.1,1.1,0,0,1-.9.3c-.4-.2-.4-.4-.5-.5a.8.8,0,0,1-.1-.3V59.3h0c0-.1.1.2,0,.1m-3.5.7a.8.8,0,0,1,.3-1.1.7.7,0,0,1,1.1.2.8.8,0,0,1,.1.4c.1.3,0,.4,0,.6s.1.5.1.7v1.5a2,2,0,0,1,.1.7v.2h0s-.1-.2-.1-.1l-.2-.2c.1,0-.2-.1-.1-.1h-.8c0-.2.1-.8.2-1.4a2.5,2.5,0,0,0,.1-.8l.2-.5c0-.1.1-.3.5-.4a.8.8,0,0,1,.8.2c.1.1.2.2.2.3s.1.8.1,1.2V63c0,.2.1.4.1.6v.2h-.2c.1.1-.3,0-.2,0h-.5c0-.1-.2.2-.2.1s-.1.1,0,.1h0a.6.6,0,0,1,.1-.4,11.6,11.6,0,0,1,.4-1.8v-.3c.1-.2.1-.4.2-.6s.1-.7.2-1,.1-.1.2-.3.1-.3.5-.3a.6.6,0,0,1,.6,0l.3.3c.4.6.1.8.1,1a.8.8,0,0,1,0,.7v.5a.9.9,0,0,1,.1.5v.2h0s-.1-.2-.1-.1l-.3-.2h-.6c.1,0-.2.3-.2.2v.2h0v-.2c0-.4.1-.6.1-.9s.1-.6.1-.9.1-.6.2-.9v-.3h.1c0-.1,0-.1.1-.2l.3-.4a.8.8,0,0,1,.7,1.5l.3-.2h.1c-.1.1,0-.2,0-.1h0v.2a1.9,1.9,0,0,0-.1.8c-.1.3-.1.7-.2,1a3.5,3.5,0,0,1-.1.6v.5a.4.4,0,0,1-.1.3c0,.1,0,.1-.1.2a.9.9,0,0,1-.6.4h-.6c-.3-.2-.3-.4-.4-.5a.3.3,0,0,0-.1-.2v-.4a1.5,1.5,0,0,1-.1-.7V60.1h0c0-.1.2.2.1.1l.3.3h.9c-.1,0,.1-.2.1-.1h.1c-.1.1-.1.4-.2.7s-.1.5-.2.7V62a13.6,13.6,0,0,0-.4,1.7l-.2.5a.8.8,0,0,1-.1.4c0,.1-.2.3-.5.5h-.9c-.4-.2-.4-.5-.5-.7v-.4a1.9,1.9,0,0,1-.1-.8V61.1h0s.1.2.1.1.2.3.1.2.5.2.3.2.6-.1.4,0l.3-.2c-.1.1.2-.2.2-.1s.1-.1,0-.1.1-.1.1,0a6.4,6.4,0,0,0-.2.7,5.7,5.7,0,0,1-.3,1.8s0,.2-.3.5l-.6.2h-.5a.6.6,0,0,1-.4-.6.8.8,0,0,1-.1-.4,1.9,1.9,0,0,1-.1-.8,7.6,7.6,0,0,0-.1-1.5V59.9h0c0-.1.2.3.1.2m-1.5-4.3a.9.9,0,0,1,1.4-1h0a.3.3,0,0,1,.1.2.8.8,0,0,0,.1.4V58a5.7,5.7,0,0,0,.1,1.3,10.8,10.8,0,0,0,.3,1.9,10.4,10.4,0,0,0,.3,1.2c.1.3.2.4.2.6s.1.1.1.2h-.1l.3.2h-.1c.1,0-.1-.1,0-.1h-.3c.1,0-.7,0-.5-.1l-.3.2c.1-.1-.2.2-.1.2s-.1.1-.1.1h0V59.8c0-.1-.1-.1.1-.4A.8.8,0,0,1,119,59a1,1,0,0,1,.3,1.2s.1-.3.1-.2h0v3.9a.4.4,0,0,1-.1.3c0,.1-.1.4-.6.5a1.1,1.1,0,0,1-.8-.2h.1a1.1,1.1,0,0,1-.6-.8,6.4,6.4,0,0,1-.2-.7,10.4,10.4,0,0,1-.4-1.3,13,13,0,0,1-.4-2.1c0-.5-.1-1-.1-1.5V55.7h0s.1.2.1.1h0m-1.2,10a.8.8,0,0,1-.2-1.2.9.9,0,0,1,1.1-.2h-.8l-.2.2c.1-.1.1-.1.1-.3s.1-.6.1-.9a5.9,5.9,0,0,0,.2-1.3c.1-.3.1-.6.2-.9s.1-.6.1-.9.1-1.2.2-1.7v-.9a4.5,4.5,0,0,0,.1-1.1,2.8,2.8,0,0,0,.1-.9,1.3,1.3,0,0,1,.1-.8.8.8,0,0,1,1.1-.3.8.8,0,0,1,.4,1.1v-.2c0,.1,0,.1-.1.3v.9a4.1,4.1,0,0,0-.1,1.1c0,.3-.1.6-.1,1a11.1,11.1,0,0,1-.2,1.7c0,.3-.1.7-.1,1a2.2,2.2,0,0,0-.1.8,6.9,6.9,0,0,0-.2,1.3c-.1.4-.1.7-.2,1.1s0,.6-.5,1l-.4.2h-.7M114.7,47a.9.9,0,0,1,.8-.8.8.8,0,0,1,.9.7h0v.2c-.1,1,0,2.1,0,3.1a13.1,13.1,0,0,0,0,2.8v2.6c0,.1.1.2.1.4V58c0,.1.1.2.1.3v.3a.8.8,0,0,1,.1.4v.7a2.2,2.2,0,0,1-.2,1c0,.5.1,1.1.1,1.8v1.9a.8.8,0,0,0-.1.3v.4h0v-.2a.9.9,0,0,1-.5,1.1.9.9,0,0,1-1.1-.6c-.1-.5,0-.5,0-.5s.1-.4.1-.6h.1V62.5a11.5,11.5,0,0,1-.1-2c0-.4.1-.7.1-.9a.4.4,0,0,0,0-.5v-.5a.7.7,0,0,1-.1-.5V56.6h0c0-.2-.1-.3-.1-.6a2,2,0,0,1,0-1.1c0-.6-.1-1.1-.1-1.7V50.3c.1-.9,0-2,0-3.2v-.2h0m2.7-2.7a.8.8,0,0,1-.3,1.1,1,1,0,0,1-1.2-.3,1,1,0,0,1-.1-.7,4.9,4.9,0,0,1-.1-1.2V40.4c0-.4.1-.7,0-.9s.1,0,0-.2-.2-.4-.3-.5a5.4,5.4,0,0,0-.3-1,1.8,1.8,0,0,1-.1-.6,1.1,1.1,0,0,0-.1-.5v-.9c0-.4.5-.7.9-.7s.8.5.7.9v.4c0,.5-.1.9-.1,1.2s-.1.9-.1,1.3a.8.8,0,0,0-.1.4v1.3c0,.2.1.1,0,.5s.1,0,.1.3v2.9c0,.5-.1.8-.1,1.1s.1.4.2.7V47a.9.9,0,0,1-.9.8.9.9,0,0,1-.8-.8v-.7c0-.2-.1-.4-.1-.7a2.9,2.9,0,0,1,.1-1.4V41.8c0-.1-.1-.2-.1-.3a1.5,1.5,0,0,1,0-.7h0v-1a1.6,1.6,0,0,1,0-.7v-.4c.1-.4.1-.8.2-1.2s.1-.9.1-1.1-.1-.3,0-.6l1.6.2h0v.4a3.9,3.9,0,0,0,.2.6v.4a4.6,4.6,0,0,1,.3.9.3.3,0,0,1,.1.2,3,3,0,0,1,.3.9v5h0m-1.3-4.2c.1-.4.6-.5,1-.4a.8.8,0,0,1,.4,1.1c0,.1.1-.1.1-.1h0v.8a10.3,10.3,0,0,1-.1,1.7v.8a2.7,2.7,0,0,1,0,.9V45a.9.9,0,1,1-1.6-.6h0V43c0-.6.1-1.2.1-1.7a2.7,2.7,0,0,1,0-.9h0v-.2m1.5,8.6c.1.4-.3.8-.8.8a.9.9,0,0,1-.8-.8h0V47.2c0-.5.1-.9.1-1.3a6.1,6.1,0,0,0,.1-1.4V43.4a8.8,8.8,0,0,0,.1-1.4.4.4,0,0,0-.1-.3c0-.3-.1-.5-.1-.7a.5.5,0,0,1-.1-.3h0c0-.1.1.1.1,0s.1.3.1.2a.8.8,0,0,1,.1-1.2.9.9,0,0,1,1.2.2c.3.4.1.3.1.4a.3.3,0,0,0,.1.2c0,.2.1.5.1.7a1.3,1.3,0,0,1,.1.6v1.5a6.2,6.2,0,0,1-.1,1.3,7.1,7.1,0,0,1-.1,1.4,3.7,3.7,0,0,1-.1,1.1v1.4h0m.4,3.2c.1.4-.3.8-.7.9a.8.8,0,0,1-.9-.8h0v-8a12.8,12.8,0,0,0,.1-1.8v-.5h0s.1.2.1.1v.2s.2.3.2.2h.7c-.1,0,.3-.2.3-.1s.1-.3.1-.2h.1a21.4,21.4,0,0,0-.3,2.4v.6c0,.2-.1.4-.1.7v.4a17.7,17.7,0,0,0-.1,2.2.7.7,0,0,1,0,.5v.2a.8.8,0,0,1-.8.8.9.9,0,0,1-.8-.8h0V48a22.7,22.7,0,0,1,.1-2.4V44.5a.9.9,0,0,0,.1-.5,14.3,14.3,0,0,1,.3-2.6,1.1,1.1,0,0,1,.1-.5l.2-.2.7-.2a1,1,0,0,1,.5.4c.1.1.1.1.1.2s.1.4.1.5v.5a10.3,10.3,0,0,0-.1,1.8c0,.6-.1,1.1-.1,1.7v6.3h0m-.6,3.7a.8.8,0,0,1-.9.7,1,1,0,0,1-.7-1h0a8.5,8.5,0,0,0-.1-1.3c0-.7-.1-1.5-.1-2.2V49.5c.1-.5.1-1.1.2-1.6s.1-.7.1-1.1l.3-1.4c.1-.5.1-1,.2-1.4s-.1-.1.1-.5-.1.2-.1.2,0,0,.2-.4a.8.8,0,0,1,1.1-.2.8.8,0,0,1,.3,1.1c-.1.1.1-.3.1-.3h0v.5c0,.2.1.5.1.8v1.7c0,.6-.1,1.2-.1,1.7A7.6,7.6,0,0,0,118,50v1.9h0a.9.9,0,0,1-.8.8.9.9,0,0,1-.8-.9h0V48.4a9.2,9.2,0,0,0,.1-1.6V44.1c-.1-.1-.2-.2.1-.8l1.4.9c-.1.1.1-.2.1-.2s0-.1,0-.1a1,1,0,0,1-.1.4c-.1,0,0-.2,0-.2v.2c0,.2-.1.8-.2,1.4l-.3,1.4c0,.3-.1.6-.1,1s-.1,1-.1,1.5v2.3a14.8,14.8,0,0,0,.1,2.1,5.3,5.3,0,0,0,.1,1.4h-.1m.7-6a.9.9,0,0,1-.2,1.2.8.8,0,0,1-1.1-.1,6,6,0,0,1-.6-1.1.8.8,0,0,1-.2-.4.1.1,0,0,0-.1-.1c0-.1.1,0,.1,0h0s.2.1.1.1h.8c-.1.1.2-.3.2-.2s.1-.3.1-.2,0-.1,0-.1v2.9c0,.2.1.3.1.4v2.6a2.3,2.3,0,0,1,.1.7h0a.8.8,0,0,1-.5,1,.9.9,0,0,1-1.1-.5h0v-.3a5.4,5.4,0,0,1-.1-.8c0-.7-.1-1.6-.1-2.6V49.1a1.1,1.1,0,0,1-.1-.5,6380659718627.9,6380659718627.9,0,0,1,.2-.6.7.7,0,0,1,.6-.4,1,1,0,0,1,.7.2c.1.1.1.2.2.2s.3.7.5.9a2.1,2.1,0,0,0,.4.7"/><path d="M120.5,42a.8.8,0,0,1,1.4-.8h.1v.2c0,.1,0,.1.1.2v.3a1.2,1.2,0,0,1-.5.8l-.4.6-.6.8-.5.9h0v-.2c0,.1-.3-.5-.2-.4l-.4-.2h-.1a.7.7,0,0,1,1.1.2,1,1,0,0,1-.3,1.2,1.1,1.1,0,0,1-.9.2,1,1,0,0,1-.8-.6v-.6a5,5,0,0,1,.8-1.4,3.7,3.7,0,0,1,.6-1l.5-.5a.1.1,0,0,1,.1-.1h0v.2h0s.1.1,0,.1.1.2.1.1h0m1.2-3.1a.9.9,0,0,1,.5-1.1.7.7,0,0,1,1,.5.8.8,0,0,1,0,.7l-.2.2-.2.3a11.4,11.4,0,0,1-1.1,1.1l-1,.9a4.1,4.1,0,0,0-.6,1.1H120c0,.1-.1-.3-.1-.2s-.4-.3-.2-.3h-.6l.4-.4.7-.4c.2-.1.2-.3.7-.4s-.2.1-.1,0h-.1c0-.1.1-.1.3-.2a.8.8,0,1,1,.4,1.6h.2c-.1.1.1,0,.1,0l-.4.2h.2l-.4.2-.6.5-.4.3a1.6,1.6,0,0,1-.9.3,1.5,1.5,0,0,1-.7-.5,1.3,1.3,0,0,1-.1-.6,1.9,1.9,0,0,1,.2-.7,4.6,4.6,0,0,1,.9-1.4,5.7,5.7,0,0,1,1.1-1.1l1-1a.2.2,0,0,1,.2-.2h0s-.1.3-.1.2v.2c0-.1.1.4,0,.3m.4.4a.8.8,0,0,1-.4-1.1.9.9,0,0,1,1.1-.4c.1.1-.4,0-.3,0h-.6a.9.9,0,0,1,1.2,0,.8.8,0,0,1-.1,1.2h-.1a.7.7,0,0,1-.8,0m1.8-2.9a.9.9,0,0,1,1.1-.6,1,1,0,0,1,.5,1.1,1.1,1.1,0,0,1-.4.5c-.6.4-1.9.9-3.1,1.5a6.5,6.5,0,0,0-1.5,1l-.4.4h0s-.1-.3-.1-.2-.2-.3-.1-.2-.3-.2-.2-.2-.3,0-.3,0h.2c.2,0,.4-.2.6-.3l.9-.6.6-.5h.2a.1.1,0,0,1,.1-.1h.5a.8.8,0,0,1,.8.8.9.9,0,0,1-.9.8h.3c-.1,0,.1-.1.1-.1h-.1l-.6.5-1,.6a1.9,1.9,0,0,1-.9.5.9.9,0,0,1-1.2.1,1.2,1.2,0,0,1-.5-.5,1.1,1.1,0,0,1-.1-.5,3.4,3.4,0,0,1,.3-.8,4.6,4.6,0,0,1,.7-.7l1.9-1.2,2.9-1.4s-.1.1-.1,0-.1.2,0,.1-.2.4-.2.3m-1.1,1.1a.8.8,0,0,1-.5-1.1.8.8,0,0,1,1-.5c.1.1-.2,0-.1,0h1.6c.1,0,.2,0,.4.2s.4.7.2,1.1a.9.9,0,0,1-1.2.2h-.3a3.3,3.3,0,0,1-1,0h-.1m-6.4-.7a.8.8,0,0,1-.5-1,.8.8,0,0,1,1.1-.5h1.7l2-.2h1.7c.1,0,.1-.1.5.2h-.3l.3.2-.9,1.4c0-.1.3.1.2,0h-5.9a.7.7,0,0,1-.9-.7.7.7,0,0,1,.7-.9c.5-.1.4,0,.6,0h7.4s-.1.1-.1,0-.1.3-.1.2,0,.4,0,.3.1.3,0,.2.2.3.2.2h-.4l-.8.2h.1c-.1.1.1-.6.1-.4s-.1-.5,0-.4l-.2-.2h-.1c.1.1-.1,0-.1,0h2.6a1,1,0,0,1,.5.6.8.8,0,0,1-.3.8h-.2l-.2.2-.6.2-.9.2h-.4s.2-.1.1,0h.1a.8.8,0,1,1-.7-1.4.1.1,0,0,1,.1-.1h.4l.8-.2h.4v.2c0-.1-.1.3-.1.2v.3c-.1-.1.2.5.2.4l.2.2h-2.2l-.5-.2-.3-.4a.8.8,0,0,1,.2-1,.9.9,0,0,1,.6-.3l1.2-.2a1.7,1.7,0,0,1,1.5.2l.3.4a1.1,1.1,0,0,1,.1.8l-.5.6-.6.2h-.9l-2.3-.2h-4.9l-.2-1.6h6.2c0-.1,0-.3.6.1a.8.8,0,0,1,.3,1.1,1,1,0,0,1-1.2.3c0-.1.3,0,.2,0h.1a.6.6,0,0,1-.4-.2h-1l-2.1.2h-2.1c-.1,0-.1,0-.1-.1h-.2m4.9-1.2a.8.8,0,0,1,.9-.8.9.9,0,0,1,.8.9c0,.1-.1.2-.1.3s-.3.3-.3.3l-.7.3-1.1.3h-3.7c-.1,0,.2-.1.1,0l.2-.2h-.1v-.2a.7.7,0,0,1-1,.4.8.8,0,0,1-.4-1.1l.2-.3h0a.7.7,0,0,1,.6-.3h3.7l.9-.2h.3c0-.1-.1,0,0,0s-.1.1-.1,0-.2.4-.2.2-.1.6-.1.4m-3.9,0a.9.9,0,0,1,.2,1.2.8.8,0,0,1-1.1.2c-.1,0-.3,0-.4-.5a.9.9,0,0,1,.3-.9l.3-.2h2.1l1.9-.3,1-.2h.3a.5.5,0,0,1,.5.1q.1,0,.3.3a.7.7,0,0,1-.2,1.1.8.8,0,0,1-1.1-.2c-.1-.1.2.2.1.2h.2c-.1-.1.2,0,.2,0h-1a12,12,0,0,1-2,.3h-1.1a.8.8,0,0,1-.7,0h0c-.1,0,.2-.2.2-.1l.2-.3v-.3c0,.1-.1-.3,0-.3s-.2-.3-.2-.2-.1-.2-.1-.1h0"/><path d="M124.7,35.9a.7.7,0,0,1,.8-.8.8.8,0,0,1,.8.8h0v2c0,.3.1.6.1,1v8.8a1.1,1.1,0,0,0-.1.5.4.4,0,0,0-.1.3v2.6a.8.8,0,0,1,.1.3v.3a.7.7,0,0,1-.8.8.8.8,0,0,1-.8-.8v.2h0c-.1,0-.1-.1-.1-.2a4.2,4.2,0,0,0-.4-1l-.3-.9-.3-.8-.3-.5a2.9,2.9,0,0,1-.4-.8,3.6,3.6,0,0,1-.4-.9c-.1-.2-.1-.5-.2-.7s-.2-.3-.2-.4h0c0-.1.1.1.1,0l.2.2c-.1-.1.6,0,.4,0s.5-.3.4-.2.2-.3.2-.2h.1v.3a4,4,0,0,0,0,1.1,5.5,5.5,0,0,0,.1.9s-.2-.2-.1-.2-.3-.1-.2-.1-.3,0-.2,0H123c0-.1-.2,0-.2,0h.1c.2-.4.7-.4,1.1-.2a.9.9,0,0,1,.2,1.2,1.4,1.4,0,0,1-1,.5.5.5,0,0,1-.6-.2.8.8,0,0,1-.4-.4,8,8,0,0,1-.3-1.5V45.7a2,2,0,0,1,.1-.7.6.6,0,0,1,.2-.5,1,1,0,0,1,.9-.1c.4.1.4.3.5.4l.3.6.3.7a3.4,3.4,0,0,0,.3.8l.3.7.3.6a9.3,9.3,0,0,1,.5,1l.3.8.3,1.1c.1.1.2.1.2.6h-1.6c-.1-.1-.1-.1-.1-.2v-.3c0-.1-.1-.2-.1-.3V49.4q-.1-.1,0-.6v-.9a1,1,0,0,0,.1-.4c.1-.2,0-.5,0-.9a1.7,1.7,0,0,1,.1-.7V39c0-.3-.1-.6-.1-.9a6.5,6.5,0,0,1,0-1.4v-.8h0m1.6,0a.9.9,0,0,1-.8.8.8.8,0,0,1-.8-.8.7.7,0,0,1,.8-.8.8.8,0,0,1,.8.8"/><path d="M124.7,35.8a1,1,0,0,1,1.1-.5.8.8,0,0,1,.4,1.1s.1-.1.1,0,0-.2,0-.2h0c0,.2.1.4.1.8a14.1,14.1,0,0,1,.1,2.1v1.7c0,.7-.1,1.2-.1,1.7a7.1,7.1,0,0,0-.1,1.5v2.4c0,.2,0,.2.1.3a.9.9,0,0,1,.2,1.1.8.8,0,0,1-1.2.2,1.9,1.9,0,0,1-.7-1.5,4,4,0,0,1,0-1.1V42.4a7.7,7.7,0,0,0,.2-1.5c0-.5-.1-1.1-.1-1.7V37.3a2.2,2.2,0,0,1-.1-.8c0-.1-.1-.2,0-.4v-.3h0m0,10.2a.9.9,0,0,1,.8-.9.9.9,0,0,1,.8.8v.7c0,.1.1.2.1.3s.1.4.1.6a5.2,5.2,0,0,1,.2,1.7c0,.4.1.7.1,1a4.3,4.3,0,0,1,.1.5v.9a.3.3,0,0,1-.1.2.7.7,0,0,1-.7.5.9.9,0,0,1-.7-.3c0-.1-.1-.1-.1-.2s-.1-.3-.2-.5a1.3,1.3,0,0,0-.1-.6,2.2,2.2,0,0,0-.1-.8v-1c0-.1-.1-.4-.1-.6V46.9a3.1,3.1,0,0,1-.1-.9V44.7c0-.3.1-.5.1-.7V41.8a1,1,0,0,0,.1-.4V41a1.5,1.5,0,0,0-.1-.6v-.5c0-.1-.1-.2-.1-.4a10.7,10.7,0,0,1,0-1.8V36.1s.1.4,0,.3a.9.9,0,1,1,1.6-.6v3.4a.6.6,0,0,1,.1.4,1.3,1.3,0,0,0,.1.6V41h0v.8c0,.3-.1.6-.1.8v1.4a1.5,1.5,0,0,1-.1.7v1.1c0,.3.1.5.1.9v.5a2.8,2.8,0,0,0,.1.9v.6c0,.4.1.7.1.9a2.2,2.2,0,0,0,.1.8v.4c.1.2,0,.1.1.2h-.1l-.2-.2h-.8l-.3.2c.1-.1-.1.2-.1.1s0,.3,0,.3v-.5a.9.9,0,0,1-.1-.5,3.7,3.7,0,0,1-.1-1.1,3.2,3.2,0,0,0-.2-1.4c0-.1-.1-.4-.1-.6a1.3,1.3,0,0,1-.1-.6V46"/><path d="M124.1,63a.8.8,0,0,1,.1-1.1.9.9,0,0,1,1.2,0c.4.5.2.6.2.7a.4.4,0,0,1-.1.3V64h-.1c.1.1-.1-.2,0-.1l-1.4.8c-.4-.6-.1-.6-.1-.7v-.3a1.7,1.7,0,0,0,.1-.7v-.4s0,.1-.1,0l-.7-.9a.7.7,0,0,1,.1-1.1.8.8,0,0,1,1.1,0c.8.8,1.1,1.2,1.2,1.8v.7a2.5,2.5,0,0,1-.1.8V64h0s-.1-.2,0-.1-.2-.3-.1-.2a.9.9,0,0,1-.3,1.1.8.8,0,0,1-1.1-.3c-.3-.4-.2-.4-.2-.4s.1-.2.1-.4v-1h.1c-.1,0,0,.2,0,.1s.2.3.1.2m-6.5,2.8a.7.7,0,0,1,.1-1.1.8.8,0,0,1,1.1,0l.2.3h0s-.1-.2-.1-.1-.3-.2-.2-.2H125c.4,0,.5.2.6.2a.9.9,0,0,1,.1,1.2.8.8,0,0,1-1.1.1c-.1,0,.2.2.2.1h-1.3c-.1,0-.1-.3,0-.2s-.2-.3-.1-.2l-.2-.2h.1l1.1-.3.8.2h.3s-.1-.1,0-.1h-.4c.1,0-.2.3-.2.2s0,.3,0,.2h0v-.2c0-.3-.1-.5-.1-.7s-.2-.3-.2-.4-.1-.1-.1-.3l-.3-.4a.8.8,0,0,1-.2-.6.4.4,0,0,1,.1-.3c0-.1,0-.1.1-.2s.7-.4,1.1-.2a.8.8,0,0,1,.2,1.2c-.1,0,.1-.2.1-.2s0-.2,0-.2-.1-.5-.1-.4l.3.4.3.5c.1.2.1.4.2.5l.3,1V65a1,1,0,0,1-1.1,1.2,1.4,1.4,0,0,1-.7-.2H124l-.5.2h-.3c0,.1.1,0,.1,0h-.5a.9.9,0,0,1-.8-.4,1,1,0,0,1-.1-.9.6.6,0,0,1,.2-.5c.1-.1.2-.3.4-.4l.6-.2h2s0-.2.5.1l-1,1.3s.1.1,0,.1.4.1.3,0,0,.1-.2,0h-1.4l-1.3.2h-3.7a.9.9,0,0,1-.6-.3l-.2-.3h.1m5-2.2a.9.9,0,0,1,1,.6.9.9,0,0,1-.7,1c-.4.1-.5-.1-.5-.1h-2.1c-.1.1.1,0-.1.1a1,1,0,0,1-.6.2h-.4c-.1,0-.1.1-.2.2h-.4s.2-.2.2-.1a.8.8,0,0,1-1.2-.1.7.7,0,0,1,.1-1.1c.1-.1.1-.2.2-.2h.2l.3-.3.6-.3h.4l.3-.2.6-.2h2.3c.2,0,.3,0,.3.1h0s-.1-.1-.1,0h-.2M116.9,66a.8.8,0,0,1-.9-.8.8.8,0,0,1,.7-.8h.6l.5-.2a2.2,2.2,0,0,1,1-.2h2.9c.1,0-.1.1-.1,0h.1l.6-.3h1a.9.9,0,0,1,.1,1.2.8.8,0,0,1-1.1.1h.4c-.2.1,0,0-.1,0s-.1.2-.5.3h-2.3l-.9.2h-.6a1.4,1.4,0,0,1-.7.3h-.7m3.2-1.6a.7.7,0,0,1-.4,1,.8.8,0,0,1-1.1-.4l.2.2c-.1-.1.1.2.1.1h-1.5c-.1,0,0-.1,0-.1s.2-.3.1-.2V65h0v-.2c.1.1-.2-.3-.1-.2a.8.8,0,0,1,0,1.1.8.8,0,0,1-1.2.1.7.7,0,0,1-.2-.7h0a.8.8,0,0,1,.3-.8l.5-.3h1.3a2.9,2.9,0,0,1,1.3.1h.6c0,.1.1.2.1.3M117.6,60c.4-.1.8.3.9.7a.8.8,0,0,1-.8.9h.3c0,.1.3-.2.2-.1l.2-.3c-.1.1,0-.1,0,0v.4a3.4,3.4,0,0,1-.1,1c0,.4-.1.7-.1,1.1s-.1.5,0,.6h-.1l-.2-.2h1l-.2.2c.1-.1-.2.4-.1.3a.8.8,0,0,1,1-.6.9.9,0,0,1,.6,1l-.4.5h-2.6c-.1-.1-.4-.2-.5-.5a1,1,0,0,1-.2-.6c0-.4.1-.8.1-1s.1-.7.1-1.1.1-.6.1-.8-.1-.4,0-.6v-.3l.2-.3a.6.6,0,0,1,.6-.3"/><path d="M118,54.7a.8.8,0,0,1-.1-1.2.8.8,0,0,1,1.1-.1c.3.2.3.3.3.4a1.9,1.9,0,0,1,0,1.1.4.4,0,0,0,0,.5.9.9,0,0,1-.7.9.7.7,0,0,1-.9-.6,3.8,3.8,0,0,1-.1-1,4.3,4.3,0,0,1,.1-.5h0s.1.3,0,.2.1.2.1.1l.2.3m.2-.7a.8.8,0,0,1,1.1-.4.7.7,0,0,1,.4,1v.2h-.1c-.1.1-.1.1-.1.2l-.3.5-.3.5c0,.1,0,.1-.1.3s-.2.2-.6.3-.6-.1-.7-.3-.2-.3-.2-.4a2.6,2.6,0,0,1,0-.9l.3-.9c0-.1.1-.2.1-.3s0-.1.1-.2,0-.2.4-.4a.8.8,0,0,1,1.1.4.9.9,0,0,1-.5,1.1l.3-.2c-.1.1.1-.2.1-.1h0c0,.1.1,0,.1,0l-.2.3a1.2,1.2,0,0,1-.2.7v.3h0s-.1-.2-.1-.1-.2-.3-.1-.2l-.3-.2c.1,0-.5,0-.4-.1h-.4c0-.1.1-.2.2-.3a1.4,1.4,0,0,1,.2-.6c.1-.1.2-.2.2-.3h.1s-.1.2-.1.1m3.1,6.2a.8.8,0,0,1-1.1-.3.9.9,0,0,1,.4-1.1h-.2l-.2.3c.1-.1,0,.2,0,.1h0v-.6a12.1,12.1,0,0,1,.1-1.9v-.7h0s.1.2,0,.1.4.4.2.3.4.2.3.1h.9l-.2.3a1.4,1.4,0,0,1-.9.8,1.6,1.6,0,0,1-.9.2,2.1,2.1,0,0,1-1-.8,2.8,2.8,0,0,1-.4-1.2c0-.3-.1-.5-.1-.7v-.3h0s.1.2,0,.1.3.4.2.3a.6.6,0,0,1-.2-.5h0c0-.1.1.2.1.1s-.1-.8.3-1.1a.8.8,0,0,1,1.1.3v.3h0c0,.1-.3-.3-.2-.2s.2.5.3.6v.8l.2.6a.1.1,0,0,0,.1.1h-.4l.3-.2c0-.1.1-.2.1-.3l.2-.2v-.2h.6c.2,0,.4,0,.5.2s.2.2.2.3a.4.4,0,0,1,.1.3v1.1c0,.6-.1,1.3-.1,1.9v.8h0c-.1.1-.1.4-.5.5m1.9-1.3a.8.8,0,0,1-1.6.4,9.7,9.7,0,0,1-.2-1.2,3.2,3.2,0,0,1-.1-.8h0s.1.2,0,.1l.2.2h.3c-.1,0,.5-.1.4,0s.2-.2.2-.2.1-.1.1,0,0-.1,0,0a.4.4,0,0,0-.1.3l-.4.9a1.9,1.9,0,0,1-.2.8h-.1a.8.8,0,0,1-1,.5.9.9,0,0,1-.5-1.1h0a.4.4,0,0,1,.1-.3,4.5,4.5,0,0,1,.2-.8l.3-.9a2,2,0,0,1,.4-.8l.4-.4a1.1,1.1,0,0,1,.8.1c.4.3.4.5.4.7a2.9,2.9,0,0,1,.2.9c.1.5.2,1,.2,1.1"/><path d="M125,58.1a.8.8,0,0,1,.8-.9.9.9,0,0,1,.8.9h0v1.4h0c0,.1-.2-.3-.1-.2s-.2-.2-.1-.2-.6-.2-.4-.2-.6.1-.5,0a.9.9,0,0,1,1.1.6.8.8,0,0,1-.5,1,.9.9,0,0,1-1-.4c-.1-.2-.1-.3-.2-.3v-.3a1.1,1.1,0,0,0,.1-.5v-.8h0m1.6,1.2a.9.9,0,0,1-.8.8.8.8,0,0,1-.8-.8V58.1a.8.8,0,0,1,.8-.9.9.9,0,0,1,.8.9v1.2M125.2,55a.8.8,0,1,1,1.2,1.2c-.1.1.1-.3.1-.2h0v.5a6.6,6.6,0,0,1,.1,1.4v1.3h0a.9.9,0,0,1-.8.8.8.8,0,0,1-.8-.8h0V57.9c0-.4-.1-.8-.1-1.3v-.7a1,1,0,0,1,.3-.9"/><path d="M118.2,64.7a.8.8,0,0,1-.8.9.9.9,0,0,1-.8-.8,1.1,1.1,0,0,1,.1-.5.8.8,0,0,1,.6-.4.8.8,0,0,1,.5,0h1.4l1.7-.6a.8.8,0,0,1,1.1.4,1,1,0,0,1-.5,1.1,12.1,12.1,0,0,1-2,.7h-1.9l.3-.2.2-.2c-.1.1.1-.3.1-.2v-.2"/><path d="M154.5,47.5a.7.7,0,0,1,.6-.9.8.8,0,0,1,1,.6h0v.6c0,.2-.1.4-.1.6v.4c-.1.4-.1.8-.2,1.2s-.1.8-.1,1.1a2.2,2.2,0,0,1-.1.8v.5a14.1,14.1,0,0,0-.1,2,6.6,6.6,0,0,0-.1,1.3,1.8,1.8,0,0,1,.1.5c0,.1-.2-.3-.2-.2a.8.8,0,0,1,.3,1.1.9.9,0,0,1-1.1.3c-.3-.2-.6-.5-.6-.8a2.5,2.5,0,0,1-.1-.9V54.4c.1-.6.1-1.3.2-2.1v-.5c0-.2.1-.5.1-.7s.1-.8.1-1.2.1-.8.1-1.2a.9.9,0,0,0,.1-.5c0-.2.1-.3.1-.4v-.4h0m-.2-2.6a.8.8,0,0,1,1.5-.7h0c0,.1.1.1.1.2v1.5c-.1,1-.3,2.3-.5,3.6s-.2,2.7-.2,3.8v1.5c0,.5-.1.8,0,1v.3a.1.1,0,0,0,.1.1h-.1c0,.1-.1-.1-.1-.1s-.2-.2-.1-.2-.4-.1-.3-.1h-.2l-.3.2c.1-.1-.1.2-.1.1H154a.1.1,0,0,0,.1-.1v-.5a1.3,1.3,0,0,1,.1-.6V52.6a7.6,7.6,0,0,0,.1-1.5,20.9,20.9,0,0,1,.1-2.6v-.9a.4.4,0,0,1,.1-.3h0a.7.7,0,0,1,1-.5.8.8,0,0,1,.6,1c-.1.1,0-.1,0-.1h0v.2c0,.2-.1.5-.1.9a25.4,25.4,0,0,1-.1,2.6v1.9c0,.7-.1,1.3-.1,1.9a1.3,1.3,0,0,1-.1.6v.6a1.1,1.1,0,0,1-.4.9l-.5.2a.6.6,0,0,1-.7-.1c-.4-.2-.4-.4-.4-.5s0-.1-.1-.2-.1-.4-.1-.6V53.2c.1-1.1.2-2.5.3-3.8s.3-2.7.4-3.7a3.4,3.4,0,0,0,.1-.9h0m.1,0c-.3-.3-.1-.8.3-1.1a.8.8,0,0,1,1.1.3h0a.8.8,0,0,1-.4,1.1c-.3.2-.8,0-1.1-.4s.1.1.1,0m-.9,0a.7.7,0,0,1,0-1.1.9.9,0,0,1,1.2,0c.2.3.1.3.2.4a5.2,5.2,0,0,1,0,1.8v.9a1.7,1.7,0,0,0-.1.7c0,.4-.1.7-.1,1.1s-.1,1.4-.2,2.1v1.1a2.8,2.8,0,0,0-.1.9,14.1,14.1,0,0,0-.1,2c0,.5-.1,1-.1,1.4s.1,1.9.1,2.2v.2h0c0,.1-.2-.2-.1-.1s-.2-.1-.1-.1h-.9c.1-.1,0,.1,0,.1a1.8,1.8,0,0,1,.1-.5,12.5,12.5,0,0,1,.2-1.5c0-.9.1-2,.1-3.2s.1-1.3.1-2,.1-2.7.2-3.8a1.7,1.7,0,0,1,.1-.7c0-.6.1-1,.1-1.4s.1-.6.1-.8v-.3a.1.1,0,0,0,.1-.1V44a.9.9,0,0,1,1.3,1.1c-.1.1.1-.3.1-.2h.1c0,.1-.1.1-.1.2a2.8,2.8,0,0,1-.1.8c0,.4-.1.8-.1,1.3a1.7,1.7,0,0,1-.1.7c0,1.1-.1,2.4-.2,3.7v2c-.1,1.3-.1,2.4-.2,3.3s-.1,1.3-.2,1.7,0,.7-.4,1.1l-.6.4a2,2,0,0,1-.7-.2,1.1,1.1,0,0,1-.5-1,17.8,17.8,0,0,1-.1-2.5V54.7a12.7,12.7,0,0,0,.1-2,2.8,2.8,0,0,0,.1-.9,4.9,4.9,0,0,0,.1-1.2c.1-.7.1-1.4.2-2a3.7,3.7,0,0,1,.1-1.1v-.7c0-.3.1-.6.1-.8V44.6h0c0-.1.1.1,0,.1s.2.2.2.1m-.6.3a.8.8,0,0,1-.1-1.2.9.9,0,0,1,1.2,0c.4.4.3.6.3.7V45c0,.4-.1,1-.1,1.8a2.8,2.8,0,0,0-.1.9,1.5,1.5,0,0,0-.1.7c0,.3-.1.7-.1,1l-.3,3.2c-.1,1.1-.2,2.2-.2,3s-.1,1-.1,1.4v1.6a.4.4,0,0,0,.1.3h-.5c.1,0-.5.1-.4,0s-.3.3-.2.2h0c0-.2.1-.7.1-1.3V57a15.5,15.5,0,0,0,.1-2.3,4.9,4.9,0,0,0,.1-1.2,12.8,12.8,0,0,1,.1-1.9,39.5,39.5,0,0,1,.3-5,9.2,9.2,0,0,1,.2-1.9V44l.2-.2a.8.8,0,0,1,1.1,0,.7.7,0,0,1,0,1.2s.2-.2.1-.2h.1c-.1.1,0-.1,0-.1h0V45c-.1.3-.1,1-.2,1.7s-.2,3.2-.3,5-.1,1.3-.1,1.9v1.1c0,1-.1,1.7-.1,2.4a.9.9,0,0,1-.1.5,8.1,8.1,0,0,1-.1,1.6,1.3,1.3,0,0,1-.7.9.7.7,0,0,1-.9-.1c-.2-.1-.3-.3-.4-.4a1.8,1.8,0,0,1-.2-1V55.5q.2-1.3.3-3c0-1.1.1-2.2.2-3.2s.1-.8.2-1.1v-.7a2.8,2.8,0,0,0,.1-.9,4.3,4.3,0,0,0,.1-1.5v-.3h0s.1.2.1.1l.2.3m-1.7-1.5a.8.8,0,1,1,1.5-.7c0,.1.1.2.1.3v1.4c-.1.5-.1,1-.2,1.6s-.1.7-.1,1.1l-.3,2.1c0,.4-.1.8-.1,1.3a19.5,19.5,0,0,0-.2,2.3,5.3,5.3,0,0,0-.1,1.3,14.1,14.1,0,0,0-.1,2c0,.4-.1.7-.1,1v1.4c.1.6.1,1.1.2,1.4h-.1c.1.1-.2-.1-.1,0H151v-.5a5.1,5.1,0,0,0,.2-1.3,2.8,2.8,0,0,0,.1-.9,1.3,1.3,0,0,0,.1-.6c.1-.9.1-1.9.2-3.1v-.9c.1-1.1.2-2.3.2-3.3a3.8,3.8,0,0,0,.1-1c.1-1,.3-1.9.4-2.7a3,3,0,0,1,.2-1v-.3c.1-.1,0-.2.3-.5v.2h-.1a.9.9,0,0,1,1.6.6h0a.8.8,0,0,1-.2.4c-.1.1.1-.2.1-.1h0c0,.2-.1.6-.2,1.2s-.2,1.6-.3,2.6a2.8,2.8,0,0,0-.1.9c-.1,1-.2,2.2-.2,3.3s-.1.6-.1.9A28.5,28.5,0,0,1,153,57v.7a2.8,2.8,0,0,0-.1.9,8.3,8.3,0,0,0-.2,1.3c-.1.2-.1.5-.2.7a2.3,2.3,0,0,1-.7,1.1H151l-.4-.3a2,2,0,0,1-.4-.8,7.9,7.9,0,0,1-.2-1.7V56.4c0-.7.1-1.4.1-2.1a6.2,6.2,0,0,0,.1-1.3l.3-2.3c0-.5.1-1,.1-1.4a16.5,16.5,0,0,0,.2-2.1c.1-.4.1-.7.2-1.1s.1-1.1.1-1.4V43.4s.2.4.1.3h0m-.5-1.3a.8.8,0,0,1,.2-1.2.8.8,0,0,1,1.1.2c.2.3.2.4.2.5v.9a6.8,6.8,0,0,0-.2,1.4c-.1.3-.1.5-.2.8s-.2,1.2-.3,2l-.3,2.1a6.9,6.9,0,0,1-.2,1.3c0,.4-.1.9-.1,1.3a2.8,2.8,0,0,0-.1.9c-.1.5-.1.9-.2,1.4a12.8,12.8,0,0,0-.1,1.9,3.1,3.1,0,0,0-.1,1,13.2,13.2,0,0,0,0,2v.3c0,.2,0,.3.1.4s0,.2.1.2h-1a.8.8,0,0,1,.1-.3c.1-.2.1-.5.2-.8v-.7a1.3,1.3,0,0,0,.1-.6c.1-1.2.2-2.9.2-4.8a16.2,16.2,0,0,0,.1-2.2,4.9,4.9,0,0,0,.1-1.2c0-.7.1-1.4.1-2.1a3.4,3.4,0,0,0,.1-1c.1-.8.2-1.6.3-2.1a6.4,6.4,0,0,1,.2-.9.8.8,0,0,1,.1-.4l.4-.4a1,1,0,0,1,.9.2c.3.3.2.4.2.5a.7.7,0,0,1-.6.9.9.9,0,0,1-1-.6h.1l.2.2.4.2c-.2,0,.5-.1.4,0s.3-.3.3-.2.1-.2.1-.2h.1a6.4,6.4,0,0,0-.2.9,9.5,9.5,0,0,0-.2,2,3.1,3.1,0,0,0-.1,1c-.1.6-.1,1.3-.2,2v1.1a17.7,17.7,0,0,0-.1,2.3c-.1,1.9-.1,3.5-.3,4.9v.6a2,2,0,0,0-.1.7,8.4,8.4,0,0,0-.2,1c-.1.2,0,.4-.3.8a.9.9,0,0,1-.6.4,1.1,1.1,0,0,1-.8-.2,1.6,1.6,0,0,1-.6-.8,3,3,0,0,1-.2-1c-.1-.1,0-.2-.1-.4a17,17,0,0,1,.1-2.1v-1c.1-.6.1-1.2.2-2s.1-.9.1-1.4.1-.6.2-.9.1-.9.1-1.3.1-.9.2-1.3l.3-2.2.3-2a1.7,1.7,0,0,0,.1-.7,10.5,10.5,0,0,0,.2-1.3,2.1,2.1,0,0,0,0-.8v.2c-.1-.1,0,.1,0,.1s.2.3.1.2m.1.1a.8.8,0,1,1,1.1-1.2h.1c.3.4.2.5.2.6h-1.7c.1-.4.5-.8.9-.7a.8.8,0,0,1,.8.8h0a.9.9,0,0,1-.8.8.8.8,0,0,1-.9-.8h0v.2c-.1-.1.2.3.1.2h.1m-1.7-.1a.8.8,0,0,1,.3-1.1.7.7,0,0,1,1.1.3.1.1,0,0,0,.1.1c.1.3,0,.4,0,.6a6.8,6.8,0,0,1-.3,1.9c-.2,1-.4,2.3-.6,3.7l-.3,2.1c0,.4-.1.8-.1,1.1A30.1,30.1,0,0,0,149,55v.7c0,.7.1,1.3.1,1.8a2.9,2.9,0,0,1,.2.9.1.1,0,0,1,.1.1c0,.1-.1-.1,0,0h.1s-.1-.1-.1,0h-.8c.1,0,0,.1,0-.1a1.3,1.3,0,0,0,.2-.8l.3-1.4c0-.6.1-1.3.1-2l.3-3.3V49.8c0-.3.1-.6.1-.9a5.3,5.3,0,0,1,.1-1.3,3.1,3.1,0,0,1,.1-1c0-.4.1-.7.1-1.1s.3-2.3.5-3.1a3.5,3.5,0,0,1,.1-.6.8.8,0,0,1,.1-.4c.1,0,.1-.2.5-.3a.8.8,0,0,1,.5,1.5h.2c-.1.1.2-.2.2-.1s0-.1,0-.1.1-.1.1-.1h0a4.3,4.3,0,0,0-.1.5c-.2.7-.3,1.7-.5,3s-.1.7-.1,1.1-.1.6-.1.9a5.7,5.7,0,0,1-.1,1.3v.9c0,.4-.1.9-.1,1.3s-.1,2.2-.2,3.3-.1,1.4-.2,2.1a10.4,10.4,0,0,0-.2,1.5l-.3,1.2a1.8,1.8,0,0,1-.5.6,1.4,1.4,0,0,1-1.1.1l-.3-.3a1.8,1.8,0,0,1-.5-.8l-.3-1.1a13.4,13.4,0,0,1-.1-2.1V55a29.1,29.1,0,0,1,.3-4c0-.4.1-.8.1-1.2l.3-2.1c.2-1.4.4-2.7.6-3.8a9.4,9.4,0,0,0,.3-1.6h0v.2c0-.1.1.2.1.1m-.9-1.7a.8.8,0,0,1,.3-1.1.7.7,0,0,1,1.1.3.3.3,0,0,1,.1.2v.2a12.6,12.6,0,0,1-.3,2.1c-.2.7-.3,1.6-.5,2.5s-.4,2-.5,2.9l-.3,1.8c0,.3-.1.7-.1,1a8.6,8.6,0,0,0-.1,1.5v2.1a7.9,7.9,0,0,0,.2,1.7l.3,1,.2.3s-.1-.1-.1,0-.3-.2-.2-.2-.5.1-.3,0l-.3.2h-.1a.6.6,0,0,0,.1-.4v-.2a2,2,0,0,0,.1-.7c.1-.6.1-1.4.2-2.2V53c0-1.6.1-3.4.2-5.1a28.5,28.5,0,0,1,.2-3.1l.3-1.5a3.1,3.1,0,0,1,.2-1.1c0-.2,0-.3.1-.3v-.2c0-.1.1-.1.2-.3a.8.8,0,0,1,1.1,0,.7.7,0,0,1,.1,1.1c-.1.1.1-.2.1-.1h0c0,.1.1-.1,0,0v.3a8.7,8.7,0,0,0-.2,1c-.1.4-.2.8-.3,1.4a26.6,26.6,0,0,0-.2,3c-.1,1.7-.1,3.4-.2,5v.8a17.7,17.7,0,0,1-.1,2.4,2,2,0,0,0-.1.7c0,.1-.1.2-.1.4s-.1.8-.6,1.1a.8.8,0,0,1-.8.2l-.6-.3a3,3,0,0,1-.4-.8,10.4,10.4,0,0,1-.4-1.3,11.1,11.1,0,0,1-.2-1.9,16.1,16.1,0,0,1,0-2.2,9.2,9.2,0,0,1,.1-1.6,3.7,3.7,0,0,1,.1-1.1c.1-.6.1-1.2.2-1.8l.6-3a20,20,0,0,1,.5-2.6c.2-1,.3-1.7.3-1.7h0v.2m-2.9-2.8a.9.9,0,0,1,.9-.8,1.1,1.1,0,0,1,.8.9h0v.8a4.5,4.5,0,0,0,.1,1.1c0,.5.1,1.2.1,1.9v1.9a6.1,6.1,0,0,1,.1,1.4c0,.8.1,1.6.1,2.5s.1.5.1.7a3.1,3.1,0,0,0,.1,1v.8c.1.8.1,1.7.2,2.7v1.7c0,.5.1.9.1,1.3v1.8a5.6,5.6,0,0,0,.2,1v.2s-.1-.2-.1-.1-.2-.2-.1-.1h-.7c.1,0-.1.2-.1.1H147c.1,0,.1-.2.1-.6V53.3c0-.2-.1-.4-.1-.7V46.4c.1-.4.1-.7.2-1.1v-.7c.1-.8.3-1.6.4-2.3a17.2,17.2,0,0,1,.4-1.8c0-.1.1-.3.1-.4h0s-.1-.1.3-.4a.8.8,0,0,1,1.1.2.7.7,0,0,1-.1,1.1l.2-.2c-.1.1.1-.1,0-.1s.1-.1.1,0-.1.2-.1.3-.2,1-.4,1.7l-.3,2.2a2,2,0,0,0-.1.7,3.8,3.8,0,0,0-.1,1c0,.3-.1.5-.1.7v3.6a10.9,10.9,0,0,0,.1,1.8v.7c0,1.1.1,2.1.1,3v.5a7.6,7.6,0,0,1-.1,1.5,4.5,4.5,0,0,1-.1,1.1,1.3,1.3,0,0,1-.5.6h-.7a.9.9,0,0,1-.7-.6.8.8,0,0,1-.2-.6,3.7,3.7,0,0,1-.2-1.2v-1a1.9,1.9,0,0,0-.1-.8V53.6a2.2,2.2,0,0,0-.1-.8c0-.9-.1-1.8-.1-2.6a1.5,1.5,0,0,0-.1-.7v-1a2.2,2.2,0,0,1-.1-.8c-.1-.9-.1-1.7-.2-2.5V41.9c-.1-.7-.1-1.4-.2-1.9V38.9a2,2,0,0,1-.1-.7v-.3h0m1.7.2a.9.9,0,0,1-.9.8.9.9,0,0,1-.8-.8h0a.9.9,0,0,1,1.7-.1h0"/><path d="M155.6,63.7a.8.8,0,0,1-.8.8.9.9,0,0,1-.8-.9h0v-.2h0V63a.9.9,0,0,1,.8-.8.8.8,0,0,1,.8.8v.3h0c0,.1.1.1,0,.2h0m-.1-.4a.8.8,0,0,1-1.5.5h-.1v-.4a6.6,6.6,0,0,1,.1-1.3v-.6c0-.1,0-.2.2-.5l.3-.3a.8.8,0,0,1,.8.1c.4.2.4.4.4.5a4.8,4.8,0,0,1,0,1.2V63a1.7,1.7,0,0,1-.1.8h0c0,.4-.5.7-.9.7a.9.9,0,0,1-.7-1h0a3.5,3.5,0,0,0,.1-.6V61.5s.1.2.1.1.1.2,0,.2l.3.2h.9s.2-.2.1-.2h.1v1.9h-.1m-1-2.4a.8.8,0,1,1,.7-1.5l.3.2v.2a.8.8,0,0,1,.1.4,2.7,2.7,0,0,1,0,.9v1.2c0,.4-.1.8-.1,1v.5a1,1,0,0,1-1.1.6.9.9,0,0,1-.5-1.1v-.2c0-.2.1-.5.1-.9V60.4h0c0-.1.1.2,0,.1s.3.3.2.2.3.2.2.2m.6,2.9a.8.8,0,0,1-1.1.2.8.8,0,0,1-.2-1.2c.1-.1-.1.3-.1.2h0v-.4c0-.3.1-.6.1-.9a6.8,6.8,0,0,1,.2-1.5.7.7,0,0,1,.2-.7c.1,0,.1-.1.2-.2h.3a1,1,0,0,1,1,.6.8.8,0,0,1-.6,1h.2c-.1.1.2-.2.2-.1s.1-.2.1-.2,0-.1,0,0h0c-.1.3-.1.8-.2,1.3a3.1,3.1,0,0,1-.1,1v.6c-.1,0,0,.1-.2.3m-1.2.4c-.4,0-.9-.3-.9-.7a.8.8,0,0,1,.7-1h-.3l-.2.2h-.1c.1-.1-.1.1,0,.1v-.3a5.2,5.2,0,0,1,.2-1.1,4.1,4.1,0,0,1,.1-1.1c.1-.5.1-1,.2-1.5a2,2,0,0,1,.2-1c.1-.1.1-.2.3-.3l.5-.2a.9.9,0,0,1,.7.3c.4.4.2.6.2.8v1.8c0,.5-.1,1-.1,1.4a4.5,4.5,0,0,0-.1,1.1v.3h0s-.1-.1,0-.1-.1-.2-.1-.1-.1-.2,0-.1a.9.9,0,0,1-.3,1.1,1,1,0,0,1-1.2-.3h0v-.7c0-.3.1-.8.1-1.4a5,5,0,0,0,.2-1.2V58.6h0l.2.3h.5c-.1,0,.4-.1.3,0h.2l.2-.2h0c-.1,0,0-.1,0-.1a3.5,3.5,0,0,0-.1.6c-.1.4-.1.9-.2,1.4s-.1.7-.1,1.1-.1.8-.2,1.2a1.3,1.3,0,0,1-.1.6c0,.1-.1.1-.1.2a1,1,0,0,1-.6.4m-1.3.4a.9.9,0,0,1-.8-.8.8.8,0,0,1,.9-.8h-.6a1.8,1.8,0,0,1,.1-.5,5,5,0,0,1,.2-1.2c.1-.5.1-1,.2-1.4l.3-1.3c0-.1.1-.1.1-.3s.1-.3.5-.4a.8.8,0,0,1,.8.1q.3.1.3.3a.8.8,0,0,1,.1.4,3.4,3.4,0,0,1,.1,1,2.2,2.2,0,0,0,0,.8,6.2,6.2,0,0,0-.1,1.3,1.3,1.3,0,0,0-.1.6v.5h0V63s-.2-.3-.1-.2a.9.9,0,0,1-.1,1.2.8.8,0,0,1-1.2-.2c-.1-.1-.1-.1-.1-.2a.7.7,0,0,1-.1-.6,4.3,4.3,0,0,0,.1-.5v-.7a4.1,4.1,0,0,0,.1-1.1V59.1h0s.1.2,0,.1.1.2.1.1l.2.2h.3c-.1,0,.5-.1.4,0h.2l.2-.2h0a8.1,8.1,0,0,0-.3,1.1,5.9,5.9,0,0,1-.2,1.3c-.1.5-.1.9-.2,1.3s-.1.5-.2.9l-.3.4a.8.8,0,0,1-.7.3M147,62.3a.8.8,0,0,1-.7.9.7.7,0,0,1-.9-.7h0a3.1,3.1,0,0,1-.1-1.1V59.4a.8.8,0,0,1,.8-.8.7.7,0,0,1,.8.8v3.1c0,.1.1.2.1.3s-.1-.2-.1-.1-.1-.2-.1-.1-.2-.2-.1-.2-.4,0-.3,0-.4.1-.3,0-.2.2-.2.1-.1.1-.1.1,0,.1,0,0,.2-.9.4-1.5a2.9,2.9,0,0,1,.2-.9.3.3,0,0,0,.1-.2c.1-.1.1-.4.6-.5a.7.7,0,0,1,.6.1.3.3,0,0,1,.3.3.4.4,0,0,1,.2.4,7.4,7.4,0,0,1,.1,2.1v1.7c.1.1-.1-.1,0-.1h-.5c.1,0-.5.1-.4,0l-.2.2h0a1.1,1.1,0,0,1,.1-.5c0-.3.1-.8.1-1.2s.1-1,.2-1.4a3,3,0,0,1,.2-1,.8.8,0,0,1,.3-.6l.4-.2a.6.6,0,0,1,.7.2.5.5,0,0,1,.3.5,3.4,3.4,0,0,1,.1,1.1,5.6,5.6,0,0,0,0,1.3,7.4,7.4,0,0,0,0,1.5v.3s-.1-.2,0-.1l-.2-.2c0,.1-.3-.1-.2-.1h-.6c.1-.1-.2.1-.1.1s-.1.1-.1.1a2.6,2.6,0,0,1,.1-.7,17,17,0,0,1,.4-2.2l.3-.7a.8.8,0,0,1,.5-.5.7.7,0,0,1,.6-.1l.5.2c.5.6.3.9.3,1s.1,1,.1,1.5v.6c0,.1,0,.1.1.1h-.1c0,.1-.2-.2-.2-.2h-1l.2-.7a1.9,1.9,0,0,1,.2-.8l.3-1c0-.1,0-.2.3-.5s.2-.2.5-.2a.7.7,0,0,1,.7.3.6.6,0,0,1,.2.5c.1.3,0,.5,0,.9v.7c0,.3,0,.5-.1.6v.8a1.8,1.8,0,0,0-.1.6.1.1,0,0,0,.1.1h-.1c.1,0,0-.2,0-.1s-.4-.4-.2-.3-.4-.1-.3-.1h-.8s-.1.1,0,.1v-.3a10.6,10.6,0,0,0,.3-2.2,2.9,2.9,0,0,0,.2-.9,3.6,3.6,0,0,1,.3-.7.6.6,0,0,1,.6-.4.6.6,0,0,1,.6,0l.4.3a1.3,1.3,0,0,1,.1,1.2,1.9,1.9,0,0,1,.1.8v1.5c0,.2,0,.3-.1.3h0s-.2-.3-.1-.2a.8.8,0,0,1-1.3,1,.3.3,0,0,1-.1-.2c-.1-.2-.1-.2-.1-.3h0v-3h0v.2l.3.2h.2c-.1,0,.3-.1.3,0s.3-.3.3-.2h.1c-.1,0,0,0-.1.2s-.1.5-.1.7a21.7,21.7,0,0,1-.4,2.5c0,.1-.1.2-.1.3s-.1.2-.1.3a1,1,0,0,1-.6.4H151l-.2-.3a.8.8,0,0,1-.1-.3.8.8,0,0,1-.1-.4v-.8c0-.3.1-.6.1-.9a4.3,4.3,0,0,1,.1-.5V60.7h0s.2.4.1.3.3.2.2.2h1c-.1,0,.1-.2.1-.2h0a1.9,1.9,0,0,0-.2.8,1.9,1.9,0,0,0-.2.7,4.5,4.5,0,0,1-.3,1.1c0,.1-.1.2-.2.4s-.1.1-.2.2a1,1,0,0,1-.8.2,1.1,1.1,0,0,1-.5-.4,3532150915674,3532150915674,0,0,1-.2-.6v-.8a7.1,7.1,0,0,1-.1-1.4.8.8,0,0,1-.1-.3h0s.1.2.1.1.2.3.1.2l.4.2h.6a1,1,0,0,0-.1.3c-.1.6-.3,1.3-.4,2a3.5,3.5,0,0,1-.3,1.3c0,.1-.1.2-.2.3l-.5.2a.8.8,0,0,1-.7-.2l-.3-.3a1.5,1.5,0,0,1-.2-.9V60.3h.1c-.1-.1.1.1,0,.1s.2.2.2.1l.3.2h.6c-.1,0,.2-.2.1-.1v-.2c0,.1.1,0,0,0s-.1.5-.1.7-.1.9-.1,1.4-.1,1-.2,1.5-.1.4-.2.6-.1.5-.6.7-.6.1-.8,0a.7.7,0,0,1-.4-.5,1.5,1.5,0,0,1-.2-.9,7.5,7.5,0,0,1,0-1.5,6.7,6.7,0,0,0-.1-1.7h.1l.3.2h.5c-.1,0,.3-.2.3-.1s.2-.2.1-.2h0a2.5,2.5,0,0,1-.2.7,3.9,3.9,0,0,1-.6,2.2l-.4.3H146a.9.9,0,0,1-.6-.6c0-.2-.1-.4-.1-.7V59.4h1.6v.8c0,.3.1.7.1,1v1.1h0m-1.8-8.5a.9.9,0,0,1,.8-.8.7.7,0,0,1,.8.8v3.6a10.9,10.9,0,0,0,.1,1.8v.6a6.4,6.4,0,0,0,.2.7c0,.2.1.3.1.4v-.2s-.2-.2-.2-.1h-.6c.1,0-.3.2-.3.1s-.1.3-.1.2-.1.2-.1.1,0,.1,0,.1v-.5a3.8,3.8,0,0,0-.1-1v-.6a1.8,1.8,0,0,1-.1-.5v-.2h0a.8.8,0,0,1,.7-.9.7.7,0,0,1,.9.6,1.6,1.6,0,0,1,0,.7,3.1,3.1,0,0,1-.1.9v1.6c0,.4-.1.7-.1.9v.6a.8.8,0,0,1-1,.6.8.8,0,0,1-.6-1h0V61.1a9.1,9.1,0,0,0,.1-1.7c0-.3.1-.7.1-.9v-.3h0l1.6-.3c.1.2,0,.1,0,.2a1.3,1.3,0,0,1,.1.6c0,.2.1.5.1.7v1.1a3.3,3.3,0,0,1,0,1c-.1.1-.1.3-.3.4l-.7.2-.6-.3c0-.1-.1-.2-.1-.3a1.4,1.4,0,0,1-.2-.6c-.1-.3-.1-.5-.2-.8s-.1-.5-.1-.8V53.8m1.4,4.2a.9.9,0,0,1-1.3,1.1c-.3-.4-.2-.5-.2-.6h0v-.2a.4.4,0,0,0,.1-.3V53.2h0c0-.1.1.2,0,.1s.2.3.2.2l.3.2h.6s.2-.2.2-.1.1-.2.1-.2h-.1v3.8c0,.1-.1-.1,0-.1s-.3-.3-.2-.2l-.2-.2h-.5c.2,0-.5.2-.4.2l-.2.2c.1-.1,0,.1,0,.1a14.9,14.9,0,0,1,.1-1.7,3.7,3.7,0,0,1,.1-1.1v-.5h0a.8.8,0,1,1,1.6.2h0v.3a4.5,4.5,0,0,1-.1,1.1v1.2a2.6,2.6,0,0,1-.3,1.1c0,.2-.2.4-.6.4a.6.6,0,0,1-.7-.3.6.6,0,0,1-.3-.6V55.3c0-.5.1-.9.1-1.3v-.9c0-.1.1-.2.1-.3v-.2l.2-.2a.8.8,0,0,1,.7-.4l.4.2h-.1c.2.1.4.3.4.4a.3.3,0,0,1,.1.2.4.4,0,0,1,.1.3v5.5h0s-.1-.2,0-.1h-.1s-.2-.4-.1-.3m0,.1a.8.8,0,0,1-.2,1.2.8.8,0,0,1-1.1-.3.4.4,0,0,1-.2-.4v-.2h.1v-.7a6.6,6.6,0,0,0,.1-1.5V52.9h0c0-.1.1.1.1.1s.3.2.2.2h.6s.3-.2.3-.1.1-.3.1-.2h.1c-.1,0,0-.1,0-.1v3.9a4.1,4.1,0,0,0,.1,1.2v.4h0s-.1-.2-.1-.1-.3-.3-.2-.2a.8.8,0,0,1-.9,1.3c-.5-.3-.3-.4-.4-.5v-.2c0-.2-.1-.4-.1-.6V52.5c0-.1.1-.1.1-.3s.1-.3.5-.5a1.1,1.1,0,0,1,.8,0l.4.4a1.5,1.5,0,0,1,.1.6,4.9,4.9,0,0,0,.1,1.1V56a10.4,10.4,0,0,0-.1,1.6,2.8,2.8,0,0,1-.1.9c0,.1,0,.2-.1.2h.1c-.1,0,0-.3,0-.2s-.1-.2-.1-.1-.1-.3-.1-.3m-1.1-7.9a.9.9,0,0,1,.8-.8.8.8,0,0,1,.8.8v7.6h0s-.1-.3,0-.2l-.3-.2-.2-.2c.1.1-.5.1-.4,0H146c.1,0-.3.3-.2.2h-.1c0-.1-.1.2-.1.2h0a.5.5,0,0,1,.1-.3V55.3c0-.6-.1-1.2-.1-1.8V52.3h0c0-.1.1.2.1.1l.3.2h.3c-.2,0,.5-.1.4,0l.2-.2c-.1.1.1-.2.1-.2s.1-.1.1-.1h0a5.5,5.5,0,0,0-.1.9.6.6,0,0,0-.1.4,4.9,4.9,0,0,1-.1,1.2,6.6,6.6,0,0,1-.1,1.5v2h0s-.1-.3-.1-.2a.8.8,0,0,1,.1.3h0v-.2h-.1a.8.8,0,0,1,.1,1.1.8.8,0,0,1-1.2.1c-.5-.4-.3-.5-.3-.5s.2.3.1.2-.1-.5-.1-.7V56.3c0-.5.1-1,.1-1.5s.1-.8.1-1.2v-.5c.1-.5.1-.8.2-1.1s0-.2.2-.5.7-.3,1-.1.4.3.4.4a1.5,1.5,0,0,1,.1.6v1a11.5,11.5,0,0,1,.1,1.9v2.3c0,.2,0,.3-.1.4v.3a.3.3,0,0,1-.1.2.6.6,0,0,1-.6.4.9.9,0,0,1-.8-.3c-.1-.2-.1-.2-.1-.3a.4.4,0,0,1-.1-.3v-.6a9.7,9.7,0,0,1-.1-1.8v-1a16.2,16.2,0,0,0,.1-2.2V50.2m1,4a.8.8,0,0,1-1-.6.9.9,0,0,1,.5-1c.2,0-.4.3-.3.3s-.2.1-.1.1-.1.2-.1.2h0V50.3h0a.9.9,0,0,1,.8-.8.8.8,0,0,1,.8.8h0v1.3a10.7,10.7,0,0,1,0,1.8c0,.1.2.2-.2.6l-.4.2m-1.2-9.6a.8.8,0,0,1,.5-1,.8.8,0,0,1,1.1.4h0V47c0,.5-.1.9-.1,1.3v1.9c.1.4,0,.8.1,1.2v1a1.8,1.8,0,0,1,.1.6h0s-.1-.3-.1-.2-.2-.2-.1-.1l-.4-.2a.8.8,0,1,1-.3,1.6.6.6,0,0,1-.5-.3.4.4,0,0,1-.1-.3c-.1-.1-.1-.2-.1-.4s-.1-.3-.1-.6-.1-.7-.1-1.2V47c0-.7.1-1.3.1-1.8v-.7h0m1.5,8.6a.8.8,0,0,1-1.2.1.9.9,0,0,1-.1-1.2c.1,0-.1.3-.1.3s-.1.2-.1.1h0a.6.6,0,0,0-.1-.4,14.1,14.1,0,0,0-.2-1.8,3.7,3.7,0,0,1-.1-1.1,11.5,11.5,0,0,1-.1-1.8c0-.4.1-.8.1-1.2s.2-1.2.2-1.5a.8.8,0,0,0,.1-.4c0-.1-.1-.2.2-.5s0-.1.1-.2a.9.9,0,0,1,1.2,0,.8.8,0,0,1-.1,1.2c0,.1.1-.1.1-.1s.1-.1.1-.1,0-.1,0-.1a1.3,1.3,0,0,1-.1.5,11.5,11.5,0,0,1-.2,1.4v2.6c0,.4.1.8.1,1.1s.2,1.3.3,1.7v.5c.1,0,.1.1.1.2h0c0,.1.1.2-.2.5m-2.2-9a.8.8,0,0,1,.8-.8.8.8,0,0,1,.9.8h0V48a4.9,4.9,0,0,0,.1,1.2,8.8,8.8,0,0,0,.2,1.7,3.1,3.1,0,0,0,.2,1.1,1,1,0,0,0,.1.3h0c0,.1-.1-.1-.1-.1h0l-.2-.2a.8.8,0,0,1,.2,1.2.8.8,0,0,1-1.1.1l-.3-.2h0c-.1-.1-.1-.1-.1-.2s-.1-.2-.1-.4a3.9,3.9,0,0,1-.2-1.3l-.3-1.8V48a1.9,1.9,0,0,1-.1-.8v-3h0m1.7.2a.9.9,0,0,1-.9.9.9.9,0,0,1-.8-.9v-.2h0a.8.8,0,0,1,.8-.8.8.8,0,0,1,.9.8h0v.2"/><path d="M154.2,42.6a.8.8,0,0,1,.9-1.3.6.6,0,0,1,.4.6v.2h0c0,.4-.1,1-.1,1.5a7.5,7.5,0,0,1-.2,1.1v.4a1.2,1.2,0,0,1-.6.6.8.8,0,0,1-1-.6.8.8,0,0,1,.5-1c.2,0-.4.4-.3.3s-.2.3-.2.2h0v-.3c0-.3.1-.6.1-1.1s.1-1,.2-1.3V42h0v.4l.2.2m1.3-.8a.8.8,0,0,1-.7,1,.7.7,0,0,1-.9-.7.3.3,0,0,1,0-.4c0-.1,0-.2.1-.2a.7.7,0,0,1,1.1-.2.7.7,0,0,1,.2,1.1c0,.1.1-.2.1-.2s0-.5.1-.4m-1.5-.5a.7.7,0,0,1,.2-1.1.8.8,0,0,1,1.1.1c.4.5.2.6.2.6a2.1,2.1,0,0,1,0,.8v2.8h0c0,.1-.1-.1,0-.1l-1.6.4a2.5,2.5,0,0,1-.1-.8V42.1h0a.9.9,0,0,1,.9-.8.9.9,0,0,1,.8.8h0v2.5h0s-.1-.2,0-.2a.8.8,0,0,1-.7,1,.8.8,0,0,1-.9-.6,2,2,0,0,1-.1-.7c0-.2.1-.4.1-.6V41h0c0-.1.2.3.1.2m1.4-.1a.8.8,0,0,1-1.1.4.8.8,0,0,1-.4-1.1h0c0-.1-.1.1-.1.1h0a.9.9,0,1,1,1.7.3.3.3,0,0,0-.1.2h0m-1.7-1.9a.7.7,0,0,1,.7-.9.8.8,0,0,1,.9.6c.1.4,0,.3,0,.3a3.4,3.4,0,0,1-.1.9,4.3,4.3,0,0,1-.2,1.1,12.1,12.1,0,0,0-.1,1.9V44h0c0,.1-.2-.2-.1-.1H154c.1,0-.3.2-.2.2s-.2.2-.2.2h0v-.5c0-.4.1-1,.1-1.5s.1-.7.1-1v-.4h0v-.2a.8.8,0,0,1,.1-.3.9.9,0,0,1,1.2,0,.8.8,0,0,1,.1,1.1c-.1.1.1-.2.1-.2h0v.3a3.8,3.8,0,0,1-.1,1,8.1,8.1,0,0,1-.1,1.6v.4c0,.1.1.3-.3.7a.9.9,0,0,1-.6.3l-.5-.2-.4-.4a1.9,1.9,0,0,1-.1-.8v-.8a15.5,15.5,0,0,1,.1-2.1c.1-.4.1-.8.2-1.1s.1-.7.1-.9h0m-.7-1.4a.8.8,0,0,1,1-.5.8.8,0,0,1,.5,1.1h0v-.2h0v.2a5,5,0,0,0-.2,1.2,2,2,0,0,0-.1.7,7.7,7.7,0,0,0-.2,1.5v1.5h0c0,.1-.2-.2-.1-.1s-.1-.1-.1,0-.2-.1-.1-.1h-.7c0-.1-.2.2-.1.2s-.1,0-.1,0h.1l.3-1,.3-1.4v-.8c0-.3.1-.6.1-.8v-.3h0a.9.9,0,0,1,1.1-.5.8.8,0,0,1,.5,1h0v.9a3.7,3.7,0,0,0-.1,1.1l-.3,1.5a4.3,4.3,0,0,0-.3,1c-.1.1-.1.1-.1.2s-.1.3-.4.5a1.1,1.1,0,0,1-.8.2l-.4-.3a1.7,1.7,0,0,1-.4-.7v-.6a3.3,3.3,0,0,1,0-1.4c0-.5.1-1,.1-1.5s.1-.5.2-.8.1-.8.1-1-.1.1.1-.4h0m-1,.2a.8.8,0,0,1,.6-1,.9.9,0,0,1,1,.5v.2c.1.5-.1.7-.2,1.1a.9.9,0,0,1-.1.5c-.1.3-.1.7-.2,1.1a3.1,3.1,0,0,0-.1,1,3.3,3.3,0,0,0,0,1.4v.2h0s-.1-.2-.1-.1l-.2-.2h-.8c.1-.1,0,0,0-.1a8,8,0,0,0,.6-1.7,5.2,5.2,0,0,0,.2-1.1c.1-.4.1-.8.2-1.1v-.6h0a.8.8,0,0,1,.8-.9.9.9,0,0,1,.9.8h0c0,.1,0,.1-.1.2v.6a5.2,5.2,0,0,1-.2,1.1,5,5,0,0,1-.2,1.2,11.4,11.4,0,0,1-.7,2.2,1.6,1.6,0,0,1-.7.7.8.8,0,0,1-.8-.1c-.2-.1-.3-.3-.4-.4a1.2,1.2,0,0,1-.2-.8V41.3c.1-.3.1-.7.2-1.1s.1-.8.2-1.2a.8.8,0,0,0,.1-.4,1.3,1.3,0,0,0,.1-.6.1.1,0,0,0,.1-.1h0m-1-.4a.8.8,0,0,1,.4-1.1.7.7,0,0,1,1,.4c.2.3.1.3.1.4a3.5,3.5,0,0,1-.3,1.4c0,.3-.1.6-.1.8l-.3,1.1a21.1,21.1,0,0,0-.1,2.3v.2h-.1c.1,0-.1-.2-.1-.2s-.4-.1-.2-.1h-.6c.1,0-.1.1-.1.1h.1a4.1,4.1,0,0,0,.3-1l.3-.8c.2-.7.3-1.4.5-1.9s.1-.7.1-.9a.4.4,0,0,1,.1-.3h0v-.2a.8.8,0,1,1,1.5.7h.1a.4.4,0,0,0-.1.3c0,.2-.1.5-.1.9s-.3,1.3-.5,2l-.3.9a5,5,0,0,1-.5,1.3,2.1,2.1,0,0,1-.4.6l-.5.2-.8-.2a.9.9,0,0,1-.3-1,11.9,11.9,0,0,1,.1-2.6l.3-1.3c0-.2.1-.5.1-.7a6.3,6.3,0,0,0,.3-1.2h0v.2m-1.6.9a.9.9,0,0,1,.2-1.1.8.8,0,0,1,1.2.2h.1v.3a4.1,4.1,0,0,1,0,1.1c-.1.5-.1,1-.2,1.5v1.1h0c0,.1-.4-.4-.2-.3s-.4-.1-.3-.1H150s-.3.2-.3.1a4.6,4.6,0,0,0,.5-1.4,2.6,2.6,0,0,0,.3-1.1,2.9,2.9,0,0,0,.2-.9l.2-.7a.5.5,0,0,1,.1-.5.9.9,0,0,1,1.2-.1.8.8,0,0,1,.1,1.2v-.2h.1a3.5,3.5,0,0,0-.1.7,6.2,6.2,0,0,0-.3,1l-.3,1.1a4,4,0,0,1-.9,2.1,1,1,0,0,1-.8.4h-.6l-.3-.4a.8.8,0,0,1-.1-.4V40.5c0-.5.1-1,.1-1.5a2.6,2.6,0,0,0,.1-.7h0s.1.3.1.2.1.2,0,.1m-.7,5.3a.9.9,0,0,1-1-.6.8.8,0,0,1,.7-1h-.3c.1,0-.1.1-.1.1h0a.3.3,0,0,0,.1-.2,2.2,2.2,0,0,0,.3-.9l.3-1c.1-.7.3-1.3.4-1.8s.1-.4.2-.6-.1-.2.3-.5h0a.8.8,0,0,1,1.2.2.9.9,0,0,1-.2,1.1h0c-.1.1.2-.3.2-.2h0a1.1,1.1,0,0,1-.1.5c-.1.5-.3,1.1-.4,1.8l-.3,1.1c-.2.3-.2.8-.5,1.2s-.1.2-.1.3a.8.8,0,0,1-.7.5m-.2-5.6a.8.8,0,1,1,1.5-.7c.1.3.1.3.1.4s0,.1-.1.2a8.9,8.9,0,0,1-.2,1.1,3.6,3.6,0,0,1-.2,1,7.8,7.8,0,0,0-.2,1.4c0,.3-.1.5-.1.8v.4h0c0,.1-.1-.2,0-.1v-.2c0,.1-.4-.3-.3-.2a.6.6,0,0,1,.4.5h0a.8.8,0,1,1-1.6.3h0v.4c0-.1.4.4.3.3l-.4-.5v-.9a3.4,3.4,0,0,1,.1-.9A7.7,7.7,0,0,1,148,40a4.3,4.3,0,0,0,.2-1.1,8.1,8.1,0,0,0,.2-.9h0c0-.1.1.3.1.2m-2,1.1a.8.8,0,0,1-.8-.8.9.9,0,0,1,.8-.8.9.9,0,0,1,.8.5v.2c.1.1.1.1.1.2v.4a3.8,3.8,0,0,1-.1,1c-.1.9-.3,1.9-.4,2.8v.3a.9.9,0,0,0-.1.5v1a1.2,1.2,0,0,0,.1.5h-.1l-.2-.2h-.9c.1,0,0,0,.1-.1a12.9,12.9,0,0,0,.6-2.2,9.4,9.4,0,0,0,.4-1.6c.2-.6.3-1.2.5-1.8a1.9,1.9,0,0,1,.2-.8c.1-.4,0-.5.2-.9s-.1.3-.1.3,0,0,.1-.2l1.5.5h0a2.3,2.3,0,0,1-.1.7,2.8,2.8,0,0,1-.1.9c0,.4-.1.9-.1,1.3s-.1,1-.2,1.3v.4h0s-.1-.3,0-.2-.3-.3-.2-.2l-.4-.3c.6.2.5.4.5.4h-.1l-.3-.2h-.4c.1-.1-.4.2-.4.1s-.1.2-.1.2h0c.1-.1.1-.2.2-.4a6.2,6.2,0,0,0,.3-1A5.2,5.2,0,0,0,148,40l.3-1.1a1.9,1.9,0,0,1,.1-.8,1.1,1.1,0,0,1,.1-.5s0-.1.2-.2a.7.7,0,0,1,1.1,0,.8.8,0,0,1,0,1.1l.2-.2c-.1.1,0-.1,0,0h0c0,.2-.1.5-.1.8l-.3,1.2a5,5,0,0,1-.2,1.2,6.5,6.5,0,0,0-.4,1.3l-.2.3a.4.4,0,0,1-.1.3,1,1,0,0,1-.6.4l-.7-.2-.2-.2s.1.1.1,0,.1.2.1.2h.3a1,1,0,0,1-.6-.5v-.9c0-.4.1-.9.1-1.3s.1-1,.2-1.4.1-.7.1-.9,0-.6.2-1a.8.8,0,0,1,1.5.5c0,.1.1-.2.1-.1s0,.1-.2.3.1-.1.1-.1a1.5,1.5,0,0,0-.1.6,1.9,1.9,0,0,0-.2.8c-.2.5-.3,1.2-.5,1.8a9.4,9.4,0,0,1-.4,1.6,14.9,14.9,0,0,1-.7,2.5c-.2.2-.2.5-.7.7a.6.6,0,0,1-.6.1.9.9,0,0,1-.5-.3c-.1-.2-.2-.3-.2-.5a1.9,1.9,0,0,1-.1-.8V43.1a1.1,1.1,0,0,1,.1-.5c.1-.9.3-1.9.4-2.7V38.8h0s.1.2.1.1.2.4.1.3.3.2.2.1h.4m-1.9-.7a.8.8,0,1,1,1.5-.7c.1.1,0,.1.1.1a8.3,8.3,0,0,0,.2,1.3v2.3h0c0,.1-.1-.1,0-.1s-.1-.1-.1-.1-.2-.2-.2-.1l-.3-.2h-.4l-.2.2c.1-.1-.2.2-.2.1h0v-.3a2.4,2.4,0,0,0,.2-.8c.1-.2.1-.5.2-.7a2.9,2.9,0,0,1,.2-.9v-.3c.1-.1,0-.2.3-.5v.2h-.1a.1.1,0,0,1,.1-.1.8.8,0,1,1,1.5.7c-.1.1,0-.1,0-.1s-.1.2-.3.4l.2-.2h0v.3c-.1.2-.1.5-.2.8s-.1.5-.2.8a6.4,6.4,0,0,1-.2.7,2,2,0,0,1-.1.7c-.1.1-.1.4-.6.5a.8.8,0,0,1-.7-.1.7.7,0,0,1-.3-.3,1.8,1.8,0,0,1-.1-.6v-.7a7.1,7.1,0,0,0-.1-1.5,7.7,7.7,0,0,0-.1-1h0s.1.2,0,.1m1.6,2.7a.8.8,0,0,1-1,.7,1,1,0,0,1-.7-.9h0V38.4h0a.9.9,0,0,1,1.7.1h0v2.8h0m.2-4.5a.8.8,0,0,1,1,.6.9.9,0,0,1-.6,1c-.1,0,.3-.2.2-.2s.1,0,.1,0a.4.4,0,0,0-.1.3c-.1.5-.3,1.3-.4,2s-.1.8-.2,1.1a.6.6,0,0,1-.1.4c0,.1.2,0-.1.5l-1.4-1c.1,0-.1.3-.1.3s0,.2,0,.1h0v-.5c0-.4.1-.9.1-1.3a11,11,0,0,0,.2-1.8v-.9s.1.2,0,.1h.1c0-.1.2.3.1.2h.1c-.1,0,.6.2.4.2s.5-.1.4,0,.3-.3.3-.2.1-.2.1-.1,0-.1,0-.1,0,.1-.1.2a13.7,13.7,0,0,1-.2,1.6v1.6h0s-.1-.2,0-.1a1,1,0,0,1-.7,1,.8.8,0,0,1-1-.7v-.6c0-.3.1-.8.1-1.3a10.8,10.8,0,0,1,.3-1.9.8.8,0,0,1,.1-.4.3.3,0,0,1,.1-.2,1.1,1.1,0,0,1,.5-.4,1,1,0,0,1,.9.3.8.8,0,0,1,.1.3c.1.2.1.2.1.3v.3a2,2,0,0,1-.1.7,12.1,12.1,0,0,1-.1,1.9,7.4,7.4,0,0,0-.2,1.2v.5a.5.5,0,0,1-.1.5.8.8,0,0,1-1.2.2.9.9,0,0,1-.2-1.2c.1,0-.1.3-.1.2s0,.1,0,.1a4.3,4.3,0,0,0,.1-.5c.1-.3.1-.7.2-1a12.4,12.4,0,0,1,.4-2.2c.1-.2.1-.4.2-.6a1.1,1.1,0,0,1,.8-.7"/><path d="M145.1,41.3a.8.8,0,0,1,.8-.9.9.9,0,0,1,.9.8,2.5,2.5,0,0,1-.1.8,21.9,21.9,0,0,0-.3,2.8,2,2,0,0,0,0,1.1h0c0,.1-.2-.2-.1-.1l-.2-.2c.1.1-.5,0-.4,0s-.3.1-.2,0a.9.9,0,0,1,1.1.3,1,1,0,0,1-.3,1.2,1.5,1.5,0,0,1-1.3-.2,2.6,2.6,0,0,1-.3-.8V44.7c.1-1.1.3-2.2.4-2.9v-.5"/><path d="M153.3,38.2c-.4.2-.9.2-1.1-.2a.8.8,0,0,1,.1-1.1h.2l.3-.2h.3l.3-.2c.1,0-.1.1-.1.1h-.1c.1-.1-.1.3-.1.2v.4l.2.4c-.1-.1.3.2.2.2h-.3c0,.1.1-.1,0,0a.8.8,0,0,1-1.1.1.8.8,0,0,1-.1-1.2,1.9,1.9,0,0,1,1.4-.6h.7l.4.3a1.2,1.2,0,0,1,.2.8c-.2.5-.4.5-.5.5l-.3.2-.4.2h-.2m-.6.3a.8.8,0,1,1,.7-1.5h-.3c.1.1-.2.1-.2.1s-.1,0-.1,0h.3l.3-.2h.1c0-.1-.1,0-.1,0s-.1.3-.1.2v.3c0-.2.2.5.1.4s.4.4.3.3h.2l-.6.2H153a.8.8,0,1,1-.3-1.6h.1l.5-.2c.2-.1.2-.3.9-.2a.9.9,0,0,1,.6.4.6.6,0,0,1,0,.7c-.1.2-.1.3-.2.3l-.3.3-.3.2-.7.3c-.1.1-.2.2-.6,0m-3.5-3.2a.8.8,0,0,1,.9.7.8.8,0,0,1-.8.9h-1.2l-1.2.3h-.6c-.2,0-.4.2-.8,0a.8.8,0,0,1-.4-.4,1.1,1.1,0,0,1-.2-.6.9.9,0,0,1,.3-.6l.3-.2h2.6a.8.8,0,0,1,.9.7.9.9,0,0,1-.8.9h-2.6c-.1,0,.4-.1.2,0s.2-.2.2-.1.3-.4.2-.3.1-.3.1-.2-.1-.5-.1-.4-.1-.3-.1-.2-.2-.2-.1-.2h-.4c.2,0-.5.3-.4.2s-.2.3-.2.2,0,.4,0,.3.2.5.1.4a.9.9,0,0,1,1.3-1.1H150a2.8,2.8,0,0,0,1.3,0,2.6,2.6,0,0,1,.9,0c.3,0,.4.1.4.2H154a.6.6,0,0,1,.5.2h.1c0,.1-.1,0,0,0h1l.5.3a.9.9,0,0,1,.3.7.8.8,0,0,1-.4.7c-.1.1-.2.1-.2.2h-.4l-1.1.5-.5.4h-.1c-.1,0,0-.1,0-.1s.1-.2.1-.1a.8.8,0,0,1-1.5-.7.7.7,0,0,1,.3-.4l.3-.2.6-.4,1.2-.6h.4s-.2.2-.2.1-.1.2-.1.2,0,.3,0,.2.1.5.1.4v.2h0a1.7,1.7,0,0,1-1.2-.1c-.1-.1-.2-.1-.2-.2s.1.1,0,.1h-6.8a2.7,2.7,0,0,1-1.2-.1h-.1c0-.1-.1.1-.4-.3l1.3-1.1a2.5,2.5,0,0,1,.2.7.8.8,0,0,1-.1.4c-.1.2-.3.5-.6.5a1,1,0,0,1-1-.2.5.5,0,0,1-.2-.4.6.6,0,0,1,0-.6l.4-.4h3v1.6h-2l.2-.2c-.1.1.1-.5.1-.4v-.2c0,.1-.1-.2-.1-.1l-.2-.2h.3l1.4-.3h1.3m1.3.3a.7.7,0,0,1,.7.9.8.8,0,0,1-.9.7h-4l-.4-.2-.3-.5a1.3,1.3,0,0,1,.1-.6l.3-.3a.9.9,0,0,1,.9-.2h2.4a.8.8,0,0,1,0,1.6h-2.2c-.2,0-.3,0-.3.1h0c0,.1.2-.1.1,0s.3-.4.3-.3.1-.3,0-.2v-.3c.1.1-.1-.3-.1-.3s-.2-.2-.1-.2h2.8c.3,0,.4-.1.7,0m1.2.5a.9.9,0,0,1,.8.8.9.9,0,0,1-.8.9h-.6l-.9.2-1.5.2h-1.2c-.2,0-.3.1-.5,0h-.4l-.3-.2a1.4,1.4,0,0,1-.2-.6,1,1,0,0,1,.4-.8l.3-.2a11,11,0,0,1,2.6-.6l1-.2h.6s-.2.1-.1.1h.2s-.2.1-.1.1l.7,1.4a2.6,2.6,0,0,1-1,.3h-3.5l-.3-.2-.3-.4a.9.9,0,0,1,.1-.7c.3-.4.5-.4.6-.4h1.5a1.4,1.4,0,0,0,.9,0h.7a.7.7,0,0,1,.8.8.8.8,0,0,1-.8.8h0s.3-.1.2,0h-2.8c-.1.1.1-.1.1,0s.2-.3.2-.2.1-.5.1-.3-.1-.5,0-.4-.2-.3-.2-.2-.1-.2-.1-.1-.1-.2-.1-.1h1.8l.8-.2h.6c.1,0-.1.1,0,.1a.8.8,0,0,1,1.1.3.8.8,0,0,1-.4,1.1c-.3.2,0,0-.1.1s-.5.1-.9.2l-1,.2c-.9.2-1.9.3-2,.5h-.2s.2-.1.1-.1.1-.2.1-.1.1-.4.1-.3-.1-.4-.1-.3-.2-.3-.1-.2l-.3-.2c.1.1-.1,0,0,0h1.2l1.4-.2.8-.2h1m-3.8,1.6a.8.8,0,1,1-.8,1.4l-.4-.3a1.3,1.3,0,0,1-.1-.6,1,1,0,0,1,.4-.8,6.6,6.6,0,0,1,2.1-.8l1.5-.3h.8a.7.7,0,0,1,1,.4.8.8,0,0,1-.4,1.1h-1.1l-1.4.3-1.5.5h.1c0,.1.1-.4.1-.3s-.2-.6-.1-.4l-.2-.2"/><path d="M155.1,38a1,1,0,0,1,1.1.5.9.9,0,0,1-.5,1.1c-.1,0,.2-.2.2-.1s.2-.3.2-.2,0-.2,0-.2.1,0,0,0V41a.9.9,0,0,1-.1.5V42a.8.8,0,0,1-.9.4c-.4-.1-.5-.3-.5-.4a.8.8,0,0,1,.3-1.1.7.7,0,0,1,1.1.3s-.2-.2-.1-.2-.2-.1-.1-.1-.3-.1-.2-.1h-.7l-.2.2c0-.1-.2.2-.1.2s-.1.1-.1.1h0v-.5a7.1,7.1,0,0,1,.1-1.4,3.1,3.1,0,0,1,.1-.9s-.1-.1.3-.4.1-.1.2-.2m-.9-.2a.9.9,0,0,1,1.2-.1.8.8,0,0,1,.2,1.1v-.2c-.1.1,0,.5,0,1s-.1,1.2-.2,1.7v1h0c0,.1-.1-.3,0-.2s-.3-.3-.2-.2-.6-.3-.4-.3-.6.1-.5.1h-.2c.1-.1-.1.2-.1.2h0a.4.4,0,0,1,.1-.3,3.1,3.1,0,0,1,.2-.8c0-.3.1-.6.1-.9a2.5,2.5,0,0,0,.1-.8h0c0-.1.1.1.1.1v.2s.3.2.2.2a.8.8,0,0,1-.3-1.1.7.7,0,0,1,1.1-.4h.2c.1.2.2.3.2.4s0,.3,0,.5v1c-.1.3-.1.7-.2,1l-.3,1c0,.2-.1.3-.1.4a.3.3,0,0,0-.1.2c-.1.1-.1.2-.2.2a.7.7,0,0,1-.7.2.6.6,0,0,1-.6-.5.3.3,0,0,1-.1-.2V41.2c0-.6.1-1.2.1-1.7v-.7a1.5,1.5,0,0,1,.2-1m1.4,3.9a.8.8,0,0,1,0,1.1.9.9,0,0,1-1.2,0c-.3-.4-.2-.5-.2-.6V39.1a.4.4,0,0,0-.1-.3v-.2c0-.1.1.1,0,0h.1c-.1-.1.1.2.1.1a.8.8,0,0,1,.1-1.1.9.9,0,0,1,1.2.1.8.8,0,0,1,.1.3h0v1.6a9.6,9.6,0,0,1,0,1.7V42h0c0,.1-.3-.3-.2-.2m.1-4.9a.8.8,0,0,1,.6,1,.9.9,0,0,1-1.1.5h.7s.1-.2.1-.1h.1a5.6,5.6,0,0,0-.1.7V40a7.1,7.1,0,0,0-.1,1.4v.7h-.1a.8.8,0,0,1-1.6,0h0v-.8a6.1,6.1,0,0,0,.1-1.4c0-.4.1-.9.1-1.2a3.1,3.1,0,0,1,.1-1,.8.8,0,0,1,.2-.6l.4-.3h.6"/><path d="M156.3,64.9a.8.8,0,0,1-1.6,0h0a.8.8,0,0,1,.7-1,1,1,0,0,1,.9.7v.2h0m-.4.1a1,1,0,0,1-1,.7.9.9,0,0,1-.6-1h0V62.1c0-.3.1-.6.1-.8a1.1,1.1,0,0,1,.1-.5,6.8,6.8,0,0,1,.2-1.5c.1-.1,0-.1.2-.5l.5-.4h.7l.4.5a1.5,1.5,0,0,1,0,.7v.8c0,.3-.1.6-.1.8a.6.6,0,0,1-.1.4v.4a3.4,3.4,0,0,1-.1,1v1.5c0,.1-.1-.1,0,.1a.8.8,0,0,1-.6,1,.9.9,0,0,1-1-.6V62.9c0-.3.1-.6.1-.9v-.4c0-.2.1-.4.1-.6s.1-.4.1-.6v-.9h0v.2l.2.2h.9c-.1,0,.2-.3.2-.2s.1-.2.1-.2h-.1c0,.4-.2,1-.2,1.5s-.1.2-.1.4v.7a1.5,1.5,0,0,0-.1.7v2h0m.4-5.8a.8.8,0,0,1-.2,1.1,1,1,0,0,1-1.2-.3c-.4-.6-.1-.6-.1-.7v-.8a7.1,7.1,0,0,1-.1-1.5v-.8c0-.6-.1-.9-.1-1.3a8.4,8.4,0,0,0-.2-1,7.6,7.6,0,0,1-.1-1.5,3.8,3.8,0,0,1-.1-1v-.7c-.1-.1-.3-.1-.1-.8a1,1,0,0,1,.7-.6h.6c.4.2.4.4.5.5s.1.2.1.3v.2a9.6,9.6,0,0,1,0,2.4,13.3,13.3,0,0,1,0,2V56a2.2,2.2,0,0,0-.1.9,6.1,6.1,0,0,0-.1,1.4v4.2a1.3,1.3,0,0,0,.1.5v1.7h0a.9.9,0,1,1-1.7.1V63.4a.3.3,0,0,1,.1-.2c-.1-.1-.1-.3-.2-.6V59.7c0-.2.1-.4.1-.6V56.7a2.8,2.8,0,0,0,.1-.9,4.1,4.1,0,0,0,.1-1.1V50.3h0s.1.3.1.2l.3.2c-.2,0,.5,0,.4.1l.3-.2c-.1.1.2-.4.2-.3v-.2h0c0,.1.1.2.1.4a3.4,3.4,0,0,0,.1.9v.9c0,.5.1,1,.1,1.4a3.6,3.6,0,0,1,.2,1,6.2,6.2,0,0,1,.1,1.5V57a7.1,7.1,0,0,1,.1,1.4v1.1h0s-.1-.3-.1-.2m-.9-21.5a.8.8,0,0,1,.9.8.9.9,0,0,1-.8.9h.3c-.1.1.2-.2.2-.1s.1-.3.1-.2h0a16.1,16.1,0,0,1,0,2.2,3.1,3.1,0,0,0-.1,1v4.4a.9.9,0,0,1-.8.8.8.8,0,0,1-.8-.8V42.9a2,2,0,0,0,.1-.7v-.5h0a.9.9,0,0,1,.8-.8.7.7,0,0,1,.8.8c.1.2,0,.1,0,.2v7.9a24.4,24.4,0,0,1-.1,2.7,5.4,5.4,0,0,0,0,1.8v1.9a5.1,5.1,0,0,0,.2.9c.1.2.1.4.2.6v.5c.1.2,0,.4,0,.6v.8h0a.8.8,0,0,1-.8.7.8.8,0,0,1-.8-.9h0V58c-.1-.2-.1-.4-.2-.6a3.6,3.6,0,0,1-.2-1.1,2.6,2.6,0,0,1,0-.9,4.1,4.1,0,0,1-.1-1.1V52.2a21.1,21.1,0,0,0,.2-2.5V46.6c0-.8-.1-1.8-.1-3.4V42a1,1,0,0,0,.1-.4h1.6c.1,0,0,.1,0,.1s0,.3,0,.6v1.9a1.9,1.9,0,0,0-.1.8v1.6a.9.9,0,0,1-.8.8.8.8,0,0,1-.8-.8v-.3c0-.1-.1-.2,0-.3V41a6.2,6.2,0,0,0,.1-1.9v-.5c.1-.2.1-.4.3-.5s.4-.3.6-.4"/><path d="M152.7,65.8a.7.7,0,0,1,.7-.9.8.8,0,0,1,.9.7c0,.1-.2-.4-.1-.4h.8a1,1,0,0,1,.5.4.6.6,0,0,1,.2.5.8.8,0,0,1-.8.8c-.5,0-.9-.4-.8-.8v.2c0-.1.2.3.1.2s.3.3.2.3h.3c-.1-.1.3-.1.3,0s0-.1,0-.1h-.2l-.6.2h-1c-.1,0-.2,0-.2-.1a.6.6,0,0,1-.3-.5m1.3-.7a.8.8,0,0,1,1-.5.7.7,0,0,1,.5,1,1.1,1.1,0,0,1-.2.4h-.2a.1.1,0,0,1-.1.1h-1.2c-.1.1.2-.1.1,0a.8.8,0,1,1-.8-1.4h1c0-.1-.1.1-.1.1s-.1.2,0,.1m-7.8.3a.8.8,0,0,1,.9-.8.7.7,0,0,1,.7.9v-.4c0,.1-.2-.2-.1-.1h-.2c.1,0,0-.1.1,0h.4l.7-.2a5.2,5.2,0,0,1,1.7-.2h.9l.6-.2,1.2-.3h.6l.5.2c.2,0,.3.1.5.3a.6.6,0,0,1,.1.6.8.8,0,0,1-.4.7c-.6.3-.7.1-.7.1h-1c-.1,0,.3-.5.2-.3v-.4c.1.1-.2-.3-.1-.3h.3l.4-.2h1.4c.1.1.3,0,.5.5a.8.8,0,0,1-.2,1.1,1,1,0,0,1-1.2-.3c0-.1.3.2.2.2H154l-.6.2h-.5a1,1,0,0,1-.9-.1.7.7,0,0,1-.6-.7,1,1,0,0,1,.3-1c.5-.4.7-.3.8-.3h1.1c.1,0-.3.3-.2.2s-.2.5-.2.4.1.5,0,.4.2.2.2.2h-.1l-.8.2a2.4,2.4,0,0,1-1,.3h-2.3a1.9,1.9,0,0,1-.9.3h-.8a1.2,1.2,0,0,1-1-.3c-.1-.2-.2-.3-.2-.4a.3.3,0,0,1-.1-.2v-.2m3.6-1.4a1,1,0,0,1,.9.7.8.8,0,0,1-.7,1h-.3l-.9.3-.7.2h-.9a.8.8,0,0,1-.4-1.6h.5a.1.1,0,0,1,.1.1c.2,0,.3,0,.3-.1h.6a3.2,3.2,0,0,1,1.3-.5h.2m-4.9-6.6a.8.8,0,1,1,1-1.2l.3.2v.4c0,.2.1.5.1.8s.1.5.1.8V60c-.1.2-.1.4-.2.5a1.3,1.3,0,0,1-.1.6v1h-1.7V59.7a1.9,1.9,0,0,1,.2-.8.3.3,0,0,1,.1-.2c0-.1,0-.3.5-.5a.8.8,0,0,1,1,.4V59a.4.4,0,0,0,.1.3v1.6c0,.9-.1,1.7-.1,2.3s-.1.6-.1.9v.6c0,.3-.1.3-.1.3h-.1c.1.1-.5-.3-.3-.3h-.6l.3-.2a1.5,1.5,0,0,1,1.1-.1h3.2a.8.8,0,0,1,.9.8c.1.4-.3.8-.7.9h-4.5a1.1,1.1,0,0,1-.7-.3,1.5,1.5,0,0,1-.2-.8V63.1a14.1,14.1,0,0,0,.1-2.2V59.2h0v.2s.1.2.1.1l.3.2h.5l.3-.2h.2a.3.3,0,0,0-.1.2.3.3,0,0,1-.1.2v2a.8.8,0,0,1,.1.4.8.8,0,0,1-.9.8.9.9,0,0,1-.8-.8h0v-.7a.7.7,0,0,0,.1-.5,2.4,2.4,0,0,1,.2-.8v-.3c0-.2.1-.4.1-.7v-.3c0-.1-.1-.2-.1-.3v-.7a1.8,1.8,0,0,1-.1-.6c0-.1,0-.1-.1-.1h.1c0-.1.1.1,0,0l.2.2m1.3-.3a.8.8,0,0,1-.8.8.9.9,0,0,1-.8-.8v-.3h0c0-.1,0-.1.1-.4a1.1,1.1,0,0,1,1.2-.2.9.9,0,0,1,.2,1.1V57h0v.2"/></g></svg>