<svg xmlns="http://www.w3.org/2000/svg" xmlns:xlink="http://www.w3.org/1999/xlink" viewBox="0 0 379.6 185.6"><defs><style>.cls-1{fill:none;}.cls-2{isolation:isolate;}.cls-3{opacity:0;}.cls-4{clip-path:url(#clip-path);}.cls-13,.cls-5,.cls-6{fill:#ed3624;}.cls-10,.cls-11,.cls-5,.cls-6,.cls-7,.cls-8,.cls-9{mix-blend-mode:darken;}.cls-10,.cls-5,.cls-8,.cls-9{opacity:0.42;}.cls-11,.cls-6,.cls-7{opacity:0.42;}.cls-15,.cls-7,.cls-8{fill:#a9ff17;}.cls-16,.cls-9{fill:#006fff;}.cls-10,.cls-11,.cls-14{fill:#ff0;}.cls-12{fill:#1749b3;}</style><clipPath id="clip-path"><rect class="cls-1" x="-19" y="-38.9" width="419.5" height="297.64"/></clipPath></defs><g class="cls-2"><g id="Ebene_1" data-name="Ebene 1"><g class="cls-3"><path d="M110,13.5V12.2A9.8,9.8,0,0,1,112.6,9l.8-.7A4.5,4.5,0,0,0,115,5.4a1.7,1.7,0,0,0-.6-1.4,1.8,1.8,0,0,0-1.5-.6,5.4,5.4,0,0,0-2.6.9V3a7.2,7.2,0,0,1,2.8-.7,3.3,3.3,0,0,1,2.5.9,2.7,2.7,0,0,1,.9,2.2,3.3,3.3,0,0,1-.4,1.7,10,10,0,0,1-1.8,1.8l-.5.5a5.5,5.5,0,0,0-2.1,2.8h4.8v1.3Z"/><path d="M120.3,13.5V12.4h2.2V3.8l-2.2.6V3.3l3.6-1V12.4h2.2v1.1Z"/><path d="M129.6,13.5a6.4,6.4,0,0,1,.6-2.2,17.5,17.5,0,0,1,1.4-2.5l3-4.8H129V2.6h6.9V4c-2.8,4.1-4.3,7.3-4.6,9.5Z"/><path d="M138.1,13.5v-8h1.4V7a3.2,3.2,0,0,1,2.7-1.7A2.2,2.2,0,0,1,144.4,7a3.2,3.2,0,0,1,2.7-1.7,1.9,1.9,0,0,1,1.6.7,2.2,2.2,0,0,1,.6,1.7v5.8h-1.5V7.9c0-.9-.3-1.3-1-1.3a3.3,3.3,0,0,0-2.4,1.5v5.4H143V7.9c0-.9-.4-1.4-1.1-1.4a3.4,3.4,0,0,0-2.4,1.6v5.4Z"/><path d="M159,13.5l-1.2-3h-4.6l-1.2,3h-1.4l4.3-10.9h1.5l4.3,10.9Zm-1.6-4.2-1.9-4.6-1.9,4.6Z"/></g><g class="cls-3"><path d="M92.3,32.5l-1.4-3.6H85.3l-1.4,3.6H82.2l5.1-13h1.9l5.1,13Zm-2-4.9-2.2-5.7-2.2,5.7Z"/></g><g class="cls-3"><path d="M119.2,79,118,75.8h-4.9L111.8,79h-1.5l4.6-11.6h1.6L121,79Zm-1.7-4.4-2-5-2,5Z"/></g><g class="cls-3"><path d="M133.8,69.6v-.9a7.4,7.4,0,0,1,1.9-2.3l.6-.6a2.9,2.9,0,0,0,1.2-2.1,1.2,1.2,0,0,0-.4-1,1.4,1.4,0,0,0-1.1-.4,4.5,4.5,0,0,0-2,.6V62a4.1,4.1,0,0,1,2.1-.5,2.4,2.4,0,0,1,1.8.6,1.9,1.9,0,0,1,.7,1.6,2.1,2.1,0,0,1-.3,1.2,5.4,5.4,0,0,1-1.3,1.4l-.4.3a4.9,4.9,0,0,0-1.5,2.1h3.5v.9Z"/><path d="M141.2,69.6v-.9l1.7.3a1.7,1.7,0,0,0,1.6-.8,3.9,3.9,0,0,0,.5-2.3,2.4,2.4,0,0,1-1.8,1,2.3,2.3,0,0,1-1.7-.8,2.4,2.4,0,0,1-.7-1.8,2.7,2.7,0,0,1,.7-2,2.4,2.4,0,0,1,1.9-.8,2.4,2.4,0,0,1,2.1,1,5,5,0,0,1,.7,2.9,5.3,5.3,0,0,1-.9,3.2,2.9,2.9,0,0,1-2.5,1.2A5.3,5.3,0,0,1,141.2,69.6Zm.7-5.5a2.4,2.4,0,0,0,.4,1.5,1.3,1.3,0,0,0,1.1.5,1.6,1.6,0,0,0,1.1-.5,1.2,1.2,0,0,0,.5-1.1,2.5,2.5,0,0,0-.4-1.6,1.4,1.4,0,0,0-1.2-.6c-.5,0-.9.1-1.1.5A1.7,1.7,0,0,0,141.9,64.1Z"/><path d="M148,69.6V63.8h1.1v1.1a2.3,2.3,0,0,1,2-1.2,1.6,1.6,0,0,1,1.6,1.2,2.3,2.3,0,0,1,2-1.2,1.6,1.6,0,0,1,1.2.4,1.7,1.7,0,0,1,.4,1.3v4.2h-1.1v-4c0-.7-.2-1-.8-1a2.3,2.3,0,0,0-1.7,1.1v3.9h-1.1v-4c0-.7-.2-1.1-.8-1.1s-1.1.4-1.7,1.2v3.9Z"/><path d="M163.6,69.6l-.8-2.2h-3.4l-.9,2.2h-1.1l3.2-7.9h1.1l3.1,7.9Zm-1.2-3-1.3-3.4-1.4,3.4Z"/></g><g class="cls-3"><path d="M177.7,53V51.6a7.6,7.6,0,0,0,1.9.5,1.4,1.4,0,0,0,1.3-.5,4,4,0,0,0,.4-2V39.5h1.8V49.6q0,3.9-3.3,3.9A5.4,5.4,0,0,1,177.7,53Zm3.6-15.4V35.8h1.8v1.8Z"/><path d="M189.4,49.8a2.9,2.9,0,0,1-2.2-.8,3.1,3.1,0,0,1-.8-2.2v-6h-1.3V39.5h1.3V37.6h1.8v2h2.7v1.3h-2.7v5.7c0,1.3.6,1.9,1.7,1.9h.9v1.3Z"/><path d="M194.2,49.6l-2.9-10.1h1.8l2.2,7.8,2.4-7.8h1.8l2.1,7.8,2.6-7.8h1.5l-3.3,10.1h-1.8l-2.1-7.8L196,49.6Z"/><path d="M209.7,49.8a10.4,10.4,0,0,1-3.1-.6V47.5a7.4,7.4,0,0,0,3.2.9,2,2,0,0,0,1.3-.4,1.4,1.4,0,0,0,.5-1.1q0-.9-1.5-1.5l-1-.5c-1.6-.6-2.4-1.6-2.4-2.8a2.6,2.6,0,0,1,.9-2.1,4.2,4.2,0,0,1,2.6-.8l2.1.3h.4v1.5a9.9,9.9,0,0,0-2.5-.5c-1.1,0-1.7.5-1.7,1.3s.4,1,1.3,1.4l.9.4a5.1,5.1,0,0,1,2.1,1.3,2.8,2.8,0,0,1,.6,1.8,2.7,2.7,0,0,1-1,2.2A4.6,4.6,0,0,1,209.7,49.8Z"/><path d="M222.6,49.6V47.7a4.2,4.2,0,0,1-3.5,2.1A2.9,2.9,0,0,1,217,49a3,3,0,0,1-.8-2.3V39.5H218v6.6a3.7,3.7,0,0,0,.3,1.7,1.4,1.4,0,0,0,1.1.4c1.2,0,2.2-.7,3.2-2.2V39.5h1.8V49.6Z"/><path d="M227.7,52.9l.2-1.6a6.3,6.3,0,0,0,3.2.8c2,0,3.1-1.1,3.1-3.3V47.2a3.5,3.5,0,0,1-3.4,2.1A3.3,3.3,0,0,1,228,48a4.9,4.9,0,0,1-1.1-3.5,5.8,5.8,0,0,1,1.2-3.8,3.9,3.9,0,0,1,3.2-1.5,3.8,3.8,0,0,1,2.9,1.4V39.5H236v7.3a26.1,26.1,0,0,1-.2,3.5,3.9,3.9,0,0,1-1,1.9,4.6,4.6,0,0,1-3.7,1.3A9.7,9.7,0,0,1,227.7,52.9Zm6.5-6.8V41.9a3.5,3.5,0,0,0-2.7-1.3,2.3,2.3,0,0,0-1.9,1,4.7,4.7,0,0,0-.8,2.8q0,3.3,2.4,3.3A4.1,4.1,0,0,0,234.2,46.1Z"/><path d="M245.5,49.6V47.7a4.4,4.4,0,0,1-3.6,2.1,2.9,2.9,0,0,1-2.1-.8,3.4,3.4,0,0,1-.8-2.3V39.5h1.9v6.6a3.7,3.7,0,0,0,.3,1.7,1.2,1.2,0,0,0,1.1.4c1.1,0,2.2-.7,3.2-2.2V39.5h1.8V49.6Z"/><path d="M256.8,49.6V47.7a4.1,4.1,0,0,1-3.5,2.1,2.9,2.9,0,0,1-2.1-.8,3.4,3.4,0,0,1-.8-2.3V39.5h1.8v6.6a3.5,3.5,0,0,0,.4,1.7,1.2,1.2,0,0,0,1.1.4c1.1,0,2.2-.7,3.1-2.2V39.5h1.9V49.6Z"/><path d="M263.9,49.6V37.3H259V35.8h11.7v1.5h-4.9V49.6Z"/><path d="M277.4,49.6V47.7a4.2,4.2,0,0,1-3.5,2.1,2.9,2.9,0,0,1-2.1-.8,3,3,0,0,1-.8-2.3V39.5h1.8v6.6a3.7,3.7,0,0,0,.3,1.7,1.4,1.4,0,0,0,1.1.4c1.2,0,2.2-.7,3.2-2.2V39.5h1.8V49.6Z"/><path d="M282.5,49.6V47.3h2.3v2.3Z"/><path d="M288.1,49.6V39.5h1.8v1.9a4.5,4.5,0,0,1,3.6-2.2,2.9,2.9,0,0,1,2.1.9,3.1,3.1,0,0,1,.7,2.2v7.3h-1.8V42.9a3.2,3.2,0,0,0-.3-1.6,1.3,1.3,0,0,0-1.1-.5c-1.1,0-2.2.8-3.2,2.2v6.6Z"/><path d="M305.8,49.6V47.7a4.4,4.4,0,0,1-3.6,2.1,3.2,3.2,0,0,1-2.1-.8,3.3,3.3,0,0,1-.7-2.3V39.5h1.8v6.6a3.7,3.7,0,0,0,.3,1.7,1.2,1.2,0,0,0,1.1.4c1.1,0,2.2-.7,3.2-2.2V39.5h1.8V49.6Z"/></g><g class="cls-3"><path d="M127.9,101.6V90h1.7v11.6Z"/><path d="M132.3,101.6V93h1.6v1.6a3.6,3.6,0,0,1,3-1.7,2.1,2.1,0,0,1,1.7.7,2.3,2.3,0,0,1,.7,1.8v6.2h-1.6V95.9a3.9,3.9,0,0,0-.2-1.3,1.1,1.1,0,0,0-1-.4c-.9,0-1.8.6-2.6,1.9v5.5Z"/></g><g class="cls-3"><path d="M198.6,101.9V91.1h1.6v10.8Z"/><path d="M202.8,101.9V94h1.5v1.5a3.1,3.1,0,0,1,2.8-1.7,2.1,2.1,0,0,1,1.6.6,2.8,2.8,0,0,1,.6,1.8v5.7h-1.4V96.7a2.3,2.3,0,0,0-.3-1.3.9.9,0,0,0-.8-.4,3.1,3.1,0,0,0-2.5,1.8v5.1Z"/></g><g class="cls-3"><path d="M263.6,100l-2,.3a3,3,0,0,1-2.3-.9,3.2,3.2,0,0,1-.9-2.4,3.2,3.2,0,0,1,.8-2.4,2.5,2.5,0,0,1,2-.9,2.2,2.2,0,0,1,1.8.8,3.7,3.7,0,0,1,.6,2.3v.4h-4c.1,1.5.9,2.3,2.2,2.3a7.4,7.4,0,0,0,1.8-.4Zm-4-3.7h2.8c0-1.2-.4-1.8-1.3-1.8S259.7,95.1,259.6,96.3Z"/></g><g class="cls-3"><path d="M271.6,101.7V90.1h1.6v11.6Z"/><path d="M275.9,101.7V93.2h1.6v1.6a3.5,3.5,0,0,1,3-1.8,2.1,2.1,0,0,1,1.7.7,2.4,2.4,0,0,1,.7,1.9v6.1h-1.5V96.1a2.4,2.4,0,0,0-.3-1.4,1,1,0,0,0-.9-.4,3.3,3.3,0,0,0-2.7,1.9v5.5Z"/></g><g class="cls-3"><path d="M276,116.1l.6.6v-.8h1v5.7a3.6,3.6,0,0,1-.4,1.9,2.3,2.3,0,0,1-2.4,1.3,2.9,2.9,0,0,1-1.7-.5,1.6,1.6,0,0,1-.8-1.4h1.1a.9.9,0,0,0,.3.7,2,2,0,0,0,2.7-.6,6.2,6.2,0,0,0,.2-1.8,2,2,0,0,1-.8.8l-1.2.2a2.3,2.3,0,0,1-1.7-.7,2.9,2.9,0,0,1-.8-2.4,3.7,3.7,0,0,1,.8-2.5,2.3,2.3,0,0,1,1.8-.9A2,2,0,0,1,276,116.1Zm.1,1.1a1.4,1.4,0,0,0-1.2-.6,1.6,1.6,0,0,0-1.5,1.1,6.1,6.1,0,0,0-.2,1.5,2.5,2.5,0,0,0,.4,1.6,1.7,1.7,0,0,0,1.2.5,1.6,1.6,0,0,0,1.6-1,5.2,5.2,0,0,0,.2-1.4A2.3,2.3,0,0,0,276.1,117.2Z"/><path d="M282.7,116.1a1.7,1.7,0,0,1,.6.6v-.8h1v5.7a3.6,3.6,0,0,1-.4,1.9,2.3,2.3,0,0,1-2.4,1.3,2.9,2.9,0,0,1-1.7-.5,1.6,1.6,0,0,1-.8-1.4h1.1a.9.9,0,0,0,.3.7,2,2,0,0,0,2.7-.6,6.2,6.2,0,0,0,.2-1.8,2,2,0,0,1-.8.8l-1.2.2a2.3,2.3,0,0,1-1.7-.7,2.9,2.9,0,0,1-.8-2.4,3.3,3.3,0,0,1,.8-2.5,2.3,2.3,0,0,1,1.8-.9A2,2,0,0,1,282.7,116.1Zm.1,1.1a1.4,1.4,0,0,0-1.2-.6,1.6,1.6,0,0,0-1.5,1.1,3.4,3.4,0,0,0-.2,1.5,2.5,2.5,0,0,0,.4,1.6,1.7,1.7,0,0,0,1.2.5,1.7,1.7,0,0,0,1.6-1,5.2,5.2,0,0,0,.2-1.4A2.3,2.3,0,0,0,282.8,117.2Z"/><path d="M286.4,113.9c.2-.4.7-.5,1.4-.5h.5v.9h-.4a.6.6,0,0,0-.6.3,3.5,3.5,0,0,0-.1,1.3h1.1v.8h-1.1v5.4h-1v-5.4h-.9v-.8h.9v-1A2.2,2.2,0,0,1,286.4,113.9Z"/><path d="M289.9,120.1a2,2,0,0,0,.2.9,2.1,2.1,0,0,0,1.5.5,1.7,1.7,0,0,0,1-.3.9.9,0,0,0,.5-.8.5.5,0,0,0-.4-.6l-.9-.3-.9-.2a3.3,3.3,0,0,1-1.2-.5,1.2,1.2,0,0,1-.7-1.1,2.1,2.1,0,0,1,.7-1.5,3.1,3.1,0,0,1,3.8.3,1.5,1.5,0,0,1,.4,1.1h-1a1.4,1.4,0,0,0-.2-.6,1.7,1.7,0,0,0-1.3-.4c-.5,0-.8,0-1,.2a.7.7,0,0,0-.3.6.8.8,0,0,0,.4.7l.7.2.7.2a6,6,0,0,1,1.6.5,1.5,1.5,0,0,1,.6,1.3,1.8,1.8,0,0,1-.6,1.4,2.6,2.6,0,0,1-2,.7,2.8,2.8,0,0,1-2-.7,2.1,2.1,0,0,1-.6-1.6Z"/></g><g class="cls-3"><path d="M-2.4,111.9v-1h2v-8l-2,.5v-1l3.4-.9v9.4H3v1Z"/><path d="M5.7,111.8v-1.2a6,6,0,0,0,2.3.6,2.1,2.1,0,0,0,2.1-2.1q0-2.1-3-2.1H6.6v-.9h.5c1.9,0,2.8-.7,2.8-2s-.6-1.6-1.9-1.6a5.2,5.2,0,0,0-2.2.6v-1.2a10.1,10.1,0,0,1,2.3-.4c2.1,0,3.2.8,3.2,2.4s-.8,2-2.2,2.5c1.7.4,2.5,1.3,2.5,2.7a2.8,2.8,0,0,1-1,2.3,4,4,0,0,1-2.6.8A7.4,7.4,0,0,1,5.7,111.8Z"/><path d="M13.8,114.1v-.5c.5-.1.7-.6.7-1.5v-.2h-.7v-1.7h1.7v1.5C15.5,113.2,15,114,13.8,114.1Z"/><path d="M18,112v-1.2a7.9,7.9,0,0,0,2,.4,1.9,1.9,0,0,0,1.5-.6,2.4,2.4,0,0,0,.6-1.7c0-1.5-1-2.2-3.1-2.2h-.8v-4.9h5.2v1.1h-4v2.7a5,5,0,0,1,3.1.9,3.2,3.2,0,0,1,1,2.5,2.9,2.9,0,0,1-.9,2.3,4.1,4.1,0,0,1-2.8.9Z"/><path d="M26.4,111.9V101.1h1.4v4.8a3,3,0,0,1,2.6-1.6,1.9,1.9,0,0,1,1.5.6,2.4,2.4,0,0,1,.6,1.7v5.3H31.2V107a2.1,2.1,0,0,0-.3-1.2c-.1-.2-.4-.3-.8-.3a2.9,2.9,0,0,0-2.3,1.6v4.8Z"/></g><g class="cls-3"><path d="M131.9,130.6v-6.9h1.3V125a2.7,2.7,0,0,1,2.4-1.5,1.7,1.7,0,0,1,1.4.6,2,2,0,0,1,.6,1.5v5h-1.3V126a2.7,2.7,0,0,0-.2-1.1,1,1,0,0,0-.8-.3q-1.1,0-2.1,1.5v4.5Z"/></g><g class="cls-3"><path d="M182.2,133.3v-1.5l1.7.3a1.7,1.7,0,0,0,1.3-.5,4.4,4.4,0,0,0,.3-1.9V119.5h1.7v10.1c0,2.6-1.2,3.8-3.6,3.8Z"/></g><g class="cls-3"><path d="M205.1,132.5V121.6h3.3a4.3,4.3,0,0,1,2.4.7,2.6,2.6,0,0,1,.8,2,3.1,3.1,0,0,1-2.2,3.1l3.6,5.1h-1.9l-3.1-4.6h-1.4v4.6Zm1.5-5.8h.5c1.9,0,2.9-.7,2.9-2.2s-.8-1.7-2.4-1.7h-1Z"/><path d="M220,132.2a9.2,9.2,0,0,1-2.5.5,3.8,3.8,0,0,1-2.9-1.2,4.4,4.4,0,0,1-1.1-3,4.9,4.9,0,0,1,1-3,3.2,3.2,0,0,1,2.5-1.2,2.8,2.8,0,0,1,2.3,1.1,4.8,4.8,0,0,1,.8,2.9v.4h-5c.2,1.9,1.2,2.9,2.8,2.9a7.4,7.4,0,0,0,2.2-.5Zm-4.9-4.5h3.5c0-1.5-.6-2.3-1.7-2.3S215.2,126.2,215.1,127.7Z"/></g><g class="cls-3"><path d="M275.1,130.8V120.6h3.1a3.1,3.1,0,0,1,2.2.7,2.2,2.2,0,0,1,.8,1.8,3,3,0,0,1-2.1,2.9l3.4,4.8h-1.8l-2.8-4.3h-1.4v4.3Zm1.4-5.4h.5q2.7,0,2.7-2.1c0-1.1-.8-1.6-2.3-1.6h-.9Z"/></g><g class="cls-4"><path class="cls-5" d="M49.5,100.6a1.3,1.3,0,0,1-1.3,1.4,1.4,1.4,0,0,1-1.4-1.4h0V99.4c-.1-1.4-.1-2.9-.1-4.4V83.8a21.7,21.7,0,0,0-.1-2.6v-1a20.9,20.9,0,0,1,0-2.5V76.1c0-.4-.1-.8-.1-1.2s-.1-.6-.1-1V65.3c0-.5.1-.9.1-1.3V62.3c0-.8-.1-1.8-.1-2.9a12.1,12.1,0,0,1-.1-1.8V57c0-.2-.1-.4-.1-.7V44.7c.1-1.4.1-2.7.1-4v-.8c0-2.5-.2-5.1,0-7.9.1-1.2.1-2.4.1-3.7V26.4a3.7,3.7,0,0,1-.2-1.2,1.7,1.7,0,0,1,0-1,1.1,1.1,0,0,1,.5-.9,1.4,1.4,0,0,1,1.1-.4c.2,0-.5.1-.4,0s-.1.1-.1.1l.2-.2a1.5,1.5,0,0,1,1.9.6,1.3,1.3,0,0,1-.5,1.8c-.1.1-.1.4-1,.4h.3l.3-.2c-.1.1.3-.4.3-.3s.1-.4.1-.3h0v.2a9.6,9.6,0,0,0,.2,1.2,16.1,16.1,0,0,1,0,2.2c0,1.3.1,2.6,0,4s-.1,4.9-.1,7.6v4.9a48.6,48.6,0,0,0,0,5.4v5.1c0,.4-.1.6,0,.8v.7a2,2,0,0,0,.1.7v1.8c0,1,.1,2.1.1,3v3c0,.8-.1,1.6-.1,2.2v1.4a27.8,27.8,0,0,1,0,2.9v2a2.5,2.5,0,0,1,.1.9,5.3,5.3,0,0,1,.1,1.3v4.1a2.8,2.8,0,0,0,.1.9V95c0,1.4.1,2.9.1,4.3v1.3h0m-2.7,0a1.4,1.4,0,0,1,1.4-1.4,1.3,1.3,0,0,1,1.3,1.4h0a1.3,1.3,0,0,1-1.4,1.3,1.4,1.4,0,0,1-1.3-1.4h0"/><path class="cls-5" d="M49.1,25.4a1.4,1.4,0,0,1,0-2.8l5.5.2h5.3l3.4-.2H72a2.7,2.7,0,0,1,1.8,0c.2,0,.4.1.7.4a1.8,1.8,0,0,1,.4,1.1c-.1.8-.5.9-.6,1.1l-1.3.8a1.3,1.3,0,0,1-1.8-.6,1.3,1.3,0,0,1,.5-1.8l.8-.5h-.1v.2c0-.1-.2.6-.2.4s.2.8.1.6l.2.4c-.1-.2.5.4.4.3H68.6c-1.6-.1-3.5.1-5.3.1H60.2l-1.9.2H49.1"/><path class="cls-6" d="M104.8,23.6a1.4,1.4,0,0,1-1.4-1.4,1.3,1.3,0,0,1,1.4-1.3h84.4a1.3,1.3,0,0,1,1.3,1.3,1.3,1.3,0,0,1-1.3,1.4Z"/><path class="cls-5" d="M187.9,23.6a1.5,1.5,0,0,1,.2-1.9,1.4,1.4,0,0,1,2,.2c.2.3.2.4.2.5a2,2,0,0,1,.1.7,20.6,20.6,0,0,1,.2,3.6c0,1.4.1,3,.1,4.2v1.5a8.9,8.9,0,0,0-.2,1.1,1.5,1.5,0,0,1-.1.6c0,.5-.1,1-.1,1.6a6.2,6.2,0,0,0-.1,1.2h0c0,.1-.1-.2,0-.1s-.2-.4-.2-.3l-.3-.4-.4-.2h-.5l-.6.2c.2-.1-.3.3-.2.2s-.3.3-.2.2-.1.2-.1.1v-.2a1.4,1.4,0,1,1,2.6.8c-.1.3.1.4-.6,1.1a1.7,1.7,0,0,1-1.6.2,1.8,1.8,0,0,1-.7-.8v-.6a7.1,7.1,0,0,1,.1-1.4c0-.6.1-1.2.1-1.7s.1-.5.1-.7a2.5,2.5,0,0,0,.1-.8,6.5,6.5,0,0,0,0-1.4c0-1.2,0-2.7-.1-4.2a28.2,28.2,0,0,0-.1-3.2v-.2c0-.1.4.5.2.3m2.5-.4a1.4,1.4,0,0,1-2.8.2v-.9c.1,0,0-.1.2-.4a1.3,1.3,0,0,1,1.9-.5,1.4,1.4,0,0,1,.5,1.8v-.3h0v-.2c0,.1.1.2.1.4"/><path class="cls-5" d="M191.2,180.7a1.5,1.5,0,0,1-1.4,1.3,1.4,1.4,0,0,1-1.4-1.4h0V180a1.4,1.4,0,0,1,1.3-1.4,1.3,1.3,0,0,1,1.4,1.3,1.8,1.8,0,0,1,.1.6v.2m-.6-14.6a1.3,1.3,0,0,1-1.2,1.5,1.4,1.4,0,0,1-1.5-1.2h0s.1.1,0,.1h.1l.3.3a.9.9,0,0,1-.5-.8h0c-.1,0,.1.5,0,.3a1.4,1.4,0,0,1,.7-1.8,1.3,1.3,0,0,1,1.8.6,1.8,1.8,0,0,1,.2,1.1c0,.2-.1.3-.1.4.1,1.7.2,4,.3,6.3s.2,2,.3,3.1v1.4a7.1,7.1,0,0,1,.1,1.4v1.2a1.5,1.5,0,0,1,.1.6h0a1.4,1.4,0,0,1-1.3,1.5,1.3,1.3,0,0,1-1.4-1.3h-.1v-1.8c0-.4-.1-.9-.1-1.4a6.2,6.2,0,0,0-.1-1.3c0-.9-.2-2-.2-3.2s-.2-4.5-.3-6.3v-.7h0s.1.2,0,.1.2.5.2.3l2.4-1.2c.2.4.1.3.1.4v-.3c.1.2-.6-.6-.4-.4s.6.7.6.9a.9.9,0,0,1,.1.5"/><path class="cls-6" d="M45.3,109.9a1.3,1.3,0,0,1,1.3-1.4,1.4,1.4,0,0,1,1.4,1.4v70.9a1.3,1.3,0,0,1-1.4,1.3,1.3,1.3,0,0,1-1.3-1.3Z"/><path class="cls-6" d="M46.6,182.1a1.3,1.3,0,0,1-1.3-1.3,1.3,1.3,0,0,1,1.3-1.4H189.2a1.3,1.3,0,0,1,1.3,1.4,1.3,1.3,0,0,1-1.3,1.3Z"/><path class="cls-7" d="M117.3,39.6a1.4,1.4,0,0,1-1.3-1.4,1.3,1.3,0,0,1,1.3-1.4h71.9a1.3,1.3,0,0,1,1.3,1.4,1.4,1.4,0,0,1-1.3,1.4Z"/><path class="cls-8" d="M115.9,39a1.4,1.4,0,0,1,2.7.4c-.1.2,0-.2,0-.2v.2c0,.4.2,1.5.2,2.8v5.5c.1,1.1.1,2.1.1,3v2.6s-.1-.2-.1-.1-.1-.4-.1-.3-.5-.5-.3-.4l-.7-.2c.2,0-.7.1-.5,0l-.3.2c.1-.1-.1,0-.1,0a1.4,1.4,0,0,1,2,0,1.4,1.4,0,0,1,0,1.9l-.3.3a2,2,0,0,1-1,.3,1.3,1.3,0,0,1-1.1-.7,1,1,0,0,1-.2-.6,2.4,2.4,0,0,1,0-.9V50.7c0-.9,0-1.9-.1-2.9s-.1-3.7-.1-5.6-.1-2.1-.1-2.6v-.2c0-.1-.1.2,0-.4m2.7.6a1.4,1.4,0,0,1-1.3,1.4,1.3,1.3,0,0,1-1.4-1.3v-.3h0a1.3,1.3,0,0,1,1.2-1.5,1.3,1.3,0,0,1,1.5,1.2h0v.3"/><path class="cls-8" d="M118,103a1.4,1.4,0,0,1-1-1.7,1.4,1.4,0,0,1,1.7-.9h-1.2c.1-.1-.2.2-.1.2s0-.2.3-.4a1.3,1.3,0,0,1,1.1-.7,1.4,1.4,0,1,1,.4,2.7c-.2,0,.5-.2.4-.2h.1c-.1.1.2.2-.8.7l-.5.2H118m1.1-17.3a1.3,1.3,0,0,1,.6,1.8,1.4,1.4,0,0,1-1.9.6h.5c-.1.1.7-.4.5-.2s.4-.6.4-.4.1-.5.1-.4v-.2h0c.1.5,0,.9.1,1.1a6.6,6.6,0,0,0,.1,1.3v5c.1,1.2.1,2.4.1,3.6a11.5,11.5,0,0,1,.1,1.9v.8c0,.5-.1.6,0,.8v.5h0s-.1-.4,0-.3-.3-.6-.2-.4h0a1.3,1.3,0,0,1-.5,1.8,1.3,1.3,0,0,1-1.8-.4h-.1c-.4-.7-.1-.8-.1-.9v.2a4.8,4.8,0,0,1,0-1.2v-.8a10.3,10.3,0,0,1-.1-1.7c-.1-1.3-.1-2.5-.1-3.8V92.4a28.1,28.1,0,0,0-.1-3,5.7,5.7,0,0,0-.1-1.3V86.7a1.8,1.8,0,0,1,.1-.6,1.8,1.8,0,0,1,1-.7,1,1,0,0,1,1,.1l.4.2"/><path class="cls-8" d="M116.9,148.6a1.3,1.3,0,0,1,1.9-.2,1.4,1.4,0,0,1,.3,1.9c-.2.2.2-.5.2-.4v-.2c0,.1.3,1.9.6,3.7a57.8,57.8,0,0,1,.3,6.4l.3,1.9v1.8h0s-.2-.4-.1-.3-.2-.4-.2-.3-.4-.3-.2-.3-1-.2-.7-.2h-.9c.1,0-.1.2-.1.2h0c0-.1.2-.3.4-.8a1.4,1.4,0,0,1,1.9-.6,1.4,1.4,0,0,1,.6,1.8l-.7,1.2a1.8,1.8,0,0,1-.8.6,1.7,1.7,0,0,1-1.2,0,1.8,1.8,0,0,1-.6-.8,1.7,1.7,0,0,1-.1-1.6c0-.3,0-.5-.1-.6a18.3,18.3,0,0,0-.2-2.1c-.1-1.5,0-3.6-.3-6.1-.2-.9-.3-1.8-.4-2.6a6.2,6.2,0,0,1-.2-1.9,1.1,1.1,0,0,1,.3-.7m2.7,1.8a1.2,1.2,0,0,1-.7,1.7,1.4,1.4,0,0,1-1.8-.7l-.3-1.2a.8.8,0,0,1-.1-.4h0v.2c-.1-.1.4.5.2.3h.1a1.4,1.4,0,0,1-.1-2,1.4,1.4,0,0,1,1.9,0h.1c.5.5.3.7.4.8v.3l.2.8"/><path class="cls-7" d="M117.9,166.3a1.3,1.3,0,0,1-1.3-1.4,1.4,1.4,0,0,1,1.3-1.4h65a1.5,1.5,0,0,1,1.4,1.4,1.4,1.4,0,0,1-1.4,1.4Z"/><path class="cls-9" d="M189.7,39.3a1.4,1.4,0,0,1-.4,1.9,1.4,1.4,0,0,1-1.9-.3,2.2,2.2,0,0,1-.4-1v-.5a1.3,1.3,0,0,1,.3-.8,1.6,1.6,0,0,1,1.6-.3c.7.2.6.5.7.6a.4.4,0,0,1,.1.3,5.4,5.4,0,0,1,.3,1,28.2,28.2,0,0,1,0,6.5c-.1,1-.1,1.9-.2,2.7v4.1h0c0,.1-.2-.4-.1-.3s-.4-.3-.3-.2l-.6-.3c.2,0-.9.1-.7,0s-.4.3-.4.3-.1.1,0,.1v-.2a1.4,1.4,0,0,1,1.9-.5,1.3,1.3,0,0,1,.5,1.8c-.1.3-.1.7-1,1.1a1.8,1.8,0,0,1-1.7-.6,3.6,3.6,0,0,1-.3-.7,7.4,7.4,0,0,1,0-1.5V49.2c.1-.8.1-1.7.2-2.7a37.1,37.1,0,0,0,0-5.8,2.1,2.1,0,0,1-.1-.6h0s.2.2.1.2.2.2.2.1l.3.2h1c-.2.1.7-.6.6-.4s.3-.6.3-.5,0-.4,0-.3v-.2h0a.3.3,0,0,0,.1.2h0v-.2"/><path class="cls-9" d="M190.1,101.9a1.3,1.3,0,0,1-1.9-.2,1.4,1.4,0,0,1,.3-2l-.2.2c.1-.2-.2.2-.2.2s0,.1,0,.1a.3.3,0,0,1,.1-.2,1.6,1.6,0,0,1,.5-.8,1.3,1.3,0,0,1,1.9-.2,1.4,1.4,0,0,1,.1,2h0l-.2.3a.4.4,0,0,1-.1.3s0,.1-.2.2a.1.1,0,0,1-.1.1m.1-16.3a1.3,1.3,0,0,1-2,1.8l.3.3h1.1c-.2,0,.6-.5.5-.4s.2-.3.2-.2.1-.4.1-.4h0v.2a1.1,1.1,0,0,1,.1.5,13.2,13.2,0,0,1,.2,1.6,25.3,25.3,0,0,1,0,3.9v7a5.6,5.6,0,0,1-.1.7v0c0,.1-.1-.4-.1-.3s-.2-.3-.1-.2l-.4-.4a1.3,1.3,0,0,1,.4,1.9,1.4,1.4,0,0,1-1.9.4c-.6-.5-.6-.8-.6-1V96.9c0-1.2.1-2.4.1-4.1a21.4,21.4,0,0,0,0-3.6c0-.5-.2-.9-.2-1.5a1.3,1.3,0,0,1-.1-.6v-.8c.1-.1.1-.3.2-.5a1.1,1.1,0,0,1,.8-.6,1,1,0,0,1,1.1.1l.4.3"/><path class="cls-9" d="M190.5,149.7a1.2,1.2,0,0,1-.6,1.8,1.3,1.3,0,0,1-1.8-.6,3.6,3.6,0,0,1-.3-.7h.1v.2l.2.2.3.2c-.2-.1,1.1,0,.8.1s.5-.2.4-.2l.3-.2.3-.4c0,.1.1-.4.1-.3h0v.7c0,1.2.1,2.5.2,4s.1,2.1.1,3.2.1,1.3.1,1.9.1,2.4.1,3.2v3c0,.1.2.3-.6.8a1.7,1.7,0,0,1-1.7-.2c-.6-.6-.3-.7-.4-.8a1.3,1.3,0,0,1,1.2-1.5,1.2,1.2,0,0,1,1.5,1.1s-.1-.4,0-.2v-.2l-.2-.2c.1,0-.3-.3-.2-.3h-1l-.6.2c.3-.1-.4.5-.3.4l-.2.3c.1-.2,0,.2,0,.2v-1.4a3.8,3.8,0,0,0-.1-1,29.7,29.7,0,0,0,0-3c0-.6-.1-1.3-.1-1.9s-.1-2.3-.2-3.3-.1-2.8-.1-4v-.9c0-.2-.3-.4.4-1a1.5,1.5,0,0,1,1.8-.1l.4.4c.1.2.1.2.1.3a.8.8,0,0,1,.1.4"/><path class="cls-10" d="M190.9,37.5a1.5,1.5,0,0,1,1.9.7,1.4,1.4,0,0,1-.7,1.8,1.7,1.7,0,0,1-1.4,0,2.3,2.3,0,0,1-.7-.7,1.4,1.4,0,0,1-.2-1,1.6,1.6,0,0,1,.6-.9l.7-.2h1.5l4.8-.3h3.1l4.4-.3a82.5,82.5,0,0,1,11.1.5c3.5.2,7.4.6,11.3.6s7.5.3,11.1.1,5.5-.2,7.4-.2a24.6,24.6,0,0,1,4.9.2,20.4,20.4,0,0,0,3.5,0h1.7a2.2,2.2,0,0,1,1.2-.3,2.1,2.1,0,0,1,1.5.8,2,2,0,0,1,.1,1.3,1.4,1.4,0,0,1-1.6,1.1,1.5,1.5,0,0,1-1.1-1.6h0s.2.6.1.5.8.6.6.5h.6l-.4.2-.7.2-2,.2a26,26,0,0,1-3.9-.1,28.3,28.3,0,0,0-4.5-.2l-7.2.2c-3.8.2-7.8,0-11.3,0s-8-.5-11.5-.7a65.4,65.4,0,0,0-10.7-.4l-4.6.3c-1.1,0-2.2-.1-3.1,0s-3.3.3-4.7.3h-1.2l.4-.2.3-.3c-.1.2.3-.8.3-.6s-.1-.7,0-.6-.3-.4-.2-.3-.5-.5-.4-.4h-1"/><path class="cls-10" d="M261.1,40.4a1.3,1.3,0,0,1-1.9.4,1.3,1.3,0,0,1-.3-1.9c.1-.3-.3.9-.3.7s.2.6.2.4l.3.4c-.2-.1.8.3.6.3h.6l.3-.2h.2a3.2,3.2,0,0,1-.1.7c0,.8.3,1.8.5,3.4a20.6,20.6,0,0,1,.2,3.6v4.1a8.9,8.9,0,0,0-.2,1.5c0,.2-.1.2,0,.2s-.1-.1-.1,0v-.2c0,.1-.1-.3-.1-.2v-.2c.1,0-.3-.4-.2-.3s-.9-.3-.7-.3-.8.2-.7.1-.4.3-.4.2-.2.4-.2.3-.1.2-.1.2h0a1.3,1.3,0,0,1,1.7-.8,1.4,1.4,0,0,1,.8,1.8.3.3,0,0,1-.1.2c0,.1,0,.4-.7.7a1.7,1.7,0,0,1-1.4-.3c-.8-.7-.5-.9-.5-1a1.7,1.7,0,0,1,.1-.7c0-.5.1-1,.1-1.5a1.3,1.3,0,0,0,.1-.6V48.1a32.8,32.8,0,0,0-.2-3.4,16,16,0,0,1-.5-3.9,4,4,0,0,1,.3-1.7l.6-.8a1.4,1.4,0,0,1,1.2-.3,1.9,1.9,0,0,1,1.1.8,1.6,1.6,0,0,1-.1,1.6"/><path class="cls-10" d="M263.2,87.7a1.4,1.4,0,0,1-1.7,1,1.3,1.3,0,0,1-1-1.6s.1,0,0-.1l.2.3.4.3h1.1l.2-.2c-.1.1.2-.3.2-.2v.3a46.4,46.4,0,0,0-.5,5l-.3,4v2.9h0c.1.1-.1-.3,0-.2s-.3-.3-.2-.2l-.5-.3c.2.1-.8,0-.6-.1l-.4.2-.3.2h-.1V99a1.4,1.4,0,0,1,1.8-.7,1.5,1.5,0,0,1,.8,1.8l-.4.7a1.1,1.1,0,0,1-.5.4,1.4,1.4,0,0,1-1.3.1,1.3,1.3,0,0,1-.9-1,2,2,0,0,1-.1-.7c-.1-.9,0-2,0-3.2s.1-2.7.2-4a54.2,54.2,0,0,1,.7-5.5,1.5,1.5,0,0,1,.4-1.2,2.1,2.1,0,0,1,1.1-.7,1.6,1.6,0,0,1,.9.2,1.3,1.3,0,0,1,.7.8,2.5,2.5,0,0,1,.2,1.7"/><path class="cls-10" d="M259.9,151.5a1.4,1.4,0,0,1,.4-1.9,1.3,1.3,0,0,1,1.9.5,2.5,2.5,0,0,1,.4,1.4,30.1,30.1,0,0,1,.1,3.1,19.3,19.3,0,0,1,0,3.4c0,1.2,0,2.7.1,3.8v1h0c0,.1-.3-.4-.1-.3l-.4-.3-.3-.2h-1l-.5.4-.2.3c.1-.1,0,.2,0,.1h0a1.4,1.4,0,0,1,1.6-1.1,1.3,1.3,0,0,1,1,1.6v.4l-.2.3a1.2,1.2,0,0,1-1.1.6,1.2,1.2,0,0,1-1.2-.6c-.3-.5-.3-.6-.3-.7a6.2,6.2,0,0,0-.1-1.3v-7.2a23.3,23.3,0,0,0-.2-2.9v-.5h0c0-.1.2.3.1.2m2.6.6a1.5,1.5,0,0,1-1.5,1.3,1.3,1.3,0,0,1-1.2-1.5c0-.2,0-.2-.1-.3v-.7a1.3,1.3,0,0,1,.1-.8,1.4,1.4,0,0,1,1.9-.5,1.3,1.3,0,0,1,.5,1.8l.2-.4v.1a2.8,2.8,0,0,1,.1,1"/><path class="cls-11" d="M189.2,166.3a1.4,1.4,0,0,1-1.4-1.4,1.4,1.4,0,0,1,1.4-1.4h71.4a1.4,1.4,0,0,1,1.4,1.4,1.4,1.4,0,0,1-1.4,1.4Z"/></g><g class="cls-4"><path d="M30.8,102a.4.4,0,0,1-.4-.4.5.5,0,0,1,.4-.5H62.5a.5.5,0,0,1,.4.5.4.4,0,0,1-.4.4Z"/><path d="M40.3,110.3a.4.4,0,1,1,0-.8H51.4a.4.4,0,1,1,0,.8Z"/><path d="M132.7,70a15.8,15.8,0,0,0-2-7.5,14.9,14.9,0,0,0-12.8-7.3,14.1,14.1,0,0,0-7.4,2A14.8,14.8,0,0,0,103.1,70a15.4,15.4,0,0,0,2,7.4,14.9,14.9,0,0,0,12.8,7.3,14.1,14.1,0,0,0,7.4-2A14.7,14.7,0,0,0,132.7,70m.8,0a15.7,15.7,0,0,1-15.6,15.6A15.6,15.6,0,0,1,102.3,70,15.6,15.6,0,0,1,110,56.5a16.3,16.3,0,0,1,7.9-2.1,15.7,15.7,0,0,1,13.5,7.7,16,16,0,0,1,2.1,7.9"/><path d="M109.6,101.6a.4.4,0,1,1,.8,0v47.5a.4.4,0,1,1-.8,0Z"/><path d="M125.4,101.6a.4.4,0,1,1,.8,0v47.5a.4.4,0,1,1-.8,0Z"/><path d="M110,149.5a.4.4,0,0,1-.4-.4.4.4,0,0,1,.4-.4h15.8a.4.4,0,0,1,.4.4.4.4,0,0,1-.4.4Z"/><path d="M110,102a.4.4,0,0,1-.4-.4.5.5,0,0,1,.4-.5h15.8a.5.5,0,0,1,.4.5.4.4,0,0,1-.4.4Z"/><path d="M203.3,70a15.8,15.8,0,0,0-2-7.5,14.9,14.9,0,0,0-12.8-7.3,14.1,14.1,0,0,0-7.4,2A14.8,14.8,0,0,0,173.7,70a15.4,15.4,0,0,0,2,7.4,14.7,14.7,0,0,0,12.8,7.3,14.4,14.4,0,0,0,7.4-2A14.7,14.7,0,0,0,203.3,70m.8,0a15.4,15.4,0,0,1-7.8,13.4,14.8,14.8,0,0,1-7.8,2.2A15.7,15.7,0,0,1,175,77.8a16,16,0,0,1-2.1-7.8,15.6,15.6,0,0,1,7.7-13.5,16,16,0,0,1,7.9-2.1A15.7,15.7,0,0,1,202,62.1a16,16,0,0,1,2.1,7.9"/><path d="M180.2,101.6c0-.3.1-.5.4-.5a.5.5,0,0,1,.4.5v47.5a.4.4,0,0,1-.4.4.4.4,0,0,1-.4-.4Z"/><path d="M196,101.6a.4.4,0,1,1,.8,0v47.5a.4.4,0,0,1-.8,0Z"/><path d="M180.6,149.5a.4.4,0,0,1-.4-.4c0-.3.1-.4.4-.4h15.8a.4.4,0,0,1,.4.4.4.4,0,0,1-.4.4Z"/><path d="M180.6,102a.4.4,0,0,1-.4-.4c0-.3.1-.5.4-.5h15.8a.5.5,0,0,1,.4.5.4.4,0,0,1-.4.4Z"/><path d="M275.2,70a14.8,14.8,0,0,0-2-7.5A14.8,14.8,0,0,0,253,57.2,14.7,14.7,0,0,0,245.7,70a14.4,14.4,0,0,0,2,7.4,14.7,14.7,0,0,0,12.8,7.3,14.4,14.4,0,0,0,7.4-2A14.6,14.6,0,0,0,275.2,70m.8,0a15.5,15.5,0,0,1-7.7,13.4,15,15,0,0,1-7.8,2.2A15.7,15.7,0,0,1,247,77.8a15,15,0,0,1-2.1-7.8,15.6,15.6,0,0,1,7.7-13.5,16,16,0,0,1,7.9-2.1,15.5,15.5,0,0,1,13.4,7.7A15.1,15.1,0,0,1,276,70"/><path d="M252.1,101.6a.5.5,0,0,1,.4-.5c.3,0,.4.2.4.5v47.5a.4.4,0,0,1-.4.4.4.4,0,0,1-.4-.4Z"/><path d="M268,101.6a.4.4,0,1,1,.8,0v47.5a.4.4,0,0,1-.8,0Z"/><path d="M252.5,149.5a.4.4,0,0,1-.4-.4.4.4,0,0,1,.4-.4h15.9a.4.4,0,0,1,.4.4.4.4,0,0,1-.4.4Z"/><path d="M252.5,102a.4.4,0,0,1-.4-.4.5.5,0,0,1,.4-.5h15.9a.5.5,0,0,1,.4.5.4.4,0,0,1-.4.4Z"/><path d="M188.8,22.4a.4.4,0,1,1,.8,0V54a.4.4,0,1,1-.8,0Z"/><path d="M188.8,85.7a.4.4,0,1,1,.8,0v15.9a.4.4,0,0,1-.8,0Z"/><path d="M188.8,149.1a.4.4,0,1,1,.8,0v31.7a.4.4,0,0,1-.8,0Z"/><path d="M117.9,165.3a.4.4,0,0,1,0-.8H260.6a.4.4,0,0,1,0,.8Z"/><path d="M117.5,149.1a.4.4,0,0,1,.8,0v15.8a.4.4,0,0,1-.8,0Z"/><path d="M260.5,149.1c0-.3.2-.4.5-.4a.4.4,0,0,1,.4.4v15.8a.4.4,0,0,1-.4.4.5.5,0,0,1-.5-.4Z"/><path d="M46.6,181.2a.4.4,0,0,1-.4-.4.5.5,0,0,1,.4-.5H189.2a.5.5,0,0,1,.4.5.4.4,0,0,1-.4.4Z"/><path d="M46.2,109.9a.4.4,0,0,1,.8,0v70.9a.4.4,0,0,1-.8,0Z"/><path d="M46.6,22.8a.4.4,0,0,1-.4-.4.5.5,0,0,1,.4-.5H74.4c.3,0,.4.2.4.5a.4.4,0,0,1-.4.4Z"/><path d="M189.2,38.6a.4.4,0,1,1,0-.8h71.4a.4.4,0,0,1,0,.8Z"/><path d="M117.3,38.6a.4.4,0,0,1,0-.8h71.9a.4.4,0,0,1,0,.8Z"/><path d="M116.9,38.2a.4.4,0,0,1,.4-.4.5.5,0,0,1,.5.4V54.8a.5.5,0,0,1-.5.4.4.4,0,0,1-.4-.4Z"/><path d="M117.8,85.1a.4.4,0,0,1,.4-.4.5.5,0,0,1,.4.5l-.7,16.4a.4.4,0,0,1-.4.4.5.5,0,0,1-.4-.5Z"/><path d="M260.9,85.1a.4.4,0,0,1,.8,0l-.6,16.5a.4.4,0,0,1-.4.4.5.5,0,0,1-.4-.5Z"/><path d="M260.2,38.2a.4.4,0,1,1,.8,0V54.8a.4.4,0,1,1-.8,0Z"/><path d="M46.3,22a.4.4,0,0,1,.6,0,.6.6,0,0,1,0,.6h-.2c-.2.2-.5.2-.6,0s-.1-.4,0-.6h.2m.5.6c-.2.1-.4.1-.5-.1s-.1-.4,0-.6h0c.2-.1.5-.1.6.1s.1.5-.1.6"/><path d="M46.2,22.4a.4.4,0,1,1,.8,0v79.2a.4.4,0,1,1-.8,0Z"/><path d="M104.4,22.5a14.4,14.4,0,0,0-2-7.4A14.7,14.7,0,0,0,89.6,7.8a14.4,14.4,0,0,0-7.4,2,14.7,14.7,0,0,0-7.4,12.7,14.8,14.8,0,1,0,29.6,0m.8,0A15.6,15.6,0,0,1,97.5,36a16,16,0,0,1-7.9,2.1,15.7,15.7,0,0,1-13.5-7.7A16,16,0,0,1,74,22.5,15.4,15.4,0,0,1,81.8,9.1a14.8,14.8,0,0,1,7.8-2.2,15.5,15.5,0,0,1,13.5,7.8,16,16,0,0,1,2.1,7.8"/><path d="M104.8,22.6a.4.4,0,0,1-.4-.4.4.4,0,0,1,.4-.4h84.4a.4.4,0,0,1,.4.4.4.4,0,0,1-.4.4Z"/><path class="cls-12" d="M83.6,26.4a.5.5,0,0,1,.6.1.5.5,0,0,1-.2.6l-.5.4-.3.4a.1.1,0,0,1-.1.1h0l-.8-.2a6.4,6.4,0,0,1,.6-1.1,28.4,28.4,0,0,1,2.6-3.1l1.4-1.4,4.3-4.6L92.8,16l.4-.5.2-.2h.3l.4.3c.2.4,0,.6-.1.9l-.3.9c-.5,1.8-1.2,4-1.6,5.6a6,6,0,0,0-.1,1.8,1.4,1.4,0,0,0,.6.8.5.5,0,0,1,0,.6c-.1.1-.4.2-.5,0a1.8,1.8,0,0,1-.9-1.2,5.6,5.6,0,0,1,.1-2.2c.4-1.7,1.1-3.8,1.6-5.6a5.4,5.4,0,0,0,.3-1,.4.4,0,0,0,.1-.3h.1s.2.1.1.1.3,0,.2.1h.1l-.4.5-1.6,1.6-4.3,4.6-1.4,1.4a18.7,18.7,0,0,0-2.5,3l-.5.8c0,.2-.2.3-.4.3a.5.5,0,0,1-.4-.5v-.2a5,5,0,0,1,.5-.7l.7-.5"/><path class="cls-12" d="M87.3,23.6c-.1.1-.4,0-.5-.1a.4.4,0,0,1,.1-.6,3.7,3.7,0,0,1,2.1-.6,7.7,7.7,0,0,1,3,.3c.2.1.4.3.3.5s-.3.4-.5.3a6.5,6.5,0,0,0-4.5.2"/><path class="cls-12" d="M111.4,73.1c.1-.2.4-.2.6-.1a.5.5,0,0,1,0,.6v.3c0,.1-.1-.2,0-.1s-.1-.2-.1-.1-.2-.1-.1-.1h.2l1-1.4L115,69a30.4,30.4,0,0,1,2.1-2.5,11.6,11.6,0,0,1,1.7-1.6l.3-.2c.1-.1.2-.2.4-.1s.4.2.5.4v.4a3.8,3.8,0,0,1-.1,1,22.1,22.1,0,0,1-.5,2.5,12.9,12.9,0,0,0-.3,2.4v.6h0a.5.5,0,0,1,.4.5.4.4,0,0,1-.4.4l-.5-.2-.2-.4a2.9,2.9,0,0,1-.2-.9c.1-.7.2-1.6.4-2.6a22.1,22.1,0,0,0,.5-2.5,2.5,2.5,0,0,0,.1-.8v-.2s.1.1,0,.1.1.1.1,0h.2l-.3.2-1.5,1.5a25.4,25.4,0,0,0-2,2.4c-.8,1-1.5,2.2-2.2,3.1a4.7,4.7,0,0,1-1.2,1.5.9.9,0,0,1-.6.3h-.5a.4.4,0,0,1-.1-.3,1.2,1.2,0,0,1,.3-.8"/><path class="cls-12" d="M115.4,70.7a.4.4,0,0,1-.1-.6.4.4,0,0,1,.5-.1h1.1c.7.1,1.7,0,3,.2s.4.2.3.4a.4.4,0,0,1-.4.4c-1.2-.2-2.1,0-3-.2h-1.4m1.7.4a.4.4,0,0,1-.2.5c-.2.1-.4.1-.5-.1s0,.1,0,0l-.3-.2a1.8,1.8,0,0,1-.9-.8c-.1-.2,0-.4.3-.5a.4.4,0,0,1,.5.2c0,.1.2.3.5.4l.3.2.3.3"/><path class="cls-12" d="M183.6,75.4a.4.4,0,0,1,.4.4c.1.2-.1.4-.3.4h-.6a.5.5,0,0,1-.1-.6,2.4,2.4,0,0,1,.5-1.2c.6-1,1.5-2.5,2.6-4l2-2.5a23.9,23.9,0,0,1,2.1-2.2l.2-.2q0-.2.3-.3a.9.9,0,0,1,.6.3.8.8,0,0,1,.1.4v1.1c-.1.8-.2,1.9-.3,2.9a17.8,17.8,0,0,0-.3,3,1.9,1.9,0,0,0,.1.8h-.1c.1.1-.1,0-.1,0s.5.1.5.4-.1.4-.3.4a.5.5,0,0,1-.6-.2.5.5,0,0,1-.2-.4,3.1,3.1,0,0,1-.1-1,16,16,0,0,1,.3-3c.1-1.1.2-2.2.3-3v-.9h.4l-.3.3-2,2.1c-.6.8-1.3,1.6-1.9,2.5s-2,2.9-2.6,3.9a2,2,0,0,0-.4.9h-.1c.1,0-.2-.1-.1-.1h0"/><path class="cls-12" d="M188,72c.2.1.2.3.1.5a.4.4,0,0,1-.5.2l-1-.7c-.1-.2-.3-.4-.3-.6a.8.8,0,0,1,.2-.5c.1-.2.3-.2.4-.3h1l3.1.6a.6.6,0,0,1,.3.6.4.4,0,0,1-.6.2,10.4,10.4,0,0,0-2.8-.5,2.1,2.1,0,0,0-.8,0h.1l.8.6"/><path class="cls-12" d="M257.1,75.6h.6a.4.4,0,0,1,0,.6l-.6.7-.3.3h-.1c0,.1-.1.1-.2.1l-.4-.2a.8.8,0,0,1-.1-.4.4.4,0,0,0,.1-.3,1.6,1.6,0,0,0,.3-.6l1.1-1.7c.9-1.4,2-3.1,3.2-4.7a34.2,34.2,0,0,1,2.2-2.8l2.1-2.2c.3-.2.5-.4.9-.3s.4.3.5.4v.5a4.4,4.4,0,0,1-.3,1.4c-.2,1-.6,2.3-.9,3.6a11.9,11.9,0,0,0-.7,3.1.8.8,0,0,0-.1.4.1.1,0,0,1,.1.1h-.2l.2-.2a.5.5,0,0,1,.6.1.3.3,0,0,1-.1.5c-.2.2-.3.3-.5.3s-.5.1-.6-.1a1.4,1.4,0,0,1-.3-1.1,18.5,18.5,0,0,1,.8-3.2c.3-1.3.7-2.6,1-3.6a7.4,7.4,0,0,0,.2-1.2v-.3h0s.1.2,0,.1h.2l-.3.2a14,14,0,0,0-2,2.1l-2.1,2.6-3.2,4.7-1,1.7c-.2.3-.3.4-.3.6h-.6l.2-.2.6-.8"/><path class="cls-12" d="M262.3,71.8a.5.5,0,0,1,0,.5c-.2.2-.5.2-.6,0s.1.1,0,.1-.3-.2-.6-.3-.6-.2-.7-.4l.6-.6c0,.1-.2-.1-.2,0s-.1-.1,0-.1h.8l3.1.2a.5.5,0,0,1,.4.5c-.1.2-.3.4-.5.3l-3-.2h-.9c-.1,0-.2.1-.3-.1a.4.4,0,0,1,0-.6h.6l.4.3h.4c.2.1.3,0,.5.3"/><path d="M114.3,134.2c0,.3-.2.5-.4.4a.4.4,0,0,1-.4-.4v.2h-.3l-.4-.3h-.1v-.3l.3-.3h.2c.5.1.8.4,1.2.5l1.4.6.6.2h0l-.2-.4a8,8,0,0,1-.7-2.4c-.1-.2.1-.4.3-.5a.5.5,0,0,1,.5.3,6.4,6.4,0,0,0,.6,2.2l.2.4a.6.6,0,0,1,.1.6c0,.2-.1.3-.3.5h-.6l-.7-.2-1.6-.6-.9-.5h.4v-.2h0c0,.1-.1-.1,0-.1h0l.4.2h.2l.2.4"/><path d="M114,130.8c-.2-.1-.2-.3-.1-.5a.4.4,0,0,1,.5-.2l2.8,1.3a5.6,5.6,0,0,0,1.5.4h.6a.5.5,0,0,1,.6.1c.1.2,0,.4-.2.6s-.7.1-1.2,0l-1.6-.4-2.9-1.4"/><path d="M114.2,126.6a.5.5,0,0,1-.4.5.4.4,0,0,1-.4-.4,19.4,19.4,0,0,0-.5-2,1.9,1.9,0,0,1,0-1.3c.1-.2.2-.3.4-.3h.4l.9.2,2.2.9,2,.9h.9s-.1.1-.1,0-.2.2-.1.1v.2h0v.2c0-.1.1.1.1.1h.1a.5.5,0,0,1-.4-.5c.1-.3.3-.4.5-.3h.4c0,.1.1.1.1.3a.4.4,0,0,1-.1.3c-.2.2-.3.1-.3.1h-.2a2.6,2.6,0,0,1-1.1-.2l-2.1-.9-2-.9h-.7c-.1,0-.1.3,0,.7a16,16,0,0,1,.5,2.1"/><path d="M117.5,126.1a.6.6,0,0,1,.6-.3.4.4,0,0,1,.2.5.9.9,0,0,1-.3.7h-.8c-.4-.2-.5-.7-.7-1.1a7.6,7.6,0,0,1-.5-3.3c.1-.2.3-.4.5-.3s.4.2.3.4a6.3,6.3,0,0,0,.5,2.9c.1.4.3.7.4.7h-.2v-.2"/><path d="M115.5,119.4a.3.3,0,0,1,.3-.5.5.5,0,0,1,.5.4c0,.2.2.4.4.6a2.5,2.5,0,0,0,1.1.4c.4.1.7.1.8,0a1,1,0,0,0,.2-.7,1.6,1.6,0,0,0-.2-1,3.1,3.1,0,0,0-1.5-1.1c-.5-.2-1-.4-1.2-.3h-.2c-.1.1-.1.3-.1.6a3.5,3.5,0,0,0,.6,1.8c.1.2.1.5-.1.6s-.5.1-.6-.1a4.3,4.3,0,0,1-.8-2.3,2.9,2.9,0,0,1,.3-1c.1-.3.5-.5.8-.6a4.1,4.1,0,0,1,1.7.5c.6.3,1.5.7,1.8,1.4a2.5,2.5,0,0,1,.3,1.4,1.5,1.5,0,0,1-.5,1.3,1.4,1.4,0,0,1-1.4.2,3.4,3.4,0,0,1-1.4-.5,1.6,1.6,0,0,1-.8-1.2"/><path d="M185.2,125.2a.4.4,0,0,1,.7-.5h.2l.8-.3,2.1-.8a3.7,3.7,0,0,1,1.8-.1,1.5,1.5,0,0,1,1.1,1.2,1.7,1.7,0,0,1-.5,1.3,2.3,2.3,0,0,1-1.2.6,2.4,2.4,0,0,1-2-.5,11.8,11.8,0,0,1-1.3-1.8l-.9-1.6a1.9,1.9,0,0,0-.8-.5h-.1c-.1,0-.1,0-.1.1a2,2,0,0,0,.1,1.3.4.4,0,0,0,.2.4c0,.1-.1,0-.1,0h-.1c.1,0-.1.1,0,.1h0a.4.4,0,0,1,.5-.2.4.4,0,0,1,.1.6.4.4,0,0,1-.4.3.4.4,0,0,1-.5-.1,1.4,1.4,0,0,1-.5-.8,3.4,3.4,0,0,1-.1-2l.4-.4.6-.2a2.6,2.6,0,0,1,1.4.9,9.5,9.5,0,0,1,1,1.7,6.5,6.5,0,0,0,1.1,1.5,1.3,1.3,0,0,0,1.3.4l.9-.4a.6.6,0,0,0,.2-.5.6.6,0,0,0-.5-.6,2.3,2.3,0,0,0-1.4.1l-2,.8-1,.3a1.4,1.4,0,0,1-1-.4"/><path d="M184.9,119.4c0,.2-.1.4-.3.4a.3.3,0,0,1-.5-.3,3.3,3.3,0,0,1,.3-1.9,1,1,0,0,1,1-.4l.9.3,2,1.4a5.5,5.5,0,0,0,1.5.8h.5a.2.2,0,0,0,.2-.2,6.4,6.4,0,0,0,0-1.4,1.5,1.5,0,0,1,.2-.9,1.5,1.5,0,0,1,.8-.8.4.4,0,0,1,.5.2.5.5,0,0,1-.2.6l-.4.3c0,.2-.1.4,0,.6a5,5,0,0,1-.1,1.7,1,1,0,0,1-.4.5.9.9,0,0,1-.7.3.8.8,0,0,1-.7-.1l-1.7-1a10.7,10.7,0,0,0-1.9-1.3l-.6-.2h-.2a3.2,3.2,0,0,0-.2,1.4"/><path d="M257.8,129.1a.4.4,0,0,1,0,.6.3.3,0,0,1-.5.1h0v.3a1.6,1.6,0,0,0,.6.8h.2l.2-.6a2,2,0,0,1,.5-.9,1.8,1.8,0,0,1,.8-.7,1,1,0,0,1,.9-.1l.6.4a2.5,2.5,0,0,1,.6,1.4,4.1,4.1,0,0,1,0,1.1,1.2,1.2,0,0,1-.9.9.4.4,0,0,1-.5-.3c-.1-.2.1-.4.3-.5s.2-.1.3-.3v-.8c-.1-.4-.2-.8-.4-.9l-.3-.2H260a1.5,1.5,0,0,0-.6.5.9.9,0,0,0-.3.7c-.1.1-.1.4-.2.6l-.2.3-.5.2a1.3,1.3,0,0,1-.8-.3,3.1,3.1,0,0,1-.9-1.1,1.4,1.4,0,0,1,.1-1.1l.6-.2.6.2"/><path d="M257.5,130.2c.2.1.1.4-.1.5s-.4.1-.5-.1-.5-1.4-.6-2.5-.2-2.2-.2-3.1a.4.4,0,0,1,.4-.4.4.4,0,0,1,.4.4c.1,1.8.2,4.6.6,5.2"/><path d="M255.5,119.8a.4.4,0,0,1,.4.4.4.4,0,0,1-.4.4h.2a.1.1,0,0,1,.1.1l.8,1.1,1.6,1.3a4.1,4.1,0,0,0,1.8.7,1.5,1.5,0,0,0,1-.1,1.3,1.3,0,0,0,.1-.9,2.2,2.2,0,0,0-1.2-1.1h-.3a.9.9,0,0,0-.1.5c0,.2,0,.3.1.4h0c0,.1-.2,0-.1,0h-.2c.2-.1.4,0,.5.3a.5.5,0,0,1-.3.5l-.5-.2c-.1-.1-.2-.2-.2-.3a2.5,2.5,0,0,1,0-1.4.9.9,0,0,1,.6-.6h.8a2.9,2.9,0,0,1,1.7,1.7,1.7,1.7,0,0,1-.4,1.7,2.7,2.7,0,0,1-1.6.4,4.8,4.8,0,0,1-2.1-.9,8,8,0,0,1-1.7-1.5,4.7,4.7,0,0,1-1-1.1,1.4,1.4,0,0,1-.2-.6c0-.2.1-.3.3-.4h.3"/><path d="M258.3,118a.5.5,0,0,1-.2-.6.4.4,0,0,1,.5-.2l1.4.5h.7l.6-.2a.5.5,0,0,0,0-.4c0-.3-.4-.7-.9-1.1a5.6,5.6,0,0,0-1.7-.9c-.4-.2-.6-.2-.8-.1s-.3.1-.4.3a2.8,2.8,0,0,0,.4,2c.1.2.1.5-.1.6a.5.5,0,0,1-.6-.2,3.1,3.1,0,0,1-.4-2.7,1.2,1.2,0,0,1,.9-.8,2,2,0,0,1,1.3.1,6.2,6.2,0,0,1,1.9,1.1,2.5,2.5,0,0,1,1.2,1.5,1.3,1.3,0,0,1-.3,1.3,1.9,1.9,0,0,1-1,.3h-.9l-1.6-.5"/><path d="M131.9,89a.5.5,0,0,1,.4-.5.4.4,0,0,1,.4.4c.1.7-.4,1.2-.7,1.8a15.2,15.2,0,0,0-1.1,2.7c0,.2-.3.3-.5.2s-.3-.2-.3-.5a17.7,17.7,0,0,1,1.2-2.8,6.1,6.1,0,0,0,.6-1.3"/><path d="M130.3,88.5a.3.3,0,0,1,.1.5c-.2.2-.4.3-.6.2a2.1,2.1,0,0,1-.6-.8.7.7,0,0,1,.1-.5l.4-.3a5.3,5.3,0,0,1,2-.5l3-.3H136c.3.1.7.1.9.4s.1.4,0,.6-.5.1-.6-.1h-1.6l-2.9.3-1.7.4a.1.1,0,0,0-.1.1h0l.3.2"/><path d="M128.8,92a.4.4,0,0,1,.6.2.5.5,0,0,1-.2.6c-.2,0-.2,0-.2.1h0v-.2c0,.1-.1,0-.1,0l.8.2a8.3,8.3,0,0,0,3.4-.3c.2-.1.5,0,.5.2s0,.5-.2.5a7.7,7.7,0,0,1-3.9.4,2.2,2.2,0,0,1-1.2-.5.6.6,0,0,1,0-.7,1,1,0,0,1,.5-.4"/><path d="M135.4,97a.4.4,0,0,1-.5.2.5.5,0,0,1-.2-.6h0a5.4,5.4,0,0,1,.1-1.1,5.6,5.6,0,0,1,1.5-3.4,1.9,1.9,0,0,1,1.3-.6c.3-.1.5.1.7.3a1.4,1.4,0,0,1,.2.6,2.1,2.1,0,0,1-.1,1.1,11.5,11.5,0,0,0-.8,1.5c-.1.1-.1.2,0,.4a3.2,3.2,0,0,0,.8.6.5.5,0,0,1,.2.6.3.3,0,0,1-.5.1c-.6-.3-1-.5-1.2-.9a1.2,1.2,0,0,1-.1-1,11.9,11.9,0,0,1,.8-1.6,2,2,0,0,0,.1-.7v-.2c0-.1.1,0,0,0a1,1,0,0,0-.7.4,4.6,4.6,0,0,0-1.3,2.9,5.4,5.4,0,0,0-.1,1.1h-.1m.4-3.6a.4.4,0,0,1,.6,0,.3.3,0,0,1,.1.5,3.3,3.3,0,0,0-.6,1.2c-.2.2-.2.5-.3.8a1.5,1.5,0,0,0-.1.6v.3h0s-.1-.1,0-.1,0,.5-.2.6a.4.4,0,0,1-.6-.2h0v-.4a2,2,0,0,1,.1-.7l.3-1a7.6,7.6,0,0,1,.7-1.3"/><path d="M139.9,97.5a.4.4,0,0,1-.4.4.4.4,0,0,1-.4-.4,1.1,1.1,0,0,1,.3-.8l.6-.6.8-.4a.6.6,0,0,1,.6,0c.2.2.4.3.4.5a1.7,1.7,0,0,1,.1,1.4,8.4,8.4,0,0,0-.2,1,.5.5,0,0,1-.6.3.4.4,0,0,1-.2-.5c.1-.4.4-1.5.2-1.8H141l-.5.3-.4.4-.2.3"/><path d="M203.4,90a.4.4,0,0,1,.3.7l-1,1.4-.5.7-.5.9H201c-.2-.3-.1-.4-.1-.4a1.4,1.4,0,0,1,.2-.6c0-.2.2-.3.5-.3a.4.4,0,0,1,.2.5,2,2,0,0,1-.1.5h-.6l.4-.7a5.6,5.6,0,0,0,.5-.8,6.1,6.1,0,0,0,.7-1,1.3,1.3,0,0,1,.7-.6"/><path d="M201.1,88.7c.3.1.4.3.3.5a.3.3,0,0,1-.5.3h.1s.2-.1.1-.1.1-.2.1-.1v-.4h.3a12,12,0,0,0,3.2-.1h1.5l.7.2a.7.7,0,0,1,.2.7c0,.3-.3.4-.5.4a.5.5,0,0,1-.3-.5h-1.6a10.4,10.4,0,0,1-3.5.1l-.6-.3s-.2-.1-.1-.4l.2-.3h.5"/><path d="M198.8,93.8a.5.5,0,0,1,.6.2c.1.2.1.4-.1.5l-.6.4s.1-.1.1,0h0c0,.1-.1-.3-.1-.2h1.1a26.2,26.2,0,0,0,3.1-.4c.2-.1.4,0,.5.3a.5.5,0,0,1-.3.5c-1.5.3-2.5.3-3.2.4a3.4,3.4,0,0,1-1.4.1.4.4,0,0,1-.4-.2c-.1-.1-.2-.2-.1-.4v-.2a2.7,2.7,0,0,1,.8-.7"/><path d="M207.3,93.3a.4.4,0,0,1,.6.2.4.4,0,0,1-.2.5h0a.3.3,0,0,0-.1.2l-.3.7a1.9,1.9,0,0,1-.2.7c0,.3-.1.6-.1.8s0,.3-.1.6-.2.3-.5.3a.5.5,0,0,1-.3-.5h0v-.6a5.5,5.5,0,0,1,.9-3.3l.8-.5a1.5,1.5,0,0,1,1.3.2,1.6,1.6,0,0,1,.4.7,1.9,1.9,0,0,1-.2.7c-.1.4-.4.8-.5,1.2s-.3.7-.2.8v.2h.7a.4.4,0,0,1,.4.4.4.4,0,0,1-.4.4l-1-.2a.9.9,0,0,1-.6-.6,1.7,1.7,0,0,1,.2-1.4l.6-1.2v-.4h0c-.1,0-.4-.1-.5,0l-.4.2a5,5,0,0,0-.8,2.7,2.7,2.7,0,0,1,0,.9l-.8-.2h0a1.1,1.1,0,0,1,.1-.5c0-.2.1-.6.1-.9a1.9,1.9,0,0,0,.2-.7l.3-.8c.2-.3.2-.5.5-.6"/><path d="M211.7,96.7a.4.4,0,0,1-.5-.2.4.4,0,0,1,.2-.6,1.4,1.4,0,0,1,1.1,0,.7.7,0,0,1,.3.5c0,.2-.1.3-.1.4l-.3.7a5.8,5.8,0,0,1-1,.9v.2h0l.4.2a2.1,2.1,0,0,0,1.2.3.5.5,0,0,1,.3.5c0,.2-.3.4-.5.4l-1.4-.4a2.9,2.9,0,0,1-.9-.9,1.1,1.1,0,0,1,.3-.7c.3-.5.8-.7,1-1a.8.8,0,0,0,.2-.4v-.2h.1c-.1,0,.1.2.1.1h-.4"/><path d="M276.5,89.3c-.1.2-.3.4-.5.3s-.4-.3-.3-.5a1.3,1.3,0,0,0,.1-.5h0s.1.2.1.1.2.2.1.2h.3s.2-.1.1-.1h.1l-.4.8c-.5.9-1.3,2.1-1.8,3.1l-.5.9h0v-.2h-.5c.1,0,0,.1,0,.1l.2-.3a.4.4,0,0,1,.6,0c.2.1.2.3.1.5l-.4.4h-.6a1,1,0,0,1-.1-.4h.1a3.1,3.1,0,0,1,.5-1c.5-1,1.3-2.2,1.7-3.1s.4-.7.6-.9,0-.1.1-.1h.2l.4.2c.2.2,0,.3,0,.3a1.3,1.3,0,0,1-.1.6"/><path d="M272.3,89.1a.3.3,0,0,1-.5.1.5.5,0,0,1-.2-.6c.1,0,0,.1,0,.1h0a.3.3,0,0,0-.1-.2,2.7,2.7,0,0,1,0-.9l.4-.4h1.3a10.2,10.2,0,0,1,3.4.6c1.2.4,2.1.8,3,1a.4.4,0,0,1,.2.5.3.3,0,0,1-.5.3c-.9-.2-1.8-.6-3-1a7,7,0,0,0-3.1-.5h-.9v.3c.1.1.1.2.1.4a.5.5,0,0,1-.1.5"/><path d="M270.8,93.3a.5.5,0,0,1,.6.2.4.4,0,0,1-.2.5c-.1.1-.2.1-.2.2h-.1s.1-.1.1,0,0-.1,0-.1v-.2h1.1a13.6,13.6,0,0,1,4.5.1.5.5,0,0,1,.3.5c-.1.2-.3.4-.5.3a15.3,15.3,0,0,0-4.3-.1h-1.5c-.1,0-.2,0-.3-.2s-.1-.4-.1-.6l.6-.4"/><path d="M280.4,96.6c0,.3-.1.5-.4.5a.4.4,0,0,1-.4-.4h0a10.4,10.4,0,0,1,.1-1.6,5.1,5.1,0,0,1,1.4-2.5l1.1-.8h.9l.6.4a.8.8,0,0,1,.2.5,1.6,1.6,0,0,1-.1,1l-.6.8-.6.5a.6.6,0,0,0-.1.8,1.4,1.4,0,0,0,1,.8.4.4,0,0,1,.3.5.5.5,0,0,1-.5.3,2.7,2.7,0,0,1-1.6-1.3,1.5,1.5,0,0,1,.3-1.6c.2-.3.5-.4.6-.6s.4-.4.4-.5a1.1,1.1,0,0,0,.1-.5v-.2c0-.1,0-.1-.1-.1h-.4l-.8.6a5.1,5.1,0,0,0-1.2,2c-.1.6,0,1.2-.1,1.6h0m.2-2.5a.4.4,0,0,1,.4-.4.4.4,0,0,1,.4.4c0,.5-.3.8-.5,1.3l-.3.6a1.3,1.3,0,0,0-.1.6.1.1,0,0,0-.1.1h0c0,.2-.3.3-.5.2s-.3-.2-.3-.5h0v-.2a2,2,0,0,1,.1-.7l.3-.7.5-.9"/><path d="M286.3,96.8a.5.5,0,0,1,.1-.9l1.4.3c.1.1.3.2.4.4a.7.7,0,0,1,.1.5c0,.1-.1.3-.2.3l-.2.3-.5.2-.6.3h.1v.4l.5,1a1.1,1.1,0,0,1-.1,1,1.6,1.6,0,0,1-.7.7,2.8,2.8,0,0,1-2-.1c-.2-.1-.4-.3-.3-.5a.6.6,0,0,1,.6-.3,1.4,1.4,0,0,0,1.4.1l.3-.2v-.4c-.1-.3-.3-.7-.4-1.1a.8.8,0,0,1-.2-.6.9.9,0,0,1,.3-.6l.6-.4.5-.2h0c-.2-.2-.7-.2-1.1-.2"/><path d="M133,119.6a.4.4,0,0,1,.5-.3c.2,0,.3.2.3.4s-.2,1.7-.4,3.2-.2,1.6-.3,2.2a1.5,1.5,0,0,1-.1.7c0,.1,0,.1-.1.2s0,.2-.2.2a.4.4,0,0,1-.5-.1,1.2,1.2,0,0,1-.2-.8v-1.1a20.9,20.9,0,0,1,0-2.5,3.4,3.4,0,0,1,.6-1.6,1.5,1.5,0,0,1,1.1-.8,1.5,1.5,0,0,1,1.1.2,2.7,2.7,0,0,1,.8.7,2.8,2.8,0,0,1,.4,2,3.2,3.2,0,0,1-.7,1.3.3.3,0,0,0-.1.2,1.6,1.6,0,0,0,.5,1,3,3,0,0,0,1.3.9c.2,0,.3.2.3.5a.4.4,0,0,1-.5.2,2.7,2.7,0,0,1-1.7-1,2.8,2.8,0,0,1-.7-1.6,1.4,1.4,0,0,1,.2-.6,6,6,0,0,0,.6-1.1,1.9,1.9,0,0,0-.2-1.3l-.6-.5h-.5c-.3,0-.5.2-.7.5a2.3,2.3,0,0,0-.4,1.1,20.9,20.9,0,0,0,0,2.5v1.4h0s-.1-.1,0-.1h-.2c.1.1-.3.1-.2.1h-.2c0-.2.1-.4.1-.6s.2-1.4.3-2.2l.3-2c0-.6.1-1,.1-1.2"/><path d="M138.6,127.5c-.1.2-.4.2-.6.1s-.2-.4-.1-.6a10.8,10.8,0,0,1,1.5-1.4,2.7,2.7,0,0,1,1-.6,1.1,1.1,0,0,1,.8.1,2.1,2.1,0,0,1,.4.6,3.4,3.4,0,0,1-.1,1.4,3.7,3.7,0,0,0-.1.8.7.7,0,0,1-.4.5.4.4,0,0,1-.4-.4,2.1,2.1,0,0,1,.1-1.1,4.1,4.1,0,0,0,.1-1h-.2l-.7.4-1.3,1.3"/><path d="M209.5,119.7a.5.5,0,0,1,.5,0,.5.5,0,0,1,.1.6,11.6,11.6,0,0,0-.8,2.6c-.2.7-.3,1.3-.4,1.8s-.1.5-.2.7v.2l-.2.2a.5.5,0,0,1-.5,0c-.1,0-.1-.1-.1-.2s-.1-.8-.1-1.2a17.1,17.1,0,0,1,.5-3,4.2,4.2,0,0,1,.9-1.9,1.3,1.3,0,0,1,.9-.5,1.8,1.8,0,0,1,1.3.8,1.2,1.2,0,0,1,.1,1,3.2,3.2,0,0,1-.3.9l-.5,1.1a1.2,1.2,0,0,0,.3,1.2,5.2,5.2,0,0,0,1.5.7c.2,0,.3.3.2.5s-.2.3-.5.3a4,4,0,0,1-1.7-.9,2,2,0,0,1-.6-2,6.1,6.1,0,0,1,.5-1.2,1.6,1.6,0,0,0,.3-.8q.2-.3,0-.3a1.2,1.2,0,0,0-.6-.5l-.3.2a4.8,4.8,0,0,0-.8,1.6c-.2.9-.3,2-.4,2.8v.8h0s-.1-.1,0-.1h-.1c0,.1-.3,0-.2,0h-.2s-.2.1-.1.1h-.1a6.4,6.4,0,0,0,.2-.7,13.6,13.6,0,0,1,.4-1.7c.1-.7.3-1.3.4-1.8a3.9,3.9,0,0,1,.6-1.3"/><path d="M215.5,124.1c-.2.2-.4.1-.6,0s-.1-.5.1-.6a1.6,1.6,0,0,1,.9-.3,1.1,1.1,0,0,1,.8.3,1,1,0,0,1,.2.9c0,.8-.8,1.2-1.3,1.8l-.5.7h.2a5.9,5.9,0,0,1,2.3.3c.2,0,.3.3.2.5a.4.4,0,0,1-.5.2,2.5,2.5,0,0,0-1.2-.2,2,2,0,0,1-1.1,0c-.3-.1-.4-.3-.6-.5a.8.8,0,0,1,0-.8,2.4,2.4,0,0,1,.6-.9c.5-.6,1.1-1.1,1.1-1.3v-.2h-.6"/><path d="M277.3,125.5a.5.5,0,0,1-.3.5.5.5,0,0,1-.5-.4h0v-1c.1-.7.1-1.6.3-2.5a8.6,8.6,0,0,1,1.2-2.7,1.4,1.4,0,0,1,.9-.5,1.5,1.5,0,0,1,.9.2.9.9,0,0,1,.1,1.6l-.6.7a2.4,2.4,0,0,0-.6,1.1,1.1,1.1,0,0,0,.3,1.2,2.2,2.2,0,0,0,1.3.8.7.7,0,0,1,.3.6.5.5,0,0,1-.6.2,4.7,4.7,0,0,1-1.6-1,1.8,1.8,0,0,1-.5-2,3.1,3.1,0,0,1,.8-1.5l.6-.6c.1-.2.2-.2.2-.3h-.2c0-.1-.2-.1-.3-.1l-.3.2a6.7,6.7,0,0,0-1.1,2.4l-.3,2.4v.9h0m.5-5.8a.4.4,0,0,1,.4-.4c.3,0,.4.3.4.5s-.2.6-.3,1.2-.4,1.2-.6,1.9-.3,1.5-.4,2v.6h0a.4.4,0,0,1-.4.4.5.5,0,0,1-.4-.5h0v-.7c.1-.6.2-1.3.4-2.1s.9-2.8.9-3"/><path d="M284,124.6c-.1.2-.4.2-.6.1a.6.6,0,0,1-.1-.6l.8-.4.7.2a.7.7,0,0,1,.4.6v.6a.7.7,0,0,1-.4.6l-.4.3-.3.4h.1l.2.3a1.6,1.6,0,0,1,.5.8,1.3,1.3,0,0,1-.1.9,2.7,2.7,0,0,1-.7.8,2.2,2.2,0,0,1-2.1.3c-.2,0-.3-.3-.3-.5a.5.5,0,0,1,.6-.2,1.5,1.5,0,0,0,1.3-.3l.4-.4a.8.8,0,0,0,.1-.4c0-.2-.1-.3-.3-.5l-.3-.3a1.1,1.1,0,0,1-.1-.8,1.5,1.5,0,0,1,.5-.7l.4-.4h.1v-.3H284"/><path d="M.7,106.8a.4.4,0,0,1,0,.8l-.6-.2a1.3,1.3,0,0,1-.1-.6,2.1,2.1,0,0,1,.4-1,22.2,22.2,0,0,1,2.1-2.7,35.6,35.6,0,0,1,3.1-2.8,4.6,4.6,0,0,1,1-.7h.7l.3.2a1.8,1.8,0,0,1,.2,1,5,5,0,0,0-.2,1.2,19.9,19.9,0,0,1-.8,2.3,1.8,1.8,0,0,0-.1.5h0a.4.4,0,0,1,.4.4c0,.3-.1.4-.4.5l-.5-.2c-.2-.1-.3-.2-.3-.4a1.8,1.8,0,0,1,.1-1c.2-.6.6-1.4.8-2.2s.1-.7.1-1a1.1,1.1,0,0,0,0-.6h0l-.8.5a34.7,34.7,0,0,0-3,2.7l-2,2.6a1.7,1.7,0,0,0-.3.7h0c0,.1-.1,0-.1,0h0"/><path d="M10.2,101c-.1.2-.3.4-.5.3a.3.3,0,0,1-.3-.5,1.8,1.8,0,0,1,.5-.7l.8-.4a1.2,1.2,0,0,1,1,0c.3,0,.5.3.6.5a2.2,2.2,0,0,1,.1.8,2.1,2.1,0,0,1-.7,1.1l-.4.3-.5.4c-.1.1,0-.2,0-.1h.1c.1.1.2.3.4.4a2.5,2.5,0,0,1,.7,2.3,1.2,1.2,0,0,1-.4.8,1.1,1.1,0,0,1-.8.2,1,1,0,0,1-.9-.4,2.3,2.3,0,0,1-.7-1.1.4.4,0,0,1,.2-.5c.2-.1.5,0,.5.2l.5.8.4.2h.3a.4.4,0,0,0,.1-.3,1.8,1.8,0,0,0-.5-1.5l-.5-.5c0-.1-.1-.2-.1-.3a.5.5,0,0,1,0-.5c.2-.3.5-.4.6-.6l.4-.3a1.2,1.2,0,0,0,.5-.6.6.6,0,0,0-.1-.4H11l-.6.3-.2.2"/><path d="M12.9,105.9a.4.4,0,0,1,.5-.2.3.3,0,0,1,.3.5c-.2.7-.5,1.1-.4,1.6a.5.5,0,0,1-.3.5c-.2,0-.5-.1-.5-.3a3.5,3.5,0,0,1,.4-2.1"/><path d="M18,100.5a.5.5,0,0,1,.1.6.4.4,0,0,1-.6,0h-.1l-.2.2h0l.2.3.6.8a3.6,3.6,0,0,1,.2,1.1,1.5,1.5,0,0,1-1,1.4.9.9,0,0,1-.9.1,1.6,1.6,0,0,1-.8-.6c-.1-.2-.1-.5.1-.6s.5-.1.6.1l.3.3h.4a1.1,1.1,0,0,0,.5-.8,1.4,1.4,0,0,0-.2-.6l-.5-.8a.8.8,0,0,1-.2-.4.6.6,0,0,1,0-.6,1.3,1.3,0,0,1,.6-.7,1,1,0,0,1,.9.2"/><path d="M16.6,101.3a.3.3,0,0,1-.5-.3c-.1-.2.1-.4.3-.5l4.9-.4a.7.7,0,0,1,.5.4.4.4,0,0,1-.4.4l-4.8.4"/><path d="M22.4,99.3a.3.3,0,0,1,.3-.5.5.5,0,0,1,.5.4v.2a6.8,6.8,0,0,0-.3,1.2l-.3,2c-.1.8-.1,1.6-.2,2.3v1.3c0,.2.1.3.1.4h-.3l.2-.3a2.2,2.2,0,0,0,.5-.8c.8-1.1,1.5-2.4,2.3-3.6l1-1.4a2.1,2.1,0,0,1,1.1-.8.5.5,0,0,1,.5.4.4.4,0,0,1-.4.4l-.6.5a5.6,5.6,0,0,0-.9,1.4c-.8,1.1-1.5,2.4-2.3,3.6a5.6,5.6,0,0,0-.5.8,1.7,1.7,0,0,1-.8.6l-.4-.2c-.1-.1-.2-.2-.2-.3a1.1,1.1,0,0,1-.1-.6v-1.3a10.6,10.6,0,0,1,.2-2.4l.3-2.3a2.5,2.5,0,0,0,.2-.7.4.4,0,0,1,.1-.3h0"/><path class="cls-13" d="M115.1,3.1a.4.4,0,0,1-.5-.2c-.2-.2-.1-.4.1-.5a3.8,3.8,0,0,1,1.8-.3h.9a1.1,1.1,0,0,1,.7.3.9.9,0,0,1,.1.7c-.1.1-.1.3-.2.4s-2.6,1.9-3.7,2.7-.7.5-.7.6h0c.2.1,1.4-.1,2.6-.1a.4.4,0,0,1,.4.4.4.4,0,0,1-.4.4h-1.6a2.2,2.2,0,0,1-1.4,0,1,1,0,0,1-.4-.5.6.6,0,0,1,.1-.7,3.8,3.8,0,0,1,.9-.9c1.2-.9,3.1-1.7,3.5-2.4a.3.3,0,0,1,.1-.2h-.2c-.1-.1-.4,0-.7,0a2.1,2.1,0,0,0-1.4.1"/><path class="cls-13" d="M120.4,6.6a.4.4,0,0,1-.6.2.4.4,0,0,1-.2-.5,1.9,1.9,0,0,1,.8-1l1.5-1.2,1.4-1,.8-.4.4-.2h.5l.3.3v.3a1.1,1.1,0,0,1-.1.5,4.2,4.2,0,0,1-.4,1,14.5,14.5,0,0,1-1,1.8.9.9,0,0,0-.3.5h0s-.1-.2-.1-.1a.4.4,0,0,1,.2.5c-.2.2-.4.3-.6.2l-.3-.4V6.7l.4-.7c.3-.5.7-1,1-1.6a9.4,9.4,0,0,1,.3-.9V3.2h0s.2.1.1.1h-.1l-.8.4-1.3,1a7.4,7.4,0,0,0-2,1.8"/><path class="cls-13" d="M128.9,3.1a.3.3,0,0,1-.5-.1c-.2-.2-.1-.4.1-.6a3.9,3.9,0,0,1,2.6-.6c.4.1.9.2,1.1.7a1.4,1.4,0,0,1,0,.9,3.5,3.5,0,0,1-.5.8l-1.3,1.7a3.7,3.7,0,0,0-.8,1.5,2.9,2.9,0,0,0-.2.9v.2h-.4c.1,0-.2.1-.1,0h-.2c.1,0,0,.1,0,.1a.3.3,0,0,1,.5-.1.4.4,0,0,1,.1.6h-.2c-.2.1-.4,0-.4-.1a.3.3,0,0,1-.1-.2.8.8,0,0,1-.1-.4,5.2,5.2,0,0,1,.2-1.1,7.6,7.6,0,0,1,.9-1.8A7,7,0,0,0,131,3.7l.4-.6V2.9l-.6-.3a2.9,2.9,0,0,0-2,.5"/><path class="cls-13" d="M128.6,7.4a.5.5,0,0,1,.3.5c-.1.2-.3.4-.5.3a1.9,1.9,0,0,1-1-.5c-.1-.2-.3-.4-.2-.7a.4.4,0,0,1,.2-.4l.3-.2h.9a5.7,5.7,0,0,1,2.4.5.5.5,0,0,1,.3.5.5.5,0,0,1-.6.2,5.9,5.9,0,0,0-2.1-.4h-.7s.1-.1,0-.1.1-.1.1,0h.1c0,.1.2.2.5.2"/><path class="cls-13" d="M138,4.3a.4.4,0,1,1,.6.6,7.7,7.7,0,0,0-.9,1.3,1.7,1.7,0,0,0-.2.5.5.5,0,0,0-.1.3h-.1c0,.1-.2,0-.1,0h0c0-.1.2-.2.3-.3a5.7,5.7,0,0,1,1.1-1.1,1,1,0,0,1,.5-.4l.6-.3h.7a.4.4,0,0,1,.2.4v1c0,.1-.1.1,0,.1h-.2s-.2-.1-.1-.1h0l.4-.2a4.7,4.7,0,0,1,1.6-.4.8.8,0,0,1,.8.3,2.4,2.4,0,0,1,.2.8,5,5,0,0,1-.1,1.7.4.4,0,0,1-.5.2.3.3,0,0,1-.3-.5,2.9,2.9,0,0,0,.1-1.3c0-.2-.1-.3-.1-.4h0a3.7,3.7,0,0,0-1.4.4l-.4.2h-.4c-.1,0-.3,0-.3-.2a.9.9,0,0,1-.1-1V5.3h0c0-.1.2.1.1.1h-.4l-.4.3-1,1.1c-.1.1-.2.3-.4.4a.6.6,0,0,1-.5.3l-.5-.2c-.1-.1-.1-.2-.1-.4a1.3,1.3,0,0,1,.1-.6l.3-.5a5.9,5.9,0,0,1,1-1.6"/><path class="cls-13" d="M151.6,7.1a.4.4,0,1,1-.7.3h0c-.1-.2-.1-.6-.2-.9l-.5-.5a.9.9,0,0,1-.6-.5.6.6,0,0,1,.1-.6h.9l2,.3c.2,0,.3.3.3.5a.5.5,0,0,1-.5.3l-1.7-.3h-.4s.1-.3.1-.2V5h0l.4.3a1.1,1.1,0,0,1,.7.8c.2.4.2.9.3,1h-.1m-3.3.5a.5.5,0,0,1-.6.2c-.2-.1-.2-.4-.1-.6l.9-1.4L151,2.3,152.4.6l.6-.5h.6a.5.5,0,0,1,.1.3.1.1,0,0,1,0,.2,4.3,4.3,0,0,1-.5,1.2,20,20,0,0,0-1,2.1,4.6,4.6,0,0,0-.5,2.1,2.1,2.1,0,0,0,0,.8v.4h0a.4.4,0,0,1-.5.2.3.3,0,0,1-.3-.5h0V6.8a1.4,1.4,0,0,1,0-.9,5.6,5.6,0,0,1,.5-2.3l1-2.1.5-1h.1c-.1-.1.1.2,0,.1h.4a1.2,1.2,0,0,0-.4.4,12.2,12.2,0,0,0-1.4,1.6l-2.4,3.4-.9,1.4"/><path class="cls-13" d="M114.3,23.7a.4.4,0,0,1-.1.6c-.2.1-.4.1-.5-.1h-.1a4.6,4.6,0,0,1-.2-1.4,14.7,14.7,0,0,1,0-2.1v-.8a1.1,1.1,0,0,1,.1-.5.7.7,0,0,1,1.1-.1l.3.3,1,.7,1.3,1.1a2.3,2.3,0,0,0,1.1.5c.2,0,.3.2.3.5a.5.5,0,0,1-.5.3,3.7,3.7,0,0,1-1.4-.6l-1.3-1.1-1-.8-.3-.3h.1v2.9a5.5,5.5,0,0,0,.2,1.2h-.1m-.6-3.1a.4.4,0,0,1,.8,0c0,.2-.1,1-.1,1.7V24h0a.4.4,0,0,1-.5.2.3.3,0,0,1-.3-.5h0V22.3c0-.8.1-1.6.1-1.7"/><path class="cls-13" d="M114,24.7c-.2.2-.4.1-.6-.1s0-.4.2-.6,2.7-1.1,4.2-1.9a.4.4,0,0,1,.4.8c-1.6.8-2.9,1-4.2,1.8"/><path class="cls-13" d="M115,23.7c-.2.1-.4.1-.5-.1a.4.4,0,0,1,.1-.6c.1,0-.1.1-.1.1h0a.3.3,0,0,0,.1-.2.8.8,0,0,0,.2-.5c0-.2.1-.3.1-.5h0a.4.4,0,0,1,.3-.5c.2-.1.4.1.5.3s-.1.7-.1.9a.4.4,0,0,0,.1.3h0l.3-.2a.6.6,0,0,1,.6.1c.1.2.1.5-.1.6l-.6.3h-.7a1.2,1.2,0,0,1-.4-1v-.7h0l.8-.2V22c0,.2-.1.4-.1.6l-.3.7v.2H115m-.7-2.5c.1-.2.4-.2.6-.1s.2.3.1.5h.1c-.1,0,0,.3,0,.7a2,2,0,0,0,.1.9c.1.1,0,.4-.2.5s-.4.1-.5-.1a1.9,1.9,0,0,1-.3-1.3v-.5a1.5,1.5,0,0,1,.1-.6m.8,2.2c0,.3-.2.4-.5.4s-.3-.3-.3-.5V21.5h0c-.1-.2,0-.5.2-.5a.5.5,0,0,1,.6.2h0v2m.2-2.4a.5.5,0,0,1-.3.6.5.5,0,0,1-.5-.3h.6s.1-.1,0-.1h0v2h0c0,.2-.1.5-.3.5s-.5-.1-.5-.4h0V21c0-.1,0-.2.2-.3h.6c0,.1,0,.2.1.2"/><path class="cls-13" d="M137.6,59.9c.2-.1.4,0,.5.3a.4.4,0,0,1-.2.5h.1c-.1.1.1-.1,0-.1s.1-.2.1-.1-.1-.3,0-.2-.2-.2-.1-.2-.1,0-.1,0h1.2a1.4,1.4,0,0,1,1.5.8,1.7,1.7,0,0,1-.1,1.4,5.1,5.1,0,0,1-.9,1.3,18.4,18.4,0,0,1-1.4,1.4q-.3.1-.3.3c-.1,0,0-.1,0-.1h0l.2.2c.3.2,1.2.2,2.1.6a.4.4,0,1,1-.3.7c-.7-.2-1.7-.1-2.3-.7a1.2,1.2,0,0,1-.5-.5.8.8,0,0,1,.1-.8l.4-.4a16.6,16.6,0,0,0,1.4-1.3,3.7,3.7,0,0,0,.7-1.2c.2-.3.2-.6.1-.7s-.3-.3-.7-.3h-1.5c-.1,0-.2,0-.3-.2s.1-.4.1-.5h.2"/><path class="cls-13" d="M146,60.7a.4.4,0,0,1,.2-.5.5.5,0,0,1,.6.2c.1.2,0,.2,0,.2h0a.3.3,0,0,0-.1.2c-.1.2-.1.4-.2.5a8.5,8.5,0,0,0-.4,1.7,5.6,5.6,0,0,1,0,1.3.5.5,0,0,1-.1.5.8.8,0,0,1-.7.5h-.9a1.9,1.9,0,0,1-1.5-.9.4.4,0,1,1,.8-.4c0,.2.4.4.9.5h.7c.1,0,0,.1,0,.1v-.3a5.6,5.6,0,0,1,0-1.3,12.9,12.9,0,0,1,.4-1.9.8.8,0,0,0,.2-.4.3.3,0,0,1,.1-.2h0m.6-.4a.5.5,0,0,1,.2.6.4.4,0,0,1-.5.2,3.1,3.1,0,0,0-1.4-.1h.1a.9.9,0,0,0,.6-.3l.3-.2h.2c.1,0,.2-.1.4,0s.3.2.3.5a.4.4,0,0,1-.5.2c-.1,0,.1.1.1.1s.1-.1.1-.1h0a.1.1,0,0,1-.1.1l-.4.3a1.5,1.5,0,0,1-.8.3h-1a.4.4,0,0,1-.4-.2c-.2-.1-.2-.4-.2-.6a1,1,0,0,1,.4-.5c.2-.2.5-.2.9-.3a4.7,4.7,0,0,1,1.7.2"/><path class="cls-13" d="M149.6,62.3a.5.5,0,0,1,.5-.3.5.5,0,0,1,.2.6,9.3,9.3,0,0,0-.5,1,.8.8,0,0,1-.1.4v.4h0c.2,0,.3-.2.4-.4l.9-1.1.5-.4h.7a.5.5,0,0,1,.3.5,1.6,1.6,0,0,1,0,.7.4.4,0,0,0-.1.3h0c.1.1-.1-.1-.1,0h.6a1.3,1.3,0,0,1,1.2.2.7.7,0,0,1,.3.7V65c0,.3-.1.5-.3.5a.3.3,0,0,1-.5-.3c-.1-.2,0-.5-.1-.6v-.2c0-.1.1,0,0,0a.5.5,0,0,0-.4,0h-.9l-.4-.2a1.3,1.3,0,0,1-.2-1,1.1,1.1,0,0,0,.1-.5h.3l-.4.3-.8,1.1a1.2,1.2,0,0,0-.5.5c-.2.1-.4.3-.7.2h-.4l-.3-.4v-.7a1.4,1.4,0,0,1,.2-.6,3.1,3.1,0,0,1,.5-1"/><path class="cls-13" d="M157.9,64.4a.4.4,0,0,1-.5.2.5.5,0,0,1-.2-.6l1.9-2.9,1-1.3.2-.2a.5.5,0,0,1,.5,0,.3.3,0,0,1,.3.3.6.6,0,0,1,.1.4,8.4,8.4,0,0,1-.6,1.4,13.8,13.8,0,0,0-.6,2.6v1.3h0c.1.2.1.5-.1.6a.5.5,0,0,1-.6-.1c-.1-.3-.1-.5-.2-.8s.1-.7.1-1.1a9.6,9.6,0,0,1,.7-2.8,5.4,5.4,0,0,0,.4-1.2c0-.1.1,0,.1,0s0,.1,0,0h.3a7.4,7.4,0,0,0-.9,1.2l-1.9,2.8"/><path class="cls-13" d="M159.7,65a.5.5,0,0,1-.2.6.4.4,0,0,1-.5-.2,9.3,9.3,0,0,1-.5-1c-.1-.3-.3-.5-.2-.9a.5.5,0,0,1,.5-.3.3.3,0,0,1,.4,0,4.1,4.1,0,0,1,1.6.4c.2,0,.3.3.2.5s-.3.3-.5.2l-1.4-.3a.1.1,0,0,0-.2,0h.2a.5.5,0,0,0,.1.3,9.3,9.3,0,0,1,.5,1"/><path class="cls-13" d="M208.8,65.3c-.1-.3.1-.5.4-.5a.4.4,0,0,1,.4.4c0,.1-.1-.1,0-.1s-.2-.2-.2-.1-.2-.1-.1-.1H209l.5-.6,1.4-1.9,1.8-1.9.7-.5h.4l.5.2c.2.3.1.6.1.9s-.1.6-.2.8a1.8,1.8,0,0,0-.1.6h-.2c.2-.1.5,0,.5.2s0,.5-.2.5h-.6a.7.7,0,0,1-.3-.5,1.9,1.9,0,0,1,.1-.8c.1-.3.1-.6.2-.8v-.3h0s.1.1,0,.1.2.1.1.1h.1l-.5.4a14.9,14.9,0,0,0-1.7,1.8l-1.5,1.9c-.2.3-.3.5-.5.6l-.2.2c-.1.1-.2.2-.4,0a.4.4,0,0,1-.2-.3"/><path class="cls-13" d="M219.2,57.7a.4.4,0,0,1,.4-.4c.2-.1.4.1.4.3s0,.2,0,.3h-.1l-.3.4a24.3,24.3,0,0,0-1.9,2.9,9.3,9.3,0,0,0-.4,1.3.4.4,0,0,0,.1.3h.6c.2-.2.5-.4.6-.6h0c0,.1-.2.2-.3.3a.4.4,0,0,1-.6.1c-.2-.1-.2-.4,0-.6l.6-.5a.9.9,0,0,1,.7,0,.7.7,0,0,1,.4.5.8.8,0,0,1-.1.7l-.9.8a1.9,1.9,0,0,1-1.3.2,1,1,0,0,1-.5-.6,1.7,1.7,0,0,1-.1-.7,5.8,5.8,0,0,1,.5-1.6,26,26,0,0,1,2-3c.1-.2.2-.3.2-.4h0s.1.2,0,.1h0m.6.3c-.2.1-.4.1-.5-.2s-.1-.4.1-.5h.3c.2,0,.4.2.3.4a.4.4,0,0,1-.4.4c-.1,0,.2-.1.2,0s0-.1,0-.1"/><path class="cls-13" d="M224.4,59.1c.1.2-.1.4-.3.5a.5.5,0,0,1-.5-.3s.2.1.1.1h-.1l-.7.5-.3.6V61a2,2,0,0,1,.5.5,1.2,1.2,0,0,1,.2,1,3.5,3.5,0,0,1-.5.8,2.6,2.6,0,0,1-2.2.5c-.2,0-.3-.2-.2-.5s.2-.3.4-.3a1.3,1.3,0,0,0,1.4-.3l.3-.5V62a1.4,1.4,0,0,1-.7-.9v-.8a4.1,4.1,0,0,1,.5-.9,2.3,2.3,0,0,1,1-.7.6.6,0,0,1,.6-.1c.2,0,.4.2.5.5"/><path class="cls-13" d="M222.8,59.5a.5.5,0,0,1-.5-.3.4.4,0,0,1,.2-.5,7.4,7.4,0,0,1,1.9-.5,12.4,12.4,0,0,1,2.8-.1c.3,0,.4.3.4.5a.3.3,0,0,1-.5.3,10.6,10.6,0,0,0-2.6.1,6.9,6.9,0,0,0-1.7.5"/><path class="cls-13" d="M226.8,60.3a.5.5,0,0,1,.6-.1.5.5,0,0,1,.1.6,3.3,3.3,0,0,0-.7,1.3,2.1,2.1,0,0,0-.1.6c.1.1-.1-.2-.1-.1s-.1-.1,0-.1h.1l.8-.5.6-.4.6-.6.7-.4c.2-.1.4,0,.4.1h.1a.3.3,0,0,1,.1.2V62a.1.1,0,0,0-.1.1h0l-.2-.2h.4l.5-.2a1.1,1.1,0,0,1,1.1.1c.2.2.2.4.3.6a.6.6,0,0,1-.1.4V63c.2.2.1.4-.1.6s-.4,0-.6-.2a1.7,1.7,0,0,1-.1-1v-.3h-.2l-.5.3h-1q-.2,0-.3-.3a2.2,2.2,0,0,1,.1-.6v-.4h0s.1.1,0,.1h.2c-.1-.1.3,0,.2,0l-.4.3-.6.5-.6.5-1,.6c-.1,0-.3.1-.5,0h-.3c-.1-.1-.2-.2-.2-.3a1.2,1.2,0,0,1,0-1,3.8,3.8,0,0,1,.8-1.7"/><path class="cls-13" d="M237.6,64.3a.4.4,0,0,1-.4.4.4.4,0,0,1-.4-.4v-.2a3.1,3.1,0,0,0-.1-.9c0-.1-.2-.3-.3-.5l-.3-.2c-.1-.1-.2-.3-.1-.4a.4.4,0,0,1,.1-.3l.3-.2a2.7,2.7,0,0,1,2.1.2.4.4,0,0,1,.2.5.4.4,0,0,1-.6.2,2.7,2.7,0,0,0-1.4-.2h0s.1-.2.1-.1-.1-.2,0-.1v-.2c0,.1.1.1.2.3a1.6,1.6,0,0,1,.6.9,4.1,4.1,0,0,1,.1,1v.2m-3,0a.3.3,0,0,1-.5.1.5.5,0,0,1-.2-.6l2.3-3.1,1.1-1.6c.1-.1.2-.2.2-.3h.4c.3,0,.4.1.4.2a.3.3,0,0,1,.1.2v.4a2.5,2.5,0,0,1-.1.8,7.6,7.6,0,0,1-.6,1.8,10.3,10.3,0,0,0-.1,1.7v.5h0a.4.4,0,0,1-.8,0h0v-.6a4.1,4.1,0,0,1,.2-1.8c.1-.6.4-1.2.5-1.7a2,2,0,0,0,.1-.7v-.2h.5l-.2.2-1.1,1.6-2.2,3.1"/><path class="cls-13" d="M286.2,60.9c-.2,0-.4-.2-.3-.4a.4.4,0,0,1,.4-.4,6.5,6.5,0,0,0,1.4,0,2.1,2.1,0,0,1,.8,0l.3.2c0,.1.1.2.1.3v.5a1.7,1.7,0,0,1-.6.8l-.9.5a10.8,10.8,0,0,0-1.5,1.3,1.4,1.4,0,0,0-.2.6h.5l2,.2c.2,0,.3.2.3.4a.4.4,0,0,1-.4.4h-2l-.7-.2a.8.8,0,0,1-.5-.7,1.7,1.7,0,0,1,.4-1.1,7.3,7.3,0,0,1,1.6-1.4c.3-.3.7-.4.9-.6l.3-.2h-.4a7.4,7.4,0,0,1-1.5,0"/><path class="cls-13" d="M292.8,60a.5.5,0,0,1,.6-.2c.2.1.3.3.1.5h0c0,.1-.1.1-.2.3a12.5,12.5,0,0,0-.8,1.2,1.1,1.1,0,0,0-.1.5h.1l.7-.3a.6.6,0,0,1,.6.1c.1.2.1.5-.1.6a3,3,0,0,1-1.1.4.8.8,0,0,1-.8-.2,1.1,1.1,0,0,1-.3-.8,1.9,1.9,0,0,1,.2-.7,5.6,5.6,0,0,1,1-1.4.4.4,0,0,1,.1-.3h0m.6.5a.5.5,0,0,1-.6.1c-.2-.2-.2-.5,0-.6a.1.1,0,0,1,.1-.1h0c.2-.1.5-.1.6.1a.5.5,0,0,1-.1.6h0"/><path class="cls-13" d="M295.3,61.3a.4.4,0,0,1,.4-.4.4.4,0,0,1,.4.4,3.1,3.1,0,0,1-.5,1.2l-.9,1.2c-.2.4-.5.8-.6,1.1s-.1.3-.1.4.1.1.1.2a.6.6,0,0,1,0,.6c-.2.1-.5.1-.6-.1a.9.9,0,0,1-.3-.6c0-.3.1-.5.1-.7a10,10,0,0,1,.8-1.4l1.2-1.9"/><path class="cls-13" d="M299,62.9a.5.5,0,0,1,.6-.3.4.4,0,0,1,.2.5c-.1.5-.5.7-.7,1s-.2.2-.2.3h0s-.1-.1,0-.1h.2l.6-.4,1.2-.8.6-.3h.3c.1,0,.3-.1.5,0s.2.3.2.4,0,.1-.1.1h0c0,.1,0,.2-.1.2a.5.5,0,0,1-.2.4h0c0,.1-.1,0-.1,0h.1l.4-.2,1-.4h.6a1,1,0,0,1,.7.2.7.7,0,0,1,.2.6,1.3,1.3,0,0,0-.1.6,2.8,2.8,0,0,0-.1.8.3.3,0,0,1-.3.5.4.4,0,0,1-.5-.2,2.8,2.8,0,0,1,.1-1.3v-.4h-.3l-1,.4a1.6,1.6,0,0,1-1,.2.8.8,0,0,1-.5-.5,1.7,1.7,0,0,1,.1-.7c0-.1.1-.2.2-.4a.1.1,0,0,1,.1-.1h0s-.1.2-.1.1.1.2.1.1.1.2,0,.1h.1s.2.1.1.1h-.1l-.5.2-1.1.8-.7.4a1,1,0,0,1-.9.2.4.4,0,0,1-.4-.4,1.3,1.3,0,0,1-.1-.6l.4-.6c.3-.3.5-.5.5-.6"/><path class="cls-13" d="M309.5,63.5c-.2,0-.4-.1-.4-.3a.3.3,0,0,1,.3-.5h.1a15.2,15.2,0,0,0,3.3-.3.4.4,0,0,1,.5.2c0,.3-.1.5-.3.5a13.5,13.5,0,0,1-3.5.4h0m-1.1,1.6a.3.3,0,0,1-.5,0,.4.4,0,0,1,0-.6l3-2.9a9.2,9.2,0,0,0,1.4-1.4l.5-.3c.1-.1.1-.2.4-.1a.3.3,0,0,1,.3.3c.1.1.1.2,0,.2a7.1,7.1,0,0,1-.9,1.7,13.6,13.6,0,0,0-1,2.1,3.1,3.1,0,0,0-.2.8,2.5,2.5,0,0,0-.1.8v.2h0c0,.1-.1-.1-.1,0l-.7.4c-.1-.2,0-.2,0-.3h0l.2-.3a1.4,1.4,0,0,1,.2-.6v-.5c0-.2-.4-.5-.8-.8h-.7c-.3-.1-.4-.3-.3-.5s.3-.3.5-.3h.9c.4.3,1.1.7,1.2,1.3a2.1,2.1,0,0,1,0,.8l-.3.8a.4.4,0,0,1-.1.3h0s-.1-.2-.1-.1.1.4-.1.5-.4.1-.6-.1a.9.9,0,0,1,0-.7,2.5,2.5,0,0,1,.1-.8,3.6,3.6,0,0,1,.2-1,24,24,0,0,1,1.1-2.3,5.5,5.5,0,0,0,.8-1.4h0c0-.1.1.1,0,.1h.1l.3.2h.2l-.4.3a18.4,18.4,0,0,1-1.4,1.4l-3.1,2.9"/><path d="M190.4,164.1c.2.1.2.3.1.5a.4.4,0,0,1-.5.2,2.1,2.1,0,0,0-1.5.2.8.8,0,0,0-.2.6.9.9,0,0,0,.4.5h.3l.4-.2a1.3,1.3,0,0,0,0-1h-.7a.7.7,0,0,0-.4.6c-.1.2,0,.4,0,.5h.1a.8.8,0,0,0,.7-.2,1,1,0,0,0,.5-.6,1.3,1.3,0,0,0,.1-.5h-.5l-1,.2c-.2,0-.3.2-.4.3s-.2.3-.2.3a.4.4,0,0,0,.1.3h.4l.8-.5a.7.7,0,0,0,.3-.3h-.1c-.1,0,0,0,0,.1h-.2l-.3.4c-.1.1,0,.1,0,.1h-.1a2.4,2.4,0,0,0,1.1-.1.4.4,0,0,1,.2.8,2.1,2.1,0,0,1-1.6,0,.7.7,0,0,1-.4-.5.6.6,0,0,1,0-.6,1.6,1.6,0,0,1,.6-.8l.5-.2a.6.6,0,0,1,.6,0l.4.4c.1.1.1.3.1.6a1,1,0,0,1-.5.8,2.9,2.9,0,0,1-1.2.7h-.6a.9.9,0,0,1-.7-.3,1,1,0,0,1-.2-.9,1.5,1.5,0,0,1,.3-.7,2.4,2.4,0,0,1,.8-.6,3.6,3.6,0,0,1,1.4-.2l.7.2a1,1,0,0,1,.5.6,1.7,1.7,0,0,1-.1,1c-.2.3-.4.8-.8,1a1.9,1.9,0,0,1-1.2.3h-.5a.7.7,0,0,1-.4-.5,1.4,1.4,0,0,1,0-.9,1.3,1.3,0,0,1,1-1.1,1.1,1.1,0,0,1,.8-.1h.5l.4.3a2.8,2.8,0,0,1,.1.9,1.2,1.2,0,0,1-.3,1.1,1.2,1.2,0,0,1-.8.4,1.2,1.2,0,0,1-1-.1,1.6,1.6,0,0,1-.7-1.3,1.3,1.3,0,0,1,.5-1.1,3.1,3.1,0,0,1,1.2-.5,2.3,2.3,0,0,1,1.2.2"/><path d="M188.9,36.5a.5.5,0,0,1,.3.5c-.1.3-.3.4-.5.3h0a1.2,1.2,0,0,0-.1.5,1.8,1.8,0,0,1,.1.6h.7a1.3,1.3,0,0,0,.7-.5h0a.3.3,0,0,1-.1-.2,1.9,1.9,0,0,0-.8-.3,1.3,1.3,0,0,0-.9.2c-.2.1-.3.4-.4.7v.4h.5l.3-.2v-.5h0a.1.1,0,0,1-.1-.1h-.5c-.1,0-.1,0-.1.1a.8.8,0,0,0-.2.4,1.1,1.1,0,0,0,0,.6h.2l.8-.4.3-.6c0-.1,0-.1-.1-.2h.3a.4.4,0,0,0-.1.3.2.2,0,0,0,0,.3h.5a.4.4,0,0,1,.4.4c0,.3-.1.4-.4.4a1.5,1.5,0,0,1-1.1-.4,1.1,1.1,0,0,1-.2-1,4.3,4.3,0,0,0,.1-.5l.2-.2.4-.2a.7.7,0,0,1,.6.4,1.1,1.1,0,0,1,.2.8,2.7,2.7,0,0,1-.6,1,3.9,3.9,0,0,1-1.1.6h-.5l-.6-.3a1.4,1.4,0,0,1-.1-1.1.9.9,0,0,1,.3-.7c.1-.2.3-.5.6-.5a1.3,1.3,0,0,1,.9.1l.5.2a1.1,1.1,0,0,1,.2.6,1.2,1.2,0,0,1-.1.8,1,1,0,0,1-.5.6.8.8,0,0,1-.8.2l-.5-.2a1.2,1.2,0,0,1-.5-.5,2.1,2.1,0,0,1,.7-2,2.1,2.1,0,0,1,1.5-.3,1.7,1.7,0,0,1,1.2.5l.4.6a1.7,1.7,0,0,1-.1.7,1.8,1.8,0,0,1-1.3.9h-.8c-.3-.1-.6-.2-.7-.5a2,2,0,0,1-.2-1,1.5,1.5,0,0,1,.2-.9.5.5,0,0,1,.3-.3h.6"/><path class="cls-14" d="M259.8,91.5c-.1.3-.3.4-.5.3a.5.5,0,0,1-.3-.5h0a.6.6,0,0,1,.2-.4h.6a.4.4,0,0,1,.2.5.5.5,0,0,1-.6.2h.2c-.1,0,.1-.2.1-.1s.1-.2.1-.1v-.2h0c0,.1.1.2,0,.4"/><path class="cls-14" d="M263.9,90.2c.2-.1.4,0,.5.3a.5.5,0,0,1-.3.5h-.9l-1.8.3-2.1.3h-.6c-.1-.1-.2,0-.4-.2a.3.3,0,0,1-.1-.2c-.1-.2,0-.3.1-.4H260c1.4-.1,2.6-.5,3.6-.1a.4.4,0,0,1,.2.5.5.5,0,0,1-.6.2c-.4-.2-1.7.2-3.2.2h-1.3s.1-.1,0-.1h.2c-.1,0,.1-.2,0-.2s0-.2.1-.2-.1-.2-.1-.1h.3l2-.2,1.9-.3h.8m-4.6.5c.2,0,.4.2.3.4a.4.4,0,0,1-.4.4l-.5-.2a.2.2,0,0,1-.2-.2.3.3,0,0,1,0-.4q.2-.3.3-.3h.4a10.9,10.9,0,0,1,2.6-.1H264c.2-.1.4.1.4.3a.5.5,0,0,1-.4.5h-4.8c-.1,0-.1,0-.1.1h.1c-.1,0,0-.1,0,0v-.4c0,.1-.1-.1-.1,0h.2"/><path class="cls-14" d="M259,91c.1.2.1.5-.1.6a.5.5,0,0,1-.6-.2h.6v.3l.9,1.1.6.5a1.7,1.7,0,0,1,.6.6.2.2,0,0,1,.2.2v.3l-.8-.2h0l-.2-.2-.5-.7c-.2-.2-.2-.4-.3-.6l-.2-.5c-.1-.1-.1-.3-.2-.4h0s.2.2.2.1l.3-.7c.3.1.2.2.2.3h.1v1.1a4.2,4.2,0,0,0,.6,1.8l.4.5h.3a.3.3,0,0,1,.5.3c.1.2-.1.4-.3.5a1,1,0,0,1-.9-.2,2.3,2.3,0,0,1-.7-.7,7.1,7.1,0,0,1-.7-2.2c0-.3-.1-.6-.1-.9v-.3h0s.1.1.1,0h0s.2.2.2.1a.4.4,0,0,1-.2-.5c0-.2.3-.3.5-.2s.2.2.2.3h.1c0,.1.1.3.1.4l.3.5c.1.2.1.4.2.5l.4.6c.1.1.2.1.2.2h.2s.1.1,0,.3a.5.5,0,0,1-.5.3c-.2-.1-.4-.3-.3-.5h0v.2h0c0-.1-.3-.3-.5-.5l-.7-.5a5.3,5.3,0,0,1-1.1-1.5,1.3,1.3,0,0,1-.1-.6.4.4,0,0,1,.1-.3h.6l.2.3"/><path class="cls-14" d="M261.5,91.6c.2.1.4.3.3.5s-.2.4-.4.3h.1l-.2.2-.9.9h-.1s.1-.2.1-.1h0s-.1-.2-.1-.1-.2-.3-.1-.2h-.3l1-.3a.5.5,0,0,1,.5.3c.1.2-.1.4-.3.5l-.9.3h-.4c-.2-.1-.3-.4-.2-.5s.1-.2.2-.3l1-.9.3-.3h.4m0,.1a.4.4,0,0,1,.2.5.3.3,0,0,1-.5.3h.3v.2l-.5.6c-.3.5-.6,1-.7,1l-.7-.3c.1-.4.4-.4.5-.7a5.7,5.7,0,0,0,1-1.3c0-.1.1-.1.1-.2h0c.1-.2.3-.2.5-.1a.4.4,0,0,1,.2.5h-.1l-1,1.5-.4.3h-.1s.1-.1,0-.1-.3.3-.5.2a.4.4,0,0,1-.2-.5,4.9,4.9,0,0,1,.8-1.2l.4-.6.2-.3h.2s.1-.2.4-.1m-1.2,2.6a.5.5,0,0,1-.5.4.4.4,0,0,1-.4-.4h.1c.2-.4.7-.9,1-1.4s.3-.3.3-.5l.2-.2h0s-.1.2,0,.1h0c-.1-.2,0-.4.3-.5a.5.5,0,0,1,.5.3h0c0,.1,0,.1-.1.2h0v.2l-.4.6-1,1.3h.1m3.6-1.6c0,.2-.2.4-.4.3a.4.4,0,0,1-.4-.4v-.3h0s.2.1.1.1h.2a3.6,3.6,0,0,0-.6,1,8.3,8.3,0,0,0-.7,1.3c-.1.2-.1.4-.2.5h0c0,.1-.2-.2-.1-.1h-.5l.6-1.3.6-1.6v-.2h0s.1.1,0,.1.2.2.2.1h.3l-.3.4c-.4.4-.7,1-1.1,1.5l-.6.8-.2.3c0,.1,0,.2-.3.3l-.3-.8c.1,0-.1.1-.1.1H260a.3.3,0,0,1,.1-.2c0-.2.1-.5.1-.7l.3-.7.2-.4a.3.3,0,0,1,.1-.2h0c-.1-.2,0-.4.3-.5a.5.5,0,0,1,.5.3c0,.2-.1.3-.1.4h-.1c0,.1-.1.1-.1.2l-.4.3-.5.7c-.1.1-.1.2-.2.2l-.2.2h-.1a.4.4,0,0,1-.4-.4c-.1-.2.1-.4.3-.4h-.2a.1.1,0,0,0,.1-.1l.6-.7c.1-.2.3-.3.4-.4a.1.1,0,0,1,.1-.1h0l.8-.2c0,.4-.1.4-.1.6a.8.8,0,0,0-.2.4l-.3.7a4.3,4.3,0,0,0-.1.5c0,.1-.1.2-.1.3h0c0,.1,0,.2-.3.3a.4.4,0,0,1-.5-.2.5.5,0,0,1,.2-.6c.1,0-.1.1-.1.1s.1-.2.3-.4l.5-.7c.4-.5.7-1.2,1.1-1.6l.5-.5h.5a.5.5,0,0,1,.3.3,1.6,1.6,0,0,1,0,.7l-.7,1.6a3.6,3.6,0,0,1-.4.9,1.6,1.6,0,0,1-.4.7h-.3a.5.5,0,0,1-.4-.2v-.3a.4.4,0,0,1,.1-.3,1.7,1.7,0,0,1,.2-.5,9.1,9.1,0,0,1,.7-1.4,2.3,2.3,0,0,1,.9-1.2l.3-.2a.5.5,0,0,1,.5.3c.2.2.2.4.1.8"/><path class="cls-15" d="M114.9,92.5a.4.4,0,0,1-.4-.4c-.1-.2.1-.4.3-.4h.8l3-.3,2,.2a2.4,2.4,0,0,0,1.7-.4.5.5,0,0,1,.6.2.4.4,0,0,1-.2.5,3.1,3.1,0,0,1-2.2.5,11.5,11.5,0,0,0-1.9-.1l-3,.2h-.7m1.6-.8a.4.4,0,0,1-.3.7l-.3-.2c-.1-.1-.3-.3-.2-.5a.5.5,0,0,1,.4-.3c0-.1.1-.1.2-.1l1.6-.2,1.9-.3h1.5l.3.2c0,.1.1.2.1.3a.7.7,0,0,1-.1.5.6.6,0,0,1-.6.3h-2.1l-2.6.3h-1.5c-.2,0-.4-.2-.3-.4a.4.4,0,0,1,.4-.4h1.3l2.7-.3h2c0-.1.1.1,0,0h-1l-1.9.3-1.5.2h0v-.2c0,.1-.1-.2,0-.1h0"/><path class="cls-15" d="M116.9,92.5a.4.4,0,0,1-.2.5c-.2.1-.5,0-.5-.2h-.1s.1.1,0,.1h.5a.3.3,0,0,0-.1.2,5.2,5.2,0,0,0,.9,2.3l.9,1.1.4.3h0c.2-.1.4,0,.5.3a.5.5,0,0,1-.3.5h-.6l-.5-.4a5.8,5.8,0,0,1-1-1.2c-.7-1-1.3-2.1-1.1-3s.1-.4.3-.6h.6c.2.1.2.2.3.4"/><path class="cls-15" d="M121.7,93.1a.5.5,0,0,1-.4.5.4.4,0,0,1-.4-.4h0c0-.1.2,0,.1,0h0l-.9,1.2-.9,1.4c-.1.3-.2.4-.2.5h0c0,.1-.1-.2-.1-.1h-.3l.5-.7a10,10,0,0,0,.8-1.4l.3-.6h0v.2h.2c-.1-.1.2.1.1.1s.2-.1.2,0h.1c-.1.1.1,0,0,0h-.1l-.9,1.3a7.6,7.6,0,0,0-1,1.4c0,.1,0,.1-.1.2h-.3l-.4-.2c-.1-.3,0-.3,0-.3a2.5,2.5,0,0,1,.2-.7c0-.2.3-.3.5-.2s.3.3.2.5a1.8,1.8,0,0,0-.1.5h0v-.2h-.5c.1-.1-.1,0-.1,0s0,.1,0,.1h0a12.6,12.6,0,0,1,1-1.5l1-1.3.3-.3h.5c.2.2.1.3.1.4v.2l-.4.7a10,10,0,0,1-.8,1.4,1.7,1.7,0,0,1-.9,1.1.7.7,0,0,1-.6-.2.7.7,0,0,1-.1-.5l.3-.7.9-1.5a7.5,7.5,0,0,1,1.1-1.3l.3-.2h.4a.8.8,0,0,1,.4.4.4.4,0,0,1,.1.3"/><path class="cls-15" d="M118.3,95c.2.1.2.3.1.5a.4.4,0,0,1-.5.2l-.3-.3c0-.2-.1-.3-.1-.4V93.9h.3a.9.9,0,0,0-.3.6v.2h-.1l.5-.7c.1-.2.1-.4.2-.5v-.3h0c0-.1.2.1.1.1h.3l-.3.4v.3s-.1-.3,0-.2-.2-.2-.1-.1h.1c0-.1.2-.2.4-.4l.4-.5h.9c.1.2,0,.2,0,.3h-.2l-.2.2-.6.5q-.3.2-.3.3h0s-.2-.2-.1-.2h0a.7.7,0,0,1,.5.4.4.4,0,0,1-.4.4c-.2,0-.4.1-.5-.1a.7.7,0,0,1-.3-.6c.1-.3.3-.4.5-.6l.7-.5c.1-.1.1-.2.2-.2H119a.4.4,0,1,1,.8,0c.1.2,0,.3-.1.3a.3.3,0,0,1-.1.2l-.5.6c-.2.1-.4.4-.7.5a.9.9,0,0,1-.7.1h-.3a.4.4,0,0,1-.1-.5c0-.3.2-.4.3-.6l.3-.4v-.2h.6l.3.3v.2a1.3,1.3,0,0,1-.1.6,2.5,2.5,0,0,1-.2.7l-.6.8-.3.3h-.2a.3.3,0,0,1-.4,0c-.3-.1-.3-.3-.4-.5v-.6a4.2,4.2,0,0,1,.4-1l.5-.3h.5c.1,0,.2.2.2.3v1.1h0c.1,0-.1-.1,0,0"/><path class="cls-16" d="M187.4,92c-.2.1-.4.1-.5-.1s-.1-.4.1-.6h2.7a8.5,8.5,0,0,1,1.6,0h.4l.3.2a1.1,1.1,0,0,1,.1.5.5.5,0,0,1-.2.4.4.4,0,0,1-.5.2.5.5,0,0,1-.2-.6c.1-.1.1-.1.1-.2h-3.9m3.4-.6a.4.4,0,1,1,0,.8h-3.9a.4.4,0,1,1,.6-.6h-.1c.1.1-.1,0,0,0h3.4m-3.7.9a.4.4,0,1,1-.3.7c-.3-.1-.5-.1-.6-.4a.7.7,0,0,1,.1-.5l.3-.2,1.1-.2,1.8-.3h1.3a.4.4,0,1,1,0,.8h-1.3l-1.7.3H187c-.1,0,0-.2,0-.1v-.2h.1"/><path class="cls-16" d="M186.6,92.8a.4.4,0,0,1,.6.1c.2.1.1.4-.1.5h.1c0,.1.1,0,.1,0h0v.3c-.1.2.5.9,1.1,1.6l.8,1,.3.3.2.3h-.3a.6.6,0,0,1,.6,0,.4.4,0,0,1,0,.6.5.5,0,0,1-.4.2l-.4-.2c-.2-.1-.2-.2-.3-.3l-.4-.4a8.6,8.6,0,0,1-.7-1c-.6-.6-1.4-1.3-1.4-2.2a.4.4,0,0,1,.1-.3v-.2a.1.1,0,0,0,.1-.1m.7.3c0,.2-.1.4-.3.4a.3.3,0,0,1-.5-.3h.1a.4.4,0,0,1,0-.6c.2-.2.4-.1.6,0h0v.3"/><path class="cls-16" d="M191.5,93.2a.4.4,0,0,1-.4.4c-.2-.1-.4-.2-.4-.5h0s.1.1,0,.1.2.1.1.1h.2c-.1-.1.2,0,.1,0s.2-.1.2,0,.1-.1,0-.1h0l-.4.9a18,18,0,0,0-.8,2.1,3.1,3.1,0,0,0-.2.8v.4c.1.2.1.4-.1.5a.4.4,0,0,1-.6-.1,2.8,2.8,0,0,1-.1-.9,2.9,2.9,0,0,1,.2-.9l.9-2.2a10.4,10.4,0,0,1,.4-1c.1,0,.1-.1.1-.2h.4c.1,0,.3,0,.3.1a.3.3,0,0,1,.1.2.2.2,0,0,1,0,.3"/><path class="cls-16" d="M189.7,93.2c.1-.2.4-.2.6,0a.3.3,0,0,1,.1.5c-.1.1-.2.1-.2.2H190l-.7.2H189s0,.1-.2.1v-.9h.6l.3-.2h0v.2h0c0-.1.1.2.1.1s.1.2.1.2.1,0,.1,0h-2.1v-.2c-.1-.2,0-.5.1-.5a.5.5,0,0,1,.5-.1h.3s.1.2,0,.2h-.6c-.1.1,0-.2,0-.1h0l.4.3c.2.2.3.4.1.6s-.3.3-.5.1l-.6-.4a.8.8,0,0,1-.2-.5.5.5,0,0,1,.3-.5h.4a2.2,2.2,0,0,1,.8,0l.4.2c.1.1.3.2.3.4a.6.6,0,0,1-.2.5.5.5,0,0,1-.5.3h-.4s.1-.1,0-.1.2-.2.1-.2v-.2h-.1c.1,0,0-.1,0-.1h1.8l.3.2c.1.2,0,.4,0,.5h-.8a2.4,2.4,0,0,1-.9.3.7.7,0,0,1-.4-.5.5.5,0,0,1,.5-.4h.9c0-.1-.1.1-.1,0m-2.2.4c-.2-.1-.4-.4-.3-.6a.4.4,0,0,1,.5-.2c.4.1.3.2.3.2h0c0,.1.1.1.1.2l.4.6a1.8,1.8,0,0,0,.7.5h.1s-.2.2-.2.1,0,.2,0,.2h0s.1.2,0,.2h.1c0-.1.1,0,.1,0H189l-.7-.2-.6-.3a.5.5,0,0,1-.1-.6c0-.2.1-.3.3-.4a3,3,0,0,1,1.1-.4h1.1c.2,0,.4.2.3.4a.4.4,0,0,1-.4.4h-.8l-.8.2h.2l.6.2h.4c.1,0,.2,0,.3.3s-.1.4-.2.4h-.4l-.5-.2a2.4,2.4,0,0,1-.9-.6,4.7,4.7,0,0,1-.6-.9v-.2h-.1c0-.1.1,0,.1,0h.2m.5.1c.1.2-.1.4-.3.4a.5.5,0,0,1-.5-.4v-.4h0s-.1,0,.1-.3h0c.2-.2.5-.2.6,0s.1.4,0,.6.1-.1,0-.1h.1v.4"/><path d="M322.7,88.1a.4.4,0,0,1,.3.7c-.1,0-.2.2-.3.5l-.3,1.4a12.4,12.4,0,0,0-.2,1.8v.7a.7.7,0,0,1-.1.5v.4s-.2.2-.4.1-.3-.1-.3-.2h-.1v-.2a1.1,1.1,0,0,0-.1-.5V91.7a10.2,10.2,0,0,1,.6-4,2.9,2.9,0,0,1,2.2-1.4,2.5,2.5,0,0,1,1.2.1,2.7,2.7,0,0,1,1,1.1,1.9,1.9,0,0,1,.1.8l-.4.7a7.6,7.6,0,0,0-.8,1.1,1.9,1.9,0,0,0-.1,1.8,3.3,3.3,0,0,0,1.5,2,.4.4,0,0,1,.1.5c-.2.2-.4.3-.6.1a4.4,4.4,0,0,1-1.8-2.3,3,3,0,0,1,.2-2.6l.9-1.1.2-.4a.4.4,0,0,0-.1-.3,1.2,1.2,0,0,0-.6-.6H324a2,2,0,0,0-1.6,1,9.8,9.8,0,0,0-.5,3.6,6.1,6.1,0,0,0,.1,1.4v.5h-.7c.1-.1,0,.1,0,0h0v-.4c0-.2-.1-.5,0-.7a12.3,12.3,0,0,1,.2-1.9q.1-.9.3-1.5c.2-.4.4-.9.8-1"/><path d="M333.2,89.6a.4.4,0,1,1-.8.4h-.2l-.8.3a1.8,1.8,0,0,0-.4.9.5.5,0,0,0,0,.4h.2c.1.1.3,0,.5,0h1.2a.6.6,0,0,1,.5.4c0,.2,0,.3-.1.4s-.1.2-.1.3l-.4.6c-.6,1.3-.5,3.6-.6,5.4a3.7,3.7,0,0,1-.8,1.9,1.5,1.5,0,0,1-1.4.5,1.3,1.3,0,0,1-1-.4,1.5,1.5,0,0,1-.4-1c-.1-.8.4-1.8,1.5-2.9s.5-.2.6,0a.4.4,0,0,1,0,.6,3.4,3.4,0,0,0-1.3,2.2.8.8,0,0,0,.2.5l.5.2c.3,0,.5,0,.7-.3a1.7,1.7,0,0,0,.5-1.3c.2-1.8,0-4.1.8-5.7a4.3,4.3,0,0,1,.4-.7h.1v.2h-1c-.4,0-.8.1-1.2-.3a1.1,1.1,0,0,1-.3-1.1,2.1,2.1,0,0,1,.7-1.4,2.7,2.7,0,0,1,1.2-.6h.6a1,1,0,0,1,.5.4"/><path d="M337.7,89.7a.6.6,0,0,1,.3.6.5.5,0,0,1-.6.2h-.2l-.3.9a4.3,4.3,0,0,0,0,1.6l.2.3h.4c.2-.1.4.1.5.3a.5.5,0,0,1-.4.5,1.3,1.3,0,0,1-.9-.2,1.6,1.6,0,0,1-.6-.8,4.5,4.5,0,0,1,0-2,3.6,3.6,0,0,1,.4-1.1c.2-.2.3-.4.5-.4h.7"/><path d="M337.9,91.4a.4.4,0,1,1-.8,0h0v-.2c.1,0,.1-.2.2-.3h.4a.1.1,0,0,1,.1.1h.2a.5.5,0,0,1,.2.6.6.6,0,0,1-.6.1h.2c-.1,0,.1-.2.1-.2h0s.1,0,0,.1"/><path d="M341.6,89.9a.6.6,0,0,1,.1.6.5.5,0,0,1-.6.1h-.2l-.2.4a1.7,1.7,0,0,0,0,1c.1.3.3.7.4,1.1s.2.3.2.6a.8.8,0,0,1-.2.6l-.5.4a1.8,1.8,0,0,1-1,.1c-.3,0-.4-.2-.4-.5a.5.5,0,0,1,.5-.3h.8l-.2-.5c-.1-.3-.3-.7-.4-1.1a3.3,3.3,0,0,1,0-1.4,1.4,1.4,0,0,1,.5-.8c.2-.2.3-.3.5-.3l.7.2"/><path d="M349.4,87.3c-.2,0-.3-.2-.3-.4s.3-.4.5-.4a21.1,21.1,0,0,0,3,.7.4.4,0,0,1,.4.4c0,.3-.2.4-.5.4a19.5,19.5,0,0,1-3.1-.7"/><path d="M349.9,88.1c.2-.1.5-.1.6.1s.1.5-.1.6h-.1c0,.1-.1-.2,0-.1h.1l1.7.2a.4.4,0,0,1,.4.4.4.4,0,0,1-.4.4,5.5,5.5,0,0,1-1.9-.2h-.4q-.2,0-.3-.3a.7.7,0,0,1,.1-.6l.3-.3"/><path d="M362.4,83.6c0,.2-.3.3-.5.2s-.3-.3-.3-.5h.2c0-.1.1,0,.1,0h0a3.9,3.9,0,0,0-1.1.8,6.7,6.7,0,0,0-1.2,1.6,4.8,4.8,0,0,0-.9,2.6,1.8,1.8,0,0,0,1,1.6c.3.1.5.2.7.1s.3-.1.4-.3a1.1,1.1,0,0,0,.3-.7.4.4,0,0,0,0-.5l-.5-.5v-.2a.3.3,0,0,1,.1-.5c0-.1.1-.1.2-.1h.6c.2-.1.4.1.5.3a.5.5,0,0,1-.3.5h-.4v-.2h0c0,.1.6.3.7,1a.9.9,0,0,1,0,.7,3,3,0,0,1-.4,1,1.6,1.6,0,0,1-.9.7,1.7,1.7,0,0,1-1.2-.1,2.7,2.7,0,0,1-1.5-2.4,5.9,5.9,0,0,1,1-3.1,7.5,7.5,0,0,1,1.4-1.7,3.8,3.8,0,0,1,1.3-1h.3c.2,0,.3,0,.4.2s.2.2.2.4a.8.8,0,0,1-.1.4"/><path d="M367,84.2a.5.5,0,0,1-.9.1.8.8,0,0,1,.4-.7c.1-.2.4-.2.6-.3a3.1,3.1,0,0,1,1.3.3,1.4,1.4,0,0,1,.8,1.3,2.7,2.7,0,0,1-.4,1.4,13.6,13.6,0,0,1-1.7,1.7l-.6.6v.2h0c0,.1,0,.1.2.1h.7a3.7,3.7,0,0,1,1.7.5c.2.1.2.3.1.5s-.4.3-.5.2a4.7,4.7,0,0,0-1.4-.4h-.8c-.2-.1-.5-.1-.7-.4a1.3,1.3,0,0,1-.1-.6c0-.2.1-.3.2-.5l.7-.8a8,8,0,0,0,1.6-1.6,1.6,1.6,0,0,0,.3-.9.6.6,0,0,0-.3-.6l-.9-.2H367"/><path d="M376.8,86.3a.4.4,0,0,1-.4.4c-.2,0-.4-.1-.4-.3s.1-1.3,0-1.4h-.3a2,2,0,0,0-1.1.3,1.6,1.6,0,0,0-.6.8c-.1.3,0,.4,0,.7l.7.8a1.8,1.8,0,0,1,.2,1.4,1.1,1.1,0,0,1-.6.9l-1,.5h-1.1a1.4,1.4,0,0,1-.9-.8.4.4,0,0,1,.2-.5.5.5,0,0,1,.6.2l.4.3h.6l.7-.2c.2-.2.3-.3.3-.5a.8.8,0,0,0-.1-.8,3.5,3.5,0,0,1-.7-.9,1.5,1.5,0,0,1,0-1.3,2.1,2.1,0,0,1,.8-1.1l1.5-.6h.7c.2.1.5.3.5.5a4.2,4.2,0,0,1,0,1.6"/><path d="M376.2,86.4c-.1.2-.4.2-.6.1s-.2-.5,0-.6a1.6,1.6,0,0,1,1.3-.6,1.7,1.7,0,0,1,1.1.6,1.4,1.4,0,0,1,.3,1.3,2.4,2.4,0,0,1-.6,1.5c-.4.7-1,1.2-1.3,1.7a2.5,2.5,0,0,0-.2.7h.1l.6.2,2.3.3a.5.5,0,0,1,.4.5c-.1.2-.3.4-.5.3l-2.4-.3-.9-.3c-.2-.2-.5-.5-.4-.8a2,2,0,0,1,.3-1.1,20.3,20.3,0,0,0,1.3-1.8,2.1,2.1,0,0,0,.5-1.1.8.8,0,0,0-.1-.7.8.8,0,0,0-.6-.2.7.7,0,0,0-.6.2"/><path d="M322.8,86.1a.5.5,0,0,1-.4.5.4.4,0,0,1-.4-.4h0s.1.2.1.1.1.1.1.1h.3c-.1,0,.1-.1.1-.1h.1c-.1,0,0-.1,0-.1v.2c0,.5-.1,1.2-.2,2.1a25.4,25.4,0,0,0-.4,2.9c-.2,1.1-.2,2.3-.3,3.1a3.4,3.4,0,0,0-.1.9,1.1,1.1,0,0,1-.3.6c0,.1-.1.2-.3.2l-.5-.2a1.3,1.3,0,0,1-.1-.6V95a36.6,36.6,0,0,1,.8-5c.4-1.6.4-2.9.6-3.8a3.3,3.3,0,0,1,1.1-1.5,3.5,3.5,0,0,1,1.8-.5,4.2,4.2,0,0,1,1.2.4,1.6,1.6,0,0,1,.6,1.3,4.8,4.8,0,0,1-.8,2.8,4.7,4.7,0,0,1-.9,1l-.3.2h0a1.4,1.4,0,0,0-.2.9,5.8,5.8,0,0,0,.3,1.4c.2.6,1,1.2,1.6,2a4.2,4.2,0,0,1,.9,1.4l.3.5h0l.4-.2c.2,0,.4,0,.5.2a.4.4,0,0,1-.2.6l-.7.2-.6-.2a2,2,0,0,1-.4-.8,8.3,8.3,0,0,0-.8-1.2,9.6,9.6,0,0,1-1.8-2.2,8.6,8.6,0,0,1-.3-1.7,2,2,0,0,1,.4-1.5l.3-.2.8-.8a4.3,4.3,0,0,0,.7-2.3c0-.4-.1-.6-.3-.7l-.7-.2a3.2,3.2,0,0,0-1.4.3,2.8,2.8,0,0,0-.7.9,25.9,25.9,0,0,1-.6,3.8,44.3,44.3,0,0,0-.8,4.9v.4h-.5a.1.1,0,0,0,.1-.1,3.4,3.4,0,0,1,.1-.9,20,20,0,0,1,.3-3.1l.3-2.9a20.6,20.6,0,0,1,.3-2.1c.1-.2,0-.3.2-.5a.4.4,0,0,1,.3-.2c.3,0,.4.2.4.3v.2"/><path d="M325.7,87.5a.5.5,0,0,1-.3.5.4.4,0,0,1-.5-.2,1.8,1.8,0,0,0-.8-.9,1.4,1.4,0,0,0-1.2.2c-.2.1-.5,0-.5-.2a.4.4,0,0,1,.2-.6,2.3,2.3,0,0,1,1.8-.1,2.4,2.4,0,0,1,1.3,1.3"/><path d="M370.9,61a14.7,14.7,0,0,0-2-7.2,14.3,14.3,0,0,0-12.4-7.2,14,14,0,0,0-7.3,2A14.5,14.5,0,0,0,342.1,61a14,14,0,0,0,2,7.3,14.5,14.5,0,0,0,12.4,7.1,13.7,13.7,0,0,0,7.2-2A14.3,14.3,0,0,0,370.9,61m1.6,0a16.2,16.2,0,0,1-7.9,13.9,17.1,17.1,0,0,1-8.1,2.1,16.2,16.2,0,0,1-13.9-7.9,16.8,16.8,0,0,1-2.1-8.1,16,16,0,0,1,7.9-13.8,15.8,15.8,0,0,1,8.1-2.2,16,16,0,0,1,16,16"/><path d="M357.6,55.8a.8.8,0,0,1-.8-.9.9.9,0,0,1,1-.7h-.2l-.3.2v.2h0a1,1,0,0,0-.1-.4l-.4-.2h-1a2.9,2.9,0,0,0-2.4,1.5,1.3,1.3,0,0,0-.3.7,2.5,2.5,0,0,0-.1.8c0,.1.3.4.7.8l.7,1,1.2,1a3.6,3.6,0,0,1,1,1.4,3.8,3.8,0,0,1,.3,3,2.2,2.2,0,0,1-1.6,1.4l-2,.3a18.4,18.4,0,0,1-6.4-.8.8.8,0,0,1-.6-1,.9.9,0,0,1,1-.6,16.3,16.3,0,0,0,5.8.8l1.7-.3q.6-.2.6-.3a3.4,3.4,0,0,0-.3-1.9c-.1-.3-.2-.4-.6-.7a13.1,13.1,0,0,1-1.3-1.2l-.8-1a2.7,2.7,0,0,1-1-1.7,3.2,3.2,0,0,1,.1-1.4,2.8,2.8,0,0,1,.5-1.1,4.6,4.6,0,0,1,3.7-2.4h1.5a2.8,2.8,0,0,1,1.4,1,2.7,2.7,0,0,1,.3,1.2,1.1,1.1,0,0,1-.2.8,1.1,1.1,0,0,1-1,.4"/><path d="M356.3,55c-.5,0-.9-.4-.8-.8a.8.8,0,0,1,.8-.8c.3,0,1.8-.4,3.1-.5A4.2,4.2,0,0,1,363,55a6.3,6.3,0,0,1,.8,2.2,6.6,6.6,0,0,1-.3,3.1,5.3,5.3,0,0,1-1.1,1.4,7.9,7.9,0,0,0-1.5,2.5,1.9,1.9,0,0,0-.2.7v.2l1.1.4h3.9a.9.9,0,0,1,.8.8.8.8,0,0,1-.8.9,28.1,28.1,0,0,1-4.1-.1,4.8,4.8,0,0,1-1.8-.6,2.2,2.2,0,0,1-.8-1.9,3.2,3.2,0,0,1,.3-.9,10.5,10.5,0,0,1,1.8-3.1,3.1,3.1,0,0,0,.8-1,3.7,3.7,0,0,0,.1-2.1,5,5,0,0,0-.5-1.6,2.3,2.3,0,0,0-2.1-1.3c-1,0-2.3.5-3.2.4"/><path class="cls-13" d="M189.8,37.1a.8.8,0,0,1,.1-1.1.9.9,0,0,1,1.2.1c0,.1-.3-.1-.2-.1s-.3,0-.2,0h-.1l.7-.8a32,32,0,0,1,4.5-4.2c4.7-3.6,9.4-7.2,14.1-9.7a151.6,151.6,0,0,1,16.9-8c5.4-2.1,11.9-2.7,18.9-3.4a120.5,120.5,0,0,1,13.5-.2H267l4,.2,3.7.6,1.7.4a27.3,27.3,0,0,0,4.6.8l3.4.3c6.8.6,12.6,2.4,18,3.9a82.6,82.6,0,0,1,11.8,4.8c5.4,2.6,10.5,4.8,14.7,7.7s6,3.9,8.2,5.8,2.4,1.8,3.5,2.8l1.3,1.2c1.4,1.5,3,3,4.1,4.4a21.9,21.9,0,0,1,3,4.7.8.8,0,0,1-.5,1,.8.8,0,0,1-1.1-.5,16.9,16.9,0,0,0-2.8-4.2,36.7,36.7,0,0,0-3.9-4.2l-1.2-1.2c-1-.9-2.3-1.8-3.5-2.8s-4.8-3.4-8-5.7-9.1-4.9-14.5-7.5c-3.6-1.6-7.2-3.5-11.5-4.7s-11.1-3.3-17.7-3.9l-3.5-.3a35.8,35.8,0,0,1-4.9-.8l-1.5-.4-3.5-.5-3.9-.2-7.8-.2a98.4,98.4,0,0,0-13.4.3c-6.9.7-13.3,1.3-18.4,3.2a156.9,156.9,0,0,0-16.7,7.9c-4.6,2.4-9.2,6-13.9,9.6a23.5,23.5,0,0,0-4.2,4,9.4,9.4,0,0,0-1,1,1.9,1.9,0,0,1-.8.3,1.2,1.2,0,0,1-1-.5"/><path d="M189.9,164a.9.9,0,0,1,.8.9.9.9,0,0,1-.8.8h.5l.3-.4v-.6c.1.1,0-.1,0-.1h0l.3.3,1.5,1.2c1.5,1,3.6,2.3,6.3,3.8A76.5,76.5,0,0,0,209,174c4.3,1.4,9.2,2.8,14.6,4s14,3.1,21.3,4.3,11.5,1.9,16.9,1.6,10.6-2,16-3.8a76.4,76.4,0,0,0,14-6.2,87,87,0,0,0,13.6-10c4.9-4.2,9.1-9.3,13.1-13.9a89.5,89.5,0,0,0,12.4-19.7c2.1-4.6,4.5-8.6,6.4-12.4s4.1-8.7,5.7-12.7a36.8,36.8,0,0,0,2.4-9.5c.6-6.7,4.4-13.1,5.1-18.4a.7.7,0,0,1,.9-.7.8.8,0,0,1,.7.9c-.7,5.8-4.5,12.2-5.1,18.4a35.1,35.1,0,0,1-2.5,9.9,135,135,0,0,1-5.8,12.9c-1.9,3.8-4.2,7.8-6.4,12.3a102.4,102.4,0,0,1-5.1,9.8,80.3,80.3,0,0,1-7.5,10.2c-3.9,4.6-8.2,9.8-13.3,14.2a91.2,91.2,0,0,1-13.8,10.1,73.1,73.1,0,0,1-14.3,6.3,66.2,66.2,0,0,1-16.4,3.9c-5.7.4-11.4-.6-17.2-1.6-7.4-1.2-14.7-2.8-21.5-4.3a150.4,150.4,0,0,1-14.7-4.1,69.4,69.4,0,0,1-10.6-4.4,50.2,50.2,0,0,1-6.4-3.9,9.2,9.2,0,0,1-1.7-1.3.8.8,0,0,1-.4-.4c-.1,0-.2-.1-.2-.3s-.2-.3,0-.7a.9.9,0,0,1,.7-.5"/></g></g></g></svg>