<svg id="Ebene_1" data-name="Ebene 1" xmlns="http://www.w3.org/2000/svg" xmlns:xlink="http://www.w3.org/1999/xlink" viewBox="0 0 273.8 98"><defs><style>.cls-1{fill:none;}.cls-2{opacity:0;}.cls-3{clip-path:url(#clip-path);}.cls-4{fill:#ed3624;}</style><clipPath id="clip-path"><rect class="cls-1" x="-73.8" y="-82.3" width="419.5" height="297.64"/></clipPath></defs><g class="cls-2"><path d="M-1,61.6V60.2H1.7V49.3L-1,50V48.6l4.6-1.1V60.2H6.3v1.4Z"/></g><g class="cls-2"><path d="M82.6,55.6V38.8H75.9v-2h16v2H85.2V55.6Z"/></g><g class="cls-2"><path d="M101.9,47l-1.6-4H94.1l-1.5,4h-2l5.8-14.5h2L104.1,47ZM94.6,31.3V29.6h1.7v1.7Zm5.1,10.2-2.5-6.3-2.5,6.3ZM98.5,31.3V29.6h1.7v1.7Z"/><path d="M105.8,47V31.5h1.9v6.9a4.7,4.7,0,0,1,3.8-2.3,2.9,2.9,0,0,1,2.2.9,3.6,3.6,0,0,1,.8,2.4V47h-1.9V40a2.5,2.5,0,0,0-.4-1.7,1.3,1.3,0,0,0-1.1-.5c-1.2,0-2.3.8-3.4,2.3V47Z"/><path d="M117.8,47V36.4h1.9v2a4.4,4.4,0,0,1,3.7-2.3,3,3,0,0,1,2.9,2.3,4.1,4.1,0,0,1,3.6-2.3,2.9,2.9,0,0,1,2.1.8,3.2,3.2,0,0,1,.8,2.4V47h-1.9V39.6c0-1.2-.5-1.9-1.5-1.9s-2,.8-3.1,2.2V47h-2V39.6c0-1.3-.4-1.9-1.4-1.9s-2,.7-3.2,2.2V47Z"/></g><g class="cls-2"><path d="M137.6,52.4V42.2h2l2.9,7.9,2.8-7.9h1.8V52.4h-1.3V44.1L143,51.7h-1.4l-2.7-7.6v8.3Z"/></g><g class="cls-2"><path d="M99.4,77.6l-1.3-3.4H92.9l-1.4,3.4H89.9l4.9-12.4h1.7l4.8,12.4Zm-1.8-4.7-2.1-5.4-2.1,5.4Z"/></g><g class="cls-2"><path d="M110.1,75.4v-8h1.6l2.2,6.1,2.3-6.1h1.4v8h-1.1V68.9l-2.2,5.9h-1.1l-2.1-6v6.6Z"/><path d="M122,75.5a2.8,2.8,0,0,1-2-.8,3.3,3.3,0,0,1-.7-2.3,3.1,3.1,0,0,1,.7-2.2,2.4,2.4,0,0,1,2-.8,2.5,2.5,0,0,1,2.1.8,3.1,3.1,0,0,1,.7,2.2,3.3,3.3,0,0,1-.7,2.3A2.9,2.9,0,0,1,122,75.5Zm0-.8c1.1,0,1.7-.8,1.7-2.3s-.5-2.2-1.7-2.2-1.6.7-1.6,2.2S120.9,74.7,122,74.7Z"/><path d="M126.6,75.4V69.5h1v1.1a2.3,2.3,0,0,1,2-1.2,1.6,1.6,0,0,1,1.6,1.2,2.3,2.3,0,0,1,2-1.2,1.6,1.6,0,0,1,1.2.4,1.7,1.7,0,0,1,.4,1.3v4.3h-1.1V71.3c0-.7-.2-1-.8-1a2.3,2.3,0,0,0-1.7,1.1v4h-1.1V71.3c0-.7-.2-1-.8-1a2.3,2.3,0,0,0-1.7,1.1v4Z"/><path d="M141.2,75.2l-1.8.3a2.6,2.6,0,0,1-2.1-.9,2.7,2.7,0,0,1-.8-2.2,3.2,3.2,0,0,1,.7-2.2,2.2,2.2,0,0,1,1.8-.8,2.1,2.1,0,0,1,1.7.7,3.4,3.4,0,0,1,.5,2.2v.3h-3.7q.3,2.1,2.1,2.1a3.7,3.7,0,0,0,1.6-.4Zm-3.6-3.4h2.6c0-1.1-.4-1.6-1.2-1.6S137.7,70.7,137.6,71.8Z"/><path d="M143.1,75.4V69.5h1.1v1.1a2.6,2.6,0,0,1,2.1-1.2,1.3,1.3,0,0,1,1.2.5,1.6,1.6,0,0,1,.4,1.2v4.3h-1V71.5a1.7,1.7,0,0,0-.2-.9.9.9,0,0,0-.7-.3c-.6,0-1.2.4-1.8,1.3v3.8Z"/><path d="M151.8,75.5a1.7,1.7,0,0,1-1.2-.5,1.7,1.7,0,0,1-.5-1.3V70.3h-.7v-.8h.7V68.4h1.1v1.2h1.5v.8h-1.5v3.2c0,.8.3,1.2,1,1.2h.5v.8Z"/></g><g class="cls-3"><path d="M1,56.9c.1.2-.1.4-.3.4S.3,57.2.2,57h0v-.2a5.1,5.1,0,0,0-.2-.9c0-.2.1-.4.3-.4a.3.3,0,0,1,.5.3c.1.4.2.7.2.8v.2H1M.3,43.5a.4.4,0,0,1,.4-.4.4.4,0,0,1,.4.4v1.8c0,.9,0,2-.1,3.1v6.1A7.5,7.5,0,0,0,1,56v.8H1a.3.3,0,0,1-.3.5c-.2.1-.4-.1-.5-.3h0a5.1,5.1,0,0,0-.1-1V54.5c0-.3.1-.7.1-1V48.4a30.1,30.1,0,0,1,.1-3.1V43.5"/><path d="M1.4,51.1a.4.4,0,0,1,0-.8H48.9a.4.4,0,0,1,0,.8Z"/><path d="M48.2,44a.4.4,0,0,1,.4-.4.4.4,0,0,1,.4.4h0v.3c0,.4-.1.9-.1,1.4s-.4,4.1-.5,5.7V55h-.1s-.2-.1-.1-.1h-.3c.1,0-.1.1-.1.1h0a.5.5,0,0,1,.6-.2c.2.1.2.4.1.6s0,.1-.2.2-.1.1-.3.1-.3-.1-.3-.2a.5.5,0,0,1-.1-.5V51.5c0-1.7.4-3.9.5-5.8V44.4c0-.1,0-.3.1-.3h0m.8.5a.4.4,0,0,1-.4.4c-.3,0-.4-.1-.4-.4V44h0c-.1-.2.1-.4.4-.4a.4.4,0,0,1,.4.4h0v.5"/><path d="M53.8,38.8a.4.4,0,0,1,.8,0V61.2a.4.4,0,1,1-.8,0Z"/><path d="M80.4,44.8c-.1-.2.1-.4.3-.5s.5.2.5.4h0v.2a1.1,1.1,0,0,1-.1.5v1.4c0,2.8-.3,4.9,0,6.8a.3.3,0,0,1-.3.5.5.5,0,0,1-.5-.3,40.7,40.7,0,0,1,0-7V45.4a1.3,1.3,0,0,1,.1-.6h0m.8,0a.5.5,0,0,1-.5.4.3.3,0,0,1-.3-.5h0c0-.2.3-.3.5-.2s.3.2.3.5h0"/><path d="M87.8,39.6a.4.4,0,1,1,.8,0V61a.4.4,0,0,1-.8,0Z"/><path d="M54.2,51.1a.4.4,0,0,1,0-.8H80.6a.4.4,0,1,1,0,.8Z"/><path d="M88.2,51.1a.4.4,0,1,1,0-.8H196.5a.4.4,0,0,1,0,.8Z"/><path d="M225,51.1a13.3,13.3,0,0,0-2-7.1,14,14,0,0,0-12.1-6.9,14.2,14.2,0,0,0-7.1,1.9,14,14,0,0,0-6.9,12.1,14.2,14.2,0,0,0,1.9,7.1,14,14,0,0,0,12.1,6.9,14.2,14.2,0,0,0,7.1-1.9,13.9,13.9,0,0,0,7-12.1m.8,0a14.9,14.9,0,1,1-29.7,0,14.6,14.6,0,0,1,7.3-12.8,14.8,14.8,0,0,1,7.5-2.1,15,15,0,0,1,12.9,7.4,15.8,15.8,0,0,1,2,7.5"/><path d="M205.6,52.7c0-.3.1-.5.3-.5s.5.1.5.3h0s-.2-.1-.1-.1-.3,0-.2,0h-.2l.2-.4,1.3-2.5,1.5-2.1a5,5,0,0,1,.8-1.2c.1-.3.3-.4.5-.6s.1-.1.3-.2h.4c.1.1.2.2.2.3a3.4,3.4,0,0,1,0,2,4.4,4.4,0,0,0-.2,1,.8.8,0,0,0,0,.7v.3h0c0,.1-.2-.1-.1-.1h0l.4-.3,1.1-.8,1.1-1a.9.9,0,0,1,.6-.3.6.6,0,0,1,.7.1c.1.1.2.2.2.3v.7c0,1.1-.3,2.2-.2,2.9a.5.5,0,0,1-.4.5.4.4,0,0,1-.4-.4c-.1-.9.2-2,.2-3v-.4h.1l-.3.2a5.5,5.5,0,0,1-1.1,1,3.4,3.4,0,0,1-1.2.9.9.9,0,0,1-.6.3.6.6,0,0,1-.7,0,.4.4,0,0,1-.2-.4v-.2a2,2,0,0,1,0-1.1c.1-.3.1-.6.2-.9a12.6,12.6,0,0,0,.1-1.6h0s.2.1.1.1.2,0,.2,0h0l-.4.5-.8,1.1c-.5.8-1.1,1.6-1.4,2.2s-.8,1.6-1.2,2.4a2.1,2.1,0,0,0-.4.6l-.2.2h-.4c-.2,0-.2-.1-.3-.2v-.2"/><path d="M204.8,56.4a.4.4,0,0,1,0-.8H217a.4.4,0,1,1,0,.8Z"/><path d="M225.9,51.3a.4.4,0,1,1,0-.8h47.5a.4.4,0,0,1,0,.8Z"/><path d="M273.8,46.1a.5.5,0,0,1-.3.5c-.3,0-.5-.1-.5-.4h.6c0,.1.1-.1.1-.1h0v.6c0,1.5-.1,3.6-.2,5.5v4h0c0,.1-.1,0-.1,0s0-.1,0-.1h-.1c.1.1-.3,0-.2,0h-.2c.1,0-.1.1-.1.1h-.1a.4.4,0,0,0,.1-.3.5.5,0,0,1,.5-.4c.2.1.4.3.3.5s0,.3-.1.4h0s0,.1-.2.2a.5.5,0,0,1-.5,0c-.2-.2-.1-.3-.1-.4V54.5a19.2,19.2,0,0,1,0-2.4c.1-1.8.2-4,.2-5.4v-.8a.1.1,0,0,1,.1-.1c.1-.1.4-.2.5-.1s.2.2.3.2v.2"/><path d="M37.6,29.7c-.2,0-.5-.1-.5-.3s.1-.5.3-.5h0l.7-.8,1.5-1.9a15.2,15.2,0,0,1,1.7-1.8l.6-.6a.6.6,0,0,1,.6,0,.5.5,0,0,1,.2.4.8.8,0,0,1,0,.7,10.7,10.7,0,0,1-.7,1.9l-.2.6h0a.4.4,0,1,1,0,.8l-.5-.2a.5.5,0,0,1-.3-.5,2.9,2.9,0,0,1,.2-.9,8.3,8.3,0,0,0,.7-1.8v-.3H42c-.1-.1.2,0,.2,0h.1l-.4.4-1.7,1.8-1.5,1.9-.5.7-.6.4"/><path d="M46.6,23.7c-.2.2-.4.3-.6.1s-.3-.3-.1-.5a2.3,2.3,0,0,1,1.4-.9H48a1.7,1.7,0,0,1,1.1.4.8.8,0,0,1,.2.8,1.6,1.6,0,0,1-.3.9,10.8,10.8,0,0,1-1.1,1.8c-.6.8-1.2,1.3-1.5,1.7a.3.3,0,0,1-.1.2h0l.3.2a14.3,14.3,0,0,0,2,.5.3.3,0,0,1,.3.5c0,.2-.2.3-.4.3a9.8,9.8,0,0,1-2.2-.6c-.3-.1-.6-.2-.7-.5a1.3,1.3,0,0,1-.1-.6c.1-.1.1-.3.2-.4s1-1.1,1.5-1.8l1.1-1.6a2.5,2.5,0,0,0,.2-.7h0c0-.1-.3-.2-.5-.2h-.6a1.2,1.2,0,0,0-.8.5"/><path d="M53.4,24.2a.4.4,0,1,1,.8,0h0v1.1a14.7,14.7,0,0,0,0,2.1c.1.4.1.7.3.9l.4.2h.2l.5-.5,1.1-1.7c.5-.6.9-1.3,1.4-1.8a2.9,2.9,0,0,1,1.8-1.1c.2-.1.4.1.4.3s-.1.5-.3.5-.8.3-1.3.8l-1.3,1.8-1.2,1.7-.6.7-.8.2a1.2,1.2,0,0,1-.9-.5,1.5,1.5,0,0,1-.5-1.3,16.2,16.2,0,0,1,0-2.2V24.2h0m.8,0a.4.4,0,1,1-.8,0h0a.4.4,0,1,1,.8,0h0"/><path d="M81.8,31.9a.7.7,0,0,1,.1.6c-.2.2-.4.3-.6.1s-.4-.5-.4-.7a1.1,1.1,0,0,1,.3-.8,6.7,6.7,0,0,1,1.3-2l2.3-2.3.9-.7h.8a.8.8,0,0,1,.3.8,6,6,0,0,1-.6,2.2,3.2,3.2,0,0,0-.1.8c0,.1-.1,0-.1.1s0-.1,0-.1h0a.4.4,0,0,1,.4.4.4.4,0,0,1-.4.4.7.7,0,0,1-.6-.2,1.7,1.7,0,0,1-.2-.5,4.3,4.3,0,0,1,.2-1.1,8.2,8.2,0,0,0,.6-2h0c0-.1.1,0,0,0h.1l-.8.6a24.4,24.4,0,0,0-2.2,2.3,7.7,7.7,0,0,0-1.2,1.7,1.1,1.1,0,0,0-.1.5h0"/><path d="M89.7,26.1c-.2-.2-.3-.4-.2-.6s.4-.2.6-.1a2.9,2.9,0,0,1,1,1.2,3.2,3.2,0,0,1,.2,1.7c-.2.7-.8,1.1-1.1,1.6a1.1,1.1,0,0,0-.3.6h0c0,.1.2.1.4.2h1.5a.4.4,0,0,1,0,.8H90.1c-.2-.1-.5-.1-.7-.3l-.3-.3a.7.7,0,0,1-.1-.5,4.1,4.1,0,0,1,.5-.9,5.3,5.3,0,0,0,1-1.4,2.2,2.2,0,0,0-.1-1.1,2.9,2.9,0,0,0-.7-.8"/><path d="M95.9,25.6a.4.4,0,0,1,.7.5,10.3,10.3,0,0,0-.6,3.2,5.9,5.9,0,0,0,0,1.4h-.1l.8-.5a11.5,11.5,0,0,0,1.5-2l1.3-1.7a6.6,6.6,0,0,1,2.1-1.7.4.4,0,0,1,.4.8,4,4,0,0,0-1.8,1.4l-1.3,1.7-1.6,2.1a2.4,2.4,0,0,1-1.3.7h-.5l-.3-.3a3.7,3.7,0,0,1,0-1.8,15,15,0,0,1,.2-2.2,13.1,13.1,0,0,1,.5-1.5"/><path d="M123.1,46a.5.5,0,0,1-.3-.5c0-.2.2-.4.4-.3l.4-.2a4.6,4.6,0,0,0,.7-.7,15.4,15.4,0,0,0,1.8-2.3l1.5-2.2.2-.4h0s.1.1,0,.1.1,0,.1,0a2.8,2.8,0,0,0-1,1,8.3,8.3,0,0,0-1.4,2.2,3.9,3.9,0,0,0-.3,3.1c.2.2.4.4.6.4a1.2,1.2,0,0,0,1-.1.4.4,0,0,1,.3.7,2,2,0,0,1-1.5.2,2.1,2.1,0,0,1-1.1-.8c-.5-.9-.4-2.2.3-3.8a7.7,7.7,0,0,1,1.4-2.5c.5-.5.9-1.2,1.6-1.2a.4.4,0,0,1,.5.1c.2.1.3.2.3.4a.7.7,0,0,1-.1.6.8.8,0,0,1-.2.4c-.4.7-1,1.4-1.5,2.3a23.3,23.3,0,0,1-1.9,2.3,3.4,3.4,0,0,1-.8.9,1.7,1.7,0,0,1-1,.3"/><path d="M130.6,43.6c-.2.1-.5,0-.5-.2a.4.4,0,0,1,.2-.5l1-.2a7.5,7.5,0,0,1,1.5,0,.5.5,0,0,1,.3.5c-.1.2-.3.4-.5.3a9.8,9.8,0,0,0-2,.1"/><path d="M129.8,44.9c-.1-.2.1-.4.3-.4s.4.1.5.3v-.2h-.1c0,.1-.1,0,0,0h1.5a.7.7,0,0,1,.4.5c-.1.2-.3.4-.5.3h-1.7c-.1,0-.3-.1-.3-.4"/><path d="M137.6,40.1c-.2,0-.3-.2-.3-.4s.3-.4.5-.4a3.6,3.6,0,0,1,1.5.6,1.1,1.1,0,0,1,.3,1.1c-.1.5-.5.8-.8,1.2a5.2,5.2,0,0,0-1.1,1,2.1,2.1,0,0,0-.5,1.2H139a.4.4,0,1,1,0,.8h-2a.6.6,0,0,1-.6-.5,2.2,2.2,0,0,1,.7-1.9,6.3,6.3,0,0,1,1.1-1.2,1.5,1.5,0,0,0,.6-.7.4.4,0,0,0-.1-.3,2.8,2.8,0,0,0-1.1-.4"/><path d="M140.7,44.4c.3,0,.5.1.5.4a.4.4,0,0,1-.4.4h-.1a1.5,1.5,0,0,0-.3.7c-.1.2-.2.4-.1.5s0,.1.1.1.4.3.3.5a.3.3,0,0,1-.5.3.8.8,0,0,1-.7-.8,1.4,1.4,0,0,1,.1-.9l.4-.9.3-.3h.4"/><path d="M144.2,41.9c-.1.3-.3.4-.5.3a.4.4,0,0,1-.2-.5c.2-.5.4-1,.9-1.1l.8-.2a1.5,1.5,0,0,1,.7.3,1.3,1.3,0,0,1,.1.6,1.3,1.3,0,0,1-.5.9l-.7.5-.3.4c-.1.1,0-.1,0-.1h0l.3.4a2.1,2.1,0,0,1,.4.7,1.4,1.4,0,0,1-.2,1.4,1.1,1.1,0,0,1-.9.4h-.8c-.3-.1-.4-.3-.3-.5s.2-.3.5-.3h.9a.6.6,0,0,0,0-.6.9.9,0,0,0-.3-.6l-.3-.3a.8.8,0,0,1-.1-.7,1,1,0,0,1,.5-.7l.7-.7.3-.2h.1l-.7.2c-.2,0-.2.1-.4.5"/><path d="M148.1,42.5a.6.6,0,0,1,.6.1c.1.2.1.5-.1.6s-.3.4-.4.8-.1.5-.1.6a.4.4,0,0,0-.1.3h-.1c.1,0-.2-.1-.1-.1h-.2l.3-.4a7.6,7.6,0,0,1,.9-.9.9.9,0,0,1,.6-.3.6.6,0,0,1,.7.1.4.4,0,0,1,.1.3v.4a.5.5,0,0,0-.1.3c0,.1-.1,0,0,.1H150s-.2-.1-.1-.1h.1l.7-.5.7-.2a1.2,1.2,0,0,1,1,.4,1,1,0,0,1,.2,1,1.9,1.9,0,0,1-.2.8.4.4,0,0,1-.5.2.5.5,0,0,1-.3-.5,1.4,1.4,0,0,0,.2-.6c.1-.3.1-.3,0-.4h-.3l-.4.2-.6.3c-.3.2-.5.4-.8.3s-.3-.1-.3-.2a.3.3,0,0,1-.1-.2.5.5,0,0,1,0-.5c0-.1.1-.3.1-.4h.1c-.1,0,.1.2,0,.1h-.1a3,3,0,0,0-.8.8l-.4.4-.2.2a.1.1,0,0,1-.1.1c-.1,0-.3.1-.4,0a.4.4,0,0,1-.2-.3.4.4,0,0,1-.1-.3.6.6,0,0,1,.1-.4c0-.3.1-.5.1-.7a2.4,2.4,0,0,1,.7-1.3"/><path d="M142.6,40.4c.1.2-.1.4-.3.4s-.5-.1-.5-.4a.8.8,0,0,1,.2-.4c0-.1.1-.1.2-.2l.6-.2a3.3,3.3,0,0,1,1.4,0,2,2,0,0,1,1.1.3,1.6,1.6,0,0,1,.7.9.9.9,0,0,1-.1.7,1,1,0,0,1-.4.5,2.5,2.5,0,0,1-.8.5l-.4.3c-.1,0-.1.1-.1.2s-.1-.1,0-.1h0l.5.3a1.5,1.5,0,0,1,.6,2.3,1.3,1.3,0,0,1-.7.5,3,3,0,0,1-1.9.3.4.4,0,0,1-.4-.4.5.5,0,0,1,.5-.4l1.5-.2.4-.3a.4.4,0,0,0,.1-.3,1.1,1.1,0,0,0-.5-.8l-.5-.2-.2-.2h-.2c0-.1-.1-.2,0-.3a1.6,1.6,0,0,1,.3-.9l.6-.3.6-.4.3-.3h0a.5.5,0,0,0-.3-.4l-.8-.2a4.1,4.1,0,0,0-1.1,0l-.4.2h0"/><path d="M118.5,69a.4.4,0,0,1-.5.2.3.3,0,0,1-.3-.5,7.4,7.4,0,0,1,.8-1.6c.9-1.6,2.4-3.9,3.8-5.9a28,28,0,0,1,2.1-2.6l.3-.3h.1a.4.4,0,0,1,.5,0c.2.1.2.3.3.4v.5a21.8,21.8,0,0,1-.7,2.7c-.3.9-.5,1.7-.7,2.5a8.8,8.8,0,0,0-.3,2,1.3,1.3,0,0,0-.1.6l-.2.3h-.4c-.6,0-.9-.4-1.3-.7l-.8-.4-.5-.3h-.2c0-.1-.1-.1-.1-.3s0-.3.1-.4.5-.2.8-.2h1a8.1,8.1,0,0,0,2.2.1c.2-.1.4.1.5.3a.5.5,0,0,1-.3.5h-3.7c-.1,0,.1-.1,0-.1s.2-.2.1-.2,0-.2.1-.2-.1-.1-.1-.1h0l.5.2.8.5.9.6H123a1,1,0,0,1,.1-.4,9.5,9.5,0,0,1,.3-2.1l.7-2.5a26.7,26.7,0,0,0,.7-2.6v-.2h.5l-.3.2-2,2.6a63,63,0,0,0-3.8,5.8,7.5,7.5,0,0,0-.7,1.5"/><path d="M129.2,64.4a.5.5,0,0,1-.5-.4.4.4,0,0,1,.4-.4,10.2,10.2,0,0,1,3.9,0,.4.4,0,0,1,.4.4.7.7,0,0,1-.5.4,11.5,11.5,0,0,0-3.7,0"/><path d="M129.3,66.7a.4.4,0,0,1,0-.8,17.9,17.9,0,0,1,3.7-.2.4.4,0,0,1,.4.4.5.5,0,0,1-.5.4c-1.3-.2-2.7.3-3.6.2"/><path d="M123,65c0-.2.2-.4.4-.3a.3.3,0,0,1,.3.5c-.3,1.5-.6,3.2-.2,4.1s0,.4-.3.5a.4.4,0,0,1-.5-.2c-.5-1.3-.1-3.1.3-4.6"/><path d="M140.6,66.3c.2-.1.4.1.5.3a.5.5,0,0,1-.3.5h-.9a.8.8,0,0,1-.2-.5.8.8,0,0,1,.1-.4,11.1,11.1,0,0,1,1.2-1.5l2-2.2.9-.7a.9.9,0,0,1,.7,0,.8.8,0,0,1,.4.4,2.6,2.6,0,0,1,0,1.5,11.6,11.6,0,0,1-.4,1.8c-.1.6-.2,1-.2,1.2h0s-.1-.1,0-.1h-.2l.2-.2a.4.4,0,1,1,.5.7,1.5,1.5,0,0,1-.7.3.6.6,0,0,1-.6-.6,10.4,10.4,0,0,1,.2-1.5,10.3,10.3,0,0,0,.5-2.7h0l-.7.5a21.9,21.9,0,0,0-2,2.2l-1.1,1.3h0v-.2c0,.1-.1,0-.1,0h.3"/><path d="M147.4,62.8a.4.4,0,0,1-.5-.3c-.1-.2.1-.4.3-.5a2.7,2.7,0,0,1,2,.4,1.5,1.5,0,0,1,.6.9,1.4,1.4,0,0,1-.5,1l-.8.8-.6.9a.8.8,0,0,0,0,.7c0,.1.1.3.4.4a2.7,2.7,0,0,0,1.3,0,.5.5,0,0,1,.5.4.4.4,0,0,1-.4.4,3.1,3.1,0,0,1-1.7-.1,1.2,1.2,0,0,1-.9-.9,1.7,1.7,0,0,1,.1-1.2,2.8,2.8,0,0,1,.8-1.2,4.6,4.6,0,0,1,.7-.7c.2-.3.2-.4.2-.5s0-.2-.2-.3a1.9,1.9,0,0,0-1.3-.2"/><path d="M151.9,65.8a.4.4,0,0,1,.6.1c.1.2,0,.4-.2.6s-.1.1-.1.2a.4.4,0,0,0,.1.3h.7a2.8,2.8,0,0,0,1.2-1,1.3,1.3,0,0,0,.3-.7V65h0c-.1-.2-.5-.3-.9-.3h-.6a.1.1,0,0,0-.1.1.4.4,0,1,1-.8-.2c.1-.3.4-.5.6-.7h.8a2.2,2.2,0,0,1,1.6.5.8.8,0,0,1,.2.6,4.3,4.3,0,0,1-.1.5,3.6,3.6,0,0,1-.4.9,3.2,3.2,0,0,1-1.8,1.4h-.7c-.2-.1-.5-.1-.7-.3a1,1,0,0,1-.3-1,.9.9,0,0,1,.5-.8"/><path d="M159,65.5c.2,0,.3.3.2.5a.4.4,0,0,1-.5.2h0l-.2.4a1.1,1.1,0,0,0-.1.5h.4a5.9,5.9,0,0,0,1.1-.8,1.6,1.6,0,0,1,.8-.5h.4v.5a1.3,1.3,0,0,1,.1.6c-.1.2-.1.3,0,.4v.2h-.1c.1.1-.1,0-.1,0h.1l.5-.2,1.4-1h.8c.2.1.2.3.3.4v.7a1.2,1.2,0,0,0,.1.5h.2l1-.7.8-.3.4.2v.2l.2.3.2.4h.1l.3-.2.7-.2a1.9,1.9,0,0,1,.9.5,3.6,3.6,0,0,1,.4.9.4.4,0,1,1-.7.3c-.1-.2-.2-.5-.4-.6l-.2-.2H168l-.5.3h-.4l-.4-.2a2.1,2.1,0,0,1-.4-.6l-.2-.3h.2l-.4.2-1,.7-.5.2h-.3l-.4-.2a1.5,1.5,0,0,1-.4-1.1v-.4h0s.2.2.1.2h-.1a12.6,12.6,0,0,1-1.3.9l-.6.3h-.3a.6.6,0,0,1-.5-.2c-.2-.1-.2-.4-.3-.6v-1h0c0-.1.1.1.1,0s.2.1.1.1h.2l-.4.3a3.2,3.2,0,0,1-1.4,1h-.7l-.4-.2c-.1,0-.2-.2-.3-.4a2.8,2.8,0,0,1,.1-.9l.4-.7.4-.2h.5"/><path d="M171.3,60.2c-.2-.1-.2-.4-.1-.6a.7.7,0,0,1,.6-.1c0,.1-.1,0,0,0h.5a1.1,1.1,0,0,1,.8,0c.2.1.2.2.3.4v.3a1.4,1.4,0,0,1-.2.7c-.2.4-.6.5-.8.7l-.7.4-.3.2v.2h0a.1.1,0,0,0,.1.1l.6.2a7.6,7.6,0,0,1,1.6.6.5.5,0,0,1,.2.6.5.5,0,0,1-.6.1l-1.4-.5-.8-.3c-.2-.1-.5-.3-.5-.6a.8.8,0,0,1,.2-.8c.2-.2.3-.3.5-.3a1.8,1.8,0,0,1,.7-.5c.3-.2.5-.3.5-.4s.1-.2.1-.3h-.7c-.1,0-.4.1-.6-.1"/><path d="M206.3,21.1c-.2.2-.4.3-.6.1a.4.4,0,0,1-.2-.5,3.6,3.6,0,0,0,.6-1.5.8.8,0,0,0,0-.5h-.2a.4.4,0,0,0-.5,0,3.1,3.1,0,0,0-1.3.3,1.4,1.4,0,0,0-.7,1.2.9.9,0,0,0,.1.5l.8.8a1.8,1.8,0,0,1,.4.9,1.4,1.4,0,0,1-.2.7l-.5.5-1.2.7-2.1.5a.3.3,0,0,1-.5-.3.4.4,0,0,1,.2-.5,16,16,0,0,0,2.1-.5,2.7,2.7,0,0,0,1-.6l.3-.3h.1a.9.9,0,0,0-.3-.5l-.8-.9a2.9,2.9,0,0,1-.2-.9,2,2,0,0,1,1.2-1.9,3.8,3.8,0,0,1,1.5-.5h.8a.8.8,0,0,1,.6.4,1.4,1.4,0,0,1,.3,1.1,6.7,6.7,0,0,1-.7,1.8"/><path d="M212.1,17.3c0,.3-.1.5-.3.5s-.5-.1-.5-.3h.3l-.3.3a11.8,11.8,0,0,0-1.1,1.8,16.6,16.6,0,0,0-1.5,3.8c-.2.5-.3.9-.4,1.2l-.2.3a.5.5,0,0,1-.4.2h-.4l-.2-.2a6.1,6.1,0,0,1-.7-1.4,6.1,6.1,0,0,1-.5-1.2.8.8,0,0,1-.2-.6.9.9,0,0,1,.4-.7,2.5,2.5,0,0,1,1.7-.1h1.9a.4.4,0,0,1,.4.4.4.4,0,0,1-.4.4c-1.3.1-2.9-.2-3.2-.1h0a.4.4,0,0,1,.1.3,6.7,6.7,0,0,1,.6,1.2l.5,1.2h-.2l.4-1.1a24.8,24.8,0,0,1,1.5-4,23.6,23.6,0,0,1,1.3-2l.7-.4h.5a.8.8,0,0,1,.2.4"/><path d="M214.7,21.3a.4.4,0,0,1-.4.4.5.5,0,0,1-.5-.4h-.1l-.9.3a3.4,3.4,0,0,0-.8.9l-.2.4h.6l.6-.2h.5l.5.3a1.2,1.2,0,0,1,.1.8v.2a.5.5,0,0,1,.2.6c-.1.2-.3.2-.5.1a1.4,1.4,0,0,1-.6-.8v-.4h0l-.8.3h-1.2a.9.9,0,0,1-.3-.5,1.6,1.6,0,0,1,.3-.9,3.1,3.1,0,0,1,1.1-1.2,2.4,2.4,0,0,1,1.3-.5c.2.1.5.1.7.3s.2.4.3.7"/><path d="M215.8,23.2c.2-.1.5,0,.5.2s.1.4-.2.5l-.3.5h0s-.1-.1,0-.1h-.2c.1.1-.3.1-.2,0h-.2c.1,0,.1-.1.1-.2s.1-.5.2-.8a2.5,2.5,0,0,1,.1-.8,1.1,1.1,0,0,1,.7-.6l.9-.2,2.5-.3c.2,0,.4.1.4.3a.3.3,0,0,1-.3.5l-2.5.3h-.7c-.2.1-.2.1-.2.2s-.1.4-.1.7-.1.5-.2.7,0,.3-.1.4a.5.5,0,0,1-.3.4h-.5l-.2-.3a1.3,1.3,0,0,1,.1-.6,1.3,1.3,0,0,1,.7-.8"/><path d="M222.5,25a.3.3,0,0,1-.3.5.5.5,0,0,1-.5-.4V22.6l-.2-.3h0v-.3l.3-.2h.4a7.2,7.2,0,0,0,2.6.3c.2,0,.4.1.4.3a.3.3,0,0,1-.3.5,8.6,8.6,0,0,1-2.9-.3h.1c0,.1.2-.1.1-.1h.1a.8.8,0,0,1,.2.5c.1.2,0,.4,0,.6a2.4,2.4,0,0,1,0,1.2V25m2.3-7.9c0-.2.2-.3.5-.3a.4.4,0,0,1,.2.5,8,8,0,0,1-.8,1.7,17.9,17.9,0,0,0-1.2,2.4,18.6,18.6,0,0,0-.8,2.6c0,.3-.1.6-.1.8s0,.2-.1.2h0a.3.3,0,0,1-.3.5.5.5,0,0,1-.5-.4h0a.8.8,0,0,1,.1-.4,5.4,5.4,0,0,0,.1-.8,24.6,24.6,0,0,1,.8-2.7c.8-1.8,1.9-3.5,2.1-4"/><path d="M228.5,21.2c.2.1.4.3.3.5a.3.3,0,0,1-.5.3,1.9,1.9,0,0,0-.9.3,6.1,6.1,0,0,0-.7,1,1.4,1.4,0,0,0,0,.9l.3.2h.7c.3,0,.4.2.5.4a.4.4,0,0,1-.4.4,2,2,0,0,1-1.1-.2,1.8,1.8,0,0,1-.7-.5,1.8,1.8,0,0,1,0-1.6,2.4,2.4,0,0,1,.9-1.3,2.4,2.4,0,0,1,1.6-.5"/><path d="M228.8,22a.4.4,0,0,1,.5.2.4.4,0,0,1-.3.5,1,1,0,0,1-.8,0h0s.2-.2.2-.1,0-.3,0-.2h0l.2.2a.4.4,0,0,1,0,.6.5.5,0,0,1-.6,0c-.2-.2-.4-.3-.4-.6a.5.5,0,0,1,.3-.5h.9"/><path d="M229.9,24a.5.5,0,1,1,.9.1l-.2.5s0,.2-.3.2-.4-.1-.5-.2a2,2,0,0,1-.1-.7,3.6,3.6,0,0,1,.6-2.6,1.9,1.9,0,0,1,1.4-.7,5.1,5.1,0,0,1,2.3.4.4.4,0,0,1-.4.8,4.5,4.5,0,0,0-1.8-.4,1,1,0,0,0-.8.4,2.4,2.4,0,0,0-.5,2v.3h-.6V24"/><path d="M198.8,80.4a.4.4,0,0,1-.4.4.4.4,0,0,1-.4-.4,1,1,0,0,1,.4-.7l.6-.6.8-.7a5.2,5.2,0,0,1,1-1.1h.6a.7.7,0,0,1,.4.5c.1.4-.1.6-.3.9a4.1,4.1,0,0,1-.5.9,10.1,10.1,0,0,0-1.3,3.8.8.8,0,0,0,0,.7v.2h.7c1.1-.4,2.4-2.1,3.4-3.2l.8-.8.3-.2h.3a.2.2,0,0,1,.2.2c.2.2.2.3.2.4s-.1.2-.1.4-.6,1-.9,1.6a10.6,10.6,0,0,0-.5,2.3c0,.3,0,.6.1.7s.1.2.2.3a4.3,4.3,0,0,0,1.9-.1c.2-.1.4,0,.5.3a.5.5,0,0,1-.3.5,3.9,3.9,0,0,1-2.4,0,1.2,1.2,0,0,1-.7-.7,3.4,3.4,0,0,1-.1-1,6.5,6.5,0,0,1,.6-2.6c.3-.7.7-1.2.8-1.6v-.2h.4l-.7.8c-1,1.1-2.3,2.8-3.7,3.3a1,1,0,0,1-.7.2,1.1,1.1,0,0,1-.8-.2,2.5,2.5,0,0,1-.4-.7,2.8,2.8,0,0,1,.1-.9,14.2,14.2,0,0,1,1.4-4.1l.5-.9.2-.3h0s.1.1,0,.1h.2a5.8,5.8,0,0,1-.9,1l-.8.8-.5.4-.2.2"/><path d="M210.6,85.9c.1-.3.3-.4.5-.3a.5.5,0,0,1,.2.6c-.2.5-.5,1.6-.8,2.7l-.3,1.4a2.4,2.4,0,0,0-.2.8c-.1.1-.1.3-.2.4h0v-.2c0,.1-.1-.1-.1-.1h-.1c.1.1-.2,0-.2,0h-.2c0-.1,0-.1.1-.1s.1-.3.2-.5a14.9,14.9,0,0,1,2.3-2.8l1.2-1.1a1.8,1.8,0,0,1,1.2-.3.4.4,0,0,1,.3.5c0,.2-.3.3-.5.3a1.2,1.2,0,0,0-.6.2l-1.1,1a10.4,10.4,0,0,0-2.1,2.6c-.1.1-.1.3-.2.4s-.1.4-.4.5a.7.7,0,0,1-.6-.3v-.2a.1.1,0,0,1,.1-.1.6.6,0,0,1,.1-.4,2.4,2.4,0,0,1,.2-.8l.3-1.4a18.6,18.6,0,0,1,.9-2.8"/><path d="M212.3,89.4a.5.5,0,0,1,.3-.5c.2,0,.5.1.5.3a6,6,0,0,1,0,1.9c-.1.2,0,.4,0,.6l.5.4c.2,0,.3.3.2.5s-.3.3-.5.2a1.6,1.6,0,0,1-.9-.7,2,2,0,0,1-.2-1,5.2,5.2,0,0,0,.1-1.7"/><path d="M219.9,92.9a.4.4,0,0,1-.5.2c-.3-.1-.4-.3-.3-.5h-.3l-.5.3c-.2.2-.2.7-.2,1.1l.3,1.1c0,.1.2.2.2.5a.8.8,0,0,1-.3.8l-.6.4a.8.8,0,0,1-.7.1c-.2,0-.4-.1-.4-.3a.4.4,0,0,1,.1-.5c0-.2.3-.3.5-.2a.4.4,0,0,1,.2.5h0s-.2-.2-.1-.2h.1l.3-.3h.1l-.2-.3a5,5,0,0,1-.3-1.3,3,3,0,0,1,.3-1.6,1.6,1.6,0,0,1,1.2-.8l.9.4.3.4a1.3,1.3,0,0,1-.1.6"/><path d="M223.4,91.6a.4.4,0,0,1-.5.2c-.2-.2-.3-.4-.2-.6h0s.1.2,0,.1.1.2.1.1h.4l-.5.6a10.1,10.1,0,0,0-1.4,3.9v1c0,.2.1.2.1.2h.5a1.3,1.3,0,0,0,.8-1.1c0-.3.2-.4.5-.4s.4.2.3.4a2.1,2.1,0,0,1-1.3,1.9,1.7,1.7,0,0,1-1,.1,1.1,1.1,0,0,1-.7-.8,2.8,2.8,0,0,1,0-1.3,10.5,10.5,0,0,1,1.5-4.3,3,3,0,0,1,.8-.8h.2c.2,0,.5.1.5.3a.6.6,0,0,1-.1.6"/><path d="M221.9,94.5a.4.4,0,0,1,.2.5.5.5,0,0,1-.6.2l-.6-.3-.2-.2a1.1,1.1,0,0,1,.2-.5c.3-.1.3,0,.3,0h2.4a.4.4,0,0,1,.5.3.5.5,0,0,1-.3.5,6.8,6.8,0,0,1-2.5,0h.1v-.2h0s-.1-.3,0-.2h0l.4.2"/><path d="M197.7,73.4c-.3,0-.5-.2-.4-.4a.4.4,0,0,1,.4-.4l25.4.8a.4.4,0,0,1,.4.4.4.4,0,0,1-.4.4Z"/><path d="M221.9,72.1c-.2.1-.5,0-.5-.2s0-.5.2-.5a1.3,1.3,0,0,1,1.2.1l1,.6a2,2,0,0,1,.9.5.8.8,0,0,1,.1.8c0,.2-.2.3-.3.5L223.2,75c-.9.8-1.9,1.6-2,2a.4.4,0,0,1-.5.3c-.2,0-.3-.2-.3-.5s1.3-1.7,2.3-2.4l1.2-1.1.2-.3h0c0-.1-.3-.2-.7-.4l-.9-.5-.6-.2"/><path class="cls-4" d="M106,52.6a.4.4,0,0,1-.4.4c-.3,0-.4-.1-.5-.4h0V51.4a11,11,0,0,1-.2-1.8,8.5,8.5,0,0,1,0-1.6.5.5,0,0,1,.3-.5.5.5,0,0,1,.6-.2c.6,0,.9.5,1.2.7l.6.6.8.8a5.2,5.2,0,0,1,1,1.1l.4.4c0,.1,0,.2.1.2s.1,0,.1.3a.4.4,0,1,1-.8,0h0a20.1,20.1,0,0,0-1.4-1.6l-.8-.7-.6-.6-.7-.5h0a7.4,7.4,0,0,0,0,1.5c.1.6.1,1.2.2,1.8a3.7,3.7,0,0,0,.1,1.1h0m-.9-4.2a.4.4,0,0,1,.4-.4.5.5,0,0,1,.5.4v4.2a.4.4,0,0,1-.4.4c-.3,0-.4-.1-.5-.4V48.4m.9.1c0,.3-.2.4-.5.4a.4.4,0,0,1-.4-.4h0a.4.4,0,0,1,.4-.4.5.5,0,0,1,.5.4h0"/><path class="cls-4" d="M105.3,52.9c.3,0,.4.2.5.4a.4.4,0,0,1-.4.4.5.5,0,0,1-.5-.3c-.1-.2,0-.3.1-.4s.1-.2.3-.3a3.6,3.6,0,0,1,.9-.8l2-1.4a2.6,2.6,0,0,1,2.1-.2.3.3,0,0,1,.3.5.4.4,0,0,1-.5.2,2.2,2.2,0,0,0-1.5.3,10,10,0,0,0-1.9,1.2l-.9.8h-.1v-.2c0,.1-.2-.1-.1-.1s-.2-.1-.2-.1h-.1"/><path class="cls-4" d="M106.5,50.1a.5.5,0,0,1,.5,0,.5.5,0,0,1,.1.6c-.1,0,0-.1,0-.1h0a.3.3,0,0,0-.1.2,1.7,1.7,0,0,0-.2.5c0,.1,0,.1.1.2l.3.2a.7.7,0,0,1,.3.6.5.5,0,0,1-.6.2,1.5,1.5,0,0,1-.6-.5,1.1,1.1,0,0,1-.3-.8,1.4,1.4,0,0,1,.2-.7.4.4,0,0,0,.1-.3h.2m-.4-1a.4.4,0,1,1,.8,0h0v1.5c0,.1.1.2.1.3s.1.2.2.2H107c.1,0-.2.2-.2.1s-.1.1,0,.1h-.1v-.5c-.1-.3,0-.6-.1-.8v-.4a.3.3,0,0,1-.1-.2h-.1c0-.1.1,0,.1,0s.1.1.1.1a.5.5,0,0,1-.2-.6c0-.2.3-.3.5-.2s.2.2.2.3h0c.1,0,0,.1,0,.1v2.1h0s-.2-.1-.1-.1h-.6c.1,0,0-.5,0-.9v-.4h.2v1.5c0,.1.1.1.1.2h-.1c.1,0-.2-.1-.1-.1s-.3.1-.3.1-.1,0,0,0h-.1c.1,0,.1-.1.1-.2a1.9,1.9,0,0,0,.2-.7v-.3h.1a.4.4,0,0,1,0-.6.6.6,0,0,1,.6,0,.5.5,0,0,1,.1.5v.5a2.4,2.4,0,0,1-.2.9c-.1.2-.1.3-.2.4h-.1a.6.6,0,0,1-.6.1c-.2-.2-.2-.4-.3-.6v-.7a2,2,0,0,1,.1-1.5.7.7,0,0,1,.6-.3.7.7,0,0,1,.6.4,1.3,1.3,0,0,1,.1.6,1.9,1.9,0,0,1,0,1.3.4.4,0,0,1-.4.3c-.2,0-.3-.1-.3-.2v-.2a.9.9,0,0,1-.1-.5,4.8,4.8,0,0,1,0-1.2v-.8h0s.1.1,0,.1h.1s.1.1,0,.1.2.1.2.1l.3-.8c.3.1.3.2.3.3s.1.2.1.3.1.4.2.6v1.6h0v.2h-.3c-.3.1-.4-.1-.5-.2l-.3-.4a1.4,1.4,0,0,1-.2-.6,6.5,6.5,0,0,1,0-1.4v-.2h0m.8.7a.4.4,0,1,1-.8,0v-.7a.4.4,0,1,1,.8,0v.7"/><path class="cls-4" d="M108.5,51.8h.6a.6.6,0,0,1,0,.6c-.2.2-.2.1-.2.1h-.8a6.6,6.6,0,0,0-2.3.5.5.5,0,0,1-.6-.1.6.6,0,0,1,.1-.6,6.2,6.2,0,0,1,2.6-.6h.7c0-.1-.1.1-.1,0m-2.3,1.6c-.2,0-.5-.1-.5-.3s0-.5.2-.5l1.7-.6.8-.3h0c0-.1-.1.2-.1.1h0v.2h.1s.2.1.1.1l-1,.2h-.5s.1-.2.1-.1.1-.3.1-.2-.1-.3-.1-.2h-.1c.1,0-.1-.1-.1-.1h1.4c.1,0,.1,0,.1-.1h0c0-.1-.1,0-.1,0s0,.1,0,.1h0a.4.4,0,0,1,.4-.4c.3,0,.4.2.4.5v.2h-.3l-.7.2a2,2,0,0,1-1.1,0h-.2c-.1,0-.2,0-.3-.2a.3.3,0,0,1,0-.4.2.2,0,0,1,.2-.2.1.1,0,0,0,.1-.1h.6a5,5,0,0,1,1.3-.3h.2c.1,0,.1.1.2.2a.2.2,0,0,1,0,.3c0,.1,0,.1-.1.2l-.3.2-.8.3-1.7.6"/><path class="cls-4" d="M108.1,51c.2,0,.4.2.3.4a.4.4,0,0,1-.4.4.8.8,0,0,1-.8-.5,1.2,1.2,0,0,1-.2-.8,1.1,1.1,0,0,1,0-.6c-.1-.1,0,.1,0,.1h-1c-.1,0,.1-.1.1-.1s.1-.2.1-.1-.1-.1,0-.1a.3.3,0,0,0,.1.2l.3.4.5.3c.1,0,.2.1.2,0h-.1l-.3-.2-.6-.6h.1c-.1,0,.2-.1.1-.1s.2-.2.2-.1,0-.2,0-.2h0a3.5,3.5,0,0,0,.9.7.4.4,0,0,1-.3.7,3.1,3.1,0,0,1-1.2-.9c-.1,0-.1-.1-.2-.2v-.2a.8.8,0,0,1,.2-.4h.7a4.6,4.6,0,0,0,.7.7l.3.3h.1c0,.1.1.1.1.2v.3q-.1.3-.3.3h-.4l-.6-.2-.7-.4-.4-.6a.9.9,0,0,1-.3-.7l.3-.3h1.3l.4.2a.8.8,0,0,1,.5.5v.7a.7.7,0,0,0,.1.5s0,.1.2.1"/><path class="cls-4" d="M90.8,1.8a.5.5,0,0,1,.5-.3c.2.1.4.3.3.5a27.4,27.4,0,0,1-1,3.1,16,16,0,0,0-1,2.2c-.1.2-.3.2-.6.1s-.2-.3-.1-.5l.9-2.1a15,15,0,0,0,1-3"/><path class="cls-4" d="M89,.3a.4.4,0,0,1,.4.4.4.4,0,0,1-.4.4h-.5a.1.1,0,0,1-.1-.1s-.1.1-.2-.1a.5.5,0,0,1,0-.5c.1-.2.2-.2.2-.2h.9L94.2,0l2.4.2a3.2,3.2,0,0,1,.9.3l.6.5a.5.5,0,0,1-.2.6c-.2.1-.4,0-.6-.2l-.2-.2L96.4,1,94.2.8,89.3,1h-.4c-.1.1,0-.3,0-.2V.4H89"/><path class="cls-4" d="M85,7.7a.5.5,0,0,1,.6.1.3.3,0,0,1-.1.5,2.5,2.5,0,0,1-.8.5h-.1s.1-.1,0-.1h.1c0,.1-.1-.2,0-.1s-.2-.2-.1-.2h1.1l7.2-.2a.4.4,0,1,1,0,.8c-2.5,0-5.2.3-7.2.2H84.1c-.1,0-.2-.1-.2-.3s0-.3,0-.3V8.3l.3-.2.7-.4"/><path class="cls-4" d="M102.5,5.9a.4.4,0,0,1-.4-.4c-.1-.2.1-.4.3-.4s2.9.4,4.1.4a.4.4,0,1,1,0,.8c-1.5,0-3.1-.6-4-.4"/><path class="cls-4" d="M103.7,6.6a.3.3,0,0,1,.5.3c.1.2-.1.4-.3.5h-.2V7.2h.1a2.8,2.8,0,0,0,1.9-.3.5.5,0,0,1,.6.1.5.5,0,0,1-.2.6,3.4,3.4,0,0,1-2.5.4l-.5-.2a.6.6,0,0,1-.2-.5c-.1-.2.1-.4.2-.5l.5-.2"/><path class="cls-4" d="M109.1,8c-.2.2-.5.2-.6,0s-.2-.4,0-.6l1.9-1.8a12.5,12.5,0,0,1,1.9-1.5,2.4,2.4,0,0,1,.9-.6h.5a.6.6,0,0,1,.6,0,.6.6,0,0,1,.2.5v.3c-.1.2-.1.4-.2.6a8.8,8.8,0,0,1-.5,1.5,1.1,1.1,0,0,0-.1.5V7c.1.2.1.5-.1.6s-.4.1-.5,0a.9.9,0,0,1-.2-.8c0-.3.1-.5.1-.8l.6-1.4a.7.7,0,0,1,.1-.5h0s.1.1,0,.1.2.1.1,0h-.3l-.7.4A11.9,11.9,0,0,0,111,6.2,17,17,0,0,0,109.1,8"/><path class="cls-4" d="M117.4,4.8c-.2-.1-.4-.3-.3-.5s.2-.4.4-.3h1.1c.2-.1.5,0,.7,0s.5.2.6.4a.6.6,0,0,1,.1.4.4.4,0,0,1-.1.3l-.3.6a11.4,11.4,0,0,0-1.1,1.1l-1.2,1-.3.4h0l.6.2a2.7,2.7,0,0,0,1.5.2c.2-.1.4.1.5.3a.5.5,0,0,1-.3.5,4.6,4.6,0,0,1-2-.2l-.8-.4-.3-.4c0-.1-.1-.3,0-.5a1,1,0,0,1,.5-.6l1.2-1.1,1-1,.3-.4h0s.1.2,0,.1h-1.8"/><path class="cls-4" d="M126.2,4c.1.2,0,.4-.2.6s-.4,0-.5-.2.1.1,0,.1h-.8l-1,.5-.2.3h.3l1,.4a1.1,1.1,0,0,1,.6,1,1.6,1.6,0,0,1-.5,1,3.2,3.2,0,0,1-2.4,1.1.4.4,0,0,1,0-.8,2.4,2.4,0,0,0,1.8-.9.9.9,0,0,0,.3-.5h-.1l-1-.4-.5-.3-.2-.2a.6.6,0,0,1-.1-.4,2.2,2.2,0,0,1,.5-.8,2.7,2.7,0,0,1,1.3-.7h1.3c.1.1.3.1.4.3"/><path class="cls-4" d="M124.5,5a.4.4,0,0,1-.6,0c-.2-.1-.2-.4,0-.6a4.2,4.2,0,0,1,1.6-.9,2.6,2.6,0,0,1,2.1-.1c.2,0,.3.3.3.5a.5.5,0,0,1-.6.2,3.2,3.2,0,0,0-2.8.9"/><path class="cls-4" d="M128.6,4.9c.2-.1.4,0,.6.2s0,.4-.2.5a2.4,2.4,0,0,0-1.1,1.6,1.1,1.1,0,0,0,0,.8c0,.1,0,.2.1.2l.4.2a2.9,2.9,0,0,0,1.5-.6,7.1,7.1,0,0,0,1.5-1.5,2.2,2.2,0,0,0,.3-1c0-.2.1-.3.1-.4h-1.1l-1.1.4c-.2.1-.4.2-.6,0s-.2-.4-.1-.6a3.2,3.2,0,0,1,1.8-.6h1a1.4,1.4,0,0,1,.8.5.9.9,0,0,1,0,.9,2.3,2.3,0,0,1-.4,1.4,9.8,9.8,0,0,1-1.7,1.8,3.5,3.5,0,0,1-2.1.7c-.2-.1-.5-.1-.7-.3s-.4-.4-.5-.6a2.8,2.8,0,0,1,0-1.3,3.5,3.5,0,0,1,1.5-2.1"/><path class="cls-4" d="M136.8,10.2a.5.5,0,0,1-.5.4c-.2,0-.3-.2-.3-.4s.2-.5.4-.8l.9-1,3.9-4.3,2.1-2a1,1,0,0,1,.7-.4c.1,0,.4,0,.5.2a.9.9,0,0,1,.1.5,9.7,9.7,0,0,1-1,2.1,11.9,11.9,0,0,0-1.2,2.2,6.4,6.4,0,0,0-.5,1.7V9.6h0a.4.4,0,0,1-.4.4.5.5,0,0,1-.5-.3,2.4,2.4,0,0,1,.2-.9c0-.4.1-.8.1-1.2a.8.8,0,0,0-.2-.5l-.7-.4-1-.2a1.1,1.1,0,0,1-.6-.2c-.1-.1-.2-.1-.2-.3s0-.3,0-.4l.2-.2a3.1,3.1,0,0,1,1.4-.1l1.8.4c.2.1.4.3.3.5s-.3.4-.5.3a5.6,5.6,0,0,0-2.6-.3s.1-.1,0-.1h.1c0,.1.1-.1.1-.1h.1a7,7,0,0,1,1.2.3,1.6,1.6,0,0,1,.9.5,1.4,1.4,0,0,1,.5,1.1c0,.4-.1.9-.1,1.3a1.1,1.1,0,0,0-.1.5H141c0-.3.1-.4.1-.6V8.3a9,9,0,0,1,.5-1.9l1.2-2.3a9,9,0,0,0,1-1.8h0s.1.1,0,.1.2.1.2.1h.1l-.3.2-2,1.9c-1.4,1.5-2.8,3.2-3.9,4.3L137,10l-.2.2h0"/></g></svg>