<svg id="Ebene_1" data-name="Ebene 1" xmlns="http://www.w3.org/2000/svg" xmlns:xlink="http://www.w3.org/1999/xlink" viewBox="0 0 299.1 85.5"><defs><style>.cls-1{fill:none;}.cls-2{opacity:0;}.cls-3{clip-path:url(#clip-path);}.cls-4{fill:#ed3624;}</style><clipPath id="clip-path"><rect class="cls-1" x="-76.2" y="-93" width="419.5" height="297.64"/></clipPath></defs><g class="cls-2"><path d="M-1,50.9V49.5H1.7V38.6l-2.7.7V37.9l4.6-1.2V49.5H6.3v1.4Z"/></g><g class="cls-2"><path d="M81.1,29.2V28h1.3v1.2Zm0,8.2V30.5h1.3v6.9Z"/><path d="M84.8,37.4V30.5h1.3v1.3a2.7,2.7,0,0,1,2.3-1.5,1.8,1.8,0,0,1,1.9,1.5,2.7,2.7,0,0,1,2.3-1.5,2,2,0,0,1,1.5.6,2.1,2.1,0,0,1,.5,1.5v5H93.3V32.6q0-1.2-.9-1.2a2.9,2.9,0,0,0-2.1,1.4v4.6H89.1V32.6c0-.8-.4-1.2-1-1.2s-1.3.5-2,1.4v4.6Z"/></g><g class="cls-2"><path d="M108,52V50.6h2.8V39.7l-2.8.7V39l4.6-1.1V50.6h2.8V52Z"/></g><g class="cls-2"><path d="M155,48V46.8h2.3V37.7l-2.3.6V37.1l3.9-1V46.8h2.3V48Z"/><path d="M164.8,48V46.8h2.3V37.7l-2.3.6V37.1l3.9-1V46.8H171V48Z"/><path d="M174.2,48V46.7a6,6,0,0,0,2.2.4,2.1,2.1,0,0,0,1.8-.7,2.5,2.5,0,0,0,.7-1.8c0-1.8-1.2-2.6-3.6-2.6h-.9V36.4h5.9v1.3h-4.5v3.1a5.1,5.1,0,0,1,3.4,1,3.5,3.5,0,0,1,1.3,2.9,3.3,3.3,0,0,1-1.1,2.6,4.7,4.7,0,0,1-3.2,1Z"/><path d="M183.6,48V39.5h1.6v1.6a3.3,3.3,0,0,1,2.9-1.8,2.3,2.3,0,0,1,2.3,1.8,3.3,3.3,0,0,1,2.9-1.8,2.4,2.4,0,0,1,1.7.6,2.9,2.9,0,0,1,.6,1.9V48h-1.5V42c0-.9-.4-1.4-1.2-1.4s-1.6.5-2.5,1.7V48h-1.5V42c0-.9-.4-1.4-1.2-1.4s-1.6.5-2.5,1.7V48Z"/></g><g class="cls-2"><path d="M66.8,64.1v-1l4.6-5.4H67v-1h6v1l-4.6,5.4h4.7v1Z"/><path d="M79.8,64.1V62.7a2.9,2.9,0,0,1-2.6,1.6,2,2,0,0,1-1.5-.6,2.4,2.4,0,0,1-.6-1.7V56.7h1.4v4.9a2.2,2.2,0,0,0,.2,1.2,1,1,0,0,0,.8.3,2.9,2.9,0,0,0,2.3-1.6V56.7h1.4v7.4Z"/><path d="M83.8,64.1V56.7h1.3v1.4a2.9,2.9,0,0,1,2.6-1.6,2,2,0,0,1,2,1.6,2.8,2.8,0,0,1,2.5-1.6,1.9,1.9,0,0,1,1.5.6,2.1,2.1,0,0,1,.6,1.6v5.4H92.9V58.9c0-.9-.3-1.3-1-1.3s-1.4.5-2.2,1.5v5H88.3V58.9c0-.9-.3-1.3-1-1.3s-1.4.5-2.2,1.5v5Z"/></g><g class="cls-2"><path d="M165.1,65.4v-1h2.2V55.8l-2.2.5V55.2l3.6-.9V64.4h2.2v1Z"/><path d="M177.7,64.4a3.9,3.9,0,0,1-2.5,1.2,2.1,2.1,0,0,1-1.6-.6,1.9,1.9,0,0,1-.7-1.6,2.4,2.4,0,0,1,1.1-2,6.5,6.5,0,0,1,3.1-.7h.4v-.9a1.2,1.2,0,0,0-1.4-1.4,5,5,0,0,0-2.5.7V57.9a7.4,7.4,0,0,1,2.7-.6,2.8,2.8,0,0,1,2,.6,2.5,2.5,0,0,1,.6,1.9v3.6c0,.8.3,1.2.8,1.2h.3v.8l-1.1.2C178.3,65.6,177.9,65.2,177.7,64.4Zm-.2-.8v-2H177a3.6,3.6,0,0,0-1.9.4,1.4,1.4,0,0,0-.8,1.2,1.8,1.8,0,0,0,.4.9l.9.3A2.8,2.8,0,0,0,177.5,63.6Z"/><path d="M181.7,65.4V57.5h1.4V59a3,3,0,0,1,2.7-1.7A2.1,2.1,0,0,1,188,59a3,3,0,0,1,2.7-1.7,2.1,2.1,0,0,1,1.6.6,2.4,2.4,0,0,1,.6,1.7v5.8h-1.4V59.9c0-1-.4-1.4-1.1-1.4a3.1,3.1,0,0,0-2.4,1.6v5.3h-1.4V59.9c0-1-.4-1.4-1.1-1.4s-1.5.5-2.4,1.6v5.3Z"/></g><g class="cls-2"><path d="M219.7,70.9a9.3,9.3,0,0,1-3,.5,4.8,4.8,0,0,1-3.5-1.2,6.3,6.3,0,0,1,0-7.4,5,5,0,0,1,3.5-1.3,10.4,10.4,0,0,1,2.9.5v1.2a11.7,11.7,0,0,0-2.9-.7,2.9,2.9,0,0,0-2.4,1.1,4.2,4.2,0,0,0-.9,2.9,4.4,4.4,0,0,0,.9,2.9,3.4,3.4,0,0,0,2.6,1,3.6,3.6,0,0,0,1.4-.2V67.1h1.4Z"/><path d="M222,71.2V61.1h1.2V71.2Z"/><path d="M230,71.2V69.9a3,3,0,0,1-2.4,1.5,2,2,0,0,1-1.5-.6,2.5,2.5,0,0,1-.5-1.5v-5h1.3v4.5c0,.6,0,.9.2,1.1a.7.7,0,0,0,.7.4,2.8,2.8,0,0,0,2.2-1.5V64.3h1.3v6.9ZM226.6,63V61.9h1.1V63Zm2.5,0V61.9h1.1V63Z"/><path d="M233.7,71.2V61.1H235v4.5a2.7,2.7,0,0,1,2.4-1.5,1.7,1.7,0,0,1,1.4.6,2,2,0,0,1,.6,1.5v5h-1.3V66.6a3.1,3.1,0,0,0-.2-1.1,1,1,0,0,0-.8-.3,2.7,2.7,0,0,0-2.1,1.5v4.5Z"/><path d="M241.7,71.2V61.1H243V71.2Z"/><path d="M249,70.3a3.3,3.3,0,0,1-2.2,1.1,2,2,0,0,1-1.4-.6,1.6,1.6,0,0,1-.6-1.3,2.1,2.1,0,0,1,1-1.8,4.9,4.9,0,0,1,2.7-.6h.3v-.8a1.1,1.1,0,0,0-1.2-1.2,4.9,4.9,0,0,0-2.2.6V64.6a7.9,7.9,0,0,1,2.4-.5,2.1,2.1,0,0,1,1.7.6,1.8,1.8,0,0,1,.6,1.6v3.1c0,.7.2,1.1.6,1.1h.3v.7l-1,.2C249.5,71.4,249.2,71,249,70.3Zm-.2-.7V67.9h-.4a4.3,4.3,0,0,0-1.7.4,1.3,1.3,0,0,0-.6,1.1.9.9,0,0,0,.3.7,1.1,1.1,0,0,0,.8.3A2.3,2.3,0,0,0,248.8,69.6Z"/><path d="M252.6,71.2V64.3h1.2v1.3a2.7,2.7,0,0,1,2.4-1.5,2,2,0,0,1,1.9,1.5,2.6,2.6,0,0,1,2.3-1.5,1.7,1.7,0,0,1,1.4.6,2.1,2.1,0,0,1,.5,1.5v5h-1.2V66.4c0-.8-.4-1.2-1-1.2a2.7,2.7,0,0,0-2,1.4v4.6h-1.3V66.4q0-1.2-.9-1.2a2.6,2.6,0,0,0-2.1,1.4v4.6Z"/><path d="M264.7,73.7V64.3h1.2v1.3a2.5,2.5,0,0,1,2.3-1.5,2.4,2.4,0,0,1,2,.9,3.9,3.9,0,0,1,.7,2.5,4.1,4.1,0,0,1-.8,2.8,2.5,2.5,0,0,1-2.1,1.1,3,3,0,0,1-2.1-1v3.3Zm1.2-4.1a3.4,3.4,0,0,0,1.9.8q1.8,0,1.8-2.7c0-1.7-.5-2.5-1.6-2.5a2.9,2.9,0,0,0-2.1,1.2Z"/><path d="M277.9,71a10.3,10.3,0,0,1-2.2.4,3.4,3.4,0,0,1-2.5-1.1,3.6,3.6,0,0,1-.9-2.6,4.5,4.5,0,0,1,.8-2.6,3,3,0,0,1,2.2-1,2.2,2.2,0,0,1,1.9.9,4,4,0,0,1,.7,2.6v.3h-4.3c.1,1.7.9,2.5,2.4,2.5a5.4,5.4,0,0,0,1.9-.4Zm-4.3-4h3.1c0-1.3-.5-1.9-1.5-1.9S273.7,65.7,273.6,67Z"/></g><g class="cls-2"><path d="M210.6,86.2v-1h2v-8l-2,.5v-1l3.4-.9v9.4h2v1Z"/><path d="M218.4,86.2V85a9.8,9.8,0,0,1,2.4-3l.7-.6a3.8,3.8,0,0,0,1.5-2.7,1.7,1.7,0,0,0-.5-1.4,2,2,0,0,0-1.4-.5,5.1,5.1,0,0,0-2.5.9V76.5a5.4,5.4,0,0,1,2.7-.7,3.4,3.4,0,0,1,2.3.8,2.5,2.5,0,0,1,.9,2,3.4,3.4,0,0,1-.5,1.7,11.1,11.1,0,0,1-1.6,1.7l-.5.4A5.2,5.2,0,0,0,220,85h4.4v1.2Z"/><path d="M231.1,86.2V83.4h-4.6V82.3l4.6-6.2h1.3v6.2h1.3v1.1h-1.3v2.8Zm-3.3-3.9h3.4V77.7Z"/></g><g class="cls-2"><path d="M246.5,88.4V85.3h-4.9V84.2l4.9-6.7h1.4v6.6h1.4v1.2h-1.4v3.1ZM243,84.1h3.6V79.3Z"/><path d="M255.7,88.4V87.1a5.1,5.1,0,0,0,2,.4,2.1,2.1,0,0,0,2.3-2.3c0-1.7-1.1-2.5-3.3-2.5h-.8V77.5h5.5v1.3h-4.3v2.8a4.8,4.8,0,0,1,3.3,1,3.4,3.4,0,0,1,.1,5.1,4.5,4.5,0,0,1-3,.9A6.2,6.2,0,0,1,255.7,88.4Z"/><path d="M266.6,82.4A2.9,2.9,0,0,1,265,80a2.5,2.5,0,0,1,.9-2,3.6,3.6,0,0,1,2.4-.8,2.8,2.8,0,0,1,2.1.7,2,2,0,0,1,.9,1.7c0,1-.7,2-2.1,2.8,1.7.8,2.5,1.9,2.5,3.1a2.8,2.8,0,0,1-1,2.3,4.6,4.6,0,0,1-2.7.8,3.7,3.7,0,0,1-2.6-.8,2.7,2.7,0,0,1-1-2.1A4,4,0,0,1,266.6,82.4Zm.8.6a6.6,6.6,0,0,0-1.2,1.2,2.5,2.5,0,0,0-.3,1.3,2,2,0,0,0,.6,1.5,2.1,2.1,0,0,0,1.6.5,2.4,2.4,0,0,0,1.5-.4,1.8,1.8,0,0,0,.6-1.3,1.5,1.5,0,0,0-.4-1.1,6.7,6.7,0,0,0-1.4-1.1Zm1-1c1.1-.7,1.6-1.4,1.6-2.2a1.4,1.4,0,0,0-.5-1.1,2.1,2.1,0,0,0-1.4-.4,1.8,1.8,0,0,0-1.3.4,1.4,1.4,0,0,0-.5,1,1.6,1.6,0,0,0,.5,1.1Z"/><path d="M274,88.3V86.9a6.9,6.9,0,0,0,2.4.6,2.4,2.4,0,0,0,1.7-.6,2,2,0,0,0,.6-1.5c0-1.6-1-2.3-3.2-2.3H275v-1h.5q3,0,3-2.1c0-1.1-.7-1.7-2-1.7a6,6,0,0,0-2.4.6V77.6a11.8,11.8,0,0,1,2.5-.4c2.2,0,3.3.9,3.3,2.5s-.7,2.2-2.2,2.8c1.7.4,2.6,1.3,2.6,2.9a3,3,0,0,1-1,2.4,4.7,4.7,0,0,1-2.8.8Z"/><path d="M283.2,88.3V86.9a7.9,7.9,0,0,0,2.5.6,2.5,2.5,0,0,0,1.7-.6,2,2,0,0,0,.6-1.5c0-1.6-1-2.3-3.2-2.3h-.6v-1h.6q3,0,3-2.1c0-1.1-.7-1.7-2-1.7a6,6,0,0,0-2.4.6V77.6a10.9,10.9,0,0,1,2.5-.4c2.2,0,3.3.9,3.3,2.5s-.7,2.2-2.2,2.8c1.7.4,2.6,1.3,2.6,2.9a3.3,3.3,0,0,1-1,2.4,4.7,4.7,0,0,1-2.8.8Z"/><path d="M299.4,88.4l-1.1-3h-4.6l-1.2,3H291l4.3-10.9h1.6l4.2,10.9Zm-1.6-4.2L296,79.5l-1.9,4.7Z"/></g><g class="cls-3"><path d="M1,46.1a.3.3,0,0,1-.3.5.5.5,0,0,1-.5-.3h0a5.1,5.1,0,0,0-.2-.9.5.5,0,0,1,.3-.5c.2,0,.5.1.5.3a8.1,8.1,0,0,1,.2.9v.2H1M.3,32.8a.4.4,0,0,1,.4-.4.4.4,0,0,1,.4.4v1.8c0,.9,0,2-.1,3v6.2a7.5,7.5,0,0,0,0,1.5v.8H1a.4.4,0,0,1-.3.5.5.5,0,0,1-.5-.3h0a5.1,5.1,0,0,0-.1-1V43.8c0-.4.1-.7.1-1V37.6a29.1,29.1,0,0,1,.1-3V32.8"/><path d="M1.4,40.4a.4.4,0,0,1,0-.8H48.9a.4.4,0,0,1,0,.8Z"/><path d="M48.2,33.3c0-.3.1-.4.4-.4a.4.4,0,0,1,.4.4h0v.3c0,.4-.1.8-.1,1.4s-.4,4.1-.5,5.7v3.5h0s-.1-.1,0-.1h-.1c0,.1-.2,0-.1,0h-.3c.1,0-.1.1-.1,0s0,.1,0,.1h0a.5.5,0,0,1,.6-.2c.2.1.2.3.1.5s0,.2-.2.3H48c-.2,0-.3-.1-.3-.2a.5.5,0,0,1-.1-.5V40.7c0-1.6.4-3.8.5-5.7V33.7c0-.2.1-.3.1-.4h0m.8.5a.4.4,0,0,1-.4.4.4.4,0,0,1-.4-.4v-.5h0c-.1-.2.1-.4.4-.4a.4.4,0,0,1,.4.4h0v.5"/><path d="M53.8,28a.4.4,0,0,1,.8,0V50.5a.4.4,0,1,1-.8,0Z"/><path d="M157.3,40.4a.4.4,0,1,1,0-.8h39.2a.4.4,0,0,1,0,.8Z"/><path d="M225,40.4a13.3,13.3,0,0,0-2-7.1,13.9,13.9,0,0,0-12.1-7,13.9,13.9,0,0,0-14,14.1,14.1,14.1,0,0,0,14,14,14.2,14.2,0,0,0,7.1-1.9,14,14,0,0,0,7-12.1m.8,0a15,15,0,0,1-7.4,12.8,14.8,14.8,0,0,1-22.3-12.8,14.9,14.9,0,0,1,7.3-12.9,15.8,15.8,0,0,1,7.5-2,15,15,0,0,1,12.9,7.4,15.5,15.5,0,0,1,2,7.5"/><path d="M225.9,40.6a.5.5,0,0,1-.5-.4c0-.3.2-.4.5-.4h47.5a.4.4,0,0,1,.4.4.4.4,0,0,1-.4.4Z"/><path d="M273.8,35.4c0,.2-.1.4-.3.4a.3.3,0,0,1-.5-.3h0c0-.1.2.1.2.1s.2,0,.1,0h.4V36c0,1.5-.1,3.6-.2,5.5v4h0s-.1-.1-.1,0,0-.1,0-.1h-.1c.1.1-.3-.1-.2,0h-.2c.1,0-.1.1-.1.1h-.1c.1-.1,0,0,0-.1s.1-.1.1-.3a.5.5,0,0,1,.5-.3c.2.1.4.3.3.5s0,.3-.1.4h0l-.2.2a.5.5,0,0,1-.5,0c-.2-.3-.1-.3-.1-.4V43.8a19.2,19.2,0,0,1,0-2.4c.1-1.8.2-4,.2-5.4v-.7h0a.3.3,0,0,1,.1-.2c.1,0,.4-.2.5-.1s.2.3.3.3v.2"/><path d="M109.8,33.9a.4.4,0,0,1,0-.8h47.5a.4.4,0,1,1,0,.8Z"/><path d="M109.8,47.5a.4.4,0,0,1,0-.8h47.5a.4.4,0,1,1,0,.8Z"/><path d="M157,33.8a.4.4,0,0,1,.4-.4.4.4,0,0,1,.4.4c0,1.6,0,3.5-.1,5.6v6c0,.5-.1,1-.1,1.2a.1.1,0,0,0,.1.1s-.1-.1-.1,0-.1-.2,0-.1-.2-.1-.1-.1H157c.1-.1,0,.1,0,0h0v-.2c.1-.2.3-.4.5-.3s.4.3.3.5a.4.4,0,0,1-.1.3.1.1,0,0,1-.1.1c0,.1-.1.2-.3.2a.4.4,0,0,1-.4-.2V45.4a13.4,13.4,0,0,0,.1-2v-4c.1-2.1.1-4,.1-5.6"/><path d="M110,47.6c-.2.2-.4.1-.6-.1a.3.3,0,0,1,.1-.5h-.1v-.5c0-.2.2-.3.4-.3a.4.4,0,0,1,.4.4v.6h-.1s.1.1-.1.2m-1-13.7a.5.5,0,0,1,.5-.4.5.5,0,0,1,.3.5h0v.3c.1,2.2,0,5.1.2,6.9s-.1,2.1,0,3.2.1.8.1,1.2a8.2,8.2,0,0,1,.1,1.4h-.1c.1,0,0-.1,0-.1H110c.2.1.2.4.1.6a.6.6,0,0,1-.6,0c-.3-.2-.2-.2-.2-.3h0V45.8c0-.4-.1-.8-.1-1.3s0-2.1-.1-3.1,0-4.8-.1-6.9v-.6h0m.9.4a.5.5,0,0,1-.1.6c-.2.1-.4.1-.5-.1a1,1,0,0,1-.3-.8h0a.5.5,0,0,1,.4-.5.4.4,0,0,1,.4.4h0a1,1,0,0,0,.1.4"/><path d="M54.2,40.4a.4.4,0,0,1,0-.8h55.6a.4.4,0,0,1,0,.8Z"/><path d="M69,52.7a.4.4,0,0,1,0,.6c-.1.2-.4.2-.6,0a.8.8,0,0,1-.2-.6c0-.2.1-.3.2-.5l.8-.4a3,3,0,0,1,1.3-.2,1.2,1.2,0,0,1,.8.1c.1.2.2.3.2.5v.3a2.5,2.5,0,0,1-.4.7L70,54.7c-1,1.1-2.2,2.1-2.7,2.7l-.2.2H68a7,7,0,0,1,3.5,1.2.4.4,0,0,1,.1.6c-.1.2-.3.2-.5.1A5.8,5.8,0,0,0,68,58.4a2.7,2.7,0,0,1-.9,0l-.6-.2a1.4,1.4,0,0,1-.2-.6c0-.3.2-.5.4-.8s1.7-1.6,2.6-2.6a6,6,0,0,0,1.1-1.4c.2-.2.2-.4.3-.5h0s.2.1.1.1h-.3l-1,.2-.5.2h0"/><path d="M81.4,53.8a.5.5,0,0,1,.3.5c-.1.2-.3.4-.5.3h.3c-.1.1,0,0,0,.1s-.1.1-.2.3a10.4,10.4,0,0,0-.4,1,3.8,3.8,0,0,0-.1,1v.3h0c.1,0-.1-.1,0-.1s-.2-.1-.1-.1h-.1l.4-.2a4.1,4.1,0,0,0,1-.9,2.3,2.3,0,0,0,.7-.7l.5-.3a.4.4,0,0,1,.5-.1.5.5,0,0,1,.5.3c.2.3.1.5.1.8v.9h.3l1.1-.7.5-.3a1.2,1.2,0,0,1,1,.3.7.7,0,0,1,.2.6,4.3,4.3,0,0,1-.1.5v.4h0c.1.1-.1,0-.1,0h.1l.6-.4,1.2-.8.6-.2a1,1,0,0,1,.7.4.8.8,0,0,1,.2.5,2,2,0,0,1,0,.8h.1l1.3-.7,1-.4a1.1,1.1,0,0,1,.7-.1c.2,0,.3.2.4.3s.1.3.1.4v.7c-.1.5-.1,1,0,1a.6.6,0,0,1-.1.6c-.2.1-.5.1-.6-.1a3,3,0,0,1-.2-1.6.4.4,0,0,0,0-.5h0s.1.1.1,0h-.3l-.7.3-.9.5c-.3.2-.5.4-.9.3l-.5-.2-.3-.5c0-.4.1-.6,0-.7s0-.2-.1-.2h.1l-.3.2-1.1.7-.7.4a.5.5,0,0,1-.4.2h-.5a.9.9,0,0,1-.3-.6v-.6c0-.2.1-.3.1-.4v-.2h-.2l-.3.2c-.3.2-.8.9-1.5.8a1.3,1.3,0,0,1-1-.4,2.5,2.5,0,0,1-.1-.8v-.9h0l-.2.2a4.6,4.6,0,0,1-.7.7,5.8,5.8,0,0,1-1.2,1c-.2.2-.3.3-.5.3s-.3.1-.4,0-.3-.1-.4-.3A1.5,1.5,0,0,1,80,57a6.2,6.2,0,0,1,.1-1.3c.1-.4.3-.8.4-1.2l.3-.4c0-.1.1-.1.1-.2h.5"/><path d="M98.7,51.8c-.2.1-.5.1-.6-.1s-.1-.5.1-.6a2.2,2.2,0,0,1,1.4-.2h.6l.5.2a.5.5,0,0,1,.3.5.6.6,0,0,1-.4.6c-.1.2-.3.3-.4.4a2.8,2.8,0,0,0-.7.9.3.3,0,0,0-.1.2l.2.2a3.8,3.8,0,0,0,1.9,0c.3,0,.5.1.5.3s-.1.5-.3.5a3.7,3.7,0,0,1-2.4-.1,1.1,1.1,0,0,1-.7-.6,1,1,0,0,1,.2-.9,7.6,7.6,0,0,1,.8-1.1l.5-.4h.1c0-.1.1.1.1.1H98.7"/><path d="M167.1,58.9a.4.4,0,0,1,.1.6.3.3,0,0,1-.5.1c-.2-.2-.3-.4-.2-.6s.1-.2.1-.3a1.7,1.7,0,0,1,.6-.6,11.2,11.2,0,0,1,1.9-1.8,37.3,37.3,0,0,1,3-2.6l2.1-1.5h.6l.3.2a1,1,0,0,1,0,.9,3.6,3.6,0,0,1-.4.9,17.1,17.1,0,0,1-1.3,2.3c-.2.3-.4.5-.4.6h0c0,.1-.2-.1-.1-.1h-.1c.2,0,.4.2.3.4a.4.4,0,0,1-.4.4.7.7,0,0,1-.5-.4c-.1-.2,0-.4,0-.5a4.1,4.1,0,0,1,.5-.9,23.9,23.9,0,0,0,1.3-2.1,4.1,4.1,0,0,0,.3-.8.4.4,0,0,0,.1-.3h0c0-.1.2.1.1.1s.2,0,.1,0h0l-2,1.3-3,2.6-1.9,1.7-.4.6h0s-.1-.2,0-.1-.1-.2-.1-.1h-.1"/><path d="M178.3,55.8a.4.4,0,0,1,.6.1.5.5,0,0,1-.1.6,2.2,2.2,0,0,0-.9.7c-.1.2-.2.3-.2.4a.5.5,0,0,0,0,.4h0l.5-.2,1.1-.8.6-.4a.6.6,0,0,1,.6,0,1.2,1.2,0,0,1,.5.5,1.8,1.8,0,0,1-.2,1.3v.4c0,.1-.1-.1,0-.1h.1l.8-.3,1.2-.8a.7.7,0,0,1,.6-.2c.2,0,.5.2.5.4s0,.8,0,1V59h0a4.7,4.7,0,0,1,1-.6l.6-.2.6.2c.2.2.2.3.2.4v.5c0,.1-.1-.1-.1-.1h-.1a.1.1,0,0,1,.1-.1l.6-.2h1q.3.2.3.3v.5a1.3,1.3,0,0,0,.1.6.3.3,0,0,1-.1.5c-.2.2-.4.1-.6-.1a1.2,1.2,0,0,1-.2-1v-.3h0c0-.1.3.2.2.1h-.4l-.7.2h-.6l-.2-.2a1.8,1.8,0,0,1-.1-.6h0c0-.1.1.1.1.1a.1.1,0,0,0-.1-.1h-.2c-.4.2-.8.7-1.5.7a.8.8,0,0,1-.6-.4,1.5,1.5,0,0,1-.1-.7.9.9,0,0,1,.1-.5h0s.1.1,0,.1.2,0,.2,0h-.1l-1.3.8a2.5,2.5,0,0,1-1.1.4c-.2,0-.3.1-.5,0a.8.8,0,0,1-.5-.5v-.7l.2-.9h0l-.4.3-1.2.8-.7.3h-.4l-.4-.2a1.3,1.3,0,0,1-.2-1.2,1.6,1.6,0,0,1,.4-.7,2.2,2.2,0,0,1,1-.9"/><path d="M191,54.4c-.3,0-.5-.1-.5-.3a.3.3,0,0,1,.3-.5,3.2,3.2,0,0,1,1.9.3l.8.2.4.3a1.3,1.3,0,0,1,.1.6l-.4.5-.5.3-1,.5a.3.3,0,0,0-.1.2s0,.1.2.2a3.7,3.7,0,0,0,2.1.2c.2-.1.4.1.5.3s-.2.5-.4.5a4.3,4.3,0,0,1-2.7-.4.8.8,0,0,1-.5-.8,1.2,1.2,0,0,1,.4-.8,2.4,2.4,0,0,1,1.1-.6l.4-.3h-.6a3.7,3.7,0,0,0-1.5-.3"/><path d="M200.9,50.8a.4.4,0,0,1-.6,0,.6.6,0,0,1,0-.6l21-19.9a.5.5,0,0,1,.6.1.5.5,0,0,1,0,.5Z"/><path d="M200.7,30.2c-.2-.2-.2-.5,0-.6s.4-.1.6,0l18.8,21.9a.5.5,0,0,1-.1.6.3.3,0,0,1-.5-.1Z"/><path d="M209.2,80.7a.3.3,0,0,1-.3.5c-.2.1-.4-.1-.5-.3s.1-.2.1-.3v-.2a15.3,15.3,0,0,0,1.3-1.3c.6-.6,1.4-1.3,2.1-2.1l1.6-1.5,1.5-1.1.7-.2.3.3c.1.1.1.2.1.4a4.1,4.1,0,0,1-.5,1.6,14.2,14.2,0,0,1-.8,1.8,3.4,3.4,0,0,0-.4,1.3c0,.1-.1,0,0,0s-.2-.1-.2-.1h.2a.4.4,0,0,1,.5.2.5.5,0,0,1-.1.6,1.4,1.4,0,0,1-.9.1c-.3-.1-.4-.5-.4-.7a6.4,6.4,0,0,1,.6-1.6,19.9,19.9,0,0,0,1.2-3.1h.1l-1.4,1-1.5,1.5-2.1,2.1L209.2,81h.1c-.1.1-.1-.1-.1-.1m-.1-.5a.4.4,0,0,1,.5.2c.2.2.1.4-.1.5l-.4.3h-.5c-.2-.1-.2-.4-.1-.6a.3.3,0,0,1,.5-.1h-.3l.4-.2"/><path d="M218.5,75.7a.5.5,0,0,1-.5-.5.5.5,0,0,1,.5-.4H221l.6.2a.9.9,0,0,1,.3.7c.1.9-.7,1.6-1.4,2.4a23.5,23.5,0,0,0-1.9,2.2c-.1.1-.1.2,0,.2s.1.2.4.3a5.2,5.2,0,0,0,2.5,0,.5.5,0,0,1,.5.4.4.4,0,0,1-.4.4,5.6,5.6,0,0,1-2.9-.1,1.8,1.8,0,0,1-.9-.6,1.4,1.4,0,0,1,.1-1.1c.4-.7,1.3-1.3,2-2.2a6.6,6.6,0,0,0,1.2-1.9h-.2c-.2-.1-.5,0-.8,0h-1.6"/><path d="M228.2,74.4a.3.3,0,0,1-.3.5c-.2.1-.4,0-.5-.3h0c0-.1.1.1.1.1h.2c-.1-.1.2-.1.2-.1s.1,0,.1,0h0a2.4,2.4,0,0,0-.3.7,16.2,16.2,0,0,0-.7,4.4c0,.4-.1.6,0,.7h.1c.2-.1.3-.3.5-.6l1.3-1.8a13.2,13.2,0,0,1,3.6-3.5c.1-.2.4-.1.5.1s.1.4-.1.5a13.4,13.4,0,0,0-3.3,3.4l-1.3,1.8-.6.7a.9.9,0,0,1-.7.3l-.5-.2a.5.5,0,0,1-.3-.5,1.4,1.4,0,0,1,0-.9,18.4,18.4,0,0,1,.7-4.7,2,2,0,0,1,.4-.8q0-.2.3-.3c.1-.1.4,0,.5.1a.3.3,0,0,1,.1.2"/><path d="M242.3,71.7a.5.5,0,0,1-.6-.2.6.6,0,0,1,.3-.6c.1,0,.4,0,.5.2s.1.3.1.4a.6.6,0,0,1-.1.4,6.9,6.9,0,0,1-.6,1.3l-2.1,4.2-2.3,4.5c-.6,1.3-1.1,2.3-1.2,2.7s-.2.4-.4.3a.4.4,0,0,1-.4-.4,8.4,8.4,0,0,1,.4-1.2c.7-1.6,2-4,3.2-6.3s1.6-3,2.1-4.2a5.1,5.1,0,0,0,.5-1.2v-.2h.2c-.1-.1.2,0,.2,0h.1"/><path d="M247,73.7a.7.7,0,0,1,.5-.4.3.3,0,0,1,.3.5h0c.1.1.1.1.1.2v.5a5.4,5.4,0,0,1-.7,1.3,4.6,4.6,0,0,0-.8,1.3.9.9,0,0,0-.3.6v.2h0a1.7,1.7,0,0,0,.8-.2L248,77a.4.4,0,0,1,.5.2.3.3,0,0,1-.1.5l-1.3.7c-.5.2-1,.4-1.4.1a.7.7,0,0,1-.4-.5.6.6,0,0,1,0-.6l.3-.8.9-1.4.6-1V74c-.1-.1-.1-.1-.1-.2h0m.5.7a.5.5,0,0,1-.2.6.5.5,0,0,1-.5-.3,1.6,1.6,0,0,1,0-.7c.1-.3.1-.5.4-.6s.5-.1.6.1a.5.5,0,0,1-.2.6h.1c0,.1-.1.1-.1.2v.2h-.1"/><path d="M249.9,75.6a.4.4,0,0,1,.5-.2.3.3,0,0,1,.3.5,39.7,39.7,0,0,1-1.8,3.6,15.6,15.6,0,0,0-.7,1.7v.4l-.2-.2a.5.5,0,0,1,.5.4c0,.3-.2.4-.4.5a.9.9,0,0,1-.7-.5,2.2,2.2,0,0,1,0-.8l.8-1.8a33.6,33.6,0,0,0,1.7-3.6"/><path d="M252.6,80a.3.3,0,0,1,.5,0,.3.3,0,0,1,.1.5,6.3,6.3,0,0,0-1.5,3.2.4.4,0,0,1-.4.4c-.2.1-.4-.1-.4-.3a3,3,0,0,1,.4-1.8,13.7,13.7,0,0,1,1.3-2"/><path d="M259.3,76.4a.4.4,0,1,1-.8,0h.2l-.5.3c-.3.3-.7.6-.8.9a1.3,1.3,0,0,0-.1.6l.3.2a1.4,1.4,0,0,1,.8.5,1.6,1.6,0,0,1,.5,1.1,1.2,1.2,0,0,1-.6.8l-.8.5-.9.2a1.1,1.1,0,0,1-.8,0,.4.4,0,0,1-.2-.5.5.5,0,0,1,.5-.3c.1.1,0,0,.1,0l1-.2.6-.3.2-.3c.1-.1,0-.3-.2-.4a1.5,1.5,0,0,0-.6-.4c-.2-.2-.5-.3-.6-.7a1.4,1.4,0,0,1,.1-1.1,4.1,4.1,0,0,1,1-1.3l.8-.4a.7.7,0,0,1,.6.2.8.8,0,0,1,.2.5"/><path d="M258.3,76.4a.4.4,0,0,1-.7-.5c1.1-1.2,2.6-1,5.3-1.5.2,0,.4.1.4.3a.3.3,0,0,1-.3.5l-3.2.5a2.4,2.4,0,0,0-1.5.7"/><path d="M265.8,74.1a.4.4,0,0,1,.6,0,.3.3,0,0,1,0,.5v.2c-.1.2,0,.4,0,.7a7.4,7.4,0,0,0,.3,1.9,7.5,7.5,0,0,1-.1,3,2.3,2.3,0,0,1-1,1.3.6.6,0,0,1-.7.1c-.2,0-.3-.1-.5-.3a4.1,4.1,0,0,1-.7-1.1,5,5,0,0,1-.2-1.2,1.1,1.1,0,0,1,.5-1c1-.6,2.6-.7,3.8-1.2a2.6,2.6,0,0,0,1.2-1.1c.1-.1.1-.1,0-.3l-.4-.3a.7.7,0,0,0-.6-.1h-.4a.5.5,0,0,1-.6.1c-.2-.2-.2-.5,0-.6a1.6,1.6,0,0,1,1-.5,1.9,1.9,0,0,1,1,.3,1.1,1.1,0,0,1,.7.6,1.1,1.1,0,0,1,.1,1.1,3.5,3.5,0,0,1-1.7,1.4c-1.3.7-3,.8-3.6,1.2s-.2.1-.2.3a4.4,4.4,0,0,0,.2,1,1.3,1.3,0,0,0,.5.7h.2a1.9,1.9,0,0,0,.7-.8,6.3,6.3,0,0,0-.1-2.7,13.7,13.7,0,0,1-.2-1.9,2.8,2.8,0,0,1-.1-.9c.1-.2.1-.4.3-.6"/><path d="M273,75.7c-.2,0-.4-.2-.3-.4a.4.4,0,0,1,.4-.4h2.4a1.3,1.3,0,0,1,.9.5,1,1,0,0,1,.2.7,1.4,1.4,0,0,1-.2.6,2.8,2.8,0,0,1-.6.8l-.7.6c-.1.1-.1.3-.1.6a2.8,2.8,0,0,0,.1.9,4.3,4.3,0,0,1,.2,1.1.8.8,0,0,1,0,.7,1,1,0,0,1-.7.7,2.1,2.1,0,0,1-2-.5,1.1,1.1,0,0,1-.1-1.1.5.5,0,0,1,.6-.2.4.4,0,0,1,.2.5c-.1.2-.1.2,0,.3s.2.2.4.2a.6.6,0,0,0,.6,0h.2v-.4a4.4,4.4,0,0,0-.2-1,4.1,4.1,0,0,1-.1-1.1,1.4,1.4,0,0,1,.3-1.1c.2-.3.5-.4.7-.6l.4-.6.2-.4H273"/><path d="M280.4,77a.4.4,0,0,1-.5-.2c-.1-.2-.1-.4.1-.5a2.8,2.8,0,0,1,1.9-.4,1.5,1.5,0,0,1,.9.6.6.6,0,0,1,.1.4c0,.1-.1.2-.1.3l-.4.5a2.2,2.2,0,0,1-.6.5.9.9,0,0,0-.1.7c0,.5.5.9.7,1.6a1.1,1.1,0,0,1,.1,1.1,2.6,2.6,0,0,1-1.2.9,7.3,7.3,0,0,1-2.5.4.4.4,0,0,1-.4-.4.5.5,0,0,1,.4-.5,5.3,5.3,0,0,0,2.2-.3c.4-.1.7-.3.7-.4s.1-.3,0-.6a4.8,4.8,0,0,1-.8-1.6,1.4,1.4,0,0,1,.3-1.4c.2-.3.5-.4.6-.6s.2-.2.2-.3h.1c0-.1-.2-.2-.3-.2a1.9,1.9,0,0,0-1.4.3"/><path d="M289.1,84.4a.4.4,0,0,1,.5-.2.5.5,0,0,1,.2.6.3.3,0,0,1-.1.2h0v-.2c0,.1-.2-.2-.2-.1h-.3l.2-.2,1.7-1.9,2.6-3,2.2-2.4c.9-1,1.8-1.7,2.2-2.1h.1s-.1.1-.1,0,.1.2,0,.1.1.2.1.1.2.2.1.2h.2a.4.4,0,0,1-.4-.4.4.4,0,0,1,.4-.4h.2v.9h.2l-.2.3a4.9,4.9,0,0,1-.7,1.1,12.6,12.6,0,0,0-.7,1.6c-.8,1.6-1.7,3-2.2,4.2a8.7,8.7,0,0,0-.3,1.3h-.1c.1,0-.1-.1-.1-.1h-.3l.2-.5c.1-.3.3-.4.5-.3s.4.3.3.5l-.4.8a.6.6,0,0,1-.6.2.5.5,0,0,1-.3-.4,3.3,3.3,0,0,1,.4-1.8c.5-1.3,1.4-2.7,2.1-4.2l.8-1.8.8-1a.5.5,0,0,1,.2-.4h.1c0-.1.1-.2.3-.2s.5.2.4.5a.4.4,0,0,1-.4.4h-.2v-.8a.4.4,0,0,1,.4.2.4.4,0,0,1,.1.3l-.3.5a19.6,19.6,0,0,0-2.2,2.1l-2.2,2.4-2.5,2.9-1.8,2-.3.2c-.1.1-.2.3-.6.1l-.2-.4v-.2c.1-.1.1-.2.2-.4"/><path d="M294.5,80.6c.2.1.2.4.1.6s-.4.2-.6.1l-.8-.5h0c0,.1.1-.3.1-.2v-.2h-.1c.1,0-.1-.1,0-.1h-.1a10.6,10.6,0,0,0,3.6.2.4.4,0,0,1,.4.4.4.4,0,0,1-.4.4h-2.4a3.5,3.5,0,0,1-1.6-.3.1.1,0,0,1-.1-.1c-.1,0-.1-.2-.1-.3s.3-.4.3-.4h.3l.5.2.9.5"/><path d="M221.3,57.9a.4.4,0,0,1-.5.3.5.5,0,0,1-.3-.5c.1-.2.1-.3,0-.4l-.2-.2a2.1,2.1,0,0,0-.8,0c-.7.3-1.7,1.9-2.2,3.4a10.1,10.1,0,0,0-.4,2.3v.8h.3c.1,0,0,.1,0,0a.1.1,0,0,0,.1-.1l.4-.5a3.9,3.9,0,0,1,.8-1.4,2.1,2.1,0,0,1,1.9-.9,1.7,1.7,0,0,1,1.1.6,1.6,1.6,0,0,1,.5,1.1,2.8,2.8,0,0,1-.6,2.5h-.6a.6.6,0,0,1,0-.6,1.7,1.7,0,0,0,.4-1.7,1.1,1.1,0,0,0-.3-.8.7.7,0,0,0-.6-.3,1.8,1.8,0,0,0-1.2.5l-.7,1.4-.4.6c-.2.2-.4.5-.8.5l-.6-.2a1.5,1.5,0,0,1-.5-.6v-1a12.9,12.9,0,0,1,.4-2.5c.6-1.6,1.4-3.4,2.7-3.9a3.1,3.1,0,0,1,1.3-.1,1.1,1.1,0,0,1,.8,1.6"/><path d="M229.6,57.2c.2.1.2.3.1.5a.4.4,0,0,1-.6.1H229l-.5.3a7.3,7.3,0,0,0-1.6,1.8,4.2,4.2,0,0,0-.9,1.4,2.6,2.6,0,0,0-.5,2.2c0,.2.1.3.3.4h.7c.2,0,.5.1.5.3a.3.3,0,0,1-.3.5,1.3,1.3,0,0,1-1.2,0c-.4-.1-.6-.4-.8-.8a3.7,3.7,0,0,1,.5-2.9l1-1.5a19,19,0,0,1,1.8-2l.8-.4a1.3,1.3,0,0,1,.8.2"/><path d="M231,61.1c.3.1.4.2.4.5a.4.4,0,0,1-.4.4s.1-.1.1,0h0c0,.1-.1.1-.1.2l-.5.5a4.3,4.3,0,0,1-.4.7v.2h-.2c.1,0,.2.1.3,0H232a.8.8,0,0,1,.6.2,1.3,1.3,0,0,1,.3.5,1.4,1.4,0,0,0,.2.7.4.4,0,0,1-.2.5c-.2.1-.4.1-.5-.1a2.3,2.3,0,0,1-.3-.9.1.1,0,0,0-.1-.1h-.9l-.9.2h-.4c-.1-.1-.4-.1-.5-.4a1.1,1.1,0,0,1,.1-.8,4.1,4.1,0,0,1,.5-.9l.5-.6.2-.2.4-.2"/><path d="M233.3,59.2a.5.5,0,0,1,.3.5c-.1.2-.3.4-.5.3h-.4c-.1-.1-.2-.1-.2-.3a.5.5,0,0,1,.2-.4h1.1a7.9,7.9,0,0,0,2.3-.2.4.4,0,0,1,.5.2.4.4,0,0,1-.2.6,5.8,5.8,0,0,1-2.6.2h-.7s.1-.1.1,0h.1c-.1,0,0-.3,0-.2v-.2c0,.1-.1-.1-.1-.1s-.1-.1-.1-.1h.2"/><path d="M241,56.1a.5.5,0,0,1-.5.4.3.3,0,0,1-.3-.5h0c0-.1.1.2,0,.1h.3c0,.1-.1.1-.2.1l-1,1.1a6.9,6.9,0,0,0-1.1,1.3,3.1,3.1,0,0,0-1,2.2c0,.2.1.3.3.4l.8.6a1.4,1.4,0,0,1,.5,1.1,2.9,2.9,0,0,1-.6,1.5.4.4,0,1,1-.7-.5,1.7,1.7,0,0,0,.5-1c0-.2-.1-.3-.3-.5l-.7-.5a1.3,1.3,0,0,1-.6-1,4,4,0,0,1,1.1-2.8l1.2-1.4,1.2-1.1.5-.3a.6.6,0,0,1,.5.2.6.6,0,0,1,.1.4"/><path d="M248.6,55.8c0,.3-.2.4-.5.3s-.3-.2-.3-.5h.1s.1.2.1.1.2.1.1.1H248a16.5,16.5,0,0,0-2.4,3.3,26.7,26.7,0,0,0-2.1,4.1,3.5,3.5,0,0,0-.3,1.2h.1a.4.4,0,0,1,.4.4c0,.2-.1.4-.3.4a.6.6,0,0,1-.7-.2.7.7,0,0,1-.3-.6,4.9,4.9,0,0,1,.3-1.5,19,19,0,0,1,2.2-4.2l1.4-2.2a5.8,5.8,0,0,1,1.2-1.4l.4-.2c.1,0,.3-.1.5,0a.9.9,0,0,1,.3.5.6.6,0,0,1-.1.4"/><path d="M251.6,62.3a.5.5,0,0,1,.4-.5.7.7,0,0,1,.5.4h0c0,.1-.1.1-.1.2h0a1.9,1.9,0,0,0-.3.8v.4c0,.1-.1-.1-.1,0h.4l1.1-.3,1-.6.6-.2h.3l.4.2a.4.4,0,0,1,.1.3v.4c0,.1-.1.2-.1.3h0l.2.2h.5l1.1-.6,1.1-.5h.6a1,1,0,0,1,.5.4.7.7,0,0,1,.2.6v.3h.1l1.1-.4a2.9,2.9,0,0,1,1.3-.1c.2,0,.4.2.6.4a1.9,1.9,0,0,1,.2.8.4.4,0,0,1-.8,0c0-.2-.1-.3-.1-.4h-.1c-.1-.1-.5,0-.8.1l-1.2.4h-.5a.8.8,0,0,1-.6-.4v-.8h-.2l-1,.5-1.2.5-.6.2h-.7a1,1,0,0,1-.4-.5,1.1,1.1,0,0,1-.1-.8c.1-.1.1-.3.2-.4h0v.2c0-.1.1,0,.1,0h0l-.4.2a2.9,2.9,0,0,1-1.1.6,3.3,3.3,0,0,1-1.3.4h-.6l-.3-.2q-.2,0-.3-.3a1.1,1.1,0,0,1,0-.8,8.1,8.1,0,0,1,.3-1.1h.1s-.1.1-.1,0h0m-.1-.5a.4.4,0,0,1-.5.2c-.3-.1-.4-.3-.3-.5a.8.8,0,0,0,.1-.4.1.1,0,0,0-.1-.1.9.9,0,0,0-.7-.1c-.2,0-.4.2-.6.4a2.7,2.7,0,0,0-.6,1,1,1,0,0,0-.2.9c0,.2,0,.3.1.4h.5l1.1-.4a8.5,8.5,0,0,0,1.4-1.1h0c.1,0,0-.1.3-.1s.4.2.5.4a.4.4,0,0,1-.4.4h.1a7,7,0,0,1-1.5,1.2l-1.3.5h-.7l-.6-.3c-.3-.2-.3-.6-.4-.9a3.5,3.5,0,0,1,.3-1.3,4.1,4.1,0,0,1,.7-1.1,2.6,2.6,0,0,1,1.1-.7,1.6,1.6,0,0,1,1.2.2,1.2,1.2,0,0,1,.6.6,2.8,2.8,0,0,1-.1.9"/><path d="M267.5,62.2a.5.5,0,0,1,.6-.2.7.7,0,0,1,.1.6,9.2,9.2,0,0,1-1.3,1.9L265,67.4a24.5,24.5,0,0,0-1.6,3.3,1.6,1.6,0,0,0-.3.8c-.1.2-.1.3-.3.4h-.3l-.3-.2a.8.8,0,0,1-.1-.4,10.4,10.4,0,0,0,.4-1,15.3,15.3,0,0,1,1.4-2.9,18.1,18.1,0,0,1,1.9-2.9,17.3,17.3,0,0,1,1.8-1.9l.7-.4a.6.6,0,0,1,.6.3c.2.1.2.3.3.4a4.3,4.3,0,0,1,0,1.6.8.8,0,0,0-.1.4h.2a.6.6,0,0,0,.6,0,1.9,1.9,0,0,0,1-.5l1-.9a.3.3,0,0,0,.1-.2h0v.2h.3l-.8.6a6.1,6.1,0,0,0-1.3,1.6,1,1,0,0,0-.1.4l.3.2a2.3,2.3,0,0,0,1.2,0l2.2-.5a.5.5,0,0,1,.5.3c0,.2-.1.5-.3.5a13.9,13.9,0,0,1-2.3.5h-1.5a1.3,1.3,0,0,1-.9-.7,1.4,1.4,0,0,1,.2-1.1,5.9,5.9,0,0,1,1.4-1.8c.4-.3.7-.7,1.2-.8h.5a1.1,1.1,0,0,1,.1.5.9.9,0,0,1-.3.6,6.5,6.5,0,0,1-1.2,1.1l-1.2.6h-1c-.2-.1-.4-.1-.5-.3l-.3-.4a1.5,1.5,0,0,1,.1-.7,4.7,4.7,0,0,0,0-1.2c0-.1-.1-.1-.1-.2h-.2l-1.7,1.8c-.6.9-1.3,1.9-1.8,2.8a16.8,16.8,0,0,0-1.3,2.8l-.4.9h0c0,.1-.2-.1-.1-.1h-.5c.1,0,0,.1,0,.1h0a3,3,0,0,0,.3-.9,35.3,35.3,0,0,1,1.7-3.3l2-3,1.2-1.8"/><path d="M74.9,25.5a.5.5,0,0,1,.6-.2c.2,0,.3.3.2.5h0c-.1.5-.5,1.4-.8,2.3l-.4,1c0,.2-.1.3,0,.4h.2a1.8,1.8,0,0,0,.9-.6.4.4,0,0,1,.7.5,5.1,5.1,0,0,1-1.3.9h-.8a.6.6,0,0,1-.5-.6.9.9,0,0,1,0-.7,10.4,10.4,0,0,1,.4-1c.3-1,.7-2,.8-2.3h0m.8.4a.4.4,0,0,1-.4.4c-.3,0-.4-.3-.4-.5h0c0-.3.2-.4.4-.5a.4.4,0,0,1,.4.4c.1.2,0,.2,0,.3"/><path d="M77.1,27.5c.2,0,.4,0,.5.2a.4.4,0,0,1-.2.6h0c0,.1-.1.1-.1.2s-.1.5-.2.7a4.3,4.3,0,0,0-.2,1.1,1.5,1.5,0,0,0-.1.6c0,.2.1.3.2.5a.3.3,0,0,1,.1.5.5.5,0,0,1-.6.1,1.6,1.6,0,0,1-.5-1v-.8l.3-1.2a4.1,4.1,0,0,1,.3-.8,1.5,1.5,0,0,1,.5-.7"/><path d="M79.8,30a.4.4,0,0,1,.4-.4.4.4,0,0,1,.4.4,7,7,0,0,1-.3,1.4.8.8,0,0,0-.1.4h0c.2.1.4.3.3.5a.4.4,0,0,1-.5.3,1.1,1.1,0,0,1-.6-.7,1.7,1.7,0,0,1,.1-.7c.1-.5.3-1,.3-1.2"/><path d="M83,27.4a.4.4,0,0,1-.5.2.5.5,0,0,1-.2-.6.9.9,0,0,1,.6-.4h.6a1.8,1.8,0,0,1,.8.7,1.7,1.7,0,0,1,.6,1.5,1.7,1.7,0,0,1-.6,1.2l-.7.8h0a.3.3,0,0,0,.1.2,3.7,3.7,0,0,0,1.7.2.4.4,0,0,1,.4.4.5.5,0,0,1-.4.5,4.1,4.1,0,0,1-2.1-.4,1,1,0,0,1-.5-.6,1.2,1.2,0,0,1,.1-.8c.4-.6,1.2-1.1,1.2-1.5a1.6,1.6,0,0,0-.4-1l-.6-.5H83"/><path d="M89.5,28.6a.6.6,0,0,1,.6,0,.5.5,0,0,1,0,.6,2.1,2.1,0,0,0-.3,1.1V31h-.2c.1,0-.1-.1-.1-.1h-.2c.1,0,.2,0,.3-.2l.9-.8.8-.4a1.6,1.6,0,0,1,.7,0l.3.4v.2a4.3,4.3,0,0,0,.1.5v.2h0l.7-.3a2.3,2.3,0,0,1,1.1-.2,1.3,1.3,0,0,1,1.1.8,3.1,3.1,0,0,1,.3,1.3.4.4,0,0,1-.4.4c-.2.1-.4-.1-.4-.3a2.5,2.5,0,0,0-.2-1c-.2-.3-.3-.4-.4-.4h-.8a2.8,2.8,0,0,1-1.1.4l-.5-.3a1.4,1.4,0,0,1-.2-.6.6.6,0,0,1-.1-.4v-.2h0s.2.1.1.1.1,0,.1,0h-.2l-.5.2-.9.8a.8.8,0,0,1-.4.4s-.1.1-.3,0a.4.4,0,0,1-.4-.4c-.1-.2,0-.5,0-.8a2.5,2.5,0,0,1,.5-1.7"/><path d="M169,34.2c.2.1.1.4-.1.5s-.4.1-.5-.1a.6.6,0,0,1-.1-.7l.3-.7,1.4-1.4a8.7,8.7,0,0,1,1.5-1.3,1.3,1.3,0,0,1,.8-.3.5.5,0,0,1,.5.3.9.9,0,0,1,.1.5,1.8,1.8,0,0,1-.1,1,12.5,12.5,0,0,1-.6,1.8.7.7,0,0,1-.6.1.4.4,0,0,1-.1-.6,6.4,6.4,0,0,0,.5-1.5,2.5,2.5,0,0,0,.1-.8h.2l-.4.2-1.4,1.1-1.2,1.4c-.1.2-.2.3-.2.5h0s-.1-.1-.1,0"/><path d="M173.7,33.3c0-.2.2-.3.5-.3a.5.5,0,0,1,.3.5,5.4,5.4,0,0,1-.5,1.1,2.6,2.6,0,0,0-.3.7.5.5,0,1,1-.9.1,2.5,2.5,0,0,1,.4-1.2l.5-.9"/><path d="M178.3,30.4a.4.4,0,0,1,.2.5.5.5,0,0,1-.6.2h-.1q-.2,0-.3.3v.4a.9.9,0,0,0,.3.5l.2.3a1.1,1.1,0,0,1,.3,1,1,1,0,0,1-.4.5l-.6.3a2.4,2.4,0,0,1-1.2,0c-.2,0-.3-.2-.3-.4a.4.4,0,0,1,.4-.4h.9l.4-.2h0a.6.6,0,0,0-.2-.4s-.1,0-.2-.2a1.3,1.3,0,0,1-.4-.9,1.5,1.5,0,0,1,.1-.9,1.2,1.2,0,0,1,.6-.6.8.8,0,0,1,.9-.1"/><path d="M177,31.1a.4.4,0,0,1-.4-.4.4.4,0,0,1,.4-.4c1,.1,2.7-.5,5-.8a.4.4,0,0,1,.4.4c0,.2-.1.4-.3.4-2.2.3-3.8.9-5.1.8"/><path d="M182.6,31.6a.5.5,0,0,1,.6-.1.4.4,0,0,1,0,.6l-.4.8a3.2,3.2,0,0,0-.3.9V34h-.1l.4-.2.8-.5.7-.4a1.2,1.2,0,0,1,1,.1l.2.3v.2c0,.1-.1.2-.1.3v.3h-.1s-.1-.1,0-.1h.2l.8-.2h.8a.9.9,0,0,1,.9,1.1,3.4,3.4,0,0,1-.5,1.1c-.1.2-.3.2-.5.1a.4.4,0,0,1-.2-.5l.4-.8h-.7l-.9.2h-.8a.5.5,0,0,1-.2-.4c-.1-.2,0-.4,0-.6s0-.1.1-.2h0s.1.2.1.1h-.3l-.5.3-.7.6-.5.3a.6.6,0,0,1-.6.1.8.8,0,0,1-.5-.5.6.6,0,0,1,0-.6,4.2,4.2,0,0,1,.4-1l.5-1"/><path d="M70.8,8.1a.4.4,0,0,1-.4.4A.5.5,0,0,1,70,8h0c-.1-.1-.1-.2-.1-.4s-.1-.7-.2-1.2a24.2,24.2,0,0,1,0-2.7,5.7,5.7,0,0,1,.9-2.4A3.2,3.2,0,0,1,72.2,0a1.3,1.3,0,0,1,1.3.5A2.4,2.4,0,0,1,74,1.9a5.5,5.5,0,0,1-.9,2.8,3.1,3.1,0,0,0-.4.9c0,.2,0,.3.1.4l.9.4a2.2,2.2,0,0,1,1.1.5c.2.2.2.5,0,.6a.4.4,0,0,1-.6,0l-.8-.3a3.4,3.4,0,0,1-1.2-.6,1.3,1.3,0,0,1-.3-1.2,5.4,5.4,0,0,1,.5-1.1A6.3,6.3,0,0,0,73.2,2a1.5,1.5,0,0,0-.3-1c-.1-.2-.3-.2-.5-.2a2.7,2.7,0,0,0-1.1.9,4.9,4.9,0,0,0-.8,2.1,11.1,11.1,0,0,0,.1,2.6,4.1,4.1,0,0,0,.1,1.1.4.4,0,0,0,.1.3h0v.2m.8-6.6a.5.5,0,0,1-.2.6c-.2.1-.4,0-.6-.2h.1s.1.1.1,0,.2.1.1.1h.2s.1-.1.1,0,0-.1,0-.1a1,1,0,0,1-.1.4c0,.6-.1,1.5-.2,2.5a8.8,8.8,0,0,1-.2,1.7v.9a.9.9,0,0,0-.1.5h0c0,.1,0,.2-.2.3a.5.5,0,0,1-.6-.1.5.5,0,0,1,.2-.6H70V7.3a1.9,1.9,0,0,0,.1-.8,11,11,0,0,0,.2-1.8c.1-1,.1-1.9.2-2.5s.1-.4.2-.6,0-.1.1-.2l.3-.2.3.2h.2"/><path d="M77.5,8.9a.4.4,0,0,1,.4.4c0,.3-.1.5-.4.5h-.2a.3.3,0,0,1-.3-.3c-.1-.1,0-.3,0-.3V8.9l.6-.6a25.6,25.6,0,0,0,3.1-3.4,1.8,1.8,0,0,0,.5-.7h0s.1.1,0,.1.2.1.2.1h0l-.3.2-.9.8a7,7,0,0,0-1.5,1.9,3.7,3.7,0,0,0-.5,1.5,1.2,1.2,0,0,0,.3.9,1.9,1.9,0,0,0,.9.4l1.8-.3a.5.5,0,0,1,.5.3.5.5,0,0,1-.3.5l-2,.3a3.4,3.4,0,0,1-1.5-.6,2,2,0,0,1-.5-1.5,3.8,3.8,0,0,1,.6-1.9,6.9,6.9,0,0,1,1.6-2.2l1-.8.5-.2a.6.6,0,0,1,.6-.1.5.5,0,0,1,.3.5v.4a3.3,3.3,0,0,1-.6,1,22,22,0,0,1-3.3,3.5l-.4.5h0c0,.1-.2-.2-.1-.2h-.2"/><path d="M83.3,11c-.2.2-.5.2-.6,0a.4.4,0,0,1,0-.6,4.4,4.4,0,0,1,1.1-.9l.6-.4a.6.6,0,0,1,.6.1l.2.4a2.2,2.2,0,0,1,.1.8v1.5a.4.4,0,0,1-.8,0v-2c-.1-.1,0,0,0-.1h.2l-.4.2a4.1,4.1,0,0,0-1,.9"/><path d="M130,2.2c0-.2.2-.3.4-.3a.5.5,0,0,1,.4.5,15.2,15.2,0,0,0-.3,3.4V8h-.1c-.2.2-.5.1-.6.1l-.2-.3V7.8c0-.2-.1-.4-.1-.7a16.4,16.4,0,0,1-.2-2.2,3.5,3.5,0,0,1,1.1-2.7,1.3,1.3,0,0,1,1.4-.4,1.3,1.3,0,0,1,.9.7,1.8,1.8,0,0,1,0,1.6,10.9,10.9,0,0,1-.5,1.4,1.4,1.4,0,0,0,.1,1.1,1.9,1.9,0,0,0,1.2.9c.2.1.4.3.3.5a.5.5,0,0,1-.5.3A2.9,2.9,0,0,1,131.6,7a2.5,2.5,0,0,1-.2-1.7,12.1,12.1,0,0,0,.5-1.4,1.2,1.2,0,0,0,.1-1l-.4-.3c-.2-.1-.4,0-.7.2a3.1,3.1,0,0,0-.8,2.1,13.6,13.6,0,0,0,.2,2c0,.3.1.6.1.8h0s-.1-.2,0-.1-.2-.1-.1-.1h-.6c.1-.1,0,.1,0,.1h0a1.8,1.8,0,0,0-.1-.6V5.8a30.3,30.3,0,0,1,.4-3.6"/><path d="M136.8,5.8a.5.5,0,0,1,.6-.2c.2.1.2.4.1.6a8.6,8.6,0,0,0-.7,2.1.7.7,0,0,1-.1.5h.1a4,4,0,0,0,1.2-.8l.5-.5.4-.3a.7.7,0,0,1,.6.3,1.7,1.7,0,0,1,.1,1.2h.2a.4.4,0,1,1,.3.7h-1a1.1,1.1,0,0,1-.3-.7V8.1h.3c-.1,0,0-.1,0-.1h0l-.6.5a3.1,3.1,0,0,1-1.6,1.1h-.5l-.4-.3a1.7,1.7,0,0,1,0-1.2,11.2,11.2,0,0,1,.8-2.4"/><path d="M138.1,3a.4.4,0,0,1,.6,0c.2.2.1.4,0,.6s-.1,0-.1.1h3.1a.4.4,0,0,1,.4.4.5.5,0,0,1-.5.4h-2.5a1.6,1.6,0,0,1-1-.2.7.7,0,0,1-.3-.6.9.9,0,0,1,.3-.5"/><path d="M175.5,3.8c.1-.2.4-.1.5,0s.2.5,0,.6h0l-.2.7a8.8,8.8,0,0,0-.2,1.7,10.3,10.3,0,0,0-.1,1.7,2.5,2.5,0,0,0-.1.8v.3c0,.1.1.1,0,.3l-.8-.2h0V9.7a1.4,1.4,0,0,0-.2-.6,14.8,14.8,0,0,1,0-4.2,3.9,3.9,0,0,1,.6-1.1,1.8,1.8,0,0,1,.9-.6,1.2,1.2,0,0,1,1,0,1.4,1.4,0,0,1,1,.8,1.7,1.7,0,0,1-.1,1.7l-.6,1.4a1.6,1.6,0,0,0,.1,1.2,2.9,2.9,0,0,0,1.3,1.1c.2.1.2.4.1.6s-.3.2-.5.1a3.5,3.5,0,0,1-1.6-1.3,2.7,2.7,0,0,1-.1-2,5.9,5.9,0,0,1,.6-1.4,1.2,1.2,0,0,0,.1-1,1.2,1.2,0,0,0-.5-.5H176c-.2,0-.3.1-.5.3a2.9,2.9,0,0,0-.4.8,12.1,12.1,0,0,0,0,3.8c.1.2.1.3.2.4s0,.2.1.2h0c0,.1.1.1,0,.3a.4.4,0,1,1-.8-.2h0V8.5c.1-.6.1-1.2.2-1.8A8.8,8.8,0,0,1,175,5c.1-.5.1-.9.5-1.2"/><path d="M180.5,12c-.1.2-.4.2-.6.1a.4.4,0,0,1,0-.6l1-1.2,1-1.1.4-.6h.2l-.2.2-.7.5a2.8,2.8,0,0,0-1.1,2.3,2,2,0,0,0,.4.8l1.3.2a.5.5,0,0,1,.5.3.5.5,0,0,1-.4.5,2.6,2.6,0,0,1-1.8-.4,1.8,1.8,0,0,1-.8-1.3,3.6,3.6,0,0,1,1.4-3,1.6,1.6,0,0,1,.8-.6,1,1,0,0,1,.8-.3h.3c0,.1.1.2.1.3s0,.3,0,.4a4.2,4.2,0,0,1-.6.8l-1,1.2-1,1.1"/><path d="M185.6,12.6a.4.4,0,0,1,0-.8l.8.2a1.2,1.2,0,0,1,.5.5,1.5,1.5,0,0,1-.3,1.4l-1,1.1-.2.4v-.2c.1.1,0,0,.1,0l.5.2a9,9,0,0,1,1.6.3.5.5,0,0,1,.2.6.4.4,0,0,1-.5.2l-1.4-.3L185,16l-.3-.3a.4.4,0,0,1-.1-.5,1,1,0,0,1,.4-.7l1-1.1c.2-.3.2-.5.1-.6a.1.1,0,0,0-.1-.1h-.4"/><path d="M213,3.2a.5.5,0,0,1,.5-.4c.2.1.4.2.3.5s-.3,2.2-.5,3.6-.2,1.2-.3,1.6-.1.6-.2.8a.5.5,0,0,1-.2.4c0,.1-.1.2-.3.2h-.4c-.3-.3-.2-.5-.3-.7V8.3a6.9,6.9,0,0,1,.1-2,4.6,4.6,0,0,1,2.5-2.9,1.4,1.4,0,0,1,1.1-.1,1.4,1.4,0,0,1,.7.8,4.9,4.9,0,0,1,.1,1.2,4.2,4.2,0,0,1-.8,1.5,1.9,1.9,0,0,0-.2,1.3l.4.6.9,1c.1.2.1.5-.1.6s-.4.1-.6-.1l-.8-1a2,2,0,0,1-.6-.9,2.5,2.5,0,0,1,.2-1.9,12.3,12.3,0,0,0,.8-1.2,1.9,1.9,0,0,0-.1-.8c0-.2-.1-.3-.2-.3h-.5a4,4,0,0,0-2,2.5,4.3,4.3,0,0,0-.1,1.6v1h-.4a2,2,0,0,1,.1-.7l.3-1.6c.2-1.4.5-2.8.5-3.6"/><path d="M221.4,8.4c0,.2-.3.3-.5.2a.4.4,0,0,1-.2-.5c0-.1,0-.3.1-.3h0s.1.2,0,.2h.6a11.6,11.6,0,0,0-.8,1.6,13.9,13.9,0,0,0-1.2,2.5v.3h.6a.4.4,0,0,1,.4.4c.1.2-.1.4-.3.4h-.7a.6.6,0,0,1-.6-.3,1.4,1.4,0,0,1-.2-.6.9.9,0,0,1,.1-.5,10.7,10.7,0,0,1,1.2-2.7l.8-1.6c0-.1.1-.1.1-.2h.2c0-.1.2-.1.3,0a.4.4,0,0,1,.3.2c0,.3,0,.3-.1.4a.8.8,0,0,1-.1.4"/><path d="M224.8,11.4c-.1.2-.3.4-.5.3s-.4-.3-.3-.5V11h.2l-.5.3-.6.8a1,1,0,0,0-.1.4c.1,0,0-.1,0-.1h.4l.5-.3h.7l.2.4a1.6,1.6,0,0,1,.1.9h.5c.2,0,.5.1.5.3s-.1.5-.3.5h-1c-.3-.1-.4-.3-.5-.6s0-.7-.1-.8h.2l-.6.3h-1l-.3-.4a.9.9,0,0,1,.1-1,2.8,2.8,0,0,1,.8-1.1,1.5,1.5,0,0,1,.9-.6h.4l.3.3v.7"/><path d="M126.1,21.6a.5.5,0,0,1,.4-.5.7.7,0,0,1,.5.4h-.1s-.1-.2,0-.1h-.5V21h.2l-.3.2a4.6,4.6,0,0,0-.7.7c-.2.2-.2.4-.1.4s.1.3.4.4h.5l.8.4a1.4,1.4,0,0,1,.2.6c0,.2-.1.3-.2.5l-.8.8a3.2,3.2,0,0,1-2.3.8.5.5,0,0,1-.3-.5c0-.2.2-.4.4-.3a3.1,3.1,0,0,0,1.7-.7,1.7,1.7,0,0,0,.6-.6h.1a.5.5,0,0,0-.4-.2c-.1-.1-.3,0-.6-.2a1.1,1.1,0,0,1-.9-.8,1.3,1.3,0,0,1,.2-1.2l.9-.9.3-.2h.7a1,1,0,0,1,.4.5,1.3,1.3,0,0,1-.1.6.5.5,0,0,1-.2.4c-.1.1-.1.2-.2.2s-.3.1-.4,0l-.3-.3"/><path d="M126.5,21a.5.5,0,0,1-.6.3c-.2,0-.3-.3-.2-.5a1.4,1.4,0,0,1,.8-1,3.2,3.2,0,0,1,1.4-.3,17.4,17.4,0,0,1,3.2.1c.2,0,.4.2.3.4a.4.4,0,0,1-.4.4,15.3,15.3,0,0,0-3-.1l-1.1.2a.7.7,0,0,0-.4.5"/><path d="M131,21.1c.2-.2.4-.1.5.1s.1.5-.1.6a2.4,2.4,0,0,0-1,1,1.4,1.4,0,0,0-.2,1c0,.1,0,.2.2.3l.4.2h.7c.5-.1,1.1-.9,1.5-1.6a2.2,2.2,0,0,0,.3-1c0-.2,0-.3-.1-.4h-.5l-1.1.5a.4.4,0,0,1-.5-.2c-.2-.2-.1-.4.1-.5a2.4,2.4,0,0,1,1.5-.6,2,2,0,0,1,1.1.3,1.5,1.5,0,0,1,.4,1.1,4.3,4.3,0,0,1-.5,1.3,3.6,3.6,0,0,1-2,2h-1l-.8-.3a1,1,0,0,1-.5-.8,1.9,1.9,0,0,1,.3-1.6,2.7,2.7,0,0,1,1.3-1.3"/><path d="M136.9,22.2c.1-.2.4-.2.6-.1s.3.3.1.5a6.2,6.2,0,0,0-.3,1,3.1,3.1,0,0,0-.2.8v.2H137l.6-.6a4.1,4.1,0,0,1,1-.9l.6-.3a1,1,0,0,1,.7.2.8.8,0,0,1,.2.4v.2c0,.2-.1.3-.1.4h.1l.6-.3a1.3,1.3,0,0,1,.8-.2,1.1,1.1,0,0,1,1,.4,1.7,1.7,0,0,1,.2,1.2v.9a.4.4,0,0,1-.2.5.4.4,0,0,1-.5-.3,2.5,2.5,0,0,1-.1-1.2v-.6h-.8l-.6.3-.3.2h-.5c-.2,0-.3-.2-.4-.3a1.3,1.3,0,0,1-.1-.6.6.6,0,0,1,.1-.4h0s.1.2.1.1,0,.1,0,.1h-.3a3.1,3.1,0,0,0-.9.7l-.6.6-.3.3a.4.4,0,0,1-.5.1c-.2-.1-.4-.3-.4-.4a1.3,1.3,0,0,1-.1-.6,2.9,2.9,0,0,1,.2-.9,8.3,8.3,0,0,1,.4-1.2"/><path d="M151.1,21.1c0,.3-.2.4-.5.4s-.4-.2-.3-.4a.3.3,0,0,0-.1-.2h-.3l-1.2.2a1.8,1.8,0,0,0-.7.5.6.6,0,0,0-.1.4l.3.4a1,1,0,0,1,.4.7,1.9,1.9,0,0,1-.5,1.4,3.4,3.4,0,0,1-2.5,1.1c-.3.1-.5-.1-.5-.4a.4.4,0,0,1,.4-.4,2.9,2.9,0,0,0,2-.9,1.3,1.3,0,0,0,.3-.7l-.2-.3a1.7,1.7,0,0,1-.6-.9,2.1,2.1,0,0,1,.4-1,3.3,3.3,0,0,1,1-.6A3,3,0,0,1,150,20a1,1,0,0,1,1.1,1.1"/><path d="M149.1,21.5a.4.4,0,0,1-.3-.7,4.6,4.6,0,0,1,2.3-.5,1.5,1.5,0,0,1,1.1,1.2,1.5,1.5,0,0,1-.2,1.3l-.8,1a4.6,4.6,0,0,0-.7,1,.5.5,0,0,0-.3.4.1.1,0,0,0-.1.1h1.1a7.4,7.4,0,0,1,2.1-.1.5.5,0,0,1,.3.5c-.1.2-.3.4-.5.3a6.5,6.5,0,0,0-1.9.1h-1.4a.5.5,0,0,1-.4-.3.6.6,0,0,1-.1-.4c0-.1.1-.2.1-.3l.4-.5a8.6,8.6,0,0,0,.7-1l.8-1c.1-.2.2-.5.1-.6s-.3-.5-.5-.6a7.4,7.4,0,0,0-1.8.4"/><path class="cls-4" d="M64.6,37.5c0,.2-.1.5-.4.5a.4.4,0,0,1-.4-.4h.1c-.1,0,.1.1.1.1s.2,0,.1,0,.2-.1.2,0h.1a4.3,4.3,0,0,0-.1.5,7.6,7.6,0,0,0-.1,1.5V41h-.3c.1,0-.2.1-.1,0h-.2v-.2a1.3,1.3,0,0,1-.1-.6,17.7,17.7,0,0,1-.1-2.2,3.3,3.3,0,0,1,0-1c0-.2.1-.3.3-.4s.3,0,.4,0l.5.3.9,1.1a16,16,0,0,0,2.6,2.6.3.3,0,0,1,.1.5.4.4,0,0,1-.6.1,18,18,0,0,1-2.8-2.7,3.9,3.9,0,0,0-.8-1h-.1c-.1,0,.2-.1.1,0s.2-.2.1-.1.1-.2.1-.1v.8a15.5,15.5,0,0,0,.1,2.1,1.3,1.3,0,0,0,.1.6v.3h0c0,.1,0,.2-.2.3h-.5l-.2-.2a.7.7,0,0,1-.1-.5c-.1-.2,0-.4-.1-.7v-.6c.1-.5.1-1.1.2-1.6a1.4,1.4,0,0,1,.2-.7h0a.5.5,0,0,1,.4-.2c.2,0,.4.1.4.2a.3.3,0,0,0,.1.2"/><path class="cls-4" d="M64.5,42.5c.2.1.3.4.1.5s-.4.2-.6.1a1,1,0,0,1-.3-.9c0-.3.3-.6.6-.9l.9-.6a19.8,19.8,0,0,1,2.6-.8c.2-.1.5,0,.5.2a.4.4,0,0,1-.2.6,10.5,10.5,0,0,0-2.5.8l-.8.5c-.2.2-.3.3-.3.4s-.1,0,0,.1"/><path class="cls-4" d="M64.9,39.1a.4.4,0,0,1,.5.2c.1.2.1.5-.1.6s0-.1,0-.1h.1a4.3,4.3,0,0,0-.1.5v.3h0a.5.5,0,0,1,.1.6.5.5,0,0,1-.6.1,1.3,1.3,0,0,1-.3-1,2.9,2.9,0,0,1,.2-.9h.1a.1.1,0,0,0,.1-.1m-.5-.2a.4.4,0,0,1,.4.4.5.5,0,0,1-.4.5h.3c0,.1.1-.1.1-.1h0v.2a.7.7,0,0,0-.1.5v.5h-.2c.1,0-.3,0-.2-.1s-.1.1-.1.1h-.1a.1.1,0,0,0,.1-.1l.3-.3a1.7,1.7,0,0,1,.2-.5h0c0-.1.1.1.1.1h0c-.2-.1-.2-.4,0-.6a.5.5,0,0,1,.6,0h0a.8.8,0,0,1,.1.3v.4a5.9,5.9,0,0,1-.4.8l-.3.4-.2.2h-.1a.3.3,0,0,1-.4,0c-.2-.1-.2-.3-.3-.4v-.2c0-.2.1-.4.1-.6v-.5a.3.3,0,0,0,.1-.2v-.2h.1l.3-.2m.2,2.1c-.1.2-.4.2-.6.1a.5.5,0,0,1-.1-.6h0A1.5,1.5,0,0,1,64,40v-.5h.1c-.2-.2-.1-.4.1-.6a.3.3,0,0,1,.5.1v.2h0V40a1.3,1.3,0,0,1-.2,1h0m-.5-2.4c0-.2.3-.3.5-.3a.5.5,0,0,1,.3.5,4.4,4.4,0,0,0-.2,1.3v.6h-.1c.1.2.1.5-.1.6a.5.5,0,0,1-.6-.2c-.1-.1,0-.1-.1-.1v-.3a1.1,1.1,0,0,1,.1-.5,5.9,5.9,0,0,1,.2-1.4"/><path class="cls-4" d="M64.8,42.1a.4.4,0,0,1,.2-.8h1.1l.3.2a.4.4,0,0,1,.1.5l-.3.3a.5.5,0,0,1-.4.2l-.9.2c-.2,0-.3-.2-.3-.5s.2-.4.4-.3h.7v.2c0-.1.1.2.1.1h-.1a2.6,2.6,0,0,1-.9,0h0m2.9-1.3c.1.1.2.4,0,.5s-.4.3-.5.1.1.1,0,.1.2,0,.2,0h0l-1.3.3-.7.2h-.3a.5.5,0,0,1-.6-.2.6.6,0,0,1,.3-.6h.3l.8-.2,1.4-.3s.1-.1.3,0h.1m-3.5,1.5a.4.4,0,0,1,.6-.6h-.1c0,.1-.1,0-.1,0h.2l.7-.3.9-.3.7-.2h0c.1,0-.1.1,0,.1H67a.4.4,0,0,1,.6-.3.4.4,0,0,1,.2.5h0c-.1.1-.2.1-.2.2h-.3l-.6.2-1,.3-.7.2h-.4c-.1,0-.2.1-.4-.1m.4.1a.4.4,0,0,1-.7-.5,7.1,7.1,0,0,1,1.4-1l.8-.4.7-.2h.3c.1,0,.2,0,.4.2s.1.3,0,.4h-.1a.1.1,0,0,1-.1.1l-.4.3-1.2.6-.5.2h-.9a.3.3,0,0,1-.1-.5c.1-.2.4-.2.6-.1h-.1c0,.1-.1,0-.1,0h.8l1-.5.3-.3c.1,0,.1,0,.1-.1h0s-.1.2,0,.1v.2c0-.1.1.2.1.1s.1.2.1.1.1.1,0,.1h0l-.5.2-.7.3-1.1.8"/><path class="cls-4" d="M65,39.3a.4.4,0,0,1-.2-.5.3.3,0,0,1,.5-.3h.4l1,.6.8.5h.1v.2a.5.5,0,0,1-.2.4c-.3.1-.3,0-.3,0h-.2l-.6-.2-.6-.2h0c-.2.2-.5.2-.6,0s-.2-.4,0-.6h.8l.7.2.6.2a.1.1,0,0,0,.1.1h-.4c0-.1-.1.1-.1.1v.2h.1c-.1,0,0,.1,0,.1s.1,0,.1,0l-.7-.3-1.1-.7H65m-.8-.6a.5.5,0,0,1-.6-.2.4.4,0,0,1,.2-.5,1.1,1.1,0,0,1,.8,0l.6.3.9.9.4.3.4.3h0l.2.8c-.2.1-.3,0-.3,0h-.1l-.4-.2-.8-.6-.6-.5h-.1c-.1-.2-.1-.4.1-.5a.4.4,0,0,1,.6.1h-.1l.5.4.9.6.3.2h-.2a.4.4,0,0,1,.5.3c.1.2-.1.4-.3.5a.7.7,0,0,1-.6-.1l-.4-.3-.5-.4-.9-.8-.4-.2h-.1"/><path class="cls-4" d="M63.3,42.8a.4.4,0,0,1-.4-.4c-.1-.2.1-.4.3-.4H63l.7-1c.1-.2.3-.2.5-.1a.4.4,0,0,1,.1.6,4.4,4.4,0,0,1-.6,1l-.2.2h-.2m.5-4.3a.4.4,0,0,1-.4.4c-.3,0-.4-.2-.4-.5v-.5a.7.7,0,0,1,.4-.3.7.7,0,0,1,.4.2c0,.1.1.1.1.2v.2c.1.3.1.6.2.9v1.8c-.1.5-.1.9-.2,1.3s-.1.3-.2.4l-.2.2a.3.3,0,0,1-.4,0c-.2-.1-.2-.1-.2-.2a1.8,1.8,0,0,1-.1-1c0-.3.1-.4.1-.6a.3.3,0,0,0,.1-.2l.2-.2.5.2c.3.3.1.5.1.7s-.1.4-.1.6v.3h0s-.1-.2-.1-.1.1.4-.1.5-.5.1-.6-.1h0c-.1-.2,0-.2,0-.2V42c0-.2.1-.4.1-.6v-.2h.1c-.1,0,.1.2,0,.1h.3c-.1,0,.2-.1.2,0s.1-.1.1-.1h0a.5.5,0,0,1-.1.3v.5h0s-.1-.1,0-.1-.2-.1-.1-.1H63a.8.8,0,0,1,.1-.3,4.4,4.4,0,0,1,.2-1,9.7,9.7,0,0,0-.1-1.7,1.9,1.9,0,0,0-.1-.8h.1s.2.1.1,0,.3,0,.2.1h.2c-.1,0,.1-.1.1-.1s0-.1,0-.1h0v.3"/><path class="cls-4" d="M34.5,2.8c.2-.1.4,0,.5.3a.5.5,0,0,1-.3.5c-.1,0,.1-.1.1-.1h0a.3.3,0,0,1-.1.2l-.4.7a16.5,16.5,0,0,0-1,1.9l-.8,1.6-.3.7L32,9c-.1.1-.1.2-.3.2L31.3,9c-.1-.2-.1-.2-.1-.3s.1-.5.4-.5a.4.4,0,0,1,.4.4h0s-.2-.2-.1-.2h-.5c.1,0-.1.1,0,.1h-.1c.1,0,.1-.1.1-.2l.4-.7c.2-.5.4-1.1.7-1.7L33.6,4l.4-.8.2-.2c0-.1,0-.2.3-.2"/><path class="cls-4" d="M30.8,2c.3,0,.3.3.3.5a.5.5,0,0,1-.6.2l-.7-.2h-.3s.1-.1,0-.1.1,0,.1,0,.2-.1.1-.1l-.6-.5c.3-.3.3-.2.4-.2h2l4.9-.5a5.7,5.7,0,0,1,1.9.1.9.9,0,0,1,.7.3.8.8,0,0,1,.2.8.4.4,0,0,1-.4.4.5.5,0,0,1-.4-.5H36.5c-1.5.1-3.3.5-5,.5H29.6s.2-.1.1-.1-.4.2-.6.1a.6.6,0,0,1,0-.6l.3-.2h.5a1.6,1.6,0,0,1,.9.3"/><path class="cls-4" d="M27.8,10.3c-.2,0-.4-.2-.3-.4a.4.4,0,0,1,.4-.4c2,.2,5,.2,7.9.6.2,0,.4.2.3.4a.4.4,0,0,1-.4.4c-2.8-.4-5.8-.4-7.9-.6"/><path class="cls-4" d="M43.1,8a.3.3,0,0,1-.5.3c-.2,0-.3-.2-.3-.4h.3a5.7,5.7,0,0,0-1,1.1,13.2,13.2,0,0,0-1.2,2,6.2,6.2,0,0,0-.4,1.6,1.5,1.5,0,0,0,.2.8h.4a2.8,2.8,0,0,0,1.1-.7h.6c.1.2.1.5-.1.6a2.4,2.4,0,0,1-1.4.9,1.4,1.4,0,0,1-1.2-.4,1.8,1.8,0,0,1-.4-1.3,4.9,4.9,0,0,1,.5-1.9,15.5,15.5,0,0,1,1.2-2.2A8.1,8.1,0,0,1,42,7.5c.2-.1.3-.3.7-.2l.4.3V8"/><path class="cls-4" d="M40.4,10.4a.7.7,0,0,1,.3.6.5.5,0,0,1-.6.2l-.4-.2-.2-.2a.7.7,0,0,1,.1-.5.6.6,0,0,1,.5-.2h.4a6.1,6.1,0,0,1,2.1.6.5.5,0,0,1,.2.6c-.1.2-.3.3-.5.1a7.7,7.7,0,0,0-1.9-.5h-.2v-.2h-.1c.1,0,0-.1,0-.1h.2"/><path class="cls-4" d="M46.3,11.6a.4.4,0,0,1-.7.3h0l-.6.6-.5.5h0c0,.1-.1,0-.1,0h.5a1.3,1.3,0,0,1,.9.5l.5.2c.2-.1.4.1.4.3s-.1.5-.4.5a1.5,1.5,0,0,1-1-.4l-.4-.3h-.3c-.2,0-.4.1-.6-.1a.9.9,0,0,1-.3-.6,1.3,1.3,0,0,1,.1-.6l.6-.7a2.7,2.7,0,0,1,.8-.7l.6-.2c.2.1.5.3.5.5"/><path class="cls-4" d="M48.5,14.3a.7.7,0,0,1-.6.3.5.5,0,0,1-.2-.6h0c0-.2.1-.6.1-1s-.2-.1-.2-.5.2-.4.3-.4h3.2a.4.4,0,0,1,.4.4c0,.2-.1.4-.3.4H48.3s.1-.2.1-.1v-.2h0a4.3,4.3,0,0,1,.1.5,2.8,2.8,0,0,1-.1,1h0m2.9-6.9a.4.4,0,0,1,0,.6.3.3,0,0,1-.5,0h.3c-.1,0-.1.1-.2.3a6.2,6.2,0,0,0-.8,1.2c-.5,1.1-1.1,2.4-1.4,3.3a6.1,6.1,0,0,0-.3,1.1v.2h0c0,.3-.1.5-.4.5a.4.4,0,0,1-.4-.4h0v-.3c.1-.2.1-.6.3-1.1a25.2,25.2,0,0,1,1.5-3.4,8.7,8.7,0,0,1,.8-1.4.8.8,0,0,1,.4-.4c0-.1.1-.2.3-.2h.4"/><path class="cls-4" d="M46.4,12.2c.2.1.2.3.1.5a.5.5,0,0,1-.6.2,1.1,1.1,0,0,0-.8-.1,1.9,1.9,0,0,0-.8.3l-.3.7v.4c0,.1-.1-.1-.1-.1h.2l1-.5h.5l.4.4a1.6,1.6,0,0,1,0,.7c0,.2.1.3.1.4a.3.3,0,0,1,.1.5.5.5,0,0,1-.6.1,1.4,1.4,0,0,1-.4-.9v-.5s.1.1,0,.1.2,0,.2,0h0a1.9,1.9,0,0,1-1.3.7h-.5a.2.2,0,0,1-.2-.2c-.1,0-.2-.2-.2-.3a1.6,1.6,0,0,1,0-.7,2.3,2.3,0,0,1,.6-1.2A1.8,1.8,0,0,1,45,12a1.7,1.7,0,0,1,1.4.2"/></g></svg>