<svg xmlns="http://www.w3.org/2000/svg" xmlns:xlink="http://www.w3.org/1999/xlink" viewBox="0 0 309.2 166.1"><defs><style>.cls-1{fill:none;}.cls-2{isolation:isolate;}.cls-3{opacity:0;}.cls-4{clip-path:url(#clip-path);}.cls-5{fill:#006fff;mix-blend-mode:darken;opacity:0.42;}.cls-6{fill:#ed3624;}.cls-7{fill:#1749b3;}</style><clipPath id="clip-path"><rect class="cls-1" x="-40.3" y="-46.5" width="419.5" height="297.64"/></clipPath></defs><g class="cls-2"><g id="Ebene_1" data-name="Ebene 1"><g class="cls-3"><path d="M51.9,14.4V2.8h3.5a4.7,4.7,0,0,1,2.6.7,2.8,2.8,0,0,1,.9,2.2A3.5,3.5,0,0,1,56.5,9l3.9,5.4h-2L55.1,9.5H53.5v4.9Zm1.6-6.1h.6c2,0,3.1-.8,3.1-2.5S56.3,4,54.6,4H53.5Z"/><path d="M67.8,14.1a7.4,7.4,0,0,1-2.7.5,3.9,3.9,0,0,1-3-1.2,4.8,4.8,0,0,1-1.2-3.3,4.9,4.9,0,0,1,1-3.2,3.4,3.4,0,0,1,2.7-1.2A3,3,0,0,1,67,6.8a5.4,5.4,0,0,1,.8,3.1v.5H62.4q.5,3,3,3a6,6,0,0,0,2.4-.5ZM62.5,9.2h3.8c0-1.5-.6-2.3-1.8-2.3S62.7,7.7,62.5,9.2Z"/></g><g class="cls-3"><path d="M118.4,15.3V3.7h3.5a3.7,3.7,0,0,1,2.5.7,2.7,2.7,0,0,1,.9,2.2A3.5,3.5,0,0,1,123,9.9l3.8,5.4h-2l-3.3-4.9H120v4.9ZM120,9.2h.5c2.1,0,3.1-.9,3.1-2.5s-.8-1.8-2.6-1.8h-1Z"/><path d="M134.2,15a9.8,9.8,0,0,1-2.6.5,3.9,3.9,0,0,1-3.1-1.3,4.4,4.4,0,0,1-1.2-3.2,5,5,0,0,1,1.1-3.2A3.4,3.4,0,0,1,131,6.6a2.8,2.8,0,0,1,2.4,1.1,4.8,4.8,0,0,1,.9,3.1v.5h-5.4q.3,3,3,3a8,8,0,0,0,2.3-.5ZM129,10.1h3.7c0-1.6-.6-2.3-1.8-2.3S129.1,8.5,129,10.1Z"/></g><g class="cls-3"><path d="M185.6,14.2V4h3.1a3.3,3.3,0,0,1,2.3.7,2.1,2.1,0,0,1,.7,1.8,2.9,2.9,0,0,1-2,2.9l3.4,4.8h-1.8l-2.9-4.3h-1.3v4.3Zm1.5-5.4h.4c1.8,0,2.8-.7,2.8-2.1s-.8-1.6-2.3-1.6h-.9Z"/></g><g class="cls-3"><path d="M2.7,32.1v-21H14.5v2.2H5.7V20H13v2.2H5.7v7.7h9.4v2.2Z"/></g><g class="cls-3"><path d="M119.3,60.3a3.7,3.7,0,0,1-2.3,1.1,2.3,2.3,0,0,1-1.6-.6,1.7,1.7,0,0,1-.6-1.4,2.3,2.3,0,0,1,1-1.9,6,6,0,0,1,3-.7h.3v-.9a1.2,1.2,0,0,0-1.3-1.3,5.5,5.5,0,0,0-2.3.7V54.2a6.1,6.1,0,0,1,2.5-.6,2.5,2.5,0,0,1,1.9.6,2.4,2.4,0,0,1,.6,1.7v3.4c0,.8.2,1.2.7,1.2h.2v.8l-1,.2C119.9,61.4,119.5,61,119.3,60.3Zm-.2-.7v-2h-.4a4,4,0,0,0-1.8.4,1.3,1.3,0,0,0-.7,1.2,1.1,1.1,0,0,0,.3.8,1.2,1.2,0,0,0,.9.3A2.7,2.7,0,0,0,119.1,59.6Z"/><path d="M123.1,63.7l.2-1.2a4.6,4.6,0,0,0,2.3.6,2.1,2.1,0,0,0,2.3-2.4V59.5a2.6,2.6,0,0,1-2.5,1.6,2.7,2.7,0,0,1-2.1-1,4,4,0,0,1-.8-2.6,4.1,4.1,0,0,1,.9-2.8,3,3,0,0,1,2.3-1.1,3.2,3.2,0,0,1,2.2,1v-.8h1.3v5.4a9,9,0,0,1-.2,2.6,3,3,0,0,1-.6,1.4,3.9,3.9,0,0,1-2.8.9A6.9,6.9,0,0,1,123.1,63.7Zm4.8-5V55.6a3,3,0,0,0-2-1,1.6,1.6,0,0,0-1.4.8,3.2,3.2,0,0,0-.6,2c0,1.7.6,2.5,1.8,2.5A3.1,3.1,0,0,0,127.9,58.7Z"/><path d="M137.1,61a7,7,0,0,1-2.3.4,3.3,3.3,0,0,1-2.7-1.1,3.9,3.9,0,0,1-1-2.8,4.3,4.3,0,0,1,.9-2.8,3,3,0,0,1,2.4-1.1,2.2,2.2,0,0,1,2,1,4.1,4.1,0,0,1,.8,2.7v.4h-4.7c.2,1.8,1,2.7,2.6,2.7a6.4,6.4,0,0,0,2-.5Zm-4.6-4.3h3.3q0-2.1-1.5-2.1C133.2,54.6,132.7,55.3,132.5,56.7Z"/><path d="M141.3,61.4a6.9,6.9,0,0,1-2.2-.4V59.7a4.6,4.6,0,0,0,2.3.7,1.7,1.7,0,0,0,1-.3,1.2,1.2,0,0,0,.4-.8c0-.5-.4-.8-1.1-1.1l-.8-.4q-1.8-.7-1.8-2.1a2.1,2.1,0,0,1,.7-1.5,2.9,2.9,0,0,1,1.9-.6l1.6.2h.2V55a7.4,7.4,0,0,0-1.8-.4c-.8,0-1.3.4-1.3,1s.4.7,1,1l.7.3a3.6,3.6,0,0,1,1.5,1,1.9,1.9,0,0,1,.5,1.3,2.1,2.1,0,0,1-.8,1.6A3.2,3.2,0,0,1,141.3,61.4Z"/></g><g class="cls-3"><path d="M51.6,109.4V97.8h3.5a4,4,0,0,1,2.6.8,2.6,2.6,0,0,1,.9,2.1,3.3,3.3,0,0,1-2.4,3.3l3.9,5.4h-2l-3.3-4.9H53.2v4.9Zm1.6-6.1h.6c2,0,3.1-.8,3.1-2.4s-.9-1.8-2.6-1.8H53.2Z"/><path d="M61.5,109.4v-8.5H63v1.6a3.8,3.8,0,0,1,3-1.8,2.5,2.5,0,0,1,1.8.7,2.9,2.9,0,0,1,.7,1.9v6.1H66.9v-5.6a2.1,2.1,0,0,0-.3-1.3c-.1-.3-.5-.4-.9-.4a3.6,3.6,0,0,0-2.7,1.8v5.5Z"/></g><g class="cls-3"><path d="M120.2,107V97.6h2.9a2.8,2.8,0,0,1,2,.6,2.1,2.1,0,0,1,.8,1.7,2.8,2.8,0,0,1-1.9,2.7l3.1,4.4h-1.6l-2.7-4h-1.3v4Zm1.3-5h.5c1.6,0,2.5-.6,2.5-1.9s-.7-1.5-2.1-1.5h-.9Z"/></g><g class="cls-3"><path d="M185.6,109.2V99h3.1a3.9,3.9,0,0,1,2.3.7,2.2,2.2,0,0,1,.7,1.9,2.8,2.8,0,0,1-2,2.8l3.4,4.8h-1.8l-2.9-4.3h-1.3v4.3Zm1.5-5.4h.4c1.8,0,2.8-.7,2.8-2.1s-.8-1.6-2.3-1.6h-.9Z"/></g><g class="cls-3"><path d="M4.8,127.2v-2.5a9.4,9.4,0,0,0,3.9.8,4.5,4.5,0,0,0,3.3-1.2,4.5,4.5,0,0,0,1.2-3.4c0-3.1-2.2-4.7-6.5-4.7H5.1V106.1H15.7v2.4H7.6v5.6a9.8,9.8,0,0,1,6.3,1.8,6.5,6.5,0,0,1,2.3,5.2,6,6,0,0,1-2.1,4.8,8.4,8.4,0,0,1-5.7,1.7A15.9,15.9,0,0,1,4.8,127.2Z"/></g><g class="cls-3"><path d="M306.4,124.4a2.8,2.8,0,0,1-2.2-.9,3.6,3.6,0,0,1-.8-2.5,3.2,3.2,0,0,1,.8-2.4,3.1,3.1,0,0,1,4.4,0,3.2,3.2,0,0,1,.9,2.4,3.3,3.3,0,0,1-.9,2.5A2.8,2.8,0,0,1,306.4,124.4Zm0-.9c1.2,0,1.8-.8,1.8-2.5s-.6-2.4-1.8-2.4-1.8.8-1.8,2.4S305.2,123.5,306.4,123.5Z"/></g><g class="cls-3"><path d="M127.6,161.8V151H129v7l3.1-3.6h1.5l-3,3.5,3.6,3.9h-1.7L129,158v3.8Z"/><path d="M135.3,164.3l.2-1.2a4.6,4.6,0,0,0,2.3.6,2.1,2.1,0,0,0,2.3-2.4v-1.2a2.7,2.7,0,0,1-2.5,1.6,2.7,2.7,0,0,1-2.1-1,4.2,4.2,0,0,1-.8-2.6,4.1,4.1,0,0,1,.9-2.8,3,3,0,0,1,2.3-1.1,3.2,3.2,0,0,1,2.2,1v-.8h1.3v5.4a9,9,0,0,1-.2,2.6,3,3,0,0,1-.6,1.4,3.9,3.9,0,0,1-2.8.9A6.9,6.9,0,0,1,135.3,164.3Zm4.8-5v-3.1a3,3,0,0,0-2-1,1.6,1.6,0,0,0-1.4.8,3.2,3.2,0,0,0-.6,2c0,1.7.6,2.5,1.8,2.5A3.1,3.1,0,0,0,140.1,159.3Z"/><path d="M146.8,162a3.4,3.4,0,0,1-2.6-1,4.6,4.6,0,0,1-.9-2.9,3.7,3.7,0,0,1,1-2.8,3.3,3.3,0,0,1,2.5-1.1,3.3,3.3,0,0,1,2.6,1.1,3.7,3.7,0,0,1,1,2.8,3.9,3.9,0,0,1-1,2.9A3.3,3.3,0,0,1,146.8,162Zm0-1c1.5,0,2.2-1,2.2-2.9s-.7-2.9-2.2-2.9-2.1,1-2.1,2.9S145.4,161,146.8,161Z"/><path d="M154.3,162a6.9,6.9,0,0,1-2.2-.4v-1.3a4.6,4.6,0,0,0,2.3.7,1.7,1.7,0,0,0,1-.3,1.2,1.2,0,0,0,.4-.8c0-.5-.4-.9-1.1-1.2l-.8-.3q-1.8-.7-1.8-2.1a2.1,2.1,0,0,1,.7-1.5,2.9,2.9,0,0,1,1.9-.6l1.6.2h.2v1.1a7.4,7.4,0,0,0-1.8-.4c-.8,0-1.3.4-1.3,1s.4.7,1,1l.7.3a3.6,3.6,0,0,1,1.5,1,1.5,1.5,0,0,1,.5,1.3,2.1,2.1,0,0,1-.8,1.6A3,3,0,0,1,154.3,162Z"/></g><g class="cls-4"><path class="cls-5" d="M239.8,118.4a1.4,1.4,0,0,1,1.9.1,1.5,1.5,0,0,1-.1,2c-.6.5-.9.3-1.1.4h-.3a25.8,25.8,0,0,0-3.6.5l-1.7.5-.4.2a.1.1,0,0,1-.1.1c-.1,0,.2-.2.1-.1s.3-.6.2-.5v-.5c.1.2-.2-.5-.1-.4l-.3-.3-.4-.2h.2c1.6-.2,4.1-.2,6.7-.6a42.6,42.6,0,0,1,8.1.1,25.7,25.7,0,0,0,4.8.1l1.4-.2h2.6l-.3.2.4-.4a1.3,1.3,0,0,1,1.9.3,1.4,1.4,0,0,1-.3,1.9l.2-.2-.2.2a1.8,1.8,0,0,1-.8.6,3.4,3.4,0,0,1-1.4.2l-1.7.2-1.8.2a44.2,44.2,0,0,1-5.1-.1,25.8,25.8,0,0,0-7.4-.1l-6.8.5h-.5a1.4,1.4,0,0,1-1.3-.4,1.1,1.1,0,0,1-.5-.9,1.6,1.6,0,0,1,.3-1.3l.7-.5.8-.4,2.1-.7c1.5-.3,2.9-.4,3.8-.5h.3l-.3.2m4.8-2.9a1.4,1.4,0,0,1,0,2.8h-5.5l-2.2.4-.9.2h-.2s.2-.3.1-.2-.1-.8,0-.6l-.3-.4c.1.1-.1,0-.1,0h.3l1.5.2h3.6a1.4,1.4,0,0,1-.4,2.7h-3.2a7.8,7.8,0,0,1-2.6-.4,1.7,1.7,0,0,1-1.3-1.1,2,2,0,0,1-.1-1.3,2.2,2.2,0,0,1,.5-.8,4.2,4.2,0,0,1,2.5-1.2l2.6-.4h5.7m1.1,1.6a1.4,1.4,0,1,1,1.1,2.5c-.4.2-.4.1-.5.1H234.5a3.6,3.6,0,0,1-1.1-.3,1.4,1.4,0,0,1-.5-.7,1.5,1.5,0,0,1,.1-1.3c.3-.6.7-.7.9-.7a18.4,18.4,0,0,1,3.5-.5l2.9-.5,2.8-.6.9-.2h.3c.1,0-.1.1,0,.1s-.2.1-.2,0-.3.4-.2.3-.3.8-.2.6.2,1,.1.8l.3.4H242a30.7,30.7,0,0,0-3.4.3h-.8c-.1,0,.2-.2.2-.1s.3-.4.2-.3l.3-.6c0,.3-.1-.9-.1-.7l-.2-.4-.2-.2h.6a34,34,0,0,0,4.5.3h1.4a1.4,1.4,0,0,1,0,2.8h-1.4a42.2,42.2,0,0,1-4.9-.4,3.4,3.4,0,0,1-1.6-.3c-.1-.1-.4-.1-.7-.9a1.5,1.5,0,0,1,.2-1.3c.2-.3.4-.4.5-.4l.7-.2h1a32.5,32.5,0,0,1,3.6-.3,10.7,10.7,0,0,1,3.1,0l.5.2a1,1,0,0,1,.7.6,1.8,1.8,0,0,1-.1,1.6l-.6.4-.8.3-.9.2-3,.6-3.1.6-2.9.3h.2l.3-.3c-.1.2.2-.8.2-.5s-.2-.9-.1-.7-.4-.4-.3-.4h10.6m2.6-.9a1.5,1.5,0,0,1-.6,1.9,1.3,1.3,0,0,1-1.8-.6c-.1-.2.3.5.2.4s.5.2.4.2h-6.7l-3.5.2h-.8c0,.1.2-.1.1-.1s.3-.4.2-.3.1-.6.1-.5-.2-.6-.1-.5-.3-.3-.2-.2h11.3a1.4,1.4,0,0,1,.5,1.9,1.3,1.3,0,0,1-1.8.5c-.2,0,.4.2.3.2s.2,0,.2,0h-1.8a41.2,41.2,0,0,1-5.1.1h-2.3a5.8,5.8,0,0,1-2.8-.5,1.2,1.2,0,0,1-.7-.7,1.6,1.6,0,0,1,1.3-2.4,4.9,4.9,0,0,1,1.4-.3h3.6l3.3-.2h4.5c.1,0,.4,0,.8.6m-13.7,3a1.5,1.5,0,0,1-1.5-1.2,1.4,1.4,0,0,1,1.2-1.6h5.9c1.6-.1,3.1-.4,4.5-.6l1.4-.2h.2l-.2.2c.1-.1-.3.5-.3.3s0,.2,0,.2a1.3,1.3,0,0,1,1.7-.8,1.2,1.2,0,0,1,.8,1.7v.2c-.4.6-.6.6-.7.6h-1.1l-1.4.2a48.1,48.1,0,0,1-4.8.6h-5.8s.2-.1.1,0m35,.4a1.3,1.3,0,0,1,1.3,1.4,1.3,1.3,0,0,1-1.3,1.3h-.3l-1.2-2.4a1.1,1.1,0,0,1,1.1-.1h.2c.2-.1-.3.3-.3.2v.2h-.1v-.2c-.1-.1,0,.2,0,.1l-.4-.4a4.3,4.3,0,0,1-.6-1.2l-.6-1.1-.3-.6-1.3-.5a20.9,20.9,0,0,0-4.2-.8c-1.4-.1-2.4,0-3.5,0h-7.9l-2.2-.2a28.7,28.7,0,0,0-4.7-.3,33.7,33.7,0,0,0-4.5,0c-1.4.2-2.6.1-3.7.2l-.8.2c-.3,0-.4.1-.7.3l-.4.3-.4.3h0c-.1.1.1-.2.1-.2h0v-.2c0,.2-.2-.5-.2-.4s-.2-.3-.1-.2h-.1l.9.2a36.2,36.2,0,0,0,7.4,0l3.7-.2h1.9a1.3,1.3,0,0,1,.8.1h-.6c.1-.1-.3-.2.5,0a1.4,1.4,0,0,1,1.1,1.6,1.4,1.4,0,0,1-1.7,1h.3l-1.6.2h-2.1l-3.9.3-2.9.3h-2a1.4,1.4,0,0,1-1.2-1.5,1.4,1.4,0,0,1,1.5-1.3H236l2.9-.3,4.1-.3h2l.9-.2a2.3,2.3,0,0,1,1.2,0l-.6,2.6h.5a1,1,0,0,1-.7-.1h-1.6l-3.7.3a52.3,52.3,0,0,1-8-.1,3.2,3.2,0,0,1-1.4-.3l-.7-.4a1.8,1.8,0,0,1-.7-1.1,2,2,0,0,1,.3-1.4c.4-.8.9-.9.9-.9l.7-.6a5.2,5.2,0,0,1,1.5-.7l1.2-.2c1.3-.2,2.6-.1,3.7-.2a26.7,26.7,0,0,1,4.9,0c1.2,0,2.7,0,5,.2l2,.3h7.7c1,0,2.2-.1,3.7,0a17.1,17.1,0,0,1,4.8.9,4.8,4.8,0,0,1,2.8,1.6,1.3,1.3,0,0,1,.3.7l.8,1.3a1.5,1.5,0,0,0,.3.7,2.8,2.8,0,0,1,.8,1.5,4.1,4.1,0,0,1,.1,1,2.6,2.6,0,0,1-.3.8,1.5,1.5,0,0,1-.8.8,1.4,1.4,0,0,1-1.4.1,1.5,1.5,0,0,1-.8-.3h.2c-.1-.1.4,0,.2,0l.5-.2a1.2,1.2,0,0,1-1.8-.6,1.4,1.4,0,0,1,.6-1.8c.8-.4.8-.2,1-.2h.5m-.9-.8a1.3,1.3,0,0,1,1.4,1.3,1.2,1.2,0,0,1-1.3,1.4h-1.5l.3-.2.3-.3c-.1.2.2-.7.2-.5s-.3-.8-.1-.6-.3-.4-.3-.3l-.2-.2h2.1a1.3,1.3,0,0,1,1.3,1.4,1.2,1.2,0,0,1-1.4,1.3h-1.1a4.8,4.8,0,0,1-1.2,0l-.6-.2a1.7,1.7,0,0,1-1.1-.9,1.8,1.8,0,0,1,.1-1.6,1.9,1.9,0,0,1,1.2-.7h1.9m-2.8-.9a1.3,1.3,0,0,1-1.5-1.2,1.3,1.3,0,0,1,1.1-1.5h.3a.1.1,0,0,1,.1.1h.3l-.4.2-.2.2c.1-.1-.2.6-.2.5s.1.6.1.5l.3.3h.1c-.1,0,.1-.1,0,.1a.5.5,0,0,0-.2.4,3.5,3.5,0,0,0-.1.7v2.2c0,.2-.4-.6-.3-.5s-.6-.2-.5-.2h-.6c.2-.1-.5.5-.4.4l-.2.3c0-.2-.1.4-.1.3h0a1.7,1.7,0,0,1,.2-.8,1.6,1.6,0,0,1,1-.9l.5-.2a3.9,3.9,0,0,1,2.1-.1h1.5a1.2,1.2,0,0,1,1.3,1.4,1.3,1.3,0,0,1-1.3,1.3h-2.9c-.1.1.1-.2.1-.1l.2-.3c-.1.1,0-.3,0-.3h0a.1.1,0,0,1,0,.2v.4a1.7,1.7,0,0,1-.7.8l-.7.2a1.9,1.9,0,0,1-1.2-.3,2.7,2.7,0,0,1-.7-1.3,2.6,2.6,0,0,1,0-.9v-1.7a5,5,0,0,1,.2-1.6,4.7,4.7,0,0,1,.5-1,2.9,2.9,0,0,1,1.9-1.3,1.8,1.8,0,0,1,1.7.2,2,2,0,0,1,.9,1.9,1.1,1.1,0,0,1-.3.7,1.5,1.5,0,0,1-1,.7h-.9m-11.6-1.8a1.3,1.3,0,0,1-1.3-1.4,1.2,1.2,0,0,1,1.4-1.3h2.5l-.3.3-.3.4c.1-.1-.1.6-.1.5s.2.5.1.4.2.3.2.2.1.2.1.2h-.1l-1.9-.2h-2.4l-2.7-.2H248c-.1.1.7-.4.5-.2s.5-.9.4-.7-.1-.9,0-.7-.3-.5-.2-.4,0,.1,0,.1-.3-.2-.2-.2h.3c1.4-.5,2.8-.2,4.2-.2h3l3,.2,3.6-.3h3.3l1.6-.2h2.1a6.4,6.4,0,0,1,1.7.5,2.2,2.2,0,0,1,1,.8,2.8,2.8,0,0,1,.2,1.7V117a4,4,0,0,1,0,1.1,2.4,2.4,0,0,1-.3,1.3,1.9,1.9,0,0,1-.6.7,1.8,1.8,0,0,1-1.6,0,1.3,1.3,0,0,1-.7-1,.9.9,0,0,1-.1-.5l-.2-.6c0-.2.2,0,.1,0h-1.8l-1,.2H266s.1-.1,0-.1.2-.1.2-.1.2-.4.2-.3.1-.8.1-.6-.1-.6-.1-.4l-.2-.4c.1.1-.2-.2-.1-.2h2c.1-.1-.5.4-.4.2s-.3.6-.2.4-.1,1-.1.7.3.8.2.7.4.3.3.3.5.2.4.2h-.7c-.2,0,.5-.3.4-.2s.3-.8.3-.6,0-.4,0-.3v-.3c.1.2-.3-.2-.2-.2h.6c.2-.1-.5.5-.4.3s-.1,1-.1.7v.4l.2.3h0l-.9-.3-1.2-.2-.8-.3-.7-.4a1.5,1.5,0,0,1-.2-1.9,1.4,1.4,0,0,1,2-.2h.3l1.2.3,1.3.3.6.3a1.6,1.6,0,0,1,.8,1.2,2.5,2.5,0,0,1-.2,1,2.3,2.3,0,0,1-.7.7l-1,.3a2.8,2.8,0,0,1-2.6-.3l-.6-.8a2,2,0,0,1-.1-1.1,1.9,1.9,0,0,1,.5-.9,2,2,0,0,1,.9-.5h1a1.8,1.8,0,0,1,1.1,0l.4.2a1.9,1.9,0,0,1,.6,1,1.6,1.6,0,0,1-.4,1.1l-.4.3-.8.2h-1.2a4.4,4.4,0,0,1-2.2-.2l-.6-.3-.3-.3a1.1,1.1,0,0,1-.3-.5,1.4,1.4,0,0,1,0-1.1,1.9,1.9,0,0,1,.9-.8l.7-.2a4.1,4.1,0,0,1,1.6-.3,5.9,5.9,0,0,1,2.3.1,2.1,2.1,0,0,1,1.3.5,2.4,2.4,0,0,1,1,1.5,5.4,5.4,0,0,1,.2,1.1h0c0,.1-.1-.3-.1-.2V118c.1.1-.5-.3-.3-.3s-1-.1-.7-.1l-.5.2c.2-.2-.4.4-.4.3s0,.1,0,.1v-3.8h0s.1.3.1.2.2.3.2.2h-.7a5.4,5.4,0,0,0-1.8,0h-4.7a16.7,16.7,0,0,1-4,.3L256,115h-3a16.4,16.4,0,0,0-3.4.1l-.8.2a1.9,1.9,0,0,1-1.5-.1,1.8,1.8,0,0,1-.8-.7,1.4,1.4,0,0,1-.2-1.3,1.3,1.3,0,0,1,1-1,2.3,2.3,0,0,1,1.1-.1h4l2.4.2a5.9,5.9,0,0,1,2.9.5l.7.4.3.4a1.2,1.2,0,0,1,.2,1.3,1.4,1.4,0,0,1-.6.7c-.2.2-.3.2-.4.2h-3.6m9,3a1.3,1.3,0,0,1,1.2,1.5,1.4,1.4,0,0,1-1.6,1.2h-.3l-3.3-.2h-2l.4-.2.3-.3c-.1.1.3-.8.2-.6s-.1-.7,0-.5l-.2-.3-.3-.2h2.1l2.8-.2h1.7l.8-.2.7-.2a2.9,2.9,0,0,1,1-.3h2.6l.5,2.7h-6c-.2,0-.2.1-.8-.2l1.4-2.4h-.3c.2.1-.2,0-.2,0s-.1,0,0-.1h1.6l1.7-.2h.1c.1,0-.4.5-.3.3s-.3.7-.3.5.1.8.1.6.2.5.2.4.2.2.1.2h.1l-1.8-.3-1.6-.3a2,2,0,0,1-.8-.4,1.8,1.8,0,0,1-.9-1,1.7,1.7,0,0,1,.3-1.3l.4-.4.4-.2.8-.3.5-.3s-.2.3-.1.2-.1.4-.1.3.1.6,0,.5.4.6.3.5.3.2.2.2,0,0-.1-.1h-1.2l-3.8-.2-3.7-.2h-1.7a1.3,1.3,0,0,1-1.4-1.3,1.2,1.2,0,0,1,1.3-1.4h1.8l3.9.2,3.9.2,1.5.2.8.2a2.1,2.1,0,0,1,.9,1.1,1.7,1.7,0,0,1-.2,1.1,1.5,1.5,0,0,1-.4.6,6.7,6.7,0,0,1-1.4.9l-.7.2h0l.3-.3c-.1.1.2-.6.2-.4s-.1-.9,0-.7-.3-.5-.3-.4h.1l1.3.2c.9.2,1.8,0,2.9.8a1.7,1.7,0,0,1,.6.8,1.7,1.7,0,0,1-.3,1.4,1.5,1.5,0,0,1-1.3.7l-2.2.2h-1.6c-.2,0-.2.3-1-.2a1.4,1.4,0,1,1,1.4-2.4c.2.2-.3-.1-.3-.1s.2,0,.5,0h4.7a1.4,1.4,0,0,1,1.6,1.1,1.5,1.5,0,0,1-1.1,1.6h-3.2l-.9.4-1.2.2h-1.8l-2.9.2h-2.6a2.4,2.4,0,0,1-1.2-.5,2.1,2.1,0,0,1-.6-1.6,1.8,1.8,0,0,1,.7-1l.5-.2h2.7l3.6.2h.3m-.8-.4a1.3,1.3,0,0,1-.4,1.9,1.4,1.4,0,0,1-1.9-.4c-.1-.2.6.5.4.4H248.2c-.1.1.5-.6.4-.4l-.2.3c-.1,0,.1-.2.1-.2s.2-.5.1-.3v-.5c.1.1-.2-.5-.1-.4s-.4-.4-.3-.4h-.1l1.6.2,2.9.3h10.8a1.4,1.4,0,0,1,1.1,1.6,1.5,1.5,0,0,1-1.6,1.1H252.4l-2.9-.3-1.9-.2h-.4c-.2,0-.6,0-1.1-.7a3.1,3.1,0,0,1-.2-1.1,1.5,1.5,0,0,1,.4-.6v-.2h-.1l.8-.6h.4c.2-.1.3,0,.5,0h13.7a1.3,1.3,0,0,1,.8.6M250.9,121a1.4,1.4,0,0,1-1.4-1.4,1.3,1.3,0,0,1,1.4-1.3h10.2s-.3.1-.2,0-.2.1-.1.1l-.3.2h-.2a1.4,1.4,0,1,1,2.1,1.9h-.2a.6.6,0,0,1-.5.2H250.9m13.7-1.9a1.4,1.4,0,1,1-2.5,1.3l.3.3.4.3H250.9a1.4,1.4,0,0,1-1.4-1.4,1.3,1.3,0,0,1,1.4-1.3h12.9c.1,0,.5,0,.8.6M237,121.7a1.4,1.4,0,0,1-2-.1,1.4,1.4,0,0,1,.1-1.9c.6-.6.9-.4,1-.4h1l2.9-.2c1.9-.1,4.3-.3,6.6-.3l4.3.2c1.5,0,3.4-.4,5.2-.6a28.9,28.9,0,0,1,4-.2h3.5a1.4,1.4,0,0,1-.5,2.7H260a21,21,0,0,0-3.5.1,33.2,33.2,0,0,1-5.7.6h-4.3c-2.1-.1-4.3.1-6.2.2l-3.1.2h-.6c-.1.1.5-.4.4-.2m12.1-2.9a1.4,1.4,0,0,1,1.5,1.2,1.4,1.4,0,0,1-1.3,1.5h-7.1l-3.4.3h-3a1.4,1.4,0,0,1,.5-2.7c.1.1-.1,0-.1,0h2.4l3.5-.3h7m1.6.6a1.3,1.3,0,0,1-1.2,1.5,1.3,1.3,0,0,1-1.5-1.2c0-.2.2.6.2.5l.3.4c-.1-.1.2.1.1.1h-5l-2.1.2-.8.2h-.2c-.1,0,.6-.6.5-.4s.3-.8.2-.6h0c0,.1-.1-.5,0-.4s-.3-.4-.3-.3l-.3-.3h3.2l3.4-.2h2.1a1.4,1.4,0,0,1,1.3,1.4,1.4,1.4,0,0,1-1.5,1.3h-1.8l-3.4.2h-4.3a1.3,1.3,0,0,1-.9-.9,1.5,1.5,0,0,1-.2-1,1.6,1.6,0,0,1,.8-1.1l.5-.2h-.2l1.4-.3,2.6-.2h2.1a17.7,17.7,0,0,1,2.3,0l1.2.2h.8a1.4,1.4,0,0,1,.7,1.1m-10.4-1.5a1.4,1.4,0,0,1-.1,2.7h0l-4,.2h-6.4c-.1-.1-.2,0-.5-.3a1.2,1.2,0,0,1-.6-1.2,1.4,1.4,0,0,1,.7-1.1,2.1,2.1,0,0,1,1.4-.3h1.4l5.3-.2a65.4,65.4,0,0,1,8.1.4H249c.1-.1-.4.1-.2,0l-.3.2-.2.3a1.2,1.2,0,0,1,1.9-.3,1.4,1.4,0,0,1,.3,1.9l-.5.4h-1.8l-2.9-.2c-2.2-.2-5-.4-7.7-.4l-5.2.3h-1.6c-.1.1.4-.4.3-.2s.3-.5.2-.3.1-.7.1-.5-.1-.6,0-.5-.4-.6-.3-.5-.3-.2-.2-.2l-.3-.2H236l4.3-.2h0m-4.2.9a1.4,1.4,0,0,1,2.1,1.8H238c-.9.8-1.1.4-1.4.4H231s.2-.1.1-.1.5-.3.4-.2l.3-.4c-.1.2.1-.6.1-.4s-.1-.7,0-.6-.5-.5-.4-.4h-.2c.1.1.5,0,1.2-.1a45.3,45.3,0,0,0,4.9-.8l1.7-.3h.9a1.4,1.4,0,1,1,.5,2.7h-1l-1.6.3a41.7,41.7,0,0,1-5.1.8c-.8.1-1.5.6-2.8-.2a1.9,1.9,0,0,1-.7-.8c0-.2-.1-.4-.1-.8a1.6,1.6,0,0,1,.5-1c.7-.5.9-.3,1.1-.4h5.7l-.3.2h-.1m-7.6-.8a1.4,1.4,0,0,1-1.4,2.4h-.3a1.1,1.1,0,0,1-.4-.5,1.8,1.8,0,0,1-.5-.8l-.3-.8a3.1,3.1,0,0,1-.2-.8,1.5,1.5,0,0,1-.1-.6h0c0-.1.1.2,0,.1s.2.3.1.2l.4.3c-.1,0,.6.2.4.2h.5l.4-.2.2-.2c-.1.2.3-.5.3-.4s0-.1,0-.1h0v2c0,.3-.1,0,0,.1s0,.1.1.1h-.9c.2-.1-.4.4-.4.3s-.2.4-.2.4-.1.2-.1.1h0a5.6,5.6,0,0,0,0-1.3v-.5c0-.1.3.6.1.4l.4.3.7.3h.7l.3-.3.3-.3c-.1.2,0-.1,0-.1s-.2,1.3-.3,2v1s-.1-.4,0-.3-.6-.8-.4-.6-.5-.2-.4-.2h.4a43.9,43.9,0,0,0,4.9-.9l1.9-.4h3.1c.1.1.2.1.3.3a1.4,1.4,0,0,1,0,1.9,1.4,1.4,0,0,1-2-.1l.3.3h-1.3l-1.7.3a45.2,45.2,0,0,1-5.1,1l-.7.2a1.7,1.7,0,0,1-1.5-.4,1.8,1.8,0,0,1-.5-1.3v-1.2a17.2,17.2,0,0,1,.4-2.4c0-.2-.1-.3.4-.8a1.2,1.2,0,0,1,1.1-.4,1.5,1.5,0,0,1,1.1.6,1.4,1.4,0,0,1,.2.7v.6a8.6,8.6,0,0,1,.1,1.6,1.3,1.3,0,0,1-.1.6.8.8,0,0,1-.1.4.9.9,0,0,1-.3.5,1.6,1.6,0,0,1-1.1.4,2.1,2.1,0,0,1-1.7-.9,3.1,3.1,0,0,1-.7-1.7,8.5,8.5,0,0,1,0-1.6v-.8a1.7,1.7,0,0,1,1.2-1.8,1.6,1.6,0,0,1,1,.1,1.6,1.6,0,0,1,.7.8,1.2,1.2,0,0,1,.2.9,1.9,1.9,0,0,1,.2.7c.1.2.1.4.2.5v.2h0m4.3-5.2a1.3,1.3,0,0,1,1.6,1.1,1.5,1.5,0,0,1-1.1,1.6H232l-1.7-.3-.8-.2-.8-.3h.7c-.2,0,.7-.6.5-.4s.3-.7.3-.5,0-.4,0-.4v-.2h0a3.2,3.2,0,0,1,.2.6,5.4,5.4,0,0,1,.1,1.1,7.8,7.8,0,0,1-.2,1.4,14.8,14.8,0,0,1-.9,1.8c-.1.2-.1.4-.2.5a2.6,2.6,0,0,1-.1.7c0,.2.1-.2.1-.1a2.8,2.8,0,0,1-.1.6,1.3,1.3,0,1,1-2.6-.6v.3c-.1-.1-.1-.3,0-.7a3.7,3.7,0,0,1,.1-.8,2.6,2.6,0,0,1,.3-1c.3-.7.7-1.3.8-1.6s.1-.3,0-.5.1-.3.1-.3l-.3-.7a1.9,1.9,0,0,1,0-.8,1.4,1.4,0,0,1,.8-.9c.4-.2.6-.2.8-.1s.4.1.5.1l.8.3h.5l1.5.3h.4m-2.7,3.4a1.4,1.4,0,0,1,.1,2,1.5,1.5,0,0,1-2,.1,2.4,2.4,0,0,1-.5-.9,1.7,1.7,0,0,1,.5-1.4,1.5,1.5,0,0,1,1.1-.4h1.5c1.9-.1,4.3,0,6.8.1s3.5,0,5.3,0,6.5.1,9.2,0l5.2-.2a24.7,24.7,0,0,0,4.4-.5l2.3-.3h2.3l-.4.2a1.3,1.3,0,0,1,1.9.5,1.5,1.5,0,0,1-.5,1.9,1.2,1.2,0,0,1-1,.1h-2c-2.4-.1-5.1.1-7.7-.2s-4.6-.9-6.6-1-3.2,0-4.7-.1-2.7-.3-4.2-.3h-3.3a21.9,21.9,0,0,0-3.6.3,13.8,13.8,0,0,1-3.4.3l-1.5.2h-1.7a1.2,1.2,0,0,1-.8-.3h-.7a2.3,2.3,0,0,1-1.5-.7,1.7,1.7,0,0,1-.6-1,1.6,1.6,0,0,1,.5-1.5,1.3,1.3,0,0,1,1.3-.4h3.6a12.3,12.3,0,0,1,2.2.5h1.1a1.4,1.4,0,0,1,1.7.9,1.3,1.3,0,0,1-.9,1.7H232l-1-.2-1.7-.4h-3.4c-.1.1.6-.4.5-.2s.3-.8.3-.6,0-.5,0-.4-.3-.5-.2-.4h0a2.3,2.3,0,0,1,1.5.4l.4.2s-.2-.1-.1-.1h2.4l3-.2a19,19,0,0,1,4.1-.4H241a29,29,0,0,1,4.5.3c1.2.1,2.7-.1,4.7.1s4.5.7,6.7.9,5,.2,7.5.3h1.9l-.4.2,1.4,2.4c-.7.3-.7.1-.8.1h-2.3l-2,.3a29.2,29.2,0,0,1-5,.5l-5,.2c-2.8.2-6.2.1-9.3,0s-3.5.1-5.5,0-4.7-.2-6.5-.1H230c-.1.1.4-.7.4-.5s0-1,0-.8-.2-.5-.2-.4-.1-.2-.1-.2"/></g><g class="cls-4"><path d="M4.1,21.5a.4.4,0,0,1,.2.5.5.5,0,0,1-.6.2,1.5,1.5,0,0,0-1.7.2,2.9,2.9,0,0,0-1,1.8,2.6,2.6,0,0,0,.1,2,1.5,1.5,0,0,0,1,.4,2.5,2.5,0,0,0,1.5-.3,4.3,4.3,0,0,0,1.4-2c.3-1,.3-1.6,0-2a1.7,1.7,0,0,0-1.1-.7c-.2-.1-.3,0-.4,0s-.1.2-.2.4-.2.4-.5.4a.5.5,0,0,1-.3-.5,1.7,1.7,0,0,1,.6-1,1,1,0,0,1,.9-.1,2.7,2.7,0,0,1,1.6,1,3.3,3.3,0,0,1,.2,2.8,5,5,0,0,1-1.7,2.3,3.6,3.6,0,0,1-2,.6,2.4,2.4,0,0,1-1.7-.9A2.9,2.9,0,0,1,.2,24a3.8,3.8,0,0,1,1.3-2.2,2.3,2.3,0,0,1,2.6-.3"/><path d="M240.6,20.8a.4.4,0,0,1,.5.3.5.5,0,0,1-.3.5,2,2,0,0,0-1.7,1.4,3.7,3.7,0,0,0-.3,1.5V25h.1a1.7,1.7,0,0,0,1.3-.2,4.8,4.8,0,0,0,1.7-1.2,2.6,2.6,0,0,0,.7-1.1,1.4,1.4,0,0,0,0-.9l-.9-.3a1.8,1.8,0,0,0-1.3.1c-.4.1-.6.4-.8,1a.3.3,0,0,1-.5.3c-.2,0-.3-.2-.3-.4a2.4,2.4,0,0,1,1.3-1.7,3.3,3.3,0,0,1,1.7-.1,2,2,0,0,1,1.5.7,2.6,2.6,0,0,1,.1,1.5,3.6,3.6,0,0,1-1,1.5,5.2,5.2,0,0,1-1.9,1.4,2.1,2.1,0,0,1-2,.1,1.5,1.5,0,0,1-.5-.6v-.8a5.5,5.5,0,0,1,.3-1.7,3.2,3.2,0,0,1,2.3-1.9"/><path d="M34.4,16.7a.4.4,0,0,1,.4-.4c.3,0,.4.1.4.4V27.4a.4.4,0,0,1-.4.4.4.4,0,0,1-.4-.4Z"/><path d="M34.8,17.1a.4.4,0,0,1-.4-.4.4.4,0,0,1,.4-.4H82.3c.3,0,.5.1.5.4a.5.5,0,0,1-.5.4Z"/><path d="M81.9,16.8a.4.4,0,0,1,.4-.4.5.5,0,0,1,.5.4V27.5a.5.5,0,0,1-.5.4.4.4,0,0,1-.4-.4Z"/><path d="M34.8,27.8a.4.4,0,0,1-.4-.4.4.4,0,0,1,.4-.4H82.3c.3,0,.5.1.5.4a.5.5,0,0,1-.5.4Z"/><path d="M97.8,16.8a.4.4,0,0,1,.8,0V27.5a.4.4,0,1,1-.8,0Z"/><path d="M98.2,17.2a.4.4,0,0,1-.4-.4.4.4,0,0,1,.4-.4h47.5a.4.4,0,0,1,.4.4.4.4,0,0,1-.4.4Z"/><path d="M145.3,16.9a.4.4,0,1,1,.8,0V27.6a.4.4,0,1,1-.8,0Z"/><path d="M98.2,27.9a.4.4,0,0,1-.4-.4.4.4,0,0,1,.4-.4h47.5a.4.4,0,0,1,.4.4.4.4,0,0,1-.4.4Z"/><path d="M161.1,16.9a.4.4,0,0,1,.4-.4c.3,0,.5.1.5.4V27.6a.5.5,0,0,1-.5.4.4.4,0,0,1-.4-.4Z"/><path d="M161.5,17.3a.4.4,0,0,1-.4-.4.4.4,0,0,1,.4-.4h47.6a.4.4,0,0,1,.4.4.4.4,0,0,1-.4.4Z"/><path d="M208.7,17a.4.4,0,0,1,.4-.4.4.4,0,0,1,.4.4V27.7a.4.4,0,0,1-.4.4.4.4,0,0,1-.4-.4Z"/><path d="M161.5,28a.4.4,0,0,1-.4-.4.4.4,0,0,1,.4-.4h47.6a.4.4,0,0,1,.4.4.4.4,0,0,1-.4.4Z"/><path d="M3.1,23.6a.4.4,0,0,1-.4-.4.5.5,0,0,1,.4-.5H34.8c.3,0,.4.2.4.5a.4.4,0,0,1-.4.4Z"/><path d="M82.3,23.6a.4.4,0,0,1-.4-.4.5.5,0,0,1,.4-.5H98.2a.5.5,0,0,1,.4.5.4.4,0,0,1-.4.4Z"/><path d="M147.3,22.7c.1-.2.2-.4.5-.4a.4.4,0,0,1,.4.4.4.4,0,0,1-.3.4H147a.3.3,0,0,1-.5-.3c-.1-.2.1-.4.3-.5h.8s-.2.2-.2.1,0,.2,0,.2-.1.1-.1.1"/><path d="M145.7,23.6a.4.4,0,0,1-.4-.4.5.5,0,0,1,.4-.5h15.8a.5.5,0,0,1,.5.5.5.5,0,0,1-.5.4Z"/><path d="M209.1,23.6a.4.4,0,0,1-.4-.4c0-.3.1-.5.4-.5h31.6a.5.5,0,0,1,.5.5.5.5,0,0,1-.5.4Z"/><path d="M55.6,8a.4.4,0,0,1-.4.4.5.5,0,0,1-.4-.5h0V5.7a9.3,9.3,0,0,1,.7-4.3A2.3,2.3,0,0,1,57,0a1.8,1.8,0,0,1,1,.2.8.8,0,0,1,.5.5c0,.3.1.5.1.7a7.7,7.7,0,0,1-.2,1.5,11.6,11.6,0,0,1-.6,1.5,2.8,2.8,0,0,0,.1,2,1.8,1.8,0,0,0,.5.7,1.1,1.1,0,0,0,.8.3.4.4,0,0,1,0,.8,1.9,1.9,0,0,1-1.3-.5,2,2,0,0,1-.8-1A4.3,4.3,0,0,1,57,4.2a9.4,9.4,0,0,0,.6-1.5,5.9,5.9,0,0,0,.2-1.3c0-.1-.1-.3-.1-.4h-.5a1.9,1.9,0,0,0-1,1,9.7,9.7,0,0,0-.6,3.9V7.9h0m.8-6.1a.4.4,0,0,1-.4.4.4.4,0,0,1-.4-.4V1.7h.1s.1.1,0,.1.2.1.1,0h.4s.1-.1.1,0,.1-.1,0-.1h.1c-.1.1-.1.3-.1.6a32.6,32.6,0,0,0-.5,3.3A5.7,5.7,0,0,0,55.7,7a2.5,2.5,0,0,0-.1.8h0c0,.3-.1.5-.4.5a.4.4,0,0,1-.4-.4V6.9c.1-.3.1-.7.2-1.2s.3-2.4.4-3.3.1-.6.2-.8h0l.2-.2c.1,0,.3-.1.4,0h.2c.1.3,0,.3,0,.5"/><path d="M61.9,9a.4.4,0,0,1-.7-.3,1.8,1.8,0,0,1,.7-.9L63,6.7l1.2-1h.6a.7.7,0,0,1,.6.3,1.1,1.1,0,0,1,.1,1,4.4,4.4,0,0,1-.2,1l-.3.9a.4.4,0,0,1-.1.3h0c.1.2-.1.4-.3.4s-.4-.1-.5-.3.1-.5.1-.7l.3-.9a5.1,5.1,0,0,0,.2-.9c.1-.3,0-.4,0-.4s.1,0,.1,0h-.2a3.1,3.1,0,0,0-1,.8A12.7,12.7,0,0,0,61.9,9"/><path d="M121.9,2.8a.5.5,0,0,1,.5-.3.6.6,0,0,1,.3.6,7.9,7.9,0,0,0-.4,2.3,3.7,3.7,0,0,0-.2.9,2.5,2.5,0,0,0-.1.8v.2l-.3.2h-.3l-.2-.2V7.1a12,12,0,0,1,.1-3.2,5.5,5.5,0,0,1,1.5-2.7,1.2,1.2,0,0,1,.8-.4h.4l.3.3a3.3,3.3,0,0,1,.3.6c.2.9-.5,1.8-.6,2.5a3.2,3.2,0,0,0-.1.8,3,3,0,0,0,.8.7A3.4,3.4,0,0,1,125.7,7a.4.4,0,0,1-.2.6c-.2.1-.5,0-.5-.2a3.2,3.2,0,0,0-1-1,1.9,1.9,0,0,1-1-1,1.7,1.7,0,0,1,0-1.2c.2-1,.7-1.8.6-2.2s-.1-.3-.2-.4h0l-.3.2a4.9,4.9,0,0,0-1.2,2.3,9.2,9.2,0,0,0-.1,2.8h0c0,.1-.2-.1-.1-.1h-.5a2.3,2.3,0,0,1,.1-.7c0-.3.1-.6.1-.9a22.1,22.1,0,0,1,.5-2.5"/><path d="M128.5,6.6a.4.4,0,0,1-.4-.4.4.4,0,0,1,.4-.4c.5.1,1.2-.2,1.8.2s.3.3.4.4v.5c0,.6-.5,1-.7,1.5a1.3,1.3,0,0,0-.4.7h0l.3.2,2,.5c.2,0,.3.2.3.4s-.3.4-.5.4l-2.1-.6a.9.9,0,0,1-.6-.4.8.8,0,0,1-.2-.8,4.7,4.7,0,0,1,.5-1l.6-1V6.7h-1.4"/><path d="M187.4,9.4c-.1.3-.3.4-.5.3a.4.4,0,0,1-.2-.5,4.4,4.4,0,0,1,0-1.2,13.3,13.3,0,0,1,1.8-4.8,5.3,5.3,0,0,1,.9-1.1,1,1,0,0,1,.9-.2c.3,0,.5.3.6.5a1.9,1.9,0,0,1,.2.7,2.1,2.1,0,0,1-.5,1.5,7.6,7.6,0,0,0-.8,1.1,1.6,1.6,0,0,0,.1,1.5,2.8,2.8,0,0,0,1.2,1.2.4.4,0,1,1-.3.7,3.1,3.1,0,0,1-1.6-1.6,2.1,2.1,0,0,1-.1-2.2,12.5,12.5,0,0,1,.8-1.2,1.6,1.6,0,0,0,.4-.9c0-.2-.1-.3-.1-.4h-.1c0-.1.1,0,0,0h-.2a1.9,1.9,0,0,0-.7.8,12.3,12.3,0,0,0-1.7,4.5,2.8,2.8,0,0,1-.1,1.3m.6-5.5a.5.5,0,0,1,.6-.2c.2,0,.3.3.2.5a19.1,19.1,0,0,0-.9,2.6l-.3,1.4c0,.3-.1.5-.1.7a.7.7,0,0,1-.1.5c0,.2-.2.3-.4.3a.5.5,0,0,1-.4-.5V8.8c0-.2.1-.5.1-.8a10.3,10.3,0,0,1,.4-1.4,14.6,14.6,0,0,1,.8-2.7"/><path d="M194.7,8.1a.4.4,0,0,1-.4-.4.5.5,0,0,1,.5-.4h1.9c.3.1.5.2.6.5s.1.3,0,.4,0,.1-.1.2l-.2.3a2.6,2.6,0,0,1-.8.6.6.6,0,0,0-.3.6c0,.3.1.7.1,1.1a1.3,1.3,0,0,1-.2,1.2.9.9,0,0,1-.7.3,1.4,1.4,0,0,1-.9-.1c-.2,0-.4-.2-.3-.4s.2-.4.5-.3h.8a1.1,1.1,0,0,0,0-.6c0-.3-.1-.8-.1-1.2a1.6,1.6,0,0,1,.6-1.3c.3-.2.6-.3.6-.4l.2-.2h-1.8"/><path class="cls-6" d="M18.6,21.8c0,.2-.1.5-.4.5s-.4-.1-.4-.3a2.8,2.8,0,0,1-.1-.9,1,1,0,0,1-.1-.4h.6c-.1,0,0-.1,0-.1h.1v.2c-.1.1-.1.4-.2.7l-.3,2v2.3h0s-.2-.2-.1-.2-.2-.1-.1-.1h-.5c0-.1.1-.1.1-.3a5.7,5.7,0,0,0,.1-1.4V21.8l.3-.3h.6l.3.3a16.4,16.4,0,0,0,3.3,2.2c.2,0,.4.2.3.4a.4.4,0,0,1-.4.4l-.7-.3A14.1,14.1,0,0,1,18,22.6l-.3-.3H18c-.1,0,.1-.1.1-.1h0v1.9a8.1,8.1,0,0,1-.1,1.6.5.5,0,0,1-.2.4c0,.1,0,.2-.2.3h-.5A.4.4,0,0,1,17,26V23.5a13.3,13.3,0,0,1,.3-2.1c.1-.3.1-.6.2-.7v-.3h.1c0-.1.1-.1.3-.2a.4.4,0,0,1,.4.3l.2.6a1.9,1.9,0,0,0,.1.8"/><path class="cls-6" d="M17.8,26.7a.5.5,0,0,1,.5.4.4.4,0,0,1-.4.4h-.6l-.3-.5a1.7,1.7,0,0,1,.1-1,3.9,3.9,0,0,1,2.3-1.8,13,13,0,0,1,2.7-.8c.3,0,.5.1.5.4a.4.4,0,0,1-.4.4,10.7,10.7,0,0,0-2.5.7,3.4,3.4,0,0,0-1.8,1.4,1.1,1.1,0,0,0-.1.5h0"/><path class="cls-6" d="M17.2,21.6c.1-.2.3-.4.5-.3a.4.4,0,0,1,.4.4h0s-.1-.1-.1,0,0-.1,0-.1l1,.9a16.6,16.6,0,0,0,1.4,1.3l.6.3h-.1c.2-.2.4-.1.6.1a.3.3,0,0,1-.1.5.5.5,0,0,1-.5.1h-.3l-.6-.5A9.1,9.1,0,0,1,18.4,23l-.7-.6a1.3,1.3,0,0,1-.4-.6v-.2m1,1h-.6c-.1-.2-.2-.4,0-.6s-.1.2-.1.1h0V22h.1s.1.1,0,.1.2,0,.1,0a.3.3,0,0,1-.3-.5c0-.2.2-.4.4-.3H18l.2.3c0,.1.1.2.1.3v.2a.8.8,0,0,1-.1.4"/><path class="cls-6" d="M20.3,23.9a.4.4,0,0,1,.5-.2c.3.1.4.3.3.5v.2h-.1c0,.1-.1.1-.2.2l-.4.3-1.4.5-.6.3H18c-.1,0,0-.1,0-.1l-.7-.5a.4.4,0,0,1,.5-.2h1.1l1.2-.5.6-.2H21c.1.1.2.2.2.3s0,.3,0,.5a2.3,2.3,0,0,1-1.4.7l-.8.2h-.3a.4.4,0,0,1-.4-.3c-.1-.2-.1-.4.1-.5a.4.4,0,0,1,.6.2h-.1c.1,0-.1-.1-.1-.1h.8l.9-.5h-.1s.1.2,0,.1h.2c-.1,0,.2.1.1.1h-.2l-1.3.6-1,.2H18c-.1.2-.4.2-.6.1a.6.6,0,0,1-.1-.6c.2-.2.3-.2.4-.2H18l.6-.3,1.3-.6.4-.2h.1s-.1.2-.1.1m-2.1,1.8a.5.5,0,0,1,.5.3.4.4,0,0,1-.2.5H18l-.5-.2a.5.5,0,0,1-.2-.4v-.4c.2-.7.9-.9,1.4-1.1l.8-.4.7-.3h.7a.4.4,0,0,1,.1.6c-.1.2-.3.2-.5.1s.1.1.1.1.1,0,0,0h-.1l-.7.4-.7.3-1,.6h.1"/><path class="cls-6" d="M20.2,23.1c.1.2,0,.4-.2.6a.4.4,0,0,1-.5-.2h0a.1.1,0,0,1-.1-.1l-.3-.2-.3-.3-.2-.2v-.4c.1-.2.2-.2.3-.3h.3l1.3.5h.1l.2.2a.6.6,0,0,1-.1.4c-.3.2-.3.1-.4.1H20l-1-.6a.3.3,0,0,1-.1-.5c.2-.2.4-.3.6-.1l.7.4h-.1V23s.1.2,0,.2h.2l-1.1-.5h.1c-.1,0,.1-.1.1,0s.1-.2.1-.2,0-.2,0-.1v-.2h-.1l.4.2.3.4a.1.1,0,0,1,.1.1h.1m-.4,1.3a.4.4,0,0,1-.5.2.4.4,0,0,1-.3-.5v.2h0l-.2-.2h-.2c-.2.1-.5,0-.5-.2s0-.5.2-.5a.6.6,0,0,1,.6,0h1.2s-.1.1-.1,0h-.1V24h0l-.9-.7-.5-.4-.3-.2v-.5l.2-.2h.8l.4.3.5.3a.4.4,0,0,1-.4.8l-.5-.4-.5-.3h.1c-.1,0,.1-.2.1-.1s.1-.2.1-.1,0-.3,0-.2h0l.4.3,1,.8h.2v.2a.6.6,0,0,1-.1.4c-.2.2-.3.1-.3.1H18.6l-.3-.7a.8.8,0,0,1,1,.1l.3.2c.1.1.1.1.1.2a.1.1,0,0,1,.1.1s.1.1,0,.3m-1-.5a.4.4,0,0,1,.2.5c0,.2-.3.3-.5.2a1.2,1.2,0,0,1-.6-.6c0-.1,0-.1-.1-.2a.8.8,0,0,1,.1-.3.2.2,0,0,1,.2-.2h.5a.6.6,0,0,1,.4.5h.2a.4.4,0,0,1,.5.1.4.4,0,0,1-.1.6h-.5a.7.7,0,0,1-.6-.2c-.1-.1-.2-.3-.3-.3h.2s.2-.1.1-.1h.1c0,.1.1-.2.1-.2h0a.3.3,0,0,0,.1.2"/><path class="cls-6" d="M11.4,4.9a.4.4,0,0,1-.4-.4.4.4,0,0,1,.4-.4c.2,0,.4.3.4.4v.3a1.7,1.7,0,0,1-.2.5l-.7,1.3-.7,1.2-.3.3c-.1.1-.2.2-.4.1L9.1,8V7.8a.4.4,0,1,1,.8,0H9.3l.2-.2.7-1.1.7-1.3c0-.1.1-.2.1-.3h.1c-.1-.1.2.1.1.1h.2"/><path class="cls-6" d="M8.6,3.4a.4.4,0,0,1,.3.6.4.4,0,0,1-.5.2l-1-.5A.7.7,0,0,1,7,3.1a.8.8,0,0,1,.2-.4c0-.1.1-.1.2-.2a9.1,9.1,0,0,1,3-.4,27.7,27.7,0,0,1,4-.1,4.1,4.1,0,0,1,1.6.3,1.4,1.4,0,0,1,.7,1.2.4.4,0,0,1-.4.4c-.3,0-.5-.2-.4-.5s-.1-.2-.3-.3a2.1,2.1,0,0,0-1.2-.3,26.3,26.3,0,0,0-3.9.1,11.9,11.9,0,0,0-2.7.4h0V3.1h0l.8.4"/><path class="cls-6" d="M6.1,8.3c.1-.2.3-.2.5-.1s.2.4.1.6a1.5,1.5,0,0,1-.7.5v.2h.5c1.8-.1,4.8-.8,7.2-1a.4.4,0,0,1,.4.4c.1.2-.1.4-.3.4-2.3.2-5.3.9-7.2,1H6a.6.6,0,0,1-.7-.1,1.2,1.2,0,0,1-.2-.8c.1-.2.2-.5.4-.6l.6-.4"/><path d="M4.1,116.5a.4.4,0,0,1-.4.8,1.4,1.4,0,0,0-1.7.2,2.9,2.9,0,0,0-1,1.8,2.4,2.4,0,0,0,.1,1.9,1.2,1.2,0,0,0,1,.5,2.6,2.6,0,0,0,1.5-.4,4.3,4.3,0,0,0,1.4-2,2.3,2.3,0,0,0,0-2,3.4,3.4,0,0,0-1.1-.7H3.5c-.1,0-.1.1-.2.4s-.2.3-.5.3-.3-.3-.3-.5a1.5,1.5,0,0,1,.6-.9,1,1,0,0,1,.9-.2,2.7,2.7,0,0,1,1.6,1,3.3,3.3,0,0,1,.2,2.8A5.3,5.3,0,0,1,4.1,122a3.5,3.5,0,0,1-2,.5,2.3,2.3,0,0,1-1.7-.8,3,3,0,0,1-.2-2.6,4.1,4.1,0,0,1,1.3-2.3,2.7,2.7,0,0,1,2.6-.3"/><path d="M306.3,114.6c.2-.1.4.1.5.3a.5.5,0,0,1-.3.5,2,2,0,0,0-1.7,1.4,3.7,3.7,0,0,0-.3,1.5v.5a.1.1,0,0,0,.1.1,1.7,1.7,0,0,0,1.3-.2,4.5,4.5,0,0,0,1.6-1.2,2.1,2.1,0,0,0,.8-1.1c.1-.4.1-.7,0-.8s-.5-.3-.9-.4a1.8,1.8,0,0,0-1.3.1c-.4.1-.6.4-.8,1s-.2.4-.5.4a.5.5,0,0,1-.3-.5,2.4,2.4,0,0,1,1.3-1.7,3.3,3.3,0,0,1,1.7-.1c.5.1,1.2.2,1.5.7a2.6,2.6,0,0,1,.1,1.5,3.1,3.1,0,0,1-1,1.5,5.2,5.2,0,0,1-1.9,1.4,2.1,2.1,0,0,1-2,.1,1.5,1.5,0,0,1-.5-.6v-.7a5.7,5.7,0,0,1,.3-1.8,3,3,0,0,1,2.3-1.9"/><path d="M34.4,111.7a.4.4,0,0,1,.4-.4.4.4,0,0,1,.4.4v10.7a.4.4,0,0,1-.4.4.4.4,0,0,1-.4-.4Z"/><path d="M34.8,112.1a.4.4,0,1,1,0-.8H82.3a.4.4,0,1,1,0,.8Z"/><path d="M81.9,111.8a.4.4,0,0,1,.4-.4.5.5,0,0,1,.5.4v10.7a.5.5,0,0,1-.5.4.4.4,0,0,1-.4-.4Z"/><path d="M34.8,122.8a.4.4,0,1,1,0-.8H82.3a.4.4,0,1,1,0,.8Z"/><path d="M97.8,111.8a.4.4,0,1,1,.8,0v10.7a.4.4,0,0,1-.8,0Z"/><path d="M98.2,112.2a.4.4,0,0,1,0-.8h47.5a.4.4,0,0,1,0,.8Z"/><path d="M145.3,111.9a.4.4,0,1,1,.8,0v10.7a.4.4,0,0,1-.8,0Z"/><path d="M98.2,122.9a.4.4,0,1,1,0-.8h47.5a.4.4,0,0,1,0,.8Z"/><path d="M161.1,111.9a.4.4,0,0,1,.4-.4.5.5,0,0,1,.5.4v10.7a.5.5,0,0,1-.5.4.4.4,0,0,1-.4-.4Z"/><path d="M161.5,112.3a.4.4,0,1,1,0-.8h47.6a.4.4,0,1,1,0,.8Z"/><path d="M208.7,112a.4.4,0,0,1,.4-.4.4.4,0,0,1,.4.4v10.7a.4.4,0,0,1-.4.4.4.4,0,0,1-.4-.4Z"/><path d="M161.5,123a.4.4,0,0,1,0-.8h47.6a.4.4,0,0,1,0,.8Z"/><path d="M3.1,118.6a.4.4,0,0,1,0-.8H34.8a.4.4,0,1,1,0,.8Z"/><path d="M82.3,118.6a.4.4,0,0,1,0-.8H98.2a.4.4,0,0,1,0,.8Z"/><path d="M147.3,117.7c.1-.2.2-.4.5-.4a.5.5,0,0,1,.4.5.3.3,0,0,1-.3.3h-.2a.1.1,0,0,1-.1-.1H147c-.3,0-.5-.1-.5-.4s.1-.4.3-.4h.9s-.1.1,0,.1-.1,0-.1,0h-.2c.1,0,0,.1,0,.1h-.1"/><path d="M145.7,118.6a.4.4,0,0,1,0-.8h15.8a.4.4,0,1,1,0,.8Z"/><path d="M272.4,118.6a.4.4,0,0,1,0-.8h31.7a.4.4,0,0,1,0,.8Z"/><path d="M55.6,103a.4.4,0,0,1-.4.4.4.4,0,0,1-.4-.4h0v-2.1a8.9,8.9,0,0,1,.7-4.3A2.1,2.1,0,0,1,57,95.1a1.2,1.2,0,0,1,1,.1c.3.1.4.4.5.6s.1.4.1.7a7.8,7.8,0,0,1-.2,1.4,9.1,9.1,0,0,1-.6,1.6,2.5,2.5,0,0,0,.1,1.9,2.2,2.2,0,0,0,.5.8l.8.2a.4.4,0,0,1,.4.4.4.4,0,0,1-.4.4,1.8,1.8,0,0,1-1.3-.4,2.8,2.8,0,0,1-.8-1.1,4.3,4.3,0,0,1-.1-2.5,6.7,6.7,0,0,0,.6-1.5,6,6,0,0,0,.2-1.2,4.3,4.3,0,0,0-.1-.5h-.1c-.1,0-.3-.1-.4,0a2,2,0,0,0-1,.9,9.9,9.9,0,0,0-.6,4v2.1h0m.8-6.1a.4.4,0,0,1-.4.4.4.4,0,0,1-.4-.4h.1s.1.1,0,.1h.6s.1-.1,0-.1h.1c-.1.1-.1.4-.1.7a25.7,25.7,0,0,0-.5,3.3,4.5,4.5,0,0,0-.1,1.1,2.8,2.8,0,0,0-.1.8v.2a.4.4,0,0,1-.4.4.4.4,0,0,1-.4-.4v-1c.1-.4.1-.8.2-1.2s.3-2.4.4-3.4a6.4,6.4,0,0,1,.2-.7v-.2c.1,0,.1-.1.2-.2h.4l.2.2c.1.3,0,.3,0,.4"/><path d="M61.9,104a.4.4,0,0,1-.5.2c-.2,0-.3-.3-.2-.5a1.8,1.8,0,0,1,.7-.9l1.1-1.1a9.4,9.4,0,0,1,1.2-.9l.6-.2a.7.7,0,0,1,.6.3,1.2,1.2,0,0,1,.1,1,3.6,3.6,0,0,1-.2,1,4.6,4.6,0,0,1-.3.9c0,.2,0,.3-.1.4h0c.1.2-.1.4-.3.5a.5.5,0,0,1-.5-.4c0-.3.1-.4.1-.7l.3-.9a2.9,2.9,0,0,0,.2-.9c.1-.3,0-.4,0-.4h-.1c-.3.1-.6.5-1,.8L61.9,104"/><path d="M121.9,97.8a.4.4,0,0,1,.5-.2c.2,0,.3.3.3.5a7.9,7.9,0,0,0-.4,2.3,4.4,4.4,0,0,0-.2,1,1.7,1.7,0,0,0-.1.7c0,.1-.1.1-.1.2s-.1.2-.3.2h-.3l-.2-.2v-.2a11.3,11.3,0,0,1,.1-3.1,5.4,5.4,0,0,1,1.5-2.8,1.2,1.2,0,0,1,.8-.4h.4l.3.3.3.6c.2,1-.5,1.8-.6,2.6a2.5,2.5,0,0,0-.1.8l.8.6a3.8,3.8,0,0,1,1.2,1.3.4.4,0,0,1-.2.5c-.2.1-.5,0-.5-.2a2.2,2.2,0,0,0-1-.9c-.4-.3-.8-.5-1-1a1.9,1.9,0,0,1,0-1.3c.2-.9.7-1.8.6-2.2l-.2-.3h0l-.3.2a6,6,0,0,0-1.2,2.4,8.6,8.6,0,0,0-.1,2.7h-.6a2.3,2.3,0,0,1,.1-.7c0-.3.1-.6.1-.9a22.1,22.1,0,0,1,.5-2.5"/><path d="M128.5,101.7c-.3,0-.4-.2-.4-.5s.2-.3.4-.3a3.7,3.7,0,0,1,1.8.1,1,1,0,0,1,.4.5v.5c0,.6-.5,1-.7,1.4a2,2,0,0,0-.4.8h0l.3.2,2,.5c.2,0,.3.3.3.5s-.3.3-.5.3l-2.1-.5a1,1,0,0,1-.6-.5.7.7,0,0,1-.2-.7,3.1,3.1,0,0,1,.5-1,4.1,4.1,0,0,0,.6-1.1v-.2h0a6.1,6.1,0,0,0-1.4,0"/><path d="M187.4,104.5a.4.4,0,0,1-.5.2c-.2,0-.3-.3-.2-.5a4.1,4.1,0,0,1,0-1.2,13.3,13.3,0,0,1,1.8-4.8l.9-1.1a1,1,0,0,1,.9-.2.9.9,0,0,1,.6.6,1.4,1.4,0,0,1,.2.7,1.9,1.9,0,0,1-.5,1.4l-.8,1.1a1.6,1.6,0,0,0,.1,1.5,2.3,2.3,0,0,0,1.2,1.2.4.4,0,0,1,.2.5c-.1.3-.3.3-.5.2a2.9,2.9,0,0,1-1.6-1.5,2.2,2.2,0,0,1-.1-2.2,14.8,14.8,0,0,1,.8-1.3,1.2,1.2,0,0,0,.4-.8,4.3,4.3,0,0,0-.1-.5h-.3a3.5,3.5,0,0,0-.7.9,11.9,11.9,0,0,0-1.7,4.4,3.2,3.2,0,0,1-.1,1.4m.6-5.6a.5.5,0,0,1,.6-.2.4.4,0,0,1,.2.5,16.8,16.8,0,0,0-.9,2.7l-.3,1.3c0,.3-.1.6-.1.8s0,.3-.1.4-.2.4-.4.3a.4.4,0,0,1-.4-.4,1.3,1.3,0,0,1,.1-.5,5.6,5.6,0,0,0,.1-.7,7.4,7.4,0,0,1,.4-1.4,13.6,13.6,0,0,1,.8-2.8"/><path d="M194.7,103.1a.4.4,0,0,1-.4-.4.7.7,0,0,1,.5-.4h1.9a.5.5,0,0,1,.6.4c.1.2.1.3,0,.4a.4.4,0,0,1-.1.3l-.2.3a4.5,4.5,0,0,1-.8.5.6.6,0,0,0-.3.6c0,.4.1.8.1,1.2a1.3,1.3,0,0,1-.2,1.2l-.7.3h-.9c-.2-.1-.4-.3-.3-.5a.3.3,0,0,1,.5-.3h.8a.9.9,0,0,0,0-.6c0-.3-.1-.7-.1-1.2a1.6,1.6,0,0,1,.6-1.2l.6-.5.2-.2h-.4a6.5,6.5,0,0,1-1.4,0"/><path class="cls-6" d="M18.6,116.9a.4.4,0,0,1-.4.4c-.2.1-.4-.1-.4-.3a2.8,2.8,0,0,1-.1-.9.8.8,0,0,1-.1-.3h.7a6.4,6.4,0,0,0-.2.7l-.3,2V121h-.4c0-.1-.2,0-.2,0s-.1.1,0,.1h-.1a.3.3,0,0,0,.1-.2,6.6,6.6,0,0,0,.1-1.5V117c.1,0,.1-.1.1-.2l.3-.2h.5c0,.1.1.1.1.2l.3.2a10.6,10.6,0,0,0,3.3,2.2.4.4,0,0,1,.3.5c0,.2-.2.4-.4.3l-.7-.2a14.8,14.8,0,0,1-3.1-2.2l-.3-.2h.1c-.1-.1.1,0,0,0H18c-.1.1.1,0,.1,0h0v2a7.6,7.6,0,0,1-.1,1.5.8.8,0,0,1-.2.5l-.2.2h-.5a.8.8,0,0,1-.1-.3v-2.5a14.6,14.6,0,0,1,.3-2.2,6.4,6.4,0,0,1,.2-.7v-.2c.1-.1.1-.1.1-.2h.3a.3.3,0,0,1,.4.2c.1.2.1.4.2.6a2.5,2.5,0,0,0,.1.9"/><path class="cls-6" d="M17.8,121.7a.7.7,0,0,1,.5.4.5.5,0,0,1-.4.5l-.6-.2L17,122a2.1,2.1,0,0,1,.1-1.1,4.3,4.3,0,0,1,2.3-1.8,13,13,0,0,1,2.7-.8.5.5,0,0,1,.5.4.5.5,0,0,1-.4.5,7.3,7.3,0,0,0-2.5.7,2.9,2.9,0,0,0-1.8,1.3,1.1,1.1,0,0,0-.1.5h0"/><path class="cls-6" d="M17.2,116.6a.5.5,0,0,1,.5-.3.5.5,0,0,1,.4.5H18c.1,0,0-.1,0-.1l1,1,1.4,1.2.6.4h0c0-.1-.2,0-.1,0a.4.4,0,0,1,.5.7h-.8l-.6-.4-1.6-1.3-.7-.7a1.3,1.3,0,0,1-.4-.6.3.3,0,0,1-.1-.2m1,1a.4.4,0,0,1-.6,0,.5.5,0,0,1,0-.6v.2h0a.1.1,0,0,0-.1-.1h.2c-.2,0-.4-.2-.3-.4a.4.4,0,0,1,.4-.4H18l.2.3v.6a.5.5,0,0,1-.1.3"/><path class="cls-6" d="M20.3,119c.1-.2.3-.4.5-.3s.4.3.3.5v.2h-.3l-.4.3-1.4.6-.6.2-.3.2h0c-.1,0,0-.1,0-.1a.4.4,0,0,1-.6.1c-.1-.1-.2-.4-.1-.5s.4-.2.5-.3h.3l.8-.2,1.2-.5.6-.2H21a.2.2,0,0,1,.2.2c.1.2,0,.4,0,.5s-.9.6-1.4.8l-.8.2h-.3c-.1-.1-.3-.1-.4-.3s-.1-.5.1-.6a.4.4,0,0,1,.6.2h0l.6-.2.9-.4s-.1.1-.1,0,.1.2,0,.2h.1c0-.1.1.1.1,0h.2l-.3.2-1.3.5-1,.2H18l-.7-.4.4-.3H18l.6-.3,1.3-.5.4-.3a.1.1,0,0,0,.1-.1h-.1m-2.1,1.8a.4.4,0,0,1,.5.2.5.5,0,0,1-.2.6c-.2,0-.4.1-.5,0h-.5a.8.8,0,0,1-.2-.5v-.4c.2-.6.9-.8,1.4-1.1l.8-.3.7-.3.3-.2h.4c.2.1.3.3.1.5s-.3.3-.5.1h0l-.7.4-.7.2-1,.7h0s-.1-.1-.1,0,0-.1,0-.1h.2"/><path class="cls-6" d="M20.2,118.1a.5.5,0,0,1-.2.6.4.4,0,0,1-.5-.1h-.1l-.3-.3-.3-.3c-.1,0-.1-.1-.2-.2v-.4l.3-.2h.3a3.9,3.9,0,0,1,1.3.6h.1l.2.3a.6.6,0,0,1-.1.4c-.3.2-.3.1-.4.1H20l-1-.5a.4.4,0,1,1,.5-.7l.7.4h-.1c0-.1-.1.2-.1.2v.2c0-.1.1.1,0,.1s.1.1.1.1h.1l-1.1-.4h.1c-.1.1.1,0,.1,0s.1-.2.1-.1,0-.2,0-.2h-.1l.4.3.3.3h.2m-.4,1.3c-.1.2-.3.4-.5.3s-.4-.3-.3-.5h0l-.2-.2s.1.1,0,.1h-.2a.4.4,0,0,1-.5-.3.4.4,0,0,1,.2-.5H20s-.2.1-.1.1-.1.3-.1.2v.2h0c0-.1.1,0,.1,0h-.1l-.9-.8-.5-.3-.3-.3v-.4c.1-.1.1-.2.2-.2h.4a.1.1,0,0,0,.1.1l.3.2.4.3.5.3a.4.4,0,0,1,.2.5.5.5,0,0,1-.6.2l-.5-.3-.5-.4h.1c-.1,0,.1-.1.1-.1h.1c-.1.1,0-.2,0-.2h0l.4.3,1,.8h.2c0,.1,0,.1.1.2a.6.6,0,0,1-.1.4l-.3.2H18.6l-.3-.8a.9.9,0,0,1,1,.1l.3.3h.2c0,.1.1.1,0,.3m-1-.5a.4.4,0,0,1,.2.5.3.3,0,0,1-.5.3,1.1,1.1,0,0,1-.6-.7h-.1a.8.8,0,0,1,.1-.4l.2-.2h.5c.3.2.4.4.4.5h.2a.4.4,0,0,1,.5.2c.2.2.1.4-.1.6h-.5c-.2-.1-.4-.1-.6-.3l-.3-.3h.5v.2"/><path class="cls-6" d="M11.4,100a.4.4,0,0,1-.4-.4c0-.3.2-.5.4-.4a.4.4,0,0,1,.4.3v.3c0,.2-.1.3-.2.5a8.3,8.3,0,0,1-.7,1.3,6.3,6.3,0,0,1-.7,1.2l-.3.4H9.5c-.2,0-.3-.2-.4-.3v-.2a.4.4,0,0,1,.8,0H9.3l.2-.2.7-1.1c.3-.4.5-.9.7-1.2s.1-.3.1-.4h.1c-.1,0,.2.2.1.1h.2"/><path class="cls-6" d="M8.6,98.5c.3.1.4.3.3.5a.5.5,0,0,1-.5.3,2.7,2.7,0,0,1-1-.6.7.7,0,0,1-.4-.6l.2-.3a.2.2,0,0,1,.2-.2,9,9,0,0,1,3-.5,27.7,27.7,0,0,1,4-.1l1.6.4a1.2,1.2,0,0,1,.7,1.1.4.4,0,0,1-.4.4c-.3,0-.5-.2-.4-.4s-.1-.3-.3-.4l-1.2-.3H10.5a11.9,11.9,0,0,0-2.7.4h0V98h0l.8.4"/><path class="cls-6" d="M6.1,103.3c.1-.2.3-.2.5-.1a.5.5,0,0,1,.1.6c-.2.3-.5.4-.7.6h.4c1.8-.1,4.8-.8,7.2-1a.4.4,0,0,1,.4.4c.1.2-.1.4-.3.4-2.3.2-5.3.9-7.2,1H6a1,1,0,0,1-.7-.2,1.1,1.1,0,0,1-.2-.8l.4-.6.6-.4"/><path d="M224.5,111.9a.4.4,0,0,1,.8,0v10.7a.4.4,0,0,1-.8,0Z"/><path d="M224.9,112.3a.4.4,0,1,1,0-.8h47.5a.4.4,0,1,1,0,.8Z"/><path d="M272,112a.4.4,0,0,1,.4-.4.4.4,0,0,1,.4.4v10.7a.4.4,0,0,1-.4.4.4.4,0,0,1-.4-.4Z"/><path d="M224.9,123a.4.4,0,0,1,0-.8h47.5a.4.4,0,1,1,0,.8Z"/><path d="M209.1,118.6a.4.4,0,1,1,0-.8h15.8a.4.4,0,1,1,0,.8Z"/><path d="M250.8,104.5a.4.4,0,0,1-.5.2.3.3,0,0,1-.3-.5,8.3,8.3,0,0,1,.1-1.2,13.1,13.1,0,0,1,1.7-4.8,5.2,5.2,0,0,1,1-1.1,1,1,0,0,1,.9-.2.9.9,0,0,1,.6.6,1.5,1.5,0,0,1,.1.7,1.9,1.9,0,0,1-.5,1.4l-.7,1.1a2,2,0,0,0,0,1.5,2.5,2.5,0,0,0,1.3,1.2.4.4,0,0,1,.2.5.4.4,0,0,1-.6.2,2.9,2.9,0,0,1-1.6-1.5,2.8,2.8,0,0,1-.1-2.2l.9-1.3c.2-.3.4-.6.3-.8a.7.7,0,0,0-.1-.5h-.2a3.6,3.6,0,0,0-.8.9,11.7,11.7,0,0,0-1.6,4.4c-.1.5,0,1-.1,1.4m.6-5.6a.4.4,0,0,1,.7.3l-.8,2.7-.3,1.3a2.5,2.5,0,0,0-.1.8.8.8,0,0,0-.1.4.3.3,0,0,1-.5.3c-.2,0-.3-.2-.3-.4h0v-.5c.1-.1.1-.4.2-.7l.3-1.4a23.4,23.4,0,0,1,.9-2.8"/><path class="cls-6" d="M17.1,102.9c-.2-.1-.2-.3-.1-.5a.4.4,0,0,1,.6-.1l1.4.7.4.3a1.3,1.3,0,0,1,.1.6,1.1,1.1,0,0,1-.6.7l-.9.6-.8.4v.2h0s-.1-.1,0-.1-.2-.1-.1-.1h.6a11.3,11.3,0,0,1,2.6.7.4.4,0,1,1-.3.7,8.6,8.6,0,0,0-2.4-.5h-.9q-.2,0-.3-.3c-.1-.2,0-.4,0-.6s.2-.3.4-.4l.9-.6.8-.4.3-.2h-.2l-1.4-.8"/><path class="cls-6" d="M14.8,11.4c0-.3.2-.4.5-.4a.5.5,0,0,1,.3.5h-.1c.1.1-.1-.1,0-.1s-.2,0-.1,0h-.1l.4-.2,1.6-1,1.4-.6h.6a1,1,0,0,1,.5.6,3.2,3.2,0,0,1-.3,1.6A8.9,8.9,0,0,1,19,13c-.1.2-.3.4-.5.3a.5.5,0,0,1-.3-.5,8.7,8.7,0,0,0,.8-2.5h0c-.1,0-.1-.1-.2,0a1.9,1.9,0,0,0-1.1.4l-1.6,1-.7.3H15a.6.6,0,0,1-.2-.5"/><path d="M258.5,101.3c.1-.2.3-.2.5-.1a.5.5,0,0,1,.1.6h0c0,.1-.1.2-.2.5l-.6,1a.8.8,0,0,0-.2.4v.3c.1.1,0,0,0,.1s0-.1,0-.1h.3a2.2,2.2,0,0,1,1.1.1c.2.1.3.3.1.5a.4.4,0,0,1-.5.2h-1.5a.9.9,0,0,1-.3-.7c0-.2.1-.4.1-.6l.3-.5.5-1,.3-.5h.1m.5.7a.4.4,0,1,1-.7-.3.4.4,0,0,1,.1-.3h0a.4.4,0,0,1,.5-.2c.2,0,.3.3.3.5h-.1a.3.3,0,0,1-.1.2"/><path d="M260.1,102.8a.4.4,0,0,1,.2-.5.5.5,0,0,1,.6.2,1.7,1.7,0,0,1-.2,1.2l-.7,1.2c-.3.4-.5.9-.7,1.2a1.2,1.2,0,0,0-.2.6.3.3,0,0,1-.3.5.4.4,0,0,1-.5-.2,1.7,1.7,0,0,1,.3-1.2,8.3,8.3,0,0,1,.7-1.3,6.7,6.7,0,0,0,.6-1.2.8.8,0,0,0,.2-.4h0"/><path class="cls-7" d="M2.7,122.1a.4.4,0,0,1,.4-.4.5.5,0,0,1,.5.4v43.6a.5.5,0,0,1-.5.4.4.4,0,0,1-.4-.4Z"/><path class="cls-7" d="M303.7,118.2a.4.4,0,1,1,.8,0v47.5a.4.4,0,1,1-.8,0Z"/><path class="cls-7" d="M7.1,162.3a.4.4,0,0,1,0-.8H299.6a.4.4,0,0,1,0,.8Z"/><path class="cls-7" d="M295.7,159.9c-.1.2-.4.2-.6.1s-.2-.4-.1-.6h.4a3.2,3.2,0,0,1,1.4,0l2.1.3,1.6.7a.9.9,0,0,1,.6.4c.3.2.6.3.8.7a.6.6,0,0,1,.1.4.5.5,0,0,1-.2.4l-.5.4a3.4,3.4,0,0,1-1.5.6,14.6,14.6,0,0,0-4.8,2.5.6.6,0,0,1-.6,0,.6.6,0,0,1,0-.6,13.6,13.6,0,0,1,5.2-2.7l1.3-.5.3-.2h0c0-.1-.3-.2-.5-.4l-.6-.4a5.9,5.9,0,0,0-1.4-.6,8,8,0,0,0-3.2-.3h.2m4.2.7a.4.4,0,0,1-.7-.3h-4.1c-.2-.2-.2-.5,0-.6s.4-.1.6,0h3.6c.2.1.5.2.6.4a.6.6,0,0,1,.1.4c0,.2,0,.3-.1.4"/><path class="cls-7" d="M131.2,153.1c0,.2-.3.3-.5.2s-.3-.2-.3-.5a4.9,4.9,0,0,1,1.1-2l1.7-1.9.8-.9v-.2h.4c.2,0,.3.3.3.4s0,.3-.1.3v.3l-1.2,1.6a8.1,8.1,0,0,0-1.4,2.8,2.5,2.5,0,0,0-.2.7v.3h.2a1.8,1.8,0,0,0,1-.2,10.3,10.3,0,0,0,3.1-2.3l1-1.1.6-.4h.4c.1,0,.2.2.2.3s0,.3-.1.4l-.7,1.1a5.4,5.4,0,0,0-.5,1.1q-.1.5,0,.6c0,.1.1.2.4.2l1.5-.3a.4.4,0,0,1,.5.2c.1.2,0,.5-.2.5a5.4,5.4,0,0,1-1.9.4,1.4,1.4,0,0,1-1.1-.6,2.8,2.8,0,0,1,0-1.3,13.9,13.9,0,0,1,.6-1.3,4.6,4.6,0,0,0,.7-1h0l.2.2h.2l-.2.2-1.1,1.1a10.3,10.3,0,0,1-3.3,2.5,3.2,3.2,0,0,1-1.3.2h-.5l-.4-.4a1.7,1.7,0,0,1-.1-.7,4.4,4.4,0,0,1,.2-1,10.1,10.1,0,0,1,1.5-2.9,15.6,15.6,0,0,1,1.2-1.7V148h0s.1.2.1.1,0,.2,0,.2h.5l-.8.9c-.6.6-1.1,1.3-1.6,1.9a4.6,4.6,0,0,0-1,1.8"/><path class="cls-7" d="M144.5,153.9c-.3,0-.4-.2-.4-.5s.2-.3.4-.3h-.3c.1-.1-.1.1,0,.1s-.1.2-.1.2h0l-.3-.3h-.3l-.5.3a.2.2,0,0,0-.2.2.4.4,0,0,0-.1.3h-.1l.3-.2a.5.5,0,0,0,0-.4h.1l-.6.2-.4.4v.3h-.1c.1,0,0-.1,0,0h.3l.6-.4h.6c.1.1.3.2.3.4v.3a18.2,18.2,0,0,1-.7,3.1c-.1.5-.1,1.1-.2,1.5a2.9,2.9,0,0,1-.3,1.1.8.8,0,0,1-.6.4h-.7a2.4,2.4,0,0,1-1.4-.5,1.2,1.2,0,0,1-.5-.5.9.9,0,0,1-.3-.7,1,1,0,0,1,.4-.7,2.7,2.7,0,0,1,.8-.7c.2,0,.5,0,.6.2a.5.5,0,0,1-.2.6l-.6.4a.4.4,0,0,0-.1.3c-.1,0,0,.1,0,.2l.3.2a2.1,2.1,0,0,0,1,.4h.5c0-.1.1-.1.1-.2l.2-.7a11.5,11.5,0,0,1,.2-1.6,23,23,0,0,0,.7-3h.4a3.6,3.6,0,0,1-.9.5h-.9l-.3-.3a1.2,1.2,0,0,1,.1-1,1.9,1.9,0,0,1,.6-.7l1.1-.3.5.2a.9.9,0,0,1,.3.5,1.7,1.7,0,0,1-.3,1.1l-.6.4h-.3c-.2,0-.4,0-.5-.2a.7.7,0,0,1-.2-.6,1,1,0,0,1,.2-.7,1,1,0,0,1,.4-.5l.8-.4h.9l.6.4c0,.1.1.2.1.3s.1.2,0,.4l-.4.2"/><path class="cls-7" d="M149.1,152.7a.6.6,0,0,1,0,.6c-.2.1-.5.1-.6-.1s.1.1.1.1h-.4l-.8.8a1.6,1.6,0,0,0-.3.8c0,.3,0,.5.1.6h.3a2.8,2.8,0,0,0,1-.8c.1-.2.4-.2.6,0a.5.5,0,0,1,0,.5,3.4,3.4,0,0,1-1.4,1.1,1.1,1.1,0,0,1-1.1-.4,1.1,1.1,0,0,1-.3-1.1,1.7,1.7,0,0,1,.4-1.2,3.8,3.8,0,0,1,1.1-1.1l.6-.2h.3l.4.2"/><path class="cls-7" d="M149.3,152.7a.5.5,0,0,1,.3.5c-.1.2-.3.4-.5.3H149c-.1,0,.1-.1,0-.1h.2l.2.2a.5.5,0,0,1,.2.6.5.5,0,0,1-.6.1,1.4,1.4,0,0,1-.7-.8.4.4,0,0,1,.1-.3l.3-.3h.6"/><path class="cls-7" d="M154.5,153.4c0,.2-.3.3-.5.2a.4.4,0,0,1-.2-.5h-.4l-.3.3-.3.6a9.7,9.7,0,0,0,.1,1.6,1.7,1.7,0,0,1-.7,1.5,7.6,7.6,0,0,1-2.1.8.4.4,0,1,1-.2-.8l1.9-.7c.2-.1.3-.3.2-.8a9.6,9.6,0,0,1,0-1.7,3,3,0,0,1,.4-1,1.1,1.1,0,0,1,.9-.6,1,1,0,0,1,.9.1q.2,0,.3.3a.6.6,0,0,1,0,.6"/><path class="cls-7" d="M134.1,148.8a.4.4,0,0,1-.6.1c-.2-.1-.2-.3-.1-.5a.8.8,0,0,0,.1-.8,1,1,0,0,0-.5-.4,1.3,1.3,0,0,0-.9.3,2.9,2.9,0,0,0-1,1.3.5.5,0,0,1-.5.3.5.5,0,0,1-.2-.6,3.4,3.4,0,0,1,1.3-1.7,1.7,1.7,0,0,1,1.5-.4,1.2,1.2,0,0,1,1,.9,1.6,1.6,0,0,1-.1,1.5"/><path class="cls-7" d="M2.5,27.6a.4.4,0,0,1,.4-.4.4.4,0,0,1,.4.4c0,.7.1,1.9.2,3.4s.3,3.4.5,5.3a21.7,21.7,0,0,1,.1,4.4c0,1.3-.1,2.5-.1,3.4s-.2,3.7-.3,5.6-.1,2.2-.1,3V56c0,1.9-.1,3.1-.1,4.2s-.1,2.2-.1,3.1v.9h0c0,.1,0,.1-.1.2H3c-.3,0-.3-.1-.4-.2h.1c-.1,0,.1.2,0,.1h.7v.5a.4.4,0,0,1-.4.4.4.4,0,0,1-.4-.4v-.6h0c0-.1,0-.2.2-.3s.4,0,.4.1l.2.2H3.3c.1,0-.1-.1,0-.1s-.2-.1-.1,0H2.7c0-.1-.1.1-.1.1h0v-.9c0-.9.1-2.1.1-3.1s.1-2.4.1-4.2V52.7c0-.8,0-1.9.1-3s.3-4,.3-5.6,0-2.2.1-3.5,0-2.8-.1-4.3-.4-3.6-.5-5.2-.2-2.8-.2-3.5"/><path class="cls-7" d="M240.3,23.2a.5.5,0,0,1,.4-.5.5.5,0,0,1,.5.5V61.3a.5.5,0,0,1-.5.4.4.4,0,0,1-.4-.4Z"/><path class="cls-7" d="M3.1,59.6a.4.4,0,0,1,0-.8H236.3a.4.4,0,1,1,0,.8Z"/><path class="cls-7" d="M235.1,56.5a.5.5,0,0,1,.3.5c-.1.2-.3.4-.5.3s-.2,0-.4-.2a.1.1,0,0,1-.1-.1.4.4,0,0,1,.2-.5h1l1.2.3a2.5,2.5,0,0,1,1.2.7,1.6,1.6,0,0,1,.2,1.5,2.9,2.9,0,0,1-1,1.2l-1.7.8a7.6,7.6,0,0,0-3.1,1.6.4.4,0,0,1-.6,0,.5.5,0,0,1,0-.5,8.3,8.3,0,0,1,3.4-1.9,5.2,5.2,0,0,0,1.5-.7,1.3,1.3,0,0,0,.7-.8.6.6,0,0,0-.1-.7c-.1-.2-.4-.3-.8-.4l-1-.3h-.6s.2-.1.1,0,.2-.3.2-.2,0-.2,0-.2h-.1c0,.1-.1,0-.1,0h.1"/><path class="cls-7" d="M122.9,47.3a.4.4,0,0,1,.5-.2.5.5,0,0,1,.2.6h-.1a11.3,11.3,0,0,0-1.1,1.1,14.7,14.7,0,0,0-1,1.3,7.3,7.3,0,0,0-1.1,2.7,2.6,2.6,0,0,0-.1.7h.3a5.5,5.5,0,0,0,1.5-.9l1.9-1.8a4.1,4.1,0,0,1,1-.9c.1,0,.2-.1.4,0l.3.2v.2c.1.3,0,.4-.1.7a7.5,7.5,0,0,1-.6,1.3,10.3,10.3,0,0,0-.4,1.4,1.1,1.1,0,0,0,0,.6.1.1,0,0,0,.1.1h.4a5.8,5.8,0,0,0,1.9-1,.3.3,0,0,1,.5.1.4.4,0,0,1-.1.6,5.8,5.8,0,0,1-2,1.1h-.8a.8.8,0,0,1-.6-.4,1.4,1.4,0,0,1-.2-1.3,4.4,4.4,0,0,1,.5-1.5,11.2,11.2,0,0,0,.5-1.3v-.3s.1.2.1.1.2.2.1.2.2,0,.2,0h.1c-.2,0-.5.3-.9.7l-1.9,1.8a3.3,3.3,0,0,1-2.1,1.1,1.6,1.6,0,0,1-.9-.5,1.7,1.7,0,0,1,0-1.2,7.6,7.6,0,0,1,1.2-3.1,17.1,17.1,0,0,1,1.1-1.4l1-1.1h.1M119.7,51a.4.4,0,1,1-.8,0,1.6,1.6,0,0,1,.3-.9l.7-.6,1.2-.9a9.4,9.4,0,0,0,1.2-.9l.6-.5h.1a.1.1,0,0,1,.1-.1h0a.4.4,0,0,1,.5.2.4.4,0,0,1-.2.6h0l-.6.5-1.2.9-1.2.8-.6.5a.6.6,0,0,0-.1.4"/><path class="cls-7" d="M133.5,50.7a.5.5,0,0,1,.4.5c-.1.2-.3.4-.5.3a2.9,2.9,0,0,0-2.1.9c-.1.1-.2.1-.2.2h.1l.7-.4.7-.4h.2a.5.5,0,0,1,.5,0,.4.4,0,0,1,.3.4h0a.4.4,0,0,0-.1.3l-.3.8a10.1,10.1,0,0,0-.4,2,7,7,0,0,0-.1,2,1.3,1.3,0,0,1-.3,1,1.4,1.4,0,0,1-1.1.3,4,4,0,0,1-1.1,0,1.7,1.7,0,0,1-1.1-.6,1.1,1.1,0,0,1,0-.8l.5-.7c.2-.1.5-.1.6.1s.1.4,0,.5-.3.3-.3.4-.1,0-.1,0l.6.3h1.4c.1,0,0,0,.1-.1v-.4a8.1,8.1,0,0,1,.1-2.1,15.5,15.5,0,0,1,.4-2.1l.3-.7c0-.1,0-.2.1-.2h0c0-.1.1.1,0,.1h.2l-.6.4a4.5,4.5,0,0,1-1.2.6h-.5a.7.7,0,0,1-.4-.5c-.1-.2,0-.4,0-.6l.3-.5a3.3,3.3,0,0,1,2.9-1.1"/><path class="cls-7" d="M138.1,51.4a.3.3,0,0,1-.5.3c-.2,0-.4-.2-.3-.4h0v.2c-.1-.1.1,0,.1,0h-.1l-.9.7a2.1,2.1,0,0,0-.5,1.5c.1.1.1.2.3.2s.4.1.8-.1.5,0,.5.2a.5.5,0,0,1-.2.6,2.3,2.3,0,0,1-1.4.1,1.1,1.1,0,0,1-.8-.8,2.4,2.4,0,0,1,.7-2.2A4.4,4.4,0,0,1,137,51l.5-.2h.4a.8.8,0,0,1,.2.5"/><path class="cls-7" d="M137.9,51.6a.4.4,0,0,1,0,.6.3.3,0,0,1-.5,0h.1a.3.3,0,0,0-.1.2c0,.2-.1.4-.3.4s-.5-.1-.5-.3a1.2,1.2,0,0,1,.3-.9l.5-.2.5.2"/><path class="cls-7" d="M141.6,51.7c-.1.2-.4.2-.6.1s-.2-.3-.1-.5h0c0-.1,0,0-.1,0s.1-.1.1,0,.1-.1,0-.1h0l-.2.4a3.6,3.6,0,0,0,.1,1.4,2.8,2.8,0,0,1,.1.9,1.6,1.6,0,0,1-.5.8l-.8.3-1.5.2c-.3,0-.5-.1-.5-.4a.4.4,0,0,1,.4-.4l1.4-.2.5-.2c.1-.1.2-.1.2-.2a2.3,2.3,0,0,0-.1-.7,3.2,3.2,0,0,1-.1-1.7l.3-.7.3-.2a.5.5,0,0,1,.4-.2c.2.1.5.1.6.3a.8.8,0,0,1,.2.4.9.9,0,0,1-.1.5"/></g></g></g></svg>