<svg id="Ebene_1" data-name="Ebene 1" xmlns="http://www.w3.org/2000/svg" xmlns:xlink="http://www.w3.org/1999/xlink" viewBox="0 0 246.7 208.5"><defs><style>.cls-1{fill:none;}.cls-2{opacity:0;}.cls-3{clip-path:url(#clip-path);}.cls-4{fill:#ed3624;}.cls-5{fill:#006fff;}</style><clipPath id="clip-path"><rect class="cls-1" x="-87.3" y="-32.8" width="419.5" height="297.64"/></clipPath></defs><g class="cls-2"><path d="M29.3,12.4V2.2h1.4V12.4Z"/></g><g class="cls-2"><path d="M242.3,28.8a2.6,2.6,0,0,1-2.2-1.2,6.7,6.7,0,0,1-.8-3.3,6.8,6.8,0,0,1,.8-3.4,2.7,2.7,0,0,1,2.3-1.2,2.6,2.6,0,0,1,2.2,1.2,6.7,6.7,0,0,1,.8,3.3,6.8,6.8,0,0,1-.8,3.4A2.7,2.7,0,0,1,242.3,28.8Zm0-.8c1.3,0,1.9-1.3,1.9-3.8s-.6-3.6-1.8-3.6-1.9,1.2-1.9,3.7S241.1,28,242.3,28Z"/></g><g class="cls-2"><path d="M113.2,65.4v-8h1.4v1.5a3.5,3.5,0,0,1,2.8-1.7,2.1,2.1,0,0,1,1.7.7,2.4,2.4,0,0,1,.6,1.7v5.8h-1.4V60.1a2.3,2.3,0,0,0-.3-1.3,1.2,1.2,0,0,0-.9-.3,3.2,3.2,0,0,0-2.5,1.7v5.2Z"/><path d="M122.3,68l.2-1.2a5.7,5.7,0,0,0,2.5.6c1.6,0,2.4-.9,2.4-2.6V63.5a2.7,2.7,0,0,1-2.6,1.7,2.8,2.8,0,0,1-2.3-1.1,4.7,4.7,0,0,1-.8-2.8,4.4,4.4,0,0,1,.9-2.9,3.2,3.2,0,0,1,2.5-1.2,3,3,0,0,1,2.3,1.1v-.9h1.5v5.8a18,18,0,0,1-.2,2.8,2.6,2.6,0,0,1-.7,1.4,4,4,0,0,1-3,1A8.4,8.4,0,0,1,122.3,68Zm5.1-5.4V59.3a2.6,2.6,0,0,0-2.1-1,1.9,1.9,0,0,0-1.5.8,3.6,3.6,0,0,0-.6,2.2c0,1.7.6,2.6,1.9,2.6A2.9,2.9,0,0,0,127.4,62.6Z"/><path d="M134.6,65.5a3.4,3.4,0,0,1-2.8-1.1,4.7,4.7,0,0,1-1-3,4.5,4.5,0,0,1,1.1-3.1,3.5,3.5,0,0,1,2.7-1.1,3.8,3.8,0,0,1,2.8,1.1,4.5,4.5,0,0,1,1,3.1,4,4,0,0,1-1,3A3.4,3.4,0,0,1,134.6,65.5Zm0-1c1.5,0,2.3-1.1,2.3-3.1s-.8-3.1-2.3-3.1-2.2,1-2.2,3.1S133.1,64.5,134.6,64.5Z"/><path d="M142.6,65.5a7.5,7.5,0,0,1-2.4-.4V63.8a6.8,6.8,0,0,0,2.5.7,1.8,1.8,0,0,0,1-.4.9.9,0,0,0,.4-.8q0-.7-1.2-1.2l-.8-.4c-1.2-.5-1.9-1.3-1.9-2.2a2.1,2.1,0,0,1,.8-1.7,3,3,0,0,1,2-.6l1.6.2h.3v1.2a5.4,5.4,0,0,0-1.9-.4c-.9,0-1.4.3-1.4,1s.4.8,1.1,1.1l.7.3a4.5,4.5,0,0,1,1.7,1.1,1.8,1.8,0,0,1,.4,1.3,2.2,2.2,0,0,1-.8,1.8A3.3,3.3,0,0,1,142.6,65.5Z"/></g><g class="cls-2"><path d="M158.4,62.8v-1h2v-8l-2,.5v-1l3.4-.9v9.4h2v1Z"/><path d="M166.2,62.8V61.6a9.8,9.8,0,0,1,2.4-3l.8-.7a3.8,3.8,0,0,0,1.5-2.6,1.7,1.7,0,0,0-.6-1.4,2,2,0,0,0-1.4-.5,5.2,5.2,0,0,0-2.4.8V53.1a5.1,5.1,0,0,1,2.6-.7,3.2,3.2,0,0,1,2.3.8,2.5,2.5,0,0,1,.9,2,3.8,3.8,0,0,1-.4,1.6,8.9,8.9,0,0,1-1.7,1.8l-.5.4a5.2,5.2,0,0,0-1.9,2.6h4.4v1.2Z"/></g><g class="cls-2"><path d="M29.3,117.8V107.7h1.4v10.1Z"/></g><g class="cls-2"><path d="M242.3,134.3a2.7,2.7,0,0,1-2.2-1.3,7.2,7.2,0,0,1,0-6.6,2.6,2.6,0,0,1,2.3-1.3,2.5,2.5,0,0,1,2.2,1.3,7.2,7.2,0,0,1,0,6.6A2.8,2.8,0,0,1,242.3,134.3Zm0-.9c1.3,0,1.9-1.3,1.9-3.7s-.6-3.7-1.8-3.7-1.9,1.2-1.9,3.7S241.1,133.4,242.3,133.4Z"/></g><g class="cls-2"><path d="M113.2,204.9V197h1.4v1.5a3.2,3.2,0,0,1,2.8-1.7,2.4,2.4,0,0,1,1.7.6,2.8,2.8,0,0,1,.6,1.8v5.7h-1.4v-5.2a2.3,2.3,0,0,0-.3-1.3,1.3,1.3,0,0,0-.9-.4,3.3,3.3,0,0,0-2.5,1.8v5.1Z"/><path d="M122.3,207.6l.2-1.3a5.7,5.7,0,0,0,2.5.6c1.6,0,2.4-.8,2.4-2.6v-1.2a2.7,2.7,0,0,1-2.6,1.7,2.8,2.8,0,0,1-2.3-1.1,4.7,4.7,0,0,1-.8-2.8,4.9,4.9,0,0,1,.9-3,3.4,3.4,0,0,1,2.5-1.1,3,3,0,0,1,2.3,1.1V197h1.5v5.8a16.5,16.5,0,0,1-.2,2.7,3.5,3.5,0,0,1-.7,1.5,4,4,0,0,1-3,1A8.4,8.4,0,0,1,122.3,207.6Zm5.1-5.4v-3.3a2.6,2.6,0,0,0-2.1-1,1.7,1.7,0,0,0-1.5.8,3.4,3.4,0,0,0-.6,2.2c0,1.7.6,2.6,1.9,2.6A2.9,2.9,0,0,0,127.4,202.2Z"/><path d="M134.6,205.1a3.4,3.4,0,0,1-2.8-1.1,4.9,4.9,0,0,1-1-3,4.5,4.5,0,0,1,1.1-3.1,3.5,3.5,0,0,1,2.7-1.1,3.8,3.8,0,0,1,2.8,1.1,4.4,4.4,0,0,1,1,3,4.3,4.3,0,0,1-1,3.1A3.4,3.4,0,0,1,134.6,205.1Zm0-1.1c1.5,0,2.3-1,2.3-3.1s-.8-3-2.3-3-2.2,1-2.2,3.1S133.1,204,134.6,204Z"/><path d="M142.6,205.1a7.5,7.5,0,0,1-2.4-.4v-1.4a5.3,5.3,0,0,0,2.5.7,1.7,1.7,0,0,0,1-.3.9.9,0,0,0,.4-.8c0-.5-.4-.9-1.2-1.3l-.8-.3a2.6,2.6,0,0,1-1.9-2.3,1.9,1.9,0,0,1,.8-1.6,3,3,0,0,1,2-.6,5,5,0,0,1,1.6.2h.3v1.2l-1.9-.3c-.9,0-1.4.3-1.4,1s.4.8,1.1,1.1l.7.3a6.3,6.3,0,0,1,1.7,1,2.3,2.3,0,0,1,.4,1.4,2.2,2.2,0,0,1-.8,1.8A3.3,3.3,0,0,1,142.6,205.1Z"/></g><g class="cls-2"><path d="M158.4,202.4v-1h2v-8l-2,.5v-1.1l3.4-.8v9.4h2v1Z"/><path d="M166.2,202.4v-1.2a9.8,9.8,0,0,1,2.4-3l.8-.7a3.8,3.8,0,0,0,1.5-2.7,1.6,1.6,0,0,0-.6-1.3,2,2,0,0,0-1.4-.5,5.2,5.2,0,0,0-2.4.8v-1.2a6.2,6.2,0,0,1,2.6-.6,2.8,2.8,0,0,1,2.3.8,2.5,2.5,0,0,1,.9,2,4.2,4.2,0,0,1-.4,1.6,6.7,6.7,0,0,1-1.7,1.7l-.5.5a5.2,5.2,0,0,0-1.9,2.6h4.4v1.2Z"/></g><g class="cls-3"><path d="M143.4,21.1a13.7,13.7,0,0,0-2-7.2A14.3,14.3,0,0,0,129,6.7a14,14,0,0,0-7.3,2,14.5,14.5,0,0,0-7.1,12.4,13.7,13.7,0,0,0,2,7.2A14.3,14.3,0,0,0,129,35.5a13.7,13.7,0,0,0,7.2-2,14.3,14.3,0,0,0,7.2-12.4m.8,0a15,15,0,0,1-7.6,13.1,14,14,0,0,1-7.6,2.1,15.1,15.1,0,0,1-13.1-7.5,14.6,14.6,0,0,1-2.1-7.7A15.1,15.1,0,0,1,121.3,8,15.6,15.6,0,0,1,129,5.9a15.1,15.1,0,0,1,13.1,7.5,15.6,15.6,0,0,1,2.1,7.7"/><path d="M118.3,31.3c-.2.2-.4.1-.6,0a.4.4,0,0,1,0-.6l21.4-20.4a.4.4,0,0,1,.6,0,.6.6,0,0,1,0,.6Z"/><path d="M119.5,9.8a.5.5,0,0,1,0-.6c.2-.1.5-.1.6.1l17.8,23.6a.3.3,0,0,1,0,.5.5.5,0,0,1-.6,0Z"/><path d="M3.7,21.4a.4.4,0,0,1,0-.8H114.6a.4.4,0,0,1,0,.8Z"/><path d="M143.8,21.3c-.3,0-.4-.1-.4-.4a.4.4,0,0,1,.4-.4h97.5a.4.4,0,0,1,.4.4.4.4,0,0,1-.4.4Z"/><path d="M2.6,19.8a.3.3,0,0,1,0,.5.4.4,0,0,1-.6,0H1.8l-.5.5a1.4,1.4,0,0,0-.1.9c0,.3,0,.4.2.5s.7.1,1.3-.1a4.3,4.3,0,0,0,1.5-.9,1.4,1.4,0,0,0,.5-.9c0-.1-.1-.3-.4-.4a2.3,2.3,0,0,0-1-.4,3.5,3.5,0,0,0-2.6.7c-.2.1-.5.1-.6-.1s-.1-.4.1-.5a4.2,4.2,0,0,1,3.2-.9,3.4,3.4,0,0,1,1.4.5,1.5,1.5,0,0,1,.7,1,1.9,1.9,0,0,1-.7,1.5A4.7,4.7,0,0,1,3,23a2,2,0,0,1-2,0c-.5-.2-.6-.7-.7-1.1a2.5,2.5,0,0,1,.3-1.4,1.4,1.4,0,0,1,.9-.8l.5-.2a.7.7,0,0,1,.6.3"/><path d="M242.5,18.6a.4.4,0,0,1,.2.5.5.5,0,0,1-.6.2c-.2-.1-.5,0-.9.2a2.2,2.2,0,0,0-1.2,1,2.8,2.8,0,0,0-.7,1.6,1,1,0,0,0,.6.9,3.2,3.2,0,0,0,1.8.5,5.3,5.3,0,0,0,3.7-1.8,1.6,1.6,0,0,0,.5-1c0-.2,0-.3-.1-.4s-.3-.2-.8-.3l-1.5-.2a6.2,6.2,0,0,0-2.8.2c-.2,0-.5-.1-.5-.3s0-.5.2-.5a8.2,8.2,0,0,1,3.2-.2l1.6.2a2,2,0,0,1,1.3.6,1.6,1.6,0,0,1,.2.9,2.3,2.3,0,0,1-.7,1.6,6.2,6.2,0,0,1-4.3,2,4,4,0,0,1-2.2-.6,1.6,1.6,0,0,1-1-1.6,3.4,3.4,0,0,1,.8-2.1,4.5,4.5,0,0,1,1.5-1.3,2.5,2.5,0,0,1,1.7-.1"/><path class="cls-4" d="M33.9,23.6a.5.5,0,0,1-.6.1.3.3,0,0,1-.1-.5h-.1v-.2a2,2,0,0,0-.1-.7V19.6a.8.8,0,0,1,.2-.5c.2-.2.4-.4.7-.3s.9.5,1.2.7A8.2,8.2,0,0,0,38,21.8c.2,0,.3.3.2.5a.4.4,0,0,1-.5.2,10,10,0,0,1-3.2-2.4l-.7-.5h.1v1a12.1,12.1,0,0,0,.1,1.9V23c.1.2.2.3,0,.6M33,18.7a.4.4,0,0,1,.5-.2.5.5,0,0,1,.2.6h0v.3a24.4,24.4,0,0,0,.1,2.6v.9a.8.8,0,0,1,.1.4h-.1a.4.4,0,0,1,0,.6c-.2.1-.5.1-.6-.1h-.1v-.2c0-.1-.1-.2-.1-.4s-.1-.6-.1-1V19h0v-.2h0m.8.7a.5.5,0,0,1-.5.4.4.4,0,0,1-.4-.4V19h0c0-.1.1.1.1.1a.5.5,0,0,1,.2-.6.4.4,0,0,1,.5.2c.1.2,0,.1.1.2h0v.4"/><path class="cls-4" d="M33.6,23.5c.2.1.4.3.3.5s-.3.4-.5.3a.8.8,0,0,1-.4-.4c-.1-.2,0-.3,0-.4l.4-.6a6.8,6.8,0,0,1,2.3-1.4,2.5,2.5,0,0,1,1.2-.1,1.2,1.2,0,0,1,1,.6.5.5,0,0,1-.2.6.4.4,0,0,1-.5-.2l-.4-.2h-.9A5.5,5.5,0,0,0,34,23.5l-.2.3h0s-.1-.2,0-.1-.2-.2-.1-.2-.1,0-.1,0"/><path class="cls-4" d="M34.7,20.5a.5.5,0,0,1,0,.5c-.2.2-.5.2-.6,0h.1l-.2.4V22h0c.1,0,.1,0,.1-.1s.1-.1,0-.3a.7.7,0,0,0-.1-.5c0-.1-.1-.2-.1-.3h.3c-.1,0,.1-.1.1-.1h0a2,2,0,0,0,.1.5h-.2c0-.1.1-.2.2-.3v-.3s.2.2.1.2.2.1.1.1.1,0,.1,0h-.2c0,.2-.1.3-.1.5v.2h0l.3-.2h-.1c0-.1.1.1,0,.1s.1,0,.1,0h-.1a.4.4,0,0,0-.1.3.4.4,0,0,1-.5.2c-.3-.1-.4-.3-.3-.5a1.8,1.8,0,0,1,.5-.7H35a1,1,0,0,1,.5.4.9.9,0,0,1-.1.7l-.4.4c-.1.1-.3.2-.7.1a.7.7,0,0,1-.5-.4,1.4,1.4,0,0,1-.2-.7c0-.2.1-.4.1-.6a2.1,2.1,0,0,1,.4-.6h.7a.5.5,0,0,1,.4.3,1.1,1.1,0,0,1-.1.8l-.3.5-.2.2H34a1.3,1.3,0,0,1-.5-1.3.9.9,0,0,1,.1-.5l.3-.2h.5a.9.9,0,0,1,.4.6c.1.2.1.5.2.7a1.1,1.1,0,0,1-.2.8.9.9,0,0,1-.8.5h-.4c-.1-.1-.3-.2-.3-.4a1.7,1.7,0,0,1-.1-1,3.6,3.6,0,0,1,.4-.9c.1-.1.3-.3.5-.2a.6.6,0,0,1,.6.3"/><path class="cls-4" d="M30.1,1.6a.5.5,0,0,1,.6,0,.5.5,0,0,1,0,.6,13.7,13.7,0,0,0-1.6,2.6l-.7,1.4c-.1.1-.1.3-.4.4s-.2.1-.3,0a.4.4,0,0,1-.3-.4V6c0-.2.2-.4.4-.3a.4.4,0,0,1,.4.4H28c.1,0-.1-.1-.1-.1h-.2c.1,0-.1.1-.1.1h0a.3.3,0,0,1,.1-.2l.7-1.3.9-1.6a3.1,3.1,0,0,1,.8-1.2"/><path class="cls-4" d="M27,.7a.4.4,0,0,1,.4.4.4.4,0,0,1-.4.4h-.8c-.1,0-.2-.2-.2-.4s.1-.2.2-.3h1.3L32.7,0a6.5,6.5,0,0,1,2.1.2,1.1,1.1,0,0,1,.8.3.8.8,0,0,1,.2.8.4.4,0,0,1-.4.4.5.5,0,0,1-.4-.5h0L34.6.9H32.8l-5.2.5h-.9c0,.1.1-.1.1,0s0-.2,0-.2h0V.8h-.1c.1.1-.1,0-.1,0H27"/><path class="cls-4" d="M24.8,6.7a.5.5,0,0,1,.6.2.6.6,0,0,1-.3.6h-.2V7.3c0,.1-.1-.2-.1-.1s-.1-.2-.1-.2h7.9a.3.3,0,0,1,.3.5c0,.2-.2.4-.4.3-1.9-.1-4.2,0-5.9,0H24.4l-.2-.2c-.1-.1-.1-.2,0-.4s.4-.3.6-.4"/><path class="cls-5" d="M3.3,21a.4.4,0,0,1,.4-.4.4.4,0,0,1,.4.4V68.5a.4.4,0,0,1-.4.4.4.4,0,0,1-.4-.4Z"/><path class="cls-5" d="M240.9,21a.4.4,0,0,1,.8,0V68.5a.4.4,0,1,1-.8,0Z"/><path class="cls-5" d="M3.7,64.1a.4.4,0,0,1-.4-.4.4.4,0,0,1,.4-.4H238a.4.4,0,0,1,.4.4.4.4,0,0,1-.4.4Z"/><path class="cls-5" d="M236.9,61.4c.1.2,0,.5-.2.5s-.5,0-.5-.2-.1-.2-.1-.4l.2-.3c.2-.1.3,0,.3,0a.6.6,0,0,1,.5.2c.5.4,1.6.7,2.3,1.3a1.1,1.1,0,0,1,.6.7,1.4,1.4,0,0,1-.2.7l-.5.5-1.2,1-3,1.9c-.2.1-.5.1-.6-.1a.5.5,0,0,1,.1-.6l3-1.9,1.1-.9.4-.3v-.2l-.2-.2c-.5-.4-1.6-.7-2.3-1.2a.1.1,0,0,0-.1-.1h.1c-.1,0,.2-.1.1-.1s.2-.2.2-.1,0-.2,0-.1h0"/><path class="cls-5" d="M116.5,53.6a.5.5,0,0,1-.9-.1,3.5,3.5,0,0,1,.5-.8l1-.9,2.2-1.7.8-.5a.5.5,0,0,1,.4-.2h.1a.4.4,0,0,1,.4.2.4.4,0,0,1,.1.3.1.1,0,0,1-.1.1,3.8,3.8,0,0,1-1,1.2,12,12,0,0,0-1.5,2.4,2.6,2.6,0,0,0-.3,1.1v.5h.7l1.8-1.3,2.1-1.8.9-.6c0-.1.1-.2.3-.2a.5.5,0,0,1,.4.3.5.5,0,0,1,0,.6,5.7,5.7,0,0,1-.8,1.3,7.7,7.7,0,0,0-.8,1.9,1.8,1.8,0,0,0-.1.6c.1.1.1.2.2.2a5.7,5.7,0,0,0,2.6-.8.4.4,0,0,1,.5.2.5.5,0,0,1-.2.6,6.1,6.1,0,0,1-3,.8,1,1,0,0,1-.8-.7,1.4,1.4,0,0,1,0-1.1,10.2,10.2,0,0,1,.9-2.2c.3-.5.7-.8.8-1.1h.4l-.7.7-2.2,1.7a7.4,7.4,0,0,1-2.1,1.5h-.8a1,1,0,0,1-.8-.3c-.2-.1-.2-.4-.2-.5a.8.8,0,0,0,.1-.4,5,5,0,0,1,.3-1.6,22,22,0,0,1,1.7-2.5l.9-1h0s.1.3,0,.2.3.2.2.2.2,0,.2,0h-.2l-.7.4-2.2,1.7-.9.9c-.1.1-.2.2-.2.3h0"/><path class="cls-5" d="M132.7,54.4c.2.1.2.4.1.6a.6.6,0,0,1-.6.1.4.4,0,0,0-.5-.1l-.7.2a1.8,1.8,0,0,0-.8.6.1.1,0,0,0-.1.1c0,.1.1.1.1.2h.2l.7-.2.6-.3h.5a.5.5,0,0,1,.2.4v.2a12.7,12.7,0,0,1-.7,1.2,5.6,5.6,0,0,0-.6,2.3c-.1.9-.1,1.7-.2,2.4a1.2,1.2,0,0,1-.1.8l-.5.5h-.6a2.1,2.1,0,0,1-1.3-.5,2.4,2.4,0,0,1-1-1,1.6,1.6,0,0,1,.1-1.5c.2-.2.4-.3.6-.2a.5.5,0,0,1,.1.6.8.8,0,0,0,0,.7,1.2,1.2,0,0,0,.7.7,1.8,1.8,0,0,0,.9.4h.2c.1,0,.1,0,.1-.1V62c.1-.6,0-1.4.2-2.4a7.6,7.6,0,0,1,.6-2.6c.3-.5.7-.9.7-1h0c0-.1.1.2,0,.1s.2.2.2.1.1.1.1.1h.1l-.7.3-.7.2a1.5,1.5,0,0,1-.9-.2.8.8,0,0,1-.4-.7,1.3,1.3,0,0,1,.2-.8,4.1,4.1,0,0,1,1.1-.7,1.9,1.9,0,0,1,1-.3,1.4,1.4,0,0,1,1.1.2"/><path class="cls-5" d="M137.4,55.2c0,.2-.2.3-.5.3a.5.5,0,0,1-.3-.5h.2l-.5.3a2.7,2.7,0,0,0-.9,2.1c0,.2,0,.3.1.3h0c.2.1.6-.1,1.2-.5a.3.3,0,0,1,.5,0,.4.4,0,0,1,0,.6,3.4,3.4,0,0,1-1.8.8c-.2-.1-.5-.2-.6-.4a1,1,0,0,1-.2-.7,3.3,3.3,0,0,1,1.2-2.8,1.4,1.4,0,0,1,1-.5.7.7,0,0,1,.6.3.9.9,0,0,1,0,.7"/><path class="cls-5" d="M138,54.1a.4.4,0,0,1,.2.5.5.5,0,0,1-.6.2,1.3,1.3,0,0,0-1-.2h-.1l.3.3c.2.2.2.5,0,.6s-.4.2-.6,0a1.4,1.4,0,0,1-.5-.9.8.8,0,0,1,.2-.5l.4-.3a1.8,1.8,0,0,1,1.7.3"/><path class="cls-5" d="M143,54.3c-.1.2-.3.4-.5.3s-.4-.3-.3-.5.1.1,0,.1.1,0,0,0-.2-.1-.4-.1a1.9,1.9,0,0,0-.7.6c-.2.3-.1.9-.1,1.4a2.1,2.1,0,0,1-.8,2.4,3.9,3.9,0,0,1-2,.5.5.5,0,0,1-.4-.5c.1-.2.3-.4.5-.3a2,2,0,0,0,1.4-.4,1.2,1.2,0,0,0,.6-.9,2,2,0,0,0-.1-.7,3.2,3.2,0,0,1,.2-1.9,1.9,1.9,0,0,1,1.2-1h1l.4.3a.6.6,0,0,1,0,.6"/><path class="cls-5" d="M158.1,58c-.1.2-.3.4-.5.3s-.4-.3-.3-.5a2.1,2.1,0,0,1,.4-.6,26.2,26.2,0,0,1,2.6-3.2l2.3-2.5.9-.7a.5.5,0,0,1,.4-.2h.5a.6.6,0,0,1,.2.5.4.4,0,0,1-.1.3,1.9,1.9,0,0,1-.2.7c-.2.7-.6,1.5-.8,2.1a1.8,1.8,0,0,0-.1.5h.1a.4.4,0,0,1,.4.4c.1.2-.1.4-.3.5H163a.7.7,0,0,1-.4-.5,1.8,1.8,0,0,1,.1-1c.2-.7.7-1.4.9-2.1s.1-.4.1-.6.1-.1.1-.2h0c0-.1.1.1.1.1s.1.1.1.1.1,0,.1,0H164l-.8.6-2.3,2.5a30.1,30.1,0,0,0-2.8,3.4"/><path class="cls-5" d="M167.3,51.7a.4.4,0,0,1-.4-.4.4.4,0,0,1,.4-.4,4.3,4.3,0,0,1,2,.2,4.7,4.7,0,0,1,.9.3,1.1,1.1,0,0,1,.3.8c-.1.9-1,1.7-1.8,2.5a9.4,9.4,0,0,0-1.5,1.7h3.2a.4.4,0,0,1,.4.4.5.5,0,0,1-.5.4h-1.8a3,3,0,0,1-1.9-.3.7.7,0,0,1-.3-.6c0-.2.1-.3.2-.5a12.4,12.4,0,0,1,1.6-1.9,8.8,8.8,0,0,0,1.6-2h0l-.6-.2a5,5,0,0,0-1.8-.2"/><path class="cls-5" d="M177.8,51.6c.1.2-.1.4-.3.4s-.4,0-.5-.3h.2c-.1-.1.3,0,.2,0h.2c-.1,0,.1-.1.1-.1s.1-.1,0-.1.1,0,.1,0h0c-.1.1-.1.2-.1.4s-.1.9-.2,1.5a10.8,10.8,0,0,0,0,1.8v.7c0,.1,0,.2.1.2h0l.6-.5,1.7-1.7a17.9,17.9,0,0,1,3.8-3.1c.2-.1.4-.1.5.1a.4.4,0,0,1-.1.6,19.1,19.1,0,0,0-3.6,3l-1.8,1.7a1.9,1.9,0,0,1-.7.6h-.4a.5.5,0,0,1-.5,0,2.5,2.5,0,0,1-.4-.7c0-.3-.1-.6-.1-.8s.1-1.4.1-2,.1-1.1.2-1.5a.7.7,0,0,1,.1-.5v-.2h.2c.1-.1.5,0,.5.1s.1.1.1.2"/><path d="M143.4,126.6a13.8,13.8,0,0,0-2-7.3,14.2,14.2,0,0,0-12.4-7.1,15,15,0,0,0-7.3,1.9,14.6,14.6,0,0,0-7.1,12.5,13.7,13.7,0,0,0,2,7.2,14.2,14.2,0,0,0,12.4,7.1,14.6,14.6,0,0,0,7.2-1.9,14.3,14.3,0,0,0,7.2-12.4m.8,0A15.4,15.4,0,0,1,129,141.8a15.2,15.2,0,0,1-13.1-7.6,14,14,0,0,1-2.1-7.6A15,15,0,0,1,129,111.4a15.1,15.1,0,0,1,13.1,7.5,15.6,15.6,0,0,1,2.1,7.7"/><path d="M118.3,136.7a.4.4,0,0,1-.6,0,.3.3,0,0,1,0-.5l21.4-20.5a.5.5,0,0,1,.6.1.5.5,0,0,1,0,.5Z"/><path d="M119.5,115.2c-.2-.1-.1-.4,0-.5a.5.5,0,0,1,.6,0l17.8,23.6a.5.5,0,0,1,0,.6c-.2.1-.5.1-.6-.1Z"/><path d="M3.7,126.9a.4.4,0,0,1-.4-.4.5.5,0,0,1,.4-.5H51.2c.3,0,.4.2.4.5a.4.4,0,0,1-.4.4Z"/><path d="M143.8,126.8a.4.4,0,1,1,0-.8h97.5a.4.4,0,0,1,0,.8Z"/><path d="M2.6,125.2a.4.4,0,0,1,0,.6c-.2.2-.4.1-.6,0H1.8a1.6,1.6,0,0,0-.5.6,1.3,1.3,0,0,0-.1.9c0,.2,0,.4.2.5a2,2,0,0,0,1.3-.1,3.3,3.3,0,0,0,1.5-1,1.2,1.2,0,0,0,.5-.9c0-.1-.1-.2-.4-.4a2.4,2.4,0,0,0-1-.3,3.5,3.5,0,0,0-2.6.7c-.2.1-.5.1-.6-.1s-.1-.4.1-.6a3.8,3.8,0,0,1,3.2-.8,3.3,3.3,0,0,1,1.4.4,1.8,1.8,0,0,1,.7,1,2.1,2.1,0,0,1-.7,1.6A4.7,4.7,0,0,1,3,128.5a2.8,2.8,0,0,1-2,0,1.5,1.5,0,0,1-.7-1.2A2.1,2.1,0,0,1,.6,126a2,2,0,0,1,.9-.9H2c.2,0,.5,0,.6.2"/><path d="M242.5,124a.4.4,0,1,1-.4.8,1,1,0,0,0-.9.1,3.8,3.8,0,0,0-1.2,1,3.1,3.1,0,0,0-.7,1.7,1.2,1.2,0,0,0,.6.9,3.2,3.2,0,0,0,1.8.4,5.2,5.2,0,0,0,3.7-1.7,2.1,2.1,0,0,0,.5-1.1c0-.2,0-.3-.1-.3s-.3-.3-.8-.4h-1.5a8.3,8.3,0,0,0-2.8.1.4.4,0,0,1-.5-.3.4.4,0,0,1,.2-.5,10.8,10.8,0,0,1,3.2-.2l1.6.2a2.1,2.1,0,0,1,1.3.7,1.5,1.5,0,0,1,.2.9,2.1,2.1,0,0,1-.7,1.5,6.3,6.3,0,0,1-4.3,2.1,5.1,5.1,0,0,1-2.2-.6,1.9,1.9,0,0,1-1-1.7,3.7,3.7,0,0,1,.8-2.1,4.2,4.2,0,0,1,1.5-1.2,2.1,2.1,0,0,1,1.7-.2"/><path class="cls-4" d="M33.9,129.1a.7.7,0,0,1-.6.1c-.2-.1-.2-.4-.1-.6h-.1v-.2a1.3,1.3,0,0,0-.1-.6v-2.8a1.4,1.4,0,0,1,.2-.6.9.9,0,0,1,.7-.3c.6,0,.9.5,1.2.8s1.5,1.7,2.9,2.2a.4.4,0,0,1,.2.5c-.1.3-.3.4-.5.3a10,10,0,0,1-3.2-2.4l-.7-.6h.1a.3.3,0,0,0-.1.2v.7a12.1,12.1,0,0,0,.1,1.9v.6a.6.6,0,0,1,0,.7m-.9-5c.1-.2.3-.2.5-.1a.4.4,0,0,1,.2.5h0v.3a22.6,22.6,0,0,0,.1,2.5v1a.5.5,0,0,1,.1.3h-.1a.3.3,0,0,1,0,.5c-.2.2-.5.2-.6,0h-.1c0-.1-.1-.2-.1-.4s-.1-.6-.1-1v-3h0v-.2h0m.8.8a.5.5,0,0,1-.5.4.4.4,0,0,1-.4-.4v-.5H33a.4.4,0,0,1,.2-.5c.2-.1.4-.1.5.1s0,.2.1.2h0v.5"/><path class="cls-4" d="M33.6,129a.4.4,0,0,1,.3.5.4.4,0,0,1-.5.2c-.2,0-.3-.1-.4-.3s0-.4,0-.5l.4-.5a6.8,6.8,0,0,1,2.3-1.4l1.2-.2a1.7,1.7,0,0,1,1,.7.4.4,0,0,1-.2.5c-.2.1-.4.1-.5-.1s-.3-.2-.4-.3l-.9.2A5.5,5.5,0,0,0,34,129c-.1.1-.2.2-.2.3h0c0,.1-.1-.1,0-.1h-.2"/><path class="cls-4" d="M34.7,125.9a.6.6,0,0,1,0,.6c-.2.1-.5.1-.6-.1h.1l-.2.5v.6h0c.1,0,.1-.1.1-.2a.1.1,0,0,0,0-.2,1.3,1.3,0,0,0-.1-.6v-.2c-.1,0,.2.1.1.1s.2-.1.2,0,.1-.1.1-.1h0a2,2,0,0,0,.1.5c.1.1-.1,0-.1,0h-.1s.1-.2.2-.2v-.3c0-.1.2.2.1.2s.2,0,.1,0h0c-.1,0,0-.1,0,0h-.1c0,.1-.1.3-.1.4s0,.2.1.2h0l.3-.3s-.1.2-.1.1.1.2,0,.1h0v.2c-.1.2-.3.4-.5.3s-.4-.3-.3-.5a1.3,1.3,0,0,1,.5-.7.6.6,0,0,1,.7-.1.7.7,0,0,1,.5.4.9.9,0,0,1-.1.7l-.4.3a.7.7,0,0,1-.7.2,1,1,0,0,1-.5-.4,1.9,1.9,0,0,1-.2-.8,4.3,4.3,0,0,0,.1-.5c.1-.2.2-.5.4-.6l.5-.2h.2a.5.5,0,0,1,.4.3,1.4,1.4,0,0,1-.1.9l-.3.5-.2.2H34a1.1,1.1,0,0,1-.5-1.2.7.7,0,0,1,.1-.5l.3-.2a.4.4,0,0,1,.5.1.9.9,0,0,1,.4.6,6.4,6.4,0,0,1,.2.7,1.3,1.3,0,0,1-.2.8c-.2.2-.4.5-.8.5h-.4c-.1-.1-.3-.2-.3-.4a1.7,1.7,0,0,1-.1-1,1.9,1.9,0,0,1,.4-.9.5.5,0,0,1,.5-.3.6.6,0,0,1,.6.3"/><path class="cls-4" d="M30.1,107c.2-.1.5-.1.6.1s.1.4,0,.6a10.9,10.9,0,0,0-1.6,2.6,7.6,7.6,0,0,1-.7,1.3c-.1.2-.1.3-.4.4h-.3a.4.4,0,0,1-.3-.4v-.2a.4.4,0,0,1,.4-.4.5.5,0,0,1,.4.5H28c.1.1-.1,0-.1,0h-.3c.1,0,0,.1,0,.1s0-.1.1-.2l.7-1.3.9-1.7a6.2,6.2,0,0,1,.8-1.2"/><path class="cls-4" d="M27,106.1a.4.4,0,0,1,.4.4.4.4,0,0,1-.4.4h-.8a.5.5,0,0,1-.2-.4c0-.2.1-.3.2-.3h1.3a43.6,43.6,0,0,1,5.2-.5,6.9,6.9,0,0,1,2.1.1l.8.4a.8.8,0,0,1,.2.8c0,.2-.2.4-.4.3a.4.4,0,0,1-.4-.4h0l-.4-.2H32.8a43.6,43.6,0,0,0-5.2.5h-1c-.1,0,.1-.1,0,0h.2c-.1,0,0-.2,0-.1v-.2h-.2c.1,0-.1-.1-.1-.1H27"/><path class="cls-4" d="M24.8,112.1a.7.7,0,0,1,.6.3.5.5,0,0,1-.3.5h-.2s.1-.1,0-.1H25v-.2h7.8c.2,0,.4.2.3.4a.4.4,0,0,1-.4.4c-1.9-.1-4.2,0-5.9,0H24.4l-.2-.2a.3.3,0,0,1,0-.4c.1-.4.4-.4.6-.5"/><path class="cls-5" d="M2.6,129.3a.5.5,0,0,1,.4-.5.5.5,0,0,1,.4.5l.7,78.8a.4.4,0,0,1-.4.4.4.4,0,0,1-.4-.4Z"/><path class="cls-5" d="M240.9,129a.4.4,0,1,1,.8,0v79.1a.4.4,0,1,1-.8,0Z"/><path class="cls-5" d="M3.7,203.6a.4.4,0,0,1-.4-.4.4.4,0,0,1,.4-.4H238a.4.4,0,0,1,.4.4.4.4,0,0,1-.4.4Z"/><path class="cls-5" d="M236.9,201a.4.4,0,0,1-.2.5c-.2.1-.5,0-.5-.2s-.1-.2-.1-.4l.2-.3h.3l.5.3c.5.3,1.6.7,2.3,1.2a1.7,1.7,0,0,1,.6.8,1.4,1.4,0,0,1-.2.7l-.5.5-1.2.9-3,2c-.2.1-.5.1-.6-.1s-.1-.5.1-.6l3-1.9,1.1-.9c.2-.1.3-.3.4-.4h0l-.2-.2c-.5-.4-1.6-.8-2.3-1.3h.3c-.1,0,0-.2,0-.2h0"/><path class="cls-5" d="M116.5,193.2c-.1.2-.3.4-.5.3a.4.4,0,0,1-.4-.4,3.5,3.5,0,0,1,.5-.8,4.5,4.5,0,0,1,1-.9l2.2-1.8.8-.4.4-.2h.1l.4.2a.8.8,0,0,1,.1.4H121a3.8,3.8,0,0,1-1,1.2,15,15,0,0,0-1.5,2.3,3.5,3.5,0,0,0-.3,1.2v.5h.7a9.2,9.2,0,0,0,1.8-1.2c.7-.7,1.5-1.3,2.1-1.8l.9-.7h.3l.4.2a.8.8,0,0,1,.1.4.4.4,0,0,1-.1.3,5,5,0,0,1-.8,1.2,8.4,8.4,0,0,0-.8,2,1.8,1.8,0,0,0-.1.6h.2a5.1,5.1,0,0,0,2.6-.7.4.4,0,0,1,.5.2.5.5,0,0,1-.2.6,6.1,6.1,0,0,1-3,.8,1.1,1.1,0,0,1-.8-.7,1.7,1.7,0,0,1,0-1.2,12,12,0,0,1,.9-2.1l.8-1.1h0v.2h.3l-.7.6-2.2,1.8a7,7,0,0,1-2.1,1.4l-.8.2a1,1,0,0,1-.8-.3.7.7,0,0,1-.2-.6c.1-.1.1-.2.1-.4a4.4,4.4,0,0,1,.3-1.5,23.3,23.3,0,0,1,1.7-2.6l.9-1h0c0-.1.1.2,0,.2h.2s.2,0,.2.1,0-.1,0-.1h.1l-.3.2-.7.4-2.2,1.7-.9.9-.2.2h0"/><path class="cls-5" d="M132.7,194c.2.1.2.3.1.5a.4.4,0,0,1-.6.1h-.5c-.2.1-.5.1-.7.3a1.2,1.2,0,0,0-.8.5v.2h1l.6-.3h.5l.2.3v.3a12.7,12.7,0,0,0-.7,1.2,5.2,5.2,0,0,0-.6,2.3c-.1.9-.1,1.7-.2,2.4a.9.9,0,0,1-.1.7.8.8,0,0,1-.5.5h-.6a2.9,2.9,0,0,1-1.3-.5,2.7,2.7,0,0,1-1-1.1,1.6,1.6,0,0,1,.1-1.5.5.5,0,0,1,.6-.1c.2.1.2.4.1.6a.8.8,0,0,0,0,.7,1.5,1.5,0,0,0,.7.7l.9.4h.3v-.5c.1-.6,0-1.5.2-2.4a7.6,7.6,0,0,1,.6-2.6l.7-1.1h0c0-.1.1.1,0,.1s.2.1.2.1.1.1.1.1h.1c-.1,0,0-.1,0-.1l-.7.3-.7.2a1,1,0,0,1-.9-.1,1,1,0,0,1-.4-.7,1.1,1.1,0,0,1,.2-.8l1.1-.8,1-.3a1.4,1.4,0,0,1,1.1.3"/><path class="cls-5" d="M137.4,194.7a.3.3,0,0,1-.5.3c-.2,0-.3-.2-.3-.5h.2l-.5.3a2.5,2.5,0,0,0-.9,2.1.4.4,0,0,0,.1.3h0a2.1,2.1,0,0,0,1.2-.6.3.3,0,0,1,.5.1.4.4,0,0,1,0,.6,2.6,2.6,0,0,1-1.8.7.8.8,0,0,1-.6-.4.7.7,0,0,1-.2-.6,3.6,3.6,0,0,1,1.2-2.9,1.8,1.8,0,0,1,1-.4.7.7,0,0,1,.6.3.6.6,0,0,1,0,.6"/><path class="cls-5" d="M138,193.6a.5.5,0,0,1,.2.6.4.4,0,0,1-.6.1,1.2,1.2,0,0,0-1-.1h-.1l.3.4a.4.4,0,0,1,0,.6c-.1.2-.4.2-.6,0a1.4,1.4,0,0,1-.5-1l.2-.4c.1-.2.2-.2.4-.3a2.1,2.1,0,0,1,1.7.2"/><path class="cls-5" d="M143,193.9a.4.4,0,0,1-.5.2.4.4,0,0,1-.3-.5s.1.2,0,.1h-.4c-.2,0-.5.3-.7.6s-.1.8-.1,1.4a1.9,1.9,0,0,1,.1.8,2,2,0,0,1-.9,1.5,3.2,3.2,0,0,1-2,.6.5.5,0,0,1,.1-.9,2,2,0,0,0,1.4-.3,1.2,1.2,0,0,0,.6-.9,1.7,1.7,0,0,0-.1-.7,3.5,3.5,0,0,1,.2-2,2.2,2.2,0,0,1,1.2-.9h1a.5.5,0,0,1,.4.3.6.6,0,0,1,0,.6"/><path class="cls-5" d="M158.1,197.6a.5.5,0,0,1-.5.3.5.5,0,0,1-.3-.6l.4-.6a38.7,38.7,0,0,1,2.6-3.1l2.3-2.5.9-.7a.5.5,0,0,1,.4-.2h.2l.3.2a.4.4,0,0,1,.2.4c0,.2,0,.3-.1.4a2.5,2.5,0,0,1-.2.7c-.2.7-.6,1.5-.8,2.1a1.3,1.3,0,0,0-.1.5h.1a.4.4,0,0,1,.4.4c.1.2-.1.4-.3.4H163a.7.7,0,0,1-.4-.5,1.7,1.7,0,0,1,.1-1c.2-.7.7-1.5.9-2.1s.1-.4.1-.6a.3.3,0,0,0,.1-.2h.2l-.8.7a43.7,43.7,0,0,0-5.1,5.9"/><path class="cls-5" d="M167.3,191.3a.4.4,0,0,1-.4-.4c0-.3.1-.5.4-.5a6,6,0,0,1,2,.3c.2.1.6,0,.9.3a1.1,1.1,0,0,1,.3.8c-.1.9-1,1.6-1.8,2.4l-1.5,1.7v.2h1.3a6.9,6.9,0,0,1,2-.1.4.4,0,0,1,.4.4.7.7,0,0,1-.5.4,5.9,5.9,0,0,0-1.8.1,3,3,0,0,1-1.9-.3.9.9,0,0,1-.3-.6.8.8,0,0,1,.2-.5,9,9,0,0,1,1.6-1.9,8.8,8.8,0,0,0,1.6-2h-.6a3.5,3.5,0,0,0-1.8-.2"/><path class="cls-5" d="M177.8,191.1a.4.4,0,0,1-.3.5c-.2.1-.4-.1-.5-.3h.7s.1-.1,0-.1h.1c-.1,0-.1.2-.1.4s-.1.9-.2,1.4a12,12,0,0,0,0,1.9v.7h.1l.6-.5,1.7-1.7a18.5,18.5,0,0,1,3.8-3.2.4.4,0,0,1,.5.2c.2.2.1.4-.1.6a13.6,13.6,0,0,0-3.6,3l-1.8,1.7-.7.6h-.9c-.2-.1-.3-.4-.4-.7s-.1-.5-.1-.8.1-1.3.1-1.9.1-1.2.2-1.6a.6.6,0,0,1,.1-.4V191l.2-.2c.1-.1.5.1.5.2h.1"/><path d="M50.7,120.4a.3.3,0,0,1,.5-.3c.2,0,.3.2.3.4s.1,3-.1,4.9-.3,1.9-.4,2.6-.1,1-.2,1.5v1.1h-.1c.1,0,0-.1,0-.1h-.6s-.1.1,0,.1h0a.8.8,0,0,1,.1-.4c0-.2.2-.3.5-.2s.3.2.2.5a.4.4,0,0,1-.1.3h0l-.2.3-.5-.2H50v-1.3c.1-.5.1-1,.2-1.6s.3-1.5.4-2.4-.1-3.7.1-5"/><path d="M51.2,120.4a.5.5,0,0,1-.4-.5.4.4,0,0,1,.4-.4H98.8a.4.4,0,0,1,.4.4.5.5,0,0,1-.4.5Z"/><path d="M51.2,134.2a.4.4,0,0,1,0-.8H98.8a.4.4,0,1,1,0,.8Z"/><path d="M98.3,119.6a.5.5,0,0,1,.5-.4.4.4,0,0,1,.4.4v14.3a.5.5,0,0,1-.4.5.5.5,0,0,1-.5-.5Z"/><path d="M50.5,120.8a.4.4,0,0,1-.4.4.5.5,0,0,1-.4-.5c0-.1.1-.2.1-.3a.3.3,0,0,1,.1-.2.5.5,0,0,1,.5-.1.2.2,0,0,1,.2.2c0,.1,0,.1.1.2v1.4c0,2.1-.2,4.5-.2,6.7s.1,1.8.1,2.8v1.5a2.8,2.8,0,0,1,.1.9v.4h0c0,.1-.1-.1,0-.1s.1.5-.1.6-.4.1-.6,0a.4.4,0,0,1-.1-.3h0a.3.3,0,0,1,.1-.2c0-.2,0-.3.1-.4s.1-.8.1-1.3a38.6,38.6,0,0,0,.4-5.8v-5.8l.2-.3a.4.4,0,0,1,.6,0,.6.6,0,0,1,0,.6c-.1,0,.1-.2,0-.1s.1-.2.1-.1h0a.7.7,0,0,1,.1.5,24.9,24.9,0,0,1-.2,4.5c-.1,1.4-.1,2.5-.1,3.4a6.6,6.6,0,0,1-.1,1.4,11.1,11.1,0,0,0-.2,1.7v.3h-.4a.5.5,0,0,1,.6-.2.5.5,0,0,1,.1.6l-.3.4h-.6c-.2-.2-.2-.3-.2-.4v-.4a9.9,9.9,0,0,1,.2-1.8c0-.5.1-.8.1-1.3s0-2,.1-3.5a23.4,23.4,0,0,0,.2-4.3.8.8,0,0,0-.1-.4v-.2h0a.4.4,0,0,1,.1-.3l.6.6c-.1,0,0-.1,0-.1h.1c-.1.1,0,0,0,.1s-.1.1-.1.2v5.4a39,39,0,0,1-.4,5.9c0,.5-.1.9-.1,1.3a.9.9,0,0,0-.1.5h-.1s-.1-.2,0-.2l-.7.6c-.2-.3-.1-.3-.1-.3v-.5a2.8,2.8,0,0,0-.1-.9v-1.6c0-.9-.1-1.8-.1-2.8s.1-4.6.2-6.7v-1.3H50c-.1-.1.1.1.1,0s.2.1.1.1h.2c-.1.1.1-.1.1,0h.1c0,.1-.1.1-.1.2"/><path d="M98.8,126.5a.4.4,0,1,1,0-.8h15.4a.4.4,0,0,1,0,.8Z"/><path d="M68.3,103.7a.5.5,0,0,1,.9.1c-.1.3-.1.9-.2,1.6a17.9,17.9,0,0,0-.2,2.4l-.3,2v.9a.6.6,0,0,1-.2.5h-.6l-.2-.3a6.5,6.5,0,0,1-.2-2.2,11,11,0,0,1,.4-3.1,6.6,6.6,0,0,1,1.3-2.4,1.3,1.3,0,0,1,.9-.5l.5.2.3.4c.2.6-.2,1.1-.3,1.6-.7,2-.5,3.5.7,4.7s.2.5,0,.6-.4.2-.6,0a4.4,4.4,0,0,1-1.3-2.5,6.3,6.3,0,0,1,.4-3,6.2,6.2,0,0,0,.3-1.1h-.1l-.2.3a4,4,0,0,0-1.1,2,10,10,0,0,0-.2,4.8h-.1c.1,0-.1-.1,0-.1h-.4c.1,0-.1.1-.1.1h-.1c.1,0,0,0,.1-.1v-.9a12.3,12.3,0,0,0,.2-2c.2-1.6.4-3.3.4-4"/><path d="M75.2,108.7c0,.3-.2.4-.4.5a.5.5,0,0,1-.4-.5h.3c-.1,0,.2-.1.1,0h.1a1.6,1.6,0,0,0-.3.6,3.2,3.2,0,0,0-.3,1.4,1.1,1.1,0,0,0-.1.5v.2h.1l.8-.4.6-.5.4-.2a.9.9,0,0,1,.6.3c.2.4.1.8.2,1h-.1s-.1,0,0-.1h.3c.1-.2.4-.1.5,0a.5.5,0,0,1,0,.6,1.2,1.2,0,0,1-.9.4.5.5,0,0,1-.4-.2l-.2-.4c-.1-.4-.1-.8-.2-.8s.2.1.2.1h0a1.7,1.7,0,0,1-.6.6l-.8.5h-.5a.5.5,0,0,1-.6-.1,1.1,1.1,0,0,1-.2-.7,1.5,1.5,0,0,1,.1-.7,4.5,4.5,0,0,1,.3-1.6,5.6,5.6,0,0,1,.5-.8l.2-.2H75l.2.3v.2"/><path d="M75.6,103.7a.4.4,0,1,1,.3.7h-.1c0,.1.1.3.4.4a3.3,3.3,0,0,0,2.8-.6c.2-.2.4-.1.6.1s.1.4-.1.5a3.9,3.9,0,0,1-3.7.7,1.4,1.4,0,0,1-.8-.9.7.7,0,0,1,.1-.6.7.7,0,0,1,.5-.4"/><path d="M128.8,94.8c.3,0,.5.1.5.3a.3.3,0,0,1-.3.5h.2c0,.1-.1.1-.1.2l-.3.7a15.5,15.5,0,0,0-.5,2.3,14.9,14.9,0,0,0-.3,2.8c-.1.4-.1.7-.2,1s0,.2-.2.3-.3,0-.4,0l-.3-.3a2.5,2.5,0,0,0-.2-.7,8.3,8.3,0,0,1-.1-2.3,6.9,6.9,0,0,1,1.3-3.4,1.7,1.7,0,0,1,.6-.6,1.1,1.1,0,0,1,.7-.3.5.5,0,0,1,.5.3c.2.1.3.2.3.4a2,2,0,0,1,.2,1.1,13.8,13.8,0,0,1-.7,2.6,2.6,2.6,0,0,0,.4,1.5c.3.7.3,1.1.8,1.5a.5.5,0,0,1,.2.6.6.6,0,0,1-.6.1,1.9,1.9,0,0,1-.8-1,3.6,3.6,0,0,1-.4-.9,3.3,3.3,0,0,1-.4-2,12.7,12.7,0,0,0,.7-2.4,1.9,1.9,0,0,0-.1-.8H129a1.1,1.1,0,0,0-.4.5,6.8,6.8,0,0,0-1.2,3,12.1,12.1,0,0,0,.1,2l.2.5h-.1c.1,0-.2-.1-.1-.1h-.2s-.2.1-.1.1h-.1a3.7,3.7,0,0,1,.1-.8,15.8,15.8,0,0,1,.3-2.8,14.4,14.4,0,0,1,.5-2.4l.3-.8.2-.3.3-.3"/><path d="M134.5,101.4a.4.4,0,0,1,.5-.2c.2.1.4.3.3.5s-.8,1.5-1.1,2.3a3.1,3.1,0,0,0-.2.8c0,.2,0,.3.1.4h1.3c.2-.1.4,0,.5.3s-.1.4-.3.5a3,3,0,0,1-1.3.1,1.1,1.1,0,0,1-1.1-1.3,4.3,4.3,0,0,1,.2-1.1c.4-.9,1-1.9,1.1-2.3"/><path d="M140.1,103.5a.4.4,0,1,1-.7.5H139a3.5,3.5,0,0,0-.7.9,1,1,0,0,0-.1.4v.3h0c.1,0,0-.1,0-.1h.6l.5-.4h.5c.2.1.2.2.3.3s.1.4.2.5a1,1,0,0,0,.7.8c.2,0,.3.3.2.5s-.2.3-.5.3a1.9,1.9,0,0,1-1.2-1.3c0-.2-.1-.3-.1-.4h.2c-.1,0,.1-.1.1,0s-.3.3-.7.3l-.6.2a1,1,0,0,1-.7-.2c-.2-.1-.2-.3-.3-.5v-.5l.3-.6a2.6,2.6,0,0,1,1-1.3.9.9,0,0,1,.7-.3,1.4,1.4,0,0,1,.8.5"/><path d="M57.1,145.3c.1.2,0,.4-.3.5s-.4-.1-.5-.3,0-.4.1-.7l.3-.5,1-1.2.7-.8a.8.8,0,0,1,.4-.4c.2-.2.4-.1.5.1s.1.5-.1.6.1-.2.1-.2h0l-.3.6-1.2,2.1a6.5,6.5,0,0,0-1.1,3.2h0a2.6,2.6,0,0,0,1.2-.6l1.7-1.5,1.1-1.3c.3-.2.3-.4.7-.5h.4a6181264102391.6,6181264102391.6,0,0,0,.2.6,1.4,1.4,0,0,1-.2.6,8.4,8.4,0,0,1-.6,1.4,6.4,6.4,0,0,0-.6,1.6,1.5,1.5,0,0,0,0,.7h.7a8,8,0,0,0,2-.8.4.4,0,0,1,.5.2c.1.2.1.4-.1.5a7.6,7.6,0,0,1-2.3.9h-.8a.8.8,0,0,1-.6-.4,1.6,1.6,0,0,1-.2-1.4,6,6,0,0,1,.7-1.8l.6-1.2a.7.7,0,0,1,.1-.5h0s.1.2,0,.1h.4l-.3.3a12.1,12.1,0,0,1-1.2,1.3,12.2,12.2,0,0,1-1.7,1.5,2.7,2.7,0,0,1-1.7.8.6.6,0,0,1-.6-.3c-.2-.1-.2-.3-.2-.5s.3-2.2,1.1-3.7,1-1.5,1.3-2.1a.8.8,0,0,0,.2-.4h.3l.4.7c-.1,0,0-.1,0-.1l-.2.3-.7.9-.9,1-.3.5h0"/><path d="M68.8,149.4a.4.4,0,0,1,.6.2.6.6,0,0,1-.3.6c-.1,0-.3.2-.5.7a6.2,6.2,0,0,0-.4,1.6,11.3,11.3,0,0,0-.4,1.5v.6a.8.8,0,0,1-.1.4h-.3c-.1,0-.2.1-.3,0a.4.4,0,0,1-.3-.4.4.4,0,0,0-.1-.3v-1a20.1,20.1,0,0,1,.1-2.4,4.7,4.7,0,0,1,1.8-2.9,1.3,1.3,0,0,1,1.2,0,1.1,1.1,0,0,1,.6,1,2,2,0,0,1-.1,1.1c-.1.6-.6.9-.7,1.1a1.2,1.2,0,0,0,0,1.4,8.8,8.8,0,0,0,1.2,2,.5.5,0,0,1-.1.6.6.6,0,0,1-.6-.1,9.8,9.8,0,0,1-1.3-2.2,2.2,2.2,0,0,1,.1-2.2l.7-.8c0-.3.1-.6,0-.8a.5.5,0,0,0-.2-.4H69a3.6,3.6,0,0,0-1.4,2.3,17.7,17.7,0,0,0-.1,2.3,2.2,2.2,0,0,0,.1.9v.2h0s-.1-.1,0-.1H67c.1,0,0,.1,0,.1h0v-.6l.3-1.6c.2-.6.3-1.2.5-1.8s.5-1,1-1.1"/><path d="M73.5,153a.7.7,0,0,1,.5.4.4.4,0,0,1-.4.4h-.1c-.1.1-.1.3-.2.5s-.1.5-.1.7.1.1.1.2h.1l.6-.4h.5a.2.2,0,0,1,.3,0l.3.2a1,1,0,0,1,.1.7h0c.2-.1.5-.1.6.1a.5.5,0,0,1-.2.6l-.7.2-.3-.2a.4.4,0,0,1-.1-.3.6.6,0,0,1-.1-.4h0s.2.2.1.2h-.1a1.7,1.7,0,0,1-1.2.4c-.2,0-.4-.2-.6-.4a1.1,1.1,0,0,1-.2-.6c0-.3.1-.6.1-.8a2.6,2.6,0,0,1,.3-.8.9.9,0,0,1,.7-.5"/><path d="M74.5,150.1a.4.4,0,0,1,.5.2c.1.2.1.4-.1.5l-.4.3h.1a4.6,4.6,0,0,0,3.1-.4.4.4,0,0,1,.6.2.4.4,0,0,1-.2.5,5.3,5.3,0,0,1-3.7.5l-.5-.3a.7.7,0,0,1,0-1.2.9.9,0,0,1,.6-.4"/><path d="M120.3,147.3a.4.4,0,0,1-.2.5.4.4,0,0,1-.6-.3,2,2,0,0,1,.2-1.3l.9-1.1,1.3-1.6a4.6,4.6,0,0,0,.7-.7l.3-.3.2-.2a.5.5,0,0,1,.4,0c.1,0,.2.2.2.3a1.8,1.8,0,0,1-.1,1l-.4,1a7.6,7.6,0,0,1-.9,1.8,7.6,7.6,0,0,0-.7,1.9,1,1,0,0,0-.1.4h-.1l1-.5a8.9,8.9,0,0,0,2-1.9l.8-.7v-.2h.2c.1,0,.3-.1.4,0s.2.2.2.3a2.1,2.1,0,0,1-.1,1.1l-.4,1.2a6.7,6.7,0,0,0-.5,2.3h.3a4.1,4.1,0,0,0,1.6-.5c.2-.1.5-.1.6.1a.5.5,0,0,1-.2.6,4.1,4.1,0,0,1-1.9.6h-.8a1.8,1.8,0,0,1-.5-.7,7.8,7.8,0,0,1,.6-2.7,13.7,13.7,0,0,0,.5-1.8h.7l-.3.2-.7.7a10.7,10.7,0,0,1-2.2,2l-1.3.6c-.2,0-.4,0-.5-.2s-.2-.2-.2-.3-.1-.6,0-1a9.1,9.1,0,0,1,.8-2,11.9,11.9,0,0,0,.8-1.6,5.6,5.6,0,0,0,.5-1.6h.6c-.1.1-.2.3-.4.4l-.6.7-1.3,1.5a4.6,4.6,0,0,0-.7,1,1.1,1.1,0,0,0-.2.7"/><path d="M132.6,149.5c0,.2-.3.3-.5.2s-.3-.3-.3-.5h.7l-.4.7c-.7,1.1-1.7,2.6-2.3,3.7a1.3,1.3,0,0,0-.3.7h1.3a1.3,1.3,0,0,1,.8.2,1.1,1.1,0,0,1,.6.7c.1.2,0,.4-.3.5a.4.4,0,0,1-.5-.2c0-.2-.1-.3-.2-.3h-1.7a.9.9,0,0,1-.7-.3,1.1,1.1,0,0,1-.1-.8c0-.3.2-.5.4-.8s1.7-2.7,2.3-3.8l.5-.8h.6a.4.4,0,0,1,.2.3.9.9,0,0,1-.1.5"/><path d="M136.9,153.7c0,.2-.3.3-.5.2s-.3-.3-.3-.5h-.2l-.3.4a1.6,1.6,0,0,0-.3.9h0l.6-.3.4-.2a1.1,1.1,0,0,1,.6-.2l.3.3v.6c0,.2-.1.5-.1.7a1,1,0,0,1,.1.4h.3c.2-.1.5,0,.5.2a.4.4,0,0,1-.2.5.7.7,0,0,1-.6.1l-.6-.2a1.9,1.9,0,0,1-.3-1c0-.3.1-.6.1-.8v-.2h0s.1.2,0,.1h.1s.2.1.1.1h.1l-.5.2a1.9,1.9,0,0,1-1,.4l-.6-.3a1,1,0,0,1-.2-.7,2.3,2.3,0,0,1,.3-1.1,1.6,1.6,0,0,1,.9-.9h.9a1,1,0,0,1,.4.5,1.3,1.3,0,0,1-.1.6"/><path d="M150.6,144.3a.5.5,0,0,1,.6.1.5.5,0,0,1-.1.6h0v.2c0,.2.1.5.1.8a22,22,0,0,1,.9,2.1,4,4,0,0,1,0,1.1,1.1,1.1,0,0,1-.7.6h-.8a2.9,2.9,0,0,1-1.5-1,2,2,0,0,1-.3-1.1,1,1,0,0,1,.4-1l.9-.7a15.8,15.8,0,0,1,2.3-1.1c.8-.3,1.2-.7,1.3-1.1a.5.5,0,0,0,0-.5l-.4-.2c-.1-.1-.2-.1-.4.1a1.9,1.9,0,0,0-.7,1.1.7.7,0,0,1-.6.3.5.5,0,0,1-.2-.6,3.9,3.9,0,0,1,1-1.4,1.2,1.2,0,0,1,1.1-.3,1.1,1.1,0,0,1,.9.6,1.4,1.4,0,0,1,.1,1.1,2.5,2.5,0,0,1-1.7,1.6,15.1,15.1,0,0,0-2.2,1.1l-.8.5a.6.6,0,0,0-.2.5,1.9,1.9,0,0,0,.2.7,1.7,1.7,0,0,0,1,.6h.5v-.7c-.1-.5-.6-1.2-.8-2a3.6,3.6,0,0,1-.2-1,1.1,1.1,0,0,1,.3-.9"/><path d="M154.9,149.2c.2-.2.5-.2.6,0a.3.3,0,0,1,.1.5,6.9,6.9,0,0,0-1.1,2.8.4.4,0,0,1-.4.4.5.5,0,0,1-.4-.5,7.8,7.8,0,0,1,1.2-3.2"/><path d="M164.1,143.7a.5.5,0,0,1-.6.2c-.2-.1-.2-.4-.1-.6a.8.8,0,0,0,.1-.4h.1c-.1-.1,0,.1,0,.1s.2.1.1.1h-.1l-.5.5-1.2,1.4a8.3,8.3,0,0,0-1.4,2.6,3.2,3.2,0,0,0,0,1.4c0,.1.1.1.1.2h.4l.5-.2c.1-.2.3-.4.3-.6h0l-.2-.2a.7.7,0,0,0-.6-.1c-.2,0-.5-.2-.5-.4a.4.4,0,0,1,.4-.4,1.7,1.7,0,0,1,1.2.2l.4.5a1.7,1.7,0,0,1,.1.7,1.9,1.9,0,0,1-.5.9,1.4,1.4,0,0,1-1,.5h-.8a1.2,1.2,0,0,1-.6-.6,3.5,3.5,0,0,1,.1-2,7.4,7.4,0,0,1,1.4-2.8,10,10,0,0,1,1.3-1.5c.5-.4.8-.8,1.3-.8a.6.6,0,0,1,.5.2.6.6,0,0,1,.1.4l-.3.7"/><path d="M166.3,145c-.2,0-.3-.3-.3-.5a.5.5,0,0,1,.5-.3h.2c.2.2.1.3.1.3h.1a4.3,4.3,0,0,0-.1.5c-.1,1-.6,2.3-.8,3.4a6.6,6.6,0,0,0-.1,1.3c.1.3.1.3.1.4s-.1-.1-.1-.1h.2a3.3,3.3,0,0,0,.6-.6l1.7-2.1a19.3,19.3,0,0,1,1.7-2.1c.5-.5.9-.9,1.5-.9a.4.4,0,0,1,.4.4.4.4,0,0,1-.4.4,1.8,1.8,0,0,0-.9.7l-1.7,2a17.3,17.3,0,0,1-1.7,2.1l-.7.8-.4.2h-.6a1.3,1.3,0,0,1-.5-.9,3.4,3.4,0,0,1,.1-1.7c.2-1.2.7-2.5.8-3.3v-.4h.1c-.1,0,.1.2,0,.1h.2m.5-.2a.4.4,0,1,1-.8-.2h0c.1-.1.1-.3.4-.3a.4.4,0,0,1,.4.4.4.4,0,0,1-.4.4h.4c-.1,0,0-.1,0-.1h0"/><path class="cls-4" d="M35.6,9.7a.5.5,0,0,1-.6-.1.5.5,0,0,1,.2-.6L37,7.7a2.4,2.4,0,0,1,.9-.6c.4-.2.6-.6,1.1-.4a.4.4,0,0,1,.4.3v.8A2.9,2.9,0,0,1,39,9.1a1.2,1.2,0,0,0-.2.6c0,.2-.1.5-.3.5A.4.4,0,0,1,38,10c-.2-.5.1-.9.3-1.3a3.4,3.4,0,0,0,.4-1V7.4h0c0-.1.2.1.2.1h0l-.6.3-.8.5L35.6,9.7"/><path class="cls-4" d="M39,111.6a.4.4,0,0,1-.6.1.3.3,0,0,1-.1-.5l.2-.2h0c0-.1.1.2,0,.1s.2.1.1.1H39a3,3,0,0,0-.9,1,9,9,0,0,0-1.7,3.8v.4h.3l.8-.7a.4.4,0,0,1,.6,0,.6.6,0,0,1,0,.6l-1,.8a.8.8,0,0,1-.8.2.6.6,0,0,1-.6-.5,2.2,2.2,0,0,1-.1-.8,8.9,8.9,0,0,1,1.8-4.2l1-1.1.2-.2h.3c.1,0,.4.2.4.4s-.1.2-.1.3l-.2.2"/><path class="cls-4" d="M37,113.8c.2,0,.3.3.3.5a.5.5,0,0,1-.5.3l-.5-.2h-.2a4.3,4.3,0,0,1-.1-.5.4.4,0,0,1,.4-.3h.4a3.1,3.1,0,0,1,1.8.5.4.4,0,0,1,.1.6.4.4,0,0,1-.5.1,3.3,3.3,0,0,0-1.4-.4h-.2s.1-.1,0-.1.2-.1.1,0v-.4H37"/><path class="cls-4" d="M41.2,113.9a.4.4,0,0,1,0,.8h-.4l-.3.5c-.2.3-.4.4-.4.6l-.2.3h0l.3-.2a1.6,1.6,0,0,1,1-.1l.3.2v.3a.4.4,0,0,1,.1.3h-.1a.4.4,0,0,1,.6.2c.1.2,0,.4-.3.5h-.7c-.2-.2-.2-.4-.3-.5v-.3h-.6a.6.6,0,0,1-.6.1,1.1,1.1,0,0,1-.5-.9.9.9,0,0,1,.3-.7c.1-.3.3-.4.4-.6a2.5,2.5,0,0,1,.4-.7,1.7,1.7,0,0,1,1-.3"/><path class="cls-4" d="M45,117.2c.1.2-.1.4-.3.4s-.5-.1-.5-.4h0V117a4.8,4.8,0,0,0,0-1.2,1.9,1.9,0,0,0-.3-.8c0-.2-.1-.2-.2-.4v-.3a.3.3,0,0,1,.3-.3,3.3,3.3,0,0,1,1.7,0,4.7,4.7,0,0,0,1.6.1c.3,0,.5.1.5.4a.4.4,0,0,1-.4.4,5.6,5.6,0,0,1-1.8-.1H44.3s.1-.1.1,0v-.2h0a.4.4,0,0,1,.1.3,2.1,2.1,0,0,1,.4,1.1,2.8,2.8,0,0,1,0,1.3v.2h0m2.1-6.1a.4.4,0,0,1-.5.2.5.5,0,0,1-.2-.6v-.2h0v.2c0-.1.2.1.1.1H47s.1-.1.1,0H47l-.8,1.4a13.8,13.8,0,0,0-1.1,4.2,1.8,1.8,0,0,0-.1.6h0a.4.4,0,0,1-.4.4.4.4,0,0,1-.4-.4h0a2.3,2.3,0,0,1,.1-.7,14.4,14.4,0,0,1,1.2-4.5l.8-1.4c.1-.1.1-.2.2-.2h.4l.3.2c.2.3,0,.4,0,.5a.8.8,0,0,1-.1.3"/><path class="cls-4" d="M42.2,114.9c0,.3-.1.4-.4.4a.4.4,0,0,1-.4-.4h-.1l-.7.3a2.1,2.1,0,0,0-.4.7l-.2.4a1,1,0,0,0-.1.4h-.1c.1,0,0-.1,0-.1h0c.1.1.3,0,.4,0l.6-.6.6-.3a1.1,1.1,0,0,1,.6,0,.4.4,0,0,1,.2.5v.2c0,.2-.1.4-.1.6v.2h.1a.4.4,0,0,1,.4.4c0,.3-.2.4-.4.5h-.5l-.3-.4a2,2,0,0,1-.1-.7,3.5,3.5,0,0,1,.1-.6h.1s.2.2.1.2.1,0,.1,0h0l-.3.2a5.3,5.3,0,0,1-1,.7h-1a.5.5,0,0,1-.3-.5.9.9,0,0,1,.1-.7,1.4,1.4,0,0,0,.2-.6,6.1,6.1,0,0,1,.7-1,2,2,0,0,1,1.3-.4.9.9,0,0,1,.6.3,1,1,0,0,1,.2.7"/></g></svg>