<svg xmlns="http://www.w3.org/2000/svg" xmlns:xlink="http://www.w3.org/1999/xlink" viewBox="0 0 303 172.3"><defs><style>.cls-1{fill:none;}.cls-2{isolation:isolate;}.cls-3,.cls-4{opacity:0;}.cls-5{clip-path:url(#clip-path);}.cls-6,.cls-7,.cls-8{fill:#ed3624;}.cls-6,.cls-7{mix-blend-mode:darken;}.cls-6{opacity:0.42;}.cls-7{opacity:0.42;}</style><clipPath id="clip-path"><rect class="cls-1" x="-24.7" y="-46.8" width="419.5" height="297.64"/></clipPath></defs><g class="cls-2"><g id="Ebene_1" data-name="Ebene 1"><g class="cls-3"><path d="M171.2,22V8.8h1.6V22Z"/><path d="M182.3,21.7a11.1,11.1,0,0,1-2.8.5,4.2,4.2,0,0,1-3.2-1.4,4.5,4.5,0,0,1-1.3-3.4,5.3,5.3,0,0,1,1.1-3.4,3.4,3.4,0,0,1,2.8-1.3,3.1,3.1,0,0,1,2.6,1.2,5,5,0,0,1,.9,3.3v.5h-5.7c.2,2.1,1.3,3.2,3.1,3.2a9.2,9.2,0,0,0,2.5-.5Zm-5.6-5.2h4c0-1.7-.6-2.6-1.9-2.6S176.9,14.8,176.7,16.5Z"/></g><g class="cls-3"><path d="M202.4,20.2V19.1a7.9,7.9,0,0,1,2.4-3l.8-.7a3.8,3.8,0,0,0,1.5-2.7,2.2,2.2,0,0,0-.5-1.4,2.1,2.1,0,0,0-1.4-.4,4.8,4.8,0,0,0-2.5.8V10.5a5.4,5.4,0,0,1,2.7-.7,3.6,3.6,0,0,1,2.3.8,2.8,2.8,0,0,1,.8,2,3.1,3.1,0,0,1-.4,1.7,11.1,11.1,0,0,1-1.6,1.7l-.5.4a4.5,4.5,0,0,0-1.9,2.7h4.4v1.1Z"/><path d="M211.2,22.4v-.5c.5-.1.7-.6.7-1.5v-.2h-.7V18.5h1.7V20C212.9,21.5,212.4,22.3,211.2,22.4Z"/><path d="M215.1,20.2V19.1a7.9,7.9,0,0,1,2.4-3l.8-.7a3.8,3.8,0,0,0,1.5-2.7,2.2,2.2,0,0,0-.5-1.4,2,2,0,0,0-1.4-.4,4.8,4.8,0,0,0-2.5.8V10.5a5.4,5.4,0,0,1,2.7-.7,3.6,3.6,0,0,1,2.3.8,2.4,2.4,0,0,1,.8,2,3.1,3.1,0,0,1-.4,1.7,11.1,11.1,0,0,1-1.6,1.7l-.5.4a5,5,0,0,0-1.9,2.7h4.4v1.1Z"/><path d="M224.4,20.3V19.1a7.1,7.1,0,0,0,2,.4,2,2,0,0,0,1.5-.6,2.1,2.1,0,0,0,.6-1.6c0-1.6-1-2.3-3.1-2.3h-.8V10.1h5.1v1.2h-3.9v2.6a4.5,4.5,0,0,1,3,.9,3,3,0,0,1,1.1,2.5,3,3,0,0,1-1,2.4,4.1,4.1,0,0,1-2.7.8Z"/><path d="M232.8,20.2V12.8h1.4v1.4a2.8,2.8,0,0,1,2.5-1.6,1.9,1.9,0,0,1,2,1.6,2.9,2.9,0,0,1,2.5-1.6,2.1,2.1,0,0,1,1.6.6,2.5,2.5,0,0,1,.5,1.6v5.4h-1.4V15c0-.8-.3-1.2-1-1.2a3.3,3.3,0,0,0-2.2,1.4v5h-1.3V15c0-.8-.4-1.2-1.1-1.2a3.1,3.1,0,0,0-2.1,1.4v5Z"/></g><g class="cls-3"><path d="M5.9,97.1l.2-1.4a5.8,5.8,0,0,0,2.8.7,2.6,2.6,0,0,0,2.8-2.9V92a3,3,0,0,1-3,1.9,3.1,3.1,0,0,1-2.6-1.2,4.8,4.8,0,0,1-.9-3.1,5.3,5.3,0,0,1,1-3.4,3.6,3.6,0,0,1,2.9-1.3,3.5,3.5,0,0,1,2.6,1.2v-1h1.6v6.6a21.6,21.6,0,0,1-.2,3.1,3.4,3.4,0,0,1-.8,1.7,4.8,4.8,0,0,1-3.4,1.1A7.9,7.9,0,0,1,5.9,97.1ZM11.7,91V87.2a3.4,3.4,0,0,0-2.4-1.1,2.3,2.3,0,0,0-1.8.9,4.6,4.6,0,0,0-.6,2.5q0,3,2.1,3A3.8,3.8,0,0,0,11.7,91Z"/><path d="M20.7,93a4,4,0,0,1-2.8,1.3,2.5,2.5,0,0,1-1.9-.7,2.1,2.1,0,0,1-.7-1.7,2.6,2.6,0,0,1,1.2-2.3,7.4,7.4,0,0,1,3.6-.8h.4V87.7a1.4,1.4,0,0,0-1.6-1.6,6.3,6.3,0,0,0-2.8.8V85.6a7.3,7.3,0,0,1,3.1-.7,2.9,2.9,0,0,1,2.2.7,2.5,2.5,0,0,1,.7,2.1v4.1c0,.9.3,1.4.9,1.4h.3v.9a2.2,2.2,0,0,1-1.2.2C21.4,94.3,21,93.9,20.7,93Zm-.2-.9V89.8h-.6a4.1,4.1,0,0,0-2.1.5,1.6,1.6,0,0,0-.9,1.4,1.4,1.4,0,0,0,.5,1,1.2,1.2,0,0,0,1,.4A3.5,3.5,0,0,0,20.5,92.1Z"/><path d="M25.1,94.1v-9h1.6v1.7a3.8,3.8,0,0,1,3.2-1.9,2.5,2.5,0,0,1,1.9.7,3.2,3.2,0,0,1,.7,2v6.5H30.8V88.2a2.8,2.8,0,0,0-.3-1.5,1,1,0,0,0-.9-.4c-1,0-2,.7-2.9,2v5.8Z"/><path d="M34.6,94.1V92.9l5.6-6.6H34.9V85.1h7.3v1.2l-5.5,6.6h5.7v1.2Z"/></g><g class="cls-3"><path d="M55.7,89l-3.2-8.6h1.6l2.4,6.7,2.6-6.7h1.5L57.2,89Z"/></g><g class="cls-3"><path d="M107.3,102.6a4.2,4.2,0,0,1-3.2-1.4,4.8,4.8,0,0,1-1.3-3.6,5.5,5.5,0,0,1,1.3-3.7,4.8,4.8,0,0,1,6.6,0,4.9,4.9,0,0,1,1.3,3.7,5.1,5.1,0,0,1-1.3,3.7A4.2,4.2,0,0,1,107.3,102.6Zm.1-1.3c1.8,0,2.7-1.2,2.7-3.7s-.9-3.7-2.7-3.7-2.7,1.2-2.7,3.7S105.6,101.3,107.4,101.3Zm-2.5-10.2V89.5h1.5v1.6Zm3.5,0V89.5h1.5v1.6Z"/></g><path class="cls-4" d="M281.8,67.3h2v5.1a3.6,3.6,0,0,0,.2,1.1,1.8,1.8,0,0,0,.5.7l1,.2a1.7,1.7,0,0,0,1-.3,1.4,1.4,0,0,0,.6-.7,2,2,0,0,0,.3-1.1v-5h1.9v6.1a1.3,1.3,0,0,0,.2.8l.5.2h.4v1.4h-.8a2.6,2.6,0,0,1-1.4-.3,1.7,1.7,0,0,1-.6-1.1h-.2a1.9,1.9,0,0,1-.4.9l-.7.6h-1.5l-.5-.2a1,1,0,0,1-.4-.5h-.1v3.5h-2Z"/><g class="cls-3"><path d="M191.1,153.1a8.5,8.5,0,0,1-2.5.4,4.2,4.2,0,0,1-2.9-1.1,4.5,4.5,0,0,1-1.1-3.1,4.4,4.4,0,0,1,1-3,3.3,3.3,0,0,1,2.5-1.1,2.5,2.5,0,0,1,2.2,1,4.3,4.3,0,0,1,.8,2.9v.5h-5c.2,1.9,1.1,2.8,2.8,2.8a5.2,5.2,0,0,0,2.2-.5Zm-4.9-4.6h3.5c0-1.5-.6-2.2-1.7-2.2S186.3,147,186.2,148.5Z"/></g><g class="cls-3"><path d="M215,153.4v-1.3a10.2,10.2,0,0,1,2.6-3.2l.8-.8a3.8,3.8,0,0,0,1.6-2.8,2,2,0,0,0-.5-1.5,2.5,2.5,0,0,0-1.5-.5,5.4,5.4,0,0,0-2.7.9v-1.3a7.7,7.7,0,0,1,2.9-.7,3.2,3.2,0,0,1,2.4.9,2.4,2.4,0,0,1,1,2.1,3.5,3.5,0,0,1-.5,1.8,8.9,8.9,0,0,1-1.7,1.8l-.6.5a5.3,5.3,0,0,0-2,2.8h4.7v1.3Z"/><path d="M224.4,155.7v-.5c.5-.1.7-.7.7-1.7h-.7v-1.8h1.8v1.5C226.2,154.7,225.6,155.6,224.4,155.7Z"/><path d="M228.5,153.4v-1.3a8.9,8.9,0,0,1,2.6-3.2l.8-.8a3.8,3.8,0,0,0,1.6-2.8,2.5,2.5,0,0,0-.5-1.5,2.5,2.5,0,0,0-1.6-.5,5.4,5.4,0,0,0-2.6.9v-1.3a7.3,7.3,0,0,1,2.9-.7,3.2,3.2,0,0,1,2.4.9,2.6,2.6,0,0,1,.9,2.1,3.4,3.4,0,0,1-.4,1.8,7.5,7.5,0,0,1-1.8,1.8l-.5.5a4.8,4.8,0,0,0-2,2.8H235v1.3Z"/><path d="M238.4,153.4v-1.3a5.3,5.3,0,0,0,2,.5,2.2,2.2,0,0,0,1.7-.7,2.4,2.4,0,0,0,.6-1.7c0-1.6-1.1-2.5-3.3-2.5h-.8v-5.3h5.5v1.3h-4.3v2.8a5.4,5.4,0,0,1,3.3,1,3.2,3.2,0,0,1,1.2,2.7,3,3,0,0,1-1.1,2.4,4.5,4.5,0,0,1-3,.9A6.2,6.2,0,0,1,238.4,153.4Z"/><path d="M247.3,153.4v-8h1.4v1.5a3.2,3.2,0,0,1,2.7-1.7,2.2,2.2,0,0,1,2.2,1.7,3.2,3.2,0,0,1,2.7-1.7,2.1,2.1,0,0,1,1.6.6,2.4,2.4,0,0,1,.6,1.8v5.8h-1.4v-5.6c0-.9-.4-1.4-1.1-1.4a3.4,3.4,0,0,0-2.4,1.6v5.4h-1.4v-5.6c0-.9-.4-1.4-1.1-1.4s-1.5.6-2.4,1.6v5.4Z"/></g><g class="cls-3"><path d="M175.6,162.2h1.8v8.3a4.3,4.3,0,0,0,.8,2.8,2.6,2.6,0,0,0,2.3.9,2.9,2.9,0,0,0,2.2-.8,5.2,5.2,0,0,0,.6-2.9v-8.3h1.6v8.3a5.9,5.9,0,0,1-1,3.9,5.8,5.8,0,0,1-7.2-.1,5.9,5.9,0,0,1-1.1-3.9Z"/><path d="M189.8,175.3l-3.6-9.6H188l2.8,7.4,2.9-7.4h1.6l-3.8,9.6Z"/></g><g class="cls-3"><path d="M220.5,175.7a3.3,3.3,0,0,1-2.7-1.6,7.7,7.7,0,0,1-1-4.2,7.1,7.1,0,0,1,1-4.1,3.3,3.3,0,0,1,2.8-1.6,3.3,3.3,0,0,1,2.7,1.6,7.1,7.1,0,0,1,1.1,4.1,7.2,7.2,0,0,1-1.1,4.2A3.3,3.3,0,0,1,220.5,175.7Zm0-1.1c1.6,0,2.3-1.6,2.3-4.7s-.7-4.6-2.2-4.6-2.3,1.6-2.3,4.6S219,174.6,220.5,174.6Z"/><path d="M230,175.3V174a7.4,7.4,0,0,0,2.5.6,2.3,2.3,0,0,0,1.6-.6,2,2,0,0,0,.7-1.6c0-1.5-1.1-2.3-3.2-2.3H231v-1h.5q3,0,3-2.1c0-1.1-.6-1.7-2-1.7a6,6,0,0,0-2.4.6v-1.2a7.9,7.9,0,0,1,2.5-.5c2.3,0,3.4.9,3.4,2.6a2.9,2.9,0,0,1-2.3,2.7c1.8.4,2.6,1.4,2.6,2.9a3,3,0,0,1-1,2.4,3.9,3.9,0,0,1-2.8.9Z"/></g><g class="cls-3"><path d="M244.5,172.9,240.4,162h1.5l3.4,8.9,3.2-8.9h1.4l-4,10.9Z"/></g><g class="cls-5"><path class="cls-6" d="M79.1,75.2a1.4,1.4,0,0,1-1.2,1.5,1.4,1.4,0,0,1-1.5-1.3,9.2,9.2,0,0,1,.1-2.3c.1-1,.2-2.2.3-3.5V65c.1-1.4.1-3,.2-4.7v-6c0-1,0-2.1.1-3.2s.1-1.7.1-2.4a17,17,0,0,0,.1-2.2c-.1-1.6-.2-3.6-.2-5.5s0-2.6.1-3.6,0-1.8.1-2.8V30.9c0-.8-.2-2.1-.2-3.3V26.4c0-.3-.1-.5-.1-.8l-.2-.4a5.7,5.7,0,0,1-.1-1.2,2,2,0,0,1,.1-.7,1.8,1.8,0,0,1,.8-1.1,1.4,1.4,0,0,1,1.3,0l.3.2a.1.1,0,0,1,.1.1h-.1A1.4,1.4,0,0,1,80.5,24,1.4,1.4,0,0,1,79,25.2a3.2,3.2,0,0,1-1.3-.5l-.2-.2h.2c-.1,0,.6.2.4.2s.5-.1.4,0l.4-.2.3-.2.2-.3s.1-.2.1-.1h0v.4a2,2,0,0,1,.1.5,5.1,5.1,0,0,1,.2,1.3v1.2c0,1.1.2,2.3.2,3.3v3.8c0,1.1-.1,2.1-.1,2.9s-.1,2-.1,3.5.2,3.8.2,5.4v2.4a19.4,19.4,0,0,0-.2,2.4c0,1.1-.1,2.2-.1,3.1v1.2a19.2,19.2,0,0,1,0,2.4v2.5c0,1.7-.1,3.3-.1,4.6a20.1,20.1,0,0,0-.1,2.5v2.2c-.1,1.4-.2,2.7-.3,3.6a15.8,15.8,0,0,0-.1,1.9"/><path class="cls-7" d="M78,24.2a1.4,1.4,0,0,1,0-2.8H288a1.4,1.4,0,0,1,0,2.8Z"/><path class="cls-6" d="M288.9,54.6a1.4,1.4,0,0,1-1.2,1.5,1.4,1.4,0,0,1-1.5-1.3h0v-.4a1.4,1.4,0,0,1,1.4-1.4,1.3,1.3,0,0,1,1.3,1.4v.4h0m-2.6-31.8a1.2,1.2,0,0,1,1.4-1.3,1.3,1.3,0,0,1,1.3,1.4h0v.4a5.9,5.9,0,0,1,.2,1.7,84.5,84.5,0,0,1,.3,9.3c0,2.9.1,5.5.1,7.4a27.8,27.8,0,0,1,0,2.9c0,1.2-.1,2.3-.1,3.3a30.5,30.5,0,0,1-.2,3.2c-.1.7-.1,1.6-.3,2.5a2.8,2.8,0,0,1-.1,1h0v.3a1.3,1.3,0,0,1-1.4,1.3,1.5,1.5,0,0,1-1.3-1.5h0v-.4c0-.3.1-.7.1-1.1s.2-1.7.3-2.6a24.6,24.6,0,0,0,.2-2.8c0-1.2,0-2.3.1-3.4V41.6c0-1.8-.1-4.5-.1-7.4a77,77,0,0,0-.3-9,14.1,14.1,0,0,1-.2-1.8V23h0m2.7,0a1.4,1.4,0,0,1-1.2,1.5,1.4,1.4,0,0,1-1.5-1.3h0v.2a1.4,1.4,0,0,1,1-1.7,1.5,1.5,0,0,1,1.7,1v.3"/><path class="cls-7" d="M286.7,86.2a1.3,1.3,0,0,1,1.3-1.4,1.4,1.4,0,0,1,1.4,1.4v47.5A1.3,1.3,0,0,1,288,135a1.3,1.3,0,0,1-1.3-1.3Z"/><path class="cls-7" d="M107.5,135a1.3,1.3,0,0,1-1.3-1.3,1.3,1.3,0,0,1,1.3-1.4H288a1.4,1.4,0,0,1,1.4,1.4A1.3,1.3,0,0,1,288,135Z"/><path class="cls-7" d="M106.2,95.5a1.3,1.3,0,0,1,1.3-1.3,1.3,1.3,0,0,1,1.4,1.3v38.2a1.3,1.3,0,0,1-1.4,1.3,1.3,1.3,0,0,1-1.3-1.3Z"/></g><g class="cls-5"><path d="M65.8,70.3a.5.5,0,0,1,.5-.4.4.4,0,0,1,.4.4V102a.4.4,0,0,1-.4.4.5.5,0,0,1-.5-.4Z"/><path d="M66.3,70.7a.4.4,0,1,1,0-.8h47.5a.4.4,0,1,1,0,.8Z"/><path d="M113.4,70.3a.4.4,0,0,1,.8,0V102a.4.4,0,0,1-.8,0Z"/><path d="M66.3,102.4a.4.4,0,1,1,0-.8h47.5a.4.4,0,1,1,0,.8Z"/><path d="M76.9,76.2c.1.2-.1.4-.3.4s-.4-.1-.5-.3H76a1.5,1.5,0,0,0-.8.5,3.7,3.7,0,0,0-1.1,1.8,2.4,2.4,0,0,0,.1,1.9c.1.3.3.4.6.5a2,2,0,0,0,1.1.2,5.2,5.2,0,0,0,3.2-1.8,2.1,2.1,0,0,0,.7-1.5,3.3,3.3,0,0,0,0-1,1.9,1.9,0,0,0-.6-.7L78,75.7H76.7c-.3.1-.6.4-.9,1.1a.4.4,0,0,1-.5.3.4.4,0,0,1-.2-.5A2.6,2.6,0,0,1,76.4,75a3.2,3.2,0,0,1,1.7-.1,4.4,4.4,0,0,1,1.5.5,2.9,2.9,0,0,1,1,1.2,4.7,4.7,0,0,1,0,1.2,3.2,3.2,0,0,1-.8,2c-1,1-2.4,2.1-3.8,2.1a2.4,2.4,0,0,1-1.5-.2,2,2,0,0,1-1.1-.9,4.2,4.2,0,0,1-.1-2.5A5.5,5.5,0,0,1,74.7,76a3.4,3.4,0,0,1,1.2-.6h.7a.9.9,0,0,1,.3.7"/><path d="M107.8,92.1a.4.4,0,0,1-.2.5c-.2.1-.5.1-.6-.1s-.2-.4-.5-.5a.9.9,0,0,0-.7-.1c-.2,0-.4.2-.6.7a4.2,4.2,0,0,0-.5,1.7,5.9,5.9,0,0,0-.2,1.7l.4.5.8.4h2a1.7,1.7,0,0,0,1.1-.6,2.7,2.7,0,0,0,.7-1.3,8.8,8.8,0,0,0,.2-1.6v-.7c-.1-.2-.3-.6-.6-.7a1.1,1.1,0,0,0-1-.1,1.6,1.6,0,0,0-1.3.8c-.1.2-.3.3-.5.1s-.3-.3-.1-.5a2.6,2.6,0,0,1,1.8-1.2,1.9,1.9,0,0,1,1.6.2,2.7,2.7,0,0,1,.9,1.2v.9a11,11,0,0,1-.2,1.8,5.6,5.6,0,0,1-.9,1.7,2.8,2.8,0,0,1-1.5.8,4.9,4.9,0,0,1-2.4-.1,2.2,2.2,0,0,1-1.1-.5,2.2,2.2,0,0,1-.7-.9,5.2,5.2,0,0,1,.2-2.1,13.3,13.3,0,0,1,.5-1.9,2.1,2.1,0,0,1,1.2-1.1,1.9,1.9,0,0,1,1.3.2,1.7,1.7,0,0,1,.9.8"/><path d="M72.7,89.5c-.3,0-.5-.1-.5-.4s.1-.4.3-.4a13.1,13.1,0,0,1,2.8-.1l1.3-.2a1,1,0,0,0,.6-.5.4.4,0,0,1,.5-.2c.2.2.3.4.2.6a2,2,0,0,1-1.1.9l-1.4.2H72.7"/><path d="M75.1,85.9a.4.4,0,0,1,.6,0,.5.5,0,0,1,0,.6,4.1,4.1,0,0,0-.6,2.4,6.2,6.2,0,0,0,.4,3.1.4.4,0,1,1-.8.4,8.7,8.7,0,0,1-.5-3.6,5.5,5.5,0,0,1,.9-2.9"/><path d="M109.9,85.7a.3.3,0,0,1,0,.5.3.3,0,0,1-.5.1c-.1,0,.1.1.1.1h-1.9l-2.9.3c-.2.1-.4,0-.5-.3s.1-.4.3-.5l3.1-.3h2.3m-4,0c.2.1.2.4.1.6s-.4.2-.6.1h.1s.2-.1.1-.1h.1c0,.1.1-.2.1-.2h2.1l1.1-.2h.3c.2-.2.5-.2.6,0a.4.4,0,0,1,0,.6h-.7l-1.2.2a4.1,4.1,0,0,1-2.5-.1.8.8,0,0,1-.5-.5c-.1-.1-.1-.3.1-.5h.4l.4.2"/><path d="M1.9,79.8a.5.5,0,0,1-.3.5.4.4,0,0,1-.5-.2,2.3,2.3,0,0,1,.2-1.6c.2-.5.4-1.1.7-1.7l.7-1.3a4.4,4.4,0,0,0,.3-.8h.6a14.4,14.4,0,0,0-1.4,2.2A21.9,21.9,0,0,0,1,80.4a4.2,4.2,0,0,0,0,2.3c0,.1.1.2.3.2A5.2,5.2,0,0,0,2.8,82a17.9,17.9,0,0,0,2-2.6,5.9,5.9,0,0,1,.9-1.1v-.2h.6l.2.3v.4L5.8,80a5.6,5.6,0,0,0-.6,2.3v.9l.3.5h.6a2.1,2.1,0,0,0,1.1-.4.4.4,0,0,1,.5.2c.1.2.1.4-.1.5a3,3,0,0,1-1.4.5,1.4,1.4,0,0,1-1.1-.2,1.6,1.6,0,0,1-.6-.8,1.9,1.9,0,0,1-.1-1.3A8.2,8.2,0,0,1,5,79.6l.7-1.1h.6l-.9,1.1a16.5,16.5,0,0,1-2.1,2.7,3.8,3.8,0,0,1-1.9,1.1,1.3,1.3,0,0,1-1.2-.6,5.6,5.6,0,0,1,0-2.9,16.6,16.6,0,0,1,1.3-3.5,10.2,10.2,0,0,1,.8-1.5,4.4,4.4,0,0,1,.8-1h.3c.2,0,.3.1.3.2v.5a2.6,2.6,0,0,1-.4,1l-.6,1.4L2,78.8c-.1.5-.2.9-.1,1"/><path d="M11.9,81.2c.2.1.4.3.3.5s-.3.4-.5.3l-.6.2-.7.6a2.1,2.1,0,0,0-.5.9.1.1,0,0,0,0,.2h0c0-.1.1-.1.2-.1l.9-.4.7-.5c.1,0,.2-.2.4-.1h.3l.2.2v.3c-.1.5-.4,1.2-.6,2.1a9.3,9.3,0,0,0-.5,2.4c-.2,1.2-.1,2.1-.3,2.8a1.3,1.3,0,0,1-.9,1,1.9,1.9,0,0,1-1.3,0,1.8,1.8,0,0,1-1-1.1,2.4,2.4,0,0,1,.2-1.8.5.5,0,0,1,.6-.2c.2.1.2.4.1.6a1.5,1.5,0,0,0-.1,1.1c.1.3.2.5.5.6H10c.2-.1.4-.2.4-.5s.1-1.5.3-2.7a13.2,13.2,0,0,1,.5-2.6c.2-.8.5-1.6.6-1.9h.3l-.7.5-1,.4-.5.2c-.1,0-.4,0-.5-.2a1.1,1.1,0,0,1-.4-.9,3.3,3.3,0,0,1,.7-1.3l1-.8a1.8,1.8,0,0,1,1.2-.3"/><path d="M17.1,81.3c-.1.2-.3.4-.5.3s-.4-.2-.3-.4h-.1A4.5,4.5,0,0,0,15,85.4v.2h.2c.2,0,.6-.3,1.1-.9s.4-.2.6,0,.2.4,0,.6a2.8,2.8,0,0,1-1.6,1.1.9.9,0,0,1-.7-.1,1,1,0,0,1-.5-.6,4.5,4.5,0,0,1,.4-3.5,4.2,4.2,0,0,1,1.1-1.5c.3-.2.6-.4.9-.3s.4.2.4.4a1.1,1.1,0,0,1,.1.5"/><path d="M17.3,81.3a.4.4,0,0,1,.4.4.5.5,0,0,1-.5.4l-.9.3v.2c0,.1,0,.1.2.3a.5.5,0,0,1,0,.6c-.1.2-.4.2-.6,0a1.2,1.2,0,0,1-.5-1,1.1,1.1,0,0,1,.6-.7,1.6,1.6,0,0,1,1.4-.5"/><path d="M19.8,80.8a.5.5,0,0,1,.6,0c.2.1.2.4,0,.6a5.3,5.3,0,0,0-.8,2.5,4.6,4.6,0,0,1-2,3.1.5.5,0,0,1-.6-.2.3.3,0,0,1,.1-.5,3.9,3.9,0,0,0,1.7-2.6,6.3,6.3,0,0,1,1-2.9"/><path d="M20.5,82c-.1.3-.3.4-.5.3s-.4-.2-.3-.5v-.3h-.1l-.8.2a1.7,1.7,0,0,0-.6.6.5.5,0,0,0-.1.6c0,.2.4.5.9.9a1.8,1.8,0,0,1,.9.6,1.6,1.6,0,0,1,.5,1.1,1,1,0,0,1-.5,1l-1,.4H17.7a1.2,1.2,0,0,1-.9-.4.4.4,0,0,1,.7-.5h1.2l.7-.3c.2-.1.2-.2.2-.3a.9.9,0,0,0-.3-.5,2.2,2.2,0,0,0-.7-.6c-.5-.3-1.1-.6-1.3-1.2a1.5,1.5,0,0,1,.1-1.3,4.3,4.3,0,0,1,1-.9,2.2,2.2,0,0,1,1.4-.3.7.7,0,0,1,.6.5c.2.2.1.5.1.8"/><path d="M24.5,80.7a.3.3,0,0,1-.5-.3c-.1-.2,0-.4.3-.5s1.8.3,2.5,0a.5.5,0,0,1,.6.3.5.5,0,0,1-.3.5,4,4,0,0,1-1.5.1,2.2,2.2,0,0,0-1.1-.1"/><path d="M24.5,81.5a.4.4,0,0,1,.4.8h0v-.2h2.2a.4.4,0,0,1,.4.4.7.7,0,0,1-.4.5H25.2a1.1,1.1,0,0,1-.8-.2.2.2,0,0,1-.2-.2.6.6,0,0,1-.1-.4c.1-.2.3-.3.4-.4"/><path d="M31.1,81.3c0,.2-.3.3-.5.2a.4.4,0,0,1-.2-.5A14.3,14.3,0,0,1,32,78.3a17.1,17.1,0,0,1,1.1-1.4,2,2,0,0,1,.6-.7c.1,0,.3-.1.5,0s.1.3.2.4,0,.1-.1.2a1.8,1.8,0,0,1-.1.6c-.1.5-.2,1.2-.4,1.9a15.2,15.2,0,0,0-.3,2.1,2,2,0,0,0,.1,1.2.5.5,0,0,1-.1.6.7.7,0,0,1-.6-.1,2.7,2.7,0,0,1-.2-1.8,16.6,16.6,0,0,1,.3-2.2c.2-.7.3-1.4.4-1.9a1.1,1.1,0,0,0,.1-.5h0c0-.1.1.1.1,0s0,.2,0,.1h.5l-.4.5-1,1.4a28.9,28.9,0,0,0-1.6,2.5"/><path d="M36.2,78a.3.3,0,0,1-.5.1.5.5,0,0,1-.2-.6,2.4,2.4,0,0,1,1.1-.6,2.8,2.8,0,0,1,1.3,0,1.3,1.3,0,0,1,.9.9,2.1,2.1,0,0,1,0,.8,5.3,5.3,0,0,1-1.2,2.2l-1,1.2c-.2.2-.3.3-.3.4h0v.2l.9.2a5,5,0,0,1,1.7.1.4.4,0,0,1,.2.5.3.3,0,0,1-.5.3H37.3a1.8,1.8,0,0,1-1.4-.4.9.9,0,0,1-.3-.5.6.6,0,0,1,0-.6,1.3,1.3,0,0,1,.4-.6l1-1.2a6.6,6.6,0,0,0,1-1.8V78c-.1-.2-.1-.2-.3-.3h-.9l-.6.3"/><path d="M42.9,83.4a.4.4,0,0,1-.8.4h.1c-.1,0,0,.1,0,.1s.3,0,.2,0h.1a1.6,1.6,0,0,0-.3.6,12.9,12.9,0,0,0-.5,2.1v1h0s-.1-.1,0-.1a.5.5,0,0,1,.1.6.4.4,0,0,1-.6.1l-.2-.3a.8.8,0,0,1-.1-.4v-1a15.5,15.5,0,0,1,.5-2.3,5.6,5.6,0,0,1,.5-.8l.4-.3h.4l.2.2"/><path d="M44.2,77.2c-.1-.2.1-.4.3-.5a.5.5,0,0,1,.5.4,4.1,4.1,0,0,1-.5,1.8,2.5,2.5,0,0,0-.2.7l-.2.4h0l.8-.3a.5.5,0,0,1,.6.2c0,.2,0,.5-.2.6l-1.1.3c-.1,0-.2.1-.4,0l-.3-.2a1,1,0,0,1-.2-.7,1.4,1.4,0,0,1,.2-.6,2.5,2.5,0,0,1,.2-.7,4.7,4.7,0,0,0,.5-1.4"/><path d="M46.1,78.8c0-.2.3-.3.5-.2s.3.3.3.5-.7,1.1-1,1.9a2.7,2.7,0,0,0,0,2.6.4.4,0,0,1-.2.5.5.5,0,0,1-.6-.2,3.6,3.6,0,0,1,0-3.2c.4-.9.9-1.6,1-1.9"/><path d="M54.4,75.8a.4.4,0,0,1-.4.4c-.2.1-.4-.1-.4-.3a4.5,4.5,0,0,1-.2-.8s.1.1,0,.1h.2c-.1,0,.3,0,.2.1h.3v1.1a25.5,25.5,0,0,0,.4,5.5,7.8,7.8,0,0,0,.6,1.6h0a13.6,13.6,0,0,0,.9-1.8c1.1-2.5,2.1-5.4,3.5-6.8h.6c.2.2.2.5,0,.6s-2.2,4-3.3,6.5c-.4.9-.6,1.8-1.3,2.2h-.6l-.4-.4a5.7,5.7,0,0,1-.8-1.9,27.8,27.8,0,0,1-.4-5.7V74.9h.2c.1-.1.4-.2.5-.1v.2l.3,1"/><path d="M1.2,74.7c.2,0,.3.3.2.5a.4.4,0,0,1-.5.2c-.3-.1-.6-.3-.6-.6A1.1,1.1,0,0,1,.4,74a3.2,3.2,0,0,1,1.1-1.2,2.1,2.1,0,0,1,1.3-.3.9.9,0,0,1,.6.4.9.9,0,0,1,.3.6,2.1,2.1,0,0,1-.3,1.3l-.7,1.1a15.3,15.3,0,0,0-1.1,2.9c-.2.8-.2,1.7-.4,2.5A5.2,5.2,0,0,0,1,82.4a3.2,3.2,0,0,0,0,1.4c0,.1-.1,0,0,0H.9a1.1,1.1,0,0,0,.7-.5h.6a.5.5,0,0,1,0,.6,1.9,1.9,0,0,1-1.2.7H.5a.5.5,0,0,1-.3-.4,3.7,3.7,0,0,1,0-1.8,3.6,3.6,0,0,1,.2-1.1c.2-.8.2-1.7.4-2.6A15.1,15.1,0,0,1,2,75.5a4.1,4.1,0,0,0,.7-1.1,1.2,1.2,0,0,0,.2-.7c0-.1-.1-.2-.1-.3a.1.1,0,0,1-.1-.1l-.8.2a3.4,3.4,0,0,0-.8.9v.2s-.1,0,.1.1"/><path d="M1.4,73.9a.5.5,0,0,1-.6-.2.4.4,0,0,1,.2-.5c.1,0,.1,0,.1-.1h.6a1.3,1.3,0,0,1,1.1.6,1.2,1.2,0,0,1,.1,1c-.2,1.6-.8,2.9-1.1,4.5a7.7,7.7,0,0,0-.4,2.5,1.6,1.6,0,0,0,.3,1.1l.2.2a.5.5,0,0,0,.6-.1c.8-.3,1.2-2.1,2-3.5a17.4,17.4,0,0,0,1-1.9,4.3,4.3,0,0,1,.4-.7c0-.1.1-.2.3-.4h.3l.3.2v.4A3,3,0,0,1,6.4,78a20,20,0,0,1-1,2.6A6.3,6.3,0,0,0,5,82h.3a.4.4,0,0,1,.5.2c0,.3-.1.5-.3.5a1.2,1.2,0,0,1-1,.1l-.3-.4a.6.6,0,0,1-.1-.4,6.4,6.4,0,0,1,.6-1.6c.3-.9.7-1.7,1-2.6a9.3,9.3,0,0,0,.3-1H6c0-.1.2.1.1.1h.5c-.1,0,0-.1,0-.1h0l-.4.7a17.4,17.4,0,0,1-1,1.9,13.3,13.3,0,0,0-.9,2.1,4.4,4.4,0,0,1-1.5,1.8,1.2,1.2,0,0,1-1.3,0,1,1,0,0,1-.5-.4,2.6,2.6,0,0,1-.4-1.5A8.6,8.6,0,0,1,1,78.9c.3-1.6.9-3,1.1-4.4v-.4c0-.1.1,0,0-.1s-.2-.2-.4-.1H1.4m-.2-.8a.4.4,0,0,1,.4.4c.1.2-.1.4-.3.4H1.2a.4.4,0,0,1-.4-.4.5.5,0,0,1,.4-.5h0"/><path d="M302.1,70.8a14.5,14.5,0,0,0-2-7.5,14.9,14.9,0,0,0-12.9-7.5,14.6,14.6,0,0,0-7.5,2.1,14.9,14.9,0,1,0,22.4,12.9m.9,0a15.7,15.7,0,0,1-7.9,13.6,15.1,15.1,0,0,1-7.9,2.2,15.7,15.7,0,0,1-13.6-7.9,15.1,15.1,0,0,1-2.2-7.9,15.8,15.8,0,0,1,31.6,0"/><path d="M286.7,62.2a.4.4,0,1,1,.4-.8c0,.1,0,.1.1.1a.3.3,0,0,1,.1.2,4.1,4.1,0,0,1,0,1.1c0,.9-.2,2-.2,2.9A6.6,6.6,0,0,0,287,67c0,.1,0,.3.1.3s-.1.1,0,.1h0c0-.1,0-.1.1-.2l.6-.5a16.3,16.3,0,0,0,1.1-1.7l.7-.8.3-.2h.3l.3.2a.8.8,0,0,1,0,.8c0,.3-.1.6-.1.8s-.7,2.7,0,3.8a.4.4,0,0,1-.2.5c-.2.1-.4.1-.5-.1s-.5-2.8-.1-4.3.1-.6.1-.8a.4.4,0,0,1,.1-.3h-.1s.1.1.1,0h0s.2.1.1.1h.2a2.5,2.5,0,0,0-.5.7l-1.2,1.7a4.6,4.6,0,0,1-.7.7,1,1,0,0,1-.8.3,1,1,0,0,1-.6-.5,1.5,1.5,0,0,1-.1-.7,5.6,5.6,0,0,1,0-1.3c.1-1,.3-2.1.3-3V62h.2M281.6,71a.3.3,0,0,1-.5,0,.3.3,0,0,1-.1-.5h0l.4-.8,1.9-3.2,1.6-2.8a14.7,14.7,0,0,1,1-1.3l.5-.7c.1,0,.1,0,.1-.1s0-.1.2-.2h.1a.5.5,0,0,1,.5.3c0,.2-.1.5-.3.5h.1c-.1,0,.1-.1.1-.1h0l-.2.2-.5.6-.9,1.3c-.6.9-1,1.8-1.5,2.7l-2,3.2a5.6,5.6,0,0,1-.4.8h-.1m-.4-1a.4.4,0,0,1,.7.3c-.1.3-.1.4-.2.5h0c0,.2-.2.4-.4.3a.4.4,0,0,1-.4-.4h.1l.2-.5"/><path d="M281.1,75.1a.4.4,0,0,1-.4-.4.4.4,0,0,1,.4-.4h11.2c.3,0,.4.1.4.4a.4.4,0,0,1-.4.4Z"/><path d="M78.4,74.8a.4.4,0,1,1-.8,0v-52a.4.4,0,1,1,.8,0Z"/><path d="M78,23.2a.4.4,0,0,1,0-.8H288a.4.4,0,0,1,0,.8Z"/><path d="M287.6,22.8a.4.4,0,0,1,.8,0V54.5a.4.4,0,1,1-.8,0Z"/><path d="M287.6,86.2a.4.4,0,0,1,.8,0v47.5a.4.4,0,0,1-.8,0Z"/><path d="M107.5,134.1a.4.4,0,1,1,0-.8H288a.4.4,0,0,1,0,.8Z"/><path d="M107.1,95.5a.4.4,0,0,1,.8,0v38.2a.4.4,0,0,1-.8,0Z"/><path d="M168.8,32.2c.1.2,0,.4-.3.5a.5.5,0,0,1-.5-.3,1.9,1.9,0,0,1,.6-1.6,1.6,1.6,0,0,1,.7-.7c.2-.2.2-.3.5-.4h.4c.2,0,.2.1.3.2a.5.5,0,0,1,0,.5c0,.5-.4.9-.7,1.3a16.1,16.1,0,0,0-.9,2.6,1.6,1.6,0,0,0,0,1h.3c.9-.3,2.2-2,3.2-3l.7-.8h.6a.8.8,0,0,1,.2.4,1.3,1.3,0,0,1-.1.6c-.1.4-.4.8-.5,1.2l-.5,1.2c0,.4,0,.6.1.7s.1.2.3.3a3.7,3.7,0,0,0,1.3-.2.4.4,0,0,1,.5.2.5.5,0,0,1-.3.6,4.7,4.7,0,0,1-1.6.2,1.4,1.4,0,0,1-1-.7,4.9,4.9,0,0,1-.1-1.2,8.8,8.8,0,0,1,.5-1.5l.5-1a.8.8,0,0,0,.1-.3h0s.1.1.1,0,.1.1,0,.1h.3c-.1,0,.1-.1.1-.1l-.6.6c-1,1.1-2.2,2.8-3.5,3.3h-.7c-.2-.1-.5-.2-.6-.4a2,2,0,0,1-.1-1.5,12.5,12.5,0,0,1,1-2.9,4.1,4.1,0,0,0,.6-1.1h0s.1.1,0,.1h.5c-.1,0-.1,0-.1.1l-.3.2-.6.6a1.4,1.4,0,0,0-.4.9"/><path d="M176.9,35.9c-.1-.2.1-.4.4-.4a.4.4,0,0,1,.4.4,21.1,21.1,0,0,1-.3,2.1,4.9,4.9,0,0,0-.1,1.2v.7a.7.7,0,0,0,.1.5h0s-.1-.1-.1,0h-.1l.3-.6c.4-.6.8-1.4,1.2-2.1a2.4,2.4,0,0,1,.6-.8l.5-.2c.2,0,.4,0,.5.2s.2.4.1.6a.6.6,0,0,1-.6,0h0l-.4.6c-.4.6-.7,1.5-1.2,2.2l-.3.5c-.2.2-.3.4-.6.5h-.5a.8.8,0,0,1-.2-.4,1.5,1.5,0,0,1-.1-.7v-.8a4.9,4.9,0,0,1,.1-1.2c.1-.8.3-1.6.3-2"/><path d="M190.3,33.2a.5.5,0,0,1-.4-.5c0-.2.2-.4.4-.3h3.2a.4.4,0,0,1,0,.8h-3.2"/><path d="M190.8,34.3a.6.6,0,0,1,0,.6c-.2.2-.5.2-.6,0a.4.4,0,0,1-.1-.3.2.2,0,0,1,.1-.3l.3-.2h1.9a.4.4,0,0,1,0,.8h-1.6v-.2c0,.1-.1-.2-.1-.2s0-.1,0-.1"/><path d="M180.7,41.9c-.2.1-.5.1-.6-.1a.5.5,0,0,1,.2-.6,5.2,5.2,0,0,1,2.5-.2c.2-.1.4.1.4.3a.3.3,0,0,1-.3.5h-2.2"/><path d="M182,39.4a.4.4,0,0,1,.5-.2c.2.2.3.4.1.6a5.8,5.8,0,0,0-.3,3.3c0,.2-.1.4-.3.4a.4.4,0,0,1-.5-.3c-.2-1.2-.2-2.9.5-3.8"/><path d="M207.2,30.2c.2.1.3.3.1.5a.3.3,0,0,1-.5.1h-.1l-.4.3a3.7,3.7,0,0,0-.8,1.4,5.9,5.9,0,0,0-.2,1.3,1,1,0,0,1-.1.4h.5l.5-.2.7-.7,1.1-2c.1-.4.2-.7.1-.8h0a1.1,1.1,0,0,0-.7.2c-.3.1-.5.4-.7.6a2.9,2.9,0,0,0-.2.9.4.4,0,0,1-.4.4c-.2,0-.4-.1-.4-.3A2,2,0,0,1,206,31a2.8,2.8,0,0,1,1-.9,1.7,1.7,0,0,1,1.1-.3h.6l.3.6a3,3,0,0,1-.3,1.2,8,8,0,0,1-1.2,2.2,3,3,0,0,1-.8.8,1.3,1.3,0,0,1-1,.4H205a1.2,1.2,0,0,1-.5-.5,1.2,1.2,0,0,1-.1-.8,11.3,11.3,0,0,1,.4-1.5,5.6,5.6,0,0,1,.9-1.7,1.8,1.8,0,0,1,.7-.5.8.8,0,0,1,.8.2"/><path d="M209.3,35.1c.2-.1.4-.1.5.1a.4.4,0,0,1-.1.6,4.6,4.6,0,0,0-.6,1.7,8.8,8.8,0,0,0-.2,2.7.7.7,0,0,1-.4.5.4.4,0,0,1-.4-.4,9.7,9.7,0,0,1,.2-2.9,3.5,3.5,0,0,1,1-2.3"/><path d="M215.2,31.1a.5.5,0,0,1-.5.3.5.5,0,0,1-.3-.6,1.8,1.8,0,0,1,.7-.8,1.8,1.8,0,0,1,1-.2l.7.4c.2.1.3.4.4.6a2.2,2.2,0,0,1-.5,1.6,2.3,2.3,0,0,1-.5.5q-.3.1-.3.3h-.1c0,.1-.1-.2-.1-.1s0-.1,0-.1h.1l.5.2a2.6,2.6,0,0,1,.8,1.3.8.8,0,0,1-.4.9l-.8.5-1.7.6a.5.5,0,0,1-.5-.3c-.1-.2.1-.4.3-.5l1.6-.5a1.5,1.5,0,0,0,.6-.4h.1a1.6,1.6,0,0,0-.5-.8l-.4-.2-.2-.2a.5.5,0,0,1-.2-.4,1.1,1.1,0,0,1,.2-.6l.5-.5q.3-.2.3-.3a1.4,1.4,0,0,0,.4-.9l-.2-.3h-.7c-.2.1-.3.2-.3.4"/><path d="M222.1,30.5a.5.5,0,0,1-.2.6c-.2.1-.4.1-.5-.1s.1.1.1.1h.5c0,.1.1-.1.1-.1h0c0,.1,0,.1-.1.2a2,2,0,0,1-.1.7c-.1.6-.1,1.3-.2,2a7.2,7.2,0,0,0,0,1.5.1.1,0,0,0,.1.1h.2l.5-.4c.4-.4.8-1,1.2-1.5l1.3-1.7a2.1,2.1,0,0,1,1-.9c.3-.1.5,0,.5.2a.4.4,0,0,1-.2.6,21.8,21.8,0,0,0-1.9,2.2l-1.3,1.7-.6.5a.9.9,0,0,1-.7.3.9.9,0,0,1-.6-.3l-.3-.5a9.6,9.6,0,0,1,0-1.7,13.6,13.6,0,0,1,.2-2.1,2.5,2.5,0,0,0,.1-.8c.1-.1.1-.1.1-.2h0a.3.3,0,0,1,.1-.2h.7"/><path d="M185.4,148a.5.5,0,0,1-.6-.2c-.1-.2,0-.4.2-.6a41.3,41.3,0,0,0,3.3-3.9l1.2-1.8.2-.7h.1c-.1,0,.1.1.1.1h0a6.4,6.4,0,0,0-1.6,1,7,7,0,0,0-1.9,4.3,1.6,1.6,0,0,0,.1,1.2c0,.1.2.3.5.4h1a7.2,7.2,0,0,0,2.8-.7.4.4,0,0,1,.5.2.5.5,0,0,1-.2.6,8.7,8.7,0,0,1-3.1.7,3,3,0,0,1-1.3-.2,1.6,1.6,0,0,1-1-.8,4.1,4.1,0,0,1-.2-1.6,7.3,7.3,0,0,1,2.3-4.8,4,4,0,0,1,1.9-1.2h.4a.3.3,0,0,1,.3.3.5.5,0,0,1,.1.6,2.2,2.2,0,0,1-.3,1l-1.3,1.9-2,2.6-.9,1-.6.6"/><path d="M193.5,152.1a.4.4,0,0,1-.4-.4c-.1-.2.1-.4.3-.4H195l2.5-.2a.3.3,0,0,1,.5.3c0,.3-.1.5-.4.5l-2.5.2h-1.6"/><path d="M210.5,142.7a.4.4,0,0,1,.3-.7l2.2.5c.2,0,.3.3.2.5a.4.4,0,0,1-.5.2c-.7-.2-1.6-.1-2.2-.5"/><path d="M210.5,143.5a.4.4,0,0,1,.4.4c0,.2-.1.4-.3.4h0c0,.1.1-.2.1-.2v-.2h-.1c0,.1-.1-.1-.1-.1h.5a6.4,6.4,0,0,0,2-.1.4.4,0,0,1,.5.2c0,.2-.1.5-.3.5a7.8,7.8,0,0,1-2.2.3h-1c0-.1-.1-.2-.1-.4s.1-.2.2-.3h.4"/><path d="M219.5,140.4a.4.4,0,0,1-.5.2.5.5,0,0,1-.2-.6,1.2,1.2,0,0,1,.6-.6h.9a2.9,2.9,0,0,1,1.4.8,1.7,1.7,0,0,1,.2,1.7,5.7,5.7,0,0,1-1.8,2l-.8.9-.2.2h0c-.1,0,0-.1,0-.1h0l.3.2a6.7,6.7,0,0,0,2.4-.1.5.5,0,0,1,.5.4.7.7,0,0,1-.4.5,8.2,8.2,0,0,1-2.7,0l-.7-.4a.6.6,0,0,1-.2-.7.6.6,0,0,1,.4-.6l.9-.9a5.5,5.5,0,0,0,1.5-1.7.8.8,0,0,0-.1-.9,1.9,1.9,0,0,0-.9-.5h-.3c-.1.1-.2.1-.3.3"/><path d="M226.8,145.8a.5.5,0,0,1,.6.1.3.3,0,0,1-.1.5,3.8,3.8,0,0,0-1.1,2.8.4.4,0,0,1-.4.4.4.4,0,0,1-.4-.4c.1-1.3.3-2.6,1.4-3.4"/><path d="M230.9,141.4a.4.4,0,0,1-.4.4.5.5,0,0,1-.4-.5.8.8,0,0,1,.2-.5l.5-.3h1a1.7,1.7,0,0,1,1,.1l.5.5c0,.2.1.4.1.6a3.4,3.4,0,0,1-.9,1.5,13.6,13.6,0,0,0-1.2,1.2.9.9,0,0,0-.3.6c-.1,0,0,.1,0,.2h.1q.2.2.6,0h1.1c.2-.1.4.1.4.3s-.1.4-.3.5h-1.1a1.1,1.1,0,0,1-1.1-.1l-.5-.5a1.1,1.1,0,0,1,0-.8,2.2,2.2,0,0,1,.5-.8c.7-.9,1.8-1.9,1.8-2.3v-.2c0-.1,0-.1-.1-.1h-1.5"/><path d="M237.6,141.1a.3.3,0,0,1-.5.1.4.4,0,0,1-.1-.6l.2-.3h0v.2c-.1-.1.2.1.1.1h.4a2.3,2.3,0,0,0-.7.7l-.2.5c.1.1.1.3.2.4l.8.2a.8.8,0,0,1,.5.5,1.2,1.2,0,0,1,.2,1.3,2.6,2.6,0,0,1-1.3,1,2,2,0,0,1-1.7-.3.5.5,0,0,1-.1-.6.4.4,0,0,1,.6,0,1.6,1.6,0,0,0,1,.1,1.3,1.3,0,0,0,.7-.5.5.5,0,0,0-.1-.6h-.1c-.2-.1-.7-.1-1-.4a2,2,0,0,1-.5-.9,1.5,1.5,0,0,1,.4-1.1l.7-.8.2-.2h.3c.1,0,.3.3.3.4v.2l-.4.5"/><path d="M238.1,141.1a.4.4,0,0,1-.8,0,1.4,1.4,0,0,1,.3-1.2,1.7,1.7,0,0,1,1-.6,5,5,0,0,1,3.3.4.4.4,0,1,1-.3.7,4.9,4.9,0,0,0-2.8-.3l-.6.3a1.5,1.5,0,0,0-.1.7"/><path d="M245.9,141.9a.4.4,0,0,1,.5.3.4.4,0,0,1-.2.5l-.3.2a1.4,1.4,0,0,0-.2.7,1.9,1.9,0,0,0-.2.8v.5h-.2l.4-.4,1.6-1.6.5-.5.5-.2a.7.7,0,0,1,.6.2l.2.3v.7a1.9,1.9,0,0,1-.2.8.4.4,0,0,1-.1.3h.4l1-.5a2.1,2.1,0,0,1,1.1-.4.9.9,0,0,1,.8.2.8.8,0,0,1,.2.6,1.1,1.1,0,0,0-.1.5.4.4,0,0,0,.1.3h.2a5,5,0,0,0,2.1-1,.4.4,0,0,1,.6.1.3.3,0,0,1-.1.5,5.1,5.1,0,0,1-2.7,1.2,1.2,1.2,0,0,1-.8-.4,3.1,3.1,0,0,1-.2-.8v-.5h0l-.9.3-.9.5-.4.2h-.6a.9.9,0,0,1-.6-.7c0-.3.1-.4.1-.6a1.9,1.9,0,0,0,.2-.7c0-.1.1-.3.1-.4h0s.1.1,0,.1h0l-.5.4a11.7,11.7,0,0,0-1.5,1.6l-.5.4-.2.2h-.5l-.4-.4v-.4a.6.6,0,0,1,0-.6,2.9,2.9,0,0,1,.2-.9l.3-.8a1.3,1.3,0,0,1,.7-.6"/><path d="M178.1,161.6a.4.4,0,0,1-.5-.2c0-.2.1-.5.3-.5h0l.9-1.2.6-.8.4-.5h.3l.4.2c.2.1.2.3.1.5a4.4,4.4,0,0,1-.5,1.5,14.8,14.8,0,0,0-.8,3.6,1.1,1.1,0,0,0,0,.6.3.3,0,0,0,.1.2h.4a13.4,13.4,0,0,0,2.3-2.4l1.1-1.1h.4c.1-.1.3,0,.4.1a.6.6,0,0,1,.2.5v.3a3.1,3.1,0,0,0-.2.8,7.8,7.8,0,0,0-.4,3.1l.2.2h.5a5.8,5.8,0,0,0,2-1.1c.1-.2.4-.1.6,0s.1.5-.1.6a5,5,0,0,1-2.3,1.3,1.1,1.1,0,0,1-1-.1,1.1,1.1,0,0,1-.7-.6c-.4-1,.1-2.4.4-3.5a1.9,1.9,0,0,1,.2-.8v-.3h.5l-.2.2-1,1a14.8,14.8,0,0,1-2.5,2.5,1.3,1.3,0,0,1-1.2.1,1.5,1.5,0,0,1-.5-.6,2.8,2.8,0,0,1-.1-.9,17.2,17.2,0,0,1,1-3.9,5.4,5.4,0,0,0,.4-1.2h0s.1.1,0,.1h.5l-.2.3-.6.8a5,5,0,0,1-.7.8c-.2.3-.3.5-.7.6"/><path d="M189.7,166.1a.4.4,0,1,1-.8,0h.1c0-.1.1.1,0,0h.5c0,.1.2-.1.1-.1s.1,0,.1,0h0a1.8,1.8,0,0,1-.1.5,17.6,17.6,0,0,0,0,2.3,2.4,2.4,0,0,0,.1.7h0a.5.5,0,0,0,.2-.4,6.7,6.7,0,0,0,.6-1.2c.4-.9.7-1.8,1-2.5a2.4,2.4,0,0,1,.6-.8l.4-.2a.6.6,0,0,1,.5.2c.2.2.2.5,0,.6s-.4.1-.6,0h.2c-.1,0-.2.2-.3.5l-1.1,2.6-.5,1.2-.3.5a1,1,0,0,1-.5.4h-.5a.8.8,0,0,1-.4-.4,1.8,1.8,0,0,1-.2-1,20.8,20.8,0,0,1,0-2.5,1.3,1.3,0,0,1,.1-.6h0a.1.1,0,0,0,.1-.1h.4q.3.2.3.3h0"/><path d="M193.3,172.1a.4.4,0,0,1-.4-.4c0-.3.1-.4.4-.5s2.1.6,3.5-.2a.4.4,0,0,1,.5.2.5.5,0,0,1-.2.6,3.9,3.9,0,0,1-2.3.4h-1.5"/><path d="M210,163.5a.4.4,0,0,1-.3.5.4.4,0,0,1-.5-.2c0-.1-.1-.2,0-.4a.5.5,0,0,1,.4-.3h.5l.9.4,1,.2a.6.6,0,0,0,.6-.1.3.3,0,0,1,.5-.1.4.4,0,0,1,.1.6,1.5,1.5,0,0,1-1.2.5l-1.3-.4-.9-.3h.2"/><path d="M209.9,165.9a.5.5,0,0,1,.1-.6.5.5,0,0,1,.5,0c.1.1-.1-.1-.1,0s0-.1,0-.1h.4l2.1.4c.2,0,.3.3.3.5a.5.5,0,0,1-.5.3l-2-.4h-.8m.6-.7a.5.5,0,0,1,.4.5.3.3,0,0,1-.5.3h.1a.5.5,0,0,1-.6-.2c-.1-.2-.1-.4.1-.5h.5"/><path d="M222.3,163.6a.5.5,0,0,1,.3.5.5.5,0,0,1-.5.4.6.6,0,0,0-.7.2,2.6,2.6,0,0,0-.5.9,2.5,2.5,0,0,0-.1.8,1.6,1.6,0,0,1,.1.4h.6l.6-.2a4.7,4.7,0,0,0,1.2-1.8,6.5,6.5,0,0,0,.4-1.3v-.5h-.1a.8.8,0,0,0-.7-.1l-.3.2v.2a.4.4,0,0,1-.8,0,1.1,1.1,0,0,1,.3-.8l.6-.3a1.7,1.7,0,0,1,1.4,0,1.3,1.3,0,0,1,.5.6v.8a7.1,7.1,0,0,1-.5,1.6,4.6,4.6,0,0,1-1.4,2,1.5,1.5,0,0,1-1.1.4c-.2.1-.4,0-.7,0l-.6-.4a1.3,1.3,0,0,1-.2-.8,4.5,4.5,0,0,1,.1-1.1,5.4,5.4,0,0,1,.7-1.3,2.5,2.5,0,0,1,1.5-.5"/><path d="M226.3,166.9c.2-.2.4-.1.6,0s.1.5-.1.6a2.5,2.5,0,0,0-.8,1.6,4.1,4.1,0,0,0-.1,1h.2a.5.5,0,0,1,.5.3c0,.3-.1.5-.4.5h-.7a.7.7,0,0,1-.4-.6,2.9,2.9,0,0,1,.1-1.3,3.1,3.1,0,0,1,1.1-2"/><path d="M231.7,163.2c.1.2-.1.4-.3.5a.5.5,0,0,1-.5-.3,1.5,1.5,0,0,1,.1-.7.7.7,0,0,1,.4-.5,3.8,3.8,0,0,1,1-.3h.8c.3,0,.5.2.8.4a1.2,1.2,0,0,1,.4.8.7.7,0,0,1-.2.8l-.4.5-.2.4c-.1.1.1.6.3,1.1s.2.4.2.7a1.4,1.4,0,0,1-.5,1,2.5,2.5,0,0,1-1.7.4H231s.1-.1,0-.1-.3.2-.5.1a.4.4,0,0,1-.1-.6.9.9,0,0,1,.7-.3h.8a1.9,1.9,0,0,0,1.2-.3c.1-.1.2-.2.2-.3a1.1,1.1,0,0,1-.2-.4c-.1-.5-.5-1-.3-1.7a1.5,1.5,0,0,1,.4-.6l.3-.4v-.2a.5.5,0,0,0-.2-.4l-.4-.2c-.1-.1-.3,0-.6,0h-.7v.2"/><path d="M241.8,160.8a.4.4,0,0,1,.3-.6.5.5,0,0,1,.5.3c.4,1,.2,2.8.2,4.5a11.5,11.5,0,0,0,.1,2v.3h0s-.1-.1,0-.1-.2-.1-.1,0h-.2s-.1.1-.1,0h0c.1,0,.2-.2.3-.4a6.5,6.5,0,0,0,1-1.5l1.5-2.6a14,14,0,0,1,1.6-2.2,2.8,2.8,0,0,1,1.5-.8.5.5,0,0,1,.5.4.4.4,0,0,1-.4.4c-.3,0-.6.2-1,.6a8.6,8.6,0,0,0-1.5,2l-1.5,2.6a11.2,11.2,0,0,1-1,1.6l-.5.5-.2.2a.3.3,0,0,1-.5-.1c-.3-.3-.2-.6-.3-.8V165a16.5,16.5,0,0,0-.2-4.2"/><path d="M170.2,14.5a.4.4,0,0,1-.4-.4.4.4,0,0,1,.4-.4,3.8,3.8,0,0,0,1.6-1,16.3,16.3,0,0,0,2.2-2.3,23.3,23.3,0,0,0,1.9-2.8,1.7,1.7,0,0,0,.2-.5h.1c-.3-.1-1.2.5-2,1.2a8.4,8.4,0,0,0-2.3,4.2,2.5,2.5,0,0,0,.1,1.3,1.2,1.2,0,0,0,.5.7,4.2,4.2,0,0,0,2.6.1c.2-.1.4.1.5.3a.5.5,0,0,1-.3.5,4.6,4.6,0,0,1-3.3-.2,2.1,2.1,0,0,1-.8-1.1,3.2,3.2,0,0,1-.1-1.7,8.5,8.5,0,0,1,2.6-4.7,4.2,4.2,0,0,1,2.5-1.5l.5.2.3.4c.1.4-.2.7-.3,1a22.3,22.3,0,0,1-2,3,28.9,28.9,0,0,1-2.4,2.5,3.6,3.6,0,0,1-2.1,1.1"/><path d="M179.9,15.9a.5.5,0,0,1-.5-.4c0-.2.1-.4.3-.4s2.4,0,3-.3a.4.4,0,1,1,.3.7c-1,.5-2.3.2-3.1.4"/><path d="M182,13c.2-.2.4-.1.6,0s.1.5-.1.6a2.4,2.4,0,0,0-.7,1.5,4.3,4.3,0,0,0,0,1.6.4.4,0,0,1-.2.5.3.3,0,0,1-.5-.3,4.3,4.3,0,0,1-.2-2A3.7,3.7,0,0,1,182,13"/><path d="M192.9,11.8a.4.4,0,0,1-.2-.5c.1-.3.3-.4.5-.3a2.3,2.3,0,0,0,1.1-.1h.8a1.2,1.2,0,0,1,.8.2c.2.2.2.5,0,.6a.3.3,0,0,1-.5.1h-.9a2.9,2.9,0,0,1-1.6.1"/><path d="M192.9,13.9c-.2.1-.4-.1-.5-.3a.5.5,0,0,1,.3-.5h1.5a.3.3,0,0,1,.5.3.4.4,0,0,1-.2.5,11,11,0,0,1-1.6.1"/><path d="M206.1,7.6c-.1-.2.1-.4.3-.4a.5.5,0,0,1,.5.3c0,.1,0,.2.2.3l.5.4c.2.1.5.1.7.3s.2.3.3.4,0,.3-.1.4a.9.9,0,0,1-.3.7l-1.1,1.3a2.8,2.8,0,0,0-.7.9.4.4,0,0,0-.2.3c-.1.1,0,.3.1.4h.7a3.6,3.6,0,0,1,1.4.2.4.4,0,0,1,.2.6c-.1.2-.3.2-.5.1a2,2,0,0,0-1.1,0h-.6a.9.9,0,0,1-.6-.3.9.9,0,0,1-.4-1.1.9.9,0,0,1,.3-.7l.8-1a5.3,5.3,0,0,0,1-1.2l.3-.4h0c0-.1.1.1,0,.1l-.6-.3-.7-.5a.9.9,0,0,1-.4-.8"/><path d="M210.8,12.6h.5c.2.2.2.5,0,.6a4.2,4.2,0,0,0-.7,1.1c0,.2-.1.4,0,.6s.1.2.4.2a.4.4,0,0,1,.2.6c0,.2-.2.3-.5.2a1.2,1.2,0,0,1-.9-.8,1.2,1.2,0,0,1,.1-1,3.5,3.5,0,0,1,.9-1.5"/><path d="M216.9,9.3c-.1.2-.3.4-.5.3a.5.5,0,0,1-.3-.5l.3-.5.5-.2a1.6,1.6,0,0,1,1,.2,1.5,1.5,0,0,1,.5.7,2.2,2.2,0,0,1-.1.8,7,7,0,0,1-.9,1.7l-1.1,1.4-.2.4h1.8a.4.4,0,1,1,0,.8h-1.6l-.7-.2a.8.8,0,0,1-.3-.8,1.6,1.6,0,0,1,.4-.7,13.4,13.4,0,0,1,1.1-1.4,6.1,6.1,0,0,0,.7-1.4,1.1,1.1,0,0,0,.1-.5h-.7"/><path d="M224.5,9.9a.5.5,0,0,1-.2.6.4.4,0,0,1-.6-.2h0a2.3,2.3,0,0,0-.7.7l-.3.5h1.1a1.1,1.1,0,0,1,.7.6.6.6,0,0,1,.1.4c-.1.1-.1.3-.2.4a1,1,0,0,1-.4.5,3.4,3.4,0,0,1-2.3,1.3.7.7,0,0,1-.5-.4.4.4,0,0,1,.4-.4,3.3,3.3,0,0,0,1.8-1l.3-.4v-.2h-1.1l-.5-.2c-.2-.1-.3-.5-.3-.7s.3-.5.4-.8a2.8,2.8,0,0,1,1-.9l.5-.2h.4l.3.3"/><path d="M223.9,10.7c-.1.3-.3.4-.5.3a.5.5,0,0,1-.2-.6A2.1,2.1,0,0,1,224.7,9a11.2,11.2,0,0,1,3.2,0,.7.7,0,0,1,.4.5.7.7,0,0,1-.5.4,9.9,9.9,0,0,0-2.9-.1,1.5,1.5,0,0,0-1,.9"/><path d="M231.2,12.4a.5.5,0,0,1,.4-.5.5.5,0,0,1,.5.4,12.4,12.4,0,0,1-.2,1.8c0,.3-.1.6-.1.9s-.1.3-.1.5h-.5l.3-.4.7-.8.5-.6.4-.4a1.1,1.1,0,0,1,1.1.1c.2.1.2.3.3.5v.5c0,.3-.1.7,0,.8h-.1s-.2-.1-.1-.1h0l.4-.3a2.5,2.5,0,0,1,.8-.5h.6a.8.8,0,0,1,.6.4,1.5,1.5,0,0,1,.1,1.1l.2.2h.5a4,4,0,0,0,2.1-.9c.2-.1.5-.1.6.1a.5.5,0,0,1-.1.6,5,5,0,0,1-2.5,1,1.4,1.4,0,0,1-1.1-.2.9.9,0,0,1-.5-.8v-.6h0a.1.1,0,0,0-.1-.1h-.1c-.2,0-.4.2-.6.3l-.4.3a.6.6,0,0,1-.6.3.5.5,0,0,1-.5-.3c0-.2-.1-.3-.1-.4s.1-.6.1-.9v-.3a.1.1,0,0,0-.1-.1s.1.1.1,0h-.2c0,.1,0,.1-.2.3l-.5.5-.7.8-.3.4c0,.1-.1.1-.1.2h-.1c-.1,0-.2.1-.4,0s-.2-.2-.3-.2v-.4a4.3,4.3,0,0,1,.1-.5c0-.3.1-.6.1-.9a4.6,4.6,0,0,0,.1-1.6"/><path class="cls-8" d="M106.1,26.2c.1.2-.1.4-.3.4s-.4-.1-.5-.4h0V24.9c-.1-1.1-.1-2.5-.1-3.6s.1-1,.2-1.4-.1-.6.3-.9a.5.5,0,0,1,.5-.1h.1l.2.2.3.4a26.4,26.4,0,0,0,2.2,3.2,7.4,7.4,0,0,0,.9,1.2h-.3c.1,0,0,.2,0,.1h0c-.1-.2.1-.4.3-.4s.4.1.5.3v.3c-.1.2-.2.4-.4.4a.5.5,0,0,1-.6-.2,5,5,0,0,1-1.1-1.3,37.4,37.4,0,0,1-2.2-3.2l-.3-.4h.5a2.2,2.2,0,0,0-.1.6,4.1,4.1,0,0,0-.1,1.2c-.1,1.1,0,2.5,0,3.6v1.3h0m0-6.1a.4.4,0,0,1-.4.4c-.3,0-.4-.2-.4-.5v-.2c0-.1.1-.3.4-.3a.5.5,0,0,1,.4.2v.2c.1.1.1.3.1.6v2.2a14.8,14.8,0,0,1-.1,2.2v1.2c0,.1.1.1,0,.1a.4.4,0,0,1-.4.4.4.4,0,0,1-.4-.4h0V24.9c0-.7.1-1.5.1-2.2V20.5a1.1,1.1,0,0,1-.1-.5h.6c-.1,0,.1-.1.1-.1h.1"/><path class="cls-8" d="M106.3,25.8a.4.4,0,0,1-.1-.6c.1-.2.3-.2.5-.1h-.2l1-.8a6.5,6.5,0,0,1,2.9-.9.5.5,0,0,1,.4.5.4.4,0,0,1-.4.4,4,4,0,0,0-2.5.7,2.8,2.8,0,0,1-1.1.8h-.5m1-.5c.1.2-.1.4-.3.5a.5.5,0,0,1-.5-.3s.2.2.1.2h.2a.1.1,0,0,1-.1.1h.1a.4.4,0,0,1-.6,0c-.1-.1-.2-.4,0-.5h.1l.3-.2h.3a.8.8,0,0,1,.4.4"/><path class="cls-8" d="M106.3,21.3a.4.4,0,0,1,.2-.5.5.5,0,0,1,.6.2h0v.2c-.1.7-.3,1.8-.4,2.6v.5h0s-.1-.1,0-.1-.3-.1-.2-.1h-.2s-.2.1-.1.1h-.1v-.2a4.3,4.3,0,0,0,.1-.5,5.2,5.2,0,0,0,.2-1.1v-.2h.1l.7.3h0v1.7h0s-.1-.2-.1-.1-.1-.1,0-.1h-.5a.3.3,0,0,1,.1-.2,1.1,1.1,0,0,1,.1-.5v-.3a.1.1,0,0,1,.1-.1c0-.1,0-.2.2-.3l.5.2h.1l.3,1.3h0s-.1-.1,0-.1h-.3l.2-.3a.4.4,0,0,1,.5-.3.4.4,0,0,1,.2.6l-.2.5a.6.6,0,0,1-.5.3c-.2.1-.4-.1-.5-.2l-.2-.3c-.2-.5-.2-1.1-.3-1.3h0s.1.1,0,.1h.6c0,.1.1-.1.1,0h0v.3a.7.7,0,0,0-.1.5c-.1.2-.1.4-.4.6h-.3l-.3-.2c-.1-.1-.1-.2-.1-.4V22.8c0-.2-.1-.3.1-.6a.4.4,0,1,1,.7.3h0v.3a3,3,0,0,1-.2,1.2,1.4,1.4,0,0,1-.2.6.4.4,0,0,1-.1.3q0,.1-.3.3H106a.3.3,0,0,0-.1-.2v-.9c.1-.9.3-2,.4-2.6h0m-.8-.2c-.1-.2-.1-.5.1-.6s.4-.1.5,0,0,.1.1.1,0,.1,0,.1a.4.4,0,0,0,.1.3,5.7,5.7,0,0,0,.1,1.2v1.2c0,.3.1.5.1.7v.2h0c0,.1-.1,0,0,0s-.2-.2-.2-.1h-.2c.1,0-.2.1-.1.1s-.2.1-.1.1h-.1a4.3,4.3,0,0,0,.1-.5,5,5,0,0,0,.2-1.2,5.4,5.4,0,0,0,.1-1.1v-.2h0s-.1-.1.1-.2a.4.4,0,0,1,.6,0,.6.6,0,0,1,0,.6c-.1,0,.1-.1,0-.1h.1c-.1.3-.1.7-.2,1.2a5.9,5.9,0,0,1-.2,1.3.9.9,0,0,1-.1.5h0a.1.1,0,0,1-.1.1H106c-.2,0-.2-.1-.2-.2h-.1v-.3a1.7,1.7,0,0,1-.1-.7V22.3c-.1-.5-.1-.9-.2-1.2v-.2h0s.1.2.1.1h0m.7-.1c0,.2-.1.4-.3.4a.3.3,0,0,1-.5-.3v-.2h0s-.1,0,.1-.2a.4.4,0,0,1,.5-.2.5.5,0,0,1,.2.6h0V21"/><path class="cls-8" d="M109.4,23.2c.1-.2.4-.2.6-.1s.2.4.1.6H110l-1,.6-.4.2h0s.1-.2.1-.1h0c0,.1-.1-.3-.1-.2s-.1-.2-.1-.1h0a.4.4,0,0,1,0,.8h-.4c-.2-.1-.3-.4-.2-.5s.1-.2.1-.3l.6-.3.9-.6s-.1.1,0,.1-.1.1-.1,0m-1.8,2a.4.4,0,0,1,0,.6c-.2.2-.4.1-.6,0a.7.7,0,0,1-.1-.6.5.5,0,0,1,.2-.4l.8-.6.7-.4.6-.5.3-.2h.2c.3,0,.5.2.4.5a.4.4,0,0,1-.4.4h.1c-.1,0,.1-.1,0-.1h-.1l-.6.6-.8.4-.6.5h0c-.1,0-.1-.2,0-.1h-.1"/><path class="cls-8" d="M79.7,7.9c-.2.2-.4.3-.6.2a.5.5,0,0,1-.2-.6h0c.1-.1.1-.4.2-.8s.3-.4.5-.3a.4.4,0,0,1,.3.5c-.1.4-.1.7-.2.8v.2h0m1.4-5.8c.1-.2.4-.2.6-.1s.3.3.1.5.1,0,.1,0h-.1a2.3,2.3,0,0,1-.3.9A10.1,10.1,0,0,1,80.8,5l-.7,1.5a7.9,7.9,0,0,0-.4,1.3h0c0,.2-.2.4-.4.3a.4.4,0,0,1-.4-.4h0a8.2,8.2,0,0,1,.5-1.4l.7-1.6a13.9,13.9,0,0,0,.6-1.3c.2-.4.3-.8.4-1h0m.7.6c0,.2-.2.3-.5.3a.5.5,0,0,1-.3-.5V2.3h0a.4.4,0,0,1,.4-.4.5.5,0,0,1,.4.5h0c0,.1,0,.1-.1.3"/><path class="cls-8" d="M78.9,1.3a.3.3,0,0,1,.3.5.4.4,0,0,1-.5.2,1.5,1.5,0,0,1-.8-.4.6.6,0,0,1,0-.6c.1-.2.2-.2.3-.2A5,5,0,0,1,80,.6h3.4A7.6,7.6,0,0,0,85,.3h.7l.7.2a.5.5,0,0,1,.1.6.5.5,0,0,1-.6.1c0-.1,0-.1-.1-.1h-.6a8.6,8.6,0,0,1-1.7.3c-1.2.1-2.4,0-3.5,0H78.5a.1.1,0,0,1-.1.1h.2c-.1.1,0-.3,0-.2s-.1-.1-.1-.1h0l.4.2"/><path class="cls-8" d="M76.6,7.4a.4.4,0,0,1,.5-.2c.2.2.3.4.2.6s-.7.6-.9.8h.1V8.1h-.1s-.1-.1,0-.1h1a23.1,23.1,0,0,0,5.1-.2c.3,0,.5.1.5.4s-.1.4-.3.4a37.9,37.9,0,0,1-5.3.3H76.1l-.3-.2c-.1-.2,0-.4,0-.5H76c.2-.2.5-.3.6-.5"/><path class="cls-8" d="M89.3,5.1a.4.4,0,0,1-.4-.4.5.5,0,0,1,.5-.4,29.9,29.9,0,0,0,3,0,.5.5,0,0,1,.5.3.5.5,0,0,1-.4.5,17,17,0,0,1-3.2,0"/><path class="cls-8" d="M89,6.9a.5.5,0,0,1-.1-.6.4.4,0,0,1,.6,0s-.1-.1,0-.1h.7l1.9-.4c.2-.1.4.1.5.3a.5.5,0,0,1-.4.5l-1.8.4h-.7a.6.6,0,0,1-.7-.1"/><path class="cls-8" d="M100.6,8.2a.4.4,0,0,1-.6.2c-.2,0-.3-.3-.2-.5l.3-.5,2.6-2.7,1.8-1.9.9-.5h.6l.4.4a2.4,2.4,0,0,1,0,1.2,9.3,9.3,0,0,1-.4,1.3l-.6,1.1-.2.4-.4.3a.4.4,0,0,1-.5-.3c-.1-.2.1-.4.3-.5h-.1l.2-.3a4.7,4.7,0,0,0,.5-1,5.6,5.6,0,0,0,.4-1.2,1.1,1.1,0,0,0,0-.6h0c-.1,0-.3.1-.5.4l-1.8,1.7a27.8,27.8,0,0,0-2.7,3"/><path class="cls-8" d="M111,2.6a.5.5,0,0,1-.2.6c-.2.1-.4,0-.6-.2h-.4c-.1,0-.2.2-.2.3h0a.2.2,0,0,0,.2.2l.8.2,1,.4.4.6v.6a2.9,2.9,0,0,1-.7,1.2l-1.1.8a1.3,1.3,0,0,1-1.3-.3.4.4,0,0,1,0-.6c.1-.2.4-.2.6,0s.2.2.4.1a1.6,1.6,0,0,0,.8-.6,2.2,2.2,0,0,0,.5-.8V5h-.1l-.7-.3c-.4-.1-.8,0-1.2-.4s-.3-.3-.3-.4a.9.9,0,0,1-.1-.7,1,1,0,0,1,.7-.7,1,1,0,0,1,.7-.2,1.2,1.2,0,0,1,.8.4"/><path class="cls-8" d="M110.1,3.1a.4.4,0,0,1-.6.1.5.5,0,0,1,0-.6,2.9,2.9,0,0,1,2-.9l3.3-.4a.5.5,0,0,1,.5.4.4.4,0,0,1-.4.4l-3.3.4a2.1,2.1,0,0,0-1.5.6"/><path class="cls-8" d="M121.5.7a.4.4,0,1,1-.8,0h0s.2.1.1.1h0a2,2,0,0,0-1.1.7,9.3,9.3,0,0,0-1.6,1.8,4.8,4.8,0,0,0-1.2,2.7,1,1,0,0,0,.2,1h.9a2.4,2.4,0,0,0,1.6-1.3V5.6h-.7l-.7.2h-.1a.4.4,0,0,1-.5.3c-.2,0-.3-.2-.3-.5s.2-.3.3-.4l.3-.2.9-.2h1.3l.3.4a1.3,1.3,0,0,1-.1.9A2.9,2.9,0,0,1,118.1,8a1.7,1.7,0,0,1-1.5-.3,1.8,1.8,0,0,1-.5-1.6,5.7,5.7,0,0,1,1.3-3.2A8.1,8.1,0,0,1,119.2,1a2.6,2.6,0,0,1,1.3-.9h.6c.2,0,.3.1.3.2a.8.8,0,0,1,.1.4"/><path class="cls-8" d="M124.3,9.6c-.2.2-.5.2-.6,0s-.2-.5,0-.6.4-.8,1.1-1.9,2.3-3.1,3.4-4.5a9.2,9.2,0,0,1,1.4-1.4c.2-.3.3-.5.7-.6l.5.2a.4.4,0,0,1,.1.3v.6l-.3,1.5c-.3,1.1-.8,2.3-1,3.2V7.8h0s-.1-.1,0-.1h-.5q.2,0,.3-.3a.5.5,0,0,1,.6-.2c.2.1.2.4.1.6a1,1,0,0,1-.4.5l-.3.2a.4.4,0,0,1-.4-.2.6.6,0,0,1-.2-.5V7.3a2,2,0,0,1,0-1.1c.2-1,.7-2.1,1-3.2l.3-1.4V1.2h0s.2.2.1.2h.3l-.4.3-1.2,1.5a31.9,31.9,0,0,0-3.4,4.3,8.8,8.8,0,0,0-.7,1.3,2.8,2.8,0,0,1-.5.8"/><path class="cls-8" d="M127.1,5.6a.4.4,0,0,1-.4-.4c.1-.2.2-.4.5-.4h.2l3.7-.4a.4.4,0,0,1,.4.4.4.4,0,0,1-.4.4l-3.7.5h-.3m2-.5a.4.4,0,0,1,.4.4c0,.2-.1.4-.3.4h-1.4l-.7-.2H127a.4.4,0,0,1-.2-.5c0-.2.3-.3.5-.3s-.1,0,0,0h0l.7.2h1.1"/></g></g></g></svg>