<svg xmlns="http://www.w3.org/2000/svg" xmlns:xlink="http://www.w3.org/1999/xlink" viewBox="0 0 291 111.1"><defs><style>.cls-1{fill:none;}.cls-2{isolation:isolate;}.cls-3{opacity:0;}.cls-4{clip-path:url(#clip-path);}.cls-5,.cls-6,.cls-7{fill:#ed3624;}.cls-5,.cls-6{mix-blend-mode:darken;}.cls-5{opacity:0.42;}.cls-6{opacity:0.42;}.cls-8{fill:#1749b3;}</style><clipPath id="clip-path"><rect class="cls-1" x="-24.7" y="-42.4" width="419.5" height="297.64"/></clipPath></defs><g class="cls-2"><g id="Ebene_1" data-name="Ebene 1"><g class="cls-3"><path d="M116,13.4V2.5h3.3a3.8,3.8,0,0,1,2.4.7,2.5,2.5,0,0,1,.9,2,3.2,3.2,0,0,1-2.2,3.1l3.6,5.1h-1.9L119,8.8h-1.4v4.6Zm1.6-5.7h.5c1.9,0,2.9-.8,2.9-2.3s-.8-1.7-2.5-1.7h-.9Z"/><path d="M125.4,13.4v-8h1.4V6.9a3.3,3.3,0,0,1,2.8-1.6,2.4,2.4,0,0,1,1.7.6,2.6,2.6,0,0,1,.6,1.8v5.7h-1.5V8.2c0-.6,0-1.1-.2-1.3a1,1,0,0,0-.9-.4c-.9,0-1.7.6-2.5,1.8v5.1Z"/></g><g class="cls-3"><path d="M115.2,26.2v-1h1.9V17.8l-1.9.5v-1l3.1-.8v8.7h1.9v1Z"/><path d="M125.5,26.4a2.7,2.7,0,0,1-2.4-1.3,6.9,6.9,0,0,1-.9-3.6,6.4,6.4,0,0,1,.9-3.6,3.1,3.1,0,0,1,2.4-1.4,2.8,2.8,0,0,1,2.4,1.4,6.3,6.3,0,0,1,.9,3.5,6.5,6.5,0,0,1-.9,3.7A2.7,2.7,0,0,1,125.5,26.4Zm0-.9c1.3,0,2-1.4,2-4.1s-.6-3.9-2-3.9-1.9,1.3-1.9,4S124.2,25.5,125.5,25.5Z"/></g><g class="cls-3"><path d="M67,36.6a3.5,3.5,0,0,1-2.2,1.1,1.8,1.8,0,0,1-1.4-.6,1.6,1.6,0,0,1-.6-1.3,1.9,1.9,0,0,1,1-1.8,4.9,4.9,0,0,1,2.7-.6h.3v-.8a1.1,1.1,0,0,0-1.2-1.2,4.9,4.9,0,0,0-2.2.6V31a5.7,5.7,0,0,1,2.4-.5,2.2,2.2,0,0,1,1.7.5,2,2,0,0,1,.6,1.6v3.1c0,.8.2,1.1.6,1.1H69v.7l-1,.2C67.5,37.7,67.2,37.3,67,36.6Zm-.2-.6V34.2h-.4a2.9,2.9,0,0,0-1.7.4,1.1,1.1,0,0,0-.6,1,1.2,1.2,0,0,0,1.1,1.1A3.1,3.1,0,0,0,66.8,36Z"/></g><g class="cls-3"><path d="M73.2,41.1V28.8h1.7V41.1Z"/><path d="M77.7,41.1V32h1.7v1.7a3.8,3.8,0,0,1,3.1-1.9,2.6,2.6,0,0,1,1.9.8,2.7,2.7,0,0,1,.7,2v6.5H83.5v-6a2.6,2.6,0,0,0-.3-1.4,1.1,1.1,0,0,0-1-.4,3.4,3.4,0,0,0-2.8,1.9v5.9Z"/></g><g class="cls-3"><path d="M227.8,36.3V26.1h3a3.2,3.2,0,0,1,2.3.7,2.2,2.2,0,0,1,.8,1.8,3,3,0,0,1-2.1,2.9l3.4,4.8h-1.8L230.5,32h-1.3v4.3Zm1.4-5.4h.5q2.7,0,2.7-2.1c0-1.1-.8-1.6-2.3-1.6h-.9Z"/></g><g class="cls-3"><path d="M221.4,52.5V51.3A10,10,0,0,1,224,48l.8-.7a3.9,3.9,0,0,0,1.6-2.9,1.7,1.7,0,0,0-.6-1.4,1.7,1.7,0,0,0-1.5-.5,6.3,6.3,0,0,0-2.6.8V42.1a5.8,5.8,0,0,1,2.8-.7,3.7,3.7,0,0,1,2.5.8,2.9,2.9,0,0,1,.9,2.2,3.3,3.3,0,0,1-.4,1.7,14.2,14.2,0,0,1-1.8,1.9l-.5.4a5.7,5.7,0,0,0-2.1,2.9h4.8v1.2Z"/><path d="M230.8,54.9v-.6c.4-.1.7-.6.7-1.6v-.2h-.7V50.7h1.8v1.6C232.6,53.9,232,54.8,230.8,54.9Z"/><path d="M235.2,52.6V51.3a5.1,5.1,0,0,0,2,.4,2.4,2.4,0,0,0,1.7-.6,2.4,2.4,0,0,0,.6-1.8q0-2.4-3.3-2.4h-.8V41.7h5.5v1.2h-4.3v2.9a5.4,5.4,0,0,1,3.3.9,3.4,3.4,0,0,1,1.2,2.7,3.1,3.1,0,0,1-1.1,2.5,4.5,4.5,0,0,1-3,.9Z"/></g><g class="cls-3"><path d="M116.1,60.8V49.9h3.3a3.6,3.6,0,0,1,2.4.7,2.5,2.5,0,0,1,.8,2,3.2,3.2,0,0,1-2.2,3.1l3.7,5.1h-1.9l-3.1-4.6h-1.5v4.6Zm1.5-5.8h.5c2,0,2.9-.8,2.9-2.3s-.8-1.7-2.4-1.7h-1Z"/><path d="M124.9,60.8V59.7l4.9-5.8h-4.7V52.8h6.5v1.1l-4.9,5.8h5v1.1Z"/></g><g class="cls-3"><path d="M63.6,66.8V56.6h5.7v1.1H65v3.4h3.6v1.1H65v4.6Z"/></g><g class="cls-3"><path d="M73.1,70.4v-13H75v13Z"/><path d="M77.9,70.4V60.8h1.8v1.8a4,4,0,0,1,3.3-2,2.6,2.6,0,0,1,2,.8,2.9,2.9,0,0,1,.8,2.1v6.9H84V64.1a2.8,2.8,0,0,0-.3-1.5,1.1,1.1,0,0,0-1-.5q-1.7,0-3,2.1v6.2Z"/></g><g class="cls-3"><path d="M115.1,74V72.8a5.2,5.2,0,0,0,2.1.5,2,2,0,0,0,1.5-.5,1.9,1.9,0,0,0,.5-1.3c0-1.4-.9-2-2.8-2h-.5v-.9h.5c1.7,0,2.6-.6,2.6-1.8s-.6-1.5-1.7-1.5a4.2,4.2,0,0,0-2.1.6V64.8a5.7,5.7,0,0,1,2.2-.4c1.9,0,2.8.7,2.8,2.2a2.3,2.3,0,0,1-1.9,2.3c1.5.4,2.3,1.2,2.3,2.5a2.6,2.6,0,0,1-.9,2.1,3.6,3.6,0,0,1-2.4.8Z"/><path d="M126,74.3a2.8,2.8,0,0,1-2.4-1.4,6.4,6.4,0,0,1-.9-3.6,6.3,6.3,0,0,1,.9-3.5,2.8,2.8,0,0,1,4.8,0,6.1,6.1,0,0,1,.9,3.5,6.4,6.4,0,0,1-.9,3.6A2.8,2.8,0,0,1,126,74.3Zm0-1c1.3,0,2-1.3,2-4s-.7-4-2-4-2,1.4-2,4S124.7,73.3,126,73.3Z"/></g><g class="cls-3"><path d="M1.3,92.9l.2-1.3a5.4,5.4,0,0,0,2.5.6c1.6,0,2.4-.8,2.4-2.6V88.4a2.7,2.7,0,0,1-2.6,1.7A2.8,2.8,0,0,1,1.5,89a4.1,4.1,0,0,1-.9-2.8,4.9,4.9,0,0,1,1-3,3.3,3.3,0,0,1,2.5-1.1,3,3,0,0,1,2.3,1.1v-.9H7.9v5.8a16.5,16.5,0,0,1-.2,2.7,3.6,3.6,0,0,1-.8,1.5,3.7,3.7,0,0,1-2.9,1A8,8,0,0,1,1.3,92.9Zm5.1-5.4V84.2a2.6,2.6,0,0,0-2.1-1,1.6,1.6,0,0,0-1.5.8,3.4,3.4,0,0,0-.6,2.2c0,1.7.6,2.6,1.8,2.6A3,3,0,0,0,6.4,87.5Z"/><path d="M16.3,90a8.5,8.5,0,0,1-2.5.4,4,4,0,0,1-2.9-1.1,4.5,4.5,0,0,1-1.1-3.1,4.4,4.4,0,0,1,1-3,3.3,3.3,0,0,1,2.5-1.1,2.6,2.6,0,0,1,2.2,1,5,5,0,0,1,.8,2.9v.5h-5c.2,1.9,1.1,2.8,2.7,2.8a5.3,5.3,0,0,0,2.3-.5Zm-5-4.6h3.5c0-1.5-.5-2.2-1.6-2.2S11.5,83.9,11.3,85.4Z"/><path d="M20.7,90.4a7.5,7.5,0,0,1-2.4-.4V88.6a5.3,5.3,0,0,0,2.5.7,1.7,1.7,0,0,0,1-.3.9.9,0,0,0,.4-.8c0-.5-.4-.9-1.2-1.3l-.8-.3a2.6,2.6,0,0,1-1.9-2.3,1.9,1.9,0,0,1,.8-1.6,3,3,0,0,1,2-.6l1.6.2H23v1.2l-1.9-.3c-.9,0-1.4.3-1.4,1s.4.8,1.1,1.1l.7.3a6.3,6.3,0,0,1,1.7,1,2.3,2.3,0,0,1,.4,1.4,2.2,2.2,0,0,1-.8,1.8A3.3,3.3,0,0,1,20.7,90.4Z"/></g><g class="cls-3"><path d="M37.6,86.1l-1.1-2.8H32.2L31,86.1H29.7l4-10.1h1.5l3.9,10.1ZM36,82.2l-1.7-4.3-1.7,4.3Z"/></g><g class="cls-3"><path d="M118.2,91.6V90.2a3,3,0,0,1-2.6,1.5,2,2,0,0,1-1.5-.6,2.1,2.1,0,0,1-.6-1.6V84.1h1.4V89c0,.6,0,1,.2,1.2a1,1,0,0,0,.8.4,3,3,0,0,0,2.3-1.7V84.1h1.4v7.5Z"/><path d="M122.2,91.6V84.1h1.3v1.4a3.3,3.3,0,0,1,2.6-1.6,1.9,1.9,0,0,1,1.6.7,2.1,2.1,0,0,1,.6,1.6v5.4h-1.4v-5a2.7,2.7,0,0,0-.2-1.1.9.9,0,0,0-.8-.4,3.1,3.1,0,0,0-2.4,1.6v4.9Z"/></g><g class="cls-3"><path d="M177.4,98.3a5.9,5.9,0,0,1-2.1-.4V96.7a4.8,4.8,0,0,0,2.1.6l.9-.2a.9.9,0,0,0,.4-.8c0-.4-.4-.8-1-1l-.8-.4a2.2,2.2,0,0,1-1.6-1.9,1.5,1.5,0,0,1,.7-1.4,2.3,2.3,0,0,1,1.7-.5h1.7v1l-1.7-.3q-1.2,0-1.2.9t.9.9l.7.3a5.6,5.6,0,0,1,1.4.9,1.6,1.6,0,0,1,.4,1.2,1.8,1.8,0,0,1-.7,1.5A2.8,2.8,0,0,1,177.4,98.3Z"/></g><g class="cls-3"><path d="M237.9,91.7a5.4,5.4,0,0,1-2-.4v-1a4.5,4.5,0,0,0,2,.5,1.1,1.1,0,0,0,.8-.2.8.8,0,0,0,.4-.7c0-.4-.3-.7-1-1l-.6-.3Q236,88,236,86.8a1.6,1.6,0,0,1,.6-1.3,2.5,2.5,0,0,1,1.6-.5l1.3.2h.2v1l-1.5-.3c-.7,0-1.1.3-1.1.8s.3.7.8.9l.6.2a3.6,3.6,0,0,1,1.3.9,1.5,1.5,0,0,1,.4,1.1,1.8,1.8,0,0,1-.6,1.4A3.1,3.1,0,0,1,237.9,91.7Z"/></g><g class="cls-3"><path d="M256.5,98.4a6.8,6.8,0,0,1-2.1-.4V96.8a4.6,4.6,0,0,0,2.2.7l.9-.3a1.1,1.1,0,0,0,.3-.8c0-.4-.3-.8-1-1l-.7-.3c-1.1-.5-1.6-1.1-1.6-2a1.7,1.7,0,0,1,.6-1.4,2.4,2.4,0,0,1,1.8-.5h1.7v1l-1.7-.3q-1.2,0-1.2.9t.9.9l.6.3a4.9,4.9,0,0,1,1.5.9,1.6,1.6,0,0,1,.4,1.2,1.8,1.8,0,0,1-.7,1.5A2.9,2.9,0,0,1,256.5,98.4Z"/></g><g class="cls-3"><path d="M163.5,108v-.7a3.3,3.3,0,0,0,1.3.4c.9,0,1.3-.5,1.3-1.4v-.7a1.5,1.5,0,0,1-2.6.3,2.1,2.1,0,0,1-.5-1.5,2,2,0,0,1,.6-1.5,1.4,1.4,0,0,1,1.3-.7,1.4,1.4,0,0,1,1.2.6v-.5h.8v3.1c0,.7-.1,1.2-.1,1.5a2,2,0,0,1-.4.8,1.9,1.9,0,0,1-1.6.5A3.2,3.2,0,0,1,163.5,108Zm2.7-2.9v-1.7a1.4,1.4,0,0,0-1.1-.6,1,1,0,0,0-.8.4,2.1,2.1,0,0,0-.3,1.2c0,1,.3,1.4.9,1.4A1.6,1.6,0,0,0,166.2,105.1Z"/><path d="M170.3,106.7a1.7,1.7,0,0,1-1.4-.6,2.3,2.3,0,0,1-.6-1.6,2.4,2.4,0,0,1,.6-1.7,1.9,1.9,0,0,1,1.5-.6,2,2,0,0,1,1.5.6,2.9,2.9,0,0,1,.5,1.7,2.5,2.5,0,0,1-.5,1.6A2.1,2.1,0,0,1,170.3,106.7Zm.1-.6c.8,0,1.2-.5,1.2-1.6s-.4-1.7-1.2-1.7-1.2.6-1.2,1.7S169.6,106.1,170.4,106.1Z"/><path d="M174.9,106.7l-1.2-.3v-.7a2.4,2.4,0,0,0,1.3.4c.2,0,.4,0,.5-.2s.2-.2.2-.4-.2-.5-.6-.7l-.4-.2a1.2,1.2,0,0,1-1-1.2.9.9,0,0,1,.4-.8,1.2,1.2,0,0,1,1.1-.4h1v.6l-1-.2c-.5,0-.8.2-.8.6s.2.4.6.6h.4l.9.6a1.4,1.4,0,0,1,.2.7,1,1,0,0,1-.4.9A1.6,1.6,0,0,1,174.9,106.7Z"/><path d="M179.2,106.7l-1.3-.3v-.7a2.4,2.4,0,0,0,1.3.4c.2,0,.4,0,.5-.2s.3-.2.3-.4-.3-.5-.7-.7l-.4-.2a1.2,1.2,0,0,1-1-1.2.9.9,0,0,1,.4-.8,1.2,1.2,0,0,1,1.1-.4h1v.6l-1-.2c-.5,0-.8.2-.8.6s.2.4.6.6h.4l.9.6a1.4,1.4,0,0,1,.2.7,1,1,0,0,1-.4.9A1.5,1.5,0,0,1,179.2,106.7Z"/></g><g class="cls-3"><path d="M193.8,106.1v-.8h1.7V98.4l-1.7.4v-.9l2.9-.7v8.1h1.7v.8Z"/><path d="M200.6,106.1v-1a8.2,8.2,0,0,1,2-2.6l.7-.6a2.9,2.9,0,0,0,1.3-2.3,1.5,1.5,0,0,0-1.7-1.5,4,4,0,0,0-2.1.7v-1a4.9,4.9,0,0,1,2.3-.6,2.7,2.7,0,0,1,2,.7,2.1,2.1,0,0,1,.7,1.7,2.3,2.3,0,0,1-.4,1.4,6,6,0,0,1-1.4,1.5l-.4.4a3.9,3.9,0,0,0-1.6,2.2h3.8v1Z"/></g><g class="cls-3"><path d="M34.6,115.9a2.9,2.9,0,0,1-2.2-.9,4.1,4.1,0,0,1-.8-2.5,3.6,3.6,0,0,1,.8-2.4,3,3,0,0,1,2.3-.9,2.9,2.9,0,0,1,2.2.9,3.6,3.6,0,0,1,.8,2.4,3.7,3.7,0,0,1-.8,2.5A3,3,0,0,1,34.6,115.9Zm0-.9c1.3,0,1.9-.8,1.9-2.5s-.6-2.4-1.8-2.4-1.9.8-1.9,2.4S33.4,115,34.6,115Z"/></g><g class="cls-3"><path d="M276.5,115.9a7.9,7.9,0,0,1-2.4-.5v-1.3a4.9,4.9,0,0,0,2.4.7,1.5,1.5,0,0,0,1.1-.4,1.2,1.2,0,0,0,.4-.8q0-.7-1.2-1.2l-.8-.4c-1.3-.5-1.9-1.3-1.9-2.2a2.4,2.4,0,0,1,.7-1.7,3.3,3.3,0,0,1,2.1-.6l1.6.2h.3V109a5.4,5.4,0,0,0-1.9-.4c-.9,0-1.4.4-1.4,1s.4.8,1.1,1.1l.7.3a5.5,5.5,0,0,1,1.6,1.1,1.7,1.7,0,0,1,.5,1.4,2,2,0,0,1-.8,1.7A3.8,3.8,0,0,1,276.5,115.9Z"/><path d="M284.9,115.9a3.4,3.4,0,0,1-2.7-1.2,5,5,0,0,1,0-6,3.5,3.5,0,0,1,2.8-1.2,3.6,3.6,0,0,1,2.8,1.2,4.5,4.5,0,0,1,1,3,5,5,0,0,1-1,3.1A4,4,0,0,1,284.9,115.9Zm0-1.1c1.6,0,2.3-1,2.3-3.1s-.7-3.1-2.2-3.1-2.3,1-2.3,3.1S283.5,114.8,284.9,114.8Z"/></g><g class="cls-4"><path class="cls-5" d="M36,106.4a1.4,1.4,0,0,1-1.4,1.4,1.3,1.3,0,0,1-1.3-1.4V43.1a1.3,1.3,0,0,1,1.3-1.4A1.4,1.4,0,0,1,36,43.1Z"/><path class="cls-5" d="M34.6,44.5a1.4,1.4,0,0,1-1.3-1.4,1.3,1.3,0,0,1,1.3-1.4H66.3a1.4,1.4,0,0,1,1.4,1.4,1.4,1.4,0,0,1-1.4,1.4Z"/><path class="cls-5" d="M177.2,44.5a1.4,1.4,0,0,1-1.4-1.4,1.4,1.4,0,0,1,1.4-1.4h31.7a1.3,1.3,0,0,1,1.3,1.4,1.4,1.4,0,0,1-1.3,1.4Z"/><path class="cls-6" d="M257.4,44.2a1.4,1.4,0,0,1-1.5-1.3,1.4,1.4,0,0,1,1.3-1.4h29.3c.1,0,0-.1.6.1A1.4,1.4,0,0,1,288,43c-.1.8-.4.9-.5,1l-.4.2-1,.4a1.4,1.4,0,0,1-.9-2.6l.9-.3h-.3l-.2.2c.1-.1-.3.7-.3.5s.1.9,0,.7.3.6.2.4l.4.4.2.2h-6c-2.4,0-5.6.1-9,0H257.4"/><path class="cls-5" d="M286.7,43.1a1.4,1.4,0,0,1,1.4-1.4,1.3,1.3,0,0,1,1.3,1.4v63.3a1.3,1.3,0,0,1-1.3,1.4,1.4,1.4,0,0,1-1.4-1.4Z"/></g><g class="cls-4"><path d="M34.3,109.5a.5.5,0,0,1,0-.5c.2-.2.5-.2.6,0a.3.3,0,0,1,0,.5c-.1.2-.4.2-.6,0"/><path d="M34.9,106.2a.5.5,0,0,1,.4.5.5.5,0,0,1-.5.3,2.2,2.2,0,0,0-1.4.3,2,2,0,0,0-.9,1.1,2.2,2.2,0,0,0,0,1.4q0,.2.3.3h.9a2.2,2.2,0,0,0,1.6-.2,3.5,3.5,0,0,0,1.5-2.1,1.1,1.1,0,0,0-.3-.8l-1.1-.2h-.8a1.1,1.1,0,0,1-.7-.2c-.2-.1-.2-.3-.1-.5s.4-.3.5-.1,0-.1,0-.1h1.1a2.5,2.5,0,0,1,1.8.6,2.2,2.2,0,0,1,.4,1.3,3.6,3.6,0,0,1-4,3.2,3.8,3.8,0,0,1-1-.3,1.3,1.3,0,0,1-.9-.7,3.4,3.4,0,0,1,0-2,3,3,0,0,1,1.2-1.5,3.4,3.4,0,0,1,2-.4"/><path d="M97.6,11.4a.4.4,0,0,1,.8,0V27.2a.4.4,0,1,1-.8,0Z"/><path d="M98,27.7a.5.5,0,0,1-.4-.5.4.4,0,0,1,.4-.4h47.5a.4.4,0,0,1,.4.4.5.5,0,0,1-.4.5Z"/><path d="M145.1,11.4a.4.4,0,1,1,.8,0V27.2a.4.4,0,1,1-.8,0Z"/><path d="M98,11.8a.4.4,0,1,1,0-.8h47.5a.4.4,0,1,1,0,.8Z"/><path d="M97.6,58.9a.4.4,0,1,1,.8,0V74.8a.4.4,0,1,1-.8,0Z"/><path d="M98,75.2a.4.4,0,0,1-.4-.4.4.4,0,0,1,.4-.4h47.5a.4.4,0,0,1,.4.4.4.4,0,0,1-.4.4Z"/><path d="M145.1,58.9a.4.4,0,1,1,.8,0V74.8a.4.4,0,1,1-.8,0Z"/><path d="M98,59.3a.4.4,0,0,1-.4-.4.4.4,0,0,1,.4-.4h47.5a.4.4,0,0,1,.4.4.4.4,0,0,1-.4.4Z"/><path d="M208.5,35.4c0-.3.1-.5.4-.5a.5.5,0,0,1,.4.5V51.2a.4.4,0,0,1-.4.4.4.4,0,0,1-.4-.4Z"/><path d="M208.9,51.6a.4.4,0,0,1,0-.8h47.5a.4.4,0,1,1,0,.8Z"/><path d="M256,35.4a.4.4,0,1,1,.8,0V51.2a.4.4,0,0,1-.8,0Z"/><path d="M208.9,35.8a.4.4,0,0,1-.4-.4c0-.3.1-.5.4-.5h47.5a.5.5,0,0,1,.4.5.4.4,0,0,1-.4.4Z"/><path d="M66.3,19.9a.4.4,0,1,1,0-.8L98,18.4a.4.4,0,0,1,.4.4c0,.3-.2.4-.4.5Z"/><path d="M145.5,19a.4.4,0,0,1-.4-.4.4.4,0,0,1,.4-.4h31.7a.4.4,0,0,1,.4.4.4.4,0,0,1-.4.4Z"/><path d="M145.5,67.7a.4.4,0,0,1,0-.8h31.7a.4.4,0,1,1,0,.8Z"/><path d="M177.2,43.5a.4.4,0,0,1,0-.8h31.7a.4.4,0,0,1,0,.8Z"/><path d="M256.4,43.5a.4.4,0,0,1,0-.8h31.7a.4.4,0,1,1,0,.8Z"/><path d="M287.7,43.1a.4.4,0,0,1,.4-.4.4.4,0,0,1,.4.4v63.3a.5.5,0,0,1-.4.5c-.3,0-.4-.2-.4-.5Z"/><path d="M65.9,19.5a.4.4,0,0,1,.8,0V67.2a.4.4,0,0,1-.8,0Z"/><path d="M34.6,43.5a.4.4,0,0,1,0-.8H66.3a.4.4,0,1,1,0,.8Z"/><path d="M34.2,43.1a.4.4,0,0,1,.8,0v63.3a.4.4,0,1,1-.8,0Z"/><path d="M66.3,67.6a.4.4,0,0,1-.4-.4.4.4,0,0,1,.4-.4H98a.4.4,0,0,1,.4.4.4.4,0,0,1-.4.4Z"/><path d="M176.8,18.6a.4.4,0,0,1,.8,0V66.9a.4.4,0,0,1-.8,0Z"/><path d="M287.8,109.5a.3.3,0,0,1,0-.5c.1-.2.4-.2.6,0a.5.5,0,0,1,0,.5c-.2.2-.5.2-.6,0"/><path d="M288.3,106.2c.3,0,.4.2.4.5s-.2.3-.5.3a2.2,2.2,0,0,0-1.4.3,1.5,1.5,0,0,0-.8,1.1,1.8,1.8,0,0,0-.1,1.4c0,.1.2.2.4.3h.8a2.1,2.1,0,0,0,1.6-.2,2.8,2.8,0,0,0,1.5-2.1,1.9,1.9,0,0,0-.2-.8l-1.2-.2H288a1.1,1.1,0,0,1-.7-.2c-.2-.1-.2-.3-.1-.5a.4.4,0,0,1,.6-.1h1a2.3,2.3,0,0,1,1.8.6,2.2,2.2,0,0,1,.4,1.3,3.6,3.6,0,0,1-4,3.2l-1-.3a1.5,1.5,0,0,1-.9-.7,3.4,3.4,0,0,1,.1-2,2.6,2.6,0,0,1,1.2-1.5,3,3,0,0,1,1.9-.4"/><path d="M67.1,41.8a.8.8,0,1,1-1.2,1.1c-.1-.1.5.2.3.2h.3c-.1,0-.1.1-.1.3v.4c0,.1-.2-.2-.1-.2s-.1,0-.1,0h.2c.1,0,.4,0,.4-.1h0a.1.1,0,0,1-.1-.1l-.6-.2h-.4c-.1,0,.2-.1.1-.1h0v.2h.3a1.5,1.5,0,0,0,.4-.6h0s.1.1.1,0v.2h-.2c-.3,0-.5,0-.5.1a1,1,0,0,0-.1.4h-.1a1.9,1.9,0,0,0,.9-.3.9.9,0,1,1,.6,1.6,3.1,3.1,0,0,1-2.2.2,1.5,1.5,0,0,1-.8-1.6,1.8,1.8,0,0,1,.9-1.6,2.1,2.1,0,0,1,1.5-.3h.6a1.3,1.3,0,0,1,.7.6,1.5,1.5,0,0,1,.1,1.3,2.7,2.7,0,0,1-1.4,1.6l-1,.2a1.5,1.5,0,0,1-1.1-.4,1.7,1.7,0,0,1-.4-1.6,2.5,2.5,0,0,1,.2-.7l.7-.6a2.8,2.8,0,0,1,1.3,0l1,.4a1.5,1.5,0,0,1,.9,1,1.7,1.7,0,0,1-.4,1.6,1.9,1.9,0,0,1-1.6.6l-.8-.2a1.3,1.3,0,0,1-.7-.9,1.4,1.4,0,0,1,0-.7,2,2,0,0,1,.6-1.7l.7-.3a1,1,0,0,1,1,.3"/><path d="M178.2,41.8a.8.8,0,0,1,.5,1,.9.9,0,0,1-1.1.5h-.1a.3.3,0,0,1-.1.2.6.6,0,0,0-.1.4h0c0,.1-.2,0-.2,0H177l.3-.3a1.1,1.1,0,0,0,.3-.6v-.2l-.6-.3h-.4c-.1,0,.2-.3.2-.2h0v.4h0a.8.8,0,0,0,.5,0c0-.1-.2.2-.2.1s0,.1,0,.1.1.1.1.1h.2c-.1,0,.1-.1.1,0s.1-.1,0-.1h0a.7.7,0,0,1-.5,1,.7.7,0,0,1-1-.5,1.6,1.6,0,0,1,.4-1.6.9.9,0,0,1,.6-.4,1.2,1.2,0,0,1,1,.1,1.5,1.5,0,0,1,.3,2.4,2.4,2.4,0,0,1-1.8.3.7.7,0,0,1-.6-.2,1.2,1.2,0,0,1-.6-.6,2,2,0,0,1,0-1.1,1.1,1.1,0,0,1,.1-.5.8.8,0,0,1,.5-.7,2,2,0,0,1,1.7,0,2.3,2.3,0,0,1,1.3.8,1.8,1.8,0,0,1,.4,1.6,2.5,2.5,0,0,1-.8,1.5,1.6,1.6,0,0,1-1.3.7,1.8,1.8,0,0,1-1-.4,3.6,3.6,0,0,1-.4-.9,1.9,1.9,0,0,1,.2-1.3,2.3,2.3,0,0,1,.8-.9,1.6,1.6,0,0,1,1.5-.1"/><path d="M44.6,107.3a.8.8,0,0,1-.8-.9.8.8,0,0,1,.8-.8H276.4a.9.9,0,0,1,.8.8.9.9,0,0,1-.8.9Z"/><path d="M274.9,102.9a.7.7,0,0,1-.4,1,.7.7,0,0,1-1-.3,1.1,1.1,0,0,1-.1-.8.9.9,0,0,1,.4-.6,1.5,1.5,0,0,1,.9-.2,5.8,5.8,0,0,1,3.2.9l1.3,1a1.6,1.6,0,0,1,.5.6,1.8,1.8,0,0,1,.1,1.5,2.4,2.4,0,0,1-1.2,1.1,30,30,0,0,1-3.6,1.6l-1.5.7-.6.6a.8.8,0,0,1-1,.6,1,1,0,0,1-.6-1,2.4,2.4,0,0,1,1.3-1.5,7.7,7.7,0,0,1,1.8-1,29.5,29.5,0,0,0,3.4-1.4l.4-.3a.1.1,0,0,0,.1-.1h0c0-.1,0,0-.1-.3s0,.1-.2-.1l-.9-.7a5.6,5.6,0,0,0-2.3-.7h0l.2-.2c-.1,0,0-.4,0-.3s-.1-.2-.1-.1"/><path d="M66.3,91.4a.7.7,0,0,1-.8-.8.8.8,0,0,1,.8-.8H177.2a.9.9,0,0,1,.8.8.8.8,0,0,1-.8.8Z"/><path d="M208.9,91.4a.8.8,0,0,1-.9-.8.9.9,0,0,1,.9-.8h47.5a.9.9,0,0,1,.8.8.8.8,0,0,1-.8.8Z"/><path d="M176.2,88.1a.8.8,0,0,1-.8-1.4c.3-.2.3-.1.4-.1h1l2,.5c.9.3,1.9.7,2.2,1.7a2.1,2.1,0,0,1-.4,2c-1.2,1.7-3.8,2.6-4.9,3.1a.8.8,0,1,1-.7-1.4c1.2-.6,3.5-1.7,4.3-2.7a1,1,0,0,0,.2-.5,2.4,2.4,0,0,0-1.1-.6l-1.9-.5h-.3m-.2-1.5a.9.9,0,0,1,.6,1,.8.8,0,0,1-1,.6h0c-.1,0-.1.1-.4-.3a.8.8,0,1,1,1.2-1c.1,0-.2-.2-.1-.2h-.2c.1,0-.1-.1-.1-.1h0"/><path d="M255.8,88a.8.8,0,0,1-.7.9.8.8,0,0,1-.9-.8,1.3,1.3,0,0,1,.1-.6,1,1,0,0,1,.7-.5,1.1,1.1,0,0,1,1,.2l1.5.9,1.3.9.6.5a1.9,1.9,0,0,1,.5.9,1.2,1.2,0,0,1-.4,1.3,4.1,4.1,0,0,1-1.1.7c-.8.5-1.9.9-3.1,1.5a.8.8,0,0,1-1.1-.4.8.8,0,0,1,.4-1.1l3-1.4.7-.5h.1c0-.1,0,.3-.1.2h-.1l-.3-.3-1.3-.8-1.3-.9h.2l.2-.2v-.2h0"/><path class="cls-7" d="M35.1,76.1a.8.8,0,0,1-1.5-.5v-.2h0v.2l.2.3h.6c-.1.1.2-.1.2,0h0v.2a14.3,14.3,0,0,0-1,1.9l-.8,1.3-.5.9a.9.9,0,0,1-.4.5h-.4a1.1,1.1,0,0,1-.7-.3.6.6,0,0,1-.2-.6,3.5,3.5,0,0,1,.3-1.2A18.4,18.4,0,0,1,32.4,76l.9-1.2c.1-.1.1-.2.2-.4s.1-.4.5-.6a.9.9,0,0,1,1,.1q.3.1.3.3l.3.7a15.6,15.6,0,0,1,.5,1.6l.6,2,.3.7.3.6.2.3h-.8l-.2.2-.3.3c.1-.1,0,.4,0,.3h0a.1.1,0,0,0-.1-.1.8.8,0,1,1,1.5-.7c.1.1.1.2.2.4v.4a1.2,1.2,0,0,1-.8.6c-.6,0-.6-.2-.6-.2l-.5-.6a3.9,3.9,0,0,1-.4-.9l-.3-.8c-.2-.6-.5-1.3-.7-2.1s-.3-1.1-.4-1.5l-.2-.4H34c-.1,0,.5.2.3.2H35c0,.2-.2.4-.4.8l-.8,1.1a9.4,9.4,0,0,0-1.3,2.4,2.7,2.7,0,0,0-.3.8v-.2c0,.1-.1-.2,0-.1l-.2-.3-.3-.2c.1.1-.5,0-.4,0s-.2.1-.2,0-.1.1-.1.1h-.1a3.1,3.1,0,0,0,.5-.9l.7-1.1a12.6,12.6,0,0,1,1.3-2.3l.3-.3a.8.8,0,0,1,.8-.3,1.3,1.3,0,0,1,.7.5,1.1,1.1,0,0,1,.1.5,1.4,1.4,0,0,1-.2.6"/><path class="cls-7" d="M33,80.7a.8.8,0,0,1-.5,1.1.8.8,0,0,1-1-.5,1.1,1.1,0,0,1,0-.8,1.3,1.3,0,0,1,.5-.7,2.2,2.2,0,0,1,1.1-.1l1.1.2c.9.1,2-.7,3.4-.7a.8.8,0,0,1,.8.8.7.7,0,0,1-.8.8c-.7.1-2,.9-3.5.7L33,81.3h-.1c-.1.1.1-.3.1-.2v-.2h0"/><path class="cls-7" d="M35.2,77.5a.7.7,0,0,1-.9.6.8.8,0,0,1-.7-.9h.1c-.1-.1.1.2,0,.2s.3.2.2.1l.3.2c-.1-.1.3-.1.2,0h.2l-.2.2a8.6,8.6,0,0,0-.7,1c-.2.2-.3.4-.4.4v.2s-.1-.1,0-.1-.2-.3-.1-.2-.3-.2-.3-.2h.4l1.1-.3H36a.9.9,0,0,1,.5.3c.1.2.1.3.2.4a2.2,2.2,0,0,1-.1.8c-.2.5-.6.4-.7.5h-.6l-.6-.2H34c0,.1.1-.3.1-.2v-.3c0,.1-.2-.4-.1-.3s-.3-.2-.2-.2h.4l1.3-.3.8-.2h.3l.5.3a2.1,2.1,0,0,1,.2.6c0,.2-.1.3-.1.4a1.3,1.3,0,0,1-.6.5,4.1,4.1,0,0,1-2.7.7.7.7,0,0,1-.7-.9.7.7,0,0,1,.8-.7,5.3,5.3,0,0,0,1.8-.5h-.1s-.1.4-.1.3v.3c-.1-.1.2.3.1.2l.2.2h-.1a3.4,3.4,0,0,1-1.6.4h-1c-.2,0-.4,0-.7-.4a.9.9,0,0,1-.1-.7.5.5,0,0,1,.2-.4l.4-.2.7-.2a2.4,2.4,0,0,1,1.2,0l.7.2h-.4l-.2.3c.1-.1-.1.2,0,.2h0c-.1-.1.1.3,0,.2s.2.2.2.1h-.6l-1,.3H32.5a.9.9,0,0,1-.7-.4,1.8,1.8,0,0,1-.2-1l.3-.8.4-.5.9-1.1a1.7,1.7,0,0,1,1-.7.8.8,0,0,1,.6.2.7.7,0,0,1,.4.5,1.1,1.1,0,0,1,0,.8"/><path class="cls-8" d="M64.8,31.2a.9.9,0,0,1-.1,1.2.9.9,0,0,1-1.2-.2c-.1-.2-.1-.2-.1-.3s0-.2,0-.3V31c.2-.9.6-2,.9-3a6.6,6.6,0,0,1,.4-1.5,1.4,1.4,0,0,1,.7-.5,1.2,1.2,0,0,1,.9.4,3.6,3.6,0,0,1,.3.7c.1.5.3,1.2.4,1.9a21,21,0,0,0,.9,2.9.8.8,0,0,1,.2,1.2.9.9,0,0,1-1.1.2,3.2,3.2,0,0,1-1-1.8l-.6-2.2a14.6,14.6,0,0,0-.4-1.7.3.3,0,0,0-.1-.2h.2c-.1,0,.5.2.3.2s.5-.1.4-.1l.3-.2h.1l-.4,1.2c-.2.9-.6,2.1-.8,2.9v.3h0v-.2c0,.1-.1-.1-.1-.1v-.2m.9-5.2a.8.8,0,0,1,.5,1.5c-.1.1.2-.1.2,0s.1-.2.1-.2h.1c-.1,0,0-.1,0-.1h0A29,29,0,0,0,65.5,30a12.7,12.7,0,0,1-.4,1.4c0,.2-.1.4-.1.6s0,.1-.3.3a.8.8,0,0,1-1.1,0,.9.9,0,0,1,0-1.2v.4a4.3,4.3,0,0,0,.1-.5,13.1,13.1,0,0,0,.5-1.5c.4-1.1.8-2.2,1.1-2.8s0-.2.2-.4.1-.2.4-.3m1,1.1a.8.8,0,0,1-1,.6.9.9,0,0,1-.6-1h0s.1.2.1.1.1.3.1.2a.7.7,0,0,1,.2-1.1.7.7,0,0,1,1.1.2c.2.3.2.4.2.5s-.1.2-.1.3"/><path class="cls-8" d="M66.5,26.2a.8.8,0,0,1-.1,1.2.8.8,0,0,1-1.1-.1h.2c-.1,0,.5.2.3.2h.4l.3-.2s.2-.3.1-.2v-.2h0c0,.2.1.4.1.7a11.7,11.7,0,0,0,.9,2.4,5.9,5.9,0,0,0,.4.8l.2.2c0,.1-.1,0,0,0a.9.9,0,0,1-.8,1.5c-.7-.4-.9-1-1.3-1.8a13.3,13.3,0,0,1-1-2.8,2.5,2.5,0,0,1-.1-.8v-.3c0-.1-.1-.1,0-.4a1.4,1.4,0,0,1,.7-.5.9.9,0,0,1,.7.3"/><path class="cls-8" d="M65,32.7a.9.9,0,1,1-1.1-1.3c.1,0-.1.2-.1.2s-.1.1,0,0h0c0-.2.2-.7.3-1.2a15.9,15.9,0,0,1,.7-2l.3-.9.2-.2c.1-.1,0-.2.5-.4s.8.2,1,.5a.4.4,0,0,1,0,.5.4.4,0,0,1-.1.3,12.9,12.9,0,0,1-.9,1.6c-.2.6-.5,1.1-.6,1.5v.3s-.1-.2-.1-.1-.4-.3-.2-.3a.8.8,0,0,1,.4,1.1.8.8,0,0,1-1.1.4,1,1,0,0,1-.5-.4,1.1,1.1,0,0,1-.1-.5,1.4,1.4,0,0,1,.1-.9,6.7,6.7,0,0,1,.7-1.8,15.5,15.5,0,0,1,.8-1.5h0s.1.5.1.3.2.3.1.3.3.2.2.1h1a2.4,2.4,0,0,0-.3.7l-.6,1.9a7.5,7.5,0,0,1-.5,1.6c-.1,0-.1.1-.2.2m.7-5.4a1,1,0,0,1,1.2.3.8.8,0,0,1-.3,1.1c-.1,0,0,0,0,.1a14.4,14.4,0,0,0-.8,1.7c-.2.5-.3.9-.4,1.2a.8.8,0,0,0-.1.4h0s-.1-.3-.1-.2h0a.8.8,0,0,1-1.5.5h0V32c0-.1.1-.2.1-.3a1.1,1.1,0,0,1,.1-.5l.5-1.3a3.5,3.5,0,0,1,.6-1.4,2,2,0,0,1,.8-1.2"/><path class="cls-8" d="M64.6,31.5a.7.7,0,0,1,.8.7.8.8,0,0,1-.8.9s-.1.1-.4-.1-.3-.1-.4-.4a1.3,1.3,0,0,1,.1-.9h.2c.2-.2.3-.2.4-.2l.7-.2.7-.2h1.5l-.6,1.6c-.1-.1.5,0,.4,0s.3-.1.2,0h0l-.5.3a2.3,2.3,0,0,1-1.1.2H64.3c-.1,0-.2,0-.4-.2a1.2,1.2,0,0,1-.2-1,.8.8,0,0,1,.8-.5h.4a.9.9,0,0,1,.9,0c.2,0,.3.2.4.4s.2.3.2.5a1.1,1.1,0,0,1-.2.6.8.8,0,0,1-1.1.3.8.8,0,0,1-.4-1.1h.1c0-.1-.1.2-.1.1s.1.2,0,.2.2.3.1.2.3.2.2.2h0c-.1,0,.2-.3.2-.2s.1-.3,0-.2-.1-.6,0-.5l-.2-.3h-.2s-.2-.1-.1-.1h1.9a.1.1,0,0,1,.1-.1s.1-.3.7-.1a.9.9,0,1,1-.6,1.6c-.1-.1.2,0,.2,0h-.8l-.6.2L65,33h-.1s.2-.1.1-.1.2-.1.1,0,.2-.3.2-.2.1-.4.1-.3-.1-.4,0-.3-.3-.5-.2-.4-.3-.2-.3-.2-.2,0-.2,0h-.1"/><path class="cls-8" d="M65.1,56.1a.8.8,0,0,1-1.1,0,.9.9,0,0,1,0-1.2h.3c.5-.2.4-.1.6-.1h3a1.2,1.2,0,0,1,1.2.5c.1,0-.2-.2-.2-.2h0a.6.6,0,0,1,.5.5.7.7,0,0,1-.4,1,.8.8,0,0,1-1.1-.4c0-.1.2.3.1.2l.3.2h.1c0-.1.1,0,.1,0h-.4l-.9.3a.8.8,0,0,1-1.2-.1.8.8,0,0,1,.1-1.1,3.4,3.4,0,0,1,1.7-.7h.9c.2,0,.5-.2.7.5l-1.5.6c0-.1.2.3.2.2l.2.2c-.1,0,.1.1.1,0s0,.1,0,0a.5.5,0,0,1-.5-.3c-.1,0,.1.2.1.1s.1.1,0,.1H64.9c-.1,0,.3-.3.2-.2m-.2-1.3a.7.7,0,0,1,.7.9c0,.4-.5.7-.9.7h-.5l-.3-.3a.8.8,0,0,1,.2-1.1.8.8,0,0,1,1.1.1c.1.1-.2-.2-.2-.1s-.1-.1-.1-.1h0"/><path class="cls-8" d="M63.3,56.7a.8.8,0,0,1-.2-1.2.8.8,0,0,1,1.1-.1c.5.3.3.3.3.3h.1a9.2,9.2,0,0,0,.3.9c.5.8,1,1.9,1.5,2.8a7.5,7.5,0,0,1,.7,1.2c.1.1.1.3.2.4s.2.3.1.7a.8.8,0,0,1-1,.6.8.8,0,0,1-.6-.9v.2h0l-.2-.4a4.1,4.1,0,0,0-.6-1.1c-.5-.9-1.1-2-1.5-2.9a4.5,4.5,0,0,1-.5-1h.1l.2.2m1.3-.6a.8.8,0,1,1-1.6.4c0-.2-.1-.2-.1-.4s0-.1.1-.4a.7.7,0,0,1,1-.4.7.7,0,0,1,.5,1c0,.1.1-.3.1-.2h0v.2"/><path class="cls-8" d="M69.2,56.6c.1.5-.3.8-.8.8a.8.8,0,0,1-.8-.8h.1c-.1,0,.2.3.1.2l.3.2c-.1-.1.3,0,.3,0s.1-.1.1,0h.1l-.4.5a12.1,12.1,0,0,0-1.4,2l-.4.7h0s-.2-.4-.2-.3l-.4-.2h-.2a.9.9,0,0,1,1,.6.8.8,0,0,1-.7,1,1,1,0,0,1-1-.6.6.6,0,0,1,0-.7,6.9,6.9,0,0,1,.4-1c.5-.7,1-1.5,1.6-2.2a3.2,3.2,0,0,1,.8-.9h.5a.7.7,0,0,1,.7.2c.4.3.3.6.3.9"/><path class="cls-8" d="M67,57.8a.9.9,0,0,1-1,1.4c-.2-.2-.2-.3-.2-.3h-.1v-.2c-.1,0-.1-.1-.1-.2l-.6-.9-.3-.2h.4c-.1,0,.3-.2.3-.1s.2-.3.2-.2.1-.2,0-.2.1-.1.1-.1h0v.3a6.3,6.3,0,0,0,.8,1.7,3.5,3.5,0,0,1,.9,1.7c.1.4-.3.8-.7.9a.7.7,0,0,1-.9-.7,9,9,0,0,1-1.7-3.3,1.1,1.1,0,0,0-.1-.5,1.8,1.8,0,0,1,.2-.9c.2-.1.4-.3.6-.3s.4,0,.5,0l.5.3.4.5a5.9,5.9,0,0,1,.8,1.1c.1.1.1.3.2.4h0s-.1-.1,0-.1-.1-.1-.1,0-.2-.2-.1-.2m-.9-.9a.8.8,0,0,1-.5,1,.9.9,0,0,1-1.1-.5h0s.1.1.1,0,.1.1,0,.1h.8l.3-.2c-.1.1.1-.2.1-.2h0c.1,0,.2.2.4.4l.3.2h.1a.8.8,0,0,1-.2,1.6,2.1,2.1,0,0,1-1.3-.7,2.4,2.4,0,0,1-.9-1.2v-.6a.8.8,0,0,1,.5-.7.9.9,0,0,1,.7,0l.4.3c.2.1.2.3.3.5"/><path class="cls-8" d="M68.3,58a.8.8,0,0,1-.9.8c-.4-.1-.8-.5-.7-.9v-.2h0l.2.3s.3.2.2.2.4,0,.3,0h.7a5,5,0,0,0-.4,1.3,10.9,10.9,0,0,0-.5,1.7,1.4,1.4,0,0,0-.2.6.3.3,0,0,0-.1.2c0,.1.2.1-.3.4a.8.8,0,1,1-1-1.2c0-.1-.2.2-.2.1s0,.1,0,.1l.7-2.4a13.1,13.1,0,0,1,.5-1.5v-.2c.1-.1.1-.2.3-.3a1.2,1.2,0,0,1,1,.1c.4.4.3.6.3.7V58"/><path class="cls-7" d="M75.1,25.8a.4.4,0,0,1,.6,0,.5.5,0,0,1,0,.5,6.2,6.2,0,0,0-1.5,2.9,17.5,17.5,0,0,0-.7,2.6.5.5,0,0,1-.5.3c-.2-.1-.4-.3-.3-.5a21.5,21.5,0,0,1,.7-2.6,7.5,7.5,0,0,1,1.7-3.2"/><path class="cls-7" d="M71.2,26.2c-.2-.1-.2-.4-.1-.6s.4-.2.6-.1h-.1c0,.1-.1,0-.1,0h.3a6.6,6.6,0,0,0,1.9-.1,31.6,31.6,0,0,0,3.2-.3h1.3a2.2,2.2,0,0,1,1.1.5.4.4,0,1,1-.7.5l-.5-.2H77l-3.3.4H71.5a.1.1,0,0,0-.1-.1s0,.1-.2,0m.7-.8a.4.4,0,0,1,.4.4c0,.3-.2.5-.4.4h-.3a.4.4,0,0,1-.5-.2c-.1-.2-.1-.4.1-.5h.7"/><path class="cls-7" d="M70.6,31.8c.2-.1.5-.1.6.1s.1.4,0,.5h-.1v-.2c0,.1-.1-.3-.1-.2h.2c.6-.1,1.3-.4,2.2-.5a6.2,6.2,0,0,1,2.7.1.5.5,0,0,1,.3.5c-.1.3-.3.4-.5.3s-3.3.1-4.4.4a1.1,1.1,0,0,1-.8.1h-.2c-.1-.1-.3-.3-.2-.5a.5.5,0,0,1,.2-.4"/><path class="cls-7" d="M80.8,35.4c-.2.1-.5.1-.6-.1s-.1-.4.1-.6h-.1s-.1.1,0,.1V33.4a12.1,12.1,0,0,1,0-1.9,1.7,1.7,0,0,1,.1-.7,1.4,1.4,0,0,1,.5-.8.9.9,0,0,1,.7,0l.4.2a1.1,1.1,0,0,1,.6.7,2.2,2.2,0,0,1,.1.8,4.9,4.9,0,0,1-.5,1.7.8.8,0,0,0,.1.4,4.7,4.7,0,0,0,1,.9.5.5,0,0,1,.2.6.5.5,0,0,1-.6.1,5,5,0,0,1-1.3-1.1,1.5,1.5,0,0,1-.2-1.1,6,6,0,0,0,.5-1.4c0-.3-.1-.5-.1-.7l-.2-.2h-.3s-.1,0-.1.2-.1.3-.1.6v2.9c0,.3.1.5-.1.8s-.1,0-.1.1m0-3.6c.2,0,.5,0,.6.2a.4.4,0,0,1-.2.6c-.1,0,.1-.1.1-.1h0c0,.1-.1.2-.1.3s-.1.5-.2.8-.1.5-.1.7v.5h-.2c.2.2.3.4.1.6a.3.3,0,0,1-.5.1.1.1,0,0,1-.1-.1c-.1-.1-.1-.1-.1-.2v-.3a.6.6,0,0,1,0-.6c0-.3.1-.5.1-.8a2.9,2.9,0,0,0,.2-.9.4.4,0,0,0,.1-.3l.3-.4"/><path class="cls-7" d="M85.6,35.4c.1.2-.1.4-.3.5s-.4-.1-.5-.3a1.2,1.2,0,0,1,.3-1l.7-.6.7-.4H87a.5.5,0,0,1,.3.4,1.1,1.1,0,0,1,.2.8,2.8,2.8,0,0,1-.3,1.8c-.1.2-.4.2-.6.1a.5.5,0,0,1-.1-.6,3.3,3.3,0,0,0,.2-1.2c0-.3,0-.5-.1-.6h.1l-.5.3-.5.4c-.1.2-.1.2-.1.3"/><path class="cls-7" d="M75.5,55a.5.5,0,0,1-.4.5.5.5,0,0,1-.5-.4h.5c0,.1-.1.1-.1.3a7.9,7.9,0,0,0-.7,2.3,10.5,10.5,0,0,0-.2,1.3H74c.1.1-.2-.1-.1-.1s-.3,0-.2,0-.2.1-.1,0h-.1c0-.1.1-.1.1-.2s.4-.3.6-.1.3.3.1.5-.1.2-.2.3-.1.2-.3.2h-.4a.3.3,0,0,1-.1-.2V59a6.9,6.9,0,0,1,.2-1.3,8.8,8.8,0,0,1,.8-2.6l.4-.6h.6l.2.4"/><path class="cls-7" d="M72.4,53.6a.5.5,0,0,1,.5.4.4.4,0,0,1-.4.4H72s.2-.1.1-.1.1-.1.1,0,.1-.2,0-.1v-.2h0c0,.1-.2-.2-.1-.2s-.2-.1-.1-.1h.4l3.4-.4h1.7a2.5,2.5,0,0,1,1.3.5.5.5,0,0,1-.1.6.5.5,0,0,1-.6-.1h-.6a8.5,8.5,0,0,0-1.6,0l-3.5.4c-.3,0-.5.1-.7,0a.1.1,0,0,1-.1-.1.2.2,0,0,1-.2-.2c-.1-.2.1-.4.1-.5h.1c.1,0,.2,0,.2-.1h.5"/><path class="cls-7" d="M70.4,60.4a.6.6,0,0,1,0-.6c.2-.2.5-.2.6,0h.4l1.4-.3a6.6,6.6,0,0,1,3.9.2.4.4,0,0,1,.2.5.5.5,0,0,1-.5.3,6,6,0,0,0-3.5-.2l-1.4.3H71l-.6-.2"/><path class="cls-7" d="M80.4,62.6c.2,0,.3.2.3.5s-.2.3-.5.3-.3-.3-.3-.3h0v-.2a1.1,1.1,0,0,1-.1-.5V60.1a4.1,4.1,0,0,1,0-1.1l.3-.4h.4a1.1,1.1,0,0,1,.8.2,1.8,1.8,0,0,1,.8.9,1.9,1.9,0,0,1,.3,1,2,2,0,0,1-.2.9v.6s0-.1.1,0a2.2,2.2,0,0,1,1,1,.4.4,0,0,1-.2.5.5.5,0,0,1-.6-.2l-.4-.5a.9.9,0,0,1-.6-.6,1.6,1.6,0,0,1-.1-1,1.8,1.8,0,0,0,.1-.6,2.2,2.2,0,0,0-.1-.8l-.5-.5h-.3v.8a16.2,16.2,0,0,0,.1,2.2v.6h0c0,.1-.1-.1-.1,0s-.1-.2,0-.1h-.2m.7-3.6a.4.4,0,0,1,.5.2c.1.2.1.5-.1.6l-.2.4a1.4,1.4,0,0,0-.3.9,4.4,4.4,0,0,0-.2,1v.6c0,.1-.1.2-.1.3h0a.1.1,0,0,1-.1.1h0a.4.4,0,0,1-.6-.6h-.1A1.5,1.5,0,0,0,80,62a3.6,3.6,0,0,1,.2-1l.3-1.1a1.5,1.5,0,0,1,.6-.9"/><path class="cls-7" d="M85,62.9c-.2.1-.4-.1-.4-.3s.1-.5.4-.5a1.5,1.5,0,0,1,1.2.7,1,1,0,0,1,.3,1c-.1.5-.5.7-.7.9l-.5.3v-.2h.9a1.5,1.5,0,0,1,1.6.6c.2.1.1.4,0,.5a.4.4,0,0,1-.6-.1c-.2-.2-.5-.2-.9-.2s-.9.2-1.4-.1a.8.8,0,0,1-.4-.4v-.3a.6.6,0,0,1,.1-.4l.5-.3.5-.5a.4.4,0,0,0-.1-.3l-.6-.4"/><path class="cls-8" d="M119.8,53.9a.6.6,0,0,1-.1.6c-.2.1-.5.1-.6-.1a1.2,1.2,0,0,1-.2-.8,7.9,7.9,0,0,1-.1-4.1,4,4,0,0,1,1-1.7,1,1,0,0,1,.7-.4c.2-.1.4,0,.7.1a1.8,1.8,0,0,1,.9,1,3.3,3.3,0,0,1-.3,2,2.6,2.6,0,0,0-.3.7,3.1,3.1,0,0,0,.2.8l.4.4.4.9a.5.5,0,0,0,.4.5.6.6,0,0,1,.1.6.5.5,0,0,1-.6.1,1.8,1.8,0,0,1-.7-.9l-.3-.7c0-.1-.2-.3-.4-.5a1.9,1.9,0,0,1-.3-1.3,1.5,1.5,0,0,1,.3-.8,3.3,3.3,0,0,0,.3-1.5,1,1,0,0,0-.5-.6h-.4a3.7,3.7,0,0,0-.8,1.4,8.9,8.9,0,0,0,.1,3.7,1.2,1.2,0,0,0,.1.5m-.3-5c.2-.2.4-.3.6-.2a.4.4,0,0,1,.1.6,20.7,20.7,0,0,0-.3,2.6,6.1,6.1,0,0,1-.1,1.4c0,.3.1.5,0,.7h0a.1.1,0,0,1,.1.1.7.7,0,0,1-.5.4c-.2-.1-.4-.2-.4-.5h0v-.8c0-.4.1-.9.1-1.5a6.2,6.2,0,0,1,.4-2.9"/><path class="cls-8" d="M125.2,53a.4.4,0,1,1,0-.8,3.9,3.9,0,0,1,1.4.2l.4.5a.6.6,0,0,1,0,.6c-.1.8-.9,1.2-1.1,1.6s-.1.1-.1.2h.9a1.9,1.9,0,0,1,1.8.3c.2.1.2.4,0,.6a.6.6,0,0,1-.6,0h-2.3a.5.5,0,0,1-.4-.3.8.8,0,0,1-.2-.5,1.1,1.1,0,0,1,.2-.6c.4-.7,1-1.2,1-1.4h0c-.2-.2-.7-.2-1-.2"/><path class="cls-8" d="M120.3,6.8c.2,0,.3.2.3.4s-.2.4-.5.4h0c-.3-.1-.3-.3-.4-.4a.4.4,0,0,0-.1-.3,3.7,3.7,0,0,0-.2-.9,10.5,10.5,0,0,1,0-2.5A4.7,4.7,0,0,1,121,.2l.8-.2a1.2,1.2,0,0,1,.8.4,1.9,1.9,0,0,1,.5,1,4,4,0,0,1,0,1.1,1.6,1.6,0,0,1-.5.8c-.3.5-.6.7-.7.9v.7a9.3,9.3,0,0,0,.5,1,8.5,8.5,0,0,0,1.4,1.7.6.6,0,0,1,0,.6c-.2.2-.5.2-.6,0a18.1,18.1,0,0,1-1.5-1.9l-.6-1.2a1.7,1.7,0,0,1,.1-1.2,3.9,3.9,0,0,1,.8-1c.1-.3.3-.5.3-.6s0-.5,0-.7L122,.9h-.5a3.8,3.8,0,0,0-1.3,2.7,8.9,8.9,0,0,0,.1,2.3c0,.3.1.6.1.8v.2h-.2m-.1-5a.4.4,0,0,1,.5-.1c.2.2.3.4.1.6a8.3,8.3,0,0,0-.2,2.6V7.1h0v.2h-.2a.5.5,0,0,1-.6-.1.5.5,0,0,1,.2-.6h-.2c.1-.1,0,.1,0,.1h0V4.9c0-1.1-.2-2.3.4-3.1"/><path class="cls-8" d="M126.1,7.7a.3.3,0,0,1-.5.3c-.2,0-.3-.3-.3-.5a5.3,5.3,0,0,1,1.2-1.7l1.1-.8h.6a.5.5,0,0,1,.5.3,1.2,1.2,0,0,1,.1,1.3,8.5,8.5,0,0,1-.3,2,.5.5,0,0,1-.5.4c-.2-.1-.4-.3-.3-.5a10.6,10.6,0,0,0,.3-2c0-.2.1-.3.1-.5V5.7h-.2l-.8.6a6.4,6.4,0,0,0-1,1.3"/><path class="cls-8" d="M230.1,26.1a.5.5,0,0,1,.6-.2.4.4,0,0,1,.1.6,6.7,6.7,0,0,0-.3,2.7v2.2h0c0,.1,0,.2-.1.2s-.4.2-.5.1a.5.5,0,0,1-.3-.4.4.4,0,0,0-.1-.3,1.3,1.3,0,0,0-.1-.6,12.4,12.4,0,0,1-.1-2.8,5,5,0,0,1,1.5-3.5,1.3,1.3,0,0,1,1.3-.3,2.2,2.2,0,0,1,.9,1,2,2,0,0,1-.1,1.5l-.8,1.2a2.5,2.5,0,0,0-.5.8.6.6,0,0,0,.1.4l.4.6a2.1,2.1,0,0,1,.7,1.9c0,.2-.2.4-.4.3s-.4-.2-.4-.5a1.3,1.3,0,0,0-.5-1.2,1.8,1.8,0,0,1-.5-.7,1.2,1.2,0,0,1-.2-1,6,6,0,0,1,.6-1.1,4.1,4.1,0,0,0,.7-1.1.8.8,0,0,0,.1-.8.7.7,0,0,0-.4-.5c-.1-.1-.3-.1-.5.1a4.6,4.6,0,0,0-1.2,3,20.1,20.1,0,0,0,.1,2.6,1.3,1.3,0,0,1,.1.6v.2h0s-.1-.1,0-.1h-.2c0,.1-.3.1-.2,0h-.2c.1,0-.1.2-.1.1h0V29.2a7.8,7.8,0,0,1,.4-3.1"/><path class="cls-8" d="M235.6,29.6a.4.4,0,0,1-.3.5.5.5,0,0,1-.5-.3,1.5,1.5,0,0,1,.1-.7.8.8,0,0,1,.4-.4,2.2,2.2,0,0,1,1.1-.5l.8.2.5.6a1.2,1.2,0,0,1,.1,1,1,1,0,0,1-.4.8.5.5,0,0,1-.2.4h0l.2.2.5.7a1.9,1.9,0,0,1,.2.8,1,1,0,0,1-.4.7,2,2,0,0,1-.8.4l-1.1-.2a.5.5,0,0,1-.3-.5c.1-.2.3-.4.5-.3s.6.2.8.1h.4v-.2c0-.1-.1-.2-.1-.3s-.3-.3-.5-.5-.4-.5-.3-.9.3-.5.3-.6a.9.9,0,0,0,.3-.6v-.4l-.3-.3h-.2l-.7.3-.2.2h0"/><path class="cls-8" d="M114.1,81.4a.4.4,0,0,1,0,.6h-.6c-.1-.2-.2-.3-.2-.5a.9.9,0,0,1,.1-.5,2.2,2.2,0,0,1,.7-.6,3.9,3.9,0,0,1,1.1-.6l.5-.2.6-.3h.3a.5.5,0,0,1,.4.2.6.6,0,0,1-.1.6,10,10,0,0,1-.8,1.4,7.1,7.1,0,0,0-.9,3.1.8.8,0,0,1,.1.4h.4a9.3,9.3,0,0,0,2-2l1-1.2.5-.2h.2c.1,0,.2,0,.2.1a.4.4,0,0,1,.2.4,3.1,3.1,0,0,1-.5,1,7.4,7.4,0,0,0-.4,1.4v.4h1l1.3-.7c.2-.2.4-.1.6,0s.1.5-.1.6a4.2,4.2,0,0,1-1.6.9,2.9,2.9,0,0,1-1.6-.1.8.8,0,0,1-.4-.6v-.6a6.4,6.4,0,0,1,.5-1.7l.3-.7s.1.1,0,.1h.1l.2.2c0-.1.2-.1.2,0s0-.1,0-.1a.1.1,0,0,1-.1.1l-1,1.1c-.7.8-1.3,1.9-2.3,2.3a1.4,1.4,0,0,1-.9,0,.7.7,0,0,1-.5-.4,2.5,2.5,0,0,1-.2-.7,7.6,7.6,0,0,1,1-3.6c.3-.6.7-1,.8-1.3h0c0-.1.2.1.1.1h.3l-.6.2-.5.3-1,.4-.4.4h0"/><path class="cls-8" d="M125.1,84.3a.5.5,0,0,1,.6.2.4.4,0,0,1-.2.5h-.2s-.1.1-.3,0a.4.4,0,0,1-.2-.4c.1-.3.2-.3.2-.4l.7-.6a2.7,2.7,0,0,1,1.2-.6.7.7,0,0,1,.6.1,1,1,0,0,1,.5.4,2,2,0,0,1,0,1.7,15.5,15.5,0,0,1-.4,1.5.4.4,0,0,1-.6.3c-.2,0-.3-.3-.2-.5s.3-1,.4-1.5a2.3,2.3,0,0,0,.1-1.1H127l-.8.4-.6.5h0c0,.1-.2-.2-.1-.2s-.2-.1-.1-.1-.2,0-.2,0h-.1c.1,0,0,.1,0,.1h0"/><path class="cls-8" d="M228.8,81.2a.5.5,0,0,1-.5.4.3.3,0,0,1-.3-.5,1.6,1.6,0,0,1,.8-1.2l.6-.6.6-.6a.7.7,0,0,1,.6-.3h-.1l.5.7h0a15.1,15.1,0,0,0-.9,1.6,5.5,5.5,0,0,0-.8,1.8,1,1,0,0,0-.1.4c0,.1-.1-.1-.1,0s0-.1,0-.1h.6a18.6,18.6,0,0,0,2-1.4l.9-.7.6-.2h.3l.4.3a.6.6,0,0,1-.1.6c0,.1-.1.2-.2.3l-.4.6a4.2,4.2,0,0,0-.6,1.5h.3a8.9,8.9,0,0,0,2.3-1.1c.2-.2.4-.1.6.1a.7.7,0,0,1-.1.6,7.4,7.4,0,0,1-2.7,1.2h-.9l-.3-.4a.4.4,0,0,1,0-.5,4.7,4.7,0,0,1,.7-1.7l.5-.7c0-.1.1-.1.1-.2h0c0-.1.2.1.1.1h-.1l-.9.6a8.6,8.6,0,0,1-2.2,1.5,1.2,1.2,0,0,1-.8.2h-.4a.8.8,0,0,1-.4-.4,1.4,1.4,0,0,1,.1-.9,9.5,9.5,0,0,1,.9-2.1l.6-1c.2-.3.2-.6.5-.8a.6.6,0,0,1,.6.1c.1.2.1.5-.1.6h0l-.3.2h0l-.8.7-.5.6a1.5,1.5,0,0,0-.6.7"/><path class="cls-8" d="M238,82.7a.4.4,0,0,1,.3-.7l1.3.6a.8.8,0,0,1,.4.7,1,1,0,0,1-.2.7c-.3.3-.7.2-.8.3h-.1c.1.1.1.3.2.4l.2.2a1.4,1.4,0,0,1,.2.6.7.7,0,0,1-.1.6l-.6.3h-2a.6.6,0,0,1,0-.6c.4-.4.9-.3,1.3-.4h.6v-.2q-.1,0-.3-.3c-.1-.2-.2-.3-.2-.5a.7.7,0,0,1-.1-.6,1.1,1.1,0,0,1,.7-.6h.4c0-.1,0-.1-.1-.2a4.8,4.8,0,0,1-1.1-.5"/><path d="M158.8,98c-.1.2-.3.2-.5.1a.4.4,0,0,1-.2-.5,2.9,2.9,0,0,1,.6-1,1,1,0,0,1,.4-.5l.4-.2h.4c.1,0,.2.2.2.3a1.1,1.1,0,0,1-.3.8l-.4.8a7.1,7.1,0,0,0-.7,2.3.3.3,0,0,1,.1.2h.3a11.3,11.3,0,0,0,2.3-2l1.3-1.3a1.3,1.3,0,0,1,.6-.4h.3l.2.2a.8.8,0,0,1,.1.4,14.2,14.2,0,0,1-.8,1.8,3.6,3.6,0,0,0-.3.7c0,.2.1.2.1.3h.5l1.2-.3a.4.4,0,0,1,.5.2.5.5,0,0,1-.3.6l-1.4.3a1.5,1.5,0,0,1-1-.3,1.1,1.1,0,0,1-.4-.9,1.9,1.9,0,0,1,.3-1c.3-.7.7-1.4.8-1.6h0c0-.1.2.2.2.1s.1.1.1.1.1-.1,0-.1h.1l-.3.2L161.9,99a8,8,0,0,1-2.5,2.1,1.2,1.2,0,0,1-1,0c-.1,0-.3-.2-.4-.4a4.3,4.3,0,0,1-.1-.5,8.8,8.8,0,0,1,.8-2.7c.1-.3.3-.5.4-.8v-.2h.1s.1.2.1.1.2.1.1.1h.1l-.2.4a4.5,4.5,0,0,0-.6.9"/><path d="M169.6,98.4c.3.1.4.3.3.5a.5.5,0,0,1-.5.3c-.1-.1-.1,0-.3,0l-.5.3-.4.4a.4.4,0,0,0-.1.3H168c.1.1-.2-.2-.1-.2h-.1l.5-.2c.3-.2.5-.5,1-.5a.3.3,0,0,1,.4.2v1c-.1.5-.1,1.3-.2,1.9a7.5,7.5,0,0,1-.2,2.1c-.1.4-.5.6-.8.8a2.2,2.2,0,0,1-1.1.1,1.2,1.2,0,0,1-.9-.8,2.2,2.2,0,0,1,.3-1.5.4.4,0,0,1,.5-.2.5.5,0,0,1,.2.6c-.2.4-.3.7-.2.8s.1.2.3.3h.6l.4-.3c.1-.3,0-1,.1-1.9a11.1,11.1,0,0,1,.2-1.9v-.5h.1c-.1-.1.1.1.1,0h.1l-.6.4-.6.2h-.5a.4.4,0,0,1-.3-.2.6.6,0,0,1,0-.6c0-.2.1-.3.2-.5l.6-.6.8-.4c.2,0,.5-.1.7,0"/><path d="M173.6,99.2a.3.3,0,0,1,.3.5c0,.2-.2.3-.4.3a.6.6,0,0,0-.7.3,1.1,1.1,0,0,0-.3.8,2.4,2.4,0,0,0,.3.7h.4l.5-.2a.5.5,0,0,1,.6.2.4.4,0,0,1-.2.5,1.6,1.6,0,0,1-.9.3l-.8-.2a2.1,2.1,0,0,1-.7-1.3,2.3,2.3,0,0,1,.4-1.4,1.6,1.6,0,0,1,1.5-.6"/><path d="M174,99.7c.2-.1.4.1.5.3a.5.5,0,0,1-.3.5c-.5.1-.7-.2-.8-.2h.4c-.1.1.1-.2.1-.2h0a.3.3,0,0,1,.1.2c.1.2.1.5-.1.6a.5.5,0,0,1-.6-.2,1.4,1.4,0,0,1-.2-.6c0-.1,0-.4.2-.5h.4l.3.2h0"/><path d="M177.5,99.3c.2.2.1.4-.1.5s-.4.1-.5-.1h-.1v.2c0,.2.3.5.5.9a1.4,1.4,0,0,1,.1.9c-.1.3-.4.5-.8.7s-.4.1-.5-.1-.1-.5.1-.6a.7.7,0,0,0,.4-.3c.1-.1.1-.1,0-.2s-.5-.6-.6-1.2-.1-.2,0-.3,0-.4.2-.5a.7.7,0,0,1,.6-.3.7.7,0,0,1,.7.4"/><path d="M178,98.9a.3.3,0,0,1,.3.5c0,.2-.2.3-.5.3l-.7.2v.3c0,.2.1.5.1.7a1.7,1.7,0,0,1-.1,1.4.9.9,0,0,1-.7.3,2,2,0,0,1-1-.2.4.4,0,0,1-.2-.5.4.4,0,0,1,.6-.2h.6a.8.8,0,0,0,0-.7c0-.3-.1-.5-.1-.8a1.1,1.1,0,0,1,.2-.8,1.4,1.4,0,0,1,1.5-.6"/><path d="M185.9,99a.4.4,0,0,1,0-.8,9.7,9.7,0,0,1,3.4,0c.3,0,.4.2.3.4a.4.4,0,0,1-.4.4,9.1,9.1,0,0,0-3.3,0"/><path d="M186.7,100.1a.4.4,0,0,1,0,.8h0s.1-.1.1,0h.1c-.1,0,.1-.3.1-.2s-.1-.3,0-.2h.1a3.4,3.4,0,0,0,1.3-.2c.2-.1.4,0,.5.3a.4.4,0,0,1-.2.5,3.7,3.7,0,0,1-1.7.2h-.8a.4.4,0,0,1,.1-.5h.4"/><path d="M193.5,100.6a.3.3,0,0,1,0,.5.5.5,0,0,1-.6,0,.4.4,0,0,1,0-.6v-.2l.5-.6,1.6-1.5a12.9,12.9,0,0,1,1.8-1.6l.7-.5h.4l.4.3a1.3,1.3,0,0,1,.1.6,10.5,10.5,0,0,1-.8,2.9,3.7,3.7,0,0,0-.1.8h-.1l.5-.2a.4.4,0,0,1,.5.2.3.3,0,0,1-.1.5l-.8.3a.8.8,0,0,1-.7-.3,2.2,2.2,0,0,1,0-1.4,17.8,17.8,0,0,0,.8-2.7v-.2h.2l-.5.4-1.8,1.6-1.5,1.5-.4.5a.1.1,0,0,0-.1.1h-.1"/><path d="M202.5,97.2c-.3,0-.5-.1-.5-.3a.4.4,0,0,1,.2-.5l1.2-.3h.7a.8.8,0,0,1,.5.5,1.1,1.1,0,0,1,0,.8l-.5.7-1.2,1.4-.8,1-.2.4h-.2c.1.1.4,0,.7,0a2.4,2.4,0,0,1,1.4.3c.1.2.2.4,0,.6a.3.3,0,0,1-.5.1c-.2-.2-.5-.2-.9-.2a1.1,1.1,0,0,1-1.1-.1.5.5,0,0,1-.2-.4c-.1-.1,0-.2,0-.3l.3-.6.9-1.2,1.2-1.3c.1-.2.3-.4.3-.6h-.3l-1,.2"/><path d="M209.1,96.7a.4.4,0,0,1,.5.2.4.4,0,0,1-.3.5h.1s.1-.1.1,0h0c-.1,0-.1.1-.1.2a2.4,2.4,0,0,0-.2.9,19.7,19.7,0,0,0-.3,2.4,2.8,2.8,0,0,0,.1,1h-.1s0-.1.2-.2l.5-.5,1.5-1.7a25.5,25.5,0,0,1,3.1-2.9c.2-.1.5-.1.6.1s.1.5-.1.6a14.6,14.6,0,0,0-3,2.8l-1.5,1.7-.6.6a1.9,1.9,0,0,1-.8.3l-.4-.2-.2-.3a3.2,3.2,0,0,1-.1-1.4,10.5,10.5,0,0,1,.3-2.4,3,3,0,0,1,.2-1c0-.2.1-.3.1-.4a.7.7,0,0,1,.4-.3"/><path class="cls-7" d="M6.9,75.8c-.1.2-.4.2-.6.1s-.2-.4-.1-.6h.1c.1,0,.3-.1.4,0a.4.4,0,0,1,.3.4c0,.2-.1.1-.1.2h0l-.3.8-.8,2.2-.7,2a1.6,1.6,0,0,1-.3.6H4.7s0,.2-.3.2l-.3-.2c-.2-.3-.1-.3-.1-.3H4a.5.5,0,0,1,.5-.4c.2.1.4.3.3.5h0s-.1-.1,0-.1-.2-.1-.1-.1H4.5c.1,0-.2,0-.1-.1H4.1l.2-.5a15,15,0,0,0,.7-2l.8-2.2.3-.7v-.2h0s.1.1,0,.1.1.1.1.1.2.1.1.1h.5c-.1,0,.1-.1.1-.1h0"/><path class="cls-7" d="M2.8,75.4c.2.1.2.4.1.6s-.3.2-.5.1a1.8,1.8,0,0,1-.8-.5c-.1,0-.2-.2-.2-.4a.4.4,0,0,1,.1-.3h.2c.2-.2.5-.1.8-.1h.9c1.5,0,3.4-.5,5.1-.7a9.1,9.1,0,0,1,2.3-.1l.8.3a1,1,0,0,1,.5.8c0,.3-.1.5-.3.5s-.5-.1-.5-.3-.1-.2-.2-.3l-.5-.2a7.2,7.2,0,0,0-2,.1,49.7,49.7,0,0,1-5.2.7H2.1c0,.1.1-.3.1-.2H2.1c.1,0,0-.1,0-.1l.7.4"/><path class="cls-7" d="M.8,82.6c-.1.3-.3.4-.5.3s-.3-.3-.3-.5.1-.2.2-.2.2-.1.3-.1H.8l2.7-.4a21.1,21.1,0,0,0,4-.7.5.5,0,0,1,.5.3c0,.3-.1.5-.3.5a23.5,23.5,0,0,1-4.1.7L1,82.8H.6s.1-.1.1,0,.1-.1,0-.1v-.2m.1-.5c.2-.1.4.1.4.3s-.1.4-.3.5H.4c-.1,0-.2.1-.3-.1a.4.4,0,0,1,.1-.6.3.3,0,0,1,.5.1H.6c.1,0-.1-.1-.1-.1H.9"/><path class="cls-7" d="M13.6,81c.1.2-.1.4-.3.5a.5.5,0,0,1-.5-.4v.2c-.1-.1.1.1,0,.1H12l-.5.3h.1l.5-.2.6-.3H13l.3.2.2.5a17.7,17.7,0,0,1-.4,2,16.3,16.3,0,0,1-.5,3.5,2.3,2.3,0,0,1-1.2,1.2,2.3,2.3,0,0,1-1.4.1,1.6,1.6,0,0,1-1.1-1,3,3,0,0,1,.5-1.9.6.6,0,0,1,.6-.1.5.5,0,0,1,.1.6,2,2,0,0,0-.4,1.2.7.7,0,0,0,.5.4,1.5,1.5,0,0,0,.9-.1,1.2,1.2,0,0,0,.7-.7c.3-.7.2-2,.5-3.3s.4-1.6.4-1.9h0c0-.1.2.1.2.1s.1-.1.1-.1l-.5.3-.6.3c-.3.1-.5.2-.8,0l-.4-.3a.4.4,0,0,1-.1-.5,1.5,1.5,0,0,1,.3-.7,1.9,1.9,0,0,1,1-.5h1.5c.1,0,.2.1.2.3"/><path class="cls-7" d="M17.1,80.6c.2,0,.3.3.3.5a.5.5,0,0,1-.5.3c-.4-.1-.6.1-.9.3a2.1,2.1,0,0,0-.4,1.1c0,.1.1.3.1.4l.2.2c.3.2.8.1,1.6-.2s.4-.1.5.1a.5.5,0,0,1-.2.6,3,3,0,0,1-2.2.3,1.7,1.7,0,0,1-.6-.6,3.1,3.1,0,0,1-.2-.8,2.3,2.3,0,0,1,.6-1.6,2,2,0,0,1,1.7-.6"/><path class="cls-7" d="M17.7,80.8a.4.4,0,0,1,.2.5c0,.2-.3.3-.5.3h.4v.4a1.3,1.3,0,0,1-.1.6.3.3,0,0,1-.3.3H17c-.3-.1-.4-.3-.3-.5s.3-.4.5-.3H17c.1,0,0,.1,0,.1h0v-.8a.4.4,0,0,1,.1-.3c.1-.1.4-.3.6-.2"/><path class="cls-7" d="M21.6,81a.4.4,0,0,1-.5.2c-.2,0-.3-.3-.2-.5h0l-.3.5h0l.5.5a1.7,1.7,0,0,1,.5,1.2,2.1,2.1,0,0,1-1,1.4l-1.2.9a.4.4,0,1,1-.5-.7l1.2-.8c.4-.3.6-.6.6-.8a1.9,1.9,0,0,0-.2-.7,1.2,1.2,0,0,1-.5-.5.5.5,0,0,1-.2-.4.4.4,0,0,1,0-.5c.2-.3.3-.8.8-1a.8.8,0,0,1,.7,0c.2,0,.3.2.4.3a.7.7,0,0,1-.1.5"/><path d="M114.1,20.7a.4.4,0,0,1,.5.2.4.4,0,0,1-.2.6h-.5a.7.7,0,0,1-.5-.4.4.4,0,0,1,.1-.3,3.6,3.6,0,0,1,.9-.8,9.4,9.4,0,0,1,1.4-1.2l2.5-2.1,1.9-1.3.4-.2a.4.4,0,0,1,.5-.1.8.8,0,0,1,.4.4c0,.1.1.3,0,.4a2.9,2.9,0,0,1-.2.9,3.6,3.6,0,0,1-.8,1.2,12,12,0,0,0-.8,1.5v.3h.1c.2,0,.3.3.3.5a.5.5,0,0,1-.5.3,1,1,0,0,1-.6-.5,1.1,1.1,0,0,1,0-.8,5.6,5.6,0,0,1,.9-1.7l.8-1.1a1.5,1.5,0,0,0,.1-.6h.2l-.3.2-1.8,1.3-2.5,2.1-1.4,1.1-.7.6h.1c-.1.1,0-.1,0,0V21c.1.1-.2-.2-.1-.2h0"/><path d="M125.3,17.7a.4.4,0,0,1-.2.5.5.5,0,0,1-.6-.2h.1s.1.1,0,.1h0a4.3,4.3,0,0,0-.7,1,3,3,0,0,0-.3,1.1.8.8,0,0,0,.5.5h.9a5.4,5.4,0,0,0,1.7-1.9,2.4,2.4,0,0,0,.5-1.3l-.2-.2h-.7a2.5,2.5,0,0,0-1.7,1.4c-.2.2-.4.3-.6.2a.5.5,0,0,1-.2-.6,3.9,3.9,0,0,1,2.3-1.8,1.4,1.4,0,0,1,1.1-.1,1.1,1.1,0,0,1,.8.8,3.3,3.3,0,0,1-.6,2,5.2,5.2,0,0,1-2.2,2.2h-1.4a2.2,2.2,0,0,1-1-1.1,3.6,3.6,0,0,1,.3-1.7l.9-1.2.6-.3h.4a.3.3,0,0,1,.3.3"/><path d="M116.9,64a.3.3,0,0,1-.5,0c-.2-.1-.2-.4-.1-.6a2.2,2.2,0,0,1,1.2-.5,3.3,3.3,0,0,1,1.7-.1,2.8,2.8,0,0,1,1.6.5,1.4,1.4,0,0,1,.6.7,1.8,1.8,0,0,1-.3,1.3c-.3.5-.8.5-.9.6h-.1c-.1.1,0-.2,0-.2h0s-.1-.1,0-.1h.1c.1.1.3.2.4.4a2.2,2.2,0,0,1,.9,1.4,1.3,1.3,0,0,1-.5,1.3,3.5,3.5,0,0,1-1.2.7l-2.5.4a.4.4,0,0,1-.4-.4.4.4,0,0,1,.4-.4l2.3-.4.9-.5a.6.6,0,0,0,.2-.5,1.7,1.7,0,0,0-.6-1l-.4-.3-.3-.2v-.6a.5.5,0,0,1,.5-.3l.6-.3a2.5,2.5,0,0,0,.2-.7l-.3-.2a1.8,1.8,0,0,0-1.1-.4,3.7,3.7,0,0,0-1.5.1,1.2,1.2,0,0,0-.8.3"/><path d="M124.5,65.7c.2-.1.5-.1.6.1a.7.7,0,0,1-.1.6c-.2,0-.3.3-.4.5a1,1,0,0,0-.1.9.3.3,0,0,0,.1.2h.4a.9.9,0,0,0,.8-.2,2.8,2.8,0,0,0,1-.9,3.4,3.4,0,0,0,.6-1.2.8.8,0,0,0,.1-.4l-.2-.3h-.4l-.8.2a3,3,0,0,0-1.5,1.2.4.4,0,0,1-.7-.3,3.5,3.5,0,0,1,1.9-1.7l1.1-.2a1.9,1.9,0,0,1,1,.3,1.6,1.6,0,0,1,.4.7,2.5,2.5,0,0,1-.1.8,4.1,4.1,0,0,1-2,2.6,2.2,2.2,0,0,1-1.3.4,2,2,0,0,1-.8-.4.8.8,0,0,1-.4-.7,2,2,0,0,1,.1-1.3,2.2,2.2,0,0,1,.7-.9"/><path d="M224.1,39.5c.2.1.4.3.3.5a.4.4,0,0,1-.4.4h-.6a.4.4,0,0,1-.1-.5c.1-.1.1-.2.2-.2h.5a7,7,0,0,1,1.4.3,3.4,3.4,0,0,1,1.4.5l.3.4c0,.1.1.3,0,.5s-1.4,1.7-2.2,2.4l-1,1c-.1.2-.1.3-.2.3h1a7.5,7.5,0,0,1,2-.2.4.4,0,0,1,.4.4.5.5,0,0,1-.5.4l-1.8.2h-1.5c-.1,0-.3-.1-.4-.4a.4.4,0,0,1,.1-.5c0-.2.1-.3.2-.5l1.1-1.1a7.3,7.3,0,0,0,2-2h0l-1.1-.4-1.1-.3H224s.1-.2.1-.1v-.3c0,.1-.1-.2-.1-.1h.1"/><path d="M228.5,44.9a.5.5,0,0,1,.6-.1.4.4,0,0,1,0,.6,2.6,2.6,0,0,0-.4.9,1.3,1.3,0,0,0-.1.6c0,.1,0,.2.1.2a.4.4,0,1,1-.7.5,1,1,0,0,1-.2-.7,2.2,2.2,0,0,1,.1-.8,6.7,6.7,0,0,1,.6-1.2"/><path d="M236.4,40.9a.6.6,0,0,1-.3.6c-.2,0-.5-.1-.5-.3h-.1l-.6.4-.6.6h0l.2.2.6.3c.3.1.7.1.9.5a1.6,1.6,0,0,1,.2,1,1.4,1.4,0,0,1-.7.8l-.9.5a2.3,2.3,0,0,1-2.1.4.6.6,0,0,1-.3-.6.5.5,0,0,1,.6-.2c.5.2.8,0,1.4-.3l.8-.5a.7.7,0,0,0,.4-.3.6.6,0,0,0-.1-.4l-.5-.2-.7-.3a1.2,1.2,0,0,1-.6-.6,1.1,1.1,0,0,1,.1-.8l.7-.8a3.3,3.3,0,0,1,1-.6h.6a.8.8,0,0,1,.5.5"/><path d="M235.8,41.8c0,.2-.2.4-.4.3a.4.4,0,0,1-.4-.4,1.5,1.5,0,0,1,.6-.9l1.2-.4a10.5,10.5,0,0,1,3.1-.1.7.7,0,0,1,.4.5c-.1.2-.3.4-.5.3a8.3,8.3,0,0,0-2.8.1,1.9,1.9,0,0,0-.9.3l-.3.3"/><path class="cls-7" d="M64,54.7a.5.5,0,0,1,.6.2.4.4,0,0,1-.2.5h.1V55c0,.1-.1-.1,0-.1s-.1-.1-.1,0H65c1.6,0,3,.5,3.7.1a.5.5,0,0,1,.6.2.4.4,0,0,1-.2.5c-1.2.7-2.7,0-4.1,0H64q-.2,0-.3-.3a4.3,4.3,0,0,1,.1-.5H64"/><path class="cls-7" d="M69.1,55.9a.4.4,0,0,1-.4.4.4.4,0,0,1-.4-.4h0c0-.1.1.1.1.1h.5s.1-.1.1,0h0c-.1.1-.1.3-.2.5a15.6,15.6,0,0,0-.5,1.6,7.3,7.3,0,0,1-.5,1.2l-.3.7c0,.2,0,.3-.1.4h-.8c0-.4.3-.6.4-.8a12.6,12.6,0,0,0,.7-1.6l.5-.9c.1-.2.1-.4.2-.5h0s.2.2.1.2.2,0,.1,0H69l-.4.7-1.1,1.9-.4.6h-.2c0,.1-.2.1-.4.1l-.2-.3V60a.6.6,0,0,1,.1-.4l.3-1c.1-.1.1-.3.2-.4h0a.5.5,0,0,1,.2-.6.4.4,0,0,1,.5.2.5.5,0,0,1,.1.5l-.2.5-.4.9V60h0s-.1-.2-.1-.1-.2-.2-.1-.2h-.5l.4-.5,1.1-1.9c.2-.3.3-.7.6-.9s.1-.2.3-.2.4.3.4.4V57c-.1.2-.1.4-.2.6a3.1,3.1,0,0,0-.5,1l-.8,1.6-.3.4h0c-.1.2-.3.4-.5.3s-.4-.2-.3-.4a1.1,1.1,0,0,1,.2-.6,1.6,1.6,0,0,1,.3-.8,7.6,7.6,0,0,1,.4-1.1,15.4,15.4,0,0,0,.5-1.7,1.7,1.7,0,0,0,.2-.5v-.2c0-.1,0-.2.3-.2l.5.2v.2"/><path class="cls-7" d="M67,56.6c.1.2-.1.4-.3.4s-.4-.1-.5-.3h.1c-.1-.1,0,.1,0,.1s.1.1.1.1.1,0,.1,0h0c-.1,0-.4,0-.4.1s.1-.1,0-.1h.1a.3.3,0,0,0,.1.2c.2.1.2.4.1.6s-.4.2-.6,0a1,1,0,0,1-.4-.7c-.1-.1,0-.3,0-.4l.3-.2c.3-.3.7-.2,1-.2h.1c0,.1.2.1.2.3h0m-.7.9a.4.4,0,0,1,.1-.6.5.5,0,0,1,.6.1h0v.2c0,.3-.1.5-.1.8a.4.4,0,0,0-.1.3c0,.1-.1.1-.1.2h-.1c0,.1-.2.2-.4.1s-.3-.2-.3-.3h0V56.5c0-.1,0-.1-.1-.2h.1s-.1-.2-.1-.1,0-.1,0-.1h.7c.1,0,0,.1,0,.1h-.2c.1-.1-.1.2-.1.1a.6.6,0,0,1,.6-.3.4.4,0,0,1,.2.6c0,.1-.1.1-.1.2s-.2,0-.2.1h-.5l-.5-.2h-.5c0-.1-.1-.2-.1-.3a.4.4,0,0,1,.2-.6.6.6,0,0,1,.6-.2.5.5,0,0,1,.5.3.7.7,0,0,1,.3.6,4,4,0,0,1,0,1.1v.8h0s-.1-.1,0-.1h-.1c0,.1-.2-.1-.1,0H66a.4.4,0,0,1,.1-.3,5.6,5.6,0,0,1,.1-.7h.1m-.8.5a.7.7,0,0,1,.6.1.6.6,0,0,1-.1.6h0c-.1,0,.1-.2.1-.1h0v.3c0,.3.1.6.1.9s0,.5.1.6h0s-.1-.1,0-.1h-.1c0,.1-.1,0,0,0h-.6v-.2c.1-.4.2-1.1.4-1.8s.1-.6.1-.9.1-.3.1-.4,0-.1.2-.2h0a.5.5,0,0,1,.6.2.4.4,0,0,1-.2.5H67c0,.1-.1.1-.1.3s-.1.5-.1.8-.3,1.4-.4,1.9a.6.6,0,0,1-.2.5h-.5l-.2-.3c0-.1,0-.1-.1-.2v-.6c0-.3-.1-.6-.1-.9v-.6a.4.4,0,0,1,.1-.3c.1,0,.1,0,.1-.1m-1.7-2.5a.3.3,0,0,1,.5,0,.4.4,0,0,1,0,.6s.1-.2.1-.1h0a.3.3,0,0,0,.1.2,9.3,9.3,0,0,0,.5,1,7.7,7.7,0,0,1,.7,1.6c.1.5.3,1,.4,1.4s0,.5.1.5h-.1c0,.1-.2-.2-.1-.1s-.2-.1-.1-.1h-.4c.1,0-.1.1,0,.1s-.1.1-.1.1h0a17.8,17.8,0,0,0-.4-2.2l-.3-1.4-.3-.5h0s.2.1.1.1h.4c-.1.1,0-.1,0,0h0a8.2,8.2,0,0,0,.1,1.4,15.6,15.6,0,0,0,.6,2.7c.1.3.3.5.3.6h-.1c0-.1-.2,0-.2,0s0,.1,0,.1a7.5,7.5,0,0,0-.1-1.2,3.7,3.7,0,0,0-.1-1.1v-.5c0-.1,0-.1-.1-.2h.1s.1.1,0,.1h.2a.7.7,0,0,1-.3-.6.5.5,0,0,1,.6-.2c.2.1.2.2.2.2h0c.1.1.1.1.1.2a1.3,1.3,0,0,0,.1.6v1.1c.1.6.3,1.1,0,1.6a.7.7,0,0,1-.5.4.5.5,0,0,1-.5-.3,2,2,0,0,1-.4-.8,11.2,11.2,0,0,1-.7-2.9c0-.4-.1-.8-.1-1.1s-.1-.7.1-1l.3-.2h.3q.3.1.3.3c.2.2.2.4.3.7a5.7,5.7,0,0,1,.4,1.4,8,8,0,0,1,.4,2.4.6.6,0,0,1-.2.5h-.4l-.3-.3v-.5a10.3,10.3,0,0,0-.4-1.4,5.9,5.9,0,0,0-.6-1.4l-.6-1c0-.2-.1-.3-.1-.5a.5.5,0,0,1,.2-.6"/><path class="cls-7" d="M67.7,31.8a.4.4,0,0,1,.6,0,.6.6,0,0,1,0,.6c-.2.2-.4.1-.5.2H65.3a.4.4,0,0,1-.1-.5c.1-.2.2-.2.2-.3H66c.2-.1.4.1.5.3a.5.5,0,0,1-.4.5h-.4s.2-.1.1,0,.1-.2.1-.1v-.2c-.1.1,0-.2,0-.1v-.2h1.8a.1.1,0,0,1,.1-.1h-.1m-2.8.9a.4.4,0,0,1-.7-.5,1.4,1.4,0,0,1,1-.4h2.9a.4.4,0,0,1-.2.8h-3"/><path class="cls-7" d="M66.5,30.4a.4.4,0,0,1,.7.5c-.2.2-.2.1-.2.2h-.7c-.1.1-.3.2-.4.4h-.1v-.2h.6s-.1.1,0,.1h0s.1.2.1.1.2.1.1.1h0a.5.5,0,0,1-.4.2,1.6,1.6,0,0,1-.9.3h-.4l-.2-.4a.7.7,0,0,1,.3-.6.3.3,0,0,1,.5-.1.4.4,0,0,1,.1.6h-.4l.7-.2.4-.2h.7l.2.3v.2l-.2.3-.4.3h-.6c-.2,0-.5.1-.7-.2s-.2-.2-.2-.3a.4.4,0,0,1,.1-.3.5.5,0,0,1,.2-.4c.2-.1.4-.4.7-.5l.5-.2h.1c.1,0-.1.2-.1.1m.8,1.5a.4.4,0,0,1-.5.3.4.4,0,0,1-.2-.5h-.1c0-.1-.2-.5-.3-.9a1,1,0,0,1-.1-.4v-.2h.1a.8.8,0,0,0-.1.4s-.1-.1,0-.1h.1s-.1-.1,0-.1h.4a.4.4,0,0,1,.5-.2c.2,0,.3.3.2.5s-.2.4-.5.6a.9.9,0,0,1-.9.1h-.3c-.1-.1-.3-.2-.3-.4a1.4,1.4,0,0,1,.1-.9c.1-.1.1-.2.2-.4l.5-.2.5.2.3.4.2.5a1.4,1.4,0,0,0,.2.6,1.4,1.4,0,0,1,.2.6h-.1M66,28.2a.4.4,0,1,1,.8,0h0v.9a9.5,9.5,0,0,0,.3,1.9,4.3,4.3,0,0,0,.1.5h-.1c0,.1-.2,0-.1,0s.4.2.3.4a.4.4,0,0,1-.4.4c-.2,0-.3-.1-.3-.2s-.1-.1-.1-.2a1,1,0,0,1-.2-.7,9.5,9.5,0,0,1-.3-1.9v-.9h0m2.3,2.9a.4.4,0,0,1-.3.6.5.5,0,0,1-.5-.3v-.2c-.3-.4-.7-1.2-1.1-1.9a3.1,3.1,0,0,1-.2-.8v-.2h0a.3.3,0,0,1,.3-.5c.2-.1.4.1.5.3h0v.2l.3.6a13,13,0,0,0,1,1.8l.2.4m-4.4,1.1a.4.4,0,0,1-.6-.3.5.5,0,0,1,.3-.5h-.2c.1,0,0,.1,0,0h0l.6-1.3.9-1.9a1.6,1.6,0,0,1,.4-.7l.3-.3h.6a1.6,1.6,0,0,1,.5,1,6.1,6.1,0,0,0,.7,1.4c0,.2.2.4.3.6s.3.5.4.5H68c.1,0-.1-.1-.1-.1s-.2.1-.1,0-.2.1-.1.1h-.1a4.5,4.5,0,0,0-.2-.8,18.9,18.9,0,0,0-.6-1.8.3.3,0,0,1-.1-.2h.4a.4.4,0,0,0-.1.3,3.8,3.8,0,0,0,.1,1,2.4,2.4,0,0,0,.6.9l.2.4.3.3a.6.6,0,0,1,0,.6h-.6l-.3-.4-.3-.3c-.2-.4-.5-.8-.7-1.3a6.2,6.2,0,0,1-.1-1.3.8.8,0,0,1,.2-.5.4.4,0,0,1,.1-.3H67c.4.2.4.4.5.7a8.4,8.4,0,0,1,.7,1.9,3.6,3.6,0,0,1,.2,1c0,.2,0,.5-.2.6a.4.4,0,0,1-.5.1l-.3-.2-.3-.5-.5-.7-.7-1.5a4.3,4.3,0,0,0-.1-.5h.1a1.7,1.7,0,0,1-.2.5l-1,2a8.1,8.1,0,0,1-.6,1.3H64a.1.1,0,0,0-.1.1m1.3-4.6c0-.2.1-.5.3-.5a.3.3,0,0,1,.5.3c.1.2,0,.2,0,.2h0l-1,2.2-.3.9-.3.7a.4.4,0,0,1-.5.2.5.5,0,0,1-.2-.6h0a4.6,4.6,0,0,1,.1-1,3.4,3.4,0,0,1,.3-.8l.3-.8c0-.1.1-.2.1-.3l.3-.2.4.2a.3.3,0,0,1,.1.2,2.1,2.1,0,0,1-.4,1.2l-.6,1.7c-.1.2-.2.3-.2.4h0v-.2a.5.5,0,0,1-.2.6.4.4,0,0,1-.6-.3h0v-.2c.1-.1.1-.3.2-.5s.5-1.1.7-1.7a4.5,4.5,0,0,1,.3-.8h.6a3.1,3.1,0,0,1-.2.8,1.1,1.1,0,0,0-.3.6c0,.2-.1.4-.1.6s.1.3-.1.6l-.7-.4.2-.6c.1-.2.2-.6.4-1s.8-1.7.9-2.1h0m-.4,3.2a.4.4,0,0,1-.6,0,.5.5,0,0,1,.1-.6s-.1.1-.1,0l.5-1.3.3-1.1c.1-.2.2-.3.2-.4h.1a.3.3,0,0,1,.1-.2.5.5,0,0,1,.6.2.4.4,0,0,1-.2.5H66l-.2.4-.3,1-.3,1a2.5,2.5,0,0,1-.4.7h0m1.4-3.3a.4.4,0,0,1-.2.5.5.5,0,0,1-.6-.1c0-.1.1.1.1,0h.4c0,.1,0,.1-.1.2l-.3.9a6.9,6.9,0,0,0-.4,1,.6.6,0,0,0-.1.4h-.1a.3.3,0,0,1-.3.5c-.2.1-.4-.1-.5-.3h0v-.4c.1-.1.1-.3.2-.5a10.4,10.4,0,0,0,.4-1l.4-1,.3-.4h.4c.2,0,.3.2.4.3"/><path class="cls-7" d="M64.8,30.1a.3.3,0,0,1-.1.5.3.3,0,0,1-.5,0c-.2-.2-.1-.3-.1-.3a1.6,1.6,0,0,1,.3-.9l.3-.7.2-.2c.2-.1.4.1.5.2a.4.4,0,0,1,.1.3,4.3,4.3,0,0,0-.1.5,3.5,3.5,0,0,1-.6.9.5.5,0,0,1-.2.4h-.1c0,.1-.1.1-.2.1s-.3.1-.4,0a.4.4,0,0,1-.1-.3c-.1-.1-.1-.1-.1-.2s.1-.1.1-.2a4.3,4.3,0,0,1,.1-.5,5.2,5.2,0,0,1,.6-1.3,3.2,3.2,0,0,0,.3-.9l.3-.4c0-.1,0-.2.1-.2h.2c.1,0,.4.1.4.3s.1.3,0,.4,0,.3-.1.4l-.3.7a2.1,2.1,0,0,0-.3.7.1.1,0,0,0-.1.1l-.2.2c-.1,0-.3.1-.4,0a.4.4,0,0,1-.2-.3V29c.1-.4.4-.8.5-1.2l.2-.4.2-.3h.4l.2.2a.4.4,0,0,1,.1.3,3.1,3.1,0,0,1-.5,1.8,27.2,27.2,0,0,1-1.1,2.8h0c0,.1-.1,0,0,0h0a1.6,1.6,0,0,0,.7,0h.7l.8.2h-.1s-.1.1,0,.1-.1.2-.1.1v.2c0-.1.1.2.1.1h0l-.7-.2h-.4s.1-.2.1-.1,0-.3,0-.2v-.2c.2.2.1.4-.1.5s-.4.1-.5-.1a.5.5,0,0,1,0-.5h1.7l.6.3c.1.1.1.2.1.4a.2.2,0,0,1-.2.2c0,.1-.1.1-.2.1a.3.3,0,0,1-.4,0H63.9c-.1-.1-.3-.1-.4-.3a1.3,1.3,0,0,1-.1-.6c.2-.7.8-1.7,1.2-2.8s.4-1.4.4-1.5h0c0-.1.2.1.2.1h.4c-.1,0,0-.1,0-.1a1.3,1.3,0,0,1-.1.5l-.5,1h0c0,.1-.1-.1-.1-.1h-.1s-.2-.1-.1-.1h-.3c0-.1-.1,0-.1,0h0l.3-.7.4-.7a.3.3,0,0,1,.1-.2h.6v.2c-.1.1-.1.5-.3.9s-.5.9-.6,1.2-.1.3-.1.5h0s-.1-.1,0-.1h-.1c0,.1-.1-.1-.1-.1h-.2c.1.1-.2.1-.2.1h-.1l.3-.3a5.9,5.9,0,0,1,.4-.8V29h.3s.4-.1.3,0,.1-.1.1-.1h.1a3.3,3.3,0,0,0-.3.6l-.2.6h-.1m1.3-2a.4.4,0,0,1-.7.3h.4s.1-.1,0-.1h0v.2c-.1.2-.1.7-.2,1.1a2.4,2.4,0,0,1-.2.9c-.1.4-.1.7-.2.8l-.7-.2c0-.1.1-.4.2-.9s.3-.9.5-1.4l.3-1.2a4.3,4.3,0,0,1,.1-.5h0s.1.1,0,.1h.6a4.9,4.9,0,0,0-.6,1.4l-.5,1.1c-.1.3-.1.4-.2.5s0,.1-.1.2h-.3a.4.4,0,0,1,0-.8s-.2.1-.2,0-.1.1-.1.1h0a1,1,0,0,0,.1-.3c.2-.4.3-.8.5-1.3a6.1,6.1,0,0,1,.9-1.6c0-.1.1-.1.2-.1s.4.1.5.2v.4a4.3,4.3,0,0,0-.1.5L66,29c-.3,1-.7,2.1-.8,2.3s-.2.4-.4.3a.3.3,0,0,1-.3-.5,3.2,3.2,0,0,1,.1-.7,2.9,2.9,0,0,0,.2-.9c.1-.5.1-.9.2-1.2a.4.4,0,0,1,.1-.3q0-.2.3-.3h.3c.1.1.2.1.2.2s.2.2.2.3"/><path class="cls-7" d="M67,57.2a.4.4,0,0,1,.1-.6.3.3,0,0,1,.5.1.3.3,0,0,1,.1.2h0a2.9,2.9,0,0,1-.2.9.8.8,0,0,0-.1.4h-.1c.1.1-.2-.1-.1-.1h-.4c.1-.1.1-.3.2-.4l.2-.5c0-.1.1-.1.1-.2h0c0-.3.1-.5.4-.5a.4.4,0,0,1,.4.4c0,.3-.1.3-.2.4h-.1l-.3.3a1.6,1.6,0,0,1-1.3.6c-.2,0-.4-.1-.4-.2l-.2-.2-.2-.4a1.8,1.8,0,0,0-.5-.7l-.5-.2h0s.1-.2,0-.1h0l.2.2h1.2V57h0l-.8-.3H64c-.3-.1-.5-.1-.7-.3s-.2-.1-.2-.3.2-.3.3-.4h1.8l1.1.3h1.1l.2.3V57a.3.3,0,0,0-.1.2h-.1l-.7.3c-.1-.2,0-.3,0-.3s0-.1.1-.1,0-.1.1-.2l.2-.2.3-.2a.6.6,0,0,1,.6-.1.4.4,0,0,1,.3.4v.4l-.3.6a.9.9,0,0,1-.3.5h-.2a.1.1,0,0,1-.1.1h-.4c-.2-.2-.2-.3-.1-.4h0v-.2l.2-.4.2-.3h0l.3-.2.3.7c-.1.1.1,0,.1,0h-.1a4.3,4.3,0,0,0-.1.5,1.4,1.4,0,0,0-.2.7c0,.2-.1.5-.3.5s-.4,0-.5-.3a1.7,1.7,0,0,1,.2-1.2,1.4,1.4,0,0,1,.2-.6c.1-.1,0-.3.4-.4a.4.4,0,0,1,.5.2c.1.2,0,.5-.2.5s.1,0,.1,0,0-.1,0,0h0l-.2.3c-.1.1-.1.3-.2.4h0c-.1,0,0-.1,0,0v-.2c0,.1-.1-.1-.1-.1h-.2c.1.1-.2,0-.1,0H67a.2.2,0,0,0,.2-.2c.1-.2.1-.4.2-.5v-.2h0s.1.2.1.1.1.2,0,.2.2.1.2.1h-.1a.2.2,0,0,1-.2.2h.1c-.1.1,0-.1,0-.1h-.1c.1.2,0,.5-.2.5a.4.4,0,0,1-.5-.2c-.1-.3,0-.3,0-.4a.3.3,0,0,1,.1-.2h0c0-.1.1.2.1.2s.1,0,.1,0h-.8L65,56.9l-1-.2h-.3s.1-.1.1,0,.1-.2.1-.1.1-.3,0-.2h0c.1,0,0-.3,0-.2h1.2l1.1.4.3.3v.3c0,.2-.1.3-.3.4h-.7c-.4,0-1.1.1-1.5-.3a1.2,1.2,0,0,1-.4-.8l.3-.5a.7.7,0,0,1,.6-.1,1.4,1.4,0,0,1,1,.4,2,2,0,0,1,.6.9.8.8,0,0,1,.2.4h-.1l.7-.3.3-.4c.1,0,.1,0,.1-.1h0v.2h.8c0,.2-.1.3-.1.5a.8.8,0,0,0-.2.5l-.2.4c0,.1-.1.1-.1.2a.7.7,0,0,1-.4.3l-.4-.2c-.1,0-.1-.1-.1-.2v-.2a1.3,1.3,0,0,1,.1-.6,4.5,4.5,0,0,0,.2-.8h0v.2m-1.1-.5c-.3.1-.5,0-.5-.2a.4.4,0,0,1,.2-.6h1.3l.2.4a.2.2,0,0,1,0,.3,1.1,1.1,0,0,1-.1.5c-.1.3-.3.7-.4,1.1l-.3.9v.2h-.6c.1,0,0,.1,0,.1h0l.8-1.5.3-.7c0-.1.1-.1.1-.2h.2a.1.1,0,0,1,.1-.1.5.5,0,0,1,.5.3c0,.3-.1.5-.3.5h.1l-.3.7c-.3.5-.6,1.2-.9,1.6s-.1.2-.3.2-.4-.1-.4-.2-.1-.1-.1-.2,0-.3,0-.5l.3-1a7.6,7.6,0,0,0,.4-1.1.5.5,0,0,0,.1-.3h0s.1.1.1,0,.1.2,0,.1h-.5"/></g></g></g></svg>