<svg xmlns="http://www.w3.org/2000/svg" xmlns:xlink="http://www.w3.org/1999/xlink" viewBox="0 0 358 130"><defs><style>.cls-1{fill:none;}.cls-2{isolation:isolate;}.cls-3{opacity:0;}.cls-4{clip-path:url(#clip-path);}.cls-5,.cls-6{fill:#ed3624;}.cls-5{mix-blend-mode:darken;opacity:0.42;}.cls-7{fill:#1749b3;}.cls-8{fill:#00733b;}</style><clipPath id="clip-path"><rect class="cls-1" x="-24" y="-24.9" width="419.5" height="297.64"/></clipPath></defs><g class="cls-2"><g id="Ebene_1" data-name="Ebene 1"><g class="cls-3"><path d="M26.6,22.2V12H28V22.2Z"/><path d="M30.5,22.2V14.7h1.4v1.4a3.1,3.1,0,0,1,2.6-1.5,2.1,2.1,0,0,1,1.6.6,2.5,2.5,0,0,1,.5,1.6v5.4H35.3V17.3a1.7,1.7,0,0,0-.3-1.2.9.9,0,0,0-.8-.4,3,3,0,0,0-2.3,1.7v4.8Z"/><path d="M39.1,24.7l.2-1.2a4.8,4.8,0,0,0,2.3.5,2.1,2.1,0,0,0,2.3-2.4V20.4A2.5,2.5,0,0,1,41.4,22a2.4,2.4,0,0,1-2.1-1,4,4,0,0,1-.8-2.6,4.5,4.5,0,0,1,.9-2.8,2.9,2.9,0,0,1,2.3-1,2.7,2.7,0,0,1,2.2,1v-.9h1.3v5.5a16.3,16.3,0,0,1-.1,2.5,3.7,3.7,0,0,1-.7,1.4,3.8,3.8,0,0,1-2.8,1A10.9,10.9,0,0,1,39.1,24.7Zm4.8-5.1V16.5a2.8,2.8,0,0,0-2-.9,1.5,1.5,0,0,0-1.4.7,3.3,3.3,0,0,0-.5,2.1c0,1.6.5,2.4,1.7,2.4A2.9,2.9,0,0,0,43.9,19.6Z"/><path d="M53.2,21.9a7.9,7.9,0,0,1-2.4.5,3.3,3.3,0,0,1-2.6-1.1,4.2,4.2,0,0,1-1.1-2.9,4.5,4.5,0,0,1,.9-2.8,3,3,0,0,1,2.4-1,2.6,2.6,0,0,1,2.1.9,4.7,4.7,0,0,1,.7,2.8v.4H48.5c.2,1.7,1.1,2.6,2.6,2.6a6.3,6.3,0,0,0,2.1-.4Zm-4.6-4.2h3.2q0-2.1-1.5-2.1C49.3,15.6,48.7,16.3,48.6,17.7Z"/></g><g class="cls-3"><path d="M87.9,13.6V2.7h3.3a3.3,3.3,0,0,1,2.4.7,2.4,2.4,0,0,1,.9,2,3.2,3.2,0,0,1-2.2,3.1l3.6,5.1H94L90.9,9H89.5v4.6Zm1.6-5.8H90c1.9,0,2.9-.7,2.9-2.3s-.8-1.6-2.5-1.6h-.9Z"/><path d="M100.2,13.8a3.5,3.5,0,0,1-2.8-1.2,4,4,0,0,1-1-3,4.5,4.5,0,0,1,1-3.1,4.1,4.1,0,0,1,5.6,0,4.5,4.5,0,0,1,1,3.1,4,4,0,0,1-1,3A3.5,3.5,0,0,1,100.2,13.8Zm0-1.1c1.5,0,2.3-1.1,2.3-3.1s-.8-3.1-2.3-3.1S98,7.5,98,9.6,98.7,12.7,100.2,12.7Z"/></g><g class="cls-3"><path d="M274.7,12.9V3.5h2.9a2.8,2.8,0,0,1,2,.6,2.1,2.1,0,0,1,.8,1.7,2.8,2.8,0,0,1-1.9,2.7l3.1,4.4H280l-2.7-4H276v4Zm1.3-5h.5c1.7,0,2.5-.6,2.5-1.9s-.7-1.5-2.1-1.5H276Z"/></g><g class="cls-3"><path d="M80.7,28.8v-.9l4.2-5.1h-4v-.9h5.6v.9l-4.3,5.1h4.4v.9Z"/><path d="M91.1,29a3.3,3.3,0,0,1-2.4-1,4,4,0,0,1-.9-2.7,3.7,3.7,0,0,1,.9-2.6,3.4,3.4,0,0,1,4.8,0,3.7,3.7,0,0,1,.9,2.6,3.8,3.8,0,0,1-.9,2.7A3.3,3.3,0,0,1,91.1,29Zm0-1c1.3,0,2-.9,2-2.7s-.7-2.6-2-2.6-1.9.9-1.9,2.6S89.8,28,91.1,28Z"/><path d="M99,29a2.9,2.9,0,0,1-2.3-1,4,4,0,0,1-.9-2.7,3.7,3.7,0,0,1,.9-2.6,3.4,3.4,0,0,1,4.8,0,3.7,3.7,0,0,1,.9,2.6,3.8,3.8,0,0,1-.9,2.7A3.4,3.4,0,0,1,99,29Zm0-1c1.4,0,2-.9,2-2.7s-.6-2.6-1.9-2.6-2,.9-2,2.6S97.8,28,99,28Z"/></g><g class="cls-3"><path d="M270.3,29.6v-1h1.9V21.2l-1.9.5v-1l3.1-.8v8.7h1.9v1Z"/><path d="M278.1,29.6V28.5a5.8,5.8,0,0,0,1.8.4,1.7,1.7,0,0,0,1.4-.6,2,2,0,0,0,.6-1.5q0-2.1-3-2.1h-.6V20.1H283v1.1h-3.6v2.5a4.1,4.1,0,0,1,2.8.9,2.6,2.6,0,0,1,1,2.3,2.6,2.6,0,0,1-.9,2.1,4,4,0,0,1-2.6.8Z"/><path d="M288.8,29.8a2.8,2.8,0,0,1-2.4-1.4,6.4,6.4,0,0,1-.9-3.6,6.3,6.3,0,0,1,.9-3.5,2.8,2.8,0,0,1,4.8,0,6.3,6.3,0,0,1,.9,3.5,6.4,6.4,0,0,1-.9,3.6A2.6,2.6,0,0,1,288.8,29.8Zm0-.9c1.3,0,2-1.4,2-4.1s-.7-4-2-4-1.9,1.4-1.9,4S287.5,28.9,288.8,28.9Z"/></g><g class="cls-3"><path d="M195.2,44.7V42.1h2.6v2.6Zm0,17V47.3h2.6V61.7Z"/><path d="M207.1,62a15.9,15.9,0,0,1-4.3-.8V58.8a11.2,11.2,0,0,0,4.4,1.3,2.9,2.9,0,0,0,1.9-.6,2.1,2.1,0,0,0,.7-1.6c0-.9-.7-1.6-2.1-2.2l-1.5-.6c-2.2-1-3.4-2.3-3.4-4.1a3.6,3.6,0,0,1,1.4-2.9,5.7,5.7,0,0,1,3.6-1.1l3,.3h.5v2.2a13.5,13.5,0,0,0-3.4-.6c-1.7,0-2.5.6-2.5,1.8s.6,1.4,1.9,2l1.2.5a8.2,8.2,0,0,1,3,1.9,3.7,3.7,0,0,1,.9,2.5,3.7,3.7,0,0,1-1.5,3.1A5.8,5.8,0,0,1,207.1,62Z"/></g><g class="cls-3"><path d="M275.3,60.1a16.4,16.4,0,0,1,1-3.7c.5-1,1.2-2.4,2.3-4.2l5-8h-9.3V41.9h11.6v2.3c-4.7,6.9-7.3,12.1-7.8,15.9Z"/></g><g class="cls-3"><path d="M82.4,78V66.4h3.5a4.4,4.4,0,0,1,2.5.7,2.7,2.7,0,0,1,.9,2.2A3.5,3.5,0,0,1,87,72.6L90.9,78H88.8l-3.3-4.9H84V78ZM84,71.9h.5c2.1,0,3.1-.8,3.1-2.5s-.8-1.8-2.6-1.8H84Z"/><path d="M94.4,78.2a9.8,9.8,0,0,1-2.6-.5V76.3a6,6,0,0,0,2.6.7,2.1,2.1,0,0,0,1.2-.3,1.8,1.8,0,0,0,.4-.9c0-.5-.4-1-1.2-1.3l-.9-.4c-1.4-.6-2-1.4-2-2.4a2.4,2.4,0,0,1,.7-1.8,3.8,3.8,0,0,1,2.2-.6l1.8.2h.3v1.3a6.8,6.8,0,0,0-2.1-.4c-1,0-1.5.3-1.5,1s.4.9,1.2,1.2l.7.3A4.6,4.6,0,0,1,97,74.2a1.7,1.7,0,0,1,.5,1.4,2.3,2.3,0,0,1-.9,1.9A3.1,3.1,0,0,1,94.4,78.2Z"/></g><g class="cls-3"><path d="M193.6,81.7l-1.4-.2v-.8a4.2,4.2,0,0,0,1.5.4l.6-.2c.1-.2.2-.3.2-.5s-.2-.6-.7-.8l-.5-.2c-.7-.3-1.1-.7-1.1-1.3a1.2,1.2,0,0,1,.4-1,1.7,1.7,0,0,1,1.3-.4H195v.7l-1.1-.2q-.9,0-.9.6c0,.3.3.5.7.7h.4a2,2,0,0,1,1,.7,1.1,1.1,0,0,1,.3.8,1.2,1.2,0,0,1-.5,1A1.8,1.8,0,0,1,193.6,81.7Z"/><path d="M199,81.7a2.1,2.1,0,0,1-1.6-.6,2.5,2.5,0,0,1-.7-1.9,2.3,2.3,0,0,1,.7-1.8,2.2,2.2,0,0,1,1.6-.7,2.4,2.4,0,0,1,1.7.7,2.6,2.6,0,0,1,.6,1.8,2.9,2.9,0,0,1-.6,1.9A2.4,2.4,0,0,1,199,81.7Zm0-.6c.9,0,1.4-.6,1.4-1.9s-.5-1.8-1.4-1.8-1.3.6-1.3,1.8S198.1,81.1,199,81.1Z"/><path d="M202.8,83.2v-.7a4,4,0,0,0,1.5.3,1.3,1.3,0,0,0,1.5-1.5v-.8a1.5,1.5,0,0,1-1.6,1,1.5,1.5,0,0,1-1.3-.6,2.4,2.4,0,0,1-.6-1.7,2.8,2.8,0,0,1,.6-1.8,2.1,2.1,0,0,1,1.5-.7,1.6,1.6,0,0,1,1.4.7v-.6h.9v3.5c0,.8-.1,1.3-.1,1.7a4.1,4.1,0,0,1-.5.9,2.4,2.4,0,0,1-1.8.6Zm3.1-3.2V78a1.7,1.7,0,0,0-1.2-.6,1,1,0,0,0-1,.5,2.3,2.3,0,0,0-.3,1.3c0,1,.3,1.6,1.1,1.6A1.9,1.9,0,0,0,205.9,80Z"/><path d="M208.6,81.6V74.7h.9v4.5l2-2.4h1l-2,2.3,2.4,2.5h-1.2l-2.2-2.4v2.4Z"/><path d="M217.1,81.6v-.9a2.1,2.1,0,0,1-1.7,1,1.4,1.4,0,0,1-1.4-1.4V76.8h.9V80a1.7,1.7,0,0,0,.1.8l.6.2c.5,0,1-.4,1.5-1.1V76.8h.8v4.8Z"/><path d="M219.8,81.6V76.8h.9v.9a1.6,1.6,0,0,1,1.5-1h.3v.8h-.4c-.6,0-1,.3-1.4,1v3.1Z"/><path d="M223.4,81.6V81l2.9-3.5h-2.8v-.7h3.9v.7l-3,3.5h3.1v.6Z"/><path d="M228.9,83.2v-.7a4,4,0,0,0,1.5.3,1.3,1.3,0,0,0,1.5-1.5v-.8a1.6,1.6,0,0,1-1.6,1,1.8,1.8,0,0,1-1.4-.6,2.9,2.9,0,0,1-.5-1.7,2.8,2.8,0,0,1,.6-1.8,2.1,2.1,0,0,1,1.5-.7,1.7,1.7,0,0,1,1.4.7v-.6h.9v3.5c0,.8-.1,1.3-.1,1.7a4.1,4.1,0,0,1-.5.9,2.4,2.4,0,0,1-1.8.6ZM232,80V78a1.8,1.8,0,0,0-1.3-.6.9.9,0,0,0-.9.5,2.3,2.3,0,0,0-.3,1.3c0,1,.3,1.6,1.1,1.6A1.9,1.9,0,0,0,232,80Z"/><path d="M238.2,81.5l-1.5.2A2.1,2.1,0,0,1,235,81a2.5,2.5,0,0,1-.7-1.8,2.8,2.8,0,0,1,.6-1.8,2.1,2.1,0,0,1,1.5-.7,1.7,1.7,0,0,1,1.4.6,3.2,3.2,0,0,1,.4,1.8v.3h-3a1.6,1.6,0,0,0,1.7,1.7l1.3-.3Zm-2.9-2.8h2.1c0-.9-.4-1.3-1-1.3S235.3,77.8,235.3,78.7Z"/><path d="M241.2,81.7l-1.5-.2v-.8a5.6,5.6,0,0,0,1.5.4l.6-.2c.2-.2.3-.3.3-.5s-.3-.6-.7-.8l-.5-.2c-.8-.3-1.1-.7-1.1-1.3a1.2,1.2,0,0,1,.4-1,1.6,1.6,0,0,1,1.2-.4h1.2v.7l-1.2-.2c-.5,0-.8.2-.8.6s.2.5.6.7h.4a2.3,2.3,0,0,1,1.1.7,1.1,1.1,0,0,1,.2.8,1.2,1.2,0,0,1-.4,1A2,2,0,0,1,241.2,81.7Z"/><path d="M244.7,81.6V74.7h.8v4.5l2.1-2.4h.9l-1.9,2.3,2.3,2.5h-1.1l-2.3-2.4v2.4Z"/><path d="M250.1,81.6V74.7h.9v6.9Z"/><path d="M254.8,81.7a2.4,2.4,0,0,1-1.7-.6,2.9,2.9,0,0,1-.6-1.9,2.6,2.6,0,0,1,.6-1.8,2.4,2.4,0,0,1,1.7-.7,2.2,2.2,0,0,1,2.3,2.5,2.9,2.9,0,0,1-.6,1.9A2.5,2.5,0,0,1,254.8,81.7Zm0-.6c.9,0,1.4-.6,1.4-1.9s-.5-1.8-1.4-1.8-1.4.6-1.4,1.8S253.9,81.1,254.8,81.1Z"/><path d="M259.9,81.7l-1.5-.2v-.8a5.6,5.6,0,0,0,1.5.4l.6-.2c.2-.2.3-.3.3-.5s-.3-.6-.7-.8l-.5-.2c-.8-.3-1.2-.7-1.2-1.3a1.2,1.2,0,0,1,.5-1,1.6,1.6,0,0,1,1.2-.4h1.2v.7l-1.2-.2c-.5,0-.8.2-.8.6s.2.5.6.7h.4a2,2,0,0,1,1,.7,1.1,1.1,0,0,1,.3.8,1,1,0,0,1-.5,1A1.6,1.6,0,0,1,259.9,81.7Z"/><path d="M264.5,81.7l-1.4-.2v-.8a5.6,5.6,0,0,0,1.5.4l.6-.2a.6.6,0,0,0,.2-.5.9.9,0,0,0-.6-.8l-.6-.2c-.7-.3-1.1-.7-1.1-1.3a1.2,1.2,0,0,1,.5-1,1.6,1.6,0,0,1,1.2-.4h1.1v.7l-1.1-.2c-.6,0-.8.2-.8.6s.2.5.6.7h.4a2,2,0,0,1,1,.7,1.1,1.1,0,0,1,.3.8,1.2,1.2,0,0,1-.5,1A1.7,1.7,0,0,1,264.5,81.7Z"/><path d="M271.5,81.5l-1.4.2a2.3,2.3,0,0,1-1.8-.7,2.4,2.4,0,0,1-.6-1.8,3.5,3.5,0,0,1,.5-1.8,2.2,2.2,0,0,1,1.6-.7,1.6,1.6,0,0,1,1.3.6,3.2,3.2,0,0,1,.5,1.8v.3h-3.1c.2,1.1.7,1.7,1.7,1.7l1.3-.3Zm-2.9-2.8h2.1c0-.9-.3-1.3-1-1.3S268.7,77.8,268.6,78.7Z"/><path d="M273.2,81.6V76.8h.9v.9a2.2,2.2,0,0,1,1.7-1,1.8,1.8,0,0,1,1,.4,1.8,1.8,0,0,1,.3,1.1v3.4h-.8V78.5a1.5,1.5,0,0,0-.2-.8l-.5-.2a1.9,1.9,0,0,0-1.5,1v3.1Z"/></g><g class="cls-3"><path d="M81.2,91v-.9h1.7V83.3l-1.7.4v-.9l2.9-.7v8h1.7V91Z"/><path d="M88.4,91V90a5.9,5.9,0,0,0,1.7.4,1.9,1.9,0,0,0,1.3-.5,2.2,2.2,0,0,0,.5-1.4c0-1.3-.9-2-2.7-2h-.6V82.3H93v1H89.6v2.3a4,4,0,0,1,2.6.8,2.6,2.6,0,0,1,.9,2.1,2.3,2.3,0,0,1-.8,2,3.6,3.6,0,0,1-2.4.7A4.4,4.4,0,0,1,88.4,91Z"/><path d="M98.3,91.2A2.5,2.5,0,0,1,96.2,90a5.8,5.8,0,0,1-.9-3.3,5.9,5.9,0,0,1,.9-3.4,2.5,2.5,0,0,1,2.2-1.2,2.6,2.6,0,0,1,2.2,1.2,6.7,6.7,0,0,1,.8,3.3,6.8,6.8,0,0,1-.8,3.4A2.7,2.7,0,0,1,98.3,91.2Zm.1-.8c1.2,0,1.8-1.3,1.8-3.8S99.6,83,98.4,83s-1.8,1.2-1.8,3.7S97.2,90.4,98.4,90.4Z"/></g><g class="cls-3"><path d="M1.3,114v-1.2a5.3,5.3,0,0,0,2.4.6c1.5,0,2.2-.8,2.2-2.4v-1.2a2.6,2.6,0,0,1-2.4,1.6,2.7,2.7,0,0,1-2.1-1,3.7,3.7,0,0,1-.8-2.6,4.1,4.1,0,0,1,.9-2.8,2.8,2.8,0,0,1,2.3-1.1,3,3,0,0,1,2.1,1v-.8H7.4v5.4a15.1,15.1,0,0,1-.2,2.6,2.3,2.3,0,0,1-.7,1.4,3.7,3.7,0,0,1-2.7.9A6.9,6.9,0,0,1,1.3,114ZM6,109v-3.1a2.8,2.8,0,0,0-1.9-1,1.9,1.9,0,0,0-1.5.8,3.9,3.9,0,0,0-.5,2c0,1.7.6,2.5,1.7,2.5A2.9,2.9,0,0,0,6,109Z"/><path d="M15.3,111.3a7.4,7.4,0,0,1-2.3.4,3.7,3.7,0,0,1-2.7-1.1,3.9,3.9,0,0,1-1-2.8,4.3,4.3,0,0,1,.9-2.8,3,3,0,0,1,2.3-1.1,2.4,2.4,0,0,1,2.1,1,4.1,4.1,0,0,1,.8,2.7v.4H10.7c.1,1.8,1,2.7,2.6,2.7a6.4,6.4,0,0,0,2-.5ZM10.7,107H14c0-1.4-.5-2.1-1.6-2.1S10.8,105.6,10.7,107Z"/><path d="M19.5,111.7a6.9,6.9,0,0,1-2.2-.4V110a4.6,4.6,0,0,0,2.3.7,1.2,1.2,0,0,0,.9-.3.9.9,0,0,0,.4-.8c0-.5-.3-.9-1-1.2l-.8-.3q-1.8-.7-1.8-2.1a1.8,1.8,0,0,1,.7-1.5,2.9,2.9,0,0,1,1.9-.6l1.5.2h.3v1.1a7.4,7.4,0,0,0-1.8-.4c-.8,0-1.3.4-1.3,1s.3.7,1,1l.7.3a3.6,3.6,0,0,1,1.5,1,1.9,1.9,0,0,1,.5,1.3,2.1,2.1,0,0,1-.8,1.6A3.2,3.2,0,0,1,19.5,111.7Z"/></g><g class="cls-3"><path d="M163.6,122.3v-5.9h1v1.1a2.6,2.6,0,0,1,2.1-1.2,1.7,1.7,0,0,1,1.2.5,1.7,1.7,0,0,1,.4,1.3v4.2h-1v-3.9a2,2,0,0,0-.2-.9.7.7,0,0,0-.6-.3,2.3,2.3,0,0,0-1.9,1.3v3.8Z"/><path d="M170.5,124.2v-.9a3.9,3.9,0,0,0,1.8.4c1.2,0,1.8-.6,1.8-1.9v-.9a2,2,0,0,1-1.9,1.2,2.1,2.1,0,0,1-1.7-.7,3.3,3.3,0,0,1-.6-2.1,3.2,3.2,0,0,1,.7-2.2,2.5,2.5,0,0,1,1.8-.8,2.3,2.3,0,0,1,1.7.8v-.7h1.1v4.3a8.8,8.8,0,0,1-.2,2,1.9,1.9,0,0,1-.5,1.1,2.9,2.9,0,0,1-2.2.7A6.3,6.3,0,0,1,170.5,124.2Zm3.7-3.9v-2.5a2.1,2.1,0,0,0-1.5-.7,1.4,1.4,0,0,0-1.2.6,3.4,3.4,0,0,0-.4,1.6c0,1.3.5,1.9,1.4,1.9A2.2,2.2,0,0,0,174.2,120.3Z"/><path d="M179.7,122.4a2.6,2.6,0,0,1-2-.8,3.3,3.3,0,0,1-.8-2.2,3.4,3.4,0,0,1,.8-2.3,2.8,2.8,0,0,1,2-.8,2.9,2.9,0,0,1,2.1.8,3.2,3.2,0,0,1,.7,2.2,3.2,3.2,0,0,1-.7,2.3A2.9,2.9,0,0,1,179.7,122.4Zm0-.8c1.1,0,1.7-.7,1.7-2.3s-.6-2.2-1.7-2.2-1.6.8-1.6,2.3S178.6,121.6,179.7,121.6Z"/><path d="M185.8,122.4l-1.8-.3v-1a4.9,4.9,0,0,0,1.8.5l.8-.2a.9.9,0,0,0,.3-.6c0-.4-.3-.7-.8-.9l-.7-.3c-.9-.4-1.3-.9-1.3-1.7a1.3,1.3,0,0,1,.5-1.2,2.4,2.4,0,0,1,1.5-.4h1.4v.9l-1.4-.3c-.7,0-1,.2-1,.7s.2.6.8.9l.5.2,1.2.7a2.1,2.1,0,0,1,.4,1.1,1.4,1.4,0,0,1-.6,1.2A2.4,2.4,0,0,1,185.8,122.4Z"/></g><g class="cls-3"><path d="M200.9,122.5v-1h2v-8l-2,.5v-1.1l3.4-.8v9.4h2v1Z"/><path d="M209,122.4v-1.2a8.2,8.2,0,0,0,2.2.5,2.5,2.5,0,0,0,1.6-.5,2,2,0,0,0,.6-1.5q0-2.1-3-2.1h-.5v-1h.5c1.8,0,2.8-.6,2.8-1.9s-.6-1.6-1.9-1.6a5.2,5.2,0,0,0-2.2.6v-1.2a6.6,6.6,0,0,1,2.3-.4c2.1,0,3.1.8,3.1,2.3a2.7,2.7,0,0,1-2.1,2.6c1.7.4,2.5,1.3,2.5,2.7a2.6,2.6,0,0,1-1,2.2,3.5,3.5,0,0,1-2.6.8Z"/><path d="M217.1,124.7v-.5c.5-.1.7-.7.7-1.6h-.7v-1.7h1.7v1.5C218.8,123.8,218.3,124.6,217.1,124.7Z"/><path d="M222.7,117a2.9,2.9,0,0,1-1.5-2.3,2.3,2.3,0,0,1,.9-1.9,3.2,3.2,0,0,1,2.2-.7,3.2,3.2,0,0,1,2,.6,1.9,1.9,0,0,1,.8,1.6,3.3,3.3,0,0,1-1.9,2.7c1.5.7,2.3,1.7,2.3,2.9a2.3,2.3,0,0,1-1,2,3.2,3.2,0,0,1-2.4.8,4.1,4.1,0,0,1-2.5-.7,2.5,2.5,0,0,1-.9-2A3.5,3.5,0,0,1,222.7,117Zm.8.5a3.7,3.7,0,0,0-1.1,1.1,2.1,2.1,0,0,0-.3,1.2,2.2,2.2,0,0,0,.5,1.4,2.5,2.5,0,0,0,1.5.5,2.4,2.4,0,0,0,1.5-.4,1.7,1.7,0,0,0,.5-1.2,1.5,1.5,0,0,0-.3-1l-1.4-1Zm1-1a2.6,2.6,0,0,0,1.4-2,1.2,1.2,0,0,0-.5-1,1.6,1.6,0,0,0-1.2-.4,2,2,0,0,0-1.3.4,1,1,0,0,0-.4.9,1.3,1.3,0,0,0,.4,1A6.1,6.1,0,0,0,224.5,116.5Z"/><path d="M230.6,122.5l-2.7-10.2h1.4l2.1,8.1,1.9-8.1h1.4l1.8,7.9,2.2-7.9h1.2l-2.8,10.2h-1.5l-1.8-7.8-1.8,7.8Z"/></g><g class="cls-3"><path d="M35.3,131.3a2.3,2.3,0,0,1-2.1-1.3,6.5,6.5,0,0,1,0-6.6,2.6,2.6,0,0,1,2.2-1.3,2.7,2.7,0,0,1,2.2,1.3,7.2,7.2,0,0,1,0,6.6A2.6,2.6,0,0,1,35.3,131.3Zm0-.9c1.3,0,1.9-1.2,1.9-3.7s-.6-3.7-1.8-3.7-1.8,1.2-1.8,3.7S34.2,130.4,35.3,130.4Z"/></g><g class="cls-3"><path d="M334.8,134.4a4,4,0,0,1-3.1-1.2,5,5,0,0,1-1.2-3.5,4.7,4.7,0,0,1,1.2-3.4,3.9,3.9,0,0,1,3.1-1.3,3.9,3.9,0,0,1,3.2,1.3,4.7,4.7,0,0,1,1.1,3.4,4.9,4.9,0,0,1-1.1,3.5A4.4,4.4,0,0,1,334.8,134.4Zm0-1.2c1.7,0,2.6-1.2,2.6-3.5s-.8-3.5-2.6-3.5-2.5,1.2-2.5,3.5S333.1,133.2,334.8,133.2Z"/><path d="M353,134.5a5.2,5.2,0,0,1-4.1-1.7,7.2,7.2,0,0,1-1.5-4.7,6.8,6.8,0,0,1,1.5-4.7,5.4,5.4,0,0,1,4.2-1.8,5.2,5.2,0,0,1,4.2,1.8,6.4,6.4,0,0,1,1.6,4.7,6.7,6.7,0,0,1-1.6,4.7A5.3,5.3,0,0,1,353,134.5Zm.1-1.3a3.5,3.5,0,0,0,2.9-1.3,6.3,6.3,0,0,0,1-3.9,5.8,5.8,0,0,0-1-3.7,3.7,3.7,0,0,0-5.8,0,6.6,6.6,0,0,0-1,3.8,7.1,7.1,0,0,0,1,3.8A3.5,3.5,0,0,0,353.1,133.2Z"/></g><g class="cls-4"><path class="cls-5" d="M35.9,122.1a1.3,1.3,0,0,1-1,1.6,1.3,1.3,0,0,1-1.7-.9v-1a1.5,1.5,0,0,1,.6-1l-.2.2.2-.4a1.4,1.4,0,1,1,2.2,1.6s.2.1-.5.7.4-.6.3-.4.2-.5.1-.4v.3h0c0,.1-.1-.4,0-.2M33.7,84.8a1.4,1.4,0,0,1,2.8,0v4.3c.1,1.5.1,3.1.1,4.9s0,3.5-.1,5.3l-.3,2.5a18.5,18.5,0,0,1-.1,2.3v1.7c.1,1.6,0,3.2,0,4.7a14.8,14.8,0,0,1,.1,2.1c0,1.4,0,2.8-.1,4v2.5c0,.5-.1.9-.1,1.4v.8a.7.7,0,0,0-.1.5v.8a.8.8,0,0,1-.1.3,1.3,1.3,0,1,1-2.5-.9c0-.2-.1.3-.1.2h0v-1.2c0-.3.1-.5.1-.8V119a20.9,20.9,0,0,0,.1-2.5c0-1.2.1-2.5.1-3.9a14.8,14.8,0,0,1-.1-2.1V104a21.8,21.8,0,0,1,.1-2.5,17.9,17.9,0,0,0,.2-2.4,44.3,44.3,0,0,0,.2-5.1c0-1.7,0-3.3-.1-4.8s-.1-2.1-.1-3V84.8"/><path class="cls-5" d="M336.7,120.6a1.3,1.3,0,0,1-.6,1.8,1.4,1.4,0,0,1-1.8-.6l-.2-.4v-.2a2.8,2.8,0,0,0-.1-.8,1.4,1.4,0,0,1,1.3-1.5,1.4,1.4,0,0,1,1.5,1.2v.8h0v-.3m-2.5-36.3a1.4,1.4,0,1,1,2.8,0v1.1c0,1.6.1,3.8.1,6.2s.2,5,.3,7.6v5.4c-.1.7-.1,1.4-.2,2.3v3.8c0,1.7.1,3.2.1,5a13.6,13.6,0,0,1-.1,2.8,5.3,5.3,0,0,1-.3,1.1v.6a2.6,2.6,0,0,0,0,.9c0,.1.1-.2-.1.5a1.4,1.4,0,0,1-1.7.9,1.4,1.4,0,0,1-.9-1.7c0-.2-.1.2-.1.2s0,.2,0,.1h0v-1.1a4.5,4.5,0,0,1,.1-1.1,3.3,3.3,0,0,0,.3-1,14.8,14.8,0,0,0,.1-2.3c0-1.7-.1-3.2-.1-5a19.1,19.1,0,0,1,0-2.4v-1.5a20.2,20.2,0,0,0,.1-2.3c0-.6.1-1.1.1-1.7V99.3c-.1-2.5-.3-5-.3-7.7s-.2-4.5-.2-6.2V84.3m2.8.3a1.4,1.4,0,1,1-2.8,0v-.2h0a1.4,1.4,0,1,1,2.8,0h0v.2"/></g><g class="cls-4"><path d="M66.5,13a.4.4,0,0,1,.8,0V28.8a.4.4,0,1,1-.8,0Z"/><path d="M66.9,29.3a.5.5,0,0,1-.4-.5.4.4,0,0,1,.4-.4h47.5a.4.4,0,0,1,.4.4c0,.3-.1.5-.4.5Z"/><path d="M114,13a.4.4,0,0,1,.4-.4.4.4,0,0,1,.4.4V28.8c0,.3-.1.5-.4.5a.5.5,0,0,1-.4-.5Z"/><path d="M66.9,13.4a.4.4,0,1,1,0-.8h47.5a.4.4,0,1,1,0,.8Z"/><path d="M66.5,76.4a.4.4,0,1,1,.8,0V92.2a.4.4,0,1,1-.8,0Z"/><path d="M66.9,92.6a.4.4,0,0,1,0-.8h47.5a.4.4,0,0,1,0,.8Z"/><path d="M114,76.4a.4.4,0,0,1,.4-.4c.3,0,.4.1.4.4V92.2a.4.4,0,0,1-.4.4.4.4,0,0,1-.4-.4Z"/><path d="M66.9,76.8a.4.4,0,0,1-.4-.4.4.4,0,0,1,.4-.4h47.5c.3,0,.4.1.4.4a.4.4,0,0,1-.4.4Z"/><path d="M177.4,44.7a.4.4,0,0,1,.8,0V60.5a.4.4,0,0,1-.8,0Z"/><path d="M177.8,60.9a.4.4,0,0,1-.4-.4.4.4,0,0,1,.4-.4h47.5a.4.4,0,0,1,.4.4.4.4,0,0,1-.4.4Z"/><path d="M224.9,44.7a.4.4,0,1,1,.8,0V60.5a.4.4,0,1,1-.8,0Z"/><path d="M177.8,45.1a.4.4,0,1,1,0-.8h47.5a.4.4,0,0,1,0,.8Z"/><path d="M256.6,13a.4.4,0,0,1,.8,0V28.8a.4.4,0,1,1-.8,0Z"/><path d="M257,29.3a.5.5,0,0,1-.4-.5.4.4,0,0,1,.4-.4h47.5a.4.4,0,0,1,.4.4.5.5,0,0,1-.4.5Z"/><path d="M304.1,13a.4.4,0,0,1,.8,0V28.8a.4.4,0,1,1-.8,0Z"/><path d="M257,13.4a.4.4,0,1,1,0-.8h47.5a.4.4,0,0,1,0,.8Z"/><path d="M256.6,44.7a.4.4,0,1,1,.8,0V60.5a.4.4,0,1,1-.8,0Z"/><path d="M257,60.9a.4.4,0,0,1-.4-.4.4.4,0,0,1,.4-.4h47.5a.4.4,0,0,1,.4.4.4.4,0,0,1-.4.4Z"/><path d="M304.1,44.7a.4.4,0,1,1,.8,0V60.5a.4.4,0,1,1-.8,0Z"/><path d="M257,45.1a.4.4,0,1,1,0-.8h47.5a.4.4,0,0,1,0,.8Z"/><path d="M178.3,83c.1.2.1.5-.1.6a.3.3,0,0,1-.5,0c-.3-.4-.6-.5-.9-.4a.7.7,0,0,0-.6.5,1.4,1.4,0,0,0-.2,1.1,1,1,0,0,0,.6.9,1.8,1.8,0,0,0,1.3.4,2.5,2.5,0,0,0,1.6-.5,2,2,0,0,0,.9-1.4,1.4,1.4,0,0,0-.1-.9,1.2,1.2,0,0,0-.7-.5h-2.2v.6a.3.3,0,0,1-.3.5c-.2.1-.4-.1-.5-.3a3.3,3.3,0,0,1,0-1,1.1,1.1,0,0,1,.7-.6h2.5a2.2,2.2,0,0,1,1.2.9,2.5,2.5,0,0,1,.2,1.5,3.3,3.3,0,0,1-1.2,1.9,3.5,3.5,0,0,1-2.2.6,2.6,2.6,0,0,1-1.7-.5,2,2,0,0,1-.9-1.5,2.6,2.6,0,0,1,.3-1.7,1.7,1.7,0,0,1,2.8-.2"/><path d="M210.1,82.8c.1.2.1.5-.1.6s-.4.1-.6,0-.5-.5-.8-.4a1,1,0,0,0-.7.5,3.1,3.1,0,0,0-.2,1.1,1.5,1.5,0,0,0,.6.9,2.1,2.1,0,0,0,1.4.4,3.7,3.7,0,0,0,1.6-.5,2.4,2.4,0,0,0,.9-1.4,1,1,0,0,0-.2-.9.7.7,0,0,0-.7-.5h-2.1q-.1.2,0,.6c.1.2-.1.4-.3.5a.5.5,0,0,1-.5-.3,1.7,1.7,0,0,1,0-1,1.2,1.2,0,0,1,.6-.6h2.5a1.8,1.8,0,0,1,1.3.9,2.4,2.4,0,0,1,.2,1.5,2.6,2.6,0,0,1-1.3,1.8,2.8,2.8,0,0,1-2.1.7,3.4,3.4,0,0,1-1.7-.5,2.1,2.1,0,0,1-1-1.5,3.4,3.4,0,0,1,.3-1.7,1.8,1.8,0,0,1,2.9-.2"/><path d="M35.7,122.5a.4.4,0,1,1-.7.5,1.2,1.2,0,0,0-.8-.4,1.5,1.5,0,0,0-.7.5,4.3,4.3,0,0,0-.2,1.2,1.5,1.5,0,0,0,.6.9l1.3.4a3.2,3.2,0,0,0,1.7-.6,2,2,0,0,0,.9-1.3,1.6,1.6,0,0,0-.2-1,1,1,0,0,0-.7-.5H34.8q-.1,0,0,.6c.1.2-.1.4-.3.5a.5.5,0,0,1-.5-.4,1.7,1.7,0,0,1,0-1,1.2,1.2,0,0,1,.6-.6,6.5,6.5,0,0,1,1.4,0,4,4,0,0,1,1.1,0,2.5,2.5,0,0,1,1.3.9,2.6,2.6,0,0,1,.2,1.5,2.8,2.8,0,0,1-1.3,1.9,4,4,0,0,1-2.1.7,3.4,3.4,0,0,1-1.7-.5,2.5,2.5,0,0,1-1-1.5,3.2,3.2,0,0,1,.3-1.7,2,2,0,0,1,1.3-.9,1.9,1.9,0,0,1,1.6.7"/><path d="M336.1,122.7a.4.4,0,1,1-.7.5,1,1,0,0,0-.8-.4,1.5,1.5,0,0,0-.7.5,2.4,2.4,0,0,0-.1,1.2,1.1,1.1,0,0,0,.5.9,2.5,2.5,0,0,0,3-.2,2,2,0,0,0,.9-1.3,1.2,1.2,0,0,0-.8-1.5h-2.2a1.1,1.1,0,0,0,0,.6c.1.2-.1.4-.3.5a.5.5,0,0,1-.5-.3,2,2,0,0,1,0-1.1.7.7,0,0,1,.6-.5c.5-.2,1,0,1.4-.1h1.1A2,2,0,0,1,339,124a2.6,2.6,0,0,1-1.3,1.9,3.3,3.3,0,0,1-2.1.7,3.4,3.4,0,0,1-1.7-.5,2.3,2.3,0,0,1-1-1.5,3.2,3.2,0,0,1,.3-1.7,2,2,0,0,1,1.3-.9,1.9,1.9,0,0,1,1.6.7"/><path d="M115.4,21.2a.5.5,0,0,1-.5.4.4.4,0,0,1-.4-.4.5.5,0,0,1,.4-.5.5.5,0,0,1,.5.5"/><path d="M114.4,21.6c-.2.1-.4-.1-.4-.4a.4.4,0,0,1,.4-.4L257,19.6a.4.4,0,0,1,.4.4.5.5,0,0,1-.4.5Z"/><path d="M304.5,21.8c-.2.1-.4-.1-.4-.4a.4.4,0,0,1,.4-.4l31.7-.6a.4.4,0,0,1,.4.4c0,.3-.2.4-.4.5Z"/><path d="M225.3,53.7a.5.5,0,0,1-.4-.5.4.4,0,0,1,.4-.4H257a.4.4,0,0,1,.4.4.5.5,0,0,1-.4.5Z"/><path d="M146.1,53.9a.4.4,0,0,1-.4-.4.4.4,0,0,1,.4-.4l31.7-.9a.4.4,0,0,1,.4.4c0,.3-.2.4-.4.5Z"/><path d="M114.4,85a.4.4,0,1,1,0-.8l63.4-.6a.4.4,0,0,1,0,.8Z"/><path d="M212.8,84.7a.4.4,0,0,1-.4-.4c0-.3.1-.5.4-.5l123.4-1.3a.4.4,0,1,1,0,.8Z"/><path d="M304.5,52.9a.4.4,0,0,1-.4-.4.4.4,0,0,1,.4-.4h31.7a.4.4,0,0,1,.4.4.4.4,0,0,1-.4.4Z"/><path d="M335.8,20.8a.4.4,0,0,1,.8,0V123.9a.4.4,0,1,1-.8,0Z"/><path d="M34.8,20.6a.4.4,0,0,1,.4-.4.4.4,0,0,1,.4.4V123.9a.4.4,0,0,1-.4.4.4.4,0,0,1-.4-.4Z"/><path d="M35.2,84.3a.4.4,0,0,1-.4-.4.5.5,0,0,1,.4-.5H66.9a.5.5,0,0,1,.4.5.4.4,0,0,1-.4.4Z"/><path d="M35.2,21.1a.5.5,0,0,1-.4-.5.4.4,0,0,1,.4-.4H66.9a.4.4,0,0,1,.4.4.5.5,0,0,1-.4.5Z"/><path d="M145.7,53.5a.4.4,0,1,1,.8,0V84.3a.4.4,0,0,1-.8,0Z"/><path d="M177.7,76.8c-.2-.1-.4-.3-.3-.5a.4.4,0,0,1,.5-.3l31.7,6.6c.2,0,.3.2.3.5a.5.5,0,0,1-.5.3Z"/><path d="M45.7,124.7a.9.9,0,0,1-.8-.8.8.8,0,0,1,.8-.8h281a.8.8,0,0,1,.9.8.9.9,0,0,1-.9.8Z"/><path d="M324.8,121.7a.9.9,0,0,1-1,.6.8.8,0,0,1-.6-1,2.1,2.1,0,0,1,.4-.6l.5-.2h.7a4.2,4.2,0,0,1,1.4.6,17.4,17.4,0,0,1,3.4,1.6,2.6,2.6,0,0,1,1.3,1.4,2,2,0,0,1-.1,1.3,2.5,2.5,0,0,1-1.4,1.1l-1.5.4a10.8,10.8,0,0,0-2.3,1,.8.8,0,0,1-1.1,0,.9.9,0,0,1,0-1.2,7,7,0,0,1,2.9-1.3l1.5-.5a.5.5,0,0,0,.4-.2h0v-.2c0-.1-.2-.3-.6-.5l-3.2-1.6-1.1-.4c-.1-.1,0-.1-.1-.1h.3c-.2.1.2-.4.2-.3"/><path class="cls-6" d="M34.8,104.1a.8.8,0,0,1,1.2.1.8.8,0,0,1-.1,1.1c-.1.1.1,0,0,0s-.6,1.4-1.2,2.8a18.2,18.2,0,0,0-1,1.9l-.4.6-.4.3a.8.8,0,0,1-.7.1c-.3-.1-.4-.4-.5-.6a.6.6,0,0,1-.1-.4,3.8,3.8,0,0,1,.6-1.6,17.3,17.3,0,0,1,1-2.4c.2-.5.5-.9.7-1.3l.4-.6a1.5,1.5,0,0,1,1-.4c.3.1.6.2.7.4s.2.2.2.3a1.4,1.4,0,0,1,.2.6,19.5,19.5,0,0,1,.6,3.9,3.7,3.7,0,0,0,.4,1h-.7a.8.8,0,0,1,1.6.4c-.1.2-.1.4-.2.6l-.6.4h-.8l-.4-.3a3.8,3.8,0,0,1-.9-1.9,30.3,30.3,0,0,0-.5-3.7c-.1-.1-.1-.3-.2-.3s.1,0,.1,0h.1c-.1-.1.3.1.2,0h.4l-.2.3-.6,1.1a16,16,0,0,0-1,2.3l-.4,1.1s-.1-.3-.1-.2v-.2l-.3-.2h-.6c.1-.1-.2.2-.2.1l.2-.4a14.5,14.5,0,0,0,1-1.8l.8-2c.3-.5.3-.9.8-1.3"/><path class="cls-6" d="M33.3,109.5a.9.9,0,1,1-.1,1.7h-.3c-.1-.1-.3.1-.6-.5a.8.8,0,0,1,.2-1h.2c.3-.2.4-.1.6-.1h.8a7.5,7.5,0,0,0,3.2-.3.9.9,0,0,1,1.1.5.8.8,0,0,1-.4,1.1,10.5,10.5,0,0,1-3.9.3h-.5c0,.1.3-.5.2-.4v-.2c0,.1-.1-.4,0-.3l-.2-.2-.2-.2c.1.1-.2,0-.1,0h0"/><path class="cls-6" d="M34.1,107.8a.8.8,0,0,1,.1-1.2.8.8,0,0,1,1.3.8v.2c-.1.1-.1.2-.1.4l-.3.7a1.8,1.8,0,0,0-.1.5s-.1-.2,0-.1l-.2-.3h-.3c.1,0-.2,0-.2-.1a.9.9,0,1,1,.3,1.7,1.3,1.3,0,0,1-1-.3,1.6,1.6,0,0,1-.3-.8,3,3,0,0,1,.2-1l.3-.8v-.2h0v.2c0-.1.1.2,0,.1l.2.3m.3-1.4a.8.8,0,1,1,.7,1.5,4.4,4.4,0,0,0-.5.9,2,2,0,0,1-.1.5h0V109c.1.1-.1-.2-.1-.1s-.2-.3-.1-.2-.5-.2-.3-.2h-.3l-.3.2c0-.1-.2.1-.2.1l.5-1c.1-.2.1-.4.2-.6s.1-.2.1-.3a.1.1,0,0,0,.1-.1l.2-.2h0a.8.8,0,0,1,1.1.1.8.8,0,0,1-.1,1.2h0s.2-.2.1-.2h0a4.1,4.1,0,0,1-.2.7,2.5,2.5,0,0,1-.4.7,1.2,1.2,0,0,1-.5.8l-.4.2-.6-.2a.7.7,0,0,1-.3-.6c-.1-.2,0-.3,0-.3s.1-.5.1-.7a2.5,2.5,0,0,1,1.4-2"/><path class="cls-6" d="M17,124.1a.4.4,0,0,1-.4-.4.4.4,0,0,1,.4-.4h4.9c.3,0,.4.1.5.4a.4.4,0,0,1-.4.4H17"/><path class="cls-6" d="M20.4,121.4a.7.7,0,0,1-.4.5.4.4,0,0,1-.4-.4h.7c-.1.1-.1.3-.2.5a12,12,0,0,0-.1,3.2c.1.2-.1.4-.3.5a.5.5,0,0,1-.5-.3,7.1,7.1,0,0,1-.1-1.6c.1-.7.1-1.4.2-2s.1-.4.2-.6h0l.3-.2h.4a9834330967043.5,9834330967043.5,0,0,1,.2.4"/><path class="cls-6" d="M18.4,119.3a.4.4,0,0,1,.2.5c0,.2-.3.3-.5.3s-.9,0-1.5.3a4.1,4.1,0,0,0-1.5,1.9,4.6,4.6,0,0,0-.3,2.3,3.4,3.4,0,0,0,1.1,1.9,4.2,4.2,0,0,0,2,1,2.6,2.6,0,0,0,2.2-.5,7.7,7.7,0,0,0,1.9-2.1,6.3,6.3,0,0,0,1.1-2.6,2.1,2.1,0,0,0-.3-1.6,2.7,2.7,0,0,0-1.3-1,4.4,4.4,0,0,0-4.1,1.2c-.2.2-.4.1-.6,0s-.1-.5.1-.6a5.1,5.1,0,0,1,4.9-1.3,3,3,0,0,1,1.7,1.2,3.3,3.3,0,0,1,.5,2.2,8.4,8.4,0,0,1-1.3,2.9,8.4,8.4,0,0,1-2.2,2.4,3.5,3.5,0,0,1-2.8.6,5,5,0,0,1-2.4-1.2,4.7,4.7,0,0,1-1.3-2.4,5.1,5.1,0,0,1,.4-2.7,4.3,4.3,0,0,1,1.7-2.2,2.5,2.5,0,0,1,2.3-.5"/><path d="M347.5,124.6c-.1.2-.4.1-.5,0a.4.4,0,0,1,.1-.6,1.6,1.6,0,0,1,1-.2h1.7l3.9.4c.2.1.4.3.3.5a.3.3,0,0,1-.5.3l-3.7-.4h-2.3s.1-.1,0-.1"/><path d="M356.9,126.4a.4.4,0,0,1-.5-.7h.5s-.2.1-.1.1h-.2c-.1-.2,0-.3,0-.4s.1-.1.1-.2l.2-.2.3-.3v.2h0a.4.4,0,0,1-.2-.4v-.5a2.7,2.7,0,0,0-.8-1.8l-.7-.8c-.1-.2-.3-.3-.4-.4l-.9-.3-.6-.2a10.4,10.4,0,0,1-2.3-1h-2.4c-.4,0-.6-.2-.8-.2l-.8.2a.9.9,0,0,0-.3.6.4.4,0,1,1-.8,0,1.5,1.5,0,0,1,.7-1.3,2.2,2.2,0,0,1,1.4-.3l.7.2h1.2l1.4.2a14.7,14.7,0,0,0,2.2,1l.7.2,1,.4.6.5.7.9a3.1,3.1,0,0,1,1,2.4v.2h0s-.2-.1-.1-.1l.3.3c0,.2.1.4,0,.6l-.4.5h-.1s-.1-.2,0-.2a.8.8,0,0,0,.1.4v.4l-.2.2c-.1,0-.2,0-.2.1h-.1m-1,1.2a.5.5,0,0,1-.6-.2.4.4,0,0,1,.2-.5h.4l.7-.4-.2-.2c.1.1-.1,0-.1,0h0l.2-.2c.1,0-.1.1-.1.1s-.1.1,0,.1h-.1v-.2c-.1-.2,0-.5.2-.5s.5,0,.5.2a.6.6,0,0,1,.1.4v.4l-.3.2h-.5a.4.4,0,0,1-.4-.2.5.5,0,0,1,.1-.6c.2-.1.4,0,.6.2s.1.2.1.4v.2a.5.5,0,0,1-.3.4h-.5m-.9.6c-.2-.1-.4-.3-.3-.5s.3-.4.5-.3h0l.3-.2c.1,0-.2.2-.1.2s-.1.1-.1.1h0v-.2c-.1-.2.1-.4.3-.4s.4,0,.5.3v.5c-.1.1-.1.3-.3.3H355m-.2.4h-.6a.6.6,0,0,1,0-.6h.8s-.2.2-.2.1h-.1c.1,0,0,.1,0,.1h0c-.1-.2,0-.4.3-.5s.4,0,.5.3v.5a.3.3,0,0,1-.3.3h-.4m-4.9-7.9c.1.2,0,.5-.2.5a.4.4,0,0,1-.5-.2c-.1-.1,0-.4,0-.4h0c-.1-.2-.1-.3-.2-.4l-1-.2h-.8a1.2,1.2,0,0,0-.8.4,6.3,6.3,0,0,0-.7,1.2,4.1,4.1,0,0,0-.5,3.5,6.5,6.5,0,0,0,1.7,2.6,6.2,6.2,0,0,0,1.6,1l.8.3h3c.3,0,.5-.2.8-.3l.5-.2h-.1v-.2l.5-.3h.1c0-.1-.1,0-.1,0s0,.1,0,.1h0c0-.3.1-.5.3-.5a.3.3,0,0,1,.5.3v.3a.4.4,0,0,1-.1.3l-.3.2h-.3q0,.2-.3.3h-.4a2.1,2.1,0,0,1-1.1.4H349l-.9-.4-1.8-1.1a7.4,7.4,0,0,1-1.8-2.9,4.8,4.8,0,0,1,.4-4.2,7.1,7.1,0,0,1,1-1.4,1.4,1.4,0,0,1,1.4-.6h.8c.4.1,1,0,1.4.4a1.8,1.8,0,0,1,.5.8,1,1,0,0,1-.1.4v-.2"/><path d="M36.3,82.7a.9.9,0,0,1-1.6.6s.2.1.1,0l.3.2h.3c-.1.1,0,0,0,.2v.8h0v-.4h-.1c-.1,0,0,.1,0,.2s0-.1,0-.1-.1-.1-.1,0h0l.3-.3h0c0-.2.2.3.1.2h-.5a.7.7,0,0,1-.7.9.8.8,0,0,1-.9-.8,1.6,1.6,0,0,1,.6-1.3,2.2,2.2,0,0,1,1.1-.5,2.2,2.2,0,0,1,1.1.2.5.5,0,0,1,.5.3,1.1,1.1,0,0,1,.3.8,1.3,1.3,0,0,1-.2,1,2.4,2.4,0,0,1-1.4,1,1.6,1.6,0,0,1-1.8-.9,1.7,1.7,0,0,1,0-1,1.7,1.7,0,0,1,1.2-1.3,1.7,1.7,0,0,1,1.5.2,1.6,1.6,0,0,1,.6,1.2,2.1,2.1,0,0,1-.1,1.1,1.5,1.5,0,0,1-.8,1H34.9a1.8,1.8,0,0,1-1-.8,1,1,0,0,1-.1-.7,2.2,2.2,0,0,1,.2-1.7,1.4,1.4,0,0,1,1.1-.7,1.1,1.1,0,0,1,.8.3,2.1,2.1,0,0,1,.4.6"/><path d="M146.8,82.5A.9.9,0,0,1,146,84h0c-.1.1-.1.1-.1.3s0,.1.1.2h-.4l.2-.2c.1,0,.1-.2.1-.3v.2h.1c-.1,0,0-.1,0-.1h0l-.2.3v-.2c0,.1-.3-.3-.2-.2h-.2l.2-.2h-.1v.1h.4v.2a.8.8,0,0,1-1.5-.5,1.7,1.7,0,0,1,.6-1,1.4,1.4,0,0,1,1.1-.3,1.5,1.5,0,0,1,.9.6,1.4,1.4,0,0,1,.1,1.1,1.3,1.3,0,0,1-.7,1.1l-.5.2a1,1,0,0,1-.9,0,1.4,1.4,0,0,1-.7-.6,2.8,2.8,0,0,1-.1-.9,4.1,4.1,0,0,1,.5-.9,1.6,1.6,0,0,1,.9-.7,2.5,2.5,0,0,1,1.2.2,1.8,1.8,0,0,1,.7,1.1,2.5,2.5,0,0,1-.6,1.6l-.8.5h-.6a1.1,1.1,0,0,1-.7-.3,1.7,1.7,0,0,1-.6-1.6,1.6,1.6,0,0,1,.6-1.3,1.3,1.3,0,0,1,.9-.4,1.2,1.2,0,0,1,1,.1"/><path d="M336.2,81.7a.8.8,0,0,1,.4,1.1.8.8,0,0,1-1.1.4h-.2c-.1,0-.1.2-.1.4s-.1-.2,0-.2-.1,0-.1,0l.4-.2v-.3h0c-.1-.1.2.2.1.2h0l-.5.2s.1-.2,0-.1.1-.2.1-.1-.1-.3-.1-.2l-.2-.3h-.5c.1,0,0,0,0-.1a.5.5,0,0,0,.4-.3h0s.1.3.1.2l.2.3h.3a.9.9,0,0,1-1.2-.2c-.2-.4-.2-.9.2-1.1a1.2,1.2,0,0,1,.9-.4h.7l.4.5a1.4,1.4,0,0,1,0,.9,1.8,1.8,0,0,1-.5.7l-.5.5a1.3,1.3,0,0,1-1,.3,1.1,1.1,0,0,1-.8-.7,1.1,1.1,0,0,1,0-.8,1.3,1.3,0,0,1,.6-.7l1.2-.4h.7a1.4,1.4,0,0,1,.8.6,2,2,0,0,1,.2,1.1,2.1,2.1,0,0,1-.8,1.5,1.8,1.8,0,0,1-1.4.4,1.6,1.6,0,0,1-.9-.3,2.2,2.2,0,0,1-.5-.8,5.7,5.7,0,0,1,.1-1.3,1.6,1.6,0,0,1,1.1-1,2.3,2.3,0,0,1,1.4.2"/><path d="M335.7,51a.8.8,0,0,1,.1,1.1.7.7,0,0,1-1.1.2h.1a.4.4,0,0,0-.1.3h0s-.2-.1-.1-.1h.1c0-.1.1.3,0,.2s.2.2.1.2h.3c-.1,0,.3-.1.3,0h.1l-.3.3h0v-.4c0,.1-.3-.4-.2-.3l-.3-.2c.2.1-.4,0-.3,0h-.2c.1-.1.2-.2.2-.3h0c0-.1.2.2.1.1s.2.2.2.1,0,.1,0,.1h-.1a.8.8,0,0,1-1.1.5.8.8,0,0,1-.4-1.1,1.7,1.7,0,0,1,1.2-1h.7a.9.9,0,0,1,.8.4,1.6,1.6,0,0,1,.3.9,3.2,3.2,0,0,1-.3.9l-.6.5-.3.3h-.2a1,1,0,0,1-.9-.3.8.8,0,0,1-.2-.6v-.4l.3-.5.4-.4.3-.3.7-.2a1.3,1.3,0,0,1,.8.6,1.2,1.2,0,0,1,.2.8,1.9,1.9,0,0,1-.7,1.2l-.7.3a1.1,1.1,0,0,1-1.1-.1,1.2,1.2,0,0,1-.6-.6,1.4,1.4,0,0,1-.1-.9,1.7,1.7,0,0,1,.3-1,1.6,1.6,0,0,1,.9-.7,1.4,1.4,0,0,1,1.4.2"/><path d="M335.2,51.7a.7.7,0,0,1,1.1.2.7.7,0,0,1-.2,1.1h.1c0,.1-.1.2-.2.5a.8.8,0,0,0-.1.3c0,.1-.2-.2-.1-.2h0l.2-.4h-.8s.1-.1,0-.1.1-.4.1-.3-.1-.4-.1-.3-.2-.2-.1-.2h0a.8.8,0,1,1-.7,1.5,1.3,1.3,0,0,1-.6-.5,1.2,1.2,0,0,1,0-1,2.8,2.8,0,0,1,.9-.7l1.1-.2a1.9,1.9,0,0,1,1.2.4,1.6,1.6,0,0,1,.6.8,1.4,1.4,0,0,1-.1,1.1,2,2,0,0,1-1,1.3l-.8.2a1.6,1.6,0,0,1-1-.3,1.7,1.7,0,0,1-.5-1.2,1.9,1.9,0,0,1,.3-.8,1.4,1.4,0,0,1,.7-1.1"/><path d="M83.4,18.5a.4.4,0,0,1,.2-.5c.2-.1.5-.1.6.1s-.1-.1-.1,0h.2l1.8.3c.3.1.6,0,.9.3a.5.5,0,0,1,.2.6l-.2.3-.8.7-2.1,1.5a4.4,4.4,0,0,0-1.2,1.1h-.1c0,.1.1.1.3.1a4.8,4.8,0,0,0,2.2-.3.5.5,0,0,1,.5.3c.1.2-.1.4-.3.5a8.1,8.1,0,0,1-2.5.4l-.8-.4A.6.6,0,0,1,82,23a.8.8,0,0,1,.2-.5,6.2,6.2,0,0,1,1.4-1.4l2.1-1.5.7-.5c0-.1,0-.1.1-.1s-.1.1-.1,0,.1.3.1.2h-.6l-1.8-.3-.4-.2h-.1l-.2-.2m.5-.6c.2,0,.4.3.4.5s-.3.4-.5.3H84a.3.3,0,0,1-.5-.1.4.4,0,0,1,.1-.6h.3"/><path d="M91.7,20.1a.4.4,0,0,1,.3.5c0,.2-.2.4-.4.3a.7.7,0,0,0-.6.2,1.6,1.6,0,0,0-.6.8,2.9,2.9,0,0,0-.2.9c0,.1,0,.2.1.2s0,.1.1.1h.8A3.7,3.7,0,0,0,93,21.6a3.7,3.7,0,0,0,.7-1.4V20h0s.1.1,0,.1H92.3l-.8.4-.2.2h0a.4.4,0,0,1-.3.5c-.2.1-.4-.1-.5-.3a1.3,1.3,0,0,1,.1-.6l.3-.5,1.1-.5a3,3,0,0,1,1.3-.2c.4,0,.8,0,1,.3a.6.6,0,0,1,.2.5v.3a4.8,4.8,0,0,1-.8,1.8c-.6.8-1.4,1.8-2.4,1.9a1.7,1.7,0,0,1-1.2-.1,1,1,0,0,1-.6-.5,1.3,1.3,0,0,1-.1-.6,2.5,2.5,0,0,1,.2-1.2,2.4,2.4,0,0,1,.9-1.1,1.3,1.3,0,0,1,1.2-.4"/><path d="M97.2,19.6c.2-.1.4,0,.5.3s-.1.4-.3.5a1.9,1.9,0,0,0-.7.6,3.6,3.6,0,0,0-.4,1.1,1.3,1.3,0,0,0,0,.9.2.2,0,0,0,.2.2h1.4c.3-.1.7-.6,1-1a5.1,5.1,0,0,0,.8-1.3q.1-.3,0-.3c0-.1,0-.1-.1-.1a2.2,2.2,0,0,0-1.6.6.4.4,0,1,1-.5-.7,3.5,3.5,0,0,1,2.2-.7,1,1,0,0,1,.8.5,1.4,1.4,0,0,1,0,.9,6.5,6.5,0,0,1-.9,1.6A4.4,4.4,0,0,1,98.2,24h-2a1.2,1.2,0,0,1-.6-.6,1.7,1.7,0,0,1-.1-1.4,8.8,8.8,0,0,1,.5-1.5,2.2,2.2,0,0,1,1.2-.9"/><path d="M81.2,85.9c.2-.1.4.1.5.3a.5.5,0,0,1-.4.5h-.4a.5.5,0,0,1-.4-.3.6.6,0,0,1-.1-.4c0-.1.1-.2.1-.4l1.2-1.4L84,82.1a5.5,5.5,0,0,1,1.8-1h.5a.7.7,0,0,1,.5.4,3.5,3.5,0,0,1-.6,2.3,9.3,9.3,0,0,1-.5,1c0,.2-.1.3-.1.4h-.1a.4.4,0,0,1-.4.4.4.4,0,0,1-.4-.4c0-.3.2-.4.3-.7l.5-1.1a6.8,6.8,0,0,0,.5-1.7s.2.2.1.2,0,0-.1,0a2.7,2.7,0,0,0-1.5.9l-2.2,2a6.7,6.7,0,0,0-1,1.2h-.1s-.1-.2,0-.1h0"/><path d="M91.4,81c.2-.1.4.1.4.3s-.1.5-.4.5a.7.7,0,0,0-.7.6.8.8,0,0,0-.1.4h.1l.8.2.8.2a1.2,1.2,0,0,1,.5.5,1.3,1.3,0,0,1-.1.6,5.4,5.4,0,0,1-.5,1.1,3.9,3.9,0,0,1-1,.8,1.5,1.5,0,0,1-1.3,0,.7.7,0,0,1-.1-.6.5.5,0,0,1,.6-.1c.1.1.2.1.4,0l.7-.6a2,2,0,0,0,.4-.8V84h0l-.7-.2a1.6,1.6,0,0,1-.9-.3l-.4-.2a.9.9,0,0,1-.3-.6,1.4,1.4,0,0,1,.2-.7A1.5,1.5,0,0,1,91.4,81"/><path d="M90.6,82.6a.7.7,0,0,1-.5-.4.4.4,0,0,1,.4-.4,19.5,19.5,0,0,0,4.3-.5c.2-.1.4.1.5.3a.5.5,0,0,1-.3.5,22.3,22.3,0,0,1-4.4.5"/><path d="M96.1,81.4a.4.4,0,0,1,.5-.2.5.5,0,0,1,.2.6,7.1,7.1,0,0,0-1,2.3,2.8,2.8,0,0,0,0,1.3l.2.3h.4a1.1,1.1,0,0,0,.8,0,4.8,4.8,0,0,0,1.6-2,2.7,2.7,0,0,0,.4-1.3c0-.1,0-.2-.2-.3l-.7-.2a1.9,1.9,0,0,0-1.6.7.6.6,0,0,1-.6.1.7.7,0,0,1-.1-.6,2.9,2.9,0,0,1,2.3-1,2,2,0,0,1,1.1.3,1,1,0,0,1,.6,1,3,3,0,0,1-.5,1.7,4,4,0,0,1-2.1,2.3,1.4,1.4,0,0,1-1.1.1l-.8-.2a2.2,2.2,0,0,1-.5-.8,3.3,3.3,0,0,1,0-1.7,7.4,7.4,0,0,1,1.1-2.5"/><path d="M192.3,56.6c-.1.3-.3.4-.5.3s-.4-.2-.3-.4.7-1.1,1.4-1.7l2.7-2.7,1.2-1c.2-.2.3-.4.5-.5h.2c0-.1,0-.1.1-.1h.4a.6.6,0,0,1,.2.4V51a.4.4,0,0,0-.1.3l-.3.6a11.9,11.9,0,0,0-.8,1.6,1.1,1.1,0,0,0-.1.5h-.1c.1,0-.1-.1,0-.1h-.1c.2,0,.3.2.3.4s-.2.4-.5.4l-.4-.3a.9.9,0,0,1-.1-.5l.3-.7c.2-.6.5-1.1.7-1.6a3.3,3.3,0,0,1,.3-.6.3.3,0,0,1,.1-.2h0s.1.2,0,.1.2.2.2.1.2.1.1.1h.1l-.5.5-1.1,1-2.7,2.6a8.3,8.3,0,0,0-1.2,1.3"/><path d="M201.4,52.2a.4.4,0,0,1,0,.8l-.3.2a1.6,1.6,0,0,0-.3.6,1.5,1.5,0,0,0-.1.6c0,.1.1.2.2.3a1.5,1.5,0,0,0,1.1-.1,3.5,3.5,0,0,0,1.4-1.3,1.2,1.2,0,0,0,.2-.7h-.2a2.1,2.1,0,0,0-.8,0l-.9.3a.5.5,0,0,0-.3.4c-.1.2-.3.4-.5.3a.3.3,0,0,1-.3-.5,1.6,1.6,0,0,1,.7-.9,2.1,2.1,0,0,1,1.1-.4,2.4,2.4,0,0,1,1.2,0l.5.2.3.5a1.6,1.6,0,0,1-.3,1.3,4.9,4.9,0,0,1-1.8,1.7,2.5,2.5,0,0,1-1.7.1,1.5,1.5,0,0,1-.7-.9,2,2,0,0,1,.1-1.1,1.4,1.4,0,0,1,.5-.8,1.1,1.1,0,0,1,.9-.5"/><path d="M209.8,51.7a.5.5,0,0,1-.5.4.5.5,0,0,1-.3-.5h0l-.7.2c-.2.1-.3.4-.4.6a.8.8,0,0,0-.1.4h.4l1.1.2.6.3a.6.6,0,0,1,.3.7,1.1,1.1,0,0,1-.6.9l-1.1.7-1.2.4h-.5a.6.6,0,0,1-.5-.2.3.3,0,0,1,.1-.5.3.3,0,0,1,.5,0c.1,0-.1-.1,0-.1h.2l1-.4a3.1,3.1,0,0,0,1-.5l.3-.4h0l-.3-.2h-1l-.6-.2c-.2-.1-.4-.2-.4-.5a1.1,1.1,0,0,1,0-.8,1.9,1.9,0,0,1,.7-1.1,2.7,2.7,0,0,1,1.2-.3l.6.2a1,1,0,0,1,.2.7"/><path d="M209.4,51.9a.4.4,0,1,1-.8,0,1.4,1.4,0,0,1,.3-.9,3.3,3.3,0,0,1,1-.6,25.5,25.5,0,0,1,3.6-.8c.2,0,.5.2.5.4a.5.5,0,0,1-.3.5,16.1,16.1,0,0,0-3.6.7.9.9,0,0,0-.6.4c-.1,0-.1.1-.1.3"/><path d="M276,49.4a.6.6,0,0,1,0,.6c-.2.1-.4.2-.6,0s-.2-.2-.1-.3,0-.3.1-.3.1-.1.2-.2h.4l1.3-.4,2.4-.6a1.2,1.2,0,0,1,1,0c.2,0,.3.2.4.3v.4a1.9,1.9,0,0,1-.2.8,17.4,17.4,0,0,1-1,1.9,6.9,6.9,0,0,0-1.2,3.6.4.4,0,0,1-.4.4.7.7,0,0,1-.5-.4,8.7,8.7,0,0,1,1.4-4.1,14,14,0,0,0,.9-1.7,1.7,1.7,0,0,0,.2-.5h-.5l-2.3.6-1.2.3c-.2.1-.3.1-.3.2h0s.1-.1,0-.1.1-.1.1-.1v-.2c.1.1-.1-.1,0-.1"/><path d="M277.6,53a.5.5,0,0,1,0,.6.4.4,0,0,1-.6,0,.9.9,0,0,1-.3-.5,1.3,1.3,0,0,1-.1-.6l.4-.5h.6a14.2,14.2,0,0,1,3.1-.2.4.4,0,0,1,0,.8,12.8,12.8,0,0,0-3,.2h-.3l.2.2"/><path d="M288.3,49.2c.1.2-.1.4-.3.5a.5.5,0,0,1-.5-.4h-.1a4,4,0,0,0-1.2.7,5.7,5.7,0,0,0-1.1,1.1,4.2,4.2,0,0,0-.9,2.1c0,.4,0,.6.1.7l.6.2a3.4,3.4,0,0,0,1,0l.6-.2.2-.2h-.4l-1.1.2a.4.4,0,1,1-.3-.7,3.5,3.5,0,0,1,1.4-.3h.6a1,1,0,0,1,.5.4.9.9,0,0,1,0,.7c-.1.2-.3.3-.4.4l-.9.4a2.8,2.8,0,0,1-1.3,0,1.3,1.3,0,0,1-1.1-.5,1.7,1.7,0,0,1-.3-1.2,4.9,4.9,0,0,1,1.1-2.6l1.2-1.2a3,3,0,0,1,1.5-.9h.7a.7.7,0,0,1,.4.6"/><path d="M269.6,24.2a.5.5,0,0,1,.5.3c.1.2-.1.4-.3.5s-.2.1-.3,0a.5.5,0,0,1-.5-.3.8.8,0,0,1,.3-.7,7.6,7.6,0,0,1,1.3-1.4,25.2,25.2,0,0,1,2.5-2.1,14.4,14.4,0,0,1,2.2-1.5,1.3,1.3,0,0,1,.8-.3.4.4,0,0,1,.4.2c.2.1.2.2.2.4s-.4,1.2-.8,1.8l-.5.8-.2.3h0c0,.2-.1.4-.3.4a.3.3,0,0,1-.5-.3.8.8,0,0,1,.3-.8,4.1,4.1,0,0,1,.5-.9,4.2,4.2,0,0,0,.7-1.3h.2l-.4.2-2.1,1.4-2.5,2.1-1.2,1.3a.1.1,0,0,1-.1.1h0c.1.1-.1-.3-.1-.2s-.1-.1-.1-.1h0"/><path d="M280.8,19a.5.5,0,0,1,.4.5.4.4,0,0,1-.5.3,1.8,1.8,0,0,0-1,.2l-.5.5h0l.2.3,1.4.3c.2.1.5.2.6.4a1.2,1.2,0,0,1,.2.8,3,3,0,0,1-1.1,1.4,1.9,1.9,0,0,1-.8.3h-.9a.4.4,0,1,1,.3-.7h.4l.5-.3a3,3,0,0,0,.8-.9h-.3a3.5,3.5,0,0,1-1.7-.5l-.4-.6a.8.8,0,0,1,.1-.8,2,2,0,0,1,.8-.8,2.9,2.9,0,0,1,1.5-.3"/><path d="M280.4,19.8a.4.4,0,0,1-.5.2.5.5,0,0,1-.2-.6,1.5,1.5,0,0,1,.9-.6h1.2a17.2,17.2,0,0,0,3.1-.2c.3,0,.5.1.5.4s-.1.4-.3.4a20,20,0,0,1-3.3.2h-1c-.3.1-.4.1-.4.2"/><path d="M286.1,20.1c.2,0,.4.1.4.3a.3.3,0,0,1-.3.5c-.1.1-.4.2-.5.4a1.8,1.8,0,0,0-.4.9.9.9,0,0,0,0,.7l.4.4a1.6,1.6,0,0,0,1.2.2,6.2,6.2,0,0,0,3-2.8c.1-.3.2-.6.1-.7l-.3-.2h-1a2.6,2.6,0,0,0-1.8.5c-.2.2-.5.2-.6,0a.3.3,0,0,1,0-.5,3.4,3.4,0,0,1,2.3-.9l1.3.2a1.1,1.1,0,0,1,.9.8,1.7,1.7,0,0,1-.2,1.2,6.6,6.6,0,0,1-1.4,2,5.2,5.2,0,0,1-2.1,1.3,2.7,2.7,0,0,1-1.8-.3,1.8,1.8,0,0,1-.7-.8,1.4,1.4,0,0,1-.1-1.1,2.2,2.2,0,0,1,1.6-2"/><path d="M199.6,72.3c-.1.2-.4.2-.6.1a.5.5,0,0,1-.1-.6l.6-.7v-.2h-.3l-.5.2-.4.4h0l.2.3.5.8a2,2,0,0,1,.4,1.5,1.5,1.5,0,0,1-.7,1.2,3,3,0,0,1-1.6.5c-.2-.1-.5-.1-.7-.3a.8.8,0,0,1-.5-.7c-.1-.2.1-.4.3-.5a.5.5,0,0,1,.5.3c0,.1,0,.2.1.2h.4a1.3,1.3,0,0,0,1-.3.8.8,0,0,0,.4-.6,1.4,1.4,0,0,0-.3-1,5.6,5.6,0,0,1-.5-.8l-.3-.5a1.3,1.3,0,0,1,.1-.6,1.4,1.4,0,0,1,.8-.9l.8-.2a1.6,1.6,0,0,1,.9.3,1.1,1.1,0,0,1,.2.6.7.7,0,0,1-.2.7l-.5.7"/><path d="M203.1,73.7c.2.1.4.3.3.5a.4.4,0,0,1-.5.3c-.1,0-.2,0-.4.2l-.6.7a3.4,3.4,0,0,0-.1.9.3.3,0,0,0,.1.2h.3a1.4,1.4,0,0,0,.9-.6,4.2,4.2,0,0,0,.7-1.3.8.8,0,0,0,.1-.4l-.2-.2h-.3l-.3.2c-.2.2-.4.3-.6.1s-.2-.3-.1-.5a1.6,1.6,0,0,1,.8-.6h.8a1.3,1.3,0,0,1,.6.7,1.7,1.7,0,0,1,0,1,3.4,3.4,0,0,1-.9,1.5,2,2,0,0,1-1.4.9l-.8-.2a1.8,1.8,0,0,1-.5-.7,2.4,2.4,0,0,1,.2-1.4,2.6,2.6,0,0,1,.7-1,1.5,1.5,0,0,1,1.2-.4"/><path d="M204.5,77.2a.5.5,0,0,1-.2-.6.4.4,0,0,1,.5-.2h-.1l.3-.2.9-.6a2.7,2.7,0,0,1,1.6-.5l.5.2c0,.2.1.3.1.4a2.2,2.2,0,0,1-.1.8,3.9,3.9,0,0,1-.6,1.5.4.4,0,0,1-.5.2.5.5,0,0,1-.2-.6,5,5,0,0,0,.5-1.3,1.1,1.1,0,0,0,.1-.5h0c-.1-.1.2.1.1.1a2.2,2.2,0,0,0-1,.4l-.9.6-.5.3h-.5"/><path d="M195.5,75.9a.5.5,0,0,1-.6-.2c0-.2.1-.5.3-.5h.9a4.5,4.5,0,0,0,2.3-.8l.2-.2a.9.9,0,0,0,.1-.5,1.5,1.5,0,0,0-.5-.8c-.2-.4-.6-.6-.9-1a1.2,1.2,0,0,1-.1-1c0-.3.2-.4.4-.6l.6-.2,1.2-.3h2.7a.5.5,0,0,1,.3.5c-.1.3-.2.3-.2.3H202l-.7.5a.5.5,0,0,1-.6-.2c-.1-.2-.1-.4.1-.5l.7-.5h.2s-.1.1,0,.1h-.1v.2h0c0-.1.2.2.1.1h-2.1l-1.2.3H198a.2.2,0,0,0,0,.3l.9,1a2.3,2.3,0,0,1,.6,1.2,1.4,1.4,0,0,1-.1.9l-.5.6a5.2,5.2,0,0,1-2.8.9h-.6m5.8-4.6a.5.5,0,0,1-.6,0c-.1-.2-.1-.5.1-.6h0a1.2,1.2,0,0,0-.8-.5,2.2,2.2,0,0,0-1.1.1,1.4,1.4,0,0,0-.7.6c-.1.1-.1.3-.1.6s-.1.5,0,.7l.6.5a1.9,1.9,0,0,1,.9,1.4,2,2,0,0,1-.4,1.5,2.3,2.3,0,0,1-1.7.7h-.8l-1.2-.2h-.4a.3.3,0,0,1-.1-.5.4.4,0,0,1,.5-.2h.2l1,.2h.7a2.1,2.1,0,0,0,1.2-.4,1.5,1.5,0,0,0,.2-.9,1.6,1.6,0,0,0-.5-.9c-.3-.2-.8-.3-1-.9a1.4,1.4,0,0,1,0-.9,1.6,1.6,0,0,1,.2-1,2.2,2.2,0,0,1,1.1-1,2.9,2.9,0,0,1,1.6-.1,4,4,0,0,1,1.3.7,1.9,1.9,0,0,1,.2.7.8.8,0,0,1-.4.7"/><path class="cls-7" d="M47.1,17.5a.5.5,0,0,1-.3.5c-.3,0-.5-.1-.5-.4h.1c-.1,0,.1.1.1,0h.2c-.1,0,.1-.1.1-.1h.1a1.2,1.2,0,0,0-.1.5,9,9,0,0,0-.2,1.8v1.8a.4.4,0,0,1-.4.4.4.4,0,0,1-.4-.4h0a1.5,1.5,0,0,1-.1-.6V17.8a.3.3,0,0,1,.3-.3c.2-.1.3,0,.3,0h.2c.2.1.3.3.4.4a9.2,9.2,0,0,0,1.4,1.4c.7.4,1.5.6,1.8,1.2a.4.4,0,0,1-.1.6.4.4,0,0,1-.5-.1c-.1-.2-.9-.5-1.7-1.1a7.5,7.5,0,0,1-1.6-1.5.2.2,0,0,0-.2-.2h.1c-.1,0,.2-.1.1,0s.3-.2.2-.2.1-.2.1-.1v3c0,.2.1.3.1.4s.1.1,0,.3h-.8V19.8A9.9,9.9,0,0,1,46,18a2.4,2.4,0,0,1,.2-.8V17c.2,0,.4-.1.6,0a.6.6,0,0,1,.2.5"/><path class="cls-7" d="M46.3,22.4c-.2,0-.4-.3-.4-.5s.3-.4.5-.3l1.7-.5a4.6,4.6,0,0,1,2.3-.5.3.3,0,0,1,.3.5c0,.2-.2.4-.4.3a4.5,4.5,0,0,0-1.9.5,5.4,5.4,0,0,1-2.1.5"/><path class="cls-7" d="M46,18.7a.5.5,0,0,1,.6-.2.4.4,0,0,1,.1.5,4,4,0,0,0-.1,1.6v1a.9.9,0,0,1-.1.5v.2h-.3l-.3-.2c-.1-.2-.1-.2-.1-.3a6.2,6.2,0,0,1,.1-1.3A1.1,1.1,0,0,1,46,20a.3.3,0,0,1,.1-.2h.3l.3.2c.2.1.1.2.2.3s0,.3.1.4l.2.2h0c0-.1-.1.1-.1.1h0c0-.1-.2-.3,0-.6a.2.2,0,0,1,.2-.2h.8c.3.1.5.1.7.3l-.6.5H47.1c-.1,0-.1,0-.2-.2l.7-.4c0,.1-.2-.1-.1-.1h.4s-.3.1-.2,0h-.2v-.2a.8.8,0,0,0-.6-.4h.3a.4.4,0,0,1,0,.6.3.3,0,0,1-.5,0l-.3-.3a.4.4,0,0,1-.1-.5.7.7,0,0,1,.5-.3H47a1.9,1.9,0,0,1,1.1.7,1,1,0,0,1,.2.7.8.8,0,0,1-.1.4c0,.1-.2.2-.4.2h-.7a.2.2,0,0,1-.2-.2c-.1-.2-.1-.5.1-.6a.5.5,0,0,1,.6.2h.8c.1,0,.1,0,.1.1h.3c.2.1.1.4,0,.6a.5.5,0,0,1-.6-.1h-.3v.2c0,.1.1.3-.1.4l-.4.3h-.5a1.3,1.3,0,0,1-.7-.6,1.8,1.8,0,0,1-.1-.6h0s.1.1,0,.1.2.1.1,0h.2c-.1,0,.2-.1.1-.1s.2,0,.1,0h.1c0,.1-.1.2-.1.4a4.1,4.1,0,0,0-.1,1h0s-.1-.1,0-.1h-.1s-.2-.1-.1,0H46c.1-.1-.2.1-.1,0s-.1.2-.1.1h0V20.7a3.4,3.4,0,0,1,.2-2"/><path class="cls-7" d="M46,19a.4.4,0,0,1,.4-.4.4.4,0,0,1,.4.4c0,.5-.1,1.4-.2,2.2v1.6l-.2.6h0v-.2h0l1.2-.7.7-.4a.3.3,0,0,0,.1-.2h0s-.1.1,0,.1h-.1c0-.1.1.2.1.1v.2h.3l-1,.4h-.1s-.1-.2,0-.2-.1-.1-.1-.1-.2-.1-.1-.1-.1,0-.1,0h.2a.3.3,0,0,1,.5.3c.1.2-.1.4-.3.5h-.5c-.1,0-.4-.1-.4-.3s.1-.4.2-.4a.1.1,0,0,1,.1-.1h.2l1.2-.5h.1a.4.4,0,0,1,.4.2.5.5,0,0,1,0,.4c0,.1,0,.1-.1.1l-.2.2-.7.5-1.3.7-.5.2c-.1,0-.1.1-.3,0l-.3-.2c-.1-.1,0-.3,0-.4l.2-.4V21.1c.1-.8.2-1.8.2-2.1"/><path class="cls-6" d="M35.6,6c.1-.1.4,0,.5.2s.1.4-.1.5h0a16.5,16.5,0,0,0-1.1,1.9l-.6,1.2h0V9.6h.1c.2.2.2.5,0,.6l-.2.2h-.3l-.3-.3a.4.4,0,0,1,.1-.5,11.2,11.2,0,0,1,.5-1.3l.8-1.3.3-.5c.1-.2.1-.3.4-.4"/><path class="cls-6" d="M32.8,5c.2.1.4.3.3.5s-.2.4-.4.3L32,5.6a.5.5,0,0,1,0-.8,1.8,1.8,0,0,1,1-.4,20.2,20.2,0,0,1,4.3-.5h1.8l.7.3a1.6,1.6,0,0,1,.4.7.4.4,0,0,1-.4.4c-.3,0-.5-.1-.5-.4h0l-.4-.2H37.3a17.7,17.7,0,0,0-4.1.5l-.6.2c-.1,0,0-.1,0-.1h0V5h.2"/><path class="cls-6" d="M29.8,11.1c.2-.1.5-.1.6.1a.6.6,0,0,1-.1.6H30v-.4h-.1l1.6-.2,5-1c.2,0,.5.1.5.3a.3.3,0,0,1-.3.5,41.8,41.8,0,0,1-5.1,1,6.9,6.9,0,0,1-1.8.2l-.4-.2a1.3,1.3,0,0,1-.1-.6,1.3,1.3,0,0,1,.6-.5"/><path class="cls-6" d="M38.9,12.9a.5.5,0,0,1,0,.5.4.4,0,0,1-.6,0h-.1a4,4,0,0,1,0-1.1,6.7,6.7,0,0,1,.6-3.5,1.4,1.4,0,0,1,.8-.7h.9c.3.1.5.4.7.6a2,2,0,0,1,.4.8,2.2,2.2,0,0,1-.5,1.6l-.7.5a.8.8,0,0,0-.2.4h.1l.3.3c.3.3.4.6.9.9s.3.4.1.6-.3.2-.5.1a3.7,3.7,0,0,1-1.1-1,1.4,1.4,0,0,1-.6-1,1.4,1.4,0,0,1,.5-1.1l.6-.3a1.6,1.6,0,0,0,.3-.9c-.1-.2-.1-.4-.2-.5s-.3-.2-.3-.3h-.4c-.2,0-.3.1-.4.3a6.9,6.9,0,0,0-.5,3.1v1h-.1m.1-3a.3.3,0,0,1,.5-.1c.2.1.2.4.1.6a3,3,0,0,0-.5,1.5,1.9,1.9,0,0,1-.1.8v.4c0,.1.1.1-.1.3h-.1a.3.3,0,0,1-.5-.1c-.2-.2-.1-.4,0-.6s0,.1,0,.1h-.1v-.3a3.4,3.4,0,0,1,.1-.9A3.2,3.2,0,0,1,39,9.9"/><path class="cls-6" d="M43.8,11.9c-.1-.2,0-.5.2-.5s.5,0,.5.2a2.3,2.3,0,0,1-.3,2c-.1.2-.1.4-.2.6s-.1.3-.2.4h-.1l-.4.2a.4.4,0,0,1-.3-.2v-.2c0-.2.1-.5.3-.5s.4.1.5.3h0c0,.1-.1-.1-.1,0h-.5a1,1,0,0,0,.1-.4l.3-.5a2.7,2.7,0,0,0,.3-1.4"/><path class="cls-6" d="M43.1,10.6a.4.4,0,0,1,.4.4.4.4,0,0,1-.4.4h-.8a.5.5,0,0,1-.5-.4c0-.3.2-.4.5-.4h.9l2.1-.4a3.4,3.4,0,0,1,2,.1.4.4,0,0,1-.3.7c-.6-.3-2.3.3-3.7.4h-1a.5.5,0,0,1-.5-.4c0-.3.2-.4.5-.4h.8"/><path class="cls-6" d="M40.7,16.3a.4.4,0,0,1-.5.2.5.5,0,0,1-.2-.6,2,2,0,0,1,1-.8l1.3-.3h3.2a.4.4,0,0,1,0,.8H42.4l-1.1.2a.9.9,0,0,0-.6.4"/><path class="cls-7" d="M91.5,7.3c.2,0,.3.3.3.5a.6.6,0,0,1-.6.3C91,8,91,7.9,91,7.8h-.1V7.1a15.2,15.2,0,0,1,0-3.7,4.4,4.4,0,0,1,.7-1.9c.5-.6.9-1.2,1.6-1.4a1.1,1.1,0,0,1,1.2.2c.3.2.3.6.3.9a1.9,1.9,0,0,1-.2.8,5.7,5.7,0,0,1-1.3,2,.6.6,0,0,0,0,.6,2.6,2.6,0,0,0,.4,1,15.9,15.9,0,0,1,1.3,2.2c.1.2-.1.4-.3.5s-.4,0-.5-.3a17.3,17.3,0,0,0-1.2-2,6.1,6.1,0,0,1-.5-1.2,1.6,1.6,0,0,1,.1-1.2,9.4,9.4,0,0,0,1.2-1.8,1.9,1.9,0,0,0,.2-.7V.9h-.4A3.8,3.8,0,0,0,92.3,2a3.2,3.2,0,0,0-.6,1.5,20.4,20.4,0,0,0,0,3.5v.4h-.1c0,.1-.2,0-.1,0m-.1-5a.5.5,0,0,1,.3-.5c.2-.1.4.1.5.3a2.4,2.4,0,0,1,0,1.2A13.7,13.7,0,0,1,92,5.2c-.1.6-.1,1.2-.2,1.7v.7h0a.7.7,0,0,1-.6.3.5.5,0,0,1-.2-.6h0V6.8c.1-.4.1-1.1.2-1.7a11,11,0,0,0,.2-2.8"/><path class="cls-7" d="M98.5,7.9a.5.5,0,0,1,0,.5.5.5,0,0,1-.6.1.6.6,0,0,1-.1-.4V7.9l.2-.4.6-.7.9-.9a.8.8,0,0,1,.7-.2.9.9,0,0,1,.6.3,2,2,0,0,1,0,1.5,9.6,9.6,0,0,0-.2,1.2.4.4,0,0,1-.8,0,7.8,7.8,0,0,1,.2-1.4,3.7,3.7,0,0,0,.1-.8H100l-.8.8-.5.7h-.1s-.1-.2,0-.1h-.1"/><path class="cls-7" d="M276.8,2.3c.1-.2.3-.4.5-.3s.4.2.3.4a20.8,20.8,0,0,1-.5,2.4c0,.5-.1,1-.1,1.5a5.7,5.7,0,0,0,0,1.3v.6c-.1.1-.1.3-.2.4h-.7a.8.8,0,0,1-.1-.4V7.1a7.5,7.5,0,0,1,.4-2.9,5.2,5.2,0,0,1,1.4-2.1,1.6,1.6,0,0,1,1-.5h.5l.3.3a.9.9,0,0,1,.3.7,2.1,2.1,0,0,1-.4,1.2l-.9.9-.7.7-.2.3h0l.2.2.8.4a2.2,2.2,0,0,1,.7.9,1.4,1.4,0,0,1-.4,1.3c-.1.2-.4.2-.6.1a.5.5,0,0,1,0-.6,1,1,0,0,0,.2-.6c0-.1-.2-.2-.4-.4l-.8-.5c-.1-.1-.2-.1-.3-.3a1.1,1.1,0,0,1-.2-.6c.1-.3.3-.4.4-.6a2.7,2.7,0,0,1,.8-.7l.7-.9a.9.9,0,0,0,.3-.6c0-.1-.1-.3-.1-.4h0l-.6.3a5.2,5.2,0,0,0-1.2,1.7,8.8,8.8,0,0,0-.4,2.7v1h-.1c.1,0-.1-.1-.1-.1h-.4c.1-.1-.1.1,0,.1h-.1V7.6a7.1,7.1,0,0,1,.1-1.4,7.6,7.6,0,0,1,.1-1.5c.2-1.1.5-2.1.5-2.4"/><path class="cls-7" d="M282.8,7.8a.4.4,0,0,1-.5-.2c-.2-.2-.1-.4.1-.6h1.7c.2.1.3.3.4.4a1.6,1.6,0,0,1-.3,1.2c-.3.7-1.1,1.1-1.3,1.3h0V9.7h.5a7,7,0,0,0,2.1.1.4.4,0,0,1,.4.4.4.4,0,0,1-.4.4,5.3,5.3,0,0,1-2.2-.1,1.4,1.4,0,0,1-.9-.3l-.3-.3c0-.2.1-.4.1-.6s1.1-.8,1.3-1.2l.2-.5h-.9"/><path class="cls-7" d="M86.9,71.5h-.6c-.1-.2-.1-.5.1-.6s-.1.1-.1.1h-.1v-.2c-.1-.2-.1-.5-.2-.8a10.3,10.3,0,0,1,.2-4.6,2.8,2.8,0,0,1,.9-1.4,2.4,2.4,0,0,1,1.3-.5,1.2,1.2,0,0,1,1.1.7,1.7,1.7,0,0,1,.2,1.4,4.2,4.2,0,0,1-1.1,1.8,1.4,1.4,0,0,0,0,1.5,2.6,2.6,0,0,0,1.5,1.4.4.4,0,1,1-.4.8,4.7,4.7,0,0,1-1.9-1.8A2.1,2.1,0,0,1,88,67a4.9,4.9,0,0,0,.9-1.5,1.1,1.1,0,0,0-.1-.8c-.1-.2-.2-.3-.4-.3l-.8.3a2.3,2.3,0,0,0-.6,1.1,10,10,0,0,0-.1,4.2,1.7,1.7,0,0,0,.1.7.4.4,0,0,0,.1.3h0c0,.1,0,.2-.2.4M86,65.2a.5.5,0,0,1-.5-.3.4.4,0,0,1,.3-.5.8.8,0,0,1,.8.2,1.4,1.4,0,0,1,.2.7,7.6,7.6,0,0,1,.1,1.6v3.7a.4.4,0,0,0,.1.3h0s-.1-.1,0-.1h-.2a.5.5,0,0,1,.2.6c-.1.2-.4.2-.6.1h-.1a.1.1,0,0,0-.1-.1v-.2c0-.1-.1-.2-.1-.4V66.9a6.6,6.6,0,0,0-.1-1.5c0-.1,0-.2-.1-.2H86"/><path class="cls-7" d="M93,69.4a.5.5,0,0,1-.4.5.4.4,0,0,1-.4-.4c-.1-.1,0-.3.1-.5l.3-.3.9-.3a1.6,1.6,0,0,1,1-.1,1,1,0,0,1,.5.4.8.8,0,0,1,.2.5,1.4,1.4,0,0,1-.2.7l-.4.4-.2.3v.2l.3.4a1.7,1.7,0,0,1,.2.5A.9.9,0,0,1,95,73a.7.7,0,0,1-.7.3H92.6c-.2.2-.4.1-.5-.1s-.1-.4.1-.6,1-.1,1.5-.1h.7l-.2-.4c-.1-.1-.1-.3-.2-.3l-.3-.6a1.1,1.1,0,0,1-.1-.8l.4-.5.3-.4a.1.1,0,0,1,.1-.1h0v-.2h-.7l-.5.2H93"/><path class="cls-7" d="M198.9,40.4c.2.1.4.3.3.5a.3.3,0,0,1-.5.3.3.3,0,0,1-.3-.3h0v-.6a7.5,7.5,0,0,1,0-3,4.4,4.4,0,0,1,1.6-2.6,1.9,1.9,0,0,1,1-.5l.7.2a1.2,1.2,0,0,1,.5.5,1.1,1.1,0,0,1,.1.8,2.5,2.5,0,0,1-.2.7l-.9,1.1a1.6,1.6,0,0,0-.3,1.3,2.2,2.2,0,0,0,1.4,1.2.4.4,0,1,1-.3.7,2.7,2.7,0,0,1-1.8-1.6,2,2,0,0,1,.4-2.1c.2-.4.6-.7.8-1.1a.6.6,0,0,0,.1-.4c.1-.1,0-.1,0-.2s-.1-.2-.2-.2h-.2a1.1,1.1,0,0,0-.6.3,4.6,4.6,0,0,0-1.4,2.2,8.7,8.7,0,0,0,.1,2.8v.4h0s-.1-.1,0-.1-.2-.1-.1-.1h-.2m-.3-4.6a.4.4,0,0,1,.4-.4c.3,0,.4.2.4.5a20.2,20.2,0,0,0-.1,2.7v2.2h-.1a.5.5,0,0,1-.6.2c-.2-.1-.2-.4-.1-.6h-.1V40a6.1,6.1,0,0,0,.1-1.4,22.7,22.7,0,0,1,.1-2.8"/><path class="cls-7" d="M205.1,37.8c-.1-.2,0-.5.2-.5s.5,0,.5.2a3.2,3.2,0,0,1-.2,2,2,2,0,0,0-.1.7h.1a2.2,2.2,0,0,0,.8-.5c0-.2.3-.3.5-.2s.3.3.2.5a1.7,1.7,0,0,1-1.5,1H205c-.1-.2-.3-.4-.3-.6a3.4,3.4,0,0,1,.1-1,3.1,3.1,0,0,0,.3-1.5"/><path class="cls-7" d="M207.2,38.8a.5.5,0,1,1,.9-.1c0,1.6-.9,3.1-1,4.3a.4.4,0,0,1-.4.4.5.5,0,0,1-.4-.5c.1-1.4,1-2.9.9-4.1"/><path class="cls-7" d="M278.5,41.1a.4.4,0,0,1-.5.7c-.2-.2-.1-.2-.1-.2h-.1v-.2a1.3,1.3,0,0,1-.1-.6,7.9,7.9,0,0,1,.9-4.5,3.1,3.1,0,0,1,2.4-1.5,1.6,1.6,0,0,1,1.1.5,1.7,1.7,0,0,1,.2,1.2c-.1.7-.7,1.1-1,1.5a1.4,1.4,0,0,0-.5,1.3,1,1,0,0,0,.4.5.8.8,0,0,0,.7.3.4.4,0,0,1,.4.4.4.4,0,0,1-.4.4,2.1,2.1,0,0,1-1.2-.4,1.2,1.2,0,0,1-.6-1,2.3,2.3,0,0,1,.5-2.1l.9-1c0-.3,0-.5-.1-.6s-.2-.2-.4-.2a2.3,2.3,0,0,0-1.7,1.2,7.4,7.4,0,0,0-.8,3.9.7.7,0,0,0,.1.5v.2h-.1m1-5c.2-.2.5-.2.6,0a.3.3,0,0,1,0,.5,15.9,15.9,0,0,0-.8,2.1c-.1.6-.2,1.3-.3,1.8s-.1.4-.2.5,0,.3-.1.4v.2l-.3.2a.4.4,0,0,1-.3-.7s-.1.1-.1,0h-.1c.1-.1.1-.3.2-.4a1.1,1.1,0,0,1,.1-.5q.2-.7.3-1.8a6.9,6.9,0,0,1,1-2.4"/><path class="cls-7" d="M286.3,38.1a.5.5,0,0,1,.2.6.4.4,0,0,1-.5.2h-.1c0,.1-.1.2-.1.4s0,.2.2.4.3.1.6.4.3.7.1.9a1.3,1.3,0,0,1-.5.7,2,2,0,0,1-2.1.1.5.5,0,0,1-.2-.6c.1-.2.4-.2.6-.1a1.1,1.1,0,0,0,1.2,0,.5.5,0,0,0,.3-.4h0c0-.1-.3-.2-.6-.4a1.3,1.3,0,0,1-.4-1.2.9.9,0,0,1,.4-.8l.4-.2a.4.4,0,0,1,.5,0"/><path class="cls-7" d="M286.3,38.9c0,.2-.3.3-.5.2a.4.4,0,0,1-.2-.5,1,1,0,0,1,.7-.7l1-.2a9.3,9.3,0,0,0,2.3-.2.4.4,0,0,1,.6.3.5.5,0,0,1-.3.5,13.8,13.8,0,0,1-2.6.3h-.7c-.2,0-.2.1-.3.2"/><path d="M167.4,112.4a.4.4,0,0,1-.2.5c-.2.1-.5,0-.5-.2a.6.6,0,0,1,0-.6.8.8,0,0,1,.2-.5,2.7,2.7,0,0,1,.8-.7l.4-.3h.3l.4.2a1.1,1.1,0,0,1,.1.5.4.4,0,0,1-.1.3,2.5,2.5,0,0,1-.2.7,7.5,7.5,0,0,0-.8,1.8,6.2,6.2,0,0,0-.3,1.8v.5h.4a5.4,5.4,0,0,0,1.7-1.3,12.5,12.5,0,0,1,.9-1.2l.5-.6h.7l.2.3c.1.6-.3.9-.4,1.2a1.6,1.6,0,0,0-.3.9.7.7,0,0,0,0,.5l.4.2,1.4-.5a.5.5,0,0,1,.6.2.4.4,0,0,1-.2.5,5,5,0,0,1-1.7.6,1.3,1.3,0,0,1-1.1-.5,1.1,1.1,0,0,1-.2-1.1,2,2,0,0,1,.3-1.1l.3-.6c0-.1,0-.1.1-.2h.4l-.3.4-1,1.2c-.7.7-1.3,1.5-2.2,1.6h-.7a.9.9,0,0,1-.6-.6,2.2,2.2,0,0,1,0-.8,8.1,8.1,0,0,1,.3-2c.3-.7.6-1.3.8-1.9l.3-.6h0c0-.1.1.2,0,.1s.2.1.2.1h.2l-.3.3a1,1,0,0,0-.6.5l-.2.2h0"/><path d="M178.1,114.7c.2.2.1.4,0,.6s-.5.1-.6-.1h-.1c-.2.1-.5.2-.6.4s-.3.3-.4.4h-.1l.5-.2.4-.2h.6q.3.1.3.3v.5a1.4,1.4,0,0,1-.2.7,10.9,10.9,0,0,0-.1,1.8,3.3,3.3,0,0,1,0,1,1.2,1.2,0,0,1-.2.7.9.9,0,0,1-.8.4l-.9-.2a1.6,1.6,0,0,1-.7-.7,1.1,1.1,0,0,1-.1-1.1c0-.2.3-.3.5-.2a.4.4,0,0,1,.2.5c0,.2,0,.3.1.4s.2.2.4.3l.5.2h.1a.6.6,0,0,0,.1-.4v-.8a14.1,14.1,0,0,1,.1-2,1.4,1.4,0,0,0,.2-.6V116h0s.1.2.1.1.2.2.1.1h0l-.4.2c-.2,0-.4.3-.8.2a.6.6,0,0,1-.6-.3.9.9,0,0,1,0-.7,1.8,1.8,0,0,1,.5-.7l.9-.5h.5a.5.5,0,0,1,.5.3"/><path d="M181.6,115c0,.2-.1.4-.3.4s-.5,0-.5-.3h.3l-.2.2a3.3,3.3,0,0,0-.6,1.4v.2h0l.7-.2c.2-.1.4-.1.5.1a.4.4,0,0,1-.1.6,1.8,1.8,0,0,1-1.4.3c-.2,0-.3-.2-.4-.3a1.4,1.4,0,0,1-.2-.6,3.1,3.1,0,0,1,.9-1.9l.5-.4h.5c.2,0,.3.2.3.4"/><path d="M182,115.2c.1.2.2.4,0,.6s-.4.2-.6.1a.1.1,0,1,0-.2,0h0s0,.1.2.1.4.3.3.5-.2.4-.4.3-.7-.2-.8-.5a.8.8,0,0,1,0-.8l.7-.4a1.3,1.3,0,0,1,.8.2"/><path d="M185.1,114.9a.5.5,0,0,1-.4.5.4.4,0,0,1-.4-.4h.1a.1.1,0,0,1-.1.1,1.6,1.6,0,0,0-.3.6c-.1.3.1.8.1,1.3a1.1,1.1,0,0,1-.3.8,1.4,1.4,0,0,1-1.1.4c-.2.1-.4-.1-.5-.3a.5.5,0,0,1,.4-.5c.4,0,.6-.1.6-.2s.1,0,.1-.2a3.3,3.3,0,0,1-.1-1.5,1.8,1.8,0,0,1,.6-1,.9.9,0,0,1,.7-.3l.4.2a.8.8,0,0,1,.2.4"/><path d="M190.7,113.8a.4.4,0,0,1-.5.2.5.5,0,0,1-.2-.6c.1-.2.2-.3.4-.3h2.7a2.1,2.1,0,0,1,1.5.4.3.3,0,0,1,.1.5c-.2.2-.4.3-.6.1s-1.4,0-2.4-.1h-1"/><path d="M190.9,114.9a.3.3,0,0,1,.5.3c.1.2-.1.4-.3.5h0s.1-.1.1,0,.1-.1,0-.1h.1s.1-.2.1-.1-.1-.2-.1-.2-.1-.2,0-.1h2.6a.4.4,0,0,1,.4.4.4.4,0,0,1-.4.4h-3.2a.8.8,0,0,1-.2-.5c.1-.2.2-.2.3-.2h.1"/><path d="M203.7,116.3a.5.5,0,0,1,.4.5.3.3,0,0,1-.5.3.5.5,0,0,1-.4-.3c-.1-.2,0-.3,0-.4l.4-.6,1.4-1.6,2-1.9a8.3,8.3,0,0,1,1.6-1.2,1.9,1.9,0,0,1,1.2-.4c.3,0,.5.3.6.5v.6c-.1.4-.3.9-.4,1.4a10.3,10.3,0,0,0-.4,1.4v.3h0c0,.1-.2-.1-.1-.1a.4.4,0,0,1,.2.5c-.1.3-.3.4-.5.3a.6.6,0,0,1-.4-.6v-.6c.1-.4.3-.9.4-1.4a3.9,3.9,0,0,0,.3-1.3v-.3h0s.1.1,0,.1h.2a6.2,6.2,0,0,0-2.3,1.4c-.6.6-1.3,1.2-1.9,1.9l-1.4,1.5c-.1.2-.2.3-.2.4h0s-.1-.2,0-.2-.2-.2-.2-.1h-.1"/><path d="M214,111.8a.5.5,0,0,1-.6-.1.4.4,0,0,1,.1-.5,3.5,3.5,0,0,1,1.7-.6h1l.4.2c.1.2.1.3.2.4a2.2,2.2,0,0,1,0,.8,1.3,1.3,0,0,1-.6,1l-.5.4c0,.1,0-.1.1-.1s-.1,0-.1,0a.1.1,0,0,1,.1.1l.3.4a1.5,1.5,0,0,1,.4.9,1.1,1.1,0,0,1,0,.8,1.1,1.1,0,0,1-.7.6l-1,.2a3.2,3.2,0,0,1-1.5-.2.5.5,0,0,1-.3-.5.5.5,0,0,1,.6-.2h2.2a.8.8,0,0,0-.1-.4l-.2-.5c-.1-.1-.2-.3-.4-.4s-.1-.2-.1-.3a.4.4,0,0,1,0-.5c.1-.4.4-.5.6-.7l.4-.5v-.4h-.1c0-.1.1,0,.1,0h-.7l-1.3.4"/><path d="M218.2,115.6c.2-.1.5-.1.6.1a.5.5,0,0,1-.1.6c-.1,0-.3.3-.4.6a1.4,1.4,0,0,0-.1,1.1.4.4,0,0,1-.7.3,2,2,0,0,1,0-1.7,2.9,2.9,0,0,1,.7-1"/><path d="M224.3,111.8a.4.4,0,0,1-.4.4.4.4,0,0,1-.4-.4c-.1-.1-.1-.1-.1-.2h.1c-.1,0,0,.1,0,0h.1c-.1,0,.2.1.1,0h.4a.4.4,0,0,0-.1.3c0,.7.3,2,.3,3.1a2,2,0,0,1-.3,1.1,1.6,1.6,0,0,1-.7.7,1,1,0,0,1-.9-.1,1.5,1.5,0,0,1-.6-.5.9.9,0,0,1-.3-.6,1.2,1.2,0,0,1,.1-.8c.2-.5.8-.7,1.3-1l1.7-.7,1.2-1a.9.9,0,0,0,.3-.5h-.2l-.5.2a1.8,1.8,0,0,0-.8.6.5.5,0,0,1-.6.2.4.4,0,0,1-.1-.6,3.6,3.6,0,0,1,1.1-1l.8-.2a1,1,0,0,1,.7.2.7.7,0,0,1,.4.5.8.8,0,0,1,0,.7l-.5.6a8.7,8.7,0,0,1-1.4,1.2l-1.8.8-.9.5v.4c0,.1,0,.1.1.2l.3.3h.3l.3-.3a1.4,1.4,0,0,0,.2-.7,18.2,18.2,0,0,1-.3-3.2.8.8,0,0,1,.2-.7.6.6,0,0,1,.6-.1c.1.1.2.2.2.3s.1.2.1.4"/><path d="M230.3,110.1a.4.4,0,1,1,.8,0V112c-.1.9-.2,2.1-.3,3.1v1.1c0,.2.1.2.1.3h-.4l.3-.3.8-1c.7-1,1.3-2.1,2.1-3.1s1.3-1.7,2.2-1.8.5.1.5.4a.4.4,0,0,1-.4.4,4.1,4.1,0,0,0-1.7,1.5c-.7.9-1.3,2-2.1,3a4.4,4.4,0,0,1-.8,1.1l-.3.4-.6.2-.3-.2v-.2a.4.4,0,0,1-.1-.3v-1.3c.1-1.1.2-2.3.3-3.2v-1.8"/><path class="cls-6" d="M4.7,98.7a.4.4,0,0,1,.6.1.5.5,0,0,1-.1.6c-.1,0,0-.1,0-.1a11.4,11.4,0,0,0-.8,2,9.3,9.3,0,0,0-.4,1.3c-.1.1-.1.3-.2.4h0c0,.1-.1-.2-.1-.1H3.2c.1,0-.1.1-.1.1s0,.1,0,0a.4.4,0,0,1,.5-.1.5.5,0,0,1,.2.6H3.4l-.3-.2c-.2-.3-.1-.3-.1-.3s0-.1.1-.2a.8.8,0,0,1,.1-.4c.1-.3.2-.8.4-1.3a12.1,12.1,0,0,0,.5-1.4,2,2,0,0,1,.6-.9"/><path class="cls-6" d="M1.7,98.3c.2.1.4.3.3.5a.5.5,0,0,1-.5.3H1.2a.6.6,0,0,1-.2-.5.5.5,0,0,1,.2-.4h.2l1.4-.4a22.4,22.4,0,0,1,3.7-1,3.9,3.9,0,0,1,1.6.2,1.4,1.4,0,0,1,1,1.2.4.4,0,0,1-.4.4.5.5,0,0,1-.5-.4.5.5,0,0,0-.3-.5H6.6a15.8,15.8,0,0,0-3.6.9l-1.3.4h0c0,.1.1-.1.1,0s0-.2,0-.2-.1-.1,0-.1H1.7"/><path class="cls-6" d="M.5,104c.2-.1.5,0,.5.2a.4.4,0,0,1-.2.5H.7s.1-.1,0-.1H.8c-.1.1,0-.2,0-.1v-.2c.1,0-.1-.2-.1-.2s-.1,0,0,0H3.1a15,15,0,0,0,3.9-.8c.2-.1.4.1.5.3s-.1.4-.3.5a15.7,15.7,0,0,1-4,.8,11.5,11.5,0,0,1-2.5.1H.3l-.2-.2a.5.5,0,0,1,0-.5.1.1,0,0,1,.1-.1H.5"/><path class="cls-6" d="M12.1,102.4a.4.4,0,0,1,.4.4c.1.2-.1.4-.3.5h.1c-.1,0,.1-.1.1-.1s.1,0,.1,0h0c-.1,0-.1.1-.1.2l-.3.5c-.1.3-.1,1-.2,1.7a12,12,0,0,0,0,1.9v.8a2,2,0,0,1-.2,1,1.2,1.2,0,0,1-1,.5l-1-.2a2,2,0,0,1-.8-.8,2,2,0,0,1,.1-1.3.5.5,0,0,1,.6-.2c.2.2.3.4.1.6a.6.6,0,0,0,0,.6.4.4,0,0,0,.4.3l.6.2H11a2.6,2.6,0,0,1,.1-.7v-.6a14.6,14.6,0,0,1,0-2.1,3.8,3.8,0,0,1,.3-1.9,1.4,1.4,0,0,0,.2-.6c.1,0,.1-.1.1-.2h.1c0-.1.1-.2.3-.2m.2.1c0,.2-.1.4-.3.4a.3.3,0,0,1-.5-.3h-.2a1.3,1.3,0,0,0-.8.3,1,1,0,0,0-.5.7c-.1.2,0,.3,0,.3s-.1-.1-.1,0h.4l.9-.7.4-.3.2-.2h.4c.2.1.4.3.3.5s-.2.4-.4.3h0l-.4.4a3,3,0,0,1-1.1.7l-.6.2H9.6l-.3-.2a1,1,0,0,1-.1-.9,1.9,1.9,0,0,1,.7-1.2,3.1,3.1,0,0,1,1.3-.6l.7.2c.2.1.3.4.4.7"/><path class="cls-6" d="M15.3,102.6a.5.5,0,0,1,.4.5.4.4,0,0,1-.5.3H15l-.3.3a1.5,1.5,0,0,0-.2,1.1c0,.2,0,.4.1.4s0,.1.1.2H15l.8-.6c.1-.2.4-.2.6,0a.6.6,0,0,1,0,.6,4.6,4.6,0,0,1-1,.7,1,1,0,0,1-.9.1c-.3,0-.5-.2-.7-.5a6.4,6.4,0,0,1-.2-.7,3.2,3.2,0,0,1,.4-1.6l.5-.6.8-.2"/><path class="cls-6" d="M15.6,102.8c.3,0,.4.2.4.5a.4.4,0,0,1-.4.4h.1a.4.4,0,0,1,.1.3h.1a.5.5,0,1,1-.1.9.9.9,0,0,1-.6-.4l-.3-.6a1.3,1.3,0,0,1,.1-.6.7.7,0,0,1,.6-.5"/><path class="cls-6" d="M20,102.9c-.1.3-.3.4-.5.3a.5.5,0,0,1-.3-.5H19l-.2.6h.1l.5.3a2,2,0,0,1,.8.4,1.7,1.7,0,0,1,.3,1,3.6,3.6,0,0,1-.2,1,2.7,2.7,0,0,1-.7.8,1.4,1.4,0,0,1-1.2.3.4.4,0,0,1-.4-.4.5.5,0,0,1,.5-.4h.6a2.1,2.1,0,0,0,.4-.6,1.4,1.4,0,0,0,.2-.6,1,1,0,0,0-.1-.4l-.5-.3-.7-.4a.8.8,0,0,1-.4-.8,2,2,0,0,1,.6-1.2l.9-.2.5.2a.6.6,0,0,1,0,.6"/><path class="cls-6" d="M15.8,102.8a.3.3,0,0,1,.3.5c0,.2-.2.3-.4.3h-.4l-.4.4a2.5,2.5,0,0,0-.4,1.2v.5l.2.2h.5l.9-.4a.6.6,0,0,1,.6.1.5.5,0,0,1-.2.6,3.1,3.1,0,0,1-1.2.5h-1a1.8,1.8,0,0,1-.5-.7,1.4,1.4,0,0,1-.1-.9,2.3,2.3,0,0,1,.6-1.6,1.7,1.7,0,0,1,.6-.6,1,1,0,0,1,.9-.2"/><path class="cls-6" d="M15.3,104.2a.4.4,0,0,1-.4-.4c0-.3.2-.4.5-.4a1.1,1.1,0,0,1,.8.3.7.7,0,0,1,.1.5l-.2.3a1.3,1.3,0,0,1-1.2.6.3.3,0,0,1-.5-.3.5.5,0,0,1,.4-.5,1.1,1.1,0,0,0,.7-.3h0s.1.3,0,.2h-.2"/><path class="cls-8" d="M177.5,76.7c-.2-.2-.2-.5,0-.6a.4.4,0,0,1,.6,0,.6.6,0,0,1,0,.6h-.6"/><path class="cls-8" d="M178.6,72.5a.4.4,0,0,1,.4-.4.7.7,0,0,1,.4.5h0a4.3,4.3,0,0,0-.1.5c0,1-.1,2.7,0,4.2s-.1,2.1-.1,2.8a4.9,4.9,0,0,0-.1,1.2,5.4,5.4,0,0,1-.1.8h0c.2-.1.4.1.4.4a.4.4,0,0,1-.4.4.9.9,0,0,1-.6-.3c-.1-.2-.2-.3-.2-.5s.1-.6.1-.9a4.9,4.9,0,0,1,.1-1.2V77.3c0-1.5.1-3.2.1-4.3v-.4h.1m.8.2a.5.5,0,0,1-.5.4.4.4,0,0,1-.4-.4h0c0-.3.2-.4.4-.5a.7.7,0,0,1,.5.4h0v.2"/><path class="cls-8" d="M188.8,94.2a.7.7,0,0,1-.4-.5c.1-.2.3-.4.5-.3s2.4-.1,4.1-.1h2.2a2.3,2.3,0,0,1,1.7.5.6.6,0,0,1,0,.6h-.6a1.8,1.8,0,0,0-1.1-.3H193a31.4,31.4,0,0,1-4.2.1"/><path class="cls-8" d="M189.5,96.8a.4.4,0,0,1-.4.4.7.7,0,0,1-.4-.5.7.7,0,0,1,.4-.6c.2-.2.5-.2.7-.3h1.6a18.3,18.3,0,0,1,4.6.2c.2,0,.3.3.3.5a.5.5,0,0,1-.5.3,16.3,16.3,0,0,0-4.4-.2,7.4,7.4,0,0,0-1.5,0h-.4"/><path class="cls-8" d="M197.4,93a.4.4,0,0,1-.4-.4.5.5,0,0,1,.5-.4,10.5,10.5,0,0,1,3.9,1.3,1.9,1.9,0,0,1,.9,1.4,1.7,1.7,0,0,1-.9,1.3,5.6,5.6,0,0,1-1.7,1.1,14.8,14.8,0,0,0-3,2.1.4.4,0,0,1-.7-.5c.7-.9,2.1-1.5,3.3-2.3l1.6-1a1.1,1.1,0,0,0,.5-.7,1,1,0,0,0-.5-.7,10.4,10.4,0,0,0-3.5-1.2"/><path class="cls-8" d="M309.1,45.6a.4.4,0,0,1-.4-.4c-.1-.2.1-.4.3-.4h.6a11.6,11.6,0,0,1,3.7.3.4.4,0,0,1-.3.7,11.5,11.5,0,0,0-3.3-.2h-.6m0-.9a.5.5,0,0,1,.4.5.4.4,0,0,1-.4.4H309c-.2-.1-.4-.3-.3-.5s.2-.4.4-.3h0"/><path class="cls-8" d="M310.4,42.2c.2,0,.3.3.2.5s-.3.3-.5.2a1.7,1.7,0,0,0-1.3.3,3.1,3.1,0,0,0-1.3,1.2,1.9,1.9,0,0,0-.3,1.6,1.8,1.8,0,0,0,1.3,1.1,3.9,3.9,0,0,0,1.9.2,8.8,8.8,0,0,0,3.5-1.5,8.5,8.5,0,0,0,1.7-1.4,2.3,2.3,0,0,0,.5-1c0-.1-.1-.2-.3-.4l-1.1-.4a8,8,0,0,0-3.9.4.6.6,0,0,1-.6-.3c0-.2.1-.5.3-.5a10,10,0,0,1,4.4-.4l1.4.5a1.7,1.7,0,0,1,.6,1.1,2.6,2.6,0,0,1-.7,1.6l-1.8,1.5a11.9,11.9,0,0,1-3.9,1.6,5.8,5.8,0,0,1-2.3-.2,2.7,2.7,0,0,1-1.7-1.6,2.7,2.7,0,0,1,.2-2.3,5,5,0,0,1,1.7-1.5,2.8,2.8,0,0,1,2-.3"/><path class="cls-8" d="M165.5,48.1c-.1.2-.4.1-.6,0s-.1-.5.1-.6a2.2,2.2,0,0,1,1.6-.4h2.3c.3,0,.4.2.5.4a.7.7,0,0,1-.4.5l-3.5.2"/><path class="cls-8" d="M165.9,43.3a.3.3,0,0,1,.3.5.4.4,0,0,1-.5.2h-.5a2.4,2.4,0,0,0-.9.6,5.4,5.4,0,0,0-1.5,2.1,2.6,2.6,0,0,0-.2,1.9c0,.4.3.7.8,1l1.6.5a4.7,4.7,0,0,0,1.7.1,7.8,7.8,0,0,0,4.7-2.7,2.6,2.6,0,0,0,.9-1.7.7.7,0,0,0-.2-.7c-.1-.2-.4-.3-.8-.4a5.5,5.5,0,0,0-3.8.8.5.5,0,0,1-.6-.2.4.4,0,0,1,.2-.5,6.5,6.5,0,0,1,4.4-.9,2.7,2.7,0,0,1,1.3.7,1.6,1.6,0,0,1,.3,1.3,5,5,0,0,1-1.1,2.2,9.3,9.3,0,0,1-5.2,2.9,6,6,0,0,1-1.9,0l-2-.7a2.6,2.6,0,0,1-1.1-1.6,3.2,3.2,0,0,1,.3-2.3,5.9,5.9,0,0,1,1.7-2.4,3,3,0,0,1,1-.7,1.1,1.1,0,0,1,1.1-.1"/><path class="cls-8" d="M218.2,67.6a.4.4,0,1,1,.8.4,19.9,19.9,0,0,0-1.1,4.2c-.1.8-.2,1.4-.2,1.8s0,.3,0,.3h0c.1,0-.2-.2-.1-.2h-.2l.6-.6,1.4-1.8,1.3-1.7a1.9,1.9,0,0,1,1.1-.9c.2-.1.4.1.5.3a.5.5,0,0,1-.3.5,1.5,1.5,0,0,0-.7.6l-1.2,1.7-1.5,1.9-.7.6-.3.2h-.2c-.2,0-.3-.1-.4-.3a.7.7,0,0,1-.1-.6,16.8,16.8,0,0,1,.2-2l.6-2.6a9.8,9.8,0,0,1,.5-1.9"/><path class="cls-8" d="M219.7,71.9c0-.2.2-.4.4-.3a.4.4,0,0,1,.4.4,5.2,5.2,0,0,0-.2,1.1.7.7,0,0,0,.1.5h.6a1.2,1.2,0,0,0,.6-.5l.5-.6c.2-.2.2-.5.3-.5s.3-.3.5-.3a.4.4,0,0,1,.2.5c0,.3-.2.5-.3.8a.6.6,0,0,0-.1.4c0,.1-.1-.1,0,0h.2l1.1-.7.7-.5h.7a.8.8,0,0,1,.1.4v.8l.8-.2a.4.4,0,0,1,.5.2.5.5,0,0,1-.2.6,1.7,1.7,0,0,1-1.4.1c-.3-.1-.5-.5-.6-.8v-.6h.4l-.6.5c-.5.4-1,.9-1.6.9h-.6a.7.7,0,0,1-.4-.6,1.9,1.9,0,0,1,.1-.8c.2-.4.3-.7.4-.7l.7.2a1.3,1.3,0,0,1-.3.7l-.6.7a1.6,1.6,0,0,1-1,.8H220l-.4-.4a1.9,1.9,0,0,1-.1-.8,4.3,4.3,0,0,1,.2-1.2"/><path class="cls-8" d="M228.2,71.6a.4.4,0,0,1,.5-.2c.2,0,.4.2.3.4l-.3,1.1a1.5,1.5,0,0,0-.1.7v.3h-.1a.4.4,0,0,1-.1.6.5.5,0,0,1-.6-.2,1.3,1.3,0,0,1-.1-.6,1.3,1.3,0,0,0,.1-.6,2.6,2.6,0,0,1,1.5-2,1.7,1.7,0,0,1,1.4-.3,1.7,1.7,0,0,1,.8.6,1.1,1.1,0,0,1,0,.8.9.9,0,0,1-.3.6,4.6,4.6,0,0,1-.7.7.9.9,0,0,0-.3.8l.3.4h.2q.2,0,.3-.3c.1-.2.4-.2.6-.1s.2.4.1.6a1.8,1.8,0,0,1-.7.5h-.7a1.4,1.4,0,0,1-.9-1.1,1.7,1.7,0,0,1,.5-1.5l.7-.6c.1-.1.1-.3.2-.4h0l-.3-.3a1.3,1.3,0,0,0-.8.2,2.2,2.2,0,0,0-1.1,1.4v.6h-.1l-.7.4c-.1-.2,0-.2,0-.2v-.6a2.5,2.5,0,0,1,.1-.8l.3-1.1"/><path class="cls-8" d="M229.9,73a.4.4,0,0,1,.4.4.5.5,0,0,1-.5.4h-.2c-.1-.1-.2-.3-.1-.4s.2-.3.2-.3h1a5.7,5.7,0,0,0,1.8-.3.4.4,0,0,1,.5.2.4.4,0,0,1-.3.6,6.3,6.3,0,0,1-1.9.3h-.6c0,.1.1-.1,0-.1v-.2c0,.1-.1-.1-.1-.1h-.3"/><path class="cls-8" d="M237.9,71.4c.2,0,.3.3.2.5a.4.4,0,0,1-.5.2h-1l-.4.2a.2.2,0,0,0-.2.2h1.3c.1.1.4.3.4.5a.8.8,0,0,1-.3.8l-.4.6a6.9,6.9,0,0,0-.5,1.3c-.1.3-.1.6-.2.9a1.4,1.4,0,0,1-.5.8,1,1,0,0,1-.9,0l-.6-.5a1.9,1.9,0,0,1-.4-.9,2.1,2.1,0,0,1,.4-1.2.6.6,0,0,1,.6-.1.7.7,0,0,1,.1.6,1.3,1.3,0,0,0-.3.7c.1.1.1.2.2.4l.4.3h.1a.6.6,0,0,0,.1-.4c.1-.1.1-.5.2-.8a9.4,9.4,0,0,1,.6-1.5l.4-.6.2-.2h0c0-.1.1.1,0,.1h-.1c-.2-.1-.6.1-1.1-.1l-.3-.2a.8.8,0,0,1-.2-.6,1.4,1.4,0,0,1,.6-.8l.7-.2a3,3,0,0,1,1.4.2"/><path class="cls-8" d="M241.7,70.8c.3,0,.4.2.4.5s-.2.3-.5.3-.4.1-.7.4a2.7,2.7,0,0,0-.6,1v.4h.1l.6-.3c.2-.1.4-.1.5.1s.1.4-.1.6l-.8.4a1.1,1.1,0,0,1-.8-.1,1.1,1.1,0,0,1-.3-.7c-.1-.2,0-.5,0-.7a3.9,3.9,0,0,1,.8-1.4,1.6,1.6,0,0,1,1.4-.6"/><path class="cls-8" d="M242,71.2a.5.5,0,0,1,.3.6.4.4,0,0,1-.6.2h0c.2.1.2.4.1.6a.3.3,0,0,1-.5.1c-.3-.1-.5-.3-.5-.5a.8.8,0,0,1,.1-.7.7.7,0,0,1,.5-.4.6.6,0,0,1,.6,0"/><path class="cls-8" d="M245.2,71a.4.4,0,0,1,.4.4.7.7,0,0,1-.5.4h-.4V72a2.5,2.5,0,0,0-.2,1c-.1.5-.1,1-.4,1.3a1.3,1.3,0,0,1-.7.4h-.9c-.3-.1-.4-.3-.3-.5s.3-.4.5-.3h.6a.1.1,0,0,0,.1-.1,3,3,0,0,0,.3-.9,3.2,3.2,0,0,1,.2-1.3c.2-.2.3-.4.6-.5a1.1,1.1,0,0,1,.8-.1"/><path class="cls-8" d="M247.3,72.3a.4.4,0,0,1,.5.2.4.4,0,0,1-.2.6c-.1,0,0-.1,0-.1h-.1l-.4.2a.2.2,0,0,1-.2.2h-.2l.3-.2,1.1-.9a25.7,25.7,0,0,0,2.9-3.5,6.8,6.8,0,0,0,1-1.8v-.3h0a5.2,5.2,0,0,0-2.1,1.5,3.6,3.6,0,0,0-1,1.8,1,1,0,0,0,.3,1,2.4,2.4,0,0,0,.9.8,3.3,3.3,0,0,1,.9,1.1,1.5,1.5,0,0,1-.4,1.6c-.1.2-.3.2-.5.1a.5.5,0,0,1-.1-.6c.3-.4.3-.6.2-.8l-.6-.7a5.2,5.2,0,0,1-1.1-1,2.4,2.4,0,0,1-.4-1.7,4.8,4.8,0,0,1,1.2-2.2,5.3,5.3,0,0,1,2.4-1.7h.6l.4.3a1.1,1.1,0,0,1,.1.5,1.3,1.3,0,0,1-.1.6,9.4,9.4,0,0,1-1.2,2,20.5,20.5,0,0,1-3,3.6,8.7,8.7,0,0,1-1.1.9l-.4.3a.7.7,0,0,1-.6.1l-.3-.2a.4.4,0,0,1-.1-.3v-.3l.5-.6.4-.2h.2"/><path class="cls-8" d="M257.3,67.5c.1.2-.1.4-.3.5a.5.5,0,0,1-.5-.3h.1l-.7.5a16.4,16.4,0,0,0-2.1,2.3,8.7,8.7,0,0,0-1.4,2.7,2,2,0,0,0-.1.7.5.5,0,0,0,.4.2.4.4,0,0,1,0,.8,1.2,1.2,0,0,1-1.1-.7,1.5,1.5,0,0,1,0-1.3,9,9,0,0,1,1.5-2.9,27.1,27.1,0,0,1,2.3-2.4l1-.7h.5a.7.7,0,0,1,.4.5"/><path class="cls-8" d="M257,72.5a.5.5,0,0,1-.5.4c-.2-.1-.4-.2-.3-.5h-.4a1.9,1.9,0,0,0-.6,1V74h.5a3.1,3.1,0,0,0,1.4-1.4c0-.1.1-.2,0-.3h-.2a.6.6,0,0,0-.5.2.4.4,0,0,1-.5-.2c-.2-.2-.1-.4.1-.5l.8-.3a1.1,1.1,0,0,1,.8.1c.2.1.3.4.4.6a2.4,2.4,0,0,1-.2.8,3,3,0,0,1-2,1.8h-.6a.7.7,0,0,1-.6-.3,1.5,1.5,0,0,1-.2-1.1,2.2,2.2,0,0,1,1.1-1.7,1.4,1.4,0,0,1,.9-.1l.4.3a1.4,1.4,0,0,1,.2.6"/><path class="cls-8" d="M263.2,70.6a.6.6,0,0,1-.6.3.4.4,0,0,1-.2-.6v-.2h-.2l-.5.4a1,1,0,0,0-.1.4c0,.2.1.4.1.6s.2.1.4.4a3.4,3.4,0,0,1,.1,1,1.8,1.8,0,0,1-1,1.2l-.7.3c-.2,0-.5.1-.7-.1a.4.4,0,1,1,.5-.7c0,.1-.1,0-.1,0h.1l.5-.2c.3-.2.6-.4.6-.6a.7.7,0,0,0-.1-.5.7.7,0,0,1-.3-.4,3.6,3.6,0,0,1-.2-1,1.3,1.3,0,0,1,.3-1l.8-.5h.5c.2,0,.4,0,.5.2a.5.5,0,0,1,.3.5c.1.2,0,.4,0,.6"/><path class="cls-8" d="M267,71.2c-.1.2-.3.2-.5.1s-.3-.4-.1-.6a.3.3,0,0,1,.1-.2h0a.6.6,0,0,0-.5-.2h-.6a.9.9,0,0,0-.4.6l.2.5.6.5a.8.8,0,0,1,.4.7,1.2,1.2,0,0,1-.2.8,2.9,2.9,0,0,1-1.8,1.1.5.5,0,0,1-.5-.3c-.1-.2.1-.4.3-.5a2.2,2.2,0,0,0,1.3-.8.3.3,0,0,0,.1-.2v-.2a2.6,2.6,0,0,1-.8-.6,1.6,1.6,0,0,1-.3-1.2,1.5,1.5,0,0,1,.8-1.1,2,2,0,0,1,1.1-.2,1.1,1.1,0,0,1,1,.5.8.8,0,0,1,.2.5.9.9,0,0,1-.3.7"/><path class="cls-8" d="M272.8,71.5c-.1-.2,0-.4.3-.5a.5.5,0,0,1,.5.3v.2h0v.8h0s-.1-.1,0-.1-.2-.1-.2-.1h.5l1.3-.4h.6l.6.3a.9.9,0,0,1,.3.6v.8a.5.5,0,0,1-.5.3c-.3-.1-.4-.3-.3-.5v-.5h-.6l-1.2.4H273l-.3-.2c-.2-.2-.1-.4-.1-.6a.6.6,0,0,1,.1-.4v-.3h.1m-4.3,2.7c-.2.1-.4,0-.6-.2a.4.4,0,0,1,.2-.5,3.1,3.1,0,0,0,.8-1,6.1,6.1,0,0,0,.7-1,.6.6,0,0,0,.1-.4h.1c-.1,0,.1.1,0,.1s.2.1.2,0,.1.1.1.1h0l-.3.5a1.4,1.4,0,0,0-.2.6s-.1-.1,0-.1h.4a4.9,4.9,0,0,0,1.7-.6l1-.6c.1,0,.1-.2.5-.2a.4.4,0,1,1,0,.8h0c0,.1-.1.1-.2.2l-.9.5a7.3,7.3,0,0,1-1.9.7h-.9l-.4-.3c-.1-.2-.2-.4-.1-.5a1.6,1.6,0,0,1,.3-.9,2.1,2.1,0,0,1,.4-.6c0-.1.1-.1.2-.2h.5l.3.2v.5a1.4,1.4,0,0,1-.2.6l-.7,1.1a3.2,3.2,0,0,1-1.1,1.2"/><path class="cls-6" d="M46.7,20.3a.4.4,0,0,1,.5.2.4.4,0,0,1-.2.6c-.1,0,.1-.2.1-.1h.1v.3a2.8,2.8,0,0,0-.1.9c0,.2-.1.3-.1.5l-.2.2h-.4a.2.2,0,0,1-.2-.2c-.3-.4-.1-.7-.1-.9a4.8,4.8,0,0,1,0-1.2v-1a.1.1,0,0,0-.1-.1c0-.1-.1-.2,0-.4l.3-.4h.3l.5.2a3.4,3.4,0,0,1,.9,1.2l.3.5c.1.1.1.1.1.2h0c.2,0,.4.2.3.4a.4.4,0,0,1-.4.4,1,1,0,0,1-.6-.5.9.9,0,0,1-.4-.6l-.7-1h.1c0,.1.1-.2.1-.1h0a4.3,4.3,0,0,1,.1.5v2.6h-.7c0-.1.1-.2.1-.3v-.8c0-.2.1-.3.1-.4v-.2s0-.2.3-.3m.4,1.9c0,.2-.2.4-.4.3a.4.4,0,0,1-.4-.4h0v-.9c0-.2,0-.3.1-.4v-.2h0a.1.1,0,0,0,.1-.1.4.4,0,0,1,.6.6h.1c0,.1-.1.2-.1.3v.9h0m-.3-2.8c.1.2-.1.4-.3.4a.5.5,0,0,1-.5-.4c0-.2,0-.3.1-.4s0-.2.2-.3.4,0,.4.1.2.1.2.2.1.5.2.8V21a3.3,3.3,0,0,1,0,1h0c0,.3-.1.4-.4.4a.4.4,0,0,1-.4-.4h0V19.9l-.2-.6h.3c-.1,0,.3-.1.2,0s.2-.1.1-.1h.1v.2"/><path class="cls-6" d="M48.3,20.8c.2-.2.5-.2.6,0s.1.5-.1.6l-.8.7-.3.4-.5.3-.4-.7h0l.4-.4.6-.4.5-.2h.3a.2.2,0,0,1,.2.2v.3a3.1,3.1,0,0,1-1.4,1.1l-.8.2c-.2-.1-.4-.1-.5-.3a.8.8,0,0,1-.2-.5c.1-.3.2-.4.5-.4a.4.4,0,0,1,.4.4h-.1c.1,0,0-.1,0,0h.4l.9-.6h0v.2h.1l-.5.3c-.2.2-.2.4-.5.5s-.5.1-.6-.1a.5.5,0,0,1,.2-.6l.3-.2c.1-.1.2-.3.4-.4l.8-.7m-.9,2a.4.4,0,0,1-.6.1.4.4,0,0,1-.1-.5,3.6,3.6,0,0,1,1-1.1L48,21h.3a.4.4,0,0,1,.5-.1.5.5,0,0,1,.1.6h-.1l-.3.3-.3.2a3.6,3.6,0,0,0-.8.9"/><path class="cls-6" d="M46.7,18c.2.2.3.4.2.6a.5.5,0,0,1-.6.1h0s.2,0,.2.1h.2c-.1,0,.1-.2.1-.2s0-.1,0,0h0c0,.1.4.4.7.7l.8.8a3.3,3.3,0,0,1,.6.6h-.4s-.1.2,0,.2h0c0-.1-.1-.1-.1-.2l-.3-.3-.6-.5-.4-.2h.4s.1-.2,0-.2h.1c0,.1.1.2.2.3l.3.2c.1.1,0,.1.1.1H48c.2-.1.4-.1.5.1a.4.4,0,0,1-.1.6H48l-.3-.2c-.2,0-.3-.2-.4-.3l-.4-.4h-.1c0-.1,0-.1-.1-.2s0-.3.2-.4h.6l.4.3a2.5,2.5,0,0,1,.8.5l.3.4c.1.2.3.3.3.6s-.1.2-.2.3h-.5l-.3-.2-.5-.6-.8-.7c-.4-.4-.8-.6-1-1.1s-.1-.3,0-.5,0-.2.1-.2l.3-.2h.3"/><path class="cls-6" d="M46,18.9c-.2-.2-.1-.4,0-.6s.5-.1.6.1h0c.1.1.1.1.1.2a.3.3,0,0,1-.3.5.4.4,0,0,1-.5-.2H46m-.1.2a.4.4,0,0,1,.4-.4.4.4,0,0,1,.4.4v3.5h-.2c0-.1-.1,0,0-.1h.2l.6-.6.8-.8v.2h0a.1.1,0,0,1-.1-.1,3.6,3.6,0,0,1-.9-.8l-.7-.7-.3-.5-.2-.4h0a.4.4,0,0,1,.4-.4c.3,0,.4.2.4.5h0v.2c.1.1.1.2.2.4l.7.6.7.8.3.2.2.3a.8.8,0,0,1-.1.4,7.6,7.6,0,0,1-.9.9l-.7.6-.4.3h-.5A.3.3,0,0,1,46,23a.4.4,0,0,1-.1-.3,2.7,2.7,0,0,1,0-.9V19.1"/></g></g></g></svg>