<svg xmlns="http://www.w3.org/2000/svg" xmlns:xlink="http://www.w3.org/1999/xlink" viewBox="0 0 287.4 272.7"><defs><style>.cls-1{fill:none;}.cls-2{isolation:isolate;}.cls-3{opacity:0;}.cls-4{clip-path:url(#clip-path);}.cls-5,.cls-6{fill:#ed3624;}.cls-5{mix-blend-mode:darken;opacity:0.42;}.cls-7{fill:#1749b3;}</style><clipPath id="clip-path"><rect class="cls-1" x="-76.5" y="-8.5" width="419.5" height="297.64"/></clipPath></defs><g class="cls-2"><g id="Ebene_1" data-name="Ebene 1"><g class="cls-3"><path d="M102.2,33.9A2.9,2.9,0,0,1,100,33a3.7,3.7,0,0,1-.8-2.5,3.6,3.6,0,0,1,.8-2.4,2.9,2.9,0,0,1,2.2-.9,3,3,0,0,1,2.3.9,3.6,3.6,0,0,1,.8,2.4,3.7,3.7,0,0,1-.8,2.5A3,3,0,0,1,102.2,33.9Zm0-.9c1.3,0,1.9-.8,1.9-2.5s-.6-2.4-1.9-2.4-1.8.8-1.8,2.4S101,33,102.2,33Z"/></g><g class="cls-3"><path d="M101.5,52.8a2.9,2.9,0,0,1-2.2-.9,4,4,0,0,1,0-4.8,3,3,0,0,1,2.3-.9,2.9,2.9,0,0,1,2.2.9,3.6,3.6,0,0,1,.8,2.4,3.9,3.9,0,0,1-.8,2.5A3,3,0,0,1,101.5,52.8Zm0-.8c1.3,0,1.9-.8,1.9-2.5s-.6-2.5-1.8-2.5-1.9.9-1.9,2.5S100.3,52,101.5,52Z"/></g><g class="cls-3"><path d="M39.1,73.2V60.8h1.8V73.2Z"/><path d="M43.6,73.2V60.8h3.8a4.1,4.1,0,0,1,2.7.8,2.9,2.9,0,0,1,.9,2.3,3.6,3.6,0,0,1-2.5,3.5l4.2,5.8H50.5L47,67.9H45.4v5.3Zm1.8-6.6h.5c2.2,0,3.3-.8,3.3-2.5s-.9-2-2.7-2H45.4Z"/></g><g class="cls-3"><path d="M71.3,74.4a3.9,3.9,0,0,1-2.5,1.2,2.5,2.5,0,0,1-1.7-.6,2.1,2.1,0,0,1-.6-1.6,2.4,2.4,0,0,1,1.1-2,6.5,6.5,0,0,1,3.1-.7h.4v-.9a1.2,1.2,0,0,0-1.4-1.4,5,5,0,0,0-2.5.7V67.9a7.4,7.4,0,0,1,2.7-.6,2.8,2.8,0,0,1,2,.6,2.5,2.5,0,0,1,.6,1.9v3.6c0,.8.3,1.2.8,1.2h.3v.8a2,2,0,0,1-1.1.2C71.9,75.6,71.5,75.2,71.3,74.4ZM67.9,66V64.7h1.2V66Zm3.2,7.6v-2h-.5a3.6,3.6,0,0,0-1.9.4,1.4,1.4,0,0,0-.8,1.2,1.5,1.5,0,0,0,.4.9,1.6,1.6,0,0,0,.9.3A2.8,2.8,0,0,0,71.1,73.6ZM70.8,66V64.7H72V66Z"/></g><g class="cls-3"><path d="M146.9,81.6h1.6v7.3a3.7,3.7,0,0,0,.7,2.6,2.9,2.9,0,0,0,4,0,4,4,0,0,0,.6-2.5V81.6h1.4V89a4.6,4.6,0,0,1-1,3.4,4,4,0,0,1-3.1,1.1,4.4,4.4,0,0,1-3.2-1.1,5,5,0,0,1-1-3.5Z"/><path d="M157.8,93.2V81.6h3.5a4,4,0,0,1,2.6.8,2.7,2.7,0,0,1,.8,2.1,3.4,3.4,0,0,1-2.3,3.3l3.9,5.4h-2.1l-3.3-4.9h-1.5v4.9Zm1.6-6.1h.5c2.1,0,3.1-.8,3.1-2.5s-.8-1.8-2.6-1.8h-1Z"/></g><g class="cls-3"><path d="M-3.1,107.9h1.8v7.7a4.3,4.3,0,0,0,.7,2.8,2.6,2.6,0,0,0,2.1.8,2.6,2.6,0,0,0,2.1-.8,4.5,4.5,0,0,0,.6-2.7v-7.8H5.8v7.8a5.4,5.4,0,0,1-1.1,3.7,4.5,4.5,0,0,1-3.3,1.1A4.4,4.4,0,0,1-2,119.3a5.4,5.4,0,0,1-1.1-3.7Z"/><path d="M8.4,120.2V107.9h3.7a4.1,4.1,0,0,1,2.8.8,2.7,2.7,0,0,1,.9,2.2,3.5,3.5,0,0,1-2.5,3.5l4.1,5.8H15.3L11.8,115H10.1v5.2Zm1.7-6.5h.6c2.2,0,3.3-.9,3.3-2.6s-.9-1.9-2.8-1.9H10.1Z"/></g><g class="cls-3"><path d="M121.3,131.6V119.3h1.8v12.3Z"/><path d="M125.9,131.6v-9.1h1.6v1.7a4,4,0,0,1,3.2-1.9,2.6,2.6,0,0,1,1.9.8,3.2,3.2,0,0,1,.7,2v6.5h-1.7v-6a2.4,2.4,0,0,0-.3-1.4,1.1,1.1,0,0,0-1-.4c-1,0-1.9.6-2.8,1.9v5.9Z"/></g><g class="cls-3"><path d="M144.4,127.8V127l3.7-4.3h-3.5v-.8h4.8v.8l-3.6,4.3h3.6v.8Z"/><path d="M153.4,127.9a2.6,2.6,0,0,1-2-.8,3.3,3.3,0,0,1-.8-2.2,3.4,3.4,0,0,1,.8-2.3,2.8,2.8,0,0,1,2-.8,2.9,2.9,0,0,1,2.1.8,3.2,3.2,0,0,1,.7,2.2,3.2,3.2,0,0,1-.7,2.3A2.9,2.9,0,0,1,153.4,127.9Zm0-.8c1.1,0,1.7-.7,1.7-2.3s-.6-2.2-1.7-2.2-1.6.8-1.6,2.3S152.3,127.1,153.4,127.1Z"/><path d="M160.2,127.9a2.8,2.8,0,0,1-2-.8,3.2,3.2,0,0,1-.7-2.2,3.3,3.3,0,0,1,.7-2.3,2.9,2.9,0,0,1,2.1-.8,2.8,2.8,0,0,1,2,.8,3.3,3.3,0,0,1,.8,2.2,3.2,3.2,0,0,1-.8,2.3A2.9,2.9,0,0,1,160.2,127.9Zm0-.8c1.2,0,1.7-.7,1.7-2.3s-.5-2.2-1.6-2.2-1.7.8-1.7,2.3S159.1,127.1,160.2,127.1Z"/><path d="M164.8,127.8v-5.9h1V123a2.4,2.4,0,0,1,2-1.2,1.5,1.5,0,0,1,1.6,1.2,2.3,2.3,0,0,1,2-1.2,1.7,1.7,0,0,1,1.2.5,1.6,1.6,0,0,1,.4,1.2v4.3h-1v-4.1c0-.7-.3-1-.8-1a2.4,2.4,0,0,0-1.8,1.2v3.9h-1v-4.1c0-.7-.3-1-.8-1s-1.1.4-1.8,1.2v3.9Z"/><path d="M176.9,127.9a1.8,1.8,0,0,1-1.3-.4,2,2,0,0,1-.4-1.3v-3.5h-.8v-.8h.8v-1h1v1.1h1.6v.8h-1.6V126a1,1,0,0,0,1,1.1h.5v.7Z"/></g><g class="cls-3"><path d="M100.1,270.7V222.9h6.8v47.8Z"/></g><g class="cls-3"><path d="M97,246.3V231.1h8.5v1.6H99.1v4.9h5.4v1.6H99.1v5.5h6.8v1.6Z"/></g><g class="cls-3"><path d="M112.8,243.2V231.6h3.5a3.7,3.7,0,0,1,2.5.7,2.6,2.6,0,0,1,.9,2.1,3.3,3.3,0,0,1-2.3,3.3l3.8,5.5h-2l-3.3-4.9h-1.5v4.9Zm1.6-6.2h.5c2.1,0,3.1-.8,3.1-2.4s-.8-1.8-2.6-1.8h-1Z"/><path d="M123.1,246.3l1.4-3.1-3.3-8.5h1.7l2.4,6.4,2.6-6.4h1.5l-4.7,11.6Z"/></g><g class="cls-3"><path d="M158.8,240.8v-9.4h2.9a2.8,2.8,0,0,1,2,.6,2.1,2.1,0,0,1,.8,1.7,2.8,2.8,0,0,1-1.9,2.7l3.1,4.4h-1.6l-2.7-4h-1.3v4Zm1.3-5h.5c1.6,0,2.5-.6,2.5-2s-.7-1.4-2.1-1.4h-.9Z"/></g><g class="cls-3"><path d="M140.5,262.3l-3.6-9.4h1.4l2.9,7.7,2.8-7.7h1.2l-3.5,9.4Z"/></g><g class="cls-3"><path d="M225.6,268.6l-3.9-10.2h1.5l3.1,8.3,3.1-8.3h1.2l-3.7,10.2Z"/></g><g class="cls-4"><path class="cls-5" d="M103.1,7.2a1.4,1.4,0,0,1-1.4,1.4,1.3,1.3,0,0,1-1.3-1.4h0a1.3,1.3,0,0,1,1.3-1.4A1.4,1.4,0,0,1,103.1,7v.7a4.1,4.1,0,0,0,.1,1v.4a7.6,7.6,0,0,1,.1,1.5v1.6a14.8,14.8,0,0,0,.1,2.1v3c-.1,1-.2,2.1-.3,3a16.4,16.4,0,0,1-.2,2.2v1.8h0c0,.1-.1-.3-.1-.2s-.2-.3-.1-.2l-.3-.3-.4-.2h-.8l-.3.2c.1-.1-.3.2-.2.2h-.1a1.3,1.3,0,0,1,1.9-.3,1.4,1.4,0,0,1,.4,1.9l-.4.4a1.7,1.7,0,0,1-1.7,0,1,1,0,0,1-.5-.9.4.4,0,0,1-.1-.3V22.3a15,15,0,0,1,.2-2.2c.1-1,.2-2,.2-2.9a13.1,13.1,0,0,0,0-2.8c0-.7-.1-1.4-.1-2.2V9.4a1.3,1.3,0,0,0-.1-.5V7a1.3,1.3,0,0,1,1.3-1.4A1.4,1.4,0,0,1,103.1,7h0"/><path class="cls-5" d="M100.2,48.6a1.3,1.3,0,0,1,1.3-1.3,1.3,1.3,0,0,1,1.4,1.3h0v5.8a4.1,4.1,0,0,1,.1,1.1v2.9a12.7,12.7,0,0,1,.1,2,1.2,1.2,0,0,1-1.3,1.4,1.4,1.4,0,0,1-1.4-1.3c0-.7-.1-1.4-.1-1.7s-.1-.4-.1-.8V48.8h0m2.7.5a1.4,1.4,0,0,1-1.4,1.4,1.3,1.3,0,0,1-1.3-1.4v-.4h0a1.3,1.3,0,0,1,1.3-1.3,1.3,1.3,0,0,1,1.4,1.3h0v.4"/><path class="cls-5" d="M102.6,135.2a1.4,1.4,0,0,1-1.9.3,1.3,1.3,0,0,1-.3-1.9c.1-.1-.2.2-.1.2s-.1.1-.1.1h0c0-.1.1-.2.1-.4a1.6,1.6,0,0,1,1.8-.9,1.4,1.4,0,0,1,.8,1.8v.3h0l-.2.4m-2.5-25a1.4,1.4,0,0,1,2.7-.1c0,1.1.2,2.3.3,4a65.4,65.4,0,0,1,.1,7.7v5.1a29.1,29.1,0,0,1-.1,3.1c0,.8-.1,1.5-.1,2.3a2.8,2.8,0,0,1-.1.9v.9c0,.2,0,.3-.1.4h0v-.3a1.3,1.3,0,0,1-1.1,1.5,1.4,1.4,0,0,1-1.6-1.1c-.1-.6,0-.4,0-.5V133c0-.3.1-.6.1-.8a20.9,20.9,0,0,1,.1-2.4c0-.9.1-1.8.1-2.9v-5.2c0-2.5,0-5.1-.1-7.5s-.3-2.8-.3-4"/><path class="cls-5" d="M100.7,183.3a1.3,1.3,0,0,1,1.5-1.1,1.3,1.3,0,0,1,1.2,1.5h0v.4c0,.7.2,2,.3,3.4a26.9,26.9,0,0,1,.2,3.1V198c0,.7.1,1.3.1,2.1v4a3.5,3.5,0,0,1,.1.6V208c-.1.1.2.6-1,1a1.5,1.5,0,0,1-1.4-.4c-.5-.5-.3-.6-.3-.7h0a1.7,1.7,0,0,1-.1-.8,1.3,1.3,0,0,1,1.2-1.5,1.3,1.3,0,0,1,1.5,1.2v.7c.1,0,0-.1,0-.1s-.1-.3,0-.2l-.3-.4-.5-.3h-.9l-.4.2-.3.3c.1-.1-.2.4-.2.4v.2h0a5.4,5.4,0,0,1,0-1.3v-1.5c-.1-.1-.1-.3-.1-.7v-3.9a15.5,15.5,0,0,1-.1-2.2v-7.4c-.1-1.1-.2-2-.2-3s-.3-2.5-.4-3.5v-.7h0m2.7.2a1.4,1.4,0,0,1-1.4,1.4,1.5,1.5,0,0,1-1.4-1.3h.1a1.3,1.3,0,0,1,1.1-1.5,1.4,1.4,0,0,1,1.6,1.1h0"/><path class="cls-5" d="M100.3,257.6a1.4,1.4,0,0,1,1.7-1,1.3,1.3,0,0,1,1,1.6V258h0v1.1c0,.3.1.8.1,1.5s.1,1.3.1,2v3.1s-.1-.3-.1-.1v-.2c0,.1-.1-.2-.1-.2s-.2-.3-.1-.2l-.2-.2-.8-.3h-.7l-.4.3c.2-.2-.2.3-.2.3v.2c.1-.1,0,.1,0,.1v-.3a1.4,1.4,0,0,1,1.6-1.2,1.3,1.3,0,0,1,1.1,1.5v.5c-.1.1-.1.1-.1.2s.3.3-.7.8a1.6,1.6,0,0,1-1.2.1c-.6-.3-.6-.7-.7-.8a1.6,1.6,0,0,1-.1-.4v-5.2a9.2,9.2,0,0,1-.1-1.6v-1.3h0v-.2m2.8.6a1.4,1.4,0,0,1-1.4,1.4,1.3,1.3,0,0,1-1.4-1.3v-.2h.1c-.1-.1.2.4.1.3a1.3,1.3,0,0,1,.5-1.9,1.3,1.3,0,0,1,1.8.5c.5.8.2.6.2.6h0a.4.4,0,0,0,.1.3"/></g><g class="cls-4"><path d="M18.8,5.4a4.8,4.8,0,0,0-.7-2.3A4.4,4.4,0,0,0,14.2.8a4.8,4.8,0,0,0-2.4.6,4.8,4.8,0,0,0-2.3,4,4.8,4.8,0,0,0,4.7,4.7,4.8,4.8,0,0,0,4.6-4.7m.8,0a5.4,5.4,0,0,1-2.7,4.7,5,5,0,0,1-2.7.8A5.4,5.4,0,0,1,9.5,8.2a5.4,5.4,0,0,1-.8-2.8A5.5,5.5,0,0,1,11.4.7,6.4,6.4,0,0,1,14.2,0a5.5,5.5,0,0,1,4.7,2.7,6,6,0,0,1,.7,2.7"/><path d="M61.6,100.4a.4.4,0,0,1,.8,0V148a.4.4,0,1,1-.8,0Z"/><path d="M62,100.8a.4.4,0,0,1-.4-.4.4.4,0,0,1,.4-.4H77.8a.4.4,0,0,1,.4.4c0,.3-.1.4-.4.4Z"/><path d="M77.4,100.4a.4.4,0,0,1,.4-.4.4.4,0,0,1,.4.4V148a.4.4,0,0,1-.4.4.4.4,0,0,1-.4-.4Z"/><path d="M62,148.4a.4.4,0,0,1-.4-.4.5.5,0,0,1,.4-.5H77.8c.3,0,.4.2.4.5a.4.4,0,0,1-.4.4Z"/><path d="M93.3,61.1a.4.4,0,0,1,.4-.4.4.4,0,0,1,.4.4v47.5a.4.4,0,0,1-.4.4.4.4,0,0,1-.4-.4Z"/><path d="M93.7,61.5a.4.4,0,1,1,0-.8h15.8a.4.4,0,0,1,0,.8Z"/><path d="M109.1,61.1a.4.4,0,1,1,.8,0v47.5a.4.4,0,0,1-.8,0Z"/><path d="M93.7,109a.4.4,0,0,1,0-.8h15.8a.4.4,0,1,1,0,.8Z"/><path d="M93.3,134a.4.4,0,0,1,.4-.4.4.4,0,0,1,.4.4v47.5a.4.4,0,0,1-.4.4.4.4,0,0,1-.4-.4Z"/><path d="M93.7,134.4a.4.4,0,1,1,0-.8h15.8a.4.4,0,0,1,0,.8Z"/><path d="M109.1,134a.4.4,0,0,1,.8,0v47.5a.4.4,0,0,1-.8,0Z"/><path d="M93.7,181.9a.4.4,0,1,1,0-.8h15.8a.4.4,0,0,1,0,.8Z"/><path d="M93.3,209a.4.4,0,0,1,.4-.4.4.4,0,0,1,.4.4v47.6a.4.4,0,0,1-.4.4.4.4,0,0,1-.4-.4Z"/><path d="M93.7,209.5c-.3,0-.4-.2-.4-.5a.4.4,0,0,1,.4-.4h15.8a.4.4,0,0,1,.4.4.5.5,0,0,1-.4.5Z"/><path d="M109.1,209a.4.4,0,0,1,.8,0v47.6a.4.4,0,1,1-.8,0Z"/><path d="M93.7,257a.4.4,0,0,1-.4-.4c0-.3.1-.4.4-.4h15.8a.4.4,0,0,1,.4.4.4.4,0,0,1-.4.4Z"/><path d="M101.8,43a.6.6,0,0,1,.1.6.7.7,0,0,1-.6.1h-.8a2.4,2.4,0,0,0-.8,1.1,2.3,2.3,0,0,0-.1,1.4,1.7,1.7,0,0,0,.6,1,1.8,1.8,0,0,0,1.3.3,2.2,2.2,0,0,0,1.1-.5,1.9,1.9,0,0,0,.7-1.1,2.3,2.3,0,0,0,.2-1.1.5.5,0,0,0-.2-.4.8.8,0,0,0-.7-.3l-1.1-.2h-.1a.4.4,0,0,1-.4.4.4.4,0,0,1-.4-.4.8.8,0,0,1,.3-.7.9.9,0,0,1,.6-.3l1.3.3,1,.4a1.2,1.2,0,0,1,.5,1,2.6,2.6,0,0,1-.2,1.5,3.7,3.7,0,0,1-.9,1.4,4.6,4.6,0,0,1-1.6.7,2.5,2.5,0,0,1-1.9-.5,1.9,1.9,0,0,1-.9-1.4,3.1,3.1,0,0,1,.1-1.9,3.5,3.5,0,0,1,1.2-1.5l.8-.2a1,1,0,0,1,.9.2"/><path d="M102.4,24c.2.1.2.4.1.6s-.4.2-.6.1h-.3l-.5.2a2.1,2.1,0,0,0-.8,1,2.6,2.6,0,0,0-.1,1.5,1.5,1.5,0,0,0,.6.9,2.1,2.1,0,0,0,1.4.3,1.8,1.8,0,0,0,1.1-.5,4.1,4.1,0,0,0,.7-1.1,5.2,5.2,0,0,0,.2-1.1c-.1-.2-.1-.3-.3-.4l-.6-.3-1.1-.2h-.1c-.1,0,0,0,0,.1a.4.4,0,0,1-.4.4.5.5,0,0,1-.5-.4,1.1,1.1,0,0,1,.3-.7,1,1,0,0,1,.7-.2l1.2.2,1,.4a1.3,1.3,0,0,1,.6,1,4,4,0,0,1-.3,1.5,2.8,2.8,0,0,1-.9,1.4,2.3,2.3,0,0,1-1.5.7,3.1,3.1,0,0,1-2-.4,4.2,4.2,0,0,1-.9-1.4,3.5,3.5,0,0,1,.2-2,2.6,2.6,0,0,1,1.1-1.4,1.3,1.3,0,0,1,.8-.3,1.5,1.5,0,0,1,.9.2"/><path d="M18.8,267.3a4.2,4.2,0,0,0-.7-2.3,4.4,4.4,0,0,0-3.9-2.3,4.8,4.8,0,0,0-2.4.6,4.5,4.5,0,0,0-1.6,6.3,4.6,4.6,0,0,0,4,2.3,4.6,4.6,0,0,0,2.3-.6,4.8,4.8,0,0,0,2.3-4m.8,0a5.5,5.5,0,0,1-2.7,4.7,6,6,0,0,1-2.7.7A5.4,5.4,0,0,1,9.5,270a5,5,0,0,1-.8-2.7,5.6,5.6,0,0,1,5.5-5.5,5.5,5.5,0,0,1,4.7,2.7,6.4,6.4,0,0,1,.7,2.8"/><path d="M19.2,6.2a.4.4,0,0,1-.4-.4.4.4,0,0,1,.4-.4l217-1.7a.4.4,0,0,1,.4.4c0,.3-.1.4-.4.4Z"/><path d="M19.2,267.7a.4.4,0,0,1-.4-.4.4.4,0,0,1,.4-.4h217a.4.4,0,0,1,.4.4c0,.3-.1.4-.4.4Z"/><path d="M69.8,45.7a.4.4,0,0,1-.4-.4c0-.3.1-.4.4-.4H98.3a.4.4,0,0,1,.4.4.4.4,0,0,1-.4.4Z"/><path d="M101.8,181.5a.4.4,0,0,1,.8,0V209a.4.4,0,1,1-.8,0Z"/><path d="M101.2,256.6c0-.3.2-.4.5-.4a.4.4,0,0,1,.4.4v10.6a.4.4,0,0,1-.4.4.5.5,0,0,1-.5-.4Z"/><path d="M101.2,47.8a.4.4,0,1,1,.8,0V61.1a.4.4,0,1,1-.8,0Z"/><path d="M102.5,24.1a.4.4,0,0,1-.8,0V5.1a.4.4,0,0,1,.8,0Z"/><path d="M104.4,45.7a.4.4,0,0,1-.4-.4.4.4,0,0,1,.4-.4H236.2c.3,0,.4.1.4.4a.4.4,0,0,1-.4.4Z"/><path d="M103.2,267.1a.8.8,0,0,1-1.6.3h0c0-.1.1.2.1.1h.2c-.1,0,.4,0,.3.1h.1v.3h0s-.3-.2-.2-.2-.4,0-.3,0h-.2l-.2-.2a.5.5,0,0,0-.4,0c-.1,0-.2.1-.2.3s0,0,0,.2v-.2h-.1s-.1-.1,0-.1h.5c.1,0,.1,0,.1-.1a.4.4,0,0,0,.1-.3v-.3c0-.2.3.3.2.3h-.1c-.1,0,0-.1-.1,0v-.3c0,.2-.1-.3-.1-.2a.8.8,0,0,1-.1,1.1.9.9,0,0,1-1.2-.1,1.9,1.9,0,0,1-.2-.8,1.4,1.4,0,0,1,.2-.7,1.8,1.8,0,0,1,.9-.6,1.4,1.4,0,0,1,.9-.1.7.7,0,0,1,.6.2,1,1,0,0,1,.5.6,1.7,1.7,0,0,1,0,1,1.9,1.9,0,0,1-.4,1.1,1.4,1.4,0,0,1-1,.7,4.7,4.7,0,0,1-1.2,0c-.2-.1-.4-.1-.6-.3a.9.9,0,0,1-.5-.7,1.9,1.9,0,0,1,1.4-2.4,1.9,1.9,0,0,1,2,.5,1.8,1.8,0,0,1,.5.7,2,2,0,0,1,.1,1.1,1.6,1.6,0,0,1-.6.8l-.4.3a1,1,0,0,1-.9,0,1.9,1.9,0,0,1-.6-.7c0-.3-.1-.5-.1-.7a1.8,1.8,0,0,1,.3-1.2,1.6,1.6,0,0,1,1-.8,1.4,1.4,0,0,1,.9.3,1,1,0,0,1,.4.8"/><path d="M69.4,45.3c0-.3.1-.4.4-.4a.4.4,0,0,1,.4.4v55.1a.4.4,0,0,1-.4.4c-.3,0-.4-.1-.4-.4Z"/><path d="M69.4,148c0-.3.1-.5.4-.5a.5.5,0,0,1,.4.5v47.1a.4.4,0,0,1-.4.4c-.3,0-.4-.1-.4-.4Z"/><path d="M69.8,195.5c-.3,0-.4-.1-.4-.4a.4.4,0,0,1,.4-.4h32.3a.4.4,0,0,1,.4.4.4.4,0,0,1-.4.4Z"/><path d="M101.1,108.6a.4.4,0,0,1,.4-.4.4.4,0,0,1,.4.4V134a.4.4,0,0,1-.4.4.4.4,0,0,1-.4-.4Z"/><path d="M101.9,194a.9.9,0,0,1-.3,1.1.9.9,0,0,1-1.1-.2h.7v.2c0,.1-.2-.3-.2-.3h.4v-.2h.1c-.1-.1.3.3.2.3h-.1c-.1.1,0,0,0,.1h0v-.2c.1.2-.5-.4-.3-.3h-.6l.4-.2c.1-.2.2-.3.2-.5h0l.2.2h.7c-.1,0,.1-.1.1-.1v.2h0v-.2l-.2-.2h0a.8.8,0,0,1,.4,1.6h-.7a.9.9,0,0,1-.7-.3,1.2,1.2,0,0,1-.2-1.3,1.6,1.6,0,0,1,.4-.7l.4-.3a.9.9,0,0,1,1,.1,1.2,1.2,0,0,1,.4.8,1.4,1.4,0,0,1,0,.9l-.6,1.1-.7.5-.4.2h-.3a1,1,0,0,1-.8-.4,1.6,1.6,0,0,1,.1-1.5,1.7,1.7,0,0,1,.7-.8l.8-.3h.5a.9.9,0,0,1,.7.4,1.1,1.1,0,0,1,.2.8,2.4,2.4,0,0,1-.2.8l-.8.7a2.7,2.7,0,0,1-1.3.2.7.7,0,0,1-.6-.2c-.3-.1-.4-.3-.5-.6a1.7,1.7,0,0,1,.6-2.1,1,1,0,0,1,.9-.2,1.3,1.3,0,0,1,.7.6"/><path d="M101.5,193.3a.8.8,0,0,1-.2,1.6h.2v.2h0v.3h0c.1,0,0-.2,0-.1l-.2-.2h.6c-.1,0,0-.1,0,0v-.3l-.2-.4h-.1a.8.8,0,0,1,.8.8.7.7,0,0,1-.7.8,1.2,1.2,0,0,1-1-.2c-.2-.2-.4-.4-.4-.6a1.3,1.3,0,0,1,.1-.6,1.4,1.4,0,0,1,1.2-1,1.7,1.7,0,0,1,1.5.2,1.5,1.5,0,0,1,.5,1.6,1.2,1.2,0,0,1-.6,1,2.1,2.1,0,0,1-1,.6h-.8a1.1,1.1,0,0,1-1-.4,1.5,1.5,0,0,1-.3-.9,1.7,1.7,0,0,1,.5-1.6,1.1,1.1,0,0,1,1.2-.5"/><path d="M11.9,267.8a.8.8,0,1,1,.7-1.5h3.5c.1.1.3,0,.5.4a.8.8,0,0,1,.1.8c-.2.4-.4.4-.5.4a1.1,1.1,0,0,1-.6.2.8.8,0,0,1-.5-1.5l.4-.2h0c0-.1-.1,0-.1,0s-.1.1-.1.1-.1.2-.1.1-.1.5-.1.4.2.6.1.5.3.2.2.2H12.2s0,.1-.3-.1m-.2.3c-.4,0-.7-.5-.7-.9a.9.9,0,0,1,1-.7h3.2c.1,0-.1.1-.1,0s-.2.4-.2.2-.1.4-.1.3.1.6,0,.4.3.4.2.3.3.2.2.2.2,0,.1,0H12.5a.8.8,0,0,1-.5-1.5h3.6a.8.8,0,0,1,.6.3.9.9,0,0,1,.1,1q-.2.3-.3.3H11.7m.2-1.6a.8.8,0,0,1,.8.8.7.7,0,0,1-.7.8h.1a.7.7,0,0,1-1-.5.7.7,0,0,1,.5-1c.3-.2.2-.1.3-.1"/><path class="cls-6" d="M11.5,6.2a.9.9,0,0,1-.9-.8.9.9,0,0,1,.8-.8c.9-.1,3-.7,4.8-.2a.7.7,0,0,1,.5,1,.8.8,0,0,1-.9.6c-1.1-.3-3.1.2-4.3.2"/><path class="cls-6" d="M12.5,2.6a.9.9,0,0,1,.8-.8.9.9,0,0,1,.9.8h0v.5c0,.7-.1,1.5-.1,2.3s.1.8.1,1.1,0,.3.1.3A.9.9,0,1,1,13,8a3.5,3.5,0,0,1-.5-2.4V2.7h0m1.7.3a.8.8,0,0,1-.9.8.8.8,0,0,1-.8-.8V2.7h0a.9.9,0,0,1,.8-.8.9.9,0,0,1,.9.8h0v.2"/><path d="M102.6,43.3a.4.4,0,0,1-.5.2c-.2,0-.3-.3-.3-.5l7.3-17.6a.5.5,0,0,1,.6-.2.4.4,0,0,1,.2.5Z"/><path d="M229.6,49.3a.7.7,0,0,1,.8-.8.8.8,0,0,1,.8.8l-3.9,213.9a1,1,0,0,1-.9.8.9.9,0,0,1-.8-.9Z"/><path d="M224.2,258.5a.8.8,0,0,1-1.6.2v-.6a1.3,1.3,0,0,1,.3-.5l.6-.2a1.2,1.2,0,0,1,.8.3.8.8,0,0,1,.2.4,2.8,2.8,0,0,1,.4,1.5,28.2,28.2,0,0,0,.9,3l.2.3h-.2c.1.1-.3.1-.2.1h-.3a.3.3,0,0,1,.1-.2l.3-1.1a11.3,11.3,0,0,1,.8-2.2,30.5,30.5,0,0,1,2.2-3.2.8.8,0,0,1,1.4.8c-.9,1.6-1.7,2.2-2.1,3.1a8.4,8.4,0,0,0-.7,1.9,3.4,3.4,0,0,1-.4,1.2,1.4,1.4,0,0,1-.2.6,1,1,0,0,1-.7.5,1.1,1.1,0,0,1-.8-.1l-.4-.3a5.6,5.6,0,0,1-.5-.8,21.7,21.7,0,0,1-1-3.3c-.1-.5-.2-.9-.2-1h0c0-.1.1.1.1,0s.1.1.1.1h.2c-.1,0,.4-.1.3,0s.3-.2.2-.2l.2-.2c-.1.1,0-.1,0-.1h0"/><path class="cls-6" d="M99.5,117.5a.8.8,0,1,1,.2,1.6h.2l.2-.2c0,.1.1-.5.1-.3s-.1-.4,0-.3V118H100l.4.2,1,.3c1,.2,1.9-.2,3.6,0a.8.8,0,0,1,.8.9,1,1,0,0,1-.9.7c-1.4-.2-2.4.3-3.8,0l-1.3-.4a1.6,1.6,0,0,1-.9-.5l-.3-.4a1.7,1.7,0,0,1,.1-.7c.1-.2.3-.3.4-.4h.4"/><path class="cls-6" d="M98.4,119.3a.8.8,0,0,1,.2-1.1.8.8,0,0,1,1.2.2,12.3,12.3,0,0,1,.8,2.9,2.3,2.3,0,0,0,.5,1.2c0,.2.1.2.1.2h-.1a.8.8,0,0,1,1,.6.8.8,0,0,1-.6,1,1.5,1.5,0,0,1-1.1-.2c-.3-.1-.5-.4-.7-.6a8.7,8.7,0,0,1-.7-1.7l-.6-2.5"/><path class="cls-6" d="M104.9,120.1c-.1.4-.5.8-.9.7a.7.7,0,0,1-.7-.9v-.2h0c0-.1.1.3,0,.2l.2.2c-.1-.1.5.2.3.2h.6c0,.1.2-.1.2-.1h.1a4.9,4.9,0,0,1-.4.9c-.7,1.8-1.7,3.8-2,4.6a.8.8,0,0,1-1,.5.8.8,0,0,1-.5-1.1c.3-.9,1.3-2.9,2-4.6a11.7,11.7,0,0,1,.5-1.1l.2-.3a1,1,0,0,1,.7-.2c.4.1.6.3.6.5a1.2,1.2,0,0,1,.1.8"/><path class="cls-6" d="M100.7,124.7a.9.9,0,1,1,.1-1.7h-.3l-.4.2c.2-.1-.1.2-.1.2h-.1v-.2a2.5,2.5,0,0,0,.1-.8c0-.3.1-.6.1-.8a1.6,1.6,0,0,1,.2-.9l1.5.6c-.1.1,0-.2,0-.2a3.5,3.5,0,0,1,.1.7v.4h0s-.1-.2,0-.1v-.2h-.2l-.4-.2c.2,0-.5.1-.4,0s-.3.2-.2.2h-.1a1.3,1.3,0,0,1,.1-.6c.1-.2.1-.4.2-.5v-.2h1.6a1.1,1.1,0,0,1,0,.6.8.8,0,0,1-1,.6.9.9,0,0,1-.6-1.1c.1-.1,0,.5,0,.4v.3c0-.1.1.1,0,.1h0l-.3-.4h.1l-.4-.3a1.5,1.5,0,0,1-.3-.7.6.6,0,0,1,0-.6l.5-.5a1.2,1.2,0,0,1,1,0l.9.6a.8.8,0,0,1,.1,1.1.8.8,0,0,1-1.1.2l-.5-.3h0s.2-.1.1,0h.4c-.1,0,.2-.3.1-.3s.1-.4.1-.3h-.1c.1,0,.2,0,.4.3v.2c.1,0,.1,0,.1.1h.1c.1,0,.4.2.2.7l-1.6-.5V121a.7.7,0,0,1,.9-.7.7.7,0,0,1,.7.8c0,.5-.1.4-.1.5s-.1.2-.1.3a.7.7,0,0,0-.1.5.6.6,0,0,0-.1.4c-.1.1-.1.4-.6.6a1.2,1.2,0,0,1-1-.3.8.8,0,0,1-.1-.4v-.2a.9.9,0,0,1-.1-.5v-.4c0-.2-.2-.2.1-.7a.7.7,0,0,1,1-.4.8.8,0,0,1,.5,1c-.1.1,0-.1,0-.1a3.2,3.2,0,0,1-.1.7c0,.2-.1.4-.1.6v.8a.4.4,0,0,1-.1.3v.2h0c0,.1-.1.1-.1.2a.7.7,0,0,1-.7.4m-1.1-4.8a.8.8,0,1,1,1.6-.4v.2h0v1.4a6.9,6.9,0,0,0,.2,1.3v.7a.8.8,0,0,1,.1.4h-.1c.1,0-.1-.2-.1-.2H101a.8.8,0,0,1,.5,1,.9.9,0,0,1-1.1.5c-.3-.1-.4-.3-.4-.4v-.4c-.1-.1-.1-.2-.1-.4a1.7,1.7,0,0,0-.1-.7c0-.4-.1-.9-.1-1.4a2.4,2.4,0,0,1,0-1.2v-.3h0m1.6,0a.8.8,0,0,1-1.6-.4v-.2a.9.9,0,0,1,1.1-.4.8.8,0,0,1,.4,1.1c0,.1.1-.2.1-.1"/><path class="cls-6" d="M99.8,197.8a.8.8,0,0,1,.9.7.8.8,0,0,1-.7,1h.2l.3-.2c-.1.1.1-.7.1-.5s-.1-.5-.1-.4h.2c1,.2,2.9-.4,4.9,0a.8.8,0,1,1-.3,1.6c-1.5-.3-3.2.4-4.9,0l-.9-.3h-.2a.9.9,0,0,1-.3-.6.9.9,0,0,1,.4-.8l.4-.2"/><path class="cls-6" d="M99.1,199.3a.8.8,0,0,1-.8-.8.8.8,0,0,1,.9-.8.8.8,0,0,1,.7.4.4.4,0,0,1,.1.3l.3.6c.2.6.5,1.2.7,1.9a11.4,11.4,0,0,0,.9,1.6q.1.3.3.3h-.1a.8.8,0,0,1,.9.6.9.9,0,0,1-.6,1,2.4,2.4,0,0,1-1.2-.3,2.7,2.7,0,0,1-.7-.8,8.5,8.5,0,0,1-1-1.9c-.3-.7-.5-1.3-.7-1.9l-.2-.5h0s.2.2.2.1h.3"/><path class="cls-6" d="M105.4,200a.9.9,0,0,1-.9.8c-.4-.1-.8-.5-.7-.9h0s.1.2,0,.1.2.2.1.2.4.3.3.2h.8l.2-.2h0a1.7,1.7,0,0,1-.3.7,14,14,0,0,1-2.4,4.2.8.8,0,0,1-1.2.1.9.9,0,0,1,0-1.2,13.9,13.9,0,0,0,2.1-3.7,2,2,0,0,1,.4-.8v-.2c0-.1,0-.4.6-.4a.7.7,0,0,1,.8.4v.6"/><path class="cls-6" d="M100.5,199.9a.8.8,0,0,1,1.1-.3.8.8,0,0,1,.2,1.2v-.2h.1c-.1,0,0-.1,0-.1h0v1.8h0s-.2-.3-.1-.2l-.4-.2h-.7a.4.4,0,0,0,.1-.3c.1-.1.1-.3.1-.6v-.4h.3c-.2,0,.5.2.3.2h.7c0,.1-.2-.4-.1-.4h0l-.2.2c0-.1-.1,0-.1,0v-.2c0-.1,0-.2.2-.4a.7.7,0,0,1,.9-.3.7.7,0,0,1,.5.8c.1.2,0,.2,0,.3a4.4,4.4,0,0,1-.5.9.7.7,0,0,1-1.1.2.8.8,0,0,1-.3-1.1c.3-.3.3-.5.3-.5h0v.5h.1l.5.2h.3l.2-.2c0,.1.2-.1.1-.1s.2-.1.1-.1h.1a1,1,0,0,0-.1.4,1.3,1.3,0,0,1-.6.7c-.5.2-.7.1-.7.1h-.7l-.4-.2a.7.7,0,0,1-.4-.6,1.1,1.1,0,0,1,.1-.8l.2-.4.3-.2h.8c.3.2.3.4.4.5s.1.2.1.3.1.5.1.8a5,5,0,0,1-.2,1.2l-.3.7q-.2,0-.3.3h-.8c-.4-.1-.6-.3-.6-.5a.4.4,0,0,1-.1-.3,1.3,1.3,0,0,1-.1-.6v-1.7s-.1.1.1-.3h.1m1.5.5a.9.9,0,0,1-.8.9.8.8,0,0,1-.8-.8h.1a.7.7,0,0,1,.2-1.1.8.8,0,0,1,1.1.1c.4.5.2.4.2.4v.2"/><path class="cls-6" d="M125.5,117.9c0,.3-.2.4-.5.3s-.3-.2-.3-.4.1-.2.1-.3h0c0-.1.1.1,0,.1h.6c-.1.1.1,0,.1,0s0-.1,0-.1h0c-.2.4-.3.9-.6,1.6l-.6,1.8-.3.7-.2.2c0,.1,0,.1-.1.2s-.3.1-.5,0-.2-.4-.1-.6.3-.2.5-.1h-.4a1.6,1.6,0,0,0,.3-.6c.2-.5.4-1.2.7-1.8l.5-1.6a.3.3,0,0,0,.1-.2h.2c.1-.1.5,0,.5.2s.1.2.1.2a.6.6,0,0,1-.1.4"/><path class="cls-6" d="M122.4,116.7c.2.1.4.3.3.5s-.3.4-.5.3h-.4l-.2-.2c-.1,0-.1-.1-.2-.2s.1-.3.1-.4l.2-.2h.3l2.1-.3,3-.3h1.3a1.3,1.3,0,0,1,.8.8c.1.2,0,.5-.2.5s-.5,0-.5-.2-.2-.2-.4-.3h-1a23.3,23.3,0,0,1-3,.3l-1.9.3h-.1s.1-.1,0-.1.1-.2.1-.1v-.2c0,.1-.1-.2,0-.1h.2"/><path class="cls-6" d="M120.9,122.7c.2.1.4.3.3.5s-.3.4-.5.3h-.2a.8.8,0,0,1-.2-.5c.1-.2.3-.2.4-.3h.6a17.4,17.4,0,0,1,4.6-.1.7.7,0,0,1,.4.5.5.5,0,0,1-.5.4,15.4,15.4,0,0,0-4.3,0H121v-.2h0v-.2h-.2"/><path class="cls-6" d="M130.6,121.8a.4.4,0,0,1,.5.2c.1.2.1.4-.1.5h0l-.2.3c0,.3-.1.7-.1,1.1s-.1.8-.1,1.1v.8a.6.6,0,0,1-.1.4l-.2.2h-.5l-.2-.3c0-.1-.1-.1-.1-.2v-1.5a7.1,7.1,0,0,1,.2-2.5c.1-.4.4-.6.8-.8l.7-.3h.8a.7.7,0,0,1,.5.4v.4a1.4,1.4,0,0,1-.1,1.1,3.5,3.5,0,0,1-.7.9.7.7,0,0,0-.1.6,2.1,2.1,0,0,0,.3.7,3.1,3.1,0,0,0,1.6,1.1.4.4,0,0,1,.2.5.3.3,0,0,1-.5.3,3.7,3.7,0,0,1-1.9-1.4,1.6,1.6,0,0,1-.5-1.1,1.4,1.4,0,0,1,.3-1.2l.5-.7.2-.6c-.1-.1-.1-.2-.2-.2s.1,0,0-.1h-.9a.8.8,0,0,0-.4.4,13.5,13.5,0,0,0-.1,2.2v1.4h-.5v-.7a4.1,4.1,0,0,1,.1-1.1c0-.5.1-.9.1-1.3s.1-.3.2-.5l.4-.4"/><path class="cls-6" d="M134.6,127.4a.4.4,0,0,1-.5-.7l.7-.7a.7.7,0,0,1,.5-.4c.2-.2.4-.1.6,0s.3.1.4.3a1.5,1.5,0,0,1,.1,1.3,3.3,3.3,0,0,1-.5,1.2c-.1.2-.4.2-.6.1s-.2-.4-.1-.6a1.9,1.9,0,0,0,.4-.9,2.1,2.1,0,0,0,.1-.6h-.1l-.2.2a3.2,3.2,0,0,1-.8.9"/><path class="cls-6" d="M142.1,121.7c-.2.1-.4-.1-.4-.3s.1-.4.3-.5l1.6-.3a2.4,2.4,0,0,1,1.8.4.4.4,0,0,1,.2.5.5.5,0,0,1-.6.2c-1-.5-1.6-.2-2.9,0"/><path class="cls-6" d="M142.7,123c.1.2,0,.4-.2.6s-.4,0-.5-.2a.5.5,0,0,1-.2-.4c0-.2.2-.5.3-.5a1.2,1.2,0,0,1,.8-.2,5.4,5.4,0,0,0,1.8,0,.4.4,0,0,1,.5.3c.1.2,0,.4-.3.5a6.9,6.9,0,0,1-2,.1c-.2-.1-.3-.1-.4,0h.2"/><path class="cls-6" d="M149.2,118.9a.3.3,0,0,1-.3-.5c0-.2.2-.3.4-.3h2.1a1,1,0,0,1,.4.5,1.7,1.7,0,0,1,.1.7.8.8,0,0,1-.5.5l-.4.3a3.5,3.5,0,0,0-1.7,2v.2l.3.2a2.8,2.8,0,0,0,1.8-.4c.2-.1.4-.1.5.1s.1.5-.1.6a3.2,3.2,0,0,1-2.4.5c-.3-.1-.6-.2-.7-.5a1,1,0,0,1-.2-.9,4.7,4.7,0,0,1,2-2.5l.5-.3a.1.1,0,0,0,.1-.1h-1.9"/><path class="cls-6" d="M153.7,120.3a.5.5,0,0,1,.6.1.3.3,0,0,1-.1.5,4.8,4.8,0,0,0-.9,1.3.4.4,0,0,0-.1.3.1.1,0,0,0,0,.2h.4a4,4,0,0,0,1.2-.7,8.1,8.1,0,0,0,1.2-1.4,1.9,1.9,0,0,0,.4-1c.1-.1.1-.1,0-.2h-.7a4.2,4.2,0,0,0-1.4.3.6.6,0,0,1-.6-.1.5.5,0,0,1,.2-.6,3.6,3.6,0,0,1,1.9-.4l1,.2a1,1,0,0,1,.4,1,2.4,2.4,0,0,1-.5,1.3,10.7,10.7,0,0,1-1.4,1.6,3.2,3.2,0,0,1-1.7.9H153a1,1,0,0,1-.5-.4.7.7,0,0,1-.2-.6,6.4,6.4,0,0,1,.2-.7,7,7,0,0,1,1.2-1.5"/><path class="cls-6" d="M160.1,121.1a.3.3,0,0,1,.5-.3.4.4,0,0,1,.2.5c-.1.4-.3,1-.4,1.6s-.1.5-.1.6a.7.7,0,0,1-.1.5h0s-.1-.2,0-.1h-.3l.3-.2.5-.6.3-.5.3-.4.2-.3h.6c.2.1.2.2.2.3h.1v.4c0,.2-.1.4-.1.6s0,.3.1.4h-.2l.3-.2a7.5,7.5,0,0,1,1.5-.9h.7a1.2,1.2,0,0,1,.5.5,2.7,2.7,0,0,1,.4,1.7c0,.2-.2.4-.4.3a.4.4,0,0,1-.4-.4c0-.6-.1-1-.3-1.1a.3.3,0,0,0-.1-.2h-.1l-1.3.9-.4.2h-.7a.5.5,0,0,1-.3-.5,1.3,1.3,0,0,1-.1-.6,1.5,1.5,0,0,1,.1-.7v-.2h0s.2.1.1.1h.4c-.1,0-.1.1-.2.2l-.2.3a1,1,0,0,1-.4.5,2.4,2.4,0,0,1-.6.9l-.4.2-.2.2h-.2l-.3-.2c-.1-.1-.2-.2-.2-.3v-.2c0-.2.1-.3.1-.4s.1-.5.1-.8a6,6,0,0,1,.5-1.6"/><path class="cls-6" d="M168.7,124.4a.4.4,0,0,1-.2.5c-.2.2-.4.1-.5-.1s-.1-.3-.1-.4.1,0,.1-.1v-.2l.4-.9,1.1-2.4a27.3,27.3,0,0,1,1.3-2.5l.5-.7a.6.6,0,0,1,.5-.2l.3.2c.1,0,.1.1.1.2a1.9,1.9,0,0,1-.1,1.3c-.1.7-.2,1.6-.3,2.5a8.7,8.7,0,0,0,0,2.3v.3h-.7c.1,0-.1.1,0,.1h-.1v-.4a.4.4,0,1,1,.8,0v.6s.1,0-.1.2-.3.2-.4.1-.3-.1-.3-.2V124a21.8,21.8,0,0,1,.1-2.4,20.2,20.2,0,0,1,.3-2.7,3.9,3.9,0,0,0,.1-.9h.1c-.1,0,0,.1,0,.1s.2,0,.1,0h.3l-.4.5-1.2,2.4a27.2,27.2,0,0,0-1.2,2.5l-.4.8v.2h-.1"/><path class="cls-6" d="M169.8,122.1c-.3,0-.4-.2-.4-.5a.3.3,0,0,1,.5-.3l3,.3a.4.4,0,0,1,.4.4.5.5,0,0,1-.5.4l-3-.3m1.4-.1a.6.6,0,0,1-.3.6c-.2,0-.5-.1-.5-.3h-.7a.5.5,0,0,1-.3-.5c.1-.3.3-.4.5-.3h.5l.4.2c.1.1.3.2.4.4"/><path class="cls-6" d="M124.6,196.5c0-.2.1-.5.3-.5s.5.1.5.3a2.5,2.5,0,0,1-.2,1.2l-.6,1.4c-.3.6-.5,1.3-.7,1.6v.2a.4.4,0,0,1-.4.2c-.3-.1-.3-.3-.4-.4v-.2a8.9,8.9,0,0,1,.2-1.1.4.4,0,0,1,.4-.4.5.5,0,0,1,.4.5,4.1,4.1,0,0,1-.2,1h0c.1,0,0-.1,0-.1s-.1-.1-.1-.1h-.2c.1.1-.2.1-.2.1h-.1c.1,0,0,.1,0,.1h0l.6-1.6.8-2.1"/><path class="cls-6" d="M121.7,196a.4.4,0,0,1-.3-.6c0-.2.3-.3.5-.2h.2l.3.2h1.1a18,18,0,0,0,3.9-.8,4.7,4.7,0,0,1,1.6-.2l.7.4a2.2,2.2,0,0,1,.1.8.4.4,0,0,1-.4.4.4.4,0,0,1-.4-.4v-.3h-.2l-1.2.2a16.5,16.5,0,0,1-4.1.9,5,5,0,0,1-1.3-.3h-.5m1.6-.2a.5.5,0,0,1-.3.6c-.2.1-.4,0-.5-.3s.1.1,0,.1l-.3-.2h-.1a.5.5,0,0,1-.6.1c-.2-.2-.2-.5,0-.6s.2-.2.3-.2h.7l.4.3c.1.1.3.1.4.3"/><path class="cls-6" d="M120.9,201.6c-.2,0-.3-.3-.3-.5a.5.5,0,0,1,.6-.2h.1a30.3,30.3,0,0,0,5.6-1,.4.4,0,0,1,.5.2.6.6,0,0,1-.3.6l-3.2.7-2.6.3h-.4m.5-.7c.2,0,.4.2.3.4a.4.4,0,0,1-.4.4h-.2a.5.5,0,0,1-.5-.4.7.7,0,0,1,.4-.5h.4"/><path class="cls-6" d="M132.1,200.4a.4.4,0,0,1-.4.4.5.5,0,0,1-.5-.4h-.6a1.5,1.5,0,0,0-.8.8.4.4,0,0,0-.1.3h-.1s-.1-.1,0-.1h.4l.5-.4.4-.2h.5c.2.2.2.4.3.6s-.1.4-.1.6l-.3,1.4a9.8,9.8,0,0,1-.6,2.8,1.4,1.4,0,0,1-1,.6,1.4,1.4,0,0,1-1.1-.3,1.4,1.4,0,0,1-.6-1.1,2.6,2.6,0,0,1,.7-1.4h.6a.6.6,0,0,1,0,.6c-.4.3-.5.6-.4.8s0,.3.2.4.3.2.5.2l.4-.2a15.2,15.2,0,0,0,.5-2.5l.3-1.4v-.4h.2c-.1,0-.4.4-.8.5h-.5a.5.5,0,0,1-.6-.1.5.5,0,0,1-.2-.4v-.3a1.4,1.4,0,0,1,.2-.6,2.3,2.3,0,0,1,1.2-1.2h1.1l.4.2a.9.9,0,0,1,.3.6"/><path class="cls-6" d="M134.9,200a.5.5,0,0,1,.6.2.4.4,0,0,1-.2.5,3.5,3.5,0,0,0-1.2,1.9v.2h.1l.8-.5a.3.3,0,0,1,.5,0,.4.4,0,0,1,0,.6l-.9.6a.6.6,0,0,1-.7.2.7.7,0,0,1-.6-.4c-.1-.2,0-.4,0-.7a3.5,3.5,0,0,1,1.6-2.4"/><path class="cls-6" d="M135.6,200.3a.4.4,0,1,1-.5.7h.2c-.1,0,.1-.1.1-.1h.1a.4.4,0,0,1,.2.5.4.4,0,0,1-.5.3,1,1,0,0,1-.5-.4,1.3,1.3,0,0,1-.1-.6l.3-.4h.7"/><path class="cls-6" d="M138.8,200.1a.4.4,0,0,1,0,.8c-.4,0-1-.2-1.2-.1s.1-.1.1,0-.1.1,0,.3a7.9,7.9,0,0,0,.3,1.3,1.9,1.9,0,0,1,0,1.3,1,1,0,0,1-.6.5l-.8-.2a.5.5,0,0,1-.2-.6c0-.2.3-.3.5-.2h.4c.1,0,0,.1,0,.1a3.2,3.2,0,0,0-.1-.8,7,7,0,0,1-.3-1.4,1,1,0,0,1,.5-1.2,2.8,2.8,0,0,1,1.4.1"/><path class="cls-6" d="M143,197.7c-.2-.2-.3-.4-.2-.6a.5.5,0,0,1,.6-.2h2.4a.9.9,0,0,1,.7.1.4.4,0,0,1,.2.5.5.5,0,0,1-.6.2H143"/><path class="cls-6" d="M143.5,199.6c-.2-.1-.4-.2-.4-.5a.4.4,0,0,1,.4-.4,2.2,2.2,0,0,0,1.4-.1.5.5,0,0,1,.5.3.4.4,0,0,1-.2.5,5.2,5.2,0,0,1-1.7.2"/><path class="cls-6" d="M150.6,199.1c0-.2.3-.3.5-.2a.4.4,0,0,1,.2.5h0v-.2c.1.1,0-.1,0-.1h-.6l.3-.4,1.1-1.4,1.3-1.4a1.3,1.3,0,0,1,.7-.5.2.2,0,0,1,.3,0h.2c.2.1.2.2.2.4a1.1,1.1,0,0,1,.1.8,8.6,8.6,0,0,1-.3,1.7,1.4,1.4,0,0,0-.2.6v.2s-.1-.1,0-.1a.4.4,0,0,1-.3.6.4.4,0,0,1-.5-.2,1.8,1.8,0,0,1,.2-1.4,8.9,8.9,0,0,0,.3-1.4V196h.2l-.3.3-1.2,1.3-1.1,1.4-.4.4h-.7a.8.8,0,0,1-.1-.4h.1"/><path class="cls-6" d="M159,194.7a.4.4,0,0,1-.7.5h.3s.2-.1.1-.1h.1a3.5,3.5,0,0,0-.1.6,18.6,18.6,0,0,1,.5,3,2.7,2.7,0,0,1-.2,1.3,1.2,1.2,0,0,1-.7.7h-.6l-.3-.3c-.2-.1-.3-.4-.4-.6a1.4,1.4,0,0,1,0-.9,2.1,2.1,0,0,1,.3-.7l1.4-1.3,1.3-1c.2-.2.4-.3.4-.5a.9.9,0,0,0,.3-.5h-.6c-.5.1-.9.3-1,.6a.5.5,0,0,1-.6.1.4.4,0,0,1-.2-.5,2.1,2.1,0,0,1,1.6-1h1.2c.2.1.3.2.3.4s0,.8-.3,1.2l-.5.6-1.4,1.1-1.2,1.1-.3.5v.3l.3.4h0l.2-.3a3,3,0,0,0,.2-1c0-1-.4-2-.5-3a1.9,1.9,0,0,1,.1-.8.3.3,0,0,1,.1-.2l.4-.2h.3l.2.2"/><path class="cls-6" d="M162.2,197.3c.1-.2.4-.2.6-.1s.2.4.1.5a3.7,3.7,0,0,0-.5,1.1c0,.3,0,.5.1.6a.9.9,0,0,0,.8.1c.4,0,1-.6,1.4-1.3a2,2,0,0,0,.4-.8,4.3,4.3,0,0,1,.1-.5h0a.1.1,0,0,0-.1-.1h-.4a1.5,1.5,0,0,0-1,.4c-.2.2-.5.2-.6,0s-.2-.4,0-.6a2.5,2.5,0,0,1,1.5-.6h.7c.2.1.5.2.6.5s.1.8,0,1.2l-.5,1.1a3.2,3.2,0,0,1-2,1.6,1.6,1.6,0,0,1-1.5-.3,1.7,1.7,0,0,1-.3-1.4,3.1,3.1,0,0,1,.6-1.3"/><path class="cls-6" d="M168.4,198.2a.4.4,0,0,1,.5.2.4.4,0,0,1-.3.5h0c0,.1-.1.2-.1.4v.7h.1l.7-.6.6-.7.6-.5h.4a1,1,0,0,1,.5.4c.1.2,0,.4,0,.6v.3c.1,0-.1-.1,0-.1h.2l1.1-.4a.8.8,0,0,1,1.2.4c.1.2.1.4.2.6v1.2a.5.5,0,0,1-.5.4.4.4,0,0,1-.4-.4,2,2,0,0,0,0-1.1v-.4H173a2.6,2.6,0,0,0-1,.4h-.8l-.4-.2a2,2,0,0,1-.1-.7v-.3h.1c-.1-.1.1,0,.1,0h.1l-.4.4-.6.7-.8.7-.5.2a.5.5,0,0,1-.6-.1.8.8,0,0,1-.4-.7,1.6,1.6,0,0,1,0-.7,1.3,1.3,0,0,1,.1-.6c.1-.2.3-.5.6-.5"/><path class="cls-6" d="M179.2,197.8c-.3,0-.5-.1-.5-.3s.1-.4.3-.5h.3l.4.2,2,.2a.4.4,0,0,1,.4.4.5.5,0,0,1-.4.5l-2.2-.3-.5-.2h.2m1.8,2.1a.5.5,0,0,1-.1.6.3.3,0,0,1-.5-.1c-.1-.1-.1-.1-.1-.2s-.1-.1-.1-.3a8.4,8.4,0,0,0-.4-1.2c0-.3-.2-.4-.4-.6l-.5-.3h0l-.2-.2a.5.5,0,0,1,.2-.6.4.4,0,0,1,.5.2c.1.1,0-.1,0-.1h-.1l.7.4.6.8a11.3,11.3,0,0,1,.4,1.5c0,.1,0,.2.1.2H181m.7-6.6c-.1-.2,0-.5.2-.5a.5.5,0,0,1,.6.2h0c0,.2-.1.4-.1.6a1.4,1.4,0,0,0-.2.7c-.2.7-.5,1.6-.7,2.5a20.7,20.7,0,0,0-.4,2.2v1.1a.3.3,0,0,1-.1.2c-.1.2-.4.2-.6.1a.6.6,0,0,1-.1-.6c.1,0,0,.2,0,.1h0v-1a22.3,22.3,0,0,1,.4-2.3c.2-.9.5-1.8.7-2.5s.1-.6.2-.8v-.2h0m-4.8,7.8a.4.4,0,0,1,.6-.6h-.3l.5-.7,1.4-2.4,1.4-2.4,1-1.6.2-.3h.1c.2-.1.5-.1.6.1a.5.5,0,0,1-.1.6h.1l-.2.3-.9,1.6-1.5,2.4a27.5,27.5,0,0,1-1.5,2.5l-.5.7-.3.2a.5.5,0,0,1-.6,0"/><path class="cls-7" d="M114.2,78.6a.4.4,0,0,1,.7.3,17.1,17.1,0,0,0-.1,2.6v2.8a.3.3,0,0,1-.1.2l-.4.2-.3-.2-.3-.5a8.8,8.8,0,0,1-.2-3.4,5.4,5.4,0,0,1,.6-2.9,1.8,1.8,0,0,1,.7-.5.4.4,0,0,1,.5.1c.2,0,.3.2.4.3a3.6,3.6,0,0,1,.4.9,4.2,4.2,0,0,1-.5,2.8v.5l.4.5a4.6,4.6,0,0,0,1.4.7.5.5,0,0,1,.3.5.7.7,0,0,1-.6.3,7,7,0,0,1-1.7-.9,2.2,2.2,0,0,1-.5-.8,1.4,1.4,0,0,1,0-1.1,4.7,4.7,0,0,0,.4-2.3l-.3-.6v-.2h.1l-.2.3a5.1,5.1,0,0,0-.5,2.4,8.7,8.7,0,0,0,.2,3.1v.2h-.2c.1.1-.2.1-.1.1s-.2.1-.2,0-.1.2-.1.2h0V81.5a9,9,0,0,1,.2-2.9"/><path class="cls-7" d="M119.9,85.9a.5.5,0,0,1-.6.2.5.5,0,0,1-.1-.6l.7-1.2.5-.6h.8a.9.9,0,0,1,.4.6,7.2,7.2,0,0,1-.3,2.7.4.4,0,0,1-.4.4.4.4,0,0,1-.4-.4,12.1,12.1,0,0,0,.3-2.5h.2l-.4.4a4.1,4.1,0,0,0-.7,1.1"/><path class="cls-7" d="M115.7,150.6a.4.4,0,1,1,.8,0,17,17,0,0,0-.1,2.4v4.2a.4.4,0,0,1-.4.4.5.5,0,0,1-.5-.4v-1.9a18.9,18.9,0,0,1,.1-4.1,6.6,6.6,0,0,1,.5-1.5l.6-.4a.9.9,0,0,1,.7-.1.7.7,0,0,1,.5.4c.2.2.2.4.3.6v1.4a10.3,10.3,0,0,1-.5,1.6,1.2,1.2,0,0,0,.2,1,4.7,4.7,0,0,0,1.2.7c.2.2.3.4.2.6s-.4.3-.6.2a5.7,5.7,0,0,1-1.3-1,1.7,1.7,0,0,1-.5-1.7,8.8,8.8,0,0,0,.5-1.5v-1.1l-.2-.4H117l-.2.2a3.4,3.4,0,0,0-.4,1.2,24.7,24.7,0,0,0-.1,3.9c0,.5.1.9.1,1.2v.7a.4.4,0,0,1-.4.4.5.5,0,0,1-.5-.4V153c.1-1,.1-1.8.2-2.4"/><path class="cls-7" d="M121.2,156c-.1.2-.4.2-.6,0a.6.6,0,0,1,0-.6c.3-.2.3-.1.5-.1h1.2a1,1,0,0,1,.7,1.2,8.5,8.5,0,0,1-.9,1.4l-.3.4h0l.5.2a3.7,3.7,0,0,0,1.5.3c.3,0,.4.2.4.5s-.2.4-.4.3a5.2,5.2,0,0,1-1.8-.3l-.8-.5a.9.9,0,0,1-.2-.9l.4-.6.8-1.1v-.2c-.1,0,0,.1,0,.1h-1c-.1,0,.1-.1,0-.1"/><path class="cls-7" d="M116.7,236.2a.5.5,0,0,1-.6.2.4.4,0,0,1-.2-.5h0a9.6,9.6,0,0,0-.2-1.2,16.2,16.2,0,0,1-.2-3.1,8.5,8.5,0,0,1,0-1.6,3.4,3.4,0,0,1,.4-1.2,1.5,1.5,0,0,1,1.5-.5.7.7,0,0,1,.5.4.6.6,0,0,0,.1.4c0,.3-.1.6-.1.9l-.6,1.7-.2.6a1.9,1.9,0,0,0,.7,1.2l1.6,1.1c.2.1.3.3.1.5s-.3.3-.5.1a8.2,8.2,0,0,1-1.7-1.1,2.1,2.1,0,0,1-1-1.9,1.9,1.9,0,0,1,.3-.8c.1-.5.4-1.1.5-1.5v-.9h.1c-.1,0-.5,0-.6.2l-.3.8a7.4,7.4,0,0,0,0,1.5,28.3,28.3,0,0,0,.2,3,7.4,7.4,0,0,1,.2,1.2v.2h0m-1.1-6.7a.5.5,0,0,1,.5-.4.3.3,0,0,1,.3.5c0,.5-.1,2.1,0,3.6s.1,1.2.1,1.7a3.4,3.4,0,0,1,.1.9h0a.3.3,0,0,1-.1.5.3.3,0,0,1-.5,0h-.1a.4.4,0,0,1-.1-.3,3.4,3.4,0,0,0-.1-.9,14.1,14.1,0,0,0-.2-1.8,35.6,35.6,0,0,1,.1-3.7"/><path class="cls-7" d="M122.2,233.2a.4.4,0,0,1,.2-.5.5.5,0,0,1,.6.2,6.5,6.5,0,0,1,0,2.4,1.5,1.5,0,0,0,.1.6h.2l.6-.2a.3.3,0,0,1,.5.3.4.4,0,0,1-.2.5l-.9.2-.7-.2c-.4-.3-.4-.8-.4-1.3s.1-1.8,0-2.1"/><path class="cls-7" d="M125.8,233.3a.7.7,0,0,1,.1-.6.6.6,0,0,1,.6.1,1.3,1.3,0,0,1,.1,1.2,8.3,8.3,0,0,1-.4,1.5,23.2,23.2,0,0,0-.5,3,.4.4,0,0,1-.4.4c-.3,0-.4-.2-.4-.5a27.5,27.5,0,0,1,.5-3.1l.4-1.4v-.5h0"/><path class="cls-7" d="M50.4,125.4a.3.3,0,0,1-.5.3c-.2,0-.3-.2-.3-.4a6.3,6.3,0,0,1-.1-1.1,19.3,19.3,0,0,1-.1-2.5,4.9,4.9,0,0,1,1.3-3.7,1.3,1.3,0,0,1,.8-.3,1.1,1.1,0,0,1,.8.3,2.7,2.7,0,0,1,.3,2,5.9,5.9,0,0,1-.6,1.6,1.1,1.1,0,0,1-.2.4h0l.3.3.6.6c.5.7.4,1.3,1,1.9s.2.5,0,.6-.4.2-.6,0a2.5,2.5,0,0,1-.7-1.2c-.2-.3-.2-.6-.4-.7a1.5,1.5,0,0,0-.5-.6l-.4-.4a.8.8,0,0,1-.1-.7c.1-.3.2-.4.2-.5a6.7,6.7,0,0,0,.6-1.5c0-.6,0-1.1-.2-1.2h-.4a5.1,5.1,0,0,0-1,3.1c0,.9.1,1.8.1,2.5a2.5,2.5,0,0,1,.1,1.2m-1-6.6a.5.5,0,0,1,.5-.4.4.4,0,0,1,.4.4c-.1.7,0,2.2,0,3.6s.1,1.3.1,1.8v1h0a.4.4,0,0,1-.7.3h-.1a4.3,4.3,0,0,1-.1-.5c0-.2.1-.4,0-.6v-1.8c0-1.4-.1-2.9-.1-3.6"/><path class="cls-7" d="M56.4,123.5c-.2.2-.4.1-.6,0s-.1-.5.1-.6a1.9,1.9,0,0,1,.9-.4,1.5,1.5,0,0,1,.9.2.6.6,0,0,1,.3.6v.5a3,3,0,0,1-.5,1c-.1,0-.1.2-.1.4l.2.2.6.9.2.4a.6.6,0,0,1-.1.4c-.1.2-.4.3-.6.4l-1.5.2a.4.4,0,0,1-.4-.4c0-.3.2-.4.4-.5h1.4c0-.1-.1,0,0,0h-.1a4.7,4.7,0,0,0-.6-.9.6.6,0,0,1-.2-.5,1.1,1.1,0,0,1,.1-1.1l.4-.6v-.3h-.3l-.5.2"/><path class="cls-7" d="M68.1,63.6a.4.4,0,0,1-.2-.5c0-.2.3-.3.5-.3l1.1.2h2c.1,0,.2,0,.3.2s.2.4,0,.6a.5.5,0,0,1-.6-.1h.3a.1.1,0,0,1-.1.1H71l-1.5.3H67.7a.4.4,0,0,1-.4-.2.4.4,0,0,1-.1-.3c0-.1.1-.2.1-.3h.3a3.1,3.1,0,0,1,2.1.2.5.5,0,0,1,.2.6.4.4,0,0,1-.5.2,3.3,3.3,0,0,0-1.6-.2H68v-.2c0,.1-.1-.1,0-.1s-.1-.1-.1-.1h1.5l1.4-.3h.7c.1,0,.2,0,.3.2l-.6.5H69.5a3.2,3.2,0,0,1-1.4-.2"/><path class="cls-7" d="M67.6,64.3c-.1-.2.1-.4.3-.5a.5.5,0,0,1,.5.3c.2.7.4,1.3.7,2.1s.2,1.1.3,1.4h-.1l.4-.3h.6a.5.5,0,0,1,0,.6c-.4.3-.6.5-1,.5l-.5-.2-.2-.3a9.9,9.9,0,0,1-.3-1.5c-.2-.7-.5-1.3-.7-2.1"/><path class="cls-7" d="M72.1,64.5a.4.4,0,0,1-.5.2c-.2,0-.3-.3-.2-.5h0l.2-.2a.1.1,0,0,1,.2,0c.3,0,.4.2.4.3v.2c-.1.1-.1.2-.2.4a7.7,7.7,0,0,1-.6,1.5c-.2.6-.5,1.2-.7,1.7l-.3.6a.9.9,0,0,1-.4.5.7.7,0,0,1-.6-.3.5.5,0,0,1,.3-.5h0a1.6,1.6,0,0,0,.3-.6l.7-1.6a11.6,11.6,0,0,1,.6-1.5.4.4,0,0,1,.1-.3h0s.1.2,0,.2h.3c-.1-.1.2,0,.1,0h.1c0,.1.2,0,.1,0h.1"/><path class="cls-7" d="M69.4,66.3c0,.2-.3.3-.5.2s-.3-.3-.2-.5h0a.4.4,0,0,1,.1-.3c0-.2.1-.4.1-.6l-.2-.5h.2c-.1-.1.2,0,.2,0h.2c-.1,0,.1-.2.1-.2h0v-.2c0,.1-.1-.1-.1,0s0-.1,0-.1h1.1l.6.2h.3c.1,0,.2.2.2.3s-.1.5-.2.7l-.3.4-.2.3h-.1c.1.2.1.4-.1.5a.4.4,0,0,1-.6-.1.6.6,0,0,1-.1-.4v-.3a1,1,0,0,1,.4-.5c.1-.2.2-.3.2-.4h.2c-.1,0,0,.1,0,0h-.4c-.4-.1-.9.1-1.5-.1l-.2-.2c0-.1-.1-.1-.1-.3s0-.2.2-.3h.4l.2.2a1.3,1.3,0,0,1,.3,1c0,.2-.1.5-.1.8a.4.4,0,0,0-.1.3h-.1m.9.9c.1.3-.1.5-.4.5a.4.4,0,0,1-.4-.4V65.7h-.1a.1.1,0,0,0-.1-.1h.1a.1.1,0,0,1-.1.1h-.1c.2.1.3.4.2.5a.5.5,0,0,1-.6.2,1.3,1.3,0,0,1-.3-.5,1.3,1.3,0,0,1,.1-.6c0-.1.1-.2.2-.3l.2-.2h.4l.5.2a.9.9,0,0,1,.4.6,1.6,1.6,0,0,1,0,.7,2.6,2.6,0,0,1,0,.9m.2-2.3a.5.5,0,0,1,.1.9h.3c0,.1-.1.1-.1.2a1.4,1.4,0,0,0-.2.6,1.1,1.1,0,0,0-.2.6v.2h-.1a.4.4,0,0,1-.4.4.7.7,0,0,1-.4-.5h0a1,1,0,0,0,.1-.3,1.9,1.9,0,0,1,.2-.7,1.4,1.4,0,0,0,.2-.6.3.3,0,0,0,.1-.2h.1l.3-.2m-1,.1a.4.4,0,0,1,.6,0c.2.1.2.4,0,.6s-.2.3-.4.6h0s-.1-.1,0-.1-.3,0-.2-.1h-.1V66l.4-.5.2-.3a.1.1,0,0,0,.1-.1h.4a.5.5,0,0,1-.1.9h.2l-.2.3-.3.5a.7.7,0,0,1-.6.4c-.1.1-.3,0-.4-.1s-.2-.1-.3-.3a1.3,1.3,0,0,1,.1-.6,1.9,1.9,0,0,1,.5-.9m.9-.8a.6.6,0,0,1,.1.6c-.1.2-.3.2-.5.1h-.1l-.3.2h0c0,.1-.1-.1-.1,0s0-.1,0-.1a.1.1,0,0,0,.1.1h1c.1,0-.2.2-.1.1v.4h0c0-.1.1.1,0,.1s.1,0,.1,0h0l-.7.2-.6.3h-.1v-.2c0,.1-.1-.2-.1-.1s-.2-.1-.1-.1h0l.4-.2a.3.3,0,0,0,.1-.2h0c.1-.2.3-.4.5-.3s.4.2.3.4v.2l-.2.2a.7.7,0,0,1-.3.3l-.5.3h-.5l-.3-.2a.6.6,0,0,1-.1-.4v-.2l.3-.3.8-.5a2,2,0,0,1,1.1-.2H71c0,.1.1.1.1.2a.4.4,0,0,1,.1.3l-.3.3H69.3a.5.5,0,0,1-.4-.3.3.3,0,0,1,0-.4c0-.2.1-.3.2-.5l.6-.2a.8.8,0,0,1,.7,0"/><path class="cls-6" d="M43.4,58.5c.1-.2.3-.2.5-.1a.4.4,0,0,1,.1.6l-1.5,3.8-.6,1.7h0s-.1-.2-.1-.1h-.6c0-.2.2-.4.3-.9a.5.5,0,0,1,.6-.2.4.4,0,0,1,.2.6,5.6,5.6,0,0,1-.4.8h0a.3.3,0,0,1-.1.2c-.1,0-.3.1-.5,0a.4.4,0,0,1-.2-.3v-.3l.6-1.7,1-2.4a8.9,8.9,0,0,1,.7-1.6"/><path class="cls-6" d="M39.4,59.4a.4.4,0,1,1,.3-.7c.1,0,0-.1,0-.1h0c0,.1.1.1.2.1H41a26.2,26.2,0,0,0,4.1-1.2l1.9-.3a1.2,1.2,0,0,1,.8.2.8.8,0,0,1,.4.7.4.4,0,0,1-.4.4c-.2.1-.4-.1-.4-.3a.1.1,0,0,0-.1-.1c0-.1-.1-.1-.3-.1l-1.6.3a40.1,40.1,0,0,1-4.3,1.2H39.6a.1.1,0,0,1-.1-.1s0,.1-.1,0m1-.8a.4.4,0,0,1,.4.4.5.5,0,0,1-.4.5h-.7c-.3.1-.5,0-.5-.3s.1-.4.3-.5h.9"/><path class="cls-6" d="M39.4,66.1c-.2.1-.5,0-.5-.2a.4.4,0,0,1,.2-.6h.5a52.7,52.7,0,0,1,6-1.2.4.4,0,0,1,.4.4c0,.3-.1.4-.4.5A40,40,0,0,0,39.8,66h-.4m.1-.8c.2-.1.4.1.5.3a.5.5,0,0,1-.4.5h-.3c-.2.1-.4-.1-.4-.3a.3.3,0,0,1,.3-.5h.3"/><path class="cls-6" d="M48.7,67.8a.4.4,0,0,1,.3.5c0,.2-.2.3-.5.3s-.2-.2-.2-.2h-.1v-.2c-.1-.2-.1-.4-.2-.6a7.7,7.7,0,0,1,.2-3.7,1.8,1.8,0,0,1,.5-.7.9.9,0,0,1,.7-.3,1.7,1.7,0,0,1,1.3.8,1.1,1.1,0,0,1,.2,1.1c0,.5-.5.9-.7,1.1a1.4,1.4,0,0,0-.2.6l.2.5a3.7,3.7,0,0,0,1.7,1.2.7.7,0,0,1,.3.6.5.5,0,0,1-.6.2,4.6,4.6,0,0,1-2-1.5,1.3,1.3,0,0,1-.4-1,1.5,1.5,0,0,1,.4-1.1c.2-.3.5-.6.5-.8s0-.3,0-.4a1.8,1.8,0,0,0-.6-.5h-.3l-.2.4a6.9,6.9,0,0,0-.2,3.2c.1.1.1.3.2.5h-.2m.6-3.5c.2,0,.5.1.5.3s-.1.5-.4.5h.2a1,1,0,0,0-.1.3l-.3,1.1a1.9,1.9,0,0,0-.1.8,4.3,4.3,0,0,1,.1.5c0,.1-.1.3-.1.4a.3.3,0,0,1-.3.3c-.2.1-.4.1-.5-.1s-.1-.5.1-.6-.1.1-.1.1h0v-.6a3.4,3.4,0,0,1,.1-.9l.3-1.2a.8.8,0,0,1,.2-.4.3.3,0,0,1,.1-.2l.3-.2"/><path class="cls-6" d="M54.1,67.5c.1.2-.1.4-.3.4s-.5-.1-.5-.3.1-.7.3-.8a1.1,1.1,0,0,1,.8-.3h.8c.1.1.3.2.3.3l.2.3c.1.2.1.4.2.6a2.1,2.1,0,0,1,0,.8l-.4.4-.3.2-.3.2h0a.8.8,0,0,0,.1.4l.6,1.1a4.3,4.3,0,0,1,.1.5,1.5,1.5,0,0,1-.2.9c-.4.5-.8.4-1.2.4s-.8.2-.9.4-.4.2-.6.1a.5.5,0,0,1-.1-.6,2.3,2.3,0,0,1,1.5-.7h.7v-.3c0-.1-.1-.2-.1-.3a11.7,11.7,0,0,1-.5-1.1,1.4,1.4,0,0,1-.2-.6.9.9,0,0,1,.1-.7l.6-.4.3-.2h0v-.4a.6.6,0,0,1-.1-.4h-.9"/><path class="cls-7" d="M.8,108.1a.4.4,0,0,1-.3.5.5.5,0,0,1-.5-.3,1.9,1.9,0,0,1,.4-1.5l.5-.8a8,8,0,0,1,1.3-1.3l.2-.2H3a.7.7,0,0,1,.3.5,1.3,1.3,0,0,1,.1.6,7.3,7.3,0,0,1-.7,1.9,28.6,28.6,0,0,0-.8,3.1v.6a.3.3,0,0,0,.1.2H2l.6-.4a17.7,17.7,0,0,0,2.6-3.5,14.6,14.6,0,0,0,.9-1.6l.3-.2.2-.2h.3c.2.1.2.2.2.3s.1.1.1.2a.4.4,0,0,1-.1.3c-.1.5-.3,1.1-.4,1.6s-.5,1.6-.7,2.1a.8.8,0,0,0,0,.7h.4a1.4,1.4,0,0,0,.9-.5.6.6,0,0,1,.6.1c.1.2.1.5-.1.6l-1.1.6a1.7,1.7,0,0,1-1,.1c-.3-.2-.5-.4-.5-.7a1.7,1.7,0,0,1,0-1c.2-.7.4-1.4.7-2.2a5.6,5.6,0,0,0,.4-1.5v-.2h.1s.2.1.2,0h.1l-.9,1.5a18,18,0,0,1-2.8,3.7l-.7.5a1.1,1.1,0,0,1-.8.1.8.8,0,0,1-.4-.4v-.4c-.1-.3,0-.5,0-.9a31.9,31.9,0,0,1,.9-3.1,13.2,13.2,0,0,0,.5-1.8c.1-.1,0-.2,0-.3h.1c0-.1.2,0,.2,0H2.7l-1.1,1.2-.5.7a1.9,1.9,0,0,0-.3.9"/><path class="cls-7" d="M11.3,109.9a.4.4,0,0,1,.4-.4.4.4,0,0,1,.4.4,23.2,23.2,0,0,1-.2,2.4c0,.7-.1,1.4-.1,1.9v.8c-.1.2-.1.4-.4.4s-.4-.1-.5-.2a.8.8,0,0,1-.2-.5,3.9,3.9,0,0,1-.2-1.9,5.1,5.1,0,0,1,.3-1.7l.3-.7a1.2,1.2,0,0,1,.5-.7.4.4,0,0,1,.5,0l.3.2c.2.1.3.4.4.6a2.2,2.2,0,0,1,0,1.4,2.4,2.4,0,0,1-.6,1l-.2.3V113h0l.2.2.7.4,1.4,1.4c.1.2.1.5-.1.6a.5.5,0,0,1-.6-.1,3.4,3.4,0,0,0-1.2-1.2l-.7-.5c-.1-.1-.2-.1-.3-.3a.8.8,0,0,1-.2-.6l.4-.5c.2-.3.4-.5.4-.7a3.4,3.4,0,0,0,.1-.9l-.2-.3H12l-.2.3-.2.6a9,9,0,0,0-.3,1.6,6.6,6.6,0,0,0,.1,1.5l.2.4h-.1s-.1-.1-.1,0-.2,0-.2-.1-.2.2-.1.1-.1.2-.1.1h0v-.7a12.1,12.1,0,0,1,.1-1.9,14.4,14.4,0,0,1,.2-2.4"/><path class="cls-7" d="M16.1,114.5a.5.5,0,0,1-.3.6.5.5,0,0,1-.5-.3c0-.2-.1-.3,0-.5a.6.6,0,0,1,.1-.4l.5-.2h.3c.5.2.7.8.9,1.3a1.1,1.1,0,0,1-.3.8l-.2.4h0v.2l.5.5c.1.1.3.2.4.4a1.1,1.1,0,0,1,.2.7c-.1.3-.1.5-.3.6s-.9.5-1.4.6l-.8.2a.4.4,0,0,1-.6,0c-.2-.1-.2-.4,0-.6s.9-.3,1.3-.4l.9-.3v-.2a.1.1,0,0,0-.1-.1q0-.1-.3-.3l-.5-.6c-.1-.1-.2-.2-.2-.3s-.2-.3-.1-.5a1.5,1.5,0,0,1,.4-.6c0-.2.1-.2.1-.3a1.9,1.9,0,0,0-.4-.6h.2"/><path class="cls-7" d="M29.5,45.3a.9.9,0,0,1,.8-.9.8.8,0,0,1,.8.9V187.8a.7.7,0,0,1-.8.8.8.8,0,0,1-.8-.8Z"/><path class="cls-7" d="M27.1,183.5a.8.8,0,0,1,1.1,0,.7.7,0,0,1,.1,1.1v-.2h0c.1.2.1.5.2.8a12.3,12.3,0,0,0,.6,2.2c.3,1.1.5,2.1.8,2.9s.2.7.3.7h-.7a11,11,0,0,0,.3-1.1,11.4,11.4,0,0,1,4.5-5.9.8.8,0,0,1,1.1.2.8.8,0,0,1-.1,1.1,9.7,9.7,0,0,0-3.9,5.1,5.2,5.2,0,0,1-.6,1.6,1.4,1.4,0,0,1-1.1.5,1.5,1.5,0,0,1-.9-.6l-.4-1-.9-3c-.2-.8-.5-1.7-.6-2.4a2.9,2.9,0,0,1-.2-.9v-.4a.8.8,0,0,1,.3-.7"/><path class="cls-7" d="M140.4,61.1a.7.7,0,0,1,.8-.8.8.8,0,0,1,.8.8v47.5a.8.8,0,0,1-.8.8.7.7,0,0,1-.8-.8Z"/><path class="cls-7" d="M140.4,135.2a.8.8,0,0,1,.8-.9.9.9,0,0,1,.8.9v46a.9.9,0,0,1-.8.9.8.8,0,0,1-.8-.9Z"/><path class="cls-7" d="M140.4,208.9a.7.7,0,0,1,.8-.8.8.8,0,0,1,.8.8v47.9a.8.8,0,0,1-.8.8.7.7,0,0,1-.8-.8Z"/><path class="cls-7" d="M139.4,251.9a.9.9,0,1,1-1.3,1.1h1l.2-.2v-.7h0l.5.8c.4.9.8,2,1.1,2.8l.4.7c0,.1,0,.2.1.2h-.8a1.4,1.4,0,0,1,.2-.6l2.3-4.5a.8.8,0,0,1,1.1-.4.8.8,0,0,1,.3,1.1c-1.1,2.5-1.8,3.7-2.2,4.5s-.1.4-.3.6l-.2.3a.8.8,0,0,1-.6.5,1.1,1.1,0,0,1-1-.3l-.3-.5-.5-1c-.4-.8-.7-1.9-1.1-2.6l-.4-.9c-.1,0-.1,0-.1-.1h-.1v-.2a1,1,0,0,1,.3-.8.9.9,0,0,1,.9,0l.3.2h.1"/><path class="cls-7" d="M137.9,175.8a.8.8,0,0,1,.8-.8.7.7,0,0,1,.8.8,21.7,21.7,0,0,0,.7,2.7l.4,1.2c.1.3.2.6.3.6h-.5c0-.2.1-.4.1-.6a19.2,19.2,0,0,1,2.3-4.5.8.8,0,0,1,1.2-.2.9.9,0,0,1,.2,1.1,14.5,14.5,0,0,0-2.1,4.1c-.1.1-.1.4-.2.6a1.4,1.4,0,0,1-.6.8,1.1,1.1,0,0,1-1.1.1,1.1,1.1,0,0,1-.7-.6c-.3-.3-.3-.7-.4-.9s-.3-.9-.5-1.3a14.3,14.3,0,0,1-.7-3.2"/><path class="cls-7" d="M138.2,104a.7.7,0,0,1,.9-.7.9.9,0,0,1,.8.8c-.1.3.3.9.7,1.7a8,8,0,0,1,.7,2l.2.7c.1.1.1.2.2.2h-.1c.1.1-.1-.1-.1,0h-.4c0-.1.4-1.1.7-2.3a8.8,8.8,0,0,1,1.4-3.6.8.8,0,0,1,1.1-.1.8.8,0,0,1,.2,1.1,10,10,0,0,0-1.1,3c-.3,1.3-.4,2.4-1.3,3.2a1.5,1.5,0,0,1-1.3.1,1.4,1.4,0,0,1-.7-.9,3.6,3.6,0,0,1-.4-.9,8.4,8.4,0,0,0-.5-1.7,5.1,5.1,0,0,1-1-2.6"/><path class="cls-6" d="M69,63.2a.8.8,0,0,1,.1,1.2.9.9,0,0,1-1.2.1,1.7,1.7,0,0,1-.3-1,1.5,1.5,0,0,1,.4-.6,2,2,0,0,1,.9-.5,3.5,3.5,0,0,1,2-.1c.6,0,1,0,1.2-.3a.9.9,0,0,1,1.2.2.8.8,0,0,1-.1,1.1,3.7,3.7,0,0,1-2.4.6,5.4,5.4,0,0,0-1.3,0l-.4.2s.1-.1,0-.1v-.5c0,.1-.2-.3-.2-.3"/><path class="cls-6" d="M68.8,63.3a.7.7,0,0,1,.1,1.1.8.8,0,0,1-1.2.1h.9l.3-.3c0,.1.2-.3.1-.2s.1-.2.1-.2h0v.3l.6,2.4a3.1,3.1,0,0,1,.2.8l.2.5h0s-.2-.3-.1-.2h-.2l-.3-.2c.1.1-.4.1-.3.1h-.3c.1-.1-.1.2-.1.1h0c0-.1,0-.1.1-.2a.8.8,0,0,1,1.1-.4.8.8,0,0,1,.3,1.1v.2c0,.1,0,.4-.5.5a1,1,0,0,1-1-.3c-.2-.2-.2-.3-.2-.4a.8.8,0,0,1-.1-.4,6.2,6.2,0,0,1-.3-1l-.6-2.3a.6.6,0,0,0-.1-.4.8.8,0,0,1,.1-.4.7.7,0,0,1,.7-.6.5.5,0,0,1,.6.2"/><path class="cls-6" d="M71.5,62.9a.9.9,0,0,1,1-.6.8.8,0,0,1,.6,1h0c0,.1,0,.1-.1.1a9.3,9.3,0,0,1-.5,1l-1.1,2.4a1.7,1.7,0,0,0-.3.7h0c0,.1-.1-.3-.1-.2s-.4-.4-.2-.3l-.4-.2h-.7a.9.9,0,0,1,1.2,0A.8.8,0,0,1,71,68l-.3.3h-.5a1.3,1.3,0,0,1-.7-.5c-.3-.6,0-.6,0-.8l.4-.9,1.2-2.4.5-1s-.1.1-.1,0h0m-.4,2.3a.8.8,0,0,1-.6-1,.8.8,0,0,1,1-.6l.5.4a.8.8,0,0,1,.1.4.9.9,0,0,1,.1.5c-.1.3-.1.6-.2,1a18.2,18.2,0,0,1-.8,1.9l-.3.7h-.1s0,.2-.5.3a.8.8,0,0,1-.8-.3c-.4-.5-.2-.6-.2-.6a.9.9,0,0,0,.1-.5,5.9,5.9,0,0,0,.5-1.3l.8-1.6.6-1.2a1.4,1.4,0,0,0,.2-.6h.1a.1.1,0,0,1,.1-.1.8.8,0,0,1,1.2-.1.9.9,0,0,1,0,1.2H73a.8.8,0,0,0-.2.5l-.6,1.2-.8,1.6L71,68c0,.2,0,.1-.1.2s0-.3.1-.2-.1-.2-.1-.1-.1-.3-.1-.2-.1-.2-.1-.2l-.4-.2c.2.1-.5,0-.4,0s-.3.2-.2.1l-.2.2c.1-.1,0,.1,0,.1a3.9,3.9,0,0,1,.2-.6,5.6,5.6,0,0,0,.7-1.6,2.3,2.3,0,0,0,.1-.7h0s.2.3.1.2.2.2.2.2h.3"/><path class="cls-6" d="M70.1,64.8a.8.8,0,0,1,.9-1.3.7.7,0,0,1,.4.6v.5a5.2,5.2,0,0,1-1.2,1.7.8.8,0,0,1-1.1,0,.9.9,0,0,1,0-1.2,8.1,8.1,0,0,0,.8-1.2h0v.2c-.1,0,.1.4,0,.3l.3.3m0,1.9a.8.8,0,0,1-1.1.2.8.8,0,0,1-.3-1.1h0l.7-1.2a4.3,4.3,0,0,1,.4-.7c0-.1.1-.1.1-.2s.1-.1.2-.2a1,1,0,0,1,.8,0,.7.7,0,0,1,.4,1,.7.7,0,0,1-1,.5h.2c-.1-.1.4-.1.3-.1H71c-.1.1.2-.1.1-.1h.1l-.3.6a8.8,8.8,0,0,0-.7,1.3h-.1m1-2.4a.8.8,0,0,1-1.4.8h.6c-.1,0,.3-.1.2,0h.3c-.1,0-.1.1-.2.4l-.3.6v.3h0a.9.9,0,0,1-1.1.5,1,1,0,0,1-.5-1.1h.1a.4.4,0,0,1,.1-.3l.3-.7.4-.8a1,1,0,0,1,.8-.3l.6.2.2.3"/><path class="cls-6" d="M67.7,64.2a.8.8,0,0,1-.8-.8.8.8,0,0,1,.9-.8h.9l1.7-.4a2.4,2.4,0,0,1,2,.2.8.8,0,0,1,.1,1.2.8.8,0,0,1-1.1.1h-.6l-1.9.4H67.7m-.4.4a1,1,0,0,1-.7-1,.9.9,0,0,1,1-.6h2.7s-.1.1-.1,0V63c0-.1-.2.4-.2.3s.1.5,0,.4.2.4.2.3h.2c0-.1,0-.1-.1-.1H67.9a.8.8,0,1,1-.3-1.6H70l.8.2c.1,0,.2,0,.2.1h.2l.2.2a1,1,0,0,1,0,.9c-.3.5-.5.4-.8.5H67.3m1.7-.5a.8.8,0,0,1-.8.8.7.7,0,0,1-.8-.7c0-.2.1.3.1.3h-.1a.9.9,0,0,1-.8-.8.8.8,0,0,1,.9-.8h.3l.6.2.3.2a1.5,1.5,0,0,1,.3.7"/><path class="cls-6" d="M66.8,63.4a.7.7,0,0,1,1.1-.2.8.8,0,0,1,.3,1.1c-.1.1.1-.3.1-.2h0v.2a9.5,9.5,0,0,0,.3,1.9.6.6,0,0,0,.2.5c0,.1,0,.1.2.1a.7.7,0,0,1,.7.8.7.7,0,0,1-.8.8,1.6,1.6,0,0,1-1.3-.6,2.4,2.4,0,0,1-.6-1.1,9.6,9.6,0,0,1-.3-2.2V64c0-.1-.2-.2.1-.6"/><path class="cls-6" d="M68,63a.8.8,0,0,1-.4,1.1.7.7,0,0,1-1-.4c-.1,0,.1.1,0,.1h.1c0-.1.3.2.2.1h.8c-.2.1.3-.4.2-.3s.1-.3.1-.2v-.2h.1a3.1,3.1,0,0,0,.2.8c.3,1,.9,2,1.2,3.2a12.8,12.8,0,0,1,.2,1.7.8.8,0,0,1,.1.4.4.4,0,0,1,.1.3h-.6a.8.8,0,0,1,1.1.1.9.9,0,0,1,0,1.2l-.7.4a1.7,1.7,0,0,1-1-.3,1.1,1.1,0,0,1-.4-.9c-.1-.2-.1-.4-.2-.6s-.1-1.2-.2-1.7-.7-1.8-1.1-2.9a2.6,2.6,0,0,1-.3-1c-.1-.2-.2-.1-.1-.6l.2-.4a.9.9,0,0,1,1.1-.1l.2.2a.3.3,0,0,1,.1.2"/><path class="cls-6" d="M70.8,69.5a.8.8,0,1,1-1.6.3,5.7,5.7,0,0,1,1.4-4.3.8.8,0,0,1,1.1-.1.7.7,0,0,1,.2,1.1,3.9,3.9,0,0,0-1.1,3"/><path class="cls-7" d="M151.7,80a.3.3,0,0,1,0,.5.4.4,0,0,1-.6,0,.5.5,0,0,1-.2-.4.3.3,0,0,1,0-.4,1.3,1.3,0,0,1,.4-.6,3.4,3.4,0,0,1,.6-.6.7.7,0,0,1,.6-.2l.4.2c0,.1.1.3.1.4a1.5,1.5,0,0,1-.4.9l-.6.9a14,14,0,0,0-1.1,2.7v.4c-.1.1-.1,0-.1,0h.1c0,.1.1.1.2.1a7.3,7.3,0,0,0,1.9-1.4l1.7-2.1.3-.2a.3.3,0,0,1,.4,0q.3.1.3.3v.3c0,.5-.3.8-.4,1.2a3.5,3.5,0,0,0-.4,2c.1.2.1.3.3.3a2.3,2.3,0,0,0,1.3-.2.5.5,0,0,1,.5.3.4.4,0,0,1-.2.5,3.7,3.7,0,0,1-1.7.2,1.4,1.4,0,0,1-1-.8,3.5,3.5,0,0,1,.4-2.6,3.4,3.4,0,0,0,.4-1h0c0-.1.1.1.1,0s.1.2.1.1.2.1.1.1h.1c-.3.3-.9,1.2-1.7,2s-1.5,1.6-2.4,1.7h-.6a.7.7,0,0,1-.5-.4c-.2-.3,0-.7,0-1a11.2,11.2,0,0,1,1.2-2.9l.9-1.4h.2l-.5.6c-.2.1-.2.2-.2.3h0"/><path class="cls-7" d="M160,84c0-.2.2-.3.5-.3a.5.5,0,0,1,.3.5l-.5,1.9a2.8,2.8,0,0,0-.1.9,1.5,1.5,0,0,0-.1.6c0,.1,0,.1-.1.2s0,.2-.3.3h-.5v-.3a5.3,5.3,0,0,1,0-1.8,5.1,5.1,0,0,1,.7-2.7l.6-.5a1.1,1.1,0,0,1,.8.1,1.6,1.6,0,0,1,.9,1.2,1.9,1.9,0,0,1,.2.7,1,1,0,0,1-.4.8l-.4.4a.5.5,0,0,0-.2.4l.2.5a7,7,0,0,0,1.5,1.5c.1.2.2.5,0,.6s-.4.2-.6.1a6.5,6.5,0,0,1-1.6-1.8,1.6,1.6,0,0,1-.3-.9,1,1,0,0,1,.4-.9l.4-.5.2-.2a4.3,4.3,0,0,1-.1-.5l-.5-.7h-.2a.2.2,0,0,0-.2.2,4.2,4.2,0,0,0-.6,2.3,4.2,4.2,0,0,0,0,1.6h-.1c0,.1-.1-.1-.1,0h-.3c.1,0-.2.1-.1.1s-.1.1-.1,0h0v-.6c.1-.3.1-.6.2-.9s.4-1.7.5-2"/><path class="cls-7" d="M165.4,89.1c0,.2-.2.4-.4.3a.4.4,0,0,1-.4-.4,1.7,1.7,0,0,1,.6-1.1,1.3,1.3,0,0,1,.6-.5,1.1,1.1,0,0,1,.8-.1c.2.1.3.3.4.4s.1.3.1.5-.1.7-.1,1.1a3.1,3.1,0,0,0-.1.9v.4h0a.4.4,0,0,1,0,.6h-.6a1.6,1.6,0,0,1-.2-1,3.4,3.4,0,0,1,.1-1V88h0l-.4.3-.4.7"/><path class="cls-7" d="M151.8,155a.4.4,0,0,1,.2.5.5.5,0,0,1-.6.2,1,1,0,0,1-.4-.5,1.3,1.3,0,0,1,.1-.6l.7-.8.8-.5.6-.3a.9.9,0,0,1,.9-.1.5.5,0,0,1,.3.4v.3a1.4,1.4,0,0,1-.2.6,11.1,11.1,0,0,1-.7,1.6l-.7,1.8c0,.2-.1.4,0,.5s-.1,0,0,.1h-.1a4.9,4.9,0,0,0,.9-1l1.6-1.8a1.8,1.8,0,0,1,.7-.5l.4.2c.2,0,.2.1.3.2a1.3,1.3,0,0,1,.1.6,23.5,23.5,0,0,1-.1,2.7c0,.3.1.6.2.6h.5c.2-.1.5,0,.5.2s0,.5-.2.5l-.8.2a.7.7,0,0,1-.6-.3,1.4,1.4,0,0,1-.4-1.2,24.4,24.4,0,0,0,.1-2.6.4.4,0,0,0-.1-.3h.2l-.3.2-1.4,1.7c-.4.5-.7,1.1-1.3,1.3h-.7a.9.9,0,0,1-.3-.6,1.7,1.7,0,0,1,0-1c.2-.6.5-1.2.8-1.9a14.7,14.7,0,0,0,.6-1.4c.1-.3.2-.4.2-.6h.2l-.4.2-.4.2-.7.4c-.2.2-.4.4-.4.6h-.1"/><path class="cls-7" d="M161.3,158.2c0-.2.2-.4.4-.3a.4.4,0,0,1,.4.4c-.1.5-.3,1-.4,1.7l-.3,1.7c0,.3-.1.6-.1.8v.9h0c0,.3-.1.5-.4.5s-.4-.1-.4-.3a4.8,4.8,0,0,1,0-1.2,27.3,27.3,0,0,1,.5-4l.5-1a1.4,1.4,0,0,1,1.2-.4,1.3,1.3,0,0,1,.7.6,2.9,2.9,0,0,1,.2.9c.1.9-.5,1.6-.7,2.2a1,1,0,0,0,.1.9,3.8,3.8,0,0,0,1.1,1.1.5.5,0,0,1,.1.6c-.1.2-.4.2-.6.1a5.7,5.7,0,0,1-1.3-1.4,1.8,1.8,0,0,1-.2-1.6,5.6,5.6,0,0,0,.7-1.9c-.1-.2-.1-.4-.2-.5v-.2h-.4l-.3.7a23.2,23.2,0,0,0-.5,3.8v1l-.8.2c-.1-.2,0-.1,0-.2v-.9c0-.3.1-.6.1-.9l.3-1.8a12.3,12.3,0,0,1,.4-1.6"/><path class="cls-7" d="M167.2,162.7a.4.4,0,0,1-.4-.4c0-.3.1-.4.4-.5a1.1,1.1,0,0,1,.8.3,1.2,1.2,0,0,1,.5.7,1.9,1.9,0,0,1,0,1.3,1.1,1.1,0,0,1-.6.7v.4h1.9a.5.5,0,0,1,.4.5c-.1.2-.3.4-.5.3h-2l-.3-.2-.3-.4c0-.3.1-.5.1-.7l.4-.5.3-.4a1.7,1.7,0,0,0,.1-.7l-.3-.3h-.3"/><path class="cls-7" d="M151.8,227.9a.4.4,0,0,1-.4.4.5.5,0,0,1-.5-.4,2.8,2.8,0,0,1,1.2-2l.6-.4h.6c.3.1.4.4.5.6a1.5,1.5,0,0,1,.1.7,14.3,14.3,0,0,1-.7,3.2,4.9,4.9,0,0,0-.3,1.5v.2h-.1a8.5,8.5,0,0,0,1.4-1.6l1-1.2a.9.9,0,0,1,.6-.6c.2-.1.4.1.5.2h.1v.4a1.7,1.7,0,0,1,.1.7c0,.7,0,1.3.2,1.5h.2a1.9,1.9,0,0,0,1-.4.5.5,0,0,1,.6.2.4.4,0,0,1-.2.5,2.7,2.7,0,0,1-1.3.5,1,1,0,0,1-1-.4,2.8,2.8,0,0,1-.3-2c0-.2-.1-.4-.1-.6v-.2h.1c-.1,0,.2.1.1.1h.3c-.1,0,0-.1,0-.1l-.3.4a6.2,6.2,0,0,0-.9,1.2c-.6.7-1,1.6-1.8,1.8a.7.7,0,0,1-.8-.2.9.9,0,0,1-.3-.7,5.5,5.5,0,0,1,.3-1.7,17.4,17.4,0,0,0,.7-3,.7.7,0,0,0-.1-.5h0l-.3.2a2.9,2.9,0,0,0-.9,1.4"/><path class="cls-7" d="M160.8,235.6a.4.4,0,1,1-.7.3,3.7,3.7,0,0,1-.1-1.5,28.5,28.5,0,0,1,.3-2.9,5,5,0,0,1,.2-1.2,1,1,0,0,1,.6-.5c.2,0,.5,0,.6.2a.7.7,0,0,1,.4.7,5.9,5.9,0,0,1,.4.8,2.5,2.5,0,0,1,.1,1.2c-.1.6-.7.9-.8,1v.2l.2.5a3.8,3.8,0,0,0,1.7.8c.2,0,.3.2.3.4a.5.5,0,0,1-.5.4,4.2,4.2,0,0,1-2.1-1.1,2,2,0,0,1-.4-.8,1,1,0,0,1,.2-.9l.6-.7c.1-.2,0-.4-.1-.7a4.1,4.1,0,0,0-.3-.8.4.4,0,0,1-.1-.3h0a2.5,2.5,0,0,0-.2,1,26.4,26.4,0,0,0-.2,2.8,10.5,10.5,0,0,1-.1,1.2m-.4-3.6c0-.2.1-.4.3-.4a.3.3,0,0,1,.5.3,6.8,6.8,0,0,1-.2,2,3.4,3.4,0,0,0-.1,1v.8h0a.5.5,0,0,1-.5.3c-.3-.1-.4-.3-.3-.5h0v-.8a3.8,3.8,0,0,1,.1-1,16.2,16.2,0,0,0,.2-1.8"/><path class="cls-7" d="M166.9,233.4c.2-.1.4-.2.6,0a.3.3,0,0,1,.1.5,9.7,9.7,0,0,0-.6,1.7,3.1,3.1,0,0,0-.2.8h-.1l.4-.2a1.7,1.7,0,0,0,.6-.6h.6a.4.4,0,0,1,0,.6,2.7,2.7,0,0,1-.8.7c-.3.2-.5.4-.9.3a.9.9,0,0,1-.5-.3,1.3,1.3,0,0,1-.1-.6,2.9,2.9,0,0,1,.2-.9c.1-.4.3-.8.4-1.1a9.4,9.4,0,0,1,.3-.9"/><path class="cls-7" d="M169,234.8c0-.2.2-.4.4-.3a.4.4,0,0,1,.4.4c-.1.6-.5,1.5-.8,2.5a8.8,8.8,0,0,0-.7,2.5c0,.3-.1.5-.4.5a.4.4,0,0,1-.4-.4,7.1,7.1,0,0,1,.7-2.9,22,22,0,0,0,.8-2.3"/><path d="M236.5,145.3c-.1.2-.3.4-.5.3s-.4-.3-.3-.5a2,2,0,0,1,.4-.8l.7-.9.4-.3h.4c.1.1.3.2.3.4v.2a6,6,0,0,1-.6,1.1,11,11,0,0,0-1.5,4.4,1.1,1.1,0,0,0-.1.5h0c0,.1-.1,0-.1,0h.1l.6-.3a15.8,15.8,0,0,0,1.4-1.7l1.2-1.6.7-.7c.1-.1.1-.2.2-.2h.6c.2.2.2.3.2.4v.2c0,.1-.1.2-.1.4l-.3.9a6.8,6.8,0,0,0-.6,2.9c0,.2,0,.3.1.4h.1a2.6,2.6,0,0,0,1.3-.5.4.4,0,0,1,.6.1.5.5,0,0,1-.1.6,3.4,3.4,0,0,1-1.9.6,1.2,1.2,0,0,1-.7-.5,1.4,1.4,0,0,1-.2-.6,6.8,6.8,0,0,1,.6-3.4l.3-.9a.4.4,0,0,0,.1-.3h.1c-.1,0,.1.1.1.1h.3v.2a2.2,2.2,0,0,0-.6.7l-1.3,1.5a6,6,0,0,1-1.6,1.9,1.8,1.8,0,0,1-.9.4h-.4a.8.8,0,0,1-.4-.4c-.3-.4-.1-.7-.1-1.2a14.9,14.9,0,0,1,1.6-4.6l.6-.9h0c0-.1.1.2.1.1h.4l-.2.2-.7.8c-.1.1-.1.3-.2.5"/><path d="M246.5,146.4c-.1-.2-.1-.5.1-.6a.5.5,0,0,1,.6.1l1,.4,1-.2h.6a.4.4,0,0,1,0,.6,2.2,2.2,0,0,1-1.8.4,2.4,2.4,0,0,1-1.5-.7"/><path d="M247,148.3a.4.4,0,1,1-.3.7h-.1c-.1,0-.2,0-.2-.3s0-.3.1-.4h.6l1.1-.3a.4.4,0,0,1,.5.2.5.5,0,0,1-.2.6l-1.3.3H247v-.2h.1v-.2H247"/><path d="M256.5,147.9a.6.6,0,0,1,.6.1.5.5,0,0,1-.2.6h-.6c-.2-.1-.2-.2-.2-.3a1.1,1.1,0,0,1,.2-.6l1.1-1.4,1.2-1.1.8-.5.6.2.3.4c.2.8-.3,1.6-.5,2.3l-.3,1a3.5,3.5,0,0,1-.1.6v.2h0c0,.1-.1-.1-.1,0H259l.2-.2a.4.4,0,0,1,.5.1.4.4,0,0,1-.1.6l-.2.2h-.7a.8.8,0,0,1-.1-.4c-.1-.2,0-.3,0-.4s.1-.4.1-.6l.3-1.1.5-1.8h.1l-.5.3-1,1.1a5.7,5.7,0,0,0-1.1,1.2v.2h0V148h-.3"/><path d="M263.1,145.9a.5.5,0,0,1-.4-.5c.1-.2.2-.4.5-.4s.9-.2,1.5,0l.4.2.2.4c0,.2-.1.5-.1.7a6.5,6.5,0,0,1-.9,1.6,11.6,11.6,0,0,1-.9,1.4l-.2.3h2.1c.3,0,.5.1.5.3a.3.3,0,0,1-.3.5,4.7,4.7,0,0,1-1.7.1H263l-.4-.2a.5.5,0,0,1-.2-.4,1.2,1.2,0,0,1,.2-.7l1.1-1.5a8.8,8.8,0,0,0,.7-1.3,1,1,0,0,1,.1-.4h0c-.1,0,.1.1.1.1a9.2,9.2,0,0,0-1.5.1"/><path d="M267.7,150.5a.4.4,0,0,1,.7.5,18.1,18.1,0,0,0-1.1,3,.5.5,0,0,1-.6.2.4.4,0,0,1-.2-.5l.6-1.7a3.6,3.6,0,0,1,.6-1.5"/><path d="M273.4,145.1a.5.5,0,0,1,.6-.2c.2.2.3.4.1.6s.1,1.9.3,3.3.1.8.1,1.2a1.4,1.4,0,0,1-.3,1.1.7.7,0,0,1-.6.3H273a1.7,1.7,0,0,1-.7-1.1c0-.2-.2-.4-.1-.8s.3-.5.5-.7l.7-.3.6-.2a3.9,3.9,0,0,0,1.8-1.8c0-.1.1-.2,0-.3h0c-.1-.1-.3-.2-.8-.1s-.4-.1-.4-.3a.3.3,0,0,1,.3-.5,1.6,1.6,0,0,1,1.4.2,1.6,1.6,0,0,1,.4.7,2.5,2.5,0,0,1-.2.7,3.9,3.9,0,0,1-2.1,2.1l-.7.3-.6.2v.2h0a.8.8,0,0,0,.1.4,6.7,6.7,0,0,0,.3.7h.2a3.5,3.5,0,0,0,.1-.6,5.2,5.2,0,0,0-.2-1.1,12,12,0,0,0-.3-2,3.5,3.5,0,0,1,.2-1.8"/><path d="M280.7,144.5a.4.4,0,0,1,.5-.2.5.5,0,0,1,.3.5,14.4,14.4,0,0,0-.5,3.4v1.4a1,1,0,0,0,.1.4h.2l.6-.5,1.6-1.9,1.7-2.2a4.6,4.6,0,0,1,1.6-1.3.4.4,0,0,1,.6.2.7.7,0,0,1-.3.6c-.7.2-1.8,1.7-3,3.2l-1.6,2c-.3.2-.5.5-.8.6a.8.8,0,0,1-.8.2c-.3,0-.5-.3-.6-.5a1.3,1.3,0,0,1-.1-.6v-1.5a10.7,10.7,0,0,1,.5-3.7"/><path d="M97.2,240.5a.4.4,0,0,1,.4.4.4.4,0,0,1-.4.4h-.5c-.1-.1-.2-.4-.1-.5s.2-.2.3-.3h1.2l.7.2,1,.2h.1c.1,0,0,.1,0,.1h0l-.2-.5a3.9,3.9,0,0,1-.6-1.1.4.4,0,0,1,.3-.5.4.4,0,0,1,.5.2c0,.3.3.6.5,1l.3.6c0,.2.1.5-.1.7a.5.5,0,0,1-.4.3h-.5l-1.1-.3-.6-.2h-.7v-.2c0,.1-.1-.2-.1-.1h0"/><path d="M97.8,237.6a.4.4,0,0,1-.2-.5c.1-.3.3-.3.5-.2l2.8,1.3,1.4.4h.4c0-.2.2-.3.4-.3s.4.2.4.5-.2.5-.5.6a1,1,0,0,1-.7.2,4.1,4.1,0,0,1-1.7-.5,27.2,27.2,0,0,1-2.8-1.3"/><path d="M101.3,234.2a.5.5,0,0,1-.2-.6.4.4,0,0,1,.5-.2,6.7,6.7,0,0,0,1.8.7h1c.3,0,.5-.1.5-.2h.6a.4.4,0,0,1,0,.6,1.5,1.5,0,0,1-1.1.4h-1.2l-1.9-.7"/><path d="M98.2,230a.4.4,0,0,1,.4.4.4.4,0,0,1-.4.4h-.4l-.2-.3a.7.7,0,0,1-.1-.5,2.7,2.7,0,0,1,.3-1.2,1.4,1.4,0,0,1,1.3-.7,4,4,0,0,1,2.2,1.2l.8.7h.1c.1-.1.2-.1.2-.2h0v-.5c.1-1,.5-1.9.5-2.8s.1-.4.3-.4.5.1.5.4a21.8,21.8,0,0,1-.5,2.9c0,.3.2.7-.2,1a.7.7,0,0,1-.5.4h-.8a7,7,0,0,1-1-.8c-.6-.5-1.2-1-1.6-1a.6.6,0,0,0-.6.3,1.9,1.9,0,0,0-.2.8v.2h-.2"/><path d="M102.4,3.6a.4.4,0,0,1-.1.6.3.3,0,0,1-.5-.1s.1.1,0,.1h.2c0,.1-.2.3-.2.5a2.3,2.3,0,0,0-.1.7h.6l.3-.4V4.7a.5.5,0,0,0-.3-.5c0-.1,0-.1-.2-.1l-.5.3a2.3,2.3,0,0,0-.9,1.1,2.8,2.8,0,0,0-.1.9c0,.2.2.3.3.4h.2l.4-.2.7-.9a1.1,1.1,0,0,0,.1-.5c0-.1-.1-.3-.2-.3a.3.3,0,0,0-.4,0,1.2,1.2,0,0,0-.5.5.9.9,0,0,0-.1.5.9.9,0,0,0,.3.5h.3a1.9,1.9,0,0,0,.7-.6,4.1,4.1,0,0,0,.3-.8.5.5,0,0,0-.2-.4h0l-.3.2a1.6,1.6,0,0,0-.7.7l-.2.4a.4.4,0,0,0,.1.3h.4l.6-.7V5.1h0a.1.1,0,0,0-.2,0c-.2,0-.5.3-.6.6a.4.4,0,0,0-.1.3c.1,0-.1-.2,0-.1h.4l.4-.5V5.2h0a.3.3,0,0,0-.1.2l-.2.4a.7.7,0,0,1-.5.4c-.2-.1-.4-.3-.3-.5a1.1,1.1,0,0,1,.3-.8.8.8,0,0,1,.4-.4.6.6,0,0,1,.6-.1l.4.3a.8.8,0,0,1,.2.6c0,.3-.2.4-.2.6l-.7.7-.8.2h-.4a.8.8,0,0,1-.4-.4,2.8,2.8,0,0,1,.1-.9c.3-.4.6-.9,1.2-1a.8.8,0,0,1,.7,0l.3.2a.5.5,0,0,1,.2.4,1.2,1.2,0,0,1-.1.8A2,2,0,0,1,102,6.9h-.6a.7.7,0,0,1-.6-.2,1.3,1.3,0,0,1-.3-.8,1.9,1.9,0,0,1,.3-1,2.9,2.9,0,0,1,1-.9l.6-.3a1,1,0,0,1,.7.2,1.2,1.2,0,0,1,.4,1,1.7,1.7,0,0,1-.5,1.2,2,2,0,0,1-.9.9l-.6.3-.6-.2a2,2,0,0,1-.6-1.1,1.2,1.2,0,0,1,.2-1,2,2,0,0,1,.8-.8,1.3,1.3,0,0,1,1.2-.1,1.1,1.1,0,0,1,.6,1.1,2.4,2.4,0,0,1-.2.8,3.4,3.4,0,0,1-.9,1.2l-.6.4c-.3,0-.6.1-.8-.1a1.2,1.2,0,0,1-.8-1,3,3,0,0,1,.1-1.3,4.4,4.4,0,0,1,1.2-1.5l.9-.4a1.5,1.5,0,0,1,.9.2,2.4,2.4,0,0,1,.6,1.1,1.9,1.9,0,0,1-.2.8,1.6,1.6,0,0,1-.4.7,1.1,1.1,0,0,1-.8.3,1,1,0,0,1-.7-.2,1,1,0,0,1-.4-.5,1.7,1.7,0,0,1,0-1.2,2,2,0,0,1,.4-.8c.1-.1.2-.3.4-.3h.4l.2.2"/></g></g></g></svg>