<svg id="Ebene_1" data-name="Ebene 1" xmlns="http://www.w3.org/2000/svg" xmlns:xlink="http://www.w3.org/1999/xlink" viewBox="0 0 270.5 127.3"><defs><style>.cls-1{fill:none;}.cls-2{clip-path:url(#clip-path);}.cls-3{clip-path:url(#clip-path-3);}.cls-4{opacity:0;}.cls-5{clip-path:url(#clip-path-5);}.cls-6{clip-path:url(#clip-path-7);}.cls-7{clip-path:url(#clip-path-9);}.cls-8{clip-path:url(#clip-path-11);}.cls-9{clip-path:url(#clip-path-13);}.cls-10{clip-path:url(#clip-path-15);}.cls-11{clip-path:url(#clip-path-17);}.cls-12{clip-path:url(#clip-path-19);}.cls-13{clip-path:url(#clip-path-21);}.cls-14{clip-path:url(#clip-path-23);}.cls-15{clip-path:url(#clip-path-25);}.cls-16{clip-path:url(#clip-path-27);}.cls-17{clip-path:url(#clip-path-29);}.cls-18{clip-path:url(#clip-path-31);}.cls-19{clip-path:url(#clip-path-33);}.cls-20{clip-path:url(#clip-path-35);}.cls-21{clip-path:url(#clip-path-37);}.cls-22{clip-path:url(#clip-path-39);}.cls-23{clip-path:url(#clip-path-41);}.cls-24{clip-path:url(#clip-path-43);}.cls-25{fill:#ed3624;}.cls-26{fill:#1749b3;}</style><clipPath id="clip-path"><rect class="cls-1" width="270.5" height="127.33"/></clipPath><clipPath id="clip-path-3"><rect class="cls-1" x="104.6" y="1.7" width="22.8" height="30.46"/></clipPath><clipPath id="clip-path-5"><rect class="cls-1" x="179.3" y="13.2" width="8.9" height="22.45"/></clipPath><clipPath id="clip-path-7"><rect class="cls-1" x="18.2" y="28.9" width="54.2" height="22.45"/></clipPath><clipPath id="clip-path-9"><rect class="cls-1" x="86.3" y="38.1" width="8" height="20.84"/></clipPath><clipPath id="clip-path-11"><rect class="cls-1" x="105.2" y="28.3" width="29.2" height="27.26"/></clipPath><clipPath id="clip-path-13"><rect class="cls-1" x="149.3" y="31.5" width="7.6" height="19.24"/></clipPath><clipPath id="clip-path-15"><rect class="cls-1" x="157.7" y="32.2" width="20.3" height="20.84"/></clipPath><clipPath id="clip-path-17"><rect class="cls-1" x="183.7" y="31.4" width="35.6" height="20.84"/></clipPath><clipPath id="clip-path-19"><rect class="cls-1" x="267.7" y="37.1" width="4.9" height="27.26"/></clipPath><clipPath id="clip-path-21"><rect class="cls-1" x="54.1" y="51.1" width="27.6" height="27.26"/></clipPath><clipPath id="clip-path-23"><rect class="cls-1" x="113.7" y="54.9" width="37.4" height="30.46"/></clipPath><clipPath id="clip-path-25"><rect class="cls-1" x="181.5" y="53.9" width="14.6" height="36.88"/></clipPath><clipPath id="clip-path-27"><rect class="cls-1" x="235.6" y="52.8" width="12.1" height="30.46"/></clipPath><clipPath id="clip-path-29"><rect class="cls-1" x="246.8" y="70.6" width="4.6" height="25.65"/></clipPath><clipPath id="clip-path-31"><rect class="cls-1" x="106.7" y="71.3" width="71.7" height="43.29"/></clipPath><clipPath id="clip-path-33"><rect class="cls-1" x="250.8" y="91.7" width="22.2" height="28.86"/></clipPath><clipPath id="clip-path-35"><rect class="cls-1" x="122.6" y="109.3" width="7.5" height="19.24"/></clipPath><clipPath id="clip-path-37"><rect class="cls-1" x="145" y="106.7" width="33.6" height="19.24"/></clipPath><clipPath id="clip-path-39"><rect class="cls-1" x="121.8" y="121.4" width="7.4" height="19.24"/></clipPath><clipPath id="clip-path-41"><rect class="cls-1" x="144.8" y="118.1" width="31.4" height="20.84"/></clipPath><clipPath id="clip-path-43"><rect class="cls-1" width="270.5" height="127.33"/></clipPath></defs><g class="cls-2"><g class="cls-2"><g class="cls-3"><g class="cls-4"><g class="cls-3"><path d="M106.3,18.2V4.4h2V18.2Z"/><path d="M111.4,18.2V8.1h1.9V10a3.3,3.3,0,0,1,3.1-2.2h.6V9.6l-.8-.2c-1.2,0-2.1.7-2.9,2.1v6.7Z"/><path d="M126,17.8a11,11,0,0,1-3.2.6,4.6,4.6,0,0,1-3.6-1.5,5.1,5.1,0,0,1-1.4-3.8A5.8,5.8,0,0,1,119,9.3a3.9,3.9,0,0,1,3.2-1.5A3.6,3.6,0,0,1,125,9.1a5.8,5.8,0,0,1,1,3.7v.6h-6.4q.5,3.6,3.6,3.6a8.8,8.8,0,0,0,2.8-.6ZM119.7,12h4.5c0-1.9-.7-2.8-2.1-2.8S119.9,10.1,119.7,12Z"/></g></g></g><g class="cls-5"><g class="cls-4"><g class="cls-5"><path d="M184.6,25.3V22.4H180v-1l4.6-6.3h1.3v6.2h1.3v1.1h-1.3v2.9Zm-3.2-4h3.3V16.8Z"/></g></g></g><g class="cls-6"><g class="cls-4"><g class="cls-6"><path d="M21.2,34.6V41H19.8V34.6h-1v-1h1v-.9q0-2.7,2.4-2.7l1.6.3v1a4.4,4.4,0,0,0-1.5-.2,1.2,1.2,0,0,0-.9.3,2.9,2.9,0,0,0-.2,1.2v1H23v1Z"/><path d="M26.2,34.6V41H24.9V34.6H23.8v-1h1.1v-.9q0-2.7,2.4-2.7l1.6.3v1a4.4,4.4,0,0,0-1.5-.2,1.2,1.2,0,0,0-.9.3,1.7,1.7,0,0,0-.3,1.2v1h1.9v1Z"/><path d="M29.4,43.5l.2-1.2a4.6,4.6,0,0,0,2.3.6,2.1,2.1,0,0,0,2.3-2.4V39.3a2.7,2.7,0,0,1-2.5,1.6,2.7,2.7,0,0,1-2.1-1,4.2,4.2,0,0,1-.8-2.6,4.1,4.1,0,0,1,.9-2.8A3,3,0,0,1,32,33.4a3.2,3.2,0,0,1,2.2,1v-.8h1.3V39a9,9,0,0,1-.2,2.6,3,3,0,0,1-.6,1.4,3.9,3.9,0,0,1-2.8.9A6.9,6.9,0,0,1,29.4,43.5Zm4.8-5V35.4a3,3,0,0,0-2-1,1.6,1.6,0,0,0-1.4.8,3.2,3.2,0,0,0-.6,2c0,1.7.6,2.5,1.8,2.5A3.1,3.1,0,0,0,34.2,38.5Z"/><path d="M38,41V33.6h1.4V35a2.8,2.8,0,0,1,2.5-1.6,1.9,1.9,0,0,1,2,1.6,2.9,2.9,0,0,1,2.5-1.6A2.1,2.1,0,0,1,48,34a2.5,2.5,0,0,1,.5,1.6V41H47.1V35.8c0-.8-.3-1.2-1-1.2A3.3,3.3,0,0,0,43.9,36v5H42.6V35.8c0-.8-.4-1.2-1.1-1.2A2.8,2.8,0,0,0,39.4,36v5Z"/><path d="M52,41V36.8l-3.4-5.9h1.6l2.7,4.6,2.8-4.6h1.4l-3.7,5.9V41Z"/><path d="M56.9,41V39.3h1.7V41Z"/><path d="M61.1,32.2V30.9h1.4v1.3Zm0,8.8V33.6h1.4V41Z"/><path d="M65,41V33.6h1.4V35A3,3,0,0,1,69,33.4a2.1,2.1,0,0,1,1.6.6,2.9,2.9,0,0,1,.5,1.7V41H69.8V36.1a2.1,2.1,0,0,0-.3-1.2c-.1-.2-.4-.3-.8-.3a2.9,2.9,0,0,0-2.3,1.6V41Z"/></g></g></g><g class="cls-7"><g class="cls-4"><g class="cls-7"><path d="M90.2,49.5a3,3,0,0,1-2.3-.9,4,4,0,0,1-.9-2.7,3.6,3.6,0,0,1,.9-2.6,3.4,3.4,0,0,1,4.8,0,3.6,3.6,0,0,1,.9,2.6,4,4,0,0,1-.9,2.7A3.3,3.3,0,0,1,90.2,49.5Zm.1-.9c1.3,0,1.9-.9,1.9-2.7s-.6-2.7-1.9-2.7-2,.9-2,2.7S89,48.6,90.3,48.6Z"/></g></g></g><g class="cls-8"><g class="cls-4"><g class="cls-8"><path d="M106.8,43V30.7h6.9V32h-5.1v3.9h4.3v1.3h-4.3v4.5h5.5V43Z"/><path d="M115.7,43V33.9h1.6v1.7a3.8,3.8,0,0,1,3.1-1.9,2.6,2.6,0,0,1,2.5,1.9,3.6,3.6,0,0,1,3-1.9,2.9,2.9,0,0,1,1.9.7,3.2,3.2,0,0,1,.6,2V43h-1.6V36.7c0-1.1-.4-1.6-1.2-1.6a3.6,3.6,0,0,0-2.7,1.8V43h-1.7V36.7c0-1.1-.4-1.6-1.2-1.6s-1.7.6-2.7,1.8V43Z"/><path d="M131.2,32.3V30.7h1.6v1.6Zm0,10.7V33.9h1.6V43Z"/></g></g></g><g class="cls-9"><g class="cls-4"><g class="cls-9"><path d="M151.1,41.8V41h1.7V34.1l-1.7.4v-.9l2.9-.7V41h1.7v.8Z"/></g></g></g><g class="cls-10"><g class="cls-4"><g class="cls-10"><path d="M160.7,38.3a2.6,2.6,0,0,1-1.4-2.1,2.1,2.1,0,0,1,.8-1.7,2.7,2.7,0,0,1,2-.7,2.9,2.9,0,0,1,1.9.6,1.5,1.5,0,0,1,.7,1.4,3.1,3.1,0,0,1-1.7,2.5q2.1,1.1,2.1,2.7a2.3,2.3,0,0,1-.9,1.9,3.6,3.6,0,0,1-2.3.8,3.1,3.1,0,0,1-2.2-.7,2.3,2.3,0,0,1-.9-1.9A3.3,3.3,0,0,1,160.7,38.3Zm.7.5a3.7,3.7,0,0,0-1.1,1.1,1.5,1.5,0,0,0-.2,1,1.4,1.4,0,0,0,.5,1.3,1.6,1.6,0,0,0,1.4.5,2,2,0,0,0,1.3-.4,1.4,1.4,0,0,0,.5-1.1,1.2,1.2,0,0,0-.3-.9,2.9,2.9,0,0,0-1.3-.9Zm.9-.9c.8-.6,1.3-1.2,1.3-1.9a1.1,1.1,0,0,0-.5-.9,1.6,1.6,0,0,0-1.1-.4,1.4,1.4,0,0,0-1.1.4,1.1,1.1,0,0,0-.5.9,1.8,1.8,0,0,0,.4.9A7.6,7.6,0,0,0,162.3,37.9Z"/><path d="M167.1,43.5v-7h1.2v1.3a2.9,2.9,0,0,1,2.4-1.4,1.9,1.9,0,0,1,1.9,1.4,2.8,2.8,0,0,1,2.3-1.4,1.8,1.8,0,0,1,1.9,2v5.1h-1.2V38.6c0-.8-.3-1.2-1-1.2s-1.3.5-2,1.4v4.7h-1.3V38.6q0-1.2-.9-1.2c-.7,0-1.3.5-2.1,1.4v4.7Z"/></g></g></g><g class="cls-11"><g class="cls-4"><g class="cls-11"><path d="M185.7,42.6v-.9h1.9V34.2l-1.9.5v-1l3.1-.8v8.8h1.9v.9Z"/><path d="M192.8,44.6v-.4q.6-.2.6-1.5h-.6V41h1.6v1.4C194.4,43.8,193.9,44.5,192.8,44.6Z"/><path d="M196.8,42.6V41.5a3.9,3.9,0,0,0,1.8.4,1.7,1.7,0,0,0,1.4-.6,1.8,1.8,0,0,0,.6-1.5q0-2.1-3-2.1h-.7V33.2h4.8v1.1H198v2.4a4.2,4.2,0,0,1,2.9.9,2.6,2.6,0,0,1,1,2.3,2.9,2.9,0,0,1-.9,2.2,4,4,0,0,1-2.6.7A4.7,4.7,0,0,1,196.8,42.6Z"/><path d="M204.6,42.6V35.7h1.3V37a2.7,2.7,0,0,1,2.3-1.5,1.8,1.8,0,0,1,1.9,1.5,2.7,2.7,0,0,1,2.4-1.5,1.8,1.8,0,0,1,1.4.6,2.1,2.1,0,0,1,.5,1.5v5h-1.3V37.8q0-1.2-.9-1.2c-.7,0-1.3.4-2.1,1.4v4.6h-1.2V37.8c0-.8-.3-1.2-1-1.2a2.7,2.7,0,0,0-2,1.4v4.6Z"/><path d="M216.7,34.4V33.2H218v1.2Zm0,8.2V35.7H218v6.9Z"/></g></g></g><g class="cls-12"><g class="cls-4"><g class="cls-12"><path d="M269.3,51.8V39.5H271V51.8Z"/></g></g></g><g class="cls-13"><g class="cls-4"><g class="cls-13"><path d="M55.7,65.8V53.4h6.9v1.4H57.4v3.9h4.4V60H57.4v4.5h5.5v1.3Z"/><path d="M68.1,66A4.2,4.2,0,0,1,65,64.7a4.9,4.9,0,0,1-1.1-3.5A4.7,4.7,0,0,1,65,57.8a3.9,3.9,0,0,1,3.2-1.3,3.9,3.9,0,0,1,3.1,1.3,4.7,4.7,0,0,1,1.2,3.4,4.8,4.8,0,0,1-1.2,3.5A3.9,3.9,0,0,1,68.1,66Zm0-1.3c1.8,0,2.6-1.1,2.6-3.5s-.8-3.4-2.5-3.4-2.6,1.1-2.6,3.4S66.4,64.7,68.1,64.7Z"/><path d="M77,66a11.2,11.2,0,0,1-2.7-.5V63.9a5.7,5.7,0,0,0,2.8.8,2.1,2.1,0,0,0,1.2-.3,1.3,1.3,0,0,0,.4-1c0-.6-.4-1-1.3-1.4l-.9-.4c-1.4-.6-2.2-1.4-2.2-2.5a2.3,2.3,0,0,1,.9-1.9,3.7,3.7,0,0,1,2.3-.7l1.9.2h.3v1.4a6.9,6.9,0,0,0-2.2-.4c-1,0-1.6.3-1.6,1.1s.4.9,1.2,1.3l.8.3a6.2,6.2,0,0,1,1.9,1.2,2.1,2.1,0,0,1,.6,1.6,2.3,2.3,0,0,1-1,1.9A3.6,3.6,0,0,1,77,66Z"/></g></g></g><g class="cls-14"><g class="cls-4"><g class="cls-14"><path d="M118.8,71.3V59h-4.9V57.5h11.7V59h-4.8V71.3Z"/><path d="M126,71.3V61.2h1.8v1.9a3.5,3.5,0,0,1,3.2-2.2h.6v1.7l-.9-.2a3.5,3.5,0,0,0-2.9,2.1v6.7Z"/><path d="M140.5,71a14.8,14.8,0,0,1-3.2.5,4.6,4.6,0,0,1-3.6-1.5,5,5,0,0,1-1.4-3.8,5.8,5.8,0,0,1,1.2-3.8,3.9,3.9,0,0,1,3.2-1.5,3.6,3.6,0,0,1,2.8,1.3,5.8,5.8,0,0,1,1,3.7v.6h-6.4q.5,3.6,3.6,3.6a8.8,8.8,0,0,0,2.8-.6Zm-6.3-5.9h4.5c0-1.8-.7-2.8-2.1-2.8S134.4,63.3,134.2,65.1Z"/><path d="M145.9,71.5a9.9,9.9,0,0,1-3-.6V69.2a7.1,7.1,0,0,0,3.1.9,1.8,1.8,0,0,0,1.3-.4,1.2,1.2,0,0,0,.5-1.1c0-.6-.5-1.1-1.4-1.5l-1.1-.5c-1.6-.6-2.4-1.6-2.4-2.8a2.4,2.4,0,0,1,1-2.1,3.7,3.7,0,0,1,2.5-.8l2.1.3h.4v1.5a9.3,9.3,0,0,0-2.4-.5c-1.2,0-1.8.5-1.8,1.3s.4,1,1.3,1.4l.9.4a5.1,5.1,0,0,1,2.1,1.3,2.4,2.4,0,0,1,.7,1.8,2.8,2.8,0,0,1-1.1,2.2A4.6,4.6,0,0,1,145.9,71.5Z"/></g></g></g><g class="cls-15"><g class="cls-4"><g class="cls-15"><path d="M187.6,73.7V58.8h-5.9V57.1h14.2v1.7H190V73.7Z"/></g></g></g><g class="cls-16"><g class="cls-4"><g class="cls-16"><path d="M240.6,69.2V56.9h-4.9V55.4h11.8v1.5h-4.9V69.2Z"/></g></g></g><g class="cls-17"><g class="cls-4"><g class="cls-17"><path d="M248.3,84.4V72.8H250V84.4Z"/></g></g></g><g class="cls-18"><g class="cls-4"><g class="cls-18"><path d="M109.2,94.6V75.1h11v2H112v6.6h6.9v2H112v8.9Z"/><path d="M124.1,94.6V80.3h2.6V83a4.8,4.8,0,0,1,4.5-3h.8v2.5l-1.1-.3q-2.6,0-4.2,3v9.4Z"/><path d="M145.5,94.2a17.8,17.8,0,0,1-4.5.8,6.9,6.9,0,0,1-5.2-2.1,7.9,7.9,0,0,1-2-5.5,8,8,0,0,1,1.8-5.4,5.7,5.7,0,0,1,4.5-2.1,4.8,4.8,0,0,1,4,1.9c1,1.2,1.4,3,1.4,5.3v.8h-9c.3,3.4,2,5.1,5,5.1a11.7,11.7,0,0,0,4-.9Zm-8.9-8.3h6.3c0-2.7-1-4-3-4S136.8,83.2,136.6,85.9Z"/><path d="M159.3,94.6V91.9c-1.4,2.1-3.1,3.1-5,3.1a3.8,3.8,0,0,1-3-1.2,4.3,4.3,0,0,1-1.1-3.2V80.3h2.6v9.4a4.3,4.3,0,0,0,.4,2.3,1.9,1.9,0,0,0,1.6.7c1.6,0,3.1-1,4.5-3.1V80.3h2.6V94.6Z"/><path d="M164.8,99.2v-2h13.6v2Z"/></g></g></g><g class="cls-19"><g class="cls-4"><g class="cls-19"><path d="M252.5,107.3V94.2h4a3.9,3.9,0,0,1,2.8.9,2.7,2.7,0,0,1,1,2.4,3.7,3.7,0,0,1-2.6,3.7l4.4,6.1h-2.3l-3.7-5.5h-1.8v5.5Zm1.8-6.9h.6c2.4,0,3.5-.9,3.5-2.7s-.9-2.1-2.9-2.1h-1.2Z"/><path d="M269.5,107.3v-1.8a4,4,0,0,1-3.3,2,2.3,2.3,0,0,1-2-.8,2.9,2.9,0,0,1-.8-2.1V97.7h1.8V104a3,3,0,0,0,.3,1.6,1.1,1.1,0,0,0,1,.4q1.7,0,3-2.1V97.7h1.8v9.6Z"/></g></g></g><g class="cls-20"><g class="cls-4"><g class="cls-20"><path d="M127.7,119.6v-1.2a2.6,2.6,0,0,1-2.2,1.4,1.5,1.5,0,0,1-1.3-.6,1.6,1.6,0,0,1-.5-1.4v-4.6h1.1v4.2a2.7,2.7,0,0,0,.2,1.1.9.9,0,0,0,.7.3,2.6,2.6,0,0,0,2-1.4v-4.2h1.2v6.4Z"/></g></g></g><g class="cls-21"><g class="cls-4"><g class="cls-21"><path d="M150.1,117v-1.2a2.6,2.6,0,0,1-2.2,1.4,1.7,1.7,0,0,1-1.3-.5,2,2,0,0,1-.5-1.5v-4.6h1.1v4.3a2.5,2.5,0,0,0,.2,1,.9.9,0,0,0,.7.3,2.6,2.6,0,0,0,2-1.4v-4.2h1.2V117Z"/><path d="M153.6,117v-6.4h1.2v1.2a2.7,2.7,0,0,1,2.2-1.3,1.7,1.7,0,0,1,1.3.5,1.9,1.9,0,0,1,.5,1.4V117h-1.1v-4.2a2.2,2.2,0,0,0-.2-1,.9.9,0,0,0-.7-.3,2.6,2.6,0,0,0-2,1.4V117Z"/><path d="M163,117.2a1.7,1.7,0,0,1-1.9-1.9v-3.8h-.8v-.9h.8v-1.1h1.2v1.2H164v.9h-1.7v3.6c0,.8.4,1.2,1.1,1.2h.5v.8Z"/><path d="M170.2,116.8a5.4,5.4,0,0,1-2,.4,2.9,2.9,0,0,1-2.3-1,3.2,3.2,0,0,1-.9-2.4,3.6,3.6,0,0,1,.8-2.4,2.5,2.5,0,0,1,2-.9,2.2,2.2,0,0,1,1.8.8,4.3,4.3,0,0,1,.6,2.4v.3h-4c.2,1.5.9,2.3,2.2,2.3a4.5,4.5,0,0,0,1.8-.4Zm-3.9-3.6h2.8c0-1.2-.5-1.8-1.4-1.8S166.4,112,166.3,113.2Z"/><path d="M172.2,117v-6.4h1.2v1.2a2.7,2.7,0,0,1,2.2-1.3,2.2,2.2,0,0,1,1.4.5,2.4,2.4,0,0,1,.5,1.4V117h-1.2v-4.2a2.2,2.2,0,0,0-.2-1,.9.9,0,0,0-.7-.3,2.6,2.6,0,0,0-2,1.4V117Z"/></g></g></g><g class="cls-22"><g class="cls-4"><g class="cls-22"><path d="M125.4,132a3,3,0,0,1-2.2-1,4,4,0,0,1,0-4.8,3,3,0,0,1,2.3-.9,2.9,2.9,0,0,1,2.2.9,3.6,3.6,0,0,1,.8,2.4,3.9,3.9,0,0,1-.8,2.5A3,3,0,0,1,125.4,132Zm0-.9c1.3,0,1.9-.8,1.9-2.5s-.6-2.4-1.8-2.4-1.8.8-1.8,2.4S124.2,131.1,125.4,131.1Z"/></g></g></g><g class="cls-23"><g class="cls-4"><g class="cls-23"><path d="M148.7,129.5a2.8,2.8,0,0,1-2.3-1,3.7,3.7,0,0,1-.9-2.6,3.8,3.8,0,0,1,.9-2.7,3.4,3.4,0,0,1,4.8,0,3.7,3.7,0,0,1,.9,2.6,3.7,3.7,0,0,1-.9,2.7A3,3,0,0,1,148.7,129.5Zm.1-1c1.3,0,1.9-.9,1.9-2.7s-.6-2.6-1.9-2.6-2,.9-2,2.7S147.5,128.5,148.8,128.5Z"/><path d="M154,129.4V119.3h1.2v4.4a2.5,2.5,0,0,1,4.3-.5,3.7,3.7,0,0,1,.7,2.5,4,4,0,0,1-.8,2.7,2.5,2.5,0,0,1-2.1,1.1,2.6,2.6,0,0,1-2.1-1v.9Zm1.2-1.7a3.4,3.4,0,0,0,1.9.8q1.8,0,1.8-2.7c0-1.6-.6-2.5-1.6-2.5a2.9,2.9,0,0,0-2.1,1.2Z"/><path d="M167.2,129.1a6.9,6.9,0,0,1-2.2.4,3.7,3.7,0,0,1-2.5-1,4,4,0,0,1-.9-2.7,4.5,4.5,0,0,1,.8-2.6,3,3,0,0,1,2.2-1,2.2,2.2,0,0,1,1.9.9,4,4,0,0,1,.7,2.6v.4h-4.4c.2,1.6,1,2.4,2.5,2.4a5.4,5.4,0,0,0,1.9-.4Zm-4.3-4H166c0-1.3-.5-1.9-1.5-1.9S163,123.8,162.9,125.1Z"/><path d="M169.3,129.3v-6.9h1.3v1.3a2.7,2.7,0,0,1,2.4-1.5,1.7,1.7,0,0,1,1.4.6,2.1,2.1,0,0,1,.6,1.6v4.9h-1.3v-4.5a2.3,2.3,0,0,0-.2-1.1.8.8,0,0,0-.8-.4,2.7,2.7,0,0,0-2.1,1.5v4.5Z"/></g></g></g></g><g class="cls-24"><path d="M158.4,9.6a.5.5,0,0,1,.5-.4.4.4,0,0,1,.4.4V25.5a.4.4,0,0,1-.4.4.5.5,0,0,1-.5-.4Z"/><path d="M158.9,10.1a.5.5,0,0,1-.5-.5.5.5,0,0,1,.5-.4h47.5a.4.4,0,0,1,.4.4.5.5,0,0,1-.4.5Z"/><path d="M206,9.6a.4.4,0,0,1,.8,0V25.5a.4.4,0,0,1-.8,0Z"/><path d="M158.9,25.9a.4.4,0,1,1,0-.8h47.5a.4.4,0,0,1,0,.8Z"/><path d="M158.4,57.2c0-.3.2-.4.5-.4a.4.4,0,0,1,.4.4V73a.4.4,0,0,1-.4.4.5.5,0,0,1-.5-.4Z"/><path d="M158.9,57.6a.5.5,0,0,1-.5-.4c0-.3.2-.4.5-.4h47.5a.4.4,0,0,1,.4.4.4.4,0,0,1-.4.4Z"/><path d="M206,57.2a.4.4,0,0,1,.8,0V73a.4.4,0,0,1-.8,0Z"/><path d="M158.9,73.4a.4.4,0,1,1,0-.8h47.5a.4.4,0,1,1,0,.8Z"/><path d="M206.4,17.6a.5.5,0,0,1-.4-.5.4.4,0,0,1,.4-.4h31.7a.4.4,0,0,1,.4.4.5.5,0,0,1-.4.5Z"/><path d="M206.4,66a.4.4,0,0,1,0-.8h31.7a.4.4,0,0,1,0,.8Z"/><path d="M237.6,17.6c0-.3.2-.4.5-.4a.4.4,0,0,1,.4.4V65.2a.4.4,0,0,1-.4.4.5.5,0,0,1-.5-.4Z"/><path d="M238.1,41.7c-.3,0-.5-.1-.5-.4a.5.5,0,0,1,.5-.4h31.6a.4.4,0,0,1,.4.4c0,.3-.1.4-.4.4Z"/><path d="M269.6,36.2c0-.2.3-.3.5-.2a.4.4,0,0,1,.2.5h.1a3.5,3.5,0,0,0-.1.6v5.2c-.1,1-.2,1.9-.2,2.6v1.8h-.5a.3.3,0,0,1,.1-.2.5.5,0,0,1,.6-.2c.2.1.2.4.1.6a1,1,0,0,1-.4.5.5.5,0,0,1-.6-.2.4.4,0,0,1-.1-.3V44.9c0-.8.1-1.6.1-2.6s.1-3.8.1-5.2v-.7h.1m.8.4a.4.4,0,0,1-.4.4.4.4,0,0,1-.4-.4c0-.1,0-.2-.1-.2h.1c-.1,0,0,.1,0,.1s0-.5.2-.5.5,0,.5.3h.1v.3"/><path d="M127.2,18.4a.4.4,0,1,1,0-.8h31.7a.4.4,0,0,1,0,.8Z"/><path d="M127.2,65.4a.4.4,0,0,1-.4-.4.4.4,0,0,1,.4-.4l31.7.5a.5.5,0,0,1,.4.5.4.4,0,0,1-.4.4Z"/><path d="M126.8,18a.4.4,0,0,1,.8,0V65a.4.4,0,0,1-.8,0Z"/><path d="M91.8,41.7a.4.4,0,0,1-.4-.4.4.4,0,0,1,.4-.4h35.4a.4.4,0,0,1,.4.4.4.4,0,0,1-.4.4Z"/><path d="M32.5,32a.4.4,0,1,1-.8,0V30.4a.4.4,0,0,1,.8,0V31c0,3.2,0,7.3.2,10.7a31.8,31.8,0,0,1-.1,5.4,14.8,14.8,0,0,0-.1,2.1v2.2c0,.4,0,.6-.1.7a.3.3,0,0,1-.5.3c-.2,0-.3-.2-.3-.5a3.7,3.7,0,0,1,.1-.8,2.4,2.4,0,0,1,.2-.8.4.4,0,0,1,.5-.2.3.3,0,0,1,.3.5,2.1,2.1,0,0,0-.2.6,2.8,2.8,0,0,1-.1.9l-.8-.2a1.2,1.2,0,0,0,.1-.5V47a22.4,22.4,0,0,0,.2-5.2c-.2-3.5-.2-7.6-.2-10.8v-.6a.4.4,0,0,1,.8,0V32Z"/><path d="M24.5,35.8c.1-.2.3-.4.5-.3a.3.3,0,0,1,.3.5h0v1.3c0,1.8-.1,3.6-.1,5s-.1.7-.1,1.1v.9c0,.4-.1.6-.1.9v1.3h0s-.1-.1,0-.1h-.1c0,.1-.3-.1-.2-.1s-.3.1-.2.1h-.2a.3.3,0,0,1,.1-.2c0-.2.2-.4.4-.3a.4.4,0,0,1,.4.4.8.8,0,0,0-.1.4c-.1,0,0,.2-.3.3s-.3,0-.4,0l-.2-.3V45.1a2.8,2.8,0,0,1,.1-.9v-2c0-1.5.2-3.3.2-5V35.9h0m.8.1c.1.2-.1.4-.3.4s-.4-.1-.5-.3h0a.5.5,0,0,1,.3-.5.4.4,0,0,1,.5.2h0"/><path d="M.5,41.7c-.3,0-.5-.1-.5-.4a.5.5,0,0,1,.5-.4H24a.4.4,0,0,1,.4.4.4.4,0,0,1-.4.4Z"/><path d="M.1,36.9c-.1-.2-.1-.4.1-.5s.4-.1.6.1,0,.1,0,.2.1.2.1.4.2,3.1.2,4.6.1,1.4.1,2.2A4.1,4.1,0,0,1,1.1,45v.8H.5l.2-.2c.1-.2.4-.3.5-.1a.4.4,0,0,1,.2.5l-.3.4H.4a.8.8,0,0,1-.1-.3v-1c0-.4.1-.7.1-1S.3,42.4.3,41.7.2,38.3.1,37.2a1,1,0,0,1-.1-.4H0c0-.1.1.1.1,0m.7,0a.4.4,0,0,1-.4.4.4.4,0,0,1-.4-.4v-.2H0a.4.4,0,0,1,.6-.3.5.5,0,0,1,.2.6h0v.2"/><path d="M128.2,40.2a.9.9,0,0,1-.5,1.1.9.9,0,0,1-1.1-.5l-.2-.3h.5a2,2,0,0,0-.1.9V42h.3c.1-.1.3-.1.3-.2s.1-.1.1-.3v-.3h-1.5c0,.1-.1.2-.1.4h.3a2.3,2.3,0,0,0,1-.5h0l-.5.3a.9.9,0,0,1-1.2,0,.8.8,0,0,1,.1-1.2,2.7,2.7,0,0,1,1.4-.7,1.5,1.5,0,0,1,1.3.4,1.3,1.3,0,0,1,.6,1.1,1.9,1.9,0,0,1-.5,1.3,3.5,3.5,0,0,1-1.9,1,2.2,2.2,0,0,1-1.4-.2,1.5,1.5,0,0,1-.8-1.3,1.9,1.9,0,0,1,.6-1.6,3.5,3.5,0,0,1,1.4-.6h1.2a2.3,2.3,0,0,1,1.2.6,2,2,0,0,1,.4,1.6,2.1,2.1,0,0,1-.8,1.5,2,2,0,0,1-1.3.4,2.2,2.2,0,0,1-1.3-.4,2.5,2.5,0,0,1-.7-2,3.1,3.1,0,0,1,.3-1.5,1.3,1.3,0,0,1,.6-.7,1.3,1.3,0,0,1,1.2,0,2.7,2.7,0,0,1,1,1.1"/><path d="M239.2,40.3a.7.7,0,0,1-.7.9.8.8,0,0,1-.9-.8V40h0l.3.3h.4a.4.4,0,0,0-.1.3,1.9,1.9,0,0,0-.2.7v.4h0c0,.1-.2-.3-.2-.3s0,0,.1.1h.5l.5-.2.3-.4h0c0-.1.2.3.1.2h.2c-.1,0,0,.1,0,.1a.2.2,0,0,0-.3,0,1.6,1.6,0,0,0-.9.6c-.1.1-.1,0-.1.1v-.3c0,.1-.3-.4-.2-.3h-.4a.3.3,0,0,1,.1-.2.9.9,0,0,1,1.2-.1.8.8,0,0,1,.1,1.1,1.6,1.6,0,0,1-1.3.8,1,1,0,0,1-1.1-1.2,1.5,1.5,0,0,1,.4-.8,3.4,3.4,0,0,1,1.9-1.3h.9l.5.2a1,1,0,0,1,.5.6,1.9,1.9,0,0,1-.1,1.1,2.6,2.6,0,0,1-.7,1.1,2.6,2.6,0,0,1-1.3.6h-1.1l-.6-.2c-.2-.2-.5-.4-.6-.7a1.6,1.6,0,0,1,0-1,5,5,0,0,1,.2-1.2,2.2,2.2,0,0,1,.6-1c.3-.1.5-.3.8-.3h.5a1.2,1.2,0,0,1,.5.5,1.6,1.6,0,0,1,.2,1.1"/><path d="M183.5,13.6c-.1.2-.3.4-.5.3s-.4-.2-.3-.4v-.2h.4s.2-.1.1-.1h.1c-.2.4-.4,1.4-.8,2.3s-.3.8-.4,1.1l-.2.5h0s-.2-.2-.1-.2-.1,0-.1,0h.9a1.9,1.9,0,0,1,2.1.7.4.4,0,0,1-.8.4c-.1-.2-.2-.3-.4-.3a1.1,1.1,0,0,0-.8,0l-.8.2h-.4a.8.8,0,0,1-.4-.6,1.4,1.4,0,0,1,.2-.7l.5-1.1.8-2.3v-.2h.1l.3-.2a.9.9,0,0,1,.5.3v.5"/><path d="M186.7,15.5a.4.4,0,0,1-.4.4.4.4,0,0,1-.4-.4h.4c-.1-.1.2-.1.2-.1h.1c-.1,0,0-.1,0-.1h0l-.2.6c-.3.8-.8,1.8-1.2,2.6l-.5,1.2v.5a.4.4,0,0,1-.2.5.4.4,0,0,1-.6-.2,1.2,1.2,0,0,1,.1-1,9.3,9.3,0,0,1,.4-1.3,27.2,27.2,0,0,0,1.2-2.5l.3-.8h.1c0-.1.1-.2.3-.2l.3.2c.2.2.1.3.1.5"/><path d="M183.6,62a.4.4,0,0,1-.5.2c-.2,0-.3-.3-.3-.5s.1-.2.2-.4h.3c.3-.1.4.1.5.2a.9.9,0,0,1,0,.7,26.7,26.7,0,0,1-.9,2.6,1.7,1.7,0,0,0-.2.5s-.1-.1,0-.1h.1l.8-.3h.7a.9.9,0,0,1,.7.4.3.3,0,0,1,0,.5.4.4,0,0,1-.6,0h-.5a4.2,4.2,0,0,1-1.2.3h-.5a.7.7,0,0,1-.3-.6,1.9,1.9,0,0,1,.2-.8A15.3,15.3,0,0,0,183,62v-.2h0s.1.1,0,.1.2.1.1.1h.2c-.1-.1.2,0,.1,0s.2-.1.1-.1.1,0,.1,0h.1c-.1.1,0,.1-.1.2"/><path d="M186,62.9a.5.5,0,0,1,.4-.5.4.4,0,0,1,.4.4,3.3,3.3,0,0,1-.4,1.8,20,20,0,0,1-1,2.1,15.6,15.6,0,0,0-.7,1.7v.3h-.1a.5.5,0,0,1,.5.4.4.4,0,0,1-.4.4c-.3,0-.7-.1-.8-.4a2.2,2.2,0,0,1,0-.8l.8-1.9c.7-1.4,1.4-2.9,1.3-3.4"/><path d="M22.8,20.7a.3.3,0,0,1-.5.3.4.4,0,0,1-.2-.5,2.5,2.5,0,0,1,.7-1.2l1.4-1.8,1.3-1.6,1.3-1.4a4.6,4.6,0,0,1,1-.7.4.4,0,0,1,.5,0,.3.3,0,0,1,.3.3.8.8,0,0,1,.1.8,8.5,8.5,0,0,1-1.3,2.5,2,2,0,0,0-.4.8h-.1a.5.5,0,0,1,.3.5c-.1.2-.3.4-.5.3a.7.7,0,0,1-.5-.4.6.6,0,0,1,0-.6l.5-1.1a7.8,7.8,0,0,0,1.2-2.1v-.4h.2a16.7,16.7,0,0,0-2,2L24.8,18l-2,2.7"/><path d="M32.1,14.3a.5.5,0,0,1-.3.5.5.5,0,0,1-.5-.4.8.8,0,0,1,.2-.8,1,1,0,0,1,.6-.5,1.6,1.6,0,0,1,1.5-.2,1.2,1.2,0,0,1,.5.7,2.7,2.7,0,0,1,0,.9,2.7,2.7,0,0,1-.4,1.3,6.3,6.3,0,0,1-1.6,2.3l-.9,1.1h0v-.2c.1.1-.1-.1-.1,0s0-.1,0-.1h.6a3.6,3.6,0,0,1,2.2.4c.2.1.2.3.1.5a.5.5,0,0,1-.6.2,3.1,3.1,0,0,0-1.7-.3h-.8a.5.5,0,0,1-.4-.3c-.1-.3.1-.5.1-.6l1-1.1A10.1,10.1,0,0,0,33,15.5a5.3,5.3,0,0,0,.3-1.2v-.5a.1.1,0,0,0-.1-.1c-.1-.1-.4-.1-.7.1l-.4.2v.3"/><path d="M38.2,14.8a.5.5,0,0,1-.9.1v-.6a.4.4,0,0,1,.1-.3h.1c.1-.1.3-.2.4-.1s.3.2.3.3a4.8,4.8,0,0,1,0,1.7,13.6,13.6,0,0,1-.2,2.1c0,.7-.1,1.2,0,1.3h-.1l.8-.8A14,14,0,0,0,40,16.7a7,7,0,0,1,1.3-1.6,2.4,2.4,0,0,1,1.3-1,.7.7,0,0,1,.5.4.4.4,0,0,1-.4.4,2.3,2.3,0,0,0-.8.7,11.1,11.1,0,0,0-1.2,1.6c-.5.6-.9,1.3-1.4,1.8s-.7,1-1.3,1.1-.4,0-.5-.2-.2-.3-.3-.4a4.8,4.8,0,0,1,0-1.7,13.6,13.6,0,0,0,.2-2V14.3s.1.1,0,.1h.2s.4,0,.3.1h.2s.1-.1,0-.1h.1a.4.4,0,0,0,0,.5"/><path d="M91.5,39.5a.4.4,0,0,1-.4.4c-.2.1-.4-.1-.4-.3s0-.1-.1-.1l-.3-.2-1.1.2a2.3,2.3,0,0,0-1.1,1.7,2.5,2.5,0,0,0-.1.8,2.7,2.7,0,0,0,1.9,1.7,2.1,2.1,0,0,0,1.1.1c.4,0,.8-.5,1-1.1a3.5,3.5,0,0,0,.3-2,1.3,1.3,0,0,0-.8-1.1,3,3,0,0,0-1.3.1A6.5,6.5,0,0,0,88,41.1a.4.4,0,0,1-.6,0c-.2-.2-.1-.4,0-.6a11.2,11.2,0,0,1,2.5-1.6,2.8,2.8,0,0,1,1.8,0,1.9,1.9,0,0,1,1.4,1.7,5,5,0,0,1-.3,2.4,2.6,2.6,0,0,1-1.7,1.7l-1.4-.2a3.5,3.5,0,0,1-2.4-2.3,2,2,0,0,1,0-1.1,2.8,2.8,0,0,1,1.5-2.3,3,3,0,0,1,1.6-.3c.2.1.5.1.7.3a.8.8,0,0,1,.4.7"/><path d="M34.6,40.7c-.2.1-.4-.1-.4-.3s.1-.4.3-.5h0c0-.1,0-.3-.1-.3s.1.1.1.1h-.6a.9.9,0,0,0-.6.6,3.1,3.1,0,0,0-.3,1.3.8.8,0,0,0,.4.9,1.2,1.2,0,0,0,1.1.3,2.7,2.7,0,0,0,1.2-.3,1.6,1.6,0,0,0,.7-.9,1.2,1.2,0,0,0,.1-.8h-.1l-.4-.2c-.5-.1-.8-.2-1-.1s-.7.3-1.1,1.1a.4.4,0,0,1-.5.1c-.2-.1-.3-.4-.2-.5s1-1.4,1.6-1.5a2.2,2.2,0,0,1,1.4.1l.6.2c.2.2.5.4.5.7a2.5,2.5,0,0,1-.1,1.2A2.4,2.4,0,0,1,36.1,43a4.3,4.3,0,0,1-1.6.5,3.4,3.4,0,0,1-1.7-.5,2.4,2.4,0,0,1-.7-1.6,8.5,8.5,0,0,1,.4-1.7,1.9,1.9,0,0,1,1.3-1h1.1c.1.1.3.2.3.4a2.2,2.2,0,0,1,.1.8c-.1.1-.1.3-.2.4a.5.5,0,0,1-.5.3"/><path d="M37.5,41.7a.4.4,0,0,1-.4-.4.4.4,0,0,1,.4-.4H86.3a.5.5,0,0,1,.5.4c0,.3-.2.4-.5.4Z"/><path d="M45.6,28.8a.4.4,0,0,1-.6,0,.3.3,0,0,1,0-.5l.2-.3h0c0-.1.1.1.1.1H45a4.9,4.9,0,0,0-1.8,2.3,3.9,3.9,0,0,0-.3,1.4.8.8,0,0,0,.2.6h.5l.7-.4c.2-.2.4-.4.4-.6l.2-.3h-.6l-.4.2h0a.4.4,0,0,1-.4.4.4.4,0,0,1-.4-.4,4.3,4.3,0,0,1,.1-.5l.3-.2.7-.2H45a.6.6,0,0,1,.6.4,1.4,1.4,0,0,1-.1,1.1,1.8,1.8,0,0,1-.7.8,1.9,1.9,0,0,1-1,.5,1.1,1.1,0,0,1-1.1,0,1.6,1.6,0,0,1-.6-1.3,5.5,5.5,0,0,1,.3-1.7,5.1,5.1,0,0,1,2.2-2.7l.6-.2a.7.7,0,0,1,.6.2c.1,0,.1.2.2.3v.3a1.3,1.3,0,0,1-.4.6"/><path d="M48.8,29.8c0-.2.3-.3.5-.2a.4.4,0,0,1,.2.5l-.4,1-.2.6c-.1.1,0,.1,0,.1h-.1c.1,0-.1-.1,0,0h-.2c.1,0-.1.1-.1,0s0,.1,0,.1.1-.1.1-.2l.4-.4c.2-.4.6-.6.8-.8l.4-.4h.3l.5.2a1.3,1.3,0,0,1,.1.6.8.8,0,0,0-.1.4c0,.2-.1.3-.1.4v.2h-.1s-.2-.1-.1-.1h-.1l.7-.4.7-.2a1.1,1.1,0,0,1,.8.1,1.1,1.1,0,0,1,.4.9,3,3,0,0,1-.4,1.1.5.5,0,0,1-.6.2c-.2-.1-.2-.4-.1-.6a2,2,0,0,0,.3-.8h-.7L51,32h-.5c-.1,0-.4-.1-.4-.3a.9.9,0,0,1,.1-.9v-.4a.1.1,0,0,1,.1-.1h0c-.1,0,0,.1,0,.1s.2.1.1.1h.3l-.3.2-.8.8-.4.5c-.1.1-.1.2-.2.2h-.2c-.1,0-.2.1-.3,0a.8.8,0,0,1-.4-.4.7.7,0,0,1-.1-.5l.3-.8.5-1"/><path d="M45,35.1c-.1.2-.3.2-.5.1a.4.4,0,0,1-.1-.6l.2-.4c0-.1.1-.1.2-.2s.2-.1.4,0l.3.3a.9.9,0,0,1,0,.7,3.9,3.9,0,0,1-.4.9.3.3,0,0,1-.1.2h0c0,.1-.1-.1-.1,0s-.1-.1-.1-.1h.3l.7-.5c.2,0,.5,0,.6.2a.4.4,0,0,1-.2.6l-.8.4-.4.2h-.6a.4.4,0,0,1-.1-.3.3.3,0,0,1-.1-.2,1.4,1.4,0,0,1,.2-.6c.1-.3.3-.5.3-.6v-.3h.5s.1-.1.1,0h0l-.3.5"/><path d="M46.8,35.5a.5.5,0,0,1-.6-.2c0-.2.1-.5.3-.5h.4a.4.4,0,0,1,.2.4c0,.1-.1.1-.1.2s-.1.2-.1.4a4.4,4.4,0,0,0-.6,1,6.3,6.3,0,0,0-.4.9h-.1c.1.1-.2-.1-.1-.1h-.1a.5.5,0,0,1,.5.3c0,.2-.1.5-.4.5a.6.6,0,0,1-.6-.4c-.1-.2,0-.3,0-.5l.5-1.1a9.3,9.3,0,0,0,.5-1l.2-.3h0c0-.1.1.2,0,.1h.2c-.1,0,.2,0,.2.1s.1-.1.1-.1"/><path d="M49.1,35.3c.1-.3.3-.4.5-.3a.3.3,0,0,1,.3.5,3.9,3.9,0,0,1-.4.9v.4s-.1-.2-.1-.1,0-.1,0-.1h.1a9.5,9.5,0,0,0,1.3-1.1.7.7,0,0,1,.6-.1.6.6,0,0,1,.6.3,1,1,0,0,1,0,.8h.1c0,.1-.1,0-.1,0h.2l.5-.3.6-.2a.7.7,0,0,1,.7.2.7.7,0,0,1,.2.6V37h.3l1-.3a1.4,1.4,0,0,1,1.1,0,.7.7,0,0,1,.3.6,1.9,1.9,0,0,1-.2.7c0,.2-.3.3-.5.2s-.3-.3-.2-.5a.8.8,0,0,0,.1-.4h0c0-.1.1,0,.1,0h-.5l-1,.3c-.2,0-.4.1-.6,0a.7.7,0,0,1-.5-.3.7.7,0,0,1-.2-.6h-.3l-.5.3-.3.2c-.2,0-.3.1-.5,0l-.4-.3a1.4,1.4,0,0,1-.2-.6v-.3h.1c-.4.2-.8.9-1.4,1.1s-.5.2-.7.1l-.4-.2a.6.6,0,0,1-.1-.4,1.7,1.7,0,0,1,.1-.7,4.1,4.1,0,0,0,.3-.8"/><path d="M56.8,38a.6.6,0,0,1-.6,0,.5.5,0,0,1,0-.6.8.8,0,0,1,.8-.2.9.9,0,0,1,.6.3,1.4,1.4,0,0,1,.5,1,.5.5,0,0,1-.4.5.4.4,0,0,1-.4-.4.7.7,0,0,0-.3-.5h-.2"/><path d="M60,35c-.2,0-.3-.3-.2-.5a.4.4,0,0,1,.5-.2h1a.6.6,0,0,1,.5.2,1.1,1.1,0,0,1,.1.5c0,.1-.1.2-.1.3l-.3.5-.5.6-.3.3h0c-.1,0,0-.1,0,0v-.2c.1.1,0-.1,0,0h-.1a.1.1,0,0,1,.1.1h.5a16.2,16.2,0,0,0,1.8-.2.4.4,0,0,1,.4.4.4.4,0,0,1-.4.4,10.3,10.3,0,0,1-2,.2h-.5l-.3-.2c-.1,0-.2-.2-.3-.4s.2-.4.3-.6l.3-.3c.1-.3.3-.4.4-.6A.8.8,0,0,0,61,35a.1.1,0,0,0,.1-.1h0c0-.1.1.2.1.1s.1.1.1.1h-.4A1.8,1.8,0,0,1,60,35"/><path d="M104.1,27.9a.4.4,0,0,1-.4-.4.4.4,0,0,1,.4-.4h1.2l.7.2a1.1,1.1,0,0,1,.5.9,1.5,1.5,0,0,1-.3.7,1.7,1.7,0,0,0-.2.5c-.1,0,0-.1,0-.1h0l.3.4a1.7,1.7,0,0,1,.2,1.2c0,.4-.4.6-.7.7a1.4,1.4,0,0,1-.9.1,2.3,2.3,0,0,1-1.7-.5.3.3,0,0,1-.1-.5.5.5,0,0,1,.6-.1,2.5,2.5,0,0,0,1.2.3h.7c.1-.1.1-.1.1-.2a1.5,1.5,0,0,0-.1-.6l-.3-.4a.8.8,0,0,1-.1-.7,1.6,1.6,0,0,1,.3-.6l.2-.3c0-.1,0-.2-.1-.2h-1.5"/><path d="M110.5,28.8a.4.4,0,0,1,.5-.2.4.4,0,0,1,.3.5,5.6,5.6,0,0,0-.4,1.2,1.1,1.1,0,0,0-.1.5v.3h-.1c.1,0-.1-.1,0-.1s-.2,0-.2,0h-.1s-.1.1-.1,0h.2l.3-.6.6-.5a1.8,1.8,0,0,1,.7-.5h.7l.4.4a.9.9,0,0,1,0,1c0,.2,0,.3-.1.4h0c0,.1-.2-.2-.1-.1h-.2l.6-.4,1-.4.6-.2a.9.9,0,0,1,.7.3.7.7,0,0,1,.3.6c0,.2-.1.4-.1.7a4.2,4.2,0,0,1-.7,1.3c-.1.2-.4.3-.5.1s-.3-.4-.1-.5a6.1,6.1,0,0,0,.5-1.2c0-.1.1-.3.1-.4s0,0-.1-.1h-.5l-.8.4-.5.4h-.8a.4.4,0,0,1-.2-.4v-.2a.4.4,0,0,0,.1-.3c0-.2.1-.3.1-.4h-.1l-.5.3-.4.4a2.1,2.1,0,0,1-.4.6l-.2.2-.4.2-.4-.2v-.2a.9.9,0,0,1-.1-.5c.1-.2.1-.5.2-.7l.4-1.3"/><path d="M103.3,37.5a.4.4,0,0,1-.4.4c-.2.1-.4-.1-.5-.3a.9.9,0,0,1,.3-.7,1.9,1.9,0,0,1,.6-.7,10,10,0,0,1,1.5-1.4l1-.7c.2,0,.3-.1.5,0a.5.5,0,0,1,.5.3,1,1,0,0,1,0,.9,10.4,10.4,0,0,1-.4,1l-.4.7a.3.3,0,0,0-.1.2h0V37c0,.1-.1-.2-.1-.1s-.2-.1-.1-.1h-.4a.4.4,0,0,1,.6.2.4.4,0,0,1-.2.5c-.1.1-.2.1-.4,0s-.2-.2-.2-.3V37a.4.4,0,0,0,.1-.3,2,2,0,0,0,.4-.8,5.9,5.9,0,0,0,.4-.8.4.4,0,0,1,.1-.3h0l-.8.5a9.3,9.3,0,0,0-1.4,1.4,2.3,2.3,0,0,0-.5.5.3.3,0,0,0-.1.2h0"/><path d="M108.3,36.2c.1-.2.3-.4.5-.3a.4.4,0,0,1,.2.6,1.1,1.1,0,0,1-.4.5l-.3.3c0,.3-.2.4-.5.4a.5.5,0,0,1-.3-.5,1,1,0,0,1,.5-.7l.2-.3h.1"/><path d="M111.8,34.6c0,.2-.1.5-.3.5a.3.3,0,0,1-.5-.3h0c0-.1.1,0,.1,0s.1.1,0,.1H111v-.2s-.1-.1,0-.1h.2l.8.2a1.3,1.3,0,0,1,.7,1.8l-.6.6a1.7,1.7,0,0,1-1.5.6.4.4,0,0,1-.3-.5c0-.2.2-.4.4-.3l.9-.4.4-.4v-.2a.9.9,0,0,0-.3-.5h-1.2a.5.5,0,0,1-.2-.4.6.6,0,0,1,.3-.7l.6-.3h.4l.3.4"/><path d="M112.2,34.8a.6.6,0,0,1-.6.1.5.5,0,0,1-.1-.6,2.4,2.4,0,0,1,1.8-.9h2.4a.4.4,0,0,1,.4.4.4.4,0,0,1-.4.4h-2.4c-.5.1-.9.2-1.1.6"/><path d="M116.3,35.4a.5.5,0,0,1,.6,0c.1.2.1.5-.1.6a1.9,1.9,0,0,0-.4.9c-.1.2-.1.4-.2.5a.1.1,0,0,0,.1.1c0,.1-.1,0-.1,0h.1l.3-.3.6-.7c.2-.3.2-.7.7-.9s.4,0,.4.1.2.1.2.2a.4.4,0,0,1,.1.3,1.5,1.5,0,0,1,0,.7v.2h-.1c0-.1-.1,0-.1,0h0c0-.1.1-.1.2-.2l.6-.5a1,1,0,0,1,.5-.4h.4l.4.2a1.1,1.1,0,0,1,.2.7v.2h0s-.1-.1,0-.1-.2-.1-.2-.1h-.1a.1.1,0,0,1,.1-.1l.4-.2.4-.3c0-.1.1-.1.2-.1h.3a.2.2,0,0,1,.2.2l.2.4c0,.1.1.2.1.3s-.1-.1,0-.1h.3l.5.3a.8.8,0,0,1,.1.7c0,.2-.2.3-.4.3a.4.4,0,0,1-.4-.4h0a.6.6,0,0,1-.7-.3c-.2-.2-.2-.4-.3-.6a.3.3,0,0,0-.1-.2h0s.1.1.1,0,.2.1.1.1h.2c0,.1-.1.2-.4.4l-.5.3h-.5l-.3-.2c-.2-.3-.1-.5-.2-.7v-.2h.2l-.3.2-.6.5c0,.1-.1.2-.3.2a.4.4,0,0,1-.5.1.4.4,0,0,1-.4-.3,1.4,1.4,0,0,1-.2-.6,1.8,1.8,0,0,0,.1-.5h.1c-.1-.1.1,0,.1,0h.2l-.4.5-.7.9-.3.3a.9.9,0,0,1-.6.3.9.9,0,0,1-.6-.4,1.4,1.4,0,0,1-.2-.7c.1-.2.1-.5.2-.7a2,2,0,0,1,.7-1.2"/><path d="M123.7,33.7a.3.3,0,0,1-.5.1c-.2-.1-.2-.4-.1-.6l.4-.2h.4l.6.5a1,1,0,0,1-.2,1.6l-.8.7-.2.2c-.1.1-.1,0-.1.1v-.2c0,.1-.1-.2,0-.1h.4l1.3.2c.2.1.4.3.3.5s-.3.4-.5.3l-1.2-.2-.6-.2-.3-.2a.8.8,0,0,1-.2-.5l.5-.6.8-.6c.1-.1.2-.2.2-.3h.1s0-.1-.2-.2a.2.2,0,0,0-.2-.2h.1"/><path d="M45.8,33.1c.1.2-.1.4-.3.4a.5.5,0,0,1-.5-.4h0c0-.1.1,0,.1,0s.1.1.1.1h.2a.3.3,0,0,0-.1.2,6.9,6.9,0,0,0-.7,1.5l-.2.4h.2a1.7,1.7,0,0,0,1.3-.3.6.6,0,0,1,.6,0,.5.5,0,0,1,.1.6,2.5,2.5,0,0,1-2.2.5l-.5-.2a.7.7,0,0,1-.3-.6,1.6,1.6,0,0,1,.3-.6,5.6,5.6,0,0,1,.7-1.6c.1-.3.2-.5.5-.6s.1-.1.3-.1l.3.2a.9.9,0,0,1,.1.5"/><path d="M47.9,33.9a.4.4,0,0,1-.4.4.5.5,0,0,1-.5-.4h0s.1.2.1.1h.1c-.1,0,.2.1.1.1s.3-.1.2,0,.2-.1.1-.1h.1a3.9,3.9,0,0,1-.2.6,37.2,37.2,0,0,1-1.8,3.8.3.3,0,0,1-.5.3c-.2,0-.4-.2-.3-.4a1.9,1.9,0,0,1,.2-.7,16.8,16.8,0,0,0,1.6-3.3l.3-.7a.3.3,0,0,1,.1-.2h.6c.2.3.2.3.2.5"/><path class="cls-25" d="M66,43.6a.4.4,0,0,1-.4.4.7.7,0,0,1-.4-.5V42.4a10.9,10.9,0,0,0-.1-1.8c0-.5-.2-1-.2-1.5a1.7,1.7,0,0,1-.1-.7.3.3,0,0,1,.1-.2.2.2,0,0,1,.2-.2c0-.1.1-.1.2-.1a.7.7,0,0,1,.4.3l.7.8a33,33,0,0,0,3,2.7.4.4,0,0,1,0,.6c-.1.2-.4.1-.6,0s-2-1.5-3.1-2.8l-.6-.8h.1s.3-.1.3,0,.1-.2.1-.2h0c0,.2.1.4.1.6a9.9,9.9,0,0,0,.3,1.5v1.9a4.7,4.7,0,0,1,0,1.2m-.2-4.5c.2-.2.4-.1.6.1a.5.5,0,0,1-.2.6c-.1,0,.1-.2.1-.1h.1a1.1,1.1,0,0,1-.1.5,8.8,8.8,0,0,1-.2,1.7,3.1,3.1,0,0,1-.1,1v.8h0a.4.4,0,0,1-.4.4c-.2-.1-.4-.2-.4-.5h0v-.9c0-.3.1-.6.1-.9a14.9,14.9,0,0,0,.2-1.7c0-.3.1-.4.1-.6h0l.2-.2m.6.4c0,.3-.1.5-.4.5a.4.4,0,0,1-.4-.4h.1c-.1-.1.2.1.1.1a.5.5,0,0,1-.2-.6.4.4,0,0,1,.6-.1l.2.2c.1.1,0,.1,0,.2"/><path class="cls-25" d="M65.5,44.1a.5.5,0,0,1,.6-.2c.2.1.2.4.1.6h0s-.1-.3,0-.2-.3-.2-.2-.1-.2-.1-.1-.1-.2.1-.2,0,0,.1,0,.1h0l.2-.2,1-.9,1.1-.7a.6.6,0,0,1,.8.1c.2.2.1.5.1.7s-.3.4-.5.3a.4.4,0,0,1-.3-.5h.1c0-.1.1,0,.1,0h0l-.9.6-1,.8-.3.3h-.4q-.3-.2-.3-.3c0-.3.1-.3.1-.3"/><path class="cls-25" d="M66.4,41.2c.1-.2.3-.3.5-.1s.3.3.1.5h0V43h0s-.2-.1-.1-.1h-.1a.1.1,0,0,1,.1-.1l.3-.2c.2-.1.3-.3.4-.4h-.1c0-.1.1.1.1.1s.1.1.1.1.1,0,.1,0h0a.7.7,0,0,1-.3.3c-.1.1-.2.2-.2.3h-.1l-.8-.3c.2-.3.2-.2.3-.2h.5c0-.1.1.2.1.1v.2c-.1-.1.2,0,.1,0h0l-.7.3a.3.3,0,0,1-.5-.1c-.1-.2-.1-.5.1-.6l.8-.4h.5c.2.1.4.4.3.6v.2l-.3.3-.4.2h0c-.1,0,0-.1,0-.1a.5.5,0,0,1-.5.3.6.6,0,0,1-.3-.6,1.3,1.3,0,0,1,.6-.5,1.1,1.1,0,0,1,.6-.6h.6l.2.4c0,.1-.1.2-.1.3a1.9,1.9,0,0,1-.6.7l-.5.3h-.7c-.2-.1-.2-.2-.3-.4V43a.6.6,0,0,1,0-.6,2.5,2.5,0,0,1,.1-1.2h.1m-.7-.6c0-.2.2-.3.4-.3a.4.4,0,0,1,.4.4h0a.9.9,0,0,0,.1.5c0,.4.1.8.1,1.2v.9h-.1c.2.1.2.4.1.6s-.4.2-.6.1a.4.4,0,0,1-.1-.3.1.1,0,0,1-.1-.1v-.2c0-.2.1-.3.1-.4V41.3c0-.3,0-.6-.1-.7a.5.5,0,0,1,.3-.5c.3,0,.5.1.5.3s0,.3,0,.5a.4.4,0,0,1-.1.3V43h0s-.2-.1-.1-.1h-.3a1,1,0,0,0,.1-.4V41.5h0c-.1-.2,0-.4.3-.5s.4,0,.5.3h0v1.1a1.1,1.1,0,0,1-.2.9l-.3.2h-.3c-.1,0-.3-.1-.3-.2l-.2-.3V41.1c0-.1.1-.3.1-.4h0c0-.1.1.1,0,0l.8-.2a2.8,2.8,0,0,1,.1.9v1.9h-.1c.1,0,0-.1,0-.1h-.1l-.5.7c-.2-.2-.1-.2-.1-.3a.1.1,0,0,1-.1-.1v-.9c0-.4-.1-.8-.1-1.1a1.1,1.1,0,0,1-.1-.5v-.2h0m.8,0c0,.2-.1.5-.3.5s-.4-.1-.5-.3h0a.5.5,0,0,1,.2-.6.4.4,0,0,1,.5.2h.1"/><path class="cls-25" d="M65.2,39.3a.4.4,0,0,1,.8-.4c0,.1-.1-.1-.1-.1h0l1,.7.7.5.7.5.4.4-.7.5-.6-.7-.6-.7-.6-.5-.3-.2h.5c0,.1.1.2.2.4a4,4,0,0,0,1.3,1.3.4.4,0,0,1,.2.5.5.5,0,0,1-.6.2,5.8,5.8,0,0,1-1.6-1.5,2.1,2.1,0,0,1-.3-.7c0-.1-.1-.2,0-.4l.3-.3h.3l.5.4.7.5.6.7.7.8a.4.4,0,1,1-.7.5c0-.1-.1-.2-.2-.3l-.6-.4-.8-.5a3.1,3.1,0,0,1-1-.8h-.2m1-.5a.4.4,0,0,1,0,.6c-.1.2-.4.2-.6,0h.3s.2-.1.1-.1l.2-.2h0c0,.1.2.3.3.5l1.4,1.2a.9.9,0,0,0,.6.3l.3.2h-.2c.1,0-.1.1-.1.1s-.1.2-.1.1,0,.3,0,.2.1.2,0,.1h0l-.7-.4-.9-.5-.8-.5c-.3-.2-.4-.5-.6-.6h0c-.2-.1-.3-.3-.1-.5a.4.4,0,0,1,.5-.2h.1l.2.2.4.5.7.4a2.8,2.8,0,0,1,.9.5c.4.2.9.3,1.1.8a.5.5,0,0,1-.1.5h-.6l-.4-.2-.6-.4-1.6-1.3-.4-.6h-.1c0-.1-.1-.2,0-.3a.3.3,0,0,1,.3-.3h.2l.3.2"/><path class="cls-25" d="M67.5,42.4a.7.7,0,0,1,.3.6.5.5,0,0,1-.6.2h.1l-1,.4a.4.4,0,0,1-.6.1c-.2-.1-.2-.3-.1-.5a1.8,1.8,0,0,1,.9-.6l.9-.2h.1m.5-.1a.5.5,0,0,1-.5.3c-.2-.1-.4-.3-.3-.5s.1-.2.1-.2h0c0-.1.2.1.1.1h.5c-.1,0-.1.1-.2.2l-.5.4-.4.4-.4.2c0,.1,0,.1-.1.1h0c-.1.2-.4.2-.6.1a.6.6,0,0,1,0-.6l.3-.2.7-.2h.4s-.1.1,0,.1H67a.4.4,0,1,1,.8,0c0,.3-.1.3-.2.4h-.7l-.5.2h-.2s.2-.1.1-.1l-.6-.5c.2-.3.4-.3.6-.5l.4-.3c.1-.1.3-.2.3-.3s.2-.3.5-.4.4,0,.5.2a.4.4,0,0,1,.1.3c0,.1-.1.2-.1.3"/><path class="cls-25" d="M62.9,51.9a.5.5,0,0,1-.1-.6.4.4,0,0,1,.6,0h.1a.4.4,0,0,1,.1.3c0,.2-.1.2-.1.3L62.9,53a6.7,6.7,0,0,0-.6,1.2l-.3.6h-.1c.1,0-.1-.1,0-.1s-.2,0-.2,0h-.2c.1,0-.1.1-.1.1s-.1.1-.1,0h0a.4.4,0,0,0,.1-.3.4.4,0,0,1,.5-.2.3.3,0,0,1,.3.5V55c-.1.1-.1.2-.3.3h-.5a.8.8,0,0,1-.1-.3v-.2l.3-.9c.2-.3.4-.8.7-1.2l.5-1h0c.1-.1.1,0,.1-.1h0c-.1-.1.1.2,0,.1h.1m.5,0a.5.5,0,0,1-.5.4.5.5,0,0,1-.3-.5.5.5,0,0,1,.2-.4c0-.1,0-.1.2-.2h.2a.4.4,0,0,1,.4.4.5.5,0,0,1-.5.4h.1s.1-.1.1,0h.1"/><path class="cls-25" d="M60.5,51.2a.4.4,0,0,1-.4-.4.5.5,0,0,1,.3-.5,5.6,5.6,0,0,0,1.3,0c1.1,0,2.7-.4,4.1-.5h2a2.2,2.2,0,0,1,1.4,1,.4.4,0,0,1-.2.6.4.4,0,0,1-.5-.2q-.1-.5-.9-.6a4.8,4.8,0,0,0-1.7,0c-1.4.1-2.9.5-4.1.6a5.2,5.2,0,0,0-1.3,0m1.2,0a.4.4,0,0,1-.8-.4v.3c0-.1.1.1.1.1s0,.1,0,.1h-.5a.5.5,0,0,1-.4-.5.5.5,0,0,1,.5-.4h.8c0,.1.1.1.2.2a.7.7,0,0,1,.1.5"/><path class="cls-25" d="M58.7,56.8a.4.4,0,0,1-.5-.2c-.1-.2-.1-.4.1-.5a10.1,10.1,0,0,1,3.8-1,18.9,18.9,0,0,1,4.7.3c.2,0,.3.2.3.4s-.3.4-.5.4c-2.9-.5-6.3-.3-7.9.6"/><path class="cls-25" d="M71.9,55.2a.5.5,0,0,1-.5.3.5.5,0,0,1-.3-.6h-.5l-.7.4h-.1c-.1,0,0-.1,0,0s-.1-.2-.1-.2,0,0,.1,0,.1.1.2.2h1.1c.1,0,.3.2.4.4a4.8,4.8,0,0,1,0,1.2,11.7,11.7,0,0,1-.6,2c-.2.5-.3,1-.5,1.5a1.8,1.8,0,0,1-1,.9,2.4,2.4,0,0,1-1.2,0,1.8,1.8,0,0,1-.8-.9,2,2,0,0,1,.4-1.4.5.5,0,0,1,.6-.1c.2.1.2.4.1.6a.9.9,0,0,0-.3.7q0,.2.3.3a.9.9,0,0,0,.7,0,1,1,0,0,0,.5-.4c.1-.3.2-.9.4-1.5a12.7,12.7,0,0,0,.6-1.8v-.8h-.1a2.6,2.6,0,0,1-.9,0l-.5-.4a.2.2,0,0,1-.2-.2.5.5,0,0,1,0-.5c0-.3.2-.4.4-.5a3.1,3.1,0,0,1,1-.5,1.4,1.4,0,0,1,1.1.1,1,1,0,0,1,.4.5.6.6,0,0,1,0,.6"/><path class="cls-25" d="M75.9,55.2a.4.4,0,0,1-.4.4c-.3,0-.4-.2-.4-.5h.1l-.8.6a4.5,4.5,0,0,0-1,1.4,1.7,1.7,0,0,0-.1.7c0,.1,0,.1.1.1h.3a2.7,2.7,0,0,0,1.3-.8c.2-.1.5-.1.6.1s.2.4,0,.6a3.8,3.8,0,0,1-1.8.9,1.1,1.1,0,0,1-.8-.1.9.9,0,0,1-.5-.8,2.2,2.2,0,0,1,.2-1,3.6,3.6,0,0,1,1.1-1.6l1.1-.9c.2,0,.5-.1.7,0l.3.4v.3"/><path class="cls-25" d="M75.3,55a.6.6,0,0,1,.6,0,.6.6,0,0,1,0,.6c-.3.3-.3.2-.5.2L75,56h-.1c-.1,0-.1-.1,0-.1s0,.1.1.2.2.4.1.6-.4.2-.6,0a.8.8,0,0,1-.4-.4,4.3,4.3,0,0,1-.1-.5,1,1,0,0,1,.5-.6l.6-.2h.2c.1,0-.1.1,0,0"/><path class="cls-25" d="M78.8,55.1a.3.3,0,0,1,.1.5.4.4,0,0,1-.6.1h-.5c-.1,0-.2.3-.2.5a1.7,1.7,0,0,0,.3.7c0,.1.1.1.1.3s.3.3.2.5-.1.4-.2.4l-.3.2-.4.2-1.6.8c-.1.2-.3.2-.5.1A.4.4,0,0,1,75,59c.3-.7,1.2-.8,1.9-1.1l.5-.2a.1.1,0,0,1,.1-.1h-.1a1.4,1.4,0,0,1-.3-.5,1.6,1.6,0,0,1-.3-1.1,1.1,1.1,0,0,1,.5-1,1.1,1.1,0,0,1,.8-.3,1,1,0,0,1,.7.2"/><path class="cls-25" d="M118.5,50.9a.8.8,0,1,1,1.6-.2c0,.1-.2-.4-.1-.3l-.2-.2h1.1l4-.5,5.2-.8c4.3-.6,8.3-1.1,11.1.3a.8.8,0,0,1,.3,1.1.8.8,0,0,1-1.1.4c-2.1-1.1-5.9-.8-10.1-.2l-5.2.8a40.9,40.9,0,0,1-4.1.5h-1.8a1,1,0,0,1-.7-.8"/><path class="cls-25" d="M150.7,51.2a.9.9,0,0,1-.6-1.6,5.7,5.7,0,0,1,2.2-.2c1.3.1,3.2-.2,5.4-.3a19.2,19.2,0,0,1,7,1,.8.8,0,0,1,.5,1.1.9.9,0,0,1-1.1.5,15.6,15.6,0,0,0-6.4-.9c-2,0-3.9.3-5.4.3s-1.3-.1-1.6.1"/><path class="cls-25" d="M181.3,51.7a.8.8,0,0,1-.9.7,1,1,0,0,1-.7-1,1.6,1.6,0,0,1,1-1.1l1.2-.2,6.3-.2a59.5,59.5,0,0,1,8.4.3.8.8,0,0,1-.2,1.6,75.8,75.8,0,0,0-8.2-.3l-6.2.3h-.8c0,.1.2-.1.1-.1"/><path class="cls-25" d="M215.2,52a.8.8,0,0,1-1.1.1A.7.7,0,0,1,214,51a.7.7,0,0,1,.7-.4h1.8c2.5-.1,6.9-1.2,10.2-.6a.8.8,0,0,1,.6,1,.8.8,0,0,1-.9.6c-2.7-.5-7,.5-9.9.6h-1.3"/><path class="cls-25" d="M234.4,52.5a.8.8,0,1,1-1.5.6c-.2-.4.2-.9.4-1l.5-.3,1.1-.2,3.7-.5a36.6,36.6,0,0,1,9.2-.3.8.8,0,0,1-.4,1.6c-1.8-.3-5.3,0-8.6.4l-3.6.4-1,.2h.1c-.1.1.2-.4.2-.3s-.1-.6-.1-.5"/><path class="cls-25" d="M118.1,52a.9.9,0,0,1-.2-1.2.9.9,0,0,1,1.2-.1c.6.5.7,1.1.9,2.2a5.6,5.6,0,0,1,.3,2,49.7,49.7,0,0,1,.2,5.7v.9c0,3.3-.1,6.5-.1,8.6a.8.8,0,1,1-1.6,0c-.1-2.2,0-5.3,0-8.6v-.9c0-2.1,0-4-.1-5.5s-.2-1.4-.3-1.9a6.2,6.2,0,0,0-.3-1c0-.1-.1-.2-.1-.3h.1"/><path class="cls-25" d="M119.3,76.6a.9.9,0,0,1,.9-.8.9.9,0,0,1,.8.8h0v7.8c0,2,.1,4,.5,4.4a.8.8,0,0,1-.2,1.1.8.8,0,0,1-1.1-.1c-1.1-1.3-.8-3.3-.9-5.4V76.6Zm1.7.3a.9.9,0,0,1-.8.8.9.9,0,0,1-.9-.8v-.3a.9.9,0,0,1,.9-.8.9.9,0,0,1,.8.8v.3"/><path class="cls-25" d="M121.2,90.3a.8.8,0,0,1-1.1,0,.9.9,0,0,1,0-1.2c.7-.6,1.5-.4,2.4-.4l4,.2h6.3l4.3-.3,8.1-1.1a.7.7,0,0,1,.9.7.7.7,0,0,1-.6.9l-8.3,1.1-4.3.3h-6.4l-4-.2h-1.3"/><path class="cls-25" d="M154.8,90.2c-.4-.1-.8-.5-.7-.9a.8.8,0,0,1,.9-.7c.3,0,2.2-.2,4.8-.2a29.4,29.4,0,0,1,4.2,0c3.7.1,8.1.4,11.7.3a.8.8,0,0,1,.9.8.9.9,0,0,1-.8.8c-3.8.2-8.2-.2-11.9-.3h-9.1"/><path class="cls-25" d="M189.1,91.1a.8.8,0,1,1,0-1.6l3.9-.3c1.5-.1,3.3,0,5.4,0h7.4a.8.8,0,0,1,0,1.6H193.1c-1.6,0-2.9.3-4,.2"/><path class="cls-25" d="M220.7,91.2a.8.8,0,0,1-1.1.3,1,1,0,0,1-.3-1.2,1.5,1.5,0,0,1,1-.6l1-.3h4a98,98,0,0,1,13.7.5,1,1,0,0,1,.7.9.8.8,0,0,1-.9.7,111.8,111.8,0,0,0-13.5-.5,20.6,20.6,0,0,0-3.8.2h-.8s.1-.2,0-.1"/><path class="cls-25" d="M249.3,52.1a.8.8,0,0,1-.7,1,.8.8,0,0,1-.9-.7h0s.1.2.1.1.1.2.1.2.2.2.2.1h.2c-.2,0,.5-.1.4,0l.3-.2c-.1.1.2-.2.1-.2s.1-.2.1-.1h0v5.4c.1,2.3.3,4.9.8,5.8a.8.8,0,0,1-.3,1.1.9.9,0,0,1-1.2-.3c-.9-1.6-.9-4.2-.9-6.6a39.3,39.3,0,0,1,0-4.9v-.7h0c0-.1,0-.2.3-.5a1.1,1.1,0,0,1,1.1,0c.1.1.2.2.2.3a.3.3,0,0,1,.1.2"/><path class="cls-25" d="M248.6,70.2a.8.8,0,0,1,1.6-.2c.1.4,0,.2,0,.2h0a2.5,2.5,0,0,1-.1.8c-.1.8-.2,1.9-.3,3.1s-.2,2.4-.2,3.4.1.8.1,1.1v.2h-.3a.8.8,0,0,1-.5,1.5,1.2,1.2,0,0,1-.9-1.1,7.1,7.1,0,0,1-.1-1.5,21,21,0,0,1,.1-3.5c.1-1.2.3-2.4.4-3.2s.1-.6.1-.8h0m1.6.2a1,1,0,0,1-.9.7.8.8,0,0,1-.7-1h0s-.1.1.1-.2a.7.7,0,0,1,1-.4.8.8,0,0,1,.5,1c-.1.1,0-.1,0-.1h0"/><path class="cls-25" d="M248.1,83.3a.8.8,0,0,1,1-.5.7.7,0,0,1,.5,1h0v2.8a8.5,8.5,0,0,1,0,1.6v.5a3.5,3.5,0,0,1-.1.6v.4h0s-.1-.2,0-.1-.1-.1-.1-.1-.1-.1,0-.1l-.3-.2c.1,0-.6-.1-.5-.2s-.3.2-.3.1l-.2.2c.1-.1,0,.1,0,0v-.2a.9.9,0,0,1,1.1-.5.8.8,0,0,1,.4,1.1c-.1.2-.1.4-.3.6s-.1.3-.6.4a1.9,1.9,0,0,1-.8-.3.8.8,0,0,1-.1-.4,3.3,3.3,0,0,1,0-1,4.3,4.3,0,0,1,.1-.5V83.8c0-.1-.1,0,0-.5h.1m1.6.5a.9.9,0,1,1-1.7.1v-.2h0s.1.3.1.1a.7.7,0,0,1,.5-1,.7.7,0,0,1,1,.5v.2h.1v.2"/><path class="cls-25" d="M256.3,90.6a.8.8,0,0,1,.5,1.5h.3c-.1,0,.1-.2.1-.2h0V92a2.5,2.5,0,0,0-.2,1c-.1.9-.2,2-.3,3.1a19.9,19.9,0,0,1-.2,2.7v.9c0,.2.1.3-.2.6a1.1,1.1,0,0,1-.5.4l-.7-.2a.5.5,0,0,1-.3-.5,11,11,0,0,1-.2-2.8,15.5,15.5,0,0,1,.3-4.7,3.6,3.6,0,0,1,1.9-2.5,2,2,0,0,1,1.7-.2,2.9,2.9,0,0,1,1,.7A3,3,0,0,1,260,92a5.7,5.7,0,0,1-.4,1.4l-.8,1.4c-.1.2-.2.3-.2.4h0l.2.4c.5,1.2.9,2.4,1.4,2.6a.8.8,0,1,1-.7,1.5c-1.5-.7-1.8-2.4-2.2-3.4a2,2,0,0,1-.3-1.6,1.6,1.6,0,0,1,.4-.7,6.3,6.3,0,0,1,.7-1.2,4.5,4.5,0,0,0,.2-.8c0-.2,0-.3-.1-.4s-.1-.2-.2-.2h-.5a1.9,1.9,0,0,0-1.1,1.4,20.3,20.3,0,0,0-.2,4.3,23.9,23.9,0,0,0,.2,2.4h-.1c.1,0,0-.2,0-.1s-.2-.2-.1-.2h-1.1c.1,0-.1.2-.1.2s-.1.2-.1.1h0v-.9c.1-.7.1-1.7.2-2.7s.2-2.3.3-3.2a5,5,0,0,1,.2-1.2,1.1,1.1,0,0,1,.1-.5,1,1,0,0,1,.6-.5"/><path class="cls-25" d="M263.3,97a.9.9,0,1,1,1.1,1.3c-.1.1.1-.2.1-.1a4.8,4.8,0,0,0-.4,1.5c-.1.4-.1.7,0,.8h-.3l.5-.3.9-.9a.8.8,0,0,1,.7-.5c.4-.1.7.2.9.3s.2.3.2.4a2,2,0,0,1,.1.7c.1.5,0,1.1.1,1.5v.3h-.1c.1,0,0,0,.1-.1l.9-.4a.7.7,0,0,1,1.1.2.8.8,0,0,1-.2,1.2l-1.3.6a1.7,1.7,0,0,1-1.2,0,1.4,1.4,0,0,1-.8-.9,1.5,1.5,0,0,1-.2-.9V99.8h0s.1.2,0,.1l.3.2h.7l-.2.2a4.7,4.7,0,0,1-1,.9,2.1,2.1,0,0,1-1.6.8,1.1,1.1,0,0,1-.8-.3.8.8,0,0,1-.4-.7,2.6,2.6,0,0,1,0-1.5,6.1,6.1,0,0,1,.3-1.3.8.8,0,0,1,.2-.5c0-.2,0-.3.3-.6"/><path d="M123.8,110.3a.4.4,0,1,1-.8,0v-.2h0c0-.1.1.1.1.1s.1.1,0,.1.2.1.1,0h.5c-.1,0,.1-.1.1-.1h0a8.7,8.7,0,0,0-.2,1,14.7,14.7,0,0,0,0,2.1v.4h.1l.5-.3a5.5,5.5,0,0,0,1-1.1l.5-.7.4-.2.5-.2.3.3a.3.3,0,0,0,.1.2v.4c0,.3-.1.6-.1.8v.9l.2.3.5.2a2.4,2.4,0,0,0,1.5-.5c.2-.1.5-.1.6.1s.1.5-.1.6a3.6,3.6,0,0,1-2.1.6l-.9-.4a1.6,1.6,0,0,1-.5-.8,3.4,3.4,0,0,1,0-1v-.8c.1-.1,0-.2,0-.3h.1c-.1,0,.1.2,0,.1h.2a.1.1,0,0,1,.1-.1h-.2l-.4.6a14.2,14.2,0,0,1-1.2,1.3l-.7.3c-.3.1-.5.2-.8,0a1,1,0,0,1-.4-.5v-.5a8.8,8.8,0,0,1,0-2.3,8.7,8.7,0,0,1,.2-1V110h0c.1,0,.1,0,.1-.1s.2-.2.4-.1a.4.4,0,0,1,.3.2c.1.2,0,.2,0,.2v.2"/><path d="M138.3,111.8a.5.5,0,0,1-.5.3.4.4,0,0,1-.3-.5.9.9,0,0,1,.6-.7l1-.2a8.1,8.1,0,0,0,2.2-.1c.3,0,.5.1.5.3a.3.3,0,0,1-.3.5c-.9.2-1.8.1-2.4.2h-.8"/><path d="M138.7,113a.5.5,0,0,1-.2.6.3.3,0,0,1-.5-.1c-.1-.1-.2-.4-.1-.5s.2-.3.4-.3l.6-.2h2a.3.3,0,0,1,.5.3c0,.3-.1.5-.4.5h-2.3c-.1,0,0-.3,0-.2h0"/><path d="M124,123.4c.2.1.4.3.3.5a.3.3,0,0,1-.5.3h-.2a.5.5,0,0,0-.2.4,1.7,1.7,0,0,0-.1,1c0,.3,0,.6.1.7h.7a3.1,3.1,0,0,0,1.3-.5,9.3,9.3,0,0,0,1.4-1.4,4.1,4.1,0,0,0,.8-1.4c.1-.2.1-.4,0-.4h-.1l-.8.2a1.9,1.9,0,0,0-.8.3.9.9,0,0,0-.3.5.4.4,0,0,1-.5.2c-.3,0-.4-.2-.3-.5a1.6,1.6,0,0,1,.6-.8l1.1-.5,1-.2h.5l.4.4a2.1,2.1,0,0,1,0,1.1,5.9,5.9,0,0,1-1,1.6,10.6,10.6,0,0,1-1.5,1.5,2.8,2.8,0,0,1-1.9.7,1.5,1.5,0,0,1-1.2-.4c-.3-.3-.3-.8-.4-1.1a5.1,5.1,0,0,1,.2-1.3,2,2,0,0,1,.4-.8,1.7,1.7,0,0,1,1-.3"/><path d="M138.5,123.9a.5.5,0,0,1-.6-.2.4.4,0,0,1,.2-.5,4.3,4.3,0,0,1,2.3-.1,7.3,7.3,0,0,0,2,.1.4.4,0,0,1,.5.3c.1.2-.1.4-.3.5a9.1,9.1,0,0,1-2.3-.1,5.1,5.1,0,0,0-1.8,0"/><path d="M139.1,124.6a.4.4,0,0,1,.4.4.7.7,0,0,1-.5.4h-.6a.4.4,0,0,1,0-.5c.2-.3.2-.2.3-.2h2.4a.4.4,0,0,1,.4.4c0,.2-.1.4-.3.4H139c-.1,0,.1-.1,0-.1v-.4c0,.1-.1-.1-.1-.1h.1"/><path d="M150.8,110.5a.5.5,0,0,1-.3.5c-.3,0-.5-.1-.5-.3h.4c-.1,0-.2.3-.3.6a2.2,2.2,0,0,0-.1,1.4v.4h.4a.6.6,0,0,0,.5-.2l.7-.6.3-.6c.1-.1.1-.2.2-.2s0-.1.1-.2h.6a.3.3,0,0,1,.1.2.3.3,0,0,1,.1.2.4.4,0,0,0-.1.3c0,.2-.1.5-.1.7v.4l.5.3c.1.1.2,0,.4-.1s.5-.4.7-.6l.7-.6c.2-.3.4-.7.8-.8a.7.7,0,0,1,.9,0c.2.2.2.3.2.4v1.4h.3l1-.5a1.6,1.6,0,0,1,1.5.1,1.7,1.7,0,0,1,.8,1.3.3.3,0,0,1-.3.5.4.4,0,0,1-.5-.3,2.6,2.6,0,0,0-.4-.9h-.8l-1,.5-.6.2h-.3c-.1-.1-.3-.1-.3-.3a1,1,0,0,1-.2-.9v-.6h.1l-.7.6-.6.6a3,3,0,0,1-.8.8,1.7,1.7,0,0,1-1.2.2,1.8,1.8,0,0,1-1-.9v-.7c0-.2.1-.5.1-.7v-.2h.1c-.1-.1.1.1,0,.1h.1c0-.1.3,0,.2,0h.2c-.1.1.1,0,.1,0h0l-.2.3a6.1,6.1,0,0,1-.4.6,6,6,0,0,1-.8.8,1.2,1.2,0,0,1-1,.3h-.6a.8.8,0,0,1-.5-.5.7.7,0,0,1-.1-.6,3.7,3.7,0,0,1,.1-1.8,1.6,1.6,0,0,1,.5-.9c0-.1.1-.1.2-.2h.3c.2,0,.3.1.3.2l.2.3"/><path d="M166.8,105.7a.4.4,0,0,1,0-.8.4.4,0,0,1,.4.3v.3c-.1,0-.1.1-.1.2a3.4,3.4,0,0,0-.3.8,18.5,18.5,0,0,0-.9,2.3,17.2,17.2,0,0,0-.7,3.7,9.7,9.7,0,0,0-.1,1.6v.4H165c0,.1-.1.2-.4.2s-.3-.1-.3-.2h-.1a3.7,3.7,0,0,1-.1-1.1,4.4,4.4,0,0,0-.2-1.3c0-.2-.1-.4-.1-.6s-.1-.1-.1-.2a.5.5,0,0,1,.3-.4h.3l.3.2a2.7,2.7,0,0,0,1.9.4,3.5,3.5,0,0,0,1.3-.5l.4-.5h0s.1.2,0,.2.2.1.2.1h.3c-.1,0,0-.1,0-.1h0a2.3,2.3,0,0,0-.6,1.1q-.2.5,0,.6h.6c.4-.1.8-.6,1.2-1.1l.7-.6h.6a1,1,0,0,1,.5.4.5.5,0,0,1,.1.6v.6h.1l.6-.3.7-.2a.8.8,0,0,1,.7.1l.4.6a3.2,3.2,0,0,1,.3,1.4.5.5,0,0,1-.5.4c-.2,0-.4-.2-.3-.4a3.6,3.6,0,0,0-.2-1.1l-.2-.2h-.6l-.6.3-.3.2h-.5a.9.9,0,0,1-.5-.9V112h0a2.3,2.3,0,0,1-.5.5,3.9,3.9,0,0,1-1.7,1.3H168a1.1,1.1,0,0,1-.7-.6,2.1,2.1,0,0,1,0-1.1,3.6,3.6,0,0,1,.8-1.5l.2-.2h.3c.1,0,.3,0,.3.2a.3.3,0,0,1,.1.2.4.4,0,0,1-.1.3l-.7.6a2.9,2.9,0,0,1-1.7.7,3.7,3.7,0,0,1-2.4-.5h.4a.8.8,0,0,1,.2.6,5.9,5.9,0,0,1,.2,1.4,4.6,4.6,0,0,1,.1,1h0s-.2-.1-.1-.1-.2-.1-.1-.1h-.3c0-.1-.2.1-.2,0s0,.1,0,.1h0v-1.9a30.1,30.1,0,0,1,.8-3.9q.5-1.4.9-2.4l.3-.7c0-.1.1-.1.1-.2h0c0-.1.2.2.2.1h.2"/><path d="M150.5,122.7a.3.3,0,0,1,.3.5c0,.2-.3.3-.5.3h0v.5a.2.2,0,0,0,.2.2l.6.2a3,3,0,0,0,2.1-1v-.5h0l-.4-.2h-1.3a.5.5,0,0,1-.2.6c-.2.1-.4.1-.5-.1a1.4,1.4,0,0,1-.2-.6,1,1,0,0,1,.4-.5l.9-.2a2.1,2.1,0,0,1,2,.5,1.3,1.3,0,0,1,.1.8.9.9,0,0,1-.3.7,3.7,3.7,0,0,1-2.8,1.4l-.9-.4a1,1,0,0,1-.6-.8,1.4,1.4,0,0,1,.1-.9l.3-.4a.7.7,0,0,1,.6-.1"/><path d="M160.4,117.7a.5.5,0,0,1-.4.5.7.7,0,0,1-.5-.4v-.2h.1c-.1-.1.2.1.1.1h.3l-.4.9a20.4,20.4,0,0,0-.9,2.2,6.5,6.5,0,0,0-.2,1.1v.4c.1,0-.1-.1,0-.1h1.2a1.3,1.3,0,0,1,1,.7,1.7,1.7,0,0,1,.2,1.2,2.6,2.6,0,0,1-2,1.5,1.6,1.6,0,0,1-1.2-.1c-.2-.2-.4-.3-.4-.6a1.5,1.5,0,0,1-.1-.7c.1-.2.3-.4.5-.3a.3.3,0,0,1,.3.5v.3h.1a1.1,1.1,0,0,0,.6,0,2.1,2.1,0,0,0,1.4-.9,1.3,1.3,0,0,0-.1-.6l-.4-.3h-1.3a.5.5,0,0,1-.5-.4,2,2,0,0,1-.1-.7,9.3,9.3,0,0,1,.2-1.4l.9-2.3a4.4,4.4,0,0,1,.6-1c.1-.1.1-.2.3-.2s.4,0,.5.1a.7.7,0,0,1,.2.6"/><path d="M162.2,126a.4.4,0,0,1-.6,0,.6.6,0,0,1,0-.6L163,124l.8-1v-.3h.1c-.1-.1.1,0,.1,0h0v.2c-.1.2-.1.4-.2.6s0,.6.1.6h.4a3.4,3.4,0,0,0,1.2-.6l1.1-.8.6-.4h.5l.2.3a.6.6,0,0,1,.2.5,5.4,5.4,0,0,1-.1.8h.7l1.1-.2a1.9,1.9,0,0,1,1.3,0,.7.7,0,0,1,.4.5,2.2,2.2,0,0,1,.1.8c-.1.2-.3.4-.5.3s-.4-.2-.3-.4v-.4H170l-1.2.2a1.7,1.7,0,0,1-1.2-.1,1.3,1.3,0,0,1-.4-.9,3.5,3.5,0,0,1,.1-.6V123h.3l-.5.3-1.1.9-1.4.7h-.7a.9.9,0,0,1-.7-.3,1.5,1.5,0,0,1-.2-1.3l.3-.7c0-.2.2-.4.4-.6h.6l.3.2a.6.6,0,0,1,.1.4,1.4,1.4,0,0,1-.2.6,4.7,4.7,0,0,1-.9,1.2l-1.4,1.5"/><path d="M159.5,118a.4.4,0,0,1-.2-.5.5.5,0,0,1,.5-.3.4.4,0,0,1,.3.4c0,.2,0,.2-.1.2a.8.8,0,0,1-.1.3,1.3,1.3,0,0,1-.3.7c-.2.7-.5,1.5-.8,2.4s-.6,1.7-.8,2.4-.1.5-.1.7h0s-.1-.1,0-.1-.2-.1-.1,0h-.1a.5.5,0,0,1,.3.5c-.1.2-.3.4-.5.3a.4.4,0,0,1-.4-.4v-.4c0-.2.1-.5.1-.8l.8-2.5c.3-.8.6-1.7.9-2.3a3.4,3.4,0,0,1,.3-.8c0-.1,0-.2.1-.2h0l.2.2"/><path d="M149.3,36.2a.5.5,0,0,1,.6-.2.4.4,0,0,1,.1.6c0,.1-.1.2-.2.3s0,.1-.2.2-.4.1-.5-.1a.4.4,0,0,1,.1-.6h0l1.7-1.5,1.9-1.6a4.1,4.1,0,0,1,1.6-1h.3c.1-.1.3-.1.5.1s.2.3.2.5v.5c-.1.4-.3.8-.4,1.3l-.5,1.2c0,.1-.1.3-.1.4h0c0,.3-.1.5-.4.5s-.4-.1-.4-.3.1-.6.2-.9.3-.8.4-1.2a7.6,7.6,0,0,0,.4-1.1v-.4h.1c-.1-.1.2,0,.1,0h-.1l-1.4.9-1.8,1.6-1.3,1.1-.4.3c0,.1,0,.1-.2.2l-.4-.7h0c0-.1.1-.1.1-.2"/><path d="M156.8,35.8a.4.4,0,1,1,.8,0c0,.7-.4,1-.5,1.6a.5.5,0,0,1-.5.4.5.5,0,0,1-.3-.5,8.1,8.1,0,0,1,.5-1.5"/><path d="M162.5,32.9a.3.3,0,0,1-.3.5c-.2.1-.4-.1-.5-.3h.1l-.4.3a2.8,2.8,0,0,0-.1,1,5.8,5.8,0,0,0,.5,1.4,2.6,2.6,0,0,1,.2,2.1,1.1,1.1,0,0,1-.9.4,1.6,1.6,0,0,1-.7,0,1.6,1.6,0,0,1-.8-1.2,1,1,0,0,1,.2-.9l.7-.5,2-.8a8.5,8.5,0,0,0,1.7-1l.4-.4h-.1l-.4-.3a2,2,0,0,0-1.5.1.4.4,0,0,1-.6-.2.5.5,0,0,1,.2-.6,3.4,3.4,0,0,1,2.2-.1l.7.5c.2.3.4.6.3.9a1.4,1.4,0,0,1-.7.8,7.8,7.8,0,0,1-1.8,1.1l-2,.8-.5.4h0a3,3,0,0,0,.3.6h.5a1.9,1.9,0,0,0-.2-1.4,13.1,13.1,0,0,0-.5-1.5,2.3,2.3,0,0,1,.2-1.6,1.6,1.6,0,0,1,.9-.7h.6a.5.5,0,0,1,.3.5"/><path d="M170.8,38.2a.4.4,0,0,1-.6.3.5.5,0,0,1-.2-.6h0l.2-.6.5-.6a3.9,3.9,0,0,1,1.1-.6h.6c.2.1.4.2.4.4l.2.4a2.8,2.8,0,0,1,.1.9v.6c0,.1-.1-.1-.1-.1h.1l.6-.2,2-1c.2-.1.5-.1.6.1a.5.5,0,0,1-.2.6l-2,1-.9.3h-.5a.8.8,0,0,1-.4-.4,2.7,2.7,0,0,1,0-.9c0-.2-.1-.5-.1-.7s0-.2-.1-.2h.1a.1.1,0,0,0-.1.1,1.2,1.2,0,0,0-.8.4c-.2.2-.3.2-.3.3a2.1,2.1,0,0,0-.2.6h0m-1.5-.1c.1.2-.1.4-.3.4a.3.3,0,0,1-.5-.3h0c0-.2.1-.2.1-.2a7.6,7.6,0,0,1,1.1-1.6h.2a.1.1,0,0,1,.1-.1.2.2,0,0,1,.3,0,.5.5,0,0,1,.4.2.4.4,0,0,1,.1.3,2,2,0,0,1,.1.7.8.8,0,0,1-.1.7h0c0,.2-.1.5-.3.5s-.5-.1-.5-.3v-.4a1.1,1.1,0,0,0,0-.9h0s.2.1.1,0h.2c-.1,0,.1-.1.1-.1h-.1a9.1,9.1,0,0,0-1,1.3h0m.1-3.3a.5.5,0,0,1,.5-.4c.2.1.4.3.3.5s-.3,1.4-.4,2-.1.4-.2.6a1.4,1.4,0,0,1-.2.6c0,.1-.1.2-.1.3h-.2a.4.4,0,0,1-.5-.2c-.1-.2-.1-.4.1-.5h-.1c.1-.1,0-.1.1-.1s.1-.3.1-.5a1.4,1.4,0,0,0,.2-.6,16.2,16.2,0,0,1,.4-1.9"/><path d="M184.5,36.1a.3.3,0,0,1-.5-.1c-.1-.2-.1-.5.1-.6s1.4-1.7,2.4-2.7a4.6,4.6,0,0,1,1-.7h.3l.3.2c.2.1.2.3.2.5a4.2,4.2,0,0,1-.6,2.1l-.3.8v.2h0s-.2-.1-.1-.1h-.2a.5.5,0,0,1,.4.5c-.1.2-.3.4-.5.3s-.4-.3-.4-.5,0-.3,0-.4a3.6,3.6,0,0,1,.4-.9,13.2,13.2,0,0,0,.5-1.8h.1c-.1,0,.2.1.1.1h.1l-.7.5L185.5,35l-.6.7c-.1.2-.2.2-.4.4"/><path d="M190.1,35.2c.2-.2.4-.1.6.1a.4.4,0,0,1-.1.5l-.7.8c-.1.2-.1.3-.2.4v.2c.2.1.1.4-.1.5s-.4.1-.5-.1a1,1,0,0,1-.2-.7l.3-.7a2.2,2.2,0,0,1,.9-1"/><path d="M195.3,33.4a.4.4,0,0,1-.5.2c-.2,0-.3-.3-.3-.5h0c0-.1.1.1.1.1h-.3a.2.2,0,0,0-.2.2.1.1,0,0,0,0,.2c0,.1.1.2.2.3h.5c.3.2.6.3.8.7a1.3,1.3,0,0,1-.1.9,2.3,2.3,0,0,1-.7.7,2.1,2.1,0,0,1-2,.5c-.2,0-.3-.3-.2-.5a.4.4,0,0,1,.5-.2,2.4,2.4,0,0,0,1.2-.4l.5-.5v-.2l-.3-.2a1,1,0,0,1-.9-.4l-.3-.6a1.1,1.1,0,0,1,0-.8c.2-.2.3-.5.7-.6h.8c.1.1.3.1.4.3a.7.7,0,0,1,.1.6"/><path d="M195.8,33.3a.4.4,0,0,1-.5.2c-.2-.1-.4-.3-.3-.5s.4-.5.6-.7l1-.2a15.8,15.8,0,0,1,2.8.2c.2,0,.4.2.3.4a.4.4,0,0,1-.4.4l-2.7-.2-.6.2a.2.2,0,0,0-.2.2"/><path d="M200.8,34.3a.3.3,0,0,1,.5,0c.2.1.3.3.1.5a7,7,0,0,0-.6.9l-.2.3v.4h-.1l.4-.2,1-.8.6-.3h.3l.4.2a.4.4,0,0,1,.2.4c0,.1-.1.2-.1.3a.7.7,0,0,1-.1.5.4.4,0,0,0,.1.3c0,.1-.1,0-.1,0h.4l1.1-.8.8-.6.4-.2.4.2c.1.1.2.2.2.3a2.5,2.5,0,0,1-.2,1v.3h.5a5.6,5.6,0,0,0,1.3-.7,1,1,0,0,1,.5-.4h.6a1,1,0,0,1,.4.5,1.6,1.6,0,0,1,0,.7c0,.2.1.3.2.3h.3l.6-.3a1.6,1.6,0,0,1,1.5-.1,4.1,4.1,0,0,1,1.3,1,.3.3,0,0,1-.1.5.3.3,0,0,1-.5,0,4.6,4.6,0,0,0-1-.7,1.4,1.4,0,0,0-.9,0l-.6.3a1.4,1.4,0,0,1-.9.1,1.2,1.2,0,0,1-.7-1.1.8.8,0,0,1,0-.5h0s.1.1,0,.1h.1l-.4.2a5.4,5.4,0,0,1-1.5.9h-.6c-.3,0-.5,0-.7-.3a1.3,1.3,0,0,1-.2-.9,4.5,4.5,0,0,0,.2-.8h0s.1.2,0,.1.2.2.2.1.1,0,.1.1h-.1l-.7.6L204,37l-.6.2H203l-.3-.2a1.3,1.3,0,0,1-.3-1c0-.2.1-.4.1-.6h.1s.1.1,0,.1h.1a.4.4,0,0,0-.3.2l-1.1.8-.4.2-.3.2h-.4l-.3-.3a.4.4,0,0,1-.1-.3,1.5,1.5,0,0,1,.1-.7,1.4,1.4,0,0,1,.2-.6l.7-.9"/><path d="M214.9,32.4a.5.5,0,0,1-.4-.5.3.3,0,0,1,.5-.3c.2,0,.5,0,.6.2a1,1,0,0,1,.4.5,1.4,1.4,0,0,1-.3,1.1,2.9,2.9,0,0,1-.7.8l-.3.3h1.9a.5.5,0,0,1,.4.5.3.3,0,0,1-.5.3h-1.6l-.6-.2-.3-.3a.6.6,0,0,1-.1-.4,1.2,1.2,0,0,1,.6-.8l.5-.6a1.7,1.7,0,0,0,.2-.5h-.3"/><path class="cls-26" d="M125.5,55.1a.5.5,0,0,1-.5-.4c0-.3.2-.4.5-.4h3.9c0-.1-.1,0-.1,0h0s-.1.1-.1,0l.5.7c-.3.2-.4.1-.6.1h-1.9a4.7,4.7,0,0,0-1.2,0h.1c0,.1.1-.1.1-.1s0-.2,0-.1h0s-.1-.1,0-.1h-.1a1.4,1.4,0,0,0,.6.3.4.4,0,0,1,.2.5c-.1.3-.3.4-.5.3s-.7-.3-.8-.5a.4.4,0,0,1-.1-.6c.1-.2.2-.2.3-.2h3.4a.4.4,0,1,1,.5.7h-4.2Zm0-.8c.3,0,.5.1.5.4a.5.5,0,0,1-.5.4h0a.5.5,0,0,1-.5-.4c0-.3.2-.4.5-.4h0"/><path class="cls-26" d="M125.5,54.5c.2.1.2.4.1.6a.6.6,0,0,1-.6.1h.3c0,.1.1-.1.1-.1h0l.3,1.1a5.4,5.4,0,0,1,.5,1.1l.5.8c.1.1-.1-.1-.1,0s-.2-.1-.1-.1-.2.1-.1.1-.1,0-.1,0h-.1c.1-.1,0,.1,0,0h0l-.5-1-.3-.6c-.2-.5-.3-1-.4-1.2a.4.4,0,0,1,.4-.4c.2-.1.4.1.4.3s.2.5.3.9.3,1,.5,1.5l.3.6c0,.1,0,.1.1.1a.4.4,0,0,1-.4.8,2.1,2.1,0,0,1-.8-1.2,6.6,6.6,0,0,0-.5-1.5,8.1,8.1,0,0,0-.3-1.1h.8a4.1,4.1,0,0,1,.3,1l.3.5a4.3,4.3,0,0,0,.4.7c.1.2.3.4.2.7a.5.5,0,0,1-.2.4h-.3a.2.2,0,0,1-.3-.1,3.6,3.6,0,0,1-.7-1,6.1,6.1,0,0,1-.5-1.2,9.3,9.3,0,0,1-.4-1.3,1.5,1.5,0,0,1,.1-.6.5.5,0,0,1,.4-.2h.4"/><path class="cls-26" d="M128,58.2c0,.2-.2.3-.4.3a.4.4,0,0,1-.4-.4h0l.4-.8.6-1a3.6,3.6,0,0,1,.5-.9.3.3,0,0,1,.3-.3h.3a.2.2,0,0,1,.2.2.6.6,0,0,1,0,.6,6.4,6.4,0,0,1-1.2,2.5l-.3.4a.6.6,0,0,1-.5.3c-.2-.1-.4-.2-.4-.3a.4.4,0,0,1-.1-.3,2,2,0,0,1,.1-.7c0-.2.2-.4.4-.3s.4.2.4.5a1,1,0,0,0-.1.4h0c0,.1-.2-.1-.1-.1s-.2-.1-.2-.1h-.1l.3-.3a7.2,7.2,0,0,0,1-2.2.1.1,0,0,0,.1-.1h0s.2.2.1.2h.4l-.4.8c-.4.8-.9,1.6-.9,1.7h0m1-3.3a.4.4,0,0,1,.6-.1.3.3,0,0,1,.1.5h0v.2l-.2.3-.6,1.1a4.4,4.4,0,0,1-.6,1c-.1.2-.1.3-.2.4h-.1a.5.5,0,0,1-.6,0c-.1-.2-.1-.5.1-.6h-.1c.1,0,.1-.1.2-.3a7.3,7.3,0,0,0,.5-.9l.7-1.2a.8.8,0,0,1,.2-.4h.1m.6,1.1c-.2.2-.4.3-.6.2a.4.4,0,0,1-.2-.5c.1-.1.1-.2.1-.4h.1c-.1-.2-.1-.5.1-.6a.5.5,0,0,1,.6.2.6.6,0,0,1,0,.6,4.3,4.3,0,0,1-.1.5"/><path class="cls-26" d="M127.5,57.1c0,.2-.2.3-.4.3s-.4-.3-.3-.5-.1-.1-.1-.2-.1-.2-.2-.3l-.5-.2h0c0,.1.1.1.1.2h.2l.8-.4.5-.4h0v.2c0-.1.2.2.2.1h.2a4.1,4.1,0,0,0-1.1.6l-.6.4-.4.2h0s.1-.1,0-.1h.1v-.2h-.1c.1,0-.1-.1-.1-.1h.5l.6-.3.5-.3h0s-.1.2-.1.1v.2c0-.1.1.2,0,.1h-.5c0,.1.1,0,0,0s.1-.1.1-.1h0c.1.2,0,.4-.3.5s-.4,0-.5-.3a.8.8,0,0,1,.2-.5h1.5l.3.2v.4a.3.3,0,0,1-.1.2h-.2l-.5.3-.9.4h-.9c-.1,0-.2-.1-.2-.3s0-.3.1-.4a.1.1,0,0,0,.1-.1h.1l.3-.2.7-.4.7-.5a1,1,0,0,1,.8-.2h.1a.2.2,0,0,1,.2.2c.1.2.1.3,0,.4s0,.1-.1.2a2.2,2.2,0,0,1-.7.6l-.8.5h-.5a.7.7,0,0,1-.6-.1l-.4-.5V56l.4-.4c.1-.2.3-.2.6-.2l.8.4.5.6a.8.8,0,0,1,0,.7"/><path class="cls-26" d="M129.3,27.3c.2-.1.5,0,.5.2a.5.5,0,0,1-.2.6l-1,.3-1.8.6c-.2.1-.5,0-.5-.2a.4.4,0,0,1,.2-.5,6.7,6.7,0,0,1,1.8-.7l1-.3h0M124.4,29a.7.7,0,0,1-.5-.4.4.4,0,0,1,.4-.4h1.4a17.7,17.7,0,0,0,2-.4l1-.3h.6c.3-.1.5,0,.5.3a.4.4,0,0,1-.2.5h-.7l-1,.2a7.1,7.1,0,0,1-2.2.5h-1.3m0-1.4c.2,0,.5.1.5.3a.4.4,0,0,1-.2.5h-.2s.1-.1,0-.1h.1V28c0,.1-.2-.2-.1-.2h.1l2-.4h1.5l.5.2.2.3v.3c-.1.3-.2.3-.4.4h-1l-2,.2h-1a.5.5,0,0,1-.5-.4c0-.3.2-.4.5-.4h1l1.8-.2h.8v.2h-1.3l-2,.4h-.6l-.2-.2a.3.3,0,0,1,0-.4c0-.2.1-.2.2-.2l.3-.2"/><path class="cls-26" d="M126.5,24.6a.4.4,0,0,1,.5-.1.5.5,0,0,1,.2.6h-.1l-.7,1.1c-.2.4-.5.8-.6,1.1s-.1.3,0,.4h0a.4.4,0,0,1,0,.6.3.3,0,0,1-.5,0c-.2-.1-.3-.4-.4-.6s.1-.5.1-.7.5-.9.7-1.3l.8-1.2h0m-.5,2.3c-.1.2-.4.2-.6.1a.3.3,0,0,1-.1-.5h0l.8-1.2.3-.4c0-.1,0-.1.1-.1h0c.1-.2.3-.2.5-.1a.4.4,0,0,1,.1.6h0l-.3.5-.8,1.2h0m1.3-3.5a.3.3,0,0,1,.1-.5c.2-.2.4-.1.6.1v.2c.1.5-.3.8-.5,1.2a9.5,9.5,0,0,1-1,1.7l-.5.7h0a.5.5,0,0,1-.6.1c-.2-.1-.2-.4-.1-.6h.1l.4-.6a14,14,0,0,0,1-1.6l.3-.6v-.2h0c0-.1.1.1,0,0s.1.2.1.1m-2.1,4c-.1.2-.4.2-.6.1a.5.5,0,0,1,0-.6l.6-.7,1.2-1.9.5-.7.3-.5h.1c0-.1,0-.1.1-.1h.3c.2,0,.4.2.3.4a.4.4,0,0,1-.4.4h.3l-.3.4-.5.7a13.7,13.7,0,0,1-1.3,2l-.6.7m2.1-2.9c0,.3-.1.4-.4.5a.4.4,0,0,1-.4-.4v-.2h0s.2.1.1.1h.3l-.3.6-.6,1.1-.4.7-.3.4h-.1c-.1.2-.4.2-.6.1a.5.5,0,0,1,0-.6h0l.3-.3a2.5,2.5,0,0,1,.4-.7,3.7,3.7,0,0,1,.5-1.1,2.2,2.2,0,0,1,.7-.9h.3l.4.2a1.3,1.3,0,0,1,.1.6"/><path class="cls-26" d="M128,25.1a.3.3,0,0,1-.3.5.5.5,0,0,1-.5-.4V25h.6s.1-.2.1-.1h.1c-.1,0-.1,0-.1.1s.1.4.1.7a5.4,5.4,0,0,0,.3,1l.3.7a.1.1,0,0,1,.1.1h-.1c.1.1-.3,0-.2,0h-.2c.1,0,0,.1,0,.1h0v-.3a3.8,3.8,0,0,0-.1-1,2.8,2.8,0,0,0-.1-.9l-.3-.8h0c-.1,0,.1.1.1.1h.2a4.9,4.9,0,0,0,.4,2.2,1.1,1.1,0,0,0,.3.5h-.1v-.9l-.3-.8-.2-.5h.2s.2-.1.1-.1.1,0,.1,0a.5.5,0,0,0,0,.4,2.8,2.8,0,0,0,.1.9,1.1,1.1,0,0,0,.3.8h.1a.1.1,0,0,1-.1.1h-.1c0-.1.1.1,0,.1h0v-.2l-.5-.2a.4.4,0,1,1,0-.8,2.9,2.9,0,0,1,1,.3l.3.4a.6.6,0,0,1,.2.5,1,1,0,0,1-.4.5c-.1,0-.4.1-.6,0s-.4-.2-.5-.5a1.5,1.5,0,0,1-.4-1,4.3,4.3,0,0,1-.2-1.1,1.1,1.1,0,0,1,.3-.9.5.5,0,0,1,.4-.2l.3.2c.1.1.2.2.2.3a1.4,1.4,0,0,1,.2.6,10.4,10.4,0,0,1,.4,1v1.2a.3.3,0,0,0-.1.2l-.3.2a.4.4,0,0,1-.5-.1h-.2a2.2,2.2,0,0,1-.7-.9,5.1,5.1,0,0,1-.4-2.7l.2-.3a.5.5,0,0,1,.4-.2c.2,0,.3.1.3.2a.2.2,0,0,1,.2.2,2.3,2.3,0,0,1,.5,1,3.7,3.7,0,0,1,.1,1.1,2.8,2.8,0,0,1,.1.9v.5c0,.1,0,.2-.2.4s-.3.2-.4.1h-.3l-.2-.3-.3-.8a2.8,2.8,0,0,1-.4-1.2,2.5,2.5,0,0,1-.1-.8v-.3a.1.1,0,0,0,.1-.1c0-.1,0-.2.3-.3h.4a.3.3,0,0,0,.1.2h0v.3"/><path class="cls-26" d="M125.7,27.9c-.2.1-.4-.1-.5-.3a.4.4,0,0,1,.2-.5h.6l.4-.2.3-.2c.3,0,.5.1.5.4s-.1.4-.3.4h.1l-.6.3-.5.2h-.2m2.1-2a.5.5,0,0,1-.3.6.5.5,0,0,1-.5-.3h-.1l-.8.6a2.8,2.8,0,0,0-.7.9v.2h-.1c.1.1-.2-.2-.1-.2s-.2,0-.2,0h.1l.7-.6.4-.5v-.2h.5c-.1,0,.1-.1,0,0h.1l-.6.5-.2.3h0c0,.3-.1.5-.4.5s-.4-.1-.4-.3a.6.6,0,0,1,.1-.6c.1-.1.2-.3.4-.4a2.3,2.3,0,0,1,.7-.7h.1c.1,0,.4,0,.5.2s0,.2,0,.3h0l-.2.3-.5.6-.8.6-.3.2c0,.1-.1.1-.2.1h-.1c-.2,0-.4-.1-.4-.3s.1-.5.2-.7a4.2,4.2,0,0,1,.8-1.2l1.1-.8c.2,0,.5-.1.7.1a1.2,1.2,0,0,1,.5.5"/><path class="cls-26" d="M138.4,21.2a.5.5,0,0,1,.5-.3c.2.1.4.3.3.5s-.1,1.2-.1,2.3a11.5,11.5,0,0,0-.1,1.8v.7a.8.8,0,0,1-.2.4c-.1.1-.1.2-.3.2l-.4-.2a.6.6,0,0,1-.2-.5V22.4a1.7,1.7,0,0,1,.1-.7,3,3,0,0,1,.4-1,1.6,1.6,0,0,1,.9-.9,1.1,1.1,0,0,1,1.1.3,2.3,2.3,0,0,1,.6,1.2,2,2,0,0,1-.6,1.4l-.3.5v.2l.5.6c.4.5,1,1.1.8,1.9a.4.4,0,0,1-.4.4.7.7,0,0,1-.4-.5c.1-.4-.2-.8-.6-1.3l-.6-.7a1.3,1.3,0,0,1-.1-.9,1,1,0,0,1,.5-.6c.2-.4.4-.7.3-.9a.8.8,0,0,0-.3-.7h-.2l-.5.5-.3.8a1.3,1.3,0,0,0-.1.6v3.7h0s-.2-.1-.1-.1h-.2s-.2.1-.2,0,0,.1,0,.1h0V23.7a8.6,8.6,0,0,0,.1-1.5c0-.5.1-.8.1-1"/><path class="cls-26" d="M142.9,27.6c-.1.2-.3.2-.5.1a.4.4,0,0,1-.2-.5,8.9,8.9,0,0,1,1.3-1.4,3.3,3.3,0,0,0,.6-.8,1,1,0,0,0,.1-.4c0-.1.2.2.1.1h.1l-.6.5a3.6,3.6,0,0,0-.8,2.5.8.8,0,0,0,.2.5l.3.2a2.6,2.6,0,0,0,1.6-.3.4.4,0,0,1,.6.1.5.5,0,0,1-.2.6,3.1,3.1,0,0,1-2.2.4l-.8-.5a1.6,1.6,0,0,1-.3-.9,4.7,4.7,0,0,1,1-3.2,1.7,1.7,0,0,1,1.2-.8l.4.2a.5.5,0,0,1,.3.5.9.9,0,0,1-.3.7,3.4,3.4,0,0,1-.7,1.1,6.8,6.8,0,0,0-1.2,1.2"/><path class="cls-26" d="M147.1,27c.2,0,.4,0,.5.3a.4.4,0,0,1-.2.5h.1l-.2.5a4.3,4.3,0,0,1-.1.5v.4h.2l.5-.3c.1-.2.4-.3.5-.2s.3.4.2.6a3.1,3.1,0,0,1-.9.7h-.5l-.6-.2a1.1,1.1,0,0,1-.2-1.1c0-.2.1-.4.1-.7l.3-.6h.1l.2-.2m.5.9a.5.5,0,0,1-.6.2.4.4,0,0,1-.2-.5v-.2h0a.4.4,0,0,1,.2-.5.6.6,0,0,1,.6.3v.2c0,.1-.1.3-.1.4"/><path class="cls-26" d="M149.2,27.2a.4.4,0,0,1,.5-.2.4.4,0,0,1,.2.6l-.9,2.1a4.3,4.3,0,0,0-.3,2c0,.2-.1.5-.3.5a.4.4,0,0,1-.5-.2,3.5,3.5,0,0,1,.4-2.6c.3-.9.7-1.7.9-2.2"/><path class="cls-26" d="M136,54.5a.4.4,0,0,1,.8.2c-.1.5-.1,1.5-.2,2.4s-.1,1.1-.1,1.5v.5c0,.1,0,.2-.2.4a.4.4,0,0,1-.5-.1l-.2-.2c0-.1-.1-.2-.1-.4a10.4,10.4,0,0,1,.1-3,2,2,0,0,1,.3-1.1,2.1,2.1,0,0,1,.7-1.2,1.2,1.2,0,0,1,.9-.4h.4l.2.3c.1.2.2.3.2.5s-.3,1.7-.4,2.3,0,.3.2.5a6.7,6.7,0,0,1,1.2,1.2.4.4,0,0,1-.7.5,5.5,5.5,0,0,0-1-1.1,1.1,1.1,0,0,1-.5-1.3,5.4,5.4,0,0,0,.4-1.9c0-.1-.1-.2-.1-.3h.1l-.3.2-.6.9a2.9,2.9,0,0,0-.2.9,8.5,8.5,0,0,0-.1,2.7c0,.2.1.2.1.3h-.7c.1-.1,0,.1,0,.1h0v-.5c0-.4.1-.9.1-1.4a19.7,19.7,0,0,1,.2-2.6"/><path class="cls-26" d="M141.2,59.8a.5.5,0,0,1-.6-.1.3.3,0,0,1,.1-.5,20.3,20.3,0,0,0,1.7-1.9,7.1,7.1,0,0,0,1-1.4.9.9,0,0,0,.3-.5h.2c-.1,0,.1.1.1.1h-.2a6.1,6.1,0,0,0-1.1,1.6,5,5,0,0,0-.7,3.1.4.4,0,0,0,.1.3c0,.1.1.1.2.1s.5,0,1.1-.3.4-.1.5.1.1.5-.1.6a2.4,2.4,0,0,1-1.7.4.9.9,0,0,1-.6-.4.9.9,0,0,1-.3-.7A5.7,5.7,0,0,1,142,57a4.3,4.3,0,0,1,1.3-1.9l.5-.2h.5c.1.1.2.1.2.2a.5.5,0,0,1,.1.5c0,.1-.1.2-.1.3a2.1,2.1,0,0,1-.4.6l-1,1.4a12.6,12.6,0,0,1-1.9,2"/><path class="cls-26" d="M145.9,60.1a.5.5,0,0,1-.3.5.4.4,0,0,1-.5-.2.4.4,0,0,1,0-.5c.1-.2.1-.3.2-.4l.7-.4.8-.2a.9.9,0,0,1,.6.6.5.5,0,0,1,.1.5.8.8,0,0,0-.1.4l-.4.5h.1c0,.1.1.2.1.3l.3.4a1,1,0,0,1,0,1.2.5.5,0,0,1-.5.3h-.5a1.8,1.8,0,0,1-.9-.4.6.6,0,0,1,0-.6c.2-.1.4-.2.6,0l.4.2h.3v-.2q-.2,0-.3-.3l-.3-.4c0-.1-.1-.2-.1-.4a.8.8,0,0,1,.1-.4l.3-.3c0-.1.1-.2.1-.3h-.3l-.5.3h0s-.1-.2,0-.1"/><path class="cls-25" d="M112.4,2.8c.2-.1.4-.1.5.1s.1.5-.1.6a10.5,10.5,0,0,0-1.1,1.9,11.2,11.2,0,0,0-.5,1.3L111,7v.2h-.1c-.1,0-.5,0-.5-.2V6.9a.4.4,0,1,1,.8,0h0s-.1-.1,0-.1-.2-.1-.1-.1h-.4c.1,0-.2.1-.1.1h-.1c0-.1.1-.2.1-.4l.6-1.2.6-1.4a1.8,1.8,0,0,1,.8-.9"/><path class="cls-25" d="M110.5,1.4c-.1-.2-.1-.4.1-.5s.5-.1.6.1.1.3,0,.4a.2.2,0,0,1-.2.2h-1.1l-.2-.2a.4.4,0,0,1,0-.5.5.5,0,0,1,.4-.3h1.4l3.4-.4c1.1,0,2-.1,2.6.4s.2.4.1.6-.4.2-.6,0a5.1,5.1,0,0,0-2-.1l-3.4.3h-1.2c0,.1.1-.2.1-.2s-.1-.2-.1-.1-.1-.1,0-.1h.2c.1,0-.1.1,0,0s-.1.2-.1.1-.1.3-.1.2.1.3.1.2"/><path class="cls-25" d="M109,6.6a.4.4,0,0,1,.3.7l-.3.2c-.1,0,0-.1,0,0s-.1-.2,0-.2h.5a9.6,9.6,0,0,0,3.7-.6.5.5,0,0,1,.5.3.5.5,0,0,1-.3.5,10.5,10.5,0,0,1-4,.6h-.7a1,1,0,0,1-.5-.4.6.6,0,0,1,.2-.7.9.9,0,0,1,.6-.4"/><path class="cls-25" d="M115.7,11.3a.4.4,0,0,1,.4.4.5.5,0,0,1-.5.4c-.3-.1-.3-.3-.3-.3v-1a9.3,9.3,0,0,1,.4-4,2.7,2.7,0,0,1,1-1.3,1.4,1.4,0,0,1,.9-.1c.5.1.7.5.9.9a2.8,2.8,0,0,1-.2,2.2l-.4.6-.2.2h.1c.1.1.3.2.4.4s.9.6,1,1.2,0,.5-.2.5-.5,0-.5-.2-.5-.6-.8-.9l-.5-.5a.9.9,0,0,1-.3-.7l.3-.6c.1-.2.3-.3.3-.5a1.6,1.6,0,0,0,.2-1.5l-.3-.4c-.1-.1-.2,0-.3,0a1.7,1.7,0,0,0-.6.9,9.2,9.2,0,0,0-.4,3.7v.7h0s-.1-.1,0-.1h-.1c0,.1-.2-.1-.2,0m.8-3.2c.2.1.4.3.3.5a.4.4,0,0,1-.5.3h.1a1.2,1.2,0,0,0-.2.7c0,.4-.1.8-.1,1.1v.7h0a.5.5,0,1,1-.9-.1h0v-.3c.1-.1.1-.3.1-.6a3.4,3.4,0,0,1,.1-1,3,3,0,0,1,.2-1l.3-.5h.6"/><path class="cls-25" d="M121.3,11.2c-.3.1-.5,0-.5-.3s.1-.4.3-.5.6-.4,1-1a4.7,4.7,0,0,0,.6-.9l.3-.4h.1l-.2.3a1.5,1.5,0,0,0-.5.6,6.3,6.3,0,0,0-1,2.8,3.5,3.5,0,0,0,.1.6c.1.2.2.2.3.3a4.2,4.2,0,0,0,1.6,0c.2,0,.5.1.5.4a.4.4,0,0,1-.4.4,3.4,3.4,0,0,1-2,0,1.6,1.6,0,0,1-.7-.7,2,2,0,0,1-.2-1.1,7.2,7.2,0,0,1,1.1-3.2l.5-.7a1.8,1.8,0,0,1,.7-.5.9.9,0,0,1,.7.3c.2.1.2.4.2.6a1.6,1.6,0,0,1-.4.7l-.6,1c-.5.6-.9,1.2-1.5,1.3"/><path class="cls-25" d="M126.5,12.3a.7.7,0,0,1,.1.6.5.5,0,0,1-.6.1h0a1.5,1.5,0,0,0-.3,1,.6.6,0,0,0,0,.6c0,.3.2.5.3.5h.1l.5-.4a2.4,2.4,0,0,0,.8-1v-.3a.4.4,0,0,0-.1-.3H127a1.4,1.4,0,0,0-.4.7c0,.2-.3.3-.5.2s-.3-.2-.3-.5a4.4,4.4,0,0,1,.6-1,1,1,0,0,1,.9-.2.8.8,0,0,1,.7.4,1.1,1.1,0,0,1,.3.8.6.6,0,0,1-.1.6,4.9,4.9,0,0,1-1.1,1.4l-.6.4a1,1,0,0,1-.9,0,1.4,1.4,0,0,1-.7-1.1,1.4,1.4,0,0,1,0-.9,2.7,2.7,0,0,1,.3-1.2c.2-.2.3-.4.5-.5a1.2,1.2,0,0,1,.8.1"/><path class="cls-25" d="M112,69.1a.5.5,0,0,1-.6.2.5.5,0,0,1-.1-.6.3.3,0,0,1,.1-.2h.6V69a1.3,1.3,0,0,1-.1.6,12.3,12.3,0,0,1-.9,2.3,1.4,1.4,0,0,0-.2.6c-.1.1-.1.3-.3.4s-.2.2-.4.1-.3-.1-.3-.2v-.3a3.4,3.4,0,0,1,.1-.9.4.4,0,0,1,.4-.4.5.5,0,0,1,.4.5v.7h-.1c0,.1-.1-.1,0-.1s-.2-.1-.2-.1h-.3c.1,0-.1.1,0,.1H110l.4-.7a19.5,19.5,0,0,0,.8-2.2,1.1,1.1,0,0,0,.1-.5h0s.1.1,0,.1h.1c0-.1.3.1.2,0h.4"/><path class="cls-25" d="M110.4,68.1a.4.4,0,0,1-.2.5c-.2,0-.5-.1-.5-.3l-.5-.4-.3-.2-.2-.2v-.2a.5.5,0,0,1,.1-.3c.1-.2.2-.2.3-.2h5.9a.9.9,0,0,1,.8.6c.1.2.1.4-.1.5a.4.4,0,0,1-.6-.1c-.2-.4-.3-.3-.8-.3h-5l.2-.2h.1c-.1,0-.1-.2-.1-.2s0-.1,0-.1h0l.2.2c.3.2.7.4.8.9"/><path class="cls-25" d="M108.2,71.9a.3.3,0,0,1,.5.3.5.5,0,0,1-.4.5H108c-.1,0,0-.1,0-.1v-.2c.1.1,0-.2,0-.2s-.1,0-.1,0l.8.2a12.3,12.3,0,0,0,4.7-.6c.2-.1.5,0,.5.2s0,.5-.2.5a12.6,12.6,0,0,1-5.1.7,2.1,2.1,0,0,1-1.3-.5c0-.1-.1-.3,0-.5l.2-.2.7-.2"/><path class="cls-25" d="M114.9,77.7a.4.4,0,0,1,.2.5.5.5,0,0,1-.6.2c-.2-.1-.2-.2-.2-.3h0a.4.4,0,0,1-.1-.3v-.8a15,15,0,0,1,.2-3.6,3.5,3.5,0,0,1,1.2-1.7,1.1,1.1,0,0,1,.8-.3l.4.2c.2.1.2.2.3.3a1.4,1.4,0,0,1,.2.6,2.8,2.8,0,0,1-.1,1.3,2.9,2.9,0,0,1-.7,1c-.1.1-.1.1-.1.2a.8.8,0,0,0,.1.4l1.1,1.4a.5.5,0,0,1-.1.6.3.3,0,0,1-.5-.1l-1.2-1.5a2.4,2.4,0,0,1-.2-.8,1.3,1.3,0,0,1,.3-.8,1.8,1.8,0,0,0,.5-.7,2.5,2.5,0,0,0,.1-.8c0-.2-.1-.3-.1-.4a.1.1,0,0,0-.1-.1h.1l-.4.2a2.3,2.3,0,0,0-.8,1.2,9.8,9.8,0,0,0-.1,3.4v1H115c.1,0,0-.1,0,0s-.2-.1-.1-.1m.7-5.4a.3.3,0,0,1,.5.3.5.5,0,0,1-.4.5c-.1,0,.1-.1.1-.1h0c-.1,0-.1.2-.2.4s-.2,1-.3,1.6a7.8,7.8,0,0,1-.2,1.6V78h0c0,.2-.2.4-.4.3a.4.4,0,0,1-.4-.4h0V76.6a8.8,8.8,0,0,0,.2-1.6l.3-1.7.3-.6c0-.1.1-.2.2-.3s.2-.1.3-.1"/><path class="cls-25" d="M122.4,77.4a.4.4,0,0,1-.6,0c-.2-.1-.2-.4,0-.6l1.5-1.3.7-.7a.8.8,0,0,0,.1-.4h.1c-.1,0,.1.2,0,.1s.2.1.1.1h0l-.5.3a3.4,3.4,0,0,0-1.2,2.6.9.9,0,0,0,.4.8c.2.1.6.1,1.3-.2a.5.5,0,0,1,.6.2.4.4,0,0,1-.2.5,2.3,2.3,0,0,1-2.1.2,1.8,1.8,0,0,1-.8-1.5,3.7,3.7,0,0,1,1.6-3.3.9.9,0,0,1,.6-.3h.7c.2.1.2.2.3.4a.4.4,0,0,1-.1.3.9.9,0,0,1-.3.6l-.7.9-1.5,1.3"/><path class="cls-25" d="M126.4,77.8c.1-.2.4-.2.6,0a.5.5,0,0,1,0,.5,2.3,2.3,0,0,0-.2,1.1v.7h.1l.3-.4.4-.4.4-.2a.9.9,0,0,1,.5.3.9.9,0,0,1,.1.7v.4h.3a2.1,2.1,0,0,0,1.4-.9c.2-.1.4-.2.6,0s.2.4,0,.6a3.4,3.4,0,0,1-1.9,1.1,1.2,1.2,0,0,1-.8-.1,1.3,1.3,0,0,1-.5-.7c0-.2.1-.4.1-.6v-.2h.3c0,.1-.1.2-.2.3l-.4.5a.7.7,0,0,1-.7.3.6.6,0,0,1-.5-.2,1.1,1.1,0,0,1-.3-.5,5,5,0,0,1,.4-2.4"/><path class="cls-26" d="M48.5,17.7c.1-.3.3-.4.5-.3a.4.4,0,0,1,.3.5,12.7,12.7,0,0,0-.2,2.2,7.6,7.6,0,0,0-.1,1.5v.6a.3.3,0,0,1-.1.2l-.2.2h-.4a.1.1,0,0,1-.1-.1,1.3,1.3,0,0,1-.3-.5,12.8,12.8,0,0,1,0-3.4A3.2,3.2,0,0,1,49,16.3a1.2,1.2,0,0,1,.8-.4.7.7,0,0,1,.6.1l.3.3a4.1,4.1,0,0,1,.5.9,2.5,2.5,0,0,1-.2,1.9l-.5.5a.7.7,0,0,0-.1.5c.1.2.1.4.3.6a3.2,3.2,0,0,0,1.1,1.2.5.5,0,0,1,.2.6.4.4,0,0,1-.6.1A2.9,2.9,0,0,1,50,21.1a3.6,3.6,0,0,1-.4-.9,1.8,1.8,0,0,1,.2-1l.4-.5a1.9,1.9,0,0,0,.2-1.3l-.3-.6h-.2l-.4.2a3,3,0,0,0-.8,1.8,10.6,10.6,0,0,0,0,3.1h-.3s-.2.2-.2.1,0,.2,0,.1-.1.1,0,.1-.1-.3,0-.5V20a16,16,0,0,1,.3-2.3"/><path class="cls-26" d="M54.4,22.7c.2.1.2.4,0,.6a.5.5,0,0,1-.6-.1c-.1-.1-.2-.4-.1-.5a.8.8,0,0,1,.2-.5,2.4,2.4,0,0,1,.6-.8,4.6,4.6,0,0,0,.7-1c.1-.1.1-.1.1-.2h.1c0-.1.1.1,0,.1h0l-.6.3a2.6,2.6,0,0,0-1,2.2.4.4,0,0,0,.1.3c0,.1.1.2.3.2a4,4,0,0,0,2,.1c.2-.1.4.1.5.3a.7.7,0,0,1-.4.5,5.7,5.7,0,0,1-2.3-.1,1.4,1.4,0,0,1-.8-.5,1.1,1.1,0,0,1-.3-.8A3.7,3.7,0,0,1,54.3,20l1-.4h.6c.1,0,.2.2.3.3a1.9,1.9,0,0,1-.2.8,3.1,3.1,0,0,1-.9,1.1l-.6.7v.2h-.1"/><path class="cls-26" d="M58.6,24.6c-.1.2-.3.4-.5.3a.4.4,0,0,1-.3-.5,1.9,1.9,0,0,1,1-1.2l.7-.5a.8.8,0,0,1,.8.2.9.9,0,0,1,.4.6,4.2,4.2,0,0,1-.2,2.2c0,.3-.1.5-.3.5a.5.5,0,0,1-.5-.4,5.2,5.2,0,0,1,.2-1.1,3.3,3.3,0,0,0,0-1c0-.1-.1-.1-.1-.2h0l-.5.3a2.1,2.1,0,0,0-.7.8"/><path class="cls-26" d="M101.5,16.8a.5.5,0,0,1,.5-.4c.2.1.4.3.3.5l-.3,2.2c-.1.5-.1,1.1-.2,1.6v.6a.4.4,0,0,0-.1.3l-.2.2h-.4q-.3-.2-.3-.3v-.2a.8.8,0,0,1-.1-.4,10.8,10.8,0,0,1,0-1.8,5.7,5.7,0,0,1,.4-1.4,4.3,4.3,0,0,1,.9-1.3,2.1,2.1,0,0,1,1.2-.4l.5.3c.1.1.1.3.2.4a2.7,2.7,0,0,1,0,.9,2.5,2.5,0,0,1-.6,1.5,1.5,1.5,0,0,0-.3.6c-.1.1,0,.2,0,.3l.4.5a8.1,8.1,0,0,1,1,.9c.2.2.1.4,0,.6s-.5.1-.6-.1l-1-.9a1,1,0,0,1-.5-.6,1.9,1.9,0,0,1-.2-.8,3.6,3.6,0,0,1,.5-.9,2.8,2.8,0,0,0,.5-1.2v-.6h0l-.5.2a2.7,2.7,0,0,0-.8,1l-.3,1.2v1.6a.6.6,0,0,1,.1.4h0c0,.1-.1,0-.1,0h-.6c.1-.1.1-.4.1-.6s.1-1.1.2-1.7l.3-2.1"/><path class="cls-26" d="M106.2,22.3a.5.5,0,0,1,.4.5.4.4,0,0,1-.4.4c-.2,0-.5-.2-.5-.4s0-.3.1-.4l.3-.5,1.1-1.1a6.4,6.4,0,0,0,1-1.3h0c0-.1.1.2.1.1s.1.1,0,.1h-.1l-1,1.1a4.9,4.9,0,0,0-.6,1.3,1.1,1.1,0,0,0,0,.6.6.6,0,0,0,.5.2,5.1,5.1,0,0,0,1.7-.5.4.4,0,0,1,.5.2.5.5,0,0,1-.2.6,5.9,5.9,0,0,1-1.9.5,1.7,1.7,0,0,1-1.3-.5,2.2,2.2,0,0,1-.1-1.4,7,7,0,0,1,.8-1.4,3.3,3.3,0,0,1,1.2-1.4l.7-.2.4.2c.1.1.1.4.1.5a5.3,5.3,0,0,1-1.2,1.7l-1.1,1.1-.2.3h0c0,.1-.1-.2-.1-.1h-.2"/><path class="cls-26" d="M110.6,23.2a.4.4,0,0,1-.5.2.5.5,0,0,1-.2-.6.7.7,0,0,1,.7-.4h.8a.8.8,0,0,1,.6.4.6.6,0,0,1,0,.7l-.2.4-.6.6-.3.4c-.1.1,0,.1.1.2h.5a2.9,2.9,0,0,1,1.3-.1c.3.1.4.3.3.5s-.2.4-.4.3h-1.1c-.2,0-.4.1-.6,0s-.5,0-.7-.3a.7.7,0,0,1-.2-.9,2.2,2.2,0,0,1,.5-.8l.5-.4c0-.1.1-.2.1-.3h-.6"/><path class="cls-26" d="M179,76.1c.1-.2.3-.2.5-.1a.5.5,0,0,1,.2.6,4.9,4.9,0,0,0-.5,1.7v.9a2.5,2.5,0,0,0-.1.8.9.9,0,0,1-.3.6H178a1,1,0,0,1-.2-.6V78a4.3,4.3,0,0,1,1.2-2.8,1.2,1.2,0,0,1,1-.5,1.2,1.2,0,0,1,1,.5,2.5,2.5,0,0,1,.2,1.2c-.2.7-.8,1.2-.9,1.6a1.7,1.7,0,0,0,.3.7l1.3.9c.2.1.2.4.1.6s-.4.2-.6.1L180,79.2a1.9,1.9,0,0,1-.5-1.4c.2-.8.8-1.2.9-1.6a.7.7,0,0,0-.1-.5l-.3-.2-.4.2a4.4,4.4,0,0,0-1,2.3c0,.6.1,1,.1,1.6V80h-.4v-.8a2.8,2.8,0,0,0,.1-.9,4.7,4.7,0,0,1,.6-2.1"/><path class="cls-26" d="M184.4,79a.3.3,0,0,1,.3-.5.4.4,0,0,1,.5.2,2.4,2.4,0,0,1-.3,1.4,1.1,1.1,0,0,0-.1.5h.5a1,1,0,0,0,.5-.4.4.4,0,0,1,.5-.1.5.5,0,0,1,.2.6,1.8,1.8,0,0,1-1,.7,1.7,1.7,0,0,1-1,0l-.4-.3a1.4,1.4,0,0,1-.2-.6,1.4,1.4,0,0,0,.2-.6,4.4,4.4,0,0,0,.3-.8"/><path class="cls-26" d="M186.6,79.2a.4.4,0,0,1,.6-.1c.2.1.2.3.1.5a18.9,18.9,0,0,0-1,3.6c0,.3-.3.4-.5.4a.5.5,0,0,1-.3-.5,14.3,14.3,0,0,1,1.1-3.9"/><path class="cls-25" d="M127.1,27.5a.4.4,0,0,1,.6,0c.1.2.1.5-.1.6a.7.7,0,0,1-.6.2h-1.3l-.6-.6c.2-.2.3-.1.4-.1h2c.3,0,.5.1.5.4s-.1.4-.3.4h-2a.4.4,0,0,1-.6,0,.6.6,0,0,1,0-.6c.3-.2.3-.1.3-.1h1.7c0-.1,0-.1.1-.1h-.1m-.4-2.8a.4.4,0,0,1,.2-.5c.2-.1.5-.1.6.1s0,.3,0,.4l-1,1.6a2.2,2.2,0,0,1-.5.8l-.3.3c0,.1-.1.1-.2.2H125a.4.4,0,0,1-.1-.4c0-.1,0-.2.1-.2v-.3l.5-.7.6-1v-.2a.4.4,0,0,1,.5-.1.5.5,0,0,1,.2.6,2.6,2.6,0,0,1-.3.7A2.1,2.1,0,0,1,126,27a5.6,5.6,0,0,1-.5.8c-.3.3-.7.3-.8.4h-.2c0,.1.1,0,.1,0h0s-.2-.3-.1-.2h1l1.1-.2h.9c.2,0,.3.3.3.5a.5.5,0,0,1-.5.3h-.5l-1.2.2h-1.3a.4.4,0,0,1-.4-.2c-.1-.1-.2-.4-.1-.5l.2-.2.4-.3.5-.2.5-.6c.2-.4.5-.7.6-1a9.2,9.2,0,0,1,.3-.9l.7.5-.2.3-.5.8-.5.7c0,.1-.1.2-.1.3h0s-.1-.2-.1-.1-.2-.2-.2-.2h-.2l.2-.2a4.3,4.3,0,0,0,.4-.7l.9-1.5h0s.1.3,0,.2m-1,2.8c-.2.1-.5.1-.6-.1s-.1-.4.1-.6h-.1l.2-.2.5-1a4.7,4.7,0,0,0,.6-.9l.3-.4c0-.1.1-.1.1-.2h.3a.4.4,0,0,1,.4.4.4.4,0,0,1-.4.4h.2l-.2.3a3.7,3.7,0,0,1-.6,1l-.6.9v.3c-.1,0,0,0-.1.1m1.7-2.7a.5.5,0,0,1-.5.4c-.2-.1-.4-.3-.3-.5v-.4s.1.1,0,.1.1.2.1.1h.2c-.1,0,.2.1.1.1h.3a6.4,6.4,0,0,0-.4,1l-.8,1.2-.3.5h0a.4.4,0,0,1-.5.2.4.4,0,0,1-.3-.5h.1l.3-.6a4.1,4.1,0,0,0,.7-1.1l.5-1,.2-.2c0-.1,0-.1.2-.1s.3.1.4.2.1.1.1.2-.1.3-.1.5"/><path class="cls-25" d="M127,26.4a.4.4,0,0,1-.4.8h.3a.1.1,0,0,0-.1.1h0s-.1-.2-.1-.1-.1-.1,0-.1a.5.5,0,0,1,0,.6c-.1.1-.4.2-.5,0s-.2-.2-.2-.3V27l.2-.3c.1-.1.2-.1.2-.2h.6m.6-1c.1-.2.3-.2.5-.1a.4.4,0,0,1,.2.5c-.1.1,0-.1,0,0h0v.9c0,.2.1.4.1.6a.5.5,0,0,1,0,.6l-.4.2c-.2-.1-.2-.1-.2-.2a1.7,1.7,0,0,1-.6-.6h-.5l.4-.4c.1-.1.2-.3.3-.3h0c.1,0,0,.1,0,.1h0v.2h.1c-.1-.1.1,0,.1,0l-.7.3h-.2c-.1.2-.4.2-.6.1s-.2-.4-.1-.6.3-.2.4-.2h.4c.2,0,.3.3.3.5s-.3.3-.5.3h.1l-.7-.5.5-.4c.4-.1.8-.4,1.3-.3h.2a.4.4,0,0,1,.1.3c.1.2,0,.3,0,.3s-.1.2-.2.2l-.3.4-.5.4c0,.1-.1.1-.2.2h-.5a.5.5,0,0,1-.4-.5.6.6,0,0,1,0-.6,1,1,0,0,1,.6-.5,1.3,1.3,0,0,1,1,.3l.6.6h-.1c.1,0-.1-.1-.1-.1s-.2.1-.2.1h-.1v.2h0a1.5,1.5,0,0,1-.2-.8v-1h0s-.1,0,.1-.2m-.4-.6a.4.4,0,0,1,.4-.4.4.4,0,0,1,.4.4h0v.4a3.8,3.8,0,0,0,.3,1,.3.3,0,0,0,.1.2h-.3c.1,0-.1.1-.1.1h0c-.1,0-.1-.1-.1-.2s-.1-.3-.2-.5a.8.8,0,0,1-.1-.4h0s.1.2,0,.1h.3a.4.4,0,0,1-.4-.4.5.5,0,0,1,.5-.4l.3.2h0c0,.1.1.1.1.2a.4.4,0,0,0,.1.3,1.4,1.4,0,0,0,.2.6V27a.4.4,0,0,1-.2.4h-.5c-.1-.1-.2-.1-.2-.2a1,1,0,0,1-.4-.5,5.3,5.3,0,0,1-.3-1.2V25h0m.2-.2a.5.5,0,0,1,.6-.1c.2.2.2.5,0,.6s.1-.1.1,0,0-.1,0-.1h0v.4a3,3,0,0,0,.2,1.3l.2.4h-.3c.1,0-.1.1,0,.1h-.1v-.4l-.2-.5c-.1-.2-.1-.4-.2-.6l-.2-.4a.1.1,0,0,0-.1-.1h.1c-.2,0-.3-.3-.3-.5a.5.5,0,0,1,.5-.3c.4.1.4.3.5.5a1.6,1.6,0,0,1,.3.6,1,1,0,0,1,.1.4,2.4,2.4,0,0,1,.3.9.4.4,0,0,1,0,.5v.2c0,.1,0,.1-.1.2s-.2.2-.3.2h-.4l-.3-.3-.3-.7a4.1,4.1,0,0,1-.2-1.5v-.7h0m.8.4a.4.4,0,0,1-.4.4c-.3,0-.5-.1-.5-.4h0s.1.1,0,.1h.1s.1.2,0,.1a.5.5,0,0,1,.1-.6.3.3,0,0,1,.5.1c.2.1.1.2.1.2s.1.1.1.2"/><path class="cls-25" d="M126.9,24.6c.1-.2.3-.4.5-.3a.5.5,0,0,1,.3.5,1.5,1.5,0,0,0,.3,1.1l.2.3a.7.7,0,0,1,.3.3h-.4c.1,0,0,.1,0,.1h0l-.3-.5a1.1,1.1,0,0,1-.1-.5h.4c-.1,0,.2-.1.1-.1h.1c0,.1.1.2.1.3a5.8,5.8,0,0,0,.3,1.4.3.3,0,0,0,.1.2h-.3c.1,0-.3.1-.2,0s-.2.2-.1.2h-.1a8.1,8.1,0,0,0-.2-.9h0c0-.1.1.1.1,0s.1.1,0,.1h.4c-.1,0,.1-.1.1-.1h0v.4a1.7,1.7,0,0,1,.1.7h.2a.1.1,0,0,0,.1.1v.4a.4.4,0,0,1-.4.2h-1.6l-.4-.2h.1s.2-.1.2,0,.1-.2.1-.2h0v.5a.4.4,0,0,1-.4.4.4.4,0,0,1-.4-.4v-.5a.4.4,0,0,1,.1-.3l.3-.2h1.9s-.2.1-.1.1-.1.1-.1,0h-.1v.2h0l-.3-.4c0-.3-.1-.6-.1-.9a1.3,1.3,0,0,1,.1-.6c0-.1,0-.2.2-.3h.5a.3.3,0,0,1,.1.2,2.5,2.5,0,0,1,.3,1.3.4.4,0,0,1-.1.3h-.5l-.2-.2a.8.8,0,0,0-.2-.4,9,9,0,0,1-.3-1.6,1.5,1.5,0,0,1-.1-.7l.2-.2h.4q.3.1.3.3l.2.5c0,.1.1.2.2.4a.4.4,0,0,1,.1.3c.1.1.1.2,0,.5l-.5.2-.4-.2a.5.5,0,0,1-.3-.4q-.2,0-.3-.3a1.9,1.9,0,0,1-.5-1.8"/><path class="cls-25" d="M128.9,54.6a.4.4,0,0,1,.2.5.5.5,0,0,1-.6.2h-1.9c-.1.1,0-.3,0-.2s-.1-.2-.1-.2h1.7c.1,0,.2,0,.3.2s.2.1.2.3-.1.2-.1.3l-.5.4a.4.4,0,0,1-.6-.1.5.5,0,0,1,.1-.6l.3-.2h0c0-.1.2.1.2.1h-2l-.3-.3c0-.1,0-.4.1-.5h2.8a.1.1,0,0,0,.1.1h.1m-1.7,4c-.1.2-.3.4-.5.3a.5.5,0,0,1-.3-.5c.1-.1,0,.1,0,.1h0v-.3l-.3-.7a2.2,2.2,0,0,0-.5-.8,2,2,0,0,1-.1-.5.4.4,0,0,1,.1-.3l.3-.2h1.3a2.7,2.7,0,0,1,.9,0h.5c.1,0-.2.1-.1.1l-.2.2h0c0-.1.1.2.1.2h.5l-.9,1.3-.5.7c-.1.2-.2.2-.3.3a.1.1,0,0,1-.1.1.3.3,0,0,1-.5-.1c-.2-.2-.1-.3-.1-.3V58l.5-.8.6-1,.6-.7a.7.7,0,0,1,.4-.3.5.5,0,0,1,.4.3c.1.1.1.2,0,.2v.2l-.9,1.4-.3.3h-.6c-.2-.1-.2-.2-.2-.3s-.1-.1,0-.2h0c0-.1.1-.2.1-.4l.4-.7c.1-.2.3-.4.3-.5l.2-.2h.4c.1,0,.2.2.2.3s.1.1,0,.2,0,.1-.1.2a2.7,2.7,0,0,1-.8.7,1.1,1.1,0,0,1-.7.3l-.5-.2a.8.8,0,0,1-.1-.4c-.1-.2,0-.4,0-.6h0v.2c-.1-.1.2.1.1.1s.1,0,.1,0H126c0,.1.1-.1.1,0s0-.1,0-.1v-.2c.1.1-.1-.3-.1-.2s-.1-.1-.1-.1h0l.5-.2h.8l.7-.2h.2s-.1.2-.1.1,0,.4,0,.3.1.2.1.2h-3c-.1-.1-.2-.2-.2-.3v-.4c.1-.2.2-.2.3-.3s.7,0,1,0h2.4a.3.3,0,0,1,.5.3.5.5,0,0,1-.3.5h-2.7c-.3,0-.5-.1-.5,0s0-.1,0-.1.1-.1,0,0,.1-.2.1-.1V55c0,.1-.1-.1-.1-.1h.6a3.8,3.8,0,0,1,1.5,0h.7c0,.1.2.1.3.2a.7.7,0,0,1,.1.5l-.2.2h-.5l-.7.2h-.8l-.5.2h-.2a.1.1,0,0,0-.1.1c-.1,0-.2,0-.4-.2a.5.5,0,0,1,0-.5h.6l.4-.2h.4a.4.4,0,0,1,.4.2,1.1,1.1,0,0,1,0,.6v.2h.1l.6-.6h0s-.1.1,0,.1-.1.1-.1,0v.2c-.1-.1.1.2,0,.1s.2.2.2.1.2.1.1.1h.1s.2-.1.1-.1h.1l-.3.4-.3.7v.2h-.5c.1,0-.1.1-.1.1s0,0,0-.1l.2-.2.9-1.1h0s-.1.1-.1,0h0v.2c-.1-.1.2.2.2.1h.3l-.5.6-.6,1-.4.7h0s-.1-.2-.1-.1h-.4c0-.1-.1,0-.1,0h0a.3.3,0,0,1,.1-.2c.2-.1.3-.4.5-.7l.6-.8.3-.4a.7.7,0,0,1,.4-.3c0-.1.1-.1.2,0l.3.2c.1.1,0,.2,0,.3s-.1.2-.2.3h-2.7s.1-.2.1-.1,0-.2,0-.1h0a5.6,5.6,0,0,1,.5.8,2.3,2.3,0,0,1,.3.9.4.4,0,0,1,.1.3h0c0,.1.1,0,0,.2m-1.7-3.7c.1-.2.4-.2.6-.1s.2.4,0,.6h.1c0,.1.1.3.1.4a1.6,1.6,0,0,0,.3.8l.3.7.2.3h-.2c.1,0-.3.1-.2,0s-.2.2-.1.2-.1.1-.1.1h0a.8.8,0,0,1-.2-.4,6.3,6.3,0,0,1-.4-.9l-.2-.3h.1c-.1,0,.1.1,0,.1h.3s.2-.2.2-.1.1-.2.1-.1h0a3.9,3.9,0,0,0,.1.9,2.3,2.3,0,0,0,.5,1c0,.1.1.2.1.3h0a.4.4,0,0,1,0,.6.6.6,0,0,1-.6,0h0c-.1-.2-.2-.3-.2-.4a5.2,5.2,0,0,1-.6-1.3,2.5,2.5,0,0,1-.1-1.2.4.4,0,0,1,.1-.3h.5c.2.1.2.2.2.3l.2.3a10.4,10.4,0,0,1,.4,1l.2.3a.3.3,0,0,0,.1.2c0,.1.1.3,0,.5l-.5.2h-.2l-.2-.2a.5.5,0,0,1-.2-.4l-.4-.8-.3-.9c0-.1-.1-.3-.1-.4v-.3a.4.4,0,0,1,.1-.3m.6-.1c.2-.2.4-.3.6-.2a.5.5,0,0,1,.2.6l-.5.5c0,.1-.1.2-.3.2l-.4-.2-.2-.3h0c-.1-.2-.1-.5.1-.6a.3.3,0,0,1,.5.1h.1c.1.1-.2,0-.2,0s-.1.1-.1,0h0c0-.1.1-.2.2-.4"/><path class="cls-25" d="M126.8,55.2a.5.5,0,0,1-.2.6.6.6,0,0,1-.6-.3h0s.2.1.1.1h.3a7.9,7.9,0,0,0,.4,1.2,4.1,4.1,0,0,1,.5.9c.1.2.1.3.2.3s-.2-.1-.1-.1-.2,0-.2,0h.1l.6-.7.6-.8.3-.4h-1.4a2.8,2.8,0,0,1-1.3-.4h.1v.3a.4.4,0,0,1-.4.4c-.2.1-.4-.1-.4-.4a1.5,1.5,0,0,1,.2-.9.5.5,0,0,1,.4-.2h.4c.4.1.7.4,1,.4h1.7a.4.4,0,0,1,.4.2,1.4,1.4,0,0,1,.2.6c-.1.1-.1.3-.2.5s-.3.3-.4.4l-.5.7-.7.9-.3.3h-.7c-.2-.2-.2-.4-.3-.5l-.5-.9a3.1,3.1,0,0,1-.5-1.8.4.4,0,0,0,.1-.3l.3-.3h.4l.2.2c.1.1.2.2.2.3"/></g></g></svg>