<svg id="Ebene_1" data-name="Ebene 1" xmlns="http://www.w3.org/2000/svg" viewBox="0 0 205.6 274.3"><defs><style>.cls-1{opacity:0;}.cls-2{fill:#1749b3;}.cls-3{fill:#ed3624;}.cls-4{fill:#00733b;}</style></defs><g class="cls-1"><path d="M59.6,38.4V15.2h3.3V38.4Z"/><path d="M69.3,18.3V15.2h3.1v3.1Zm0,20.1v-17h3.1v17Z"/></g><g class="cls-1"><path d="M125.4,16.1V12.6h3.5v3.5Zm0,22.6V19.6h3.5V38.7Z"/><path d="M136.2,16.1V12.6h3.5v3.5Zm0,22.6V19.6h3.5V38.7Z"/><path d="M147,16.1V12.6h3.5v3.5Zm0,22.6V19.6h3.5V38.7Z"/></g><g class="cls-1"><path d="M55,50.9V49.8h2.2V41.2l-2.2.6V40.7l3.6-.9v10h2.2v1.1Z"/><path d="M63.3,50.9V49.6a9.3,9.3,0,0,1,2.5-3.2l.8-.7a4.1,4.1,0,0,0,1.6-2.9,1.6,1.6,0,0,0-.5-1.4,2,2,0,0,0-1.5-.6,5.7,5.7,0,0,0-2.7.9V40.4a7.9,7.9,0,0,1,2.9-.6,3.6,3.6,0,0,1,2.5.8,2.8,2.8,0,0,1,.9,2.2,3.4,3.4,0,0,1-.5,1.7,8.9,8.9,0,0,1-1.7,1.8l-.6.5a5.9,5.9,0,0,0-2,2.8h4.7v1.3Z"/><path d="M72.8,50.8V49.5a7.9,7.9,0,0,0,2.5.6,2.5,2.5,0,0,0,1.7-.6,2.1,2.1,0,0,0,.6-1.6c0-1.5-1.1-2.3-3.2-2.3h-.6v-1h.5c2,0,3.1-.7,3.1-2.1s-.7-1.7-2-1.7a4.4,4.4,0,0,0-2.4.7V40.2a7.3,7.3,0,0,1,2.5-.4c2.2,0,3.3.8,3.3,2.5s-.7,2.2-2.3,2.7c1.8.4,2.7,1.4,2.7,2.9a3.3,3.3,0,0,1-1,2.4,4.3,4.3,0,0,1-2.8.9A9.7,9.7,0,0,1,72.8,50.8Z"/></g><g class="cls-1"><path d="M10.3,68.8v-8h1.1v8Z"/><path d="M13.6,70.7v-.9a3.9,3.9,0,0,0,1.8.4c1.2,0,1.8-.6,1.8-1.9v-.9a2.1,2.1,0,0,1-1.9,1.3,2.1,2.1,0,0,1-1.7-.8,3.3,3.3,0,0,1-.6-2.1,3.2,3.2,0,0,1,.7-2.2,2.5,2.5,0,0,1,1.8-.8,2.3,2.3,0,0,1,1.7.8v-.7h1.1v4.3a8.8,8.8,0,0,1-.2,2,1.9,1.9,0,0,1-.5,1.1,2.9,2.9,0,0,1-2.2.7A5.8,5.8,0,0,1,13.6,70.7Zm3.7-3.9V64.3a2.1,2.1,0,0,0-1.5-.7,1.4,1.4,0,0,0-1.2.6,3.4,3.4,0,0,0-.4,1.6c0,1.3.5,1.9,1.4,1.9A2.2,2.2,0,0,0,17.3,66.8Z"/><path d="M24.8,68.6l-1.9.3a3.2,3.2,0,0,1-2.1-.8,3.6,3.6,0,0,1-.8-2.3,3.3,3.3,0,0,1,.7-2.1,2.3,2.3,0,0,1,1.9-.9,1.9,1.9,0,0,1,1.6.8,3.3,3.3,0,0,1,.6,2.1V66H21.1c.2,1.4.8,2.1,2,2.1l1.7-.3Zm-3.7-3.4h2.6c0-1.1-.4-1.6-1.2-1.6S21.2,64.1,21.1,65.2Z"/><path d="M28.2,68.9l-1.7-.3v-1a3.5,3.5,0,0,0,1.8.5l.7-.2a.9.9,0,0,0,.3-.6c0-.4-.2-.7-.8-.9l-.6-.3c-.9-.4-1.4-.9-1.4-1.6a1.7,1.7,0,0,1,.5-1.3,3.3,3.3,0,0,1,1.5-.4H30v.9l-1.4-.3c-.7,0-1.1.3-1.1.7s.3.6.8.9l.5.2a3.1,3.1,0,0,1,1.2.7,1.5,1.5,0,0,1,.4,1.1,1.4,1.4,0,0,1-.6,1.2A2.1,2.1,0,0,1,28.2,68.9Z"/></g><g class="cls-1"><path d="M32.9,85l.2-1.8a10.3,10.3,0,0,0,3.7.8c2.4,0,3.6-1.2,3.6-3.8V78.4a4.1,4.1,0,0,1-3.9,2.4,4,4,0,0,1-3.3-1.5,5.9,5.9,0,0,1-1.3-4.1,7,7,0,0,1,1.4-4.4A4.7,4.7,0,0,1,37,69.2a4.6,4.6,0,0,1,3.4,1.5V69.4h2.1v8.5a20.1,20.1,0,0,1-.3,4.1,4.2,4.2,0,0,1-1.1,2.2,5.8,5.8,0,0,1-4.3,1.4A12.7,12.7,0,0,1,32.9,85Zm7.5-7.9V72.2a4.3,4.3,0,0,0-3.1-1.5A2.7,2.7,0,0,0,35,71.9a6.1,6.1,0,0,0-.8,3.2q0,3.9,2.7,3.9A4.6,4.6,0,0,0,40.4,77.1Z"/></g><g class="cls-1"><path d="M108.7,76.5V75.2a3,3,0,0,1-2.4,1.5,2,2,0,0,1-1.5-.6,2.5,2.5,0,0,1-.5-1.5v-5h1.3v4.5c0,.6,0,.9.2,1.1a.7.7,0,0,0,.7.4,2.8,2.8,0,0,0,2.2-1.5V69.6H110v6.9Z"/><path d="M112.4,78.8l.2-1.1a4.1,4.1,0,0,0,2.1.5c1.4,0,2.1-.7,2.1-2.2V74.9a2.2,2.2,0,0,1-2.2,1.4,2.4,2.4,0,0,1-2-.9,3.6,3.6,0,0,1-.7-2.4,3.7,3.7,0,0,1,.8-2.6,2.8,2.8,0,0,1,2.1-1,2.3,2.3,0,0,1,2,1v-.8h1.3v5a12.5,12.5,0,0,1-.2,2.4,2.6,2.6,0,0,1-.6,1.3,3.4,3.4,0,0,1-2.6.9A9.3,9.3,0,0,1,112.4,78.8Zm4.4-4.7V71.2a2.5,2.5,0,0,0-1.8-.8,1.5,1.5,0,0,0-1.3.7,3.3,3.3,0,0,0-.5,1.9c0,1.5.5,2.2,1.6,2.2A2.4,2.4,0,0,0,116.8,74.1Z"/><path d="M124,75.6a3.3,3.3,0,0,1-2.2,1.1,2,2,0,0,1-1.4-.6,1.5,1.5,0,0,1-.5-1.3,2,2,0,0,1,.9-1.8,5.1,5.1,0,0,1,2.7-.6h.3v-.8a1.1,1.1,0,0,0-1.2-1.2,4.2,4.2,0,0,0-2.1.6V69.9a6.8,6.8,0,0,1,2.3-.5,2.1,2.1,0,0,1,1.7.6,1.8,1.8,0,0,1,.6,1.6v3.1c0,.7.2,1.1.7,1.1h.2v.7l-1,.2C124.6,76.7,124.2,76.3,124,75.6Zm-.2-.7V73.2h-.4a4.3,4.3,0,0,0-1.7.4,1.3,1.3,0,0,0-.6,1.1.9.9,0,0,0,.3.7,1.1,1.1,0,0,0,.8.3A2.3,2.3,0,0,0,123.8,74.9Z"/></g><g class="cls-1"><path d="M142,73.7v-.8h1.6V66.6L142,67v-.8l2.7-.7v7.4h1.6v.8Z"/><path d="M148.5,73.6v-.9a5.4,5.4,0,0,0,1.8.4,2,2,0,0,0,1.3-.4,1.6,1.6,0,0,0,.4-1.2c0-1.1-.8-1.7-2.3-1.7h-.4v-.7h.3c1.5,0,2.2-.5,2.2-1.5s-.4-1.3-1.4-1.3a4.5,4.5,0,0,0-1.8.5v-.9a4.6,4.6,0,0,1,1.9-.4c1.6,0,2.4.6,2.4,1.9a2.2,2.2,0,0,1-1.7,2c1.3.3,2,1,2,2.1a2.5,2.5,0,0,1-.8,1.8,3.2,3.2,0,0,1-2,.6Z"/><path d="M157,69.4a2.4,2.4,0,0,1-1.2-1.8,1.8,1.8,0,0,1,.7-1.5,2.4,2.4,0,0,1,1.7-.6,2.8,2.8,0,0,1,1.6.5,1.5,1.5,0,0,1,.6,1.3q0,1-1.5,2.1c1.2.6,1.8,1.3,1.8,2.2a2.1,2.1,0,0,1-.7,1.7,3.2,3.2,0,0,1-2,.6,2.9,2.9,0,0,1-1.9-.6,1.9,1.9,0,0,1-.7-1.6A2.6,2.6,0,0,1,157,69.4Zm.5.4a2.2,2.2,0,0,0-.8.9,1.2,1.2,0,0,0-.3.9,1.5,1.5,0,0,0,1.7,1.5,1.5,1.5,0,0,0,1.1-.4,1,1,0,0,0,.4-.9,1.9,1.9,0,0,0-.2-.8l-1.1-.8Zm.8-.8a1.9,1.9,0,0,0,1.1-1.6,1.1,1.1,0,0,0-.3-.8,1.8,1.8,0,0,0-2,0,1.1,1.1,0,0,0-.3.8,1.3,1.3,0,0,0,.3.8A4.8,4.8,0,0,0,158.3,69Z"/><path d="M163.3,73.7l-2.1-8h1.1L164,72l1.5-6.3h1.1l1.4,6.2,1.7-6.2h1l-2.3,8h-1.1l-1.4-6.1-1.5,6.1Z"/></g><g class="cls-1"><path d="M203.4,81.1a2.9,2.9,0,0,1-2.2-.9,3.7,3.7,0,0,1-.8-2.5,3.6,3.6,0,0,1,.8-2.4,2.9,2.9,0,0,1,2.2-.9,3,3,0,0,1,2.3.9,3.6,3.6,0,0,1,.8,2.4,3.7,3.7,0,0,1-.8,2.5A3,3,0,0,1,203.4,81.1Zm0-.9c1.2,0,1.9-.8,1.9-2.5s-.6-2.4-1.9-2.4-1.8.8-1.8,2.4S202.2,80.2,203.4,80.2Z"/></g><g class="cls-1"><path d="M37,102.7v-13H31.9V88.2H44.2v1.5H39.1v13Z"/></g><g class="cls-1"><path d="M65.8,113.5V94.7H58.3V92.4H76.2v2.3H68.8v18.8Z"/><path d="M77.2,113.5V98H80v2.9c1.2-2.1,2.8-3.2,4.9-3.2h.9v2.6l-1.3-.3c-1.8,0-3.3,1.1-4.5,3.2v10.2Z"/><path d="M89.5,95.2V92.4h2.8v2.8Zm0,18.3V98h2.8v15.5Z"/></g><g class="cls-1"><path d="M17.9,130.1a7.5,7.5,0,0,1-2.4-.4v-1.4a4.9,4.9,0,0,0,2.4.7,1.8,1.8,0,0,0,1.1-.3.9.9,0,0,0,.4-.8c0-.5-.4-.9-1.2-1.3l-.8-.3c-1.3-.6-1.9-1.3-1.9-2.3a1.9,1.9,0,0,1,.8-1.6,3,3,0,0,1,2-.6,5,5,0,0,1,1.6.2h.3v1.2l-1.9-.3c-.9,0-1.4.3-1.4,1s.4.8,1.1,1.1l.7.3a4.4,4.4,0,0,1,1.6,1,1.9,1.9,0,0,1,.5,1.4,2.2,2.2,0,0,1-.8,1.8A3.5,3.5,0,0,1,17.9,130.1Z"/></g><g class="cls-1"><path d="M132.7,155.4V131.5h3.4v23.9Z"/><path d="M142.6,155.4V131.5h7.3a8.4,8.4,0,0,1,5.3,1.5,5.4,5.4,0,0,1,1.8,4.4c0,3.2-1.6,5.5-4.8,6.8l7.9,11.2H156l-6.8-10.1H146v10.1Zm3.4-12.6h1.1c4.3,0,6.4-1.7,6.4-5.1s-1.8-3.7-5.4-3.7H146Z"/><path d="M163.9,155.4V131.5h3.4v23.9Z"/></g><g class="cls-1"><path d="M37.2,160.2a2.6,2.6,0,0,1-2.1-.9,3.2,3.2,0,0,1-.9-2.4,3.5,3.5,0,0,1,.9-2.5,2.7,2.7,0,0,1,2.2-.9,2.8,2.8,0,0,1,2.2.9,3.3,3.3,0,0,1,.8,2.5,3.2,3.2,0,0,1-.8,2.4A2.9,2.9,0,0,1,37.2,160.2Zm.1-.9q1.8,0,1.8-2.4c0-1.7-.6-2.5-1.8-2.5s-1.8.8-1.8,2.5S36.1,159.3,37.3,159.3Z"/></g><g class="cls-1"><path d="M203.4,160.2a2.9,2.9,0,0,1-2.2-.9,3.6,3.6,0,0,1-.8-2.4,3.9,3.9,0,0,1,.8-2.5,2.9,2.9,0,0,1,2.2-.9,3,3,0,0,1,2.3.9,3.7,3.7,0,0,1,.8,2.5,3.6,3.6,0,0,1-.8,2.4A3,3,0,0,1,203.4,160.2Zm0-.9c1.2,0,1.9-.8,1.9-2.4s-.6-2.5-1.9-2.5-1.8.8-1.8,2.5S202.2,159.3,203.4,159.3Z"/></g><g class="cls-1"><path d="M50,179.6V166H44.6v-1.6h13V166H52.2v13.6Z"/></g><g class="cls-1"><path d="M70.1,175.1V162h4a4.4,4.4,0,0,1,2.9.9,3,3,0,0,1,1,2.4,3.8,3.8,0,0,1-2.7,3.7l4.4,6.1H77.4l-3.7-5.5H72v5.5Zm1.9-6.9h.6c2.3,0,3.5-.9,3.5-2.8s-1-2-3-2H72Z"/><path d="M81.1,175.1V162h7.3v1.4H83v4.2h4.5V169H83v4.7h5.8v1.4Z"/></g><g class="cls-1"><path d="M151.3,186.8V169.3h-6.9v-2.1H161v2.1h-6.9v17.5Z"/><path d="M164,186.8V167.2h6a6.3,6.3,0,0,1,4.3,1.3,4.3,4.3,0,0,1,1.5,3.6c0,2.6-1.3,4.4-4,5.5l6.6,9.2H175l-5.6-8.3h-2.6v8.3Zm2.8-10.4h.9c3.5,0,5.2-1.3,5.2-4.1s-1.4-3-4.4-3h-1.7Z"/><path d="M186.1,186.8V169.3h-6.9v-2.1h16.6v2.1h-6.9v17.5Z"/></g><g class="cls-1"><path d="M18.4,214.9a9.2,9.2,0,0,1-2.5-.5V213a5.6,5.6,0,0,0,2.6.7,2,2,0,0,0,1.1-.3,1.2,1.2,0,0,0,.4-.9c0-.5-.4-1-1.2-1.3l-.9-.4c-1.3-.6-2-1.4-2-2.4a2.5,2.5,0,0,1,.8-1.8,3.3,3.3,0,0,1,2.1-.6l1.8.2h.3v1.3a5.8,5.8,0,0,0-2-.4c-1,0-1.5.3-1.5,1s.4.9,1.1,1.2l.8.3a7,7,0,0,1,1.8,1.2,2.2,2.2,0,0,1,.5,1.4,2.3,2.3,0,0,1-.9,1.9A3.5,3.5,0,0,1,18.4,214.9Z"/></g><g class="cls-1"><path d="M54.2,201.7a2.6,2.6,0,0,1-2-.8,2.7,2.7,0,0,1-.7-1.9v-5.4H50.4v-1.2h1.1v-1.6l1.7-.2v1.8h2.3v1.2H53.2v5.1c0,1.1.5,1.7,1.5,1.7h.8v1.2Z"/></g><g class="cls-1"><path d="M182.3,203.3v-21h3v21Z"/></g><g class="cls-1"><path d="M170.5,217.5v-8.7h2.6a2.7,2.7,0,0,1,1.9.6,1.8,1.8,0,0,1,.7,1.6,2.4,2.4,0,0,1-1.8,2.4l2.9,4.1h-1.5l-2.4-3.7h-1.2v3.7Zm1.2-4.6h.4c1.5,0,2.3-.6,2.3-1.8s-.6-1.4-1.9-1.4h-.8Z"/><path d="M178,219.6v-1a3.7,3.7,0,0,0,2,.5c1.3,0,1.9-.7,1.9-2.1v-1a2.2,2.2,0,0,1-2.1,1.4,2.3,2.3,0,0,1-1.8-.9,3.6,3.6,0,0,1-.7-2.2,3.6,3.6,0,0,1,.8-2.4,2.5,2.5,0,0,1,2-.9,2.3,2.3,0,0,1,1.8.9v-.8h1.2v4.7a10.9,10.9,0,0,1-.2,2.2,3.3,3.3,0,0,1-.5,1.2,3.5,3.5,0,0,1-2.4.8A4.6,4.6,0,0,1,178,219.6Zm4-4.3v-2.6a1.9,1.9,0,0,0-1.6-.8,1.5,1.5,0,0,0-1.3.6,3,3,0,0,0-.4,1.8c0,1.4.5,2.1,1.4,2.1A2.6,2.6,0,0,0,182,215.3Z"/><path d="M190.1,217.3a5.4,5.4,0,0,1-2,.4,2.9,2.9,0,0,1-2.3-1,3.2,3.2,0,0,1-.9-2.4,3.6,3.6,0,0,1,.8-2.4,2.5,2.5,0,0,1,2-.9,2.2,2.2,0,0,1,1.8.8,4,4,0,0,1,.6,2.4v.3h-4c.2,1.5.9,2.3,2.2,2.3a4.5,4.5,0,0,0,1.8-.4Zm-3.9-3.7H189c0-1.1-.5-1.7-1.3-1.7S186.3,212.5,186.2,213.6Z"/><path d="M193.8,217.7a9.3,9.3,0,0,1-1.9-.4v-1.1a4.5,4.5,0,0,0,2,.6,1.1,1.1,0,0,0,.8-.3.7.7,0,0,0,.3-.6,1.1,1.1,0,0,0-.9-1l-.7-.3q-1.5-.6-1.5-1.8a1.5,1.5,0,0,1,.6-1.3,2.9,2.9,0,0,1,1.7-.5h1.5v1l-1.5-.3c-.8,0-1.1.2-1.1.8s.2.6.8.9l.6.2a4.9,4.9,0,0,1,1.3.8,1.7,1.7,0,0,1-.3,2.5A2.4,2.4,0,0,1,193.8,217.7Z"/></g><g class="cls-1"><path d="M37.2,234.1a2.6,2.6,0,0,1-2.1-.9,3.3,3.3,0,0,1-.9-2.5,3.2,3.2,0,0,1,.9-2.4,2.7,2.7,0,0,1,2.2-.9,2.8,2.8,0,0,1,2.2.9,3.2,3.2,0,0,1,.8,2.4,3.3,3.3,0,0,1-.8,2.5A2.9,2.9,0,0,1,37.2,234.1Zm.1-.9c1.2,0,1.8-.8,1.8-2.5s-.6-2.4-1.8-2.4-1.8.8-1.8,2.4S36.1,233.2,37.3,233.2Z"/></g><g class="cls-1"><path d="M203.4,234.1a2.9,2.9,0,0,1-2.2-.9,3.7,3.7,0,0,1-.8-2.5,3.6,3.6,0,0,1,.8-2.4,2.9,2.9,0,0,1,2.2-.9,3,3,0,0,1,2.3.9,3.6,3.6,0,0,1,.8,2.4,3.7,3.7,0,0,1-.8,2.5A3,3,0,0,1,203.4,234.1Zm0-.9c1.2,0,1.9-.8,1.9-2.5s-.6-2.4-1.9-2.4-1.8.8-1.8,2.4S202.2,233.2,203.4,233.2Z"/></g><g class="cls-1"><path d="M56.5,260.9v-1.2h2.3v-9.1l-2.3.6V250l3.9-1v10.7h2.3v1.2Z"/></g><g class="cls-1"><path d="M67.6,245.5v-4.8h.9v.9a2.1,2.1,0,0,1,1.7-1,1.8,1.8,0,0,1,1,.4,1.8,1.8,0,0,1,.3,1.1v3.4h-.8v-3.1a1.5,1.5,0,0,0-.2-.8l-.5-.2a1.7,1.7,0,0,0-1.5,1v3.1Z"/><path d="M73.4,247.1v-.7l1.5.3c1,0,1.4-.5,1.4-1.5v-.8a1.5,1.5,0,0,1-1.5,1,1.7,1.7,0,0,1-1.4-.6,2.9,2.9,0,0,1-.5-1.7,2.8,2.8,0,0,1,.6-1.8,2.1,2.1,0,0,1,1.5-.7,1.5,1.5,0,0,1,1.3.7v-.6h.9v3.5a7.6,7.6,0,0,1-.1,1.7,3.6,3.6,0,0,1-.4.9,2.4,2.4,0,0,1-1.8.6A4.1,4.1,0,0,1,73.4,247.1Zm3-3.2v-2a1.6,1.6,0,0,0-1.2-.6.9.9,0,0,0-.9.5,1.7,1.7,0,0,0-.4,1.3c0,1,.4,1.6,1.1,1.6A1.9,1.9,0,0,0,76.4,243.9Z"/><path d="M81,245.6a2.3,2.3,0,0,1-1.6-.6,2.9,2.9,0,0,1-.6-1.9,2.8,2.8,0,0,1,.6-1.8,2.4,2.4,0,0,1,1.7-.7,2.2,2.2,0,0,1,1.6.7,2.9,2.9,0,0,1,.7,1.8,2.9,2.9,0,0,1-.7,1.9A2.2,2.2,0,0,1,81,245.6Zm.1-.6c.9,0,1.3-.6,1.3-1.9s-.4-1.8-1.3-1.8-1.4.6-1.4,1.8S80.2,245,81.1,245Z"/><path d="M86.1,245.6l-1.4-.2v-.8a5.6,5.6,0,0,0,1.5.4l.6-.2a.6.6,0,0,0,.2-.5.9.9,0,0,0-.6-.8l-.6-.2c-.7-.3-1.1-.7-1.1-1.3a1.2,1.2,0,0,1,.5-1,2.1,2.1,0,0,1,1.2-.4h1.2v.7l-1.2-.2c-.6,0-.8.2-.8.6s.2.5.6.7h.4a2,2,0,0,1,1,.7,1.1,1.1,0,0,1,.3.8,1,1,0,0,1-.5,1A1.7,1.7,0,0,1,86.1,245.6Z"/></g><g class="cls-1"><path d="M36.7,279.1a2.8,2.8,0,0,1-2.2-.9,3.6,3.6,0,0,1-.8-2.4,3.7,3.7,0,0,1,.8-2.5,2.8,2.8,0,0,1,2.2-.9,3,3,0,0,1,2.3.9,3.6,3.6,0,0,1,.8,2.4,3.3,3.3,0,0,1-.9,2.5A2.8,2.8,0,0,1,36.7,279.1Zm0-.9c1.2,0,1.8-.8,1.8-2.5s-.6-2.4-1.8-2.4-1.8.8-1.8,2.5S35.5,278.2,36.7,278.2Z"/></g><g class="cls-1"><path d="M202.2,277.2a3.2,3.2,0,0,1-2.4-.9,4,4,0,0,1-.9-2.7,3.6,3.6,0,0,1,.9-2.6,3,3,0,0,1,2.4-1,2.8,2.8,0,0,1,2.4,1,3.6,3.6,0,0,1,.9,2.6,4,4,0,0,1-.9,2.7A3.2,3.2,0,0,1,202.2,277.2Zm0-.9c1.3,0,2-.9,2-2.7s-.7-2.7-2-2.7-1.9.9-1.9,2.7S200.9,276.3,202.2,276.3Z"/></g><path d="M57.5,19.9c.1-.1.3,0,.4.1s.1.3,0,.3h0c0,.1.1,0,0,0h0v1.6c.1,1,.1,2.3.1,3.4v2.2a6.5,6.5,0,0,0,0,1.4V29h0a.3.3,0,0,1,.4,0c0,.2,0,.3-.1.4h-.7c-.1-.2-.1-.4-.2-.6s.1-.9.1-1.4V25.2c0-1.1-.1-2.3-.1-3.4V20.2h0a.3.3,0,0,1,.1-.2m.5.5c.1.1,0,.3-.2.3s-.2,0-.3-.2-.1-.2-.1-.3h.1c-.1,0-.1-.2,0-.3s.2-.2.4-.1a.3.3,0,0,1,.1.2v.3"/><path d="M57.7,30.2c-.1,0-.2-.1-.2-.3s.1-.3.2-.3H88.8a.3.3,0,0,1,.3.3.3.3,0,0,1-.3.3Z"/><path d="M88.6,19.5a.2.2,0,0,1,.2-.2c.2,0,.3.1.3.2V29.9a.3.3,0,0,1-.3.3c-.1,0-.2-.1-.2-.3Z"/><path d="M57.7,19.8c-.1,0-.2-.1-.2-.3a.2.2,0,0,1,.2-.2H88.8c.2,0,.3.1.3.2a.3.3,0,0,1-.3.3Z"/><path d="M99,19.9c.1-.1.3,0,.4.1s.1.3-.1.3h.1v1.6c.1,1,.1,2.3.1,3.4v2.2a6.5,6.5,0,0,0,0,1.4V29h0a.3.3,0,0,1,.4,0c0,.2,0,.3-.1.4h-.7a1.4,1.4,0,0,1-.2-.6V27.4a16,16,0,0,0,0-2.2v-5h0a.3.3,0,0,1,.1-.2m.5.5c.1.1,0,.3-.2.3s-.3,0-.3-.2-.1-.2-.1-.3h0s.1.1,0,.1H99c-.1,0-.1-.2,0-.3s.2-.2.3-.1.1.2.1.2a.4.4,0,0,1,.1.3"/><path d="M99.2,30.2a.3.3,0,0,1-.3-.3.5.5,0,0,1,.3-.3h31.1a.3.3,0,0,1,.3.3.3.3,0,0,1-.3.3Z"/><path d="M130.1,19.5a.2.2,0,0,1,.2-.2c.2,0,.3.1.3.2V29.9a.3.3,0,0,1-.3.3c-.1,0-.2-.1-.2-.3Z"/><path d="M99.2,19.8a.3.3,0,0,1-.3-.3c0-.1.2-.2.3-.2h31.1c.2,0,.3.1.3.2a.3.3,0,0,1-.3.3Z"/><path d="M150.9,19.9c.1-.1.3,0,.4.1s0,.3-.1.3h.1c-.1,0,0-.1,0-.1h0V29h-.1c.2-.1.3-.1.4,0s.1.3-.1.4h-.3c-.1,0-.3,0-.3-.1a.7.7,0,0,1-.2-.6v-7a2.4,2.4,0,0,1,0-1.2v-.4h0s-.1-.1.1-.2m.5.5c0,.1-.1.3-.2.3s-.3,0-.3-.2a.4.4,0,0,1-.1-.3h.1a.2.2,0,0,1-.1-.3c.1-.1.3-.2.4-.1s.1.2.1.2a.4.4,0,0,0,.1.3"/><path d="M151.1,30.2a.3.3,0,0,1-.3-.3.3.3,0,0,1,.3-.3h31.1a.5.5,0,0,1,.3.3.3.3,0,0,1-.3.3Z"/><path d="M181.9,19.5c0-.1.1-.2.3-.2s.3.1.3.2V29.9a.3.3,0,0,1-.3.3.3.3,0,0,1-.3-.3Z"/><path d="M151.1,19.8a.3.3,0,0,1-.3-.3c0-.1.1-.2.3-.2h31.1c.1,0,.3.1.3.2a.3.3,0,0,1-.3.3Z"/><path d="M57.5,40.7a.3.3,0,0,1,.4.4c-.1,0,0-.1,0-.1h0s.1-.1,0-.1h0v1.5c.1,1.1.1,2.4.1,3.4v2.3a5.6,5.6,0,0,0,0,1.3v.3h0c.1-.1.3,0,.4.1a.6.6,0,0,1-.1.4H58a.5.5,0,0,1-.4-.2c-.1-.1-.1-.3-.2-.5s.1-1,.1-1.4V45.9c0-1-.1-2.3-.1-3.4V40.9h.1m.5.4c.1.1,0,.3-.2.3s-.2,0-.3-.1-.1-.3-.1-.4h.1s.1.1,0,.1a.3.3,0,0,1,0-.4c.1-.1.2-.1.4,0H58v.3"/><path d="M57.7,50.9a.2.2,0,0,1-.2-.2c0-.2.1-.3.2-.3H88.8a.3.3,0,0,1,.3.3c0,.1-.1.2-.3.2Z"/><path d="M88.6,40.3c0-.2.1-.3.2-.3a.3.3,0,0,1,.3.3V50.7c0,.1-.1.2-.3.2l-.2-.2Z"/><path d="M57.7,40.6c-.1,0-.2-.2-.2-.3s.1-.3.2-.3H88.8a.3.3,0,0,1,.3.3.3.3,0,0,1-.3.3Z"/><path d="M37,25.1a.3.3,0,0,1-.3-.3.3.3,0,0,1,.3-.3H57.7a.3.3,0,0,1,.3.3.3.3,0,0,1-.3.3Z"/><path d="M88.8,25c-.1,0-.2-.2-.2-.3s.1-.3.2-.3H99.2a.3.3,0,0,1,.3.3.3.3,0,0,1-.3.3Z"/><path d="M130.3,25.1a.2.2,0,0,1-.2-.2c0-.2.1-.3.2-.3l20.8-.5a.2.2,0,0,1,.2.2c0,.2-.1.3-.2.3Z"/><path d="M182.2,25.3a.3.3,0,0,1-.3-.3.3.3,0,0,1,.3-.3h20.7a.3.3,0,0,1,.3.3.3.3,0,0,1-.3.3Z"/><path d="M37,45.7a.3.3,0,0,1-.3-.3c0-.1.1-.2.3-.2H57.7c.2,0,.3.1.3.2a.3.3,0,0,1-.3.3Z"/><path d="M88.8,45.8c-.1,0-.2-.1-.2-.3a.2.2,0,0,1,.2-.2h51.9c.2,0,.3.1.3.2a.3.3,0,0,1-.3.3Z"/><path d="M140.4,24.6a.3.3,0,0,1,.3-.3.3.3,0,0,1,.3.3v21a.3.3,0,0,1-.3.3.5.5,0,0,1-.3-.3Z"/><path d="M36.7,24.8a.3.3,0,0,1,.3-.3.5.5,0,0,1,.3.3V71.4a.3.3,0,0,1-.3.3.3.3,0,0,1-.3-.3Z"/><path d="M202.7,25.2c0-.1.1-.3.2-.3a.3.3,0,0,1,.3.3V71.4a.3.3,0,0,1-.3.3c-.1,0-.2-.1-.2-.3Z"/><path d="M37.7,71.8a.2.2,0,0,1-.3,0,.3.3,0,0,1,0-.4h0s-.1.2,0,.1h0c-.1,0,0,.1,0,.1h-.6l-.7.2a1.6,1.6,0,0,0-.5.8,3,3,0,0,0,.1,2.5,1.3,1.3,0,0,0,.7.6,1.1,1.1,0,0,0,.8,0,3.3,3.3,0,0,0,1.7-3.2c0-.2,0-.3-.1-.4s-.1-.1-.2-.2H37.3a.5.5,0,0,1-.4-.3.6.6,0,0,1,.1-.4h.4a.1.1,0,0,0,.1.1h1.3a1.2,1.2,0,0,1,.5.5,1.3,1.3,0,0,1,.1.6,3.2,3.2,0,0,1-.3,1.9,3.5,3.5,0,0,1-1.8,1.8,2,2,0,0,1-1.1,0,1.9,1.9,0,0,1-1-.8,3.6,3.6,0,0,1-.1-2.9,1.7,1.7,0,0,1,.6-1.1,2.5,2.5,0,0,1,1.1-.4h1c0,.1.1.2.1.3a.2.2,0,0,1-.2.2"/><path d="M203.9,71.8a.2.2,0,0,1-.3,0,.3.3,0,0,1,0-.4h-.1c.1,0,.1.2.1.1s0,.1,0,.1H203l-.7.2a1.6,1.6,0,0,0-.5.8,3,3,0,0,0,.1,2.5,1.3,1.3,0,0,0,.7.6,1.1,1.1,0,0,0,.8,0,3.4,3.4,0,0,0,1.4-1.5,5.1,5.1,0,0,0,.3-1.7c0-.2,0-.3-.1-.4s-.1-.1-.2-.2h-1.3a.5.5,0,0,1-.4-.3.6.6,0,0,1,.1-.4h.4a.1.1,0,0,0,.1.1H205a1.2,1.2,0,0,1,.5.5,1.3,1.3,0,0,1,.1.6,3.2,3.2,0,0,1-.3,1.9,3.5,3.5,0,0,1-1.8,1.8,2,2,0,0,1-1.1,0,1.9,1.9,0,0,1-1-.8,3.6,3.6,0,0,1-.1-2.9,1.7,1.7,0,0,1,.6-1.1,2.1,2.1,0,0,1,1.1-.4h1c0,.1.1.2.1.3a.2.2,0,0,1-.2.2"/><path d="M43.7,74.8a.8.8,0,0,1-.8-.8.7.7,0,0,1,.8-.8h154a.8.8,0,0,1,.8.8.9.9,0,0,1-.8.8Z"/><path d="M195.9,73c-.1,0-.3-.1-.3-.2a.5.5,0,0,1,.2-.4,5.1,5.1,0,0,1,2.6.7l.8.5a1.3,1.3,0,0,1,.1.6.6.6,0,0,1-.3.5l-.6.3-1.5.4-1.3.3-.3.2h0a.2.2,0,0,1-.1.3c-.2.1-.3,0-.4-.1a.6.6,0,0,1,.1-.6.5.5,0,0,1,.5-.3l1.4-.4,1.4-.4.5-.2c0-.1.1-.1.1-.2v-.2c0-.1-.2-.2-.5-.3a6.5,6.5,0,0,0-2.3-.6"/><path d="M112.5,66.2a.5.5,0,0,1,.4.2c0,.1-.1.3-.2.3h.1l-.6.8a5.3,5.3,0,0,0-.8,1.7.8.8,0,0,0,0,.7c0,.2.1.2.2.3h.8a5.1,5.1,0,0,0,1.4-.4c.1,0,.3,0,.3.2a.2.2,0,0,1-.1.3,3.8,3.8,0,0,1-2.6.4,1.1,1.1,0,0,1-.6-.7,3.8,3.8,0,0,1,.1-1,7.1,7.1,0,0,1,.8-1.8c.3-.3.5-.7.7-.8h.1m-4.4.6c0,.2,0,.3-.1.4s-.3,0-.4-.1a1.1,1.1,0,0,1,0-.8,1.9,1.9,0,0,1,.6-.7l.8-.6c.3-.2.5-.4.8-.4h.3c0,.1.1.1.1.2v.3c-.1.5-.6.9-.9,1.5a5.3,5.3,0,0,0-1.1,3.1.3.3,0,0,0,.1.2h.2l.7-.3,1.1-1,1.3-1.5.6-.7.2-.2h0c0-.1.1-.2.3-.2s.2.2.2.3h-.1c0,.1-.1.2-.2.3l-.6.8-1.4,1.5-1,1a1.8,1.8,0,0,1-1.1.5l-.5-.2a.9.9,0,0,1-.3-.6,3.2,3.2,0,0,1,.2-1.6,8.2,8.2,0,0,1,.9-1.9l.9-1.3h.1l-.5.4-.8.5-.4.6c-.1.1-.1.2,0,.2"/><path d="M118.2,68.7l-.3.2c-.2-.1-.3-.2-.2-.3v-.2h-.6c-.2.1-.4.2-.4.4h.5l.4-.2h.5a.2.2,0,0,1,.2.2h0l-.2.5a3.6,3.6,0,0,1-.4.9,2.5,2.5,0,0,0-.2,1.2V72a.9.9,0,0,1-.3.6.6.6,0,0,1-.7.2,1.1,1.1,0,0,1-.7-.3.7.7,0,0,1-.4-.6,1.2,1.2,0,0,1,.4-.9.2.2,0,0,1,.4.1c.1.1.1.2-.1.3l-.2.4.2.3.5.2h.2c.1,0,.1-.1.1-.3s0-.3,0-.6a11.1,11.1,0,0,1,.3-1.3,6.3,6.3,0,0,0,.4-.9.6.6,0,0,0,.1-.4.1.1,0,0,0,.1-.1h0s.1.1,0,.1h.1a.9.9,0,0,1-.5.3l-.6.2h-.4l-.3-.3a.7.7,0,0,1,.1-.5,1,1,0,0,1,.8-.7h.8q.3.1.3.3a.7.7,0,0,1,.1.5"/><path d="M121.8,67.7a.2.2,0,0,1-.1.3c-.2.1-.3,0-.4-.2h-.1a1.7,1.7,0,0,0-.6.6l-.3.6v.5l.3.2a1.2,1.2,0,0,0,.7-.2c.1,0,.3,0,.3.2a.2.2,0,0,1-.1.3,2,2,0,0,1-1,.2,1,1,0,0,1-.6-.5.8.8,0,0,1-.1-.8,2,2,0,0,1,.4-.8,2,2,0,0,1,.8-.8h.7a.4.4,0,0,1,.1.3"/><path d="M122,67.9c.2,0,.2.2.2.3a.2.2,0,0,1-.4.1h-.3c0,.1-.1,0,0,0h.1c.1.1.1.2,0,.4s-.2.1-.4,0-.1-.1-.2-.2-.1-.2-.1-.3V68h.2c.3-.1.6-.2.8,0"/><path d="M124,67.6a.4.4,0,0,1,.2.4c-.1.1-.3.2-.4.1h-.1c-.1,0-.1.2-.1.3s0,.4,0,.7a1.8,1.8,0,0,1-.4,1l-.9.5a.2.2,0,0,1-.3-.1c-.1-.2,0-.3.1-.4a1,1,0,0,0,.7-.4l.3-.6c0-.2-.1-.4-.1-.7a.9.9,0,0,1,.3-.7l.3-.2h.4"/><path d="M132.7,66.5c-.1,0-.3-.1-.3-.2a.3.3,0,0,1,.3-.3,15,15,0,0,1,3,0c.2.1.3.2.2.4s-.1.2-.3.2a13.6,13.6,0,0,0-2.9-.1"/><path d="M133.1,67.4c.1-.1.2,0,.3.2a.3.3,0,0,1-.3.3h-.3a.4.4,0,0,1-.1-.3c.1-.2.2-.2.3-.2a9.7,9.7,0,0,1,2.2-.4.3.3,0,0,1,.3.3c0,.2-.1.3-.2.3a4.8,4.8,0,0,0-2.1.3h0c-.1,0,0-.1,0-.1h0v-.2h-.1"/><path d="M145.3,68.6a.2.2,0,1,1-.4.2.6.6,0,0,1-.1-.7l.5-.6.6-.8,2-1.8,1.1-.8h.5v.2a.8.8,0,0,1-.2.8l-.5.7-.8,1.4-.2.3h-.1c.2,0,.3.1.3.2s-.1.3-.2.3h-.4a.4.4,0,0,1-.1-.3,1.4,1.4,0,0,1,.2-.6l.9-1.4.5-.7v-.3h.1l-1,.7-1.9,1.8-.6.7-.4.5v.3"/><path d="M152.1,64.8q-.2.3-.3.3t-.3-.3a1,1,0,0,1,.5-.6l.6-.2h.8a1,1,0,0,1,.5.4.9.9,0,0,1,.1.5l-.2.4-.7.4a.3.3,0,0,0-.1.2h.1l.3.5a1.1,1.1,0,0,1,0,.8c-.1.3-.4.5-.6.7l-1,.4h-1l-.4-.2a.9.9,0,0,1-.1-.5.3.3,0,0,1,.3-.3c.1,0,.2.2.2.3s0,.1.1.1h.1a.8.8,0,0,0,.7,0l.8-.2c.2-.2.4-.3.4-.5s0-.2,0-.4a.5.5,0,0,1-.2-.4.8.8,0,0,1-.2-.5.6.6,0,0,1,.4-.6l.4-.2.2-.3h-1.4"/><path d="M154.5,67.9a.3.3,0,0,1,.4,0c.1.1.2.2.1.4a3.2,3.2,0,0,0-.6,1.7c-.1.2-.2.3-.4.2s-.2-.1-.2-.3a8,8,0,0,1,.7-2"/><path d="M159.2,64.8a.2.2,0,0,1-.1.4c-.1.1-.2,0-.3-.1h-.2v.3a18.5,18.5,0,0,1,.1,2.5,1.5,1.5,0,0,1-1,1.4h-.7a.7.7,0,0,1-.5-.4,1.4,1.4,0,0,1-.2-.6,1.4,1.4,0,0,1,.6-1.1c.7-.5,1.9-.9,2.8-1.4l.6-.5.2-.3h-.2a1,1,0,0,0-1,.3c-.1.1-.3,0-.4-.1s-.1-.3.1-.3a1.8,1.8,0,0,1,1.3-.5l.6.2c0,.1.1.1.1.2a.6.6,0,0,1,.1.4l-.4.5-.8.5c-.9.6-2.1,1-2.7,1.4a.8.8,0,0,0-.3.7.4.4,0,0,0,.1.3.3.3,0,0,0,.1.2h.4a1.3,1.3,0,0,0,.7-1c.1-.7-.2-1.7-.1-2.4a1.1,1.1,0,0,1,.3-.8h.5c.2,0,.3.1.4.3"/><path d="M162.9,65.2c-.1.1-.3.2-.4.1a.6.6,0,0,1-.1-.4.1.1,0,0,0,.1-.1c.1-.1.1-.2.3-.1h.2a.1.1,0,0,1,.1.1v.2a5.1,5.1,0,0,1-.2.9c-.1.6-.1,1.3-.2,2v.9h.2c.3-.1.6-.7,1-1.3l1.5-1.9a4,4,0,0,1,1.2-1.1c.1,0,.3,0,.3.2a.2.2,0,0,1-.1.3,12.4,12.4,0,0,0-2.5,2.8c-.4.6-.6,1.2-1.1,1.5h-.6c-.2,0-.3-.2-.4-.4V68a13.6,13.6,0,0,1,.2-2.1,3.4,3.4,0,0,0,.1-.9h.2c-.1-.1.1,0,0,0h.2c-.1,0,0-.1,0-.1h0"/><path d="M66.5,43.1c-.2.1-.3,0-.4-.1s0-.3.2-.3a2.6,2.6,0,0,1,1.8-.1,2.2,2.2,0,0,1,1.1.5.6.6,0,0,1,0,.6,2.1,2.1,0,0,1-.4.6l-1.3,1.1-1.2.9v.2h2.4c.1-.1.3,0,.3.2a.3.3,0,0,1-.3.3,8.5,8.5,0,0,1-2.2.1,1,1,0,0,1-.7-.2.9.9,0,0,1-.1-.5l.2-.3a7.5,7.5,0,0,1,1.3-1.1l1.2-1a.5.5,0,0,0,.3-.4h0l-.7-.3a7.2,7.2,0,0,0-1.5,0"/><path d="M71.8,43.9c-.2,0-.3-.1-.3-.2s.1-.3.2-.3a4.9,4.9,0,0,1,1.7.1c.3.2.6.4.6.8s0,.4-.2.6-.3.3-.5.5l-1.2,1c-.2.2-.4.4-.4.5a.2.2,0,0,0,0,.3l.4.2a1.7,1.7,0,0,0,1,0,.3.3,0,0,1,.3.3c0,.1-.1.3-.2.3H71.9l-.7-.4a1.1,1.1,0,0,1,0-.8l.5-.7,1.2-1,.5-.4a.8.8,0,0,0,.1-.3q0-.1-.3-.3H71.8"/><path d="M78.3,45.2c.1.2.1.3,0,.4a.3.3,0,0,1-.4,0c0-.1-.1-.1-.2-.1l-.3.3a.4.4,0,0,0-.1.3.1.1,0,0,1,.1.1h.3a1.1,1.1,0,0,0,.8,0,1.6,1.6,0,0,0,1-1,.6.6,0,0,0,.2-.5v-.2h-.3a1.7,1.7,0,0,0-1.6.5c-.1.1-.3.2-.4.1a.3.3,0,0,1,0-.4,2.3,2.3,0,0,1,2.1-.8l.5.3a.5.5,0,0,1,.3.5,1.6,1.6,0,0,1-.3.9,2.5,2.5,0,0,1-1.3,1.2,2.4,2.4,0,0,1-1.2,0l-.4-.2a.5.5,0,0,1-.3-.4.8.8,0,0,1,.2-.7,1,1,0,0,1,.6-.5.7.7,0,0,1,.7.2"/><path d="M73.4,22.4a.2.2,0,0,1-.3.1c-.1,0-.2-.2-.2-.3h-.1a.5.5,0,0,0-.2.4c-.1.1-.1.1,0,.2s0,.1.2.1l.6.2a.9.9,0,0,1,.8.4c0,.2.1.3,0,.5a.8.8,0,0,1-.2.4,2.3,2.3,0,0,1-.7.7,4.2,4.2,0,0,1-2,.8.3.3,0,0,1-.3-.3.2.2,0,0,1,.2-.2l1.8-.7a1.7,1.7,0,0,0,.6-.6v-.2h0c0-.1-.2-.2-.5-.2l-.6-.2a1,1,0,0,1-.5-.4,1.3,1.3,0,0,1-.1-.6,1.5,1.5,0,0,1,.5-.6l.6-.2h.2l.2.2a.6.6,0,0,1-.1.4"/><path d="M72.9,22.8c.1.1,0,.2-.2.3s-.3-.1-.3-.2a.9.9,0,0,1,.1-.5l.3-.2a1.1,1.1,0,0,1,.8-.2,5,5,0,0,1,2.1.2c.2,0,.3.1.2.3s-.1.2-.3.2l-2-.2h-.7"/><path d="M79.7,21.5a.4.4,0,0,1-.2.4c-.1,0-.3,0-.3-.2s.1.1,0,.1h-.1l-.8.5-.9.9a4,4,0,0,0-1.2,2.2,1.2,1.2,0,0,0,.2.7h.4a1.1,1.1,0,0,0,.8-.1,1,1,0,0,0,.7-.4l.2-.3h-.4A1.5,1.5,0,0,0,77,26a.3.3,0,0,1-.4-.4A2.8,2.8,0,0,1,78,25h.9a.6.6,0,0,1,.1.4.5.5,0,0,1-.3.5,2.6,2.6,0,0,1-1,.7h-.9a1.1,1.1,0,0,1-.8-.3,1.3,1.3,0,0,1-.3-1.2A4.3,4.3,0,0,1,77,22.9l1-.9a2.4,2.4,0,0,1,.9-.6h.6l.2.2"/><path d="M109.2,22.3c0,.2-.1.3-.2.3s-.3,0-.3-.2,0-.3.1-.4l.3-.2.7-.3a2.6,2.6,0,0,1,2,.4.7.7,0,0,1,.3.6c0,.4-.4.7-.6.9l-.4.3a.1.1,0,0,0-.1.1h.6a1.6,1.6,0,0,1,.8.8,1.7,1.7,0,0,1,0,1,1.2,1.2,0,0,1-.6.8,3.5,3.5,0,0,1-2,.3,1.2,1.2,0,0,1-.7-.7l.2-.3c.1-.1.3,0,.3.2l.4.3a.9.9,0,0,0,.7,0,1.1,1.1,0,0,0,.8-.3c.2-.1.4-.3.4-.4a.9.9,0,0,0,0-.7l-.5-.5H111a.5.5,0,0,1-.4-.3.6.6,0,0,1-.1-.4c0-.2.1-.3.3-.5l.4-.2.4-.5s0-.1-.2-.2a1.7,1.7,0,0,0-1.5-.2l-.6.2h-.1"/><path d="M118.2,23.2c0,.1-.1.3-.2.3l-.3-.2a.1.1,0,0,0-.1-.1h-.2a1.1,1.1,0,0,0-.8,0,1.8,1.8,0,0,0-.7.5.3.3,0,0,0-.1.2h.5l.5-.2h.4c.1-.1.2-.1.4,0a.4.4,0,0,1,.1.3h0a.3.3,0,0,0-.1.2l-.2.4a10.8,10.8,0,0,0-.3,1.9,1.6,1.6,0,0,1-.6.8,1.6,1.6,0,0,1-.9.3,1.5,1.5,0,0,1-.9-.2,1.1,1.1,0,0,1-.5-.9c-.1-.1,0-.3.2-.3s.3.1.3.2.2.5.3.5l.6.2.6-.3a.5.5,0,0,0,.3-.4c.2-.5.1-1.4.4-2.1a.8.8,0,0,0,.2-.4H117l-.6.2a1,1,0,0,1-.9,0l-.2-.2c0-.1-.1-.2-.1-.3l.3-.6a2,2,0,0,1,.9-.6,2.2,2.2,0,0,1,1.1-.1l.4.2a.5.5,0,0,1,.3.5"/><path d="M120.3,24.5c0,.2,0,.3-.1.4s-.3,0-.4-.1h-.2l-.5.3-.3.6c0,.2,0,.3.1.4h.5a4.5,4.5,0,0,0,2.5-1.6,1.7,1.7,0,0,0,.3-.7h-.4a2.7,2.7,0,0,0-2.1.9h-.4a.4.4,0,0,1-.1-.3,3.4,3.4,0,0,1,2.6-1.2l.6.2a.6.6,0,0,1,.3.6,1.9,1.9,0,0,1-.3,1,4.4,4.4,0,0,1-2.9,1.8,1.1,1.1,0,0,1-1-.2,1,1,0,0,1-.2-.9,2,2,0,0,1,.5-.9l.7-.4c.1,0,.3-.1.4,0l.4.2"/><path d="M161,25.5c.1-.1.3-.1.3,0s.1.3,0,.4l-.7.5h-.4c-.1-.2,0-.3,0-.4s.4-.4.8-.7l1.4-.9,1.8-1.1,1.3-.8h.3c.1-.1.2-.1.4,0h.2a.3.3,0,0,1-.1.2.5.5,0,0,1-.2.4c-.3.6-.9,1.1-1.2,1.6a1.5,1.5,0,0,0-.3.6h.1c.1,0,.3.1.2.3s-.1.2-.3.2h-.4c-.1-.2-.2-.3-.1-.5s.2-.5.3-.8l1.3-1.5a.4.4,0,0,1,.1-.3h.1c-.1-.1.1.1.1,0s0,.1,0,.1h-.2l-1.4.7-1.7,1.2c-1,.6-2,1.2-2,1.4h0s-.1-.2,0-.1-.2-.1-.1-.1h-.2l.6-.4"/><path d="M169.7,22.7a.3.3,0,0,1,0,.4h-.4c0-.1,0-.1-.1-.1h.1a1,1,0,0,0-.1.4,12.1,12.1,0,0,1-.1,1.8,4.7,4.7,0,0,1-1.1,2.1l-.5.3H167c-.2,0-.3-.2-.5-.4a.8.8,0,0,1-.2-.5,1.7,1.7,0,0,1,0-1.2,2.7,2.7,0,0,1,1.4-.8,11.7,11.7,0,0,0,2-.6,2.9,2.9,0,0,0,1.6-.8h-.8l-.6.2c-.1,0-.2.1-.2.3s-.1.2-.3.2a.2.2,0,0,1-.2-.2,1,1,0,0,1,.4-.8l.9-.2h.8l.3.2q.2,0,.3.3a1.4,1.4,0,0,1-.2.6,3.4,3.4,0,0,1-1.8.9l-2,.6-1.1.5a1.1,1.1,0,0,0,0,.8.5.5,0,0,0,.2.4.2.2,0,0,0,.2.2h.1l.3-.2a3.5,3.5,0,0,0,1-1.8c.1-.5,0-1.2.1-1.8a1.9,1.9,0,0,1,.2-.7.4.4,0,0,1,.5-.1l.3.2"/><path d="M171.5,24.6a.2.2,0,0,1,.4-.1.2.2,0,0,1,.1.3,2,2,0,0,0-.3,1.1v.6l.3.2h.6a1.6,1.6,0,0,0,1.6-.9,1.3,1.3,0,0,0,.2-.8.5.5,0,0,0-.2-.4l-.7-.2a2.9,2.9,0,0,0-1.7.6h-.4a.3.3,0,0,1,0-.4,3.6,3.6,0,0,1,2.2-.7,1.6,1.6,0,0,1,.9.3,1.3,1.3,0,0,1,.5.7,2.7,2.7,0,0,1-.3,1.2,2.7,2.7,0,0,1-2.1,1.2l-.8-.2a1.5,1.5,0,0,1-.6-.5,2.1,2.1,0,0,1,0-.8,2.5,2.5,0,0,1,.3-1.3"/><path class="cls-2" d="M71.3,14c.2.1.3.2.2.4a.2.2,0,0,1-.3.1H71V14a6.8,6.8,0,0,1-.1-3.2,2,2,0,0,1,1.4-1.5.9.9,0,0,1,1,.1,2,2,0,0,1,.8.8,1.8,1.8,0,0,1-.2,1.6l-.6.7h-.1c-.1.1.1.5.4.8l.8.6a.2.2,0,0,1,.1.4.2.2,0,0,1-.3.1,2,2,0,0,1-1-.8,1.7,1.7,0,0,1-.6-1.1.6.6,0,0,1,.3-.5l.5-.6a1.5,1.5,0,0,0,.2-1.1,1.2,1.2,0,0,0-.5-.5.6.6,0,0,0-.7-.1,1.8,1.8,0,0,0-1,1.2,8.7,8.7,0,0,0,.1,2.8.4.4,0,0,1,.1.3h-.2m-.1-3.5c0-.1.1-.2.3-.2s.2.2.2.3h0a1.1,1.1,0,0,1-.1.5v1.5a2,2,0,0,0-.1.7v.7h0a.2.2,0,0,1-.3.1c-.2,0-.2-.2-.2-.3h0V12.7a8.1,8.1,0,0,0,.1-1.5v-.6h.1m.5.2a.3.3,0,0,1-.3.3.3.3,0,0,1-.3-.3h0a.3.3,0,0,1,.3-.3l.3.2h0v.2"/><path class="cls-2" d="M76.1,14.8c-.2.1-.3,0-.4-.1a.4.4,0,0,1,.2-.4l1.1-1,.7-.7.5-.2h.2l.2.2c.1.5-.2.8-.3,1.3s-.1.3-.1.5h0c.2.1.3.2.2.4a.2.2,0,0,1-.3.1l-.3-.2a.4.4,0,0,1-.1-.3,1.5,1.5,0,0,1,.1-.7l.3-.9h0s.1.1,0,.1h0l-.7.6-.8.7c-.2.2-.3.4-.5.4"/><path class="cls-2" d="M114.9,15.1c0,.1-.1.2-.3.2s-.2-.1-.2-.3v-.8a10.8,10.8,0,0,1,.2-3.1,1.5,1.5,0,0,1,.6-.9h1.2a1.8,1.8,0,0,1,1,.7.8.8,0,0,1,.2.8c0,.7-.7,1.3-1.2,1.8s-.4.3-.5.5h.3l1.1.8a.2.2,0,0,1,.1.4H117l-1.1-.8-.3-.2h-.2v-.3c0-.2.1-.3.2-.5l.6-.5c.4-.5,1-1.1,1-1.4a.7.7,0,0,0-.1-.5l-.8-.5h-.7a1,1,0,0,0-.4.5,14.6,14.6,0,0,0-.2,3c0,.4.1.7,0,.9m0-4.7a.5.5,0,0,1,.4-.2c.1.1.2.2.1.4s-.2,1.4-.3,2.4a6.2,6.2,0,0,0-.1,1.3,1.3,1.3,0,0,0-.1.6h0c0,.2-.1.3-.2.3s-.3-.1-.3-.2h0v-.6c0-.4.1-.9.1-1.3a13,13,0,0,1,.4-2.6"/><path class="cls-2" d="M119.8,14.5c-.1.1-.3.1-.3-.1s-.1-.3.1-.3a.6.6,0,0,1,.7-.1,1,1,0,0,1,.4.5.5.5,0,0,1-.1.7,2.1,2.1,0,0,1-.4.6l-.5.4c-.1.1-.2.2-.2.3h0c0,.1-.1-.1,0,0h1.1a3.4,3.4,0,0,1,1.1.5.3.3,0,0,1,0,.4h-.4c-.4-.4-1-.3-1.6-.3h-.5l-.2-.2a.2.2,0,0,1,0-.3c0-.1,0-.1.1-.2l.2-.3a1,1,0,0,0,.5-.4l.4-.4v-.5h-.3"/><path class="cls-2" d="M165.3,15.8a.3.3,0,0,1,0,.4c-.2.1-.3.1-.4,0s-.1-.3-.2-.5v-.6a6.6,6.6,0,0,1,.4-2.7,3.2,3.2,0,0,1,1-1.3.7.7,0,0,1,.6-.1l.5.2a2,2,0,0,1,.4.8,1.5,1.5,0,0,1-.2.9c-.2.4-.7.7-1,1l-.3.4v.2a.7.7,0,0,0,.3.3l.5.6.7.6c0,.2,0,.3-.1.4a.3.3,0,0,1-.4,0,3.4,3.4,0,0,0-.6-.6l-.5-.6a1.5,1.5,0,0,1-.4-.6v-.4a1.6,1.6,0,0,1,.4-.7c.4-.3.8-.6.9-.9a.7.7,0,0,0,.1-.6.5.5,0,0,0-.2-.4h-.4c-.3.1-.6.6-.8,1.1a5.1,5.1,0,0,0-.4,2.4,1.3,1.3,0,0,1,.1.6h0m.1-4.1h.4c.1.2.1.3-.1.4h.1l-.2.6c0,.4-.1.9-.1,1.3s-.1.9-.2,1.3v.4c0,.1,0,.2.1.2h-.1a.3.3,0,0,1-.3.3c-.1-.1-.2-.2-.2-.3h0v-.7c0-.3.1-.8.1-1.2s.1-1,.2-1.4a4.3,4.3,0,0,1,.1-.5l.2-.4"/><path class="cls-2" d="M170.3,14.5h-.4a.3.3,0,0,1,0-.4.5.5,0,0,1,.4-.2c.2-.1.3,0,.4.1a.9.9,0,0,1,.3.7,2,2,0,0,1-.1.7c0,.2-.2.3-.3.4l-.3.4h.1a1,1,0,0,1,.5.4.5.5,0,0,1,.2.4.4.4,0,0,1,0,.5.9.9,0,0,1-.7.4h-.9l-1.4.2c-.2.1-.3,0-.4-.1s0-.3.1-.3a3.2,3.2,0,0,1,1.7-.3h1.1V17h0l-.5-.3c-.1-.1-.1-.2-.2-.2s-.1-.1-.1-.2v-.3c.1-.2.3-.3.4-.4s.2-.2.2-.3a.7.7,0,0,0,.1-.5c-.1-.2-.1-.3-.2-.3h0"/><path class="cls-2" d="M71.2,34.7a.2.2,0,0,1,.4.1c0,.1,0,.3-.1.3h.1a.4.4,0,0,0-.1.3,5.9,5.9,0,0,0-.2,1.3.8.8,0,0,0,0,.7c0,.1-.1.3,0,.4V38h0l-.4.3c-.2-.2-.1-.2-.1-.3v-.2a20.6,20.6,0,0,0-.2-2.1,3.1,3.1,0,0,1,.3-1.3,1.6,1.6,0,0,1,.7-.9,1.1,1.1,0,0,1,1.1.1,1.3,1.3,0,0,1,.5.9,2.1,2.1,0,0,1-.3,1.3c-.2.4-.6.5-.7.7s-.1.1,0,.2.1.2.2.3l1.2.8a.3.3,0,0,1,0,.4c-.1.1-.3.2-.4.1l-1.1-.9a1,1,0,0,1-.4-.5.6.6,0,0,1,.1-.7l.6-.7a1.9,1.9,0,0,0,.3-.9l-.3-.6a.5.5,0,0,0-.5,0,1,1,0,0,0-.5.6,2.2,2.2,0,0,0-.2,1.1c0,.8.1,1.5.1,2v.3h0a.2.2,0,0,1-.1.4.2.2,0,0,1-.3-.1c-.2-.2-.2-.3-.2-.6V36.7c.1-.5.1-1,.2-1.4a.6.6,0,0,0,.1-.4.1.1,0,0,0,.1-.1h.1m.4.2c0,.1-.1.3-.2.3a.3.3,0,0,1-.3-.3h0s.1.1,0,.1a.2.2,0,0,1,.1-.4.2.2,0,0,1,.3,0,.3.3,0,0,1,.1.2"/><path class="cls-2" d="M75.6,36.5c-.1-.2,0-.3.1-.4s.3,0,.4.1h0v.2a.1.1,0,0,0-.1.1c-.1.2-.2.3-.2.5a.8.8,0,0,0-.1.3h.1a.6.6,0,0,0,.5-.2c.1,0,.3,0,.3.1a.3.3,0,0,1,0,.4,1,1,0,0,1-.9.2h-.4c-.1-.2-.2-.3-.2-.5s.1-.3.2-.5a.8.8,0,0,1,.2-.5.1.1,0,0,1,.1-.1h0m.4.1c-.1.1-.3,0-.4-.1a.3.3,0,0,1,0-.4h.2a.3.3,0,0,1,.3.3c0,.1-.2.2-.3.2H76"/><path class="cls-2" d="M77,36.5a.3.3,0,0,1,.3-.3.2.2,0,0,1,.2.2c.1.5-.3,1.1-.6,1.7a1.9,1.9,0,0,0-.2.7c0,.1-.1.2,0,.3h0a.3.3,0,0,1,0,.4.2.2,0,0,1-.3,0l-.3-.3v-.5a3.6,3.6,0,0,1,.4-.9c.2-.6.5-1.2.5-1.3"/><path class="cls-3" d="M35.6,63.6a.2.2,0,0,1-.4.1c-.1-.1-.2-.2-.1-.4a2,2,0,0,1,.8-.4l.9-.2a4.5,4.5,0,0,1,1.6-.3h.3a.5.5,0,0,1,.2.4c0,.3-.2.5-.5.7a.3.3,0,0,1-.4-.4q.3-.2.3-.3c.1,0,.1,0,.1-.1h0a4.1,4.1,0,0,0-1.5.2l-.9.2-.4.2"/><path class="cls-3" d="M35.6,62.9c-.1.1-.3.2-.4.1a.3.3,0,0,1,0-.4h0v-.2c.1-.1.3-.2.4-.1s.2.2.1.4h-.1m.9-3.2c.1-.1.3-.2.4-.1s.2.2.1.4h0a.3.3,0,0,0-.1.2l-.5,1.1a7.6,7.6,0,0,1-.7,1.3c0,.1-.1.2-.1.3h0c0,.2-.2.2-.3.2s-.2-.2-.2-.3h0l.2-.3.6-1.2.5-1.1c0-.1.1-.2.1-.3h0m.5.4c-.1.1-.3.2-.4.1s-.2-.2-.1-.4h0c0-.2.2-.3.3-.2s.3.2.2.3h0v.2"/><path class="cls-3" d="M36.8,59.6c.1.1.2.2.1.4h-.1c-.1,0,0-.1,0-.1h0c.1.1.1.3.2.5s1.3,1.4,1.3,2.4-.1.3-.2.3a.3.3,0,0,1-.3-.3c0-.7-.8-1.3-1.3-2.2a1.4,1.4,0,0,1-.2-.6v-.3l.3-.2h.2"/><path class="cls-3" d="M37.5,60.3c.2,0,.3.2.2.3s-.2.2-.3.2h.2a.9.9,0,0,0,.3.5,1.6,1.6,0,0,0,.4.7c0,.2.1.3.1.4a.4.4,0,0,1,.1.3c-.1.2-.2.2-.4.2a.5.5,0,0,1-.2-.4c.1,0,0,.1,0,.1h0v-.2a4.3,4.3,0,0,1-.4-.7c-.1-.2-.3-.4-.3-.6a.3.3,0,0,1,0-.4.2.2,0,0,1,.4-.1"/><path class="cls-3" d="M36.3,61.9c0-.2,0-.3.1-.4s.3,0,.4.1,0,.3,0,.4v.6h-.2l.3-.2h-.2l.6.2a.5.5,0,0,1,.2.4.2.2,0,0,1-.3.1c-.4-.1-.7-.1-.9-.3a.3.3,0,0,1-.1-.2.4.4,0,0,1,.1-.3h.3c.2,0,.4-.1.6,0a.2.2,0,0,1,.2.2c.1.1.1.3,0,.3s-.1.2-.2.3l-.3.2a.1.1,0,0,1-.1.1h-.4a.4.4,0,0,1-.1-.3v-.8h0s.1.1,0,.1m-.2,1.3c-.1,0-.3-.1-.3-.2s.1-.3.2-.3h-.1c.1,0,0,.1,0,.1h0v-.2c0-.1.1-.3.1-.4a.8.8,0,0,0,.1-.4c.1-.1.1-.1.1-.2h.2c.1-.1.2,0,.3.1s0,.3-.2.4h.1a1.1,1.1,0,0,1-.1.5c0,.1-.1.3-.1.4s-.1.1-.1.2h-.3m.3-2.1a.3.3,0,0,1,.3-.3c.1,0,.2.2.2.3h0a10.4,10.4,0,0,0-.4,1,.9.9,0,0,0-.1.5v.2h0a.2.2,0,0,1-.1.4.2.2,0,0,1-.3-.1h-.1v-.2h0v-.2A1.3,1.3,0,0,1,36,62a3.9,3.9,0,0,1,.4-.9h0m-.3,1.7c-.2,0-.3-.1-.2-.3a.2.2,0,0,1,.2-.2H36s-.1.1-.1,0h0c.1,0,.1-.1.1-.2a.8.8,0,0,0,.2-.5.9.9,0,0,0,.1-.5.1.1,0,0,0,.1-.1c.1-.2.2-.2.4-.1s.1.2.1.3h0c-.1.1-.1.3-.2.4a1.4,1.4,0,0,1-.2.6.4.4,0,0,1-.1.3h-.3m.7-2.1c.1-.1.3,0,.4.1s0,.3-.1.3l-.4.6a1.4,1.4,0,0,0-.2.6.3.3,0,0,0-.1.2h0a.3.3,0,0,1-.3.3q-.1,0-.3-.3h.1a.4.4,0,0,1,.1-.3,1.4,1.4,0,0,1,.2-.6c.2-.3.3-.7.6-.8"/><path class="cls-3" d="M17.4,59.4a.3.3,0,0,1,.4-.4.4.4,0,0,1,.1.3v.2a.8.8,0,0,1-.2.4,3.7,3.7,0,0,1-.5,1.1,5.9,5.9,0,0,1-.4.8c-.1.2-.1.4-.2.4h-.1c.1.1-.1,0-.1,0h-.2c.1-.1.2-.1.4,0a.2.2,0,0,1,0,.3h-.5c-.1-.2,0-.2,0-.2h0c.1-.1.1-.3.2-.5s.3-.5.4-.8l.5-1.1.2-.3h0"/><path class="cls-3" d="M15.5,58.5c0,.2-.2.2-.3.2s-.2-.2-.2-.4h.8c.9,0,2.2-.4,3.4-.5a3.3,3.3,0,0,1,1.4,0,1,1,0,0,1,.5.4.9.9,0,0,1,0,.7l-.3.2c-.2-.1-.3-.2-.2-.4v-.4H19.2l-3.3.6h-.5s.1-.1,0-.1h.1m.8.3a.3.3,0,0,1,0,.4h-.4a.8.8,0,0,0-.4-.4H15c0-.1,0-.3.2-.3a.2.2,0,0,1,.3.1h-.1l.4.2a1,1,0,0,1,.5.4"/><path class="cls-3" d="M14.7,62.8a.5.5,0,0,1,.2.4l-.4.2c-.1-.1-.3-.1-.3-.3s0-.3.1-.4h.2l.9-.3,3.3-.5.3.2a.5.5,0,0,1-.2.4l-3.3.5a1.3,1.3,0,0,0-.8.2h0"/><path class="cls-3" d="M23.3,61.3a.5.5,0,0,1-.2.4c-.1,0-.3-.1-.3-.2h-.1l-.5.4-.4.4H22a.5.5,0,0,1,.6-.1.2.2,0,0,1,.2.2v.7a5.2,5.2,0,0,1-.2,1.1,8.8,8.8,0,0,1-.2,1.7,1.3,1.3,0,0,1-.7,1,1.7,1.7,0,0,1-1,.1.9.9,0,0,1-.8-.6,1.8,1.8,0,0,1,.4-1.3.3.3,0,0,1,.4,0c.1.1.1.2,0,.4a.9.9,0,0,0-.3.7c.1.2.2.3.4.3h.7a.7.7,0,0,0,.4-.6c.1-.4.1-1,.2-1.7s.1-.7.2-1.1v-.3h-.2l-.4.2-.4-.2a.6.6,0,0,1,0-.6,1.7,1.7,0,0,1,.6-.6l.7-.4h.3l.4.3"/><path class="cls-3" d="M25.2,61.3c0,.1,0,.3-.1.3s-.3.1-.4-.1h0a.1.1,0,0,0-.1.1l-.6.5-.3.9a.3.3,0,0,0,.1.2H24a1.6,1.6,0,0,0,.9-.4c.2-.1.3-.1.4,0a.3.3,0,0,1,0,.4,1.7,1.7,0,0,1-1.4.5.9.9,0,0,1-.6-.3,1.3,1.3,0,0,1-.1-.6,4.2,4.2,0,0,1,.4-1,2.7,2.7,0,0,1,.7-.8h.4a.5.5,0,0,1,.5.3"/><path class="cls-3" d="M25.2,61.2c.2,0,.3.2.2.3s-.2.2-.3.2h-.4l.2.2c.1,0,.1.2.1.3a.2.2,0,0,1-.4.1.8.8,0,0,1-.4-.4.7.7,0,0,1,.1-.5l.4-.2a.4.4,0,0,1,.5,0"/><path class="cls-3" d="M27.3,60.9a.2.2,0,0,1,.1.3c0,.2-.2.2-.3.2H27c-.1,0-.1.2-.1.4a4.4,4.4,0,0,0,.2,1v.5c-.1.2-.1.4-.2.6l-.6.4h-.2c0,.2-.2.3-.3.2s-.2-.1-.2-.3l.2-.3H26c.2-.1.4-.2.4-.3s.1-.1.1-.3a.2.2,0,0,0,0-.3c0-.3-.1-.7-.1-1.1a1.7,1.7,0,0,1,.1-.7.5.5,0,0,1,.4-.2h.4"/><path d="M57.5,99.1c.1-.1.3,0,.4.1s.1.3,0,.3h0V101c.1,1,.1,2.3.1,3.4v2.2a6.5,6.5,0,0,0,0,1.4v.2h0a.3.3,0,0,1,.4,0c0,.2,0,.3-.1.4h-.7c-.1-.2-.1-.4-.2-.6s.1-.9.1-1.4v-2.2c0-1.1-.1-2.3-.1-3.4V99.4h0v-.2m.5.5c.1.1,0,.3-.2.3s-.2,0-.3-.2-.1-.2-.1-.3h.1c-.1,0-.1-.2,0-.3s.2-.2.4-.1v.5"/><path d="M57.7,109.4c-.1,0-.2-.1-.2-.3s.1-.3.2-.3H88.8a.3.3,0,0,1,.3.3.3.3,0,0,1-.3.3Z"/><path d="M88.6,98.7a.2.2,0,0,1,.2-.2c.2,0,.3.1.3.2v10.4a.3.3,0,0,1-.3.3c-.1,0-.2-.1-.2-.3Z"/><path d="M57.7,99c-.1,0-.2-.1-.2-.3a.2.2,0,0,1,.2-.2H88.8c.2,0,.3.1.3.2a.3.3,0,0,1-.3.3Z"/><path d="M150.9,99.1c.1-.1.3,0,.4.1s0,.3-.1.3h.1c-.1,0,0-.1,0-.1h0v8.8h-.1c.2-.1.3-.1.4,0s.1.3-.1.4h-.3c-.1,0-.3,0-.3-.1a.7.7,0,0,1-.2-.6v-7a2.4,2.4,0,0,1,0-1.2v-.4h0s-.1-.1.1-.2m.5.5c0,.1-.1.3-.2.3s-.3,0-.3-.2a.4.4,0,0,1-.1-.3h.1a.2.2,0,0,1-.1-.3c.1-.1.3-.2.4-.1s.1.2.1.2a.4.4,0,0,0,.1.3"/><path d="M151.1,109.4a.3.3,0,0,1-.3-.3.3.3,0,0,1,.3-.3h31.1a.5.5,0,0,1,.3.3.3.3,0,0,1-.3.3Z"/><path d="M181.9,98.7c0-.1.1-.2.3-.2s.3.1.3.2v10.4a.3.3,0,0,1-.3.3.3.3,0,0,1-.3-.3Z"/><path d="M151.1,99a.3.3,0,0,1-.3-.3c0-.1.1-.2.3-.2h31.1c.1,0,.3.1.3.2a.3.3,0,0,1-.3.3Z"/><path d="M57.5,119.9a.3.3,0,1,1,.4.4c-.1,0,0-.1,0-.1h0s.1-.1,0-.1h0v1.5c.1,1.1.1,2.4.1,3.4v2.3a5.6,5.6,0,0,0,0,1.3v.3h0c.1-.1.3,0,.4.1a.6.6,0,0,1-.1.4H58l-.4-.2c-.1-.1-.1-.3-.2-.5s.1-1,.1-1.4v-2.3c0-1-.1-2.3-.1-3.4v-1.6h.1m.5.4c.1.1,0,.3-.2.3s-.2,0-.3-.1-.1-.3-.1-.4h.1s.1.1,0,.1a.3.3,0,0,1,0-.4c.1-.1.2-.1.4,0H58v.3"/><path d="M57.7,130.1l-.2-.2c0-.2.1-.3.2-.3H88.8a.3.3,0,0,1,.3.3c0,.1-.1.2-.3.2Z"/><path d="M88.6,119.5c0-.2.1-.3.2-.3a.3.3,0,0,1,.3.3v10.4c0,.1-.1.2-.3.2l-.2-.2Z"/><path d="M57.7,119.8c-.1,0-.2-.2-.2-.3s.1-.3.2-.3H88.8a.3.3,0,0,1,.3.3.3.3,0,0,1-.3.3Z"/><path d="M37,104.3a.3.3,0,0,1-.3-.3.3.3,0,0,1,.3-.3H57.7a.3.3,0,0,1,.3.3.3.3,0,0,1-.3.3Z"/><path d="M182.2,104.5a.3.3,0,0,1-.3-.3.3.3,0,0,1,.3-.3h20.7a.3.3,0,0,1,.3.3.3.3,0,0,1-.3.3Z"/><path d="M37,124.9a.3.3,0,0,1-.3-.3c0-.1.1-.2.3-.2H57.7c.2,0,.3.1.3.2a.3.3,0,0,1-.3.3Z"/><path d="M88.8,125c-.1,0-.2-.1-.2-.3a.2.2,0,0,1,.2-.2h51.9c.2,0,.3.1.3.2a.3.3,0,0,1-.3.3Z"/><path d="M140.4,103.8a.3.3,0,0,1,.3-.3.3.3,0,0,1,.3.3v21a.3.3,0,0,1-.3.3.5.5,0,0,1-.3-.3Z"/><path d="M36.7,104a.3.3,0,0,1,.3-.3.5.5,0,0,1,.3.3v46.6a.3.3,0,0,1-.3.3.3.3,0,0,1-.3-.3Z"/><path d="M202.7,104.4c0-.1.1-.3.2-.3a.3.3,0,0,1,.3.3v46.2a.3.3,0,0,1-.3.3c-.1,0-.2-.1-.2-.3Z"/><path d="M37.7,151h-.3a.3.3,0,0,1,0-.4h0s-.1.2,0,.1h0c-.1,0,0,.1,0,.1h-.6l-.7.2a1.6,1.6,0,0,0-.5.8,3,3,0,0,0,.1,2.5,1.3,1.3,0,0,0,.7.6h.8a3.3,3.3,0,0,0,1.7-3.2c0-.2,0-.3-.1-.4l-.2-.2H37.3a.5.5,0,0,1-.4-.3.6.6,0,0,1,.1-.4h1.8l.5.5a1.3,1.3,0,0,1,.1.6,3.2,3.2,0,0,1-.3,1.9,3.5,3.5,0,0,1-1.8,1.8H36.2a1.9,1.9,0,0,1-1-.8,3.6,3.6,0,0,1-.1-2.9,1.7,1.7,0,0,1,.6-1.1,2.5,2.5,0,0,1,1.1-.4h1c0,.1.1.2.1.3l-.2.2"/><path d="M203.9,151h-.3a.3.3,0,0,1,0-.4h0s-.1.2-.1.1.1.2.1.1,0,.1,0,.1H203l-.7.2a1.6,1.6,0,0,0-.5.8,3,3,0,0,0,.1,2.5,1.3,1.3,0,0,0,.7.6h.8a3.4,3.4,0,0,0,1.4-1.5,5.1,5.1,0,0,0,.3-1.7c0-.2,0-.3-.1-.4l-.2-.2h-1.3a.5.5,0,0,1-.4-.3.6.6,0,0,1,.1-.4H205l.5.5a1.3,1.3,0,0,1,.1.6,3.2,3.2,0,0,1-.3,1.9,3.5,3.5,0,0,1-1.8,1.8h-1.1a1.9,1.9,0,0,1-1-.8,3.6,3.6,0,0,1-.1-2.9,1.7,1.7,0,0,1,.6-1.1,2.1,2.1,0,0,1,1.1-.4h1c0,.1.1.2.1.3l-.2.2"/><path class="cls-2" d="M71.3,93.2c.2.1.3.2.2.3s-.2.3-.3.2H71v-.2a6.8,6.8,0,0,1-.1-3.2,2,2,0,0,1,1.4-1.5.9.9,0,0,1,1,.1,2,2,0,0,1,.8.8,1.8,1.8,0,0,1-.2,1.6l-.6.7h-.1c-.1.1.1.5.4.8l.8.6a.2.2,0,0,1,.1.4.2.2,0,0,1-.3.1,2,2,0,0,1-1-.8,1.7,1.7,0,0,1-.6-1.1.6.6,0,0,1,.3-.5l.5-.6a1.5,1.5,0,0,0,.2-1.1l-.5-.5a.6.6,0,0,0-.7-.1,1.8,1.8,0,0,0-1,1.2,8.7,8.7,0,0,0,.1,2.8.4.4,0,0,1,.1.3h-.2m-.1-3.5c0-.1.1-.2.3-.2s.2.2.2.3h0a1.1,1.1,0,0,1-.1.5v1.5a2,2,0,0,0-.1.7v.7h0a.2.2,0,0,1-.3.1c-.2,0-.2-.2-.2-.3h0V91.9a8.1,8.1,0,0,0,.1-1.5v-.6h.1m.5.2a.3.3,0,0,1-.3.3.3.3,0,0,1-.3-.3h0a.3.3,0,0,1,.3-.3l.3.2h0v.2"/><path class="cls-2" d="M165.3,95a.3.3,0,0,1,0,.4h-.4c-.2-.2-.1-.3-.2-.5v-.6a6.6,6.6,0,0,1,.4-2.7,3.2,3.2,0,0,1,1-1.3.7.7,0,0,1,.6-.1l.5.2a2,2,0,0,1,.4.8,1.5,1.5,0,0,1-.2.9c-.2.4-.7.7-1,1l-.3.4v.2a.7.7,0,0,0,.3.3l.5.6.7.6c0,.2,0,.3-.1.4a.3.3,0,0,1-.4,0,3.4,3.4,0,0,0-.6-.6l-.5-.6a1.5,1.5,0,0,1-.4-.6v-.4a1.6,1.6,0,0,1,.4-.7c.4-.3.8-.6.9-.9a.7.7,0,0,0,.1-.6.5.5,0,0,0-.2-.4h-.4c-.3.1-.6.6-.8,1.1a5.1,5.1,0,0,0-.4,2.4,1.3,1.3,0,0,1,.1.6h0m.1-4.1a.3.3,0,0,1,.4,0c.1.2.1.3-.1.4h.1l-.2.6c0,.4-.1.9-.1,1.3s-.1.9-.2,1.3v.4c0,.1,0,.2.1.2s0,.1-.1.1h0a.3.3,0,0,1-.3.3l-.2-.3h0v-.7c0-.3.1-.8.1-1.2s.1-1,.2-1.4a4.3,4.3,0,0,1,.1-.5l.2-.4"/><path class="cls-2" d="M170.3,93.7h-.4a.3.3,0,0,1,0-.4.5.5,0,0,1,.4-.2c.2-.1.3,0,.4.1a.9.9,0,0,1,.3.7,2,2,0,0,1-.1.7c0,.2-.2.3-.3.4l-.3.4h.1a1,1,0,0,1,.5.4.5.5,0,0,1,.2.4.4.4,0,0,1,0,.5.9.9,0,0,1-.7.4h-.9l-1.4.2c-.2.1-.3,0-.4-.1s0-.3.1-.3a3.2,3.2,0,0,1,1.7-.3h1.1v-.2h0l-.5-.3-.2-.2v-.5l.4-.4.2-.3a.7.7,0,0,0,.1-.5c-.1-.2-.1-.3-.2-.3h0"/><path class="cls-2" d="M71.2,113.9a.2.2,0,0,1,.4.1c0,.1,0,.3-.1.3h.1a.4.4,0,0,0-.1.3,5.9,5.9,0,0,0-.2,1.3.8.8,0,0,0,0,.7c0,.1-.1.3,0,.4v.2h0l-.4.3c-.2-.2-.1-.2-.1-.3v-.2a20.6,20.6,0,0,0-.2-2.1,3.1,3.1,0,0,1,.3-1.3,1.6,1.6,0,0,1,.7-.9,1.1,1.1,0,0,1,1.1.1,1.3,1.3,0,0,1,.5.9,2.1,2.1,0,0,1-.3,1.3c-.2.4-.6.5-.7.7s-.1.1,0,.2l.2.3,1.2.8a.3.3,0,0,1,0,.4c-.1.1-.3.2-.4.1l-1.1-.9a1,1,0,0,1-.4-.5.6.6,0,0,1,.1-.7l.6-.7a1.9,1.9,0,0,0,.3-.9l-.3-.6h-.5a1,1,0,0,0-.5.6,2.2,2.2,0,0,0-.2,1.1c0,.8.1,1.5.1,2v.3h0a.2.2,0,0,1-.1.4.2.2,0,0,1-.3-.1c-.2-.2-.2-.3-.2-.6v-1.1c.1-.5.1-1,.2-1.4a.6.6,0,0,0,.1-.4h.2m.4.2c0,.1-.1.3-.2.3a.3.3,0,0,1-.3-.3h0s.1.1,0,.1a.2.2,0,0,1,.1-.4.2.2,0,0,1,.3,0v.2"/><path class="cls-2" d="M75.6,115.7c-.1-.2,0-.3.1-.4s.3,0,.4.1h0v.2H76c-.1.2-.2.3-.2.5v.3h.1a.6.6,0,0,0,.5-.2h.3a.3.3,0,0,1,0,.4,1,1,0,0,1-.9.2h-.4c-.1-.2-.2-.3-.2-.5s.1-.3.2-.5a.8.8,0,0,1,.2-.5h.1m.4.1c-.1.1-.3,0-.4-.1a.3.3,0,0,1,0-.4h.2a.3.3,0,0,1,.3.3c0,.1-.2.2-.3.2H76"/><path class="cls-2" d="M77,115.7a.3.3,0,0,1,.3-.3l.2.2c.1.5-.3,1.1-.6,1.7a1.9,1.9,0,0,0-.2.7c0,.1-.1.2,0,.3h0a.3.3,0,0,1,0,.4h-.3l-.3-.3v-.5a3.6,3.6,0,0,1,.4-.9l.5-1.3"/><path d="M57.5,173h.4c.1.2.1.3,0,.4h0v1.6c.1,1,.1,2.3.1,3.4v2.2a6.5,6.5,0,0,0,0,1.4v.2h.4a.6.6,0,0,1-.1.4h-.7c-.1-.2-.1-.4-.2-.6s.1-1,.1-1.4v-2.2c0-1.1-.1-2.4-.1-3.4v-1.6h0V173m.5.4c.1.2,0,.3-.2.4s-.2,0-.3-.2v-.3h.1a.2.2,0,0,1,0-.3c.1-.2.2-.2.4-.1v.4"/><path d="M88.6,172.6l.2-.2c.2,0,.3.1.3.2V183a.3.3,0,0,1-.3.3c-.1,0-.2-.2-.2-.3Z"/><path d="M57.7,172.9c-.1,0-.2-.1-.2-.3l.2-.2H88.8c.2,0,.3.1.3.2a.3.3,0,0,1-.3.3Z"/><path d="M150.9,173h.4c0,.2,0,.3-.1.4h.1c-.1,0,0-.1,0-.1h0v8.8h.3a.2.2,0,0,1-.1.4H151a.7.7,0,0,1-.2-.6v-7a2.8,2.8,0,0,1,0-1.3v-.3h0s-.1-.1.1-.2m.5.4a.5.5,0,0,1-.2.4c-.1,0-.3,0-.3-.2a.4.4,0,0,1-.1-.3h.1c-.1-.1-.2-.2-.1-.3a.2.2,0,0,1,.4-.1c.2.1.1.2.1.2s0,.2.1.2"/><path d="M151.1,183.3a.3.3,0,0,1-.3-.3.3.3,0,0,1,.3-.3h31.1a.3.3,0,0,1,.3.3.5.5,0,0,1-.3.3Z"/><path d="M181.9,172.6c0-.1.1-.2.3-.2l.3.2V183a.5.5,0,0,1-.3.3.3.3,0,0,1-.3-.3Z"/><path d="M37,178.2a.3.3,0,0,1-.3-.3.3.3,0,0,1,.3-.3H57.7a.3.3,0,0,1,.3.3.3.3,0,0,1-.3.3Z"/><path d="M182.2,178.4a.3.3,0,0,1-.3-.3.3.3,0,0,1,.3-.3h20.7a.3.3,0,0,1,.3.3.3.3,0,0,1-.3.3Z"/><path d="M202.7,178.3c0-.2.1-.3.2-.3a.3.3,0,0,1,.3.3v46.2a.3.3,0,0,1-.3.3c-.1,0-.2-.2-.2-.3Z"/><path d="M37.7,224.9h-.3a.3.3,0,0,1,0-.4h0s-.1.1,0,.1h0c-.1,0,0,.1,0,.1h-.6c-.3.1-.5.1-.7.3a1.6,1.6,0,0,0-.5.8,3.1,3.1,0,0,0,.1,2.5,1.3,1.3,0,0,0,.7.6,1.2,1.2,0,0,0,.8-.1,2.7,2.7,0,0,0,1.4-1.4,3.6,3.6,0,0,0,.3-1.7c0-.2,0-.3-.1-.4s-.1-.1-.2-.2H37.3l-.4-.3c0-.2,0-.3.1-.4s.3,0,.4.1h1.4a1.2,1.2,0,0,1,.5.5c.1.1.1.4.1.6a3.3,3.3,0,0,1-.3,1.9,3,3,0,0,1-1.8,1.7,1.4,1.4,0,0,1-1.1.1,1.9,1.9,0,0,1-1-.8,3.6,3.6,0,0,1-.1-2.9,1.7,1.7,0,0,1,.6-1.1,1.7,1.7,0,0,1,1.1-.4h1v.3a.2.2,0,0,1-.2.2"/><path d="M203.9,224.9h-.3a.3.3,0,0,1,0-.4h-.1c.1,0,.1.2.1.1s0,.1,0,.1H203c-.3.1-.5.1-.7.3a1.6,1.6,0,0,0-.5.8,3.1,3.1,0,0,0,.1,2.5,1.3,1.3,0,0,0,.7.6,1.2,1.2,0,0,0,.8-.1,2.7,2.7,0,0,0,1.4-1.4,5.5,5.5,0,0,0,.3-1.7c0-.2,0-.3-.1-.4s-.1-.1-.2-.2h-1.3l-.4-.3c0-.2,0-.3.1-.4s.3,0,.4.1H205l.5.5c.1.1.1.4.1.6a3.3,3.3,0,0,1-.3,1.9,3,3,0,0,1-1.8,1.7,1.4,1.4,0,0,1-1.1.1,1.9,1.9,0,0,1-1-.8,3.6,3.6,0,0,1-.1-2.9,1.7,1.7,0,0,1,.6-1.1,1.5,1.5,0,0,1,1.1-.4h1v.3a.2.2,0,0,1-.2.2"/><path class="cls-2" d="M71.3,167.1c.2,0,.3.2.2.3s-.2.3-.3.2H71a.4.4,0,0,1-.1-.3,6.4,6.4,0,0,1-.1-3.1,2.3,2.3,0,0,1,1.4-1.6,1.2,1.2,0,0,1,1,.2,2,2,0,0,1,.8.8,1.8,1.8,0,0,1-.2,1.6l-.6.7h-.1c-.1.1.1.5.4.8l.8.6c.2.1.2.2.1.4h-.3a2.7,2.7,0,0,1-1-.8,1.7,1.7,0,0,1-.6-1.2c0-.2.2-.3.3-.4l.5-.6a1.5,1.5,0,0,0,.2-1.1L73,163a1.1,1.1,0,0,0-.7-.2,2.3,2.3,0,0,0-1,1.3,8.7,8.7,0,0,0,.1,2.8.4.4,0,0,1,.1.3h-.2m-.1-3.5c0-.2.1-.2.3-.2s.2.2.2.3h0a1.5,1.5,0,0,1-.1.6v1.5a2,2,0,0,0-.1.7v.7h0a.2.2,0,0,1-.3.1c-.2-.1-.2-.2-.2-.4h0v-1.4a8.1,8.1,0,0,0,.1-1.5v-.6h.1m.5.2a.3.3,0,0,1-.3.3l-.3-.3h0a.3.3,0,0,1,.3-.3c.1,0,.2,0,.3.2h0v.2"/><path class="cls-2" d="M165.3,168.9a.3.3,0,0,1,0,.4h-.4c-.2-.2-.1-.3-.2-.5v-.6a6.6,6.6,0,0,1,.4-2.7,2.7,2.7,0,0,1,1-1.3l.6-.2.5.3c.2.1.3.4.4.7a1.3,1.3,0,0,1-.2.9c-.2.5-.7.8-1,1.1l-.3.3v.3l.3.3.5.6.7.6a.6.6,0,0,1-.1.4h-.4c-.2-.4-.4-.4-.6-.6l-.5-.6c-.1-.2-.3-.3-.4-.6v-.5l.4-.6c.4-.3.8-.6.9-.9a.7.7,0,0,0,.1-.6.5.5,0,0,0-.2-.4h-.4a2.4,2.4,0,0,0-.8,1.1,5.5,5.5,0,0,0-.4,2.5,1.1,1.1,0,0,1,.1.5v.2h0m.1-4.1a.3.3,0,0,1,.4,0,.2.2,0,0,1-.1.4h.1a3.2,3.2,0,0,0-.2.6c0,.4-.1.8-.1,1.3s-.1.9-.2,1.3v.6h-.1c0,.2-.1.3-.3.2s-.2-.1-.2-.3h0v-.7c0-.4.1-.8.1-1.2s.1-1,.2-1.4a4.3,4.3,0,0,1,.1-.5l.2-.4"/><path class="cls-2" d="M170.3,167.5c-.1.1-.3.2-.4.1a.3.3,0,0,1,0-.4l.4-.3.4.2a.8.8,0,0,1,.3.7,2,2,0,0,1-.1.7c0,.2-.2.3-.3.4l-.3.4h.1a1,1,0,0,1,.5.4.5.5,0,0,1,.2.4.4.4,0,0,1,0,.5.9.9,0,0,1-.7.4h-.9l-1.4.2c-.2.1-.3,0-.4-.1a.6.6,0,0,1,.1-.4,4.7,4.7,0,0,1,1.7-.2h1.1v-.2h0l-.5-.4-.2-.2h-.1V169l.4-.4.2-.3a.7.7,0,0,0,.1-.5c-.1-.2-.1-.3-.2-.3h0"/><path d="M57.5,246.6h.4a.3.3,0,0,1,0,.4c-.1,0,0-.1,0,0h0v1.5c.1,1.1.1,2.4.1,3.4v2.3a5.6,5.6,0,0,0,0,1.3v.3h0c.1-.1.3,0,.4.1a.6.6,0,0,1-.1.4H58a.5.5,0,0,1-.4-.2c-.1-.1-.1-.3-.2-.5s.1-1,.1-1.4v-2.3c0-1-.1-2.3-.1-3.3v-1.6h0c0-.1,0-.1.1-.2m.5.4c.1.2,0,.3-.2.4l-.3-.2v-.3h.1c-.1-.1-.1-.2,0-.4h.4c.1.1.1.1.1.2v.2"/><path d="M57.7,256.9c-.1,0-.2-.2-.2-.3s.1-.3.2-.3H88.8a.3.3,0,0,1,.3.3.3.3,0,0,1-.3.3Z"/><path d="M88.6,246.2c0-.1.1-.3.2-.3a.3.3,0,0,1,.3.3v10.4a.3.3,0,0,1-.3.3c-.1,0-.2-.2-.2-.3Z"/><path d="M57.7,246.5c-.1,0-.2-.1-.2-.3s.1-.3.2-.3H88.8a.3.3,0,0,1,.3.3.3.3,0,0,1-.3.3Z"/><path d="M37,251.7c-.2,0-.3-.1-.3-.2a.3.3,0,0,1,.3-.3H57.7a.3.3,0,0,1,.3.3c0,.1-.1.2-.3.2Z"/><path d="M36.7,251.5a.3.3,0,0,1,.3-.3.3.3,0,0,1,.3.3v18.2c0,.1-.2.2-.3.2s-.3-.1-.3-.2Z"/><path d="M202.7,251.9c0-.2.1-.3.2-.3a.3.3,0,0,1,.3.3v15.2a.3.3,0,0,1-.3.3c-.1,0-.2-.1-.2-.3Z"/><path class="cls-2" d="M71.3,240.7c.2,0,.3.2.2.3s-.2.2-.3.2H71a.4.4,0,0,1-.1-.3,6.4,6.4,0,0,1-.1-3.1,2.3,2.3,0,0,1,1.4-1.6,1.2,1.2,0,0,1,1,.2,1.6,1.6,0,0,1,.8.8,1.8,1.8,0,0,1-.2,1.6l-.6.7a.1.1,0,0,0-.1.1h0c-.1.1.1.5.4.7a2.7,2.7,0,0,0,.8.7c.2.1.2.2.1.4h-.3a2.7,2.7,0,0,1-1-.8,1.7,1.7,0,0,1-.6-1.2c0-.2.2-.3.3-.4l.5-.6a1.5,1.5,0,0,0,.2-1.1l-.5-.6h-.7a2.4,2.4,0,0,0-1,1.2,9.2,9.2,0,0,0,.1,2.9.4.4,0,0,1,.1.3h0s-.1-.1,0-.1-.2,0-.2,0m-.1-3.5c0-.2.1-.3.3-.2s.2.2.2.3h0a1.8,1.8,0,0,1-.1.6v1.5a2,2,0,0,0-.1.7v.7h0c0,.2-.2.2-.3.2s-.2-.2-.2-.4h0v-1.4a8.1,8.1,0,0,0,.1-1.5v-.6h.1m.5.2a.3.3,0,0,1-.3.3l-.3-.3h0a.3.3,0,0,1,.3-.3c.1-.1.2,0,.3.2h0v.2"/><path d="M88.8,251.7a.4.4,0,0,1-.4-.4.4.4,0,0,1,.4-.4l114.1.6c.3,0,.4.1.4.4a.4.4,0,0,1-.4.4Z"/><path d="M37.3,270.4c.2-.1.5-.1.6.1a.5.5,0,0,1-.1.6h-.7a.5.5,0,0,1-.2-.4l-.6-.6H36a.7.7,0,0,0-.6.3c-.2.1-.3.5-.4,1a5.9,5.9,0,0,0,.2,1.3,1.1,1.1,0,0,0,.6.7.8.8,0,0,0,.8.2l.4-.2a3.7,3.7,0,0,0,1.4-2,2.1,2.1,0,0,0-.3-1.2h-.5c-.2-.1-.5,0-.9.2s-.5.1-.6-.1a.5.5,0,0,1,.2-.6,3.7,3.7,0,0,1,1.4-.4,1.9,1.9,0,0,1,1,.5,2,2,0,0,1,.5,1.8,4.6,4.6,0,0,1-1.7,2.6,1.1,1.1,0,0,1-.8.3,1.7,1.7,0,0,1-1.4-.3,2.3,2.3,0,0,1-.9-1.2,7,7,0,0,1-.2-1.6,2.8,2.8,0,0,1,.6-1.5,1.6,1.6,0,0,1,1-.5,1.2,1.2,0,0,1,1,.2l.7.7.2.3h-.4"/><path d="M203.4,268.2a.7.7,0,0,1-.5.4.4.4,0,0,1-.4-.4.9.9,0,0,0-.5-1.1l-.6-.2a.5.5,0,0,0-.5.3,5.4,5.4,0,0,0-.6,2.5,3.1,3.1,0,0,0,.1,1c0,.2.2.4.4.6a4.5,4.5,0,0,0,1.6.3,1.5,1.5,0,0,0,.7-.5,7.5,7.5,0,0,0,.7-1.2,4,4,0,0,0,.3-1.5,1.6,1.6,0,0,0-.3-.8l-.7-.5a1.1,1.1,0,0,0-.8,0,1,1,0,0,0-.5.8.4.4,0,0,1-.5.2c-.3-.1-.4-.3-.3-.5a1.8,1.8,0,0,1,1-1.2,2,2,0,0,1,1.3-.1,2.4,2.4,0,0,1,1.1.8,2.1,2.1,0,0,1,.5,1.3,3.9,3.9,0,0,1-.4,1.8,3.7,3.7,0,0,1-.7,1.4,2.2,2.2,0,0,1-1.3.8,4.9,4.9,0,0,1-2.1-.4,2.1,2.1,0,0,1-.8-1.1,4.9,4.9,0,0,1-.1-1.2,4.8,4.8,0,0,1,.7-3.1,1.7,1.7,0,0,1,1.2-.5,2.9,2.9,0,0,1,1,.3,2,2,0,0,1,1,1.8"/><path d="M88.8,104.8a.5.5,0,0,1-.4-.5.4.4,0,0,1,.4-.4h61.5a.5.5,0,0,1,.5.4.5.5,0,0,1-.5.5Z"/><path d="M36.6,177.9a.4.4,0,1,1,.8,0v47.6a.4.4,0,0,1-.8,0Z"/><path d="M58,184.1a.5.5,0,0,1-.5-.4.4.4,0,0,1,.4-.4l30.9-.7c.3,0,.4.2.5.4a.4.4,0,0,1-.4.4Z"/><path d="M151.1,173a.4.4,0,0,1-.4-.4.4.4,0,0,1,.4-.4h31.1a.4.4,0,0,1,.4.4.4.4,0,0,1-.4.4Z"/><path d="M88.8,178.4a.5.5,0,0,1-.4-.5.4.4,0,0,1,.4-.4h62.3a.4.4,0,0,1,.4.4c0,.3-.1.5-.4.5Z"/><path class="cls-2" d="M77.4,92.9c-.1-.2.1-.4.3-.4a.5.5,0,0,1,.5.4h-.1c0,.2-.1.4-.1.7s-.1.7-.2.9v.5c.2.2.1.4-.1.5s-.4.1-.5-.1a1.5,1.5,0,0,1-.2-.9,3,3,0,0,1,.2-1,1.9,1.9,0,0,1,.2-.8h0m.7.3a.4.4,0,0,1-.5.2c-.2,0-.3-.3-.3-.5a.1.1,0,0,0,.1-.1h.1c.1-.2.3-.3.5-.1s.2.4.1.6h.1a.1.1,0,0,0-.1.1"/><path class="cls-2" d="M76.2,92.3a.4.4,0,0,1-.5.2.5.5,0,0,1-.3-.5c.1-.2.2-.2.3-.2h2.1a2.5,2.5,0,0,1,2.1.6.6.6,0,0,1,0,.6c-.2.1-.5.1-.6-.1l-1.5-.3H76.1s.1-.1,0-.1h.1m-.1-.5a.4.4,0,0,1,.3.5c0,.2-.2.3-.4.3h-.3c-.1,0-.2,0-.3-.3a.5.5,0,0,1,.3-.5c.3,0,.5.1.5.4s-.1-.2,0-.2h-.1"/><path class="cls-2" d="M75.8,96.4a.5.5,0,0,1-.6-.2.4.4,0,0,1,.2-.5c1.2-.6,2.7-.4,4.4-.2a.3.3,0,0,1,.3.5c0,.2-.2.3-.4.3a8.1,8.1,0,0,0-3.9.1"/><path class="cls-2" d="M76.8,165.8a.4.4,0,0,1,.5-.2.5.5,0,0,1,.2.6h0a.8.8,0,0,1-.1.4l-.3,1.3-.2.8h0s-.1-.1,0-.1h-.1a.5.5,0,0,1,.5.3c.1.2,0,.4-.3.5h-.3l-.3-.2a.9.9,0,0,1-.3-.5,3,3,0,0,1,.2-1c.1-.6.3-1,.3-1.3a1.1,1.1,0,0,0,.1-.5h.1m.7.3a.4.4,0,0,1-.8,0h0c0-.3.1-.5.3-.5a.4.4,0,0,1,.5.3h0"/><path class="cls-2" d="M78.2,166.7a.4.4,0,0,1,.4-.4.4.4,0,0,1,.4.4c0,.8-.4,1.5-.3,2.1a.4.4,0,0,1-.4.4c-.3,0-.4-.2-.5-.4a20,20,0,0,1,.4-2.1"/><path class="cls-2" d="M75.8,165.2a.5.5,0,0,1,.2.6c0,.2-.3.3-.5.2l-.3-.2a.1.1,0,0,1-.1-.1c-.1-.1-.1-.2-.1-.4s.1-.2.2-.2h3.5a6,6,0,0,1,2.9.4.5.5,0,0,1,.1.6.3.3,0,0,1-.5.1c-.7-.4-4-.4-5.5-.2h.1v-.2s-.1-.2,0-.1h0"/><path class="cls-2" d="M75.5,170.2a.6.6,0,0,1-.6.1c-.2-.1-.2-.4-.1-.6a1.7,1.7,0,0,1,1-.6h1.3a9.5,9.5,0,0,0,3.3-.3c.2,0,.5.1.5.3a.4.4,0,0,1-.2.5,11.7,11.7,0,0,1-3.6.3H75.9c-.2.1-.4.1-.4.3"/><path class="cls-2" d="M78.3,238.9a.5.5,0,0,1,.2.6.5.5,0,0,1-.6.1l-.9-.3h-.3c-.1,0,.1-.1.1-.1h0s-.1-.1,0-.1h-.1l.3-.2.2-.2.2-.2h.4l.2.3c.2.5,0,1,0,1.6a20,20,0,0,0,.5,2.6,1.3,1.3,0,0,1,.1.9,1,1,0,0,1-.4.5l-.5.2a1.4,1.4,0,0,1-1.1-.1,1.4,1.4,0,0,1-.9-.8,1.7,1.7,0,0,1,.1-.7l.4-.6c.2-.2.5-.2.6,0s.2.4,0,.6l-.2.3a.3.3,0,0,0-.1.2l.4.3h.9a1.8,1.8,0,0,0-.1-.6,14.6,14.6,0,0,1-.5-2.7c0-.7.1-1.3,0-1.3h.6l-.3.3-.4.3-.2.2h-.5a1,1,0,0,1-.4-.5V239a.8.8,0,0,1,.2-.4l.8-.2a3.5,3.5,0,0,1,1.3.5"/><path class="cls-2" d="M80.8,238.9a.5.5,0,0,1,.6.2.3.3,0,0,1-.1.5,1.3,1.3,0,0,0-.6.7,1.2,1.2,0,0,0-.1.8c0,.2.1.3.3.4a1.3,1.3,0,0,0,.8-.3c.2-.1.5-.1.6.1a.5.5,0,0,1-.1.6,2.5,2.5,0,0,1-1.6.4,1.4,1.4,0,0,1-.8-1,2,2,0,0,1,.1-1.3,3.1,3.1,0,0,1,.9-1.1"/><path class="cls-2" d="M81.4,238.9c.2.1.4.3.3.5a.5.5,0,0,1-.5.4h.1v-.2h0l.2.2a.7.7,0,0,1,.3.6.4.4,0,0,1-.6.2,1.2,1.2,0,0,1-.7-.7v-.3a.6.6,0,0,1,.1-.4l.3-.2h.4"/><path class="cls-2" d="M85.2,239.1c.1.2-.1.4-.3.5a.5.5,0,0,1-.5-.3l-.2-.2h-.1v.2a1.5,1.5,0,0,0,.3.6,2.2,2.2,0,0,1,.5,1.7,2.3,2.3,0,0,1-1.3,1.5.4.4,0,0,1-.4-.8,1.5,1.5,0,0,0,.9-.9c.1-.2-.1-.6-.3-1s-.5-.5-.5-1a.5.5,0,0,1,0-.5,1,1,0,0,1,.4-.5,1.4,1.4,0,0,1,.9.1,1.1,1.1,0,0,1,.6.7"/><path class="cls-4" d="M23.3,50.8c.3,0,.5.1.5.4a.4.4,0,0,1-.4.4c-28.8,3.7-30.1,27.1-3.6,70.7.1.2.1.5-.1.6a.5.5,0,0,1-.6-.2c-26.8-44-25.4-68.1,4.2-71.9"/><path class="cls-4" d="M20.5,116.8a.5.5,0,0,1,.2-.6.4.4,0,0,1,.5.2c.1.3.1.2.1.2v3.7a13,13,0,0,0,.4,3.1,10.4,10.4,0,0,0,.4,1,1.4,1.4,0,0,1,.2.7c.1,0,.1,0,.1.1a.4.4,0,0,1-.1.3l-.3.2H20.2a27.2,27.2,0,0,1-5.6-1.3.6.6,0,0,1-.3-.6.5.5,0,0,1,.6-.2,25.2,25.2,0,0,0,5.4,1.3h1.4c0-.1-.1.2-.1.1h0a1.6,1.6,0,0,1-.3-.6l-.3-1a11.1,11.1,0,0,1-.5-3.4,20.8,20.8,0,0,1,0-2.5,8,8,0,0,0-.1-1.1h.1m.7.5a.4.4,0,0,1-.4.4.4.4,0,0,1-.4-.4v-.6c0-.1,0,0,.1-.2h0a.4.4,0,0,1,.5-.2.5.5,0,0,1,.2.6h.1c-.1.1-.1.3-.1.6"/><path class="cls-4" d="M23,137.8c.2-.2.4-.1.6,0s.1.5-.1.6q-40.9,32.7-3.8,66.8a.5.5,0,0,1,.1.6c-.2.2-.5.2-.6,0q-37.8-34.8,3.8-68"/><path class="cls-4" d="M21.7,209.8c.1.2.1.5-.1.6a.5.5,0,0,1-.6-.2h.1a12.8,12.8,0,0,0-2.6-1.5l-1.5-.6c-.2-.1-.5-.2-.6-.4a1,1,0,0,1-.4-.7.5.5,0,0,1,.4-.5.4.4,0,0,1,.4.4v.2l.4.3,1.6.6,1.6.9a3.5,3.5,0,0,1,1.1.7c.1,0,.1,0,.1.1h0m-2.9-9.6a.4.4,0,0,1,.4-.4.4.4,0,0,1,.4.4,9,9,0,0,0,.2,2.2c.2,1.1.7,2.5,1.1,4s.3,1.5.4,2.1a5.3,5.3,0,0,0,.3,1.1h-.1a.4.4,0,0,1,.2.6.4.4,0,0,1-.5.2c-.2-.1-.1-.1-.2-.2l-.2-.4a5.3,5.3,0,0,1-.3-1.1c-.1-.6-.2-1.3-.4-2.1s-.9-2.9-1.1-4a12,12,0,0,1-.2-2.4"/><path class="cls-4" d="M19.2,216.5a.5.5,0,0,1,.6.1.5.5,0,0,1-.1.6c-14.6,12.4-13.4,27.4,3.8,45.3a.4.4,0,0,1,0,.6H23c-17.6-18.2-18.9-33.8-3.8-46.6"/><path class="cls-4" d="M24.1,257.6a.4.4,0,0,1-.2.5c-.2.1-.4.1-.5-.1h0s.1.1,0,.1.2.1.2,0H24c-.1.1,0-.2,0-.1h0l.2.8c.2,1,.4,2.3.6,3.4a6,6,0,0,1,.2,1.2,2.4,2.4,0,0,1,.2.8.8.8,0,0,1-.1.4c0,.1-.2.2-.3.2h-.5c-.8-.3-1.7-.9-2.5-1.3a3,3,0,0,0-1.1-.4,1,1,0,0,0-.9.6.4.4,0,1,1-.7-.5,2.2,2.2,0,0,1,1.6-.9,2.7,2.7,0,0,1,1.5.5l2.4,1.3h-.1c.1,0-.1.2-.1.1s0,.2,0,.2h0c0-.1-.1-.4-.2-.8s-.1-.7-.2-1.2-.4-2.3-.6-3.3a4.4,4.4,0,0,1-.2-1h0a.4.4,0,0,1,.3-.4c.1-.1.3,0,.4,0H24c.1.1.1.1.1.2"/><path class="cls-3" d="M49.3,6.6a.7.7,0,0,1,.7-.8.7.7,0,0,1,.9.7h0v.6a11.5,11.5,0,0,1-.1,1.8c-.1,2.3-.3,4.2.1,4.8a.8.8,0,0,1-.3,1.1.7.7,0,0,1-1.1-.2c-1-1.5-.4-3.6-.3-5.8,0-.6.1-1.3.1-1.8V6.7h0m1.6,0a.8.8,0,0,1-1.6,0h0a.7.7,0,0,1,.8-.7.8.8,0,0,1,.8.8h0"/><path class="cls-3" d="M49.7,20a.7.7,0,0,1,.9-.7c.4,0,.7.5.7.9a28.7,28.7,0,0,0-.3,4.1,21.1,21.1,0,0,0,.2,3.7.7.7,0,0,1-.1,1.1A.8.8,0,0,1,50,29a3.7,3.7,0,0,1-.6-2.1,22.6,22.6,0,0,1-.1-2.7,28.1,28.1,0,0,1,.4-4.2"/><path class="cls-3" d="M50.5,33.9a.8.8,0,0,1-.4-1.1.8.8,0,0,1,1.1-.4,33.1,33.1,0,0,1,7.9.1.9.9,0,0,1,.7,1,.9.9,0,0,1-1,.6,20.3,20.3,0,0,0-4.9-.2h-2a1.7,1.7,0,0,1-1.4-.1"/><path class="cls-3" d="M67.5,33.6a.8.8,0,0,1-.9-.6.7.7,0,0,1,.6-1,11,11,0,0,1,2.7-.4,14.6,14.6,0,0,1,4.9.4.8.8,0,0,1,.7,1,.9.9,0,0,1-1,.6,15.2,15.2,0,0,0-4.5-.4l-2.5.4"/><path class="cls-3" d="M86,32.4c.1-.4.5-.8.9-.7a.8.8,0,0,1,.8.9c-.1.1-.1-.5-.1-.4s-.2-.3-.1-.2l-.2-.2c0,.1-.2-.1-.2,0h0c0,.1.1.1.3.1h7a.8.8,0,0,1,.8.9.7.7,0,0,1-.9.7,48,48,0,0,0-5.4,0H86.5a1.3,1.3,0,0,1-.5-.9"/><path class="cls-3" d="M104.6,33.4a.9.9,0,0,1-.9-.8.9.9,0,0,1,.8-.8l2.1-.3a17.4,17.4,0,0,1,4.4.2.8.8,0,0,1,.7.9,1,1,0,0,1-.9.7,19.5,19.5,0,0,0-4.1-.1l-2.1.2"/><path class="cls-3" d="M121,32.6a.8.8,0,0,1,.2,1.2.9.9,0,0,1-1.2.1l-.3-.4a.8.8,0,0,1,.1-.8.9.9,0,0,1,.6-.5l1.1-.2a16.9,16.9,0,0,1,5.7.7.8.8,0,0,1-.4,1.6,13.6,13.6,0,0,0-5.2-.6H121s.2-.3.2-.2.1-.5.1-.3v-.4c.1.1-.1-.2-.1-.1H121"/><path class="cls-3" d="M132.6,33.5a.8.8,0,0,1-1.2-.1.8.8,0,0,1,.1-1.1,4.6,4.6,0,0,1,2-.8,7.8,7.8,0,0,1,3.3.3.8.8,0,0,1,.5,1,.7.7,0,0,1-1,.5,6,6,0,0,0-2.6-.2,3.5,3.5,0,0,0-1.1.4"/><path class="cls-3" d="M135.6,6.5a.8.8,0,0,1,.7-.9.7.7,0,0,1,.9.7c.2,1.7-.4,3.1.3,4.8a.8.8,0,0,1-.4,1.1.7.7,0,0,1-1-.4c-1.1-2.3-.4-4.2-.5-5.3"/><path class="cls-3" d="M135.7,17a.8.8,0,0,1,1.1-.5.9.9,0,0,1,.5,1.1,11.6,11.6,0,0,0-.1,5.3.9.9,0,0,1-.5,1.1.8.8,0,0,1-1-.6,9.9,9.9,0,0,1-.4-3.5,16.8,16.8,0,0,1,.4-2.9"/><path class="cls-3" d="M137,25.8a.9.9,0,0,1,1.1.2.9.9,0,0,1-.1,1.2h-.1c0,.1-.1.3-.1.4a5.9,5.9,0,0,0-.2,1.4,18.1,18.1,0,0,0,.2,2.2.8.8,0,0,1-1.3.9,4.9,4.9,0,0,1-.5-3.2,9.9,9.9,0,0,1,.2-1.7,2.3,2.3,0,0,1,.8-1.4"/><path class="cls-3" d="M51.9,5.8a.8.8,0,0,1-.8.9.8.8,0,0,1-.8-.8,1.5,1.5,0,0,1,.2-.9,1.8,1.8,0,0,1,.9-.6,5.7,5.7,0,0,1,1.8.1l3,.3h4.6a.9.9,0,0,1,.8.8.8.8,0,0,1-.8.8A36.3,36.3,0,0,1,56,6.4l-3-.3H51.9c-.1.1,0-.1,0-.1h0"/><path class="cls-3" d="M70.6,6.1a.8.8,0,0,1-1-.6.9.9,0,0,1,.6-1h2.1a29.7,29.7,0,0,1,5,.3.7.7,0,0,1,.7.9c-.1.4-.5.8-.9.7a40.2,40.2,0,0,0-4.8-.2H70.6m0-1.6a.9.9,0,0,1,.9.8.9.9,0,0,1-.8.8c-.1,0,0,.1-.4,0a.8.8,0,0,1-.7-.9,1,1,0,0,1,.9-.7h.1"/><path class="cls-3" d="M90.4,5.8a.8.8,0,0,1-.6,1,.9.9,0,0,1-1-.6,1.1,1.1,0,0,1,0-.6,1.3,1.3,0,0,1,.6-.5h1.5c1.6,0,4.8-.9,7.1-.9a.9.9,0,0,1,.8.9.9.9,0,0,1-.9.8c-1.7-.1-4.9.9-7.1.8h-.9c0,.1.3-.2.3-.1s.2-.4.2-.3,0-.4,0-.3h0"/><path class="cls-3" d="M107,5.6a.8.8,0,0,1-.1,1.1.8.8,0,0,1-1.2-.1.6.6,0,0,1-.2-.5,1.4,1.4,0,0,1,.2-.6l.5-.3.7-.2a13.4,13.4,0,0,1,5.5.8,1,1,0,0,1,.5,1.1,1,1,0,0,1-1.1.5,9.8,9.8,0,0,0-4.7-.7h-.3l.2-.2V6.3c0,.1,0-.4.1-.3V5.7H107"/><path class="cls-3" d="M121.7,6.6a.8.8,0,0,1-.7-1.5,7.7,7.7,0,0,1,2.8-.3,16.1,16.1,0,0,1,3.7.7.9.9,0,0,1,.5,1.1.9.9,0,0,1-1.1.5,10.3,10.3,0,0,0-5.2-.5m-.1-1.5c.4.1.8.5.7.9a.8.8,0,0,1-.9.7h-.5a.8.8,0,0,1-.2-1.2.9.9,0,0,1,1.1-.2c.1.1-.2-.1-.1-.1h-.1"/><path class="cls-3" d="M131.3,7.3a.8.8,0,0,1-.7-.9.7.7,0,0,1,.9-.7c.9.1,2.3-.4,4.1.2a.8.8,0,0,1,.6,1,.9.9,0,0,1-1.1.5c-1.3-.4-2.4.1-3.8-.1"/><path class="cls-3" d="M143.1.9a.8.8,0,0,1,1.5.7,13,13,0,0,0-.5,3c-.1.9-.2,1.7-.3,2.3v.7s.1,0,0,.3-.1.3-.5.4a.6.6,0,0,1-.8-.1c-.3-.2-.2-.3-.3-.4V7.6c0-.2-.1-.4-.1-.6V5a13.3,13.3,0,0,1,.3-2.8,3,3,0,0,1,.5-1.4,2,2,0,0,1,1.7-.8,2.8,2.8,0,0,1,1.6.5,1.9,1.9,0,0,1,.7,1.1,1.4,1.4,0,0,1-.4,1.3c-.2.2-.4.5-.7.6l-.6.5V3.8c0,.1,0-.3.1-.2s-.1-.2-.1-.1h0a.7.7,0,0,0,.3.3,4.4,4.4,0,0,1,.8,1,2.5,2.5,0,0,1,.2.7,6.2,6.2,0,0,0,.7,1.7.8.8,0,0,1,.3,1.1c-.3.4-.8.6-1.1.3s-1.2-1.8-1.4-2.6l-.2-.4a1.3,1.3,0,0,0-.4-.6,3.4,3.4,0,0,1-.6-.6,1.4,1.4,0,0,1-.2-.6,1.1,1.1,0,0,1,.3-.8l.8-.6.5-.5h0V2c0-.1,0-.1-.1-.2l-.6-.2-.4.2a7.3,7.3,0,0,0-.2.8,9.3,9.3,0,0,0-.3,2.4,10.9,10.9,0,0,0,.1,1.9v.5h-.1l-.2-.2h-.3c.1,0-.6.1-.4,0l-.3.2-.2.2c0-.1-.1.3-.1.2h0V6.9a25,25,0,0,1,.2-2.5,15.4,15.4,0,0,1,.7-3.5"/><path class="cls-3" d="M150.7,6.3a.8.8,0,0,1,1.1-.4.8.8,0,0,1,.3,1.1c-.1.4-.5,1.1-.7,1.9a4.1,4.1,0,0,0-.3.8h0l-.2-.2-.4-.2a.8.8,0,0,1,.8.8.8.8,0,0,1-.8.9,1.3,1.3,0,0,1-.9-.7,1.7,1.7,0,0,1-.1-.7l.3-1.2a21.6,21.6,0,0,1,.9-2"/><path class="cls-3" d="M149.4,5.9a.9.9,0,0,1-1.2,0,.9.9,0,0,1,0-1.2l.4-.2h.4l.7.2a34.7,34.7,0,0,1,5.8.8.8.8,0,0,1,.6,1A.9.9,0,0,1,155,7c-1.5-.4-3.9-.4-5.6-.7l-.7-.2h.4l.3-.2m0-1.2a.8.8,0,0,1,.5,1c-.2.5-.6.7-1,.5h-.5c-.1,0-.2.1-.4-.4a.9.9,0,0,1,.6-1.1.9.9,0,0,1,1,.6c0,.2-.2-.3-.2-.3h0"/><path class="cls-3" d="M147.1,10.7c.4-.1.8.3.9.7a.9.9,0,0,1-.8.9h-.8a.6.6,0,0,1-.4-.6.9.9,0,0,1,.2-.8h.2l.9-.2c1.3-.2,3.1-.1,5.2-.4.4-.1.8.3.9.7a.7.7,0,0,1-.7.9,42.6,42.6,0,0,1-5.1.4h-.4c-.1,0,0-.1,0,0h.1l.2-.2v-.5c0,.1-.2-.4-.1-.3s-.3-.3-.2-.3h-.2"/><path class="cls-3" d="M31.8,85.5a.8.8,0,0,1-1-.6.7.7,0,0,1,.5-1l1.7-.2c2.7-.2,7.3-.5,11.8-.5a.7.7,0,0,1,.8.8.8.8,0,0,1-.8.8c-2.9,0-6,.2-8.5.3l-4.5.4"/><path class="cls-3" d="M54.2,83.9a.8.8,0,0,1,.7-.9.7.7,0,0,1,.9.7c.1.1-.2-.5-.1-.4h-.2c.1,0-.1-.1-.1-.1h2.7l6.6-.2a.9.9,0,0,1,.8.8.8.8,0,0,1-.8.8c-2.3,0-4.6.2-6.5.3H54.7a1.4,1.4,0,0,1-.5-.7"/><path class="cls-3" d="M80.3,84a1,1,0,0,1,.7-.9.7.7,0,0,1,.9.7c.1.1-.1-.4-.1-.3s-.2-.2-.1-.2h4a29.2,29.2,0,0,1,8.3.7.7.7,0,0,1,.5,1,.8.8,0,0,1-1,.6,28.4,28.4,0,0,0-7.8-.7H81a1,1,0,0,1-.7-.8"/><path class="cls-3" d="M109.6,84.6a.8.8,0,0,1-.4,1.6h-.4c-.1-.1-.3,0-.5-.5a.7.7,0,0,1,.1-.9l.4-.3h2.4a69.3,69.3,0,0,1,8.6.3.7.7,0,0,1,.7.9.8.8,0,0,1-.9.7,64.3,64.3,0,0,0-8.3-.3h-1.9c0,.1.2-.1.1-.1s.2-.2.2-.1.1-.6.1-.4-.1-.5-.1-.4l-.2-.3c.1.1-.1-.1-.1,0h.2"/><path class="cls-3" d="M131.2,86.6a.8.8,0,0,1-1.2-.2.8.8,0,0,1,.3-1.1,1.8,1.8,0,0,1,1.4-.3l2.3-.2a21.9,21.9,0,0,1,2.8-.3,13.7,13.7,0,0,1,7.3.8.8.8,0,0,1,.4,1.1.7.7,0,0,1-1,.4,14,14,0,0,0-6.6-.7l-2.8.3-2.2.2h-.8c-.1,0,.1-.1.1-.1"/><path class="cls-3" d="M144.2,86.3a1,1,0,0,1,.9-.8.9.9,0,0,1,.8.9c0,.5-.1,1.8,0,3.2a17.8,17.8,0,0,0,.8,4.7.8.8,0,0,1-.5,1,.9.9,0,0,1-1.1-.5,21.7,21.7,0,0,1-.8-5c-.1-1.6-.1-2.9-.1-3.5"/><path class="cls-3" d="M146.4,100.9a.7.7,0,0,1-.7.9.8.8,0,0,1-.9-.7h0s.1.2,0,.1l.2.2h.2c-.1-.1.4,0,.3,0h.5c-.1,0,0-.1,0,0a10.1,10.1,0,0,0-.4,1.8,14.2,14.2,0,0,0-.2,3,12.8,12.8,0,0,0,.2,2.9c.2.8.4,1.2.6,1.3a.8.8,0,0,1,.3,1.1,1,1,0,0,1-1.2.3,3.4,3.4,0,0,1-1.3-2.3,16.9,16.9,0,0,1-.3-3.3c0-1.1.1-2.2.2-3.2a10.9,10.9,0,0,1,.6-2.3l.2-.4a1.3,1.3,0,0,1,1-.3.9.9,0,0,1,.6.6,1.1,1.1,0,0,1,.1.5"/><path class="cls-3" d="M144.9,120a.9.9,0,0,1,.6,1,.8.8,0,0,1-1,.6h.4c-.1,0,.4-.3.4-.2s.1-.2.1-.2h0v1c0,.6.1,1.2.1,2v5.2a21.5,21.5,0,0,1-.7,6.6.9.9,0,0,1-1.6-.6,23.5,23.5,0,0,0,.7-6v-3a14.1,14.1,0,0,0-.1-2.1v-3.2a1.1,1.1,0,0,1,.1-.5c0-.1,0-.2.2-.4a1.1,1.1,0,0,1,.8-.2"/><path class="cls-3" d="M30.1,135.6a.9.9,0,0,1-.6-1,.8.8,0,0,1,1-.6,21.2,21.2,0,0,0,4,.1l7.2-.2a.7.7,0,0,1,.9.7.8.8,0,0,1-.8.9l-7.3.3a25.1,25.1,0,0,1-4.4-.2"/><path class="cls-3" d="M56.3,135.8c-.5-.1-.8-.5-.6-.9a.7.7,0,0,1,1-.6h1.4a33.2,33.2,0,0,1,7.9.5.8.8,0,0,1,.6,1,.8.8,0,0,1-.9.6,29.8,29.8,0,0,0-7.5-.5H56.3m.1-1.6a1,1,0,0,1,.9.7.7.7,0,0,1-.7.9h.1s.2-.1.2,0a1.1,1.1,0,0,1-1.2-.3,1,1,0,0,1,.4-1.2h.3"/><path class="cls-3" d="M85,133.8a.9.9,0,0,1,1,.6.8.8,0,0,1-.6,1h0c-.1,0,.1-.3.1-.2s.1-.4.1-.3v-.5h0c1.4.2,5.3-.7,8.8-.1a.8.8,0,1,1-.2,1.6,20.1,20.1,0,0,0-4.9-.1,13.5,13.5,0,0,1-3.9.2h-.6a1.1,1.1,0,0,1-.6-.6.9.9,0,0,1,0-.7l.4-.4.6-.3"/><path class="cls-3" d="M105.8,134.2a.8.8,0,0,1,1,.5.9.9,0,0,1-.5,1.1h.2c-.1,0,.2-.3.1-.2V135c0,.1-.2-.5-.1-.4l-.2-.2h-.1l1.8-.2a25.3,25.3,0,0,1,4.9-.2,23.9,23.9,0,0,1,5.7,1.1.8.8,0,0,1,.5,1,.9.9,0,0,1-1,.6,21.8,21.8,0,0,0-5.3-1.1,33.2,33.2,0,0,0-4.6.2l-1.8.2h-.9a.9.9,0,0,1-.5-.8c-.1-.5.2-.6.3-.6l.3-.2"/><path class="cls-3" d="M133.1,136.8a.8.8,0,0,1-.8-.8.8.8,0,0,1,.8-.9,19.1,19.1,0,0,0,3.5-.5c2.6-.4,5-.4,7.1.7a.8.8,0,1,1-.7,1.4,10.5,10.5,0,0,0-6.2-.5,27.1,27.1,0,0,1-3.7.6"/><path class="cls-3" d="M31.8,85a.8.8,0,0,1-.6,1,.7.7,0,0,1-1-.5.4.4,0,0,1-.1-.3V85c.1-.1.1-.2.2-.4a1,1,0,0,1,1-.2l.3.2a.6.6,0,0,1,.2.5,3.2,3.2,0,0,1,.5,1.3,10.1,10.1,0,0,1,.4,2c.5,3.1.2,7.3.4,9a.7.7,0,0,1-.6.9.8.8,0,0,1-1-.6c-.3-2.2,0-6.2-.4-9.1-.1-.7-.2-1.2-.3-1.7a7.3,7.3,0,0,0-.5-1.2h.1c-.1,0,.2.2.1.2s.3.1.2,0h.6c-.1,0,.3-.2.2-.2l.2-.3c0,.1.1-.3.1-.2h0c0,.1-.1-.1-.1-.1h.1"/><path class="cls-3" d="M31.9,104.8a.8.8,0,0,1,.8.8.9.9,0,0,1-.8.9l.4-.2h.1c-.1.1-.1.3-.2.6v3c0,1.2,0,2.6-.1,3.9s-.4,2.6-.1,3.3a.7.7,0,0,1-.5,1,.7.7,0,0,1-1-.4c-.6-1.4-.2-2.7-.1-4s.1-2.6.1-3.8a27.3,27.3,0,0,1,.1-3.1c.1-.4.1-.7.2-1.1l.4-.5a1.1,1.1,0,0,1,.7-.3"/><path class="cls-3" d="M31.4,125.7a.8.8,0,0,1-.6,1,.8.8,0,0,1-1-.6v-.2s.1.1,0,.1.2.2.2.1.2.2.1.1h.6s.3-.2.3-.1l.2-.2c-.1.1,0-.1,0-.1v0a33.1,33.1,0,0,0,.3,4.8v4.2h0c0,.1-.1-.2,0-.1s-.4-.3-.2-.2l-.4-.2h-.5l.2-.2a.9.9,0,0,1,1.2,0,.8.8,0,0,1,0,1.1l-.3.4h-.3a.4.4,0,0,1-.5.1.8.8,0,0,1-.7-.4c0-.1-.1-.2-.1-.3V135a4.1,4.1,0,0,1,0-1.1c0-.8,0-1.9-.1-3.1s-.3-3.9-.3-5a.4.4,0,0,1,.1-.3v-.3a.8.8,0,0,1,.9-.5c.5.1.6.3.6.4v.2l.2.4"/><path class="cls-3" d="M150,144.5a.8.8,0,0,1-.8.8.7.7,0,0,1-.8-.7h-.1c0-.2-.1-.3-.1-.5a16.1,16.1,0,0,1-.4-3.5,8.9,8.9,0,0,1,.3-2.2,5.2,5.2,0,0,1,1.1-2.1,2.5,2.5,0,0,1,1.9-.9,2.3,2.3,0,0,1,1.5,1,2,2,0,0,1,.2,1.1,3.4,3.4,0,0,1-.1.9,1.4,1.4,0,0,1-.7.9c-.1,0-.1.2-.2.4h.1l.5.7c.8,1.3,1.5,2.8,2.1,3.2a.7.7,0,0,1,.2,1.1.7.7,0,0,1-1.1.2c-1.3-.8-1.9-2.5-2.6-3.6a2.2,2.2,0,0,1-.5-.8,1.8,1.8,0,0,1-.3-1.3,2.7,2.7,0,0,1,.6-1.2l.4-.3h-.1c.1-.1.1-.2.1-.5v-.2h-.3c-.1,0-.2,0-.4.2a3.1,3.1,0,0,0-.8,1.5,11.3,11.3,0,0,0-.3,1.8,11.7,11.7,0,0,0,.4,3.1.4.4,0,0,0,.1.3v.2c.1,0,.1,0,.1.1v.2m-1.2-6.7a.8.8,0,1,1,1.6.3c-.1.5-.2,1.9-.3,3.3v3.2c0,.1.1.4-.4.6a.8.8,0,0,1-1.1-.2,1,1,0,0,1,.3-1.2l-.3.2c.1,0-.1.3-.1.2s0,.1,0,.1h0v-1.1c0-.5.1-1.2.1-1.8s.2-2.9.3-3.6"/><path class="cls-3" d="M157.5,144.5a.8.8,0,0,1,1-1.2c.5.4.3.6.3.7a.6.6,0,0,1-.1.4c0,.2-.1.4-.1.6l-.6,1.9a12.2,12.2,0,0,0-.3,1.7c-.1.1-.1.2,0,.2h-.1c0,.1-.1-.2-.1-.1s-.5-.2-.3-.2h-.4a.8.8,0,0,1,1,.6.7.7,0,0,1-.5,1,1.3,1.3,0,0,1-.9-.2.9.9,0,0,1-.3-.6,2.5,2.5,0,0,1-.1-.8,19.4,19.4,0,0,1,.5-2,9.5,9.5,0,0,1,.5-1.8c.1-.3.1-.5.2-.6v-.2h0s.1.3,0,.2.2.2.1.2h.2"/><path class="cls-3" d="M159.9,144a.8.8,0,0,1,1.1-.4.7.7,0,0,1,.4,1c0,.1-.4,1.2-.7,2.3a3.9,3.9,0,0,0-.3,1.3c0,.2-.1.2,0,.2h-.1l-.2-.2h-.4c.4-.1.8.3.9.7a.8.8,0,0,1-.8.9,1,1,0,0,1-1-.8,2,2,0,0,1-.1-.7,13.6,13.6,0,0,1,.4-1.7c.3-1.1.7-2.1.8-2.4"/><path class="cls-3" d="M154.9,142.4c.5-.1.8.3.9.8a.9.9,0,0,1-.9.8h-.7c-.1,0-.3,0-.5-.4a.8.8,0,0,1,0-.7l.3-.3c.3-.3.3-.2.4-.2h1.2a34.7,34.7,0,0,1,4.8-.2c1.8.1,3.7.5,4.8,1.8a.8.8,0,0,1-.1,1.2.8.8,0,0,1-1.1-.1,5.5,5.5,0,0,0-3.7-1.3,31,31,0,0,0-4.5.2H155c0,.1.2-.2.1-.1s.2-.5.1-.3v-.4c0,.1-.2-.3-.1-.2l-.2-.2h0"/><path class="cls-3" d="M153.1,149.5a.8.8,0,0,1,1,.7,1,1,0,0,1-.7.9h-.1l.2-.2h.1v-.6c0,.1-.2-.4-.2-.3s-.2-.2-.1-.2-.1,0-.1,0h.4a18.7,18.7,0,0,0,3.2-.1h6a.8.8,0,0,1,.8.9.7.7,0,0,1-.9.7H157a22.4,22.4,0,0,1-3.5.2c-.4-.1-.6,0-1-.3a.7.7,0,0,1-.4-.8.8.8,0,0,1,.4-.7h.6"/><path class="cls-3" d="M44.7,160.3a.9.9,0,0,1,.2-1.1.8.8,0,0,1,1.2.2c0,.1-.3-.2-.2-.2h3.5c2.2-.2,4.9-.4,7.3-.4a.8.8,0,0,1,.8.9.8.8,0,0,1-.8.8l-7.2.3-2.8.2h-1a1.1,1.1,0,0,1-1-.5"/><path class="cls-3" d="M63.7,158.1a.8.8,0,0,1,1.1.4.7.7,0,0,1-.5,1h.3l.2-.3c-.1.1,0-.3,0-.2s-.2-.6-.1-.5l-.2-.2-.2-.2h2.6a53.5,53.5,0,0,1,6.8.2,1,1,0,0,1,.7.9.8.8,0,0,1-.9.7c-2.3-.2-4.7-.2-6.5-.2H63.9c-.1,0-.3.2-.6-.4s0-.8.1-1h.3"/><path class="cls-3" d="M84.2,158.6a.9.9,0,0,1,.6,1,.8.8,0,0,1-1,.6c-.1,0-.4,0-.6-.5a.8.8,0,0,1,.2-.9c.3-.3.4-.2.5-.2l.7-.2,2.6-.2a33.3,33.3,0,0,1,8.2.3c.4,0,.7.5.7.9a.8.8,0,0,1-1,.7,42.6,42.6,0,0,0-7.8-.3l-2.4.2h-.3v-.5c0,.1-.3-.6-.2-.5s-.2-.2-.2-.1-.2-.2-.1-.1h-.1"/><path class="cls-3" d="M106,160.5a.7.7,0,0,1-1.1-.2.8.8,0,0,1,.1-1.1l.4-.2a22.9,22.9,0,0,1,3.6-.5,28.1,28.1,0,0,1,7.9.6.8.8,0,0,1,.6,1,.9.9,0,0,1-1,.6,24.6,24.6,0,0,0-7.4-.6l-2.4.3-.7.2h0"/><path class="cls-3" d="M127,161.1a1,1,0,0,1-.5-1.1.9.9,0,0,1,1.1-.5c.1.1,1.8-.1,3.9-.2a34.5,34.5,0,0,1,8.2.5,1,1,0,0,1,.7,1,.9.9,0,0,1-1,.6,31.1,31.1,0,0,0-7.8-.5l-2.7.2a4,4,0,0,1-1.9,0"/><path class="cls-3" d="M148,159.7a.9.9,0,0,1,.6-1,.8.8,0,0,1,1,.6c0,.1-.2-.3-.1-.3s-.3-.2-.2-.2h.6l3-.4a41.4,41.4,0,0,1,11,.3.7.7,0,0,1,.7.9.8.8,0,0,1-.9.7,43,43,0,0,0-10.6-.3l-3,.4h-1.4c-.2-.1-.6-.2-.7-.7"/><path class="cls-3" d="M174.4,159.8a.8.8,0,0,1-.8-.8.8.8,0,0,1,.8-.9h6.1a78.6,78.6,0,0,1,8.3.5.8.8,0,0,1,.8.9c-.1.4-.5.8-.9.7a76.3,76.3,0,0,0-8.2-.4c-2.5-.1-4.6,0-5.6,0h-.5m.3-1.7a.9.9,0,0,1,.8.9.9.9,0,0,1-.8.8h-.3a.8.8,0,0,1-.8-.8.8.8,0,0,1,.8-.9h.3"/><path class="cls-3" d="M190.1,159.4a.8.8,0,0,1-.9.7,1,1,0,0,1-.7-.9h0v.2l.2.2h.2c-.2-.1.6,0,.5.1h.2l.2-.2c0,.1.1-.1.1-.1h0l-.2.4c-.1.6-.3,1.4-.4,2.3a9.1,9.1,0,0,0,.9,6.1.8.8,0,0,1-.2,1.1.8.8,0,0,1-1.2-.2c-1.4-2.2-1.4-5-1.1-7.2a12.2,12.2,0,0,1,.5-2.5,6.4,6.4,0,0,1,.2-.7c.1-.1.1-.1.1-.2a.6.6,0,0,1,.5-.3.8.8,0,0,1,.9.3c.3.5.1.6.1.7"/><path class="cls-3" d="M190.3,173.2a.8.8,0,1,1-1.2,1.1h.8v.2a13,13,0,0,0-.4,2.1,29.8,29.8,0,0,0,.7,8,.9.9,0,0,1-.6,1,.8.8,0,0,1-1-.6,29.4,29.4,0,0,1-.7-8.5,12,12,0,0,1,.5-2.6,1.5,1.5,0,0,1,.6-.9,1.2,1.2,0,0,1,1.4.2"/><path class="cls-3" d="M188.1,191a1,1,0,0,1,1.2-.3.8.8,0,0,1,.2,1.1c-.4.8-.6,4.1-.6,6.5a.8.8,0,0,1-.8.8.7.7,0,0,1-.8-.8,27.1,27.1,0,0,1,.1-4,7.7,7.7,0,0,1,.7-3.3"/><path class="cls-3" d="M46.4,197.3a.8.8,0,0,1-1.1,0,.9.9,0,0,1,0-1.2c.6-.5,1-.4,1.7-.5l3-.2a90.8,90.8,0,0,1,10.1.2.9.9,0,0,1,.8.9,1,1,0,0,1-.9.7,87.3,87.3,0,0,0-9.9-.2l-2.9.2-.8.2h0"/><path class="cls-3" d="M70,197.3a.8.8,0,1,1,.7-1.5h-.1l2.3-.3,3-.3c2.6-.2,5.3.2,9.3.6a.7.7,0,0,1,.7.9.8.8,0,0,1-.9.7c-4-.4-6.6-.8-9-.6l-2.9.4-1.8.2a2.9,2.9,0,0,1-1.3-.1"/><path class="cls-3" d="M99.5,196.8a.9.9,0,1,1-.1-1.7h4.7a31.9,31.9,0,0,1,4.3.1l6.2.3a.8.8,0,0,1,.8.8.9.9,0,0,1-.8.8l-6.3-.2a32.5,32.5,0,0,0-4.2-.2H99.5"/><path class="cls-3" d="M126,196.7a.7.7,0,0,1-.7-.9.9.9,0,0,1,.8-.8c.9.1,2.8-.1,5.4-.2a94.2,94.2,0,0,1,10,.4.7.7,0,0,1,.7.9.8.8,0,0,1-.9.7,68.3,68.3,0,0,0-9.8-.3l-5.5.2"/><path class="cls-3" d="M151.9,195.3a.8.8,0,0,1,.4-1.1.8.8,0,0,1,1.1.4l-.2-.3h4.3a77.5,77.5,0,0,1,10.4.5.9.9,0,0,1,.8.9.8.8,0,0,1-1,.7,73.4,73.4,0,0,0-10.2-.4h-4.9c-.1,0-.4.1-.7-.5"/><path class="cls-3" d="M176.5,196.6a.8.8,0,0,1-.2-1.1.8.8,0,0,1,1.1-.3c.1.1-.1,0-.1,0s7.7.4,10.4,1.1a.8.8,0,0,1,.6.9.7.7,0,0,1-1,.6,49.8,49.8,0,0,0-5.7-.5l-3.1-.3a4.5,4.5,0,0,1-2-.4"/><path class="cls-3" d="M46.3,185.7a.9.9,0,0,1,.8-.8.9.9,0,0,1,.8.9,18.2,18.2,0,0,0,.1,2c0,.9.1,1.9.1,3s.1,2.6.1,3.5,0,.8.1.9H48a.8.8,0,0,1,.8.8.7.7,0,0,1-.8.8,1.5,1.5,0,0,1-.9-.2,1.2,1.2,0,0,1-.4-.8,5.3,5.3,0,0,1-.1-1.3c-.1-.9-.1-2.1-.1-3.5s-.1-2.1-.2-2.9a16,16,0,0,1,0-2.2"/><path class="cls-3" d="M45.7,161.3a.8.8,0,0,1-1.1,0,.9.9,0,0,1,0-1.2,1,1,0,0,1,1.1-.2c.4.3.5.5.5.7a5,5,0,0,1,.2,1.2c0,1-.1,2.4-.2,3.9-.1,3.1-.4,6.6-.3,8.8a.9.9,0,0,1-.8.8.8.8,0,0,1-.9-.8c-.1-2.3.2-5.8.4-8.9a24.5,24.5,0,0,0,.1-3.7v-.8h0s.2.3.1.2h.9"/><path class="cls-3" d="M173.8,203.5c.2-.5.6-.7,1-.5a.7.7,0,0,1,.5,1c-.1.3-.2,2-.4,3.7a10.1,10.1,0,0,1-.2,1.9c0,.4-.1.7-.1.9s-.1.3-.1.4v.2l-.2.3a1.1,1.1,0,0,1-1.1.1c-.4-.2-.4-.4-.4-.6v-.3a1.3,1.3,0,0,0-.1-.6,17.5,17.5,0,0,1,0-2.3A8.9,8.9,0,0,1,174,203a2.8,2.8,0,0,1,1.8-1.4,1.7,1.7,0,0,1,1.5.5,1.8,1.8,0,0,1,.5,1.7,4.7,4.7,0,0,1-.4,1.6,9.8,9.8,0,0,1-.7,1.7.7.7,0,0,0-.1.6l.5.6c.7,1,.8,1.9,1.2,2.1a.8.8,0,1,1-.7,1.5,3,3,0,0,1-1.3-1.5c-.3-.5-.4-.9-.6-1.2l-.6-.8a2.5,2.5,0,0,1,.1-1.9l.7-1.6.3-1.3v-.3c0-.1.1,0,0,0a.1.1,0,0,0-.1-.1,1.5,1.5,0,0,0-.7.6,8.4,8.4,0,0,0-1.1,3.9,14.8,14.8,0,0,0,.1,2.2v.6h-.1c.1.1-.2-.2-.1-.2s-.4-.1-.3-.1h-.8l-.2.2c.1,0,0,.1,0,.1h0a.8.8,0,0,1,.1-.4c0-.2.1-.5.1-.8s.1-1.2.2-1.9.1-3.1.5-4"/><path class="cls-3" d="M184.1,209.9a.7.7,0,0,1-.9.7.9.9,0,0,1-.7-1c.1-.1.2.4.1.3h0s-.1-.2,0-.1-.2-.2-.1-.2l-.3-.2h1.5a.8.8,0,0,1,.7,0,1.2,1.2,0,0,1,.6.6c0,.1.1.3.1.4s-.1.5-.1.7a8.5,8.5,0,0,1-.4,1.7,27,27,0,0,0-.4,2.8,12,12,0,0,0,0,1.9v.7a2.8,2.8,0,0,1-.5.9,1.8,1.8,0,0,1-1.6.1,3.3,3.3,0,0,1-1.3-.7,2.7,2.7,0,0,1-1-1.3,1.7,1.7,0,0,1,0-1.7.8.8,0,1,1,1.5.7c-.1.1-.1.2,0,.4l.5.6.8.5h.1c.1,0-.2.3-.1.2h-.1c.1-.1,0-.2,0-.5a15.6,15.6,0,0,1,.1-2c.1-1,.2-2,.4-3s.3-1.2.4-1.6v-.4s.1.1,0,.1h.2l.2.2h-2c-.2-.1-.4-.1-.6-.4a1.1,1.1,0,0,1-.3-.9,2,2,0,0,1,.4-.8,1.9,1.9,0,0,1,1.2-.7,1.9,1.9,0,0,1,1.2.4,1.2,1.2,0,0,1,.4,1.2"/><path class="cls-3" d="M190.2,208.3a.9.9,0,0,1-.1,1.2.9.9,0,0,1-1.2-.2h.3l-.2.2a4.8,4.8,0,0,0-.8,1.6,2,2,0,0,0-.1.7c0,.1-.1,0,0,.1h.2a2.6,2.6,0,0,0,1.2-.6.8.8,0,0,1,1.2.2,1,1,0,0,1-.3,1.2,5.1,5.1,0,0,1-1.7.8,2.2,2.2,0,0,1-1.6-.2,1.6,1.6,0,0,1-.6-1.2,5.3,5.3,0,0,1,.1-1.3,4.6,4.6,0,0,1,1.2-2.3,2.3,2.3,0,0,1,1-.7,1.5,1.5,0,0,1,1.4.5"/><path class="cls-3" d="M190,209.1a.7.7,0,0,1,.5,1,.8.8,0,0,1-1,.6h.4l.2-.2c-.1,0,0-.3,0-.2h0a.9.9,0,0,1,0,1.2.8.8,0,0,1-1.2-.1,1.3,1.3,0,0,1-.4-1.2,1,1,0,0,1,.5-.8,1.2,1.2,0,0,1,1-.1"/><path class="cls-3" d="M195.3,209c.2.4-.1.8-.5,1a.8.8,0,0,1-1-.5c-.1-.1.2.3.1.3s.1,0,.1,0h-.3s.1-.1.1,0,0-.2,0-.2h.1a.9.9,0,0,0,.1.5,3.7,3.7,0,0,0,.6,1l.4.4a3.9,3.9,0,0,1,.4.9,1.7,1.7,0,0,1-.5,1.2,1.5,1.5,0,0,1-.9.6,2.8,2.8,0,0,1-2.2.1.9.9,0,0,1-.5-1.1.8.8,0,0,1,1.1-.4,1.2,1.2,0,0,0,1-.1l.3-.2h0v-.2l-.2-.3a4.8,4.8,0,0,1-1-1.5,2.5,2.5,0,0,0-.2-.7,1.5,1.5,0,0,1,.2-1.1,1.5,1.5,0,0,1,1.4-.7,1.2,1.2,0,0,1,.8.1.8.8,0,0,1,.7.7"/><path d="M142.1,25.1a.8.8,0,0,1-.9.8.9.9,0,0,1-.8-.9h.1v.2h.7c-.1.1.1-.2.1-.2h0v.3c0,.1-.1-.4-.1-.3h-.4c.1-.1-.1,0-.1,0a2.1,2.1,0,0,0,.4-.7.8.8,0,0,0,.1-.3c0-.1.2.2.1.1h.6l-.3.4a.7.7,0,0,0-.1.5v0h-.6c.1,0,.1,0,.1-.1l.4-.3v-.2h.1c-.1,0,.2.2.1.2h.3a.1.1,0,0,1-.1.1h0a.8.8,0,0,1-.2,1.2c-.4.2-.9.2-1.1-.2a1.2,1.2,0,0,1-.3-1.1,1.3,1.3,0,0,1,.4-.9,1.8,1.8,0,0,1,.7-.5,1.3,1.3,0,0,1,.9-.1,1.1,1.1,0,0,1,.7.6,1.4,1.4,0,0,1,.2.6,2,2,0,0,1-.5,1.3,1,1,0,0,1-.6.5,1.3,1.3,0,0,1-1.2.4,1.5,1.5,0,0,1-.8-.8,2.2,2.2,0,0,1,0-.8,3,3,0,0,1,.2-1.2l.8-.9.5-.3h.4a.7.7,0,0,1,.6.3A1.6,1.6,0,0,1,143,24a1.9,1.9,0,0,1-.3.9,2.1,2.1,0,0,1-1.3,1.6,1.2,1.2,0,0,1-1-.1,1,1,0,0,1-.6-.9,4.3,4.3,0,0,1-.1-.5,2,2,0,0,1,.4-.8,1,1,0,0,1,.5-.4h.8l.6.5a2,2,0,0,1,.1.7"/><path d="M38,44.7a.8.8,0,0,1-.5,1.1.7.7,0,0,1-1-.5h0c-.1,0,.1.1.1.1s.4,0,.3,0h.3c-.1,0,.2-.2.1-.2s.1-.1.1-.1-.1-.4,0-.3-.1-.2-.1-.1h0l.4.2h.1l.2-.2c0-.1-.1.1-.1.1h0c-.1,0,.3.2.2.2h-.2c-.1.1-.1.2-.2.4h0c0,.1-.2-.3-.2-.2s-.1-.1-.1-.1h-.1c.1,0-.1.1-.1,0s0,.1.1,0h0c-.1,0,.1.3,0,.2s.4.3.3.3H38a.8.8,0,0,1-1.1-1.1c.3-.3.5-.6,1-.6a.9.9,0,0,1,.8.5.7.7,0,0,1,.2.6,1.4,1.4,0,0,1-1,1.4,1.1,1.1,0,0,1-1,.1,1.5,1.5,0,0,1-.8-.8,2.6,2.6,0,0,1,0-.9,3.6,3.6,0,0,1,.4-.9,1.6,1.6,0,0,1,.9-.7l.7-.2a1.4,1.4,0,0,1,1,.4,1.3,1.3,0,0,1,.4.9,1.2,1.2,0,0,1-.3,1.1,1.5,1.5,0,0,1-1,.7h-.9l-.9-.5-.4-.3a1.2,1.2,0,0,1-.2-.9c0-.2.1-.3.2-.5s.1-.2.3-.3a.8.8,0,0,1,.7-.1,1.3,1.3,0,0,1,1,.9"/><path d="M141.8,104.4a.7.7,0,0,1-.9.7.9.9,0,0,1-.7-1s.1.3.1.2.2.3.1.3h.7v.4l-.2-.3h-.3c.1-.1-.3.1-.2,0h-.1c0-.1.1-.2.1-.4h.2c0-.1.2-.1.2-.1s.1,0,.1,0h-.1v-.2h-.3v.2h0s.2.3.1.2l.3.2h.5c-.1,0,.1-.1.1-.1l-.2.2a.8.8,0,1,1-1.3-.9l.6-.7h.6a.8.8,0,0,1,.7.3,1.4,1.4,0,0,1,.2,1,1.8,1.8,0,0,1-.5.7l-.7.4h-.5l-.8-.3a.9.9,0,0,1-.4-.8,1.1,1.1,0,0,1,.2-1.1,1,1,0,0,1,.6-.5l.4-.2h.7a2.1,2.1,0,0,1,.8,1,2.4,2.4,0,0,1,0,1.2l-.3.6-.3.4a.9.9,0,0,1-.6.3,1.2,1.2,0,0,1-.9-.3,2.2,2.2,0,0,1-.5-.8,3.1,3.1,0,0,1,.1-1,1.5,1.5,0,0,1,.7-1l.6-.2.6.3a.7.7,0,0,1,.4.5.6.6,0,0,1,0,.6"/><path d="M38,123.4a.8.8,0,0,1-1.5.7l-.2-.2h.6c-.1,0,.2-.2.1-.1s.1-.2.1-.2v.4l.2.5h.2c.1-.1.2-.2.2-.3h0c-.1,0-.1.1-.2.2v0s-.1-.2-.1-.1h-.8s.1.4.1.3.2.2.1.2h.2a.8.8,0,1,1-.7-1.5,1.6,1.6,0,0,1,1.2-.2,1.5,1.5,0,0,1,.6.5,1.3,1.3,0,0,1,.1.6,2.4,2.4,0,0,1-.2.8l-.3.3-.8.2-.6-.3a2,2,0,0,1-.4-.8,2.3,2.3,0,0,1,.3-1.1,1.8,1.8,0,0,1,1.2-1,1.3,1.3,0,0,1,1.3.2,3.1,3.1,0,0,1,.7.9,1.6,1.6,0,0,1-.1,1,1.8,1.8,0,0,1-.8.9,1.6,1.6,0,0,1-1.2.3,1.4,1.4,0,0,1-1.3-.5,4.1,4.1,0,0,1-.4-1.2c0-.4-.3-.8.2-1.5a1.4,1.4,0,0,1,.8-.5,1.4,1.4,0,0,1,.9.3l.6.8"/><path d="M194.1,72.4a.8.8,0,0,1-.4-1.6,1.4,1.4,0,0,1,1.2.3l.6.5,1.3.5h.8a2.4,2.4,0,0,1,.8.6,1.6,1.6,0,0,1,.3.9,2.3,2.3,0,0,1-.8,1.6l-1.4,1.1-1.3,1-.4.3h-.1a.8.8,0,0,1-1.4-.8c.2-.5.6-.7,1-1l1.3-.9,1.1-.9c.3-.3.3-.4.3-.5h-.5a3.9,3.9,0,0,1-2-.8l-.6-.4h.2"/></svg>