<svg id="Ebene_1" data-name="Ebene 1" xmlns="http://www.w3.org/2000/svg" xmlns:xlink="http://www.w3.org/1999/xlink" viewBox="0 0 312.5 133.1"><defs><style>.cls-1{fill:none;}.cls-2,.cls-3{opacity:0;}.cls-4{clip-path:url(#clip-path);}.cls-5{fill:#1749b3;}.cls-6{fill:#ed3624;}</style><clipPath id="clip-path"><rect class="cls-1" x="-32" y="-35.3" width="419.5" height="297.64"/></clipPath></defs><path class="cls-2" d="M4.1,108.6H5.6v3.8a1.9,1.9,0,0,0,.1.8,1.3,1.3,0,0,0,.4.6h.7a1.2,1.2,0,0,0,.8-.2,1,1,0,0,0,.4-.5,1.2,1.2,0,0,0,.2-.8v-3.8H9.7v4.6c0,.3,0,.5.1.6h.7V115H9.9a1.3,1.3,0,0,1-1-.3c-.3-.1-.4-.4-.5-.8H8.3l-.3.6-.5.4-.7.2H6.3l-.4-.2c-.1-.1-.2-.2-.2-.3H5.6v2.6H4.1Z"/><g class="cls-3"><path d="M57.1,41.7V22.1h11v2.1H59.9v6.5h6.8v2.1H59.9v8.9Z"/><path d="M72,24.7V22.1h2.6v2.6Zm0,17V27.3h2.6V41.7Z"/></g><g class="cls-3"><path d="M124.8,35.1a11.8,11.8,0,0,1-2.9.5,4.4,4.4,0,0,1-3.2-1.3,4.8,4.8,0,0,1-1.3-3.5,5.3,5.3,0,0,1,1.1-3.4,3.9,3.9,0,0,1,2.9-1.3,2.9,2.9,0,0,1,2.5,1.2,5.4,5.4,0,0,1,.9,3.3v.5h-5.7c.2,2.2,1.3,3.2,3.1,3.2a6.9,6.9,0,0,0,2.6-.5Zm-5.6-5.2h4c0-1.7-.7-2.5-1.9-2.5S119.3,28.2,119.2,29.9Z"/><path d="M127.2,35.4V26.3h1.6V28a4.1,4.1,0,0,1,3.2-1.9,2.6,2.6,0,0,1,2.6,2.8v6.5H133v-6a2.4,2.4,0,0,0-.3-1.4,1.2,1.2,0,0,0-1-.5c-1,0-2,.7-2.9,2v5.9Z"/></g><g class="cls-3"><path d="M150.1,33.1a6.8,6.8,0,0,1-2.1-.4V31.6a5.6,5.6,0,0,0,2.2.6,1.6,1.6,0,0,0,.9-.3,1.1,1.1,0,0,0,.3-.8c0-.4-.3-.7-1-1l-.7-.3c-1.1-.5-1.6-1.1-1.6-2a1.7,1.7,0,0,1,.6-1.4,3,3,0,0,1,1.8-.5h1.7v1l-1.7-.3q-1.2,0-1.2.9c0,.4.3.7.9,1l.6.2a4.9,4.9,0,0,1,1.5.9,2,2,0,0,1-.3,2.7A2.9,2.9,0,0,1,150.1,33.1Z"/><path d="M159.9,32.7a5.9,5.9,0,0,1-2.1.4,3.2,3.2,0,0,1-2.5-1,3.5,3.5,0,0,1-1-2.6,3.7,3.7,0,0,1,.9-2.6,2.6,2.6,0,0,1,2.2-1,2.3,2.3,0,0,1,1.9.9,4.4,4.4,0,0,1,.7,2.5v.4h-4.4c.2,1.6,1,2.5,2.4,2.5a5.4,5.4,0,0,0,1.9-.5Zm-4.2-4h3c0-1.2-.5-1.9-1.4-1.9S155.8,27.5,155.7,28.7Z"/><path d="M162.1,33V26h1.2v1.3a3.1,3.1,0,0,1,2.4-1.4,2,2,0,0,1,1.5.6,2.1,2.1,0,0,1,.5,1.5v5h-1.2V28.4a1.6,1.6,0,0,0-.3-1.1.8.8,0,0,0-.7-.3,2.8,2.8,0,0,0-2.2,1.5V33Z"/></g><g class="cls-3"><path d="M154.3,71.4v-1a4.9,4.9,0,0,0,2,.5c1.3,0,1.9-.7,1.9-2.1v-1a2.1,2.1,0,0,1-2.1,1.3,2.3,2.3,0,0,1-1.8-.8,3.3,3.3,0,0,1-.7-2.3,3.6,3.6,0,0,1,.8-2.3,2.3,2.3,0,0,1,2-1,2.3,2.3,0,0,1,1.8.9v-.7h1.2v4.6a10.2,10.2,0,0,1-.2,2.2,2.3,2.3,0,0,1-.6,1.2,2.7,2.7,0,0,1-2.3.8A6.6,6.6,0,0,1,154.3,71.4Zm4-4.3V64.4a2.3,2.3,0,0,0-1.6-.8,1.4,1.4,0,0,0-1.3.7A2.9,2.9,0,0,0,155,66c0,1.4.4,2.1,1.4,2.1A2.4,2.4,0,0,0,158.3,67.1Z"/><path d="M165,68.5a3,3,0,0,1-2,.9,1.7,1.7,0,0,1-1.8-1.7,1.7,1.7,0,0,1,.9-1.6,4.2,4.2,0,0,1,2.5-.6h.3v-.8c0-.7-.4-1.1-1.2-1.1a4.1,4.1,0,0,0-2,.6v-1a6.3,6.3,0,0,1,2.2-.5,2.3,2.3,0,0,1,1.6.5,2.1,2.1,0,0,1,.5,1.5v2.9c0,.7.2,1,.6,1h.2v.6a1.1,1.1,0,0,1-.8.2C165.5,69.4,165.2,69.1,165,68.5Zm-.1-.7V66.2h-.4a3.5,3.5,0,0,0-1.6.3,1.2,1.2,0,0,0-.6,1,.9.9,0,0,0,.3.7,1.1,1.1,0,0,0,.8.3A2.5,2.5,0,0,0,164.9,67.8Z"/><path d="M170.1,69.4a5.4,5.4,0,0,1-2-.4V68a4.5,4.5,0,0,0,2,.5,1.3,1.3,0,0,0,.9-.2.9.9,0,0,0,.3-.7c0-.4-.3-.7-.9-1l-.7-.3q-1.5-.6-1.5-1.8a1.6,1.6,0,0,1,.6-1.3,2.5,2.5,0,0,1,1.6-.5l1.3.2h.3v1l-1.6-.3c-.7,0-1.1.3-1.1.8s.3.7.8.9l.6.2a3.6,3.6,0,0,1,1.3.9,1.5,1.5,0,0,1,.4,1.1,1.8,1.8,0,0,1-.6,1.4A3.1,3.1,0,0,1,170.1,69.4Z"/></g><g class="cls-3"><path d="M183.2,65.7v-.9l4-4.6h-3.8v-.9h5.2v.9l-3.9,4.6h4v.9Z"/></g><g class="cls-3"><path d="M192.4,66.3l-1.9-.3V64.9a4.5,4.5,0,0,0,2,.6,1.1,1.1,0,0,0,.8-.3.9.9,0,0,0,.3-.7c0-.4-.3-.7-.9-1l-.7-.3c-1-.4-1.5-1-1.5-1.7a1.8,1.8,0,0,1,.6-1.4,2.9,2.9,0,0,1,1.7-.4h1.5v.9l-1.5-.3c-.8,0-1.1.3-1.1.8s.2.7.8.9l.6.3a3.2,3.2,0,0,1,1.3.8,1.5,1.5,0,0,1,.4,1.1,1.6,1.6,0,0,1-.7,1.4A2.3,2.3,0,0,1,192.4,66.3Z"/><path d="M199.4,66.3a2.8,2.8,0,0,1-2.2-.9,4,4,0,0,1,0-4.8,2.8,2.8,0,0,1,2.2-.9,2.7,2.7,0,0,1,2.2.9,3.6,3.6,0,0,1,0,4.8A2.8,2.8,0,0,1,199.4,66.3Zm0-.8c1.2,0,1.8-.9,1.8-2.5s-.6-2.5-1.8-2.5-1.8.9-1.8,2.5S198.2,65.5,199.4,65.5Z"/></g><g class="cls-3"><path d="M268.9,23.8a3,3,0,0,1,2.6-1.3,3.2,3.2,0,0,1,2.3.9,3.4,3.4,0,0,1,.9,2.4,3.7,3.7,0,0,1-1,2.8,3.1,3.1,0,0,1-2.6,1.1,3.4,3.4,0,0,1-2.8-1.4,6.8,6.8,0,0,1-1-4,7.7,7.7,0,0,1,1.1-4.4,3.8,3.8,0,0,1,3.3-1.6,8.5,8.5,0,0,1,2.5.4V20a7.8,7.8,0,0,0-2.6-.6C269.8,19.4,268.9,20.9,268.9,23.8Zm4.4,2.4a3,3,0,0,0-.6-2,2.1,2.1,0,0,0-1.5-.7,2.3,2.3,0,0,0-1.6.6,1.8,1.8,0,0,0-.7,1.5,3.1,3.1,0,0,0,.7,2.2,1.7,1.7,0,0,0,1.6.8,2,2,0,0,0,1.5-.6A2.8,2.8,0,0,0,273.3,26.2Z"/><path d="M277.4,29.5V28.2a5.2,5.2,0,0,0,2.1.4,2.1,2.1,0,0,0,1.6-.6,2.4,2.4,0,0,0,.7-1.7c0-1.7-1.2-2.5-3.4-2.5h-.8V18.6h5.5v1.2h-4.2v2.9a4.7,4.7,0,0,1,3.2,1,3.1,3.1,0,0,1,1.2,2.6,3.1,3.1,0,0,1-1.1,2.5,4.4,4.4,0,0,1-2.9.9Z"/><path d="M290.5,29.5V26.4h-4.9V25.3l4.9-6.7h1.4v6.6h1.4v1.2h-1.4v3.1ZM287,25.2h3.6V20.4Z"/><path d="M297.6,23.5a2.9,2.9,0,0,1-1.6-2.4,2.5,2.5,0,0,1,.9-2,3.6,3.6,0,0,1,2.4-.8,2.8,2.8,0,0,1,2.1.7,1.9,1.9,0,0,1,.9,1.6,3.5,3.5,0,0,1-2.1,2.9c1.7.8,2.5,1.9,2.5,3.1a2.9,2.9,0,0,1-1,2.3,4.6,4.6,0,0,1-2.7.8,3.7,3.7,0,0,1-2.6-.8,2.7,2.7,0,0,1-1-2.1A4,4,0,0,1,297.6,23.5Zm.8.6a6.6,6.6,0,0,0-1.2,1.2,2.5,2.5,0,0,0-.3,1.3,2,2,0,0,0,.6,1.5,2.5,2.5,0,0,0,1.6.5,2,2,0,0,0,1.5-.5,1.4,1.4,0,0,0,.6-1.2,1.4,1.4,0,0,0-.4-1.1,4.5,4.5,0,0,0-1.4-1.1Zm1-1c1.1-.7,1.6-1.4,1.6-2.3a1.4,1.4,0,0,0-.5-1,2.1,2.1,0,0,0-1.4-.4,1.8,1.8,0,0,0-1.3.4,1.2,1.2,0,0,0-.5,1,1.6,1.6,0,0,0,.5,1.1Z"/></g><g class="cls-3"><path d="M304.6,28.9l-2.1-7.5h1.3l1.6,5.8,1.8-5.8h1.3l1.6,5.8,1.9-5.8h1.1l-2.4,7.5h-1.4l-1.6-5.8L306,28.9Z"/></g><g class="cls-3"><path d="M5.9,52.4a3.7,3.7,0,0,1-2.5,1.2,2,2,0,0,1-1.6-.7,1.8,1.8,0,0,1-.7-1.5,2.2,2.2,0,0,1,1.1-2,5.8,5.8,0,0,1,3.2-.7h.3v-1a1.3,1.3,0,0,0-1.4-1.4,5,5,0,0,0-2.5.7V45.8a7.4,7.4,0,0,1,2.8-.6,2.7,2.7,0,0,1,1.9.6,2.2,2.2,0,0,1,.7,1.9v3.6c0,.8.2,1.3.7,1.3h.3v.8a2,2,0,0,1-1.1.3C6.5,53.6,6.1,53.2,5.9,52.4Zm-.2-.8V49.5H5.2a3.6,3.6,0,0,0-1.9.4,1.3,1.3,0,0,0-.7,1.2,1.2,1.2,0,0,0,1.2,1.3A3.1,3.1,0,0,0,5.7,51.6Z"/><path d="M9.9,53.4V41.8h1.4V53.4Z"/><path d="M16.4,53.6a2.4,2.4,0,0,1-1.7-.7,2.4,2.4,0,0,1-.6-1.7V46.5h-1V45.4h1V43.9h1.4v1.6h2.1v1.1H15.5v4.4c0,1,.5,1.6,1.4,1.6h.7v1Z"/></g><g class="cls-3"><path d="M246.1,64.9v-10h1.2v10Z"/><path d="M253.4,64a3.5,3.5,0,0,1-2.2,1.1,1.7,1.7,0,0,1-1.4-.6,1.6,1.6,0,0,1-.6-1.3,1.9,1.9,0,0,1,1-1.8,4.9,4.9,0,0,1,2.7-.6h.3V60c0-.8-.4-1.2-1.3-1.2a4.8,4.8,0,0,0-2.1.6v-1a5.3,5.3,0,0,1,2.4-.6,1.9,1.9,0,0,1,2.2,2.2v3.1c0,.7.3,1.1.7,1.1h.2v.7l-.9.2C253.9,65.1,253.5,64.7,253.4,64Zm-.2-.6V61.6h-.4a4,4,0,0,0-1.7.3,1.3,1.3,0,0,0-.6,1.1,1,1,0,0,0,1,1A2.9,2.9,0,0,0,253.2,63.4Z"/></g><g class="cls-3"><path d="M99.3,99.1a7.4,7.4,0,0,1-2.3.4,3.7,3.7,0,0,1-2.7-1.1,3.9,3.9,0,0,1-1-2.8,4.1,4.1,0,0,1,.9-2.8,3,3,0,0,1,2.3-1.1,2.4,2.4,0,0,1,2.1,1,4.1,4.1,0,0,1,.8,2.7v.4H94.6c.2,1.8,1.1,2.7,2.6,2.7a6.3,6.3,0,0,0,2.1-.5Zm-4.6-4.3H98c0-1.4-.5-2.1-1.6-2.1S94.8,93.4,94.7,94.8Z"/><path d="M101,99.3v-1l4.6-5.4h-4.4v-1h6.1v1l-4.6,5.4h4.7v1Z"/></g><g class="cls-3"><path d="M124,97.3V96.2a5.8,5.8,0,0,0,1.8.4,1.7,1.7,0,0,0,1.4-.6,2,2,0,0,0,.6-1.5q0-2.1-3-2.1h-.6V87.8h4.7v1.1h-3.6v2.5a4.7,4.7,0,0,1,2.8.8,3,3,0,0,1,1,2.4,2.6,2.6,0,0,1-.9,2.1,4,4,0,0,1-2.6.8Z"/><path d="M131.8,97.3v-7h1.3v1.3a2.8,2.8,0,0,1,2.3-1.4,1.8,1.8,0,0,1,1.9,1.4,2.8,2.8,0,0,1,2.4-1.4,2.2,2.2,0,0,1,1.4.5,2.5,2.5,0,0,1,.5,1.5v5.1h-1.3V92.4q0-1.2-.9-1.2a2.9,2.9,0,0,0-2.1,1.4v4.7h-1.2V92.4c0-.8-.3-1.2-1-1.2s-1.3.5-2,1.4v4.7Z"/></g><g class="cls-3"><path d="M42.6,104.8a2.7,2.7,0,0,1-2.2-.9,3.3,3.3,0,0,1-.9-2.5,3.2,3.2,0,0,1,.9-2.4,3.1,3.1,0,0,1,4.4,0,3.2,3.2,0,0,1,.8,2.4,3.3,3.3,0,0,1-.8,2.5A2.8,2.8,0,0,1,42.6,104.8Zm0-.9c1.2,0,1.8-.8,1.8-2.5S43.8,99,42.6,99s-1.8.8-1.8,2.4S41.4,103.9,42.6,103.9Z"/></g><g class="cls-3"><path d="M233.3,104.8a2.8,2.8,0,0,1-2.2-.9,4,4,0,0,1,0-4.8,3.1,3.1,0,0,1,4.4,0,3.2,3.2,0,0,1,.9,2.4,3.5,3.5,0,0,1-.9,2.5A2.7,2.7,0,0,1,233.3,104.8Zm0-.8c1.2,0,1.8-.8,1.8-2.5s-.6-2.5-1.8-2.5-1.8.9-1.8,2.5S232.1,104,233.3,104Z"/></g><g class="cls-4"><path d="M200.9,97.6a15,15,0,0,0-22.5-12.9,15,15,0,0,0,7.6,27.9,14.8,14.8,0,0,0,7.5-2,15,15,0,0,0,7.4-13m.8,0a15.8,15.8,0,0,1-7.8,13.7,15.1,15.1,0,0,1-7.9,2.1,15.7,15.7,0,0,1-13.7-7.8,15.4,15.4,0,0,1-2.1-8A15.6,15.6,0,0,1,178,84a15.2,15.2,0,0,1,8-2.2,15.7,15.7,0,0,1,13.6,7.9,15.1,15.1,0,0,1,2.1,7.9"/><path d="M174.8,108.3a.5.5,0,0,1-.6-.1.3.3,0,0,1,.1-.5l23.2-20.3a.3.3,0,0,1,.5.1.3.3,0,0,1,0,.5Z"/><path d="M174.8,87.1c-.2-.2-.2-.5,0-.6s.4-.2.6,0l21.1,22.3a.4.4,0,0,1,0,.6h-.6Z"/><path d="M42.8,95.6c.1.2.1.4-.1.5s-.4.1-.6-.1h-1a.7.7,0,0,0-.6.4,2,2,0,0,0-.4.8,1.5,1.5,0,0,0,.6,1.4,2.7,2.7,0,0,0,1.7.6,3,3,0,0,0,2-.4,2.2,2.2,0,0,0,.5-1.2,3.8,3.8,0,0,0,.1-1,.7.7,0,0,0-.4-.6,1.4,1.4,0,0,0-.9-.3,5,5,0,0,0-2.2.2c-.2.1-.4.1-.5-.1a.5.5,0,0,1,.2-.6,4.4,4.4,0,0,1,2.6-.3,2.2,2.2,0,0,1,1.3.4,1.9,1.9,0,0,1,.7,1.2,4.9,4.9,0,0,1-.1,1.2,2.5,2.5,0,0,1-.8,1.7,3.5,3.5,0,0,1-2.5.7,4.3,4.3,0,0,1-2.2-.9,2.4,2.4,0,0,1-.9-2.1,4.3,4.3,0,0,1,.5-1.2,2.6,2.6,0,0,1,1.1-.7h1a1.3,1.3,0,0,1,.9.5"/><path d="M264.1,33.8a14.8,14.8,0,0,0-2-7.5,15,15,0,0,0-27.9,7.5,14.5,14.5,0,0,0,2,7.5,15,15,0,0,0,27.9-7.5m.8,0a15.9,15.9,0,0,1-7.8,13.7,16.4,16.4,0,0,1-8,2.1,15.7,15.7,0,0,1-7.9-29.4,15.1,15.1,0,0,1,7.9-2.2,15.9,15.9,0,0,1,13.7,7.8,15.7,15.7,0,0,1,2.1,8"/><path d="M238,44.5a.4.4,0,0,1-.5-.7l23.1-20.2c.2-.2.5-.2.6,0a.4.4,0,0,1,0,.6Z"/><path d="M238,23.2c-.2-.1-.2-.4,0-.6a.3.3,0,0,1,.5.1L259.7,45a.3.3,0,0,1,0,.5c-.1.2-.4.2-.6,0Z"/><path d="M43.3,32.8c.2.2.1.4-.1.5s-.4.1-.6-.1h-1a.7.7,0,0,0-.6.4,2,2,0,0,0-.4.8,2,2,0,0,0,.6,1.4,2.7,2.7,0,0,0,1.7.6,3,3,0,0,0,2-.4,2.2,2.2,0,0,0,.5-1.3,2.8,2.8,0,0,0,.1-.9.7.7,0,0,0-.4-.6,1.2,1.2,0,0,0-.9-.3,4.4,4.4,0,0,0-2.1.2.5.5,0,0,1-.6-.2.4.4,0,0,1,.2-.5,5.3,5.3,0,0,1,2.6-.4,3.5,3.5,0,0,1,1.3.5,1.5,1.5,0,0,1,.7,1.2,4.9,4.9,0,0,1-.1,1.2,2.5,2.5,0,0,1-.8,1.7,3.5,3.5,0,0,1-2.5.7,4.3,4.3,0,0,1-2.2-.9,2.4,2.4,0,0,1-.9-2.1,3.3,3.3,0,0,1,.5-1.2,1.9,1.9,0,0,1,1.1-.7h1a1.3,1.3,0,0,1,.9.5"/><path d="M296.6,32.6a.3.3,0,0,1-.1.5.5.5,0,0,1-.6-.1h-1a.7.7,0,0,0-.6.4,2,2,0,0,0-.4.8,1.6,1.6,0,0,0,.6,1.4,3.5,3.5,0,0,0,1.7.6,3,3,0,0,0,2-.4,2.2,2.2,0,0,0,.5-1.3,2.8,2.8,0,0,0,.1-.9.7.7,0,0,0-.4-.6,2.5,2.5,0,0,0-.9-.4,4.9,4.9,0,0,0-2.2.3.4.4,0,0,1-.3-.7,5.3,5.3,0,0,1,2.6-.4,3.5,3.5,0,0,1,1.3.5,1.6,1.6,0,0,1,.7,1.2,4.9,4.9,0,0,1-.1,1.2,2.7,2.7,0,0,1-.8,1.7,3.1,3.1,0,0,1-2.5.6,3.5,3.5,0,0,1-2.2-.8,2.4,2.4,0,0,1-.9-2.1,3.3,3.3,0,0,1,.5-1.2,1.9,1.9,0,0,1,1.1-.7h1a.9.9,0,0,1,.9.5"/><path d="M233.5,95.7a.3.3,0,0,1-.1.5c-.2.2-.4.1-.6-.1h-1a.7.7,0,0,0-.6.4,2,2,0,0,0-.4.8,1.6,1.6,0,0,0,.6,1.4,2.5,2.5,0,0,0,1.7.6,3,3,0,0,0,2-.4,2.2,2.2,0,0,0,.5-1.3,2.8,2.8,0,0,0,.1-.9.9.9,0,0,0-.4-.6,2.5,2.5,0,0,0-.9-.4,6.9,6.9,0,0,0-2.2.3.4.4,0,1,1-.3-.7,5.1,5.1,0,0,1,2.6-.4,3.5,3.5,0,0,1,1.3.5,1.9,1.9,0,0,1,.7,1.2,4.9,4.9,0,0,1-.1,1.2,2.7,2.7,0,0,1-.8,1.7,3.1,3.1,0,0,1-2.5.6,3.5,3.5,0,0,1-2.2-.8,2.4,2.4,0,0,1-.9-2.1,2.2,2.2,0,0,1,.5-1.2,1.6,1.6,0,0,1,1.1-.7h1c.4.1.7.1.9.5"/><path d="M46.2,98.1a.4.4,0,0,1,0-.8H169.8a.4.4,0,0,1,0,.8Z"/><path d="M201.5,98.1a.4.4,0,1,1,0-.8h28.9a.4.4,0,1,1,0,.8Z"/><path d="M46.2,34.8a.4.4,0,0,1-.4-.4.4.4,0,0,1,.4-.4h187a.4.4,0,0,1,.4.4.4.4,0,0,1-.4.4Z"/><path d="M264.8,34.8a.4.4,0,0,1-.4-.4.4.4,0,0,1,.4-.4h27.9a.4.4,0,0,1,.4.4.4.4,0,0,1-.4.4Z"/><path d="M42.7,37.9a.4.4,0,0,1,.8,0V66a.4.4,0,1,1-.8,0Z"/><path d="M42.7,100.4a.4.4,0,1,1,.8,0v29a.4.4,0,1,1-.8,0Z"/><path d="M232.7,100.1a.5.5,0,0,1,.5-.4.4.4,0,0,1,.4.4v29.3a.4.4,0,0,1-.4.4.5.5,0,0,1-.5-.4Z"/><path d="M296.1,36.8a.4.4,0,1,1,.8,0V66a.4.4,0,1,1-.8,0Z"/><path d="M46.2,130.2a.8.8,0,0,1-.8-.8.9.9,0,0,1,.8-.8H227.7a.9.9,0,0,1,.9.8.8.8,0,0,1-.9.8Z"/><path d="M224.7,127a.8.8,0,0,1,.2-1.2,1,1,0,0,1,1.2.3.5.5,0,0,0,.3.4,10.8,10.8,0,0,0,2.8.7,3.5,3.5,0,0,1,2,1,2,2,0,0,1,.6,1.1,1.6,1.6,0,0,1-.5,1.1l-.9.6-2.3.8a24.6,24.6,0,0,0-3.8,1.1.8.8,0,0,1-1.2-.2.9.9,0,0,1,.2-1.1,14.2,14.2,0,0,1,4.4-1.4l2-.7.5-.3h0v.1a2.3,2.3,0,0,0-1.2-.5c-1-.2-2.5-.1-3.6-1.1l-.5-.7"/><path d="M47,66.9a.8.8,0,0,1-.8-.9.8.8,0,0,1,.8-.8H291.4a.9.9,0,0,1,.9.8.9.9,0,0,1-.9.9Z"/><path d="M289.2,63.8a1,1,0,0,1-.3,1.2.8.8,0,0,1-1.1-.3c-.1-.2-.3-.6-.1-.9a.7.7,0,0,1,.6-.6,2,2,0,0,1,1.1,0,7.8,7.8,0,0,1,2.2,1.2l.8.4.7.4.5.5a2,2,0,0,1,.2.9,1.8,1.8,0,0,1-.5.7.5.5,0,0,1-.4.2l-.7.3-3.3,1.8a.8.8,0,1,1-.9-1.3,23,23,0,0,1,3.5-2l.7-.3h.1s-.1.1,0,.1v.4c-.1,0,0,.1,0,0h-.1l-.4-.2-.9-.5-1.8-1h0c-.1,0,.3-.5.2-.3V64c.1.1,0-.2,0-.2"/><path d="M3.6,45.8a.4.4,0,0,1-.5-.1.4.4,0,0,1,.1-.6l.3-.4a.5.5,0,0,0-.2-.4H3l-.4.2a1.9,1.9,0,0,0-.9.9,2.5,2.5,0,0,0-.4,1.4v.5h.4l.9-.6.6-.6h.7c.1,0,.1.1.2.2v.3c.1.4-.1.7-.1,1s.1.2.1.3h.1A3.4,3.4,0,0,0,5.6,47a18.9,18.9,0,0,0,2-2,15.3,15.3,0,0,0,2.3-3.3,2.7,2.7,0,0,0,.4-1h.1c-.1-.1.1,0,.1,0h-.1a6.8,6.8,0,0,0-3,5.5.4.4,0,0,0,.1.3l.3.2A4.2,4.2,0,0,0,9.6,46a18.2,18.2,0,0,0,2.7-2.8l1-1.4.5-.8a.3.3,0,0,0,.1-.2H14a.4.4,0,0,1,.4-.4.5.5,0,0,1,.4.5c0,.3-.1.2-.1.2l-.4.4a3.5,3.5,0,0,0-.6.9,8.5,8.5,0,0,0-1,1.9,4.8,4.8,0,0,0-.3,1.8,5.4,5.4,0,0,0,0,1.8v.3h0c0-.1,0-.1.1-.2v-.6c.1-.5,0-.9.1-1.4a.3.3,0,0,0-.1-.2,1.4,1.4,0,0,1,.2-.6,1.3,1.3,0,0,1,.9-.2,2,2,0,0,1,1.1,0c.8,0,2,.1,3.3,0a.4.4,0,0,1,.4.4.5.5,0,0,1-.4.5H13.4V46a8.2,8.2,0,0,1-.1,1.4V48c-.1.3-.1.5-.4.7l-.5.2h-.5c-.3-.2-.3-.6-.3-.9a6.7,6.7,0,0,1,0-2,4.5,4.5,0,0,1,.4-2,5.4,5.4,0,0,1,1-2l.7-1.1.3-.3h.8a.9.9,0,0,1-.3.6,4.1,4.1,0,0,1-.5.9l-1.1,1.4a11.8,11.8,0,0,1-2.9,3,3.5,3.5,0,0,1-2.4.8l-.7-.4a1.1,1.1,0,0,1-.3-.8,6.3,6.3,0,0,1,1.6-4.6,5.6,5.6,0,0,1,2-1.8h.4l.3.2c.2.2.3.4.2.6a2.7,2.7,0,0,1-.5,1.4,13.4,13.4,0,0,1-2.4,3.4,13.9,13.9,0,0,1-2.1,2.1,3.2,3.2,0,0,1-1.9,1,.9.9,0,0,1-.8-.4.8.8,0,0,1-.2-.7c0-.4.1-.8.1-1h.1c-.1,0,.1.1,0,.1s.2,0,.2,0h.1l-.5.5a3.2,3.2,0,0,1-1.4.8H1.1l-.4-.2a.5.5,0,0,1-.2-.4,1.6,1.6,0,0,1,0-.7,3.9,3.9,0,0,1,.4-1.8,4,4,0,0,1,1.3-1.3l.8-.2a1.3,1.3,0,0,1,.8.3,1.2,1.2,0,0,1,.5,1,1.3,1.3,0,0,1-.7,1.1"/><path d="M1,106.5a.6.6,0,0,1-.6.1c-.2-.1-.2-.4-.1-.6a.4.4,0,0,1,.4-.2c.3,0,.4.2.4.3s.1.2.1.4v1.1a6.1,6.1,0,0,1-.1,1.4,3,3,0,0,1-.2,1c0,.1,0,.2-.2.4H.2l-.2-.2V110a4.1,4.1,0,0,1,.5-1.7,12.8,12.8,0,0,1,1.1-2,3.5,3.5,0,0,1,1.2-1c.2-.1.4-.3.7-.2a.9.9,0,0,1,.6.6,1.4,1.4,0,0,1,.2.6,4.1,4.1,0,0,1,.1,1.5,2.2,2.2,0,0,1-.1.6h.4l1.1-.2a2.2,2.2,0,0,0,.6-.7l.5-.7c0-.1.1-.2.1-.3H7c-.1,0,0,.1,0,.1s.2,0,.1,0h.1l-.2.2a1.8,1.8,0,0,0-.5.7c-.2.3-.2.5,0,.7a.8.8,0,0,0,.7.4,1.4,1.4,0,0,0,1-.5,2.7,2.7,0,0,0,.7-.8l.4-.5c0-.1,0-.1.1-.2H10a.3.3,0,0,1,.1.2A1.4,1.4,0,0,1,10,108a2.9,2.9,0,0,0-.2.9v.3H10l.6-.3.9-.6a.9.9,0,0,1,.7-.3.7.7,0,0,1,.6.2.9.9,0,0,1,.3.6.9.9,0,0,0,.1.5c0,.1.1.2.1.3h.5a.4.4,0,1,1,0,.8,1.5,1.5,0,0,1-1-.3,2,2,0,0,1-.5-1.3.1.1,0,0,0-.1-.1H12l-1,.7-.7.4a1.3,1.3,0,0,1-.9.1.8.8,0,0,1-.4-.6c-.1-.2,0-.4,0-.6a2.9,2.9,0,0,1,.2-.9,2.3,2.3,0,0,0,.1-.7h.1c-.1,0,.1.1,0,.1h.2c-.1-.1.2,0,.1,0h.2c-.1,0,.1-.1,0-.1H10a.1.1,0,0,0-.1.1l-.3.4a4.4,4.4,0,0,1-.9,1.1,1.9,1.9,0,0,1-1.6.6,1.7,1.7,0,0,1-1.3-.7,1.5,1.5,0,0,1,0-1.7l.6-.8.4-.3h.6c.1.1.3.2.3.4a.4.4,0,0,1,.1.3,1.9,1.9,0,0,1-.2.7,2.2,2.2,0,0,1-.5.8,2.8,2.8,0,0,1-1,.9,3.2,3.2,0,0,1-1.4.3H4a1,1,0,0,1-.5-.6v-.7a6.5,6.5,0,0,0,0-1.4c0-.2-.1-.3-.1-.5H3.2a2.2,2.2,0,0,0-.9.8A8,8,0,0,0,.8,110H.2c.1,0-.1.1,0,.1H.1a2.9,2.9,0,0,0,.2-.9,5.3,5.3,0,0,0,.1-1.3v-1c-.1-.1,0-.2-.1-.2H1c-.1,0,0-.1,0,0"/><path d="M121.4,27.5a.5.5,0,0,1-.4-.5c0-.2.2-.4.4-.3l.5-.3.9-.8a39.7,39.7,0,0,0,3.4-3.6,5.5,5.5,0,0,0,1-1.8v-.3H127l-.7.2a9.9,9.9,0,0,0-2.3,2,12.3,12.3,0,0,0-1.9,3.3,4.2,4.2,0,0,0-.2,2.4,1,1,0,0,0,.6.5l1.2.2a6.8,6.8,0,0,0,2.7-1,.5.5,0,0,1,.6.1c.1.2.1.4-.1.5a6.3,6.3,0,0,1-3.2,1.2l-1.5-.2a1.6,1.6,0,0,1-1-1,3.7,3.7,0,0,1,.2-2.9,11.7,11.7,0,0,1,2-3.6,8.7,8.7,0,0,1,2.6-2.2l.9-.3a1.2,1.2,0,0,1,.8.2.9.9,0,0,1,.4.6c0,.2-.1.4-.1.6a10.8,10.8,0,0,1-1.1,2.1,42.7,42.7,0,0,1-3.5,3.7l-1,.9a1.8,1.8,0,0,1-1,.4"/><path d="M128.6,30.4c-.2.2-.4.3-.6.1a.4.4,0,0,1-.2-.5,6.9,6.9,0,0,1,1.7-1.7,8.7,8.7,0,0,1,1-.8,1.1,1.1,0,0,1,.8.1,1.1,1.1,0,0,1,.3.7c.2,1-.4,2.2-.4,2.7a.4.4,0,0,1-.4.4.4.4,0,0,1-.4-.4c0-.8.5-2,.4-2.6v-.2c-.1,0,.1.1.1.1l-.9.7a6.1,6.1,0,0,0-1.4,1.4"/><path d="M140.6,25.2a.4.4,0,0,1-.4-.4.4.4,0,0,1,.4-.4,9.7,9.7,0,0,0,3-.1.5.5,0,0,1,.6.2.6.6,0,0,1-.3.6,9.3,9.3,0,0,1-3.3.1"/><path d="M141.2,26.5c.1.2-.1.4-.3.5a.5.5,0,0,1-.5-.3.7.7,0,0,1,.2-.6h2.9c.2-.1.4.1.5.3a.5.5,0,0,1-.3.5h-2.6s.1-.1,0-.1.1-.2.1-.1h0"/><path d="M153.4,22.9c0,.2-.2.3-.5.3a.5.5,0,0,1-.3-.5h.1c0-.1.1,0,.1,0h-.3a1.7,1.7,0,0,0-.8.6v.2c-.1,0-.1-.1,0-.1h.1l.7.3a2.2,2.2,0,0,1,1.1.5.5.5,0,0,1,.3.5.6.6,0,0,1,0,.6,3,3,0,0,1-.7,1,2.6,2.6,0,0,1-2.6.5.3.3,0,0,1-.3-.5.4.4,0,0,1,.5-.2,2.1,2.1,0,0,0,1.9-.4l.4-.6v-.2h0l-.8-.3-.9-.3-.3-.3a.6.6,0,0,1-.3-.5c0-.3.2-.4.3-.6a3.4,3.4,0,0,1,1.2-.9,1.1,1.1,0,0,1,.8-.1c.1.1.3.2.4.4a.4.4,0,0,1,0,.5"/><path d="M152.3,23a.4.4,0,0,1-.5.3c-.2,0-.3-.2-.3-.5a1.1,1.1,0,0,1,.8-.8l1.3-.2h4a.4.4,0,0,1,.4.4c.1.2-.1.4-.3.4a28.5,28.5,0,0,1-4,.1l-1.1.2c-.2.1-.3.1-.3.2"/><path d="M158.5,24.8c.1-.2.3-.2.5-.1a.4.4,0,0,1,.2.5l-.5,1.1a4.1,4.1,0,0,0-.3.8v.3h0s-.2-.1-.1-.1H158c.1-.1.2-.3.4-.4a6.1,6.1,0,0,1,1.5-1.3l.6-.2.4.2c.1.1.1.1.1.2a.9.9,0,0,1,.1.5c.1.5-.3.9-.4,1.1a.3.3,0,0,1-.1.2h.3a6.4,6.4,0,0,0,1.1-.6c.1-.1.2-.3.4-.4h.5l.2.2c.2.1.2.3.3.4a1.6,1.6,0,0,1,0,.7,1,1,0,0,0-.1.4h.6a9.2,9.2,0,0,0,2-1,.5.5,0,0,1,.6.2c.1.2.1.4-.1.5a11.7,11.7,0,0,1-2.3,1.1h-1.3l-.3-.4a1.5,1.5,0,0,1,.1-.7v-.3c0-.1,0-.1-.1-.1h.1c-.1,0,.2-.1.2,0l-.3.2a3.6,3.6,0,0,1-1.5.8.6.6,0,0,1-.6,0,.5.5,0,0,1-.4-.2c-.1,0-.2-.2-.2-.3a.8.8,0,0,1,.2-.6c.1-.4.3-.7.3-.8h0a6.9,6.9,0,0,0-1.4,1.2l-.3.3-.2.2c-.1.1-.2.2-.4.1l-.4-.2V27l.3-1c.2-.5.5-.9.6-1.2"/><path d="M95.2,92.7a.5.5,0,0,1-.6-.2.6.6,0,0,1,.3-.6,10.5,10.5,0,0,0,3-2.2A9.6,9.6,0,0,0,99.3,88a.6.6,0,0,0,.2-.5s.1.1,0,.1h-.2a6.9,6.9,0,0,0-1.4,1.2,6.7,6.7,0,0,0-1.4,2.6,2.1,2.1,0,0,0,0,.8l.5.3a4.4,4.4,0,0,0,2.6-.4.4.4,0,0,1,.5.2.5.5,0,0,1-.2.6,6,6,0,0,1-3.1.4,1.8,1.8,0,0,1-1-.7,2.2,2.2,0,0,1-.1-1.4,9.8,9.8,0,0,1,1.6-3A6.4,6.4,0,0,1,99,87a1,1,0,0,1,.9-.1l.3.3a.6.6,0,0,1,.1.4,1.1,1.1,0,0,1-.3.8l-1.5,1.9-2,1.6-1.3.8"/><path d="M103.2,92.2a.3.3,0,0,1-.5-.3.5.5,0,0,1,.4-.5H105c.2,0,.4.3.4.5a.4.4,0,0,1-.1.3l-.3.5-1,1.2-.5.6a.3.3,0,0,1-.1.2h.6l1.8-.2c.2-.1.4.1.4.3s-.1.5-.4.5l-1.7.2H103a.5.5,0,0,1-.4-.3v-.5l.2-.3a1.9,1.9,0,0,1,.6-.7,9.4,9.4,0,0,0,.9-1.2.5.5,0,0,0,.3-.4h-1.4"/><path d="M113,88.5a.3.3,0,0,1,.3-.5c.2-.1.4.1.5.3h2a.5.5,0,0,1,.5.4.4.4,0,0,1-.4.4h-1.5a1.1,1.1,0,0,1-.8-.2c-.3-.1-.6-.3-.6-.6"/><path d="M113.6,90.9a.4.4,0,0,1-.5-.7c.7-.5,1.4-.2,2.7-.6a.4.4,0,0,1,.5.2.4.4,0,0,1-.3.6l-1.7.3-.7.2"/><path d="M127.1,86.6c.3,0,.4.2.4.5s-.3.3-.5.3a.8.8,0,0,0-.8.3l-.2.4h0a.2.2,0,0,0,.2.2l.8.2a1.6,1.6,0,0,1,.8.6.6.6,0,0,1,.1.7,1.4,1.4,0,0,1-.2.6,2.2,2.2,0,0,1-1.7,1l-1.6.3c-.3-.1-.4-.2-.4-.5a.4.4,0,0,1,.4-.4,3.5,3.5,0,0,0,1.4-.1,3.1,3.1,0,0,0,1.2-.7v-.4h0l-.4-.2c-.2-.1-.6,0-1-.3l-.4-.4a.9.9,0,0,1-.1-.7,1.2,1.2,0,0,1,.4-.8,1.5,1.5,0,0,1,1.5-.6"/><path d="M126.8,87.7c-.2.2-.4.3-.6.1s-.2-.4-.1-.6,1.2-.5,2.2-.7l4.1-.5c.2-.1.4.1.4.3a.4.4,0,0,1-.3.5l-4.1.5-1.6.4"/><path d="M133.1,89.4a.4.4,0,1,1,0,.8l-.2.3a2,2,0,0,0-.4.8,4.3,4.3,0,0,1-.1.5V92s-.1-.1,0-.1h-.3c.1-.1,0,0,0-.1s.3-.3.5-.6l1.1-1,.5-.5c.2-.1.3-.3.6-.3s.4.1.5.2l.2.3c0,.2.1.4.1.6s-.1.6-.1.8a1.4,1.4,0,0,0-.2.6h0s-.1-.1,0-.1-.1-.1-.1,0H135l.4-.3,1.4-.9.6-.2h.5l.3.4a2.5,2.5,0,0,1-.1,1,.8.8,0,0,0,.2.5h.6l1.4-.7c.2-.1.5-.1.6.1a.5.5,0,0,1-.2.6,7.1,7.1,0,0,1-1.6.7l-.6.2a.8.8,0,0,1-.7-.2,1.2,1.2,0,0,1-.5-1.2c0-.2.1-.3.1-.5h-.1a6.7,6.7,0,0,0-1.4.9l-.5.3-.3.2h-.5c-.2-.1-.2-.3-.2-.5v-.2a1.4,1.4,0,0,1,.2-.6c0-.2.1-.4.1-.6a.6.6,0,0,1-.1-.4h.1c-.1-.1.2,0,.2,0h-.1l-.2.2-.5.4-1,1c-.2.3-.3.7-.9.8s-.2.1-.4,0-.2-.2-.2-.3a.9.9,0,0,1-.1-.5,2.4,2.4,0,0,1,.2-.8,4.2,4.2,0,0,1,.4-1,1,1,0,0,1,.9-.6"/><path d="M114.8,118.7c0,.2-.2.3-.4.3s-.4-.2-.4-.5a2,2,0,0,1,.4-.8,1.8,1.8,0,0,1,.7-.5c.1,0,.4.1.4.3s.1.1.1.2v.2c-.1.1-.1.3-.2.5l-.5,1.5a12.1,12.1,0,0,0-.8,2.8v.7h.2a12.8,12.8,0,0,0,1.9-1.6l1.3-1.4.8-1,.5-.5h.4l.4.3c.1.2,0,.4,0,.5l-.2.3-.3.6-.5,1-.4,1.1v.5h.3l1.2-.5a.4.4,0,0,1,.5.2.5.5,0,0,1-.2.6,3,3,0,0,1-1.4.5H118a1,1,0,0,1-.5-.4,1.2,1.2,0,0,1-.1-1,9.3,9.3,0,0,1,.4-1.3,5.4,5.4,0,0,0,.5-1.1l.4-.6v-.2h0s.1.1,0,.1l.2.2h.2c-.1,0,.1-.1.1-.1h0l-.4.3-.8,1-1.3,1.5c-.8.8-1.6,1.7-2.4,1.8a1.2,1.2,0,0,1-1-.3c-.3-.4-.1-.9-.1-1.3a12.2,12.2,0,0,1,.8-3c.2-.6.4-1.1.5-1.5s.1-.3.2-.4h0s.1.1,0,.1.3.2.2.1h.2c0,.1.1,0,0,.1H115a1.7,1.7,0,0,0-.2.5"/><path d="M124.8,121.1c.2,0,.3.3.3.5a.6.6,0,0,1-.6.3c-.1-.1-.6,0-1,.2l-.4.4H123c0,.1-.1-.1-.1-.1h0l.6-.3.6-.2h.3l.4.2a1.1,1.1,0,0,1,.1.5c0,.2,0,.3-.1.4s-.2.6-.2.8a11.3,11.3,0,0,0-.3,1.8c0,.1.1.3,0,.5s.1.6-.2.9a1.1,1.1,0,0,1-.9.4l-.9-.2a2.3,2.3,0,0,1-.7-.7,1.4,1.4,0,0,1,.1-1.1c.2-.2.4-.3.6-.1s.3.3.1.5-.1.3,0,.3a.3.3,0,0,0,.3.3l.5.2h.3v-1a18.1,18.1,0,0,1,.3-1.9l.3-.8v-.3h.1c-.1,0,.1.1.1.1h-.1c0,.1-.2.1-.4.2l-.6.2h-.6s-.2-.1-.2-.2-.2-.3-.2-.5a1.9,1.9,0,0,1,.2-.7l.7-.5a2.2,2.2,0,0,1,1.7-.3"/><path d="M128,121c.2-.1.4-.1.5.1s.1.5-.1.6h0a8.7,8.7,0,0,0-1,1.4,1.9,1.9,0,0,0-.2.7c-.1.2,0,.3,0,.3h.2l.8-.4c.1-.2.4-.1.5,0a.5.5,0,0,1,0,.6c-.5.3-.8.6-1.2.6a.8.8,0,0,1-.9-.3c-.3-.2-.3-.6-.3-.9a4.2,4.2,0,0,1,.4-1l.7-1.1.3-.4.3-.2"/><path d="M128.8,121.5a.4.4,0,0,1,.2.5c-.1.3-.3.4-.5.3h0s.1-.2.1-.1V122h0a.4.4,0,0,1,0,.6.3.3,0,0,1-.5,0c-.2-.1-.3-.2-.3-.4s.1-.5.2-.6a.8.8,0,0,1,.8-.1"/><path d="M132.3,120.6a.4.4,0,0,1,.4.4c.1.2-.1.4-.3.4a1.8,1.8,0,0,0-1.1.7v.4l.3.3a1.8,1.8,0,0,1,.2,1.6,1.2,1.2,0,0,1-.6.6,1.4,1.4,0,0,1-1.1.1.4.4,0,0,1-.3-.5c0-.2.2-.3.4-.3a1.1,1.1,0,0,0,.6,0c.1-.1.2-.1.2-.2a.8.8,0,0,0-.1-.8,1.5,1.5,0,0,1-.4-.6,1.7,1.7,0,0,1,.1-1,2.6,2.6,0,0,1,1.7-1.1"/><path d="M136.5,121.3c-.2.1-.4-.1-.5-.3a.7.7,0,0,1,.4-.5c1.1-.1,2.5.2,3.5-.2a.4.4,0,0,1,.6.3.5.5,0,0,1-.3.5c-1.3.5-2.9.1-3.7.2"/><path d="M137.6,122.9a.4.4,0,0,1-.5-.3c0-.2.1-.5.3-.5a10.3,10.3,0,0,0,1.7-.1c.3,0,.5.1.5.3a.3.3,0,0,1-.3.5,5.5,5.5,0,0,1-1.7.1"/><path d="M147.9,118.2a.4.4,0,0,1-.4-.4.4.4,0,0,1,.4-.4,7,7,0,0,1,2.3.4h.5l.4.5a1.3,1.3,0,0,1,.1.9c-.2.9-1,1.3-1.6,1.8a12.3,12.3,0,0,0-1.6,1.5h0c-.1.1-.1-.1-.1-.1h.3c.5.2,1.3.2,2.1.4s.4.2.3.4a.4.4,0,0,1-.4.4l-2.2-.4c-.3-.1-.5-.1-.7-.4l-.2-.5.3-.5,1.6-1.5c.7-.6,1.4-1.1,1.4-1.3v-.5h-.1l-.4-.2-2-.3"/><path d="M155.3,119.9a.5.5,0,0,1-.6,0c-.2-.1-.2-.4,0-.6a2.2,2.2,0,0,1,1.8-.6l.9.3a.9.9,0,0,1,.3.5.4.4,0,0,1,0,.5.7.7,0,0,1-.4.6l-.6.3h-.4c-.1,0,.1-.1.1-.1h.1l.4.2a1.3,1.3,0,0,1,.6.7,1.1,1.1,0,0,1,0,.8,1.1,1.1,0,0,1-.6.7l-.9.4-1.6.2a.4.4,0,0,1,0-.8l1.4-.2.7-.3.2-.2a.2.2,0,0,0,0-.3c0-.1-.1-.2-.2-.3s-.6-.1-.8-.5a1.1,1.1,0,0,1-.1-.5.7.7,0,0,1,.3-.6l.5-.2.4-.2h.1c.1-.1.1-.1,0-.2h0l-.5-.2a1.2,1.2,0,0,0-1.1.4"/><path d="M159.3,122a.4.4,0,0,1,.7.5.4.4,0,0,0-.1.3v.2a.8.8,0,0,0,.6.2,2.1,2.1,0,0,0,1.3-.7l.4-.8v-.6h-.5a2.4,2.4,0,0,0-1.2.3.5.5,0,0,1-.6-.2.4.4,0,0,1,.2-.5,2.7,2.7,0,0,1,1.6-.4,1.2,1.2,0,0,1,.8.1,1,1,0,0,1,.5.6,3.4,3.4,0,0,1,0,1,6,6,0,0,1-.6,1.1,2.3,2.3,0,0,1-1.9,1,1.7,1.7,0,0,1-1.2-.5,1,1,0,0,1-.2-.7,2.4,2.4,0,0,1,.2-.8"/><path d="M167.7,118.6a.4.4,0,0,1,.4-.4.4.4,0,0,1,.4.4,16,16,0,0,1,.2,2.8,8.6,8.6,0,0,0,.1,1.7v.5h.1c.1-.1.2-.3.4-.4l1.2-1.4a10.8,10.8,0,0,1,3.6-3.2.5.5,0,0,1,.6.2.7.7,0,0,1-.3.6,9.7,9.7,0,0,0-3.3,2.9l-1.2,1.4-.5.5a.9.9,0,0,1-.7.3l-.4-.2a.5.5,0,0,1-.2-.4,6.4,6.4,0,0,1-.2-.7v-1.6c-.1-1.2-.2-2.4-.2-2.9"/><path d="M153.6,57.4a.4.4,0,1,1,.8,0h0a.4.4,0,0,0-.1.3l-.5,1.1a5.1,5.1,0,0,0-.7,1.8,1.8,1.8,0,0,0-.1.6h0a1.7,1.7,0,0,0,.8-.2l1.5-.8c.2-.1.4-.1.5.1s.1.4-.1.6a4.6,4.6,0,0,1-2.8,1.1c-.3,0-.6-.4-.7-.7a1.8,1.8,0,0,1,.1-1,9.6,9.6,0,0,1,.7-2,3.1,3.1,0,0,0,.5-1,.3.3,0,0,1,.1-.2h0m-4.2.1a.4.4,0,1,1-.7.5,1.7,1.7,0,0,1-.1-.7l.3-.6,1-.8a2.1,2.1,0,0,1,.8-.6h.5a.3.3,0,0,1,.3.3.9.9,0,0,1,0,.7c-.2.6-.6,1-.8,1.5a6.4,6.4,0,0,0-.9,2.2c-.1.3-.1.4,0,.4s-.2,0-.1,0h0l.4-.2a4.2,4.2,0,0,0,1.2-.8,6.3,6.3,0,0,0,1.2-1.1,8,8,0,0,1,1.3-1.3c.2-.1.4,0,.6.2a.4.4,0,0,1-.2.5l-1.1,1.2-1.3,1.2-1.3.9-.7.2h-.3c-.1-.1-.3-.1-.3-.2a1.3,1.3,0,0,1-.2-1.2,5.9,5.9,0,0,1,1-2.4,8.8,8.8,0,0,0,.7-1.3.3.3,0,0,0,.1-.2c-.1,0,0,.1,0,0h.2l-.6.5-.8.7c-.1.1-.2.2-.2.3h0"/><path d="M161.2,58.6c.2,0,.3.2.3.4a.4.4,0,0,1-.4.4h-.6a1.6,1.6,0,0,0-.8.5h-.1c.1,0-.1-.1,0-.1s-.1,0-.1,0h.4l.9-.5c.2-.1.3-.2.5-.1h.4a.8.8,0,0,1,.1.4c0,.6-.4,1-.5,1.4a6.9,6.9,0,0,0-.5,2.8c-.1.3,0,.6-.1,1a1.1,1.1,0,0,1-.7,1,1.2,1.2,0,0,1-1,0l-.8-.5a1.6,1.6,0,0,1-.6-.8,1.7,1.7,0,0,1,.2-1.2.4.4,0,0,1,.5-.1.5.5,0,0,1,.2.6.6.6,0,0,0-.1.4,1,1,0,0,0,.4.5.5.5,0,0,0,.5.3h.4a.5.5,0,0,0,.2-.4c.1-.2,0-.5,0-.9a13,13,0,0,1,.6-3.1l.5-1.1h0s.1.1,0,.1.2.1.1,0h0l-.8.5-.4.2h-.7a.5.5,0,0,1-.3-.5.9.9,0,0,1,.1-.7,3.2,3.2,0,0,1,1.2-.8h1"/><path d="M165.1,59.2a.4.4,0,0,1,.2.5c-.1.2-.3.4-.5.3a.7.7,0,0,0-.7.2,1.6,1.6,0,0,0-.6.8v.3c0,.1,0,.1.1.1a.1.1,0,0,0,.2,0h.8a.4.4,0,1,1,.3.7l-1,.3-.8-.2a1,1,0,0,1-.4-.7v-.7a3.4,3.4,0,0,1,.9-1.2,1.5,1.5,0,0,1,1.5-.3"/><path d="M165,59.3a.7.7,0,0,1,.4.5c-.1.2-.3.4-.5.3h-.2s.1-.2.1-.1v-.2h.2a.4.4,0,0,1-.5.7.8.8,0,0,1-.4-.4.6.6,0,0,1-.1-.4q.1-.3.3-.3a.9.9,0,0,1,.7-.1"/><path d="M169.6,58.6a.5.5,0,0,1-.2.6.4.4,0,0,1-.5-.2h-.1l-.2.2a.6.6,0,0,0-.1.4,4.1,4.1,0,0,0,.2.7,1.2,1.2,0,0,1-.1,1,1.9,1.9,0,0,1-1.1.9l-1.1.2a.4.4,0,0,1-.4-.4c-.1-.2.1-.4.3-.4l.9-.2.7-.4v-.6c0-.2-.2-.4-.2-.8a1.3,1.3,0,0,1,.3-1,1,1,0,0,1,.7-.4h.5c.2,0,.3.2.4.3"/><path d="M172.4,59c-.2,0-.3-.2-.3-.5s.2-.4.4-.3a17.9,17.9,0,0,1,3.2.1c.2,0,.3.2.3.5s-.2.3-.5.3-2.1,0-3.1-.1"/><path d="M173.7,59.4a.4.4,0,0,1,.4.4c0,.3-.2.4-.5.4h-.1s.1-.1,0-.1.1-.1.1,0,.1-.3.1-.2-.1-.3,0-.2-.1-.2-.1-.1h.1l1.5.2c.3,0,.4.2.4.5s-.2.4-.4.3l-1.7-.2h-.3s-.1.1-.3-.3a.6.6,0,0,1,.1-.4c.2-.3.3-.2.3-.2h.4"/><path d="M184.8,56.6a.4.4,0,0,1-.4-.4.4.4,0,0,1,.4-.4h1.8l.7.2a1,1,0,0,1,.4.7c-.1.4-.3.5-.4.7l-.5.3a11.3,11.3,0,0,0-1.9,1.9.6.6,0,0,0-.1.4c0,.1,0,.1.1.2l.4.2a3.9,3.9,0,0,0,1.5-.1c.2-.1.4,0,.5.3s-.1.4-.3.5a4.1,4.1,0,0,1-1.9.1,2,2,0,0,1-.8-.4.8.8,0,0,1-.3-.8,1.2,1.2,0,0,1,.2-.8,8.4,8.4,0,0,1,2.1-2.1l.5-.4h.1s-.1.2-.1.1h-2"/><path d="M192.6,57c0,.2-.1.5-.3.5a.3.3,0,0,1-.5-.3.6.6,0,0,1,0-.6l.5-.3h1.5l.6.3a1.4,1.4,0,0,1,.2.6.4.4,0,0,1-.1.5l-.3.3-.5.4-.3.2h0c0,.1.1.1.1.2l.5.5a2.2,2.2,0,0,1,.8,1.3,1.1,1.1,0,0,1-.3.8,1.2,1.2,0,0,1-.7.5,2.8,2.8,0,0,1-2-.1c-.3-.1-.3-.3-.3-.5a.5.5,0,0,1,.6-.2,2.3,2.3,0,0,0,1.4.1l.4-.3c0-.1.1-.1.1-.2a2.1,2.1,0,0,0-.6-.8l-.5-.6c-.1-.1-.2-.2-.2-.3a.6.6,0,0,1,0-.6.8.8,0,0,1,.5-.5l.5-.4h-1.1"/><path d="M196.9,59.5c.1-.3.3-.4.5-.3s.4.3.3.5a1.4,1.4,0,0,0-.2.6v.3c0,.1,0,.1.1.1s.7.2,1.2.1a3.4,3.4,0,0,0,1.9-2,1.5,1.5,0,0,0,.1-.6q0-.2-.3-.3h-.9l-.9.2-.3.3c0,.2-.2.3-.4.3s-.4-.3-.4-.5a1.4,1.4,0,0,1,.8-.9l1.2-.2a2.5,2.5,0,0,1,1.2.2,1.3,1.3,0,0,1,.8.8,2.1,2.1,0,0,1-.1,1.1,4,4,0,0,1-2.5,2.4,2.1,2.1,0,0,1-1.9-.1l-.4-.6a1.6,1.6,0,0,1,0-.7,3.9,3.9,0,0,0,.2-.6"/><path d="M204.6,56.3a.5.5,0,0,1,.3-.5.5.5,0,0,1,.5.4c.1.8-.2,2.2-.2,3.6a3.1,3.1,0,0,0,.1,1c0,.3.1.3.1.4h0l.5-.5,1.3-1.8c.8-1.2,1.5-2.4,2.3-2.8a.7.7,0,0,1,.6.3.4.4,0,0,1-.2.5,8.4,8.4,0,0,0-2.1,2.5l-1.3,1.8a1.3,1.3,0,0,1-.7.6l-.3.2a.4.4,0,0,1-.5,0,1,1,0,0,1-.5-1,3.7,3.7,0,0,1-.1-1.1c0-1.5.3-2.9.2-3.5"/><path d="M274.8,17.6a.3.3,0,0,1,0,.5c-.1.2-.4.2-.6,0h0l-.5.3-1.4,1.4a7.7,7.7,0,0,0-1,2.3,4.5,4.5,0,0,0-.1.8h.5a2.6,2.6,0,0,0,1.5-1.4,1,1,0,0,0,.1-.4H273l-.3.2v.3c.1.2,0,.4-.2.6s-.4,0-.5-.2a1.2,1.2,0,0,1-.1-1,1.2,1.2,0,0,1,.6-.6l.8-.2h.4a.5.5,0,0,1,.3.5,1.1,1.1,0,0,1-.1.8,3.7,3.7,0,0,1-2,1.9h-.8a1.2,1.2,0,0,1-.7-.5,2.2,2.2,0,0,1,0-1.4,8.5,8.5,0,0,1,1.2-2.6,7.7,7.7,0,0,1,1.5-1.6l.8-.4h.4a.4.4,0,0,1,.4.2"/><path d="M279.7,18.6c.2.1.4.3.3.5s-.2.4-.4.3a2.4,2.4,0,0,0-1.2.3.5.5,0,0,0-.3.4h0l.6.3.9.6c.2.1.2.3.2.5a.7.7,0,0,1-.1.5,2.7,2.7,0,0,1-.7.8,2.4,2.4,0,0,1-1.1.6,1.4,1.4,0,0,1-1.1,0,.4.4,0,0,1-.2-.5.5.5,0,0,1,.5-.3q.1.2.6,0l.8-.4.5-.5v-.2h0c-.1-.2-.4-.3-.7-.5l-.6-.3-.3-.3a.4.4,0,0,1-.1-.5,1.5,1.5,0,0,1,.7-.9,2.2,2.2,0,0,1,1.7-.4"/><path d="M278.9,19.3c-.2.1-.4-.1-.4-.3a.5.5,0,0,1,.4-.5,20.2,20.2,0,0,0,4-.2c.2-.1.4.1.5.3a.5.5,0,0,1-.4.5,15.4,15.4,0,0,1-4.1.2"/><path d="M284.8,19c-.2,0-.4-.1-.4-.3s.1-.5.4-.5l.4.2c.1.1,0,.2,0,.3s0,.2,0,.3a2.5,2.5,0,0,1-.2.7l-.6,2.1a11.5,11.5,0,0,0-.2,1.4v.4h0l-.2-.2h-.1l.5-.4,1.6-1.4a23.1,23.1,0,0,1,4.4-3.2.5.5,0,0,1,.6.2.4.4,0,0,1-.2.5,18.9,18.9,0,0,0-4.2,3.1l-1.7,1.4-.6.5H284l-.5-.2a1.2,1.2,0,0,1-.1-.8,11.1,11.1,0,0,1,.2-1.7l.6-2.1a2.5,2.5,0,0,0,.2-.7h.1c-.1,0,0,.1,0,.1h.1c0-.1.3,0,.2,0"/><path d="M295.6,15.5c.1-.2.4-.3.5-.2a.5.5,0,0,1,.2.6l-1.2,1.6c-1.8,2.3-4.7,5.8-5.3,7.9,0,.2-.2.3-.5.3a.4.4,0,0,1-.2-.5c.4-1.7,1.9-3.7,3.3-5.6l2.1-2.6,1.1-1.5"/><path d="M298.4,16.6c.1-.2.4-.2.6-.1a.6.6,0,0,1,.1.6c-.2.1-.2.6-.1,1.2a6.5,6.5,0,0,0,.4,2,2.7,2.7,0,0,1,.2,2,1.9,1.9,0,0,1-1.2.9,2.4,2.4,0,0,1-1.2,0,.7.7,0,0,1-.5-.4c-.1-.2-.1-.4-.2-.6a2.5,2.5,0,0,1,.1-.8.9.9,0,0,1,.6-.7l.8-.4a6.5,6.5,0,0,0,2.2-1.8l.2-.4a.6.6,0,0,0-.4-.6.9.9,0,0,0-.7-.3h-.1a.4.4,0,1,1-.8,0,.6.6,0,0,1,.3-.6.7.7,0,0,1,.6-.2,2.2,2.2,0,0,1,1.3.4,2,2,0,0,1,.6,1.3,1.6,1.6,0,0,1-.3.9,7.8,7.8,0,0,1-2.6,2.1l-.7.3c-.2.1-.2.2-.2.2s0,.3,0,.6v.2h0a1.1,1.1,0,0,0,.8,0l.7-.4a3.5,3.5,0,0,0-.3-1.5,12.9,12.9,0,0,1-.5-2.1,2.8,2.8,0,0,1,.3-1.8"/><path d="M305.1,17.1a.4.4,0,0,1,.5-.2c.2.2.3.4.2.6s-.6,1.4-1.1,2.6a4.3,4.3,0,0,0-.4,1.4,1,1,0,0,0-.1.4c0,.1-.1-.2-.1-.1s-.1-.1,0-.1h.6l.8-.4a.6.6,0,0,1,.7.1,1,1,0,0,1,.4.5,3.9,3.9,0,0,1,0,1.1v.5c0,.1-.1-.1-.1-.1h.2c.3,0,.8-.7,1.3-1.3a21.7,21.7,0,0,1,3.8-4.3.4.4,0,0,1,.6.1c.2.1.1.4,0,.5a21.6,21.6,0,0,0-3.8,4.2c-.5.6-.9,1.4-1.6,1.6h-.7c-.2,0-.4-.2-.5-.5s0-.5,0-.7v-.8a.3.3,0,0,0-.1-.2h.1l-.7.4-.8.2a.3.3,0,0,1-.4,0,.5.5,0,0,1-.5-.4,2.5,2.5,0,0,1,.1-.8,8.8,8.8,0,0,1,.5-1.5l.6-1.7a3,3,0,0,1,.5-1"/><path class="cls-5" d="M241.7,51.9c-.1-.2.1-.4.3-.5a.5.5,0,0,1,.5.4,13.7,13.7,0,0,1-.2,2.7c-.1.5-.1,1-.2,1.4v.7c0,.2-.1.4-.1.6v.2h0c0,.1-.1.1-.1.2h-.5l-.2-.2h0a.3.3,0,0,1-.1-.2v-.4a14.1,14.1,0,0,1-.1-4.2,3.4,3.4,0,0,1,.5-1.4,2,2,0,0,1,.9-.9.9.9,0,0,1,1,.1,1.6,1.6,0,0,1,.8.6,2.3,2.3,0,0,1,.2,1.6,1.6,1.6,0,0,1-.5.8,1.7,1.7,0,0,0-.2.5,5.4,5.4,0,0,0,.4.8,4.3,4.3,0,0,1,.9,1.5c.1.2,0,.4-.3.5s-.4-.1-.5-.3-.5-.9-.7-1.3a1.7,1.7,0,0,1-.6-1.2,1.8,1.8,0,0,1,.4-1c.1-.2.3-.4.3-.5a1.3,1.3,0,0,0-.1-.9c-.1-.2-.3-.3-.4-.4h-.4a1,1,0,0,0-.5.6,3.6,3.6,0,0,0-.4,1.1,12.9,12.9,0,0,0,.1,4v.4h-.6c.1-.1-.1.1,0,.1s-.1,0-.1,0h0v-.2a1.8,1.8,0,0,1,.1-.6v-.6c.1-.5.1-1,.2-1.5s.2-1.9.2-2.5"/><path class="cls-5" d="M248.2,54.7a.3.3,0,0,1-.5,0,.3.3,0,0,1-.1-.5c0-.1,0-.1.1-.2s.3-.1.4,0,.2.2.3.3-.1.2-.1.3a4.3,4.3,0,0,0-.1.5,5.8,5.8,0,0,0-.5,1.4,3.9,3.9,0,0,0-.3,1.4v.5h.4a1.4,1.4,0,0,0,.9-.3.4.4,0,0,1,.6,0,.5.5,0,0,1-.1.6,2.2,2.2,0,0,1-1.4.5h-.7a1,1,0,0,1-.5-.6,1.6,1.6,0,0,1,0-.7,4.1,4.1,0,0,1,.3-1.6,13.1,13.1,0,0,0,.5-1.5.8.8,0,0,0,.1-.4h.1c-.1-.1,0,.1,0,.1s.2.2.1.1h.5"/><path class="cls-5" d="M252.7,57.2c0,.2-.3.3-.5.3a.5.5,0,0,1-.3-.5h0c0-.1.1,0,.1,0s.1.1,0,.1.1,0,.1,0l-.5.3a2.1,2.1,0,0,0-.4,1.2s-.1-.2,0-.1-.2-.1-.1-.1H251c.1-.1.2-.3.4-.4s.2-.2.2-.3h.2c.1,0,.3-.1.4,0a.4.4,0,0,1,.3.2v.9c0,.4,0,.7.1.8h.2c.2.1.4,0,.8-.1a.4.4,0,0,1,.5.2.4.4,0,0,1-.3.6l-1,.2a2,2,0,0,1-.8-.4,1.6,1.6,0,0,1-.3-1.3v-.5h0s.1.2.1.1.2.2.1.1h.3l-.3.3a1.1,1.1,0,0,1-.8.6h-.4c-.2-.1-.3-.2-.3-.4a2.1,2.1,0,0,1,.7-1.9,1.2,1.2,0,0,1,1-.5.7.7,0,0,1,.6.3.8.8,0,0,1,0,.7"/><path class="cls-5" d="M184.4,115.5a.5.5,0,0,1-.2.6.4.4,0,0,1-.5-.2h.4c0,.1.1-.1.1,0h0c-.1.3-.1.7-.2,1.1v2.3c0,.1,0,.1-.1.2s-.1.2-.3.2l-.4-.2c-.2-.3-.1-.5-.1-.9v-1a19.2,19.2,0,0,1,0-2.4c.1-.2.1-.5.3-.7a.8.8,0,0,1,.5-.5.8.8,0,0,1,1,.2,1.4,1.4,0,0,1,.5.8v1a8.4,8.4,0,0,1-.3,1.9,2.5,2.5,0,0,0,1,1.9.3.3,0,0,1,0,.5c-.1.2-.4.2-.6.1a3.6,3.6,0,0,1-1.2-2.5,14.8,14.8,0,0,0,.3-1.9v-.8c-.1-.2-.1-.4-.2-.4h-.2a.3.3,0,0,0-.1.2c-.1.1-.1.2-.2.5v3.7h-.7a1,1,0,0,0,.1-.3V117a5.1,5.1,0,0,1,.2-1.3.5.5,0,0,1,.3-.5c.1-.1.4,0,.5.1l.2.2"/><path class="cls-5" d="M189.7,118a.4.4,0,0,1-.5.2.3.3,0,0,1-.3-.5c0-.1.1-.2.1-.3h0c.1,0,0-.2.4-.2a.4.4,0,0,1,.4.3c.1.2,0,.2,0,.2a2.5,2.5,0,0,1-.2.7c-.2.9-.8,2-.9,2.7s-.1.3,0,.4h.2c.2.1.6,0,1.1-.4s.4-.1.6,0a.5.5,0,0,1-.1.6,2.3,2.3,0,0,1-1.8.6,1.3,1.3,0,0,1-.7-.5,1.5,1.5,0,0,1-.2-.9,19.5,19.5,0,0,1,1.1-2.9,2,2,0,0,1,.1-.5h.1c-.1,0,.2.2.1.2s.2,0,.1,0h.3c-.1,0,.1-.1.1-.1s.1-.1,0-.1h.1a.4.4,0,0,0-.1.3"/><path class="cls-5" d="M193.5,120.7c-.1.3-.3.3-.5.2s-.3-.3-.2-.5h0s.1.1,0,.1h-.3l-.2.2c-.1.2-.3.4-.3.5s-.1.1-.1.2h0l.5-.3.5-.4h.7c.2.1.2.3.3.4a2.3,2.3,0,0,1,.1.7h.2c.2-.1.4.1.5.3a.5.5,0,0,1-.4.5.7.7,0,0,1-.6-.1l-.4-.4c-.1-.3-.1-.6-.2-.7h0s.2.1.1.1h.2l-.6.5-.6.3-.3.2h-.5c-.2-.2-.2-.4-.3-.6a1.3,1.3,0,0,1,.1-.6,4.3,4.3,0,0,1,.4-.7,1.6,1.6,0,0,1,.6-.5,1.7,1.7,0,0,1,1,0l.4.4a.6.6,0,0,1-.1.6"/><path class="cls-5" d="M237.4,3.5c.1.2,0,.4-.3.5s-.4-.1-.5-.3a2.5,2.5,0,0,1,.1-1.2,3.9,3.9,0,0,1,.8-1l.8-.9.5-.5h.4l.3.2c.1.1.1.3,0,.3V.7c-.2.6-.7,1.4-1,2.2a17.7,17.7,0,0,0-.8,2.5v.5h.3a7.6,7.6,0,0,0,2-1.6l.7-.9.4-.5c.1-.1.1-.2.3-.3l.5.7-.5.7c-.2.4-.4,1-.6,1.5v.5h.6a4.5,4.5,0,0,0,1.7-.5.5.5,0,0,1,.6.2.4.4,0,0,1-.2.5,4.8,4.8,0,0,1-2.1.6h-.9a1.8,1.8,0,0,1-.5-.7,2.7,2.7,0,0,1,0-.9,8.7,8.7,0,0,1,.7-1.7,8.6,8.6,0,0,1,.7-1c.2-.1.5-.1.6.1a.5.5,0,0,1-.1.6s.1-.1,0-.1a2.1,2.1,0,0,1-.6.8l-.7.8a6.2,6.2,0,0,1-2.5,1.9,1.1,1.1,0,0,1-.8-.2,1.6,1.6,0,0,1-.4-.7V5.2a18.6,18.6,0,0,1,.8-2.6c.4-.9.9-1.7,1-2.1h0V.7c0-.1.1.1.1,0s.2.1.1.1h.3l-.4.4-.8.8-.6.8c-.1.3-.2.5-.1.7"/><path class="cls-5" d="M245.3,5.3a.5.5,0,0,1,0,.6h-.1c-.1,0-.1.1-.2.3l-.4,1.3c-.1.5-.3,1-.4,1.6s-.1.8-.1,1v.3h-.3c.1,0,0,.1,0,.1h0v-.2a4.3,4.3,0,0,0,.4-.7,15.6,15.6,0,0,1,1.6-2,3.6,3.6,0,0,1,1.7-1.1.4.4,0,0,1,.4.4c.1.2-.1.4-.3.4a2.9,2.9,0,0,0-1.2.9A15.7,15.7,0,0,0,245,10l-.4.6-.2.3a.6.6,0,0,1-.5.2h-.4a.4.4,0,0,1-.1-.3,1.3,1.3,0,0,1-.1-.6c0-.3.1-.8.1-1.2s.3-1.1.4-1.6a13.1,13.1,0,0,1,.5-1.5l.2-.4.3-.2a.4.4,0,0,1,.5.1"/><path class="cls-5" d="M246,8c.1-.3.2-.4.5-.4a.4.4,0,0,1,.4.4,13.6,13.6,0,0,0-.4,1.7.4.4,0,0,0,0,.5c0,.1.2.3.4.4a.4.4,0,0,1,.3.5.4.4,0,0,1-.5.2,1.5,1.5,0,0,1-1-.7,4.1,4.1,0,0,1-.1-1.1A6.8,6.8,0,0,0,246,8"/><path class="cls-5" d="M251.3,8.4c-.3,0-.5-.1-.5-.3a.3.3,0,0,1,.3-.5.4.4,0,0,1,.5.3c.1.2.1.2,0,.3s-.1.5-.1.7-.5,1.1-.7,1.7a10.3,10.3,0,0,0-.4,1.4,1,1,0,0,0-.1.4h.1a2.7,2.7,0,0,0,1-.6c.1-.2.4-.2.6,0a.6.6,0,0,1,0,.6,3.1,3.1,0,0,1-1.3.8H250l-.3-.2a.5.5,0,0,1-.2-.4,1.5,1.5,0,0,1,.1-.7c.1-.4.2-.9.4-1.5s.5-1.2.7-1.7a1.1,1.1,0,0,0,.1-.5h.1c-.1,0,0,.2,0,.1l.2.2h.2"/><path class="cls-5" d="M256,10.6a.5.5,0,0,1-.5.4c-.2-.1-.4-.3-.3-.5h.2l-.6.5a2.1,2.1,0,0,0-.4.6c0,.2-.1.3-.1.4h0c0,.1-.1,0,0,0s-.2-.2-.1-.1h0l.6-.3.2-.2.5-.3.4.2h.1v.3a.6.6,0,0,1,.1.4c.1.4.1.7.2.8h.9a.4.4,0,0,1,.4.4c.1.2-.1.4-.3.5h-1a.8.8,0,0,1-.6-.4,2.8,2.8,0,0,1-.4-1.2v-.4h0c-.1,0,.1.1,0,.1h.4a2,2,0,0,1-.5.5l-.8.2h-.6l-.3-.2a1.1,1.1,0,0,1,0-.6,4.3,4.3,0,0,1,.1-.5,2.7,2.7,0,0,1,.6-1l.9-.7h.7a.8.8,0,0,1,.2.4v.3"/><path class="cls-6" d="M67.5,36.1a.5.5,0,0,1-.6-.1.3.3,0,0,1,.1-.5c0-.1-.1,0-.1,0h0s-.1.1-.1,0,0-.5,0-.9V33.3c0-.2.1-.5,0-.7v-.5c0-.1-.1-.2-.1-.3h0v-.2l.3-.3h.4l.2.2.3.2a8.3,8.3,0,0,0,1.7,1.1l1.4.9,1,.4.4.4c.1.2,0,.3,0,.4l-.2.3a.4.4,0,0,1-.6-.6h.1s-.1.1-.1,0,.1.2,0,.2.1.1.1,0,0,.1-.1,0l-.9-.4-1.6-.9-1.7-1.1-.4-.3h.4c0,.1.1-.1.1-.1h0a.4.4,0,0,1,.1.3,3.5,3.5,0,0,1,.1.6v3.3h-.1m-.8-4.2a.4.4,0,0,1,.8,0h0v2.4a1.5,1.5,0,0,0,.1.6v.6h0s-.1-.1,0-.1-.2-.1-.1-.1a.7.7,0,0,1,.1.6.5.5,0,0,1-.6.1l-.2-.2h0a2,2,0,0,0-.1-.7V32h0m.8.2a.4.4,0,0,1-.8,0v-.2a.4.4,0,0,1,.8,0v.2"/><path class="cls-6" d="M67.7,36.9a.5.5,0,0,1-.6-.2.4.4,0,0,1,.2-.5,17.8,17.8,0,0,1,4.9-1.3.5.5,0,0,1,.5.3c0,.2-.1.5-.3.5a26.8,26.8,0,0,0-4.7,1.2"/><path class="cls-6" d="M67.6,33.6a.4.4,0,0,1,.8,0v.9c0,.4,0,.6.1.7h-.1l.4-.6a.7.7,0,0,0,.1-.5v.2H69c0-.1.1.1.1.1s.3,0,.2,0,.3-.1.2,0,.2-.2.1-.2.1-.1.1-.1h0l.2.2h.6c0-.1-.1.2-.1.2s.1.2,0,.2.1.1.1.1.1,0,.1,0H68.8c-.1,0-.1.1-.3-.1s-.2-.4,0-.6.4-.2.5,0,0-.1,0-.1-.1,0,0,0h.4l.2.8a.4.4,0,0,1-.5-.1h-.8c-.1,0,0-.2,0-.1s-.2.3-.4.3-.4-.3-.4-.5l.3-.4h1.6c.2-.1.4.1.5.3a.5.5,0,0,1-.3.5h-.5c-.1.1-.3.1-.6-.1L69,34c.1,0,0-.1,0-.1h.8a5,5,0,0,1,1.2.2h.1c.1.1.2.2.1.4s-.1.2-.1.3H70a1,1,0,0,1-.7-.2l-.3-.4a.4.4,0,0,1-.1-.5c0-.1,0-.2.2-.3h.4l.2.2v.3a1.2,1.2,0,0,1-.2.7,1.8,1.8,0,0,1-.8.9.6.6,0,0,1-.6,0c-.2,0-.3-.2-.4-.4a2.8,2.8,0,0,1-.1-.9v-1m.2.1a.4.4,0,0,1-.7.3.3.3,0,0,1-.1-.2h0s.1.1,0,.1h.6c-.1.1,0-.1,0-.1h0a2.2,2.2,0,0,1,.1.6l.3.7a2,2,0,0,0,.1.5h-.3c0-.1-.1.1-.1.1s-.1.1,0,0h-.1V33.6a.4.4,0,0,1,.4-.4.4.4,0,0,1,.4.4v1c0,.3.1.6.1.8v.3c0,.1-.1.1-.1.2h0a.5.5,0,0,1-.8,0c-.1,0-.2-.2-.2-.3l-.2-.5-.3-.8c0-.3-.1-.6-.1-.8s-.1-.2.2-.4h.6l.2.5"/><path class="cls-6" d="M59,15.6a.5.5,0,0,1,.5-.4.4.4,0,0,1,.3.5,2.6,2.6,0,0,1-.4,1l-.6,1.2-.5,1.2-.2.3h-.3a.3.3,0,0,1-.3-.3h-.1v-.7a.7.7,0,0,1,.5-.4c.2.1.4.2.4.5a1.3,1.3,0,0,0-.1.5h-.1c.1.1-.2-.1-.1,0h-.4c.1,0-.1.1,0,.1h-.1a12.9,12.9,0,0,1,.6-1.2,12.7,12.7,0,0,0,.9-2"/><path class="cls-6" d="M57.1,15.7a.5.5,0,0,1-.5-.3c0-.2.1-.5.3-.5l1.1-.2,2.3-.4,2.5-.2,1,.2a.9.9,0,0,1,.6.6.4.4,0,0,1-.2.5.4.4,0,0,1-.5-.3h-.9l-2.4.2-2.2.4-1.1.2"/><path class="cls-6" d="M55.2,21a.4.4,0,0,1-.4-.4.4.4,0,0,1,.4-.4l2-.3a12.3,12.3,0,0,1,2.9-.3.4.4,0,0,1,0,.8c-2,0-3.6.6-4.9.6"/><path class="cls-6" d="M63.1,21.5a.5.5,0,0,1-.6-.2.4.4,0,0,1,.1-.5l1.5-.9a1.8,1.8,0,0,1,1-.4.8.8,0,0,1,.8.3.8.8,0,0,1,.1.8c0,.2-.1.5-.1.8a7.6,7.6,0,0,1-.7,1.3c-.1.2-.3.3-.5.1a.4.4,0,0,1-.2-.5,6.7,6.7,0,0,0,.6-1.2,1.3,1.3,0,0,0,.1-.6v-.2h0l-.7.3a6.7,6.7,0,0,0-1.4.9"/><path class="cls-6" d="M72.1,17.9c-.2,0-.5-.1-.5-.3a.3.3,0,0,1,.3-.5,7.9,7.9,0,0,1,3.7-.2.5.5,0,0,1,.2.6c0,.2-.3.3-.5.2a7.3,7.3,0,0,0-3.2.2"/><path class="cls-6" d="M72.6,20c-.2.1-.5.1-.6-.1a.5.5,0,0,1,.2-.6,5.2,5.2,0,0,1,1.5-.6,1.9,1.9,0,0,1,1.8.1.5.5,0,0,1,.2.6.5.5,0,0,1-.6.1,1.3,1.3,0,0,0-1.2,0l-1.3.5"/><path class="cls-6" d="M82.1,16.5a.5.5,0,0,1,.6.1.5.5,0,0,1-.2.6,2,2,0,0,0-.6,1.2.8.8,0,0,0,0,.7q0,.1.3.3h.3a3.8,3.8,0,0,0,1.2-1.3,4.7,4.7,0,0,0,.6-1.5,1.1,1.1,0,0,0,.1-.5h-.8a1.3,1.3,0,0,0-1,1.2c0,.2-.2.3-.4.3a.4.4,0,0,1-.4-.4,2.2,2.2,0,0,1,1.5-1.9h1.1a1.3,1.3,0,0,1,.8.7,1.4,1.4,0,0,1-.1.9,3.8,3.8,0,0,1-.8,1.7,3.6,3.6,0,0,1-1.5,1.7,1.1,1.1,0,0,1-1-.1,1.2,1.2,0,0,1-.7-.7,1.4,1.4,0,0,1,0-1.1,2.5,2.5,0,0,1,1-1.8"/><path class="cls-6" d="M86.8,18.8a.4.4,0,0,1,.5-.2.5.5,0,0,1,.2.6l-.3.7a17,17,0,0,0-.9,2.4,3.4,3.4,0,0,0-.1.9v.2h.1a.5.5,0,0,1,.4.5.5.5,0,0,1-.5.3.9.9,0,0,1-.6-.3c-.1-.2-.2-.3-.2-.5a3,3,0,0,1,.1-1.3,14.5,14.5,0,0,1,.9-2.5l.4-.8"/><path class="cls-6" d="M90.9,19.1c0,.2-.3.3-.5.2a.4.4,0,0,1-.2-.5,1.5,1.5,0,0,1,.5-.7,9.4,9.4,0,0,1,.9-1.2l1.3-1.5.8-.7.4-.2h.5c.3.2.3.5.2.6v.5a6.9,6.9,0,0,1-.5,1.3c-.3,1-.8,1.9-.9,2.3s-.3.4-.5.3a.5.5,0,0,1-.3-.5l1-2.4c.1-.4.3-.8.4-1.2v-.3h.1c-.1,0,.1.1,0,.1h.3l-.2.2-.7.6-1.3,1.5-1.3,1.6"/><path class="cls-6" d="M98.4,14.5c-.1.2-.3.4-.5.3a.3.3,0,0,1-.3-.5c0-.1.1-.3.2-.3h1a1.3,1.3,0,0,1,.6.7,1.9,1.9,0,0,1,.3,1.8c-.2.9-1.2,1.3-1.7,1.7s-.2.2-.2.3,0,.1.1.2l.6.3h1.2a.4.4,0,0,1,.5.3c.1.2-.1.4-.3.5a3.9,3.9,0,0,1-1.5.1,1.6,1.6,0,0,1-1-.5,1,1,0,0,1-.4-.9,1.4,1.4,0,0,1,.5-.9A4.9,4.9,0,0,0,99,16.3a1.9,1.9,0,0,0-.3-1.2l-.2-.3h-.2c-.1,0,.1-.3.1-.2"/><path class="cls-6" d="M102.5,16a.4.4,0,0,1-.6-.2.6.6,0,0,1,.3-.6l1.4-.2h.6c.2,0,.4.3.4.5a.9.9,0,0,1-.1.5c-.3.5-.7.4-.8.5s-.2.2-.2.3-.1-.2-.1-.1h.1l.4.3.8.6a1.5,1.5,0,0,1,.2.9.9.9,0,0,1-.3.7l-.7.4h-.8a1,1,0,0,1-.7-.2c-.2-.1-.2-.4-.1-.6s.4-.2.6,0h.7a.5.5,0,0,0,.4-.2c.1-.1.1-.1.1-.2v-.3l-.7-.4-.5-.4-.2-.3c0-.1-.1-.3,0-.4a.9.9,0,0,1,.6-.8l.4-.2h.1c0-.1.2.1.1,0h-.3l-1.1.2"/><path class="cls-6" d="M106.9,20.9a.6.6,0,0,1-.6.3.4.4,0,0,1-.2-.6,9.3,9.3,0,0,1,1.1-1.6l1.9-2.1,1.9-2.1.7-.6h.4l.3.2a.7.7,0,0,1,.2.6,21.8,21.8,0,0,1-.9,3.7,4.9,4.9,0,0,0-.3,1.5c0,.1,0,.2.1.2h0a.4.4,0,0,1,.4.4c.1.2-.1.4-.3.4a.8.8,0,0,1-.8-.3,1,1,0,0,1-.2-.7,6.7,6.7,0,0,1,.3-1.8,17.4,17.4,0,0,0,.9-3.4h.2l-.4.4-1.9,2a21.4,21.4,0,0,0-2.8,3.5"/><path class="cls-6" d="M109.2,18.3a.4.4,0,0,1,.5.2c.2.2.1.4-.1.5s-.5.1-.8.1l-.6-.3q-.2,0-.3-.3v-.4a1,1,0,0,1,.5-.4,5.9,5.9,0,0,1,2-.2l2.7.2c.2,0,.3.2.3.4a.4.4,0,0,1-.4.4,15.9,15.9,0,0,0-4.3-.1c0,.1,0,.1-.1.1h.1v-.2c0,.1-.1-.1-.1,0s0-.1,0-.1l.4.2h.2"/></g></svg>