<svg xmlns="http://www.w3.org/2000/svg" xmlns:xlink="http://www.w3.org/1999/xlink" viewBox="0 0 294.9 238.5"><defs><style>.cls-1{fill:none;}.cls-2{isolation:isolate;}.cls-3{opacity:0;}.cls-4{clip-path:url(#clip-path);}.cls-5,.cls-6,.cls-8{fill:#ed3624;}.cls-5,.cls-6,.cls-7{mix-blend-mode:darken;}.cls-5{opacity:0.42;}.cls-6,.cls-7{opacity:0.42;}.cls-7,.cls-9{fill:#1749b3;}.cls-10{fill:#00733b;}</style><clipPath id="clip-path"><rect class="cls-1" x="-100.6" y="-32.2" width="419.5" height="297.64"/></clipPath></defs><g class="cls-2"><g id="Ebene_1" data-name="Ebene 1"><g class="cls-3"><path d="M228.5,16.9V15.8h2.2V7.2l-2.2.6V6.7l3.7-.9v10h2.2v1.1Z"/><path d="M236.8,16.9V15.6a9.8,9.8,0,0,1,2.6-3.2l.8-.7a4.1,4.1,0,0,0,1.6-2.9,2,2,0,0,0-.5-1.4,2,2,0,0,0-1.5-.6,5.4,5.4,0,0,0-2.7.9V6.4a7.5,7.5,0,0,1,2.9-.6,3.2,3.2,0,0,1,2.4.8,2.8,2.8,0,0,1,.9,2.2,3.3,3.3,0,0,1-.4,1.7,7.5,7.5,0,0,1-1.8,1.8l-.5.5a5.3,5.3,0,0,0-2,2.8h4.7v1.3Z"/></g><g class="cls-3"><path d="M249.8,15.9,245.9,5.8h1.5l3.1,8.3,3-8.3h1.3l-3.7,10.1Z"/></g><g class="cls-3"><path d="M260.9,17.2V15.9a9.3,9.3,0,0,1,2.5-3.2l.8-.7a4.1,4.1,0,0,0,1.6-2.9,1.6,1.6,0,0,0-.5-1.4,2,2,0,0,0-1.5-.6,5.7,5.7,0,0,0-2.7.9V6.7A7.7,7.7,0,0,1,264,6a3.7,3.7,0,0,1,2.5.9,2.7,2.7,0,0,1,.9,2.2,3.4,3.4,0,0,1-.5,1.7,8.9,8.9,0,0,1-1.7,1.8l-.6.5a5.9,5.9,0,0,0-2,2.8h4.7v1.3Z"/><path d="M271.2,17.2V16.1h2.1V7.5l-2.1.6V7l3.6-1V16.1H277v1.1Z"/><path d="M281,17.2,278.2,6.3h1.5l2.2,8.6L284,6.3h1.4l2,8.5,2.4-8.5H291l-3,10.9h-1.5l-2-8.4-2,8.4Z"/></g><g class="cls-3"><path d="M134.6,63.8H136v5.9a3.8,3.8,0,0,0,.5,2.1,2.2,2.2,0,0,0,1.7.6,2,2,0,0,0,1.6-.6,3.5,3.5,0,0,0,.4-2v-6h1.2v5.9a4.1,4.1,0,0,1-.8,2.8,3.2,3.2,0,0,1-2.5.9,3.3,3.3,0,0,1-2.6-.9,3.8,3.8,0,0,1-.9-2.8Z"/><path d="M143.6,75.5l.2-1.1a5.4,5.4,0,0,0,2.1.5,1.9,1.9,0,0,0,2.2-2.2V71.6a2.6,2.6,0,0,1-4.3.5,3.6,3.6,0,0,1-.7-2.4,4.2,4.2,0,0,1,.8-2.6,2.7,2.7,0,0,1,2.2-1,2.6,2.6,0,0,1,2,1v-.8h1.2v5a14.9,14.9,0,0,1-.1,2.4,5.4,5.4,0,0,1-.7,1.3,3.2,3.2,0,0,1-2.5.9A10,10,0,0,1,143.6,75.5Zm4.5-4.7V67.9a2.4,2.4,0,0,0-1.8-.8,1.5,1.5,0,0,0-1.4.7,3.1,3.1,0,0,0-.5,1.9c0,1.5.5,2.2,1.6,2.2A3.1,3.1,0,0,0,148.1,70.8Z"/><path d="M155.2,72.3a2.9,2.9,0,0,1-2.1,1,2,2,0,0,1-1.5-.5,2.2,2.2,0,0,1-.5-1.4,2,2,0,0,1,.9-1.7,5.5,5.5,0,0,1,2.8-.6h.3v-.8c0-.8-.5-1.2-1.3-1.2a4.5,4.5,0,0,0-2.1.6V66.6a6.9,6.9,0,0,1,2.4-.5,2.9,2.9,0,0,1,1.7.5,2.6,2.6,0,0,1,.5,1.7v3.1c0,.7.2,1.1.7,1.1h.2v.7a1.5,1.5,0,0,1-.9.2A1.2,1.2,0,0,1,155.2,72.3Zm-.1-.7V69.8h-.5a3.8,3.8,0,0,0-1.6.4c-.5.3-.7.6-.7,1a1.2,1.2,0,0,0,1.1,1.1A2.5,2.5,0,0,0,155.1,71.6Z"/></g><g class="cls-3"><path d="M178.4,70v-.8h1.7V62.3l-1.7.4v-.9l2.9-.7v8.1H183V70Z"/></g><g class="cls-3"><path d="M183.4,72v-.9l4.3-5h-4.1v-1h5.6v1l-4.2,5h4.3V72Z"/><path d="M195.6,72V70.7a2.8,2.8,0,0,1-2.4,1.5,1.7,1.7,0,0,1-1.4-.6,1.9,1.9,0,0,1-.6-1.5v-5h1.3v4.6a2.7,2.7,0,0,0,.2,1.1,1,1,0,0,0,.8.3q1,0,2.1-1.5V65.1h1.3V72Z"/></g><g class="cls-3"><path d="M55.3,156.7V144.4h1.8v12.3Z"/><path d="M62.6,156.9a2.6,2.6,0,0,1-2-.7,3,3,0,0,1-.7-2v-5.3H58.8v-1.2h1.1V146h1.7v1.8h2.3v1.2H61.6v5q0,1.8,1.5,1.8h.8v1.1A3.4,3.4,0,0,1,62.6,156.9Z"/><path d="M70.5,155.6a4.4,4.4,0,0,1-2.9,1.3,2.4,2.4,0,0,1-1.8-.7,2.1,2.1,0,0,1-.8-1.7,2.5,2.5,0,0,1,1.3-2.3,6.7,6.7,0,0,1,3.5-.8h.4v-1.1a1.4,1.4,0,0,0-1.6-1.6,6.7,6.7,0,0,0-2.8.8v-1.3a7.6,7.6,0,0,1,3.1-.7,3.2,3.2,0,0,1,2.3.7,2.9,2.9,0,0,1,.7,2.1v4.1c0,.9.3,1.4.8,1.4h.4v.9a2.7,2.7,0,0,1-1.3.2C71.2,156.9,70.7,156.5,70.5,155.6Zm-.3-.9v-2.3h-.5a4.8,4.8,0,0,0-2.2.5,1.5,1.5,0,0,0-.8,1.4,1.4,1.4,0,0,0,1.4,1.4A3.2,3.2,0,0,0,70.2,154.7Z"/><path d="M77.5,156.9a2.4,2.4,0,0,1-1.9-.7,2.6,2.6,0,0,1-.7-2v-5.3H73.7v-1.2h1.2V146h1.6v1.8h2.4v1.2H76.5v5q0,1.8,1.5,1.8h.8v1.1A3.2,3.2,0,0,1,77.5,156.9Z"/></g><g class="cls-3"><path d="M161.3,155.8V144.2h3a5.1,5.1,0,0,1,2.7.7,2.2,2.2,0,0,1,.9,1.9q0,2.1-2.4,3c1.9.6,2.9,1.6,2.9,3.1a2.7,2.7,0,0,1-1,2.2,4.1,4.1,0,0,1-2.7.7Zm1.6-6.5h.5a4.1,4.1,0,0,0,2.1-.5,1.9,1.9,0,0,0,.7-1.6c0-1.2-.9-1.7-2.6-1.7h-.7Zm0,5.3h.4a9.9,9.9,0,0,0,2.3-.2,1.5,1.5,0,0,0,1-1.6,2,2,0,0,0-.9-1.7,3.5,3.5,0,0,0-2.3-.7h-.5Z"/><path d="M175.6,155.8v-1.6a3.5,3.5,0,0,1-3,1.8,2.4,2.4,0,0,1-1.8-.7,2.7,2.7,0,0,1-.6-1.9v-6.1h1.5v5.6a2.4,2.4,0,0,0,.3,1.4,1,1,0,0,0,.9.4c1,0,1.8-.6,2.7-1.9v-5.5h1.5v8.5Zm-4.2-10v-1.4h1.4v1.4Zm3.1,0v-1.4h1.4v1.4Z"/></g><g class="cls-3"><path d="M143.6,203.1a6.8,6.8,0,0,1-2.1-.4v-1.1a5.6,5.6,0,0,0,2.2.6l.9-.3a.9.9,0,0,0,.3-.7c0-.5-.3-.8-1-1.1l-.7-.3c-1.1-.5-1.6-1.1-1.6-1.9a2,2,0,0,1,.6-1.5,3,3,0,0,1,1.8-.5l1.4.2h.3v1.1l-1.7-.3c-.8,0-1.2.2-1.2.8s.3.7.9,1l.6.2a3.6,3.6,0,0,1,1.5,1,2,2,0,0,1-.3,2.7A3.6,3.6,0,0,1,143.6,203.1Z"/><path d="M151.1,203.1a3.2,3.2,0,0,1-2.4-.9,4,4,0,0,1-.9-2.7,3.6,3.6,0,0,1,.9-2.6,3.4,3.4,0,0,1,4.8,0,3.6,3.6,0,0,1,.9,2.6,4,4,0,0,1-.9,2.7A3.2,3.2,0,0,1,151.1,203.1Zm0-.9c1.3,0,2-.9,2-2.7s-.7-2.6-2-2.6-1.9.8-1.9,2.6S149.8,202.2,151.1,202.2Z"/></g><g class="cls-3"><path d="M170.2,198.2v-1h1.9v-7.4l-1.9.5v-1l3.1-.8v8.7h1.9v1Z"/><path d="M177.5,198.2v-1.1a7.5,7.5,0,0,1,2.2-2.8l.7-.7a3.4,3.4,0,0,0,1.4-2.4,1.7,1.7,0,0,0-.5-1.3,1.7,1.7,0,0,0-1.3-.4,4.9,4.9,0,0,0-2.3.7v-1.1a5.7,5.7,0,0,1,2.5-.6,3.3,3.3,0,0,1,2.1.7,2.2,2.2,0,0,1,.8,1.9,2.4,2.4,0,0,1-.4,1.5,4.3,4.3,0,0,1-1.5,1.6l-.5.4a4.5,4.5,0,0,0-1.7,2.5h4.1v1.1Z"/></g><g class="cls-4"><path class="cls-5" d="M41.4,39.3a1.4,1.4,0,0,1-1.7-1,1.3,1.3,0,0,1,1-1.6,6.6,6.6,0,0,1,2.8-.1H54.6l3.7-.2,2.2-.2h2.4a1.7,1.7,0,0,1,.9.7,2,2,0,0,1,.1,1.5l-.5.6a1.4,1.4,0,0,1-2-.1,1.4,1.4,0,0,1,.1-1.9h-.1c.1,0-.1.7-.1.5s.3.9.2.7l.4.4h.2c-.1,0,.1.1.1.1H58.4l-3.6.2a17.8,17.8,0,0,1-4,0H41.4"/><path class="cls-6" d="M69.5,38.9a1.3,1.3,0,0,1-1.3-1.4,1.3,1.3,0,0,1,1.3-1.3H227.9a1.3,1.3,0,0,1,1.4,1.3,1.4,1.4,0,0,1-1.4,1.4Z"/><path class="cls-6" d="M257.8,38.9a1.4,1.4,0,0,1-1.4-1.4,1.4,1.4,0,0,1,1.4-1.4h30.1a1.4,1.4,0,0,1,1.4,1.4,1.5,1.5,0,0,1-1.4,1.4Z"/><path class="cls-7" d="M40.7,165.6a1.4,1.4,0,0,1-1.4-1.4,1.4,1.4,0,0,1,1.4-1.4H59.6a1.3,1.3,0,0,1,1.3,1.4,1.4,1.4,0,0,1-1.3,1.4Z"/><path class="cls-7" d="M69.5,165.5a1.3,1.3,0,0,1-1.3-1.3,1.3,1.3,0,0,1,1.3-1.4h79.2a1.4,1.4,0,0,1,1.4,1.4,1.3,1.3,0,0,1-1.4,1.3Z"/><path class="cls-7" d="M196.3,165.7a1.4,1.4,0,0,1-1.4-1.4,1.4,1.4,0,0,1,1.4-1.4h31.6a1.4,1.4,0,0,1,1.4,1.4,1.4,1.4,0,0,1-1.4,1.4Z"/><path class="cls-7" d="M257.8,165.3a1.4,1.4,0,0,1,0-2.8h30.1a1.4,1.4,0,0,1,0,2.8Z"/></g><g class="cls-4"><path d="M257.4,37.5a14.6,14.6,0,0,0-1.9-7.2,14.3,14.3,0,0,0-26.6,7.2,14.6,14.6,0,0,0,1.9,7.2,14.4,14.4,0,0,0,12.4,7,14.2,14.2,0,0,0,7.1-1.9,14.4,14.4,0,0,0,7.1-12.3m.8,0a15,15,0,0,1-7.5,13,14.8,14.8,0,0,1-7.5,2,15.3,15.3,0,0,1-13.1-7.4,15.2,15.2,0,0,1,13.1-22.7,15.2,15.2,0,0,1,13,7.5,14.9,14.9,0,0,1,2,7.6"/><path d="M232.4,47.5a.5.5,0,0,1-.5,0c-.2-.2-.2-.5,0-.6l22.3-19a.4.4,0,0,1,.6,0,.5.5,0,0,1-.1.6Z"/><path d="M231.2,29a.4.4,0,0,1,0-.6.3.3,0,0,1,.5-.1l23,18.2a.4.4,0,0,1-.5.7Z"/><path d="M40.7,37.9a.4.4,0,0,1,0-.8H227.9a.4.4,0,1,1,0,.8Z"/><path d="M228.6,11.4a.4.4,0,0,1,.4.4.4.4,0,0,1-.4.4H228a.9.9,0,0,1-.3-.5,1.2,1.2,0,0,1,.4-1.1,9.4,9.4,0,0,1,1.4-1.6l2.6-2.8c.8-.9,1.7-1.5,2.2-2l.4-.3.4-.2c.2,0,.3.1.4.3v.6a3.6,3.6,0,0,1-.4.9,8,8,0,0,1-.8,1.6,5.9,5.9,0,0,0-.9,2.2v.2h.4a.5.5,0,0,1,.5.4.4.4,0,0,1-.4.4c-.4.1-.8.1-1-.2a.8.8,0,0,1-.3-.9,8.1,8.1,0,0,1,1-2.5,10.9,10.9,0,0,0,.8-1.5l.3-.8h0s.1.1,0,.1h.3q0,.1-.3.3l-2.2,1.9-2.5,2.8-1.4,1.4c-.1.2-.2.3-.2.4h.1"/><path d="M238.7,5.4a.4.4,0,0,1-.4.4.5.5,0,0,1-.4-.5,1,1,0,0,1,.4-.7l.6-.4,1.4-.2.7.2c.2.1.3.4.4.6a1.7,1.7,0,0,1-.1,1.2,6.6,6.6,0,0,1-1.8,2.3l-1.8,2-.3.4h-.1s-.1-.2,0-.1h-.1l1.6-.2,1.3-.2a1.7,1.7,0,0,1,1.1.6c.2.1.1.4,0,.6s-.5.1-.6-.1-.3-.2-.6-.2a2.2,2.2,0,0,0-1.1.1c-.6.1-1.4.4-2,.1l-.3-.2c-.1-.1-.1-.2-.1-.4l.2-.4.4-.6,1.8-1.9a8.3,8.3,0,0,0,1.6-2.1.9.9,0,0,0,.1-.7h-.3a2,2,0,0,0-1.1.1l-.4.2a.3.3,0,0,0-.1.2"/><path d="M248.9,4.4a.5.5,0,0,1-.5.4c-.2-.1-.4-.3-.3-.5V4.1h0s.1.1,0,.1.2.1.1.1h.6c-.1,0,0-.1,0-.1v.3a10.6,10.6,0,0,0-.5,1.8,21.1,21.1,0,0,0-.4,3.3,2.8,2.8,0,0,0,.1.8h.1a2.8,2.8,0,0,0,.8-.8l1.2-1.7a10.1,10.1,0,0,1,3.3-3.2c.2-.2.4-.1.6.1a.5.5,0,0,1-.2.6,9.5,9.5,0,0,0-3,3l-1.2,1.7c-.4.5-.8,1-1.3,1.1h-.6c-.2,0-.3-.2-.5-.4s-.1-.7-.1-1.2a15,15,0,0,1,.4-3.5,16.7,16.7,0,0,1,.5-1.9.4.4,0,0,1,.1-.3.3.3,0,0,1,.1-.2c.1-.1.2-.2.4-.1s.3.3.3.3v.4"/><path d="M262.3,0a.5.5,0,0,1,.6.2.5.5,0,0,1-.2.6h.1l-.5.8c-.3.8-.9,1.7-1.5,2.9s-2.1,3.7-3,5.5l-1.2,2.3-.6,1.4c0,.2-.2.4-.4.3a.4.4,0,0,1-.4-.4,8.4,8.4,0,0,1,1-2.3c1.6-3.3,4.2-7.7,5.4-10l.3-.7.4-.5"/><path d="M279,5.2c-.2.2-.4.1-.5-.1s-.1-.4,0-.5l.4-.2a1.1,1.1,0,0,1,.6.3,1.1,1.1,0,0,1-.1.8,16.5,16.5,0,0,1-.7,2,16.5,16.5,0,0,0-.9,2.1,2,2,0,0,0-.1.7h-.1c.1,0-.1-.2-.1-.1s-.1,0-.1-.1h.3l.8-.6.5-.4a.7.7,0,0,1,1.1.5A3.4,3.4,0,0,1,280,11v.8h.1l1-1.1a53.7,53.7,0,0,1,6.7-6.9.4.4,0,0,1,.6,0,.6.6,0,0,1,0,.6,53.3,53.3,0,0,0-6.7,6.8c-.4.5-.7,1.2-1.4,1.4a1,1,0,0,1-.7-.2.7.7,0,0,1-.4-.7,2.7,2.7,0,0,1,0-.9c.1-.5.2-1,.1-1.1h0s.2.1.1.1h0l-.4.3-.8.6-.4.3h-.6c-.2,0-.3-.2-.3-.4a.4.4,0,0,1-.1-.3,2.9,2.9,0,0,1,.2-.9,20.4,20.4,0,0,1,.9-2.2c.3-.8.6-1.5.7-1.9V5h.3"/><path d="M257.4,164.2a14.6,14.6,0,0,0-1.9-7.2,14.3,14.3,0,0,0-26.6,7.2,14.2,14.2,0,0,0,14.3,14.3,14.4,14.4,0,0,0,14.2-14.3m.8,0a15.2,15.2,0,0,1-15,15.1,15.2,15.2,0,0,1-13.1-7.5,14.9,14.9,0,0,1-2-7.6,15,15,0,0,1,7.5-13,14.9,14.9,0,0,1,7.6-2,15.3,15.3,0,0,1,13,7.4,15.1,15.1,0,0,1,2,7.6"/><path d="M232.4,174.2c-.1.2-.4.1-.5,0s-.2-.5,0-.6l22.3-19c.2-.2.4-.1.6,0s.1.5-.1.6Z"/><path d="M231.2,155.7a.4.4,0,0,1,0-.6.3.3,0,0,1,.5-.1l23,18.2a.4.4,0,1,1-.5.7Z"/><path d="M148.3,156.8a.4.4,0,0,1,.4-.4c.3,0,.4.1.4.4v15.8a.4.4,0,0,1-.4.4.4.4,0,0,1-.4-.4Z"/><path d="M148.7,173a.4.4,0,1,1,0-.8h47.6a.4.4,0,0,1,0,.8Z"/><path d="M148.7,157.2a.4.4,0,0,1-.4-.4.4.4,0,0,1,.4-.4h47.6a.4.4,0,0,1,.4.4.4.4,0,0,1-.4.4Z"/><path d="M195.8,156.8c0-.3.2-.4.5-.4a.4.4,0,0,1,.4.4v15.8a.4.4,0,0,1-.4.4.5.5,0,0,1-.5-.4Z"/><path d="M196.3,164.7a.4.4,0,1,1,0-.8h31.6a.4.4,0,1,1,0,.8Z"/><path d="M164.1,141.7a.4.4,0,0,1,.5-.3.5.5,0,0,1,.3.5s-.2,1.2-.3,2.4-.1,1.7-.1,2.5v1.7c-.1.2,0,.4-.1.7l-.8-.3c.1,0,0,.1,0,.1h0v-.2a1.4,1.4,0,0,1-.2-.7,10.2,10.2,0,0,1,.4-5.1,3.2,3.2,0,0,1,1.2-1.7,2.4,2.4,0,0,1,1.2-.3,2.1,2.1,0,0,1,1.2.7,1,1,0,0,1,.1.9,1.1,1.1,0,0,1-.3.8,5.8,5.8,0,0,1-.8,1.4,1,1,0,0,0-.2.6l.7.8c1,.9,1.2,2.1,1.7,3.3a.5.5,0,0,1-.3.5.4.4,0,0,1-.5-.2c-.5-1.3-.7-2.3-1.5-3a2.5,2.5,0,0,1-.9-1.3c-.1-.4.1-.7.3-1.1l.8-1.3.2-.6c.1-.2,0-.3,0-.3s-.4-.3-.6-.4a.8.8,0,0,0-.7.2,2.3,2.3,0,0,0-.8,1.2,8.8,8.8,0,0,0-.4,4.7.8.8,0,0,0,.2.5.4.4,0,0,0,.1.3s.1.1,0,.4a.4.4,0,0,1-.5.2.5.5,0,0,1-.3-.5h0a1.8,1.8,0,0,1,.1-.5v-1.7c0-.7.1-1.6.1-2.5s.1-1.2.2-1.7a1.7,1.7,0,0,1,.1-.8"/><path d="M172.1,147.1a.3.3,0,0,1,.5.3c.1.2-.1.4-.3.5h0v.3a2.4,2.4,0,0,0-.2.9,3.4,3.4,0,0,0-.1.9v.3h0l.3-.2.8-.5.5-.4h.5c.2.1.4.2.4.4s.3,1,.4,1.1h.1a2.1,2.1,0,0,0,.8-.6h.6a.4.4,0,0,1,0,.6,2.5,2.5,0,0,1-1.2.8h-.6l-.4-.3a7.9,7.9,0,0,1-.4-1.2h.2l-.5.3-.7.6a1.2,1.2,0,0,1-1,.3,1,1,0,0,1-.6-.5c0-.2-.1-.4-.1-.6a3,3,0,0,1,.2-1,3.6,3.6,0,0,1,.2-1.1l.3-.5c.1-.1.2-.3.4-.3"/><path d="M172.9,145.8a.4.4,0,0,1,.3-.7c.1,0-.1-.1-.1-.1h.1c.2-.1.4-.1.5.1s.1.5-.1.6h-.7m.5-2.7c0-.2.3-.3.5-.3a.5.5,0,0,1,.3.5,7.6,7.6,0,0,0-.4,1.1c-.1.3-.2.4-.2.6s-.1.2-.1.3h-.1c.1.2,0,.5-.2.5s-.5,0-.5-.2.1-.7.1-.8.2-.4.2-.6.3-.7.4-1.1"/><path d="M174.5,143.4c-.1-.2.1-.4.3-.4s.5.1.5.4a7.8,7.8,0,0,1-.2,1.4v.9a.4.4,0,0,1-.3.6.5.5,0,0,1-.5-.3c-.2-.4,0-.9,0-1.3a8.3,8.3,0,0,0,.2-1.3"/><path d="M40.3,37.6a2.6,2.6,0,0,0-.4-1.5,2.9,2.9,0,0,0-2.5-1.4,2.3,2.3,0,0,0-1.4.4,2.7,2.7,0,0,0-1.4,2.5A2.3,2.3,0,0,0,35,39a2.8,2.8,0,0,0,2.4,1.5,3.3,3.3,0,0,0,1.5-.4,2.9,2.9,0,0,0,1.4-2.5m.8,0a3.6,3.6,0,0,1-3.7,3.7,3.6,3.6,0,0,1-3.1-1.9,2.7,2.7,0,0,1-.5-1.8,3.6,3.6,0,0,1,1.8-3.2,3.7,3.7,0,0,1,1.8-.5,3.6,3.6,0,0,1,3.2,1.8,3.2,3.2,0,0,1,.5,1.9"/><path d="M40.3,164.7a2.8,2.8,0,0,0-.4-1.5,2.9,2.9,0,0,0-2.5-1.4,3.3,3.3,0,0,0-1.4.4,2.7,2.7,0,0,0-1.4,2.5,2.3,2.3,0,0,0,.4,1.4,2.8,2.8,0,0,0,2.4,1.5,3.3,3.3,0,0,0,1.5-.4,2.9,2.9,0,0,0,1.4-2.5m.8,0a3.7,3.7,0,0,1-1.8,3.2,3.8,3.8,0,0,1-1.9.5,3.7,3.7,0,0,1-3.1-1.8,3.2,3.2,0,0,1-.5-1.9,3.6,3.6,0,0,1,1.8-3.2,3.7,3.7,0,0,1,1.8-.5,3.6,3.6,0,0,1,3.2,1.8,3.2,3.2,0,0,1,.5,1.9"/><path d="M294,37.5a4,4,0,0,0-.3-1.5,3.1,3.1,0,0,0-2.5-1.4,3.3,3.3,0,0,0-1.5.4,2.9,2.9,0,0,0-1.4,2.5,2.3,2.3,0,0,0,.4,1.4,2.8,2.8,0,0,0,2.5,1.5,3.3,3.3,0,0,0,1.4-.4,2.7,2.7,0,0,0,1.4-2.5m.9,0a3.8,3.8,0,0,1-1.9,3.2,3.7,3.7,0,0,1-1.8.5,3.6,3.6,0,0,1-3.2-1.8,4.1,4.1,0,0,1-.5-1.9,3.6,3.6,0,0,1,1.8-3.2,4.1,4.1,0,0,1,1.9-.5,3.8,3.8,0,0,1,3.2,1.8,4.1,4.1,0,0,1,.5,1.9"/><path d="M294,164.3a4,4,0,0,0-.3-1.5,3.1,3.1,0,0,0-2.5-1.4,3.3,3.3,0,0,0-1.5.4,2.9,2.9,0,0,0-1.4,2.5,2.3,2.3,0,0,0,.4,1.4,2.8,2.8,0,0,0,2.5,1.5,3.3,3.3,0,0,0,1.4-.4,2.7,2.7,0,0,0,1.4-2.5m.9,0a3.8,3.8,0,0,1-1.9,3.2,3.7,3.7,0,0,1-1.8.5,3.6,3.6,0,0,1-3.2-1.8,4.1,4.1,0,0,1-.5-1.9,3.6,3.6,0,0,1,1.8-3.2,4.1,4.1,0,0,1,1.9-.5,3.8,3.8,0,0,1,3.2,1.8,4.1,4.1,0,0,1,.5,1.9"/><path d="M40.7,164.6a.4.4,0,1,1,0-.8h108a.4.4,0,1,1,0,.8Z"/><path d="M257.8,164.3a.4.4,0,0,1,0-.8h30.1a.4.4,0,1,1,0,.8Z"/><path d="M257.8,37.9a.4.4,0,1,1,0-.8h30.1a.4.4,0,0,1,0,.8Z"/><path d="M264.2,5.1c-.1.2-.3.4-.5.3s-.4-.3-.3-.5a1,1,0,0,1,.4-.5h.6l1.1.2a4.5,4.5,0,0,1,1.2.6h.2l.3.4V6l-.2.3-.7.5a6.4,6.4,0,0,1-1.6,1.1,7.6,7.6,0,0,0-1.8,1.3l-.2.2h0l.5.2a3.9,3.9,0,0,0,2,.6.5.5,0,0,1,.5.4.4.4,0,0,1-.4.4,5.1,5.1,0,0,1-2.5-.6c-.2-.1-.7-.2-.9-.7a.6.6,0,0,1,0-.6,1.3,1.3,0,0,1,.4-.6,11.5,11.5,0,0,1,2-1.4l1.6-1,.4-.5a.1.1,0,0,0,.1-.1h0v.2h0c0-.1-.1-.1-.2-.2l-1-.4-.9-.2h-.2"/><path d="M268.6,9c-.1.2-.4.2-.6,0s-.2-.4,0-.5a10.3,10.3,0,0,1,1.5-1.4l1.7-1.4.9-.5h.7l.5.5a2.9,2.9,0,0,1-.5,2L272,9.4l-.2.5h0c.1.2.1.5-.1.6a.3.3,0,0,1-.5,0,.8.8,0,0,1-.2-.8,3.1,3.1,0,0,1,.2-.8l.9-1.7.4-1.4h-.1l-.7.5L270,7.8A5.8,5.8,0,0,0,268.6,9"/><path d="M37.2,40.9a.5.5,0,0,1,.5-.5.5.5,0,0,1,.4.5V77.6a.4.4,0,0,1-.4.4.5.5,0,0,1-.5-.4Z"/><path d="M291,40.8a.4.4,0,1,1,.8,0V76.7a.4.4,0,1,1-.8,0Z"/><path d="M37.4,168c0-.3.1-.4.4-.4a.4.4,0,0,1,.4.4v35.7a.4.4,0,0,1-.4.4.4.4,0,0,1-.4-.4Z"/><path d="M290.8,167.6a.4.4,0,0,1,.4-.4.4.4,0,0,1,.4.4v35.9a.4.4,0,0,1-.4.4.4.4,0,0,1-.4-.4Z"/><path d="M41.3,74.6a.8.8,0,0,1-.8-.8.8.8,0,0,1,.8-.9h245a.9.9,0,0,1,.8.9.9.9,0,0,1-.8.8Z"/><path d="M280.1,70.9a.8.8,0,0,1-.6-1,.9.9,0,0,1,1-.6l1.3.6a36.2,36.2,0,0,1,5.6,2.5,4,4,0,0,1,1.5,1,1.3,1.3,0,0,1,.4,1,1.6,1.6,0,0,1-.3.6c-.1.2-.3.2-.4.3a1.1,1.1,0,0,1-.7.3l-1.7.6a10.4,10.4,0,0,0-2.9,1.9.8.8,0,0,1-1.2-.1.8.8,0,0,1,.1-1.1,12.5,12.5,0,0,1,3.4-2.2l1.7-.6.5-.2h-.1s-.1.4-.1.3v.2h-.1l-1.1-.8c-1.4-.9-3.9-1.6-5.4-2.3l-1-.5"/><path d="M43.8,201.6a.9.9,0,0,1-.9-.9.9.9,0,0,1,.9-.8H286a.9.9,0,0,1,.8.8.9.9,0,0,1-.8.9Z"/><path d="M284.1,197.5a.8.8,0,0,1,.9.8.9.9,0,0,1-.9.8h.3v-.2l.2-.3c-.1.1-.1-.4,0-.3s-.2-.3-.1-.3h0l2.1.4a3.3,3.3,0,0,1,1.4.6,1.7,1.7,0,0,1,.7,1.7,2,2,0,0,1-1,1.2l-1.6.7-4.5,1.5a.9.9,0,0,1-1.1-.6.9.9,0,0,1,.5-1l4.6-1.4,1.2-.6.3-.2h0l-.9-.3-2.2-.4a1.5,1.5,0,0,1-.8-.4.9.9,0,0,1-.2-.8.6.6,0,0,1,.5-.6h.5"/><path class="cls-8" d="M64.6,39.9a.8.8,0,1,1-1.6,0V39a19.5,19.5,0,0,1,.2-2.3V35.2l.2-.5c.1-.2.4-.3.6-.4a1.6,1.6,0,0,1,1,.1l.7.5A8.6,8.6,0,0,1,67,36.3l.8.9c.5.7.5.7,1.6.9a.8.8,0,1,1-.4,1.6,4.1,4.1,0,0,1-2.5-1.4,8.6,8.6,0,0,0-.7-1,5.6,5.6,0,0,0-1.1-1.1l-.4-.3h.1l.4-.3c-.1.1.1-.1,0-.1h.1a1,1,0,0,1-.1.4v1.1c-.1.7-.1,1.5-.2,2.1s.1.7,0,.9m0-5.1a1,1,0,0,1-.9.7.8.8,0,0,1-.7-1v-.2c0-.1-.2-.1.3-.5s.6-.3.9-.1.4.4.4.4v1.5a21.7,21.7,0,0,1-.1,2.6v1.7h0a.8.8,0,0,1-.8.8.9.9,0,0,1-.8-.8h0V38.1c0-.8.1-1.7.1-2.5v-1h0v.2h.1s.3.2.2.2.7,0,.5,0l.4-.2c-.1.1.1-.2.1-.1v-.2h0v.2"/><path class="cls-8" d="M64.8,40.6a.9.9,0,0,1-1,.6,1,1,0,0,1-.6-1.1,2.7,2.7,0,0,1,1-1.1l1.5-.7a18.7,18.7,0,0,1,3.2-.8.9.9,0,0,1,.9.8c.1.4-.3.8-.7.9a12.1,12.1,0,0,0-2.9.7l-1.1.5-.3.2h0"/><path class="cls-8" d="M64.9,36.7a.9.9,0,0,1-.6,1,.9.9,0,0,1-1-.7h0s.1.2.1.1v.2h1.1l.2-.3c0,.1.1-.1.1-.1h0a5.6,5.6,0,0,1,.1.7l.2.3.2.3h-.1c0,.1-.5,0-.3,0h-.4c.1-.1-.2.2-.2.1h-.1V37h0s.1.2,0,.1l.2.2h1.1c-.1.1.2-.4.2-.3s0-.1,0-.1a2.1,2.1,0,0,0,.1.6h-.1l-.3.3c0-.1-.2.4-.2.3s.1.4.1.3,0,.2,0,.2h0l-.4-.3-.8-.6a.9.9,0,0,1,0-1.2.8.8,0,0,1,1.1,0l.7.5.5.4.2.3.2.2c0,.2.2.5-.1.9a.9.9,0,0,1-.7.4h-.6a1.8,1.8,0,0,1-.8-.5,1,1,0,0,1-.4-.8,2.8,2.8,0,0,1-.1-1.3.6.6,0,0,1,.2-.5l.6-.2a.8.8,0,0,1,.6.2.8.8,0,0,1,.3.6,3.2,3.2,0,0,1,0,1,1.4,1.4,0,0,1,0,.9.9.9,0,0,1-.1.5c0,.1-.2.3-.4.5a1.4,1.4,0,0,1-.9,0l-.4-.3-.3-.6a1.9,1.9,0,0,1-.4-.8,2.8,2.8,0,0,1-.1-.9.7.7,0,0,1,0-.5c0-.1.1-.2.3-.4a.8.8,0,0,1,.8-.1c.6.2.4.4.5.5v.2"/><path class="cls-9" d="M61.4,161.1a.8.8,0,0,1,.8-.8.9.9,0,0,1,.8.8,6,6,0,0,1-.2,1.2c-.1,1-.2,2.1-.2,2.8s0,.3.1.4h-.1l-.2-.2h-.3a.8.8,0,1,1,1.1,1.2l-.8.4a1.2,1.2,0,0,1-1-.3,1.9,1.9,0,0,1-.4-1.4,16.2,16.2,0,0,1,.2-3.1l.2-1"/><path class="cls-9" d="M63.3,160.3c.5.1.8.5.6.9s-.5.8-.9.6h.2l.3-.2v-.4c-.1.1-.1-.1-.1-.1a4.1,4.1,0,0,0,1.5,2,2,2,0,0,0,2.1.3.8.8,0,0,1,1.1.3.8.8,0,0,1-.4,1.1,3.5,3.5,0,0,1-3.7-.3,5.2,5.2,0,0,1-2.1-3c-.1-.1-.1-.2-.1-.4a.9.9,0,0,1,.3-.6l.6-.3h.4"/><path class="cls-9" d="M62.7,166.2a.7.7,0,0,1,.5,1,.8.8,0,0,1-1.5,0,.6.6,0,0,1,0-.7c.1-.3.2-.4.4-.4l.7-.4a15.7,15.7,0,0,1,4.4-1,.8.8,0,0,1,.9.7.7.7,0,0,1-.7.9,14,14,0,0,0-3.9.9l-.5.2h0s.2-.3.1-.2.1-.3.1-.2-.1-.6-.1-.4l-.2-.3h-.2"/><path class="cls-9" d="M63.9,161.4a1,1,0,0,1-.5,1.1.8.8,0,0,1-1.1-.5h.1l.3.2c-.1-.1.4,0,.3,0h.2l.2-.2h.1s.1-.2.1-.1h0a1.9,1.9,0,0,0,.5.8,5,5,0,0,0,3.3,2,1,1,0,0,1,.6,1,.9.9,0,0,1-1.1.6,7.4,7.4,0,0,1-4.2-2.6A3.5,3.5,0,0,1,62,162a.4.4,0,0,1,0-.5.9.9,0,0,1,.4-.7.6.6,0,0,1,.7-.1l.4.2.4.5"/><path class="cls-9" d="M63.6,162.9a.8.8,0,0,1,.6,1,.8.8,0,0,1-1,.6h.4v.3a1.1,1.1,0,0,1,0,.6.4.4,0,0,1,.1.3h-.2l-.3-.2c.2.1-.5.1-.4.1h-.3c.1,0-.1.1-.1.1s0,.1,0,0h0a1.7,1.7,0,0,0,.2-.5.9.9,0,0,0,.1-.5v-.4l1.6-.3c.1.6-.1.6-.1.7v.2a.8.8,0,0,0-.1.4c.1,0-.1-.2-.1-.2h-.2a.8.8,0,0,1,1.1.4,1,1,0,0,1-.5,1.1,1.6,1.6,0,0,1-1,.1,1.4,1.4,0,0,1-.8-.7,1.9,1.9,0,0,1,0-1.3,1.4,1.4,0,0,1,.2-.6h0v.2a.8.8,0,0,1,.7-1,.8.8,0,0,1,.9.7,2.2,2.2,0,0,1,0,.8,2.5,2.5,0,0,1-.1.8l-.3.8v.5h-.3a.9.9,0,0,1-.9,0c-.4-.3-.3-.5-.4-.7s-.1-.4-.1-.6v-.6a2.2,2.2,0,0,1,.1-1.1,1.4,1.4,0,0,1,.7-.6h.8"/><path class="cls-9" d="M64.2,161.5a.8.8,0,0,1-.3,1.1.7.7,0,0,1-1.1-.3h.9l.3-.2h.1c.1,0,0-.2,0-.1s.1,0,.2.2l1.4.5c1.1.3,1.7,1.2,2,1.3a.7.7,0,0,1,.4,1,.8.8,0,0,1-1.1.5c-.9-.4-1.4-1.1-1.9-1.3a3.8,3.8,0,0,1-1.8-.8,1.4,1.4,0,0,1-.7-.8,1.8,1.8,0,0,1-.1-1l.2-.4a.8.8,0,0,1,.7-.3.6.6,0,0,1,.6.3l.2.2"/><path class="cls-9" d="M62.4,161.7a.8.8,0,0,1,.8-.9.9.9,0,0,1,.9.8v-.3h0c0,.1-.1-.1-.1-.1h0l.2.2a7.9,7.9,0,0,0,1.8,1.4.8.8,0,1,1-.7,1.5,11.2,11.2,0,0,1-2.2-1.7l-.2-.2a.1.1,0,0,1-.1-.1h-.1c-.1-.1-.1-.2-.2-.4m3.3,1.6a.8.8,0,0,1-.6,1,.7.7,0,0,1-1-.5c0-.1.1.1.1.1l-.9-.8-.4-.5-.6-.4a2,2,0,0,1-.4-.8c0-.2.1-.3.2-.5a.7.7,0,0,1,.5-.4.8.8,0,0,1,.9.1l.5.4.9.7.6.6c.3.2.5.4.5.5l-.2-.2h-.7c.2-.1-.3.5-.3.3s0,.5-.1.4v.2c0-.1.1.1,0,.1a12,12,0,0,0-1.4-1.2h.2l.3-.3a.9.9,0,0,1-1.2.2.9.9,0,0,1-.1-1.2l.6-.3h.6c.2,0,.3.1.5.3a4.4,4.4,0,0,1,1.9,1.7.5.5,0,0,1,.2.4.6.6,0,0,1-.1.4l-.3.4a.8.8,0,0,1-.8,0l-.4-.2-.3-.4-.7-.5-.8-.8-.3-.2h.7c-.1,0,.1-.3.1-.2s.1-.4.1-.3v-.2c.1,0-.1-.2-.1-.2l.5.4c.2.2.4.3.5.5l.7.6c.2.2.5.3.6.8"/><path class="cls-9" d="M61,165a.7.7,0,0,1,.7-.9.8.8,0,0,1,.9.6h0a2,2,0,0,1,0,.8,4.5,4.5,0,0,0-.1,1.1h-.1c.1,0-.1-.2,0-.1l-.4-.2h-.2a.7.7,0,0,1,1,.4.8.8,0,0,1-.4,1.1h-.6a1,1,0,0,1-.7-.4,1.1,1.1,0,0,1-.3-.9,4.4,4.4,0,0,1,.2-1.3V165h0m2.2-1.3a.7.7,0,0,1-.7.9.7.7,0,0,1-.9-.7h0l-.2-.3c-.1-.2-.1-.4-.2-.5s.1.2.1.1h1.1l.2-.2h-.1a2.5,2.5,0,0,1-.1.8l-.4,1.6a5.6,5.6,0,0,1-.1.7h0s-.1-.4-.1-.2-.3-.4-.2-.3-.6-.2-.4-.2-.5.2-.4.1-.2.2-.2.2h0l.2-.6c.1-.2.1-.4.2-.5v-.4a.8.8,0,0,1,1.2-.2.9.9,0,0,1,.2,1.1c-.1.1.1-.1,0-.1h.1a.1.1,0,0,0-.1.1l-.2.5a1.9,1.9,0,0,1-.5,1.2,1.1,1.1,0,0,1-.7.3,1,1,0,0,1-.7-.5.9.9,0,0,1-.1-.7c0-.3.1-.6.1-.9a9.4,9.4,0,0,0,.4-1.6c.1-.1.1-.4.1-.6v-.4c.1-.2.1-.5.6-.7a.9.9,0,0,1,.7.1q.3.1.3.3l.2.3v.3a1.5,1.5,0,0,1,.3.8"/><path class="cls-9" d="M65.9,166.2a.9.9,0,0,1-1-.6.8.8,0,0,1,.6-1h.2a.8.8,0,0,1,1.1.3.8.8,0,0,1-.4,1.1l-.3.2h-.2m1-2.1a.8.8,0,0,1,1.1.4.8.8,0,0,1-.5,1.1h0l-.9.5-.2.2h0s.1-.1,0-.1.1-.2.1-.1-.1-.5,0-.3l-.3-.4-.4-.2h.1l.6-.5h-.1c.1-.1,0,.2,0,.2v.3c0-.2.3.3.2.3H67l-.7.2h-.1a.8.8,0,0,1-1.1-.1.8.8,0,0,1,.1-1.2h.4a3.3,3.3,0,0,1,1.5-.4.9.9,0,0,1,.6.3,1.1,1.1,0,0,1,.3.8,1.6,1.6,0,0,1-.5.8l-.7.5a1.4,1.4,0,0,1-1.2.3.9.9,0,0,1-.7-.6c-.1-.3,0-.4,0-.6l.3-.4.6-.5,1.1-.6h0m-4.1,2.8a.8.8,0,0,1-.1,1.1.9.9,0,0,1-1.2-.1l-.2-.4a2,2,0,0,1,.1-.7.7.7,0,0,1,.7-.4h.6a8.2,8.2,0,0,0,2.1-1.2l1.4-.7.6-.3h.1a.8.8,0,0,1,.7,1.5h-.2l-.6.2-1.1.6c-.8.5-1.7,1.4-2.9,1.5h-.1l.2-.2c-.1.1.1-.4,0-.3v-.4"/><path class="cls-9" d="M66.3,165.1a.8.8,0,1,1-.4-1.6h-.2l-.3.3v.4h0l-.2-.3a1.4,1.4,0,0,0-.7-.6c-.3-.3-.7-.3-1.3-.5l-.7-.4-.7-.5-.2-.2a.4.4,0,0,1-.1-.3c-.1-.2,0-.8.4-.9s.6-.1.7-.1h.2a.8.8,0,0,1,.4,1.1.8.8,0,0,1-1.1.4h.6l.2-.2.2-.3c-.1.2,0-.4,0-.3v-.3h-.1l.5.4.4.2a4,4,0,0,1,1.6.6,5.2,5.2,0,0,1,1.1,1l.4.6c0,.1.1.1.1.3v.3a1,1,0,0,1-.6.7"/><path class="cls-9" d="M61,142.9c.2-.1.4-.2.6,0s.2.4,0,.6a20,20,0,0,0-.9,2.1,20.7,20.7,0,0,1-1,2.6c-.1.2-.3.2-.5.1s-.3-.4-.2-.5a18.2,18.2,0,0,0,.9-2.4l.6-1.5a9.3,9.3,0,0,1,.5-1"/><path class="cls-9" d="M57.3,142a.4.4,0,0,1-.4-.4.7.7,0,0,1,.5-.4h.3l1.8-.2,4.5-.3h1.8l1.2.4c.2.1.3.3.1.5a.4.4,0,0,1-.5.2c-.6-.4-4-.5-7-.1l-1.9.2h-.4m.5-.8a.5.5,0,0,1,.5.4.4.4,0,0,1-.4.4h-.5c-.2.1-.4-.1-.5-.3a.7.7,0,0,1,.4-.5h.5"/><path class="cls-9" d="M56.1,149.5c-.2.1-.4-.1-.4-.3a.5.5,0,0,1,.4-.5,16.6,16.6,0,0,0,2.9-.6,16.7,16.7,0,0,1,4.6-.2.4.4,0,0,1,.4.4.5.5,0,0,1-.5.4,15.5,15.5,0,0,0-4.4.2,13.2,13.2,0,0,1-3,.6"/><path class="cls-9" d="M69.3,146.2a.4.4,0,0,1-.2.5c-.2.1-.4.1-.5-.1s0,.1,0,0h.3l-.6.9L67,149.9l-.3.8v.3h.4l.7-.2a1.8,1.8,0,0,0,1-.9c0-.2.3-.3.5-.2a.4.4,0,0,1,.2.5,2.6,2.6,0,0,1-1.4,1.3l-.9.4a1.3,1.3,0,0,1-.9-.2,2.1,2.1,0,0,1-.4-.6v-.6a3.6,3.6,0,0,1,.4-.9,10.5,10.5,0,0,1,1.3-2.3l.6-1c.1-.1.2-.3.4-.3H69l.3.3"/><path class="cls-9" d="M67.1,148.8c.3,0,.4.2.4.5a.5.5,0,0,1-.5.3l-.6-.2c-.2-.1-.4-.2-.4-.4a.8.8,0,0,1,.1-.7l.5-.2a4,4,0,0,1,2.6.2.4.4,0,0,1,.2.6c0,.2-.3.3-.5.2a3.2,3.2,0,0,0-2.1-.2h-.1v-.2c.1.1,0-.1,0-.1h.4"/><path class="cls-9" d="M72.7,149.7c0,.3-.1.5-.4.5a.4.4,0,0,1-.4-.4H72l-.6.3c-.2.2-.4.4-.4.6v.2h0s-.1-.2-.1-.1-.1-.1-.1-.1h1.1a.6.6,0,0,1,.5.3l.2.2a.7.7,0,0,0,.4.3c.2,0,.4.2.3.4a.4.4,0,0,1-.4.4,1.9,1.9,0,0,1-1-.6l-.2-.3H70.5a.5.5,0,0,1-.4-.3,1.1,1.1,0,0,1,.1-.8,4.7,4.7,0,0,1,.6-.9,1.9,1.9,0,0,1,1-.5.6.6,0,0,1,.7.1,1.4,1.4,0,0,1,.2.6"/><path class="cls-9" d="M77.4,145.2H78a.4.4,0,0,1,0,.6,7.5,7.5,0,0,0-1.3,2.7,13.6,13.6,0,0,0-.4,1.7c0,.2-.1.4-.1.6v.4c-.1.2-.4.2-.6.1a.6.6,0,0,1-.3-.6l-.3-.7-.2-.5c-.1-.1,0-.4.2-.5h.9l2.2.3a.4.4,0,1,1,0,.8l-2.3-.3h-.3c-.1.1.1-.3.1-.2v-.2a1.1,1.1,0,0,1,.3.5,2.5,2.5,0,0,1,.2.7v.2h0s-.1-.1,0-.1h-.6a1.5,1.5,0,0,1,.1-.6,16.2,16.2,0,0,1,.4-1.9,9.3,9.3,0,0,1,1.5-3"/><path class="cls-8" d="M64.8,21.3a.4.4,0,0,1,.4-.4c.2-.1.4.1.5.3s-.1.2-.1.2h0a3.9,3.9,0,0,1-.2.6c-.2.6-.5,1.5-.8,2.2l-.3.8v.3c-.1,0-.1,0-.1.1s-.2.1-.4,0-.3-.2-.3-.3h0a.4.4,0,1,1,.8,0h0c0,.1-.1-.1,0,0h-.3c.1,0-.2,0-.1-.1h-.3l.3-.8c.3-.7.6-1.6.8-2.2a3.9,3.9,0,0,0,.2-.6h0c.1,0,.1.2,0,.1m.8.2a.4.4,0,0,1-.6.2.4.4,0,0,1-.2-.5H65a.3.3,0,0,1,.5,0c.2.1.2.4,0,.6h.1"/><path class="cls-8" d="M62.3,19.6c.2-.1.4,0,.6.2s0,.4-.2.6-.3,0-.4,0h-1l.3-.8h1.1c1.1,0,2.5-.1,3.8,0h1.7a2.3,2.3,0,0,1,1.2.6c.2.2.1.4,0,.6s-.5.1-.6-.1l-.8-.3H61.3a.5.5,0,0,1-.2-.6.4.4,0,0,1,.5-.2h.7"/><path class="cls-8" d="M61.3,25c.2,0,.4.1.4.3s-.1.5-.4.5h-.2s.1-.1.1,0h.1c-.1,0,0-.2,0-.2h0c0,.1-.1-.1-.1-.1h0c0,.1,0,.1.1.1h.4a41.4,41.4,0,0,0,6-.2.4.4,0,0,1,.4.4.5.5,0,0,1-.4.5c-1.7,0-4.4.3-6.1.1s-.7-.1-.9-.3a.5.5,0,0,1-.2-.4c0-.2.1-.4.2-.4h.6"/><path class="cls-8" d="M69.2,27.6a.5.5,0,0,1-.5-.3.4.4,0,0,1,.2-.5l1.6-1.1,1-.5h.7a.8.8,0,0,1,.4.4,1.8,1.8,0,0,1,0,1.6l-.3.7c-.1.2-.1.4-.4.5a.4.4,0,0,1-.6-.2.6.6,0,0,1,.3-.6c.1,0-.1.1-.1.1v-.2a.8.8,0,0,0,.2-.5,1.2,1.2,0,0,0,.1-1h-.2a2,2,0,0,0-.8.4,13.6,13.6,0,0,1-1.7,1.2"/><path d="M135.5,190a.4.4,0,0,1-.5.2.4.4,0,0,1-.2-.6,9.1,9.1,0,0,1,1-1.3,1.8,1.8,0,0,1,.8-.7l.3-.2.4.2a.6.6,0,0,1,.1.4v.2a22.9,22.9,0,0,1-1.1,2.3,11.2,11.2,0,0,0-1.2,2.9c-.2.4-.2.7-.1.8h.2a12.8,12.8,0,0,0,2.7-2.4l1.2-1.3a.9.9,0,0,1,.7-.3c.2,0,.4.1.4.2a.9.9,0,0,1,.1.5,3.6,3.6,0,0,1-.4,1.1,5.3,5.3,0,0,0-.6,2h.1a1.9,1.9,0,0,0,1-.3.5.5,0,0,1,.6.2.4.4,0,0,1-.2.5,2.4,2.4,0,0,1-1.5.4.9.9,0,0,1-.6-.3.8.8,0,0,1-.2-.5,4.5,4.5,0,0,1,.6-2.4,4.9,4.9,0,0,0,.4-.9h.2a13.5,13.5,0,0,1-1.2,1.2,10.5,10.5,0,0,1-3,2.7h-.7c-.2-.1-.5-.2-.6-.5a1.5,1.5,0,0,1,.1-1.3,12.9,12.9,0,0,1,1.3-3.1c.4-.9.9-1.7,1-2.1h.5a2.3,2.3,0,0,0-.7.7l-.9,1.1"/><path d="M145.9,192.2a.5.5,0,0,1,.2.6c-.1.2-.4.2-.6.1h-.4a1,1,0,0,0-.5.4l-.4.4h.5c.1,0,.3-.3.7-.4s.4,0,.5.1.1.1.1.2v.5l-.3.7a24.4,24.4,0,0,0-.6,2.6,2.1,2.1,0,0,1-.4,1.1,1.4,1.4,0,0,1-.8.5,1.8,1.8,0,0,1-1-.2,1.3,1.3,0,0,1-.7-.6,1.7,1.7,0,0,1-.1-1.2.5.5,0,0,1,.5-.3c.2.1.4.3.3.5a1.1,1.1,0,0,0,0,.6l.4.3h.5l.3-.2c.1-.1.1-.4.2-.7a7.7,7.7,0,0,1,.7-2.8,1.4,1.4,0,0,1,.2-.6v-.2h.1c-.1,0,.1.1,0,.1h.3c-.1,0,.2-.1.1-.1s-.4.4-.9.5a1.1,1.1,0,0,1-1,0,.5.5,0,0,1-.3-.3.6.6,0,0,1,0-.6c.1-.3.3-.4.5-.6a2.4,2.4,0,0,1,.8-.6,1.4,1.4,0,0,1,1.1.1"/><path d="M149.9,192.1a.5.5,0,0,1,.2.6c-.1.2-.4.2-.6.1h-.1l-.3.2-.6.7a2.5,2.5,0,0,0-.2.7v.3h.4a2.1,2.1,0,0,0,.9-.5.5.5,0,0,1,.6.1.3.3,0,0,1-.1.5,3.3,3.3,0,0,1-1.3.7,1.1,1.1,0,0,1-1-.2,1.2,1.2,0,0,1-.4-.9,2.3,2.3,0,0,1,.3-1.1l.8-1,.6-.3h.7"/><path d="M150.1,192.7a.5.5,0,0,1,.6,0,.6.6,0,0,1,0,.6c-.3.2-.3.1-.4.1h-.8s.1-.2.1-.1v-.2h.2a.6.6,0,0,1,0,.6.4.4,0,0,1-.6,0l-.3-.3a.6.6,0,0,1,0-.6l.3-.3h.9"/><path d="M153.8,191.7c.2.1.2.4.1.6a.4.4,0,0,1-.5.2h-.8v.2c.1.2.1.5.2.8l.3,1a1.8,1.8,0,0,1-.8,1.3,2.4,2.4,0,0,1-1.6.4c-.2-.1-.4-.3-.3-.5s.3-.4.5-.3a1.6,1.6,0,0,0,.9-.2.9.9,0,0,0,.4-.7,4.5,4.5,0,0,0-.2-.8,2.9,2.9,0,0,1-.2-.9.7.7,0,0,1,.1-.5.5.5,0,0,1,.3-.5,1.8,1.8,0,0,1,1.6-.1"/><path d="M159,191.3a.4.4,0,0,1-.4-.4c.1-.2.2-.4.5-.4a6.9,6.9,0,0,0,3.2-.1.5.5,0,0,1,.5.3.4.4,0,0,1-.2.5,7.4,7.4,0,0,1-3.6.1"/><path d="M159.3,193.5a.5.5,0,0,1-.5-.4.4.4,0,0,1,.4-.4l2.4-.3c.2-.1.4.1.5.3a.5.5,0,0,1-.3.5l-2.5.3"/><path d="M169.8,192.6a.4.4,0,0,1-.4.4.5.5,0,0,1-.4-.5c0-.4.3-.6.6-.9l1.2-1.3,1.4-1.6a7.4,7.4,0,0,1,2.3-1.7.6.6,0,0,1,.7.3,1,1,0,0,1,.2.7,14.6,14.6,0,0,1-1.2,3.9,6.3,6.3,0,0,0-.3,1.2h-.3l.3-.2c.2-.1.4-.1.5.1s.1.4,0,.6a1.3,1.3,0,0,1-.8.3.4.4,0,0,1-.4-.2.5.5,0,0,1-.2-.4,5.6,5.6,0,0,1,.4-1.5,16.8,16.8,0,0,0,1.2-3.6.4.4,0,0,0-.1-.3h.2a10.2,10.2,0,0,0-1.9,1.5l-1.4,1.5-1.2,1.3-.3.4h-.1"/><path d="M177.8,188.8a.5.5,0,0,1-.2-.6.5.5,0,0,1,.6-.1H180c.3.1.7,0,1.1.3a.5.5,0,0,1,.3.5.6.6,0,0,1,0,.6,2.8,2.8,0,0,1-.4,1.2,6.9,6.9,0,0,1-1.1,1.3l-.6.5-.6.4h2.8a.4.4,0,0,1,.4.4c0,.3-.2.4-.5.4h-1.6a3.2,3.2,0,0,1-1.4-.2c-.2-.1-.4-.2-.4-.5s0-.4.2-.6l.6-.4.6-.5a8.7,8.7,0,0,0,.9-1.1,1.6,1.6,0,0,0,.3-.9v-.3h-1.3a1.9,1.9,0,0,1-1.5-.1"/><path d="M186.4,187.7c-.1-.2-.1-.4.1-.5a.5.5,0,0,1,.6.2,3.9,3.9,0,0,1,.1,1.6,15.5,15.5,0,0,1,.1,2.1,3,3,0,0,0,.3.9c0,.2.1.2.2.2l.7-.3,1.3-1.4,3.6-4.2c.1-.2.4-.2.6-.1a.6.6,0,0,1,0,.6l-3.6,4.3-1.4,1.4a2.2,2.2,0,0,1-1.3.6,1.3,1.3,0,0,1-.9-.7,3.5,3.5,0,0,1-.3-1.2c-.1-1.4-.1-3.3-.1-3.5"/><path d="M227.5,128a.4.4,0,0,1,.4-.4.7.7,0,0,1,.5.4h-.1c0,.1,0,.1-.1.3l-.4.9a23,23,0,0,0-1.5,3.2,3.9,3.9,0,0,0-.1.9h.1a12.5,12.5,0,0,0,1.9-2l1-1.1.3-.5h.4c.1-.1.3,0,.4.1v.2a2,2,0,0,1-.6,1.3,6.7,6.7,0,0,0-.7,1.8,1.2,1.2,0,0,0-.1.8.5.5,0,0,0,.2.4h.6l1.3-.4a.5.5,0,0,1,.6.2.4.4,0,0,1-.2.5,4.1,4.1,0,0,1-1.6.5,1.6,1.6,0,0,1-1.2-.2,1.2,1.2,0,0,1-.5-1,2.2,2.2,0,0,1,.1-1.1,8.4,8.4,0,0,1,.8-1.9,4.3,4.3,0,0,1,.4-.7V130h.6l-.4.5-1,1.1a14.9,14.9,0,0,1-2.1,2.2,1.2,1.2,0,0,1-.8.1l-.4-.2a.6.6,0,0,1-.1-.4,1.7,1.7,0,0,1,.2-1.2A20.2,20.2,0,0,1,227,129a2.5,2.5,0,0,0,.5-.8V128h0m-.8,2.4a.4.4,0,0,1-.4.4.4.4,0,0,1-.4-.4c-.1-.5.3-1,.6-1.4l.5-.5a2.7,2.7,0,0,1,.7-.8c.2-.2.4-.1.6.1a.3.3,0,0,1-.1.5l-.6.7c-.2.2-.3.4-.5.5a3.1,3.1,0,0,0-.4.9"/><path d="M233.9,132.6a.4.4,0,0,1,.6,0,.5.5,0,0,1-.1.6,11.1,11.1,0,0,0-.9,2.2c-.1.5-.3,1-.3,1.2v.2c.1,0-.1-.1-.1-.1h0a4.9,4.9,0,0,0,.9-1l1.6-1.7a2.8,2.8,0,0,1,1.4-.9c.2-.1.4.1.5.3a.5.5,0,0,1-.3.5,8.9,8.9,0,0,0-2.6,2.3,3.7,3.7,0,0,1-1.2,1.3H233l-.4-.2a1,1,0,0,1-.2-.7,8.9,8.9,0,0,1,.3-1.4l.6-1.6c.2-.4.3-.8.6-1"/><path d="M234.8,136.5a.4.4,0,0,1,.5-.3c.2,0,.3.2.3.5a3,3,0,0,0-.2,1,1.6,1.6,0,0,0,.6.9c.2.1.2.4.1.6a.5.5,0,0,1-.6.1,2.6,2.6,0,0,1-.9-1.6,3.7,3.7,0,0,1,.2-1.2"/><path d="M244.5,133.1a.5.5,0,0,1-.2-.6c.1-.2.4-.2.6-.1a4.4,4.4,0,0,0,2.6.5.5.5,0,0,1,.5.3c0,.2-.1.5-.4.5a3,3,0,0,1-1.9-.1,3.5,3.5,0,0,1-1.2-.5"/><path d="M244.4,134.4c0-.2.3-.3.5-.3a.5.5,0,0,1,.3.5h0v-.2h.5a5.2,5.2,0,0,1,1.7.2c.2,0,.3.2.3.4a.5.5,0,0,1-.5.4l-1.5-.2h-1a.6.6,0,0,1-.2-.6"/><path d="M253.2,130.9a.5.5,0,0,1,.4.5.5.5,0,0,1-.5.3h0c-.1,0-.1.1-.1.3a12,12,0,0,0,0,1.9,5.7,5.7,0,0,1-.3,1.8,2.1,2.1,0,0,1-.4,1.1,1.1,1.1,0,0,1-.9.4l-.6-.3-.3-.5a2.4,2.4,0,0,1-.3-1.2,1.8,1.8,0,0,1,.8-1.3l1.6-.9,1.6-.8.7-.5c.2-.2.5-.3.5-.5h-.1a1.9,1.9,0,0,0-1.1.4.4.4,0,0,1-.6,0,.5.5,0,0,1,0-.5,2.1,2.1,0,0,1,1.8-.7l.7.4c.1.1.1.2.1.4s0,.3-.1.4l-.7.7-.8.5-1.6.8-1.5.9c-.3.2-.5.4-.5.6a2.9,2.9,0,0,0,.2.9l.2.2h.3a2.2,2.2,0,0,0,.3-.8,8.8,8.8,0,0,0,.2-1.6,12,12,0,0,1,0-1.9,1.1,1.1,0,0,1,.2-.8.8.8,0,0,1,.8-.3"/><path d="M255.7,135.4a.5.5,0,0,1,.6-.1c.2.1.2.4.1.6l-.9,1.3-.3.7v.4a.5.5,0,0,1-.1.6.5.5,0,0,1-.6-.2,1.2,1.2,0,0,1-.1-1,3.6,3.6,0,0,1,.4-.9l.9-1.4"/><path d="M263.7,131.2c-.1.2-.2.4-.5.4a.5.5,0,0,1-.4-.5h0c0-.1.1.1.1,0h.1l-.8.7a7.4,7.4,0,0,0-1.6,1.9,4.7,4.7,0,0,0-.7,2.4,1.4,1.4,0,0,0,0,.7h.2l.6-.2a3.2,3.2,0,0,0,1-1v-.3h-.5c-.2.1-.4-.1-.5-.3s.1-.4.3-.5h.7l.6.3a1,1,0,0,1,0,1.2,2.9,2.9,0,0,1-1.3,1.4,1.7,1.7,0,0,1-1,.3,1.1,1.1,0,0,1-.9-.3c-.3-.4-.2-.8-.2-1.3a6.2,6.2,0,0,1,.9-2.7,12,12,0,0,1,1.7-2.1l1.1-.8a.4.4,0,0,1,.5-.1l.4.2a.6.6,0,0,1,.1.4"/><path d="M267.3,131.2c-.1-.2.1-.4.3-.5a.5.5,0,0,1,.5.4,8.2,8.2,0,0,1-.1,1.4c0,.7-.1,1.5-.1,2.2a9.7,9.7,0,0,0-.1,1.6v.6s-.1-.2,0-.1l-.2-.2h-.2l.3-.2,1-1,2-2.2.9-.9a6.3,6.3,0,0,1,1.1-1.3l.6-.4c.1,0-.1.2-.1.1h0c-.1-.2,0-.3,0-.3v-.2h.3a.4.4,0,0,1,.6.6l-.3.2h0v-.2c0,.1-.1-.3,0-.2v.4a.5.5,0,0,1-.3.4l-.5.2-1,1.2-.9.9c-.7.8-1.4,1.5-2,2.3l-1.1,1-.4.4h-.4a.5.5,0,0,1-.4-.3,2.2,2.2,0,0,1,0-.8,9.7,9.7,0,0,1,.1-1.6c.1-1.5.2-3.2.2-3.5"/><path d="M140.4,61a.4.4,0,1,1-.7.3c-.1-.2,0-.3,0-.4a.3.3,0,0,1,.1-.2l.3-.5.5-.5h.4a.4.4,0,0,1,.4.2c.2.2.1.3.1.4s-.1.2-.1.3l-.4.8c-.3.5-.6,1.2-.9,1.8a10.7,10.7,0,0,0-1,2.5v.3h.1l.8-.6a15.8,15.8,0,0,0,2.3-2.2l.8-.8.4-.3h.3l.3.3c.1.2.1.3,0,.4a3.7,3.7,0,0,1-.7,1.2,7.5,7.5,0,0,0-1,2.7v.3h.1a2.7,2.7,0,0,0,1.4-.6.4.4,0,0,1,.6.1.5.5,0,0,1-.1.6,3,3,0,0,1-2,.7.7.7,0,0,1-.6-.3,1.1,1.1,0,0,1-.3-.7,6.8,6.8,0,0,1,1.1-3.2l.7-1.1h0v.2h.5l-.2.2a5.9,5.9,0,0,0-.8.8,26.6,26.6,0,0,1-2.4,2.3l-.9.6c-.3.1-.6.3-.9.1a.5.5,0,0,1-.4-.5v-.6a19.1,19.1,0,0,1,1-2.7l1-1.8a1.3,1.3,0,0,0,.3-.7h.1v.2h.3l-.3.4-.3.4h0s-.1-.2-.1-.1"/><path d="M149.3,63.9a.3.3,0,0,1-.1.5c-.2.1-.5.1-.6-.1h-.2c-.1.1-.4.1-.6.3a1.4,1.4,0,0,0-.7.6h.9a.6.6,0,0,1,.6-.1.3.3,0,0,1,.3.3v.4c0,.2-.1.4-.1.6s-.4,1.4-.7,2.1a9.1,9.1,0,0,1-.6,2.6,1.1,1.1,0,0,1-.9.5.9.9,0,0,1-.8-.4,1.5,1.5,0,0,1-.6-.9,3.1,3.1,0,0,1,.3-1.3.5.5,0,0,1,.6-.2.5.5,0,0,1,.1.6c-.1.3-.2.5-.1.7a.8.8,0,0,0,.2.5l.4.2h.1c.2-.4.2-1.4.6-2.4a19.1,19.1,0,0,1,.6-2.1c0-.2.1-.3.1-.5h.2c-.1,0,.1.1.1.1h.1a2.1,2.1,0,0,1-.8.2,1.1,1.1,0,0,1-.8,0,1,1,0,0,1-.5-.4,1.1,1.1,0,0,1,0-.8,4.5,4.5,0,0,1,1-.9,2.9,2.9,0,0,1,1-.3h.5l.4.4"/><path d="M152.8,63.9c.2.1.4.3.3.5a.3.3,0,0,1-.5.3.6.6,0,0,0-.5.2l-.6.8a3.1,3.1,0,0,0-.2.8.7.7,0,0,0,.1.5h.2l.8-.3a.7.7,0,0,1,.6.1.5.5,0,0,1-.2.6,2.1,2.1,0,0,1-1.2.5,1.1,1.1,0,0,1-.9-.5,1.4,1.4,0,0,1-.2-1.1,2.6,2.6,0,0,1,.3-1.1,2.5,2.5,0,0,1,.8-1,1.3,1.3,0,0,1,1.2-.4"/><path d="M153.6,64.5c.2.1.4.3.3.5s-.3.4-.5.3h-.2l.3.3c.1.1.2.4,0,.5s-.4.3-.5.1-.4-.4-.5-.6a.8.8,0,0,1,0-.7.4.4,0,0,1,.4-.4.9.9,0,0,1,.7-.1"/><path d="M156.4,64.3c0,.2-.1.5-.3.5s-.5-.1-.5-.3.1.2.1.1h.1c-.1,0,.1.1.1.1h-.2c0,.1-.1.1-.1.2a.7.7,0,0,0-.1.5c0,.4.2,1,.3,1.7a1.4,1.4,0,0,1-.4,1,2.2,2.2,0,0,1-1.2.5.3.3,0,0,1-.5-.3c-.1-.2.1-.4.3-.5l.8-.3c.1-.1.1-.2.1-.4s-.2-1.1-.2-1.8a1.7,1.7,0,0,1,.1-.7,1.2,1.2,0,0,1,.6-.6h.4c.1,0,.1-.1.2,0h.2l.2.3"/><path d="M162.8,63.5a.4.4,0,0,1-.4-.4.7.7,0,0,1,.5-.4h1.4a2.7,2.7,0,0,1,1.5.3.4.4,0,0,1,.1.6c-.1.2-.3.2-.5.1s-1.5,0-2.6-.2"/><path d="M162.7,65a.5.5,0,0,1,.1-.6.7.7,0,0,1,.6.1c.1.2.1.2.4.2h1.3c.2.1.4.3.3.5s-.2.4-.4.3h-1.1a1.5,1.5,0,0,1-1.2-.5"/><path d="M178.2,64.8a.3.3,0,0,1-.3.5.4.4,0,0,1-.5-.2,2.1,2.1,0,0,1,0-1.1,7.5,7.5,0,0,1,.7-1.2,20,20,0,0,1,1.9-2.2,1.6,1.6,0,0,1,.8-.6.6.6,0,0,1,.6,0c.2.2.2.4.3.5a8.7,8.7,0,0,1-.9,3.2c-.2.5-.3,1-.4,1.3h-.1a.4.4,0,0,1,.5.2.3.3,0,0,1-.3.5.6.6,0,0,1-.7-.1,1.1,1.1,0,0,1-.2-.7c.1-.4.2-.9.4-1.5a16.6,16.6,0,0,0,.9-2.8h0s.1.1,0,.1h.2l-.6.4-1.7,2.1a3.7,3.7,0,0,0-.6,1,.4.4,0,0,0,0,.5"/><path d="M184,61.5a.3.3,0,0,1,.1-.5c.2-.2.4-.1.6,0s.2.2.5.2h1l.5.2a.7.7,0,0,1,.3.6,1.4,1.4,0,0,1-.2.6l-.5.5-1.2,1.2a5.8,5.8,0,0,0-1.1,1.3c-.1.1-.1.2-.2.2h0c0,.1-.1-.2,0-.1h.8l2.1-.2c.3,0,.5.1.5.4a.4.4,0,0,1-.4.4l-2.1.2h-1.4c-.1,0-.3-.2-.3-.5a1.5,1.5,0,0,1,.3-.7l1.2-1.4,1.2-1.1.4-.5a.1.1,0,0,0,.1-.1h-.1c-.2-.1-.5,0-.9,0a1.3,1.3,0,0,1-1.2-.6"/><path d="M191.2,62.3c-.1.3-.3.4-.5.3a.4.4,0,0,1-.3-.6c.1-.1.1-.2.2-.2s0-.2.2-.2.4,0,.5.1a.9.9,0,0,1,.1.7,15.4,15.4,0,0,1-.2,1.9c-.1.8-.3,1.7-.3,2.2v.4h0c.1,0-.1-.1,0-.1s-.1,0-.1,0h0l.4-.3,1.2-1.2c.8-.8,1.5-1.8,2.3-2.6a21.9,21.9,0,0,1,2-1.6c.2-.2.4-.1.6,0a.6.6,0,0,1,0,.6,17.2,17.2,0,0,0-2,1.6L193,65.9l-1.3,1.2a1,1,0,0,1-.5.4h-.3c-.1.1-.2.1-.4,0s-.3-.4-.4-.5v-.6a20.8,20.8,0,0,1,.3-2.3,15.4,15.4,0,0,0,.2-1.9v-.2h0s.1.2,0,.1h.5c-.1.1.1-.1.1,0h0"/><path class="cls-10" d="M29,63.2c.2-.2.5-.2.6,0s.1.4,0,.6q-53.7,46.7-7.3,108.9a.5.5,0,0,1,0,.6c-.2.1-.5.1-.6-.1q-46.8-62.8,7.3-110"/><path class="cls-10" d="M23.7,167.4a.5.5,0,0,1,.4.5c-.1.2-.3.4-.5.3h.3v.6a12,12,0,0,0,0,1.9,8.6,8.6,0,0,0,.2,2.3,5.6,5.6,0,0,0,.4,1.2l.3.7h.1l.2.4a.5.5,0,0,1-.2.4H23.6l-2.2-.4a2.5,2.5,0,0,1-1.9-.9.5.5,0,0,1,.1-.6.6.6,0,0,1,.6.1,2.3,2.3,0,0,0,1.4.6l2.2.4h.5c0-.1,0,.3-.1.2h.1l-.3-.4-.3-.7c-.1-.4-.3-.8-.4-1.3a9.7,9.7,0,0,1-.2-2.4,16.2,16.2,0,0,1-.1-2.1,2,2,0,0,0,.1-.7c0-.1.1-.2.1-.3a.6.6,0,0,1,.5-.3"/><path class="cls-9" d="M31.6,217.6a.5.5,0,0,1-.5.4.4.4,0,0,1-.4-.4,1.9,1.9,0,0,0-.8-1.6,1.4,1.4,0,0,0-1-.4,1.2,1.2,0,0,0-.6.5.8.8,0,0,0-.2.5c-.1.2.1.5.4.8a6,6,0,0,1,.9,1.3,1.8,1.8,0,0,1,.1,1.6,2.4,2.4,0,0,1-1.3.9l-1.8.4H23.8a.3.3,0,0,1-.5-.3c-.1-.2.1-.4.3-.5h2.7l1.6-.4a1,1,0,0,0,.8-.5c.2-.2.1-.5,0-.8a7.4,7.4,0,0,0-.9-1.2,1.7,1.7,0,0,1-.5-1.5,2,2,0,0,1,.4-.8,1.6,1.6,0,0,1,1.2-.8,2.4,2.4,0,0,1,1.4.5,2.6,2.6,0,0,1,1.3,2.3"/><path class="cls-9" d="M31.5,229.2a.7.7,0,0,1-.5.4.7.7,0,0,1-.4-.5h0c0-.4-.1-1.3-.1-2.4a22.6,22.6,0,0,1,.1-2.6,6.1,6.1,0,0,1,1.1-3.2,5.8,5.8,0,0,1,1.9-1.7,1.7,1.7,0,0,1,1.1-.3,1.4,1.4,0,0,1,1,.4,1.7,1.7,0,0,1,.1,1,4.7,4.7,0,0,1-.5,1,2.7,2.7,0,0,1-2,1.1.4.4,0,0,1-.4-.4.4.4,0,0,1,.4-.4,2,2,0,0,0,1.3-.8l.4-.7v-.3h-.4a.8.8,0,0,0-.6.2,5.3,5.3,0,0,0-2.6,4.2,21.7,21.7,0,0,0-.1,2.6c.1,1,.1,1.9.2,2.4v.2h0m.2-6.3a.4.4,0,0,1,.5-.2.5.5,0,0,1,.2.6,12.7,12.7,0,0,0-.8,3.4,14.1,14.1,0,0,0-.1,2c-.1.2-.1.4,0,.4h-.1c.1.2-.1.4-.3.5a.5.5,0,0,1-.5-.4h0v-.4c.1-.6.1-1.3.2-2.2a17,17,0,0,1,.4-2.2,7.2,7.2,0,0,1,.5-1.4"/><path class="cls-9" d="M40.3,219.9a.4.4,0,1,1,0-.8h.4v.2a4.3,4.3,0,0,1,.1.5c.1.3.1.6.2.8s.1.2.1.3h.3l.9-.3.7-.8.6-.5a1,1,0,0,1,.9-.2.5.5,0,0,1,.3.5v1.5h.2l.3-.2.6-.5a1.3,1.3,0,0,1,.7-.6l.5.2.2.3a1.3,1.3,0,0,0,.1.6,3.3,3.3,0,0,0,.2,1.2c.2.1.1.4,0,.5a.4.4,0,0,1-.6-.1,2.6,2.6,0,0,1-.4-1.5,1.1,1.1,0,0,1-.1-.5h0s.2.1.1.1h.2l-.4.4-.6.6a1.3,1.3,0,0,1-.9.4l-.5-.2a1,1,0,0,1-.4-.5v-1.6h.1l-.5.5-.9.9a2.8,2.8,0,0,1-1.3.4.8.8,0,0,1-.7-.2c-.3-.1-.4-.4-.5-.6s-.1-.7-.2-1v-.3h0s.1.1,0,.1h.3m.3-.1a.4.4,0,0,1-.5.2.5.5,0,0,1-.2-.6v-.2l-.2-.2h-.5a1.7,1.7,0,0,0-.2.9v.5h.2c.1,0,.3-.4.5-.7s.1-.4.3-.6h.1a.5.5,0,0,1,.6.2c.1.2,0,.4-.2.6s.1-.2.1-.1h0c-.1,0-.1.1-.2.3s-.3.9-.9,1h-1c-.2-.1-.3-.2-.3-.4a2.1,2.1,0,0,1,0-.8,2,2,0,0,1,.5-1.4l.6-.3a.8.8,0,0,1,.7,0,1.5,1.5,0,0,1,.6.5,1.2,1.2,0,0,1,0,1"/><path class="cls-9" d="M50.1,223.3c0,.2-.2.4-.4.3a.4.4,0,0,1-.4-.4,6.5,6.5,0,0,1,.8-2.2l.8-.9.7-.5a.8.8,0,0,1,.7-.1l.3.2a.3.3,0,0,0,.1.2v.4c.1.2,0,.5,0,.7a3.5,3.5,0,0,0,.1.6h.1l.4-.2.8-.6a1.8,1.8,0,0,1,.7-.5.8.8,0,0,1,.7-.2,1,1,0,0,1,.5.4c.4.4.2.9.2,1.2a.4.4,0,0,0,.1.3h-.1a.5.5,0,0,1,.5.4.4.4,0,0,1-.4.4.3.3,0,0,1-.4,0l-.4-.3a2,2,0,0,1-.1-.7V221h-.2l-.6.4-.8.7a1.2,1.2,0,0,1-1,.3h-.4l-.4-.4a2.8,2.8,0,0,1-.1-.9v-.7H52c0-.1.1,0,.1,0h-.2l-.4.3a2.7,2.7,0,0,0-.7.8,5.1,5.1,0,0,0-.7,1.8"/><path class="cls-9" d="M58.7,224.2a.4.4,0,0,1-.5-.2.5.5,0,0,1,.1-.6,8.4,8.4,0,0,0,1.2-1.8l.8-1.5.3-.4.3-.2h.4a.3.3,0,0,1,.1.2c.2.5,0,.8,0,1.2v.4h.4l.9-.3.5-.5a1.8,1.8,0,0,1,.7-.5l.3-.2h.5c.2.1.2.3.3.4v.6l.2.3h.2l.6-.2.7-.6.5-.4h.3a.7.7,0,0,1,.6.1l.2.4v.3a1.1,1.1,0,0,0-.1.5v.2h.3l.6-.5a2.1,2.1,0,0,1,1.4-.7.8.8,0,0,1,.7.4,1.9,1.9,0,0,1,.5.9c.1.2,0,.5-.2.5s-.5,0-.5-.2l-.4-.6a.3.3,0,0,0-.1-.2,1.5,1.5,0,0,0-.8.5l-.7.6a1.9,1.9,0,0,1-.9.3l-.6-.4a1.4,1.4,0,0,1-.2-.7v-.6h0s.2.1.1.1h.1l-.4.3a3.5,3.5,0,0,1-.9.7l-.7.3a1.5,1.5,0,0,1-.9-.2,1.4,1.4,0,0,1-.5-.8v-.4h.1c-.1,0,.1.1,0,.1h0l-.5.5a1.8,1.8,0,0,1-.7.5,1.7,1.7,0,0,1-1.5.5l-.5-.2a1,1,0,0,1-.5-.6,1.1,1.1,0,0,1,0-.6v-.9h.1c-.1,0,.1.1,0,.1h.4c-.1,0,.1-.1.1,0h0v.3l-.9,1.5-.7,1.3a3.6,3.6,0,0,1-.8.9"/><path class="cls-9" d="M77,219.6c.2-.1.4-.1.5.1a.5.5,0,0,1-.2.6,1.6,1.6,0,0,0-.7.7,3.4,3.4,0,0,0-.3.8,20.1,20.1,0,0,0-.5,3.1,16.9,16.9,0,0,1-.1,2.3,32.5,32.5,0,0,1-.2,3.3c-.1.9-.3,1.6-.4,2.2l-.3.7c-.2.2-.4.4-.6.4a1.2,1.2,0,0,1-.9-.3,4.4,4.4,0,0,1-.7-1.7c-.4-.9-.7-1.9-1-2.8a6.9,6.9,0,0,1-.2-1.3.8.8,0,0,1,.2-.9c.1-.2.4-.2.6,0a.5.5,0,0,1,0,.5h0v.3a4.4,4.4,0,0,0,.2,1c.2.9.6,1.9.9,2.9s.5,1.2.6,1.3h.2l.2-.4c.1-.5.3-1.3.4-2.1a30.5,30.5,0,0,0,.2-3.2c0-.8.1-1.5.1-2.3a14.4,14.4,0,0,1,.5-3.3,2.3,2.3,0,0,1,.4-1,2.1,2.1,0,0,1,1.1-1"/><path class="cls-9" d="M82.7,219a.3.3,0,0,1-.5.3c-.2,0-.3-.3-.3-.5s0-.1,0-.1h-.5l-.2.3-.3.6v.7a1.3,1.3,0,0,0,.3.8,2.3,2.3,0,0,1-.1,2,1.1,1.1,0,0,1-.9.5,2.1,2.1,0,0,1-1.3-.2.5.5,0,0,1-.3-.5.5.5,0,0,1,.6-.2c.4.1.7.2.9.1l.3-.2a1.2,1.2,0,0,0,0-1.2,2.4,2.4,0,0,1-.3-1,1.2,1.2,0,0,1,.1-1,1.3,1.3,0,0,1,.3-.8.9.9,0,0,1,.6-.6,1.3,1.3,0,0,1,1.2,0l.4.5a.6.6,0,0,1,0,.6"/><path class="cls-9" d="M84.6,224.7a.5.5,0,0,1-.6.1c-.2-.1-.2-.4-.1-.6s.7-1.6,1.3-2.8a4.3,4.3,0,0,1,.9-1.3l.4-.4c0-.1.1-.2.3-.2h.4a.9.9,0,0,1,.3.5c.1.2.1.3.2.4s.1.7.2,1,.2.5.3.5h.2l.4-.3a7.1,7.1,0,0,0,1.3-1.2l1-1.1.5-.4h.3a.6.6,0,0,1,.5.2c.2.3.1.5.1.8s-.1.5-.1.6v.4h-.1c.1,0-.1-.1,0-.1h.1l.6-.3a1.8,1.8,0,0,1,1-.4.9.9,0,0,1,.7.3l.4.6a5.8,5.8,0,0,0,.5,1.1.4.4,0,0,1-.1.6.5.5,0,0,1-.6-.1l-.6-1.2c0-.2-.1-.4-.2-.4h0l-.7.3-.6.4h-.4a.5.5,0,0,1-.5-.1.5.5,0,0,1-.3-.5c-.1-.2,0-.4,0-.6s.1-.4.1-.6v-.2h0s.1.1,0,.1H92l-.3.3-1,1.1a14.9,14.9,0,0,1-1.4,1.2l-.6.5a1.1,1.1,0,0,1-.8,0,1.5,1.5,0,0,1-.8-1.1,4.4,4.4,0,0,1-.2-1,.4.4,0,0,1-.1-.3.1.1,0,0,0-.1-.1h.1c-.1,0,.1.1,0,.1H87l-.3.3a3.6,3.6,0,0,0-.8,1.2,8.7,8.7,0,0,0-.7,1.7,6.7,6.7,0,0,1-.6,1.2"/><path class="cls-9" d="M99.6,221.3a.4.4,0,0,1,.4-.4.4.4,0,0,1,.4.4c0,.3-.1.5-.1.7v.2h-.1V222h-.5c.2-.1.5-.1.6.1s.1.5-.1.6h-.4c-.3-.1-.3-.3-.4-.4s0-.3.1-.4a2.2,2.2,0,0,1,.1-.6"/><path class="cls-9" d="M101.8,217.9c0,.2-.3.3-.5.3a.5.5,0,0,1-.3-.5h-.1a.4.4,0,0,1-.2-.5.4.4,0,0,1,.6-.2l.4.4a.9.9,0,0,1,.1.7"/><path class="cls-9" d="M103,219.5a.3.3,0,0,1,.5-.3c.2,0,.3.2.3.4a3.6,3.6,0,0,1-.4,1.1,4.3,4.3,0,0,1-.1.5H103l.2-.2.7-.5a1.2,1.2,0,0,1,1.6,0,1.5,1.5,0,0,1,.2.9,3,3,0,0,1-.1,1.3.3.3,0,0,1-.5.3c-.2,0-.3-.2-.3-.4a5.4,5.4,0,0,0,.1-1.1c0-.3,0-.4-.1-.5h0l-.4.2-.7.5-.4.2h-.6l-.2-.4v-.3a1.9,1.9,0,0,1,.2-.7l.3-.9"/><path class="cls-9" d="M112.5,219.5a.4.4,0,0,1-.4.4c-.2.1-.4-.1-.4-.3h-.2l-.8.3a2.6,2.6,0,0,0-.9,1.4c-.1.4-.1.7,0,.8h.6c.9-.3,2-1.6,3.1-3.1a35.2,35.2,0,0,0,2.7-4.4l.2-.7h0c0-.1.1.1.1,0h.3l-.3.3a16.6,16.6,0,0,0-2.1,3.8,9.2,9.2,0,0,0-.6,2.2c0,.5.1.7.2.8h.5a2.1,2.1,0,0,0,1.1-.4,3.4,3.4,0,0,0,.9-1.2v-.2h0s.2.2.1.2h.1l-.5.2a2.2,2.2,0,0,0-.5.8.4.4,0,0,0-.1.3h.3l.8.3.7.3.4.2.4.2H118c0-.1-.1.1-.1,0h0v-.9a1.4,1.4,0,0,1,.7-1.4,4.8,4.8,0,0,1,2.5-.2.4.4,0,0,1,.4.4.5.5,0,0,1-.5.4,5.4,5.4,0,0,0-2,.1c-.3.2-.3.3-.3.7v1.2h-.1a.5.5,0,0,1-.4.2c-.4-.1-.5-.3-.6-.3l-.6-.2-.5-.3-.9-.3a1.3,1.3,0,0,1-.8-.7,1.9,1.9,0,0,1,.1-.8,3.1,3.1,0,0,1,.9-1.1l.6-.4h.6l.3.2a1.1,1.1,0,0,1-.1.8,3.4,3.4,0,0,1-1.2,1.6,2.9,2.9,0,0,1-1.3.5H114l-.6-.3a1.8,1.8,0,0,1-.4-1.4,9.5,9.5,0,0,1,.7-2.5,15,15,0,0,1,2.2-4,3.4,3.4,0,0,1,.6-.6h.5c.2.1.2.2.2.3s.1.1,0,.2a1.9,1.9,0,0,1-.3.9,23.5,23.5,0,0,1-2.7,4.6,10.1,10.1,0,0,1-3.5,3.4,1.1,1.1,0,0,1-.8.1.9.9,0,0,1-.7-.3,1.6,1.6,0,0,1-.2-1.5,2.8,2.8,0,0,1,1.2-1.8,2.4,2.4,0,0,1,1.3-.5l.6.2a.9.9,0,0,1,.4.6"/><path class="cls-9" d="M125.3,217.6a.4.4,0,0,1-.3.7h.2l-.2.2-.3.9a1,1,0,0,0-.1.9v.2h1.4c.1,0,.3-.4.6-.7s0-.3.4-.4h.4l.2.2.2.3a4,4,0,0,1,0,1.1v.3h.4l1.2-.5.6-.2a1.6,1.6,0,0,1,1,.1c.4.2.4.5.5.5h.3a.4.4,0,1,1,.3.7l-.7.2-.5-.3-.2-.3c-.1-.1,0,0,0-.1h-1l-1.2.6H128a.5.5,0,0,1-.6-.1.5.5,0,0,1-.3-.4v-1.3H127s.2.1.1.1h.4l-.2.2c-.2.2-.4.8-1,1h-1.8a1.1,1.1,0,0,1-.7-.6,2,2,0,0,1,.1-1.5,3.6,3.6,0,0,1,.4-1.1l.4-.4h.6"/><path class="cls-9" d="M135.4,220.5c.1-.2.4-.1.5.1a.5.5,0,0,1-.1.6,1.1,1.1,0,0,0-.7.8,2,2,0,0,0-.2.9,26.6,26.6,0,0,0-.1,4.1c.1,2,.5,4,.7,5.4a10,10,0,0,1,.2,1.6.4.4,0,0,0-.1.3l-.4.2a.7.7,0,0,1-.6-.1l-1.1-.9c-1.4-1.2-3.3-2.8-4.2-3.7s-.2-.4,0-.6h.6c.8.9,2.7,2.4,4.1,3.7l1,.8h.1s-.1.1-.1,0-.2.2-.1.2h-.1a9.5,9.5,0,0,0-.1-1.4c-.2-1.4-.6-3.4-.7-5.4a29.1,29.1,0,0,1,0-4.2,10.4,10.4,0,0,1,.3-1.2,1.9,1.9,0,0,1,1.1-1.2"/><path class="cls-9" d="M149.8,220.1a.4.4,0,0,1,.5.2c.1.2,0,.5-.2.5h-.3c-.1,0-.3-.2-.4-.4s.1-.3.1-.4a2.1,2.1,0,0,1,.6-.8,34.3,34.3,0,0,1,4.4-4.4c.3-.2.5-.4.7-.4h.8a.8.8,0,0,1,.5.5,1.9,1.9,0,0,1,.2.7,4.8,4.8,0,0,1,0,1.7,6.1,6.1,0,0,1-.1,1.4v.5h0c0,.1-.2-.1-.1-.1h-.3c.2,0,.5.2.5.4a.5.5,0,0,1-.4.5l-.3-.2c-.2-.2-.2-.3-.2-.4v-.5a6.6,6.6,0,0,0,.1-1.5v-1.5c0-.2-.1-.3-.1-.4a.3.3,0,0,1-.1-.2h-.2l-.5.3a32.7,32.7,0,0,0-4.3,4.3l-.5.7h0v-.2c0,.1-.2-.2-.1-.2h-.3"/><path class="cls-9" d="M153.7,220.9c-.2-.1-.4-.3-.3-.5a.4.4,0,0,1,.4-.4c.5.1.7.5.9.8a5,5,0,0,1,.4,1.3c.1.5.2,1.1.3,1.4a.4.4,0,0,0,.1.3h-.2c.1,0,.2-.2.3-.4l1.1-2.1a22.1,22.1,0,0,1,2.5-3.2.3.3,0,0,1,.5,0,.3.3,0,0,1,.1.5,16.4,16.4,0,0,0-2.4,3.2c-.5.8-.7,1.4-1.1,2.1l-.5.6-.3.2h-.6c-.2-.2-.2-.4-.3-.6l-.3-1.5a3.6,3.6,0,0,0-.4-1.1c-.1-.3-.2-.3-.2-.3"/><path class="cls-9" d="M179.7,213.4a.3.3,0,0,1-.3-.5c0-.2.2-.3.4-.3a.5.5,0,0,1,.5.3c0,.1.1.3.1.4s-.1.5-.2.8-.7,1.4-1.2,2.2a23.3,23.3,0,0,1-1.7,2.6l-1.7,2.2a1.3,1.3,0,0,0-.3.7h1.2a2.2,2.2,0,0,1,1.4,0,2.5,2.5,0,0,1,1.6,1.2.4.4,0,1,1-.7.5c-.8-1.2-1.3-1-2.2-.9a4.3,4.3,0,0,1-1.6.1,1,1,0,0,1-.5-.4.6.6,0,0,1,0-.6,3,3,0,0,1,.4-.8l1.7-2.3,1.7-2.5a10.8,10.8,0,0,0,1.1-2.1,1.1,1.1,0,0,0,.1-.5h0c0-.1.3.1.2.1"/><path class="cls-9" d="M188.2,217.7a.4.4,0,1,1-.3.7h-.4c-.2,0-.3.1-.5.3a3,3,0,0,0-.9,1.3,2,2,0,0,0,0,1.1,2.2,2.2,0,0,0,.7.9,1.7,1.7,0,0,0,1,.3,1.7,1.7,0,0,0,1.2-.6.5.5,0,0,1,.6.1.3.3,0,0,1-.1.5,2.5,2.5,0,0,1-1.7.8,2.6,2.6,0,0,1-1.5-.4,2.4,2.4,0,0,1-.9-1.3,2.9,2.9,0,0,1-.1-1.6,3.4,3.4,0,0,1,1.1-1.7l.8-.5h1"/><path class="cls-9" d="M188.7,218.5c.1-.2.3-.2.5-.1a.5.5,0,0,1,.2.6,5.2,5.2,0,0,1-2.1,1.3.5.5,0,0,1-.6-.2.4.4,0,0,1,.2-.5c.7-.3,1.6-.7,1.8-1.1"/><path class="cls-9" d="M192.6,218.7c.1-.2.4-.2.6-.1s.2.4.1.6a7.3,7.3,0,0,0-1,2,2.6,2.6,0,0,0-.3,1.1.2.2,0,0,0,0,.3h-.1a.5.5,0,0,1,.1.6.5.5,0,0,1-.6.1c-.2-.2-.2-.4-.3-.6a.9.9,0,0,1,.1-.5,6.1,6.1,0,0,1,.3-1.3l1.1-2.2"/><path class="cls-9" d="M194.3,217a.4.4,0,0,1-.3.5c-.2.1-.4-.1-.5-.3s.1.1,0,.1.1,0,0,0,.2,0,.1,0h.2c0,.1.1-.1.1,0h0a.4.4,0,0,1-.4.4.7.7,0,0,1-.4-.5c0-.1,0-.2.1-.2s.1-.2.2-.3h.5c.2.2.4.2.4.5"/><path class="cls-9" d="M200.6,219.2a.3.3,0,0,1-.5.1.5.5,0,0,1-.2-.6c.1,0,.1-.1.1-.2h-.1l-.2-.2h-.3c-.2,0-.5.3-.6.6h0v.2l.4.4a2.5,2.5,0,0,1,.8,1.8,1.5,1.5,0,0,1-.4,1.1,1.5,1.5,0,0,1-.9.6h-1.3a4.7,4.7,0,0,1-1.2-.9.5.5,0,0,1,.1-.6.3.3,0,0,1,.5.1,2.4,2.4,0,0,0,.9.6h.7a.9.9,0,0,0,.6-.4c.2-.1.2-.3.2-.5a2.2,2.2,0,0,0-.6-1.3l-.5-.5v-.3a.5.5,0,0,1,0-.5,1.8,1.8,0,0,1,1-1.1h.8l.6.4.3.6a1.2,1.2,0,0,1-.2.8"/><path class="cls-9" d="M206.3,211.7a.6.6,0,0,1,.3.6.4.4,0,0,1-.6.2h.2v.2l-.4.8c-.3.9-.7,2-1,3.1l-.8,2.1a19.4,19.4,0,0,0-.6,2.2.4.4,0,0,0-.1.3c0,.1,0,.2-.2.4h-.6l-.2-.3-.4-.6-.4-.9-.4-.6v-.3a.4.4,0,0,1-.1-.3c0-.2.1-.4.2-.4a3.1,3.1,0,0,1,2.2-.2l2.7.3a.4.4,0,0,1,.4.4.5.5,0,0,1-.5.4,30.7,30.7,0,0,0-4.4-.3c0,.1.2-.1.1-.1s.1-.2.1-.1h0l.2.3.4.7.3.8.3.5h-.4a.8.8,0,0,1,.1-.4,11.1,11.1,0,0,1,.7-2.3c.2-.7.5-1.3.7-2s.7-2.3,1.1-3.2a10.4,10.4,0,0,1,.4-1l.3-.3.6-.2"/><path class="cls-9" d="M209.2,216.8c.2-.1.4.1.4.3s-.1.5-.4.5h0a7.9,7.9,0,0,0-.2,2.3c.1.4.2.8.4.9a.8.8,0,0,0,.8.2,3.2,3.2,0,0,0,1.3-1.1l.6-.8.3-.4h.3c.1-.1.3,0,.4.1s.2.2.2.3v.3a.6.6,0,0,0,.1.4,4.3,4.3,0,0,1,.1.5l.7.2a3.1,3.1,0,0,0,1.7-.7l.4-.3a1.5,1.5,0,0,1,.8-.3,1,1,0,0,1,.9,1v.5a1,1,0,0,0,.1.4h.3l1.1-.7.9-.6.5-.2a.7.7,0,0,1,.7.2,1.5,1.5,0,0,1,.2.9.6.6,0,0,0,.2.5c.2.1.2.3.1.5a.4.4,0,0,1-.6.1,1.1,1.1,0,0,1-.5-1v-.4h-.2l-.9.6-1.2.7-.6.2h-.4l-.3-.3a1,1,0,0,1-.2-.7v-.6h-.1l-.4.2-.3.3a3.6,3.6,0,0,1-2.3.8c-.4-.1-.9-.1-1.2-.6a1.1,1.1,0,0,1-.3-.8,1.1,1.1,0,0,1-.1-.5h.1s.2.1.1.1h.2l-.2.2-.6.9a4,4,0,0,1-1.6,1.3,2.1,2.1,0,0,1-1.6-.3,2.6,2.6,0,0,1-.7-1.6,7.2,7.2,0,0,1,.2-2.6l.3-.4.5-.2"/><path class="cls-9" d="M227.3,219.2c.2-.1.5-.1.6.1a.5.5,0,0,1-.1.6,2.7,2.7,0,0,0-1.3,1.6l-.3,1.2c-.2.9-.4,2.1-.7,3.3s-.6,3.5-1,5a18.3,18.3,0,0,1-.8,2.7,2,2,0,0,1-.5.9.6.6,0,0,1-.7.1l-.6-.4a4.5,4.5,0,0,1-1-1.3,9.7,9.7,0,0,1-1.4-3.9.4.4,0,0,1,.4-.4.4.4,0,0,1,.4.4,8,8,0,0,0,1.3,3.4,4.1,4.1,0,0,0,.9,1.2l.3.2h-.1l.2-.5a16.5,16.5,0,0,0,.8-2.6,44,44,0,0,0,1-5c.3-1.2.5-2.3.7-3.3a5,5,0,0,1,.4-1.3,4.2,4.2,0,0,1,1.5-2"/><path class="cls-9" d="M233.9,219.2a.4.4,0,0,1-.8,0,3.1,3.1,0,0,0-.2-1.3h-.1c-.1,0-.3.2-.5.5a.7.7,0,0,0-.2.7,11.1,11.1,0,0,0,1,.9,1.4,1.4,0,0,1,.5.9.9.9,0,0,1,0,.7c-.2.6-.8.8-1.3,1a3.3,3.3,0,0,1-1.7.1,2.3,2.3,0,0,1-1.2-.5c-.2-.2-.3-.4-.1-.6a.3.3,0,0,1,.5-.1,3.1,3.1,0,0,0,2.3.3,1.8,1.8,0,0,0,.8-.5v-.2a.9.9,0,0,0-.3-.5c-.3-.3-.9-.6-1.1-1.2a1.6,1.6,0,0,1,.2-1.5c.3-.4.6-.8,1.1-.8a.8.8,0,0,1,.8.2,2.7,2.7,0,0,1,.4,1.9"/><path class="cls-9" d="M236.1,222.4a.4.4,0,0,1-.2.6c-.2,0-.5-.1-.5-.3a3.2,3.2,0,0,1,.6-2.7,7.7,7.7,0,0,1,1.2-1.3,1.8,1.8,0,0,1,.7-.5,1.1,1.1,0,0,1,.8-.1.8.8,0,0,1,.5.5v.4c.2.4.1.9.2,1.2v.6h.3a5,5,0,0,0,1.3-.9,1.3,1.3,0,0,1,.7-.6.8.8,0,0,1,.7-.2,1,1,0,0,1,.5.4,1,1,0,0,1,.1.9v.6h0l.9-.3.7-.4c.2-.1.6.1.7.2s.2.4.3.5a5.6,5.6,0,0,0,.4,1.2.7.7,0,0,1-.3.6.5.5,0,0,1-.5-.3,8.4,8.4,0,0,1-.4-1.2V221h.1l-.6.3a2.1,2.1,0,0,1-1.2.4.7.7,0,0,1-.6-.2.5.5,0,0,1-.3-.5c0-.3.1-.5.1-.7V220h-.1l-.6.5c-.4.4-1,1.1-1.7,1.1h-.6a.8.8,0,0,1-.5-.5c-.2-.3-.1-.6-.2-.8v-1c-.1-.2-.1-.3-.2-.4h-.2l-.5.3-1,1.1a2.7,2.7,0,0,0-.6,2"/><path class="cls-9" d="M250.8,219.3a.4.4,0,0,1,.5-.2c.3.1.4.3.3.5a10.7,10.7,0,0,1-.7,1.5c-.1.1-.1.3-.2.4v.2h0s-.1-.1,0-.1h-.5l.4-.5a.3.3,0,0,1,.5-.1.4.4,0,0,1,.1.6c-.2.3-.3.5-.5.6s-.1.2-.3.2H250a.4.4,0,0,1-.1-.3c-.1-.4.1-.7.3-1.1a9.8,9.8,0,0,0,.6-1.4"/><path class="cls-9" d="M252.5,216.8c-.1.2-.3.4-.5.3a.3.3,0,0,1-.3-.5v-.2c-.1-.1-.3-.1-.5-.4s-.1-.5.1-.6a.5.5,0,0,1,.6.1h-.1l.4.3a1,1,0,0,1,.4,1"/><path class="cls-9" d="M254.3,218.5c0-.2.2-.3.5-.3s.3.3.3.5-.2,1-.4,1.8a6.2,6.2,0,0,1-.3,1h-.5c.1,0,.4-.5.7-.9l.9-.9a1,1,0,0,1,.6-.5,1,1,0,0,1,1,.4,1.1,1.1,0,0,1,.3.8c0,.3-.1.5-.1.8s-.2,1.2-.2,1.4a.4.4,0,0,1-.4.4c-.2.1-.4-.1-.4-.3a4.7,4.7,0,0,1,.2-1.6c0-.3.1-.5.1-.7V220h-.2l-.3.3-.7.8c-.3.4-.5.9-1,1.1H254c-.2,0-.3-.2-.4-.3s0-.3,0-.5l.3-1.1c.2-.8.3-1.5.4-1.8"/><path class="cls-9" d="M263.3,218.2a.5.5,0,0,1-.3.5c-.2,0-.5-.1-.5-.3h.2l-.2.2a5.6,5.6,0,0,0-.9,1.4l-.5,1.3v.4h.3a8.6,8.6,0,0,0,2.1-1.7,27.3,27.3,0,0,0,3.3-4.5l.9-1.6h0s.1.2,0,.1l.2.2h.3a.1.1,0,0,1-.1.1,19.9,19.9,0,0,0-1.5,2.2,11.5,11.5,0,0,0-1.5,3.2,3.4,3.4,0,0,0-.2,1.6l.2.2h.4a4,4,0,0,0,2.1-1.3,2.4,2.4,0,0,0,.6-.9v-.2h0s.2.2.1.2h.1l-.5.5a.6.6,0,0,0,0,1l.4.2,1.1.3h.2c.1,0,.1-.1.1-.2v-.6a2.5,2.5,0,0,1,.3-1.7,2.5,2.5,0,0,1,2-.9c.2,0,.4.1.4.3s-.1.5-.3.5-1.3.3-1.4.6-.2.6-.2,1.2v.7a.6.6,0,0,1-.1.4.8.8,0,0,1-.4.4.8.8,0,0,1-.7-.1l-1.2-.3-.7-.4a1.1,1.1,0,0,1-.6-1.2,1.6,1.6,0,0,1,.5-1l.7-.6.3-.2h.2a.5.5,0,0,1,.5.3.8.8,0,0,1-.2.8,2.8,2.8,0,0,1-.7,1.1,4.6,4.6,0,0,1-2.6,1.5,1.2,1.2,0,0,1-1.5-.8,3.7,3.7,0,0,1,.2-2,17.4,17.4,0,0,1,1.6-3.4,12.7,12.7,0,0,1,1.6-2.3l.3-.3h.6a.5.5,0,0,1,.1.3v.2c0,.2,0,.3-.1.4a14.6,14.6,0,0,1-.9,1.6,27.2,27.2,0,0,1-3.4,4.6,6.4,6.4,0,0,1-2.4,1.9.9.9,0,0,1-1.1-.1.7.7,0,0,1-.3-.6c-.1-.2,0-.4,0-.6a4.7,4.7,0,0,1,.6-1.5,5.5,5.5,0,0,1,1-1.7,1,1,0,0,1,.7-.4l.5.2a.5.5,0,0,1,.2.4"/><path class="cls-9" d="M276.7,217.6c.1.2.1.5-.1.6a.5.5,0,0,1-.6-.2s.2.2.1.2h.5a.3.3,0,0,0-.1.2l-.3.8a5.5,5.5,0,0,0-.3,1.6v.6h.7l1.2-.6,1-.9.4-.4h.4l.3.3a.7.7,0,0,1,.1.5,3.4,3.4,0,0,1,0,1v.4h.7a11.9,11.9,0,0,0,2.1-1.5l.8-.3h.4l.2.2c.1.1.1.3.2.4a2.4,2.4,0,0,1,0,.9s-.2-.2-.1-.2h.2l1-.5,1.2-.5h.6l.6.3a.6.6,0,0,1,0,.6.6.6,0,0,1-.6,0h-.4l-1,.5-1.1.5h-.5a.7.7,0,0,1-.6-.3,1.6,1.6,0,0,1-.1-.9v-.2h.2l-.4.2a9.1,9.1,0,0,1-2.4,1.6h-1.2c-.2,0-.3-.2-.4-.3a2.5,2.5,0,0,1-.1-.8V220h.3l-.2.2-1,.9a3.7,3.7,0,0,1-1.5.8.8.8,0,0,1-.7.1,1,1,0,0,1-.7-.2,1.4,1.4,0,0,1-.4-1.2,11.6,11.6,0,0,1,.4-1.8,3,3,0,0,1,.4-1l.2-.3c0-.1.1-.2.3-.2l.4.2"/><path class="cls-9" d="M288.8,221.3a.4.4,0,0,1,.2-.5.5.5,0,0,1,.6.2,2.6,2.6,0,0,1-.1,1.5,17.1,17.1,0,0,0-.7,1.8,26.9,26.9,0,0,0-1.1,6.8,32.2,32.2,0,0,0,.1,3.3,9.8,9.8,0,0,1-.1,2.5,2.5,2.5,0,0,1-1.2,1.3,3.3,3.3,0,0,1-1.5.3,7.9,7.9,0,0,1-2.9-.6,4.4,4.4,0,0,1-2.4-2,2.5,2.5,0,0,1-.4-1.6,6.9,6.9,0,0,1,.6-2.5.5.5,0,0,1,.6-.2.4.4,0,0,1,.2.5,6.6,6.6,0,0,0-.6,2.2,2.4,2.4,0,0,0,.3,1.2,3.6,3.6,0,0,0,2,1.6,8.8,8.8,0,0,0,2.6.6l1.2-.2a1.3,1.3,0,0,0,.7-.9,12.2,12.2,0,0,0,.1-2.1,18.4,18.4,0,0,1-.1-3.4A29.4,29.4,0,0,1,288,224l.7-1.8c.1-.4.2-.7.1-.9"/></g></g></g></svg>