<svg id="Ebene_1" data-name="Ebene 1" xmlns="http://www.w3.org/2000/svg" xmlns:xlink="http://www.w3.org/1999/xlink" viewBox="0 0 271.3 61"><defs><style>.cls-1{fill:none;}.cls-2{opacity:0;}.cls-3{clip-path:url(#clip-path);}</style><clipPath id="clip-path"><rect class="cls-1" x="-73.6" y="-48.1" width="419.5" height="297.64"/></clipPath></defs><g class="cls-2"><path d="M208.1,16.7V15.6h2.2V7l-2.2.6V6.5l3.6-.9v10h2.2v1.1Z"/><path d="M216.4,16.7V15.4a12.2,12.2,0,0,1,2.5-3.2l.9-.7a4.3,4.3,0,0,0,1.6-2.9,1.7,1.7,0,0,0-.6-1.4,1.7,1.7,0,0,0-1.5-.5,5.1,5.1,0,0,0-2.6.8V6.3a5.8,5.8,0,0,1,2.8-.7,3.4,3.4,0,0,1,2.5.8,2.8,2.8,0,0,1,.9,2.2,2.6,2.6,0,0,1-.5,1.7,8.9,8.9,0,0,1-1.7,1.8l-.6.5a5.9,5.9,0,0,0-2,2.8h4.8v1.3Z"/></g><g class="cls-2"><path d="M229.3,15.7,225.5,5.6h1.4l3.2,8.3,3-8.3h1.3l-3.7,10.1Z"/></g><g class="cls-2"><path d="M240.5,17.1V15.8a7.8,7.8,0,0,0,2.1.4,2.4,2.4,0,0,0,1.7-.6,2.6,2.6,0,0,0,.6-1.8c0-1.6-1.1-2.4-3.4-2.4h-.8V6.1h5.5V7.4H242v2.9a4.9,4.9,0,0,1,3.2.9,3.4,3.4,0,0,1,1.2,2.7,3,3,0,0,1-1,2.5,4.7,4.7,0,0,1-3,.9Z"/><path d="M249.8,17.1V15.8a7.8,7.8,0,0,0,2.1.4,2.5,2.5,0,0,0,1.7-.6,2.6,2.6,0,0,0,.6-1.8c0-1.6-1.2-2.4-3.4-2.4H250V6.1h5.5V7.4h-4.2v2.9a4.9,4.9,0,0,1,3.2.9,3.4,3.4,0,0,1,1.2,2.7,2.8,2.8,0,0,1-1.1,2.5,4.4,4.4,0,0,1-2.9.9Z"/><path d="M260.1,17,257.3,6.1h1.5l2.2,8.6,2-8.6h1.5l2,8.5,2.4-8.5h1.2l-3,10.9h-1.6l-1.9-8.4-2,8.4Z"/></g><g class="cls-2"><path d="M2.3,47.2a2.6,2.6,0,0,1-2-.7,3,3,0,0,1-.7-2V39.2H-1.5V38H-.4V36.3H1.3V38H3.6v1.2H1.3v5Q1.3,46,2.8,46h.8V47A3.2,3.2,0,0,1,2.3,47.2Z"/></g><g class="cls-2"><path d="M25.4,47.4V46.1H28V35.8l-2.6.7V35.1L29.7,34V46.1h2.6v1.3Z"/></g><g class="cls-2"><path d="M137.7,43.8V42.7a3.9,3.9,0,0,0,1.8.4,1.7,1.7,0,0,0,1.4-.6,1.8,1.8,0,0,0,.6-1.5q0-2.1-3-2.1h-.6V34.4h4.7v1.1H139V38a4.1,4.1,0,0,1,2.8.8,2.6,2.6,0,0,1,1,2.3,2.9,2.9,0,0,1-.9,2.2,4,4,0,0,1-2.6.7A4.7,4.7,0,0,1,137.7,43.8Z"/><path d="M148.4,44a2.7,2.7,0,0,1-2.4-1.3,6.6,6.6,0,0,1-.9-3.6,6.4,6.4,0,0,1,.9-3.6,2.8,2.8,0,0,1,4.8,0,6.4,6.4,0,0,1,.9,3.6,6.4,6.4,0,0,1-.9,3.6A2.7,2.7,0,0,1,148.4,44Zm0-.9c1.3,0,2-1.4,2-4.1s-.7-3.9-2-3.9-2,1.3-2,4S147.1,43.1,148.4,43.1Z"/><path d="M153.7,43.8V36.9H155v1.3a2.7,2.7,0,0,1,2.3-1.5,1.8,1.8,0,0,1,1.9,1.5,2.7,2.7,0,0,1,2.3-1.5,2,2,0,0,1,1.5.6,2.1,2.1,0,0,1,.5,1.5v5h-1.3V39q0-1.2-.9-1.2a2.6,2.6,0,0,0-2.1,1.4v4.6H158V39c0-.8-.4-1.2-1-1.2a2.7,2.7,0,0,0-2,1.4v4.6Z"/></g><g class="cls-2"><path d="M139.8,65.2V53.6h3a4.5,4.5,0,0,1,2.7.7,2.1,2.1,0,0,1,.9,1.9q0,2.1-2.4,3c1.9.5,2.8,1.6,2.8,3.1a2.8,2.8,0,0,1-.9,2.2,4.1,4.1,0,0,1-2.7.7Zm1.6-6.5h.5a3.3,3.3,0,0,0,2.1-.6,1.8,1.8,0,0,0,.7-1.6c0-1.1-.9-1.7-2.7-1.7h-.6Zm0,5.3h.3a6.2,6.2,0,0,0,2.4-.3,1.5,1.5,0,0,0,1-1.6,2.2,2.2,0,0,0-.9-1.7,4.2,4.2,0,0,0-2.3-.7h-.5Z"/><path d="M154.1,65.2V63.6a3.5,3.5,0,0,1-3,1.8,2.3,2.3,0,0,1-1.8-.7,2.9,2.9,0,0,1-.6-1.9V56.7h1.5v5.6a2.6,2.6,0,0,0,.3,1.4,1.3,1.3,0,0,0,.9.4c.9,0,1.8-.7,2.7-1.9V56.7h1.5v8.5Zm-4.2-10.1V53.8h1.4v1.3Zm3.1,0V53.8h1.4v1.3Z"/></g><g class="cls-3"><path d="M236.9,37.5a14.6,14.6,0,0,0-1.9-7.2,14.3,14.3,0,0,0-12.3-7,14.6,14.6,0,0,0-7.2,1.9,14.2,14.2,0,0,0-7,12.3,14.6,14.6,0,0,0,1.9,7.2,14.3,14.3,0,0,0,12.3,7,14.6,14.6,0,0,0,7.2-1.9,14.3,14.3,0,0,0,7-12.3m.9,0a15,15,0,0,1-7.5,13,14.9,14.9,0,0,1-7.6,2,15,15,0,1,1,15.1-15"/><path d="M212,47.5a.6.6,0,0,1-.6,0c-.1-.2-.1-.5.1-.6l22.2-19c.2-.2.5-.2.6,0s.1.4,0,.6Z"/><path d="M210.8,29a.5.5,0,0,1-.1-.6c.1-.2.4-.2.6-.1l22.9,18.2a.5.5,0,0,1,.1.6c-.1.2-.4.2-.6.1Z"/><path d="M127.9,30a.4.4,0,1,1,.8,0V45.9a.4.4,0,0,1-.8,0Z"/><path d="M128.3,46.3a.4.4,0,1,1,0-.8h47.5a.4.4,0,1,1,0,.8Z"/><path d="M128.3,30.5a.5.5,0,0,1-.4-.5.4.4,0,0,1,.4-.4h47.5a.4.4,0,0,1,.4.4.5.5,0,0,1-.4.5Z"/><path d="M175.4,30a.4.4,0,0,1,.8,0V45.9a.4.4,0,0,1-.8,0Z"/><path d="M33.4,27.1a.4.4,0,0,1-.4.4.5.5,0,0,1-.5-.4V26a.5.5,0,0,1,.5-.4.4.4,0,0,1,.4.4V37.4c0,2.6,0,5.1-.2,6.9a8.5,8.5,0,0,0,0,1.6c0,.7-.1,1.3-.1,1.7v.2h0s-.1-.1,0-.1h0a.4.4,0,0,1,.6,0c.1.2.1.5-.1.6l-.4.2a.4.4,0,0,1-.5,0c-.2-.1-.3-.2-.3-.4a.4.4,0,0,1-.1-.3V45.9a10.9,10.9,0,0,1,.1-1.7c.1-1.7.2-4.2.2-6.8V31.9c-.1-1.7-.1-3.3-.1-4.6V26a.5.5,0,0,1,.5-.4.4.4,0,0,1,.4.4v1.1"/><path d="M26.5,31.3a.3.3,0,0,1,.3-.5.4.4,0,0,1,.5.2,19,19,0,0,1,.1,4.2v5.3a1.4,1.4,0,0,1,.2.7,2.7,2.7,0,0,1,.2,1.2v.2h-.1l-.5.2c-.2-.1-.2-.2-.2-.3h0a1.1,1.1,0,0,1-.1-.6.5.5,0,0,1,.4-.5.4.4,0,0,1,.4.4,1.2,1.2,0,0,0,.1.5h-.1s-.1-.1,0-.1h-.3s-.2.1-.2,0-.2.2-.1.2H27a5.8,5.8,0,0,0-.2-1,4.5,4.5,0,0,0-.2-.8V35.2a22.5,22.5,0,0,0-.1-3.9"/><path d="M1.2,32a.4.4,0,0,1,.4-.4A.4.4,0,0,1,2,32a7.8,7.8,0,0,1-.1,1.3,15,15,0,0,1-.2,2c-.1,1.2-.3,2.6-.4,3.6v1.4c0,.6.1,1.2.1,1.4s0,0,0,.1H1.2l.2-.3a.4.4,0,0,1,.6-.1.4.4,0,0,1,.1.5,1.2,1.2,0,0,1-.7.7l-.6-.2A.4.4,0,0,1,.7,42a4.7,4.7,0,0,1-.2-1.7V38.9a24.6,24.6,0,0,1,.4-3.7A28.6,28.6,0,0,0,1.2,32"/><path d="M270.4,31.8a.4.4,0,0,1,.4-.4.5.5,0,0,1,.5.4V43.3c0,.3-.2.4-.5.4a.4.4,0,0,1-.4-.4Z"/><path d="M2.2,36.3c0,.3-.2.4-.5.4a.4.4,0,0,1-.4-.4.4.4,0,0,1,.4-.4.5.5,0,0,1,.5.4"/><path d="M1.6,38a.4.4,0,0,1-.4-.4c0-.3.1-.4.4-.4H26.2a.4.4,0,0,1,.4.4.4.4,0,0,1-.4.4Z"/><path d="M33.2,38a.4.4,0,0,1-.4-.4.4.4,0,0,1,.4-.4h95.1a.4.4,0,0,1,.4.4.4.4,0,0,1-.4.4Z"/><path d="M175.8,38a.4.4,0,0,1-.4-.4.4.4,0,0,1,.4-.4h31.7a.4.4,0,0,1,.4.4.4.4,0,0,1-.4.4Z"/><path d="M237.3,37.8a.4.4,0,0,1,0-.8h33.5a.4.4,0,1,1,0,.8Z"/><path d="M.8,33.7a.4.4,0,0,1-.4.4.4.4,0,0,1-.4-.4.5.5,0,0,1,.4-.5c.3,0,.4.2.4.5"/><path d="M.9,34.4a.4.4,0,0,1,.4-.4.4.4,0,0,1,.4.4h0c0,.5-.1,1.3-.1,2.2s-.2,2.2-.3,3v.8H1.2c.1,0,0-.2,0-.1s-.1-.1,0-.1-.2-.1-.1-.1H.7c.1-.1-.2.1-.1.1s-.1.1-.1.1h0a.3.3,0,0,1,.5-.3c.2,0,.3.2.3.4s0,.2-.1.3a.3.3,0,0,1-.1.2H.9c-.3,0-.4-.2-.4-.3v-.2c0-.2.1-.5.1-.8s.2-1.9.3-3.1.1-1.6.1-2.1v-.2h0m.5,6.4a.3.3,0,0,1-.5,0,.4.4,0,0,1,0-.6H.8V39a22.6,22.6,0,0,1,.1-2.6v-2h0a.4.4,0,0,1,.4-.4.4.4,0,0,1,.4.4V39a3.1,3.1,0,0,1-.1,1c0,.3.1.5-.2.8M1,33.5a.4.4,0,0,1,.4-.4.5.5,0,0,1,.4.5h0c0,.4-.1,1.1-.1,2s-.1,2.4-.1,3.3a2.7,2.7,0,0,0,0,.9v.5h0a.4.4,0,0,1-.4.4.5.5,0,0,1-.5-.4h0V38.9c.1-1,.1-2.2.2-3.3A11.6,11.6,0,0,1,1,33.5H1m.6,8.1a.4.4,0,0,1-.6.2.4.4,0,0,1-.2-.5h0V40.1a24.4,24.4,0,0,0,.1-2.8A25.4,25.4,0,0,0,1,34.7V33.6H1c0-.3.1-.5.4-.5a.4.4,0,0,1,.4.4h0v3.7c-.1,1-.1,2-.2,2.9v1.4m-.6-7a.4.4,0,0,1,.4-.4.4.4,0,0,1,.4.4h0v1.9c-.1.9-.1,1.9-.2,2.8v2.1h0a.5.5,0,0,1-.3.5.4.4,0,0,1-.5-.3c-.1-.1,0-.1,0-.1V39.3a26.2,26.2,0,0,0,.1-2.8A16.7,16.7,0,0,0,1,34.6H1M1.7,41a.6.6,0,0,1-.6.3.4.4,0,0,1-.2-.6A16,16,0,0,1,1,39V34.7H1a.4.4,0,0,1,.4-.4.4.4,0,0,1,.4.4h0V39a4.5,4.5,0,0,1-.1,1.2V41M.9,33.8a.4.4,0,0,1,.4-.4.4.4,0,0,1,.4.4h0v7h0a.5.5,0,0,1-.4.5.4.4,0,0,1-.4-.4h0v-.3a2.6,2.6,0,0,1,0-.9V33.8h0m.4,6.7c0,.2-.2.3-.4.3s-.4-.2-.4-.5h0a10.5,10.5,0,0,0,.1-1.2c0-.7.1-1.5.1-2.3a18.3,18.3,0,0,0,.2-2.1v-.9h0c0-.2.2-.3.4-.3a.4.4,0,0,1,.4.4h0v1c0,.6-.1,1.3-.1,2.1s-.1,1.5-.2,2.2-.1,1.1-.1,1.3h0M.6,33.6a.5.5,0,0,1,.6-.1c.2.1.2.4.1.6h.1c-.1,0,0-.1,0-.1h0v2.9c0,.8-.1,1.6-.1,2.3v1.1h0a.4.4,0,0,1-.4.4.4.4,0,0,1-.4-.4h0V34.6a1.5,1.5,0,0,1,.1-.7h0s-.1,0,0-.2m.6,7.9a.4.4,0,0,1-.5-.2.4.4,0,0,1,.2-.5H.7V39.6c0-.9,0-1.9-.1-3V34h0s.1.1,0,.1a.5.5,0,0,1,.1-.6c.2-.1.5-.1.6.1v.2h0v2.7c.1,1,.1,2,.1,3v1.5c0,.1,0,.1-.1.2s0,.1-.2.2M0,32.9c.1-.2.3-.4.5-.3a.3.3,0,0,1,.3.5h0A7.5,7.5,0,0,1,1,34.2V39c0,.3.1.6.1.8h0s-.1-.1-.1,0-.2-.1-.1-.1H.7c.1,0-.1.1-.1.1H.5a29.1,29.1,0,0,0,0-3V33.6H.6c0-.1.2,0,.2,0H1c-.1,0,.1-.1.1-.1h0c0,.1.1,0,.1,0h0c-.1.1,0,.5,0,.8s-.1,2.6,0,4,.1,1.5.1,2.1.1.3.1.4H1.3a.5.5,0,0,1,.1.6.4.4,0,0,1-.6,0,.1.1,0,0,1-.1-.1c-.2-.3-.1-.5-.2-.8S.4,39.1.4,38.3s0-2.8,0-3.9-.1-.7-.1-1a.4.4,0,0,0,.1-.3c.1,0,.1-.1.2-.2s.4,0,.4.1l.3.3v3.4c0,1.2.1,2.4,0,3.2v.2l-.2.3H.5A.4.4,0,0,1,.4,40a2.4,2.4,0,0,1-.2-.9V37.4a30.1,30.1,0,0,0-.1-3.1c0-.5-.1-.9-.1-1.2v-.2m.7.7c-.1.2-.4.2-.6.1a.6.6,0,0,1,0-.6c0-.1-.1.1-.1.1H0a.4.4,0,0,1,.4-.4.4.4,0,0,1,.4.4h0v.2h0c0,.1,0,.1-.1.2m-.6,0c-.2-.2-.1-.4.1-.6a.3.3,0,0,1,.5.1S.6,33,.7,33s.2.4,0,.6a.3.3,0,0,1-.5.1H.1"/><path d="M26.9,36.8c0-.3.2-.4.5-.4a.5.5,0,0,1,.3.5h0v1.7a17.7,17.7,0,0,1-.1,2.4,3,3,0,0,1-.2,1,.8.8,0,0,1-.1.4h-.2a.4.4,0,0,1-.5-.1.3.3,0,0,1-.1-.2,17,17,0,0,1-.1-2.4c0-1.3.1-2.5,0-3.6l-.3-1.6V32.8c0-.2.2-.4.4-.3a.4.4,0,0,1,.4.4v5.3a20.3,20.3,0,0,1-.1,2.9.5.5,0,0,1-.5.4c-.2-.1-.4-.3-.3-.5s.1-1.5.1-2.8V32.8h.8v.9a1.9,1.9,0,0,0,.1.8,11.1,11.1,0,0,0,.2,1.7c.1,1.1,0,2.3,0,3.6a12.2,12.2,0,0,0,.1,2.2h0s-.1-.1-.1,0h-.4c.1-.1-.2.1-.1,0h-.1a2.4,2.4,0,0,0,.2-.9,15.5,15.5,0,0,0,.1-2.3,9.6,9.6,0,0,1,0-1.7v-.2h0m0-2.9a.4.4,0,0,1,.6-.1c.2.1.2.3.1.5h0c0,.1.1-.1.1-.1h0c-.1.3-.1.9-.2,1.6s-.2,2.2-.2,3.2a3.4,3.4,0,0,1-.1,1.1v.8h0s-.1-.1,0-.1.1.5-.1.6a.5.5,0,0,1-.6-.1c-.2-.2-.1-.3-.1-.4s.1-.2.1-.4.1-.5.1-.8.2-1.9.3-2.5v-.2h0c-.1-.2.1-.4.3-.5s.5.2.5.4v.3c-.1.7-.1,1.7-.3,2.6s-.1.7-.1.9-.1.2-.1.3h0s-.1-.2,0-.2l-.7.5c-.2-.2-.1-.2-.1-.3v-.8c0-.3.1-.7.1-1.1s.1-2.2.2-3.3.1-1.3.2-1.6v-.2h0m-.2-.5a.5.5,0,0,1,.3-.5.5.5,0,0,1,.5.4h0c0,.4-.1,1.3-.1,2.3l-.3,3v1.4a6.6,6.6,0,0,0-.1,1.1h-.8c0-.3.1-.7.1-1.3s.3-2.5.5-3.7a7.1,7.1,0,0,1,.1-1.6v-.5h0a.5.5,0,0,1,.2-.6.3.3,0,0,1,.5.3h.1v.7c0,.4-.1,1-.1,1.7s-.4,2.7-.5,3.7a10.4,10.4,0,0,1-.1,1.1c.1.2-.1.4-.3.4s-.4-.1-.5-.3V40.1c0-.4.1-.9.1-1.4s.2-2,.2-3,.2-1.9.2-2.3h0m.2,7.6a.4.4,0,0,1-.5.2.3.3,0,0,1-.3-.5h0a7.2,7.2,0,0,1,.1-1.3,18,18,0,0,1,.2-2.2,22.8,22.8,0,0,1,.2-2.7,2.8,2.8,0,0,1,.1-1v-.3h0a.4.4,0,1,1,.8.2h0v.3a2.8,2.8,0,0,0-.1,1c-.1.8-.1,1.7-.2,2.7s-.1,1.5-.2,2.1-.1,1.1-.1,1.3V41m-.4-6.5c-.1-.2.1-.4.3-.5a.7.7,0,0,1,.5.4h0c0,.5-.1,1.3-.2,2.3a24.8,24.8,0,0,1-.2,2.9v1.1h0a.7.7,0,0,1-.4.5.4.4,0,0,1-.4-.4h0V39.7c.1-.9.1-1.9.2-3s.1-1.8.2-2.2h0m.5,5.8c-.1.2-.3.4-.5.3s-.4-.2-.3-.4h0c0-.4.1-1.8.1-3.2a15.6,15.6,0,0,0,.1-2,.7.7,0,0,1,.1-.5h0c0-.2.3-.3.5-.3a.5.5,0,0,1,.3.5h0a1.8,1.8,0,0,1-.1.6V37c-.1,1.4-.2,2.8-.2,3.2h0m-.6-5.8a.5.5,0,0,1,.5-.3c.3.1.4.3.3.5h0c0,.3-.1.8-.1,1.5a22.6,22.6,0,0,0-.1,2.6v1.4h0a.4.4,0,0,1-.4.4c-.2.1-.4-.1-.4-.3h0V38.8a25.3,25.3,0,0,1,.1-2.7c0-.6.1-1.2.1-1.5h0m-.1.7a.3.3,0,0,1,.3-.5c.2,0,.5.1.5.4h0v.4a31.1,31.1,0,0,0-.2,3.4,6.5,6.5,0,0,0,0,1.4v.4h-.1s-.1-.1,0-.1-.3-.1-.2,0h-.5c.1-.3.1-1,.2-1.8s.1-2.1.1-3V34.7h0a.4.4,0,0,1,.8,0h0c.1.1,0,.1,0,.1v.4a2.6,2.6,0,0,1,0,.9c0,.9,0,2-.1,3.1s-.1,1.4-.2,1.9h0c0,.1-.1.1-.1.2h-.4c-.3-.1-.3-.3-.3-.3h0a1.3,1.3,0,0,1-.1-.6,7.1,7.1,0,0,1,.1-1.4,31.6,31.6,0,0,1,.2-3.5v-.3h0m.5,5.6a.4.4,0,0,1-.8,0h0v-2a21.2,21.2,0,0,0,.2-2.4,2,2,0,0,0,.1-.7v-.6h0a.4.4,0,0,1,.4-.4.4.4,0,0,1,.4.4h0v.6a2,2,0,0,1-.1.7c0,.8-.1,1.7-.1,2.5a15.8,15.8,0,0,0-.1,1.9m-.1-7.7a.5.5,0,0,1,.6-.2.3.3,0,0,1,.1.5,19.4,19.4,0,0,0-.4,3.8,19.5,19.5,0,0,0-.2,2.3v1.2h0a.4.4,0,0,1-.4.4.4.4,0,0,1-.4-.4h0V39.4c0-.7.1-1.5.1-2.3l.3-2.4a3.5,3.5,0,0,1,.3-1.6"/><path d="M143.7,33.8a.5.5,0,0,1-.5.3c-.2-.1-.4-.3-.3-.5h0s.3.2.2.2.1,0,.1,0h0l-.5.3-.5.7a.6.6,0,0,0,.1.4h.8a1.6,1.6,0,0,1,1.1.5,2.4,2.4,0,0,1,.3,1.2,2.6,2.6,0,0,1-1.5,1.9,3.7,3.7,0,0,1-2.7.5.4.4,0,0,1-.2-.5.4.4,0,0,1,.5-.3,2.6,2.6,0,0,0,2-.4,2.2,2.2,0,0,0,1.1-1.3.8.8,0,0,0-.2-.5.5.5,0,0,0-.5-.3h-.6a1.1,1.1,0,0,1-.8-.3,1.4,1.4,0,0,1-.2-1.1,2.6,2.6,0,0,1,.7-1.1,1.4,1.4,0,0,1,.9-.5c.1-.1.2-.1.4,0l.3.2a1.6,1.6,0,0,1,0,.7"/><path d="M142.8,34.1c-.2.1-.4.1-.5-.1s-.1-.4,0-.6a8.1,8.1,0,0,1,3.5-.9,16.4,16.4,0,0,1,3.8-.1c.2.1.4.3.3.5s-.2.4-.4.3c-2-.2-5.5.1-6.7.9"/><path d="M147.3,35.2a.6.6,0,0,1,.6,0c.2.2.2.5,0,.6a4.9,4.9,0,0,0-.6,2.2.8.8,0,0,0,.5.7h1a6.3,6.3,0,0,0,2.4-2,4,4,0,0,0,.7-1.2c.1-.3.2-.5.1-.5h0c0-.1-.1-.1-.2-.1s-.5,0-.9,0a3.8,3.8,0,0,0-2,1,.4.4,0,0,1-.6-.6,4.2,4.2,0,0,1,2.5-1.2,2.4,2.4,0,0,1,1.2,0l.4.2.4.4c.2.4,0,.7-.1,1a3,3,0,0,1-.9,1.5,6.2,6.2,0,0,1-2.8,2.3,2.5,2.5,0,0,1-1.5-.1,1.5,1.5,0,0,1-1-1.4,4.1,4.1,0,0,1,.8-2.8"/><path d="M155.3,36.3a.4.4,0,0,1,.4-.4.5.5,0,0,1,.4.5,6.1,6.1,0,0,1-.3,1.1,3.1,3.1,0,0,0-.2.8v.2h0s-.1-.1,0-.1h-.4l.3-.4a5,5,0,0,1,.8-1.2l.4-.5a.6.6,0,0,1,.7-.1c.2,0,.3.2.4.4a4,4,0,0,1,0,1.1,1.3,1.3,0,0,0-.1.6.1.1,0,0,0-.1.1h0c0,.1-.1-.1-.1-.1h.1l.6-.4a9.4,9.4,0,0,1,1.5-.6,1,1,0,0,1,.9.1,1.1,1.1,0,0,1,.3.8,3.1,3.1,0,0,1-.5,2c-.1.2-.3.2-.5.1a.4.4,0,0,1-.2-.5,2.6,2.6,0,0,0,.4-1.5c0-.2,0-.3-.1-.3h-.1a5.6,5.6,0,0,0-1.3.7l-.7.3-.3.2h-.5a.5.5,0,0,1-.3-.4v-.4a.9.9,0,0,0,.1-.5,3.2,3.2,0,0,0,.1-.7h0c0-.1.1,0,.1,0h.1l-.3.4-.7,1.1-.3.5c-.2.2-.2.3-.6.4l-.4-.2a.4.4,0,0,1-.1-.3v-.4c.1-.3.1-.6.2-1a2.3,2.3,0,0,0,.3-.9"/><path d="M208.2,11.4a.4.4,0,1,1,0,.8h-.6a.7.7,0,0,1-.4-.5,1.2,1.2,0,0,1,.4-1.1A9.4,9.4,0,0,1,209,8.9l2.6-2.8a29.1,29.1,0,0,1,2.3-2l.3-.3c.1,0,.2-.2.5-.2a.5.5,0,0,1,.4.3v.2c.1.1,0,.3,0,.4a3.2,3.2,0,0,1-.3.9c-.2.6-.6,1.1-.8,1.6a9.6,9.6,0,0,0-1,2.2v.2h.4c.3,0,.5.1.5.4s-.1.4-.3.4a1.1,1.1,0,0,1-1.1-.2c-.3-.2-.3-.6-.3-.9a8.1,8.1,0,0,1,1-2.5,10.9,10.9,0,0,0,.8-1.5,1.6,1.6,0,0,0,.3-.8h.4l-.3.3a16.2,16.2,0,0,0-2.2,1.9l-2.6,2.8-1.3,1.4-.3.4h.2"/><path d="M218.2,5.4a.4.4,0,0,1-.4.4.7.7,0,0,1-.4-.5,1.6,1.6,0,0,1,.4-.7l.6-.4,1.5-.2.6.2a.8.8,0,0,1,.4.6,2.4,2.4,0,0,1,0,1.2A8.3,8.3,0,0,1,219,8.3l-1.7,2-.4.4h-.2l1.7-.2,1.2-.2a2.3,2.3,0,0,1,1.2.6.5.5,0,0,1-.1.6.5.5,0,0,1-.6-.1c-.1-.2-.3-.2-.5-.2a2.2,2.2,0,0,0-1.1.1,3.8,3.8,0,0,1-2.1.1l-.3-.2c-.1-.1-.1-.2-.1-.4l.2-.4.5-.6,1.7-1.9a9.2,9.2,0,0,0,1.7-2.1.8.8,0,0,0,0-.7h-.3a2.2,2.2,0,0,0-1.1.1l-.3.2c-.1.1-.1.2-.2.2"/><path d="M228.4,4.4a.4.4,0,0,1-.4.4.5.5,0,0,1-.4-.5V4.1h.2c-.1,0,.2.1.1.1h.2c-.1,0,.2-.1.1-.1h.2c0,.1,0,.1-.1.3l-.5,1.8a20.2,20.2,0,0,0-.3,3.3v.8h.2a5.4,5.4,0,0,0,.8-.8,13.6,13.6,0,0,1,1.2-1.7,10.8,10.8,0,0,1,3.2-3.2.4.4,0,0,1,.6.1c.1.2.1.5-.1.6a8.9,8.9,0,0,0-3.1,3l-1.2,1.7c-.4.5-.7,1-1.3,1.1h-.5a.7.7,0,0,1-.5-.4c-.2-.3-.1-.7-.1-1.2a22.6,22.6,0,0,1,.3-3.5c.2-.8.4-1.4.5-1.9a.4.4,0,0,0,.1-.3s0-.1.2-.2.2-.2.4-.1.3.3.3.3v.4"/><path d="M241.9,0a.4.4,0,0,1,.5.2.5.5,0,0,1-.2.6h.1a5.4,5.4,0,0,1-.4.8l-1.6,2.9-3,5.5a16.1,16.1,0,0,1-1.2,2.3,5.9,5.9,0,0,0-.5,1.4c-.1.2-.3.4-.5.3s-.4-.2-.3-.4a8.4,8.4,0,0,1,1-2.3c1.6-3.3,4.2-7.7,5.3-10l.4-.7a.9.9,0,0,1,.4-.5"/><path d="M246.5,5a.5.5,0,0,1-.5.3c-.2-.1-.4-.3-.3-.5h0s.1.2.1.1.1.1.1.1h-.3a3.2,3.2,0,0,0-1.1,1.2,1.7,1.7,0,0,0-.1.7h.1l.5.2h.8l.5.5a1.3,1.3,0,0,1,.1.6,2.1,2.1,0,0,1-.5,1.2,4.8,4.8,0,0,1-1.1.9,1.9,1.9,0,0,1-1.5.1.4.4,0,0,1-.2-.5c.1-.2.3-.4.5-.3a1.1,1.1,0,0,0,.8,0,2.7,2.7,0,0,0,.8-.7,2,2,0,0,0,.4-.8V8h-.7l-.7-.2a.7.7,0,0,1-.6-.7,1.7,1.7,0,0,1,.2-1.2,4.1,4.1,0,0,1,1.4-1.5c.3-.1.5-.3.8-.2a.7.7,0,0,1,.5.4V5"/><path d="M245.8,5a.4.4,0,0,1-.6.2.4.4,0,0,1-.2-.5,1.3,1.3,0,0,1,.9-.7H247l2.4.3a.4.4,0,0,1,.4.4.4.4,0,0,1-.4.4l-2.5-.3H246l-.2.2"/><path d="M252.5,5.4a.4.4,0,0,1,.4.4c0,.3-.2.4-.5.4l-.8.2-.7.7a.9.9,0,0,0-.1.5s-.1-.1,0-.1h.1l.4.3c.2.1.4.1.5.3a.9.9,0,0,1,.3.6,1.4,1.4,0,0,1-.2.6,2.3,2.3,0,0,1-.8.9,2.3,2.3,0,0,1-1.2.6,1.6,1.6,0,0,1-1.3-.3.3.3,0,0,1-.1-.5c.2-.2.4-.3.6-.1a.8.8,0,0,0,.7.1,1.2,1.2,0,0,0,.8-.4,1.9,1.9,0,0,0,.6-.7V8.8h0l-.3-.2-.5-.3c-.2-.2-.5-.4-.5-.8a1.3,1.3,0,0,1,.3-.8,3.2,3.2,0,0,1,1-1,2.1,2.1,0,0,1,1.3-.3"/><path d="M251.9,6.5a.3.3,0,0,1-.5.1.4.4,0,0,1-.1-.6,1.3,1.3,0,0,1,.7-.5h3.1a.5.5,0,0,1,.4.5.5.5,0,0,1-.5.3h-2.7l-.4.2"/><path d="M258.6,5.2a.4.4,0,0,1-.6-.1.3.3,0,0,1,.1-.5l.4-.2a.9.9,0,0,1,.5.3,2.2,2.2,0,0,1,0,.8l-.8,2c-.3.8-.7,1.5-.9,2.1s-.1.5-.1.7h-.1s-.2,0-.1-.1h.3l.7-.6.6-.4a.6.6,0,0,1,.7-.1c.2.1.3.4.4.6a7.1,7.1,0,0,1-.1,1.4c0,.3-.1.6-.1.8h.2l.9-1.1a62.7,62.7,0,0,1,6.8-6.9.3.3,0,0,1,.5,0,.4.4,0,0,1,0,.6,52.1,52.1,0,0,0-6.6,6.8c-.5.5-.8,1.2-1.4,1.4a1.1,1.1,0,0,1-.8-.2.8.8,0,0,1-.4-.7,2.8,2.8,0,0,1,.1-.9,10.4,10.4,0,0,1,.1-1.1.1.1,0,0,0-.1-.1s.1.1.1,0h.1l-.5.3-.7.6-.5.3h-.5c-.2,0-.3-.2-.4-.4v-.3a2.9,2.9,0,0,1,.2-.9,19.5,19.5,0,0,1,.8-2.2c.4-.8.6-1.5.8-1.9V5h.1c-.1,0,.2.1.1.1h.2"/><path d="M142.6,51.2a.5.5,0,0,1,.5-.3c.2.1.4.3.3.5l-.2,2.4c-.1.9-.1,1.7-.2,2.5V58a.9.9,0,0,1-.1.7l-.7-.3s-.1.2-.1.1.1.1,0,.1h0a.3.3,0,0,0-.1-.2c0-.2-.2-.4-.2-.6a10.5,10.5,0,0,1,.4-5.2,4.3,4.3,0,0,1,1.2-1.7,2.7,2.7,0,0,1,1.2-.3,1.6,1.6,0,0,1,1.2.8,1.2,1.2,0,0,1,.2.8l-.3.9-.9,1.4a1.7,1.7,0,0,0-.2.5,3.8,3.8,0,0,0,.7.8,8.7,8.7,0,0,1,1.7,3.3.3.3,0,0,1-.3.5.4.4,0,0,1-.5-.2c-.5-1.2-.6-2.2-1.4-3a1.5,1.5,0,0,1-.7-2.3c.2-.5.6-.9.8-1.4a1.4,1.4,0,0,0,.2-.6c.1-.2.1-.2,0-.3a.7.7,0,0,0-.6-.3.7.7,0,0,0-.6.1,2.2,2.2,0,0,0-.9,1.3,8.6,8.6,0,0,0-.4,4.7,1.7,1.7,0,0,0,.2.5v.2c0,.1.2.1,0,.4s-.3.3-.5.3a.4.4,0,0,1-.2-.6h0a1.1,1.1,0,0,1,0-.6V56.3a20.9,20.9,0,0,0,.1-2.5c.1-.7.1-1.3.2-1.7a7.8,7.8,0,0,1,.1-.9"/><path d="M150.7,56.6a.4.4,0,0,1,.4.4c.1.2-.1.4-.3.4h.1l-.2.3c-.1.3-.1.6-.2,1a2.5,2.5,0,0,0-.1.8v.3h.1l.3-.2.7-.5.5-.4a.6.6,0,0,1,.6,0l.4.3c.2.5.2,1,.3,1.2h.1a5,5,0,0,0,.8-.6c.2-.2.5-.2.6,0a.3.3,0,0,1,0,.5,2.4,2.4,0,0,1-1.2.9h-.5l-.4-.4c-.4-.4-.4-1-.5-1.2s.2.1.1,0h.1l-.4.4-.8.5a1.2,1.2,0,0,1-1,.3c-.2,0-.4-.3-.5-.5a1.3,1.3,0,0,1-.1-.6,3.4,3.4,0,0,1,.1-1,4.5,4.5,0,0,1,.3-1.1.8.8,0,0,1,.2-.4.7.7,0,0,1,.5-.4"/><path d="M151.4,55.4a.5.5,0,0,1-.2-.6.4.4,0,0,1,.5-.2h0c.2-.1.4,0,.6.2a.4.4,0,0,1-.2.5l-.3.2h-.4m.5-2.8a.4.4,0,0,1,.5-.2c.2,0,.3.3.3.5s-.3.7-.4,1.1a1.7,1.7,0,0,0-.2.5,1,1,0,0,1-.1.3h0a.4.4,0,0,1-.8.2c-.1-.4.1-.6.1-.8a1.4,1.4,0,0,0,.2-.6,3.6,3.6,0,0,0,.4-1.1"/><path d="M153,53a.5.5,0,0,1,.4-.5.4.4,0,0,1,.4.4c0,.5-.1.9-.1,1.4a5.1,5.1,0,0,0-.1,1,.4.4,0,0,1-.2.5.5.5,0,0,1-.6-.2,3.3,3.3,0,0,1,.1-1.4c0-.5.1-1,.1-1.2"/></g></svg>