<svg xmlns="http://www.w3.org/2000/svg" xmlns:xlink="http://www.w3.org/1999/xlink" viewBox="0 0 50.3 80.9"><defs><style>.cls-1{fill:none;}.cls-2{isolation:isolate;}.cls-3{clip-path:url(#clip-path);}.cls-4{clip-path:url(#clip-path-3);}.cls-5{opacity:0;}.cls-6{mix-blend-mode:darken;opacity:0.42;}.cls-7{clip-path:url(#clip-path-6);}.cls-8{fill:#ff0;}.cls-9{clip-path:url(#clip-path-7);}</style><clipPath id="clip-path"><rect class="cls-1" width="110.8" height="80.93"/></clipPath><clipPath id="clip-path-3"><rect class="cls-1" x="-4.1" y="24.1" width="61.3" height="102.62"/></clipPath><clipPath id="clip-path-6"><rect class="cls-1" x="17.4" y="31.1" width="13.5" height="3.03"/></clipPath><clipPath id="clip-path-7"><rect class="cls-1" x="18.9" y="29.3" width="10.4" height="3.2"/></clipPath></defs><g class="cls-2"><g id="Ebene_1" data-name="Ebene 1"><g class="cls-3"><g class="cls-3"><g class="cls-4"><g class="cls-5"><g class="cls-4"><path d="M1.8,79.4V33h26v5H8.4V52.9H24.6v4.8H8.4V74.5H29.1v4.9Z"/><path d="M37,79.4v-34h6.2v6.4c2.4-4.8,6-7.2,10.7-7.2l1.9.2v5.8A7.9,7.9,0,0,0,53,50c-3.9,0-7.2,2.4-9.8,7V79.4Z"/></g></g></g></g><g class="cls-3"><g class="cls-6"><g class="cls-7"><path class="cls-8" d="M17.7,31.7a1.4,1.4,0,0,1,1.9-.3,1.3,1.3,0,0,1,.3,1.9c-.1.1.3-.8.2-.5v-.5c.1.2-.2-.5-.1-.4s-.6-.5-.5-.5h-.3c2.5.1,8.4-.3,10.6.2a1.4,1.4,0,0,1,1.1,1.6,1.3,1.3,0,0,1-1.6,1c-1.2-.2-7.5,0-10.1-.1h-.7a1.1,1.1,0,0,1-.9-.6,3.6,3.6,0,0,1-.2-1l.3-.6"/></g></g><g class="cls-6"><g class="cls-9"><path class="cls-8" d="M21.5,31.6a1.3,1.3,0,1,1-2.5-.9,1.7,1.7,0,0,1,.9-1.1l1-.2h2a37.9,37.9,0,0,0,4.9.3A1.3,1.3,0,0,1,29.2,31a1.2,1.2,0,0,1-1.3,1.4,26.9,26.9,0,0,1-5.2-.3H21.2c-.1,0,0-.1,0,0s.2-.2.1-.2.3-.4.2-.3"/></g></g><path d="M11.3,47.2a.5.5,0,0,1,.5-.4.4.4,0,0,1,.4.4V78.9a.4.4,0,0,1-.4.4.5.5,0,0,1-.5-.4Z"/><path d="M11.8,47.6c-.3,0-.5-.1-.5-.4a.5.5,0,0,1,.5-.4H36.3a.4.4,0,0,1,.4.4.4.4,0,0,1-.4.4Z"/><path d="M35.9,47.2a.4.4,0,0,1,.8,0V78.9a.4.4,0,1,1-.8,0Z"/><path d="M11.8,79.3a.4.4,0,1,1,0-.8H36.2a.4.4,0,0,1,0,.8Z"/><path d="M11.6,46.1c.2-.1.4.1.5.3a.5.5,0,0,1-.3.5,1.7,1.7,0,0,1-1,0l-.5-.6a4.3,4.3,0,0,0-.4-.7c-.3-.8-.8-1.3-1.3-2.6s-1-3.1-1.7-5.2-1.6-4.5-2.6-6.9C2.6,26.9.9,23.1.2,19.5A12.8,12.8,0,0,1,.4,14a11.3,11.3,0,0,1,1.3-3.3A16.5,16.5,0,0,1,7.9,4.3,30.8,30.8,0,0,1,22.3.1,46.4,46.4,0,0,1,36.4,1.4a22.2,22.2,0,0,1,7.4,3A14.5,14.5,0,0,1,48.7,9c1.5,2.2,1.8,5.1,1.6,7.9a32.9,32.9,0,0,1-1.5,6c-1.1,3.5-1.9,6.2-2.8,8.9a35.3,35.3,0,0,1-3.6,6.8l-1.6,2.9a10.8,10.8,0,0,1-1.1,1.8l-.6,1.1a3.3,3.3,0,0,0-.6.8l-.9,1.3c-.2.3-.3.7-.5,1l-.3.2-.6-.2a2.2,2.2,0,0,1-.1-.8.4.4,0,1,1,.8,0V47h0c.1,0,0-.1,0-.1h-.4c.1,0-.1.1-.1,0h0l.5-.8.9-1.3a4.7,4.7,0,0,1,.6-.9l.6-1a17.4,17.4,0,0,0,1.1-1.8c.5-.9,1-2,1.6-2.9a36.9,36.9,0,0,0,3.5-6.6L48,22.7a26.5,26.5,0,0,0,1.4-5.9A11.4,11.4,0,0,0,48,9.4a13.2,13.2,0,0,0-4.7-4.3,21.6,21.6,0,0,0-7.1-2.9A48,48,0,0,0,22.3.9,29.9,29.9,0,0,0,8.4,5a14.7,14.7,0,0,0-6,6.1,12.4,12.4,0,0,0-1.2,3.2,12.1,12.1,0,0,0-.2,5c.6,3.5,2.4,7.3,4,11.3a67.4,67.4,0,0,1,2.6,6.9c.7,2.1,1.3,3.9,1.8,5.2a27.3,27.3,0,0,0,1.3,2.5l.3.7.2.2c.1.1.2.1.4,0"/><path d="M24.9,78.9a.4.4,0,0,1,.5.2.5.5,0,0,1-.2.6H23c-.1,0,.1-.2,0-.1a.4.4,0,0,1-.5.2.5.5,0,0,1-.2-.6c.1-.2.3-.2.4-.3h2.2m-3.8.9a.4.4,0,0,1-.6-.6.1.1,0,0,0,.1-.1h.3c.1,0,.2,0,.2.1l1.1.4a4.3,4.3,0,0,0,2.1.5h1.2l.3-.2h0V80c-.1,0,.1.2,0,.1s.2.1.1.1h-.2c-.7.4-1.6.1-2.4.2a5.6,5.6,0,0,1-1.3,0,2,2,0,0,1-1-.2.9.9,0,0,1-.4-.6l-.2-.4a.3.3,0,0,0-.1-.2h0l.2-.3c.2-.2.3-.1.4-.1h.3l.4.3a2.8,2.8,0,0,0,1.5.3h2.1s-.1.2,0,.1v.2c0-.1.1.3.1.2H21.9a.4.4,0,0,1-.1-.3c0-.1,0-.3.1-.3a.6.6,0,0,1,.5-.2h.4a7.4,7.4,0,0,0,1.5,0h.8v.2h0v.2H22.4v-.2c-.1-.1,0-.4.1-.5h2.7s0-.1.1,0a.4.4,0,0,1,.2.5c0,.2-.3.3-.5.3s.1,0,.1,0H23v-.2c-.1.1-.1-.2,0-.2h2.3a.4.4,0,0,1,.4.3,1,1,0,0,1-.1.4H25l-.7.2H22.5c0,.1.1-.1,0-.1s.1-.2.1-.1v-.2c.1.1,0-.1,0-.1s-.1-.1-.1,0h0a.1.1,0,0,0,.1.1h3.1c.1,0,.2,0,.4.2a.5.5,0,0,1,0,.5h-.1l-.3.2H23.2a4.2,4.2,0,0,1-2-.5l-.4-.3h-.1s.1.1,0,.1h.4v-.2h.1c0,.1.1.2.1.4s.1.1.1.2h3.9l.5-.2h.6a.6.6,0,0,1,.1.4.5.5,0,0,1-.3.5.9.9,0,0,1-.5.3l-.9.2h-.6a5.5,5.5,0,0,1-2.4-.5l-1.1-.5h0s.3-.1.2,0h.1m5.2-.1a.3.3,0,0,1,.3.5.5.5,0,0,1-.5.3h.1l-.5.2h-3a3.7,3.7,0,0,1-1.4-.6l-.6-.4h-.3v-.2a.4.4,0,1,1,.8,0h0c0,.1-.1-.1,0-.1s-.1-.1-.1,0h0l.6.4a2.6,2.6,0,0,0,1,.4h3.4s0-.1.2,0m-6.5-.1a.3.3,0,0,1,0-.5.4.4,0,0,1,.6,0l1.7.5a8,8,0,0,0,2.9.5l1.1-.2.4-.4c.1-.1.2-.1.2-.2h0v.2h.1c-.1,0,.1.2.1.1h.2l-.5.3a4.8,4.8,0,0,1-2.4.2H22.9a3.3,3.3,0,0,1-2.1-.7h-.1l-.2-.2a.4.4,0,0,1,.1-.3c.1-.2.2-.2.3-.3h.3l.9.3a7.3,7.3,0,0,0,2.2.3h1.9c0,.1.1,0,.2.1a.5.5,0,0,1,.2.6.5.5,0,0,1-.6.1H24.2a9.3,9.3,0,0,1-2.3-.4l-1-.3h.2s.2-.1.1-.1.1-.3.1-.2v-.2h0c0,.1-.1,0-.1,0a.1.1,0,0,1,.1.1,3.8,3.8,0,0,0,1.5.5h1.4a5.8,5.8,0,0,0,2-.1l.4-.2.2-.2H27c.1,0,.2-.1.4.1a.5.5,0,0,1,.1.3c0,.1,0,.2-.1.2h-.1c0,.1-.1.2-.2.3a1.6,1.6,0,0,1-.6.5l-1.4.3a8.9,8.9,0,0,1-3.2-.5c-.8-.2-1.6-.2-2.1-.8"/><path d="M11.1,61.9c.2,0,.3.3.2.5s-.3.3-.5.2H9.7c-.1.1-.1,0-.1.1H9a.6.6,0,0,1,0-.6,1.5,1.5,0,0,1,1.1-.3H11a.1.1,0,0,1,.1.1m-1.4.6a.3.3,0,0,1,0-.5.5.5,0,0,1,.6-.1c0,.1-.1,0-.1,0s-.1-.1-.1,0h.8s-.1.1,0,.1-.1,0-.1,0a.4.4,0,0,1,.3.7H9.8a.1.1,0,0,1-.1-.1m2.2-.5a.5.5,0,0,1-.3.5.4.4,0,0,1-.5-.3c0-.1.1.2,0,.1l.2.2c-.1-.1.1,0,.1,0H10.3c-.1.2-.4.2-.6,0s-.2-.4,0-.5a.1.1,0,0,1,.1-.1h1.8q.2,0,.3.3m-2.5.3a.5.5,0,0,1,.2-.6c.2-.1.4-.1.5.1h1.4a.4.4,0,0,1,.4.4c0,.3-.2.4-.5.4H9.8c-.1,0-.2,0-.4-.2"/><path d="M38.9,61.6c.3.1.4.3.3.5a.3.3,0,0,1-.5.3H36.6q-.1,0-.3-.3c0-.2,0-.3.1-.4h2.1c.1,0,.2-.1.3.1a.4.4,0,0,1,0,.6c-.2.1-.5.1-.6-.1s.1.2.1.1.2.1.1.1h-.9a3.1,3.1,0,0,0-1.3.3c-.2.1-.5.1-.6-.1a.6.6,0,0,1,.1-.6,5.4,5.4,0,0,1,1.7-.4h1.1c.1,0,.2-.1.3.1l-.6.5h-.1a.4.4,0,0,0-.5,0h-.7s.1-.1,0-.1.2-.1.1-.1.1-.2.1-.1v-.2s-.1-.2,0-.1h1.8m-2.6-.1c.2-.1.4-.1.5.1a.4.4,0,0,1-.1.6c-.1.1-.2.1-.2.2h.1c-.1,0,0-.2,0-.1V62c0,.1-.2-.2-.1-.1h-.2c.1,0,0-.1,0-.1h.6a5.7,5.7,0,0,1,1.3,0h.5a.5.5,0,0,1,.5.3c.1.2,0,.5-.2.5h-.8a4.8,4.8,0,0,0-1.2,0h-.8a.5.5,0,0,1-.4-.3c-.1-.3.1-.4.1-.5l.4-.3"/><path d="M17.2,29.8a.4.4,0,0,1,.5-.2c.2.2.3.4.2.6h0v.3c.1,1,.1,2.7.1,3.3a.5.5,0,0,1-.5.4.4.4,0,0,1-.4-.4c.1-.5,0-2.3,0-3.3v-.6m.8.4a.5.5,0,0,1-.4.5.7.7,0,0,1-.5-.4v-.2h0s.1.2.1.1a.3.3,0,0,1,.1-.5c.2-.2.4-.1.6.1s0,.2,0,.2v.2"/><path d="M18.4,29.7a.5.5,0,0,1-.4.5.4.4,0,0,1-.4-.4v-.3l.3-.3h.5l.8.2c2,.4,4.1-.2,6.1,0a57.4,57.4,0,0,1,6,.3c.2,0,.3.2.3.5s-.2.3-.5.3-3.8-.1-5.8-.3-4,.5-6.2,0h-.7"/><path d="M30.9,30.2c-.1-.2.1-.4.3-.4a.5.5,0,0,1,.5.3c.2,1.4-.3,2.6.2,3.5a.5.5,0,0,1-.2.6.4.4,0,0,1-.5-.2c-.7-1.3-.2-2.7-.3-3.8"/><path d="M17.3,35.2a.4.4,0,0,1-.4-.4.5.5,0,0,1,.4-.5c4.6.1,9-.3,13.5-.4a.4.4,0,0,1,.4.4c0,.3-.1.5-.4.5-4.5.1-8.9.4-13.5.4"/><path d="M22.9,77.8a.3.3,0,0,1-.3.3.5.5,0,0,1-.3-.3c.1-1.9.1-3.9.1-6.2V64.2c0-1-.2-2.3-.2-3.6V48.1a25.3,25.3,0,0,1,.1-2.9V44.1a2.2,2.2,0,0,0,.1-.9V40.8a25.7,25.7,0,0,0-.6-5.2,22.3,22.3,0,0,0-1.3-4.5c-.3-.9-.6-1.9-.9-3.1s-.8-1.7-1.1-2.6a6.2,6.2,0,0,0-1.2-1.9,24.3,24.3,0,0,1-1.8-3.2,8.7,8.7,0,0,1-.4-3.6,3.4,3.4,0,0,1,.5-1.4,2,2,0,0,1,1.3-.6,1.6,1.6,0,0,1,1.4.4,2.1,2.1,0,0,1,.7,1.2l.6,1.9c.1.3.1.6.2.7h.3c.3-.3.5-1.3,1-2s.3-.3.5-.5l.9-.5a.8.8,0,0,1,.7.1l.4.4a2.5,2.5,0,0,1,.5,1.3,7.5,7.5,0,0,1,0,1.5,1.3,1.3,0,0,0,.1.6h-.1a.3.3,0,0,0,.1-.2v-.5a5.2,5.2,0,0,1,.6-1.6,2.3,2.3,0,0,1,1.4-1,2.3,2.3,0,0,1,1.4.1,2.2,2.2,0,0,1,1,.9,5,5,0,0,1,.2,1.2,4.8,4.8,0,0,0,0,1.2v.4h-.1c.1,0,0-.1,0-.1s-.2-.1-.1,0h-.3v-.2c.1-.1.1-.4.2-.6a3,3,0,0,1,.8-1.6,1.4,1.4,0,0,1,1.2-.4,1,1,0,0,1,.7.2l.3.4v1.3a8.3,8.3,0,0,1-.6,2.5,10.4,10.4,0,0,0-.4,1l-.7.8a10,10,0,0,0-1.3,2.5c-1.5,3.8-.9,8.1-.8,12.6s.4,6.8.6,10a56.3,56.3,0,0,0,.6,6.3,13.4,13.4,0,0,0,1.2,3.7,8.7,8.7,0,0,0,1.2,1.4l.6.6c.3.2.3.5.5.6h.8c.7.1,1.2.6,1.7.7h2.1a.7.7,0,0,0,.6-.6c.1-.2.2-.3.3-.2a.3.3,0,0,1,.3.3,1.3,1.3,0,0,1-1.1,1H35.9a2,2,0,0,1-1.1.1c-.7-.1-1.2-.6-1.6-.7s-.8.1-1.1-.2l-.4-.6-.7-.6a6.7,6.7,0,0,1-1.3-1.5A12.9,12.9,0,0,1,28.5,55a44.8,44.8,0,0,1-.6-6.4c-.2-3.3-.6-6.7-.6-10.1s-.7-8.9.8-12.8A8.7,8.7,0,0,1,29.5,23l.6-.7c.2-.3.2-.6.4-.9a7.1,7.1,0,0,0,.5-2.3c0-.3.1-.6.1-.9v-.3h-.5a1.1,1.1,0,0,0-.8.3,3.7,3.7,0,0,0-.7,1.4,1.1,1.1,0,0,1-.2.6c0,.1-.1.2-.1.3h-.2s-.2,0-.2-.1h-.2V18.5a3.1,3.1,0,0,0-.1-1c-.2-.2-.4-.5-.7-.6a2.1,2.1,0,0,0-1.1-.1,1.9,1.9,0,0,0-1,.8,2.4,2.4,0,0,0-.5,1.4.9.9,0,0,0-.1.5c0,.2,0,.4-.2.5s-.3.2-.4.1-.4-.1-.4-.3a1.7,1.7,0,0,1-.1-.7,7.5,7.5,0,0,1,0-1.5,3,3,0,0,0-.4-1l-.3-.3h-.2l-.8.5-.4.3a5.1,5.1,0,0,0-.4,1c-.2.5-.3.9-.7,1.1l-.5.2a.7.7,0,0,1-.6-.2,3.2,3.2,0,0,1-.3-.9,9.5,9.5,0,0,0-.5-1.8,1.7,1.7,0,0,0-.6-1,.9.9,0,0,0-.9-.3,2.3,2.3,0,0,0-1,.4,2.1,2.1,0,0,0-.3,1.2,9.1,9.1,0,0,0,.3,3.3,11.4,11.4,0,0,0,1.8,3A8.8,8.8,0,0,1,19,25.2a23.8,23.8,0,0,1,1.2,2.7,18.4,18.4,0,0,0,.8,3,33.7,33.7,0,0,1,1.4,4.6,27.3,27.3,0,0,1,.5,5.3v3.4c0,.4-.1.7-.1,1s0,1.7-.1,2.9v9.1c.1,1,.1,2,.1,3.4s.1,2.5.1,3.6,0,2.1,0,3.2v4.2c.1,2.3,0,4.3,0,6.2"/><path d="M22,76a.3.3,0,0,1,.3-.3l.2.3a5.7,5.7,0,0,0,.3,1.8c0,.1,0,.3-.2.3a.2.2,0,0,1-.3-.1,3.6,3.6,0,0,1-.3-2"/><path d="M22.5,79c-.1.1-.2.2-.4.1a.2.2,0,0,1-.1-.3h0a.1.1,0,0,0,.1-.1h.1c.1-.1.2-.2.4-.1a.6.6,0,0,1,.1.4l-.2.2h0m-.4-4.3c0-.1.1-.3.2-.3s.3,0,.3.2a7.5,7.5,0,0,1,.2,2.1c0,.4-.1.7-.1,1.1a4.3,4.3,0,0,1-.1.5,1.8,1.8,0,0,0-.1.5c0,.2-.1.3-.2.3s-.3,0-.3-.2,0-.5,0-.7l.2-.5a3.4,3.4,0,0,1,.1-1,6.5,6.5,0,0,0-.2-2"/></g></g></g></g></svg>