<?xml version="1.0" encoding="UTF-8"?><svg id="a" xmlns="http://www.w3.org/2000/svg" xmlns:xlink="http://www.w3.org/1999/xlink" viewBox="0 0 367.3 268.7"><defs><style>.c{fill:none;}.d{fill:#ed3624;}.e{fill:#1749b3;}.f{clip-path:url(#b);}.g{opacity:0;}</style><clipPath id="b"><rect class="c" x="-16.1" y="-8" width="419.5" height="297.6"/></clipPath></defs><g class="g"><path d="M-2.6,20.5v-.9H-.7v-7.4l-1.9,.5v-1l3.1-.8v8.7h1.9v.9H-2.6Z"/><path d="M4.7,20.5v-1.1c.4-.9,1.1-1.8,2.2-2.8l.7-.6c.9-.8,1.4-1.7,1.4-2.5s-.2-.9-.5-1.2c-.3-.3-.8-.5-1.3-.5s-1.4,.3-2.3,.8v-1.1c.8-.4,1.7-.6,2.5-.6s1.6,.2,2.1,.7c.5,.5,.8,1.1,.8,1.9s-.1,1.1-.4,1.5c-.3,.4-.8,1-1.5,1.6l-.5,.4c-1,.9-1.6,1.7-1.7,2.4h4.1v1.1H4.7Z"/><path d="M14.2,20.5l-2.4-9.4h1.3l1.9,7.4,1.8-7.4h1.3l1.7,7.3,2.1-7.3h1.1l-2.6,9.4h-1.3l-1.7-7.3-1.7,7.3h-1.3Z"/></g><g class="g"><path d="M198.8,25.3v-6.4h1.2v1.2c.6-.9,1.4-1.3,2.2-1.3s1,.2,1.3,.5,.5,.8,.5,1.4v4.6h-1.2v-4.2c0-.5,0-.8-.2-1-.1-.2-.4-.3-.7-.3-.7,0-1.4,.5-2,1.4v4.1h-1.2Z"/></g><g class="g"><path d="M252,26.2l-1.1-2.8h-4.3l-1.1,2.8h-1.3l4-10.2h1.4l4,10.2h-1.6Zm-1.5-3.9l-1.7-4.4-1.7,4.4h3.5Z"/></g><g class="g"><path d="M162.7,112.3v-1.3c-.7,1-1.5,1.5-2.4,1.5s-1.1-.2-1.4-.6c-.4-.4-.5-.9-.5-1.5v-5h1.3v4.6c0,.5,0,.9,.2,1.1,.2,.2,.4,.3,.8,.3,.8,0,1.5-.5,2.2-1.5v-4.5h1.3v6.9h-1.3Z"/></g><g class="g"><path d="M260.4,116.1v-9.4h3.1c.9,0,1.7,.1,2.3,.3s1.1,.6,1.5,1.1c.7,.8,1,1.8,1,3.1s-.4,2.8-1.2,3.6c-.8,.9-2,1.3-3.5,1.3h-3.2Zm1.3-1h1.7c1.2,0,2.1-.3,2.6-1,.5-.7,.8-1.6,.8-2.8s-.3-2-.8-2.6c-.3-.4-.7-.7-1.2-.8-.5-.1-1.1-.2-2.1-.2h-1.1v7.4Z"/><path d="M275.9,116.1l-1-2.6h-4l-1,2.6h-1.2l3.7-9.4h1.3l3.7,9.4h-1.4Zm-1.4-3.6l-1.6-4.1-1.6,4.1h3.2Z"/></g><g class="g"><path d="M90.5,133.9h1.2v8.6h-1.2v-8.6Z"/><path d="M93.7,134.5h1.1v1.8h1v.9h-1v4.1c0,.2,0,.4,.2,.4,0,0,.2,0,.4,0s.1,0,.2,0c0,0,.1,0,.2,0v.8c-.1,0-.2,0-.4,0s-.3,0-.4,0c-.5,0-.8-.1-1-.4-.2-.3-.3-.6-.3-1v-4.2h-.9v-.9h.9v-1.8Z"/></g><g class="g"><path d="M261.1,158.6v-8.7h2.4c1,0,1.8,.2,2.3,.5,.5,.4,.7,.9,.7,1.7s-.3,1.6-.9,2.2-1.5,.8-2.6,.8h-.5v3.5h-1.2Zm1.2-4.4h.5c.7,0,1.3-.2,1.7-.5,.4-.3,.6-.8,.6-1.4s-.2-.9-.5-1.1-.8-.3-1.6-.3h-.8v3.4Z"/><path d="M270.2,158.8c-.9,0-1.6-.3-2.2-.9s-.8-1.4-.8-2.4,.3-1.8,.8-2.4,1.3-.9,2.2-.9,1.7,.3,2.2,.9,.8,1.4,.8,2.4-.3,1.9-.8,2.5-1.3,.9-2.3,.9Zm0-.9c1.2,0,1.8-.8,1.8-2.5s-.6-2.5-1.8-2.5-1.8,.8-1.8,2.5,.6,2.5,1.8,2.5Z"/><path d="M277,158.8c-.6,0-1-.2-1.4-.5s-.5-.8-.5-1.4v-3.8h-.8v-.9h.8v-1.2h1.2v1.2h1.7v.9h-1.7v3.5c0,.8,.4,1.3,1.1,1.3s.3,0,.6,0v.8c-.4,0-.7,.1-.9,.1Z"/><path d="M284.2,158.4c-.8,.2-1.4,.4-2,.4-.9,0-1.7-.3-2.3-.9-.6-.6-.9-1.4-.9-2.4s.3-1.8,.8-2.4,1.2-.9,2-.9,1.4,.3,1.8,.8c.4,.5,.6,1.3,.6,2.3v.4h-4c.2,1.5,.9,2.3,2.2,2.3s1.1-.1,1.8-.4v.9Zm-4-3.7h2.8c0-1.2-.4-1.8-1.3-1.8s-1.4,.6-1.5,1.8Z"/><path d="M286.2,158.6v-6.4h1.2v1.2c.6-.9,1.4-1.3,2.2-1.3s1,.2,1.3,.5,.5,.8,.5,1.4v4.6h-1.2v-4.2c0-.5,0-.8-.2-1-.1-.2-.4-.3-.7-.3-.7,0-1.4,.5-2,1.4v4.1h-1.2Z"/><path d="M295.6,158.8c-.6,0-1-.2-1.4-.5s-.5-.8-.5-1.4v-3.8h-.8v-.9h.8v-1.2h1.2v1.2h1.7v.9h-1.7v3.5c0,.8,.4,1.3,1.1,1.3s.3,0,.6,0v.8c-.4,0-.7,.1-.9,.1Z"/><path d="M298.2,151.1v-1.2h1.2v1.2h-1.2Zm0,7.5v-6.4h1.2v6.4h-1.2Z"/><path d="M304.9,157.8c-.7,.6-1.4,1-2,1s-1-.2-1.3-.5-.5-.8-.5-1.3,.3-1.2,.9-1.6c.6-.4,1.4-.6,2.5-.6h.3v-.8c0-.7-.4-1.1-1.1-1.1s-1.3,.2-2,.6v-1c.8-.3,1.5-.5,2.2-.5s1.2,.2,1.6,.5c.3,.3,.5,.8,.5,1.5v2.9c0,.7,.2,1,.6,1s.1,0,.2,0v.6c-.2,.1-.5,.2-.8,.2-.5,0-.9-.3-1-1Zm-.2-.6v-1.7h-.4c-.6,0-1.1,.1-1.5,.3s-.6,.6-.6,.9,0,.5,.3,.7c.2,.2,.4,.3,.7,.3,.5,0,1-.2,1.5-.6Z"/><path d="M308.3,158.6v-9.3h1.2v9.3h-1.2Z"/></g><g class="g"><path d="M302.6,167.7v-12.3h1.6v1.7c.7-1.3,1.7-1.9,3-1.9s1.9,.4,2.6,1.2c.6,.8,.9,1.9,.9,3.3s-.4,2.7-1.1,3.6c-.7,.9-1.6,1.4-2.8,1.4s-2-.4-2.7-1.2v4.3h-1.6Zm1.6-5.4c.8,.8,1.6,1.1,2.4,1.1,1.6,0,2.4-1.2,2.4-3.6s-.7-3.2-2.1-3.2-1.8,.5-2.7,1.5v4.2Z"/><path d="M314.8,156.6v7.8h-1.6v-7.8h-1.3v-1.2h1.3v-1.1c0-2.2,1-3.2,2.9-3.2s1.2,0,1.9,.3v1.3c-.7-.2-1.3-.3-1.8-.3s-.9,.1-1.1,.4-.3,.7-.3,1.4v1.3h2.3v1.2h-2.3Z"/><path d="M325,164.1c-1.1,.3-2,.5-2.8,.5-1.3,0-2.4-.4-3.3-1.3-.8-.9-1.3-2-1.3-3.4s.4-2.5,1.1-3.4,1.7-1.3,2.8-1.3,1.9,.4,2.5,1.2c.6,.8,.9,1.9,.9,3.3v.5h-5.7c.2,2.1,1.3,3.2,3.2,3.2s1.5-.2,2.5-.5v1.3Zm-5.6-5.2h4c0-1.7-.6-2.5-1.9-2.5s-2,.8-2.1,2.5Z"/><path d="M327.4,153.7v-1.6h1.6v1.6h-1.6Zm0,10.7v-9h1.6v9h-1.6Z"/><path d="M331.9,164.4v-13.2h1.6v13.2h-1.6Z"/></g><g class="g"><path d="M341.7,161.5c-.8,0-1.4-.2-1.8-.7-.4-.4-.7-1.1-.7-1.9v-5h-1.1v-1.2h1.1v-1.5h1.5v1.5h2.2v1.2h-2.2v4.7c0,1.1,.5,1.7,1.4,1.7s.5,0,.7-.1v1.1c-.5,.1-.9,.2-1.2,.2Z"/><path d="M344.9,161.3v-8.5h1.5v1.6c.6-1.2,1.5-1.8,2.7-1.8s.3,0,.5,0v1.4c-.3,0-.5-.1-.7-.1-1,0-1.8,.6-2.5,1.7v5.6h-1.5Z"/><path d="M351.1,151.2v-1.5h1.5v1.5h-1.5Zm0,10.1v-8.5h1.5v8.5h-1.5Z"/><path d="M357.3,153.9v7.4h-1.6v-7.4h-1.2v-1.2h1.2v-1c0-2,.9-3,2.8-3s1.1,0,1.8,.3v1.2c-.7-.2-1.3-.3-1.7-.3s-.9,.1-1,.4-.3,.7-.3,1.4v1.2h2.1v1.2h-2.1Z"/><path d="M362.9,153.9v7.4h-1.6v-7.4h-1.2v-1.2h1.2v-1c0-2,.9-3,2.8-3s1.1,0,1.8,.3v1.2c-.7-.2-1.3-.3-1.7-.3s-.9,.1-1,.4-.3,.7-.3,1.4v1.2h2.1v1.2h-2.1Z"/><path d="M369.2,161.5c-.8,0-1.4-.2-1.8-.7-.4-.4-.7-1.1-.7-1.9v-5h-1.1v-1.2h1.1v-1.5h1.5v1.5h2.2v1.2h-2.2v4.7c0,1.1,.5,1.7,1.4,1.7s.5,0,.7-.1v1.1c-.5,.1-.9,.2-1.2,.2Z"/></g><g class="g"><path d="M201.5,257.1l-4.1-10.9h1.5l3.4,8.9,3.2-8.9h1.4l-3.9,10.9h-1.5Z"/></g><g class="g"><path d="M160,275.1v-11.6h6.5v1.2h-4.8v3.7h4.1v1.2h-4.1v4.2h5.2v1.2h-6.8Z"/></g><g class="f"><path d="M27.3,14.5c-.2,0-.4-.2-.4-.4s.2-.4,.4-.4H360c.2,0,.4,.2,.4,.4s-.2,.4-.4,.4H27.3Z"/><path d="M27.3,252.1c-.2,0-.4-.2-.4-.4s.2-.4,.4-.4H360c.2,0,.4,.2,.4,.4s-.2,.4-.4,.4H27.3Z"/><path d="M23.8,249.3c.2,0,.4,.2,.4,.4,0,.2-.2,.4-.4,.4-.5,0-.9-.2-1.3,0-.5,.2-1.1,1.2-1.3,2.2,0,.5,0,.9,0,1.3,.1,.5,.6,.8,1.2,1.1,.6,.3,1.3,.4,2,.4,1.5,0,2.8-.9,3.3-2,.1-.3,.2-.7,.2-1.1,0-.5-.1-1-.4-1.4-.4-.7-1.4-1.1-2.4-1.1-.5,0-.9,.1-1.3,.3-.3,.2-.5,.4-.6,.6,0,.2-.3,.4-.5,.3-.2,0-.4-.3-.3-.5,.1-.5,.5-.9,1-1.2,.5-.2,1-.4,1.6-.4,1.2,0,2.5,.4,3.1,1.5,.3,.6,.5,1.2,.5,1.7,0,.5,0,1.1-.3,1.5-.6,1.4-2.2,2.5-4.1,2.4-.8,0-1.6-.2-2.3-.5-.7-.3-1.4-.8-1.6-1.6-.2-.6-.2-1.2,0-1.7,.2-1.2,.8-2.4,1.7-2.8,.7-.3,1.3,0,1.7,0"/><path d="M24.2,12.2c0,.2-.2,.4-.4,.4-.2,0-.4-.2-.4-.4,0,0,0,0,0,0,0,0,0-.2-.2-.3-.2-.2-.4-.3-.7-.4-.2,0-.5,0-.8,.1-.3,.1-.6,.4-.9,.8-.4,.6-.7,1.4-.8,2.3,0,.5,0,.9,0,1.3,0,.6,.5,1.1,1,1.6,.8,.8,1.8,1.2,2.8,1.2,1,0,1.9-.3,2.5-.7,.7-.6,1.2-1.5,1.3-2.6,0-.7,0-1.3-.4-1.8-.3-.5-.8-1-1.3-1.2-.5-.3-1.1-.4-1.7-.2-.6,.1-1.1,.5-1.6,1.1-.1,.2-.4,.2-.6,0-.2-.1-.2-.4,0-.6,.6-.8,1.3-1.3,2.1-1.5,.8-.2,1.6,0,2.3,.3,.7,.3,1.3,.9,1.7,1.5,.4,.7,.6,1.5,.5,2.3-.2,1.3-.7,2.5-1.7,3.2-.8,.6-1.8,.9-3,.9-1.2,0-2.4-.4-3.3-1.4-.5-.5-1.1-1.2-1.2-2.1,0-.5,0-1,0-1.5,0-1,.4-2,.9-2.7,.3-.5,.8-.8,1.2-1,.4-.2,.9-.3,1.3-.2,.4,.1,.8,.3,1,.6,.3,.2,.5,.5,.5,.9"/><path d="M23,252.7c-.2,0-.3-.3-.2-.5,0-.2,.3-.3,.5-.2,0,0,0,0,0,0,0,0,.8,0,.9-.1,.2-.1,.4,0,.6,0,.1,.2,0,.4,0,.6-.3,.2-.5,.2-.8,.3-.3,0-.5,.1-.8,0m-.2-.2c-.1-.2,0-.4,.2-.5,.2-.1,.4,0,.5,.2,0,0-.1-.1,0-.1,0,0,0,0,0,0,0,0,0,0,0,0,0,0,0,0,0,0,0,0,0,0,0,0,0,0,.3,0,.6,0,.4,0,.9,0,1.3-.2,.2,0,.3,0,.5,0,.2,0,.4,0,.5,0,0,0,.1,0,.2,0h0s0,0,.1,0l-.2,.8s0,0,0,0c0,0-.2,0-.4,0-.4,0-1,0-1.5,0-.3,0-.6,0-.8,0-.1,0-.3,0-.4,0,0,0,0,0,0,0,0,0,0,0,0,0,0,0,0,0,0,0-.2,0-.4,0-.5-.2,0-.2,0-.4,.2-.5,0,0,0,0,0,0,0,0,0,0,0,0,0,0,0,0,.1,0,0,0,.2,0,.4,0,.3,0,.6,0,.9,0,.5,0,1.1,0,1.6,0,.2,0,.3,0,.6,0,.2,0,.3,.3,.3,.5,0,.2-.3,.3-.5,.3,0,0,0,0,0,0,0,0,0,0,0,0,0,0-.1,0-.2,0-.1,0-.3,0-.4,0-.1,0-.3,0-.4,0-.4,0-.9,.2-1.5,.2-.2,0-.5,0-.7,0,0,0-.1,0-.2,0,0,0,0,0-.1,0,0,0,0,0-.2-.2m.8-.6c.2,0,.4,.2,.3,.5,0,.2-.2,.4-.5,.3,0,0-.2,0-.2,0,0,0,0,0,0,0,0,0,0,0,0,0,0,0,0,0,0,0,0,0,.1,0,.1,0,0,0,0,0,0,0-.2,.2-.4,.2-.6,0-.2-.2-.2-.4,0-.6,0,0,0,0,0,0,.3-.2,.3,0,.3,0,0,0,.2,0,.3,0"/><path d="M21.8,15.3c.2,.1,.2,.4,0,.6-.1,.2-.4,.2-.6,0-.1,0-.2-.2-.3-.3,0-.2,0-.4,0-.6,.2-.3,.4-.3,.7-.3,1-.2,2.5,.2,3.4-.2,.2,0,.4,0,.5,.2,0,.2,0,.4-.2,.5-1.3,.6-2.9,.1-3.6,.2,0,0-.1,0-.2,0h0s0,0,0,0c0,0,0-.2,0-.1,0,0,0-.2,0-.1,0,0,0,0,0,0,0,0,0,0,0,0"/><path d="M24.2,12.8c.2,.1,.2,.4,0,.6-.1,.2-.4,.2-.6,0,0,0,.1,0,0,0,0,0,.2,0,.1,0,0,0,0,0,0,.1-.1,.3-.2,.7-.3,1.3-.1,1.1,0,2.4,.3,2.8,.1,.2,0,.4-.1,.6-.2,.1-.4,0-.6-.1-.5-.8-.5-2.1-.4-3.3,0-.6,.2-1.1,.3-1.5,0-.2,.2-.4,.4-.5,.2-.1,.6,0,.8,0"/><path d="M1,16.1c.2,0,.4,0,.5,.2,0,.2,0,.4-.2,.5-.2,0-.3,.1-.5,.1,0,0-.2,0-.3,0-.1,0-.3-.1-.3-.2-.2-.2-.1-.4,0-.6,0-.2,0-.4,.2-.7,.3-1.1,1.1-2.6,1.8-3.9,.4-.8,.8-1.5,1.2-2,.2-.3,.4-.5,.7-.6,.2,0,.4,0,.5,0,.2,.1,.2,.3,.3,.4,.2,.7,0,1.6-.2,2.6-.2,1.1-.4,2.2-.5,3,0,.4,0,.7,0,.9,0,0,0,.1,0,.1,0,0,0,0,0,0,.2,0,.4,.2,.4,.5,0,.2-.2,.4-.5,.4-.2,0-.4-.1-.5-.3-.1-.1-.2-.3-.2-.5,0-.4,0-.8,0-1.2,0-.9,.3-2,.5-3.1,.2-1,.3-2,.2-2.3,0,0,0,0,0,0,0,0,0,0,0,0,0,0,.2,0,.1,0,0,0,0,0,0,0,0,0-.2,.1-.3,.3-.3,.5-.7,1.1-1.2,1.9-.7,1.4-1.4,2.8-1.7,3.8,0,.2-.1,.4-.1,.5,0,0,0,0,0,.1,0,0,0,0,0,0,0,0,0,0,0,0,0,0-.2,0-.1,0,0,0,0,0,0,0,0,0,.2,0,.3,0"/><path d="M7,11.3c0,.2-.1,.4-.4,.5-.2,0-.4-.1-.5-.4,0-.2,0-.4,.2-.6,.1-.1,.3-.2,.4-.3,.3,0,.6,0,.8,0,.2,0,.5,0,.9,0,.3,0,.5,.3,.6,.5,.1,.2,.2,.5,.2,.7,0,.3,0,.7-.2,1.1-.4,1-1.2,2-1.6,2.8-.1,.2-.2,.4-.2,.4,0,0,0,0,0,0,0,0,0,0,0,0,0,0,.2,0,.5,0,.5,0,1.2-.3,1.9-.7,.2-.1,.4,0,.6,.1,.1,.2,0,.4-.1,.6-.7,.5-1.5,.8-2.2,.8-.3,0-.6,0-.9,0-.1,0-.3-.2-.4-.3,0-.2-.1-.3,0-.5,0-.2,.1-.4,.3-.7,.5-.8,1.2-1.9,1.6-2.7,.1-.3,.2-.6,.2-.8,0-.1,0-.3,0-.3,0,0,0,0,0,0,0,0-.4,0-.7,0-.2,0-.5,0-.6,0,0,0,0,0,0,0,0,0,0,0,0,0"/><path d="M12.3,10.5c.2,.1,.2,.4,.1,.6-.1,.2-.4,.2-.6,.1,0,0,.1,0,0,0,0,0,.2,0,.1,0,0,0,0,0,0,0,0,0,0,0,0,0,0,0-.1,.3-.1,.6,0,.7,0,1.6,0,2.5,0,.6,.2,1.2,.3,1.6,0,.4,.2,.6,.2,.6,0,0,0,0,0,0,0,0-.2,0-.1,0,0,0-.2,0-.2,0,0,0,0,0,0,0,0,0,.1-.2,.2-.4,.2-.5,.4-1.2,.8-2.1,.7-1.8,1.7-4,3.4-5.7,.2-.2,.4-.2,.6,0s.2,.4,0,.6c-1.6,1.5-2.5,3.6-3.2,5.4-.3,.8-.6,1.6-.8,2.1-.1,.2-.2,.5-.4,.6,0,0-.2,.2-.4,.2-.2,0-.4,0-.5-.2-.2-.3-.3-.6-.4-1-.1-.5-.2-1.1-.3-1.8,0-1-.1-1.9,0-2.7,0-.4,0-.7,.2-.9,0-.1,.2-.3,.3-.3,.2,0,.4,0,.6,0"/><path d="M153.7,22c0-.2,.2-.4,.4-.4,.2,0,.4,.2,.4,.4h0s0,0,0,.1c0,.1,0,.3,0,.6,0,2.2-.2,4.9,0,8,.2,3.1,.3,6,.3,8.9,0,2.1,0,4.2,0,6.1s-.3,5.6-.4,8.3c0,3.3,0,5.7,0,8.1,0,1.7,0,3.1,0,4.4,0,.6,.1,1.2,.2,1.7,0,.2,0,.3,.1,.5,0,.4,0,.7,0,1,0,0,0,.1,0,.2,0,0-.1,.2-.4,.2-.2,0-.3-.1-.4-.2-.1-.2-.1-.3-.2-.5,0-.2,0-.4,.3-.5,.2,0,.4,0,.5,.3,0,0,0,.2,0,.2,0,0,0,0,0,0,0,0,0,0,0,0,0,0-.1-.1,0,0,0,0-.2,0-.2,0,0,0-.2,0-.2,0,0,0-.2,.1-.2,.1,0,0,0,.1,0,0,0,0,0,0,0,0h0c0-.1,0-.5,0-.8,0-.2,0-.3,0-.5-.1-.5-.2-1.2-.3-1.9,0-1.4,0-2.7,0-4.5,0-1.2,0-2.4,0-3.6,0-1.3,0-2.7,0-4.5,0-2.7,.4-5.7,.4-8.2s0-3.9,0-6.1c0-2.9,0-5.7-.3-8.8-.2-3.1-.1-5.9,0-8.1,0-.2,0-.4,0-.5,0,0,0,0,0-.1s0,0,0,0m.8,.4c0,.2-.2,.4-.4,.4s-.4-.2-.4-.4c0-.2,0-.4,0-.4h0c0-.3,.2-.4,.4-.4,.2,0,.4,.2,.4,.4,0,0,0,0,0,0,0,0,0,.2,0,.4"/><path d="M154.1,22.7c-.2,0-.4-.2-.4-.4s.2-.4,.4-.4h15.8c.2,0,.4,.2,.4,.4s-.2,.4-.4,.4h-15.8Z"/><path d="M169.5,22.3c0-.2,.2-.4,.4-.4s.4,.2,.4,.4v47.5c0,.2-.2,.4-.4,.4s-.4-.2-.4-.4V22.3Z"/><path d="M154.1,70.2c-.2,0-.4-.2-.4-.4s.2-.4,.4-.4h15.8c.2,0,.4,.2,.4,.4s-.2,.4-.4,.4h-15.8Z"/><path d="M153.7,79.6c0-.2,.2-.4,.4-.4,.2,0,.4,.2,.4,.4h0s0,0,0,.1c0,.1,0,.3,0,.6,0,2.2-.2,4.9,0,8,.2,3.1,.3,6,.3,8.9,0,2.1,0,4.2,0,6.1s-.3,5.6-.4,8.3c0,3.3,0,5.7,0,8.1,0,1.7,0,3.1,0,4.4,0,.6,.1,1.2,.2,1.7,0,.2,0,.3,.1,.5,0,.4,0,.7,0,1,0,0,0,.1,0,.2,0,0-.1,.2-.4,.2-.2,0-.3-.1-.4-.2-.1-.2-.1-.3-.2-.5,0-.2,0-.4,.3-.5,.2,0,.4,0,.5,.3,0,0,0,.2,0,.2h0s0,0,0,0c0,0-.1-.1,0,0,0,0-.2,0-.2,0,0,0-.2,0-.2,0,0,0-.2,.1-.2,.1,0,0,0,.1,0,0,0,0,0,0,0,0h0c0-.1,0-.5,0-.8,0-.2,0-.3,0-.5-.1-.5-.2-1.2-.3-1.9,0-1.4,0-2.7,0-4.5,0-1.2,0-2.4,0-3.6,0-1.3,0-2.7,0-4.5,0-2.7,.4-5.7,.4-8.2s0-3.9,0-6.1c0-2.9,0-5.7-.3-8.8-.2-3.1-.1-5.9,0-8.1,0-.2,0-.4,0-.5,0,0,0,0,0-.1s0,0,0,0m.8,.4c0,.2-.2,.4-.4,.4-.2,0-.4-.2-.4-.4,0-.2,0-.4,0-.4h0c0-.3,.2-.4,.4-.4,.2,0,.4,.2,.4,.4,0,0,0,0,0,0,0,0,0,.2,0,.4"/><path d="M154.1,80.3c-.2,0-.4-.2-.4-.4s.2-.4,.4-.4h15.8c.2,0,.4,.2,.4,.4s-.2,.4-.4,.4h-15.8Z"/><path d="M169.5,79.9c0-.2,.2-.4,.4-.4s.4,.2,.4,.4v47.5c0,.2-.2,.4-.4,.4s-.4-.2-.4-.4v-47.5Z"/><path d="M154.1,127.8c-.2,0-.4-.2-.4-.4s.2-.4,.4-.4h15.8c.2,0,.4,.2,.4,.4s-.2,.4-.4,.4h-15.8Z"/><path d="M153.7,137.2c0-.2,.2-.4,.4-.4,.2,0,.4,.2,.4,.4h0s0,0,0,.1c0,.1,0,.3,0,.6,0,2.2-.2,4.9,0,8,.2,3.1,.3,6,.3,8.9,0,2.1,0,4.2,0,6.1s-.3,5.6-.4,8.3c0,3.3,0,5.7,0,8.1,0,1.7,0,3.1,0,4.4,0,.6,.1,1.2,.2,1.7,0,.2,0,.3,.1,.5,0,.4,0,.7,0,1,0,0,0,.1,0,.2,0,0-.1,.2-.4,.2-.2,0-.3-.1-.4-.2-.1-.2-.1-.3-.2-.5,0-.2,0-.4,.3-.5,.2,0,.4,0,.5,.3,0,0,0,.2,0,.2,0,0,0,0,0,0,0,0,0,0,0,0,0,0-.1-.1,0,0,0,0-.2,0-.2,0,0,0-.2,0-.2,0,0,0-.2,.1-.2,.1,0,0,0,.1,0,0,0,0,0,0,0,0h0c0-.1,0-.5,0-.8,0-.2,0-.3,0-.5-.1-.5-.2-1.2-.3-1.9,0-1.4,0-2.7,0-4.5,0-1.2,0-2.4,0-3.6,0-1.3,0-2.7,0-4.5,0-2.7,.4-5.7,.4-8.2s0-3.9,0-6.1c0-2.9,0-5.7-.3-8.8-.2-3.1-.1-5.9,0-8.1,0-.2,0-.4,0-.5,0,0,0,0,0-.1s0,0,0,0m.8,.4c0,.2-.2,.4-.4,.4s-.4-.2-.4-.4c0-.2,0-.4,0-.4h0c0-.3,.2-.4,.4-.4,.2,0,.4,.2,.4,.4,0,0,0,0,0,0,0,0,0,.2,0,.4"/><path d="M154.1,137.9c-.2,0-.4-.2-.4-.4s.2-.4,.4-.4h15.8c.2,0,.4,.2,.4,.4s-.2,.4-.4,.4h-15.8Z"/><path d="M169.5,137.5c0-.2,.2-.4,.4-.4s.4,.2,.4,.4v47.5c0,.2-.2,.4-.4,.4s-.4-.2-.4-.4v-47.5Z"/><path d="M154.1,185.4c-.2,0-.4-.2-.4-.4s.2-.4,.4-.4h15.8c.2,0,.4,.2,.4,.4s-.2,.4-.4,.4h-15.8Z"/><path d="M153.7,195c0-.2,.2-.4,.4-.4,.2,0,.4,.2,.4,.4h0s0,0,0,.1c0,.1,0,.3,0,.6,0,2.2-.2,4.9,0,8,.2,3.1,.3,6,.3,8.9,0,2.1,0,4.2,0,6.1s-.3,5.6-.4,8.3c0,3.3,0,5.7,0,8.1,0,1.7,0,3.1,0,4.4,0,.6,.1,1.2,.2,1.7,0,.2,0,.3,.1,.5,0,.4,0,.7,0,1,0,0,0,.1,0,.2,0,0-.1,.2-.4,.2-.2,0-.3-.1-.4-.2-.1-.2-.1-.3-.2-.5,0-.2,0-.4,.3-.5,.2,0,.4,0,.5,.3,0,0,0,.2,0,.2h0s0,0,0,0c0,0-.1-.1,0,0,0,0-.2,0-.2,0,0,0-.2,0-.2,0,0,0-.2,.1-.2,.1,0,0,0,.1,0,0,0,0,0,0,0,0h0c0-.1,0-.5,0-.8,0-.2,0-.3,0-.5-.1-.5-.2-1.2-.3-1.9,0-1.4,0-2.7,0-4.5,0-1.2,0-2.4,0-3.6,0-1.3,0-2.7,0-4.5,0-2.7,.4-5.7,.4-8.2s0-3.9,0-6.1c0-2.9,0-5.7-.3-8.8-.2-3.1-.1-5.9,0-8.1,0-.2,0-.4,0-.5,0,0,0,0,0-.1s0,0,0,0m.8,.4c0,.2-.2,.4-.4,.4s-.4-.2-.4-.4c0-.2,0-.4,0-.4h0c0-.3,.2-.4,.4-.4,.2,0,.4,.2,.4,.4,0,0,0,0,0,0,0,0,0,.2,0,.4"/><path d="M154.1,195.7c-.2,0-.4-.2-.4-.4s.2-.4,.4-.4h15.8c.2,0,.4,.2,.4,.4s-.2,.4-.4,.4h-15.8Z"/><path d="M169.5,195.3c0-.2,.2-.4,.4-.4s.4,.2,.4,.4v47.5c0,.2-.2,.4-.4,.4s-.4-.2-.4-.4v-47.5Z"/><path d="M154.1,243.2c-.2,0-.4-.2-.4-.4s.2-.4,.4-.4h15.8c.2,0,.4,.2,.4,.4s-.2,.4-.4,.4h-15.8Z"/><path d="M160.9,14.1c0-.2,.2-.4,.4-.4s.4,.2,.4,.4v8.2c0,.2-.2,.4-.4,.4s-.4-.2-.4-.4V14.1Z"/><path d="M161.3,69.8c0-.2,.2-.4,.4-.4s.4,.2,.4,.4v10.1c0,.2-.2,.4-.4,.4s-.4-.2-.4-.4v-10.1Z"/><path d="M161.3,127.4c0-.2,.2-.4,.4-.4s.4,.2,.4,.4v10.1c0,.2-.2,.4-.4,.4s-.4-.2-.4-.4v-10.1Z"/><path d="M161.5,185c0-.2,.2-.4,.4-.4s.4,.2,.4,.4v10.3c0,.2-.2,.4-.4,.4s-.4-.2-.4-.4v-10.3Z"/><path d="M161.4,242.8c0-.2,.2-.4,.4-.4s.4,.2,.4,.4v8.9c0,.2-.2,.4-.4,.4s-.4-.2-.4-.4v-8.9Z"/><path d="M162.2,251c0,.2,0,.4-.2,.5-.2,0-.4,0-.5-.2,0,0,0,.1,0,0,0,0,0,0,0,0,0,0-.2,0-.3,0,0,0,0,0,0,0,0,0,0,0,0,.1,0,.2,0,.4,0,.7,0,.3,.2,.5,.2,.5,0,0,0,0,0,0,0,0,.1,0,.2-.2,.2-.2,.3-.6,.4-.9,0-.3,0-.5,0-.6,0,0,0,0,0,0,0,0-.2,0-.3,0-.1,0-.3,.1-.5,.3-.2,.2-.3,.5-.3,.7,0,.2,0,.3,0,.4,0,0,0,0,0,0,0,0,0,0,.1,0,0,0,.2,0,.3-.2,.1-.2,.3-.4,.3-.6,0-.1,0-.2,0-.3,0,0,0,0,0,0,0,0,0,0,0,0,0,0,0,0,0,0,0,0,0,0,0,.1,0,.1-.2,.3-.2,.4,0,.1,0,.2,0,.4,0,0,0,0,0,0,0,0,0,0,0,0,0,0,0,0,0,0,0,0,0,0,0,0,0,0,.1,0,.2-.2,.2-.2,.3-.4,.4-.6,0-.2,.1-.3,.1-.3,0,0,0,0,0,0,0,0,0,0,0,0,0,0,0,0,0,0,0,0,0,0-.1,0-.1,0-.2,.2-.4,.3-.1,.1-.2,.3-.3,.4,0,0,0,0,0,0,0,0,0-.1,0,0,0,0,0-.1,0,0,0,0-.1-.1,0-.1,.2,.2,.2,.4,0,.6s-.4,.2-.6,0c-.2-.2-.2-.4-.1-.5,0-.1,0-.2,.1-.3,0-.2,.2-.4,.4-.6,.2-.2,.3-.4,.5-.5,.2-.1,.5-.3,.8-.2,.2,0,.3,.2,.4,.3,.1,.1,.2,.3,.2,.6,0,.2-.1,.4-.2,.6-.1,.3-.4,.6-.6,.9-.1,.1-.2,.2-.4,.3-.2,0-.4,.1-.6,0-.1,0-.3-.1-.4-.3-.1-.1-.2-.3-.2-.5,0-.2,0-.4,.1-.7,0-.2,.2-.4,.3-.6,.1-.2,.3-.4,.6-.4,.2,0,.4,0,.6,.2,.2,.1,.3,.3,.3,.6,0,.2,0,.4-.1,.6,0,.3-.3,.6-.5,.8-.2,.3-.5,.5-.8,.5-.2,0-.4,0-.5,0-.2,0-.4-.2-.5-.5,0-.3,0-.6,0-.8,0-.4,.3-.8,.5-1.1,.3-.3,.6-.6,1-.6,.2,0,.4,0,.7,0,.2,0,.4,.2,.6,.5,.2,.4,0,.7,0,1,0,.5-.2,1-.5,1.3-.1,.2-.3,.3-.5,.4-.2,.1-.5,.1-.8,0-.4-.3-.5-.7-.6-1.1,0-.3,0-.7,0-1,0-.2,.1-.3,.3-.4,.1-.1,.4-.2,.6-.2,.2,0,.3,0,.5,.1,.2,0,.3,0,.4,.3"/><path d="M162.6,189.8c.2,0,.3,.3,.2,.5-.1,.2-.3,.3-.5,.2-.2-.1-.3-.2-.3-.2,0,0,0,0,0,0,0,0,0,0,0,0,0,0,0,0,0,0,0,0,0,.1,0,.2,0,.2,0,.4,0,.5,0,0,0,0,0,.1,0,0,0,0,0,0,0,0,0,0,0,0,0,0-.1,0-.1,0,0,0,0,0,0,0,0,0,0,0,0,0,0,0,0,0,.1,0,0,0,0,0,0,0,0,0,0,0,0,0,0-.1,0-.2,0-.3,0,0,0-.2-.1-.2,0,0,0,0,0,0,0,0,0,0-.1,0-.1,.1-.2,.3-.2,.5,0,.1,0,.3,.1,.3,0,0,0,0,0,0,0,0,.1,0,.2,0,0,0,0,0,0,0,0,0,0-.2,.1-.3,0-.1,0-.2,0-.3,0,0,0,0-.1,0-.1,0-.3,0-.3,0,0,0,0,0,0,0,0,0,0,0,0,0,0,.1,0,.3,0,.4,0,.1,0,.2,0,.3,0,0,0,0,0,0,0,0,0,0,0,0,0,0,0,0,0,0,0,0,.2-.2,.2-.3,0,0,0-.3,0-.5,0-.3,0-.5,0-.5,0,0,.1,0,0,0,0,0,0,0,0,0,0,0,0,0-.1,0,0,0,0,0,0,0,0,0,0,0,0,0,0,0,0,0,0,.1,0,.1,0,.3,0,.5,0,.2,0,.3,0,.4,0,0,0,0,0,0,0,0,0,0,0,0,0,0,0,0,0,0,0,0,0,0,0,0,0,0,0,0,0,0,0,0,0,0,0,0,0,0,0,0,0,0,0,0,0,0,0-.1,0-.1,0-.3,0-.4,0,0,0-.1,0-.1,0,0,0,0,0,0,0,0,.1,0,0,0,0,0,.2,0,.1,0,0,0,0,0,0,0,0,0,0,0-.1,.2-.1,.2-.4,.2-.6,.1-.2-.1-.2-.4-.1-.6,.1-.2,.2-.3,.4-.4,.1,0,.4-.2,.5,0,.2,0,.3,.2,.4,.3,0,.1,0,.2,.1,.4,0,.2,0,.5,0,.7,0,.1,0,.2-.1,.4,0,.1-.2,.2-.4,.3-.1,0-.2,0-.4,0-.1,0-.3,0-.4-.2-.3-.4-.2-.7-.2-1,0-.2,0-.5,0-.7,0-.1,0-.2,.1-.4,0-.1,.2-.2,.4-.3,.1,0,.2,0,.4,0,.1,0,.4,0,.5,.2,.3,.3,.3,.7,.3,1,0,.2,0,.5,0,.8-.1,.3-.3,.5-.5,.6-.1,0-.2,.2-.4,.2-.1,0-.3,0-.5,0-.2-.1-.3-.3-.4-.5,0-.2-.1-.4-.1-.6,0-.2,0-.5,.1-.7,0-.2,.3-.5,.6-.6,.3,0,.5,0,.8,0,.3,0,.5,.3,.6,.6,0,.2,0,.4,0,.6,0,.2,0,.4-.2,.6-.1,.2-.3,.4-.5,.5-.2,0-.4,0-.5,0-.2,0-.4,0-.6-.3-.2-.3-.3-.6-.3-1,0-.4,.2-.7,.5-1,.1-.1,.3-.2,.5-.3,.2,0,.4,0,.6,0,.2,.2,.4,.4,.5,.7,0,.2,0,.4,0,.7,0,.2-.1,.5-.4,.7,0,0-.2,.1-.3,.2-.1,0-.3,.1-.6,0-.2-.2-.3-.4-.3-.5,0-.2-.1-.5,0-.8,0-.1,0-.3,0-.4,0-.1,.1-.3,.3-.4,.2-.1,.5-.2,.7,0,.1,0,.2,.1,.3,.2,0,0,0,0,0,0,0,0,0,0,0,0"/><path d="M161.4,131.6c.2,0,.4,0,.5,.2,0,.2,0,.4-.2,.5,0,0,0,0,0,0,0,0,0,0,0,0,0,0,0,0,0,0,0,0,0,0,0,0,0,.1-.2,.3-.2,.4,0,0,0,0,0,0,0,0,0,0,0,0,0,0-.2,0-.2,0,0,0-.1,0-.1,0,0,0,0,0,0,0,0,0,.1-.1,.2-.2,0,0,0-.2,0-.3,0,0,0,0,0-.1,0,0,0,0-.1,0,0,0,0,0,0,0,0,0,0,0,0,0,0,0,0,.2,0,.4,0,.2,0,.5,.2,.5,0,0,0,0,0,0,0,0,0,0,.1,0,.1,0,.3-.2,.4-.4,0-.2,.1-.4,0-.6,0-.1,0-.2,0-.2,0,0-.2,0-.4,0,0,0-.2,.1-.3,.3,0,.2-.1,.4-.1,.7,0,.1,0,.2,0,.3,0,0,0,0,0,0,0,0,0,0,0,0,0,0,.1,0,.2,0,0,0,.1,0,.3-.2,.2-.2,.3-.4,.4-.6,0,0,0-.1,0-.2,0-.2,0-.2,0-.3,0,0,0,0,0,0,0,0-.2,0-.3,0,0,0-.2,.1-.2,.2,0,0,0,.1,0,.2,0,.2,0,.4-.3,.5-.2,0-.4,0-.5-.3,0-.3,0-.6,0-.8,.1-.2,.3-.4,.5-.5,.2-.1,.4-.2,.7-.2,.2,0,.5,0,.7,.2,.3,.2,.3,.5,.3,.8,0,.2,0,.4,0,.6-.1,.3-.3,.6-.6,.8-.3,.2-.6,.5-1,.4-.2,0-.3,0-.5-.2-.2,0-.3-.2-.4-.4-.1-.3,0-.5,0-.6,0-.3,0-.6,.2-1,.1-.3,.3-.6,.7-.8,.3-.1,.6-.2,1,0,.4,.1,.6,.5,.6,.9,0,.3,0,.7-.2,1-.2,.3-.4,.6-.7,.8-.1,0-.3,.1-.5,.2-.2,0-.4,0-.6-.2-.3-.3-.4-.7-.4-1.2,0-.2,0-.4,0-.6,0-.2,.2-.4,.5-.5,.2,0,.5-.1,.8,0,.2,.1,.4,.3,.5,.6,0,.3,0,.6,0,.8,0,.2-.2,.4-.4,.5,0,0-.2,.1-.3,.2-.1,0-.3,0-.5,0-.2-.2-.4-.5-.3-.9,0-.3,.2-.5,.3-.6,0,0,0-.1,.2-.2,0,0,0,0,.1,0m.5,.7c-.1,.2-.4,.2-.6,.1-.2-.1-.2-.4-.1-.6,0,0,0,0,0,0,0,0,0,0,0,0,0,0,0,0,0,0,0,0,0,.2,0,.1,0-.2,.2-.4,.4-.4,.2,0,.4,.2,.4,.4,0,.2,0,.2,0,.2,0,0,0,0,0,.1"/><path d="M161.8,73.8c.2,.2,.1,.4,0,.6-.2,.2-.4,.1-.6,0,0,0,0,0,0,0,0,0,.1,0,0,0,0,0,.2,0,.2,0,0,0,0,0,0,0,0,0,0,.1,0,.3,0,.2,.1,.3,.2,.4,0,0,.2,0,.3,0,0,0,0,0,0,0,0,0,0,0,0-.1,0,0,0,0,0,0,0,0-.2,0-.3,0,0,0-.3,.3-.4,.6,0,.1,0,.3,0,.4,0,0,0,0,0,0,0,0,0,0,0,0,0,0,.1,0,.2,0,.1,0,.3-.1,.4-.3,.2-.2,.3-.5,.3-.6,0,0,0-.1,0-.2,0,0,0,0,0,0,0,0,0,0,0,0,0,0,0,0,0,0,0,0,0,0,0,0,0,0-.2,0-.3,0,0,0-.2,0-.2,.2,0,.1-.1,.2-.2,.3,0,0,0,0,0,0,0,0,0,0,0,0,0,0-.2,0-.1,0,0,0-.1,0,0,0,0,0,0,0,0,0,0,0,0,0,0,0,0,0,0,0,0,0,0,0,0,0,0,0,0,0,0,.2,0,.1,0-.2,0-.4,.2-.5s.4,0,.5,.2c0,.2,0,.3,0,.4,0,.1,0,.2-.1,.3,0,0-.1,.2-.2,.2-.1,0-.2,.1-.4,.1-.2,0-.4-.2-.5-.3,0-.2-.1-.4-.1-.6,0-.3,.2-.5,.3-.7,.2-.2,.4-.4,.7-.4,.2,0,.3,0,.5,0,.2,0,.5,0,.6,.3,.2,.3,.1,.6,0,.8,0,.3-.2,.6-.5,.9-.2,.3-.5,.6-.9,.6-.2,0-.5,0-.7,0-.2,0-.5-.3-.5-.6,0-.2,0-.5,0-.7,.1-.4,.3-.9,.9-1.1,.3-.1,.6-.1,.9,0,.3,.1,.5,.4,.5,.7,0,.3,0,.6-.4,.8-.3,.2-.8,.3-1.1,0-.4-.2-.6-.6-.6-1.1,0-.3,0-.5,.2-.7,0-.1,.3-.3,.5-.3,.2,0,.4,.1,.5,.2"/><path d="M161.7,13.2c0,.2-.2,.4-.4,.4-.2,0-.4-.2-.4-.4,0,0,0-.1,0-.2,0,0,0,0,0,0,0,0,.1,0,0,0,0,0,.2,0,.2,0,0,0,.2,0,.1,0,0,0,0,0,0,0,0,0-.1,.2-.2,.4-.1,.3-.1,.8-.1,1.2,0,.1,0,.2,0,.2,0,0,0,0,0,0,0,0,0,0,0,0,0,0,.1,0,.2,0,0,0,0,0,.1-.2,0-.1,.1-.3,.2-.5,0-.1,0-.2,0-.3,0,0,0,0,0,0,0,0-.2,0-.4,0-.2,0-.4,.1-.5,.3-.2,.2-.3,.5-.3,.7,0,.1,0,.2,0,.3,0,0,0,0,0,0,0,0,0,0,.1,0,0,0,.2,0,.3-.1,.2-.1,.5-.6,.6-1,0-.2,0-.3,0-.4,0-.1,0-.1,0-.1,0,0,0,0,0,0,0,0,0,0,0,0,0,0-.2,.1-.3,.2-.1,.1-.2,.2-.2,.4,0,.1,0,.2,0,.3,0,.2,0,.4-.2,.5-.2,0-.4,0-.5-.2-.1-.3-.1-.6,0-.9,0-.3,.2-.5,.4-.7,.2-.2,.4-.3,.6-.4,.2,0,.5-.1,.8,0,.3,.2,.4,.5,.4,.8,0,.2,0,.4-.1,.6-.2,.5-.4,1.1-.9,1.5-.2,.1-.4,.2-.6,.2-.2,0-.4,0-.6,0-.2-.1-.4-.3-.4-.5,0-.2,0-.4,0-.6,0-.4,.2-.8,.4-1.1,.2-.3,.6-.6,1.1-.7,.3,0,.7,0,1,.2,.2,.1,.3,.4,.4,.6,0,.2,0,.4,0,.6,0,.2-.1,.5-.3,.7-.1,.2-.3,.5-.6,.6-.2,0-.4,0-.6,0-.2,0-.4-.1-.5-.3-.2-.2-.2-.5-.2-.7,0-.4,0-1,.1-1.5,.1-.3,.2-.6,.5-.8,0,0,.2-.1,.3-.1,.2,0,.3,.1,.4,.2,.1,.2,.1,.4,.2,.6"/><path class="e" d="M161.7,75.6c-.2,0-.4-.2-.4-.4s.2-.4,.4-.4h67.5c.2,0,.4,.2,.4,.4s-.2,.4-.4,.4h-67.5Z"/><path class="e" d="M161.8,132.8c-.2,0-.4-.2-.4-.4s.2-.4,.4-.4h65.3c.2,0,.4,.2,.4,.4s-.2,.4-.4,.4h-65.3Z"/><path class="e" d="M161.9,190.9c-.2,0-.4-.2-.4-.4s.2-.4,.4-.4h103.1c.2,0,.4,.2,.4,.4s-.2,.4-.4,.4h-103.1Z"/><path class="e" d="M201.2,132.4c0-.2,.2-.4,.4-.4s.4,.2,.4,.4v119.4c0,.2-.2,.4-.4,.4s-.4-.2-.4-.4v-119.4Z"/><path class="e" d="M200,246.3c.2,.2,.2,.4,0,.6-.2,.2-.4,.2-.6,0,0,0,0,0-.1-.1,0,0,0,0,0,0,0,0,.1,0,0,0,0,0,.1,0,.1,0,0,0,.3-.1,.2,0,0,0,.1-.2,.1-.2,0,0,0-.1,0-.1,0,0,0,0,0,0,0,0,.1,.4,.3,.8,.3,.9,.6,2,.8,2.9,0,.4,.2,.7,.3,1,0,.2,.1,.3,.1,.3,0,0,0,0,0,.1,0,0,0,0,0,0,0,0-.1,0,0,0,0,0-.2,0-.2,0,0,0,0,0,0,0,0,0,0,0,0,0,0,0,0,0,0,0,0-.1,0-.3,0-.4,.2-1,.5-2.3,1-3.6,.5-1.3,1.2-2.7,2.3-3.7,.2-.2,.4-.1,.6,0,.2,.2,.1,.4,0,.6-.9,.9-1.6,2.1-2.1,3.4-.5,1.3-.7,2.5-1,3.5,0,.1,0,.3-.1,.4,0,0,0,.2,0,.2,0,0,0,0-.1,.1,0,0-.2,.1-.3,.1-.2,0-.3,0-.4-.1-.1,0-.2-.2-.3-.3-.1-.2-.2-.4-.2-.5-.1-.3-.2-.7-.3-1.1-.2-.9-.5-2-.8-2.8-.1-.4-.3-.7-.3-1,0,0,0-.2,0-.3,0-.2,.4-.3,.5-.3,.3,0,.3,.2,.5,.3"/><path class="e" d="M201.2,14.1c0-.2,.2-.4,.4-.4s.4,.2,.4,.4v61.1c0,.2-.2,.4-.4,.4s-.4-.2-.4-.4V14.1Z"/><path class="e" d="M199.9,20.4c-.1,.2-.4,.3-.6,.1-.2-.1-.3-.4-.1-.6,0,0,0,.1,0,0,0,0,0,0,0,0h0c0-.2,0-.3,0-.4,0-.4,.3-.8,.5-1.3,.3-.7,.6-1.4,.9-2,.1-.3,.3-.5,.5-.7,0,0,.2-.2,.3-.2,.1,0,.3-.1,.4,0,.3,0,.4,.2,.6,.4,.1,.2,.2,.4,.2,.6,0,.4,0,1,.1,1.5,0,1.1,0,2.2,.3,2.6,.1,.2,0,.4-.1,.6-.2,.1-.4,0-.6-.1-.5-.7-.4-1.9-.4-3,0-.5,0-1,0-1.4,0-.2,0-.3-.1-.3,0,0,0,0,0,0,0,0,0,0,0,0,0,0,0,0,0,0,0,.1-.2,.3-.3,.5-.3,.5-.6,1.2-.9,1.9-.2,.5-.4,.9-.5,1.2,0,.1,0,.2,0,.3,0,0,0,0,0,0,0,0,0,0,0,0,0,0,0,0,0,.1m1.9-4.3c0,.2-.2,.4-.4,.4-.2,0-.4-.2-.4-.4,0-.2,0-.2,0-.2,0,0,0,0,0,0,0,0,.1,.1,0,0,0,0,.3,0,.2,0,0,0,.2,0,.1,0,0,0,0,0,0,0,0,0-.1,.2-.2,.4-.2,.6-.5,1.5-.8,2.4-.1,.3-.2,.7-.3,.9,0,.2-.1,.3-.1,.4,0,0,0,.1,0,.2,0,0,0,.2-.2,.3-.2,.1-.4,0-.6-.2-.1-.2,0-.4,.2-.6,0,0-.1,0,0,0,0,0,0,0,0,0,0,0,0,0,0,0,0,0,0,0,0-.1,0-.1,0-.3,.2-.4,0-.3,.2-.5,.3-.9,.3-.8,.5-1.7,.8-2.4,.2-.4,.2-.7,.6-.8,.1,0,.3,0,.5,0,.1,0,.2,.2,.2,.3,0,.2,0,.3,0,.5"/><path class="e" d="M249.5,188.4c0,.2-.2,.4-.4,.4s-.4-.2-.4-.4V14.1c0-.2,.2-.4,.4-.4s.4,.2,.4,.4V188.4Z"/><path class="e" d="M248.6,16.4c0,.2,0,.4-.2,.5-.2,0-.4,0-.5-.2,0,0,0,0,0,0h0c0,0,0,0,0-.1,0,0,0-.1,0-.2,0,0,0,0,0,0,0,0,.1,0,.1,0-.2,.2-.6,1.7-.9,3-.1,.5-.3,1-.3,1.3,0,0,0,.2,0,.2,0,0,0,0,0,0,0,0,0,0,0,0,0,0,0,0,0,0,0,0,0,0,0,0,0,0-.2-.2-.1-.1,0,0-.3,0-.2,0,0,0-.2,0-.1,0,0,0-.1,0-.1,0,0,0,0,0,0,0,0,0,0,0,0,0,0,0,0,0,0,0,.1-.3,.3-.7,.5-1.1,.6-1.3,1.2-2.9,1.8-4,.2-.4,.3-.7,.4-.9,0-.2,.2-.3,.4-.4,.2,0,.4,0,.5,.1,0,.1,.1,.2,.1,.3,0,.4,0,1,0,1.7,0,.9,0,1.8,.1,2.3,0,.3,.2,.5,.3,.6,0,.1,.2,.2,.4,.1,.2,0,.4,.2,.4,.4,0,.2-.2,.4-.4,.4-.4,0-.8-.1-1-.4-.3-.3-.4-.6-.5-1-.2-.7-.2-1.6-.1-2.6,0-.6,0-1.3,0-1.5,0,0,0,0,0,0,0,0,0,.1,0,0,0,0,.2,.1,.2,.1,0,0,.3,0,.2,0,0,0,0,0,0,0,0,0,0,0,0,.1-.1,.2-.2,.5-.4,.9-.5,1.1-1.2,2.7-1.8,4-.2,.5-.4,.9-.5,1.2,0,0,0,.1-.1,.2,0,0,0,.2-.3,.2-.2,0-.4-.2-.4-.3,0,0,0-.1,0-.1,0-.2,0-.3,0-.5,0-.4,.2-.8,.3-1.4,.2-.6,.3-1.3,.5-1.9,.2-.6,.3-1.2,.7-1.5,.2-.2,.5-.2,.7,0,.2,0,.3,.2,.4,.4,0,.1,0,.2,.1,.3,0,0,0,0,0,0h0s0,0,0,0"/><path class="e" d="M249.2,17.1c0,.2-.3,.4-.5,.3-.2,0-.4-.3-.3-.5,0,0,0,.1,0,0,0,0,0-.1-.1-.2,0,0,0,0,0,0,0,0,.2,0,.1,0,0,0,.2-.1,.2,0,0,0,.1-.2,.1-.2,0,0,0,0,0,0,0,.1,.2,.4,.4,.7,.3,.4,.6,.9,.9,1.4,.3,.6,.7,1.1,1,1.5,.2,.2,.3,.4,.4,.5,0,0,0,.1,.1,.1,0,0,0,0,0,0,0,0,0,0,0,0,0,0-.2,0-.1,0v.8c-.2,0-.3-.1-.3-.1,0,0,0,0,0,0,0,0,0,0,0,0,0,0,0-.1,0-.2,0-.1-.1-.3-.2-.4-.3-.6-.7-1.3-1-2.1-.2-.4-.3-.8-.4-1.2,0-.2-.1-.3-.2-.4,0,0,0,0,0,0,0,0,0,0,0,0,0,0,.1,0,0,0,0,0,.2,0,.1,0,0,0,.3,0,.2,0,0,0,.2-.1,.1-.1,0,0,0-.1,0,0,0,0,0-.1,0,0,0,0,0,0,0,0,0,.5,.5,1.5,.9,2.4,.2,.5,.3,1,.5,1.3,0,.1,0,.2,.1,.2,0,0,0,0,0,0,0,0-.2,0-.1,0,0,0-.1,0-.1,0,0,0,0,0,0,0,.2-.1,.4-.1,.6,0,.1,.2,.1,.4,0,.6,0,0-.2,.2-.4,.2-.2,0-.3,0-.4-.2-.2-.1-.2-.3-.3-.5-.2-.4-.3-.8-.5-1.3-.3-.9-.8-1.9-.9-2.5,0-.1,0-.2,0-.4,0,0,0-.2,.2-.2,.1,0,.3,0,.4,0,.1,0,.2,.2,.2,.2,0,.1,.1,.3,.2,.5,.1,.3,.2,.7,.4,1.1,.3,.7,.7,1.4,.9,2,0,.2,.1,.3,.2,.5,0,0,0,.1,0,.1,0,0,0,0,0,0,0,0,0,0,0,0,0,0-.1,0,0,0,0,0-.1,0,0,0,0,0-.2,0-.1,0,.2,0,.4,.2,.4,.4,0,.2-.2,.4-.4,.4-.3,0-.3-.1-.4-.2,0,0-.1-.1-.2-.2-.1-.2-.2-.4-.4-.6-.3-.5-.6-1-1-1.5-.3-.5-.6-1-.9-1.4-.3-.4-.6-.8-.5-1.3,0-.1,0-.2,.2-.3,0,0,.2-.1,.3-.1,.2,0,.4,.1,.5,.2,0,.1,.1,.2,.2,.3,0,.1,.1,.2,0,.5"/><path class="e" d="M157.8,8.6c.2-.1,.4-.1,.6,0s.1,.4,0,.6c-.1,.1-.2,.2-.3,.3,0,0,0,0-.2,0,0,0-.1,0-.2,0-.1,0-.3-.2-.3-.3,0-.2,0-.3,0-.3,0,0,0,0,0-.1,0-.1,.1-.2,.2-.4,.2-.4,.6-.9,1-1.6,.3-.5,.7-1.1,1.1-1.7,.6-.9,1.2-1.9,1.8-2.8,.6-.8,1.1-1.5,1.5-2,.1-.1,.2-.2,.3-.3,.1,0,.3-.1,.5,0,.2,0,.3,.2,.4,.3,0,.1,.1,.2,.1,.4,0,.5,0,1.2,0,1.9-.2,1.2-.4,2.4-.5,3.4,0,.5,0,.9,0,1.1,0,.1,0,.2,0,.2,0,0,0,0,0,0,0,0,0,0,0,0,.2,0,.3,.3,.3,.5,0,.2-.3,.3-.5,.3-.2,0-.4-.3-.4-.4,0-.2,0-.3-.1-.5,0-.4,0-.8,0-1.3,.1-1,.4-2.2,.5-3.3,0-.7,.1-1.3,0-1.6,0,0,0,0,0,0s0,0,0,0c0,0,.1,0,.1,0,0,0,.1,0,0,0,0,0,0,0,0,0,0,0,0,0-.2,.1-.4,.4-.9,1.1-1.4,1.9-.6,.9-1.2,1.8-1.8,2.7-.4,.6-.7,1.2-1.1,1.7-.4,.7-.8,1.2-1,1.6,0,.1-.2,.3-.2,.3,0,0,0,0,0,0,0,0,0,0,0,0,0,0,0,0,0,0,0,0,0-.2,0-.1,0,0-.2-.2-.1-.2,0,0-.2,0-.2,0,0,0-.2,0-.2,0,0,0,0,0,0,0,0,0,0,0,0,0,0,0,.1-.1,.3-.2"/><path class="e" d="M159.8,6.4c-.2,0-.4,0-.5-.2,0-.2,0-.4,.2-.5,.1,0,.1,0,.2,0,.3,0,.9-.1,1.5-.2,.7-.1,1.7-.3,2.8-.4,.2,0,.4,.1,.4,.4,0,.2-.1,.4-.4,.4-1.1,0-2,.3-2.7,.4-.7,.1-1.3,.2-1.5,.2h0s.1,0,0,0m1.6-.2c.2,.1,.3,.4,.2,.6-.1,.2-.4,.3-.6,.2-.4-.2-.7-.3-.9-.4-.1,0-.2,0-.3,0,0,0,0,0-.2,0,0,0,0,0,0,0-.2,0-.3-.3-.2-.5,0-.2,.3-.3,.5-.2,0,0,0,0,0,0,0,0,0,0,.1,0,0,0,.3,0,.5,0,.3,.1,.7,.3,1.1,.5"/><path class="e" d="M145.4,75.3c0,.2-.2,.4-.4,.4s-.4-.2-.4-.4v-.5c0-.6-.2-1.7,0-2.8,.1-.9,.5-1.8,1.1-2.5,.4-.4,.9-.6,1.4-.7,.5,0,1,0,1.3,.4,.3,.3,.3,.6,.3,.8,0,.3,.1,.7,0,1.2,0,.4-.3,.6-.5,.8-.1,.2-.3,.3-.4,.4-.3,.2-.5,.4-.6,.5,0,0,0-.1,0,0,0,0,0,0,0,0,0,0,0,0,0,0,0,0,.2,.2,.3,.3,.2,.2,.5,.4,.8,.6,.3,.2,.5,.5,.6,.8,.1,.3,0,.8-.2,1.1-.2,.3-.5,.4-.8,.5-1.2,.6-2.5,.9-2.8,1.1-.2,.1-.4,.1-.6,0s-.1-.4,0-.6c.3-.3,.8-.4,1.3-.6,.5-.2,1.1-.4,1.6-.6,.3-.1,.5-.2,.5-.3,.1-.1,.1-.2,0-.3,0-.2-.2-.3-.4-.5-.2-.2-.5-.4-.8-.6-.1-.1-.3-.2-.4-.4,0,0-.1-.2-.2-.3,0-.1,0-.3,0-.5,.2-.4,.5-.6,.8-.9,.1,0,.2-.2,.3-.3,.1-.2,.3-.4,.3-.6,0-.2,0-.5,0-.8,0-.2,0-.4-.1-.4-.1-.1-.3-.2-.6-.2-.3,0-.6,.2-.9,.4-.5,.5-.8,1.3-.9,2-.1,1,0,1.9,0,2.7v.5m.5-4.7c.2,0,.4,.3,.3,.5,0,.2-.3,.4-.5,.3,0,0,.2,0,.1,0,0,0,0,0,0,0,0,0,0,.2-.1,.3-.1,.3-.2,.8-.3,1.3,0,.5,0,1,0,1.3,0,.2,0,.3,0,.4,0,.1,0,.3,0,.4h0c0,.4-.2,.6-.4,.6-.2,0-.4-.2-.4-.4h0c0-.2,0-.4,0-.5,0-.1,0-.3,0-.5,0-.4,0-.9,0-1.4,0-.5,.1-1,.3-1.5,0-.2,.1-.4,.3-.6,0,0,.1-.2,.3-.2,.1,0,.3,0,.4,0"/><path class="e" d="M147.7,129.6c0,.2-.3,.3-.5,.3-.2,0-.3-.3-.3-.5,0,0,0-.2,0-.2,0,0,0,0,0,0,0,0,0,0,0,0,0,0,.1,0,.1,0,0,0,0,0,0,0,0,0,0,0-.2,.1-.2,.1-.4,.3-.7,.6-.5,.6-1,1.3-1.3,2-.3,.6-.4,1.2-.3,1.5,0,.1,0,.2,.2,.2,.2,0,.4,.1,.8,0,.7,0,1.8-.3,2.9-.8,.2,0,.4,0,.5,.2,0,.2,0,.4-.2,.5-1.2,.5-2.3,.8-3.2,.9-.4,0-.8,0-1.2-.2-.3-.1-.6-.5-.7-.8-.1-.6,0-1.3,.4-2,.4-.8,.9-1.6,1.5-2.3,.3-.3,.5-.6,.8-.7,.1,0,.3-.2,.4-.2,.1,0,.3,0,.5,0,.3,.1,.4,.4,.4,.6,0,.2,0,.4,0,.6"/><path class="e" d="M144.7,186.5c.2,0,.4,0,.5,.3,0,.2,0,.4-.3,.5,0,0,0,0,0,0,0,0,0,.3-.1,.4,0,.4,0,1,0,1.5,0,.6,0,1.2,0,1.6,0,.2,0,.3,0,.3,0,0,0,0,0,0,0,0,0,0,0,0,0,0,0-.1,0,0,0,0-.3-.1-.2,0,0,0-.2,0-.1,0,0,0-.2,0-.1,0,0,0-.2,.1-.1,.1,0,0,0,0,0,0,.1-.2,.2-2.2,.5-3.8,.1-.8,.1-1.6,.4-2.1,0-.2,.3-.3,.4-.3,.2,0,.3,0,.5,0,.3,0,.5,.3,.7,.5,.6,.6,1.2,1.4,1.4,2.4,.1,.8,0,1.7-.2,2.5-.3,1.1-1.1,1.9-2,2.1-.6,.2-1.3,0-2-.2-.6-.2-1.2-.5-1.5-.8-.2-.1-.2-.4,0-.6,.1-.2,.4-.2,.6,0,.6,.5,2,1.1,2.8,.9,.6-.1,1.1-.7,1.4-1.6,.2-.7,.3-1.5,.1-2.1-.1-.8-.6-1.4-1.1-2-.2-.1-.3-.3-.4-.3,0,0,0,0,0,0,0,0,.1,0,.1,0-.1,.3-.2,1-.3,1.9-.1,.8-.2,1.6-.3,2.4,0,.7,0,1.3-.3,1.6,0,0,0,.1-.2,.2-.2,0-.4,0-.5,0-.1-.1-.1-.2-.1-.3,0-.1,0-.3,0-.5,0-.4,0-1,0-1.5,0-.6,0-1.1,0-1.6,0-.3,0-.5,.2-.7,.1-.2,.3-.4,.6-.5"/><path class="e" d="M161.4,260.7c.2,.2,.1,.4,0,.6-.2,.2-.4,.1-.6,0,0,0,0,0,0,0,0,0,.3,0,.2,0,0,0,.2,0,.2,0,0,0,.1-.1,.1,0,0,0,0,0,0,0,0,0,0,0,0,.2,0,.2,0,.6-.1,1,0,.9-.2,2-.3,3.1-.1,1.3-.3,2.3-.3,2.7,0,0,0,0,0,0,0,0,0,0,0,0,0,0,0,0,0,0,0,0,0-.1,0,0,0,0,0-.1,0-.1,0,0-.2-.1-.1,0,0,0-.2,0-.1,0,0,0-.2,0-.2,0,0,0-.1,0-.1,0,0,0,0,.1,0,0,0,0,0,0,0,0,0,0,0,0,0-.1,0-.2,.2-.7,.4-1.4,0-.2,.3-.3,.5-.3,.2,0,.3,.3,.3,.5-.2,.7-.3,1.1-.4,1.4,0,0,0,.1,0,.1,0,0,0,0,0,0,0,0,0,0-.1,.2,0,0-.2,.1-.3,0-.3,0-.3-.3-.3-.3,0-.2,0-.2,0-.3,0-.4,.2-1.4,.3-2.6,0-1,.2-2.2,.3-3.1,0-.4,0-.8,.1-1.1,0-.1,0-.2,.1-.4,0,0,0-.2,.2-.2,.2,0,.4,0,.5,.1"/><path class="e" d="M160.9,261.7c.2,0,.3,.3,.2,.5,0,.2-.3,.3-.5,.2-.2-.1-.4-.2-.5-.4,0,0,0-.1,0-.2,0-.1,0-.2,0-.3,.1-.1,.2-.2,.3-.2,.2,0,.4,0,.6,0,1.3,0,3.4-.5,5-.4,.2,0,.4,.2,.4,.4,0,.2-.2,.4-.4,.4-1.4,0-3.5,.4-4.9,.4-.2,0-.4,0-.4,0,0,0,0,0,0,0,0,0,.1-.1,0,0,0,0,0-.1,0-.1,0,0,0-.2,0-.1,0,0,0-.1,0-.1,0,0,0,0,0,0,0,0,0,0,0,0,0,0,0,0,.2,.1"/><path class="e" d="M160.8,265.1c.2,0,.4,0,.5,.2,0,.2,0,.4-.2,.5,0,0,0,0,0,0,0,0,0,0,0,0,0,0,0-.1,0,0,0,0,0-.3,0-.2,0,0-.1-.3,0-.2,0,0-.1,0,0,0,0,0,0,0,0,0,0,0,.1,0,.3,0,.8,0,2.1-.4,3.3-.5,.2,0,.4,.1,.4,.4,0,.2-.1,.4-.4,.4-1.2,.1-2.4,.5-3.4,.5-.2,0-.4,0-.7,0,0,0-.2-.2-.2-.4,0-.2,0-.3,.1-.4,.1-.1,.2-.2,.3-.2"/><path class="e" d="M161,269.6c.2,.1,.2,.4,0,.6-.1,.2-.4,.2-.6,0-.2-.1-.3-.3-.4-.5,0-.2,0-.4,.1-.6,.2-.3,.6-.4,1-.5,.9-.2,2.3-.3,4,0,.2,0,.4,.2,.4,.5,0,.2-.2,.4-.5,.4-1.6-.2-2.9-.2-3.7,0-.3,0-.5,.2-.6,.2,0,0,0-.2,0-.1,0,0,0,0,0,0"/><path d="M175,50.5c0,.2-.2,.4-.4,.4-.2,0-.4-.2-.4-.4,0,0,0,0,0,0h0c0,0,0-.3,0-.5-.1-.6-.2-1.3-.2-2.1,0-.4,0-.9,0-1.5,.1-1,.5-2.2,.9-3,.2-.3,.5-.6,.8-.7,.4,0,.7,.1,1,.4,.4,.4,.4,1,.4,1.6,0,1.3-.5,2.4-1,3.2-.2,.3-.3,.5-.2,.5,0,.1,.4,.4,.8,.8,.5,.3,1,.7,1.4,1.3,.1,.2,0,.4-.1,.6-.2,.1-.4,0-.6-.1-.2-.4-.7-.7-1.2-1.1-.5-.3-1-.6-1.1-1.2-.1-.5,.1-.8,.3-1.2,.4-.7,.9-1.7,.9-2.7,0-.5-.1-1-.2-1.1,0-.1-.2-.1-.2-.1,0,0-.1,0-.3,.3-.4,.6-.7,1.7-.8,2.6,0,.5,0,1,0,1.4,0,.8,0,1.3,.2,1.9,0,.2,0,.3,.1,.5,0,0,0,0,0,0,0,0,0,0,0,0m0-6.3c.2,0,.4,.3,.3,.5,0,.2-.3,.4-.5,.3,0,0,.2,0,.1,0,0,0,.2,0,.1,0,0,0,0,0,0,0,0,0,0,0,0,.1,0,.2,0,.5,0,.8,0,.7,0,1.6,0,2.5,0,.6,0,1.1,0,1.5s0,.4,0,.5c0,0,0,0,0,0,0,0,0,0,0,0,0,0,0,0,0,0,0,0,0,0,0,0,0,0,0-.1,0,0,.1,.2,0,.4-.1,.6-.2,.1-.4,0-.6-.1-.1-.2,0-.2,0-.2,0,0,0,0,0-.1,0-.1,0-.3,0-.5,0-.4,0-.9,0-1.5,0-.9,0-1.8,0-2.5,0-.4,0-.7,0-1,0-.1,0-.2,.1-.4,0-.1,.3-.3,.5-.3"/><path d="M179.9,51.5c0,.2,0,.4-.3,.5-.2,0-.4,0-.5-.3-.1-.5,0-1,.3-1.5,.1-.2,.2-.5,.4-.7,.1-.1,.2-.3,.3-.4,0,0,.1-.1,.2-.2,0,0,.2,0,.4,0,.3,0,.4,.3,.4,.4,0,.1,0,.3,0,.4,0,.3,0,.7,0,1,0,.8,0,1.5,0,1.8,0,.2-.2,.4-.4,.4-.2,0-.4-.2-.4-.4,0-.4,0-1.1,0-1.8,0-.4,0-.7,0-.9,0-.1,0-.2,0-.2,0,0,0,0,0,0,0,0,0,0,0,0,0,0,.2,0,.1,0,0,0,.1,0,.1,0,0,0,0,0,0,0,0,0,0,0,0,0,0,0-.1,.2-.2,.3,0,.1-.2,.3-.3,.6-.2,.4-.3,.8-.2,1"/><path d="M175.6,102.7c0-.2,.2-.4,.5-.3,.2,0,.4,.2,.3,.5,0,.4-.2,1.7-.2,3.1,0,.6,0,1.2,0,1.6,0,.2,0,.4,0,.6,0,.1,0,.2,0,.3,0,0,0,.1-.1,.2,0,0,0,0-.2,.1,0,0-.2,0-.3,0-.1,0-.2-.1-.2-.2,0,0,0-.1,0-.1,0,0,0-.1,0-.2,0-.1,0-.3,0-.4,0-.7-.1-1.8,0-3,.1-1.3,.5-2.6,1-3.6,.2-.3,.3-.5,.6-.7,.2,0,.4,0,.6,0,.2,0,.3,.2,.4,.3,.2,.2,.3,.5,.4,.9,.3,1.3-.1,2.5-.4,3.3-.1,.5-.1,.9,0,1.4,.2,.5,.5,1.1,1,1.6,.1,.2,.1,.4,0,.6-.2,.1-.4,.1-.6,0-.5-.6-1-1.2-1.2-1.9-.2-.6-.3-1.3,0-1.9,.3-.8,.6-1.9,.4-2.9,0-.2-.2-.4-.3-.5,0,0,0,0,0,0,0,0,.1,0,0,0,0,0-.1,.1-.3,.3-.4,.8-.8,2.1-.9,3.2-.1,1.2,0,2.2,0,2.9,0,.1,0,.3,0,.4,0,0,0,0,0,0,0,0,0,0,0,0,0,0,0,0,0,0,0,0-.2-.1-.1,0,0,0-.2,0-.1,0,0,0-.2,0-.1,0,0,0-.2,.1-.1,0,0,0,0,0,0,0,0,0,0,0,0,0,0,0,0,0,0,0,0,0,0-.3,0-.5,0-.4,0-1,0-1.6,0-.7,0-1.3,.1-1.9,0-.6,0-1,.1-1.2"/><path d="M180.8,107.8c-.1,.2-.4,.2-.6,0-.2-.1-.2-.4,0-.6,.1-.2,.3-.3,.5-.4,.2,0,.4,0,.6,0,.3,.1,.6,.4,.7,.7,.3,.6,0,1.2-.2,1.7,0,.2-.2,.4-.2,.6,0,.1,0,.2,0,.2,0,0,0,0,0,0,0,0,0,0,.3,0,.2,0,.5,0,.8-.1,.2,0,.4,.1,.5,.3s-.1,.4-.3,.5c-.3,0-.6,0-.8,.1-.3,0-.6,0-.8-.2-.2-.1-.3-.4-.3-.6,0-.2,0-.3,0-.5,0-.2,.2-.5,.3-.7,.2-.5,.3-.9,.2-1.1,0-.1-.2-.2-.2-.2,0,0,0,0,0,0,0,0,0,0-.1,.1"/><path d="M176,163.9c0,.2-.2,.4-.4,.4s-.4-.2-.4-.4h0c0-.2,0-.9,0-1.7,0-.8,0-1.8,0-2.7,0-.9,.2-1.7,.5-2.4,.1-.3,.3-.6,.6-.7,.2-.2,.5-.2,.8-.2,.3,0,.5,.3,.7,.5,.1,.2,.2,.5,.2,.8,.1,1.1-.5,2.2-.6,3,0,.4,0,.6,0,.6,0,0,0,0,0,0,.1,0,.3,0,.5,.1,.4,.1,1,.3,1.4,.8,.1,.2,.1,.4,0,.6-.2,.1-.4,.1-.6,0-.3-.3-.6-.4-1-.5-.2,0-.4,0-.6-.1-.2,0-.4-.2-.5-.5-.2-.4,0-.8,0-1.1,.2-.9,.7-2,.6-2.7,0-.2,0-.4-.1-.5,0-.1,0-.1,0-.1,0,0-.1,0-.2,0,0,0-.2,.2-.3,.4-.2,.5-.4,1.2-.4,2,0,.9,0,1.8,0,2.6,0,.8,0,1.4,0,1.7h0m-.5-6c0-.2,.3-.3,.5-.2,.2,0,.3,.3,.2,.5,0,.2-.1,.5-.2,1.1,0,.6,0,1.3,0,2,0,.7,0,1.3,0,1.9,0,.3,0,.5,0,.6h0c0,.4-.2,.5-.4,.5s-.4-.2-.4-.4h0c0-.3,0-.5,0-.7,0-.5,0-1.2,0-1.9,0-.7,0-1.5,0-2.1,0-.6,.1-1,.3-1.4"/><path d="M181.1,163.1c0,.2-.1,.4-.3,.5-.2,0-.4-.1-.5-.3,0-.2,0-.5,.1-.7,.1-.2,.3-.3,.5-.4,.3-.1,.7,0,1,0,.3,.2,.3,.4,.4,.7,0,.2,0,.4,0,.7,0,.5-.3,.8-.3,.9,0,0,0,0,0,0,0,0,0,0,0,0,0,0,0,.1,.2,.2,0,0,.1,0,.3,.2,.2,.2,.2,.5,.3,.7,0,.3,0,.5-.2,.6-.1,.2-.3,.3-.5,.4-.4,.2-.8,.2-1.3,.2-.2,0-.4-.2-.3-.5,0-.2,.2-.4,.5-.3,.2,0,.6,0,.8-.1,.1,0,.2-.1,.2-.2,0,0,0,0,0,0,0,0,0-.2,0-.2,0,0,0,0-.2-.2,0,0-.2-.2-.2-.3,0-.1-.2-.3-.2-.5,0-.5,.3-.7,.3-.9,0-.1,0-.3,0-.4,0-.1,0,0,0-.1,0,0-.1,0-.2,0,0,0,0,0-.1,.1,0,0,0,0,0,.1"/><path d="M176.1,214.8c.2-.2,.4-.2,.6,0,.2,.2,.2,.4,0,.6,0,0,0,0,0,0,0,0,0,0,0,.2,0,.2,0,.5,0,.8,0,1.2-.1,2.8-.2,4.1,0,.4,0,.6,0,.8,0,0,0,.1,0,.2,0,0,0,0,0,.1,0,0,0,.2-.2,.2-.2,0-.4,0-.4,0,0,0,0,0-.1-.1,0,0,0-.1,0-.2-.2-.5-.4-1.6-.5-2.8,0-.6-.1-1.3,0-2.1,0-.6,.1-1.2,.3-1.7,.2-.7,.6-1.2,1-1.5,.2-.2,.5-.2,.8-.2,.3,0,.5,.2,.6,.4,.3,.4,.5,.9,.6,1.5,0,.9-.3,1.7-.6,2.4-.1,.3-.3,.6-.4,.7,0,0,0,0,0,.1,0,0,.1,.1,.3,.3,.6,.7,1,1.8,1.4,2,.2,.1,.3,.4,.2,.6-.1,.2-.4,.3-.6,.2-.9-.5-1.2-1.7-1.6-2.1-.1-.1-.3-.2-.4-.4-.1-.2-.2-.6,0-.9,.1-.2,.3-.5,.4-.7,.3-.6,.6-1.4,.5-2,0-.4-.2-.9-.4-1.1,0,0-.2-.1-.2-.1,0,0,0,0-.2,0-.2,.2-.5,.5-.7,1-.1,.5-.2,1-.3,1.6,0,.7,0,1.3,0,1.9,.1,1.2,.3,2.2,.5,2.6,0,0,0,0,0,0,0,0,0,0,0,0,0,0,0,0,0,0,0,0-.2-.1-.1,0,0,0-.3,0-.3,0,0,0-.2,.1-.2,.1,0,0,0,.1,0,0,0,0,0,0,0,0,0,0,0,0,0,0,0-.2,0-.4,0-.8,0-1.2,.1-2.9,.2-4.1,0-.4,0-.7,0-.9,0-.2,0-.4,.2-.6"/><path d="M181.5,217.7c.2,0,.4,.2,.3,.5,0,.2-.2,.4-.5,.3,0,0,0,0,0,0,0,0,0,0,0,0,0,.1,0,.4,0,.8,0,.8-.2,1.6-.2,2.1,0,.1,0,.2,0,.2,0,0,0,0,0,0,0,0,0,0,0,0,0,0,.2,0,.3-.2,.2-.1,.4,0,.6,.1,.1,.2,0,.4-.1,.6-.2,.1-.4,.2-.6,.2-.2,0-.4,0-.6,0-.2-.1-.3-.3-.3-.4,0-.2,0-.3,0-.5,0-.7,.1-1.5,.2-2.2,0-.4,0-.7,.1-1.1,0-.2,.2-.4,.4-.5,.2-.1,.4-.1,.6,0"/><path d="M183.2,219.6c.2,0,.4,.2,.4,.4,0,.2-.2,.4-.4,.4,0,0,0,0,0,0,0,0,0,0,0,0,0,0,0,.1-.1,.3-.1,.3-.2,.7-.3,1.1-.2,.9-.2,1.9-.3,2.6,0,.2-.2,.4-.4,.4-.2,0-.4-.2-.4-.4,0-.7,0-1.7,.3-2.7,0-.5,.2-.9,.3-1.3,0-.2,.2-.3,.3-.5,.1-.1,.3-.3,.5-.3"/><path d="M159.4,222.9c.2,0,.3,.3,.2,.5,0,.2-.3,.3-.5,.2,0,0-.2,0-.2,0,0,0,0,0,0,0,0,0,.2-.1,.1,0,0,0,0-.2,0-.1,0,0,0,0,0,0,0,0,0,0,0,0,.1,.2,.5,.5,.9,.7,.2,0,.3,.1,.3,.2,0,0,0,0,.1,0,.1-.1,.1-.7,.4-1.3,.1-.4,.5-.6,.9-.6,.4,0,.6,.2,.9,.4,.2,.2,.5,.5,.6,.8,.2,.3,.3,.7,.3,1,0,.3,0,.7-.2,1-.1,.2-.4,.2-.6,.1-.2-.1-.2-.4-.1-.6,0,0,0-.2,0-.5,0-.2-.1-.5-.3-.7-.1-.2-.3-.5-.5-.6-.2-.1-.3-.2-.3-.2,0,0-.1,0-.2,.1-.1,.3,0,1-.5,1.5-.2,.2-.5,.4-.9,.4-.2,0-.4-.2-.6-.3-.5-.3-.9-.6-1.2-1,0-.1-.1-.2-.1-.4,0-.1,0-.3,0-.5,.1-.2,.3-.2,.5-.2,.2,0,.3,0,.5,.1"/><path d="M160.1,224.4c.2,0,.4,0,.5,.2,0,.2,0,.4-.2,.5-.2,0-.4,0-.6,0-.2,0-.3-.2-.5-.4-.3-.3-.4-.8-.6-1.3-.3-1.1-.6-2.5-.6-3.9,0-.2,.2-.4,.4-.4,.2,0,.4,.2,.4,.4,0,1.4,.3,2.7,.6,3.7,.1,.5,.3,.8,.5,1,0,0,.1,.1,.2,.1,0,0,0,0,0,0"/><path d="M158.6,216.1c0-.2,.3-.3,.5-.2,.2,0,.3,.3,.2,.5,0,0,0-.2,0-.2,0,0,0,0,0,0,0,0,0,0,0,0,0,0,.2,.1,.3,.2,.3,.2,.9,.5,1.4,.7,.5,.2,1.1,.4,1.7,.6,.6,.2,1.1,.2,1.3,.2,0,0,0,0,0,0,0,0,0,0,0,0,0,0-.2,.2-.1,.1,0,0,0,.2,0,.2,0,0,0,0,0,0,0,0,0,0-.2-.2-.3-.3-.8-.7-1.3-1.2-.6-.5-1.1-1-1.6-1.6-.5-.5-.9-1.1-.8-1.7,0-.2,.2-.4,.4-.4,.2,0,.4,.2,.4,.4,0,.2,.2,.7,.6,1.1,.4,.5,1,1,1.6,1.5,.5,.5,1,.9,1.4,1.3,.2,.2,.3,.3,.4,.6,0,.2,0,.4-.2,.5-.1,.1-.3,.1-.4,.1-.4,0-.9,0-1.6-.2-.6-.2-1.2-.4-1.8-.6-.6-.2-1.1-.5-1.5-.7-.2-.1-.4-.2-.5-.4,0,0-.1-.1-.2-.2,0-.1,0-.3,0-.4"/><path d="M162.1,215.1c-.2-.1-.2-.4,0-.6s.4-.2,.6,0c.6,.5,.8,.5,1.6,0,.2-.1,.4,0,.6,.2,.1,.2,0,.4-.2,.6-.5,.3-.9,.4-1.4,.4-.4,0-.8-.3-1.2-.5"/><path d="M159.4,162.5c.2-.1,.4,0,.6,.1s0,.4-.1,.6c0,0,0,0,0,0,0,0,0,0,0,.2,0,.2,.1,.4,.2,.6,0,.1,.2,.2,.3,.2,.1,0,.2,0,.2,0,0,0,0,0,0,0,0,0,0-.2,.1-.4,0-.3,0-.7,.2-1,.1-.3,.4-.5,.7-.5,.1,0,.4,0,.6,.2,.6,.4,.9,1.1,1.1,1.8,.1,.4,.2,.7,.2,1.1,0,.3,0,.7-.3,1-.2,.2-.4,.1-.6,0-.2-.2-.1-.4,0-.6,0,0,0-.1,0-.4,0-.2,0-.5-.2-.8-.2-.6-.6-1.2-.8-1.3,0,0,0,0-.2,0,0,0,0,0,0,0,0,.1-.1,.5-.2,.8,0,.2,0,.4-.2,.5,0,.2-.2,.4-.4,.5-.2,.1-.5,.1-.7,.1-.3,0-.7-.2-.9-.5-.2-.3-.3-.6-.4-.9,0-.2,0-.3,0-.5,0-.2,.1-.4,.3-.5"/><path d="M160.2,163.1c.2,0,.3,.3,.2,.5,0,.2-.3,.3-.5,.2-.3-.1-.4-.4-.6-.6-.1-.3-.2-.6-.3-1-.2-.8-.3-1.8-.3-2.8,0-.2,.2-.4,.4-.4,.2,0,.4,.2,.4,.4,0,1,.1,1.9,.3,2.6,0,.4,.2,.6,.3,.8,0,0,0,.2,.1,.2,0,0,0,0,0,0,0,0,0,0,0,0"/><path d="M159.2,156.4c.1-.2,.4-.2,.6-.1,.2,.1,.2,.4,.1,.6,0,0,0-.2,0-.1,0,0,0,0,0,0,0,0,.2,.2,.4,.3,.4,.3,1,.5,1.6,.8,.6,.2,1.2,.5,1.7,.6,.3,0,.5,.1,.6,.1,0,0,0,0,0,0,0,0,0,0,0,0,0,0-.1,.2-.1,.1,0,0,0,.2,0,.2,0,0,0,0,0,0,0,0,0,0-.1-.1-.1,0-.3-.2-.4-.3-1.2-1.2-2.8-2.8-3.2-4.2,0-.2,0-.4,.3-.5,.2,0,.4,0,.5,.3,.3,1,1.8,2.7,3,3.9,.1,0,.2,.2,.4,.3,.1,.1,.3,.2,.4,.6,0,.2,0,.4-.3,.5-.2,0-.3,0-.4,0-.3,0-.5,0-.8-.2-.5-.2-1.1-.4-1.7-.7-.7-.3-1.3-.6-1.7-.9-.2-.1-.4-.3-.6-.5,0,0-.1-.2-.2-.4,0-.1,0-.3,0-.5"/><path d="M161.7,155.4c-.2-.1-.2-.4,0-.6,.1-.2,.4-.2,.6,0,.4,.3,.7,.5,1,.6,.3,0,.7,0,1.2-.3,.2-.1,.4,0,.6,.1,.1,.2,0,.4-.1,.6-.7,.4-1.3,.6-1.8,.4-.5-.1-.9-.4-1.3-.7"/><path d="M159.5,104.2c.2,0,.4,.3,.3,.5,0,.2-.3,.4-.5,.3-.1,0,0,0,0,0,0,0,0,0,0,0,0,.2,.1,.5,.3,.7,.1,.2,.4,.2,.6,.3,.1,0,.2,0,.3-.2,.2-.3,.2-1.1,.6-1.7,.2-.3,.5-.4,.7-.4,.2,0,.4,.1,.5,.2,.1,.1,.2,.2,.3,.4,.2,.3,.3,.7,.5,1.1,.1,.4,.2,.8,.2,1.2,0,.4,0,.7-.2,1.1-.1,.2-.4,.2-.6,0-.2-.1-.2-.4,0-.6,0,0,0-.2,0-.5,0-.3,0-.7-.2-1,0-.3-.2-.7-.4-.9,0-.1-.1-.2-.2-.2,0,0,0,0,0,0,0,0,0,0,0,0,0,0,0,0,0,0-.2,.2-.1,1.1-.6,1.7-.2,.3-.6,.5-1,.5-.4,0-.8-.2-1.2-.6-.3-.4-.5-.8-.5-1.3,0-.2,0-.5,.3-.7,.2-.2,.5-.2,.8-.2"/><path d="M159.4,104.7c.1-.2,.4-.2,.6,0,.2,.1,.2,.4,0,.6,0,.1-.2,.3-.5,.3-.3,0-.4-.2-.4-.4,0-.2,0-.4-.1-.7,0-.7-.1-1.6-.2-2.7,0-.2,.1-.4,.4-.5,.2,0,.4,.1,.5,.4,.1,1.1,.2,2.1,.2,2.7,0,.3,0,.5,0,.5,0,0,0,0,0,0,0,0-.1,0,0,0,0,0-.2,0-.2,0,0,0-.2,0-.2,0,0,0-.1,0,0,0,0,0,0,0,0,0"/><path d="M158.7,97.4c.2-.1,.4,0,.6,.2s0,.4-.2,.6c0,0,0,0,0,0,0,0,0-.2,0-.1,0,0,0-.1,0-.1,0,0,0,0,0,0,0,0,.1,.1,.3,.2,.4,.2,.9,.5,1.6,.7,.6,.2,1.1,.4,1.6,.4,.2,0,.4,0,.4,0,0,0,0,0,0,0,0,0,0,0,0,0,0,0,0,0,0,0,0,0,0,0-.2-.2-.1-.2-.3-.3-.5-.5-1-1.1-2.1-2.6-2.5-3.6,0-.2,0-.4,.2-.5,.2,0,.4,0,.5,.2,.4,.9,1.4,2.3,2.4,3.4,.2,.2,.4,.4,.5,.6,.2,.2,.4,.4,.4,.7,0,.2,0,.3-.1,.4,0,.1-.2,.2-.4,.3-.3,0-.5,0-.8,0-.5,0-1.1-.3-1.7-.5-.7-.2-1.3-.5-1.7-.8-.2-.1-.4-.3-.5-.5,0-.1-.1-.3,0-.5,0-.2,.2-.3,.3-.4"/><path d="M162,96.9c-.2,0-.4-.3-.3-.5,0-.2,.3-.4,.5-.3,.5,0,.9,.4,1.3,.2,.2,0,.4,0,.5,.2,0,.2,0,.4-.2,.5-.8,.4-1.7,0-1.8,0"/><path d="M158,49.7c.1-.2,.4-.2,.6-.1,.2,.1,.2,.4,.1,.6,0,0,0,0,0,0,0,0,0,0,0,0,0,0,0,0,0,.2,0,.2,.2,.4,.4,.5,.1,.1,.3,.2,.5,.3,.2,0,.3,0,.4,0,0,0,.1-.2,.2-.4,0-.2,.2-.4,.3-.7,0-.1,.2-.3,.4-.5,.2-.1,.5-.1,.7,0,.2,0,.4,.2,.6,.3,.3,.3,.5,.8,.5,1.2,0,.4,0,.8,0,1.2,0,.2-.3,.3-.5,.3-.2,0-.3-.3-.3-.5,0-.2,0-.5,0-.9,0-.3-.1-.6-.2-.7,0,0-.2-.1-.3-.1,0,0,0,0,0,0,0,0,0,0,0,.1,0,.2-.2,.4-.3,.7-.1,.2-.2,.5-.5,.7-.4,.2-.8,0-1.1,0-.3,0-.5-.2-.8-.5-.2-.2-.4-.5-.6-.7,0-.1-.1-.3-.1-.4,0-.2,0-.3,.1-.5"/><path d="M159.2,50.3c.2,.1,.3,.3,.2,.5-.1,.2-.3,.3-.5,.2-.2-.1-.4-.3-.5-.5,0-.2-.1-.5-.2-.8,0-.6,0-1.6,0-2.9,0-.2,.2-.4,.4-.4,.2,0,.4,.2,.4,.4,0,1.3,0,2.2,0,2.8,0,.3,0,.4,0,.5,0,0,0,0,0,0"/><path d="M159.2,43.8c.2,0,.4,0,.5,.2,0,.2,0,.4-.2,.5,0,0,.1,0,0,0,0,0,.1-.3,.1-.2,0,0,0-.2,0-.1,0,0,0-.1,0-.1,0,0,0,0,0,0,0,0,0,0,0,0,0,0,.3,.2,.5,.3,.4,.3,1,.6,1.6,.9,.6,.3,1.1,.5,1.6,.7,.2,0,.4,.1,.5,.1,0,0-.1,0,0,0,0,0-.1,.1,0,.1,0,0,0,0,0,0,0,0,0,0,0,0,0-.1-.3-.4-.6-.7-1.5-1.8-3.2-4.2-3.7-4.6-.2-.1-.2-.4,0-.6,.1-.2,.4-.2,.6,0,.4,.3,.9,1,1.5,1.9,.7,.9,1.5,1.9,2.2,2.8,.3,.3,.6,.6,.7,1,0,.2,0,.4,0,.6,0,.2-.3,.3-.6,.3-.2,0-.5,0-.8-.2-.5-.2-1.1-.4-1.7-.8-.6-.3-1.2-.7-1.7-1-.2-.1-.4-.3-.5-.4,0,0-.1-.1-.2-.2,0,0,0-.1,0-.2,0-.2,.1-.4,.2-.4"/><path d="M162,43c-.2,0-.3-.3-.2-.5,0-.2,.3-.3,.5-.2,.4,.1,.8,.3,1.2,.4,.2,0,.4,0,.5-.1,.2-.1,.3-.3,.4-.6,0-.2,.3-.3,.5-.2,.2,0,.3,.3,.2,.5-.2,.5-.4,.8-.8,1-.3,.2-.7,.3-1,.3-.6,0-1.2-.3-1.5-.4"/><path class="e" d="M211.3,41.6c0-.2,.2-.4,.4-.4,.2,0,.4,.2,.4,.4,0,0,0,0,0,.1,0,0,0,0,0,0,0,0,0,.1,0,.2,0,.2-.2,.4-.3,.6-.2,.5-.5,1.1-.7,1.7-.1,.4-.2,.8-.2,1,0,.3,0,.4,.1,.5,0,0,.2,.2,.4,.2,.2,0,.6,0,1-.2,.2,0,.4,0,.5,.3,0,.2,0,.4-.3,.5-.5,.2-1,.2-1.4,.2-.4,0-.7-.2-1-.5-.2-.3-.3-.7-.3-1,0-.4,0-.8,.2-1.3,.2-.6,.4-1.3,.7-1.8,.1-.2,.2-.5,.3-.6,0,0,0-.1,0-.1,0,0,0,0,0,0,0,0,0,.2,0,0m-3.6-.2c.2,.1,.2,.4,0,.6-.1,.2-.4,.2-.6,0-.1-.1-.2-.3-.2-.4,0-.1,0-.3,0-.4,0-.2,.2-.5,.3-.7,.1-.1,.3-.2,.4-.2,.1,0,.3,0,.5,0,.3,0,.3,.4,.3,.5,0,.1,0,.3,0,.4,0,.3-.1,.6-.3,1-.2,.8-.5,1.7-.7,2.4,0,.4-.1,.8,0,1,0,.1,0,.2,0,.2,0,0,0,0,0,0,0,0,.2,0,.3,0,.6-.3,1.4-1.5,2.2-2.5,.4-.5,.7-.9,.9-1.3,.2-.3,.4-.5,.5-.6,0,0,0,0,0,0,.2-.1,.4,0,.6,0,.1,.2,0,.4,0,.6,0,0,0,0,0,0,0,0-.2,.3-.4,.6-.3,.4-.6,.8-1,1.3-.8,1-1.5,2.2-2.4,2.7-.3,.2-.6,.2-.8,.2-.2,0-.4-.2-.5-.3-.1-.2-.2-.3-.2-.5,0-.4,0-.8,.1-1.3,.2-.8,.5-1.7,.7-2.5,.1-.4,.2-.7,.2-.9,0-.1,0-.2,0-.2,0,0,0,.1,0,0,0,0,0,.1,0,0,0,0,.2,0,.1,0,0,0,0,0,0,0,0,0,0,0,0,0,0,0,0,.1-.1,.2,0,0,0,0,0,0,0,0,0,0,0,0,0,0,0,0,0,0"/><path class="e" d="M215.5,46.6c0-.2,.3-.3,.5-.2,.2,0,.3,.3,.2,.5-.2,.5-.4,.9-.6,1.5,0,.3-.2,.7-.2,1,0,.1,0,.3,0,.4,0,0,0,.2-.2,.3,0,0-.1,0-.2,.1-.1,0-.2,0-.3,0-.2-.1-.2-.2-.2-.3,0,0,0-.2,0-.2,0-.2,0-.3,0-.4,0-.8,0-1.7,.6-2.6,.5-.8,1.3-1.4,2.1-1.3,.4,0,.8,.3,.9,.6,.2,.3,.2,.7,0,1.1-.1,.4-.4,.6-.6,.8-.1,.1-.3,.2-.3,.3,0,0,0,0,0,0,0,0,.4,.5,.5,1,0,.2,0,.5,0,.7,0,.3-.2,.5-.4,.7-.2,.1-.4,.2-.7,.3-.5,0-1.1,0-1.6-.2-.2,0-.3-.3-.2-.5,0-.2,.3-.3,.5-.2,.3,.2,.8,.2,1.1,.2,.2,0,.3,0,.3-.1,0,0,0,0,0-.1,0-.1,0-.2,0-.3-.1-.3-.5-.6-.6-1.2,0-.3,0-.5,.3-.7,.1-.1,.3-.2,.4-.3,.2-.2,.3-.4,.4-.5,0-.2,0-.3,0-.4,0,0-.1-.1-.2-.1-.4,0-1,.4-1.4,1-.4,.7-.5,1.4-.5,2.1,0,.2,0,.3,0,.4,0,0,0,0,0,0,0,0,0,0,0,0,0,0,0,0,0,0,0,0-.1,0,0,0,0,0-.2,0-.1,0,0,0-.2,0-.1,0,0,0-.2,.1-.2,0,0,0,0,0,0,0,0,0,0,0,0,0,0,0,0-.2,0-.3,0-.3,.1-.7,.2-1.1,.2-.6,.4-1.1,.6-1.6"/><path class="e" d="M220,50.7c.2,0,.3,.3,.2,.5,0,.2-.3,.3-.5,.2-.2-.1-.4-.4-.4-.7,0-.3,0-.5,.2-.9,.3-.7,.8-1.5,1.3-2.2,.3-.5,.7-1,.9-1.4,.2-.2,.3-.4,.4-.6,0,0,.2-.1,.3-.1,.2,0,.3,.1,.3,.2,0,.1,0,.2,0,.3,0,.2,0,.3,0,.6,0,.5-.2,1-.3,1.6-.1,.7-.2,1.4-.3,2,0,.2,0,.4,0,.5,0,.1,0,.2,0,.2,0,0,0,0,0,0,0,0-.1,0,0,0,0,0-.2,0-.1,0,0,0-.1,0,0,0,0,0-.2,.1-.2,.1,0,0,0,0,0,0,0,0,0,0,0,0,0,0,0-.1,0-.2,0-.2,.3-.4,.5-.3,.2,0,.4,.3,.3,.5,0,0,0,.2,0,.2,0,0,0,0,0,.2,0,0,0,.2-.3,.2-.1,0-.3,0-.4,0-.1,0-.2-.2-.2-.3,0-.2,0-.3-.1-.4,0-.2,0-.4,0-.6,0-.6,.1-1.3,.3-2.1,.1-.6,.2-1.1,.3-1.5,0-.2,0-.4,0-.4h0s0,0,0,0c0,0,0,0,0,0,0,0,.1,.2,0,.1,0,0,.2,0,.2,0,0,0,.2,0,.1,0,0,0,.2,0,.1,0,0,0,0,0,0,0,0,0-.1,.2-.3,.4-.3,.4-.6,.8-.9,1.3-.5,.8-1,1.5-1.2,2.1-.1,.3-.2,.5-.2,.5,0,0,0,0,0,0"/><path class="e" d="M220.4,49.4c-.2-.1-.2-.4,0-.6,.1-.2,.4-.2,.6,0,0,0,0,0,0,0,0,0,.7,0,1.3,0,.2,0,.4,.2,.4,.5,0,.2-.2,.4-.5,.4-.3,0-.6,0-.8,0-.3,0-.4,0-.7,0,0,0,0,0,0,0m1.5-.5c.2,.1,.3,.4,.1,.6-.1,.2-.4,.3-.6,.1,0,0-.3-.1-.6-.1,0,0-.2,0-.2,0,0,0,0,0,0,0,0,0,.1,0,0,0-.2,.1-.4,0-.6-.2-.1-.2,0-.4,.2-.6,0,0,0,0,.1,0,0,0,.1,0,.1,0,0,0,.2,0,.3,0,.3,0,.6,0,.9,.2"/><path class="e" d="M256.7,102.1c0,.2-.3,.4-.5,.3-.2,0-.4-.3-.3-.5,0,0,0-.4,0-.8,0-.4,.3-.6,.5-.7,.2,0,.4-.1,.6,0,.2,0,.4,.3,.5,.5,.2,.6-.1,1.3-.4,2.1-.3,.8-.6,1.7-.7,2.3,0,.3,0,.5,0,.6,0,0,0,.1,0,.2,0,0,0,0,0,0,0,0,0,0,0,0,0,0,0,0,.1,0,.5-.2,1.5-1.5,2.3-2.7,.4-.6,.8-1.1,1-1.5,.1-.2,.2-.3,.3-.4,0,0,0,0,.2-.2,0,0,.2-.2,.4,0,.3,.1,.2,.3,.2,.4,0,.6-.4,1.1-.6,1.7-.3,.9-.4,1.8-.3,2.2,0,.1,.1,.2,.3,.2,.2,0,.6-.1,1.1-.5,.2-.1,.4,0,.6,.1,.1,.2,0,.4-.1,.6-.6,.4-1.1,.6-1.6,.6-.5,0-.9-.3-1-.7-.3-.8-.1-1.8,.2-2.8,.3-.7,.6-1.4,.6-1.4,0,0,0,.2,0,.1,0,0,0,.2,0,.1,0,0,.2,.1,.2,.1,0,0,.2,0,.2,0,0,0,.2,0,.2,0,0,0,0,0,0,0,0,0,0,0,0,0h0c0,0-.1,.2-.3,.4-.3,.4-.6,.9-1,1.5-.4,.6-.9,1.2-1.3,1.8-.4,.5-.9,1-1.4,1.2-.2,0-.3,0-.5,0-.2,0-.3-.1-.5-.3-.2-.2-.2-.5-.2-.7,0-.2,0-.5,0-.8,.1-.8,.5-1.6,.8-2.4,.3-.8,.4-1.5,.4-1.6,0,0,0,0,0,0,0,0,0,0,0,0,0,0,0,0,0,0,0,.2,0,.5,0,.8"/><path class="e" d="M264.5,106.5c.1-.2,.4-.2,.6,0,.2,.1,.2,.4,0,.6-.2,.2-.3,.7-.4,1.3,0,.4-.1,.7-.2,1,0,.1,0,.3,0,.3,0,0,0,0,0,0,0,0,0-.2,0-.1,0,0-.1-.1,0-.1,0,0-.2-.1-.2,0,0,0-.2,0-.2,0,0,0-.2,0-.1,0,0,0-.1,.1,0,0,0,0,0,0,0,0,0,0,0,0,0,0,0,0,0,0,0-.1,0-.1,0-.3,.1-.5,.1-.5,.3-1,.4-1.6,.1-.5,.2-1,.4-1.4,0-.1,0-.3,.2-.5,.2-.3,.5-.4,.7-.4,.2,0,.3,.1,.4,.2,0,0,.1,.2,.2,.3,.1,.2,.2,.4,.3,.6,.4,1,.8,2.3,.6,3.5,0,.5-.3,1-.7,1.3-.3,.3-.7,.5-1.1,.5-.4,0-.8,0-1.1-.2-.3-.2-.6-.5-.7-.9,0-.2,.1-.4,.3-.5,.2,0,.4,.1,.5,.3,0,.2,.1,.3,.3,.3,.2,0,.4,.1,.6,0,.2,0,.5-.1,.7-.3,.2-.2,.4-.4,.4-.8,.2-.9-.2-2.1-.6-3,0-.2-.2-.4-.2-.5,0,0,0-.1,0-.1,0,0,0,0,0,0,0,0,.2,0,.1,0,0,0,0,0,0,0,0,0,0,.1-.1,.4-.1,.4-.2,.8-.4,1.3-.1,.6-.3,1.1-.4,1.6,0,.2-.1,.4-.1,.5,0,0,0,.1,0,.2,0,0,0,0,0,.1,0,0,0,0-.2,.1-.1,0-.3,0-.4,0-.2-.2-.1-.3-.1-.3,0-.1,0-.3,0-.5,0-.3,.1-.7,.2-1,0-.6,.2-1.2,.6-1.7"/><path class="e" d="M269.4,110.9c0,.2,0,.4-.2,.5s-.4,0-.5-.2c-.1-.4,0-.7,.2-1.2,.1-.3,.3-.6,.5-1,.3-.6,.7-1.2,1.1-1.8,.3-.5,.7-1,.9-1.3,0,0,.1-.1,.2-.2,0,0,.2-.2,.4-.1,.1,0,.2,0,.3,.2,0,0,0,.1,0,.2,0,0,0,.2,0,.3,0,.4,0,.9,0,1.5,0,1-.2,2.1-.2,2.8,0,.2,0,.3,0,.3,0,0,0,0,0,0,0,0,0-.1,0,0,0,0-.1-.1,0,0,0,0-.2,0-.1,0,0,0-.2,0-.2,0,0,0-.1,0-.1,0,0,0,0,0,0,0,0,0,0,0,0,0,0,0,0,0,0,0,0,0,0-.2,.1-.4,0-.2,.3-.3,.5-.3,.2,0,.3,.3,.3,.5,0,.2-.1,.4-.2,.5,0,0,0,.1-.1,.2,0,0-.2,.3-.5,.2-.3,0-.3-.2-.3-.3,0,0,0-.1,0-.2,0-.1,0-.3,0-.4,0-.7,.1-1.8,.2-2.8,0-.6,0-1.1,0-1.4,0,0,0,0,0,0,0,0,0,.1,0,0,0,0,.3,.1,.2,.1,0,0,.1,0,.1,0,0,0,.1,0,.1,0,0,0,0,0,0,0,0,0,0,0,0,0-.2,.3-.5,.7-.9,1.2-.4,.6-.7,1.2-1,1.8-.2,.4-.4,.7-.5,.9-.2,.4-.2,.5-.2,.5"/><path class="e" d="M270.2,109.7c-.2,.2-.4,.1-.6,0-.2-.2-.1-.4,0-.6,.2-.2,.4-.1,.5-.1,.1,0,.3,0,.5,0,.4,0,.8,0,1.1,0,.2,0,.4,.2,.4,.4,0,.2-.2,.4-.4,.4-.4,0-.9,0-1.2,0-.2,0-.3,0-.4,0,0,0,0,0,0,0,0,0,0,0,0,0,0,0,.2-.1,.1,0m.9-.5c.2,0,.3,.3,.3,.5,0,.2-.3,.3-.5,.3,0,0-.4,0-.6-.1,0,0-.2,0-.3,0,0,0,0,0-.1,0,0,0,0,0-.1,0,0,0,0,0,0,0-.2-.1-.2-.4-.1-.6,.1-.2,.4-.2,.6-.1,0,0,0,0,0,0,0,0,0,0,0,0h0c0,0,.2,0,.3,0,.2,0,.5,.1,.7,.2"/><path class="e" d="M207.3,198.2c0,.2,0,.4-.3,.5-.2,0-.4,0-.5-.3-.1-.3-.1-.6,0-.8,0-.2,.2-.5,.4-.6,.2-.1,.4-.2,.6-.2,.2,0,.5,0,.6,.2,.2,.2,.3,.4,.3,.6,0,.2,0,.4,0,.7,0,.5-.2,1.1-.4,1.7-.3,1-.5,2-.4,2.4,0,0,0,0,0,0,0,0,0,0,0,0,0,0-.1,0,0,0,0,0,0,0,0,0,0,0,0,0,.1,0,.1,0,.3-.3,.5-.5,.4-.4,.8-1,1.2-1.6,.4-.5,.7-1.1,1-1.5,.1-.2,.2-.3,.3-.4,0,0,.1-.2,.3-.2,.1,0,.3,0,.4,.2,0,0,0,.2,0,.2,0,.5-.2,.9-.3,1.5-.2,1-.4,2-.3,2.5,0,0,0,.1,0,.1,0,0,0,0,0,0,.1,0,.5-.1,1-.5,.2-.1,.4,0,.6,0,.1,.2,0,.4,0,.6-.6,.4-1.1,.7-1.5,.7-.2,0-.5,0-.6-.2-.2-.2-.3-.3-.3-.5-.2-.8,0-1.8,.3-2.9,.1-.6,.3-1.2,.3-1.2,0,0,0,0,0,0,0,0,0,.1,0,0,0,0,.2,.1,.1,.1,0,0,.2,0,.2,0,0,0,.1,0,.1,0,0,0,0,0,0,0,0,0,0,0,0,0,0,0-.1,.1-.2,.3-.3,.4-.6,.9-1,1.5-.4,.6-.8,1.1-1.3,1.6-.2,.2-.4,.4-.6,.6,0,0-.2,.1-.3,.2-.1,0-.3,0-.4,0-.3,0-.5-.4-.5-.6-.2-.8,.1-1.8,.4-2.8,.2-.6,.3-1.1,.4-1.6,0-.2,0-.4,0-.5,0,0,0,0,0-.1,0,0,0,0,0,0,0,0,0,0-.1,0,0,0,0,0,0,.2,0,0,0,.2,0,.4"/><path class="e" d="M216.6,202.1c.2,0,.4,.2,.3,.5,0,.2-.2,.4-.5,.3,0,0-.1,0-.2,0-.1,0-.2,.2-.3,.4-.2,.3-.4,.8-.5,1.2,0,.2,0,.4,0,.5,0,.1,.1,.2,.3,.3,.4,.2,1,.1,2-.2,.2,0,.4,0,.5,.2,0,.2,0,.4-.2,.5-1.1,.4-2,.5-2.6,.2-.3-.1-.6-.4-.7-.7-.1-.3-.2-.7,0-1,.1-.6,.3-1.1,.7-1.6,.2-.2,.3-.4,.6-.6,.2-.1,.5-.2,.8-.2"/><path class="e" d="M220.9,203.3c0,.2-.2,.4-.4,.4-.2,0-.4-.2-.4-.4,0,0,0,0,0,0,0,0,0,.1,0,0,0,0,.2,.2,.1,.1,0,0,.3,0,.2,0,0,0,.2,0,.1,0,0,0,.1,0,.1,0,0,0,0,0,0,0,0,0,0,0,0,0,0,0,0,.1,0,.2-.1,.3-.3,.8-.4,1.3-.1,.5-.2,1-.2,1.1h0s0,0,0,0c0,0,0,0,0,0,0,0-.2-.1-.2-.1,0,0-.3,0-.2,0,0,0,0,0,0,0,0,0,0,0,.1-.2,.1-.2,.4-.3,.6-.1s.3,.4,.1,.6c-.1,.2-.2,.4-.5,.5-.2,0-.5,0-.5-.2,0-.1,0-.2,0-.3,0-.4,0-.8,.2-1.4,.1-.5,.3-1,.4-1.4,0-.2,0-.3,.2-.5,0,0,.1-.1,.2-.1,.2,0,.5,.2,.5,.3,0,0,0,.2,0,.2"/><path class="e" d="M220,203.1c-.2-.1-.2-.4-.1-.6,.1-.2,.4-.2,.6-.1,0,0,0,0,0,0,0,0,0,0,0,0,0,0,.1,0,.2,0,.3,0,.9,0,1.5,0,.7,0,1.4,0,2.2,0,.2,0,.4,.2,.4,.4,0,.2-.2,.4-.4,.4-.8,0-1.5,0-2.1,0-.6,0-1.2,.1-1.6,.1-.1,0-.2,0-.4,0,0,0,0,0-.2,0m.4-.8c.2,0,.4,.2,.4,.4,0,.2-.2,.4-.4,.4,0,0-.1,0-.1,0,0,0,0,0,0,0,0,0,0,0,0,0,0,0,.1,0,0,0-.2,.1-.4,0-.6-.1-.1-.2,0-.4,.1-.6,.1,0,.2,0,.2,0,0,0,.1,0,.2,0"/><path class="e" d="M221.4,204.4c0,.2-.2,.4-.4,.4-.2,0-.4-.2-.4-.4,0-.3,.2-.4,.3-.5,.1,0,.2,0,.3,0,.2,0,.4,0,.7,0,.5,0,1.1,0,1.5-.1,.2,0,.4,0,.5,.3,0,.2,0,.4-.3,.5-.5,.1-1.1,.1-1.7,.2-.2,0-.5,0-.6,0,0,0,0,0,0,0,0,0,0,0,0,0,0,0,.1-.1,.1,0,0,0,0-.1,0-.1,0,0,0-.2,0-.1"/><path class="e" d="M220.7,206.7c.2,0,.4,.2,.4,.4,0,.2-.2,.4-.4,.4,0,0-.2,0-.3,0,0,0-.1-.1-.2-.2,0-.2,0-.4,.1-.4,0,0,0,0,.1,0,.2,0,.3-.1,.6-.1,.5,0,1.2-.2,1.9-.3,.2,0,.4,.1,.5,.4s-.1,.4-.4,.5c-.7,0-1.4,.2-1.9,.3-.2,0-.4,0-.4,0,0,0,0,0,0,0,0,0,0,0,0,0,0,0,0-.2,0-.1,0,0,0-.2,0-.2,0,0-.1-.3,0-.2,0,0-.1-.1-.1-.1,0,0,0,0,0,0,0,0,0,0,0,0"/><path class="e" d="M251.7,151.1c-.1-.2,0-.4,.2-.5,.2-.1,.4,0,.5,.2,0,0,0,0,0,0,0,0,0,0,0,0,0,0,0,0,0,0,0,0,.2,.1,.4,.2,.5,.3,1.2,.8,2.1,1.3,.9,.5,2.1,1,3.4,1.4,.2,0,.3,.3,.3,.5,0,.2-.3,.3-.5,.3-1.4-.4-2.6-1-3.6-1.5-.9-.5-1.7-1-2.2-1.3-.1,0-.3-.2-.4-.2,0,0,0,0-.1,0,0,0,0,0-.1-.2m.5-.6c.2,0,.4,.3,.3,.5,0,.2-.3,.4-.5,.3,0,0,0,0,0,0,0,0,.2,0,.1,0-.2,0-.4,0-.5-.3,0-.2,0-.4,.3-.5,.1,0,.1,0,.2,0"/><path class="e" d="M264.6,156.1c-.1,.2-.4,.2-.6,0-.2-.1-.2-.4,0-.6,0,0,0,0,0,0,0,0,0,0,0,0,0-.2,.1-.9,.2-1.7,.2-1.3,.4-2.9,.9-4.3,.3-.7,.6-1.2,1.1-1.6,.5-.4,1.1-.5,1.5-.4,.6,0,1.1,.4,1.4,.9,.3,.4,.4,.9,.3,1.3,0,.6-.5,1.1-1.1,1.5-.5,.4-1.1,.7-1.6,.8-.2,0-.4,0-.5-.3,0-.2,0-.4,.3-.5,.4-.1,.9-.4,1.3-.7,.4-.3,.7-.7,.7-1,0-.3,0-.5-.2-.8-.2-.3-.5-.5-.8-.5-.3,0-.7,0-.9,.2-.3,.3-.6,.8-.8,1.3-.5,1.2-.7,2.8-.9,4.1-.1,.8-.2,1.5-.3,1.9,0,0,0,0,0,.2m-.3-4.3c.1-.2,.4-.3,.6-.2,.2,.1,.3,.4,.2,.6-.2,.3-.3,1.1-.3,1.8,0,.4,0,.9,0,1.2,0,.2,0,.4,0,.5,0,0,0,0,0,0,0,0,0,0,0,0,0,0,0-.2,0-.1,.1,.2,0,.4-.2,.5-.2,.1-.4,0-.5-.2,0-.1,0-.1,0-.2,0,0,0,0,0-.2,0-.1,0-.3,0-.5,0-.4,0-.8,0-1.2,0-.8,0-1.6,.4-2.2"/><path class="e" d="M269.9,151.6c.2-.2,.4-.1,.6,0,.2,.2,.1,.4,0,.6-.2,.2-.4,.6-.4,1,0,.2,0,.4,.2,.5,.2,.1,.6,.1,.9,0,.2,0,.4-.4,.5-.6,0,0,0,0,0-.2,0,0-.1-.2-.3-.2-.3-.2-.7-.3-1-.4-.2,0-.4-.3-.3-.5,0-.2,.3-.4,.5-.3,.4,0,.9,.2,1.3,.5,.2,.1,.4,.3,.5,.5,.1,.2,.2,.5,0,.8-.1,.4-.4,.9-1,1.1-.5,.2-1.2,.3-1.7,0-.4-.3-.6-.8-.6-1.2,0-.6,.3-1.1,.7-1.5"/><path class="e" d="M276.5,147c0,.2,0,.4-.2,.5-.2,0-.4,0-.5-.2,0,0,0,0,0,0,0,0,.1,0,0,0,0,0,.2,0,.2,0,0,0,.2,0,.1,0,0,0,0,0,0,0,0,0,0,0,0,0,0,.1-.2,.4-.4,.7-.3,.7-.7,1.7-1,2.7-.2,.7-.3,1.4-.4,1.9,0,.4,0,.7,0,.9,0,0,0,0,0,0,0,0,0,0,0,0,0,0,0,0,0,0,0,0-.1-.1,0,0,0,0-.2,0-.2,0,0,0-.2,0-.2,0,0,0-.1,0,0,0,0,0,0,0,0,0,0,0,0,0,0-.2,0-.3,0-.6,0-1,0-.2-.2-.5-.4-.7,0-.1-.2-.2-.2-.4,0-.2-.1-.4,0-.7,0-.1,.2-.2,.3-.2,0,0,.2,0,.3,0,.2,0,.3,0,.5,0,.4,0,.8,.1,1.2,.1,.2,0,.4,.2,.4,.4,0,.2-.2,.4-.4,.4-.5,0-.9,0-1.3-.1-.2,0-.3,0-.4,0,0,0,0,0,0,0,0,0,0,0,0,0,0,0,.1-.1,0,0,0,0,0,0,0,0,0,0,0,0,0,0,0,0,0,0,.1,.2,.2,.2,.4,.5,.6,1,.1,.4,.1,.9,0,1.3,0,.2,0,.5-.3,.6,0,0-.2,.1-.3,0-.1,0-.3-.1-.3-.2-.1-.1-.1-.3-.1-.4,0-.3,0-.6,0-1,0-.6,.2-1.3,.4-2.1,.3-1.1,.7-2.1,1-2.9,.2-.4,.3-.7,.5-.9,0-.1,.2-.2,.3-.3,.1,0,.3,0,.4,0,.1,0,.2,.2,.2,.3"/><path class="e" d="M280.1,150.5c.2,0,.3,.3,.2,.5,0,.2-.3,.3-.5,.2-.1,0-.2,0-.3,0,0,0-.2,0-.3,.2-.2,.3-.4,.7-.4,1.1,0,.4,0,.8,.2,1,0,0,.2,.2,.3,.2,.2,0,.4,0,.7-.1,.2,0,.4,0,.5,.2,0,.2,0,.4-.2,.5-.4,.1-.8,.2-1.1,.1-.3,0-.6-.2-.8-.4-.4-.4-.5-1.1-.5-1.6,0-.6,.3-1.2,.6-1.6,.2-.2,.4-.4,.7-.5,.3,0,.6,0,.9,0"/><path class="e" d="M280.3,150.7c.2,0,.4,0,.5,.2,0,.2,0,.4-.2,.5-.4,.2-.6,0-.8,0,0,0-.1,0-.1,0,0,0,.1-.1,0,0,0,0,0,0,0,0,0,.2-.2,.4-.4,.4-.2,0-.4-.2-.4-.4,0-.1,0-.3,.1-.4,0-.1,.2-.2,.3-.2,.2,0,.4,0,.5,0,.1,0,.3,0,.4,0,0,0,0,0,.1,0,0,0,0,0,0,0,0,0,0,0,0,0"/><path class="e" d="M282.6,151.5c.1-.2,.4-.2,.6,0,.2,.1,.2,.4,0,.6-.3,.3-.4,.6-.6,.9,0,.1-.1,.3-.2,.4,0,0,0,0,0,.1,0,0,0,0,0,0,0,0-.1-.2,0-.2,0,0-.1,0-.1,0,0,0,0,0,0,0,0,0,.2,0,.3,0,.2,0,.5-.4,.9-.6,.2-.1,.3-.2,.6-.3,.2,0,.4-.2,.8,0,.2,.1,.3,.3,.3,.5,0,.2,0,.3,0,.5,0,.3-.1,.7-.2,1,0,.2-.3,.3-.5,.3-.2,0-.3-.3-.3-.5,0-.3,.2-.6,.2-.8,0-.1,0-.2,0-.3,0,0,0,0,0,0,0,0,0,0,0,0,0,0,.1,0,0,0,0,0,0,0,0,0,0,0,0,0-.2,0,0,0-.2,0-.3,.2-.3,.2-.6,.5-1,.7-.2,0-.4,.1-.6,.1,0,0-.2,0-.3,0,0,0-.1,0-.2-.1,0,0-.1-.2-.1-.3,0-.5,.2-.7,.3-.9,.2-.3,.4-.7,.7-1"/><path class="e" d="M289,154.6c-.1,.2-.4,.3-.6,.1-.2-.1-.3-.4-.1-.6,0,0,0,0,0,0,0,0,0,0,0-.1,0-.1,0-.3,0-.4,0-.4-.2-.9-.3-1.4,0-.2-.2-.4-.2-.6,0,0,0-.2,0-.3,0,0,0-.2,.1-.3,0-.1,.2-.2,.3-.2,.4-.1,.7,0,1.1,.1,.4,.1,1,.3,1.5,.4,.2,0,.4,.3,.3,.5,0,.2-.3,.4-.5,.3-1.2-.3-2.2-.6-2.3-.6,0,0,0,0,0,0,0,0,.1-.1,0,0,0,0,0-.1,0-.1,0,0,0,0,0,0,0,0,0,0,0,0,0,.1,.2,.3,.2,.6,.1,.5,.3,1,.3,1.6,0,.3,0,.5,0,.9,0,0,0,0,0,0m2.2-8c.2,0,.3,.3,.2,.5,0,.2-.3,.3-.5,.2,0,0,0,0,0,0,0,0-.1,.1-.2,.3-.3,.5-.5,1.4-.8,2.4-.3,1-.6,2.1-.7,3,0,.4,0,.8,0,1.1,0,0,0,.2,0,.2,0,0,0,0,0,0,0,0,0-.1,0,0,0,0,0,0,0,0,.1,.2,0,.4-.1,.6-.2,.1-.4,0-.6-.1,0,0,0,0,0,0,0-.1,0-.1,0-.2,0,0,0-.2,0-.3,0-.3,0-.7,0-1.2,.2-.9,.5-2,.8-3,.3-1,.6-1.9,.9-2.5,.1-.3,.3-.5,.5-.6,.2-.1,.5-.2,.7,0"/><path class="e" d="M294.7,151.4c.2-.1,.4,0,.6,.2s0,.4-.2,.6c-.3,.1-.4,.3-.6,.6-.2,.4-.4,.9-.4,1.2,0,0,0,.1,0,.1,0,0,0,0,0,0,0,0,0-.1,0,0,0,0-.2,0-.1,0,0,0,0,0,0,0,0,0,0,0,.1,0,.2-.1,.4,0,.6,.1,.1,.2,0,.4-.1,.6-.1,0-.3,.1-.4,.2-.2,0-.4,0-.5-.1-.1-.1-.2-.3-.2-.4,0-.1,0-.2,0-.3,0-.5,.3-1,.5-1.4,.2-.4,.5-.8,.9-1"/><path class="e" d="M296.1,150.4c0,.2-.3,.3-.5,.3-.2,0-.3-.3-.3-.5,0,0,0,0,0,0,0,0,0-.1,0-.2,0-.1,0-.2,0-.4,0-.2,0-.4,.2-.5,.1-.2,.4-.2,.6,0,.2,.1,.2,.4,0,.6,0,0,0,0,0,0,0,0,0,0,0,.1,0,.2,.2,.4,.1,.8"/><path class="e" d="M299.5,151.3c.2,0,.4,.2,.4,.4,0,.2-.2,.4-.4,.4-.3,0-.6,.3-.9,.6-.1,.2-.3,.3-.3,.4,0,0,0,0,0,0,0,.1,.2,.3,.3,.3,0,0-.2,0-.1,0,0,0,0,0,0,0,0,0,.3-.4,.4-.7,0-.1,.1-.2,.2-.3,0-.1,.1-.3,.2-.4,0-.2,0-.2,.2-.4,.1-.2,.4-.3,.6-.2,.2,.1,.3,.4,.2,.6,0,0,0,0,0,0,0,0,0,0,0,0,0,0,0,.2,0,.4,0,.4-.3,.9-.3,1.3,0,.2,0,.3,0,.4,0,.1,0,.1,0,.1,0,0,0,0,0,0,0,0,0,0,.1,0,.1,0,.3-.2,.5-.3,.4-.3,.9-.8,1.5-1.3,.6-.6,1.2-1.3,1.7-2,.5-.7,1-1.4,1.4-2,.2-.3,.3-.5,.3-.6,0,0,0,0,0,0s0,.2,0,.1c0,0,.1,.1,0,0,0,0,.1,0,.1,0,0,0,.1,0,.1,0,0,0-.5,.4-1,.9-.7,.8-1.5,1.8-1.8,2.7-.1,.4-.2,.9,0,1.2,.1,.4,.4,.7,.9,1,.2,.1,.3,.4,.1,.6s-.4,.3-.6,.1c-.6-.4-1.1-.9-1.3-1.5-.2-.6-.1-1.2,0-1.7,.3-1.1,1.1-2.2,1.9-3.1,.5-.5,.9-1,1.4-1.1,0,0,.2,0,.3,0,.1,0,.2,.1,.3,.2,.1,.2,0,.4,0,.5,0,.2-.2,.5-.4,.8-.4,.6-.9,1.3-1.4,2-.6,.8-1.2,1.5-1.8,2.1-.6,.6-1.1,1.1-1.6,1.4-.2,.2-.5,.3-.7,.4-.2,0-.5,.1-.7,0-.3-.1-.4-.5-.5-.7,0-.3,0-.5,0-.7,0-.5,.2-1,.3-1.3,0,0,0-.2,0-.3,0,0,0,0,0-.3l.7,.4s0,0,0,0c0,0,0,.2-.2,.4,0,.1-.1,.3-.2,.4,0,.1-.1,.2-.2,.3-.1,.3-.3,.7-.6,.9-.1,0-.3,.2-.4,.2-.2,0-.4,0-.5-.1-.2-.2-.4-.4-.5-.6-.1-.2-.1-.5,0-.8,.1-.2,.3-.4,.4-.6,.3-.4,.8-.9,1.5-.9"/><path class="e" d="M307.3,152.1c0-.2,.2-.4,.4-.4s.4,.2,.4,.4c0,.4-.2,.9-.4,1.5-.1,.4-.2,.8-.4,1.3-.3,.9-.6,1.8-.9,2.8-.2,.6-.4,1.2-.5,1.7,0,.3-.1,.4-.2,.6,0,0,0,.2-.3,.2-.1,0-.3,0-.4,0,0,0,0-.1-.1-.1,0-.1,0-.2,0-.2,0-.1,0-.2,0-.4,0-.3,0-.8,.2-1.3,.2-.9,.5-1.9,.9-2.8,.2-.5,.4-1,.7-1.5,.5-.8,1.2-1.5,1.8-1.9,.4-.3,.8-.4,1.2-.4,.2,0,.4,.1,.5,.3,.1,.2,.2,.3,.2,.5,0,.3,0,.7-.1,1.1-.1,.4-.3,.7-.4,1-.2,.3-.4,.6-.7,.6-.2,0-.4,0-.5-.3,0-.2,0-.4,.3-.5,0,0,.1,0,.2-.3,.1-.2,.3-.5,.4-.8,0-.3,.1-.5,0-.7,0,0,0,0,0,0,0,0,0,0,0,0-.1,0-.4,0-.7,.3-.5,.4-1.2,1-1.5,1.7-.2,.4-.4,.9-.6,1.4-.4,.9-.7,1.9-.9,2.7-.1,.5-.2,.9-.2,1.2,0,.1,0,.2,0,.3,0,0,0,0,0,0,0,0,0-.1,0,0,0,0,0,0,0,0,0,0,0,0,0,0,0,0-.1,0,0,0,0,0-.2,0-.1,0,0,0-.3,0-.2,0,0,0-.1,0,0,0,0,0,0,0,0,0,0,0,0,0,0,0,0,0,0-.2,.1-.5,.1-.4,.3-1,.5-1.7,.3-.9,.6-1.9,.9-2.8,.1-.5,.3-.9,.4-1.3,.2-.6,.3-1,.3-1.3"/><path class="e" d="M316.4,147.8c0,.2-.3,.3-.5,.3s-.3-.3-.3-.5c0-.1,0-.2,0-.2,0,0,0,0,0,0,0,0,0,.1,0,0,0,0,.2,.1,.2,.1,0,0,.2,0,.2,0,0,0,0,0,0,0,0,0,0,0-.1,.1,0,.1-.2,.3-.3,.6-.3,.5-.6,1.2-1,2.1-.3,.6-.6,1.4-.9,2.1-.7,1.7-1.2,3.6-1.7,5.3-.3,1.3-.5,2.3-.6,3,0,.2,0,.3,0,.4,0,0,0,0,0,.1,0,0,0,0,0,0,0,0,0-.1,0,0,0,0,0,0,0,0,0,0-.1-.1,0,0,0,0-.2,0-.2,0,0,0-.2,0-.2,0,0,0-.2,0-.1,0,0,0-.1,.1-.1,0,0,0,0,0,0,0,0,0,0,0,0,0h0c0,0,0-.1,0-.2,0-.4,.2-1.2,.3-2.1,.1-.9,.2-1.9,.2-2.6,0-.5,0-.8,.1-1.2,.1-.2,.4-.4,.6-.4,.2,0,.4,0,.7,.1,.2,0,.3,.3,.3,.5,0,.2-.3,.3-.5,.3-.2,0-.4-.1-.5-.1,0,0,0,0,0,0,0,0,0,0,0,0,0,0,0,.4,0,.9,0,.8-.1,1.7-.2,2.7-.1,.9-.2,1.7-.3,2.1,0,.1,0,.2,0,.2,0,0,0,0,0,.1,0,0,0,0,0,0,0,0,0,.1-.2,.2-.2,0-.4,0-.4-.2-.1-.2,0-.2,0-.2,0-.2,0-.3,0-.7,0-.7,.3-1.8,.6-3.1,.5-1.7,1-3.6,1.7-5.4,.3-.8,.6-1.5,.9-2.2,.4-.8,.7-1.6,1-2.1,.1-.3,.3-.5,.4-.7,.1-.2,.2-.3,.5-.4,.2,0,.4,0,.5,.2,.1,.1,.1,.2,.1,.3,0,.2,0,.4,0,.6"/><path class="e" d="M318.7,151.7c.2,.1,.2,.4,.1,.6-.1,.2-.4,.2-.6,.1,0,0-.2,0-.2,0,0,0-.2,0-.3,.2-.3,.2-.5,.7-.6,1.1-.1,.5-.1,.9,0,1.2,0,.1,.1,.2,.3,.3,.1,0,.3,.1,.6,0,.2,0,.4,.1,.4,.4,0,.2-.1,.4-.4,.4-.4,0-.7,0-1-.2-.3-.1-.5-.4-.6-.7-.2-.5-.2-1.2,0-1.8,.2-.6,.5-1.1,.9-1.5,.2-.2,.4-.3,.7-.4,.3,0,.6,0,.9,.2"/><path class="e" d="M318.5,152.4c.2,0,.4,.2,.4,.4,0,.2-.2,.4-.4,.4-.2,0-.4,0-.4,0,0,0,0,0-.2,.3,0,.2-.3,.3-.5,.3-.2,0-.3-.3-.3-.5,.1-.4,.3-.7,.6-.9,.3-.1,.6,0,.8,0"/><path class="e" d="M320.2,152.9c.2-.2,.4-.1,.6,0,.2,.2,.1,.4,0,.6-.2,.2-.3,.5-.6,1.2,0,.2-.3,.3-.5,.2-.2,0-.3-.3-.2-.5,.3-.6,.4-1.1,.8-1.4"/><path class="e" d="M321.7,152.7c0,.2-.3,.4-.5,.3-.2,0-.4-.3-.3-.5,0-.2,0-.4,0-.7,0-.3,.2-.7,.5-1,.2-.2,.4-.2,.6,0,.2,.2,.2,.4,0,.6-.4,.4-.2,.7-.3,1.3"/><path class="e" d="M323.3,155.2c0,.2-.3,.3-.5,.3-.2,0-.3-.3-.3-.5,.1-.4,.4-.6,.8-1.1,.2-.3,.5-.6,.8-.9,.7-.8,1.6-1.9,2.4-2.9,.4-.5,.9-.9,1.2-1.3,.3-.4,.6-.7,.6-.7,.1-.2,.4-.3,.6-.2,.2,.1,.3,.4,.2,.6-.1,.2-.2,.2-.3,.2-.2,.1-.5,.2-.7,.4-.3,.3-.8,.8-1.2,1.4-.9,1.2-1.7,2.6-2,3.7-.1,.5,0,.9,0,1.2,.1,.2,.5,.4,1.1,.5,.2,0,.4,.2,.4,.4,0,.2-.2,.4-.4,.4-.8,0-1.5-.3-1.8-.9-.3-.5-.3-1.2-.2-1.8,.3-1.3,1.2-2.8,2.1-4,.4-.6,.9-1.1,1.3-1.5,.2-.2,.5-.3,.6-.4,0,0,.2,0,.2-.1h0s0,0,0,0c0,0-.1,.2,0,0l.7,.4c-.1,.3-.4,.5-.7,.8-.3,.4-.7,.8-1.2,1.3-.8,1-1.7,2.1-2.4,2.9-.3,.4-.6,.7-.8,.9-.4,.4-.6,.7-.6,.8"/><path class="e" d="M346.7,145.3c0,.2-.3,.4-.5,.3-.2,0-.4-.3-.3-.5,0,0,0-.1,0-.1,0,0,0,0,0,0,0,0,.1,.1,0,.1,0,0,.2,0,.1,0,0,0,0,0,0,0,0,0,0,0,0,0-.2,.1-.6,.5-1,1-.5,.6-1,1.4-1.4,2.3-.3,.7-.6,1.4-.7,2-.2,.7-.2,1.2,0,1.6,0,.3,.3,.5,.5,.5,.2,0,.5,0,.8,0,.3-.1,.6-.4,.8-.7,.1-.2,.4-.2,.6,0,.2,.1,.2,.4,0,.6-.3,.4-.7,.8-1.2,.9-.4,.2-.9,.2-1.3,0-.4-.2-.8-.5-1-1-.2-.5-.2-1.2,0-2,.2-.7,.4-1.5,.8-2.2,.4-.9,1-1.7,1.5-2.4,.4-.6,.8-1,1.2-1.2,0,0,.2-.1,.3-.1,.1,0,.3,0,.5,.1,.1,.1,.2,.3,.2,.4,0,.1,0,.2,0,.4"/><path class="e" d="M343.8,148.9c.2,.1,.3,.3,.2,.6-.1,.2-.3,.3-.5,.2-.3-.1-.5-.2-.6-.4,0,0-.2-.2-.2-.3,0,0,0-.2,0-.3,0,0,.1-.1,.2-.2,.3-.2,.5-.1,.7,0,.3,0,.6,0,.9,.1,.6,.1,1.3,.3,1.7,.6,.2,.1,.3,.4,.1,.6-.1,.2-.4,.3-.6,.1-.3-.2-.9-.4-1.4-.5-.3,0-.6-.1-.8-.1-.1,0-.2,0-.2,0,0,0,0,0,0,0,0,0,0,0,0,0,0,0,.1-.2,.1-.1,0,0,0-.3,0-.2,0,0,0-.1,0-.1,0,0,0,0,0,0,0,0,.2,.1,.4,.2"/><path class="e" d="M347.2,150.9c0-.2,.2-.4,.4-.4,.2,0,.4,.2,.4,.4,0,.3,0,.7-.1,1,0,.1,0,.2,0,.3,0,.1,0,.2,0,.4,0,.2,0,.2,0,.3,0,.2-.2,.4-.5,.3-.2,0-.4-.2-.3-.5,0-.1,0-.4,.1-.8,.2-.9,.7-1.9,1.4-2.4,.4-.3,.9-.4,1.3-.2,.4,.2,.6,.5,.7,.8,.1,.3,.2,.7,.2,1.1,0,.8,0,1.5-.4,2-.2,.2-.4,.2-.6,0-.2-.2-.2-.4,0-.6,0,0,.2-.7,.2-1.3,0-.3,0-.6-.2-.9,0-.2-.2-.4-.3-.4-.1,0-.3,0-.5,.1-.4,.3-.9,1.1-1.1,1.9,0,.3-.1,.6-.1,.7h-.8c0-.2,0-.3,0-.4,0,0,0-.2,0-.4,0-.1,0-.2,0-.4,0-.3,.1-.6,0-.8"/><path class="e" d="M351.5,149.9c-.2,.1-.4,0-.6-.1-.1-.2,0-.4,.1-.6,0,0-.2,.2-.1,.2,0,0,0,.2,0,.1,0,0,0,0,0,0,0,0,0,0,0-.1,0,0,0-.1,0-.2,0,0,0-.1,0-.2,0-.1,.1-.3,.3-.4,.2,0,.4,0,.5,.3s0,.4-.3,.5c0,0,.2,0,.1,0,0,0,.2-.2,.1-.2,0,0,0-.2,0-.1,0,0,0,0,0,0,0,0,0,0,0,0,0,0,0,0,0,.1,0,0,0,.1,0,.2,0,0,0,.1,0,.2,0,0,0,.3-.2,.4"/><path class="e" d="M357.2,145.9c.2,.2,.2,.4,0,.6-.2,.2-.4,.2-.6,0,0,0,0,0,0,0,0,0,.2,0,.1,0,0,0,.1,0,0,0,0,0,0,0,0,0,0,0-.2,.4-.3,.7-.1,.4-.3,.9-.4,1.5-.4,1.4-1,3-1.5,4.6-.3,1.1-.6,2.2-.8,3.1-.2,.8-.2,1.4-.2,1.8,0,0,0,0,0,0,0,0-.1-.1,0,0,0,0-.2,0-.1,0,0,0,0,0,0,0,0,0,0,0,.2-.2,.8-.8,2-2.8,2.8-4.7,0-.2,.3-.3,.5-.2,.2,0,.3,.3,.2,.5-.4,1-.9,2-1.5,2.9-.5,.9-1,1.6-1.5,2.1-.2,.2-.4,.4-.7,.4-.2,0-.4-.2-.5-.3,0-.1,0-.3-.1-.4,0-.5,0-1.1,.2-2,.2-.9,.5-2,.9-3.1,.5-1.7,1.1-3.3,1.5-4.6,.2-.6,.3-1.1,.4-1.5,.1-.4,.2-.7,.4-1,0-.1,.2-.3,.4-.3,.2,0,.4,0,.5,.2"/><path class="e" d="M358.7,146.8c.2,0,.4,0,.5,.3,0,.2,0,.4-.3,.5,0,0,.1,0,0,0,0,0,.1,0,0,0,0,0,0,0,0,0,0,0,0,0,0,0,0,0,0,0,0,0,0,.1-.1,.3-.2,.5-.3,.7-.9,1.7-1.4,2.9-.4,.8-.8,1.6-1.1,2.4-.3,.8-.5,1.6-.7,2.3,0,.4,0,.7,0,.9,0,.1,0,.2,0,.2,0,0,0,0,0,0,0,0,0-.1,0,0,0,0-.1-.1,0,0,0,0-.3,0-.2,0,0,0-.2,0-.2,0,0,0-.1,0,0,0,0,0,0,0,0,0,0,0,0,0,0-.1,0-.1,0-.3,0-.5,0-.4,0-.9,0-1.4,0-.7-.2-1.3-.4-1.6,0-.1-.2-.2-.3-.2,0,0,.2,0,.2,0,0,0,.2-.1,.1,0,0,0,0-.3,0-.2,0,0,0-.2,0-.1,0,0,0-.1,0-.1,0,0,0,0,0,0,0,0,.2,0,.3,0,.2,0,.6,0,1,0,.8,0,1.7-.1,2.6-.3,.2,0,.4,.1,.5,.3,0,.2-.1,.4-.3,.5-.9,.2-1.9,.3-2.7,.3-.4,0-.8,0-1.1,0-.3,0-.5,0-.8-.3,0,0-.1-.2-.1-.4,0-.1,0-.2,.1-.3,0,0,.2-.1,.3-.2,.1,0,.2,0,.3,0,.2,0,.4,.2,.6,.5,.3,.5,.5,1.2,.5,2,0,.5,0,1.1,0,1.6,0,.2,0,.4,0,.5,0,.2,0,.4-.2,.6,0,0-.2,.1-.3,.1-.2,0-.3-.1-.3-.2,0-.1,0-.2,0-.2,0,0,0-.2,0-.3,0-.3,0-.7,0-1.1,.1-.7,.3-1.5,.7-2.4,.3-.8,.8-1.7,1.2-2.5,.6-1.2,1.1-2.2,1.4-2.8,0-.2,.2-.4,.2-.5,0,0,0,0,0-.1,0,0,0,0,0,0,0,0,0-.1,.2-.2m.2,1.6c0,.2-.3,.3-.5,.3-.2,0-.3-.3-.3-.5,.1-.3,.2-.6,.2-.8,0,0,0-.2,0-.2,0,0,0,0,0,0,0,0,0,0,0,0,0,0,0,.1,0,0,0,0,.1,.2,0,.2-.1-.2,0-.4,0-.6s.4,0,.6,0c.2,.2,0,.3,0,.3,0,.1,0,.2-.1,.4,0,.2-.1,.5-.2,.8"/><path class="e" d="M360.8,154.8c0,.2-.3,.3-.5,.3-.2,0-.3-.3-.3-.5,0,0,0,0,0,0,0,0,0-.4,0-.8,0-.6-.2-1.3-.3-1.9,0-.3,0-.5,0-.8,0-.1,0-.3,0-.4,0-.1,.2-.3,.4-.3,.3-.1,.6,0,1,0,.5,0,1,.2,1.8,.4,.2,0,.3,.3,.3,.5,0,.2-.3,.3-.5,.3-.8-.2-1.3-.3-1.7-.4-.4,0-.6,0-.6,0,0,0,0,0,0,0,0,0,0,0,0,0,0,.1,0,.4,0,.7,0,.5,.2,1.3,.3,1.9,0,.4,0,.7,0,1,0,0,0,0,0,0m3.7-8.1c0,.2-.1,.4-.3,.5-.2,0-.4-.1-.5-.3,0-.1,0-.2,0-.2,0,0,.2,0,.1,0,0,0-.1,0-.3,.3-.2,.2-.3,.5-.5,.9-.4,.8-.8,1.8-1.2,2.8-.3,.8-.6,1.7-.7,2.4-.1,.4-.1,.8-.1,1.2,0,.2,0,.3,0,.4,0,0,0,0,0,0,0,0,0,0,0,0,0,.2-.1,.4-.3,.5-.2,0-.4-.1-.5-.3,0,0,0,0,0,0,0,0,0,0,0-.1,0-.1,0-.3,0-.5,0-.3,0-.8,.2-1.3,.2-.7,.5-1.6,.8-2.4,.4-1,.8-2,1.2-2.9,.2-.4,.4-.8,.6-1,.2-.3,.4-.5,.7-.6,.3,0,.6,0,.7,.2,.1,.2,.2,.4,.3,.6"/><path class="e" d="M271.7,165.5c0,.2-.2,.4-.4,.4-.2,0-.4-.2-.4-.4,0-.1,0-.2,0-.3,0,0-.1-.2-.3-.2-.2,0-.4,0-.6,0-.2,0-.6,.4-.9,.8-.3,.4-.5,.9-.6,1.3,0,.2,0,.5,0,.7,0,.2,.1,.3,.3,.3,0,0,.3,0,.5,0,.2,0,.5-.2,.8-.4,.5-.3,.9-.9,1.3-1.3,.1-.2,.2-.4,.3-.5,0,0,0-.1,0-.1,0,0,0,0,0,0,0,0,0,.2,0,.1,0,0,0,.1,0,0,0,0,.2,.1,.1,.1,0,0,.3,0,.2,0,0,0,.1,0,.1,0,0,0,.1,0,0,0,0,0,0,0,0,0,0,0,0,0,0,0,0,0,0,0,0,0,0,0,0,.1-.1,.2,0,.2-.2,.4-.3,.5-.2,.4-.2,.8-.2,.9,0,0,0,0,0,0,0,0,.2,0,.3,0,.4,0,1.1-.4,1.7-.9,.3-.3,.5-.5,.7-.7,0,0,.1-.2,.3-.2,0,0,.1,0,.3,0,.2,0,.3,.3,.3,.4,0,.2,0,.2,0,.3-.1,.3-.3,.5-.4,.8-.1,.2-.2,.4-.2,.6,0,.2,0,.3,0,.3,0,0,0-.1,0-.1,0,0,0,0,0,0,0,0,0,0,0,0,0,0,0,0,.2,0,.2,0,.5,0,.8-.2,.3,0,.7-.3,1.1-.4,.4-.1,.9,0,1.1,.3,.3,.3,.2,.5,.2,.7,0,0,0,.1,0,.1,0,0,0,0,0,0,0,0,0,0,0,0,.2,.1,.3,.3,.2,.5-.1,.2-.3,.3-.5,.2-.2,0-.3-.3-.3-.4,0-.1,0-.2,0-.3,0,0,0-.2,0-.2,0,0,0,0,0,0,0,0,0,0,0,0,0,0-.1,0-.3,0-.3,0-.6,.2-1,.4-.3,0-.7,.2-1,.2-.2,0-.3,0-.4,0,0,0-.2,0-.3-.1,0,0-.2-.2-.2-.3,0-.3,0-.5,0-.6,0-.3,.2-.5,.3-.8,.2-.3,.3-.6,.4-.7,0,0,0,0,0,0,0,0,0,0,0,0,0,0,0,.1,0,0,0,0,0,.1,0,0,0,0,.1,.2,0,.2,0,0,.3,.2,.2,.1,0,0,.2,0,.1,0,0,0,.1,0,.1,0,0,0,0,0,0,0,0,0,0,0,0,0,0,0,0,0-.1,.1-.2,.2-.4,.5-.8,.8-.6,.5-1.4,1.2-2.2,1.1-.2,0-.5,0-.7-.2-.2-.1-.4-.3-.5-.5-.2-.5,0-1,.2-1.5,0-.2,.2-.4,.3-.6,0,0,0-.2,.1-.2,0,0,0,0,0,0,0,0,0,0,0,0,0,0,.2-.2,.5,0,.1,0,.2,.2,.2,.2,0,0,0,.1,0,.1,0,0,0,.1,0,.2,0,.1,0,.2-.1,.3,0,.2-.2,.4-.4,.6-.4,.5-.8,1.1-1.5,1.5-.3,.2-.6,.4-1,.5-.3,.1-.7,.2-1,0-.4-.2-.7-.5-.8-1,0-.3,0-.6,0-1,.1-.5,.4-1.1,.7-1.6,.3-.5,.8-.9,1.3-1.1,.4-.1,.7,0,1,0,.3,0,.6,.3,.7,.5,.2,.2,.2,.5,.2,.8"/><path class="e" d="M284.7,161.7c0,.2-.1,.4-.3,.5s-.4-.1-.5-.3c0-.1,0-.2,0-.2,0,0,0,0,0,0,0,0,0,0,0,0,0,0,.1,0,.1,0,0,0,0,0,0,0,0,0,0,0,0,0-.2,.2-.6,.8-.9,1.6-.4,.8-.8,1.6-1.1,2.6-.6,1.6-.7,3.6-.7,5.4,0,.8,0,1.5,.2,2.1,0,.4,.2,.7,.3,1,0,.1,.2,.2,0,.5,0,0-.2,.2-.3,.2-.1,0-.2,0-.3,0-.1,0-.2,0-.2-.1-.2-.1-.4-.4-.6-.6-.5-.6-1-1.3-1.3-1.9-.1-.2-.2-.4-.3-.7,0-.2,0-.6,.1-.8,.3-.5,1-.7,2.2-.9,.2,0,.4,.1,.5,.3,0,.2-.1,.4-.3,.5-.6,0-1,.2-1.3,.3-.3,0-.4,.2-.4,.2,0,0,0,0,0,.2,0,.1,.1,.3,.2,.5,.3,.5,.7,1.2,1.2,1.7,.2,.2,.4,.4,.5,.5,0,0,0,0,0,0,0,0,0,0,0,0,0,0-.1,0,0,0,0,0-.2,0-.1,0,0,0-.2,.1-.2,0,0,0-.1,.2,0,.1,0,0,0,.1,0,0,0,0,0,0,0,0,0,0,0,0,0,0,0-.2-.2-.6-.3-1.1,0-.6-.2-1.3-.2-2.2,0-1.8,.2-3.8,.8-5.6,.4-1,.8-1.9,1.2-2.7,.4-.8,.7-1.4,1.1-1.8,0,0,.2-.2,.3-.2,.1,0,.3,0,.5,0,.2,0,.3,.2,.3,.3,0,.1,.1,.3,.1,.4"/><path class="e" d="M295.2,168.2c0,.2,0,.4-.2,.5s-.4,0-.5-.2c-.1-.3,0-.5,0-.8,0-.8,.1-2.1,.7-3.4,.3-.7,.7-1.3,1.1-1.8,.5-.6,1.2-.9,1.8-.9,.6,0,1.1,.1,1.5,.4,.3,.3,.5,.7,.4,1.2-.1,.5-.6,.8-1,1.1-.4,.3-.8,.5-.9,.6,0,0-.1,.2-.1,.4,0,.5,.7,1.6,.9,2.7,.1,.5,.1,1-.1,1.5-.2,.4-.6,.6-1,.6-.4,0-.8,0-1.2-.2-.4-.1-.7-.4-1-.6-.3-.3-.5-.6-.5-1.1,0-.2,.2-.4,.4-.4,.2,0,.4,.2,.4,.4,0,.1,0,.3,.3,.5,.2,.2,.5,.4,.7,.5,.3,.1,.6,.1,.8,.1,.2,0,.3,0,.4-.2,0-.2,.1-.5,0-.9-.2-.9-.9-1.9-.9-2.9,0-.3,.1-.7,.4-1,.3-.3,.7-.5,1.1-.7,.3-.2,.6-.5,.6-.6,0-.1,0-.2-.1-.3-.2-.1-.5-.3-.9-.2-.4,0-.8,.2-1.2,.6-.4,.4-.7,1-1,1.6-.5,1.2-.6,2.3-.6,3.1,0,.2,0,.3,0,.4,0,0,0,0,0,.1,0,0,0,0,0,0m.6-4c.2-.1,.4-.1,.6,0,.1,.2,.1,.4,0,.6-.2,.1-.6,1-.8,1.9-.1,.4-.2,.8-.3,1.1,0,.1,0,.3,0,.4,0,0,0,0,0,0h0c0,.3-.2,.4-.4,.4-.2,0-.4-.2-.4-.4h0c0,0,0-.2,0-.2,0,0,0-.2,0-.4,0-.3,.1-.7,.3-1.2,.2-.9,.5-1.8,1-2.3"/><path class="e" d="M303.1,165.6c.2,0,.4,.2,.3,.5,0,.2-.2,.4-.5,.3-.4,0-.8,0-1.1,.2-.5,.4-.8,1.4-.7,2,0,.4,.3,.7,.7,.8,.3,0,.8,0,1.3-.5,.2-.2,.4-.2,.6,0,.2,.2,.2,.4,0,.6-.6,.7-1.4,.9-2.1,.7-.7-.2-1.2-.7-1.3-1.4-.2-1,.2-2.1,1-2.8,.6-.5,1.2-.5,1.7-.4"/><path class="e" d="M303.9,166.4c.2,.2,.2,.4,0,.6-.2,.2-.4,.2-.6,0,0,0,0,0,0,0,0,0-.3-.1-.6-.1,0,0-.1,0-.1,0,0,0,0,0,0,0,0,0,0,0,0,0,0,0,.1-.1,.1,0,0,0,.1-.3,.1-.2,0,0,0-.2,0-.2,0,0,0-.2,0-.1,0,0,0,0,0,0,0,0,0,0,.1,0,.2,.1,.3,.4,.1,.6-.1,.2-.4,.3-.6,.1-.1,0-.2-.1-.3-.2,0,0,0,0-.1-.2,0-.1,0-.3,.1-.4,.2-.2,.3-.1,.4-.1,0,0,.2,0,.3,0,.2,0,.4,0,.5,.1,.2,0,.3,0,.5,.2"/><path class="e" d="M305.8,166.4c-.2,0-.4-.2-.4-.4,0-.2,.2-.4,.4-.4,.2,0,.4,0,.7,0,.1,0,.3,0,.5,0,.2,0,.4,0,.6,.3,.1,.1,.2,.3,.2,.4,0,.1,0,.2,0,.3,0,.2-.2,.4-.3,.5-.2,.4-.5,.7-.7,1.1-.4,.6-.6,1.1-.6,1.4,0,.1,0,0,0,0,0,0,.2,0,.5,0,.2,0,.4,0,.5,.3,0,.2,0,.4-.3,.5-.4,.1-.8,.1-1.1,0-.3-.2-.5-.5-.5-.8,0-.6,.3-1.2,.8-1.9,.2-.3,.5-.7,.7-1,0-.1,.2-.3,.2-.4,0,0,0,0,0,0,0,0,0,0,0,0,0,0,0,.1,0,0,0,0,0,0-.2,0,0,0-.2,0-.3,0-.3,0-.5,0-.8,0"/><path class="e" d="M306.1,168.4c-.1,.2-.4,.2-.6,.1-.2-.1-.2-.4-.1-.6,0-.1,.2-.2,.3-.2,0,0,.1,0,.2,0,0,0,.2,0,.2,0,.2,0,.3,0,.5,0,.3,0,.7,0,1.1,0s.4,.2,.4,.4-.2,.4-.4,.4c-.4,0-.8,0-1.1,0-.2,0-.4,0-.5,0,0,0-.1,0-.1,0,0,0,0,0,0,0,0,0,.1,0,0,0,0,0,.2-.2,.1-.1m.5-.3c.2,.1,.3,.3,.2,.5-.1,.2-.3,.3-.5,.2-.2,0-.4-.1-.5-.2,0,0,0,0,0,0,0,0,0,0,0,0-.2,0-.3-.3-.2-.5,0-.2,.3-.3,.5-.2,0,0,0,0,0,0,0,0,0,0,.1,0,0,0,.3,.1,.5,.2"/><path class="e" d="M311.5,166.1c.2,.1,.3,.4,.1,.6-.1,.2-.4,.3-.6,.1,0,0,.1,0,0,0,0,0,0,0,0,0,0,0,0,0-.1,.1-.1,.2-.3,.4-.5,.7-.2,.3-.3,.6-.3,.8,0,0,0,.2,0,.2,0,0,0,0,0,0,0,0,0,0,0,0,0,0-.1,0,0,0,0,0,0,0,0,0,0,0,0,0,0,0,0,0,.3,0,.4-.1,.4-.2,.8-.4,1.2-.6,.2,0,.4-.2,.6-.3,.2,0,.5,0,.6,.2,.1,.2,.2,.3,.2,.5,0,.3,0,.7,0,1,0,.2-.3,.4-.5,.3-.2,0-.4-.3-.3-.5,0-.3,0-.6,0-.8,0,0,0,0,0,0,0,0,.2,0,.1,0,0,0,0,0,0,0,0,0-.2,.1-.5,.2-.3,.2-.8,.4-1.2,.6-.2,0-.4,.2-.6,.2,0,0-.2,0-.3,0-.1,0-.3,0-.4-.2-.2-.3-.1-.5-.1-.7,0-.4,.2-.7,.4-1.1,.2-.3,.4-.6,.6-.9,.1-.1,.2-.2,.4-.3,.2,0,.4,0,.6,0"/><path class="e" d="M316.6,167.2c.2,0,.4,.2,.4,.4,0,.2-.2,.4-.4,.4-.1,0-.1,0-.2,.2-.1,.2-.3,.6-.4,1.2-.4,1.5-.7,3.7-1,5.6-.2,1.3-.2,2.3-.3,3,0,.1,0,.3-.2,.4-.1,.1-.4,.1-.6,0-.3-.1-.4-.3-.5-.6-.3-.5-.5-1.2-.8-2-.2-.8-.4-1.7-.3-2.4,0-.4,0-.7,.2-1,.1-.3,.4-.6,.7-.7,.2,0,.4,0,.5,.3,0,.2,0,.4-.3,.5,0,0-.1,0-.2,.2,0,.2-.1,.4-.1,.7,0,.6,.1,1.4,.3,2.2,.2,.8,.4,1.4,.7,1.8,0,0,.1,.2,.1,.2,0,0,0,0,0,0,0,0-.2,0-.1,0,0,0-.2,0-.1,0,0,0,0,0,0,0,0,0,0,0,0,0,.1-.4,.1-1.5,.3-2.8,.3-2,.6-4.2,1-5.7,.1-.6,.3-1,.5-1.4,.2-.3,.6-.6,1-.6"/><path class="e" d="M321.9,166.9c0,.2-.2,.4-.4,.4-.2,0-.4-.2-.4-.4,0-.7,0-1.2,0-1.3,0,0,0,0,0,0,0,0-.2,0-.3,0-.1,0-.3,.3-.4,.6-.2,.5,.2,1.1,.4,1.9,.1,.4,.2,.9,0,1.3-.2,.5-.6,.9-1.3,1.2-.2,0-.4,0-.5-.2,0-.2,0-.4,.2-.5,.5-.3,.8-.5,.9-.8,0-.2,0-.5,0-.8-.2-.7-.7-1.5-.4-2.4,.1-.4,.4-.9,.8-1.1,.2,0,.4-.1,.7-.1,.2,0,.5,0,.7,.3,.4,.5,.2,1.1,.1,1.9"/><path class="e" d="M324.7,167.8c.1-.2,.4-.3,.6-.1,.2,.1,.3,.4,.1,.6-.2,.3-.4,.8-.7,1.5-.2,.4-.3,.9-.5,1.4-.3,1-.7,2-1,2.9-.2,.5-.3,.9-.4,1.3,0,.2-.1,.4-.3,.5,0,0-.4,.2-.6,0-.2-.1-.2-.2-.2-.3,0-.3,0-.8,.1-1.4,.3-1.6,1.2-3.9,2.1-6,.4-.9,.8-1.7,1.2-2.4,.4-.7,1-1.2,1.4-1.4,.3-.2,.6-.3,.9-.2,.3,0,.5,.4,.6,.6,.2,.5,.2,1.2,.1,1.9,0,.7-.2,1.4-.4,2-.2,.6-.3,1.1-.8,1.4-.2,.1-.4,0-.6-.2-.1-.2,0-.4,.2-.6,0,0,0,0,0,0,0-.1,.2-.4,.4-.8,.2-.6,.3-1.2,.4-1.9,0-.6,0-1.2,0-1.5,0-.1,0-.1,0-.1,0,0,0,0-.2,0-.4,.2-.8,.6-1.2,1.2-.4,.6-.8,1.5-1.2,2.3-1,2.1-1.8,4.3-2.1,5.8-.1,.6-.1,1-.1,1.1,0,0,0,0,0,0,0,0,0,0,0,0,0,0-.1,0,0,0,0,0-.2,0-.1,0,0,0-.3,0-.2,0,0,0-.1,0,0,0,0,0,0,0,0,0,0,0,0-.1,0-.2,0-.3,.2-.8,.4-1.3,.3-.9,.7-1.9,1-2.9,.2-.5,.3-1,.5-1.5,.3-.7,.5-1.2,.7-1.6"/><path class="e" d="M329.3,168.2c0-.2,.3-.4,.5-.3,.2,0,.4,.3,.3,.5,0,.3,0,.6,.3,.9,.2,.2,.4,.3,.7,.3,.1,0,.3,0,.5-.1,.2-.1,.3-.3,.4-.4,0-.2,0-.4,0-.5-.1-.2-.4-.3-.8-.3-.2,0-.4-.2-.4-.4,0-.2,.2-.4,.4-.4,.6,0,1.1,.3,1.4,.7,.3,.4,.4,.9,.2,1.4-.2,.3-.4,.6-.7,.8-.3,.2-.7,.3-1.1,.2-.4,0-.8-.2-1.1-.5-.5-.5-.7-1.1-.5-1.7"/><path class="e" d="M338.1,161.6c0,.2,0,.4-.3,.5-.2,0-.4,0-.5-.3,0,0,0,0,0,0,0,0,.1,0,0,0,0,0,.2,0,.2,0,0,0,.2,0,.2,0,0,0,.1,0,.1,0,0,0,0,0,0,0,0,0,0,.2-.2,.4-.2,.5-.4,1.4-.7,2.3-.3,.9-.6,1.9-.9,2.8-.3,.9-.5,1.7-.6,2.4,0,.3,0,.6-.1,.7,0,0,0,.1,0,.1,0,0,0,0,0,0,0,0,0,0,0,0,0,0,0,0,0,0,0,0,0,0,0,0,0,0-.1,0,0,0,0,0-.2,0-.1,0,0,0-.2,0-.1,0,0,0-.2,.1-.2,0,0,0-.1,.2-.1,.1,0,0,0,0,0,0,0,0,0,0,0,0,0-.1,0-.4,0-.7,0-.4,0-.9,0-1.4,0-.6,0-1.2-.1-1.7,0-.2,0-.4,0-.6,0-.1,0-.2,.1-.4,0-.1,.2-.2,.3-.2,.2,0,.4,0,.6,0,.4,.1,1.1,.3,1.9,.6,.2,0,.3,.3,.3,.5,0,.2-.3,.3-.5,.3-.9-.3-1.5-.5-1.9-.6-.2,0-.2,0-.2,0,0,0,0,0,0,0,0,0,.1-.1,0,0,0,0,0-.1,0,0,0,0,0,0,0,0,0,0,0,.3,0,.5,0,.5,.1,1.1,.1,1.8,0,.5,0,1,0,1.4,0,.3,.1,.6,0,.9,0,0,0,.2-.2,.2-.1,0-.3,0-.4,0,0,0-.1-.1-.1-.1,0-.1,0-.2,0-.2,0,0,0-.2,0-.3,0-.2,0-.5,.1-.9,.1-.7,.4-1.5,.7-2.4,.3-.9,.7-1.9,.9-2.8,.3-.9,.5-1.8,.7-2.3,0-.3,.2-.5,.3-.6,0,0,.2-.3,.5-.2,.3,0,.3,.3,.4,.4"/><path class="e" d="M341.6,166.1c.2,0,.4,.2,.4,.4,0,.2-.2,.4-.4,.4-.5,0-.7-.1-.9,0-.1,0-.4,.4-.6,.7-.2,.4-.4,.9-.4,1.3,0,.2,0,.4,0,.5,0,.1,0,.2,.1,.2,0,0,.1,0,.3,0,.2,0,.4-.2,.7-.5,.2-.1,.4-.1,.6,0,.1,.2,.1,.4,0,.6-.4,.3-.7,.5-1,.6-.3,.1-.7,0-.9,0-.3-.1-.4-.4-.5-.7,0-.3,0-.6,0-.9,0-.5,.3-1,.5-1.5,.2-.5,.5-.9,1-1.1,.5-.2,1,0,1.2,0"/><path class="e" d="M341.5,166.5c.1,.2,0,.4-.1,.6-.2,.1-.4,0-.6-.1-.1-.1-.3-.3-.4-.4,0,0,0,0,0,0,0,0,0,0,0,0,0,0,.1,0,0,0,0,0,.1,0,.1,0,0,0,.2-.2,.2-.1,0,0,0-.3,0-.2,0,0,0-.1,0-.1,0,0,0,0,0,0,0,0,0,0,0,0,0,0,0,0,0,.1,.2,.2,.1,.4,0,.6-.2,.2-.4,.1-.6,0,0,0-.1-.1-.2-.2,0,0-.1-.1-.1-.3,0-.1,.1-.3,.2-.4,.1,0,.2,0,.3,0,.1,0,.2,0,.2,0,.2,.1,.5,.3,.7,.6"/><path class="e" d="M343,166.6c.2-.2,.4-.2,.6,0,.2,.2,.2,.4,0,.6,0,0-.2,.4-.3,.8,0,.2,0,.3-.1,.5,0,.1,0,.2,0,.2,0,0,0,0,0,0,0,0,0,0,0,0,0,0,0,0,0,0,0,0,0,0,0,0,0,0,.2,0,.3,0,.3,0,.7-.4,1.1-.5,.1,0,.2,0,.4,0,.2,0,.4,.3,.4,.5,0,.3,0,.6-.2,1,0,.2-.3,.3-.5,.2-.2,0-.3-.3-.2-.5,.2-.4,.2-.5,.2-.6,0,0,0,.2,0,.1,0,0,.2,.1,.2,.1,0,0,.1,0,0,0,0,0,0,0,0,0-.2,0-.7,.4-1.2,.6-.1,0-.3,0-.4,0-.2,0-.4,0-.6-.1-.2-.1-.2-.4-.2-.5,0-.1,0-.3,0-.4,0-.2,0-.4,.1-.6,.1-.4,.2-.8,.5-1.1"/><path class="e" d="M348,166.3c-.1-.2,0-.4,.2-.6,.2-.1,.4,0,.6,.2,0,0,0,0,0,0,0,0,0,0,0,0,0,0,0,0,0,0,.4,.2,1.3,.4,2.5,.7,.2,0,.4,.3,.3,.5s-.3,.4-.5,.3c-1.2-.3-2.1-.5-2.7-.7-.1,0-.2,0-.3-.3m3.9-4.3c0,.2-.3,.3-.5,.3-.2,0-.3-.3-.3-.5,0,0,0-.2,0-.2,0,0,0,0,0,0,0,0,0,0,0,0,0,0,0,0,0,0,0,0,.2,0,.1,0,0,0,.1,0,.1,0,0,0,.1,0,.1,0,0,0,0,0,0,0,0,0-.2,.2-.3,.4-.6,1.1-1.4,3.4-2,5.4-.3,.9-.4,1.8-.5,2.5,0,.3,0,.6,0,.8,0,0,0,.1,0,.1,0,0,0,0,0,0,0,0,0,0,0,0,0,0-.2-.1-.2,0,0,0-.3,0-.2,0,0,0-.1,0,0,0,0,0,0,0,0,0,0,0,0,0,0,0,0,0,0,0,0-.1,0-.1,0-.3,.1-.6,0-.4,0-.9,0-1.4,0-.7,0-1.3-.2-1.8,0-.2-.1-.3-.2-.5,0,0,0,0,0,0,0,0,.1,0,0,0h0c-.2-.1-.2-.4,0-.6,.1-.2,.4-.2,.6,0,0,0,0,0,0,0,0,0,0,.1,.1,.2,0,.1,.2,.3,.2,.6,.1,.5,.2,1.2,.2,1.9,0,.5,0,1.1,0,1.6,0,.2,0,.4-.1,.6,0,0,0,.2-.1,.3,0,0-.1,.2-.3,.3-.2,0-.4,0-.5-.1,0,0-.1-.1-.1-.2,0-.1,0-.2,0-.3,0-.2,0-.6,0-.9,0-.7,.3-1.6,.5-2.6,.6-2,1.3-4.3,2.1-5.6,.1-.2,.3-.4,.4-.5,0,0,.1-.1,.2-.2,0,0,.1,0,.2,0,0,0,.2,0,.3,.1,.2,.2,.2,.4,.3,.5,0,.2,0,.4,0,.6"/><path class="e" d="M355.8,167c.2,0,.3,.3,.3,.5,0,.2-.3,.3-.5,.3h0s0,0,0,0c0,.1-.2,.3-.3,.6-.2,.6-.3,1.2-.2,1.6,0,.2-.1,.4-.4,.5-.2,0-.4-.1-.5-.4,0-.5,0-1.3,.3-1.9,.1-.3,.2-.6,.4-.9,.1-.1,.2-.2,.4-.3,.2,0,.4,0,.6,0"/><path class="e" d="M356.3,165.1c0,.2-.2,.4-.4,.4-.2,0-.4-.2-.4-.4,0-.3,0-.6,0-.8,0-.2,0-.4,.3-.5,.2-.1,.4-.1,.6-.2,.2,0,.4,.2,.4,.4,0,.2-.2,.4-.4,.4,0,0-.1,0-.1,0,0,0,0,0,0,0,0,0,0-.1,0,0,0,0,0,0,0,0,0,0,0,.4,0,.8"/><path class="e" d="M360.7,167.4c0,.2-.2,.4-.4,.4-.2,0-.4-.2-.4-.4,0-.1,0-.2,0-.3,0,0,0,0,0,0,0,0,0,0,0,0,0,0-.2,.1-.3,.2-.2,.2-.4,.4-.6,.7-.2,.3-.3,.5-.4,.8,0,.2,0,.3,0,.3,0,0,0,0,0,0,0,0,0,0,0,0,0,0,.5-.1,.9-.3,.2-.1,.4-.2,.6-.3,0,0,.2,0,.3,0,.1,0,.3,0,.3,.1,.2,.2,.2,.4,.2,.5,0,.3-.1,.5-.2,.6,0,.2,0,.2,0,.2,.1,.2,0,.4-.1,.6-.2,.1-.4,0-.6-.1-.2-.3-.1-.6,0-.9,0-.2,.1-.4,.1-.5,0,0,0,0,0,0,0,0,0,0,0,0,0,0,0,.1,0,0,0,0,.1,0,.1,0,0,0,.1,0,0,0,0,0,0,0,0,0-.1,0-.4,.2-.7,.4-.4,.2-.9,.5-1.4,.4-.1,0-.3,0-.4-.2-.1,0-.3-.2-.3-.4,0-.3,0-.5,0-.7,0-.3,.3-.7,.5-1,.2-.3,.5-.6,.7-.9,.3-.2,.6-.5,1-.4,.3,0,.5,.2,.6,.4,.1,.2,.1,.4,.2,.6"/><path class="e" d="M367.3,162.4c0,.2-.2,.4-.5,.3-.2,0-.4-.2-.3-.5,0-.1,0-.2,0-.2,0,0,0,0,0,0,0,0,0,.1,0,0,0,0,.2,.1,.1,0,0,0,.2,0,.1,0,0,0,.2,0,.1,0,0,0,0,0,0,0,0,0,0,0,0,0-.2,.3-.6,.9-1,1.7-.4,.7-.9,1.5-1.2,2.3-.3,.6-.5,1.3-.7,1.9-.3,1-.2,1.7,0,2.1,.1,.2,.3,.2,.5,.3,.2,0,.5,0,.9-.2,.2,0,.4,0,.5,.2,0,.2,0,.4-.2,.5-.5,.2-.9,.3-1.3,.3-.4,0-.8-.3-1-.6-.5-.6-.6-1.6-.2-2.8,.2-.6,.4-1.3,.7-2,.4-.9,.9-1.7,1.3-2.4,.4-.8,.8-1.4,1.1-1.8,0,0,.1-.2,.2-.2,.1,0,.3-.2,.5,0,.2,.1,.3,.3,.3,.5,0,.1,0,.2,0,.4"/><path class="e" d="M58.6,103.6c0-2.6-.7-4.9-1.9-7-2.4-4.1-6.9-6.9-12-6.9s-4.9,.7-7,1.9c-4.1,2.4-6.9,6.9-6.9,12s.7,4.9,1.9,7c2.4,4.1,6.9,6.9,12,6.9s4.9-.7,7-1.9c4.1-2.4,6.9-6.9,6.9-12m.8,0c0,5.4-2.9,10.2-7.3,12.7-2.2,1.3-4.7,2-7.4,2-5.4,0-10.2-2.9-12.7-7.3-1.3-2.2-2-4.7-2-7.4,0-5.4,2.9-10.2,7.3-12.7,2.2-1.3,4.7-2,7.4-2,5.4,0,10.2,2.9,12.7,7.3,1.3,2.2,2,4.7,2,7.4"/><path class="e" d="M42.1,100.2c0,.2-.2,.4-.4,.4-.2,0-.4-.2-.4-.4,0,0,0,0,0,0,0,0,0,0,0,0,0,0,0-.1,0-.2,0,0,0,0,0,0,0,0,0,0,0,0,0,0,.2,0,.1,0,0,0,.2,0,.2,0,0,0,.3-.1,.2,0,0,0,.1-.2,0-.1,0,0,0-.2,0-.1,0,0,0,0,0,0,0,0,0,0,0,0,0,0,0,.1,0,.2,0,.2,.2,.4,.3,.7,.2,.7,.5,1.5,.8,2.4,.2,.8,.4,1.7,.7,2.6,.2,.8,.4,1.6,.5,2.1,0,.2,.1,.3,.1,.4,0,0,0,0,0,0,0,0-.2,0,0,0,0,0-.2,0-.1,0,0,0,0,0,0,0,0,0,0,0,.2-.2,.2-.2,.3-.5,.5-.8,.7-1.2,1.4-2.9,2.2-4.5,.8-1.6,1.4-3,2.2-3.6,.2-.1,.4-.1,.6,0,.1,.2,.1,.4,0,.6-1.2,1-2.8,5.3-4.2,7.9-.2,.4-.4,.7-.6,.9-.1,.1-.2,.2-.3,.3-.1,0-.3,.2-.6,.1-.2,0-.3-.3-.4-.4,0-.1-.1-.3-.2-.5-.2-.6-.4-1.3-.6-2.1-.2-.8-.4-1.7-.6-2.5-.3-.9-.6-1.7-.8-2.4,0-.2-.2-.5-.3-.7,0,0,0-.2-.1-.3,0,0,0,0,0-.2,0,0,0-.2,.1-.4,.1-.1,.3-.1,.4,0,0,0,.1,0,.2,0,0,0,0,0,.1,.1,0,0,.1,.1,.1,.2,0,0,0,.2,0,.2,0,0,0,0,0,.1,0,0,0,0,0,0m-.7,.3c-.2-.2-.2-.4,0-.6,.2-.2,.4-.2,.6,0h0c.2,.1,.2,.4,0,.6-.2,.2-.4,.2-.6,0"/><path class="e" d="M58.6,187.1c0-2.6-.7-4.9-1.9-7-2.4-4.1-6.9-6.9-12-6.9s-4.9,.7-7,1.9c-4.1,2.4-6.9,6.9-6.9,12s.7,4.9,1.9,7c2.4,4.1,6.9,6.9,12,6.9s4.9-.7,7-1.9c4.1-2.4,6.9-6.9,6.9-12m.8,0c0,5.4-2.9,10.2-7.3,12.7-2.2,1.3-4.7,2-7.4,2-5.4,0-10.2-2.9-12.7-7.3-1.3-2.2-2-4.7-2-7.4,0-5.4,2.9-10.2,7.3-12.7,2.2-1.3,4.7-2,7.4-2,5.4,0,10.2,2.9,12.7,7.3,1.3,2.2,2,4.7,2,7.4"/><path class="e" d="M42.1,183.6c0,.2-.2,.4-.4,.4-.2,0-.4-.2-.4-.4,0,0,0,0,0,0,0,0,0,0,0,0,0,0,0-.1,0-.2,0,0,0,0,0,0,0,0,0,0,0,0,0,0,.2,0,.1,0,0,0,.2,0,.2,0,0,0,.3-.1,.2,0,0,0,.1-.2,0-.1,0,0,0-.2,0-.1,0,0,0,0,0,0,0,0,0,0,0,0,0,0,0,.1,0,.2,0,.2,.2,.4,.3,.7,.2,.7,.5,1.5,.8,2.4,.2,.8,.4,1.7,.7,2.6,.2,.8,.4,1.6,.5,2.1,0,.2,.1,.3,.1,.4,0,0,0,0,0,0,0,0-.2,0,0,0,0,0-.2,0-.1,0,0,0,0,0,0,0,0,0,0,0,.2-.2,.2-.2,.3-.5,.5-.8,.7-1.2,1.4-2.9,2.2-4.5,.8-1.6,1.4-3,2.2-3.6,.2-.1,.4-.1,.6,0,.1,.2,.1,.4,0,.6-1.2,1-2.8,5.3-4.2,7.9-.2,.4-.4,.7-.6,.9-.1,.1-.2,.2-.3,.3-.1,0-.3,.2-.6,.1-.2,0-.3-.3-.4-.4,0-.1-.1-.3-.2-.5-.2-.6-.4-1.3-.6-2.1-.2-.8-.4-1.7-.6-2.5-.3-.9-.6-1.7-.8-2.4,0-.2-.2-.5-.3-.7,0,0,0-.2-.1-.3,0,0,0,0,0-.2,0,0,0-.2,.1-.4,.1-.1,.3-.1,.4,0,0,0,.1,0,.2,0,0,0,0,0,.1,.1,0,0,.1,.1,.1,.2,0,0,0,.2,0,.2,0,0,0,0,0,.1,0,0,0,0,0,0m-.7,.3c-.2-.2-.2-.4,0-.6,.2-.2,.4-.2,.6,0h0c.2,.1,.2,.4,0,.6-.2,.2-.4,.2-.6,0"/><path d="M45.3,88.2c.4,.1,.7,.6,.5,1-.1,.4-.6,.7-1,.5-.4-.1-.8-.4-.9-.8-.2-.4-.2-.8-.1-1.2,.1-.8,.4-1.7,.9-2.8,.6-1.7,1.6-3.8,3.1-6.3,.8-1.4,1.7-2.9,2.8-4.4,.8-1.2,1.6-2.3,2.5-3.5,1-1.4,2.1-2.7,3.2-4.1,.9-1.1,1.8-2.3,2.8-3.4,.4-.5,.9-1,1.4-1.5,3-3.3,6.1-6.7,9.5-9.9,1.7-1.6,3.5-3.2,5.3-4.8,.8-.7,1.6-1.4,2.4-2.1,1.4-1.1,2.8-2.2,4.2-3.2,2.2-1.6,4.3-3,6.5-4.4,1.4-.9,2.8-1.7,4.3-2.6,1.5-.9,3-1.7,4.5-2.5,.9-.5,1.7-.9,2.6-1.4,.9-.4,1.8-.9,2.7-1.3,1.5-.7,2.9-1.3,4.3-1.9,1.6-.7,3.2-1.3,4.7-1.9,1.3-.5,2.6-1,3.9-1.5,1-.4,2.1-.8,3.1-1.1,1.1-.4,2.1-.7,3.1-1,1.4-.4,2.7-.9,4-1.2,.6-.2,1.3-.4,1.9-.5,1.4-.4,2.8-.7,4.2-1.1,1.2-.3,2.5-.6,3.7-.9,.9-.2,1.8-.5,2.7-.7,.7-.2,1.5-.3,2.2-.5,.5-.1,1-.2,1.5-.3,1.1-.2,2-.2,3-.3,1.3-.2,2.7-.5,4-.8,1-.3,2-.5,2.8-.7,1.3-.2,2.3-.2,3.2-.3,.5,0,1.1-.2,1.7-.3,.7-.2,1.3-.3,1.9-.3,.3,0,.5,0,.7,0,.3,0,.6,0,.8,0,0,0,0,0,.1,0,0,0,0-.1,.4,.2,.1,0,.3,.3,.3,.6,0,.5-.3,.7-.4,.7-.2,.2-.3,.1-.3,.1-.1,0-.3,0-.5,0-.4,0-.9-.2-.9-.7,0-.4,.2-.9,.7-.9,.2,0,.3,0,.3,0,0,0-.2,0-.1,0,0,0-.1,0,0,0,0,0-.2,.1-.1,0,0,0-.2,.3-.2,.2,0,0-.1,.4-.1,.3,0-.2,.1,.7,0,.5,0-.1,.3,.3,.2,.3-.1,0,.3,.1,.2,.1,0,0,.2,0,.1,0,0,0,0,0,0,0,0,0-.4,0-.7,0-.2,0-.4,0-.6,0-.4,0-.9,.1-1.6,.3-.6,.1-1.2,.3-1.9,.4-1,.1-2,0-3.1,.3-.8,.1-1.7,.4-2.7,.6-1.4,.3-2.8,.7-4.2,.9-1,.1-1.9,.2-2.9,.3-.5,0-1,.2-1.5,.3-.7,.1-1.4,.3-2.1,.5-.9,.2-1.8,.5-2.7,.7-1.2,.3-2.4,.6-3.7,.9-1.4,.3-2.7,.7-4.1,1.1-.6,.2-1.2,.3-1.9,.5-1.3,.4-2.6,.8-4,1.2-1,.3-2,.6-3.1,1-1,.4-2.1,.7-3.1,1.1-1.3,.5-2.6,.9-3.9,1.4-1.5,.6-3.1,1.2-4.7,1.9-1.4,.6-2.8,1.2-4.2,1.9-.9,.4-1.8,.8-2.6,1.2-.8,.4-1.7,.9-2.6,1.3-1.5,.8-3,1.6-4.5,2.5-1.5,.8-2.9,1.7-4.3,2.6-2.2,1.4-4.3,2.7-6.4,4.3-1.4,1-2.8,2.1-4.1,3.2-.8,.7-1.6,1.4-2.4,2-1.8,1.6-3.5,3.1-5.2,4.7-3.3,3.2-6.4,6.5-9.4,9.8-.5,.5-.9,1-1.3,1.5-1,1.1-1.9,2.3-2.8,3.4-1.1,1.3-2.1,2.7-3.1,4.1-.9,1.1-1.7,2.3-2.5,3.4-1,1.5-1.9,3-2.7,4.3-1.4,2.4-2.4,4.4-3,6-.4,1.1-.7,2-.8,2.5,0,.2,0,.3,0,.3,0,0,0,0,0,0"/><path d="M162.3,251.8c.4,0,.7,.5,.6,1,0,.4-.5,.7-1,.6-.2,0-.1,0-.2,0-.4-.2-.6-.6-.5-1.1,.2-.4,.6-.6,1.1-.5h0s-.2,0,0,0m-117.5-49.4c0-.5,.4-.8,.8-.8,.5,0,.8,.4,.8,.8,0,.7,0,1.6,.2,2.5,.2,.6,.5,1.2,1,1.8,1.1,1.4,1.9,3.6,3.3,5.6,1.2,1.8,2.7,4,4.7,5.9,1,1,2.3,1.9,3.7,2.9,1.2,.8,2.5,1.6,3.9,2.3,2.2,1.2,4.5,2.1,7.1,3.1,3.1,1.2,6.2,2.5,9,3.8,3.9,1.9,7.8,3.5,11.4,5.5,4.3,2.4,9.2,3.9,14,5.8,3.2,1.3,6.4,2.1,9.4,2.9,1.8,.5,3.5,.9,5.4,1.3,2.4,.4,4.6,.9,6.9,1.3,6,.8,11.8,.9,16.7,1.3,3.7,.3,6.8,.7,9.2,1.2,2.1,.4,4.2,.9,5.8,1.2,.8,.1,1.6,.3,2.3,.4,.4,0,.8,.2,1.1,.3,.3,0,.5,.2,.7,.3,0,0,.2,0,.2,0,0,0,0,0,.1,0,.4,.2,.5,.7,.3,1.1-.2,.4-.7,.5-1.1,.3,0,0,0,0,0,0,0,0,0,0,0,0,0,0,0,0-.2,0-.2,0-.4-.2-.6-.2-.2,0-.5-.1-.9-.2-.8-.1-1.5-.3-2.2-.4-1.8-.2-3.8-.8-5.9-1.2-2.4-.5-5.4-.9-9-1.2-4.8-.4-10.7-.5-16.8-1.3-2.4-.3-4.7-.9-7-1.3-1.9-.3-3.8-.8-5.6-1.3-2.9-.8-6.2-1.7-9.5-3-4.7-1.9-9.6-3.4-14.1-5.9-3.5-2-7.4-3.6-11.3-5.4-2.7-1.3-5.8-2.6-8.9-3.8-2.6-1-5-1.9-7.3-3.2-1.4-.8-2.8-1.6-4-2.4-1.5-1-2.8-2-3.9-3-2.2-2.1-3.7-4.4-5-6.2-1.5-2.2-2.4-4.4-3.2-5.5-.5-.7-1.1-1.4-1.3-2.4-.3-1.2-.2-2.3-.2-2.9"/><path class="d" d="M44.1,171.7c.4,0,.9,.2,1,.7,0,.4-.2,.9-.7,1-.2,0-.3,0-.6,0-.2,0-.6-.2-.7-.5-.2-.3-.1-.6,0-.7,0-.2,0-.3,.2-.4,.4-.6,1-1.6,1.9-3,.5-.7,1-1.5,1.7-2.3,1-1.3,2-2.6,3.2-4,1.3-1.3,2.9-2.8,4.7-4.2,2.5-2,5.3-4.1,8.3-6,2.5-1.6,5.4-3.3,8.1-4.7,1.8-.9,3.5-1.7,5.2-2.4,1.4-.6,2.8-1.2,4.2-1.7,.6-.2,1.3-.5,1.9-.7,2.2-.8,4.3-1.4,6.4-2,1.1-.3,2.3-.6,3.4-.8,.6-.1,1.2-.3,1.8-.4,.8-.2,1.6-.3,2.4-.5,1.2-.2,2.3-.4,3.5-.6,1.7-.3,3.4-.6,5.2-.9,.8-.1,1.6-.3,2.5-.4,1.4-.3,2.7-.6,4-.8,.9-.2,1.9-.3,2.8-.4,1.4-.2,2.8-.3,4.1-.5,2.3-.3,4.7-.8,6.9-1,1.5-.1,2.9,0,4.2-.1,1.2,0,2.6-.2,3.9-.2,2-.1,3.8-.1,5.6-.1,2,0,4.1-.2,6.1-.3,1.8-.2,3.4-.1,4.8-.2,.9,0,1.8-.1,2.8-.2,2.5-.3,3.9-.5,4.9-.6,1.1-.2,2.1-.5,2.9-.6,.4,0,.9,.2,1,.6,0,.4-.2,.9-.6,1-.8,.2-1.8,.5-3,.7-1.1,.2-2.5,.3-5,.6-1,.1-2,.2-2.9,.3-1.5,0-3,0-4.7,.2-2,.2-4.2,.4-6.3,.3-1.8,0-3.5,0-5.5,.1-1.3,0-2.6,.2-3.9,.2-1.4,0-2.8,0-4.2,.1-2.1,.2-4.4,.6-6.8,1-1.4,.2-2.8,.4-4.2,.5-.9,0-1.8,.2-2.7,.3-1.3,.2-2.6,.5-4,.8-.8,.2-1.7,.3-2.5,.5-1.8,.3-3.5,.6-5.2,.9-1.2,.2-2.3,.4-3.4,.6-.8,.1-1.6,.3-2.4,.5-.6,.1-1.2,.2-1.8,.4-1.1,.2-2.2,.5-3.4,.8-2,.5-4.1,1.2-6.3,1.9-.6,.2-1.2,.4-1.8,.7-1.4,.5-2.8,1.1-4.1,1.7-1.7,.7-3.4,1.5-5.1,2.4-2.7,1.4-5.5,3-8,4.6-3,1.9-5.7,3.9-8.2,5.9-1.7,1.4-3.4,2.8-4.5,4-1.2,1.3-2.2,2.5-3.1,3.8-.6,.8-1.2,1.6-1.6,2.2-.9,1.3-1.5,2.3-1.8,2.9,0,0,0,0,0,0,0,0,0-.2,0-.1,0,0-.1-.4,0-.3,0,.1-.4-.4-.3-.3,0,0-.3,0-.2,0,0,0,0,0,0,0"/><path class="d" d="M46.2,118.9c.2,.4,0,.9-.4,1.1-.4,.2-.9,0-1.1-.4-.1-.3-.1-.6,0-.8,0,0,0-.2,.2-.3,.1-.1,.4-.3,.7-.3,.3,0,.5,.2,.6,.3,0,.1,.1,.2,.2,.3,.2,.4,0,.7,0,.8,0,1.1,.1,2.9,.6,5.2,.6,3.1,1.1,7,2.3,10.8,.7,2.1,1.5,4.3,2.6,6.4,.9,1.8,2.2,3.5,3.5,5.1,.9,1.1,1.8,2.2,2.8,3.2,.9,.9,1.8,1.8,2.7,2.6,4,3.5,7.9,6.7,11.6,10,3.1,2.8,6.1,5.4,9,8.1,1.7,1.6,3.2,3.1,4.8,4.6,3.7,3.5,7.6,6.6,11.1,9.4,3.1,2.5,6.7,4.3,9.8,6,3.5,1.9,7,3.2,10.6,4,3,.7,5.8,1.1,8.6,1.1,2.6,0,5.1,.4,7.7,.3,2.2-.1,4.6-.6,6.9-1.2,2.6-.6,5-1.4,7.4-2,2.5-.7,4.5-1.1,6.3-1.6,.8-.2,1.5-.4,2.3-.5,.3,0,.6-.1,.9-.2,.4-.1,.9-.3,1.3-.4,.2,0,.4-.1,.6-.2,.3,0,.6,0,.8,0,0,0,0,0,0,0,0,0-.1,0,0,0,0,0-.3,.2-.2,.1,0,0-.3,.5-.2,.4,0,0,0,.3,0,.3,0,0,0,.3,0,.2-.1-.4,0-.9,.5-1,.4-.1,.9,0,1,.5,0,.3,0,.8-.3,.9-.2,.1-.3,.2-.4,.2-.2,0-.3,0-.4,0-.2,0-.4,0-.5,0-.1,0-.2,0-.4,.1-.4,.1-.9,.3-1.4,.5-.3,0-.7,.2-1,.2-.8,.2-1.5,.3-2.3,.5-1.8,.4-3.8,.8-6.2,1.5-2.4,.7-4.8,1.4-7.4,2.1-2.4,.6-4.8,1.1-7.2,1.2-2.8,.1-5.4-.3-7.8-.3-2.9,0-5.8-.5-8.9-1.1-3.7-.8-7.4-2.2-11-4.1-3.1-1.7-6.8-3.5-10.1-6.1-3.5-2.9-7.4-5.9-11.2-9.5-1.6-1.5-3.1-3.1-4.8-4.6-2.9-2.7-5.9-5.2-9-8.1-3.6-3.3-7.5-6.4-11.5-10-1-.9-1.9-1.8-2.8-2.7-1-1.1-2-2.1-2.9-3.3-1.3-1.7-2.6-3.5-3.7-5.4-1.2-2.2-2-4.5-2.7-6.6-1.3-4-1.7-7.9-2.3-11-.5-2.4-.6-4.2-.6-5.5,0-.1,0-.2,0-.3,0,0,0,0,0,0,0,0,0,.2,0,.1,0,0,.2,.2,0,.2,0,0,.2,.2,.2,.2,0,0,.5,.1,.3,.1-.1,0,.5-.1,.4,0-.1,0,.3-.2,.2-.2-.1,.1,.2-.3,.1-.2,0,0,0-.2,0-.2,0,0-.1-.4,0-.3"/><path class="e" d="M149.4,133.1c.2,.2,.2,.4,0,.6-.2,.2-.4,.2-.6,0,0,0,0,0,0,0,0,0,.1,0,.1,0,0,0,.1,0,.1,0,0,0,0,0,0,0,0,0,0,0,0,0,0,0-.3,.2-.6,.3-.8,.4-1.6,.4-2.5,.4-.5,0-1,0-1.4-.2-.2,0-.4-.2-.6-.3-.6-.4-.9-1.1-.9-1.9,0-.7,.3-1.5,.9-2.1,.5-.6,1-1.3,1.7-1.8,.4-.3,.8-.6,1.3-.5,.3,0,.6,.3,.7,.6,0,.2,0,.4,0,.6,0,.2-.2,.3-.3,.4-.7,.8-1.9,1.6-2.4,2.7-.2,.4-.3,.8-.3,1.2,0,.2,0,.3,0,.5,0,.1,0,.2,.2,.3,.2,0,.4,.1,.7,.1,.7,0,1.7-.3,2.7-.9,.2-.1,.4,0,.6,.2,.1,.2,0,.4-.2,.6-1.1,.6-2.2,1-3,1-.4,0-.8,0-1.2-.2-.3-.2-.6-.5-.6-.9,0-.2,0-.5,0-.7,0-.5,.2-.9,.4-1.4,.6-1.4,2-2.2,2.6-2.8,0,0,.1-.1,.1-.2,0,0,0,0,0,0h0c0,0-.4,.1-.7,.3-.5,.4-1,1-1.5,1.7-.4,.5-.7,1.1-.7,1.6,0,.5,.2,.9,.6,1.2,.1,0,.2,.1,.4,.2,.3,.1,.7,.2,1.1,.1,.8,0,1.6-.1,2.2-.4,.2,0,.4-.3,.7-.4,0,0,0,0,.2,0,0,0,.2,0,.3,0h0m-1.7-4.4c.1,.2,0,.4,0,.6-.2,.1-.4,0-.6,0,0,0,.1,0,0,0,0,0,.1,0,0,0,0,0,0,0,0,0,0,0-.2,.1-.4,.3-.6,.5-1.1,1.3-1.3,2.2-.1,.5-.2,.9-.2,1.4,0,.3,0,.5,0,.7,0,.1,.1,.3,.2,.3,0,0,0,0,.1,0,.1,0,.3,0,.4,0,.6-.1,1-.2,1.5-.3,.3-.1,.6-.2,.9-.4,.2,0,.3-.2,.4-.2,0,0,0,0,0,0,0,0,0,.1,0,0,0,0,0,.1,0,0,0,0,0,.2,0,.1,0,0,0,0,0,0,0-.2,.1-.4,.4-.5,.2,0,.4,.1,.5,.4h0c0,.1,0,.2,0,.3,0,0,0,.1-.1,.2-.1,0-.3,.2-.5,.3-.3,.2-.7,.3-1,.5-.6,.2-1.1,.3-1.6,.4-.2,0-.3,0-.5,0-.2,0-.4,0-.7-.2-.3-.2-.4-.5-.5-.8,0-.3,0-.6,0-.9,0-.5,0-1,.2-1.6,.3-1,.9-1.9,1.6-2.6,.2-.2,.4-.3,.6-.4,.1,0,.2,0,.4,0,.2,0,.3,0,.5,.2"/></g></svg>