<?xml version="1.0" encoding="UTF-8"?><svg id="a" xmlns="http://www.w3.org/2000/svg" xmlns:xlink="http://www.w3.org/1999/xlink" viewBox="0 0 213.8 179"><defs><style>.c{fill:none;}.d{fill:#ed3624;}.e{fill:#1749b3;}.f{clip-path:url(#b);}.g{opacity:0;}</style><clipPath id="b"><rect class="c" x="-51.9" y="-52.9" width="419.5" height="297.6"/></clipPath></defs><g class="g"><path d="M44.1,29.5v-9.7h-3.9v-1.2h9.3v1.2h-3.9v9.7h-1.5Z"/><path d="M52.5,29.7c-1.1,0-2.1-.4-2.7-1.1-.7-.8-1-1.8-1-3s.3-2.3,1-3c.7-.7,1.6-1.1,2.8-1.1s2.1,.4,2.8,1.1c.7,.7,1,1.8,1,3s-.3,2.3-1,3.1c-.7,.7-1.6,1.1-2.8,1.1Zm0-1.1c1.5,0,2.3-1,2.3-3.1s-.8-3.1-2.3-3.1-2.3,1-2.3,3.1,.7,3.1,2.2,3.1Z"/><path d="M61.6,29.7c-1.1,0-2.1-.4-2.7-1.1-.7-.8-1-1.8-1-3s.3-2.3,1-3c.7-.7,1.6-1.1,2.8-1.1s2.1,.4,2.8,1.1c.7,.7,1,1.8,1,3s-.3,2.3-1,3.1c-.7,.7-1.6,1.1-2.8,1.1Zm0-1.1c1.5,0,2.3-1,2.3-3.1s-.8-3.1-2.3-3.1-2.3,1-2.3,3.1,.7,3.1,2.2,3.1Z"/><path d="M67.5,29.5v-11.6h1.4v11.6h-1.4Z"/><path d="M73.7,29.7c-.7,0-1.5-.2-2.4-.5v-1.3c.9,.5,1.8,.7,2.5,.7s.8-.1,1-.3c.3-.2,.4-.5,.4-.8,0-.5-.4-.9-1.2-1.2l-.8-.4c-1.2-.5-1.9-1.3-1.9-2.2s.2-1.2,.7-1.6c.5-.4,1.2-.6,2-.6s1,0,1.7,.2h.3v1.3c-.8-.2-1.5-.4-1.9-.4-.9,0-1.4,.3-1.4,1s.4,.8,1.1,1.1l.7,.3c.8,.3,1.3,.7,1.7,1.1,.3,.4,.5,.8,.5,1.4s-.3,1.3-.8,1.7-1.3,.7-2.1,.7Z"/></g><g class="g"><path d="M127.5,31.3v-9.7h-3.9v-1.2h9.3v1.2h-3.9v9.7h-1.5Z"/><path d="M133.1,31.3v-8h1.4v1.5c.6-1.1,1.4-1.7,2.5-1.7s.3,0,.5,0v1.4c-.2,0-.5-.1-.7-.1-.9,0-1.7,.5-2.3,1.6v5.3h-1.4Z"/><path d="M142,31.5c-1.1,0-2.1-.4-2.7-1.1-.7-.8-1-1.8-1-3s.3-2.3,1-3c.7-.7,1.6-1.1,2.8-1.1s2.1,.4,2.8,1.1c.7,.7,1,1.8,1,3s-.3,2.3-1,3.1c-.7,.7-1.6,1.1-2.8,1.1Zm0-1.1c1.5,0,2.3-1,2.3-3.1s-.8-3.1-2.3-3.1-2.3,1-2.3,3.1,.7,3.1,2.2,3.1Z"/><path d="M153.7,31.1c-1,.3-1.8,.4-2.5,.4-1.2,0-2.1-.4-2.9-1.2s-1.1-1.8-1.1-3,.3-2.2,1-3c.7-.8,1.5-1.2,2.5-1.2s1.7,.3,2.2,1c.5,.7,.8,1.7,.8,2.9v.4h-5c.2,1.9,1.1,2.8,2.8,2.8s1.3-.2,2.2-.5v1.1Zm-4.9-4.6h3.5c0-1.5-.6-2.2-1.7-2.2s-1.7,.7-1.9,2.2Z"/><path d="M156,31.3v-11.6h1.4v11.6h-1.4Z"/><path d="M160.1,31.3v-8h1.4v1.5c.8-1.1,1.7-1.7,2.8-1.7s1.2,.2,1.7,.7c.4,.4,.6,1,.6,1.8v5.7h-1.4v-5.3c0-.6,0-1-.3-1.3s-.5-.4-.9-.4c-.9,0-1.7,.6-2.5,1.7v5.2h-1.4Z"/></g><g class="g"><path d="M140.1,71.8l-3.6-9.4h1.3l2.9,7.7,2.8-7.7h1.2l-3.4,9.4h-1.3Z"/><path d="M149.3,71.8v-2.7h-4.2v-.9l4.2-5.8h1.2v5.7h1.3v1h-1.3v2.7h-1.2Zm-3-3.7h3.1v-4.2l-3.1,4.2Z"/><path d="M154,71.7v-1.1c.8,.3,1.5,.4,2,.4s1.4-.3,1.8-1,.7-1.6,.7-2.8c-.6,.8-1.4,1.2-2.2,1.2s-1.5-.3-2-.9c-.6-.6-.8-1.3-.8-2.1s.3-1.8,.9-2.4,1.3-1,2.2-1,1.8,.4,2.4,1.2c.6,.8,.9,1.9,.9,3.4s-.4,2.9-1.1,3.9c-.7,1-1.7,1.4-2.9,1.4s-1.1,0-1.9-.3Zm.8-6.5c0,.7,.2,1.3,.5,1.7,.3,.4,.8,.6,1.3,.6s1-.2,1.4-.5c.4-.4,.6-.8,.6-1.3,0-.8-.2-1.4-.5-1.9s-.8-.7-1.4-.7-1,.2-1.3,.6c-.3,.4-.5,.9-.5,1.6Z"/></g><g class="g"><path d="M69.3,145.6v-10.9h3.3c1,0,1.8,.2,2.4,.7,.6,.5,.8,1.1,.8,2,0,1.5-.7,2.5-2.2,3.1l3.6,5.1h-1.9l-3.1-4.6h-1.4v4.6h-1.5Zm1.5-5.8h.5c1.9,0,2.9-.8,2.9-2.3s-.8-1.7-2.4-1.7h-1v4Z"/><path d="M78.6,136.2v-1.4h1.4v1.4h-1.4Zm0,9.4v-8h1.4v8h-1.4Z"/></g><g class="g"><path d="M.2,183.5v-1.2c.9,.4,1.6,.5,2.1,.5s1.1-.2,1.5-.5c.4-.4,.6-.8,.6-1.4,0-1.3-.9-2-2.8-2h-.5v-.8h.4c1.7,0,2.6-.6,2.6-1.8s-.6-1.4-1.7-1.4-1.3,.2-2.1,.5v-1.1c.7-.3,1.5-.4,2.2-.4,1.9,0,2.9,.7,2.9,2.2s-.7,1.9-2,2.4c1.5,.4,2.3,1.2,2.3,2.5s-.3,1.6-.9,2.1c-.6,.5-1.4,.8-2.4,.8s-1.3-.1-2.2-.3Z"/><path d="M9,183.6v-.9h1.9v-7.4l-1.9,.5v-1l3.1-.8v8.7h1.9v.9h-5Z"/></g><g class="f"><path d="M23.3,1.3c-.2,0-.4-.2-.4-.4s.2-.4,.4-.4H213.3c.2,0,.4,.2,.4,.4s-.2,.4-.4,.4H23.3Z"/><path d="M23.3,175.5c-.2,0-.4-.2-.4-.4s.2-.4,.4-.4H213.3c.2,0,.4,.2,.4,.4s-.2,.4-.4,.4H23.3Z"/><path d="M.5,173.7c.1-.2,.4-.2,.6,0,.2,.1,.2,.4,0,.6,0,0,0,0,0,0,0,0,0,0,0,0,0,0-.1,0-.2,0-.1,0-.1,.1-.4,0-.2,0-.4-.2-.3-.5,0-.2,.2-.4,.5-.3,0,0-.1,0,0,0,0,0,.5-.3,1-.5,.7-.3,1.6-.4,2.3-.5,.3,0,.6,0,1,0,.3,0,.5,.2,.6,.4,.1,.2,.2,.4,.2,.6,0,.8-.6,1.3-1,1.8-.3,.3-.5,.5-.5,.6,0,0,0,0,0,0,0,0,0,.1,.2,.2,.2,.2,.4,.5,.6,.8,0,.2,0,.5,0,.7,0,.2-.2,.4-.4,.6-.5,.5-1.4,.6-2.1,.5-.4,0-.7-.2-1-.5-.3-.3-.4-.7-.2-1.2,0-.2,.3-.3,.5-.3,.2,0,.3,.3,.3,.5,0,.2,0,.3,0,.4,0,0,.3,.2,.5,.2,.5,0,1.2,0,1.5-.3,0,0,.1-.1,.1-.2,0,0,0,0,0-.1,0-.1-.2-.3-.4-.6,0-.1-.2-.3-.3-.4,0-.2-.1-.4,0-.6,.1-.4,.4-.6,.6-.9,.4-.5,.8-1,.8-1.2,0,0,0-.2,0-.2,0,0,0,0,0,0-.1,0-.4,0-.7,0-.7,0-1.4,.2-2.1,.4-.2,0-.5,.2-.7,.3-.2,0-.3,.3-.6,.2v-.8c.2,0,0,0,0,0,0,0,0,0,.1,0,0,0,.1,0,.1,0,0,0,0,0,0,0,0,0-.1,.1,0,0m.3,.7c-.2,0-.4-.2-.4-.4,0-.2,.2-.4,.4-.4,0,0,0,0,.1,0,0,0,0,0,0,0,.2,0,.3,.3,.2,.5,0,.2-.3,.3-.5,.2,0,0,0,0,0,0,0,0,0,0,0,0"/><path d="M7.6,177.5c-.2,.2-.4,.2-.6,0s-.2-.4,0-.6c.3-.3,1-1.2,1.8-2.1,.4-.4,.8-.8,1.2-1.1,.3-.2,.5-.3,.8-.3,.3,0,.6,.2,.8,.4,.5,.7,.3,1.7,.2,2.7,0,.5-.1,.9-.2,1.2,0,.2,0,.3,0,.4,0,0,0,0,0,0,0,0,0,0,0,0,0,0,0-.1,0,0,0,0,0-.1,0,0,0,0-.1-.1,0-.1,.2,.1,.2,.4,0,.6-.1,.2-.4,.2-.6,0-.2-.1-.2-.2-.2-.3,0-.1,0-.2,0-.3,0-.1,0-.2,0-.4,0-.3,.1-.8,.2-1.2,.1-.9,.1-1.9,0-2.1,0,0,0,0,0,0,0,0-.2,0-.4,.2-.3,.2-.7,.6-1.1,1-.8,.8-1.4,1.7-1.8,2.1"/><path d="M54.5,48.4c0-.2,.2-.4,.4-.4s.4,.2,.4,.4v31.7c0,.2-.2,.4-.4,.4s-.4-.2-.4-.4v-31.7Z"/><path d="M54.9,48.8c-.2,0-.4-.2-.4-.4s.2-.4,.4-.4h79.2c.2,0,.4,.2,.4,.4s-.2,.4-.4,.4H54.9Z"/><path d="M54.9,80.5c-.2,0-.4-.2-.4-.4s.2-.4,.4-.4h79.2c.2,0,.4,.2,.4,.4s-.2,.4-.4,.4H54.9Z"/><path d="M70.4,40.2c0-.2,.2-.4,.4-.4s.4,.2,.4,.4v8.2c0,.2-.2,.4-.4,.4s-.4-.2-.4-.4v-8.2Z"/><path d="M133.7,48.4c0-.2,.2-.4,.4-.4s.4,.2,.4,.4v31.7c0,.2-.2,.4-.4,.4s-.4-.2-.4-.4v-31.7Z"/><path d="M117.9,40c0-.2,.2-.4,.4-.4s.4,.2,.4,.4v8.4c0,.2-.2,.4-.4,.4s-.4-.2-.4-.4v-8.4Z"/><path d="M71.5,38.5c0,.2-.3,.3-.5,.2-.2,0-.3-.3-.2-.5,0,0,0,0,0,0,0,0,0,0,0,0,0,0,0,0-.2,0-.1,0-.3,.2-.4,.5-.1,.3-.2,.7-.2,1.1,0,.3,0,.5,0,.7,0,.2,.4,.3,.6,.3,.1,0,.4-.2,.7-.5,.3-.4,.5-.9,.6-1.4,.1-.4,.1-.7,0-.8,0,0,0-.1-.2-.2-.1,0-.3-.1-.5-.1-.2,0-.4,0-.5,0-.1,0-.2,.2-.3,.5,0,.2-.3,.3-.5,.3-.2,0-.3-.3-.3-.5,.2-.5,.4-.8,.8-1,.3-.2,.7-.1,.9-.1,.3,0,.6,0,.9,.2,.3,.1,.6,.4,.6,.7,0,.4,0,.8-.1,1.2-.2,.6-.4,1.1-.8,1.6-.3,.5-.8,.9-1.4,.9-.5,0-1.1-.3-1.3-.8-.1-.3-.1-.7-.2-1,0-.5,0-1,.2-1.4,.2-.4,.5-.9,1-1,.3,0,.6,0,.8,.2,.1,0,.2,.2,.3,.4s0,.3,0,.5"/><path d="M118.7,37.9c-.1,.2-.4,.3-.6,.1-.2-.1-.3-.4-.1-.6,0,0,0-.1,0-.2,0,0,0,0,0,0,0,0,.1,.1,0,0,0,0,0,0,0,0,0,0,0,0,0,0,0,0,0,0-.1,0,0,0-.2,.2-.3,.6-.1,.4-.2,.9-.2,1.3,0,.3,0,.5,.1,.6,0,.1,.1,.2,.3,.2,.1,0,.2,0,.3,0,.2,0,.5-.3,.8-.7,.3-.4,.5-.9,.7-1.3,.1-.4,.2-.7,.1-.7,0,0,0,0-.2,0-.2,0-.4,0-.7,0-.6,0-1.2,.3-1.6,.6-.2,.1-.4,.1-.6,0-.1-.2-.1-.4,0-.6,.5-.5,1.3-.7,2-.8,.3,0,.7,0,1,0,.3,0,.6,.2,.8,.5,.2,.4,0,.9-.1,1.3-.2,.5-.4,1-.8,1.5-.3,.5-.7,.9-1.3,1.1-.3,0-.5,0-.7,0-.4,0-.6-.3-.8-.6-.2-.3-.2-.7-.2-1.1,0-.4,0-1,.2-1.4,.1-.5,.3-.9,.7-1.2,.1,0,.2-.1,.4-.1,0,0,.2,0,.3,0,.1,0,.2,0,.3,.2,.1,.2,.2,.4,.2,.6,0,.2,0,.4-.2,.6"/><path d="M93.6,80.1c0-.2,.2-.4,.4-.4s.4,.2,.4,.4v15.8c0,.2-.2,.4-.4,.4s-.4-.2-.4-.4v-15.8Z"/><path d="M94.2,95.7c.2,.2,.2,.4,0,.6-.2,.2-.4,.2-.6,0,0,0-.4-.2-.6-.2,0,0-.1,0-.2,.2-.1,.2-.2,.4-.2,.7,0,.4,.1,.9,.3,1.1,.1,.1,.3,.2,.5,.1,.3,0,.7-.4,.9-.9,.1-.2,.2-.5,.2-.7,0-.1,0-.2,0-.3,0,0,0,0,0,0,0,0-.4,0-.8-.1-.3,0-.6,0-1.1,0-.2,0-.4-.2-.4-.4,0-.2,.2-.4,.4-.4,.4,0,.7,0,1.1,0,.4,0,.9,0,1.3,.3,.2,.1,.3,.4,.3,.6,0,.2,0,.3,0,.5,0,.3-.1,.6-.3,1-.3,.6-.8,1.2-1.5,1.3-.4,0-.9,0-1.2-.4-.4-.4-.6-1.1-.6-1.7,0-.4,.1-.7,.3-1.1,.2-.3,.5-.6,.9-.6,.5,0,1,.1,1.2,.4"/><path d="M86.2,111.7c0-.2,.2-.4,.4-.4s.4,.2,.4,.4v47.5c0,.2-.2,.4-.4,.4s-.4-.2-.4-.4v-47.5Z"/><path d="M86.6,112.2c-.2,0-.4-.2-.4-.4s.2-.4,.4-.4h15.8c.2,0,.4,.2,.4,.4s-.2,.4-.4,.4h-15.8Z"/><path d="M102.1,111.7c0-.2,.2-.4,.4-.4s.4,.2,.4,.4v47.5c0,.2-.2,.4-.4,.4s-.4-.2-.4-.4v-47.5Z"/><path d="M86.6,159.7c-.2,0-.4-.2-.4-.4s.2-.4,.4-.4h15.8c.2,0,.4,.2,.4,.4s-.2,.4-.4,.4h-15.8Z"/><path d="M94.7,159.3c0-.2,.2-.4,.4-.4s.4,.2,.4,.4v15.8c0,.2-.2,.4-.4,.4s-.4-.2-.4-.4v-15.8Z"/><path d="M95.3,174.4c.2,0,.3,.3,.2,.5,0,.2-.3,.3-.5,.2-.3-.1-.5-.3-.6-.4,0,0-.2-.1-.2-.1,0,0,0,0,0,0,0,0,0,0,0,0,0,0,.2-.1,.2,0,0,0,0,0,0,0,0,0,0,0,0,0,0,0,0,.2,0,.3,0,.2,0,.4,.2,.5,0,0,.1,.1,.2,.1,0,0,.1,0,.2-.1,0,0,0-.2,0-.3,0,0-.1-.2-.2-.2,0,0,0,0,0,0,0,0,0,0,0,0,0,0,0,0-.1,.1-.1,.1-.2,.4-.2,.6,0,.1,0,.2,0,.3,0,0,0,.2,0,.2h0s0,0,0,0c0,0-.1-.1,0,0,0,0,0,0,0,0,0,0,0,0,0,0,0,0,0,0,.1,0,0,0,0,0,0,0,0,0,0-.2,.2-.4,.1-.3,.2-.6,.2-.8,0-.2,0-.3,0-.3,0,0,0,0,0,0,0,0,0,0,0,0,0,0,0,0,0,0,0,0-.2,0-.2,.2,0,0-.1,.2-.1,.2,0,0,0,0,0,0,0,0,0-.1,0-.1,.2,.1,.2,.4,0,.6-.1,.2-.4,.2-.6,0-.1,0-.2-.2-.2-.4,0-.1,0-.3,0-.4,0-.2,.2-.4,.3-.5,.1-.1,.3-.3,.5-.4,.2,0,.4-.1,.7,0,.2,0,.4,.3,.4,.5,0,.2,0,.4,0,.5,0,.4-.1,.7-.3,1.1,0,.2-.1,.5-.5,.7-.1,0-.3,.1-.5,.2,0,0-.2,0-.3,0-.1,0-.2-.1-.3-.2-.2-.3,0-.5,0-.6,0-.2,0-.3,0-.5,0-.3,.2-.6,.4-.9,0-.1,.2-.3,.4-.3,.2,0,.4-.1,.6,0,.3,.1,.6,.4,.7,.8,0,.3,.1,.6-.1,.9-.2,.3-.5,.5-.9,.5-.3,0-.6-.1-.8-.4-.2-.3-.4-.6-.4-1,0-.1,0-.3,0-.4,0,0,0-.2,0-.3,0,0,.1-.2,.3-.3,.2,0,.4,0,.6,0,.2,0,.3,.2,.4,.3,.2,.1,.2,.2,.4,.3"/><path d="M93.1,99.7c0-.2,.2-.4,.4-.4s.4,.2,.4,.4v12.1c0,.2-.2,.4-.4,.4s-.4-.2-.4-.4v-12.1Z"/><path d="M118.7,36.9c0,.2-.2,.4-.4,.4s-.4-.2-.4-.4V.9c0-.2,.2-.4,.4-.4s.4,.2,.4,.4V36.9Z"/><path d="M118.3,.6c.2,.1,.2,.4,0,.6-.1,.2-.4,.2-.6,0,0,0,0,0,0,0,0,0,0,0,0,0,0,0,0,.3,0,.5,0,.2,.1,.5,.3,.6,0,0,0,0,0,0,0,0-.1,0,0,0,0,0,0,0,.2-.1,0,0,.1-.5,.1-1,0-.2,0-.3,0-.4,0,0,0,0,0,0,0,0-.1,0-.1,0,0,0,0,0,0,0,0,0,0,0,0,.1,0,.1,0,.3,0,.5,0,.2,0,.3,0,.3,0,0,0,0,0,0,0,0,0,0,0,0,0,0,0,0,0,0,0,0,0,0,0,0,0,0,0,0,.1-.2,0-.2,.2-.4,.2-.6,0-.2,0-.3,0-.3,0,0,0,.1,0,0,0,0,.1,0,0,0,0,0,.1,0,0,0,0,0,0,0,0,0,0,0,0,.1,0,.3,0,.2,0,.4-.3,.5-.2,0-.4,0-.5-.3,0-.2,0-.5,0-.7,0-.2,.2-.4,.4-.5,.2-.1,.4-.1,.6,0,.2,0,.4,.2,.4,.5,0,.2,0,.4,0,.6,0,.3-.1,.6-.3,.9,0,.1-.1,.3-.3,.4-.1,.1-.3,.2-.5,.2-.2,0-.3,0-.4-.1-.1,0-.3-.2-.3-.4,0-.2,0-.4,0-.5,0-.2,0-.4,0-.7,0-.2,.2-.5,.5-.7,.2,0,.5,0,.7,0,.2,0,.6,.3,.6,.6,0,.2,0,.4,0,.5,0,.4,0,1-.3,1.5-.2,.2-.5,.4-.9,.4-.2,0-.4-.2-.5-.3-.2-.3-.4-.7-.5-1.1,0-.4,0-.7,.2-1,.1-.2,.3-.3,.5-.3,.2,0,.4,0,.6,.2"/><path d="M141.9,61.2c0,.2,0,.4-.3,.5-.2,0-.4,0-.5-.3,0-.1,0-.2,0-.2,0,0,0,0,0,0,0,0,0,0,0,0,0,0,0,0,0,0,0,0,.1,0,0,0,0,0,.1,0,.1,0,0,0,.3,0,.2,0,0,0,.2-.2,.2-.1,0,0,0-.1,0-.1,0,0,0-.1,0,0,0,0,0,0,0,0,0,0,0,.3,0,.5,0,.5,.2,1.2,.4,2,.1,.7,.2,1.5,.3,2.1,0,.3,.1,.7,.2,.9,0,.2,0,.3,0,.4,0,0,0,0,0,0,0,0,0,0,0,0,0,0-.1-.1,0,0,0,0-.2,0-.2,0,0,0-.2,0-.2,0,0,0-.2,.1-.1,0,0,0,0,0,0,0,0,0,0,0,0,0,0-.1,0-.3,.2-.5,.2-.5,.4-1.1,.6-1.7,.7-1.8,1.6-3.3,2.7-4.7,.1-.2,.4-.2,.6,0,.2,.1,.2,.4,0,.6-1.1,1.3-2,2.8-2.6,4.5-.2,.6-.4,1.2-.6,1.7,0,.2-.1,.3-.2,.5,0,0,0,.2-.1,.2,0,0-.1,.2-.3,.3-.1,0-.3,0-.4,0,0,0-.1-.1-.1-.2,0,0,0-.1,0-.2,0-.1,0-.2,0-.4,0-.3-.1-.6-.2-.9,0-.7-.2-1.4-.3-2.1-.1-.8-.3-1.5-.4-2,0-.3,0-.5,0-.6,0,0-.1,0,.1-.3,0,0,.3-.2,.5-.1,.3,.1,.2,.2,.3,.2,0,0,0,.2,0,.3"/><path d="M149.2,61.6c-.2,.1-.4,0-.6-.1-.1-.2,0-.4,.1-.6,.1,0,.2-.1,.4-.1,.2,0,.4,.1,.5,.3,.1,.3,0,.5,0,.7-.1,.4-.4,.9-.6,1.4-.1,.3-.2,.6-.2,.9,0,.2,0,.3,0,.3,0,0,0-.1,0-.1,0,0-.1-.2,0-.1,0,0-.2,0-.1,0,0,0,0,0,0,0,0,0,0,0,0,0,.2,0,.4-.3,.7-.5,.2-.2,.4-.2,.6,0,.2,.2,.2,.4,0,.6-.3,.3-.6,.5-.9,.7-.1,0-.3,.1-.4,.1,0,0-.2,0-.3-.1-.1,0-.2-.2-.2-.4,0-.2,0-.4,0-.5,0-.3,.1-.6,.2-1,.2-.5,.4-1.1,.6-1.4,0,0,0-.1,0-.2,0,0,0,0,0,0,0,0,0,.1,0,0,0,0,0,.1,0,0,0,0,.2,.1,.2,.1,0,0,.1,0,.1,0,0,0,0,0,0,0,0,0,0,0,0,0"/><path d="M151.2,61.8c.2,0,.4,.3,.3,.5,0,.2-.3,.4-.5,.3,0,0,.2,0,.1,0,0,0,.2,0,.1,0,0,0,0,0,0,0,0,0,0,0,0,0,0,0-.1,.2-.2,.4-.1,.4-.3,.9-.4,1.5-.1,.6-.2,1.1-.3,1.6,0,.2,0,.4,0,.5,0,0,0,.1,0,.1,0,0,0,0,0,0,0,0,0-.1,0,0,.1,.2,0,.4-.1,.6-.2,.1-.4,0-.6-.1-.1-.2,0-.4,0-.5,0-.2,0-.4,0-.6,0-.5,.2-1.1,.3-1.6,.1-.6,.3-1.1,.4-1.6,0-.2,.1-.4,.2-.5,0,0,0-.1,.2-.2,0,0,.2-.2,.5-.1"/><path d="M155.5,62.4c0-.2,.3-.3,.5-.2,.2,0,.3,.3,.2,.5,0,0,0,0,0,0,0,.2-.3,.4-.4,.7-.3,.5-.3,1.3-.3,2,0,.4,0,.8,0,1.2,0,.3,0,.6-.3,.9-.4,.5-1,.6-1.5,.6-.5,0-1.1,0-1.4,0-.2,0-.4-.2-.4-.4,0-.2,.2-.4,.4-.4,.3,0,.8,0,1.2,0,.5,0,.8-.2,1-.3,0,0,.1-.2,.1-.4,0-.3,0-.7,0-1.2,0-.7,0-1.7,.4-2.4,.2-.3,.3-.6,.4-.6,0,0,0,0,0,0m.2,0c-.2,0-.4-.2-.3-.5,0-.2,.2-.4,.5-.3,0,0,0,0,0,0,0,0,0,0,0,0,0,0-.1,0,0,0,0,0-.1,.1,0,.1,0,0,0,.2,0,.1,0,0,0,.1,0,.1,0,0,0,0,0,0,0,0,0,0,0,0,0,0,0,0-.1,0,0,0-.3,0-.5,.1-.3,.1-.6,.3-.8,.5-.3,.2-.5,.5-.6,.8,0,0,0,.1,0,.2,0,0,0,0,0,0,0,0,0,0,0,0,0,0,0,0,0,0,0,0,.2,0,.4-.2,.3-.1,.5-.3,.8-.5,.3-.2,.5-.4,.6-.5,0,0,.1-.1,.1-.1,0,0,0,0,0,0,.2-.2,.4-.1,.6,0,.2,.2,.1,.4,0,.6,0,0,0,0,0,0,0,0-.1,.1-.2,.2-.2,.1-.4,.4-.7,.6-.3,.2-.6,.4-.9,.6-.3,.2-.6,.3-1,.2-.1,0-.3,0-.4-.2-.1,0-.2-.2-.3-.4,0-.3,0-.5,.1-.7,.2-.4,.4-.7,.8-1,.3-.3,.7-.5,1-.7,.4-.2,.7-.2,1.1-.1,.3,0,.5,.2,.6,.5,0,0,0,.2,0,.3,0,.1,0,.2-.2,.3-.2,.1-.3,.1-.5,0"/><path d="M46.6,87.2c0,.2-.1,.4-.3,.5-.2,0-.4-.1-.5-.3,0,0,0,.1,0,0,0,0,.2,.2,0,.1,0,0,.3,.1,.2,0,0,0,.2,0,.2,0,0,0,.2,0,.1,0,0,0,0,0,0,0,0,0,0,0,0,0,0,0,0,0,0,0,0,.1-.1,.3-.2,.5-.2,.5-.4,1.2-.6,1.9-.2,.6-.4,1.2-.6,1.7-.2,.6-.4,1.1-.4,1.2,0,0,0,0,0,0,0,0,0,0,0,0,0,0,0,0,0,0,0,0,0-.1,0-.1,0,0-.2-.1-.1-.1,0,0-.2,0-.2,0,0,0-.1,0-.1,0,0,0-.1,0-.1,0,0,0,0,0,0,0,0,0,0,0,0,0,0,0,.1-.2,.3-.5,.1-.2,.4-.3,.6-.2,.2,.1,.3,.4,.2,.6-.2,.3-.3,.5-.4,.6,0,0,0,0-.1,.1,0,0-.1,0-.2,0-.1,0-.3,0-.3-.2-.2-.3,0-.3,0-.4,0-.3,.2-.8,.5-1.4,.2-.5,.4-1.1,.6-1.7,.2-.7,.4-1.4,.6-1.9,0-.2,.1-.4,.2-.6,0,0,0-.1,.1-.2,0,0,0,0,.1-.1,.1,0,.4,0,.5,.1,0,0,0,.2,0,.2"/><path d="M44.5,87c.2,.1,.2,.4,0,.6-.1,.2-.4,.2-.6,0-.4-.3-.6-.4-.8-.5-.1,0-.2,0-.3,0,0,0,0,0-.2,0,0,0-.1,0-.2-.2,0,0,0-.2,0-.3,0-.1,0-.2,.1-.2,.2-.2,.4-.2,.7-.3,.2,0,.5,0,.8-.2,1.7-.4,4-1,6.2-1.1,.2,0,.4,.2,.4,.4,0,.2-.2,.4-.4,.4-2.1,0-4.3,.7-6,1.1-.3,0-.6,.1-.8,.2-.1,0-.2,0-.3,0,0,0,0,0,0,0,0,0,0,0,0,0,0,0,0,0,0,0,0,0,0-.2,0-.1,0,0,0-.2,0-.2,0,0,0-.2,0-.2,0,0,0-.1,0,0,0,0,0,0,0,0,0,0,0,0,0,0,0,0,0,0,0,0,0,0,.2,0,.4,.1,.3,.1,.6,.3,1,.6"/><path d="M48.6,90.8c.2,0,.4,0,.5,.2,0,.2,0,.4-.2,.5,0,0-.2,0-.2,0,0,0,0,0-.1,0,0,0-.1,0-.3,0-.2-.1-.2-.4-.2-.5,0,0,0-.1,0-.2,0,0,0-.1,.2-.2,.4-.4,1.1-1.2,1.8-2.1,.4-.5,.9-1,1.2-1.4,.2-.2,.4-.4,.7-.5,0,0,.2,0,.3,0,0,0,.1,.1,.2,.2,0,.1,0,.2,0,.3,0,.2,0,.4,0,.6-.1,.6-.4,1.3-.7,2-.2,.6-.4,1.2-.4,1.2,0,.2,0,.4-.3,.5-.2,0-.4,0-.5-.3-.2-.6,.1-1.1,.4-1.7,.3-.7,.5-1.4,.6-1.9,0-.2,0-.3,0-.4h0s0,0,0,0c0,0,.2,.2,.1,.1,0,0,.2,0,.1,0,0,0,.2,0,.1,0,0,0,0,0,0,0,0,0-.2,.1-.3,.3-.3,.3-.7,.8-1.2,1.3-.8,.8-1.4,1.6-1.8,2.1,0,0,0,0,0,0,0,0,0,0,0,0,0,0,0-.1,0,0,0,0,0-.1,0,0,0,0,0-.3,0-.2,0,0-.2-.2-.2-.2,0,0-.1,0,0,0,0,0-.1,0,0,0,0,0,0,0,0,0,0,0,0,0,0,0,0,0,0,0,.2,0"/><path d="M53.1,90.2c0-.2,.1-.4,.4-.5,.2,0,.4,.1,.5,.4,0,.5,0,1,.2,1.3,0,.2,.2,.3,.3,.3,.1,0,.2,0,.3,0,.2,0,.5-.4,.8-.9,.3-.5,.5-1,.7-1.5,.1-.4,.1-.7,0-.8,0,0,0,0-.2-.1-.1,0-.3,0-.6,0-.5,.1-1,.4-1.4,.9-.1,.2-.4,.2-.6,0-.2-.1-.2-.4,0-.6,.5-.6,1.2-1,1.8-1.2,.3,0,.7,0,1,0,.3,0,.6,.3,.7,.6,.1,.4,0,.9,0,1.3-.2,.6-.4,1.2-.8,1.7-.3,.5-.7,1-1.2,1.2-.3,.1-.6,0-.8,0-.4-.1-.6-.5-.8-.8-.2-.5-.2-1.1-.3-1.5"/><path d="M63,89.1c0,.2-.3,.3-.5,.2-.2,0-.3-.3-.2-.5,0,0,0-.2,0-.2,0,0,0,0,0,0,0,0,0,0,0,0,0,0,0,0,0,0-.1,0-.3,0-.4,.1-.4,.2-.9,.7-1.4,1.3-.4,.5-.7,1.1-.7,1.4,0,.1,0,.1,0,.1,0,0,.1,0,.3,0,.5,0,1.3-.3,2.3-.8,.2-.1,.4,0,.6,.2,.1,.2,0,.4-.2,.6-1,.5-1.9,.8-2.6,.9-.3,0-.7,0-.9-.2-.3-.2-.3-.6-.3-.9,.1-.5,.4-1.2,.9-1.8,.5-.6,1-1.2,1.7-1.5,.2-.1,.5-.2,.7-.2,.2,0,.5,0,.7,.3,.2,.2,.2,.4,.2,.6,0,.2,0,.4-.1,.5"/><path d="M69.6,84c.2,0,.3,.3,.2,.5,0,.2-.3,.3-.5,.2,0,0,.3,0,.2,0,0,0,.1,0,.1,0,0,0,0,0,0,0,0,0,0,0,0,0,0,0,0,0,0,0,0,.1-.2,.3-.3,.6-.2,.6-.5,1.4-.8,2.3-.2,.7-.5,1.4-.8,2.1-.5,1.3-.9,2.4-1.2,3.2-.1,.4-.3,.7-.3,1,0,.1,0,.2,0,.3,0,0,0,0,0,0,0,0,0,0,0,0,0,0,0,0,0,0,0,0,0-.1,0,0,.1,.2,0,.4-.1,.6-.2,.1-.4,0-.6-.1-.2-.3,0-.3,0-.4,0,0,0-.2,0-.3,0-.3,.2-.6,.3-1,.3-.9,.7-2,1.2-3.2,.3-.7,.5-1.4,.8-2.1,.3-.9,.6-1.7,.8-2.3,.1-.3,.2-.5,.3-.7,0,0,0-.2,.1-.2,0,0,0,0,.1-.1,0,0,.3-.1,.4,0"/><path d="M72.4,86.9c0,.2-.2,.4-.4,.4-.2,0-.4-.2-.4-.4,0-.4,.2-.8,.5-1,.3-.2,.7-.2,1,0,.3,0,.5,.3,.7,.5,.1,.3,.2,.6,.2,.9,0,.7-.6,1.2-.9,1.6-.2,.3-.4,.4-.4,.4,0,0,0,.2,0,.3,0,0,0,0,0,0,0,0,.3,.1,.4,.3,.4,.3,.5,.7,.6,1.2,0,.4-.1,.7-.4,1-.2,.3-.5,.5-.9,.7-.6,.4-1.3,.6-1.9,.5-.2,0-.4-.2-.4-.5,0-.2,.2-.4,.5-.4,.2,0,.9-.1,1.4-.4,.3-.2,.5-.3,.7-.5,.1-.2,.2-.3,.2-.4,0-.2-.1-.5-.3-.6-.2-.1-.6-.2-.8-.7,0-.2-.1-.5,0-.8,.1-.4,.3-.5,.5-.7,.3-.4,.7-1,.8-1.3,0-.2,0-.3,0-.4,0,0-.1-.1-.2-.2-.2,0-.3,0-.3,0,0,0-.1,.1-.1,.4"/><path d="M43.8,18.5c0,.2-.2,.4-.4,.4-.2,0-.4-.2-.4-.4,0-.2,0-.4,0-.6,0-.2,0-.2,0-.4,.1-.2,.4-.3,.6-.2,.2,.1,.3,.4,.2,.6,0,0-.5,1.4-1,2.6-.2,.6-.4,1.2-.6,1.7,0,.2-.1,.4-.2,.5,0,0,0,.1,0,.1,0,0,0,0,0,0,0,0,0,0,0,0,0,0,0-.1,0,0,0,0,0-.1,0-.1,0,0-.1-.1,0,0,0,0-.3,0-.2,0,0,0-.2,0-.2,0,.2,0,.4,0,.5,.2,0,.2,0,.4-.2,.5-.1,0-.4,0-.5-.2-.1-.2,0-.2,0-.3,0,0,0-.2,0-.2,0-.1,.1-.3,.2-.6,.2-.5,.4-1.1,.6-1.7,.2-.6,.5-1.3,.6-1.8,.2-.5,.3-.8,.4-.9l.7,.4s0,0,0,0c0,0,0,.3,0,.6"/><path d="M40.8,17.6c-.1,.2-.4,.2-.6,0s-.2-.4,0-.6c.2-.3,.3-.2,.3-.2,0,0,0,0,.1,0,0,0,.1,0,.2,0,.2,0,.4,0,.7,0,1.5,0,4.1-1,6.1-.9,.2,0,.4,.2,.4,.4,0,.2-.2,.4-.4,.4-1.8,0-4.3,.9-6.1,.9-.3,0-.6,0-.8,0,0,0-.2,0-.2,0,0,0,0,0,0,0,0,0,0,0,0,0,0,0,.1,0,0,0,0,0,0,0,0,0,0,0,.1-.1,0,0m.6-.4c.2,0,.3,.3,.2,.5,0,.2-.3,.3-.5,.2-.2,0-.4-.1-.5-.2,0,0-.1,0-.1,0h0s0,0,0,0c0,0,.1,0,0,0-.2,0-.4,0-.5-.3,0-.2,0-.4,.3-.5,0,0,0,0,.1,0,0,0,0,0,0,0,0,0,.1,0,.2,0,.2,0,.4,0,.6,.2"/><path d="M48.9,22.2c.2,0,.4,0,.5,.3,0,.2,0,.4-.3,.5-.2,0-.3,0-.6,0-.1,0-.3-.1-.3-.3,0-.1,0-.3,0-.4,.1-.4,.4-.6,.7-1,.3-.4,.7-.8,1.1-1.2,.5-.5,.9-1.1,1.3-1.5,.2-.3,.4-.5,.6-.6,0,0,.2,0,.4,0,.2,0,.2,.2,.3,.3,0,.1,0,.2,0,.3,0,.2,0,.3-.2,.5-.4,1-1.2,2.4-1.3,3.1,0,.2-.2,.4-.4,.4-.2,0-.4-.2-.4-.4,.1-1.1,1-2.4,1.3-3.3,0-.2,0-.3,.1-.3,0,0,0,0,0,0,0,0,0,.1,0,0,0,0,.1,.2,0,.1,0,0,.2,.1,.2,.1,0,0,.3,0,.2,0,0,0,.1,0,.1,0,0,0-.2,.2-.4,.4-.4,.4-.8,1-1.3,1.5-.8,.9-1.6,1.7-1.6,1.9,0,0,0,0,0,0,0,0,0-.2,0-.1,0,0-.1-.2-.1-.1,0,0-.1,0,0,0,0,0,0,0,0,0,0,0,0,0,.1,0"/><path d="M53.7,20.1c.2,0,.4,.3,.3,.5,0,.2-.3,.4-.5,.3,0,0,.2,0,.2,0,0,0,.1,0,0,0,0,0,0,0,0,0,0,0,0,0,0,.1,0,.2-.2,.4-.2,.6,0,.3,0,.6,0,.8,0,.1,.2,.3,.4,.3,.2,0,.5,0,.8-.2,.8-.4,1.6-1.5,1.9-2.4,.1-.2,.1-.5,0-.6,0-.2,0-.2,0-.2-.1,0-.7,0-1.2,.1-.5,.2-1,.5-1.2,.7-.1,.2-.4,.2-.6,.1-.2-.1-.2-.4-.1-.6,.3-.5,.9-.8,1.6-1,.6-.2,1.3-.4,1.9,0,.3,.2,.4,.5,.5,.8,0,.3,0,.7-.1,1.1-.4,1-1.2,2.3-2.3,2.8-.5,.2-1,.4-1.4,.2-.4-.1-.9-.4-1-.9-.1-.4,0-.8,0-1.2,0-.3,.2-.6,.3-.8,0-.1,.1-.2,.2-.3,0,0,0,0,.1-.1,0,0,.2-.1,.4,0"/><path d="M61.5,21.3c0,.2-.3,.3-.5,.3-.2,0-.3-.3-.3-.5,0,0,0,0,0,0,0,0,0,0,0,0,0,0,0,0,0,0,0,0,0,0,0,0,0,0-.2,0-.3,.2-.4,.3-1,1-1.3,1.6-.2,.4-.3,.7-.3,1,0,.1,0,.2,0,.3,0,0,.2,.1,.3,.1,.4,0,1.1-.1,1.9-.5,.2-.1,.4,0,.6,.2,.1,.2,0,.4-.2,.6-.9,.5-1.7,.7-2.4,.6-.3,0-.6-.1-.8-.4-.2-.2-.3-.5-.3-.9,0-.4,.1-.9,.4-1.3,.4-.7,1-1.5,1.6-1.9,.2-.1,.3-.2,.5-.3,.2,0,.4,0,.6,0,.2,.1,.3,.3,.4,.5,0,.2,0,.4,0,.6"/><path d="M69.4,17.4c-.1,.2-.4,.3-.6,.2-.2-.1-.3-.4-.2-.6,0,0,0,0,0,0,0,0,0,0,0,0,0,0,0,0,0,0,0,0,0,.2,0,.1-.1-.2,0-.3,0-.4h0s0,0,0,0c0,0,0,.2,0,.1,0-.2,0-.4,.2-.5s.4,0,.5,.2c0,.2,0,.3,0,.4,0,0,0,.1-.1,.2,0,.2-.2,.4-.4,.6-.3,.5-.7,1.2-1.1,1.9-.8,1.5-1.7,3.1-2,4.1,0,.2-.3,.4-.5,.3-.2,0-.4-.3-.3-.5,.3-1.2,1.2-2.8,2.1-4.3,.4-.7,.8-1.4,1.1-1.9,.1-.2,.3-.5,.3-.6,0,0,0-.1,0-.2,0,0,0,0,0,0,0,0,0,0,0,0,0,0,0,.2,0,.1l.8-.3c0,.2,0,.3,0,.3,0,0,0,0,0,0,0,0,0,0,0,0,0,0,0-.1,0,0,.1,.2,0,.3,0,.4,0,0,0,.2,0,.2"/><path d="M72.7,19.2c0,.2-.3,.3-.5,.3-.2,0-.3-.3-.3-.5,0,0,0,0,0,0,0,0,0,0,0,0,0,0,0,.1,0,0,0,0,.2,.1,.2,.1,0,0,0,0,0,0,0,0-.2,.1-.3,.3-.1,.1-.2,.4-.2,.7,0,0,0,0,0,.1,0,0,.2,.1,.3,.2,0,0,.2,0,.4,.2,.4,.2,.5,.6,.4,1,0,.4-.3,.7-.6,.9-.3,.2-.6,.4-1,.6-.4,.1-.7,.3-1.1,.3-.4,0-.7,0-1-.2-.2-.1-.3-.4-.1-.6,.1-.2,.4-.3,.6-.1,0,0,.3,0,.5,0,.3,0,.6-.1,.9-.2,.3-.1,.6-.3,.8-.4,.2-.2,.3-.3,.3-.4,0-.1,0-.2,0-.2,0,0-.1,0-.3-.1-.1,0-.3-.2-.5-.3-.2-.1-.3-.4-.3-.6,0-.4,0-.9,.4-1.3,.2-.2,.4-.4,.8-.5,0,0,.2,0,.3,0,.1,0,.2,.1,.3,.2,.1,.2,0,.4,0,.6"/><path d="M72.7,19.1c0,.2-.3,.4-.5,.3-.2,0-.4-.3-.3-.5,0-.3,.3-.6,.6-.8,.3-.1,.6-.2,.9-.2,.7,0,1.6,0,2.7-.1,.2,0,.4,.1,.4,.4,0,.2-.1,.4-.4,.4-1.2,.1-2.1,0-2.8,.1-.3,0-.5,0-.6,.1,0,0-.1,0-.1,.2"/><path d="M130.1,19c.2,0,.4,0,.5,.2,0,.2,0,.4-.2,.5,0,0,.1,0,0,0,0,0,0,0,0,0,0,0,0,0,0,0,0,0,0,0,0,.1,0,.1,0,.3-.2,.5-.1,.4-.3,1-.5,1.6-.2,.8-.5,1.7-.7,2.3,0,.3-.1,.5-.1,.6,0,0,0,0,0,0,0,0,0-.1,0,0,0,0,0-.1,0,0,0,0-.2-.1-.1,0,0,0-.2,0-.2,0,0,0-.1,0-.1,0,0,0-.1,0-.1,0,0,0,0,0,0,0h0c.1-.2,.4-.2,.6,0s.2,.4,0,.6c0,0,0,0-.1,.1,0,0-.2,.2-.5,0-.2-.1-.2-.3-.2-.4,0,0,0-.1,0-.2,0-.2,0-.4,.2-.8,.2-.7,.5-1.5,.7-2.3,.2-.6,.4-1.2,.5-1.6,0-.2,.1-.4,.2-.5,0,0,0-.1,0-.2,0,0,0-.1,.2-.3"/><path d="M127.9,18.9c.2,0,.4,.2,.4,.5,0,.2-.2,.4-.5,.4-.1,0-.2,0-.3,0,0,0,0,0,0,0,0,0,0,0,0,0,0,0,.1,0,0,0,0,0,.1,0,0,0,0,0,.1-.2,0-.1,0,0,0-.2,0-.1,0,0,0-.2,0-.2,0,0,0-.1,0-.1,0,0-.1,0,0,0,0,0,0,0,0,0,0,0,0,0,.1,0,.2,0,.6,0,1,0,1.4,0,3.3-1,5-.9,.2,0,.4,.2,.4,.4,0,.2-.2,.4-.4,.4-1.4,0-3.3,.8-4.9,.9-.5,0-.9,0-1.2,0,0,0-.2,0-.3,0,0,0-.1,0-.2-.1,0,0-.1-.2,0-.4,0-.2,.2-.2,.2-.2,.2,0,.2,0,.3,0,.1,0,.2,0,.4,0"/><path d="M133.3,25.2c-.2,0-.3-.3-.3-.5s.3-.3,.5-.3c0,0-.2,0-.2,0,0,0-.1,0,0,0,0,0,0,0,0,0,0,0,0,0,.1,0,.1,0,.3-.2,.4-.3,.4-.3,.9-.7,1.4-1.2,.5-.4,1-.9,1.5-1.4,.5-.4,.9-.9,1.2-1.2,.2-.2,.3-.3,.6-.3,0,0,.2,0,.3,0,.1,0,.2,.2,.2,.3,0,.2,0,.3,0,.4-.1,.4-.4,.7-.7,1.1-.6,.9-1.1,2-1.1,2.7,0,.2-.2,.4-.4,.4-.2,0-.4-.2-.4-.4,0-1,.7-2.1,1.3-3.1,.3-.4,.6-.8,.6-.9,0,0,0,0,0,0,0,0,0,0,0,0,0,0,0,.1,0,0,0,0,.1,.2,0,.1,0,0,.2,.1,.1,0,0,0,.1,0,.1,0,0,0,0,0,0,0,0,0,0,0,0,0,0,0,0,0-.2,.1-.3,.3-.7,.7-1.2,1.1-.5,.5-1,1-1.5,1.4-.6,.5-1,.9-1.4,1.2-.2,.1-.3,.3-.5,.4,0,0-.1,0-.2,.1,0,0,0,0,0,0,0,0,0,.1-.3,0"/><path d="M139.7,22.5c.2,.1,.3,.3,.2,.5-.1,.2-.3,.3-.5,.2,0,0,.2,0,.1,0,0,0,0,0,0,0,0,0-.1,.2-.1,.4,0,.3,0,.6,0,.8,0,0,0,.2,.2,.3,.1,0,.3,.2,.5,.2,.3,0,.6,0,.9,0,.5-.2,1.1-.9,1.4-1.5,.1-.2,.2-.5,.2-.7,0-.1,0-.2,0-.3,0,0-.2-.1-.4-.2-.4,0-1,0-1.6,.2-.2,0-.4,0-.5-.2,0-.2,0-.4,.2-.5,.8-.3,1.5-.4,2.1-.2,.3,0,.6,.2,.8,.4,.2,.2,.3,.5,.3,.8,0,.3,0,.7-.3,1.1-.4,.7-1,1.5-1.8,1.9-.5,.2-1,.2-1.4,.1-.3,0-.5-.2-.7-.4-.2-.2-.4-.4-.5-.7-.1-.4,0-.8,0-1.1,0-.3,.1-.6,.3-.8,0-.1,.2-.2,.4-.3,.2,0,.4,0,.5,0"/><path d="M149.4,22.7c0,.2-.3,.3-.5,.2-.2,0-.3-.3-.2-.5,0-.1,0-.2,0-.3,0,0,0,0,0,0,0,0,0,0,0,0,0,0,.1,0,0,0,0,0,0,0,0,0,0,0,0,0-.1,0-.2,0-.4,.2-.6,.3-.5,.3-.9,.9-1.2,1.5-.2,.3-.2,.6-.2,.8,0,.2,0,.2,.2,.3,.1,0,.4,.1,.9,0,.5,0,1.1-.3,1.8-.6,.2,0,.4,0,.5,.2,0,.2,0,.4-.2,.5-.8,.4-1.5,.6-2.1,.7-.5,0-1,0-1.4-.1-.4-.2-.6-.6-.6-1,0-.4,.1-.8,.3-1.2,.4-.7,.9-1.4,1.5-1.8,.3-.2,.5-.3,.8-.4,.1,0,.3,0,.4,0,.1,0,.3,0,.5,.2,.2,.2,.2,.5,.2,.7,0,.2,0,.4-.2,.6"/><path d="M156.9,18.8c0,.2-.3,.3-.5,.2-.2,0-.3-.3-.2-.5,0,0,0,0,0,0,0,0,0,0,0,0,0,0,0,0,0,0,0,0,0,0,0,0,0,0,0,.2,0,.1,0,0,.2,.2,.1,.2,0,0,.2,.1,.2,0,0,0,.2,0,.1,0,0,0,.2,0,.1,0,0,0,0,0,0,0,0,0,0,0,0,0,0,0,0,.1-.2,.3-.3,.4-.6,1.1-1.1,1.9-.9,1.6-2,3.7-2.8,5.3,0,.2-.3,.3-.5,.2-.2,0-.3-.3-.2-.5,.8-1.7,1.9-3.7,2.8-5.4,.5-.8,.8-1.5,1.1-1.9,.1-.2,.2-.3,.3-.4,0,0,0-.1,.3-.1,.1,0,.3,0,.4,.2,.1,.2,0,.3,0,.3,0,.1,0,.2,0,.2"/><path d="M157.4,24.5c.2-.2,.4-.1,.6,0,.2,.2,.1,.4,0,.6-.1,0-.2,.2-.2,.2,0,0,0,0,0,0,0,0,0,0,0,0,0,0,0-.2,0-.1,0,0-.1-.2,0-.1,0,0-.2,0-.1,0,0,0-.1,0,0,0,0,0,0,0,0,0,0,0,0,0,.2,0,.5-.3,1.3-1.1,2.2-1.9,.5-.5,1.1-.9,1.5-1.2,.3-.2,.5-.4,.8-.4,.3,0,.5,.3,.5,.5,0,.2,0,.3,0,.5,0,.3-.2,.7-.4,1.1-.3,.8-.7,1.7-.8,2.2,0,.2-.3,.4-.5,.3-.2,0-.4-.3-.3-.5,.1-.6,.5-1.4,.8-2.3,.1-.4,.3-.8,.3-1,0-.1,0-.2,0-.2,0,0,0,0,0,0,0,0,.2,.2,.1,.1,0,0,.2,0,.2,0,0,0,0,0,0,0,0,0-.2,.1-.3,.2-.4,.3-.9,.7-1.4,1.2-.9,.8-1.6,1.6-2.4,2-.1,0-.3,.1-.4,.2,0,0-.2,0-.3,0-.1,0-.3-.2-.3-.3,0-.3,0-.4,.1-.5,0-.1,.2-.2,.3-.4"/><path class="e" d="M194.3,126.3c0-2.6-.7-5.1-1.9-7.2-2.5-4.2-7-7-12.3-7s-5.1,.7-7.2,1.9c-4.2,2.5-7,7-7,12.3s.7,5.1,1.9,7.2c2.5,4.2,7,7,12.3,7s5.1-.7,7.2-1.9c4.2-2.5,7-7,7-12.3m.8,0c0,5.5-3,10.4-7.5,13-2.2,1.3-4.8,2-7.6,2-5.5,0-10.4-3-13-7.5-1.3-2.2-2-4.8-2-7.6,0-5.5,3-10.4,7.5-13,2.2-1.3,4.8-2,7.6-2,5.5,0,10.4,3,13,7.5,1.3,2.2,2,4.8,2,7.6"/><path class="e" d="M175.8,121.1c0-.2,.3-.3,.5-.2,.2,0,.3,.3,.2,.5,0,0,0,0,0,0,0,0,0,0,0,0,0,0,0,0,0,0,0,0,0,0,0,.1,0,.5,.2,1.3,.4,2.2,.1,.5,.2,1.1,.3,1.8,.1,.7,.3,1.4,.4,2.1,.2,1,.4,1.8,.6,2.3,0,0,0,0,0,0,0,0-.1,0,0,0,0,0,0,0,0,0,0,0,0,0,0,0,.2-.3,.5-1,.9-2.1,.5-1.3,1.1-2.8,1.7-4.1,.4-.8,.7-1.5,.9-1.9,.1-.2,.2-.4,.3-.6,0-.1,.1-.2,.3-.3,0,0,.2-.1,.3-.1,.2,0,.3,.2,.4,.3,.1,.2,0,.4-.2,.6-.2,.1-.4,0-.6-.2,0,0,.1,.1,0,.1,0,0,.3,0,.2,0,0,0,.2,0,.2,0,0,0,0,0,0,0,0,0,0,0,0,.1,0,.1-.2,.3-.3,.5-.2,.5-.6,1.1-.9,1.9-.6,1.3-1.2,2.8-1.7,4-.4,1.1-.6,1.9-1,2.4-.2,.2-.4,.3-.7,.3-.2,0-.3,0-.4-.2-.1-.1-.2-.2-.3-.4-.2-.6-.4-1.4-.6-2.4-.1-.7-.3-1.5-.4-2.1-.1-.6-.2-1.2-.3-1.8-.2-1-.3-1.8-.4-2.3,0-.1,0-.1,0-.4,0,0,0,0,0,0m.9,1.1c0,.2-.2,.4-.4,.4-.2,0-.4-.2-.4-.4,0,0,0-.4-.1-.7,0,0,0,0,0,0,0,0,0,0,0,0,0,0,.1,.1,0,0-.2-.2-.2-.4,0-.6,.2-.2,.4-.2,.6,0,0,0,0,.1,0,.1,0,0,0,0,0,.1,0,.3,.2,.6,.1,.9"/><path d="M95,176c-.4,0-.8-.5-.7-.9,0-.4,.5-.8,.9-.7,0,0-.2,0-.2,0,0,0,0,0,.1,0,.1,0,.3-.2,.6-.4,.6-.4,1.3-.9,2.1-1.3,1.7-1,3.4-1.6,5.1-2.2,1.5-.5,2.8-1.1,4.3-1.3,1.3-.2,2.8-.4,4.6-.8,1.3-.3,2.9-.8,4.6-1.2,3.2-.7,6.2-.9,9.1-1,1.7,0,3.3,0,5,0,.8,0,1.5,0,2.2,0,2.2,0,4.8-.9,7.5-1.4,3.3-.7,6.4-.9,9.3-1.5,2.4-.5,4.7-.9,7-1.5,1.5-.4,3-1.1,4.4-1.9,2.5-1.3,4.5-2.5,6.2-3.8,2.9-2.2,4.8-4.7,5.9-6.7,1-1.8,1.6-3.2,2.1-4.6,.2-.7,.5-1.4,.8-2,.3-.5,.7-.8,.9-1,0,0,0,0,.1-.1,0,0,0-.1,0-.2,0,0,0,.3,0,.2,0,0,.2,.4,0,.3,0-.1,.5,.4,.3,.3-.2,0,.5,0,.4,0-.1,0,.3,0,.2,0,0,0,.1,0,.1,0-.3,.3-.9,.3-1.2,0-.3-.3-.3-.9,0-1.2,0,0,.1-.1,.3-.2,.1,0,.4-.2,.7,0,.3,.2,.5,.5,.5,.6,0,.2,0,.3,0,.3,0,.3-.2,.5-.3,.8-.1,.2-.3,.4-.4,.5-.3,.3-.5,.4-.6,.6-.2,.4-.5,1-.7,1.7-.5,1.4-1.1,3-2.2,4.9-1.2,2.1-3.3,4.8-6.3,7.2-1.8,1.4-3.9,2.7-6.5,4-1.5,.8-3.1,1.6-4.8,2-2.4,.7-4.8,1.1-7.1,1.6-3.1,.6-6.1,.9-9.3,1.5-2.6,.5-5.3,1.4-7.8,1.5-.8,0-1.6,0-2.3,0-1.7,0-3.3,0-5,0-2.8,0-5.7,.2-8.8,.9-1.6,.4-3.2,.9-4.6,1.2-1.9,.4-3.5,.6-4.7,.8-1.4,.2-2.5,.7-4.1,1.2-1.7,.6-3.2,1.1-4.8,2-.8,.4-1.4,.9-2,1.3-.6,.4-.8,.8-1.7,.7"/><path class="d" d="M93.9,96c.5,0,.8,.4,.8,.8,0,.5-.4,.8-.8,.8-.2,0-.3,0-.6-.1-.2,0-.4-.3-.5-.6,0-.3,0-.6,.1-.7,.4-.6,.7-.5,1-.6,.9-.3,2.6-.9,4.6-1.5,2.1-.6,4.3-1.2,6.9-1.8,1.6-.4,3.2-.8,5.1-1.2,1.6-.4,3.3-.7,5-1,.7-.1,1.3-.2,2-.3,1.4-.2,2.7-.3,4.1-.4,4.4-.4,8.7-.7,12.8-.7,2.7,0,5.5,0,8.1,.2,3.4,.3,6.1,1.1,8.7,1.8,3.8,1,7.3,1.6,9.9,2.9,1.6,.8,3.3,1.5,4.3,2.8,.4,.5,.8,1,1.2,1.5,.2,.2,.4,.4,.6,.7,.1,0,.2,.2,.4,.3,.3,.2,.5,.5,.8,.7,.3,.3,.6,.7,.9,1,.3,.4,.5,.7,.7,1,.2,.2,.4,.5,.7,.8,.4,.5,.7,1,1,1.5,.2,.3,.3,.6,.4,.8,0,.2,.2,.3,.3,.4,0,0,.2,.2,.3,.3,0,0,.2,.2,.2,.3,.2,.2,.4,.5,.6,.7,.2,.2,.3,.4,.5,.5,.1,.1,.2,.3,.4,.5,.1,.1,.2,.3,.4,.4,1,1.1,1.5,2.3,1.8,3.1,.2,.4,0,.9-.5,1.1-.4,.2-.9,0-1.1-.5-.3-.7-.7-1.7-1.5-2.6-.1-.1-.2-.2-.3-.4-.2-.2-.3-.3-.5-.5-.1-.2-.3-.4-.5-.6-.2-.2-.4-.5-.5-.6,0,0-.2-.2-.3-.3,0-.1-.3-.3-.4-.5-.1-.2-.2-.4-.3-.5-.2-.3-.3-.6-.5-.8-.2-.4-.5-.8-.8-1.2-.2-.2-.5-.5-.7-.9-.3-.4-.5-.7-.7-1-.2-.3-.4-.6-.7-.8-.2-.2-.5-.5-.7-.7-.1-.1-.3-.2-.4-.4-.2-.2-.5-.5-.7-.8-.5-.5-.9-1.1-1.2-1.6-.7-.9-2.1-1.5-3.7-2.4-2.2-1.1-5.7-1.8-9.6-2.8-2.6-.7-5.3-1.5-8.5-1.8-2.5-.2-5.3-.2-8-.2-4,0-8.3,.3-12.6,.6-1.3,.1-2.6,.2-4,.4-.6,0-1.3,.2-1.9,.3-1.6,.3-3.3,.6-4.9,1-1.8,.4-3.5,.8-5,1.2-2.5,.6-4.7,1.2-6.8,1.8-2,.6-3.6,1.2-4.5,1.5-.1,0-.3,0-.3,.1,0,0,0,0,0,0,0,0,0,0,0,0,0,0,.1-.2,.1-.1,0,0,.1-.3,.1-.2,0,.1,0-.5,0-.4,0,.1-.3-.4-.2-.4,0,0-.3-.2-.2-.2,0,0-.2,0-.2,0,0,0,0,0,0,0"/><path d="M91,141.9c-.2-.1-.3-.4-.2-.6,.1-.2,.4-.3,.6-.2,.3,.2,.8,.2,1.5,.2,.9,0,2,0,3,0,.4,0,.7,0,1,0,.1,0,.2,0,.2,0,0,0,0,0,0,0,0,0,0,0,0,0,0,0,0,0,0,0,0,0,0,.2,0,.1,0,0,0,.3,0,.2,0,0,.1,.2,0,.2,0,0,.2,0,.1,0,0,0,0,0,0,0,0,0,0,0,0,0,0,0-.2,0-.3,0-.5,0-1.2,.2-2.1,.2-.4,0-.8,0-1.4,0-.8,0-1.7-.2-2.4-.5-.5-.2-1-.4-1.3-.7-.1-.1-.2-.3-.2-.5,0-.2,0-.3,0-.4,.1-.3,.3-.5,.5-.6,.7-.5,1.6-.5,2.3-.4,.4,0,.7,.3,1.1,.4,.2,0,.4,.1,.6,.1,.2,0,.7-.4,1.3-.8,.3-.2,.7-.4,1-.6,.3-.2,.6-.4,.9-.8,.1-.2,.4-.2,.6,0,.2,.1,.2,.4,0,.6-.4,.5-.7,.7-1.1,1-.3,.2-.7,.4-.9,.6-.5,.4-1,1-1.8,.9-.3,0-.6,0-.8-.2-.4-.1-.7-.3-1-.4-.6-.1-1.3,0-1.7,.3-.1,0-.2,.2-.2,.3,0,0,0,0,0,0,0,0,0,0,0,0,.1,.1,.5,.3,.9,.5,.7,.2,1.5,.4,2.2,.4,.5,0,.9,0,1.3,0,.9,0,1.5-.2,2.1-.2,0,0,.2,0,.3,0,0,0,.1,0,.2,0,0,0,.2,0,.3,.1,0,0,.2,.3,.1,.4,0,.1,0,.2-.1,.2,0,0-.1,.1-.2,.1-.1,0-.3,0-.5,.1-.3,0-.6,0-1,0-.9,0-2,0-2.9,0-.7,0-1.3,0-1.9-.3"/><path d="M95.5,132.9c-.2,0-.4,0-.5-.3,0-.2,0-.4,.3-.5,0,0,0,0,0,0,0,0,0,0,0,0,0,0,0,0,.1,0,.1,0,.3,0,.4,0,.5,0,1,.2,1.2,.1,0,0,0,0,0,0,0,0-.1,.2,0,.1,0,0,0,0,0,0,0,0,0-.2-.1-.3-.1-.2,0-.4,.1-.6,.2-.1,.4,0,.6,.1,.2,.3,.3,.6,.2,1,0,.2-.2,.3-.3,.4-.1,0-.3,0-.4,0-.5,0-1-.1-1.3-.1,0,0-.2,0-.3,0,0,0,0,0-.1,0h0s0,0,0,0m-.2,1.9c-.1,.2-.4,.2-.6,.1-.2-.1-.2-.4-.1-.6,.1-.2,.3-.3,.5-.3,.2,0,.3,0,.5,0,.3,0,.6,.2,.9,.2,.3,0,.6,0,.9,.1,.2,0,.4,0,.4,0,0,0-.1,0,0,0,0,0,0,0,0,0,0,0,0,0,0,0,0,0,0-.1-.3-.3-.2-.2-.5-.3-.8-.5-.3-.2-.7-.4-.9-.6-.1,0-.2-.1-.3-.2,0,0-.2,0-.4-.3,0-.2,0-.4,.2-.5,.2,0,.4,0,.5,.2,0,0,0-.1,0,0,0,0,0,0,0,0,0,0,0,0,0,0,0,0,.2,.1,.4,.2,.3,.2,.6,.4,.9,.6,.3,.2,.6,.4,.8,.5,.3,.2,.5,.4,.6,.7,0,.2,0,.3,0,.5,0,.2-.2,.4-.5,.4-.2,0-.4,0-.6,0-.3,0-.7,0-1-.1-.3,0-.6-.2-.9-.2-.1,0-.2,0-.2,0,0,0,0,0,0,0"/><path d="M90.3,133.2c-.2,0-.4,0-.5-.3,0-.2,0-.4,.3-.5,.5-.1,.7,.1,1,.2,.2,0,.3,0,.4,0,0,0-.2,0-.1,0,0,0-.1,0-.1,0,0,0-.1,.2,0,.1,0,0,0,.1,0,0,0,0,0,0,0,0,0,0,0,0,0,0,0-.1-.1-.3-.2-.5,0-.2-.1-.5,0-.8,0-.1,.3-.3,.4-.3,.2,0,.3,0,.5,0,.2,0,.4,.2,.4,.5,0,.2-.2,.4-.5,.4-.1,0-.2,0-.2,0,0,0,0,0,0,0,0,0,0,0,0,0,0,0,0,0,0,.2,0,.1,.1,.3,.2,.5,0,0,0,.2,0,.3,0,.2-.3,.5-.5,.5-.2,0-.4,0-.6-.1-.2,0-.3-.1-.5-.2,0,0-.1,0-.2,0,0,0,0,0,0,0"/></g></svg>