<?xml version="1.0" encoding="UTF-8"?><svg xmlns="http://www.w3.org/2000/svg" xmlns:xlink="http://www.w3.org/1999/xlink" viewBox="0 0 396.3 128.4"><defs><style>.d{fill:none;}.e,.f{opacity:.4;}.e,.f,.g{mix-blend-mode:darken;}.e,.g,.h{fill:#00733b;}.f,.i{fill:#ed3624;}.g{opacity:.4;}.j{fill:#1749b3;}.k{clip-path:url(#c);}.l{clip-path:url(#b);}.m{isolation:isolate;}.n{opacity:0;}</style><clipPath id="b"><rect class="d" x="-13.4" y="-38.1" width="419.5" height="297.6"/></clipPath><clipPath id="c"><rect class="d" x="-13.4" y="-38.1" width="419.5" height="297.6"/></clipPath></defs><g class="m"><g id="a"><g class="n"><path d="M81.1,24.1l-1.9-4.8h-7.4l-1.9,4.8h-2.3l6.9-17.4h2.4l6.8,17.4h-2.7Zm-8.7-18.9V3.2h2v2h-2Zm6.1,12.2l-3-7.5-3,7.5h5.9Zm-1.5-12.2V3.2h2v2h-2Z"/></g><g class="n"><path d="M94.7,42.3v-1.8c1,.4,1.8,.7,2.4,.7,.8,0,1.3-.2,1.6-.6,.3-.4,.4-1.2,.4-2.4v-12.2h2.2v12.2c0,3.1-1.3,4.7-4,4.7s-1.6-.2-2.5-.6Zm4.3-18.6v-2.2h2.2v2.2h-2.2Z"/><path d="M111.8,36.6c-1.3,1.2-2.6,1.8-3.8,1.8s-1.9-.3-2.5-1c-.7-.6-1-1.4-1-2.4s.6-2.4,1.7-3.1c1.1-.7,2.7-1.1,4.8-1.1h.5v-1.5c0-1.4-.7-2.1-2.2-2.1s-2.4,.4-3.8,1.1v-1.8c1.5-.6,2.9-.9,4.2-.9s2.4,.3,3,.9c.6,.6,1,1.6,1,2.9v5.5c0,1.3,.4,1.9,1.2,1.9s.2,0,.4,0l.2,1.2c-.5,.2-1.1,.4-1.7,.4-1,0-1.7-.6-2-1.8Zm-.3-1.2v-3.2h-.7c-1.2,0-2.2,.2-3,.7s-1.1,1.1-1.1,1.8,.2,1,.6,1.4,.8,.6,1.4,.6c.9,0,1.9-.4,2.9-1.2Z"/></g><g class="n"><path d="M116,41v-12.3h1.7v12.3h-1.7Z"/><path d="M120.5,41v-9h1.6v1.7c.9-1.3,1.9-1.9,3.2-1.9s1.4,.2,1.9,.7c.5,.5,.7,1.2,.7,2v6.5h-1.6v-6c0-.7,0-1.2-.3-1.4-.2-.3-.5-.4-1-.4-1,0-2,.7-2.8,2v5.9h-1.6Z"/><path d="M133.1,41.2c-.7,0-1.7-.2-2.7-.5v-1.5c1.1,.5,2,.8,2.8,.8s.9-.1,1.2-.4,.5-.6,.5-1c0-.6-.4-1-1.3-1.4l-1-.4c-1.4-.6-2.1-1.4-2.1-2.5s.3-1.4,.8-1.9c.6-.5,1.3-.7,2.3-.7s1.1,0,1.9,.2h.3v1.4c-.9-.3-1.6-.4-2.2-.4-1.1,0-1.6,.4-1.6,1.1s.4,.9,1.2,1.2l.8,.3c.9,.4,1.5,.8,1.9,1.2,.4,.4,.6,.9,.6,1.6s-.3,1.4-.9,2c-.6,.5-1.4,.8-2.4,.8Z"/></g><g class="n"><path d="M233.7,39.3v-9.6h1.7v1.8c.8-1.3,1.9-2,3.3-2s2.2,.7,2.6,2c.8-1.3,1.9-2,3.2-2s1.5,.2,2,.7c.5,.5,.7,1.2,.7,2.1v7h-1.7v-6.7c0-1.1-.4-1.6-1.3-1.6s-1.8,.6-2.8,1.9v6.4h-1.7v-6.7c0-1.1-.4-1.6-1.3-1.6s-1.8,.6-2.8,1.9v6.4h-1.7Z"/><path d="M252.2,31v8.3h-1.7v-8.3h-1.4v-1.3h1.4v-1.1c0-2.3,1-3.4,3.1-3.4s1.2,0,2,.3v1.4c-.8-.2-1.4-.4-1.9-.4s-1,.1-1.2,.4c-.2,.3-.3,.8-.3,1.5v1.3h2.4v1.3h-2.4Z"/><path d="M256.3,28v-1.7h1.7v1.7h-1.7Zm0,11.3v-9.6h1.7v9.6h-1.7Z"/></g><g class="n"><path d="M94.6,74.8v-14.5h2.9l4,11.2,4.1-11.2h2.5v14.5h-1.9v-11.8l-4,10.8h-2l-3.9-10.9v11.8h-1.8Z"/><path d="M114.7,75.1c-1,0-1.7-.3-2.3-.8-.5-.6-.8-1.3-.8-2.3v-6.3h-1.3v-1.4h1.3v-1.9l1.9-.2v2.1h2.8v1.4h-2.8v5.9c0,1.4,.6,2.1,1.8,2.1s.6,0,.9-.1v1.3c-.6,.2-1.1,.2-1.5,.2Z"/></g><g class="n"><path d="M130.8,71.5v-10.9h1.5l5.5,8.4v-8.4h1.3v10.9h-1.5l-5.5-8.4v8.4h-1.3Z"/><path d="M143.9,71.7c-.7,0-1.5-.2-2.4-.5v-1.3c.9,.5,1.8,.7,2.5,.7s.8-.1,1-.3c.3-.2,.4-.5,.4-.8,0-.5-.4-.9-1.2-1.2l-.8-.4c-1.2-.5-1.9-1.3-1.9-2.2s.2-1.2,.7-1.6c.5-.4,1.2-.6,2-.6s1,0,1.7,.2h.3v1.3c-.8-.2-1.5-.4-1.9-.4-.9,0-1.4,.3-1.4,1s.4,.8,1.1,1.1l.7,.3c.8,.3,1.3,.7,1.7,1.1,.3,.4,.5,.8,.5,1.4s-.3,1.3-.8,1.7-1.3,.7-2.1,.7Z"/><path d="M149.9,71.5l-2.3-8h1.4l1.7,6.2,1.9-6.2h1.4l1.7,6.2,2-6.2h1.2l-2.6,8h-1.5l-1.7-6.2-1.9,6.2h-1.5Z"/></g><g class="n"><path d="M7.2,67.7l-1.3-3.4H.7l-1.4,3.4h-1.6l4.9-12.3h1.7l4.8,12.3h-1.9Zm-1.8-4.7l-2.1-5.3-2.1,5.3H5.4Z"/><path d="M11.1,67.7l-3.2-12.3h1.7l2.5,9.7,2.3-9.7h1.7l2.2,9.6,2.7-9.6h1.4l-3.5,12.3h-1.7l-2.2-9.5-2.3,9.5h-1.7Z"/></g><g class="n"><path d="M42.2,68.7v-10.9h2.1l3,8.4,3.1-8.4h1.9v10.9h-1.4v-8.8l-3,8.1h-1.5l-2.9-8.1v8.9h-1.3Z"/></g><g class="n"><path d="M129.1,94.5v-8h4.5v.8h-3.3v2.6h2.8v.8h-2.8v2.9h3.6v.8h-4.7Z"/><path d="M135.2,94.5v-8.5h1.1v8.5h-1.1Z"/><path d="M142.8,94.3c-.7,.2-1.3,.3-1.8,.3-.9,0-1.6-.3-2.1-.9-.5-.6-.8-1.3-.8-2.2s.2-1.6,.7-2.2c.5-.6,1.1-.9,1.8-.9s1.3,.3,1.6,.8c.4,.5,.6,1.2,.6,2.1v.3h-3.7c.2,1.4,.8,2.1,2,2.1s1-.1,1.6-.4v.8Zm-3.6-3.4h2.6c0-1.1-.4-1.6-1.2-1.6s-1.3,.5-1.4,1.6Z"/><path d="M144.7,94.5v-8.5h1.1v5.5l2.5-2.8h1.1l-2.4,2.7,2.9,3.1h-1.4l-2.8-3v3h-1.1Z"/><path d="M152.9,94.6c-.5,0-1-.2-1.3-.5s-.5-.7-.5-1.3v-3.4h-.7v-.8h.7v-1.1h1.1v1.1h1.5v.8h-1.5v3.2c0,.8,.3,1.1,1,1.1s.3,0,.5,0v.7c-.3,0-.6,.1-.9,.1Z"/><path d="M155.4,94.5v-5.9h1.1v1.1c.4-.8,1-1.2,1.8-1.2s.2,0,.3,0v1c-.2,0-.3,0-.5,0-.7,0-1.2,.4-1.7,1.2v3.9h-1.1Z"/><path d="M162.1,94.6c-.8,0-1.5-.3-2-.8s-.7-1.3-.7-2.2,.3-1.7,.8-2.2c.5-.5,1.2-.8,2-.8s1.5,.3,2,.8c.5,.5,.8,1.3,.8,2.2s-.3,1.7-.8,2.3c-.5,.5-1.2,.8-2.1,.8Zm0-.8c1.1,0,1.7-.8,1.7-2.3s-.6-2.2-1.7-2.2-1.7,.8-1.7,2.3,.5,2.3,1.6,2.3Z"/><path d="M166.6,94.5v-5.9h1.1v1.1c.5-.8,1.2-1.2,2-1.2s1.3,.4,1.6,1.2c.5-.8,1.2-1.2,2-1.2s.9,.2,1.2,.5c.3,.3,.4,.7,.4,1.3v4.3h-1.1v-4.1c0-.7-.3-1-.8-1s-1.1,.4-1.7,1.2v3.9h-1.1v-4.1c0-.7-.3-1-.8-1s-1.1,.4-1.7,1.2v3.9h-1.1Z"/><path d="M180,93.7c-.6,.6-1.2,.9-1.8,.9s-.9-.2-1.2-.5c-.3-.3-.5-.7-.5-1.2s.3-1.1,.8-1.5c.5-.3,1.3-.5,2.3-.5h.3v-.7c0-.7-.3-1-1-1s-1.2,.2-1.8,.5v-.9c.7-.3,1.4-.4,2-.4s1.1,.1,1.4,.4c.3,.3,.5,.8,.5,1.4v2.7c0,.6,.2,.9,.6,.9s.1,0,.2,0v.6c-.2,.1-.4,.2-.7,.2-.5,0-.8-.3-.9-.9Zm-.2-.6v-1.5h-.4c-.6,0-1.1,0-1.4,.3-.4,.2-.5,.5-.5,.9s0,.5,.3,.6c.2,.2,.4,.3,.7,.3,.4,0,.9-.2,1.4-.6Z"/><path d="M183.2,96.4v-.9c.7,.3,1.3,.4,1.9,.4,1.2,0,1.8-.6,1.8-1.9v-.9c-.4,.8-1,1.2-1.9,1.2s-1.3-.3-1.7-.8-.6-1.2-.6-2.1,.2-1.6,.7-2.2c.5-.6,1.1-.8,1.8-.8s1.2,.3,1.7,.8v-.7h1.1v4.3c0,.9,0,1.6-.1,2,0,.4-.3,.8-.5,1.1-.5,.5-1.2,.7-2.2,.7s-1.3-.1-2-.3Zm3.7-4v-2.4c-.5-.5-1-.7-1.5-.7s-.9,.2-1.1,.6c-.3,.4-.4,.9-.4,1.6,0,1.3,.5,1.9,1.4,1.9s1.2-.3,1.7-1Z"/><path d="M190.1,94.5v-5.9h1.1v1.1c.6-.8,1.2-1.2,2.1-1.2s.9,.2,1.2,.5c.3,.3,.5,.8,.5,1.3v4.2h-1.1v-3.9c0-.4,0-.7-.2-.9-.1-.2-.3-.3-.6-.3-.7,0-1.3,.4-1.8,1.3v3.8h-1.1Z"/><path d="M201.3,94.3c-.7,.2-1.3,.3-1.8,.3-.9,0-1.6-.3-2.1-.9-.5-.6-.8-1.3-.8-2.2s.2-1.6,.7-2.2c.5-.6,1.1-.9,1.8-.9s1.3,.3,1.6,.8c.4,.5,.6,1.2,.6,2.1v.3h-3.7c.2,1.4,.8,2.1,2,2.1s1-.1,1.6-.4v.8Zm-3.6-3.4h2.6c0-1.1-.4-1.6-1.2-1.6s-1.3,.5-1.4,1.6Z"/><path d="M205,94.6c-.5,0-1-.2-1.3-.5s-.5-.7-.5-1.3v-3.4h-.7v-.8h.7v-1.1h1.1v1.1h1.5v.8h-1.5v3.2c0,.8,.3,1.1,1,1.1s.3,0,.5,0v.7c-.3,0-.6,.1-.9,.1Z"/></g><g class="n"><path d="M193,118.6c-.9,0-1.6-.3-2.2-.9-.5-.6-.8-1.4-.8-2.4s.3-1.8,.8-2.4,1.3-.9,2.2-.9,1.7,.3,2.2,.9c.5,.6,.8,1.4,.8,2.4s-.3,1.9-.8,2.5-1.3,.9-2.3,.9Zm0-.9c1.2,0,1.8-.8,1.8-2.5s-.6-2.5-1.8-2.5-1.8,.8-1.8,2.5,.6,2.5,1.8,2.5Z"/></g><g class="n"><path d="M298.3,132.5v-47.9h26.7v5.1h-19.9v16h16.7v5h-16.7v21.7h-6.8Z"/><path d="M342.6,133.4c-2.9,0-6.4-.7-10.6-2v-5.9c4.2,2.1,7.8,3.1,10.9,3.1s3.4-.5,4.6-1.5c1.2-1,1.8-2.2,1.8-3.7,0-2.2-1.7-4-5.1-5.4l-3.7-1.6c-5.5-2.3-8.2-5.6-8.2-9.9s1.1-5.5,3.2-7.2c2.2-1.8,5.1-2.6,8.9-2.6s4.4,.3,7.3,.8l1.3,.3v5.3c-3.6-1.1-6.4-1.6-8.5-1.6-4.1,0-6.1,1.5-6.1,4.5s1.6,3.5,4.7,4.8l3.1,1.3c3.5,1.5,5.9,3,7.4,4.6,1.4,1.6,2.2,3.7,2.2,6.1s-1.2,5.6-3.7,7.6c-2.4,2-5.6,3-9.3,3Z"/><path d="M355.8,144.5v-5c3,1.2,5.2,1.9,6.8,1.9,2.2,0,3.7-.6,4.5-1.7,.7-1.2,1.1-3.5,1.1-7v-35.1h6.4v35.1c0,9-3.8,13.5-11.4,13.5s-4.7-.5-7.3-1.6Zm12.4-53.4v-6.4h6.4v6.4h-6.4Z"/></g><g class="l"><path class="f" d="M48.8,17c-.8,0-1.4-.6-1.4-1.4s.6-1.4,1.4-1.4H191.4c.8,0,1.4,.6,1.4,1.4s-.6,1.4-1.4,1.4H48.8Z"/><path class="f" d="M47.4,15.7c0-.8,.6-1.4,1.4-1.4s1.4,.6,1.4,1.4v31.7c0,.8-.6,1.4-1.4,1.4s-1.4-.6-1.4-1.4V15.7Z"/><path class="f" d="M47.4,79c0-.8,.6-1.4,1.4-1.4s1.4,.6,1.4,1.4v31.7c0,.8-.6,1.4-1.4,1.4s-1.4-.6-1.4-1.4v-31.7Z"/><path class="f" d="M48.8,112.1c-.8,0-1.4-.6-1.4-1.4s.6-1.4,1.4-1.4H191.4c.8,0,1.4,.6,1.4,1.4s-.6,1.4-1.4,1.4H48.8Z"/><path class="e" d="M104.7,19.7c-.8,0-1.4-.6-1.4-1.4s.6-1.4,1.4-1.4h86.7c.8,0,1.4,.6,1.4,1.4s-.6,1.4-1.4,1.4H104.7Z"/><path class="e" d="M104.3,108.7c-.8,0-1.4-.6-1.4-1.4s.6-1.4,1.4-1.4h88.8c.8,0,1.4,.6,1.4,1.4s-.6,1.4-1.4,1.4H104.3Z"/><path class="g" d="M106.6,111.4c-.7-.3-1-1.1-.7-1.8,.3-.7,1.1-1,1.8-.7,0,0-.2,0-.1,0,0,0-.4,0-.3,0,.1,0-.8,.1-.6,0,.1,0-.5,.3-.4,.2,.1,0-.4,.4-.3,.3,.2-.2-.2,.8-.2,.7,0-.2,0,.5,0,.4,0-.2,.1,.3,0,.3,0-.2,0,.1,0,.1l-.2-.4c-.1-.3-.3-1.1,.4-1.7,.6-.5,1.5-.4,1.9,.2,.5,.6,.4,1.5-.2,1.9-.1,.1,.4-.6,.4-.4,0,.1,.2-.6,.1-.4,0,.2,0-.6,0-.5,0,.2,0-.2,0-.2h0c0,.2,.3,.2,.2,1,0,.5-.9,1.2-1.3,1.2-.4,0-.5,0-.6-.1"/><path class="e" d="M102.6,79c0-.8,.6-1.4,1.4-1.4s1.4,.6,1.4,1.4v28.3c0,.8-.6,1.4-1.4,1.4s-1.4-.6-1.4-1.4v-28.3Z"/><path class="e" d="M103.3,18.3c0-.8,.6-1.4,1.4-1.4s1.4,.6,1.4,1.4v29c0,.8-.6,1.4-1.4,1.4s-1.4-.6-1.4-1.4V18.3Z"/></g><g class="k"><path d="M63.3,63.5c0-2.7-.7-5.3-2-7.5-2.6-4.4-7.4-7.4-12.9-7.4s-5.3,.7-7.5,2c-4.4,2.6-7.4,7.4-7.4,12.9s.7,5.3,2,7.5c2.6,4.4,7.4,7.4,12.9,7.4s5.3-.7,7.5-2c4.4-2.6,7.4-7.4,7.4-12.9m.8,0c0,5.8-3.1,10.9-7.8,13.6-2.3,1.4-5,2.1-7.9,2.1-5.8,0-10.9-3.1-13.6-7.8-1.4-2.3-2.1-5-2.1-7.9,0-5.8,3.1-10.9,7.8-13.6,2.3-1.4,5-2.1,7.9-2.1,5.8,0,10.9,3.1,13.6,7.8,1.4,2.3,2.1,5,2.1,7.9"/><path d="M41.6,63.1c0-.2,.2-.4,.4-.4,.2,0,.4,.2,.4,.4v.7h0s0-.2,0-.2h0c0,0-.2-.2-.1-.2h-.1c0,0-.2,0-.2,0h0l1.1-1.6,1.8-2.7,2-2.8,.9-1.1c.3-.3,.6-.5,1-.4,.2,0,.3,.2,.3,.3,0,.3,0,.4,0,.6l-.2,.6-.5,2.1v.8h.2c.6-.1,1.8-1.3,2.8-2,.4-.3,.6-.5,1-.6,.3,0,.7,0,.8,.3,.2,.5,0,.9-.1,1.4l-.5,1.4-.3,1.1c0,.2,0,.3,.1,.4,.2,.1,.2,.4,.1,.6s-.4,.2-.6,.1c-.4-.3-.5-.7-.5-1.1,0-.4,.2-.8,.3-1.3l.5-1.4,.2-.6v-.2h.1l-.7,.6c-.9,.7-2,2-3.2,2.2-.4,0-1,0-1.1-.5-.1-.4,0-.8,0-1.2l.6-2.2,.2-.6v-.2h0s0,.2,0,.2h.2c0,.1,0,.1,0,.1l-.3,.2-.9,1.1-2,2.7-1.8,2.7-1.1,1.6c0,0,0,.1-.2,.3-.2,0-.5,0-.5-.2-.2-.3,0-.3,0-.4v-.6Z"/><path d="M41.6,69.5c-.2,0-.4-.2-.4-.4s.2-.4,.4-.4h10.3c.2,0,.4,.2,.4,.4s-.2,.4-.4,.4h-10.3Z"/><path d="M49.2,47.3c0,.2-.2,.4-.4,.4s-.4-.2-.4-.4V15.7c0-.2,.2-.4,.4-.4s.4,.2,.4,.4v31.7Z"/><path d="M48.4,79c0-.2,.2-.4,.4-.4s.4,.2,.4,.4v31.7c0,.2-.2,.4-.4,.4s-.4-.2-.4-.4v-31.7Z"/><path d="M48.8,111.1c-.2,0-.4-.2-.4-.4s.2-.4,.4-.4H191.4c.2,0,.4,.2,.4,.4s-.2,.4-.4,.4H48.8Z"/><path d="M48.8,16.1c-.2,0-.4-.2-.4-.4s.2-.4,.4-.4H191.4c.2,0,.4,.2,.4,.4s-.2,.4-.4,.4H48.8Z"/><path d="M192.8,14.1c-.1,.2-.4,.3-.6,.2-.2-.1-.3-.4-.2-.6v-.2h0c0,0-.3,.7-.4,1.3,0,.7,0,1.4,.3,1.9,.2,.3,.7,.6,1.3,.6,.4,0,.7,0,1,0,.7-.1,1.4-.9,1.8-1.6,.2-.3,.2-.7,.2-.9,0-.3-.4-.6-1.1-.7-.7,0-1.7,0-2.6,.6-.2,.1-.4,0-.6-.2-.1-.2,0-.4,.2-.6,1.1-.6,2.2-.8,3.1-.7,.9,.1,1.7,.6,1.8,1.5,0,.4,0,.9-.3,1.4-.5,.8-1.3,1.8-2.3,2-.5,0-.9,0-1.2,0-.8,0-1.5-.4-1.9-1-.5-.7-.6-1.7-.5-2.5l.2-1c.1-.3,.2-.6,.6-.8,.3-.2,.8-.2,1,0,.3,.3,.3,.8,0,1.1"/><path d="M193.2,108.7c.2,.1,.3,.3,.2,.5-.1,.2-.3,.3-.5,.2h0c-.2,0-1.1,1.1-1.4,2.2-.1,.5-.1,.9,0,1.1,0,.1,.2,.3,.5,.3,.5,0,1.7-1.2,2.1-2.2,.1-.4,.2-.7,.1-.9,0-.2-.3-.4-.8-.5-.5,0-1.1,0-1.5,.2-.2,.1-.4,0-.6-.2-.1-.2,0-.4,.2-.6,.6-.3,1.3-.4,2-.3,.7,0,1.3,.4,1.5,1.1,0,.4,0,.9-.2,1.3-.3,.6-.7,1.3-1.2,1.8-.5,.5-1.1,1-1.7,.9-.5,0-1.1-.3-1.2-.8-.2-.5,0-1,0-1.6,.2-.7,.6-1.4,1-2,.2-.3,.4-.5,.7-.6,.2-.1,.6-.3,.9-.1"/><path d="M95.9,47.3c0-.2,.2-.4,.4-.4s.4,.2,.4,.4v31.7c0,.2-.2,.4-.4,.4s-.4-.2-.4-.4v-31.7Z"/><path d="M96.3,47.7c-.2,0-.4-.2-.4-.4s.2-.4,.4-.4h15.8c.2,0,.4,.2,.4,.4s-.2,.4-.4,.4h-15.8Z"/><path d="M111.8,47.3c0-.2,.2-.4,.4-.4s.4,.2,.4,.4v31.7c0,.2-.2,.4-.4,.4s-.4-.2-.4-.4v-31.7Z"/><path d="M96.3,79.4c-.2,0-.4-.2-.4-.4s.2-.4,.4-.4h15.8c.2,0,.4,.2,.4,.4s-.2,.4-.4,.4h-15.8Z"/><path d="M115.3,47.3c0-.2,.2-.4,.4-.4s.4,.2,.4,.4v31.7c0,.2-.2,.4-.4,.4s-.4-.2-.4-.4v-31.7Z"/><path d="M107.8,66.5c.2-.7,.9-1.2,1.6-1,.7,.2,1.2,.9,1,1.6h0l-.6,2.2c-.6,2-1.3,4.5-1.6,6.3v1.1h0c0,0-.2-.3,0-.2,0,.1-.5-.5-.3-.4,.1,.1-.8-.3-.6-.2,.2,0-.6,0-.5,0,.2,0-.5,.3-.4,.2,0,0-.2,.2-.2,.2,0,0,0,0,0,0l.5-1.4,.5-1.8,.6-2.4,.2-.7h0c0,0,0,0,0,0h0c0,0,0,.4,0,.3,0,0,.3,.7,.2,.5-.1-.2,1.6,.7,1,.7-.4,0,1.1-.4,.9-.2-.1,0,.3-.3,.3-.2,0,0,.2-.2,.1-.2,0,.1,0-.2,0-.2l-.2,.8-.6,2.2v1.3c-.1,0-.1-.2-.1,0,0,0-.1-.4,0-.3,0,.2-.6-.7-.4-.5,.2,.1-.7-.3-.5-.3,.2,0-.5,0-.4,0,.2,0-.4,.1-.4,0,.1,0-.2,0-.2,0v-.2c.2-.1,.2-.2,.4-.7v-.5h.1c0,0,0,.3,0,.2,0,0,.1,.4,0,.3,0-.1,.4,.6,.3,.4-.1-.2,.7,.4,.5,.3-.2,0,.7,0,.5,0-.3,0,.6-.2,.5-.1-.2,0,.3-.2,.3-.2-.1,.1,0-.1,0,0l-.4,.7c-.1,.2-.2,.4-.5,.8-.2,.2-.8,.6-1.5,.3-.7-.3-.8-.8-.9-1-.2-.7,.3-1.5,1-1.7,.7-.2,1.5,.3,1.7,1,0,0-.2-.5-.1-.3,0,0-.3-.3-.2-.2,.2,.2-1-.4-.7-.4,.3,0-.8,.1-.6,0,.1,0-.4,.2-.3,.2,.1,0-.2,.2-.2,.2,0,0,0,0,0,0l.5-1,.3-.4,.2-.2,.3-.2c.2-.1,1-.3,1.6,.3,.6,.6,.4,.9,.4,1.1,0,.5-.1,.8-.3,1.3-.1,.4-.2,1-.8,1.6l-.5,.5-.4,.3c-.2,.1-.8,.4-1.5-.1-.9-.7-.6-1.2-.6-1.4v-.5l.2-1.2,.6-2.4,.3-1.1v-.2l.4-.3c.1-.1,.3-.3,.7-.3,.4,0,.9,.1,1.2,.4,.8,.8,.4,.9,.4,1,0,.6-.1,.7-.2,1.2l-.7,2.5-.6,1.9c-.2,.8-.2,1.5-1,2.4-.2,.2-.4,.4-.9,.5-.8,.1-1.5-.6-1.6-.9-.1-.3-.2-.6-.2-.9,0-.4,0-1,.1-1.7,.4-2,1.1-4.6,1.7-6.6l.6-2.1h0Zm-.9-3c.3-.7,1.2-.9,1.8-.6,.7,.3,.9,1.2,.6,1.8,0,.1,0-.2,0-.2,0,.1,0,0,0,0l-.5,1.9-1.1,3.9c-.3,1.2-.6,2.4-.7,3.2v.9s-.1-.2,0-.1c0,0-.4-.5-.3-.4,.1,.1-.7-.3-.5-.3,.2,0-.6,0-.5,0,.2,0-.5,.2-.4,.2,0,0-.2,.2-.2,.1,.1-.1,.3-.8,.7-1.8l.8-2.3,.8-2.4,.3-.9c.2-.7,1-1.1,1.7-.9,.7,.2,1.1,1,.9,1.7l-.3,.9-.8,2.4-.9,2.4c-.4,1-.5,1.9-1.3,2.7-.3,.3-1.1,.8-1.9,.3-.7-.4-.8-1-.8-1.3,0-.5,0-1,0-1.7,.1-1,.4-2.2,.7-3.5l1.1-3.8,.5-1.9s-.1,.2,.1-.3m-4.7-11.4c0-.8,.6-1.4,1.4-1.4,.8,0,1.4,.6,1.4,1.4,0,.7,0,.4-.1,.7l-.3,1.1-1.1,3.2-1.3,4.2c-.5,1.7-.9,3.4-1.2,4.8v1.5c-.1,0-.2-.3-.2-.2,0,0-.5-.5-.3-.4,.1,.1-.7-.3-.5-.2,.1,0-.5,0-.4,0,.2,0-.4,.1-.4,.1,0,0-.1,0-.1,0,0,0,1.1-1.8,2-3.9l1.4-3.3,1.5-3.9,.8-2,2.5,1-.3,.8-.9,2.1-2,4.5c-.5,1.3-1.1,2.7-1.5,4-.4,1.1-.6,2.2-.8,3.1-.1,.7-.1,1.3,0,1.7h0c0,0-.1-.2,0-.1,0,.1-.7-.5-.5-.4,.2,.1-1,0-.8-.1,.1,0-.4,.2-.3,.1,.1,0-.2,.2-.2,.2,0,0,.5-.9,1-2.1,.5-1.3,1-2.9,1.6-4.6l1.6-5,.7-2,.6-1.8v-.3l.2-.2v-.2l.4-.3c.2-.2,1.1-.5,1.7,0,.5,.5,.4,.8,.4,1,0,.7,0,.5,0,.5l-.2,.4-.9,2-1.2,2.8-1.7,4.2c-.6,1.5-1.1,3.1-1.5,4.6l-.5,2.2-.2,1.4v.3h0s0-.2,0-.1c0,0-.2-.4-.1-.3,0,.1-.6-.6-.4-.4,.2,.1-1-.2-.7-.2,.2,0-.6,.2-.5,.1,.1,0-.3,.2-.2,.1,0,0-.1,.1-.1,.1l.8-1.7,1-2.5,1.1-2.9,1.4-3.8,1-2.6c.2-.6,.4-1,.6-1.4,0-.2,.2-.4,.7-.6,.5-.2,1.4,.1,1.7,.5,.6,.9,.2,1.1,.2,1.4-.2,.9-.6,1.9-1.1,3.1l-1.9,5.2-1,3.2-.8,3.1-.2,1v.2h0s-.1-.4,0-.3c0,0-.1-.2,0-.2,0,0-.3-.3-.2-.2,0,0-.5-.3-.4-.2,.3,.1-1,0-.8,0,.1,0-.4,.2-.3,.1,0,0-.2,.1-.1,.1h0c.2-.3,.7-1.6,1.2-3l1.3-3.5,1.7-4.7,.9-2.2c.2-.4,.2-.6,.5-1l.3-.3c.2-.1,.5-.3,1.1-.2,.5,.1,.8,.5,1,.8,.3,.7,.1,.8,.1,.9v.3c-.3,.8-.7,1.9-1.2,3.2-.7,2.1-1.5,4.4-2,6.3-.3,1.1-.3,2.1-.3,2.2,0,0-.2-.5-.1-.4,0,.1-.6-.5-.4-.4,.2,.1-.7-.2-.5-.2,.1,0-.5,0-.4,0,.2,0-.4,.1-.3,.1,.1,0,0,0,0,0,.5-.8,1.3-3,1.9-5l.7-2.3,.2-.8v-.2h0s0,.4,0,.2c0-.8,.6-1.4,1.4-1.4,.8,0,1.4,.6,1.4,1.4,0,.7,0,.3,0,.4l-.3,1.1-.7,2.3c-.6,2-1.2,4.3-2.2,5.8-.3,.4-.5,.8-1.1,1-.3,.1-.9,.3-1.4,0-.5-.3-.8-.8-.8-1.2-.1-.9,0-2,.3-3.2,.5-2.1,1.3-4.4,2.1-6.6l1.1-3.1h0c0,0,0,0,0,0,0,0,0,.2,0,.2,0,0,.1,.6,0,.4,0,0,.3,.4,.2,.3,0-.1,.6,.5,.4,.4-.2-.1,.8,.2,.6,.2-.2,0,.6,0,.5,0-.2,0,.6-.3,.5-.2-.2,.1,.3-.3,.2-.2,0,.1,0,0,0,0l-.2,.4-.8,2.2-1.7,4.8-1.3,3.5c-.5,1.4-.9,2.7-1.6,3.7-.2,.2-.3,.6-1,.8-.4,.1-1,0-1.3-.3-.3-.2-.4-.5-.5-.7-.4-1.1-.1-1.5,0-2.5l.8-3.3,1.1-3.3,1.9-5.2c.5-1.3,.9-2.3,1-2.7h0s0,.3,0,.2c0,0,0,.3,0,.2,0,0,.2,.4,.2,.3,0-.1,.5,.4,.3,.3-.1,0,.6,.2,.5,.2-.2,0,.6,0,.4,0-.2,0,.7-.2,.5-.2-.2,.1,.4-.3,.3-.3,0,0,.1-.2,.1-.1l-.4,.9-.9,2.5-1.4,3.8-1.1,3-1,2.6-.9,1.8c-.1,.2-.2,.5-.5,.7-.2,.1-.4,.4-1,.4-.6,0-1.1-.4-1.3-.7-.5-.9-.2-1-.2-1.5l.2-1.7,.5-2.4c.4-1.6,1-3.2,1.5-4.8l1.7-4.3,1.2-2.9,.9-1.9v-.2c0,0,0,.2,0,0,0,0,0,.4,0,.2,0,0,.2,.9,0,.6-.2-.4,2.3,.6,1.7,.8-.4,.2,.6-.5,.6-.4-.1,.1,.2-.2,.2-.2,0,.1,0-.1,0-.1v.2l-.7,1.8-.7,2-1.6,5c-.6,1.7-1.1,3.3-1.7,4.7l-.9,2c-.3,.5-.3,1.3-1.6,1.5-.7,.1-1.5-.5-1.7-.9-.2-.4-.2-.7-.2-.9,0-.6,0-1.5,.1-2.5,.2-1.1,.5-2.3,.9-3.5,.5-1.5,1-2.9,1.6-4.2l2-4.6,.9-2,.3-.8c.3-.7,1.1-1,1.8-.8,.7,.3,1,1.1,.8,1.8l-.8,2-1.5,4-1.4,3.4c-.9,2.1-1.6,3.9-2.8,4.9-.2,.2-.5,.4-1,.4-.8,0-1.5-.7-1.6-1.2-.1-.4-.1-.8-.1-1.2,0-.4,0-1,.2-1.7,.3-1.5,.8-3.3,1.3-5l1.4-4.3,1.1-3.2,.3-.9v-.2h0s0,.3,0,.2m-4.4-3.9c.4-.6,1.3-.8,1.9-.4,.6,.4,.8,1.3,.4,1.9-.1,.2,.2-.3,.1-.3h0l-.3,1.2v.7l-.2,.6h0c0,.1,0,0-.1,.4,0,0-.1,.2-.4,.4-.3,.2-1,.4-1.5,.1-.8-.4-.7-.8-.7-.9-.1-.5,0-.4,0-.4v-1.2c0-.2,.5,.8,.3,.6-.1-.2,.8,.4,.5,.4-.2,0,.6,0,.5,0-.2,0,.7-.2,.5-.1-.1,0,.4-.3,.3-.2,0,0,.1-.2,.1-.1v.5h-.1s0-.4,0-.3c0,0,0-.3,0-.2,0,0-.2-.4-.1-.3,0,.1-.4-.5-.3-.4,.1,.1-.7-.4-.5-.3,.2,0-.6,0-.5,0,.3,0-.7,.2-.6,.1,.2,0-.4,.3-.3,.2,.1-.1-.2,.2-.1,.2l.3-.5c.2-.4,.8-.8,1.6-.6,.7,.2,1,.8,1.1,1.2,.3,1.3-.2,2.2-.3,3.1l-.2,1.3v.5s0-.3,0-.1c0,0-.2-.5-.1-.3,0,.2-.7-.7-.5-.5,.2,.1-.9-.2-.7-.2,.2,0-.5,.1-.4,0,.2,0-.3,.2-.3,.1,.1,0,0,0,0,0l.3-.4c.3-.4,.6-1,.9-1.7l.6-1.1c.2-.2,.2-.9,1.5-.7,.7,0,1.1,.7,1.2,1,0,.3,0,.5,0,.6,0,1-.4,1.9-.6,3.1l-.4,1.8c-.2,1.1-.4,2.3-.5,3.3v1.2h0c0,0-.1-.2,0,0,0,0-.4-.4-.2-.3,0,0-.6-.3-.4-.2,.3,0-.9,0-.7,0,.2,0-.5,.2-.4,.2,.1,0-.1,.1-.1,.1l.6-1.1,1.2-2.9,.7-1.8,.9-2.4c.3-.7,.2-.9,.7-1.6,.5-.6,1.3-.7,1.9-.3,.6,.5,.7,1.3,.3,1.9,0,.1,0-.2,0-.1l-.5,1.1-.9,2.3-.7,1.8-1.3,3c-.3,.7-.4,1.4-1.3,2.1-.2,.2-.6,.4-1.1,.3-.8,0-1.2-.7-1.3-1-.1-.3-.1-.6-.2-.8v-1.6c.2-1.1,.3-2.3,.6-3.6l.4-1.9,.6-2.5h0s0,.3,0,.2c0,0,.2,.4,.1,.3,0-.1,.5,.5,.3,.4-.1-.1,.7,.3,.5,.2-.2,0,.6,0,.4,0-.2,0,.5-.2,.4-.2-.1,0,.2-.2,.2-.2h0l-.4,.7c-.3,.6-.6,1.3-1.1,2l-.5,.7-.4,.3-.4,.2c-.2,0-.7,.2-1.2-.1-.5-.3-.7-.8-.7-1-.1-.6,0-.8,0-1l.2-1.5,.3-1.5v-.5c0-.1,.1,0,0,0,0,0,.3,.6,.2,.4-.1-.1,.7,.5,.5,.4-.2,0,.7,.1,.5,.1-.3,0,.8-.3,.7-.2-.2,.1,.4-.4,.3-.3,0,0,0,.2-.3,.6,0,0,0,0-.4,.3-.2,.1-.8,.5-1.5,0-.6-.4-.6-.9-.6-1,0-.8,0-.5,0-.6,0-.3,0-.8,.7-1.5,.3-.3,.7-.6,1.3-.5,.6,.1,1.1,.7,1.2,1.2,.1,.6,0,.9,0,1.2v.5h0s0-.3,0-.2c0,0-.2-.4,0-.3,0,0-.3-.4-.2-.3,0,.1-.7-.5-.5-.4,.2,.1-1.1,0-.8-.1,.3,0-.7,.3-.6,.2,.1,0-.3,.3-.2,.2,0-.1-.2,.3-.2,.3,0-.2-.1,.3,0,.2h0v-.6l.2-.7,.3-1.5s0,0,.2-.4m4,7c0,.8-.6,1.4-1.4,1.4-.8,0-1.4-.6-1.4-1.4,0-.9,0-.5,.1-.5h0l.4-.9,.5-1.2,.3-1.1v-.3s.1,.4,0,.3c0-.1,.4,.6,.2,.4,0,0,.4,.3,.3,.3-.1,0,.6,.2,.4,.2-.3,0,.9,0,.7,0-.1,0,.4-.2,.3-.1-.1,0,.2-.2,.2-.1l-.6,1-.9,1.7-.2,.6c0,.2,0,.3-.4,.6,0,0-.2,.2-.5,.3-.5,.2-1.6-.3-1.7-.8-.1-.4,0-.6,0-.7,0-.7,.3-1,.5-1.4,.2-.6,.3-1.2,.4-1.8v-.6c0,0,.2,.3,.1,.2,0,0,.3,.4,.2,.3,0,0,.5,.4,.3,.3-.1,0,.6,.2,.4,.2-.2,0,.8,0,.6,0-.2,0,.5-.3,.4-.2,0,0,.2-.2,.2-.2l-.3,1-.3,.8v.5h-.2s0-.1,0,0h0c0,0,0-.4,0-.3,0,0-.2-.6-.1-.4,0,.2-1.1-.8-.7-.6,.4,.1-1.2,0-1,0,.2,0-.5,.3-.4,.2,.1-.1-.3,.3-.2,.2,.1-.1-.1,.3-.1,.2l.3-.9,.3-1.4v-.6h.1c0-.1,0,.3,0,.2,0,0,0,0,0,0,0,0,.2,.2,0,.2,0,0,.4,.4,.3,.3-.1,0,.6,.2,.4,.2-.3,0,.8,0,.7,0-.1,0,.4-.2,.3-.1-.1,0,.2-.2,.2-.1-.1,.1,0,.1-.1,.3l-.4,.8c-.2,.3-.7,.7-1.4,.6-.7,0-1.1-.7-1.2-1-.2-.8,0-1.1,0-1.6v-.7h0c0,0,0,.7,0,.5-.2-.7,.3-1.5,1-1.6,.7-.2,1.5,.3,1.6,1,.2,.6,0,.4,0,.5v1.2h-.1c0,.1,0-.1,0,0,0,.1-.4-.6-.3-.5,.1,.1-.8-.4-.5-.3,.2,0-.7,0-.5,0,.3,0-.7,.3-.6,.2,.1,0-.3,.4-.3,.3h0l.5-1,.3-.4,.4-.3c.2-.1,.8-.3,1.4,.1,.6,.4,.6,.8,.7,1,.3,.9,0,1.2,0,1.6l-.4,1.7-.4,1.2v.2c-.2,0-.3,.2-.6,.4-.4,.2-1.4,0-1.7-.4-.5-.7-.3-.8-.3-.9,0-.7,.1-.7,.3-1.1l.3-.9c.2-.5,0-1.2,1-2,.4-.3,1.5-.4,2,0,.4,.4,.5,.8,.5,1.2,0,.4,0,.8-.1,1.2-.1,.6-.3,1.4-.5,2.2l-.3,.7v.2c0,0,0-.5,0-.3,0,0,0-.4,0-.3,0,.1-.3-.5-.2-.4,.1,.1-.7-.5-.5-.4,.2,0-.8-.2-.6-.2,.2,0-.5,0-.4,0,.2,0-.5,.3-.4,.2,.1-.1-.3,.3-.2,.2,.1-.1-.1,.2-.1,.2l.3-.7,1-1.8,.6-.9,.3-.5c.2-.2,.4-.8,1.5-.5,.6,.1,1,.7,1.1,1,.2,.7,0,.9,0,1.2,0,.5-.2,1-.4,1.6l-.6,1.5-.4,.9h0v-.2c0,0,0-.5,0-.3m3.5-3.4c.5,.5,.6,1.4,0,1.9s-1.4,.6-1.9,0c0,0,.5,.3,.3,.2-.3-.1,.9,0,.7,0-.2,0,.3-.2,.3-.1-.1,0,0,0-.2,.3l-.6,1-1,1.9-.6,1.5h0c0,0,0-.5,0-.3,0,0-.3-.6-.2-.4,0,0-.5-.5-.3-.3,.2,.1-.9-.3-.7-.3,.3,0-.9,.2-.7,0,.2,0-.5,.3-.4,.2,.2-.1-.3,.4-.3,.3,0-.1-.1,.3-.1,.2,0-.1,0,0,0,0l.2-.5,.9-2.4,.3-1.1,.3-.9v-.3c0,0,0,.2,0,.1,0,0,0,.5,0,.3,0,0,.2,.4,.1,.3,0-.1,.5,.6,.4,.4-.2-.2,1,.3,.7,.3-.2,0,.8-.1,.6,0-.1,0,.4-.2,.3-.2-.1,0,.3-.3,.3-.2,0,0,.2-.2,.1-.2,0,0,0,0,0,0l-.4,1-.7,1.7-.4,.9v.3c-.1,0,0-.2,0,0h0s0-.1,0,0c0,0,0-.4,0-.2,0,0-.3-.5-.2-.3,0,.1-.4-.4-.3-.3,.2,.1-.9-.3-.7-.3,.2,0-.6,0-.5,0,.2,0-.5,.3-.4,.2,.1,0-.1,.1-.1,.1l.5-.8,1.3-2,1-1.7,.4-.7h0c0,0,0,.1,0,0,0,0,0,.5,0,.3,0,0,0,.4,0,.3,0-.1,.3,.6,.2,.4,0-.2,.6,.6,.4,.5-.2-.1,.7,.2,.6,.2-.2,0,.5,0,.4,0-.2,0,.5-.2,.4-.1-.1,0,.3-.2,.2-.1,0,0,.1-.1,0,0-.1,.1,0-.1,0,0l-.7,1.1-1.5,2.3-.6,.8c-.1,.1-.2,.3-.8,.5-.4,.1-1.2,0-1.5-.5-.3-.4-.3-.7-.3-.9,0-1,.4-1.4,.6-2,.4-1.1,.7-2.4,.9-3.2v-.3s0,.2,0,.1c0,0,.1,.3,0,.2,0,0,.3,.4,.2,.3-.2-.2,.9,.4,.7,.4-.3,0,.8,0,.7,0-.2,0,.4-.2,.3-.2,0,0,0,0,0,0l-.7,1.2-1,2-.4,.9h0v.2s.4-.2-.4,.4c-.6,.5-1.5,.4-1.9-.2-.5-.6-.4-1.5,.2-1.9,.2-.1-.3,.3-.2,.2,.1-.1-.1,.2-.1,.2h0l.4-.9,1.1-2.1,.6-1.1c.2-.4,.3-.8,1.2-1.1,.5-.2,1.4,.1,1.7,.6,.7,1,.3,1.3,.2,1.8-.2,1-.5,2.4-1,3.6l-.4,.9v.3c-.1,0,0-.2,0,0,0,0,0-.4,0-.2,0,.1-.3-.6-.2-.4,.1,.2-.7-.6-.5-.5,.2,.1-.8-.2-.6-.2,.2,0-.5,0-.4,0,.2,0-.4,.2-.3,.1,0,0-.2,.1-.2,.1h0l.4-.5,1.5-2.2c.4-.6,.4-.9,1-1.5,0,0,.1-.2,.5-.3,.2,0,.6-.2,1.1,0,.9,.5,.7,1.2,.7,1.4,0,.8-.2,.6-.3,.8l-.4,.7-1.1,1.8-1.3,2-.5,.8c-.2,.3-.2,.6-1,.9-.3,0-.9,0-1.3-.3-.6-.5-.5-.9-.5-1v-.3c0-.9,.4-1.3,.6-2l.7-1.8,.5-1.1c0,0,0,0,.3-.4,.1-.1,.3-.4,1-.4,.6,0,1,.5,1.2,.8,.3,.6,.1,.7,.1,.8,0,.6-.2,1-.4,1.6l-.4,1.2-.9,2.4v.3h-.1v.4l-.4,.3c-.2,.2-1.3,.5-1.8,.1-.5-.4-.4-.6-.5-.7-.2-.8,0-.9,.1-1.2l.7-1.8,1.1-2.1c.3-.6,.7-1.2,1.1-1.7,.2-.2,.4-.5,.8-.7,.4-.2,1.4-.2,1.9,.2"/><path d="M97.7,57.6c-.8,0-1.4-.6-1.4-1.3,0-.8,.6-1.4,1.3-1.4h0s-.2,0-.1,0c0,0-.3,.2-.2,.1,0,0-.4,.5-.3,.3,0,0-.2,.4-.1,.3,0-.1-.1,.6-.1,.4,0-.2,.1,.8,0,.6,0-.2,.4,.6,.3,.5-.1-.1,.5,.3,.4,.3-.2-.1,.7,.2,.5,.1-.2,0,.5,0,.4,0,0,0,.3-.1,.2,0-.2,0,.3-.2,.3-.2h0c0,0,.2-.2,.1-.2,0,0,0-.1,0-.1,0,.3,0,1.6,0,2.9,0,1.5,0,2.6,.2,3.6,.2,.8,.3,1.7,.3,2.5v1.5c-.3,1.2-.4,2.7-.2,4,0,.7,.3,1.6,.4,2.6v3.1h0c0,.2-.2-.2-.2-.1,0,0-.5-.3-.4-.2,.1,0-.4,0-.3,0,.1,0,0,0,.1,0,0,0-.1,0,0,0l.4-.2c.9-.5,1.7-.5,2.4-.6l1-.2c.5,0,1-.3,1.8-.3,.4,0,1,0,1.5,0,.5,0,.8,.2,.9,.2h1s-.2,0-.1,0c0,0-.3,.1-.2,0,.1,0-.5,.4-.4,.3,.1-.1-.3,.5-.3,.4,.1-.3,0,.8-.1,.6,0-.1,0,.4,0,.3,0-.1,.1,.3,.1,.2,0-.1,0,0,0,0h0c0-.1-1.2-.5-2.4-.6l-1.9-.3-.9-.2s.3,0,.2,0c0,0,.4-.2,.3-.1-.1,0,.4-.5,.3-.4,0,.2,0-.6,0-.5,0,.1,0-.2,0-.2h0c0,.1-.1,0,0,0,.3,0,1.2,0,2.2,0h3.1c.7-.2,1.5,.3,1.6,1,.1,.7-.4,1.5-1.1,1.6-.7,.1-.5,0-.5,0h-1.1c-.7,0-1.5,.3-2.5,.3h-1.5s.3-.1,.2,0c0,0,.5-.5,.4-.3,0,.1,.2-.5,.2-.4,0,.2,0-.8,0-.6,0,.1-.1-.4,0-.3,0,.1-.2-.2-.1-.2,0,0,0,0,0,0,.5,.2,1.5,.2,2.5,.1h1.2l1.1-.3h.8c.1,0,.3-.1,.7,.3,.3,.2,.5,.7,.5,1.2,0,.4-.2,.7-.3,.8-.5,.6-1.4,.6-1.9,.1-.6-.5-.6-1.4-.1-1.9,0,0-.3,.4-.2,.3,0-.1-.2,.7-.2,.5,0-.2,.2,.9,.1,.7,0-.2,.5,.6,.3,.5-.1,0,.4,.2,.3,.2-.2,0,.4,.1,.3,.1-.1,0,.3,0,.2,0l-1.2,.2-1.6,.2c-1.1,0-2.4,.2-3.6-.3-.4-.1-.7-.3-1-.6-.1-.1-.3-.3-.4-.6-.1-.3-.2-.9,.2-1.5,.6-.8,1.1-.6,1.3-.7h1.6c.6,0,1.5-.3,2.4-.4h1.7c0,0-.4,0-.3,0l.5,2.7h-5.5c-.7,0-1.5,0-2.2-.7-.5-.5-1.1-1.1-.6-2.4,.5-1,1.5-1.1,2.1-1l1.1,.2,1.7,.3c1.3,.2,2.6,.2,3.7,1.1l.4,.4,.2,.3,.2,.4c0,.2,.1,.8-.3,1.3-.5,.6-.9,.4-1,.5h-1c-.1,0-.4,0-.8,0l-.6-.2h-1l-1.5,.3-1.1,.2-1.5,.3c0,0-.4,.4-1.1,.5-.2,0-.6,.3-1.4,0-.9-.4-1-1.2-1.1-1.3v-3.8c-.2-.6-.4-1.5-.5-2.4-.2-1.6-.1-3.3,.1-4.8v-1.1c0-.7,0-1.3-.1-1.9-.3-1.3-.3-2.7-.3-4.2v-2.1c-.1-.7-.4-1.4,.4-2.3,.1-.1,.2-.3,.7-.5,.1,0,.3-.2,.7-.1,.4,0,1.2,.7,1.2,1.3,0,1-.4,1-.6,1.2-.4,.3-.8,.3-1.2,.3"/><path d="M108,76.1c0-.8,.6-1.4,1.4-1.4s1.4,.6,1.4,1.4v.8c0,.8-.6,1.4-1.4,1.4s-1.4-.6-1.4-1.4v-2.3c0-2.1,0-4.1,.3-6.3l.6-5.1c.1-.8,.2-1.5,.2-2.3v-2.5c0,0,.1,.2,.1,.1,0,0,.2,.4,0,.2,0,0,.2,.3,.1,.2,0,0,.3,.3,.2,.2-.1,0,.6,.3,.4,.2-.2,0,.7,0,.5,0-.2,0,.6-.2,.4-.1-.2,0,.5-.4,.4-.3-.1,.1,.3-.4,.2-.3,0,0,0-.2,0-.2,0,.2,0-.2,0,0v.4l-.4,4.5-.4,3.3-.3,2.6c-.2,1.3-.4,2.4-.4,3.5,0,.5,.1,1.1,.3,1.9l.2,1.4v1h0s0-.2,0-.2c0,0-.3-.4-.2-.3,.2,.2-.9-.5-.6-.4,.2,0-.7,0-.6,0,.3,0-.6,.2-.5,.2,.1,0-.3,.2-.2,.2,.1-.1,0,0,0,0,.4-.9,.4-2.7,.4-4.3,0-.8,0-1.7,0-2.6,0-.9,.3-1.3,.3-1.8v-.8c0-.6-.4-1.2-.5-2.4,0-1,0-2.1,0-2.9,0-1.7-.3-3.6-.7-5.4-.2-1.1-.2-2-.2-2.9v-2.4c-.1,0,0,.2,0,.1,0,0,.2,.2,.1,.1,0,0,.4,.2,.2,.2-.1,0,.6,.2,.5,.1-.2,0,.8-.2,.6,0-.2,0,.6-.4,.5-.3-.1,.1,.3-.4,.2-.3,0,.2,.2-.5,.1-.4,0,.1,0-.3,0-.3,0,0,0-.1,0-.1,.1,.7-.4,1.4-1.1,1.6s-1.4-.4-1.6-1.1c0-.1-.2-.3,.1-.9,.2-.3,.7-.7,1.2-.7,.8,0,1,.3,1.1,.5,.6,.7,.7,1.2,.7,2v2.1c0,1,0,1.7,.1,2.4,.3,1.8,.7,3.8,.7,5.9,0,1,0,2,0,2.7,0,.6,.4,1.3,.5,2.4v1.3c0,.9-.3,1.4-.3,1.8v2.4c0,1.6,.2,3.6-.7,5.5l-.4,.6-.2,.3-.3,.2c0,0-.2,.1-.5,.2-.3,0-.9,0-1.2-.5-.8-1-.4-1.1-.4-1.3v-.6l-.2-1.1c-.2-.7-.4-1.5-.4-2.6,0-1.3,.3-2.5,.4-3.7l.3-2.6,.4-3.2,.4-4.4c0-.2,0-.4,.1-1l.2-.3c.1-.2,.4-.5,1-.6,.6,0,1,.3,1.2,.5,.5,.6,.3,.7,.3,.8v2.9c0,.9-.1,1.7-.3,2.6l-.6,5.1c-.2,2-.3,3.9-.3,6v2.3c0,.8-.6,1.4-1.4,1.4s-1.4-.6-1.4-1.4v-.8Z"/><path d="M102.3,51.6c-.7,0-1.3-.8-1.2-1.5,0-.7,.8-1.3,1.5-1.2,.2,0,0,0,0,0h1.7c1.4,0,2.9,.3,4.1,.4h2l.3,.2c0,0,.3-.2,.8,.5,.4,.4,.2,1.5,0,1.8-.2,.3-.4,.3-.5,.3-1,.4-1.5,.2-2.4,.4-1,.2-2.1,.6-2.9,1l-.7,.4h0s0-.3,0-.2c0,.1-.1-.8,0-.6,0,.2-.6-.7-.4-.6,.1,0-.3-.1-.3-.1h.2c.2,0,.9-.5,1.5-1l.8-.6c.2-.1,.4-.3,1-.4,.4,0,1.4,.3,1.6,.9,.2,.6,0,.8,0,1.1-.2,.8-.6,1.1-.9,1.6-.3,.5-.6,1.3-.8,2.1-.2,.7-.3,1.5-.4,2.3v1.7s0-.1,0,0c0,0-.3-.4-.2-.3,.1,.2-.7-.4-.5-.4,.1,0-.4,0-.3,0,.1,0-.3,0-.3,0,0,0-.2,0-.1,0,.1,0-.2,.2-.2,.2l.3-.7c.4-1,.5-2.4,.4-3,0-.2,.2,0,0,0-.2-.1,.5,0,.4,0-.2,0,.6-.4,.5-.3-.1,.1,0-.1,0,0v.4c-.2,.7-.3,1.5-.2,2.1,0,.3,.1,.4,.2,.5,0,0-.4-.1-.3-.1,0,0-.2,0-.1,0,.2,0,0,0,.2-.3l.6-1c.2-.4,.3-.9,.4-1.3v-.4s0,0,0,0c0,0,.1,.5,0,.3-.1-.3,.7,.7,.5,.6-.1,0,.4,.2,.3,.1-.2,0,.5,0,.4,0,0,0,.2-.1,.2,0h0l-.4,.8c-.3,.5-.6,1.1-.7,1.5h0c0,0,0-.1,0,0,0,0-.2-.4-.1-.3,.1,.2-.8-.5-.6-.5,.2,0-.5,0-.4,0,.1,0-.1,0,0,0,.2-.1,.8-.6,1.5-1.6,.5-.6,1.3-.7,1.9-.3,.6,.5,.7,1.3,.3,1.9-.8,1-1.5,1.7-2.2,2.2-.3,.2-.7,.4-1.2,.4-.6,0-1.4-.5-1.6-1.2-.1-.5-.1-.9,0-1.4,.2-.7,.5-1.5,1-2.2,.3-.6,.4-1.4,1.7-1.9,.3-.1,.6-.2,.9-.1,.4,0,1,.3,1.3,1,.3,.8,0,1.1,0,1.2,0,.6-.2,1.5-.6,2.3-.5,1.1-1.1,2.3-2.7,2.7-.5,.1-1.3,0-1.8-.3-.8-.5-1.1-1.4-1.3-2.2-.2-1.1,0-2.1,0-3,0-.4,.1-.8,.3-1.2,.2-.4,.6-1,1.4-1.2,.5,0,1.1,0,1.6,.3,.7,.4,1,1.2,1.2,1.9,.3,1.4,0,3-.5,4.4-.2,.5-.2,1.3-1.2,1.9-.3,.2-.6,.3-1,.3-.4,0-1.1-.1-1.4-.6-.6-.7-.4-1.1-.4-1.5,0-.5,0-1.1,0-1.8,0-.8,.2-1.9,.5-2.9,.3-.9,.6-1.8,1.1-2.6l.7-1.1s0,.2,0,.1c0,0,0,.6,0,.4,0,0,.2,.4,.1,.3-.1-.2,.8,.6,.6,.5-.2,0,.6,.1,.5,.1-.2,0,.4,0,.4,0h0l-.7,.5c-.7,.5-1.5,1.2-2.6,1.4-.5,0-1,.3-1.9-.2-.6-.3-.9-1.1-.8-1.7,0-.5,.3-.9,.6-1.2,.4-.4,.8-.7,1.4-1,1-.5,2.3-1,3.6-1.2l1.5-.2h.5c0,0-.3,0-.1,0,0,0-.2,.1-.2,0,0,0-.4,.3-.3,.2,0,0-.3,.4-.2,.3,0-.1-.2,.6-.2,.4,0-.2,0,.7,0,.5,0-.2,.2,.6,.2,.4-.1-.2,.5,.5,.4,.4-.2-.1,.4,.2,.4,.2-.1,0,.2,0,.2,0h-2.1c-1.3-.3-2.8-.5-4-.5h-1.8s0,0-.1,0m-1.3-5c.6-.4,1.5-.3,1.9,.3,.4,.6,.3,1.5-.3,1.9-.8,.6-1.2,.4-1.4,.4-.2,0,.6-.5,.5-.3,0,0,.2-.6,.1-.4,0,0,0-.5,0-.3,0,.1-.2-.6-.1-.4,.1,.2-.6-.5-.4-.4,.1,0-.3-.1-.2-.1,.2,0-.1,0,0,0h.4l4.6,.3h2.7c.1,0,.3,0,.7,0,.2,0,.4,0,.8,.4,.2,.2,.5,.7,.4,1.1,0,.4-.2,.7-.3,.8-.7,.8-1.1,.7-1.4,.8-.5,.2-1,.4-1.7,.6-1,.2-2.1,.3-3,.4h-1.6s.3,0,0,0c-.8,0-1.4-.5-1.5-1.3,0-.8,.5-1.4,1.3-1.5h1.5c.8,0,1.8-.2,2.5-.4l1.4-.4,.5-.2h0s-.2,.3-.2,.2c0,0-.2,.4-.2,.3,0-.1-.2,.6-.1,.4,0-.2,0,.7,0,.5,0-.3,.5,.8,.4,.7-.1,0,.4,.2,.3,.2-.1,0,.3,.1,.2,0,0,0,.1,0,.1,0-.1,0,.1,0,0,0h-3.1l-4.6-.3h-.6c-.3,0-.8,.2-1.4-.8-.4-.7-.2-1.3,0-1.7,.3-.4,.7-.7,1.2-.8h.7c0-.1-.4,0-.2,0"/><path d="M111.6,50.4c0,.8-.6,1.4-1.4,1.4s-1.4-.6-1.4-1.4v-1.6h0s0,.3,0,.2c0-.3,.7,.8,.5,.6-.2-.1,.6,.2,.4,.2-.2,0,.7,0,.5,0-.1,0,.6-.3,.4-.2-.2,.1,.4-.4,.3-.3-.1,.2,.1-.3,.1-.3v1.5l-.2,3v1.7s0-.2,0,0c0,0-.1-.3,0-.2,0,.1-.5-.5-.3-.4,.2,.1-.8-.3-.6-.3,.2,0-.5,0-.4,0,.2,0-.5,.2-.4,.1,.2-.1-.3,.3-.3,.2,0-.1,0,.2,0,.2v-.9l.2-1.7v-1.4h0c0-.1,0,.1,0,0,0,0,.2,.3,0,.2,0,0,.3,.3,.2,.2,0,0,.5,.3,.3,.2-.1,0,.6,.2,.4,.1-.2,0,.9-.2,.7,0-.2,0,.5-.4,.4-.3-.2,.2,.3-.5,.3-.4,0,.1,0-.2,0-.2v.8l-.2,2.6v2.5c0,0,0-.1,0,0,0,0-.2-.4,0-.3,0,.1-.3-.4-.2-.3,.2,.2-.9-.4-.7-.4,.2,0-.7,0-.5,0,.2,0-.6,.3-.5,.2,.1,0-.3,.3-.2,.2,0-.1,0,.2,0,.2l.2-.8,.4-2v-.6h.1c0-.1,0,.3,0,.1,0,0,.1,.3,0,.2,0,0,.2,.3,.1,.2,0,0,.5,.5,.3,.3-.2-.1,.8,.3,.6,.2-.2,0,.7,0,.6,0-.3,0,.6-.4,.5-.3-.1,.1,.2-.3,.2-.2h0l-.3,.9c-.3,.9-.6,1.9-.7,2.7-.1,.8,0,1.2,0,1.2,.4,.6,.2,1.5-.4,1.9-.6,.4-1.5,.2-1.9-.4-.6-1-.5-2.1-.4-3.1,.2-1,.5-2.1,.8-3.1,.2-.5,.3-1,.6-1.5l.2-.2c0-.1,.2-.3,.6-.4,.4-.1,.9,0,1.2,.2,.8,.5,.5,.8,.5,.8,.2,1,0,1.1-.1,1.6l-.5,2.1c-.1,.4,0,.9-.6,1.7-.2,.3-.6,.6-1.2,.6-.7,0-1.3-.7-1.4-1.2,0-.5,0-.6,0-.8v-2.2l.2-2.7v-.7c0-.3-.2-.6,.5-1.3,.3-.3,1.2-.5,1.6-.2,.7,.4,.6,.7,.6,.8,.1,.3,0,.5,.1,.8v3.4c-.1,.5,0,1.1-.5,2-.2,.2-.3,.4-.6,.6-.3,.2-1,.6-1.8,0-.7-.6-.5-.9-.5-1.1v-6.3l.2-.6c0-.2,0-.6,.6-1.1,.3-.2,.6-.3,1-.3,.4,0,1,.4,1.2,1,.4,1,0,1.2,0,1.5v.8Z"/><path d="M103.6,79c0-.2,.2-.4,.4-.4s.4,.2,.4,.4v31.7c0,.2-.2,.4-.4,.4s-.4-.2-.4-.4v-31.7Z"/><path d="M104.2,15.7c0-.2,.2-.4,.4-.4s.4,.2,.4,.4v31.7c0,.2-.2,.4-.4,.4s-.4-.2-.4-.4V15.7Z"/><path d="M104.9,109.8c.1,.2,0,.4-.2,.6-.2,.1-.4,0-.6-.2h0c0,0-.3,0-.5,0l-.2,.2-.2,.6v.8h0c0,0,.5-.7,.6-1.3v-.4s0-.2-.3-.2c-.2,0-.5-.1-.7,0-.2,0-.5,.5-.5,.9v.3h0s.2,.1,.5,.2c.5,0,1.2-.5,1.4-1v-.5h-.2c-.4,.2-.9,.9-1.1,1.4-.1,.2-.1,.4-.1,.5h0l.6-.2c.3-.1,.6-.4,.8-.7l.2-.3h0c0,0,.2,0,.1,0-.2,0-.7,.8-.7,.8,.1,.2,0,.4,0,.6-.2,.1-.4,0-.6,0-.2-.3-.2-.6,0-.9,.1-.4,.4-.7,.7-.9l.4-.3c.2,0,.4-.2,.6,0,.3,.2,.3,.6,.2,.9,0,.3-.2,.4-.4,.6-.2,.3-.6,.8-1.1,1-.3,.1-.6,.3-1.1,.3-.4,0-.7-.4-.8-.7,0-.3,0-.7,.2-1,.2-.4,.5-.9,.9-1.2,.4-.4,.8-.7,1.4-.5,.4,.1,.7,.4,.8,.9,0,.3,0,.5-.2,.7-.4,.8-1.2,1.6-2.2,1.5-.4,0-.8,0-1.1-.5-.2-.3-.1-.7,0-.9,0-.3,.1-.7,.3-1,.2-.3,.5-.6,.9-.7,.3,0,.7,0,1.1,.1,.3,.1,.7,.4,.8,.8,0,.3,0,.5,0,.7,0,.4-.2,.9-.4,1.3-.2,.4-.5,.8-1.1,.8-.4,0-.7-.3-.8-.8,0-.3,0-.7,0-1.1,0-.3,.1-.6,.3-.9,.1-.3,.4-.6,.8-.6,.5,0,1,0,1.3,.5"/><path d="M105.7,15.3c0,.2-.3,.3-.5,.2-.2,0-.3-.3-.2-.5h0v.2h.2l-.3,.2v.6c0,.2,.4,.3,.7,.3,.2,0,.6-.4,.7-.8,0-.1,0-.2,0-.2,0,0-.2-.1-.4-.1-.3,0-.6,.1-.8,.4-.1,.1-.2,.4-.2,.6,0,.2,0,.4,.2,.5,0,0,.3,0,.5,0,.2,0,.5-.4,.5-.6h0l-.4,.4c-.2,.2-.4,.5-.4,.6,0,0,0-.2,0-.1h0c0,0-.2,0-.2,0h-.1c0,0-.1,0-.1,0h0l.2-.3v-.3s-.3-.2-.4,.3c0,.2-.2,.4-.4,.4-.2,0-.4-.2-.4-.4,0-.6,.5-1,1-1,.4,0,1,.2,1,.7,0,.2,0,.5-.1,.8l-.2,.4v.2h-.2c0,.1-.2,.2-.4,.1l-.2-.2c0,0-.2-.3-.2-.5,0-.4,.3-.8,.7-1.1,.3-.2,.6-.5,1-.4,.4,0,.8,.4,.7,.9,0,.5-.4,1.1-1.1,1.3-.4,0-.8,.1-1.2-.2-.4-.3-.6-.8-.5-1.3,0-.4,.2-.7,.5-1,.4-.4,.9-.7,1.4-.6,.4,0,.7,.1,1,.4,.2,.3,.3,.7,.1,1.1-.2,.5-.6,1.1-1.2,1.2-.7,.2-1.5-.1-1.7-.9v-.7c0-.2,0-.5,.2-.8,.2-.2,.6-.3,.9-.3,.2,0,.3,0,.5,.2,.1,.2,.1,.4,0,.6"/><path class="j" d="M133.3,59.9c0,.2-.3,.4-.5,.3-.2,0-.4-.3-.3-.5v-.4h0s.1,0,0,0c0,0,.3,0,.2,0,0,0,.2,0,.1,0,0,0,.2-.1,.1,0h0l-.2,.9c-.1,1,0,2.3,0,3.6v2.3h-.1c0,0-.3-.2-.2-.2h-.2c0,0,0,.2,0,.2h0v-7.2h0c0-.2,0-.2,.1-.4,.1,0,.4-.1,.5,0,.3,.1,.2,.2,.2,.3l.5,1.5c.4,1.1,.9,2.2,1.5,3.2l.7,1.1,.5,.7,.2,.2h0c0,0-.1,0-.1,0l.2-1.2,.5-3.2c0-.5,0-1,.2-1.5,.1-.5,.5-.9,1-1.2,.2-.1,.4,0,.6,.2,.1,.2,0,.4-.2,.6-.4,.2-.5,.4-.6,.7l-.2,1.4-.5,3.2-.2,1v.4c-.2,.1-.3,.3-.6,.4-.4,0-.7-.2-.9-.4-.3-.2-.4-.5-.7-.9l-.7-1.2c-.6-1-1.2-2.2-1.6-3.4l-.4-1.5h.1c0,.1,.2,.2,.1,.2,0,0,.2,0,.2,0,0,0,.2,0,.2,0h0s0-.2,0-.2h0v7.2c0,.1,0,.3-.2,.5,0,0-.3,.1-.4,0-.2,0-.2-.2-.3-.2-.1-.3-.1-.5-.1-.8v-1.9c0-1.3,0-2.6,0-3.7v-.8l.2-.3v-.2c.1,0,.2-.2,.4-.2,.2,0,.4,.1,.4,.2,.2,.3,.2,.7,0,1.1"/><path class="j" d="M146.2,60.6c0,.2,0,.4-.3,.5-.2,0-.4,0-.5-.3-.1-.6,0-1.1,0-1.5,0-.2-.2-.5-.3-.6-.1,0-.6,0-1.1,.3-.5,.3-.8,1-1,1.6-.2,.7,.3,1.3,1.1,1.8,.8,.5,1.8,1.1,2.1,2,.2,.4,.1,1-.2,1.4-.6,.7-1.7,.9-2.8,1-.5,0-1.1,0-1.5,0-.4,0-.9-.1-1.1-.5-.1-.2-.1-.4,0-.6,.2-.1,.4-.1,.6,0,0,0,1,.3,2,.2,1,0,2-.4,2.3-.8,.1-.1,.1-.3,0-.5-.2-.5-1-1.1-1.8-1.6-.4-.3-.9-.6-1.1-1.1-.3-.4-.4-1-.3-1.6,.2-.8,.6-1.6,1.4-2.1,.6-.4,1.3-.6,2-.3,.4,.3,.7,.7,.7,1.2,0,.6,0,1,0,1.4"/><path class="j" d="M150,59.9c0,.2-.2,.4-.5,.3-.2,0-.4-.2-.3-.5v-.4h0c0,0,.3,.1,.2,.1h0c-.2,.4-.3,1.7-.4,3.1v2c0,.5,0,.8,0,.8h0c.2,0,.8-.2,1.2-.4,.2,0,.4-.3,.8-.4,.3,0,.6,.1,.7,.3l.4,.5c.1,.3,.1,.6,.2,.8,0,.1,0,.1,0,.1,0,0,.4-.7,.7-1.4l.9-2.2c.3-.9,.6-1.6,1.7-2.2,.2-.1,.4,0,.6,.1,.1,.2,0,.4-.1,.6-.9,.5-1,.9-1.3,1.8l-.9,2.2c-.3,.7-.4,1.5-1,1.8-.5,.3-1.2-.1-1.3-.6v-.6l-.3-.3h0l-.6,.3-1.1,.4c-.4,0-.8,.1-1.2-.2-.3-.4-.3-.8-.3-1.3v-2l.2-1.9c0-.6,.1-1.1,.3-1.5l.3-.3c.1,0,.3-.1,.4,0,.3,0,.4,.3,.4,.5v.7Z"/><path class="j" d="M132.8,82.5c0,.2-.3,.4-.5,.3-.2,0-.4-.3-.3-.5v-.3h0s.8,.5,.4,.5c-.4,0,.4-.2,.4-.2,0,0,0,0,0,0l-.2,.8-.9,3.6-.3,1.5v.4s-.2-.1-.1-.1h-.2c.2,0,.4,.1,.4,.4,0,.2-.2,.4-.5,.4-.2,0-.3-.2-.4-.3-.1-.3,0-.6,0-1,.2-1.4,.8-3.5,1.2-4.9l.2-.8h0c0-.2,0-.2,.2-.3,.4-.1,.5,.3,.5,.3,0,.2,0,.1,0,.1v.3Z"/><path class="j" d="M132.7,82c.1,.2,0,.4,0,.6-.2,.1-.4,0-.6,0,0-.1-.2-.4,0-.6,.2-.3,.5-.3,.6-.3h.6c1.6,.2,4.4,0,5.6-.3,.2,0,.4,0,.5,.3,0,.2,0,.4-.3,.5-1.4,.4-4.1,.6-5.9,.4h-.6s.1-.2,.1-.1c0,0,0-.2,0-.1h0v-.2Z"/><path class="j" d="M133.4,85.9c-.2,0-.4,0-.5-.2,0-.2,0-.4,.2-.5,.3-.1,.3,0,.5,0,.6,0,1.6,0,2.3-.1,.2,0,.4,0,.5,.3,0,.2,0,.4-.3,.5-.6,.2-1.3,.2-1.9,.2h-.9Z"/><path class="j" d="M132.4,88.4c.2-.1,.4,0,.6,.2s0,.4-.2,.6h-.2c0,.1,0,0,0,0,0,0,0-.3,0-.2,0,0-.1-.2-.1-.1h0s2-.3,3.4-.7c.2,0,.4,0,.5,.3,0,.2,0,.4-.3,.5-1,.3-2.1,.5-3,.6-.4,0-.6,.2-1,0-.1,0-.3-.2-.3-.4,0-.3,.2-.4,.3-.4l.4-.2Z"/><path class="j" d="M144.3,81.6c0,.2-.3,.3-.5,.3-.2,0-.3-.3-.3-.5h0c0,0,.2,.1,.1,0,0,0,.2,0,.1,0h0c0,0-.9,.7-1.7,1.7-.6,.7-1.1,1.5-1.6,2.2-.8,1.4-1.1,2.5-.8,3.1,.2,.6,.9,.9,2.1,.8,.2,0,.4,.1,.5,.4,0,.2-.1,.4-.4,.5-1.4,.2-2.5-.3-2.9-1.3-.4-1,0-2.4,.9-3.9,.5-.8,1.1-1.6,1.7-2.3,.6-.8,1.2-1.4,1.6-1.7,.2-.2,.4-.4,.8-.3,.2,0,.3,.3,.4,.5v.4Z"/><path class="j" d="M146.5,85.9c0,.2-.2,.4-.4,.4-.2,0-.4-.2-.4-.4v-.2h0s.2,.1,.1,0c0,0,.2,0,.1,0h0l-.5,.6c-.5,.7-.9,1.7-.9,2.3,0,.3,0,.3,0,.3,0,0,.4,0,.9-.3,.2-.1,.4,0,.6,.1,.1,.2,0,.4-.1,.6-.6,.4-1.1,.5-1.6,.4-.3-.1-.5-.5-.6-.8-.1-.9,.4-2.1,1.1-3.1,.3-.4,.5-.7,.9-.9,.2,0,.6,0,.7,.2,.1,.2,.1,.4,.1,.7"/><path class="j" d="M146.6,86.4c.2,0,.4,.2,.4,.4,0,.2-.2,.4-.4,.4h-.8c0,.2-.3,.3-.5,.3-.2,0-.4-.3-.3-.5,0-.2,.2-.4,.4-.5,.5-.3,.9-.1,1.1-.1"/><path class="j" d="M151.2,81c-.2,.1-.4,.1-.6,0-.1-.2-.1-.4,0-.6h.2c.1-.2,.3-.2,.5,0,.3,.2,.2,.4,.1,.5,0,.4-.3,1-.6,1.8l-1,2.8c-.4,1.3-.7,2.5-.7,3.2v.3h-.1c0,0-.1,0-.1,0l.4-.6c.8-1.1,1.9-2.7,3.3-3.7,.2-.1,.4,0,.6,0,.1,.2,0,.4,0,.6-1.2,.9-2.3,2.4-3.1,3.5l-.4,.5c-.1,.2-.2,.4-.6,.4-.3,0-.5-.2-.6-.4,0-.2-.1-.4-.1-.7,0-.9,.3-2.1,.8-3.5,.4-1.3,1-2.6,1.3-3.6l.3-1h0v.2h.2c0,0,.3,.1,.2,.1h0s0,0,0,0"/><path class="j" d="M152.2,86.5c.2-.1,.4,0,.6,.2,.1,.2,0,.4-.2,.6-.3,.1-.8,.6-.9,1,0,.2,0,.3,0,.3,0,0,.1,.2,.5,.2,.2,0,.4,.3,.3,.5,0,.2-.3,.4-.5,.3-.5-.1-.9-.3-1.1-.7-.3-.5,0-1.1,.3-1.5,.3-.4,.7-.7,1-.9"/><path class="j" d="M156.8,79.9c.2,.2,.1,.4,0,.6-.2,.2-.4,.1-.6,0h0c-.2,.1-.5,1.3-.7,2.8l-.4,3.2v2.4h-.2v-.2s-.3-.1-.2,0c0,0-.3,0-.2,0,0,0-.2,0-.1,0,0,0-.1,.1-.1,.1h0v-.7c.1-1.1,0-2.5,.5-3.6,.6-1.1,2.1-1.5,3.1-1,.9,.5,1.1,1.7,1.1,2.8,0,.6,0,1.3-.2,1.8l-.2,.7-.2,.3c-.2,.1-.6,0-.7-.1-.1-.2-.1-.3,0-.5,0-.8,.7-1.9,1.4-2.8,.4-.5,.9-.9,1.4-1.1,.3-.1,.5-.1,.7-.1h.7c.3,0,.7,.2,.9,.6,.1,.4,0,.6-.2,.8l-.3,.5c-.2,.3-.2,.7-.1,.9,0,0,.1,.1,.3,0,.5,0,1.4-.9,1.7-1.6,.2-.4,.1-.7,0-.7h0c-.3,0-.8,0-1.2,0-.2,0-.4-.2-.4-.4,0-.2,.2-.4,.4-.4h.8c.3-.1,.8-.2,1.1,.2,.4,.4,.3,1.1,0,1.6-.5,.9-1.3,2-2.4,2.1-.5,0-1-.1-1.2-.6-.2-.5-.1-1.1,.2-1.6l.4-.6v-.2h-1c-.4,.2-.8,.5-1.1,.9-.6,.8-1.2,1.9-1.2,2.3h0v-.2s-.4,0-.3,0c0,0-.2,0-.1,0h0l.2-.5c.1-.5,.2-1,.2-1.6,0-1-.3-1.9-.7-2.1-.6-.3-1.7,0-2,.6-.4,.8-.3,2.1-.4,3.3,0,.4,0,.7,0,1,0,0,0,.1-.2,.3-.1,0-.3,0-.5,0-.2-.1-.2-.2-.2-.2,0-.2,0-.4,0-.8v-1.9l.6-3.2c.2-1.1,.3-2.1,.5-2.7,.1-.3,.2-.6,.6-.8,.3-.2,.7,0,1,.3"/><path class="j" d="M168.7,83.7c.2-.1,.4,0,.6,.1,.1,.2,0,.4-.1,.6,0,0-.5,.9-.8,1.7l-.3,1.2v.4s-.2-.2-.1-.2c0,0-.2,0-.2,0h0c.1,0,1.1-.9,1.8-1.6l1-1c.1-.1,.2-.2,.4-.3,.2,0,.4,0,.6,0,.2,.1,.3,.3,.3,.5,0,.4,0,.8-.2,1.1l-.3,.9-.2,.5h-.2v-.2h0l.9-.5c.6-.3,1.2-.7,1.7-.9,.2,0,.5-.1,.8,0,.4,.1,.6,.5,.7,.9,.1,.4,.1,.9,0,1.4,0,.2-.2,.4-.4,.4-.2,0-.4-.2-.4-.4,0-.5,0-.9,0-1.2v-.3h-.4c-.4,.2-1,.6-1.6,.9l-.8,.4h-.4c-.1,.2-.3,.2-.6,0-.3-.2-.2-.5-.1-.7l.2-.6,.3-.9,.2-.7h.2l-.2,.3-.9,1c-.4,.5-.9,1-1.4,1.4l-.6,.4h-.4c-.2,0-.4-.1-.5-.3,0-.3,0-.5,0-.7l.3-1.4,.5-1.3c.2-.4,.3-.7,.7-.9"/><path class="j" d="M179.9,86.3c-.1,.2-.3,.3-.5,.2-.2-.1-.3-.3-.2-.5,.1-.2,.1-.4,.1-.5,0,0,0,0,0,0,0,0-.6,.3-.9,.7-.2,.2-.1,.5-.1,.5h.4c.3,0,.7-.1,1.1,.1,.4,.2,.7,.7,.9,1.3,0,.2,0,.4-.3,.5-.2,0-.4,0-.5-.3-.3-1-.5-1-1.2-1h-.4c-.2,0-.4,0-.6-.3-.3-.4-.2-1,.2-1.4l.7-.7c.3-.2,.5-.4,.9-.3,.4,0,.6,.4,.7,.7,0,.3,0,.7-.2,1"/><path class="j" d="M184.1,85.6c.2,0,.4,.1,.5,.3,0,.2-.1,.4-.3,.5-.3,0-.4,.3-.6,.9-.3,.9-.5,2.3-.7,3.7,0,.8,0,1.7-.1,2.4,0,1,0,1.7,0,2.3,0,.5-.4,.9-.9,.9-.6,0-1.3-.3-1.9-.9-.7-.6-1.4-1.4-2-2.3-.1-.2,0-.4,.1-.6,.2-.1,.4,0,.6,.1,.8,1.1,1.7,2.1,2.4,2.5,.3,.2,.6,.3,.7,.3,0,0,0,0,.1-.2,0-.4,0-1.2,0-2.2,0-.7,0-1.6,.1-2.5,.2-1.5,.5-2.8,.7-3.8,.2-.7,.6-1.3,1.2-1.5"/><path class="j" d="M188.1,85.3c.2,0,.3,.3,.3,.5,0,.2-.3,.3-.5,.3,0,0-.1,0-.3,.2l-.6,.9-.4,1v.4c-.1,0-.1-.2-.1,0h0v-.2c0,0-.3-.1-.2-.1,0,0-.2,0-.1,0,0,0-.1,0-.1,0h0l.9-1.2c.6-.7,1.2-1.3,1.8-1.7,.2-.2,.4-.4,.7-.5,.3-.1,.6,0,.8,.1,.2,.2,.4,.4,.4,.6,.2,.7-.2,1.5-.4,2.1l-.3,1h0v-.2h-.2l.7-.4c.2-.1,.4,0,.6,.2,.1,.2,0,.4-.2,.6-.4,.2-.7,.4-.9,.4-.2,0-.5,0-.7-.2-.2-.3,0-.6,0-.8l.3-.8c.2-.6,.4-1.3,.4-1.6,0-.2-.1-.2-.2-.2l-.5,.4c-.5,.4-1.1,1-1.6,1.6-.4,.5-.7,1.1-1.1,1.4h-.2c-.1,0-.3,0-.4-.1-.2-.3,0-.4,0-.5v-.3l.6-1.1c.2-.4,.5-.8,.7-1.1,.3-.3,.7-.6,1.2-.5"/><path class="j" d="M193.7,85.9c.2,0,.3,.3,.3,.5,0,.2-.3,.3-.5,.3h0s-.2,.2-.3,.4c-.2,.5-.2,1.1-.1,1.4,0,.1,0,.2,.2,.2,.1,0,.4,0,.8-.2,.2-.1,.4,0,.6,.2,.1,.2,0,.4-.2,.6-.7,.4-1.3,.4-1.8,.1-.6-.5-.6-1.3-.4-2,0-.3,.2-.7,.4-.9,.2-.3,.5-.5,.9-.4"/><path class="j" d="M195.5,86.3c.2,.1,.2,.4,0,.6-.1,.2-.4,.2-.6,0h-.6c-.1,0-.3-.4-.3-.6l.2-.3c.2-.2,.4-.2,.6,0,.2,.2,.2,.4,0,.6h0s0-.3,0-.2c0,0-.1-.2-.1-.2h-.1c0,0,.5-.2,.9,0"/><path class="j" d="M199.7,79.9c0-.2,.3-.4,.5-.3,.2,0,.4,.3,.3,.5l-.2,.9c-.2,.8-.7,1.9-1.1,3-.3,1.1-.5,2.4-.6,3.5v1.7h0c0,0-.1,0,0,0,0,0-.2,0-.1,0,0,0-.3,0-.2,0,0,0-.2,0-.1,0h0s0,.2,0,.2h0v-.7c0-.4-.3-.9-.6-1.4l-.4-.6c0-.2-.2-.3-.2-.6,0-.3,.2-.5,.4-.6,.4-.2,.9-.1,1.6-.1,.7,0,1.6,0,2.6,0,.2,0,.4,.2,.4,.4,0,.2-.2,.4-.4,.4-1,0-1.9,0-2.6,0-.7,0-1.1,0-1.2,0h.1l.4,.6c.3,.5,.7,1.1,.7,1.8v1c0,0-.1,.2-.3,.3-.2,0-.3,0-.4,0-.2-.2-.1-.2-.2-.3v-2.1c0-1.1,.1-2.4,.5-3.6,.4-1.2,.9-2.3,1.1-3l.2-.8Zm.7,.7c0,.2-.3,.4-.5,.3-.2,0-.4-.3-.3-.5v-.5c.2-.2,.4-.4,.6-.3,.2,0,.4,.3,.3,.5v.5Z"/><path class="j" d="M.6,62.2c.2,0,.4,0,.5,.3,0,.2,0,.4-.3,.5-.2,0-.4,.1-.6,0-.2-.1-.2-.4-.2-.5,0-.4,.3-.8,.7-1.3l1.5-2,3.6-4.9,.9-1.3c.2-.3,.4-.6,.7-.7,.1,0,.4,0,.5,0,.3,.2,.2,.2,.2,.3,0,.2,0,.5,0,.9l-.5,2.5c-.3,1.1-.4,2.1-.5,3v1.1l-.6,.5c-.2-.3,0-.3-.1-.4v-.3c-.2-.2-1.1-.6-1.8-1-.3-.2-.7-.4-.9-.6-.1,0-.2-.3-.2-.5,0-.2,.2-.3,.3-.4,.3-.2,.8-.2,1.3-.2h2c.2,.1,.4,.3,.4,.6,0,.2-.2,.4-.4,.4-.9,0-1.8-.1-2.4-.1h-.5c0,0,0-.1,0,0h0c0,0,0-.3,0-.3h0l.8,.4c.6,.4,1.6,.6,2,1.4l.2,.5v.2h0c.1,0,0,.3,0,.5s-.4,0-.6,0c-.1-.2-.2-.4-.3-.8v-.8c0-.8,.2-1.9,.5-3.1l.5-2.5v-.5h0c0-.2,0,0,0,0h0c0,0,.3,.2,.2,.2,0,0,.3,0,.3,0l-1.3,1.8-3.6,4.9-1.5,2-.5,.9s-.1-.2,0-.1c0,0-.1-.1-.1,0h0Z"/><path class="j" d="M12.6,53.5c0,.2-.2,.4-.4,.4-.2,0-.4-.2-.4-.4v-.7h0v-.2h.1c0-.2,.3-.3,.5-.2,.2,.1,.2,.2,.2,.3v.3c0,.4-.1,1-.3,1.9l-.5,2.9c-.1,.9-.2,1.7-.1,2.1,0,.2,0,.1,0,.1,.4,0,1.4-1,2.2-1.7,.3-.2,.6-.5,.9-.6,.4-.1,.8,0,1,.3,.3,.4,.2,.8,.3,1,0,.2,.2,.3,.2,.3h0c.3-.1,.9-1.7,1.5-3.4,.3-.8,.6-1.6,1-2.3,.4-.7,.8-1.2,1.4-1.4,.2,0,.4,0,.5,.3,0,.2,0,.4-.3,.5-.2,0-.6,.4-.9,1.1-.6,1-1,2.4-1.5,3.7-.2,.6-.5,1.1-.7,1.6-.2,.4-.6,.8-1.1,.7-.5,0-.8-.5-.9-1v-.4h0c0-.2,0-.2-.2-.2l-.6,.4-1.3,1.1c-.5,.4-.9,.7-1.4,.7-.4,0-.9-.3-1-.8-.1-.6,0-1.5,.1-2.4,.3-2,.8-4.1,.8-4.7h0s.3,.3,.2,.2c-.1,0,.6-.1,.5,0,0,0,.1-.2,.1-.1,0,0,0,0,0,0h0v.6Z"/><path class="j" d="M205.3,15.7c-.2,0-.4-.2-.4-.5,0-.2,.2-.4,.5-.4,.8,0,3.3-.5,5.1-.2,.2,0,.4,.3,.3,.5,0,.2-.3,.4-.5,.3-.7-.1-1.8,0-2.7,0-1,0-1.8,.2-2.3,.2"/><path class="j" d="M207.6,12.3c.2,0,.4,0,.5,.3,0,.2,0,.4-.3,.5h.1c-.3,.4-.3,3.3,0,4.9,0,.2,0,.4-.3,.5-.2,0-.4,0-.5-.3-.3-1-.3-2.3-.3-3.5v-1.5l.3-.5c0-.2,.1-.4,.4-.4"/><path class="j" d="M205.2,111.1c-.2,.1-.4,0-.6-.1-.1-.2,0-.4,.1-.6,.4-.3,.9-.1,1.5,0,.7,.1,1.6,.3,3,.4,.2,0,.4,.2,.4,.4,0,.2-.2,.4-.4,.4-1.4,0-2.4-.3-3.1-.4h-.9Z"/><path d="M267.2,15.7c0-.2,.2-.4,.4-.4s.4,.2,.4,.4V110.7c0,.2-.2,.4-.4,.4s-.4-.2-.4-.4V15.7Z"/><path d="M267.6,111.1c-.2,0-.4-.2-.4-.4s.2-.4,.4-.4h126.7c.2,0,.4,.2,.4,.4s-.2,.4-.4,.4h-126.7Z"/><path d="M267.3,16.7c0,.2,0,.4-.3,.5-.2,0-.4,0-.5-.3h0s.2,.2,.1,.1c0,0,.3,0,.2,0,0,0,.2,0,.2,0h0l-.5,3.1-.2,1.4v.8h-.1c0,0-.1-.3,0-.2,0,0-.2-.1-.1,0,0,0-.3,0-.3,0,0,0-.2,0-.2,0h0l.2-1.1c.3-1.2,.8-2.8,1.1-4.1l.3-1.5v-.5h0s.5,.3,.3,.3c-.2,0,.5-.2,.4-.2,0,0,0-.1,0-.1,0,0,0,0,0,0h0v1c0,1.3,.2,2.8,1.4,4.1,.2,.2,.1,.4,0,.6-.2,.2-.4,.2-.6,0-1.4-1.5-1.6-3.2-1.7-4.6v-1.1h0c0-.1,0-.3,.3-.4,.2,0,.4,0,.4,.1,.2,.2,0,.2,0,.2v.8l-.3,1.5c-.3,1.4-.8,2.9-1.1,4.1l-.2,.8c0,.2,0,.5-.3,.7,0,0-.3,.1-.4,0-.3-.1-.2-.3-.2-.3,0-.3,0-.6,.1-1.1l.2-1.4,.5-3v-.5l.3-.2c0,0,.3,0,.4,0,.3,.1,.3,.3,.3,.4"/><path d="M390.9,108.3c.2,.1,.2,.4,0,.6-.1,.2-.4,.2-.6,0-.2-.2-.4-.3-.5-.6,0-.3,.2-.5,.4-.6,.5-.2,1,0,1.6,0,1.5,.3,3.2,1.3,4,2.5,.5,.7,.6,1.7,0,2.3-.5,.5-1.4,.8-2.2,1l-2.3,.6c-.2,0-.4,0-.5-.3,0-.2,0-.4,.3-.5,1.4-.4,3.6-.7,4.2-1.4,.3-.3,.3-.7,0-1.2-.6-1-2.2-1.9-3.5-2.2-.5-.1-1-.1-1.1-.1h0s0-.3,0-.3h.1Z"/><path d="M371.1,118.4c0,.2-.2,.4-.5,.3-.2,0-.4-.2-.3-.5v-.2h0s.2,.2,.1,.1h0c-.5,.6-1.3,2.7-1.7,4.3-.2,.7-.3,1.3-.3,1.7,0,.2,0,.2,.1,.2,.5,.1,2-.7,2.8-1.7,.1-.2,.4-.2,.6,0,.2,.1,.2,.4,0,.6-.6,.8-1.5,1.5-2.4,1.8-.4,.2-.8,.3-1.2,.2-.4-.1-.7-.5-.7-1,0-.6,0-1.2,.3-2l.9-2.7c.3-.8,.6-1.5,1.1-1.9,.2-.2,.5-.4,.9-.3,.4,.2,.4,.6,.3,1"/><path d="M369.5,120.4c.2,.1,.2,.4,.1,.6s-.4,.2-.6,.1h-.3c0,0,.2-.3,.1-.2,0,0,0-.2,0-.1,0,0,0-.2,0-.2,0,0,0-.2,0-.1,0,0-.1-.1,0-.1,0,0,0,0,0,0l2.5,.3c.2,0,.4,.2,.4,.5,0,.2-.2,.4-.5,.4l-1.8-.2h-.7l-.2-.2h-.1c0,0-.2-.1-.2-.4,0-.2,0-.3,.1-.4,.2-.2,.3-.1,.3-.1h.3c.2,0,.4,0,.7,.2"/><path d="M381,122.6c-.2,0-.4-.3-.3-.5,0-.2,.3-.4,.5-.3h0c0,0,.3-.3,.3-.6v-.3s-.1-.1-.4-.1c-.2,0-.6,.3-.7,.6,0,.2-.1,.4,0,.7l.2,.4,.7,.8c.4,.6,.4,1.3,0,1.8-.4,.5-1.2,.7-2,.6-.2,0-.4-.3-.3-.5,0-.2,.3-.4,.5-.3,.6,.1,1.1,0,1.2-.3,.2-.2,.2-.5,0-.8l-.7-.8c-.2-.2-.3-.5-.3-.8,0-.4,0-.8,.1-1.2,.3-.5,.8-1,1.4-1,.5,0,1,.1,1.2,.7,0,.3,0,.5,0,.8,0,.3-.2,.6-.4,.8-.2,.2-.5,.5-.9,.4"/><path d="M376,117.8c.1-.2,.4-.2,.6,0,.2,.1,.2,.4,0,.6-.1,.2-.8,2.5-1.4,4.9-.4,1.5-.8,2.8-.9,3.6v.4h-.1v-.2h.6c1,0,2.1,.2,3.1,.4,.2,0,.4,.2,.3,.5,0,.2-.2,.4-.5,.3-1.1-.2-2.1-.3-3-.3h-1c-.1-.2-.3-.4-.3-.6,0-.3,0-.5,0-.7,.1-.9,.6-2.2,1-3.7l.9-3.3,.3-1.2,.3-.7Z"/><path d="M376.7,118.1c.2,.2,.2,.4,0,.6-.2,.2-.4,.2-.6,0-.2-.2-.4-.6-.2-.9,.1-.3,.4-.4,.7-.5,.8-.2,2,0,3.6,.4,.2,0,.4,.3,.3,.5,0,.2-.3,.4-.5,.3-1.5-.3-2.7-.5-3.2-.4h0Z"/><path d="M384.9,118c.1,.2,0,.4-.2,.6-.2,.1-.4,0-.6-.2-.1-.2-.2-.5,0-.7,.2-.4,.5-.4,.8-.4h.9c.6,.3,1.1,.5,1.5,.9,.4,.4,.6,1,.6,1.6,0,.5-.1,1.1-.3,1.8l-1,4.2-.2,1.1-.2,.5v.2c0,.1-.1,.4-.4,.6-.4,.3-.7,0-.9,0-.8,0-1.6-.1-2.7,0-.2,0-.4-.2-.4-.4,0-.2,.2-.4,.4-.4,1.2,0,2,0,2.8,0h.4v-.2h0v-.2l.2-.5,.2-1.1,1-4.2c.2-.7,.3-1.2,.3-1.6,0-.9-.5-1.4-1.5-1.7-.3,0-.7-.1-.8,0h0Z"/><path d="M372.3,115.2c-.2,.1-.4,0-.6-.2-.1-.2,0-.4,.2-.6h.3c.1-.1,.4,0,.5,.1,.2,.3,0,.4,0,.6-.2,.4-.5,1-.9,1.8l-1.2,2.4-.5,1.2-.3,.8v.4h-.2c0,.2-.2,.3-.4,.3-.2,0-.3-.1-.3-.2-.2-.3,0-.3,0-.4v-.4l.4-1.1,1.1-3.3,.4-1.1,.2-.7v-.5h.2c0,0,0,.1,0,0h0c0,0,.1,.2,0,.2,0,0,.2,0,.1,0,0,0,.3,0,.2,0h.2l-.2,.4c-.5,1.5-1.6,3.7-2.5,5.8-.5,1.1-.7,2.1-.9,2.9l-.3,1.2v1.1c-.1,0-.3-.2-.2-.2h.2c1.1-.4,2.6-1,3.7-1.5,.2,0,.4,0,.5,.2,0,.2,0,.4-.2,.5-1.1,.5-2.6,1.2-3.8,1.5h-.8c-.1,0-.3-.1-.3-.3,0-.3,0-.5,0-.7v-.7l.4-1.3c.2-.8,.5-1.8,1-3,.9-2.1,2-4.3,2.5-5.7,0-.3,.1-.5,.3-.7,0,0,0-.2,.3-.2,.2,0,.3,.1,.4,.2,.2,.3,0,.3,0,.3l-.2,.8-.2,.7-.4,1.1-1.1,3.3-.3,1v.3h0v-.2s-.2-.1-.1,0c0,0-.2,0-.2,0,0,0-.2,0-.2,0,0,0-.2,.1-.2,0,0,0,0,.1,0,.1h0v-.4l.5-.8,.5-1.2,1.2-2.4,.8-1.6v-.2c0,0,0,0,0,0h0c0,0,.1,.2,0,.2h.1c0,0,.2,.1,.2,.1h0Z"/><path d="M368.9,120.1c.2,0,.3,.3,.2,.5,0,.2-.3,.3-.5,.2-.3-.1-.5-.1-.6-.4,0-.2,0-.5,.1-.6h.3c.4-.2,.7,0,1,0l.8,.2h.4c0,0,0,.4,0,.3,0,0,.1,.3,0,.2h-4.8c-.2-.2-.2-.5-.1-.6l.2-.3c.1-.2,.4-.2,.6,0,.2,.1,.2,.4,0,.6h0c0,0-.2-.4-.1-.3,0,0-.1,0,0,0h4.4c.2,0,.4,0,.6,.3,.1,.1,.1,.3,0,.5-.2,.4-.4,.4-.7,.4h-.6l-.8-.2h-.7v-.2s.2-.2,.2-.1c0,0,0-.3,0-.2,0,0,0-.2,0-.1,0,0,0,0,0,0h.3Z"/><path d="M367.6,125.3c-.2,0-.4-.2-.4-.4,0-.2,.2-.4,.4-.4h2.7l.2-.2h0s-.1,.2,0,.1c0,0,0,.3,0,.2,0,0,0,.3,0,.2,0,0,.1,.1,0,.1,0,0,.1,0,0,0h-.8c-.7,0-1.4,.2-1.8,.4-.2,0-.4,0-.5-.2,0-.2,0-.4,.2-.5,.5-.2,1.2-.4,2.1-.5h1c0,0,.1,0,.3,0,0,0,.2,.2,.2,.4,0,.3-.2,.3-.2,.3h-.3l-.9,.3h-2.1Zm.6-1.8c0-.2,.2-.4,.5-.4,.2,0,.4,.2,.4,.5,0,.5-.4,.8-.5,.9h.9s-.2,.3-.1,.2c.1-.2,.4-.3,.6-.1,.2,.1,.3,.4,.1,.6-.1,.2-.3,.2-.3,.2-.4,0-.8,0-1.3,0h-.7c-.2,0-.4-.2-.4-.4s.2-.4,.4-.4h1.7c0,0-.1,.3-.1,.2l.7,.4c-.1,.2-.2,.2-.2,.2-.2,0-.2,0-.3,0h-.5c-.3,0-.7,0-1-.4-.2-.2-.3-.5,0-.8l.4-.6Z"/><path class="i" d="M267.8,111.1c-.2,.2-.4,.1-.6,0-.2-.2-.1-.4,0-.6,.8-.8,1-1.3,1.7-2.5l1.3-1.9,2.1-2.7,2.9-3.8c3.3-4.6,5.7-9.1,9-13.7,2.4-3.4,5.3-7,9-10.5,2.7-2.6,5.8-4.9,8.8-6.7,3.2-2,6-3.3,9.2-4.5,3.1-1.1,6.1-2.1,9.1-2.8,2.9-.7,5.7-1.3,8.3-1.7,3.5-.5,6.9-.8,10.3-1,3.1-.1,6.8-.6,10.6-.7,4.9-.1,9.8-.3,13.8-.1,3.9,.1,8.4-.3,12-.2,2.9,0,5.4,0,7.4,.1,.9,0,1.7,.1,2.6,.1h1.7c.5,0,.9,0,.9-.2,.1-.2,.4-.2,.6,0,.2,.1,.2,.4,0,.6-.4,.4-1,.5-1.5,.5h-1.7c-.9,0-1.8,0-2.7-.1-2-.2-4.4,0-7.4-.1-3.6,0-8.1,.4-12,.2-4-.1-8.9,0-13.8,.1-3.7,0-7.4,.6-10.6,.7-3.4,.1-6.7,.4-10.2,.9-2.6,.4-5.3,.9-8.2,1.6-2.9,.7-6,1.7-9,2.8-3.2,1.2-5.9,2.5-9,4.5-2.9,1.8-5.9,4.1-8.6,6.6-3.6,3.4-6.5,7-8.9,10.3-3.2,4.5-5.7,9-9,13.7l-2.9,3.8-2.1,2.7-1.3,1.8c-.7,1.1-.9,1.8-1.8,2.6"/><path d="M235.1,25.3c.2-.1,.4-.1,.6,0,.1,.2,.1,.4,0,.6-.1,.1-.3,.7-.4,1.3v.7l-.2,.6v.2h0v.2c0,0,0,.2-.3,.2-.2,0-.4-.1-.5-.3,0-.2,.1-.4,.3-.5,.3,0-.3,.3-.3,.3h0v-.7c.2-.8,.7-1.6,1.1-2.3,.2-.3,.5-.6,.8-.9,.4-.3,.8-.5,1.2-.5,.3,0,.6,0,.9,0,.3,.1,.4,.4,.5,.6v.6c.1,.5,.2,1,0,1.5l-.3,1.2c0,0-.1,0,.1,0,.4,0,1-.3,1.6-.5,.2,0,.4,0,.5,.3,0,.2,0,.4-.3,.5-.5,.1-1.1,.5-1.8,.5-.3,0-.5,0-.7-.2-.2-.2-.3-.4-.3-.6,0-.5,.2-1,.3-1.3,0-.4,0-.8,0-1.3v-.5h-.5c-.2,0-.6,.1-.8,.3-.2,.2-.4,.4-.7,.7-.4,.6-.8,1.3-.9,1.9v.7h0v.2s0,.2-.3,.3l-.2-.8c0,0-.2,0-.2,0h-.1v-.6l.2-.7c.1-.7,.2-1.4,.7-1.8"/><path d="M246.2,27.9c0,.2,0,.4-.3,.5-.2,0-.4,0-.5-.3h0s.3,0,.2,0c0,0,.3,0,.2,0,0,0,.1-.1,.1,0,0,0,0,0,0,0v.7l-.2,.9v.6h-.1c0,0-.2,0-.1,0h.2c.3-.3,.8-1.2,1.3-2l.8-.9c.3-.3,.6-.5,1-.4,.3,.1,.3,.4,.3,.5,0,.4-.1,.8-.2,1.1l-.2,.5v.4h.5c.5-.2,1-.5,1.5-.5,.3,0,.7,.2,.8,.5,0,.3,0,.7-.2,1.1,0,.2-.3,.3-.5,.2-.2,0-.3-.3-.2-.5v-.5c.1-.1,.2,0,.2,0l-1,.3c-.5,.2-.9,.4-1.5,.1-.3-.2-.4-.6-.5-.9v-.5l.3-.5,.2-.7v-.2h0c0,0,.2,.3,.1,.2h.1l-.2,.2-.7,.8c-.5,.7-.9,1.6-1.6,2l-.4,.2c-.2,0-.4,.1-.7-.1-.2-.2-.2-.5-.2-.7v-.6l.2-1v-.8l.3-.2c0,0,.2-.2,.4-.2,.3,0,.3,.2,.4,.3v.2Z"/><path d="M253,28.6c.2-.1,.4,0,.6,.2,.1,.2,0,.4-.2,.6-.1,0-.2,.2-.2,.4,0,.3,0,.6-.1,1,0,.2-.3,.3-.5,.2-.2,0-.3-.3-.2-.5v-.8c0-.4,.2-.9,.6-1.1"/><path d="M254.7,26.4c.2,0,.4,.2,.4,.4,0,.2-.2,.4-.4,.4h-.6c-.2-.2-.3-.4-.2-.6,0-.2,.3-.3,.5-.2h.3Z"/><path d="M255.4,28.4c.2,0,.4,.1,.5,.3,0,.2-.1,.4-.3,.5h-.4v-.2s-.2,0-.2,0h.6l.7-.2c.4,0,.8,.1,1,.5,.2,.3,.2,.7,.2,1.2,0,.2-.2,.4-.4,.4-.2,0-.4-.2-.4-.4,0-.4,0-.7,0-.8,0,0,0,0-.1,0-.2,0-.4,.2-.8,.2h-.9c-.1,0-.3,0-.4-.2-.2-.3,0-.6,.2-.8,.2-.2,.4-.3,.7-.3"/><path d="M258.1,24.1c.2,0,.4,.2,.3,.5,0,.2-.2,.4-.5,.3-.3,0-.4,0-.6-.2,0,0-.1-.1-.1-.3,0-.3,.2-.4,.3-.4,.2-.1,.4,0,.7,0h.9c.2,.1,.4,.4,.3,.6,0,.2-.3,.4-.5,.3-.4,0-.9,0-1,0h.1c0,0,0-.3,0-.2,0,0,0-.2,0-.2,0,0,0-.2,0-.1,0,0-.1-.1,0-.1h.2Z"/><path d="M260.4,26c0,.2,0,.4-.3,.5-.2,0-.4,0-.5-.3-.1-.4,0-.8,.2-1,.3-.4,.8-.7,1.3-.7,.3,0,.6,.1,.7,.4,.2,.3,.2,.6,.1,.9,0,.2-.3,.4-.5,.3-.2,0-.4-.3-.3-.5,0-.3,0-.4,0-.4,0,0-.2,0-.5,.2-.2,.2-.3,.4-.3,.5"/><path d="M259.7,26.5c0,.2-.2,.4-.4,.4-.2,0-.4-.2-.4-.4,0-.5,.3-.7,.6-1l1.1-.9,1.1-.9c.2-.1,.4-.2,.6-.3,.2,0,.6,0,.7,.3,.1,.4,0,.6-.1,.8l-.3,.6c-.5,1-.9,1.8-.7,2.6,0,.2,0,.4-.3,.5-.2,0-.4,0-.5-.3-.3-1.1,.2-2.1,.7-3.1l.3-.6v-.2h0s0,.1,0,0h.1v.2h-.2l-1.1,1-1,.8-.3,.3h0Z"/><path d="M244.3,22.6c0,.2-.3,.4-.5,.3-.2,0-.4-.3-.3-.5v-.4l.2-.2h.2c.2-.2,.3,0,.4,0,.2,.2,.1,.3,.1,.4l-.2,1.5-.5,2.5c-.3,1.5-.8,3.2-1.3,4.7l-.8,2.7c-.1,.5-.2,.8-.2,.9h0c.2,0,.9-.1,1.7-.3,1-.3,2-.3,3-.3,.2,0,.4,.2,.4,.4,0,.2-.2,.4-.4,.4-1,0-1.9,0-2.8,.3-.5,.1-1,.3-1.4,.3-.2,0-.5,0-.7,0-.2,0-.5-.3-.5-.6,0-.4,0-.8,.2-1.3l.8-2.7c.5-1.5,.9-3.2,1.3-4.6,.3-1.4,.5-2.6,.6-3.3v-.4h0c0-.1,0,0,0,0,0,0,0,.1,0,0,0,0,.3,.1,.2,.1,0,0,.3,0,.2,0,0,0,.2,0,.1,0,0,0,0-.1,0,0h0v.3Z"/><path d="M244.9,22c.2,0,.4,.2,.4,.4,0,.2-.2,.4-.4,.4h-.3s.1,0,0,0c-.1,0,0-.8,0-.8h1.3l3.1,.4c.2,0,.4,.2,.4,.5,0,.2-.2,.4-.5,.4l-3.6-.4h-.9c0,0-.1-.8,0-.9,.2,0,.1,0,.1,0h.3Z"/><path d="M262.9,21.2c.2,0,.4,.2,.4,.4s-.2,.4-.4,.4h-.2s.1,0,0,0c0,0,.1-.1,0,0,0,0,.1-.3,0-.2,0,0,0-.3,0-.2,0,0,0-.1,0-.1,0,0-.1,0,0,0h.2l1.2,.4c.5,.2,.9,.4,1.2,.8,.3,.4,.4,.9,.4,1.5,0,1.1-.7,2.4-1.1,3.9-.4,1.2-.6,2.6-.6,3.6v.8h0c.1,.2,.4,.2,.7,.6,.2,.2,.1,.5,0,.7l-.3,.5c-.5,.5-1.3,.5-2,.6-.7,0-1.4,.1-1.7,.3-.2,.1-.4,0-.6-.1-.1-.2,0-.4,.1-.6,.6-.4,1.3-.4,2.1-.4,.7,0,1.3-.2,1.4-.3v-.2h.1l-.5-.3c-.1-.1-.3-.3-.4-.5,0-.3,0-.6,0-1,0-1,.3-2.5,.7-3.8,.5-1.5,1.1-2.9,1.1-3.7,0-.9-.3-1.2-1.1-1.5l-1.1-.3c-.2,0-.3,0-.5-.2v-.3c-.1-.3,0-.4,.1-.4,.2,0,.3,0,.4,0"/><path d="M234.4,25c0-.2,.1-.4,.4-.5,.2,0,.4,.1,.5,.4v.5l-.3,2.3v1.7h0s-.1-.1,0-.1l-.6,.6c-.2-.2-.1-.3-.1-.3l.2-.9c.1-.6,.4-1.2,.6-1.7l.4-.9c.3-.5,.8-.9,1.3-1.1,.4-.1,.8-.2,1.1,0,.4,.3,.4,.7,.4,.9,.1,.7,0,1.4-.2,2.1v.9c0,.1,0,.2,.1,.2,.5,0,1.6-.7,2.3-1.1,.2-.1,.4,0,.6,.2,.1,.2,0,.4-.2,.6-.6,.3-1.6,1.2-2.7,1.2-.5,0-.9-.4-1-.8,0-.4,0-.8,0-1.2,.1-.7,.3-1.3,.2-1.8v-.3h0c0,0-.2-.1-.4,0-.3,0-.7,.4-.9,.7l-.3,.8c-.2,.5-.4,1.1-.6,1.6v.6l-.2,.2h0c0,0-.1-.3,0-.3,.2,.2,.1,.4,0,.6-.2,.2-.4,.1-.6,0-.2-.2-.1-.2-.1-.3v-1.9l.3-2.3v-.3h0c0,0,0,0,0,0m.8,.4c0,.2-.2,.4-.4,.4-.2,0-.4-.2-.4-.4v-.5c0-.2,.3-.4,.5-.3,.2,0,.4,.3,.3,.5h0v.4Z"/><path class="h" d="M101.7,28.2c-.2,0-.4-.2-.3-.5,0-.2,.2-.4,.5-.3,.8,.1,4.3-.4,6.3,.3,.2,0,.3,.3,.2,.5,0,.2-.3,.3-.5,.2-.8-.3-2.1-.3-3.4-.3h-2.8Z"/><path class="h" d="M101.5,28.8c-.2,0-.4-.2-.3-.5,0-.2,.2-.4,.5-.3,.5,0,.9,.5,1.3,.9,1.2,1.4,2.5,3.7,3.7,4.1,.2,0,.3,.3,.3,.5,0,.2-.3,.3-.5,.3-1.2-.4-2.1-1.6-3-2.8-.8-1.1-1.6-2.1-1.9-2.2"/><path class="h" d="M107.8,29.1c0,.2-.2,.4-.5,.4-.2,0-.4-.2-.4-.5v-.3h0s0,.2,0,.2c0,0,.5,.2,.3,.2-.2,0,.4-.2,.3-.1,0,0,0,0,0,0h0v.4c-.5,1.3-1.7,3.8-2.3,4.9-.1,.2-.4,.3-.6,.2-.2-.1-.3-.4-.2-.6,.6-1,1.8-3.5,2.1-4.7l.2-.5h0c0-.1,0-.3,.4-.3,.3,0,.3,.3,.3,.3,0,.2,0,.2,0,.2v.3Z"/><path class="h" d="M102.8,29.2c-.2-.1-.2-.4,0-.6s.4-.2,.6,0h0l.7,.6,1.4,.9,.8,.4h.3c0,.1-.2,.2-.1,.1,0,0-.2,.1-.2,0,0,0-.1,.2-.1,.1h0c0,0,0,.2,0,.2,0,0-.4-.7-.9-1l-.8-.4-.4-.2c0,0-.1-.1-.2-.3,0-.3,.1-.4,.2-.5,.2-.1,.3,0,.5-.1h2.1l.2,.2c0,0,.2,.2,.1,.4,0,.2-.2,.3-.2,.3-.4,.2-.9,0-1.3,0h-1.8c-.2,0-.4-.2-.6-.4-.1-.2-.2-.5,0-.7,.3-.2,.5-.2,.7-.2h2.3c.2,.2,.3,.3,.4,.5,.1,.2,0,.6-.3,.7-.5,.2-.9,0-1.2-.1h-.5l-.4-.2h-.3v-.3c-.2,0-.2-.3,0-.4,.2-.3,.3-.2,.4-.2h.8c.5,.3,.8,.7,1,1.1,.2,.5,.1,1,0,1.4l-.2,.7h0v-.2s0-.2,0-.1c0,0-.2-.2-.1-.1,0,0-.2,0-.1,0,0,0-.2,0-.2,0,0,0-.1,0-.1,0h0l.5-.8,.2-.3c0,0,.1-.1,.4,0,.1,0,.3,.2,.3,.3v.2c0,.4-.3,.6-.5,1l-.4,.9v.4c0,.2,0,.4-.2,.6-.2,.1-.4,0-.6-.2-.2-.3-.1-.7,0-1l.5-1,.4-.7h0v.2s.1,.2,0,.2c0,0,.2,.1,.2,.1,0,0,.2,0,.1,0,0,0,.2,0,.1,0h0l-.5,.8-.2,.2c0,0-.2,.1-.4,0-.1,0-.2-.2-.2-.3v-.2l.2-.6c0-.3,.1-.7,0-.9-.1-.3-.3-.5-.4-.5h-.4c0-.1,.2-.3,.1-.3,0,0,0-.3,0-.2,0,0,0-.2,0-.2h0c0,0-.1-.2,0-.2h.4l.6,.2h.6l.2,.2h-.1v.2h-.1c0,0,0,.3,0,.3h-2.2v-.2c0,0,0-.2,0-.2h2.6s-.1,0,0,0c0,0-.1,.3,0,.2,0,0,0,.3,0,.2,0,0,0,.2,0,.1,0,0,.1,0,0,0h-1.9s.1-.2,0-.2c0,0,0-.2,0-.2h0c0,0-.1-.3,0-.3h.2l.9,.6c.4,.3,.7,.6,.9,.9l.3,.4v.3c0,0,0,.2,0,.3-.1,.1-.3,.1-.4,.1-.2,0-.4-.1-.5-.2l-.9-.5-1.4-.9-.7-.6h0Zm.4-.6c0,.2,0,.4-.2,.5-.2,0-.4,0-.5-.2h.2c0,0,.2,0,.1,0,0,0,.2,0,.2,0,0,0,.2-.1,.1,0,0,0,.1-.2,0-.1,0,0,0-.1,0-.1h0c.1,.4,.8,1.2,1.4,1.7l.8,.6,.4,.2h-.1s-.1,.3,0,.2c0,0,0,.2,0,.2h0l-.4-.2-1.1-1-.5-.4-.8-.7h0c-.2-.2-.2-.4,0-.6s.4-.2,.6,0h0l.8,.7,.5,.4,1.1,1,.3,.3,.2,.2c0,0,.2,.2,.1,.5-.1,.4-.5,.5-.8,.4l-.5-.3-1-.7c-.7-.6-1.4-1.3-1.6-1.9,0-.2-.1-.2,0-.5v-.2c.1,0,.3-.2,.4-.2,.2,0,.3,.1,.3,.2v.3Z"/><path class="h" d="M103.5,29.5c.1,.2,0,.4-.2,.6-.2,.1-.4,0-.6-.2l-.3-.6h0v-.2c0,0,.1-.5,.5-.4,.3,0,.2,.2,.2,.2v.2l.3,.9c.4,1.2,1.8,2.1,1.9,3.5,0,.2-.1,.4-.4,.5-.2,0-.4-.1-.5-.4-.1-.8-1.4-1.8-1.9-3.3l-.3-.9h0c0,0,0,0,0,0,0,0,.1,.2,0,0,0,0,.7-.4,.6-.2,0,.1,0-.2,0-.2h0l.2,.4Z"/><path class="h" d="M107.1,29.9c0,.2-.3,.4-.5,.3-.2,0-.4-.3-.3-.5v-.2s.3,.1,.2,.1c-.3,0-1.8,2.4-1.7,2.5,.2,.2,.1,.4,0,.6-.2,.2-.4,.1-.6,0-.2-.2-.2-.5-.2-.7,.1-.8,.8-1.7,1.5-2.4,.3-.3,.6-.6,1-.7,.2,0,.6,.1,.6,.4,0,.2,0,.4,0,.7"/><path class="h" d="M119.1,26.7c0-.2,.2-.4,.5-.4,.2,0,.4,.2,.4,.4,0,.3-.2,.7-.4,1.1l-.7,1.4-.5,1.1v.2h0s-.2-.3-.2-.2h0c.2-.2,.4-.1,.6,0,.1,.2,0,.4-.1,.6l-.4,.2c-.1,0-.3,0-.4,0-.2-.2-.2-.4-.2-.5v-.4c.2-.4,.4-.8,.6-1.2,.5-.9,1-2,1-2.2"/><path class="h" d="M116.6,25.8c.2,0,.4,.2,.4,.5,0,.2-.2,.4-.5,.4-.4,0-.7-.1-.9-.3l-.2-.2c0-.1,0-.3,0-.4,.1-.2,.2-.2,.3-.2,.3-.1,.8-.1,1.6-.1h2.7c1.2-.1,2.4-.2,3.4-.2,1,0,2,.1,2.6,.6,.2,.1,.2,.4,0,.6-.1,.2-.4,.2-.6,0-.7-.6-3.1-.4-5.5-.3h-3l-.9,.2h-.1s.1-.1,0,0c0,0,.1-.3,0-.2,0,0,0-.3,0-.2,0,0-.1-.2-.1-.2h.6Z"/><path class="h" d="M115.9,31.8c.2,0,.4,.2,.4,.4,0,.2-.2,.4-.4,.4h-.3c0,0,0-.3,0-.2h0c0,0,0-.4,0-.3,0,0-.1-.1,0,0,0,0-.1,0-.1,0,.3,.1,3.7-.4,6.1-.4,.2,0,.4,.2,.4,.4,0,.2-.2,.4-.4,.4-1.2,0-2.6,.2-3.9,.3h-1.6l-.5,.2c-.1,0-.3,0-.5-.1,0,0-.1-.2-.1-.3,0-.3,.2-.3,.2-.4,.3-.1,.5-.1,.8,0"/><path class="h" d="M125.8,36c0,.2-.2,.4-.5,.3-.2,0-.4-.2-.3-.5l.2-1.2,.4-1.6c.1-.5,.2-1,.4-1.4,0-.2,.2-.4,.4-.5,.2-.1,.6,0,.8,.2,.5,.6,.4,1.5,.6,2.2,.2,.7,.4,1.2,.7,1.5l.3,.2h0c.2-.2,.6-1,.8-1.8l.4-1.1,.2-.4c0-.1,.1-.3,.4-.4,.2,0,.4,0,.5,.3,0,.2,0,.4-.3,.5h0l-.7,1.9c-.2,.5-.3,.9-.6,1.3-.2,.4-.6,.7-1.1,.6-.3,0-.5-.2-.7-.4-.4-.4-.7-1.1-.9-1.8-.2-.9-.4-1.8-.5-1.9h0s.2,0,.1,0h0l-.3,1.3-.4,1.6-.2,1.2Zm1.4-4.2c.2,.2,.2,.4,0,.6-.2,.2-.4,.2-.6,0h.2c0,0,.2,0,.2,0h0l-.6,1.5-.4,1.1-.2,.7v.4c-.1,.2-.3,.4-.6,.3-.2,0-.4-.3-.3-.5v-.4l.3-.7,.4-1.1,.5-1.3,.2-.4,.2-.2c.1,0,.4,0,.5,0"/><path class="h" d="M136.1,32.7c0,.2-.3,.3-.5,.2s-.3-.3-.2-.5c.2-.5,0-.9-.4-1-.3-.1-.9,.2-1.2,.5-.1,.2-.2,.5-.2,.7,0,.2,.5,.6,1,1,.3,.2,.6,.4,.7,.8,.2,.4,0,.8-.3,1-.4,.3-.9,.5-1.4,.6-.6,0-1.1,0-1.6-.2-.2-.1-.3-.4-.2-.6,.1-.2,.4-.3,.6-.2,.3,.2,1,.2,1.5,0l.6-.3h0l-.5-.5c-.5-.4-1.2-.8-1.3-1.6,0-.4,0-.9,.3-1.3,.5-.6,1.3-1.1,2.1-.8,.8,.3,1.3,1.2,.9,2.1"/><path class="h" d="M138.8,32.2c0,.2-.3,.3-.5,.3-.2,0-.3-.3-.3-.5v-.3c0,0,.1,.2,0,0,0,0,0,.1,0,.1,0,0,.2,.1,.1,.1,0,0,.2,0,.2,0h.1c0,0,.1,0,.1,0h0v.2c-.4,.6-.8,1.7-1,2.5v.6c0,0,0,.1,.2,.2,.3,0,1,0,1.6,0,.3,0,.6,.1,.8,.3,.2,.2,.3,.4,.3,.5v.2h.2l.4-.7c.3-.7,.6-1.6,1.4-2.1,.2-.1,.4,0,.6,.1,.1,.2,0,.4-.1,.6-.6,.4-.8,1.1-1.2,1.9-.2,.3-.3,.8-.8,1-.3,.2-.7,.1-1-.1-.2-.2-.2-.4-.3-.5v-.2h-.4c-.4-.1-1.2,.2-1.9,0-.4-.1-.7-.4-.8-.9,0-.3,0-.6,0-.9,.2-.9,.6-2,1-2.7l.2-.3c0,0,0-.1,.3-.2,0,0,.2,0,.4,0,.2,.1,.2,.3,.2,.4,0,.2,0,.3,0,.6"/><path class="i" d="M76,11.5c0,.2-.3,.3-.5,.3-.2,0-.3-.3-.3-.5v-.3l.3-.2c.2,0,.5,0,.5,.1,.1,.2,.1,.3,.1,.3v1.6c0,1.1-.1,2.5,0,3.7,0,.6,.1,1.1,.2,1.4,.1,.3,.2,.4,.3,.4,.2,0,.4,.2,.3,.5,0,.2-.2,.4-.5,.3-.4,0-.7-.4-.8-.7-.6-1.2-.5-3.3-.4-5v-2.2h0s.3,.3,.2,.2c0,0,.4,0,.3,0,0,0,.2-.1,.1,0,0,0,0,0,0,0v.2Z"/><path class="i" d="M75.7,12.1c-.1,.2-.4,.2-.6,0-.2-.1-.2-.4,0-.6l.2-.2h0s0,.1,0,0c0,0,.5,.6,.2,.4-.2-.1,.4,0,.4,0h0l-1.4,1.5c-1,1.1-2.5,2.1-3.6,2.8l-1,.5h0s0-.3,0-.2c0,0,0-.3,0-.2,0,0-.2-.2-.1-.2h-.1s-.1,0-.1,0h0l1.1-.2c2.3-.3,4.5,1.2,6.4,2.8,.2,.1,.2,.4,0,.6-.1,.2-.4,.2-.6,0-1.9-1.5-3.9-2.9-5.8-2.6l-1.1,.2h-.3c0,0-.3-.2-.3-.4,0-.3,.2-.3,.2-.3h.2l.8-.6c1-.7,2.4-1.7,3.4-2.7l1.2-1.3v-.2h.2v-.2c.2,0,.7,.2,.7,.4,0,.2,0,.2,0,.2l-.2,.3Z"/><path class="i" d="M74.9,13.8c0,.2,0,.4-.2,.5s-.4,0-.5-.2c0,0,.1,.2,0,.1,0,0,.2,0,.1,0h.2l-.7,.7-.8,.9h0s0-.2,0-.2c0,0-.2-.5,0-.3,0,.1-.4-.2-.3-.2,0,0-.1,0-.1,0h0l1.4-1.1,.6-.5c0,0,.1-.1,.3-.2h.3c.2,.1,.3,.4,.2,.5v.2c-.2,.4-.6,.7-.9,1l-.4,.5-.2,.4h0c0,.1,0,0,0,0,0,0-.1-.2,0-.2,0,0-.2-.1-.1-.1h-.1c0,0-.2,0-.1,0,0,0-.1,0,0,0l.4-.5,.5-.6,.2-.3h.1v-.2c.2,0,.4-.1,.5,0,.3,.2,.2,.3,.2,.4,0,.4-.2,.8-.3,1.1v.5h0s-.2-.1-.1,0h-.1c0,0-.2,0-.1,0,0,0,0,0,0,0l.3-.5,.2-.5v-.3l.2-.2s0-.1,.3-.1c.1,0,.3,0,.4,.2,.2,.2,0,.3,0,.3v.9l-.2,.4h0s-.1,0,0,0c0,0-.3,0-.2,0h-.1l.2-.3c.2-.4,.1-1,0-1.4l-.3-.3h0v.4l.2,.5,.2,.2h-.3c0,0,.2-.6,0-.9v-.2h-.2c0,.2,0,.6,.2,.8,.1,.2,0,.4-.2,.6-.2,.1-.4,0-.6-.2-.2-.3-.3-.6-.3-.9,0-.3,0-.7,.2-.9,.2-.2,.4-.4,.9-.3,.3,.1,.4,.3,.4,.4,.1,.1,.2,.3,.3,.6,0,.4,0,.8,0,1.1l-.2,.5c-.1,.2-.5,.3-.7,.1-.2-.1-.4-.3-.5-.6l-.2-.7v-.6c-.1-.2-.1-.5,.1-.7,.3-.3,.8-.2,1.2,0,.2,.2,.4,.4,.6,.7,.3,.6,.4,1.4,0,2.1l-.3,.5c-.1,.1-.3,.3-.6,.3-.2,0-.4-.2-.4-.3-.2-.3-.1-.6,0-.9v-.9h.1s0,.2,0,.2c0,0,.1,.2,0,.1,0,0,.3,.1,.2,.1,0,0,.3,0,.2,0,0,0,.1,0,.1,0,0,0,0,0,0,0h0l-.2,.7-.3,.5v.2h-.2v.2c-.2,0-.4,0-.5,0-.3-.2-.3-.5-.3-.8v-.6l.3-.7v-.2c0,0,0,.1,0,0h0c0,0,.2,.3,.1,.2h.1c0,0,.3,0,.2,0h.1l-.3,.3-.5,.6-.5,.5h-.2v.2h-.3c0,0-.4,0-.4-.3,0-.3,0-.4,0-.5l.2-.4,.4-.6,.7-.9h0s0,.2,0,.2h0c0,0,.1,.3,0,.2h.1c0,0,.2,.1,.2,.1,0,0,.1,0,.1,0h0l-.6,.5-1.1,.9-.4,.3h-.5c-.1,0-.3,0-.3-.2,0-.3,0-.3,0-.3l.9-.9,.7-.6,.4-.2h.3c.1,0,.3,.2,.3,.3"/><path class="i" d="M76.1,2.2c0,.2-.2,.4-.4,.4-.2,0-.4-.2-.4-.4h.2v.2c0,0,.3,0,.3,0h0v.2l-.9,1.7-.3,.8v.2h-.1v.2c0,0-.1,.1-.4,.1-.3,0-.4-.3-.4-.4,0-.2,.2-.4,.4-.4,.2,0,.4,.2,.4,.4,0,0-.7-.4-.4-.4,.3,0-.3,.2-.3,.1,0,0,.7-1.8,1.2-2.8,.1-.2,.2-.4,.4-.5,0,0,.2-.1,.4,0,.2,0,.3,.3,.3,.4v.3Z"/><path class="i" d="M73.1,.5c.2,0,.3,.3,.2,.5,0,.2-.3,.3-.5,.2l-.8-.4c0,0-.2-.1-.2-.3,0-.2,.2-.4,.2-.4,.3-.1,.4,0,.6,0h.7l7.4,2c.2,0,.4,.3,.3,.5,0,.2-.3,.4-.5,.3l-7.4-1.8h-.8c0-.1,.2-.2,.1-.2h0s.1-.4,0-.3c0,0,0-.2,0-.2,0,0,0-.1,0-.1h0l.6,.3Z"/><path class="i" d="M71.7,7c-.2,0-.4-.2-.4-.4s.2-.4,.4-.4h.6c.9,0,2.6-.1,4.5,.2,.2,0,.4,.3,.3,.5s-.3,.4-.5,.3c-1.8-.3-3.4-.2-4.4-.2h-.6Zm.2-.8c.2,0,.4,.2,.4,.4s-.2,.4-.4,.4h-.2c-.2,0-.4-.2-.4-.4s.2-.4,.4-.4h.2Z"/><path class="i" d="M79.4,11.5c.2,0,.4,.2,.4,.4,0,.2-.2,.4-.4,.4-.2,0-.5,0-.6-.3-.2-.3,0-.7,0-1l.6-1.1c.6-.9,1.5-1.9,2.2-2.8l.9-.9,.5-.4h.3c.1,0,.3,0,.4,.1,.2,.3,.1,.5,0,.7l-.2,.7c-.4,1.4-1,2.9-1,3.3,0,.2-.1,.4-.3,.5s-.4-.1-.5-.3c0-.5,.1-1,.3-1.6l.7-2v-.6l.2-.2h0s.2,.2,.1,.2h.2l-.4,.3-.8,.9c-.8,.9-1.6,1.9-2.2,2.7-.3,.5-.6,.9-.6,1.1h-.1Z"/><path class="i" d="M81,8.8c.2,0,.4,.2,.4,.4,0,.2-.2,.4-.4,.4h-.1s.2-.4,.2-.2c0,.1-.1-.5,0-.4,0,0-.2-.1-.1,0,0,0,0,0,0,0h2.2c.2,.1,.4,.3,.4,.5,0,.2-.2,.4-.4,.4h-2.4v-.2c-.1,0-.3,0-.3-.3,0-.2,.1-.4,.2-.4,.2-.1,.2,0,.2,0h.3Z"/></g></g></g></svg>