<?xml version="1.0" encoding="UTF-8"?><svg xmlns="http://www.w3.org/2000/svg" xmlns:xlink="http://www.w3.org/1999/xlink" viewBox="0 0 396.3 129.1"><defs><style>.d{fill:none;}.e,.f{opacity:.4;}.e,.f,.g{mix-blend-mode:darken;}.e,.g,.h{fill:#00733b;}.f,.i{fill:#ed3624;}.g{opacity:.4;}.j{fill:#1749b3;}.k{clip-path:url(#c);}.l{clip-path:url(#b);}.m{isolation:isolate;}.n{opacity:0;}</style><clipPath id="b"><rect class="d" x="-10.5" y="-69.1" width="419.5" height="297.6"/></clipPath><clipPath id="c"><rect class="d" x="-10.5" y="-69.1" width="419.5" height="297.6"/></clipPath></defs><g class="m"><g id="a"><g class="n"><path d="M62.7,25.8v-1.9c.8,.3,1.6,.4,2.2,.4s1.4-.2,1.7-.7c.3-.5,.5-1.3,.5-2.5V7.7h2.2v13.3c0,3.3-1.6,5-4.7,5s-1.1,0-1.9-.2Z"/><path d="M82.5,23l-1.7-4.2h-6.5l-1.7,4.2h-2l6-15.2h2.1l5.9,15.2h-2.3Zm-2.3-5.8l-2.6-6.6-2.6,6.6h5.2Z"/></g><g class="n"><path d="M92.7,17.6V7.4h5.7v1.1h-4.2v3.4h3.6v1.1h-3.6v4.6h-1.4Z"/><path d="M102.5,17.6V8.5h-3.6v-1.1h8.6v1.1h-3.6v9.1h-1.4Z"/><path d="M110.1,17.6l-2.6-10.2h1.4l2.1,8,1.9-8h1.4l1.8,7.9,2.2-7.9h1.2l-2.8,10.2h-1.4l-1.8-7.8-1.9,7.8h-1.4Z"/></g><g class="n"><path d="M140.6,15.8v-1.6h1.6v1.6h-1.6Zm0,10.7v-9h1.6v9h-1.6Z"/><path d="M147.6,26.7c-.7,0-1.7-.2-2.7-.5v-1.5c1.1,.5,2,.8,2.8,.8s.9-.1,1.2-.4,.5-.6,.5-1c0-.6-.4-1-1.3-1.4l-1-.4c-1.4-.6-2.1-1.4-2.1-2.5s.3-1.4,.8-1.9c.6-.5,1.3-.7,2.3-.7s1.1,0,1.9,.2h.3v1.4c-.9-.3-1.6-.4-2.2-.4-1.1,0-1.6,.4-1.6,1.1s.4,.9,1.2,1.2l.8,.3c.9,.4,1.5,.8,1.9,1.2,.4,.4,.6,.9,.6,1.6s-.3,1.4-.9,2c-.6,.5-1.4,.8-2.4,.8Z"/></g><g class="n"><path d="M233.7,40v-9.6h1.7v1.8c.8-1.3,1.9-2,3.3-2s2.2,.7,2.6,2c.8-1.3,1.9-2,3.2-2s1.5,.2,2,.7c.5,.5,.7,1.2,.7,2.1v7h-1.7v-6.7c0-1.1-.4-1.6-1.3-1.6s-1.8,.6-2.8,1.9v6.4h-1.7v-6.7c0-1.1-.4-1.6-1.3-1.6s-1.8,.6-2.8,1.9v6.4h-1.7Z"/><path d="M252.2,31.7v8.3h-1.7v-8.3h-1.4v-1.3h1.4v-1.1c0-2.3,1-3.4,3.1-3.4s1.2,0,2,.3v1.4c-.8-.2-1.4-.4-1.9-.4s-1,.1-1.2,.4c-.2,.3-.3,.8-.3,1.5v1.3h2.4v1.3h-2.4Z"/><path d="M256.3,28.6v-1.7h1.7v1.7h-1.7Zm0,11.3v-9.6h1.7v9.6h-1.7Z"/></g><g class="n"><path d="M132.5,38.8v-10.2h3.1c1,0,1.7,.2,2.2,.6,.5,.4,.8,1.1,.8,1.9,0,1.4-.7,2.3-2.1,2.9l3.4,4.8h-1.8l-2.9-4.3h-1.3v4.3h-1.4Zm1.4-5.4h.5c1.8,0,2.7-.7,2.7-2.1s-.8-1.6-2.3-1.6h-.9v3.7Z"/><path d="M143.2,39c-.7,0-1.6-.1-2.6-.4v-1.4c1.1,.5,2.1,.8,2.8,.8s1-.1,1.4-.4c.3-.3,.5-.7,.5-1.2s-.1-.7-.3-1c-.2-.3-.6-.6-1.3-.9l-.7-.4c-.9-.5-1.5-1-1.8-1.4-.4-.4-.5-.9-.5-1.5s.3-1.4,.9-1.9c.6-.5,1.3-.8,2.2-.8s1.6,.1,2.5,.4v1.3c-1.1-.4-1.9-.6-2.4-.6s-.9,.1-1.2,.4-.5,.6-.5,1,.1,.6,.4,.9c.2,.3,.7,.6,1.3,.9l.7,.4c.9,.5,1.5,1,1.8,1.4,.3,.4,.5,1,.5,1.6,0,.9-.3,1.6-1,2.1-.7,.5-1.5,.8-2.6,.8Z"/><path d="M149.8,38.8l-2.6-10.2h1.4l2.1,8,1.9-8h1.4l1.8,7.9,2.2-7.9h1.2l-2.8,10.2h-1.4l-1.8-7.8-1.9,7.8h-1.4Z"/></g><g class="n"><path d="M168.2,52.3v-18.1h10.1v1.9h-7.6v5.8h6.3v1.9h-6.3v6.6h8.1v1.9h-10.7Z"/><path d="M181.9,52.3v-18.1h2.6v18.1h-2.6Z"/><path d="M189.2,52.3v-18.1h2.5l9.1,14v-14h2.2v18.1h-2.5l-9.1-14v14h-2.2Z"/></g><g class="n"><path d="M199.1,42.7c-.6,0-1.4-.1-2.4-.4v-1.3c1.1,.5,1.9,.7,2.6,.7s1-.1,1.3-.4c.3-.3,.5-.6,.5-1.1s-.1-.7-.3-.9c-.2-.3-.6-.5-1.2-.9l-.6-.4c-.8-.5-1.4-.9-1.7-1.3s-.5-.9-.5-1.4,.3-1.3,.8-1.8c.5-.5,1.2-.7,2-.7s1.5,.1,2.3,.4v1.2c-1-.4-1.7-.6-2.2-.6s-.8,.1-1.1,.4c-.3,.2-.5,.6-.5,.9s.1,.6,.3,.8c.2,.2,.6,.5,1.2,.9l.7,.4c.8,.5,1.4,.9,1.7,1.3,.3,.4,.5,.9,.5,1.5,0,.8-.3,1.5-.9,2-.6,.5-1.4,.7-2.4,.7Z"/><path d="M205,42.4l-2-6.9h1.2l1.5,5.4,1.6-5.4h1.3l1.4,5.4,1.7-5.4h1.1l-2.3,6.9h-1.3l-1.5-5.4-1.7,5.4h-1.3Z"/></g><g class="n"><path d="M7.2,68.4l-1.3-3.4H.7l-1.4,3.4h-1.6l4.9-12.3h1.7l4.8,12.3h-1.9Zm-1.8-4.7l-2.1-5.3-2.1,5.3H5.4Z"/><path d="M11.1,68.4l-3.2-12.3h1.7l2.5,9.7,2.3-9.7h1.7l2.2,9.6,2.7-9.6h1.4l-3.5,12.3h-1.7l-2.2-9.5-2.3,9.5h-1.7Z"/></g><g class="n"><path d="M42.2,69.4v-10.9h2.1l3,8.4,3.1-8.4h1.9v10.9h-1.4v-8.8l-3,8.1h-1.5l-2.9-8.1v8.9h-1.3Z"/></g><g class="n"><path d="M168.7,84.9v-25.4h3.6v25.4h-3.6Z"/><path d="M184.9,85.3c-1.7,0-3.1-.5-4-1.5-1-1-1.4-2.3-1.4-4.1v-10.9h-2.3v-2.5h2.3v-3.4l3.4-.3v3.7h4.9v2.5h-4.9v10.3c0,2.4,1.1,3.7,3.2,3.7s1,0,1.6-.2v2.3c-1,.3-1.9,.4-2.7,.4Z"/></g><g class="n"><path d="M188.1,75.8v-10.2h1.4l5.1,7.8v-7.8h1.2v10.2h-1.4l-5.1-7.8v7.8h-1.2Z"/><path d="M200.3,76c-.6,0-1.4-.1-2.2-.4v-1.2c.9,.4,1.7,.7,2.3,.7s.7-.1,1-.3c.3-.2,.4-.5,.4-.8,0-.5-.4-.8-1.1-1.1l-.8-.3c-1.2-.5-1.7-1.2-1.7-2.1s.2-1.2,.7-1.5c.5-.4,1.1-.6,1.9-.6s.9,0,1.5,.2h.3v1.2c-.8-.2-1.4-.3-1.8-.3-.9,0-1.3,.3-1.3,.9s.3,.8,1,1l.7,.3c.7,.3,1.3,.6,1.6,1,.3,.3,.5,.8,.5,1.3s-.3,1.2-.8,1.6c-.5,.4-1.2,.6-2,.6Z"/><path d="M210,75.8v-1.4c-.7,1-1.6,1.6-2.6,1.6s-1.2-.2-1.5-.6-.6-1-.6-1.7v-5.3h1.4v4.9c0,.6,0,1,.2,1.2s.4,.4,.8,.4c.8,0,1.6-.5,2.3-1.6v-4.8h1.4v7.4h-1.4Z"/></g><g class="n"><path d="M192.9,120.6c-1,0-1.8-.3-2.4-1-.6-.7-.9-1.5-.9-2.6s.3-2,.9-2.6,1.4-1,2.4-1,1.8,.3,2.4,1,.9,1.5,.9,2.6-.3,2-.9,2.7c-.6,.6-1.4,1-2.5,1Zm0-.9c1.3,0,2-.9,2-2.7s-.7-2.7-2-2.7-2,.9-2,2.7,.6,2.7,1.9,2.7Z"/></g><g class="n"><path d="M315.1,131.5v-44.2h6.3v44.2h-6.3Z"/><path d="M342.8,132.3c-3,0-5.3-.9-7-2.6-1.7-1.7-2.5-4.1-2.5-7.1v-19.1h-4.1v-4.4h4.1v-5.9l5.9-.6v6.5h8.5v4.4h-8.5v18c0,4.2,1.8,6.4,5.5,6.4s1.7-.1,2.8-.4v4.1c-1.8,.5-3.4,.7-4.7,.7Z"/></g><g class="l"><path class="f" d="M47.4,16.3c0-.8,.6-1.4,1.4-1.4s1.4,.6,1.4,1.4v31.7c0,.8-.6,1.4-1.4,1.4s-1.4-.6-1.4-1.4V16.3Z"/><path class="f" d="M47.4,79.7c0-.8,.6-1.4,1.4-1.4s1.4,.6,1.4,1.4v31.7c0,.8-.6,1.4-1.4,1.4s-1.4-.6-1.4-1.4v-31.7Z"/><path class="g" d="M176.4,110.9c0,.8-.6,1.4-1.4,1.4-.8,0-1.4-.6-1.4-1.4,0-.8,0-.4,0-.5l.3-.6c.4-.6,1.3-.8,1.9-.4,.6,.4,.8,1.3,.4,1.9h0c0,0,0-.5,0-.4m.4-30.6c.3,.7,0,1.5-.6,1.8-.7,.3-1.5,0-1.8-.6,0,0,0,0,0,0,0,0,.1,.2,0,.1,0,0,.3,.3,.2,.2-.1,0,.7,.2,.5,.2-.2,0,1-.2,.7,0-.2,0,.6-.5,.5-.3,0,.1,.2-.3,.2-.3,0,.1,.1-.3,0-.3,0,.1,0,0,0,0v12.5c0,2,.4,4,.4,6.1v4.7l-.2,2.2v3.1l-.4,.9v.6c-.2,0,.1-.2-.3,.4-.4,.6-1.3,.8-1.9,.4-.6-.4-.8-1.3-.4-1.9,.1-.2-.1,.3-.1,.2,0-.2,0,.1,0,.1h0v-.6l.4-.7v-2.6l.2-2.2v-4.5c0-1.9-.3-3.9-.4-6.1v-12c0-.4,0-.6,0-1.1,0-.1,0-.3,.3-.7,.2-.3,.8-.6,1.3-.5,.7,.1,.9,.4,1,.6l.2,.4Z"/><path class="g" d="M175.6,50c-.7,.3-1.5,0-1.8-.7-.3-.7,0-1.5,.7-1.8,.2,0-.4,.2-.3,.2,0,0-.2,.2-.2,.1,.1-.2-.1,.2-.1,.2,0,0,0,0,0,0l.2-.7,.2-.4c.4-.6,1.2-.8,1.9-.4,.6,.4,.8,1.2,.4,1.9v.2h-.1l-.2,.7v.2h-.2v.2c-.1,0,0,.1-.6,.4m.3-34.3c.8,0,1.3,.7,1.3,1.4,0,.8-.7,1.3-1.4,1.3,0,0,.2,0,.1,0-.1,0,.7-.4,.5-.3-.1,.1,.3-.4,.2-.3,0,.1,0-.1,0-.1v.3c0,1.4,0,3.5,0,5.6v16l-.2,.8v1.8c0,1,.1,1.8,.2,2.9v1.9l-.2,1v.4h0s-.1-.5,0-.4v.3h0s-.1-.3,0-.2c.3,.7,0,1.5-.7,1.8-.7,.3-1.5,0-1.8-.7-.2-.4,0-.2-.1-.3-.3-.9,0-1.1,0-1.2v-.9l.2-1.6c0-.8-.2-1.8-.2-2.9v-4.7l.2-4.5v-9.4c0-2.2,0-4.3,0-5.5,0-.4,0-.8,.2-1.3,.3-.7,1.2-1.1,1.9-1.1"/><path class="e" d="M175.5,17.7c-.8,0-1.4-.6-1.4-1.4s.6-1.4,1.4-1.4h15.8c.8,0,1.4,.6,1.4,1.4s-.6,1.4-1.4,1.4h-15.8Z"/><path class="g" d="M176.4,111c-.7-.2-1.1-1-.9-1.7,.2-.7,1-1.1,1.7-.9,0,0-.3,0-.2,0,0,0-.5,0-.4,0,.1,0-.7,.3-.5,.2,.2,0-.5,.5-.4,.4,.1-.1-.3,.5-.2,.4,0-.2,0,.6,0,.5,0-.2,.1,.4,0,.4,0,0,0,.2,0,.2h0c0-.1,0,0,0,0l-.3-.4,2.4-1.2c0,.2-.4-.4-.3-.4,.1,.1-.4-.3-.3-.2,.1,0-.2,0-.2,0,0,0,.3,0,.7,.3,.4,.2,2.4,.6,4.2,.6h2.9l.7,.2h2.7l1.1-.2,.6-.2h.3c0,0-.3,.2-.2,0,0,0-.4,.5-.3,.3,0-.2-.2,.9-.2,.6,0-.2,.2,.8,.1,.6,0-.2,.3,.5,.3,.4-.2-.2,.4,.3,.4,.3-.1,0,.3,.1,.3,0-.2,0,.2,0,.2,0h0s.3-.1,.2,0c-.7,.3-1.5,0-1.8-.6s0-1.5,.6-1.8c.4-.2,.7-.2,.9-.2h.6c0,0,.2,0,.6,.4,.2,.2,.4,.5,.4,1,0,.5-.3,.8-.5,1-.7,.6-.8,.4-1,.5l-.8,.2-1.3,.2c-.7,0-1.4,.1-2.1,.1h-1.3l-.6-.2h-2.5c-2,0-4-.2-5.4-1h-.4c-.1-.2-.4-.1-.7-.8-.3-.7,0-1.5,.6-1.8,.7-.3,1.5,0,1.8,.6,0,.1-.1-.2-.1-.2l.3,.4h0v.4c.2,.1,.4,.5,0,1.1-.4,.7-1.3,.7-1.6,.6"/><path class="f" d="M48.8,112.7c-.8,0-1.4-.6-1.4-1.4s.6-1.4,1.4-1.4H191.4c.8,0,1.4,.6,1.4,1.4s-.6,1.4-1.4,1.4H48.8Z"/><path class="f" d="M48.8,17.7c-.8,0-1.4-.6-1.4-1.4s.6-1.4,1.4-1.4h79.2c.8,0,1.4,.6,1.4,1.4s-.6,1.4-1.4,1.4H48.8Z"/><path class="f" d="M159.8,17.7c-.8,0-1.4-.6-1.4-1.4s.6-1.4,1.4-1.4h31.6c.8,0,1.4,.6,1.4,1.4s-.6,1.4-1.4,1.4h-31.6Z"/><path class="g" d="M178,19.6c0,.7-.5,1.4-1.2,1.5-.7,0-1.4-.5-1.5-1.2,0-.7,.5-1.4,1-1.6,.4-.2,.6-.2,.8-.2,2.4,0,5,.3,7,.2h5.3c.5,0,1-.2,1.2-.3h0s-.3,.1-.2,0c0,0-.4,.3-.2,.2,.1-.1-.2,2-.3,1.3-.2-.7,1.2,1.1,1,1-.2,0,.4,0,.3,0-.2,0,.3,0,.2,0h-.2c-.7,.3-1.5,0-1.7-.8-.2-.7,.1-1.5,.9-1.7h.3c0-.1-.1-.3,.7-.1,.1,0,.4,0,.7,.3,.3,.3,.5,1,.4,1.4-.4,1.2-.6,.8-.7,.8-.6,.3-1.3,.5-2.3,.5h-5.3c-2.3,.2-5-.2-7-.1h0s.1,0,0,0c0,0,.3-.1,.2,0-.1,0,.6-.7,.4-.4-.1,.2,.1-.9,.1-.7"/></g><g class="k"><path d="M63.3,64.1c0-2.7-.7-5.3-2-7.5-2.6-4.4-7.4-7.4-12.9-7.4s-5.3,.7-7.5,2c-4.4,2.6-7.4,7.4-7.4,12.9s.7,5.3,2,7.5c2.6,4.4,7.4,7.4,12.9,7.4s5.3-.7,7.5-2c4.4-2.6,7.4-7.4,7.4-12.9m.8,0c0,5.8-3.1,10.9-7.8,13.6-2.3,1.4-5,2.1-7.9,2.1-5.8,0-10.9-3.1-13.6-7.8-1.4-2.3-2.1-5-2.1-7.9,0-5.8,3.1-10.9,7.8-13.6,2.3-1.4,5-2.1,7.9-2.1,5.8,0,10.9,3.1,13.6,7.8,1.4,2.3,2.1,5,2.1,7.9"/><path d="M41.6,63.8c0-.2,.2-.4,.4-.4,.2,0,.4,.2,.4,.4v.7h0s0-.2,0-.2h0c0,0-.2-.2-.1-.2h-.1c0,0-.2,0-.2,0h0l1.1-1.6,1.8-2.7,2-2.8,.9-1.1c.3-.3,.6-.5,1-.4,.2,0,.3,.2,.3,.3,0,.3,0,.4,0,.6l-.2,.6-.5,2.1v.8h.2c.6-.1,1.8-1.3,2.8-2,.4-.3,.6-.5,1-.6,.3,0,.7,0,.8,.3,.2,.5,0,.9-.1,1.4l-.5,1.4-.3,1.1c0,.2,0,.3,.1,.4,.2,.1,.2,.4,.1,.6-.1,.2-.4,.2-.6,.1-.4-.3-.5-.7-.5-1.1,0-.4,.2-.8,.3-1.3l.5-1.4,.2-.6v-.2h.1l-.7,.6c-.9,.7-2,2-3.2,2.2-.4,0-1,0-1.1-.5-.1-.4,0-.8,0-1.2l.6-2.2,.2-.6v-.2h0s0,.2,0,.2h.2c0,.1,0,.1,0,.1l-.3,.2-.9,1.1-2,2.7-1.8,2.7-1.1,1.6c0,0,0,.1-.2,.3-.2,0-.5,0-.5-.2-.2-.3,0-.3,0-.4v-.6Z"/><path d="M41.6,70.2c-.2,0-.4-.2-.4-.4s.2-.4,.4-.4h10.3c.2,0,.4,.2,.4,.4s-.2,.4-.4,.4h-10.3Z"/><path d="M49.2,48c0,.2-.2,.4-.4,.4s-.4-.2-.4-.4V16.3c0-.2,.2-.4,.4-.4s.4,.2,.4,.4v31.7Z"/><path d="M48.4,79.7c0-.2,.2-.4,.4-.4s.4,.2,.4,.4v31.7c0,.2-.2,.4-.4,.4s-.4-.2-.4-.4v-31.7Z"/><path d="M48.8,16.7c-.2,0-.4-.2-.4-.4s.2-.4,.4-.4H191.4c.2,0,.4,.2,.4,.4s-.2,.4-.4,.4H48.8Z"/><path d="M192.8,14.8c-.1,.2-.4,.3-.6,.2-.2-.1-.3-.4-.2-.6v-.2h0c0,0-.3,.7-.4,1.3,0,.7,0,1.4,.3,1.9,.2,.3,.7,.6,1.3,.6,.4,0,.7,0,1,0,.7-.1,1.4-.9,1.8-1.6,.2-.3,.2-.7,.2-.9,0-.3-.4-.6-1.1-.7-.7,0-1.7,0-2.6,.6-.2,.1-.4,0-.6-.2-.1-.2,0-.4,.2-.6,1.1-.6,2.2-.8,3.1-.7,.9,.1,1.7,.6,1.8,1.5,0,.4,0,.9-.3,1.4-.5,.8-1.3,1.8-2.3,2-.5,0-.9,0-1.2,0-.8,0-1.5-.4-1.9-1-.5-.7-.6-1.7-.5-2.5l.2-1c.1-.3,.2-.6,.6-.8,.3-.2,.8-.2,1,0,.3,.3,.3,.8,0,1.1"/><path d="M105.7,16c0,.2-.3,.3-.5,.2-.2,0-.3-.3-.2-.5h0v.2h.2l-.3,.2v.6c0,.2,.4,.3,.7,.3,.2,0,.6-.4,.7-.8,0-.1,0-.2,0-.2,0,0-.2-.1-.4-.1-.3,0-.6,.1-.8,.4-.1,.1-.2,.4-.2,.6,0,.2,0,.4,.2,.5,0,0,.3,0,.5,0,.2,0,.5-.4,.5-.6h0l-.4,.4c-.2,.2-.4,.5-.4,.6,0,0,0-.2,0-.1h0c0,0-.2,0-.2,0h-.1c0,0-.1,0-.1,0h0l.2-.3v-.3s-.3-.2-.4,.3c0,.2-.2,.4-.4,.4-.2,0-.4-.2-.4-.4,0-.6,.5-1,1-1,.4,0,1,.2,1,.7,0,.2,0,.5-.1,.8l-.2,.4v.2h-.2c0,.1-.2,.2-.4,.1l-.2-.2c0,0-.2-.3-.2-.5,0-.4,.3-.8,.7-1.1,.3-.2,.6-.5,1-.4,.4,0,.8,.4,.7,.9,0,.5-.4,1.1-1.1,1.3-.4,0-.8,.1-1.2-.2-.4-.3-.6-.8-.5-1.3,0-.4,.2-.7,.5-1,.4-.4,.9-.7,1.4-.6,.4,0,.7,.1,1,.4,.2,.3,.3,.7,.1,1.1-.2,.5-.6,1.1-1.2,1.2-.7,.2-1.5-.1-1.7-.9v-.7c0-.2,0-.5,.2-.8,.2-.2,.6-.3,.9-.3,.2,0,.3,0,.5,.2,.1,.2,.1,.4,0,.6"/><path class="j" d="M.6,62.9c.2,0,.4,0,.5,.3,0,.2,0,.4-.3,.5-.2,0-.4,.1-.6,0-.2-.1-.2-.4-.2-.5,0-.4,.3-.8,.7-1.3l1.5-2,3.6-4.9,.9-1.3c.2-.3,.4-.6,.7-.7,.1,0,.4,0,.5,0,.3,.2,.2,.2,.2,.3,0,.2,0,.5,0,.9l-.5,2.5c-.3,1.1-.4,2.1-.5,3v1.1c.2,.2,.2,.4,0,.6-.2,.1-.4,0-.6,0-.2-.3,0-.3-.1-.4v-.3c-.2-.2-1.1-.6-1.8-1-.3-.2-.7-.4-.9-.6-.1,0-.2-.3-.2-.5,0-.2,.2-.3,.3-.4,.3-.2,.8-.2,1.3-.2h2c.2,.1,.4,.3,.4,.6,0,.2-.2,.4-.4,.4-.9,0-1.8-.1-2.4-.1h-.5c0,0,0-.1,0,0h0c0,0,0-.3,0-.3h0l.8,.4c.6,.4,1.6,.6,2,1.4l.2,.5v.2h0l-.7,.4c-.1-.2-.2-.4-.3-.8v-.8c0-.8,.2-1.9,.5-3.1l.5-2.5v-.5h0c0-.2,0,0,0,0h0c0,0,.3,.2,.2,.2,0,0,.3,0,.3,0l-1.3,1.8-3.6,4.9-1.5,2-.5,.9s-.1-.2,0-.1c0,0-.1-.1-.1,0h0Z"/><path class="j" d="M12.6,54.2c0,.2-.2,.4-.4,.4-.2,0-.4-.2-.4-.4v-.7h0v-.2h.1c0-.2,.3-.3,.5-.2,.2,.1,.2,.2,.2,.3v.3c0,.4-.1,1-.3,1.9l-.5,2.9c-.1,.9-.2,1.7-.1,2.1,0,.2,0,.1,0,.1,.4,0,1.4-1,2.2-1.7,.3-.2,.6-.5,.9-.6,.4-.1,.8,0,1,.3,.3,.4,.2,.8,.3,1,0,.2,.2,.3,.2,.3h0c.3-.1,.9-1.7,1.5-3.4,.3-.8,.6-1.6,1-2.3,.4-.7,.8-1.2,1.4-1.4,.2,0,.4,0,.5,.3,0,.2,0,.4-.3,.5-.2,0-.6,.4-.9,1.1-.6,1-1,2.4-1.5,3.7-.2,.6-.5,1.1-.7,1.6-.2,.4-.6,.8-1.1,.7-.5,0-.8-.5-.9-1v-.4h0c0-.2,0-.2-.2-.2l-.6,.4-1.3,1.1c-.5,.4-.9,.7-1.4,.7-.4,0-.9-.3-1-.8-.1-.6,0-1.5,.1-2.4,.3-2,.8-4.1,.8-4.7h0s.3,.3,.2,.2c-.1,0,.6-.1,.5,0,0,0,.1-.2,.1-.1,0,0,0,0,0,0h0v.6Z"/><path class="j" d="M205.3,16.4c-.2,0-.4-.2-.4-.5,0-.2,.2-.4,.5-.4,.8,0,3.3-.5,5.1-.2,.2,0,.4,.3,.3,.5,0,.2-.3,.4-.5,.3-.7-.1-1.8,0-2.7,0-1,0-1.8,.2-2.3,.2"/><path class="j" d="M207.6,13c.2,0,.4,0,.5,.3,0,.2,0,.4-.3,.5h.1c-.3,.4-.3,3.3,0,4.9,0,.2,0,.4-.3,.5-.2,0-.4,0-.5-.3-.3-1-.3-2.3-.3-3.5v-1.5l.3-.5c0-.2,.1-.4,.4-.4"/><path d="M267.2,16.3c0-.2,.2-.4,.4-.4s.4,.2,.4,.4V111.4c0,.2-.2,.4-.4,.4s-.4-.2-.4-.4V16.3Z"/><path d="M267.6,111.8c-.2,0-.4-.2-.4-.4s.2-.4,.4-.4h126.7c.2,0,.4,.2,.4,.4s-.2,.4-.4,.4h-126.7Z"/><path d="M267.3,17.4c0,.2,0,.4-.3,.5-.2,0-.4,0-.5-.3h0s.2,.2,.1,.1c0,0,.3,0,.2,0,0,0,.2,0,.2,0h0l-.5,3.1-.2,1.4v.8h-.1c0,0-.1-.3,0-.2,0,0-.2-.1-.1,0,0,0-.3,0-.3,0,0,0-.2,0-.2,0h0l.2-1.1c.3-1.2,.8-2.8,1.1-4.1l.3-1.5v-.5h0s.5,.3,.3,.3c-.2,0,.5-.2,.4-.2,0,0,0-.1,0-.1,0,0,0,0,0,0h0v1c0,1.3,.2,2.8,1.4,4.1,.2,.2,.1,.4,0,.6-.2,.2-.4,.2-.6,0-1.4-1.5-1.6-3.2-1.7-4.6v-1.1h0c0-.1,0-.3,.3-.4,.2,0,.4,0,.4,.1,.2,.2,0,.2,0,.2v.8l-.3,1.5c-.3,1.4-.8,2.9-1.1,4.1l-.2,.8c0,.2,0,.5-.3,.7,0,0-.3,.1-.4,0-.3-.1-.2-.3-.2-.3,0-.3,0-.6,.1-1.1l.2-1.4,.5-3v-.5l.3-.2c0,0,.3,0,.4,0,.3,.1,.3,.3,.3,.4"/><path d="M390.9,109c.2,.1,.2,.4,0,.6-.1,.2-.4,.2-.6,0-.2-.2-.4-.3-.5-.6,0-.3,.2-.5,.4-.6,.5-.2,1,0,1.6,0,1.5,.3,3.2,1.3,4,2.5,.5,.7,.6,1.7,0,2.3-.5,.5-1.4,.8-2.2,1l-2.3,.6c-.2,0-.4,0-.5-.3,0-.2,0-.4,.3-.5,1.4-.4,3.6-.7,4.2-1.4,.3-.3,.3-.7,0-1.2-.6-1-2.2-1.9-3.5-2.2-.5-.1-1-.1-1.1-.1h0s0-.3,0-.3h.1Z"/><path d="M371.1,119.1c0,.2-.2,.4-.5,.3-.2,0-.4-.2-.3-.5v-.2h0s.2,.2,.1,.1h0c-.5,.6-1.3,2.7-1.7,4.3-.2,.7-.3,1.3-.3,1.7,0,.2,0,.2,.1,.2,.5,.1,2-.7,2.8-1.7,.1-.2,.4-.2,.6,0,.2,.1,.2,.4,0,.6-.6,.8-1.5,1.5-2.4,1.8-.4,.2-.8,.3-1.2,.2-.4-.1-.7-.5-.7-1,0-.6,0-1.2,.3-2l.9-2.7c.3-.8,.6-1.5,1.1-1.9,.2-.2,.5-.4,.9-.3,.4,.2,.4,.6,.3,1"/><path d="M369.5,121c.2,.1,.2,.4,.1,.6s-.4,.2-.6,.1h-.3c0,0,.2-.3,.1-.2,0,0,0-.2,0-.1,0,0,0-.2,0-.2,0,0,0-.2,0-.1,0,0-.1-.1,0-.1,0,0,0,0,0,0l2.5,.3c.2,0,.4,.2,.4,.5,0,.2-.2,.4-.5,.4l-1.8-.2h-.7l-.2-.2h-.1c0,0-.2-.1-.2-.4,0-.2,0-.3,.1-.4,.2-.2,.3-.1,.3-.1h.3c.2,0,.4,0,.7,.2"/><path d="M381,123.2c-.2,0-.4-.3-.3-.5,0-.2,.3-.4,.5-.3h0c0,0,.3-.3,.3-.6v-.3s-.1-.1-.4-.1c-.2,0-.6,.3-.7,.6,0,.2-.1,.4,0,.7l.2,.4,.7,.8c.4,.6,.4,1.3,0,1.8-.4,.5-1.2,.7-2,.6-.2,0-.4-.3-.3-.5,0-.2,.3-.4,.5-.3,.6,.1,1.1,0,1.2-.3,.2-.2,.2-.5,0-.8l-.7-.8c-.2-.2-.3-.5-.3-.8,0-.4,0-.8,.1-1.2,.3-.5,.8-1,1.4-1,.5,0,1,.1,1.2,.7,0,.3,0,.5,0,.8,0,.3-.2,.6-.4,.8-.2,.2-.5,.5-.9,.4"/><path d="M376,118.5c.1-.2,.4-.2,.6,0,.2,.1,.2,.4,0,.6-.1,.2-.8,2.5-1.4,4.9-.4,1.5-.8,2.8-.9,3.6v.4h-.1v-.2h.6c1,0,2.1,.2,3.1,.4,.2,0,.4,.2,.3,.5,0,.2-.2,.4-.5,.3-1.1-.2-2.1-.3-3-.3h-1c-.1-.2-.3-.4-.3-.6,0-.3,0-.5,0-.7,.1-.9,.6-2.2,1-3.7l.9-3.3,.3-1.2,.3-.7Z"/><path d="M376.7,118.7c.2,.2,.2,.4,0,.6-.2,.2-.4,.2-.6,0-.2-.2-.4-.6-.2-.9,.1-.3,.4-.4,.7-.5,.8-.2,2,0,3.6,.4,.2,0,.4,.3,.3,.5,0,.2-.3,.4-.5,.3-1.5-.3-2.7-.5-3.2-.4h0Z"/><path d="M384.9,118.6c.1,.2,0,.4-.2,.6-.2,.1-.4,0-.6-.2-.1-.2-.2-.5,0-.7,.2-.4,.5-.4,.8-.4h.9c.6,.3,1.1,.5,1.5,.9,.4,.4,.6,1,.6,1.6,0,.5-.1,1.1-.3,1.8l-1,4.2-.2,1.1-.2,.5v.2c0,.1-.1,.4-.4,.6-.4,.3-.7,0-.9,0-.8,0-1.6-.1-2.7,0-.2,0-.4-.2-.4-.4,0-.2,.2-.4,.4-.4,1.2,0,2,0,2.8,0h.4v-.2h0v-.2l.2-.5,.2-1.1,1-4.2c.2-.7,.3-1.2,.3-1.6,0-.9-.5-1.4-1.5-1.7-.3,0-.7-.1-.8,0h0Z"/><path d="M372.3,115.9c-.2,.1-.4,0-.6-.2-.1-.2,0-.4,.2-.6h.3c.1-.1,.4,0,.5,.1,.2,.3,0,.4,0,.6-.2,.4-.5,1-.9,1.8l-1.2,2.4-.5,1.2-.3,.8v.4h-.2c0,.2-.2,.3-.4,.3-.2,0-.3-.1-.3-.2-.2-.3,0-.3,0-.4v-.4l.4-1.1,1.1-3.3,.4-1.1,.2-.7v-.5h.2c0,0,0,.1,0,0h0c0,0,.1,.2,0,.2,0,0,.2,0,.1,0,0,0,.3,0,.2,0h.2l-.2,.4c-.5,1.5-1.6,3.7-2.5,5.8-.5,1.1-.7,2.1-.9,2.9l-.3,1.2v1.1c-.1,0-.3-.2-.2-.2h.2c1.1-.4,2.6-1,3.7-1.5,.2,0,.4,0,.5,.2,0,.2,0,.4-.2,.5-1.1,.5-2.6,1.2-3.8,1.5h-.8c-.1,0-.3-.1-.3-.3,0-.3,0-.5,0-.7v-.7l.4-1.3c.2-.8,.5-1.8,1-3,.9-2.1,2-4.3,2.5-5.7,0-.3,.1-.5,.3-.7,0,0,0-.2,.3-.2,.2,0,.3,.1,.4,.2,.2,.3,0,.3,0,.3l-.2,.8-.2,.7-.4,1.1-1.1,3.3-.3,1v.3h0v-.2s-.2-.1-.1,0c0,0-.2,0-.2,0,0,0-.2,0-.2,0,0,0-.2,.1-.2,0,0,0,0,.1,0,.1h0v-.4l.5-.8,.5-1.2,1.2-2.4,.8-1.6v-.2c0,0,0,0,0,0h0c0,0,.1,.2,0,.2h.1c0,0,.2,.1,.2,.1h0Z"/><path d="M368.9,120.7c.2,0,.3,.3,.2,.5,0,.2-.3,.3-.5,.2-.3-.1-.5-.1-.6-.4,0-.2,0-.5,.1-.6h.3c.4-.2,.7,0,1,0l.8,.2h.4c0,0,0,.4,0,.3,0,0,.1,.3,0,.2h-4.8c-.2-.2-.2-.5-.1-.6l.2-.3c.1-.2,.4-.2,.6,0,.2,.1,.2,.4,0,.6h0c0,0-.2-.4-.1-.3,0,0-.1,0,0,0h4.4c.2,0,.4,0,.6,.3,.1,.1,.1,.3,0,.5-.2,.4-.4,.4-.7,.4h-.6l-.8-.2h-.7v-.2s.2-.2,.2-.1c0,0,0-.3,0-.2,0,0,0-.2,0-.1,0,0,0,0,0,0h.3Z"/><path d="M367.6,125.9c-.2,0-.4-.2-.4-.4,0-.2,.2-.4,.4-.4h2.7l.2-.2h0s-.1,.2,0,.1c0,0,0,.3,0,.2,0,0,0,.3,0,.2,0,0,.1,.1,0,.1,0,0,.1,0,0,0h-.8c-.7,0-1.4,.2-1.8,.4-.2,0-.4,0-.5-.2,0-.2,0-.4,.2-.5,.5-.2,1.2-.4,2.1-.5h1c0,0,.1,0,.3,0,0,0,.2,.2,.2,.4,0,.3-.2,.3-.2,.3h-.3l-.9,.3h-2.1Zm.6-1.8c0-.2,.2-.4,.5-.4,.2,0,.4,.2,.4,.5,0,.5-.4,.8-.5,.9h.9s-.2,.3-.1,.2c.1-.2,.4-.3,.6-.1,.2,.1,.3,.4,.1,.6-.1,.2-.3,.2-.3,.2-.4,0-.8,0-1.3,0h-.7c-.2,0-.4-.2-.4-.4,0-.2,.2-.4,.4-.4h1.7c0,0-.1,.3-.1,.2l.7,.4c-.1,.2-.2,.2-.2,.2-.2,0-.2,0-.3,0h-.5c-.3,0-.7,0-1-.4-.2-.2-.3-.5,0-.8l.4-.6Z"/><path d="M235.1,25.9c.2-.1,.4-.1,.6,0,.1,.2,.1,.4,0,.6-.1,.1-.3,.7-.4,1.3v.7l-.2,.6v.2h0v.2c0,0,0,.2-.3,.2-.2,0-.4-.1-.5-.3,0-.2,.1-.4,.3-.5,.3,0-.3,.3-.3,.3h0v-.7c.2-.8,.7-1.6,1.1-2.3,.2-.3,.5-.6,.8-.9,.4-.3,.8-.5,1.2-.5,.3,0,.6,0,.9,0,.3,.1,.4,.4,.5,.6v.6c.1,.5,.2,1,0,1.5l-.3,1.2c0,0-.1,0,.1,0,.4,0,1-.3,1.6-.5,.2,0,.4,0,.5,.3,0,.2,0,.4-.3,.5-.5,.1-1.1,.5-1.8,.5-.3,0-.5,0-.7-.2-.2-.2-.3-.4-.3-.6,0-.5,.2-1,.3-1.3,0-.4,0-.8,0-1.3v-.5h-.5c-.2,0-.6,.1-.8,.3-.2,.2-.4,.4-.7,.7-.4,.6-.8,1.3-.9,1.9v.7h0v.2s0,.2-.3,.3l-.2-.8c0,0-.2,0-.2,0h-.1v-.6l.2-.7c.1-.7,.2-1.4,.7-1.8"/><path d="M246.2,28.5c0,.2,0,.4-.3,.5-.2,0-.4,0-.5-.3h0s.3,0,.2,0c0,0,.3,0,.2,0,0,0,.1-.1,.1,0,0,0,0,0,0,0v.7l-.2,.9v.6h-.1c0,0-.2,0-.1,0h.2c.3-.3,.8-1.2,1.3-2l.8-.9c.3-.3,.6-.5,1-.4,.3,.1,.3,.4,.3,.5,0,.4-.1,.8-.2,1.1l-.2,.5v.4h.5c.5-.2,1-.5,1.5-.5,.3,0,.7,.2,.8,.5,0,.3,0,.7-.2,1.1,0,.2-.3,.3-.5,.2-.2,0-.3-.3-.2-.5v-.5c.1-.1,.2,0,.2,0l-1,.3c-.5,.2-.9,.4-1.5,.1-.3-.2-.4-.6-.5-.9v-.5l.3-.5,.2-.7v-.2h0c0,0,.2,.3,.1,.2h.1l-.2,.2-.7,.8c-.5,.7-.9,1.6-1.6,2l-.4,.2c-.2,0-.4,.1-.7-.1-.2-.2-.2-.5-.2-.7v-.6l.2-1v-.8l.3-.2c0,0,.2-.2,.4-.2,.3,0,.3,.2,.4,.3v.2Z"/><path d="M253,29.3c.2-.1,.4,0,.6,.2,.1,.2,0,.4-.2,.6-.1,0-.2,.2-.2,.4,0,.3,0,.6-.1,1,0,.2-.3,.3-.5,.2-.2,0-.3-.3-.2-.5v-.8c0-.4,.2-.9,.6-1.1"/><path d="M254.7,27.1c.2,0,.4,.2,.4,.4,0,.2-.2,.4-.4,.4h-.6c-.2-.2-.3-.4-.2-.6,0-.2,.3-.3,.5-.2h.3Z"/><path d="M255.4,29.1c.2,0,.4,.1,.5,.3,0,.2-.1,.4-.3,.5h-.4v-.2s-.2,0-.2,0h.6l.7-.2c.4,0,.8,.1,1,.5,.2,.3,.2,.7,.2,1.2,0,.2-.2,.4-.4,.4-.2,0-.4-.2-.4-.4,0-.4,0-.7,0-.8,0,0,0,0-.1,0-.2,0-.4,.2-.8,.2h-.9c-.1,0-.3,0-.4-.2-.2-.3,0-.6,.2-.8,.2-.2,.4-.3,.7-.3"/><path d="M258.1,24.8c.2,0,.4,.2,.3,.5,0,.2-.2,.4-.5,.3-.3,0-.4,0-.6-.2,0,0-.1-.1-.1-.3,0-.3,.2-.4,.3-.4,.2-.1,.4,0,.7,0h.9c.2,.1,.4,.4,.3,.6,0,.2-.3,.4-.5,.3-.4,0-.9,0-1,0h.1c0,0,0-.3,0-.2,0,0,0-.2,0-.2,0,0,0-.2,0-.1,0,0-.1-.1,0-.1h.2Z"/><path d="M260.4,26.6c0,.2,0,.4-.3,.5-.2,0-.4,0-.5-.3-.1-.4,0-.8,.2-1,.3-.4,.8-.7,1.3-.7,.3,0,.6,.1,.7,.4,.2,.3,.2,.6,.1,.9,0,.2-.3,.4-.5,.3-.2,0-.4-.3-.3-.5,0-.3,0-.4,0-.4,0,0-.2,0-.5,.2-.2,.2-.3,.4-.3,.5"/><path d="M259.7,27.2c0,.2-.2,.4-.4,.4-.2,0-.4-.2-.4-.4,0-.5,.3-.7,.6-1l1.1-.9,1.1-.9c.2-.1,.4-.2,.6-.3,.2,0,.6,0,.7,.3,.1,.4,0,.6-.1,.8l-.3,.6c-.5,1-.9,1.8-.7,2.6,0,.2,0,.4-.3,.5-.2,0-.4,0-.5-.3-.3-1.1,.2-2.1,.7-3.1l.3-.6v-.2h0s0,.1,0,0h.1v.2h-.2l-1.1,1-1,.8-.3,.3h0Z"/><path d="M244.3,23.3c0,.2-.3,.4-.5,.3-.2,0-.4-.3-.3-.5v-.4l.2-.2h.2c.2-.2,.3,0,.4,0,.2,.2,.1,.3,.1,.4l-.2,1.5-.5,2.5c-.3,1.5-.8,3.2-1.3,4.7l-.8,2.7c-.1,.5-.2,.8-.2,.9h0c.2,0,.9-.1,1.7-.3,1-.3,2-.3,3-.3,.2,0,.4,.2,.4,.4,0,.2-.2,.4-.4,.4-1,0-1.9,0-2.8,.3-.5,.1-1,.3-1.4,.3-.2,0-.5,0-.7,0-.2,0-.5-.3-.5-.6,0-.4,0-.8,.2-1.3l.8-2.7c.5-1.5,.9-3.2,1.3-4.6,.3-1.4,.5-2.6,.6-3.3v-.4h0c0-.1,0,0,0,0,0,0,0,.1,0,0,0,0,.3,.1,.2,.1,0,0,.3,0,.2,0,0,0,.2,0,.1,0,0,0,0-.1,0,0h0v.3Z"/><path d="M244.9,22.7c.2,0,.4,.2,.4,.4,0,.2-.2,.4-.4,.4h-.3s.1,0,0,0c-.1,0,0-.8,0-.8h1.3l3.1,.4c.2,0,.4,.2,.4,.5,0,.2-.2,.4-.5,.4l-3.6-.4h-.9c0,0-.1-.8,0-.9,.2,0,.1,0,.1,0h.3Z"/><path d="M262.9,21.9c.2,0,.4,.2,.4,.4,0,.2-.2,.4-.4,.4h-.2s.1,0,0,0c0,0,.1-.1,0,0,0,0,.1-.3,0-.2,0,0,0-.3,0-.2,0,0,0-.1,0-.1,0,0-.1,0,0,0h.2l1.2,.4c.5,.2,.9,.4,1.2,.8,.3,.4,.4,.9,.4,1.5,0,1.1-.7,2.4-1.1,3.9-.4,1.2-.6,2.6-.6,3.6v.8h0c.1,.2,.4,.2,.7,.6,.2,.2,.1,.5,0,.7l-.3,.5c-.5,.5-1.3,.5-2,.6-.7,0-1.4,.1-1.7,.3-.2,.1-.4,0-.6-.1-.1-.2,0-.4,.1-.6,.6-.4,1.3-.4,2.1-.4,.7,0,1.3-.2,1.4-.3v-.2h.1l-.5-.3c-.1-.1-.3-.3-.4-.5,0-.3,0-.6,0-1,0-1,.3-2.5,.7-3.8,.5-1.5,1.1-2.9,1.1-3.7,0-.9-.3-1.2-1.1-1.5l-1.1-.3c-.2,0-.3,0-.5-.2v-.3c-.1-.3,0-.4,.1-.4,.2,0,.3,0,.4,0"/><path d="M234.4,25.7c0-.2,.1-.4,.4-.5,.2,0,.4,.1,.5,.4v.5l-.3,2.3v1.7h0s-.1-.1,0-.1l-.6,.6c-.2-.2-.1-.3-.1-.3l.2-.9c.1-.6,.4-1.2,.6-1.7l.4-.9c.3-.5,.8-.9,1.3-1.1,.4-.1,.8-.2,1.1,0,.4,.3,.4,.7,.4,.9,.1,.7,0,1.4-.2,2.1v.9c0,.1,0,.2,.1,.2,.5,0,1.6-.7,2.3-1.1,.2-.1,.4,0,.6,.2,.1,.2,0,.4-.2,.6-.6,.3-1.6,1.2-2.7,1.2-.5,0-.9-.4-1-.8,0-.4,0-.8,0-1.2,.1-.7,.3-1.3,.2-1.8v-.3h0c0,0-.2-.1-.4,0-.3,0-.7,.4-.9,.7l-.3,.8c-.2,.5-.4,1.1-.5,1.6v.6l-.2,.2h0c0,0-.1-.3,0-.3,.2,.2,.1,.4,0,.6-.2,.2-.4,.1-.6,0-.2-.2-.1-.2-.1-.3v-1.9l.3-2.3v-.3h0c0,0,0,0,0,0m.8,.4c0,.2-.2,.4-.4,.4-.2,0-.4-.2-.4-.4v-.5c0-.2,.3-.4,.5-.3,.2,0,.4,.3,.3,.5h0v.4Z"/><path class="i" d="M76,12.1c0,.2-.3,.3-.5,.3-.2,0-.3-.3-.3-.5v-.3l.3-.2c.2,0,.5,0,.5,.1,.1,.2,.1,.3,.1,.3v1.6c0,1.1-.1,2.5,0,3.7,0,.6,.1,1.1,.2,1.4,.1,.3,.2,.4,.3,.4,.2,0,.4,.2,.3,.5,0,.2-.2,.4-.5,.3-.4,0-.7-.4-.8-.7-.6-1.2-.5-3.3-.4-5v-2.2h0s.3,.3,.2,.2c0,0,.4,0,.3,0,0,0,.2-.1,.1,0,0,0,0,0,0,0v.2Z"/><path class="i" d="M75.7,12.8c-.1,.2-.4,.2-.6,0-.2-.1-.2-.4,0-.6l.2-.2h0s0,.1,0,0c0,0,.5,.6,.2,.4-.2-.1,.4,0,.4,0h0l-1.4,1.5c-1,1.1-2.5,2.1-3.6,2.8l-1,.5h0s0-.3,0-.2c0,0,0-.3,0-.2,0,0-.2-.2-.1-.2h-.1s-.1,0-.1,0h0l1.1-.2c2.3-.3,4.5,1.2,6.4,2.8,.2,.1,.2,.4,0,.6-.1,.2-.4,.2-.6,0-1.9-1.5-3.9-2.9-5.8-2.6l-1.1,.2h-.3c0,0-.3-.2-.3-.4,0-.3,.2-.3,.2-.3h.2l.8-.6c1-.7,2.4-1.7,3.4-2.7l1.2-1.3v-.2h.2v-.2c.2,0,.7,.2,.7,.4,0,.2,0,.2,0,.2l-.2,.3Z"/><path class="i" d="M74.9,14.5c0,.2,0,.4-.2,.5-.2,0-.4,0-.5-.2,0,0,.1,.2,0,.1,0,0,.2,0,.1,0h.2l-.7,.7-.8,.9h0s0-.2,0-.2c0,0-.2-.5,0-.3,0,.1-.4-.2-.3-.2,0,0-.1,0-.1,0h0l1.4-1.1,.6-.5c0,0,.1-.1,.3-.2h.3c.2,.1,.3,.4,.2,.5v.2c-.2,.4-.6,.7-.9,1l-.4,.5-.2,.4h0c0,.1,0,0,0,0,0,0-.1-.2,0-.2,0,0-.2-.1-.1-.1h-.1c0,0-.2,0-.1,0,0,0-.1,0,0,0l.4-.5,.5-.6,.2-.3h.1v-.2c.2,0,.4-.1,.5,0,.3,.2,.2,.3,.2,.4,0,.4-.2,.8-.3,1.1v.5h0s-.2-.1-.1,0h-.1c0,0-.2,0-.1,0,0,0,0,0,0,0l.3-.5,.2-.5v-.3l.2-.2s0-.1,.3-.1c.1,0,.3,0,.4,.2,.2,.2,0,.3,0,.3v.9l-.2,.4h0s-.1,0,0,0c0,0-.3,0-.2,0h-.1l.2-.3c.2-.4,.1-1,0-1.4l-.3-.3h0v.4l.2,.5,.2,.2h-.3c0,0,.2-.6,0-.9v-.2h-.2c0,.2,0,.6,.2,.8,.1,.2,0,.4-.2,.6-.2,.1-.4,0-.6-.2-.2-.3-.3-.6-.3-.9,0-.3,0-.7,.2-.9,.2-.2,.4-.4,.9-.3,.3,.1,.4,.3,.4,.4,.1,.1,.2,.3,.3,.6,0,.4,0,.8,0,1.1l-.2,.5c-.1,.2-.5,.3-.7,.1-.2-.1-.4-.3-.5-.6l-.2-.7v-.6c-.1-.2-.1-.5,.1-.7,.3-.3,.8-.2,1.2,0,.2,.2,.4,.4,.6,.7,.3,.6,.4,1.4,0,2.1l-.3,.5c-.1,.1-.3,.3-.6,.3-.2,0-.4-.2-.4-.3-.2-.3-.1-.6,0-.9v-.9h.1s0,.2,0,.2c0,0,.1,.2,0,.1,0,0,.3,.1,.2,.1,0,0,.3,0,.2,0,0,0,.1,0,.1,0,0,0,0,0,0,0h0l-.2,.7-.3,.5v.2h-.2v.2c-.2,0-.4,0-.5,0-.3-.2-.3-.5-.3-.8v-.6l.3-.7v-.2c0,0,0,.1,0,0h0c0,0,.2,.3,.1,.2h.1c0,0,.3,0,.2,0h.1l-.3,.3-.5,.6-.5,.5h-.2v.2h-.3c0,0-.4,0-.4-.3,0-.3,0-.4,0-.5l.2-.4,.4-.6,.7-.9h0s0,.2,0,.2h0c0,0,.1,.3,0,.2h.1c0,0,.2,.1,.2,.1,0,0,.1,0,.1,0h0l-.6,.5-1.1,.9-.4,.3h-.5c-.1,0-.3,0-.3-.2,0-.3,0-.3,0-.3l.9-.9,.7-.6,.4-.2h.3c.1,0,.3,.2,.3,.3"/><path class="i" d="M76.1,2.8c0,.2-.2,.4-.4,.4-.2,0-.4-.2-.4-.4h.2v.2c0,0,.3,0,.3,0h0v.2l-.9,1.7-.3,.8v.2h-.1v.2c0,0-.1,.1-.4,.1-.3,0-.4-.3-.4-.4,0-.2,.2-.4,.4-.4,.2,0,.4,.2,.4,.4,0,0-.7-.4-.4-.4,.3,0-.3,.2-.3,.1,0,0,.7-1.8,1.2-2.8,.1-.2,.2-.4,.4-.5,0,0,.2-.1,.4,0,.2,0,.3,.3,.3,.4v.3Z"/><path class="i" d="M73.1,1.2c.2,0,.3,.3,.2,.5,0,.2-.3,.3-.5,.2l-.8-.4c0,0-.2-.1-.2-.3,0-.2,.2-.4,.2-.4,.3-.1,.4,0,.6,0h.7l7.4,2c.2,0,.4,.3,.3,.5,0,.2-.3,.4-.5,.3l-7.4-1.8h-.8c0-.1,.2-.2,.1-.2h0s.1-.4,0-.3c0,0,0-.2,0-.2,0,0,0-.1,0-.1h0l.6,.3Z"/><path class="i" d="M71.7,7.7c-.2,0-.4-.2-.4-.4s.2-.4,.4-.4h.6c.9,0,2.6-.1,4.5,.2,.2,0,.4,.3,.3,.5,0,.2-.3,.4-.5,.3-1.8-.3-3.4-.2-4.4-.2h-.6Zm.2-.8c.2,0,.4,.2,.4,.4s-.2,.4-.4,.4h-.2c-.2,0-.4-.2-.4-.4s.2-.4,.4-.4h.2Z"/><path class="i" d="M79.4,12.2c.2,0,.4,.2,.4,.4,0,.2-.2,.4-.4,.4-.2,0-.5,0-.6-.3-.2-.3,0-.7,0-1l.6-1.1c.6-.9,1.5-1.9,2.2-2.8l.9-.9,.5-.4h.3c.1,0,.3,0,.4,.1,.2,.3,.1,.5,0,.7l-.2,.7c-.4,1.4-1,2.9-1,3.3,0,.2-.1,.4-.3,.5s-.4-.1-.5-.3c0-.5,.1-1,.3-1.6l.7-2v-.6l.2-.2h0s.2,.2,.1,.2h.2l-.4,.3-.8,.9c-.8,.9-1.6,1.9-2.2,2.7-.3,.5-.6,.9-.6,1.1h-.1Z"/><path class="i" d="M81,9.5c.2,0,.4,.2,.4,.4,0,.2-.2,.4-.4,.4h-.1s.2-.4,.2-.2c0,.1-.1-.5,0-.4,0,0-.2-.1-.1,0,0,0,0,0,0,0h2.2c.2,.1,.4,.3,.4,.5,0,.2-.2,.4-.4,.4h-2.4v-.2c-.1,0-.3,0-.3-.3,0-.2,.1-.4,.2-.4,.2-.1,.2,0,.2,0h.3Z"/><path class="i" d="M90,5.7c-.2,0-.4-.2-.4-.4,0-.2,.2-.4,.4-.4,.7,0,1.7,.2,2.6,.5,.2,0,.3,.3,.3,.5,0,.2-.3,.3-.5,.3-.8-.2-1.9-.4-2.3-.4"/><path class="i" d="M90.5,7.6c-.2,.1-.4,0-.6-.1-.1-.2,0-.4,.1-.6,.7-.4,1.4-.2,2.4-.2,.2,0,.4,.2,.4,.4,0,.2-.2,.4-.4,.4h-1.4c-.3,0-.5,0-.6,0"/><path class="i" d="M100.1,2.3c0,.2-.3,.3-.5,.3-.2,0-.3-.3-.3-.5v-.2h0c0,0,.1,.3,0,.3,0,0,.2,.1,.2,.1,0,0,.2,0,.2,0h.1v.2c-.4,.5-.9,1.5-1.3,2.4l-.4,1.2v.3h0s0-.2,0,0c0,0-.1-.1,0-.1,0,0-.2-.1-.1,0,.2,0,.3,.3,.3,.5,0,.2-.3,.3-.5,.3-.2,0-.3-.3-.3-.4,0-.3,0-.5,.2-.9,.4-1.1,1.1-2.7,1.6-3.6l.2-.3,.2-.2h.2c.2,0,.4,.1,.5,.2,0,.3,0,.4,0,.6"/><path class="i" d="M97.4,1.5c0,.2,0,.4-.3,.5-.2,0-.4,0-.5-.3h0l-.3-.4c-.2-.4,0-.8,.4-1,.4-.2,.9-.2,1.5-.1,1.8,.3,4.1,1.2,5.3,1.4,.2,0,.4,.2,.4,.5,0,.2-.2,.4-.5,.4-.9,0-2.2-.6-3.6-.9-1.3-.4-2.5-.6-2.8-.4h0l.2,.2c0,0,.1,0,.2,.3"/><path class="i" d="M95.6,6.7c.2,0,.4,.1,.5,.4,0,.2-.1,.4-.4,.5h-.4s.2-.3,.1-.2c0,.1,0-.4,0-.4,0,0-.2-.2-.1-.1h3.9c.2-.1,.4,0,.4,.3,0,.2-.2,.4-.4,.4h-4.5c0-.2,0-.4,0-.5,0-.2,.2-.2,.2-.2,.2,0,.4,0,.7-.1"/><path class="i" d="M102.6,6.4c.2,0,.3,.3,.3,.5,0,.2-.3,.3-.5,.3h.2c-.1,.1-.3,1-.5,1.9l-.2,1.5v.6l-.2,.3v.2c-.2,0-.3,.2-.5,.2-.3,0-.4-.2-.4-.3-.1-.3-.1-.5-.1-.8,0-.8-.2-2.1,0-3.4,.2-1,.8-1.9,1.4-2.5,.3-.3,.7-.6,1.1-.6,.3,0,.7,.1,.9,.3,.3,.3,.4,.7,.5,1.1v1.2c-.2,.9-.6,1.7-.7,2.2,0,.2,0,.4,0,.5,0,.1,.3,.3,.8,.5,.2,0,.3,.3,.3,.5,0,.2-.3,.3-.5,.3-.6-.2-1-.4-1.3-.8-.4-.5-.2-1.1,0-1.7,.2-.5,.4-1.1,.5-1.6,0-.7,0-1.5-.1-1.7h-.3c-.1-.1-.4,0-.6,.2-.5,.5-1,1.3-1.2,2.1-.3,1.1-.1,2.3,0,3.2v.4h0c0,.1-.1,0,0,0,0,0-.1-.1,0,0,0,0-.3,0-.2,0,0,0-.2,0-.2,0h0v-.6l.3-1.5,.4-1.6,.3-.6c.1-.2,.4-.4,.7-.3"/><path class="i" d="M110.4,6.5c-.1,.2-.4,.3-.6,.1-.2-.1-.3-.4-.1-.6,0,0,0-.2,0-.3,0-.1-.2-.3-.4-.3-.2,0-.5,0-.7,.3,0,.1-.1,.5-.1,.8,0,.6,.6,1.3,1,2.1,.2,.5,.3,1,0,1.4-.3,.4-.8,.5-1.3,.4-.5,0-1-.3-1.3-.7-.1-.2-.1-.4,0-.6,.2-.1,.4-.1,.6,0,.2,.2,.5,.4,.8,.4,.3,0,.5,0,.5,0,0,0,0-.3-.1-.6-.3-.6-1-1.4-1-2.5,0-.4,0-.8,.2-1.2,.3-.6,1-.9,1.7-.7,.3,.1,.6,.4,.8,.7,.2,.3,.2,.8,0,1.1"/><path class="i" d="M112.1,6c0,.2-.2,.4-.4,.4-.2,0-.4-.2-.4-.4v-.6l.2-.3,.2-.2c.1,0,.4,0,.5,.1,.2,.3,.2,.4,.1,.6v.5c0,.9-.4,2-.5,2.8v.5h0c.1,0,.7-.1,1.2-.2h.7c.5,0,.7,.4,.8,.5h0l.8-1.5c.2-.4,.4-.8,.6-1.2,.3-.3,.6-.7,1-.7,.2,0,.4,.1,.4,.4,0,.2-.1,.4-.4,.4-.1,0-.3,.1-.5,.4-.3,.4-.6,1.1-.9,1.7l-.4,.8c-.2,.2-.4,.5-.8,.5-.3,0-.4-.2-.5-.3l-.4-.3h-.5l-1.1,.2h-.6c-.2-.1-.4-.3-.5-.6,0-.3,0-.5,0-.8,0-.9,.4-2,.4-2.7v-.5h0c0-.1,0,0,0,0h.2c0,0,.3,0,.2,.1,0,0,.1,0,.1,0h0v.5Z"/><path class="i" d="M101.7,6.1c.1-.2,.4-.2,.6,0,.2,.1,.2,.4,0,.6-.2,.3-.5,1.3-.6,2.3v1.5l-.2,.4-.2,.2c-.1,0-.3,.1-.5,0-.2-.1-.2-.3-.2-.3v-.7c-.1-.7-.3-1.6-.1-2.4,0-.2,0-.6,.3-.9,.2-.3,.5-.5,.8-.7,.5-.3,1.1-.3,1.6-.3,.4,0,.7,0,1.1,.2,.3,.2,.5,.6,.6,1.1,0,.4,0,.7-.2,1-.3,.7-1,1-1.3,1.3-.1,.1-.1,.2,0,.4,.1,.6,1.2,1.4,2,1.5,.2,0,.4,.2,.3,.5,0,.2-.2,.4-.5,.3-.8-.1-1.5-.6-2.1-1.2-.3-.3-.5-.6-.6-1,0-.4,0-.8,.3-1.1,.4-.5,1-.8,1.2-1.1,.1-.2,.2-.4,.1-.6,0-.2,0-.4-.2-.4h-.6c-.4,0-.9,0-1.1,.1l-.5,.5c0,.1-.1,.3-.2,.6-.1,.7,0,1.5,0,2.2v.5h0c0,0-.3,0-.2,0,0,0-.2,0-.1,0,0,0,0,0,0,0h0v-1.6c.2-1,.4-2,.8-2.6"/><path d="M129.5,12.1c-.1,.2-.4,.3-.6,.1-.2-.1-.3-.4-.1-.6,0,0,0-.1,.2-.2,.2,0,.5,.1,.5,.2,.1,.2,0,.2,0,.3v1.6l-.5,3.5v1.2h-.1s-.1-.1-.1,0c0,0-.4,0-.3,0,0,0-.1,0-.1,0h0c.1-.2,.4-.2,.6-.1,.2,.1,.3,.4,.2,.6,0,.1,0,.3-.5,.3-.2,0-.3-.1-.4-.2-.2-.3-.1-.4-.1-.6,0-.9,.2-2.4,.3-3.8l.2-1.8v-.5h0c0,0,.7,.3,.4,.3-.3,0,.4-.2,.4-.2"/><path d="M131.5,11.6c-.2,0-.4-.2-.4-.4s.2-.4,.4-.4h28.3c.2,0,.4,.2,.4,.4s-.2,.4-.4,.4h-28.3Z"/><path d="M159.4,11.2c0-.2,.2-.4,.4-.4s.4,.2,.4,.4v10.1c0,.2-.2,.4-.4,.4s-.4-.2-.4-.4V11.2Z"/><path d="M129,13.1c0,.2-.3,.4-.5,.3-.2,0-.4-.3-.3-.5v-1h.2c0,0,.2,.2,.1,.2h.1c0,0,.2,0,.2,0,0,0,.1-.1,.1,0h0v.4l.3,4.6c0,1.3,.2,2.2,.3,3,0,.4,.2,1,.1,1.5,0,.5-.2,.8-.5,1.1h-.2c0,.1-.2,.2-.3,0-.3-.1-.3-.3-.3-.4,0-.3,.1-.4,.3-.8,.1-.2,.4-.3,.6-.2,.2,.1,.3,.4,.2,.6l-.2,.4h0s0-.2,0-.2h0c0,0-.2-.2-.1-.2,0,0-.2,0-.1,0,0,0-.2,0-.2,0h0c0,0,.2-.3,.2-.5,0-.3,0-.8-.1-1.3-.1-.8-.2-1.7-.3-3.1l-.2-4.7v-.4c0-.1,0-.3,0-.5,0-.1,.4-.2,.5-.1,.2,.1,.2,.2,.2,.3v1.5Z"/><path d="M131.5,21.8c-.2,0-.4-.2-.4-.4s.2-.4,.4-.4h28.3c.2,0,.4,.2,.4,.4s-.2,.4-.4,.4h-28.3Z"/><path d="M157.7,12.3c0-.2,.3-.3,.5-.3,.2,0,.3,.3,.3,.5l-.2,.4-.3,.7c-.5,1-1.4,2.3-2,3.4l-.7,1.4-.2,.5h0c0,0-.2-.2-.1-.2h-.1c0,0-.2,0-.2,0h0l.9-1.2,2-2.9,.7-.9,.4-.4c0,0,.2-.2,.5,0,.3,.1,.3,.4,.3,.5,0,.5-.5,1-.9,1.6l-1.9,3.1-.6,1-.2,.4h-.8c-.1-.2,0-.3,0-.3l.5-.7,1.3-1.9,.5-.7,.4-.4c.1-.1,.3-.3,.5-.3,.2,0,.3,0,.4,.2,.2,.3,0,.3,0,.4,0,.2-.2,.5-.4,.9l-1.2,2-.5,.8-.3,.4h-.2c0,.2-.2,.2-.4,.2-.2,0-.3-.4-.3-.4,0-.5,.4-.8,.7-1.2l1-1.3,.5-.6,.3-.2c0,0,.2-.2,.4-.2,.2,0,.3,.1,.4,.2,.1,.2,0,.2,0,.2,0,.3-.1,.8-.3,1.3-.4,1-1.1,2-1.4,2.6h0v.2h0c0,0-.1-.3,0-.3,0,0-.2-.1-.1-.1,0,0-.2,0-.1,0,0,0-.2,0-.1,0h0c.3-.3,1-1,1.5-1.7l.8-.8,.4-.3h.3c.1,0,.3,.2,.4,.4,0,.4-.1,.5-.3,.7-.5,.7-1.4,1.6-1.4,1.6,0,.2-.3,.3-.5,.2-.2,0-.3-.3-.2-.5,.3-.8,1.7-1.7,1.7-2h0s.2,.3,.2,.3c0,0,.1,0,.1,0h0l-.7,.9c-.6,.6-1.2,1.4-1.6,1.8,0,0-.1,.1-.3,.2-.2,0-.5-.2-.5-.3,0-.4,0-.4,.2-.6,.3-.7,1-1.7,1.4-2.5l.2-.7v-.3h0s0,.2,0,.2c0,0,.5,.2,.4,.2,0,0,.1,0,.1,0h0l-.3,.3-.4,.5-1,1.3-.5,.8h0v-.2s-.1-.2,0-.1c0,0-.2-.1-.1-.1,0,0-.2,0-.1,0,0,0-.2,0-.2,0,0,0-.1,0,0,0l.2-.2,.5-.8,1.2-2,.3-.6h0c0-.1,0,0,0,0h0c0,0,.2,.3,.1,.3h.3l-.4,.6-.5,.7-1.3,1.9-.4,.5v.2h-.1s0-.3,0-.2c0,.2,0,.4-.3,.5-.2,0-.4,0-.5-.3,0-.3,0-.3,0-.3l.2-.5,.6-1.1,1.9-3.1,.8-1.3h0v.2s.2,.1,.2,.1h.1c0,0,.2,0,.2,0h0l-.2,.2-.6,.9-2,2.9c-.4,.6-.6,1.2-1.1,1.5h-.3c-.2,0-.4-.2-.5-.3,0-.3,0-.6,.2-1l.7-1.5c.7-1.2,1.6-2.4,2-3.4l.4-.9Zm-26.6,8c-.2,.1-.4,0-.6,0-.1-.2,0-.4,0-.6h0c0,0,.6-.6,1.2-1.4l1.4-2.1,1.2-1.8c.5-.8,.9-1.4,1.3-1.7,.1-.1,.4-.1,.5,0,.4,.2,.3,.6,.3,.9-.1,.6-.5,1-.9,1.5l-1.3,2-.8,1.3-.6,.9v.2h0c0,0,0-.3,0-.2,0,0-.2-.2-.1-.1,0,0-.2,0-.1,0,0,0-.2,0-.2,0h0l1-1.1,1.4-2,1.7-2.4,.7-.9c0,0,.2-.2,.4-.2,.2,0,.4,.2,.4,.3,.1,.3,0,.6-.1,.9-.4,1-1.3,2.2-2.1,3.4l-.8,1.3-.4,.8v.2h0v-.2c0,0-.2-.3-.1-.2,0,0-.3-.1-.2,0,0,0-.2,0-.1,0,0,0,0,0,0,0l.6-.6c.5-.5,1.1-1.5,1.7-2.3l1.1-1.7,.6-.9,.2-.3c0,0,0-.2,.3-.3h-.1s0,.1,0,.1c0,0,0,0,0-.2l.6,.5-.2,.8c-.3,.6-.8,1.3-1.2,2l-1.4,2.4-.5,1.1h0v-.2c0,0-.3-.1-.2-.1h0c.2-.2,.5-.7,.9-1.2l3.2-4.3c.5-.6,.8-1.1,1.1-1.3,0,0,.2-.2,.5-.1,.2,0,.3,.3,.3,.4,0,.3,0,.5-.3,.8-.2,.5-.6,1-1,1.5l-2.4,3.6-.2,.4h0c0,0-.1-.3,0-.3,0,0-.2-.2-.2-.1,0,0-.2,0-.2,0,0,0-.2,0-.1,0h0l.9-1.1c.8-1,1.6-2.4,2.3-3.4l.8-1.2,.2-.2h0l.2-.2c.2,0,.4,.2,.5,.3,0,.3,0,.5,0,.6-.3,.6-.8,1.5-1.3,2.4l-1.1,1.9-.7,1.2v.2h-.1v-.2c0,0-.3-.1-.3,0h-.2c.2-.1,.6-.6,1-1.1l2-2.6,1.4-1.8c.2-.2,.3-.4,.5-.5h.3c.1,0,.3,0,.4,.1,.1,.2,0,.3,0,.4v.2c-.3,.4-.6,.9-1,1.4l-2.7,3.8-.5,.8s0-.2,0,0h0c0,0,0-.3,0-.3,0,0-.2-.1-.1-.1h-.1c0,0-.1,0-.1,0h0l.2-.2,1.1-1.2c.9-1,1.7-2.2,2.4-3l.8-1.1,.2-.2h.1c0-.1,.2-.2,.3,0,.2,0,.2,.2,.3,.3,0,.3,0,.3,0,.4l-.2,.3-1.2,1.8-1.9,2.8-.6,.9h0s0-.3,0-.2c0,0-.2-.1-.1-.1h-.1c0,0-.1,0-.1,0h.1c.3-.3,.6-.8,1-1.2,.9-1.1,1.8-2.3,2.5-3.4l.8-1.3,.4-.4c0,0,.2-.2,.5,0,.2,0,.3,.2,.3,.3v.2c-.1,.5-.6,1.1-1,1.7l-1.6,2.4-1,1.6v.3h-.1c0-.1-.1-.3,0-.3,0,0-.2-.1-.1-.1h-.1c0,0-.2,0-.1,0h0c.4-.3,1-1.2,1.7-2.1l1.5-2.2,1.2-1.7c.2-.2,.2-.4,.6-.4,.1,0,.3,0,.4,.2,.2,.3,0,.5,0,.6-.2,.5-.7,1.1-1.1,1.8l-2,3.2-.4,.7h0c0,0-.1-.3,0-.3,0,0-.2,0-.1,0,0,0-.2,0-.2,0h0l.8-1c.7-1,1.5-2.1,2.2-3.1l.8-1.3,.4-.5h.4c.2,0,.4,.2,.4,.3v.2c-.2,.5-.6,1-1,1.6l-1.4,2.2-.6,1v.4h-.2s-.2-.2-.1-.2c0,0-.2,0-.2,0h0l.7-.9c.7-.8,1.4-1.9,2.1-2.9l.9-1.5,.4-.6v-.2c.1,0,0,0,.3-.1h.2c.2,0,.3,.2,.4,.3,0,.2,0,.2,0,.2-.1,.4-.5,1-1.2,2-.8,1.3-1.8,2.7-2.5,3.8l-.6,1.2v.2h-.1v-.2s-.3,0-.3,0h0l1-1.3,2.3-3.5,1.2-1.9c.2-.2,.3-.4,.6-.5h.3c.2,0,.4,.2,.4,.3v.3c-.2,.6-.7,1.1-1.2,1.8l-1.9,2.9-.7,1.2-.2,.4h0s0-.2,0-.2h0v-.2s-.3,0-.3,0h0s.6-.6,1.2-1.3l2-2.7,1.1-1.7,.7-.9,.3-.2c.1,0,.4,0,.5,.2,.1,.2,0,.3,0,.4v.3c-.3,.4-.7,.9-1,1.4l-2,2.9-.7,1.2v.3h-.1s-.1-.2,0-.2c0,0-.2-.1-.1,0,0,0-.2,0-.2,0h0l.7-.9,1.9-2.7,.9-1.2,.4-.6c.1-.2,.2-.3,.5-.4,.2,0,.4,0,.5,.2,0,.2,0,.4-.2,.5,0,0,.2,0,.1,0,0,0,0,0,0,0h0s-.2,.5-.5,1c-.5,.8-1.3,1.8-1.9,2.7l-.8,1.2-.4,.7v.2h0s0-.2,0-.2c0,0-.2-.2-.1-.2,.3,.2,.1,.4,.1,.4h0v-.2c0,0-.3-.2-.2-.1,0,0-.3,0-.2,0,0,0,0,0,0,0l.3-.3c.3-.3,.8-.8,1.3-1.5l1.7-2.2,1.4-2.2,.5-.8,.2-.2c0,0,.2-.1,.4,0,.1,0,.3,.2,.3,.3,.1,.3,0,.4,0,.5-.2,.5-.7,1.1-1.2,1.8-.8,1.2-1.7,2.4-2.4,3.5l-.6,1.2v.4h-.1s-.2-.2-.1-.2c0,0-.2,0-.2,0h0l.6-.9,2.4-3.4,1.2-1.7,.4-.6s0-.1,.3-.2c.2,0,.4,.2,.5,.3,.1,.3,0,.3,0,.4l-.2,.4c-.3,.5-.7,1.1-1.2,1.7l-1.4,2.1-.6,1v.3h-.2c0,0-.3-.2-.2-.2,0,0-.1,0-.1,0l.7-.9,2.7-3.6,1-1.4,.4-.5c0,0,.1-.2,.4-.1,.2,0,.3,.2,.4,.4v.2c-.2,.5-.7,1-1.1,1.7-.7,1-1.5,2.2-2,3.2l-.7,1.4v.3h0s-.2-.2-.1-.2c0,0-.2,0-.2,0h0l.8-1,1.8-2.6,1.2-1.7,.6-1,.3-.3c0,0,.1-.1,.4,0,.1,0,.3,.2,.3,.3v.2c-.1,.6-.6,1.1-1.1,1.8-.7,1.1-1.5,2.3-2.1,3.3l-.5,1.1v.3h0v-.2c0,0-.4,0-.3,0,0,0-.1,0-.1,0l.6-.9,2.4-3.6,1.1-1.6,.4-.6v-.2h.2c0-.1,.1-.3,.4-.2,.2,0,.3,.3,.3,.5,0,.2-.3,.3-.5,.3,0,0,.2,0,.2,0h.2l-.5,.7-1.1,1.5-2.4,3.6c-.3,.4-.4,.9-.9,1.2-.1,0-.3,0-.5,0-.3-.2-.3-.4-.3-.6v-.5l.7-1.2c.6-1.1,1.4-2.3,2.1-3.4l1-1.5h0v.2s.1,.2,0,.2c0,0,.2,.1,.2,.1,0,0,.2,0,.1,0,0,0,.2,0,.1,0h0l-.6,1-1.2,1.7-1.8,2.6-.5,.8c-.2,.2-.3,.5-.7,.6-.2,0-.4,0-.5-.2-.3-.3-.2-.7,0-1,.1-.4,.4-1,.7-1.6,.6-1,1.4-2.2,2.1-3.3,.5-.7,1-1.3,1-1.5h0c0,0,.1,.4,0,.3,0,0,.2,.2,.2,.1,0,0,.2,0,.2,0,0,0,.1,0,.1,0h0l-.3,.3-1,1.4-2.7,3.6c-.3,.4-.5,1-1,1.2-.1,0-.4,0-.5,0-.2-.2-.2-.4-.2-.6v-.5l.8-1.1,1.4-2.2,1.1-1.6v-.3h.2v.2s.2,.1,.1,.1c0,0,.2,0,.1,0h.1c0,0,.2,0,.2,0,0,0,.1,0,.1,0h0l-.4,.5-1.2,1.7-2.4,3.4-.4,.7c-.1,.2-.3,.5-.6,.5-.2,0-.4,0-.5-.2-.3-.4-.1-.7,0-1.1l.7-1.3c.7-1.1,1.6-2.4,2.4-3.5,.5-.7,1-1.4,1.1-1.7h0s0,.2,0,.2c0,0,.2,.2,.1,.1,0,0,.2,0,.2,0h.1c0,0,.2,0,.1,0h0l-.5,.8-1.4,2.2-1.7,2.2c-.5,.6-1,1.2-1.4,1.6-.1,.1-.2,.4-.7,.4-.1,0-.4-.1-.4-.3v-.2h0c0,.1,.1,.3,0,.3-.3-.2-.2-.4-.1-.5,0-.3,.3-.6,.6-1l.8-1.3c.7-.9,1.4-1.9,1.9-2.7l.4-.7v-.2h.1c0-.2,0-.2,.2-.3l.3,.8c0,0,0,0,0,0l-.6,.8-.9,1.2-1.9,2.7c-.3,.4-.5,.9-1,1.1-.1,0-.3,.1-.5,0-.3-.2-.2-.5-.2-.6l.2-.5,.8-1.2,2-2.9,.8-1.3v-.2h0c0,0,0,.2,0,.2,0,0,.2,.1,.1,.1h.1c0,0,.2,0,.2,0,0,0,0,0,0,0l-.7,.9-1.1,1.7-2,2.7-.9,1.1-.4,.3c-.1,0-.3,.3-.6,.1-.3-.1-.3-.4-.3-.5,0-.3,.1-.4,.3-.7l.8-1.3,1.9-2.9c.5-.7,.9-1.3,1-1.6h0v.2h.1v.2s.3,0,.3,0h0l-.2,.2-1.2,1.8-2.4,3.5c-.4,.6-.7,1.3-1.3,1.6-.1,0-.3,.1-.5,0-.3-.1-.3-.4-.3-.6v-.5l.8-1.3c.7-1.2,1.7-2.6,2.5-3.9l1.1-1.9h0c0,.1,0,.4,0,.3,0,0,.3,.3,.2,.2-.1,0,.3,0,.3,0,0,0,.1,0,.1,0h0l-.4,.6-.9,1.5c-.7,1-1.4,2.2-2.1,3l-.5,.7c-.2,.2-.3,.5-.7,.5-.2,0-.4-.1-.5-.3-.2-.4,0-.7,.2-1.1l.6-1.1,1.4-2.2c.4-.6,.8-1.2,.9-1.4h0s0,.2,0,.2c0,0,.2,.2,0,.2,0,0,.3,.1,.2,.1,0,0,.2,0,.1,0,0,0,.1,0,.1,0l-.3,.3-.8,1.3c-.7,1-1.4,2.2-2.2,3.2-.3,.4-.6,.8-.9,1.1-.1,.1-.3,.3-.6,.2-.2,0-.3-.3-.4-.4v-.3l.5-.9,2-3.2c.4-.7,.9-1.3,1.1-1.7h0c0,0,0,.1,0,0h0v.2c0,0,.4,0,.3,0,0,0,.1,0,.1,0h0l-1.2,1.8-1.6,2.2c-.7,.9-1.3,1.8-1.8,2.3,0,0-.1,.2-.4,.1-.2,0-.4-.3-.4-.4,0-.3,.1-.4,.2-.7l1-1.6,1.6-2.4c.4-.7,.9-1.3,.9-1.5h0c0,0,0,.3,0,.3,0,0,.2,.2,.1,.1,0,0,.2,0,.2,0h.2v.2l-1,1.3c-.7,1-1.6,2.3-2.5,3.4-.4,.5-.7,1-1.1,1.3-.2,.2-.3,.3-.7,.3-.2,0-.4-.2-.4-.4,0-.2,0-.3,0-.4l.6-1,1.9-2.8,1.2-1.8v-.2c.1,0,.1,0,.1,0h0c0,.1,0,.3,0,.3,0,0,.2,.2,.1,.1,0,0,.2,0,.2,0h.1c0,0,.1,0,.1,0h0l-.8,1.1c-.7,.9-1.5,2-2.4,3.1-.4,.5-.8,.9-1.1,1.3l-.5,.3c0,0-.3,.1-.5,0-.2-.2-.1-.5,0-.6l.6-.9,2.7-3.8,.8-1.3h0s0,.3,0,.2c0,0,.2,.2,.2,.1,0,0,.2,0,.2,0h.2l-.3,.3-1.4,1.8-2,2.6c-.4,.5-.7,.9-1.1,1.2,0,0-.2,.1-.4,.1-.2,0-.4-.1-.4-.3-.2-.4,0-.5,.1-.8l.7-1.2,1.1-1.8,1-1.7,.3-.6v-.2c0,0,0,.1,0,0h0c0,0,.1,.2,.1,.2,0,0,.2,0,.2,0,0,0,.2,0,.1,0,0,0,.2,0,.1,0,0,0,0,0,0,0l-.2,.2-.7,1.1c-.7,1-1.5,2.4-2.3,3.5l-1,1.2c0,0,0,.2-.4,.2-.1,0-.3,0-.4-.2-.1-.2,0-.3,0-.4l.3-.6,2.4-3.7,.9-1.4,.2-.4s0,.1,0,0h0v.2s.3,0,.3,0h.2l-1,1.2-3.2,4.3c-.4,.5-.6,1-1.1,1.3-.2,.1-.4,.3-.8,.1-.2,0-.3-.3-.3-.4v-.4l.7-1.2,1.4-2.5c.5-.8,.9-1.4,1.1-1.9,.1-.3,0-.6,.4-1,.1-.2,.4-.2,.6,0,.2,.1,.2,.4,0,.6,0,0,0,0,0,0h0c0,.2-.1,.3-.3,.4,0,0,.1,0,.1,0h0l-.8,1.2-1.1,1.7c-.6,.9-1.2,1.8-1.7,2.4l-.5,.5-.2,.2c0,0-.2,.2-.4,.1-.1,0-.3-.1-.3-.2-.1-.2,0-.3,0-.3,.1-.3,.3-.6,.6-1.1l.8-1.3c.8-1.2,1.7-2.5,2-3.3v-.3h.2s.3,.2,.2,.2c0,0,.2,0,.2,0,0,0,.1,0,0,0l-.6,.8-1.7,2.4-1.5,2c-.5,.6-.8,1.2-1.3,1.4,0,0-.2,0-.3,0-.1,0-.2-.2-.3-.3,0-.3,0-.3,0-.4l.7-1.2,.8-1.3,1.3-1.9c.4-.6,.7-1,.8-1.2h.2c0,0,.3,0,.2,0,0,0,.2,0,.2,0l-1.1,1.5-1.2,1.8-1.4,2.1-.9,1.1-.3,.3-.2,.2Zm-1.1-8.8c0-.2,.3-.3,.5-.3,.2,0,.3,.3,.3,.5,0,0,0,.1-.1,.2,0,0-.2,.1-.3,.1-.2,0-.3-.2-.3-.2v-.6h-.1s.2,.1,.1,0c0,0,.2,0,.2,0,0,0,.1,0,.1,0,0,0,.1,0,0,0h0l-.2,.3c-.2,.4-.5,1-.7,1.6v.5h-.3c.2,0,.7-.7,1.1-1.2l.8-.8c0,0,.2-.2,.4-.1,.2,0,.3,.2,.4,.3,.1,.3,0,.5-.1,.8-.4,.9-1.2,2.1-1.7,2.9l-.3,.6h0c0,0,0-.3,0-.2h-.1c0,0-.2-.1-.2-.1h0c.3-.2,.6-.8,1-1.3l1.5-1.9,.5-.6,.2-.2c.1,0,.3,0,.5,.1,.2,.2,.1,.3,.1,.4v.3c-.4,.7-1,1.5-1.6,2.4l-.7,1.2-.6,1.1h0s-.2-.3-.1-.3c0,0-.2,0-.1,0,0,0-.1,0-.1,0h0l.7-1,1.5-2.1,.7-1,.4-.6,.2-.2h.1l.2-.2c.1,0,.3,0,.4,.2,.2,.3,0,.4,0,.6-.1,.4-.4,1-.8,1.7l-1.6,2.6-1,1.8v.3h-.2v-.2h-.2c0,0-.2-.1-.2-.1h-.1c.2-.1,.5-.7,.9-1.2l2.6-3.7,.8-1.2,.2-.2c.1,0,.4,0,.5,.1,.2,.2,.1,.3,.1,.4,0,.3-.1,.5-.3,.9-.3,.5-.7,1-1,1.6l-1.4,2.1-1.1,1.8-.2,.5h0c0,0,0-.2,0-.1,.1,.2,0,.4-.2,.6-.2,.1-.4,0-.6-.2-.1-.2,0-.3,0-.4l.4-.8,1.2-1.9,1.4-2.1,1-1.5,.2-.6h0s0,.1,0,0h0v.2s.4,0,.3,0c0,0,.2,0,.1,0,0,0,.1,0,.1,0h0l-.8,1.1-2.6,3.7c-.4,.5-.7,1.1-1.1,1.4,0,0-.2,.2-.4,.2-.2,0-.4-.2-.4-.4,0-.3,0-.5,.2-.8l1.1-1.9,1.6-2.6,.6-1.2v-.3h.1s.1,.2,0,.2c0,0,.3,.2,.2,.1,0,0,.2,0,.2,0h.2l-.5,.6-.7,1-1.5,2.2c-.3,.4-.5,1-1,1.2-.1,0-.3,.1-.5,0-.2,0-.4-.3-.4-.5,0-.4,.4-.8,.7-1.4l.7-1.2c.6-.9,1.2-1.8,1.4-2.3h0s.1,.2,0,.2c0,0,.2,.1,.1,0h.1c0,0,.2,0,.2,0,0,0,0,0,0,0h0l-.4,.5-1.5,2c-.4,.5-.8,1-1.2,1.4-.1,.1-.3,.3-.6,.2-.2,0-.3-.2-.4-.3v-.3l.3-.8c.5-.9,1.3-2.1,1.7-2.9v-.2h0s0,.1,0,0c0,0,.2,.2,.1,.1,0,0,.2,0,.2,0,0,0,.2,0,.2,0h0l-.7,.7-.7,.8c-.3,.3-.5,.6-1,.6-.4,0-.8-.4-.7-.9,0-.3,.1-.4,.2-.6,.2-.6,.5-1.3,.7-1.7l.2-.4v-.2h.2c0-.1,.2-.3,.4-.2,.4,.1,.3,.4,.4,.5v.3h0s-.2-.2-.1-.1c0,0-.3,0-.2,0,0,0-.2,0-.2,0,0,0-.2,.1-.1,.1,0,0,0,0,0,0h0Z"/><path d="M157.3,19.9c.2,0,.4,.2,.4,.4s-.2,.4-.4,.4h-1c-.8,0-1.8,0-3.1,.2-.2,0-.4-.1-.5-.3,0-.2,.1-.4,.3-.5,1.4-.2,2.4-.2,3.2-.2h1Zm-18.3,.7c-.2,0-.4-.2-.4-.4,0-.2,.2-.4,.4-.4h11.6c0,.1,.3,0,.4,.4,.1,.2,0,.5-.1,.5-.2,.2-.3,.1-.5,.2-.6,.1-1.7,.3-3,.3-1.6,0-3.5,.1-5.1,0h-2.1l-.8-.2-.3-.2c-.1-.1-.2-.4-.1-.5,.1-.4,.4-.3,.5-.4h.6l2.1-.3c2-.1,4.2-.1,6.2-.1h4.8c.2,0,.4,.3,.3,.5,0,.2-.3,.4-.5,.3h0l-.7,.2c-.6,0-1.4,0-2.4,0h-6.5c-.4,0-.7-.1-.9-.2-.1,0-.3-.2-.2-.5,0-.3,.2-.3,.3-.4h.3c.5-.2,1.3-.3,2.2-.3,1.5-.1,3.2-.1,4.7-.1,1.1,0,2,0,2.9,.2l2,.4,.6,.2h.2c0,.2,.1,.4,0,.5,0,.3-.2,.3-.3,.3h-1.6l-3.8,.3h-2.1c0-.1-.2-.3-.2-.4,0-.3,.2-.3,.2-.3h.3l1.9-.4c1.6-.2,3.3-.2,4.7-.2h2.4l.2,.3c0,.1,0,.3,0,.5-.3,.3-.4,.2-.7,.2h-3l-1.9,.2h-1c0-.2-.2-.5,0-.6,.1-.2,.2-.2,.2-.2h6.4c.2-.1,.4,0,.4,.3s-.2,.4-.4,.4h-6.2c0,.1,.2,0,.1,0,0,0,.2-.2,.1-.1,0,0,0-.4,0-.3,0,.1-.2-.3-.1-.2,0,0-.1,0,0,0h0c0,0,0,0,0,0h.6l1.9-.2h3.1c0,0,0,.3,0,.2,0,0,0,.2,0,.2,0,0,.1,.1,0,.1h-2c-1.4,0-3.1,0-4.6,.2l-1.8,.3h0s.1-.1,0,0h0s0-.3,0-.2c0,0,0-.2,0-.2,0,0,0-.2,0-.1,0,0-.1-.1-.1,0,0,0,0,0,0,0h1.7l3.8-.2h1.1c0,0,0,.5,0,.4,0,0,0,.2,0,.1,0,0,.1,0,0,0h-.5l-1.9-.5c-.8-.1-1.7-.2-2.8-.2-1.6,0-3.2,0-4.7,.1-.9,0-1.6,.1-2,.2h0s0-.2,0-.1c0,0,0-.2,0-.2h0c0,0-.1-.3,0-.3h9.7c.1-.1,.2-.2,.4-.1l-.2,.8h-4.6c-2,0-4.2,0-6.1,.1l-2.1,.2h-.4c0,0,0-.3,0-.2h2.5c1.7,0,3.5,0,5.1,0l2.3-.2h.7v-.2h0s-.1,.3,0,.2c0,0,0,.2,0,.1,0,0,0,.2,0,.2,0,0,.1,.2,.1,.1h-11.3Zm-8.6-1.9c.1,.2,0,.4-.1,.6-.2,.1-.4,0-.6-.1,0-.1-.1-.3,0-.4,0-.3,.3-.3,.5-.4,.5-.2,1.4-.2,2.5-.2h8l.4,.2c0,0,.3,0,.3,.4,0,.3-.2,.4-.2,.5-.4,.2-.9,.2-1.5,.3l-5.3,.7-2.3,.2h-.8s.1,0,0,0c0,0-.1-1,.2-.7,.2,.2-.2,0-.2,0,0,0,1.6,.1,3.5,.1,1.5,0,3.1-.2,4.5-.4l1.6-.3h.6c0,0,0-.2,.2,0,.1,0,.3,.5,.1,.6-.1,.2-.2,.1-.2,.1h0l-2.2,.4-3.8,.7-3.8,.6h-1.1c-.2,.1-.3,.1-.5,0-.1-.1-.1-.4,0-.5l.2-.2c.3-.2,.7-.3,1.2-.4l1.7-.4c2.6-.6,5.6-.8,7.6-.9h1.6l.2,.2c0,.1,.1,.3,0,.5-.2,.3-.3,.2-.3,.2l-1.4,.2-2.5,.2c-2.4,.2-5.2,.3-7.1,.4h-1.2c0,0,.1,0,0,0,0,0,.2-.2,.2-.1,0,.1,0-.6,0-.5,0,0-.2-.1-.2-.1,0,0,0,0,0,0h1.8c2.6-.1,6.2-.5,9.2-.5,1.5,0,2.8,0,3.7,0l.9,.2,.5,.2,.2,.2c0,.1,0,.3,0,.5-.1,.2-.3,.2-.4,.2h-.8l-3.6-.2h-2.7c-.2,0-.4-.2-.4-.5,0-.2,.2-.4,.4-.4h2.7l3.6,.2h.6c0,0-.1,.2,0,.2,0,0,0,.3,0,.2,0,0,0,.2,0,.1h-.2l-.7-.2c-.9,0-2.2,0-3.6,0-3,0-6.6,.4-9.2,.5h-2.2c0-.2-.1-.3-.1-.4,0-.3,.2-.3,.2-.3h1.4c1.9-.2,4.7-.3,7-.5l2.8-.3h.8l.2-.2h0v.2c0,0,0,.3-.1,.2,0,0,.1,.3,0,.2,0,0,.1,.1,0,0,0,0,.1,0,0,0h-1.3c-1.9,0-4.9,.3-7.5,.9-1.2,.3-2.4,.5-2.6,.7h0c0,0,0-.3,0-.2,0,0,0-.2,0-.2h0c0,0-.1-.2-.1-.2h1l3.8-.7,3.8-.7,2.1-.4h0s-.2,.1-.1,0c0,0,0,.7,0,.5-.1-.2,.3,.2,.2,.2,0,0,.1,0,0,0h-.5l-1.6,.4c-1.4,.2-3.1,.4-4.6,.4h-3.6l-.2-.2c-.2-.2,0-.7,.2-.7h.8l2.2-.2,5.2-.6,1.2-.2s-.1,.1,0,0h0c0,0,0,.3,0,.2,0,0,0,.2,0,.1h0c0,0,.1,.2,0,.2h-10.3s0-.3,0-.3c0,0,0-.1,0-.1"/><path d="M148.9,13.6c-.2,0-.4-.2-.4-.4,0-.2,.2-.4,.4-.4h7.8c.3,0,.6,0,.8,.3,.1,.1,.1,.5,0,.6-.2,.3-.4,.3-.7,.3l-1.1,.3-4.1,.7h-2.1c0,0-.2,0-.3-.2,0-.2,0-.3,.1-.4,.2-.1,.2-.1,.3-.1h.3l1.5-.3c2-.3,4.2-.4,5.5,0,.4,0,.8,.2,1,.6,.2,.5-.2,1-.6,1.3-.7,.5-1.7,.7-3,.9-1.3,.3-2.8,.6-4.2,.7h-2l-1.3,.2c-.4,0-.7,0-.9-.2-.2-.2-.1-.4-.1-.4h0c0-.1,0,0,0,0h0v.2c-.3,0-1.5,0-2.6,.2-1.1,.1-2.2,.2-2.9,.5-.4,.1-.5,.4-.5,.4v.2c.7,.4,3.5,.1,6.3-.4,1.5-.3,2.9-.7,4.1-1l1.3-.4h0s-.1,.3,0,.2h0v.3c0,0,.2,.2,.1,.1h0c-.2,0-1.5,0-3.2,.1l-4.9,.3h-4l-3.5,.2h-1.4c-.1,0-.3,0-.5-.2-.2-.2-.1-.5,0-.6,.3-.4,.7-.5,1.3-.7,.6-.2,1.4-.4,2.3-.6,1-.2,2.1-.3,3.1-.5l1.6-.2h2.2c0,0,.3,.3,.2,.5-.1,.3-.2,.2-.3,.2h-.3l-3,.4-4.2,.6-3,.5h-1c0,.1,.1,0,.1,0,0,0,0-.2,0-.2,0,0,0-.2,0-.2h0s.7,.2,1.3,.8c.2,.2,.2,.4,0,.6-.2,.2-.4,.2-.6,0-.2-.2-.4-.4-.7-.5-.2-.1-.4-.1-.6-.3,0,0-.2-.2-.1-.4,0-.2,.2-.3,.3-.3,.2,0,.3,0,.5-.1h.8l3-.6,4.3-.6,3-.3h.1c0,0,0,.9-.2,.5-.1-.3,.3,.2,.3,.2,0,0,0,0,0,0h-1.9l-1.6,.3-3,.5c-1.1,.2-2,.5-2.6,.8l-.4,.2h0v-.3c0,0-.1-.2,0-.2h4.7l4-.2,4.9-.3h3.7c0,.2,.1,.4,0,.6-.1,.3-.3,.3-.4,.3l-1.4,.4c-1.1,.3-2.6,.7-4.1,1-1.4,.3-2.8,.5-4,.6-1.2,0-2.2,.1-2.8-.4-.3-.2-.4-.6-.4-.8,0-.6,.5-1,1.1-1.2,.8-.3,1.9-.4,3.1-.5l1.8-.2c.6,0,1.1-.1,1.5,.2,.1,.1,.2,.3,.2,.4v.2h0s0-.2,0-.1c0,0-.2-.3-.1-.2h1.5l1.9-.2c1.4-.2,2.8-.5,4.1-.7,1.2-.3,2.2-.5,2.6-.8l.3-.3h-.4c-1.1-.4-3.3-.3-5.2,0l-1.4,.2h-.3c0,0,.1,0,0,0,0,0,.1-.2,0-.1,0,0,0-.3,0-.2,0,0-.1-.3,0-.2,0,0-.1-.1,0-.1,0,0-.1,0-.1,0h1.7l4.1-.8,1.1-.3h.1s0,.4,0,.3c0,0,.1,.2,0,.2h-.3l-1.2-.2h-6.5Zm-13.3,0c.2,0,.4,.3,.3,.5,0,.2-.3,.4-.5,.3h-.4c0-.2-.2-.5,0-.7,.1-.3,.3-.2,.3-.2h.9c1.3-.1,3.5,0,5.6,0l3.8,.2h1.3c0,0,0,0,.2,.2,0,0,.1,.4,0,.6-.2,.2-.2,.1-.2,.1h-5.3l-6.1-.4h-1l-.2-.3c0-.1,0-.4,0-.5,.2-.3,.3-.2,.4-.2,.6,0,1.7,0,2.9-.1h9.4c0,.2,0,.4,0,.5-.1,.3-.3,.3-.3,.3-.3,0-.6,0-1.1,.1h-1.9l-3.6,.2h-5.5s0,0-.2-.1c0,0-.1-.2-.1-.4,0-.2,.2-.3,.2-.3h.2l2-.2c2.1,0,4.6,0,6.7,0h4.1c.2,0,.4,.2,.4,.4s-.2,.4-.4,.4h-12.4c-.1-.1-.3-.1-.4-.5,0-.2,0-.3,.1-.4h.2c.5-.4,1.2-.4,2-.5,2.6-.3,6.1-.4,8.6-.2,.8,0,1.5,.1,1.9,.2h.5c0,.1,.2,.1,.2,.3,0,.2,0,.4-.1,.4-.2,.2-.2,.1-.2,.1h-3.9l-5.5-.4h-3l-1-.2h-.2s.1,0,0,0c0,0,.3-.5,.2-.2,0,.2-.1-.5,0-.4,0,0-.2-.1-.1-.1h0l1.6,.2c2.3,.3,5.3,.6,7.5,.8l1.7,.2h.3c0,.1,.2,0,.4,.4,0,.1,0,.3,0,.4-.2,.3-.2,.2-.3,.2h-3.1l-3-.3c-1.5-.1-3-.2-4.4-.2h-2.4v-.2h-.2c0,0-.2-.2-.2-.4,0-.2,0-.3,.1-.3,.2-.1,.2,0,.2,0h3.2c2.9,0,6.6,0,9.3,0l1.9-.2h.7c0,0-.3,.1-.2,0,.1-.1,.1,.7,0,.6,0,0,.2,0,.1,0h-6.7l-3.2-.2h-1.2s.1,0,0,0c0,0,.2-.6,.2-.4,0,.2-.3-.4-.2-.4,0,0-.1,0-.1,0h1.7l3.4,.2,7.1,.4,2.1,.2h.6c0,0-.1,.4-.1,.3h0v.2h0c-.1,0-1.5-.4-2.9-.7l-1.7-.3-.9-.2h-.4v-.2c-.2,0-.3-.1-.3-.3,0-.3,.2-.4,.3-.4h.1c.5-.1,1.2,0,2,0,1.9,0,4.1,.2,5.7,.4l1.3,.3c.2,0,.4,.1,.5,.3,0,0,.1,.2,.2,.3,0,.2-.1,.4-.2,.4-.3,.2-.5,.1-.7,.1h-2.3l-1.5-.2h-1.4l-.2-.2h-.1c0-.1-.1-.2-.1-.4,0-.3,.2-.3,.3-.4,.2,0,.2,0,.4,0h8c0,0,.1,0,.3,.1,0,0,.2,.3,.1,.5,0,.3-.2,.3-.3,.3l-.8,.2-1.5,.2-5,.5h-1.3c-.2,0-.4-.1-.4-.3,0-.2,.2-.4,.4-.4h1.2l5-.6,1.8-.3h.2s-.1,.1,0,0c0,0,0,.3,0,.2,0,0,0,.3,0,.2,0,0,.1,.1,0,0,0,0,.1,0,0,0h-8s.2,0,.1,0c0,0,.1-.2,0-.1,0,0,0-.3,0-.2,0,0,0-.3,0-.2,0,0-.1-.1,0-.1,0,0-.1,0,0,0h1.3l1.5,.2h2.5c0,0-.1,.3-.1,.2,0,0,0,.2,0,.2h0c0,0,0,.2,0,.2h-.1l-1.2-.3c-1.5-.2-3.8-.3-5.6-.4h-1.8s.1-.2,.1-.1h0s0-.4,0-.4c0,0-.1-.2,0-.1,0,0-.1,0,0,0h.3l.9,.2,1.7,.3,2.1,.5,.8,.2c.2,0,.4,.1,.6,.4,.1,.2,0,.5,0,.6-.1,.1-.3,.2-.5,.2h-.7l-2.1-.2-7.1-.4-3.4-.2h-2c-.1-.2,0-.7,0-.8,.3-.2,.2,0,.2,0h7.7l2.6,.2h1.3c.1,.2,.2,.6,0,.7h-.2l-.8,.2-2,.2c-2.7,.2-6.4,.1-9.3,.1h-2.9c0,0,.1-.3,0-.2,0,0,0-.3,0-.2,0,0,0-.3,0-.2,0,0-.1-.1,0-.1,0,0-.1,0,0,0h2.3c1.4,.1,3,.2,4.4,.3l3,.3h2.7s-.2,.3-.1,.2c0,0,0,.5,0,.4h-1.7c-2.2-.2-5.3-.5-7.5-.8-.8-.1-1.4-.1-1.8-.2h-.1c0,0-.1-.1-.2-.3,0-.2,0-.4,.1-.4,.2-.2,.2,0,.2,0h1.4l3,.2,5.5,.4h3.7c0,0-.2,.2-.1,.2,0,0,0,.6-.1,.4,0,0,0,.1,0,.1,0,0,.1,.1,.1,0,0,0,0,0,0,0h-.3c-.4-.1-1-.2-1.8-.3-2.4-.1-5.8-.1-8.4,.2-.8,.1-1.5,.2-1.7,.3h.1c0,0,0-.3,0-.3,0,0,0-.2,0-.2h0c0,0,0-.2,0-.2h12.1c.2,0,.4,.2,.4,.4s-.2,.4-.4,.4h-4.1c-2.1,0-4.6,0-6.7,0h-1.9c0,0,.1,0,.1,0h0c0,0,0-.3,0-.3,0,0,0-.2,0-.2h0c0,0-.1-.2-.1-.2,0,0-.1,0,0,0,0,0,0,0,0,0h8.8l2.9-.2s-.1,0,0,0c0,0-.1,.1,0,0h0v.2h0c0,0,.1,.3,.1,.3h-3.1l-5.6,.2c-1.3,0-2.4,0-2.8,.1h0s.2-.2,.1-.1h0v-.2h0c0,0-.1-.3,0-.3,0,0-.1,0,0,0,0,0,0,0,0,0h.8l6.1,.3h5c0,.1-.2,.2-.1,.2,0,0-.2,.5-.2,.3,0-.2,.2,.4,.1,.3,0,0,.1,0,0,0h-1.1l-3.7-.3h-6.2s.2-.2,.1-.1c0,0,0-.4,0-.3,0,.1-.1-.3,0-.2h0Z"/><path d="M130.7,13.6c.1,.2,.1,.4,0,.6-.2,.1-.4,.1-.6,0l-.2-.2s-.1,.1-.2,.4c-.2,.8-.2,2-.1,3.1,0,.5,.2,.9,.3,1.3l.2,.4h0s-.2,0-.1,0c0,0-.3,0-.2,0,0,0-.1,.1-.1,0,0,0,0,0,0,0v-.7c0-.8,0-1.8-.2-2.7l-.2-1.3v-.2h0s.2,.1,.1,0c0,0,.2,0,.1,0,0,0,.2-.1,.2,0,0,0,0-.1,0,0v4.6l.3,.5h-.3l.2-.8c.2-1,.3-2.4,.3-3.7l-.2-1.6-.2-.7h0c0-.1,.2-.1,.1-.1h.1c0,0,.2-.2,.1-.1h0v1c-.1,1.3,0,3,.3,4.1l.3,.7h0s-.2,0-.1,0c0,0-.1,0-.1,0,0,0,.1-.6,.1-1.3v-2.4l-.2-1.7v-.4h.2c0,.1,.2,0,.1,0h0c-.2,.7,0,2.2,0,3.6,0,1.2,0,2.3,.3,3v.3h0l.2-.5c0-.2,.3-.4,.5-.3,.2,0,.4,.3,.3,.5,0,.5-.2,.9-.7,1.1-.2,0-.5,0-.7-.2-.2-.2-.3-.4-.3-.7-.2-.8-.2-1.9-.3-3.2,0-1.4-.2-2.9,0-3.8,0-.2,.1-.4,.3-.5,.2-.2,.6,0,.8,.1,.1,.2,.2,.4,.2,.7l.2,1.8v3.6c-.1,.3-.1,.6-.5,.8-.4,.1-.6-.1-.8-.3-.2-.3-.3-.6-.4-1-.3-1.2-.5-3-.4-4.4v-1.2l.2-.2c0,0,.2-.2,.4-.2,.4,0,.6,.3,.7,.5,.1,.3,.3,.6,.3,.9,.1,.5,.1,1.1,.2,1.7,0,1.4,0,2.8-.3,3.9l-.2,.8v.4c-.2,.1-.3,.3-.5,.3-.4,0-.6-.2-.7-.4-.1-.2-.2-.5-.3-.8v-3l-.2-1.2c0-.4,0-.7,.1-1,0-.1,.3-.3,.5-.3,.3,0,.4,.2,.4,.4v.4l.3,1.4c.1,1,.2,2,.2,2.8v.9c0,.1,0,.3-.3,.4-.2,.1-.5,0-.6-.1-.2-.2-.3-.5-.4-.8-.1-.4-.3-.9-.3-1.4-.1-1.1-.1-2.4,.1-3.4,.1-.4,.3-.8,.7-1,.4-.2,.8,0,1.1,.4"/><path d="M144.2,12c.2,0,.4,.2,.4,.5,0,.2-.2,.4-.5,.4h-1.4l-5.4-.4-4.4-.4h-1.9l-.2-.2s-.1,0-.2-.2c0-.2,0-.4,.2-.5,.2-.1,.2,0,.2,0h2c1.7,0,3.9,0,5.9,.2,1.1,.1,2.1,.3,2.8,.5,.3,0,.6,.1,.8,.3,.1,0,.3,.3,.2,.5,0,.3-.3,.4-.4,.4h-.5c-.5,.2-1.2,.2-1.9,.1h-2.7l-4.5-.4-1.9-.3h-.5c0-.1-.1-.1-.3-.3v-.3c-.1-.2,0-.3,0-.4h.1c.3-.1,.6,0,1.1,0l3.1,.2,4,.3c2.6,.1,5.2,0,6.8,0h1.9l.2,.2c0,.1,0,.3,0,.4-.2,.2-.2,.1-.3,.1h-1.2c-.9,0-2-.1-2.9-.2l-1.1-.2c-.2,0-.3,0-.5-.2,0,0-.2-.2-.2-.4,0-.2,.2-.3,.2-.3h2.1c1.6,0,3.3,.6,4.7,.9,.7,.1,1.4,.2,1.9,.2h.3v.2h-.1s0,.4,0,.3c0,0,0,.1,0,.1h.1c-.3,0-2.1-.2-3.5-.1h-1.6c0,.1,.1,0,0,0,0,0,0-.3,0-.2,0,0,0-.2,0-.1,0,0,0,0,0,0h.3c.2,.2,.3,.4,.3,.6,0,.2-.3,.3-.5,.3-.3,0-.5-.1-.7-.4,0-.1-.1-.4,0-.6,.2-.2,.4-.2,.5-.3,.7-.1,1.8-.1,2.9-.1h1.6c.4,.1,.8,.2,1,.3,0,0,.1,0,.2,.2,0,.1,0,.4,0,.5-.2,.3-.3,.2-.5,.2h-.5c-.5,0-1.2,0-2-.2-1.5-.3-3.1-.8-4.6-.9h-1.7s.1-.1,0-.1c0,0,.1-.2,.1-.2,0,0,0-.3,0-.2,0,0,0-.2,0-.1,0,0-.1,0,0,0h.2l1,.3c.9,.1,1.9,.2,2.8,.2h.9s-.2,.3-.1,.2c0,0,0,.4,0,.3,0,0,.2,.2,.1,.2h.2c0,0,0,.1,0,.1h-1.6c-1.7,.2-4.3,.3-6.9,.2-1.9,0-3.7-.2-5.3-.4l-2.8-.2h0s.2-.1,.1,0h0c0,0,0-.3,0-.2,0,0,0-.2,0-.2h0c0,0-.1-.2,0-.2h.4l1.9,.3,4.5,.3c2,.1,3.7,.2,4.5,.1h.3c0,0,0,0,0,0h0c0,0,0,.4,0,.3h-.5c-.7-.3-1.6-.5-2.6-.6-1.9-.2-4-.2-5.8-.2h-1.8s.2-.1,.1,0c0,0,.1-.1,0,0,0,0,0-.2,0-.2,0,0,0-.2,0-.2,0,0,0-.1,0-.1,0,0-.1,0-.1,0h1.8l4.4,.5,5.4,.4h1.5Zm-12.9,.6c-.2,0-.4,0-.5-.3,0-.2,0-.4,.3-.5,.2,0,.1,0,.1,0h1.9c2,0,4.2,.1,6.4,.2h4.6c0,0,0,0,0,0,.2,0,.4,.1,.4,.4,0,.2-.1,.4-.4,.4h-4.7c-2.2-.1-4.4-.2-6.4-.2h-1.9s.1,0,0,0m1.1,8.8c-.2,0-.4-.2-.4-.4,0-.2,.2-.4,.4-.4h1.6c2.2,0,5.1-.2,7.2-.3l1.6-.2h.2s0,.2,0,.1c0,0,0,.2,0,.1h0c-.1,0-1.5-.2-3.1-.3h-7c-.1,0-.2,0-.4,0l.3-.7c.4,.2-.3,0-.3,0l2-.6c1.2-.3,2.7-.8,4.1-1.1l3.9-.8,1.3-.2h.4c0,0-.1,0,0,0h0v.2c0,0,0,.3,0,.2,0,0,0,.1,0,.1,0,0,.1,0,0,0h0c-.3,0-1.8-.1-3.7,0-1.8,0-3.8,.4-5.4,.7l-2.2,.5h0s.1,0,0,0c0,0,.1-.1,0,0h0c0,0,0-.3,0-.2,0,0,0-.2,0-.2h0c0,0-.2-.2-.1-.2,0,0-.1,0-.1,0h.5c.8-.3,2-.7,3.4-1.1,1.8-.5,3.8-1,5.4-1.3l2.2-.4h1.1c0-.1,0-.2,.3,0,.2,.1,.2,.4,0,.6-.1,.2-.4,.2-.6,0,0,0,.1,0,.1,0,0,0,0,0,0,0h-.8l-3.3,.8c-1.7,.3-3.6,.5-4.9,.6h-1.6l-.2-.3c0-.1,0-.3,0-.4,.1-.3,.3-.3,.6-.4,.7-.3,1.7-.4,2.7-.6,1.7-.3,3.5-.5,4.9-.6h2c0,0-.1,0,0,0,0,0,0,.3,0,.2,0,0,0,.2,0,.2h0c0,0,.1,.2,0,.2h0c-.3,0-1.2-.1-2.3-.1-1.9,0-4.5,0-6.6,0h-2.7c-.1-.2-.1-.6,0-.7,.2-.3,.5-.2,.7-.3h.8c1.9-.5,4.3-.5,6.7-.6,1.8,0,3.5-.2,4.4-.2h.4v.8h-2.1l-4.7,.3-6.2,.4h-1.1c-.1,0-.2-.2-.2-.4,0-.2,.1-.3,.2-.4,.2-.2,.4-.3,.7-.4l1.7-.6c1.7-.4,3.6-.5,5.4-.4h2.4l.9,.4,.4,.2c.1,.1,.3,.3,.1,.6-.1,.2-.3,.2-.3,.2-.2,0-.3,0-.5,0-.7-.1-1.8-.4-3.1-.6-1-.1-2.2-.2-3.5-.2-1.9,0-3.8,0-5,0h-.5s0,0-.1,0c-.2,0-.4-.3-.3-.5,0-.2,.3-.4,.5-.3h.5c1.1,0,3.1,0,5,0,1.3,0,2.5,0,3.6,.3l2.5,.5,.7,.2h.1s-.1,0,0,0h0s-.1,.2,0,.2c0,0,0,.2,0,.2h0v.2h0l-.7-.2h-2.3c-1.8-.2-3.6-.1-5.1,.3l-1.6,.5-.4,.2s0-.2,0-.1h0s0-.4,0-.3c0,0-.1-.2-.1-.1,0,0-.2,0-.1,0h.7l6.2-.4,4.7-.2h2.1c.2,0,.4,.1,.5,.3,0,.2-.1,.4-.4,.5h-.5c-.9,0-2.6,.2-4.5,.3-2.3,0-4.8,.1-6.6,.4h-.8l-.2,.2h0s0,0,0,0h0c0,0,0-.3,0-.3,0,0,0-.2,0-.2h0c0,0-.1-.2-.1-.2h2.2c2.1,0,4.6-.1,6.6,0,1.2,0,2,0,2.5,.2h.1c0,0,.2,.1,.2,.3,0,.2,0,.4-.1,.4-.2,.2-.3,.1-.4,.1h-2.1c-1.4,.2-3.2,.4-4.8,.7l-1.9,.4-.6,.2h-.1c0,0,0-.2,0-.1,0,0,0-.2,0-.2h-.1c0,0,.5,0,1.2,0,1.3,0,3.2-.3,4.8-.6l3.3-.6h.6l.3-.2c0,0,.2,0,.4,.1l-.5,.6h.2l-.9,.2-2.2,.4c-1.6,.3-3.6,.8-5.4,1.3-1.3,.4-2.5,.8-3.4,1h-.9c0,0-.2,0-.3-.2,0-.2,0-.4,0-.4,.1-.1,.2-.1,.2-.1l2.3-.5c1.7-.3,3.7-.6,5.5-.7h2.6c.7,0,1.1,0,1.5,.1h.2c0,.2,.1,.4,0,.6,0,.2-.2,.2-.3,.3l-.6,.2-1.3,.2-3.8,.8c-1.4,.3-2.9,.7-4.1,1.1l-1.4,.4h-.4v.2h-.2s.1,.2-.3,0c-.2,0-.3-.3-.2-.5,0-.2,.3-.3,.5-.2,0,0-.1,0,0,0h7.2c1,0,1.9,.1,2.6,.3l.8,.2,.3,.2c.1,.1,.1,.5,0,.6-.2,.2-.4,.3-.7,.3-.5,.1-1.1,.2-1.8,.2-2.1,.2-5,.3-7.2,.4h-1.7Zm5-.8c.2,0,.4,.2,.4,.4,0,.2-.2,.4-.4,.4h-5c-.2,0-.4-.1-.4-.4,0-.2,.2-.4,.4-.4h5Zm-7.4-1.5c.2-.2,.4-.2,.6,0,.2,.2,.2,.4,0,.6h0s0-.3,0-.2c0,0,0-.2,0-.1h0l.8,.2c.6,.1,1.3,.2,2,.2,.3,0,.6,0,.9,.1,.1,0,.3,.1,.4,.3,0,.2,.1,.4,0,.6-.2,.3-.4,.4-.7,.5-.9,.3-2.3,.4-3.4,.5h-1.8c0,0-.2,0-.3-.1-.1-.2,0-.5,.1-.6,.3-.2,.4-.1,.7-.2h.8l4.5-.2,2.3-.2h.7c.2,0,.4,.2,.4,.4,0,.2-.2,.4-.4,.4h-.6l-2.3,.2h-4.5l-.8,.2h-.2s0-.2,0-.2c0,0,0-.2,0-.2,0,0,0-.2,0-.1,0,0-.1-.1,0-.1,0,0,0,0,0,0h1.4l2.4-.4,.9-.2h.2s0,.2,0,.2h-.7c-.6-.1-1.4-.2-2.1-.3-.4,0-.7-.2-1-.3-.1,0-.3-.1-.4-.3-.1-.2,0-.5,.1-.7"/><path d="M161.7,19.2c.2,0,.4,.1,.5,.3,0,.2-.1,.4-.3,.5h-1.4l-3.2,.3h-1.2l-.5,.2h0c0,0,0-.4,0-.3,0,0-.1-.3,0-.2h0c0,0-.1-.1,0-.1h1.8l.6,.2,.3,.2c.1,.1,.2,.3,.1,.5,0,.2-.3,.3-.5,.2-.2,0-.3-.3-.2-.5,0,0,0,.3,0,.2,0,0,.1,.2,0,.1h-2.2c0-.1-.2-.1-.4-.3,0-.1,0-.4,0-.5,.2-.3,.3-.2,.5-.2h.5l1.2-.2,3.2-.2h1.3c0,0,0,0,0,0m-2.5-5.6c0,.2-.1,.4-.3,.5-.2,0-.4-.1-.5-.3l-.2-.4s.2,0,.2,0c0,0,.2,0,.1,0h0l-.2,.3c-.2,.5-.2,1.3-.3,2.1l-.2,.9c0,.2-.1,.5-.3,.8-.3,.4-.7,.7-1.1,.7-.2,0-.4-.2-.5-.3-.3-.4-.4-.8-.5-1.2l-.4-1.6v-.4h0c-.2,.1-.8,1-.9,1.6,0,.3,0,.6,0,.6h0s.5-.1,1-.4c.5-.3,1-.8,1.3-1.2,.2-.3,.3-.7,.3-1v-.3s.1,.1,0,.1h-.4c-.7,.4-1.7,1.8-2,2.8-.1,.4-.1,.7,0,.9,0,.1,.4,.3,.9,.2,.7-.1,1.7-.8,2.3-1.5,.3-.3,.5-.7,.6-1v-.3h0c0,0,.2,.1,.1,.1,0,0,.1,0,.1,0h0c0,0-.5,.2-.8,.5-.4,.3-.7,.9-.9,1.4v.5h0c.1,0,.7-.3,1.1-.8,.8-.8,1.1-2,1.1-2.7,0-.2,0-.4-.1-.4h0c0,0,.2-.2,.2-.1h0s-.2,1.1-.1,2.1v1.5l.2,.7h-.2c0,0,.1-1.4,0-2.6,0-.8,0-1.5-.2-2l-.2-.5s.1,.1,0,0c0,0,.2,0,.1,0,0,0,.2,0,.2,0,0,0,.2,0,.1,0,0,0,.1-.1,.1-.1h0c0,0,0,1.9,0,3.7v3.6c0,.2,0,.4-.3,.5-.5,.3-1,0-1.4,0l-1.5-.3-.7-.2-.7-.3-.3-.2c0-.1-.2-.3,0-.6,.1-.3,.3-.3,.5-.3,.5,0,1.1,0,1.9,0h5.2c.2,0,.4,.2,.4,.5,0,.2-.2,.4-.4,.4h-2.5c-1,.1-2.1,0-3,0h-1.4c0,0,.1-.2,0-.2,0,0,0-.2,0-.2h0v-.2h0l.6,.3,.7,.2,1.5,.3,.7,.2c0,0,0,0,0,0v-7.6c0,0,.1-.2,.4-.3,.2,0,.4,.1,.4,.2l.3,.7c.2,.6,.2,1.4,.3,2.2v2.7c-.1,.2-.2,.5-.5,.7-.4,.2-1,0-1.1-.5v-.8l-.2-1.6v-2.4l.3-.3c0-.1,.2-.2,.4-.2,.4,0,.5,.2,.6,.3,.2,.2,.4,.6,.4,1,0,.9-.3,2.2-1.3,3.2-.5,.5-1,1.2-1.7,1.2-.5,0-.9-.4-.9-.9,0-.3,0-.6,.2-.8,.2-.6,.5-1.2,1.1-1.7l.8-.5h.4l.2-.2c.1,0,.3,0,.4,.2,.2,.3,0,.6,0,.9-.1,.4-.4,.8-.7,1.3-.7,.8-1.7,1.6-2.8,1.8-.7,.1-1.6,0-1.8-.8-.1-.4-.1-.9,0-1.4,.4-1.3,1.3-2.8,2.5-3.2h.7c.2-.1,.5-.1,.7,.1,.1,.2,.1,.4,.1,.5v.3c0,.4-.2,.9-.5,1.3-.4,.7-1.1,1.2-1.8,1.6-.3,.2-.7,.3-1,.4-.3,0-.7,0-.9-.4-.2-.4-.1-.8,0-1.2,.1-.5,.3-.9,.6-1.4,.3-.4,.5-.9,1.1-.9,.3,0,.6,.2,.7,.4,.1,.2,.2,.4,.2,.6l.4,1.5,.2,.7v.2h0s-.2,0-.1,0c0,0,.3-.1,.4-.3l.2-.6,.2-.8c.1-.7,.1-1.6,.4-2.2l.4-.6,.3-.2c.1,0,.4,0,.5,.1,.3,.2,.4,.5,.5,.9"/><path d="M131.5,8.5c-.2,0-.4-.2-.4-.4s.2-.4,.4-.4h27.2c.2,0,.4,.2,.4,.4s-.2,.4-.4,.4h-27.2Z"/><path d="M137.6,28.3c.1,.2,0,.4-.2,.6-.2,.1-.4,0-.6-.2h0s.2,0,.2,0h.2l-.2,1-.2,2.9v1.8h-.1c0,.2,0,.3-.3,.4-.2,0-.3,0-.4,0-.2-.1-.1-.2-.2-.2l-.2-.4c-.2-.7-.2-1.7-.3-2.8v-2.5c0-.4,.1-.9,.4-1.3,.5-.8,1.4-1.2,2.3-1.2,.9,0,1.8,.3,2.4,.8,.8,.8,1.1,2,.6,2.9-.4,.7-1.2,1.1-1.8,1.4l-.6,.3h0v.3c.6,.9,1.3,2,2.4,2.3,.2,0,.3,.3,.2,.5,0,.2-.3,.3-.5,.2-1.4-.5-2.2-1.7-2.7-2.7l-.2-.6c0-.2,0-.5,.2-.7,.2-.2,.5-.3,.6-.4,.6-.4,1.3-.8,1.5-1.2,.3-.6,.2-1.3-.4-1.9-.8-.7-2.9-.8-3.4,.2-.2,.3-.2,.6-.3,1v2.4c0,1,0,2,.2,2.6v.3h0s-.1,0,0,0c0,0-.2,0-.1,0h-.3c0,0-.2,.1-.1,.1h0v-1.6l.3-2.9c0-.5,.1-.9,.2-1.2,0-.2,0-.4,.4-.5,.2,0,.4,0,.5,0l.2,.2Z"/><path d="M149.2,28.5c0,.2-.1,.4-.4,.4-.2,0-.4-.1-.4-.4,0-.5,0-.9,0-1.3,0-.4,0-.6,0-.7,0,0-.2-.2-.5-.2-.3,0-.8,.2-1.1,.5-.4,.3-.6,.9-.6,1.5,0,.6,.4,1.3,1,1.7l.9,.6c.4,.3,.7,.7,.8,1.1,.1,.5-.2,.9-.6,1.2-.6,.4-1.3,.6-2.1,.6-.8,0-1.6-.1-2.1-.7-.2-.2-.2-.4,0-.6,.2-.2,.4-.2,.6,0,.4,.4,1.3,.5,2.2,.4,.4,0,.8-.2,1-.4,.2-.1,.2-.2,.2-.3,0-.2-.2-.4-.5-.6l-.9-.6c-.7-.6-1.4-1.4-1.3-2.4,0-.7,.3-1.5,.9-2.1,.5-.4,1-.7,1.6-.7,.5,0,1,.1,1.2,.5,.2,.4,.2,.8,.1,1.2,0,.4,0,.8,0,1.1"/><path d="M152.1,28c0,.2-.2,.4-.4,.4s-.4-.2-.4-.4v-.7h0c0,0,0,.2,0,.2,0,0,.3,.2,.2,.2,0,0,.4,0,.3,0,0,0,.2-.1,.1,0,0,0,0,0,0,0,0,0-.5,1.7-.8,3.3-.1,.6-.2,1.1-.2,1.5,0,.3,0,.4,.1,.4l.8-.2,.6-.3c.3,0,.6-.2,.9,0,.2,0,.3,.3,.4,.4,.1,.4,.1,.8,.1,1.1v.2c0,0-.2,0-.1,0,0,0-.1,0-.1,0,0,0,.8-.9,1.3-1.8l.8-1.7c.3-.5,.6-1.1,1.6-1.9,.2-.1,.4-.1,.6,0,.1,.2,.1,.4,0,.6-.9,.7-1.1,1.1-1.3,1.6l-.8,1.7c-.3,.6-.6,1.1-1,1.6l-.5,.5-.3,.2c-.1,0-.4,0-.5-.1-.2-.2-.3-.4-.3-.7v-.9h0s.2,.1,.1,0h-.4l-.5,.3c-.4,.1-.8,.4-1.3,.2-.4-.2-.6-.6-.7-1.1,0-.5,0-1.1,.2-1.7l.6-2.5,.2-.8v-.3h.3c.1-.2,.3-.2,.4-.1,.3,.2,.2,.3,.2,.4v.7Z"/><path d="M48.8,111.8c-.2,0-.4-.2-.4-.4s.2-.4,.4-.4H191.4c.2,0,.4,.2,.4,.4s-.2,.4-.4,.4H48.8Z"/><path d="M192.7,110.1c.2,.1,.3,.4,.1,.6-.1,.2-.4,.3-.6,.1-.1,0-.3,0-.5,.2-.2,.2-.5,.7-.6,1.2-.2,.7-.3,1.4-.2,1.8,.2,.7,1,1.1,1.7,.9,.7-.2,1.6-1.5,1.9-2.6,.3-1.4-.8-2.3-2.3-1.8-.2,0-.4,0-.5-.2,0-.2,0-.4,.2-.5,1-.3,1.9-.2,2.6,.3,.7,.5,1,1.5,.7,2.5-.3,1.4-1.2,3-2.5,3.3-1.2,.3-2.4-.3-2.7-1.5-.2-.7,0-1.5,.2-2.3,.2-.6,.5-1.2,.9-1.5,.4-.4,1-.6,1.5-.3"/><path d="M202,111.6c.2,.1,.2,.4,.1,.6-.1,.2-.4,.2-.6,.1l-.4-.3c0,0-.3,0-.3-.4,0-.2,.1-.3,.2-.4,.3-.2,.4,0,.6,0,.7,0,1.9,.2,3.3-.1,.2,0,.4,0,.5,.3,0,.2,0,.4-.3,.5-1.4,.3-2.7,.2-3.4,.1h-.4s.1,0,0,0h0s.1-.2,0-.2c0,0,0-.2,0-.2h0c0,0,0-.2,0-.2h0l.3,.3Z"/><path d="M175.1,16.3c0-.2,.2-.4,.4-.4s.4,.2,.4,.4V111.4c0,.2-.2,.4-.4,.4s-.4-.2-.4-.4V16.3Z"/><path d="M175.6,110.5c.2,.1,.3,.4,.2,.6-.1,.2-.4,.3-.6,.2-.4-.2-.4-.1-.5,.1-.1,.3-.2,.9-.1,1.3v.3h0c0,0,.2,0,.4,0,.2,0,.6-.6,.9-1.1l.3-.5c0-.2,0-.2,0-.2h-.8c-.2,.1-.4,.3-.6,.6l-.2,.3h0c0,.1-.1,0,0,0,0,0,.5-.1,.7-.3,.2-.2,.3-.5,.3-.6h-.3c-.2,.2-.4,.1-.5-.1,0-.2,0-.4,.2-.5,.3-.1,.7-.2,.9-.1,.4,.1,.6,.7,.5,1,0,.4-.3,.7-.6,1l-.8,.4c-.3,0-.6,.2-.9-.1-.2-.2-.2-.5-.2-.8,0-.3,.2-.5,.3-.6,.2-.4,.5-.8,1.1-.9,.3,0,.8-.3,1.3,0,.4,.2,.5,.6,.5,1,0,.4-.2,.6-.4,.9-.3,.6-.7,1.3-1.5,1.5-.4,0-.8,0-1.1-.2-.3-.2-.3-.6-.3-.8,0-.5,0-1.1,.2-1.7,.1-.3,.3-.5,.6-.7,.3-.1,.7,0,1,.1"/><path d="M176.7,14.9c.2,.1,.2,.4,0,.6-.1,.2-.4,.2-.6,0-.4-.3-1-.5-1.1-.4,0,0-.1,.2-.2,.6,0,.3,0,.6,.1,.7h0c.2,0,.7-.1,1-.4l.3-.3h0c0-.2,0,0,0,0h-.3c-.2,.2-.6,.8-.7,1.1h-.2l.4-.4,.2-.4h.1c-.1,0-.5,.3-.9,.8-.1,.2-.4,.2-.6,0-.2-.1-.2-.4,0-.6,.4-.5,.7-.8,1.1-1,.2-.1,.5-.2,.8-.1,.4,.1,.5,.6,.4,.9,0,.3-.2,.6-.5,.9l-.3,.3c-.1,.1-.3,.3-.6,.2-.5,0-.7-.6-.5-1,.2-.5,.5-1.3,1.2-1.5,.2,0,.5-.1,.7,0h.4c.1,.2,.3,.3,.3,.6,0,.5-.3,.8-.7,1.1-.3,.2-.6,.4-1,.4-.4,0-.8,.1-1.1-.2-.4-.4-.4-.9-.4-1.3,0-.4,.1-1,.6-1.2,.7-.3,1.5,0,2,.5"/><path d="M170.8,48.4c0,.2-.2,.4-.5,.3-.2,0-.4-.2-.3-.5,0-.5,.6-.8,1.1-.9,.5,0,1,0,1.5,0,2.9,.1,5.6,.8,7.3,.5,.2,0,.4,.1,.5,.3,0,.2-.1,.4-.3,.5-2,.3-4.7-.3-7.5-.5h-1.4c-.3,0-.4,0-.4,.2"/><path d="M172.4,79.3c-.2,0-.4-.2-.4-.4,0-.2,.2-.4,.4-.4,2.2-.1,4.7,.1,7.1,.1,.2,0,.4,.2,.4,.4s-.2,.4-.4,.4c-2.5,0-4.9-.3-7.1-.1"/><path d="M169.9,48c0-.2,.2-.4,.4-.4s.4,.2,.4,.4v31.7c0,.2-.2,.4-.4,.4s-.4-.2-.4-.4v-31.7Z"/><path d="M179.9,48c0-.2,.2-.4,.4-.4,.2,0,.4,.2,.4,.4l-.6,31.7c0,.2-.2,.4-.4,.4-.2,0-.4-.2-.4-.4l.6-31.7Z"/><path d="M170.9,78.8c.2,0,.4,.1,.4,.4,0,.2-.1,.4-.4,.4h0s.2-.2,.1-.1c0,0,0-.2,0-.1,0,0,0-.2,0-.2,0,0,0-.2,0-.1,0,0-.1-.2-.1-.1h0c0,0,1,0,1.7-.2,.2,0,.4,0,.5,.2,0,.2,0,.4-.2,.5-.6,.2-1.3,.2-1.8,.2h-.6c0-.1-.1-.2-.2-.3,0-.2,0-.4,0-.5,.2-.2,.3-.1,.4-.1"/><path d="M183.7,48c0-.2,.2-.4,.4-.4s.4,.2,.4,.4v31.7c0,.2-.2,.4-.4,.4s-.4-.2-.4-.4v-31.7Z"/><path d="M177.7,79.6c-.1,.2-.4,.3-.6,.1-.2-.1-.3-.4-.1-.6l1.1-1.8,.5-.8,.3-.2c.1,0,.3-.1,.5,0,.3,.2,.3,.4,.3,.5,0,.3-.1,.7-.3,1.1l-.2,.5v.2h0s0-.1,0,0c0,.2-.2,.4-.4,.4-.2,0-.4-.2-.4-.4,0-.2,0-.2,0-.3l.3-1v-.4h.2s.2,.2,.1,.2h.1c0,0,.1,0,.1,0h0l-.5,.8-.7,1.2-.4,.6Zm-4.5-31c0,.2-.1,.4-.4,.5-.2,0-.4-.1-.5-.4v-.2s0,.1,0,0c0,0,.3,0,.2,0,0,0,.2,0,.1,0h0l-.2,.3-.3,.8-.2,.7h0v-.2h-.1c0,0-.3-.2-.2-.2h-.2l.4-.5,.3-.5v-.2c.2,0,0-.1,.4-.2l.3,.8c0,0,.2-.1,.1,0,0,0,0-.1,0,0h0s-.1,.4-.4,1l-.4,.9v.3h-.1c0,0-.1-.3,0-.2,0,0-.3,0-.2,0,0,0-.2,0-.1,0l.6-.7,1-1.3c.2-.2,.3-.3,.5-.5,.1,0,.3,0,.5,0,.2,.2,.2,.3,.2,.4v.3c-.3,.6-.8,1.5-1.3,2.2l-.6,1-.4,.6-.3,.4c-.2,.1-.4,.1-.6,0-.1-.2-.1-.4,0-.6,0,0,0,.1,0,0h0s.2-.5,.6-1.1l.9-1.4,.5-.7,.3-.3h.2c.1-.1,.4-.2,.5,0,.2,.3,0,.4,0,.6-.1,.4-.5,.8-.9,1.4l-1.4,2.3-.3,.6h0v-.2s-.1-.2,0-.1c0,0-.2-.1-.1-.1h-.1c0,0-.2,0-.1,0h0c.2-.2,.6-.6,1-1.2l1.5-2,.5-.7c.1-.2,.2-.3,.4-.4,0,0,.3-.1,.5,0,.2,.1,.2,.4,.2,.5,0,.5-.4,.8-.6,1.2l-1.3,2.3-.4,.8h0s0-.2,0-.2h0c0,0-.3-.2-.2-.2,0,0-.2,0-.2,0,0,0-.1,0-.1,0h0l.7-1,1.5-2.2,.5-.9,.4-.7,.6,.5h0s0-.1,0-.1l-.2,.6-.8,1.3-1.3,2.1-.9,1.5-.7-.4,.4-.6,.9-1.2,1.6-2.4,.6-.8c.2-.2,.2-.4,.5-.6,.2-.1,.5,0,.6,0,.1,.1,.2,.3,.2,.4,0,.7-.5,1.3-.9,2-.6,1.1-1.3,2.2-1.9,3.2l-.9,1.3-.4,.5-.2,.2h-.3c-.1,0-.3,0-.3-.2-.1-.3,0-.3,0-.3,.2-.4,.5-.7,.9-1.2l2.2-2.6,1.3-1.6,1.8-2.1c.3-.3,.6-.6,.9-.7,.1,0,.4-.2,.7,0,.2,.2,.1,.5,0,.6-.2,.6-.7,1.2-1.3,2l-2.4,3.3-2.9,3.6-1,1.2-.3,.3h0c-.1,.3-.4,.3-.6,.2-.2-.1-.3-.4-.1-.6,.1-.2,.2-.2,.3-.3l.4-.3,1.1-1.2,1.8-2.1c.7-.9,1.4-1.9,1.9-2.7l.4-.7h0v.2s.2,.2,.1,.1c0,0,.2,0,.1,0h.1c0,0,.2,0,.1,0,0,0,0,0,0,0l-.2,.3c-.6,.9-1.7,2.7-2.6,4.4l-1.1,1.9-.3,.7h0v-.2s0-.2,0-.1c0,0-.2-.2-.1-.1,0,0-.2,0-.1,0,0,0-.2,0-.2,0,0,0,0,0,0,0l.4-.4,1.4-1.9,1.4-2.2,1.6-2.8,.4-.8h0v-.2h.2c0-.2,.4-.1,.5,0,.1,.3,0,.3,0,.3v.2l-1.2,2.2c-.8,1.6-1.9,3.3-2.8,4.9l-1.3,2.2-.2,.3s0-.1,0,0h0v-.2h-.2c0,0-.3-.1-.2-.1h-.2l.6-.8,1.7-2.5,1.2-1.9,1-1.8,.2-.3,.2-.2h.2c0-.1,.2-.1,.3,0,.2,.1,.2,.3,.2,.4,0,.2,0,.3-.2,.5l-1.1,1.9c-.7,1.2-1.6,2.5-2.5,3.9l-2.1,3-1,1.6h0s0-.3,0-.2c0,0-.2-.2-.2-.2,0,0-.2,0-.2,0h-.1l.5-.5,1.2-1.6,2.3-3,2.2-3.1,1.3-2h0s0,.4,0,.3c0-.1,.4,.3,.3,.3,0,0,.2,0,.2,0,0,0,.1,0,0,0,0,0,0,0,0,0l-.3,.3-1.5,2.4-1.5,2.4-1.6,2.6-.7,1.4v.2h0s-.1-.2,0-.2c0,0-.2-.1-.1,0,0,0-.3,0-.2,0h0l.6-1,2-3.2,1.8-3.3,.7-1.3,.2-.3h.1l.2-.2c.1,0,.4,.1,.4,.2,.2,.3,0,.3,0,.3h0l-.7,1.7-2.3,4.5-1.3,2.5-.4,.8v.2h-.1v-.2c0,.2,0,.4-.3,.5-.2,0-.4,0-.5-.2-.1-.3,0-.3,0-.4l.7-1,.9-1.5,1.3-2.2,1-1.7,.9-1.5,.5-.7,.2-.2h.2c.2,0,.4,.1,.5,.2v.2c0,.4-.3,.9-.8,1.7l-1.4,2.3c-1.3,2.1-2.8,4.4-3.8,5.8l-.7,.9-.2,.2h-.1c0,.1-.2,.2-.5,0-.2-.2-.1-.4-.1-.4,0-.3,.2-.4,.4-.6l.5-.7,1.9-2.9,1.4-2.2,1.3-2,.6-.7c0,0,.2-.3,.6-.1,.2,0,.3,.3,.3,.4v.2c0,.4-.3,.9-.6,1.5l-1.1,2.1c-.8,1.5-1.8,3.1-2.7,4.4l-1.2,1.7-.6,.8-.2,.2h-.1c0,0-.3,.2-.5,0-.1-.1-.1-.3-.1-.3v-.2c.3-.4,.9-1,1.5-1.7l2-2.6,2.6-3.7c.2-.3,.3-.5,.6-.7,0,0,.3-.2,.5,0,.2,.1,.2,.3,.2,.3,0,.2,0,.4-.1,.6l-.4,.9-1.3,2.3c-.9,1.6-2,3.1-2.9,4.5l-1.1,1.6-.6,.9c0,.2-.3,.3-.5,.2-.2,0-.3-.3-.2-.5,0-.2,.1-.2,.2-.2,.2-.1,.4-.2,.6-.5,.5-.5,1.2-1.6,2-2.7l1.8-2.8,.7-1.2,.2-.4h0c0-.2,0-.2,.2-.3,.1,0,.4,0,.5,.2v.2c.1,.3,0,.6-.1,1-.2,.7-.6,1.5-1,2.3-1,2.2-2.4,4.6-3.3,6.1l-.6,1s0-.1,0,0c0,0,0-.2,0-.1,0,0-.7-.4-.4-.4,.2,0-.3,.1-.3,.1,0,0,0,0,0,0h0l.3-.5,1.3-2,1.6-2.5,2-3.1,.9-1.2c0-.1,.2-.2,.4-.3,.2,0,.4,0,.6,.2,.1,.2,0,.4,0,.5l-.2,.5c-.3,.7-.8,1.6-1.4,2.6-1,1.6-2.1,3.2-3,4.6l-1.1,1.6-.7,1.1c-.1,.2-.4,.2-.6,.1-.2-.1-.2-.4-.1-.6l.5-.6c.6-1,1.7-2.9,2.8-4.7l1.2-1.9c.2-.4,.4-.6,.6-.8,.1,0,.4-.1,.6,0,.4,.3,.3,.6,.2,.9-.2,.8-.8,1.9-1.4,3-.6,1.1-1.3,2.3-1.9,3.3l-1.3,2-.5,.6v.2h-.5c-.1,.1-.3,0-.4-.2,0-.3,0-.3,0-.3l.7-.9c1-1.3,2.5-3.7,3.6-5.3l.7-1,.2-.3h.2c0-.2,.2-.2,.4-.1,.1,0,.2,.2,.2,.3,0,.3,0,.4-.1,.6l-.4,.9c-.8,1.6-2.4,3.7-3.8,5.5l-1.7,2.1-.4,.6h0c0,.1,0-.1,0,0h0c0,0-.2-.2-.1-.2,0,0-.2,0-.2,0h-.1s-.1,0,0,0l.6-.7c.7-.8,1.7-1.8,2.6-3,.8-1,1.4-2,2-2.9l.8-1.1,.3-.2c.1,0,.4,0,.5,.2,.1,.2,0,.3,0,.4v.3c-.4,.7-.9,1.6-1.6,2.7l-2.1,3.4-1.2,1.8v.2h-.1c0,0,0-.3,0-.3h0c0,0-.3-.2-.2-.2,0,0-.2,0-.2,0,0,0-.1,0-.1,0h.1l1.5-2.3,2.3-3.9,1.1-1.8c.1-.2,.2-.3,.4-.4h.3c.2,0,.4,.2,.4,.3v.3c0,.5-.3,1.1-.7,1.8l-1.3,2.6c-1,1.8-2.1,3.5-2.8,4.7l-.4,.8h0c0,0,0-.4,0-.3,0,.1-.5-.2-.4-.2,.1,0-.2,0-.2,0,0,0,0,0,0,0l2-3,1.8-2.9,.8-1.1c.2-.2,.3-.3,.5-.4,.1,0,.3,0,.5,0,.2,.1,.2,.3,.2,.4,0,.6-.4,1.1-.7,1.8-.6,1.3-1.5,2.7-2.2,3.8l-.7,1.2v.2h0v-.2s-.1-.2,0-.1c0,0-.2-.2-.2-.1,0,0-.2,0-.2,0h-.1s-.1,0,0,0h0l2.2-3.2,1.1-1.7,.5-.5c0,0,.1-.2,.4-.2,.1,0,.3,.1,.4,.2v.3c0,.5-.3,1-.6,1.5l-1.9,3.4-.4,.8v.2h0s0-.2,0-.1c0,0-.1-.2,0-.1h-.1c0,0-.2,0-.2,0h0l.6-.8,1.6-2.6,.6-1c.1-.1,.2-.3,.4-.3,.1,0,.4,0,.5,.2,0,.2,0,.3,0,.4,0,.5-.4,1.1-.8,1.8l-1.2,2.2-.6,1.1-.3,.6v.2h0v-.2c0,.2,0,.4-.3,.5-.2,0-.4,0-.5-.2-.1-.3,0-.3,0-.4,.2-.3,.7-.8,1-1.3l1.1-1.6,.5-.7c.2-.3,.4-.5,.9-.5v.8c-.2,0,.3-.1,.2,0,0,0,0,0,0,0h0l-.3,.8-1.1,2.3-.2,.4c-.1,.2-.3,.3-.6,.2-.2-.1-.3-.3-.2-.6l.2-.4,1-2.2,.2-.6v-.2h.1v-.2c0,0,0-.2,.4-.2,.2,0,.4,.2,.4,.4,0,.2-.2,.4-.4,.4h0l-.2,.2-.4,.6-1.1,1.6-.7,.9-.2,.3h0s0-.3,0-.2l-.8,.3c-.1-.3,0-.3,0-.4l.4-.8,.6-1.1c.8-1.4,1.8-3.2,1.9-3.8h0s0,.2,0,.1c0,0,.2,.2,.1,.2,0,0,.2,0,.2,0h.1l-.6,1-1.6,2.6c-.3,.4-.4,.9-.9,1.1-.1,0-.4,0-.6-.1-.2-.2,0-.4,0-.5v-.4l.6-.8,1.9-3.3,.6-1.2h0v.2s.2,.2,.1,.1c0,0,.2,0,.2,0h.1c0,0,.1,0,.1,0h0l-.2,.4-1.1,1.6-2.2,3.2v.2c-.2,0-.1,0-.3,.2,0,0-.2,0-.3,0-.2,0-.2-.2-.3-.3,0-.2,0-.2,0-.3v-.3l.8-1.2c.7-1.1,1.5-2.5,2.1-3.7l.7-1.4h0s.1,.2,0,.2c0,0,.2,0,.1,0h.2l-.2,.2-.7,1-1.8,2.9-1.5,2.3-.5,.7v.2h-.3c0,.1-.2,.1-.3,0-.2-.1-.2-.3-.2-.4v-.2l.5-.8c.7-1.2,1.8-2.9,2.7-4.6,1-1.8,1.9-3.6,2-4.2,0,0,0,.2,0,.1h0v.2h.2c0,0,.2,0,.2,0h0v.2l-1.2,1.8-2.3,3.9-1.5,2.3-.2,.2s0,.1-.3,.2c-.1,0-.4,0-.4-.2,0-.2,0-.3,0-.3l.2-.4,1.2-1.8c1.3-2.1,3-4.7,3.5-6v-.2h0s0,.2,0,.2c0,0,.2,.1,.1,.1,0,0,.2,0,.2,0,0,0,.2,0,.2,0,0,0,0,0,0,0h0l-.7,1c-.6,.8-1.3,1.9-2.1,2.9-.9,1.2-1.9,2.3-2.6,3l-.5,.5-.2,.2h-.1c0,.1-.2,.3-.4,.1-.2-.1-.2-.3-.2-.4,0-.2,0-.4,.2-.5l.5-.7,1.7-2.1c1.4-1.8,2.9-3.9,3.7-5.4l.4-.8v-.2h0s0,.1,0,0c0,0,.2,.2,.1,.2,0,0,.3,0,.2,0,0,0,.2,0,.1,0,0,0,.1,0,0,0l-.8,1.2c-1.1,1.7-2.6,4-3.7,5.4l-.6,.8h0v-.2c0,0-.1-.3,0-.2,0,0-.4-.2-.3-.2,0,0-.2,0-.2,0,0,0-.1,0-.1,0h0l.5-.6,1.3-2,1.9-3.3c.6-1.2,1.2-2.2,1.3-2.8v-.2h0v.2s.4,0,.3,0c0,0,.2,0,.2,0l-.5,.6-1.2,1.9c-1.1,1.8-2.1,3.7-2.8,4.7l-.5,.7-.7-.5,.7-1.1,1.1-1.5c1-1.4,2.1-3,3-4.6,.6-1,1.1-1.8,1.4-2.5v-.4h.2s.1,.2,.1,.1h.1c0,0,.2,0,.2,0h0l-.8,1.2-2,3.1-1.6,2.5-1.3,2-.3,.5h0v.2h-.1c-.1,.2-.6-.2-.6-.3,0-.2,0-.2,0-.2h0l.6-1.1c.9-1.5,2.2-3.9,3.3-6,.4-.9,.8-1.7,1-2.2v-.6h.2c0-.1,0,0,0,0h.2v.2s.4,0,.3,0h.1l-.3,.4-.7,1.1-1.8,2.9c-.7,1.1-1.4,2.2-2.1,2.9l-.6,.4h-.2c0,0,.1,0,0,0l-.8-.3,.7-1,1.1-1.6c.9-1.3,2-2.9,2.9-4.4l1.2-2.3,.4-.9h0c0,0,.1,.2,0,0,0,0,.2,.2,.1,.1,0,0,.2,0,.1,0,0,0,.2,0,.2,0h0l-.4,.5-2.6,3.7-2.1,2.6-1.3,1.6h0v-.2s0-.2,0-.2c0,0-.2-.2-.2-.2,0,0-.2,0-.2,0h-.1c0,0-.1,0,0,0h0l.7-.8,1.2-1.6c.9-1.3,1.9-2.9,2.7-4.3,.8-1.5,1.6-2.9,1.7-3.4h0c0,.1,.2,.3,.1,.3,0,0,.2,0,.2,0h.1s0,0,0,0l-.5,.6-1.3,2-1.4,2.2-2,2.9-.6,.7-.2,.2h0c0,0,0-.1,0,0,0,0,0-.2,0-.1,0,0-.1-.2,0-.2,0,0-.2-.1-.2-.1,0,0-.2,0-.1,0,0,0-.2,0-.1,0h0l.8-1c1-1.4,2.4-3.7,3.8-5.8l1.3-2.2c.5-.8,.7-1.3,.7-1.4h0c0,.1,0,.3,0,.3,0,0,.2,.2,.1,.1,0,0,.2,0,.2,0h.1c0,0,.1,0,.1,0h0l-.5,.7-.9,1.5-1,1.7-1.3,2.2-.9,1.5-.5,.7-.2,.2h0c0,0,0-.4,0-.3l-.8,.3c-.1-.3,0-.3,0-.4l.5-1.2,1.3-2.5,2.3-4.5,.7-1.6h0c0,0,0,.3,0,.2,0,0,0,.2,0,.1,0,0,.2,.2,.1,.1,0,0,.3,0,.2,0,0,0,.2,0,.1,0,0,0,.1,0,.1,0h0v.2l-.8,1.3-1.9,3.4-2,3.2c-.3,.5-.4,1-.9,1.3-.1,0-.3,.1-.5,0-.3-.2-.2-.4-.2-.5v-.4l.9-1.5,1.6-2.6,1.5-2.4c.7-1.1,1.2-1.9,1.6-2.4l.3-.3h.2v-.2h.3c.2,0,.3,.3,.3,.4v.2l-1.4,2-2.2,3.1-2.3,3-1.2,1.6c-.3,.3-.5,.5-.7,.6h-.2c-.1,0-.3,0-.4-.1-.1-.2,0-.3,0-.4v-.2l1.1-1.6,2.1-3,2.5-3.8,1-1.9v-.2c0,0,0,.1,0,0,0,0,0,.2,0,.1,0,0,.2,.2,.1,.2,0,0,.3,0,.2,0,0,0,.2,0,.1,0,0,0,.1,0,0,0h0l-.2,.3-1,1.8-1.2,1.9-1.7,2.6c-.3,.4-.4,.7-.7,1,0,0-.2,.2-.5,0-.2-.1-.2-.3-.2-.4,0-.2,.1-.4,.3-.7l1.3-2.2,2.8-4.8,1.1-2.1h0s0,.4,0,.3c0-.1,.6,.2,.4,.2-.1,0,.2-.1,.2,0,0,0,0,0,0,0h0l-.5,.8-1.6,2.8-1.4,2.2-1.4,2-.5,.5h-.2c0,.2-.2,.3-.4,.1-.1,0-.2-.2-.2-.3v-.2l.4-.9,1.1-1.9c1-1.6,2-3.4,2.7-4.4l.4-.5s0-.1,.4,0c.2,0,.3,.3,.3,.4,0,.2,0,.2,0,.3l-.5,.8c-.5,.8-1.2,1.8-2,2.8l-1.8,2.1c-.4,.5-.8,1-1.2,1.3l-.5,.4h-.1l-.7-.4,.5-.6,1-1.1,2.9-3.5,2.4-3.3c.5-.8,1-1.4,1.2-1.8h0v.2h.2c0,0,.1,0,.1,0h-.2l-.4,.5-1.8,2.1-1.3,1.6-2.1,2.6-.8,1s0-.1,0,0c0,0,0-.2,0-.1h0c0,0-.1-.3,0-.2,0,0-.2-.1-.1,0h-.1c0,0-.2,0-.1,0,0,0-.1,0,0,0l.4-.5,.8-1.2c.6-1,1.3-2.1,1.9-3.1l.8-1.6h.1c0,.1,.2,.2,.2,.2,0,0,.2,0,.2,0h0l-.8,1.1-1.6,2.4-.9,1.2-.3,.4h0c0,.1,0,0,0,.1-.1,.2-.4,.3-.6,.2-.2-.1-.3-.4-.2-.6l.9-1.5,1.3-2.1,.7-1.2,.2-.4h0c0-.1,0,0,0-.3,.1-.2,.4-.2,.6,0,.2,.1,.2,.4,0,.6l-.4,.6-.5,.9-1.5,2.3-.8,1.1h-.2c0,.2-.3,.2-.4,0-.2-.2-.1-.4-.1-.4v-.3l.6-.8,1.3-2.2,.5-.9s0,.2,0,.1h0v.2c0,0,.4,0,.3,0,0,0,.1,0,.1,0h0l-.5,.8-1.6,2.1c-.4,.5-.8,1-1.2,1.3-.1,0-.2,.3-.6,.1-.2,0-.3-.3-.3-.4v-.2l.5-.7,1.5-2.3,.6-.9v-.3h.1s.1,.3,0,.2c0,0,.2,.1,.1,.1,0,0,.2,0,.1,0,0,0,.2,0,.1,0h-.1l-.4,.8-.9,1.4-.4,.8v.2h-.1c0,0,0,0-.1,.2l-.5-.6h0l.5-.8,.6-.9c.5-.8,1-1.6,1.2-2.1h0c0,.1,.1,.3,.1,.2,0,0,.3,0,.2,0,0,0,.2,0,.1,0l-.2,.2-.9,1.2c-.3,.3-.4,.8-.9,1-.1,0-.4,0-.6-.1-.2-.2-.1-.4,0-.5v-.4l.6-.9,.3-.6v-.2h.1c0-.1,0-.2,.2-.3,.2,0,.4,0,.5,.2,0,.2,0,.4-.2,.5,0,0,.1,0,0,0h0l-.4,.7c-.2,.3-.3,.5-.5,.7h-.2c0,.2-.3,.2-.4,0-.2-.1-.2-.3-.2-.4v-.2l.3-.7,.3-.9c.1-.3,.2-.5,.5-.7,.2-.1,.6,0,.7,.2v.5Z"/><path d="M175,64c0-.2,.1-.4,.3-.5,.2,0,.4,.1,.5,.3,0,.2,0,.1,0,.2h0c0,.5-.3,1.3-.4,1.9v.7c0,0,0,0,0,0,.2,0,.4,.1,.5,.3,0,.2-.1,.4-.3,.5-.4,0-.8-.2-1-.6-.4-1,.2-2.4,.3-3h0s0,.1,0,0m-3.5,12.9c0,.2-.1,.4-.3,.5-.2,0-.4-.1-.5-.3,0-.2,0-.1,0-.2h0l.3-1.2,.6-1.8c.3-1,.7-2,.9-2.6l.2-.3c0,0,.1-.2,.3-.2,.2,0,.3,0,.4,.2,.2,.3,.1,.4,0,.6l-.4,1.5c-.3,1-.7,2-1,2.9l-.3,1v.4h-.2v.3c-.2,0-.3,.1-.5,0-.2,0-.2-.2-.2-.3,0-.3,0-.2,0-.3l.4-1.1,.7-1.7,.5-1.4,.3-.8c0-.2,.1-.3,.3-.4,0,0,.4-.2,.6,0,.2,.1,.2,.3,.2,.4,0,.5-.2,1.1-.4,1.8-.3,1-.7,2-1,2.8l-.4,1.3h0v.2h-.1c0,.2-.5,.2-.6,0-.2-.2,0-.2,0-.3v-.3l.3-.5,.7-1.5,.3-.5,.2-.3,.2-.2h.2c.1,0,.3,0,.4,.1,.2,.3,0,.4,0,.6-.1,.5-.5,1.2-.7,1.7l-.3,.7v.3h0v-.2s0-.2,0-.1c0,0-.2-.2-.1-.2,0,0-.3,0-.2,0,0,0-.2,0-.1,0,0,0-.1,0-.1,0h0l1-1.5,.5-.8c.1-.1,.2-.2,.4-.3,.2,0,.6,0,.7,.3,.1,.4,0,.6,0,.9l-.3,.8-.6,1.3-.2,.4c0,0,0,.1-.2,.2,0,0-.2,0-.3,0-.2-.1-.2-.3-.2-.4h0c.1-.6,.5-1.2,.8-1.9l1-2,.2-.4c0,0,0-.1,.2-.2,.1,0,.5,0,.5,.2,.1,.2,0,.3,0,.4v.2c-.3,.4-.6,.8-.9,1.2l-1,1.2c-.4,.4-.7,.6-1,.8-.3,.2-.4,.2-.5,.2-.1,0-.3,.3-.5,.5v.3h-.1s-.2-.2-.1-.1c0,0-.2,0-.2,0h-.1l.5-.5,.8-1,.3-.4h0c0,0,0,.3,0,.3,0,0,0,.2,0,.1h0c0,0,.1,.2,.1,.2h0c-.5,0-.7-.4-.9-.8-.5-.9-.5-2.3-.6-3.6l-.4-2.9v-.7l-.2-.5v-.3h0c0,.1,.2,.3,.1,.2,0,0,.4,0,.3,0-.2,0,.3-.2,.3-.2h0s0-.2,0-.2v1.7c0,1.1,0,2.2,.1,3v.5c.1,0,0-.1,0,0,0,0-.2,0-.2,0,0,0-.2,0-.1,0h0v-.4c.5-1.2,.8-3.3,1.2-5.2l.5-2.5c.2-.7,.2-1.2,.4-1.6l.7,.4c0,.1,0-.2,0-.2,0,0,0,0,0,0,0,0,.1,.3,.2,.7,0,.7,0,1.7,0,2.4v.6h0c0,0,0-.1,0,0,0,0-.1-.1,0,0,0,0-.2-.1-.2,0,0,0-.3,0-.2,0,0,0-.2,0-.1,0,0,0-.1,.1,0,0h0c.2-1.1,.6-2.9,.9-4.7l.4-2.5v-.7c.1,0,0,0,.2-.3h.2c.1-.2,.3-.2,.4,0,.2,.1,.2,.2,.2,.3v.2l-.2,1.4c-.2,1.5-.7,3.3-.9,4.8-.1,.7-.1,1.3-.1,1.7v.3h0s-.2-.1-.1-.1c0,0-.2,0-.1,0h0c.1-.1,.4-.9,.6-1.6,.2-.7,.3-1.5,.4-2.1v-.7h.1c0-.1,0,0,0-.3,.1-.2,.4-.3,.6-.2,.2,.1,.3,.4,.2,.6,0,0,0,0,0,0,0,0,0,0,0,0h0v.8c-.2,.6-.3,1.4-.6,2.2l-.4,1.2c-.1,.4-.2,.7-.6,.9-.1,0-.3,0-.5,0-.4-.2-.4-.6-.4-1,0-.5,0-1.1,.1-1.9,.2-1.6,.7-3.4,.9-4.8l.2-1.4h0c0,0,0,.3,0,.2,0,0,.1,.1,.1,.1,0,0,.3,0,.2,0,0,0,.2,0,.2,0,0,0,.1,0,.1,0,0,0,0-.1,0,0h0v.6l-.5,2.5c-.3,1.8-.6,3.6-.9,4.6v.4c-.2,0-.3,.2-.6,.2-.2,0-.2-.2-.3-.2v-1c0-.8,0-1.8,0-2.3v-.4h-.1v-.2h0c0-.1,0-.1,0-.4,.1-.2,.4-.3,.6-.2,.2,.1,.3,.4,.2,.6l-.3,1.3-.5,2.4c-.4,1.9-.6,4-1,5.3-.1,.3-.2,.6-.4,.7,0,0-.2,.2-.4,.2-.2,0-.4-.2-.4-.3-.1-.2-.1-.5-.2-.8-.1-.8-.1-2-.1-3.1v-1.8h0c0-.2,0-.3,.2-.3,.2,0,.4,0,.5,.1,.2,.2,0,.2,0,.2v.3l.2,.5v.7l.5,3c.2,1.3,.2,2.7,.5,3.3l.2,.4h.2c0,.1,.3,.2,.3,.4,0,.3,0,.3,0,.3h0l-.3,.4-.8,1.1-.4,.5-.2,.2c0,0-.2,.2-.5,0-.4-.2-.3-.5-.3-.7,0-.2,.1-.4,.3-.7,.2-.2,.4-.6,.8-.8h.4l.9-.9,1-1.1,.7-1h0c0,0,0,.2,0,.2,0,0,.2,.2,.1,.1,0,0,.2,0,.2,0h.1c0,0,.2,0,.1,0h0l-.2,.3-1,2-.7,1.6h0s0-.2,0-.1h0c0,0-.2-.3-.1-.2,0,0-.2,0-.2,0,0,0-.2,0-.1,0,0,0-.2,0-.1,0,0,0,0,0,0,0l.2-.3,.5-1.3,.3-.8v-.3h.1s.1,.1,0,0h.1c0,0,.2,0,.2,0h0l-.4,.7-1,1.7h0v.2c-.2,0-.3,0-.5,0-.3-.2-.2-.3-.2-.4v-.4l.4-.7,.5-1.2,.2-.4h0c0,0,0,.1,0,0,0,0,.2,.2,.1,.1,0,0,.2,0,.2,0h.1c0,0,.1,0,0,0h0v.2l-.3,.5-.7,1.5-.2,.6h0s0-.2,0-.1c0,.1-.8-.2-.6-.3,.1,0-.2,.2-.1,.1h0l.4-1.3c.3-.8,.7-1.8,1-2.8,.2-.7,.4-1.3,.4-1.6h0v.2h.2c0,0,.3,0,.2,.1,0,0,.1,0,.1,0h0l-.3,.8-.5,1.4-1,2.7h0s0-.1,0,0h0s0-.2,0-.2c0,0-.3-.2-.2-.2,0,0-.4,0-.3,0,0,0-.2,0-.1,0,0,0-.1,0,0,0h0v-.3l.5-1.1c.3-.9,.7-1.9,1-2.8l.4-1.4v-.2h0c0,0,.2,.3,.1,.2,0,0,.2,0,.2,0h.1s0,0,0,0h0l-.9,2.6-.6,1.7-.3,1.1h0s0-.2,0-.1m.4-10.4c0-.2,.2-.4,.4-.4,.2,0,.4,.2,.4,.4v.4l-.4,1.6-.8,3.9-.3,1.7v.4h0c0-.1-.1-.3,0-.2,0,0-.3-.1-.2-.1,0,0-.3,0-.2,0,0,0-.2,0-.1,0,0,0-.1,.1,0,.1h0l.6-4.2,.3-1.8v-.6l.2-.2h.1c.1-.2,.5-.1,.6,0v.2c.1,.5,0,1.2-.1,1.9-.2,1.6-.6,3.4-.8,4.6v1.1h-.1c0,0,0-.2,0-.2h-.2v-.2s-.4,0-.4,0c0,0-.1,.1-.1,0,0,0,0,.1,0,0,0,0,0,0,0,0,0-.1,0-.9,.1-1.6,0-.4,.2-.8,.3-1.1l.2-.7,.3-.4h.3c.1-.2,.3-.1,.4,0,.3,.3,.2,.6,.1,.9v.9l-.6,2.4v1h-.1c0,0,0,0,0,.2-.1,.2-.4,.2-.6,0-.2-.1-.2-.4,0-.6h0v-.9l.5-2.4v-1.2h.1s0,0,0,0c0,0,.2,.1,.1,0,0,0,.2,0,.2,0,0,0,.2,0,.1,0h0l-.2,.7-.3,1c-.1,.6,0,1.3-.1,1.6v.2c-.1,0-.2,.2-.5,.2-.2,0-.3-.2-.3-.2-.1-.3,0-.2,0-.3v-1.2c.3-1.3,.7-3.1,.9-4.6,.1-.8,.2-1.5,.2-1.7h0c0,.1,.1,.3,0,.2,0,0,.3,0,.2,0,0,0,.3,0,.2,0,0,0,.1,0,.1,0,0,0,0-.1,0,0h0v.5l-.4,1.7-.4,2.6-.2,1.8h0v.2c0,0-.1,.2-.4,.2-.3,0-.3-.2-.4-.3-.1-.3,0-.2,0-.3v-.4l.3-1.8,.8-3.9,.3-1.5v-.3Zm-.7-7c0-.2,.1-.4,.4-.5,.2,0,.4,.1,.5,.4v.2l-.2,1.7-.3,3.4v1.5h0s0,0,0,0h0s-.3-.4-.1-.3c.1,.1-.6,0-.5,0,0,0-.1,.2-.1,.1h0s0,0,0,0l.4-3.6v-2.5h0v.2s.3,.1,.2,0c0,0,.2,0,.2,0,0,0,.2,0,.1,0,0,0,.1-.1,.1,0,0,0,0,0,0,0l-.3,1.6-.5,3.3v1.9h-.1s0-.1,0,0c0,0-.1-.2,0-.1,0,0-.5,0-.4-.1,0,0-.2,.1-.2,0h0s0,.2,0,.2h0v-1.5l.5-3.2v-1.3l.3-1.2c0-.2,.3-.4,.5-.3,.2,0,.4,.3,.3,.5h0v2c-.2,1.9-.4,4-.5,5.4v1s-.1-.1,0,0c0,0-.2,0-.1,0,0,0-.2,0-.2,0h0c.1-.1,.4-1.5,.7-2.9l.5-2.7v-.2l.2-.2c0,0,.2-.1,.3,0,.3,0,.3,.2,.3,.3v.3l-.3,2c-.2,1.5-.6,3.1-.8,4.4v2h-.2v-.2h-.2c0,0-.3,0-.2,0,0,0-.1,0-.1,0h-.1c.1,0,.4-2.1,.8-3.7l.4-1.5c0-.2,.2-.5,.4-.6,.1,0,.4,0,.6,0,.1,.1,.2,.2,.2,.4,.1,.5,0,1.2,0,1.8,0,1-.3,2-.4,2.9v1.1l-.2,.4h0c0,0-.1-.3,0-.2h-.2c0,0-.3,0-.2,0,0,0-.1,0-.1,0,0,0,0,0,0,0h0c.2-.4,.5-2.3,.9-4.2l.5-2.1,.2-1v-.3l.3-.2c0,0,.2-.1,.4,0,.1,0,.2,.1,.2,.2,.3,.5,0,1,0,1.5,0,1.3-.5,2.9-.9,4.2l-.4,1.6-.2,.7v.2c-.1,0-.2,.2-.4,.2-.3,0-.4-.2-.4-.2-.1-.3-.1-.5,0-.8v-1.1l.2-2.3,.2-1.3c0-.6,0-1,.2-1.3l.2-.2c.1,0,.3,0,.4,0,.3,.1,.2,.2,.3,.3v.3c0,.5-.2,1-.3,1.7-.4,1.8-1.1,3.9-1.6,5.3l-.3,.9c0,0,0,.2-.2,.3,0,0-.3,.1-.4,0-.3-.1-.2-.3-.3-.3,0-.2,0-.5,0-.9v-1.5c.3-1.4,.7-3,1-4.4l.4-1.5v-.2c.1,0,.1-.1,.3-.2,.2,0,.5,0,.5,.2,.1,.2,0,.3,0,.5l-.3,1.9-.9,4.1-.2,1.2h0c0,.1-.1,0,0,0h-.1c0,0-.2,0-.2,0,0,0-.1,0,0,0,0,0,.5-1.7,.7-3.2l.3-2.3v-.6h0c0-.3,.2-.4,.5-.4,.2,0,.4,.2,.4,.5v.6l-.4,2.4-.4,2.2c-.2,.6-.2,1.1-.6,1.4,0,0-.3,.2-.5,0-.3-.1-.3-.3-.3-.4v-1.7l1.1-4.1,.3-1.8h0c0,0,0,0,0,0h0c0,0,.2,.2,.1,.2,0,0,.2,0,.2,0h.1c0,0,.2-.1,.1-.1,0,0,0,0,0,0h0l-.3,1.6c-.3,1.3-.6,2.9-.8,4.3v2.1h-.2s-.2-.2-.1-.1c0,0-.3,0-.2,0,0,0-.2,0-.2,0,0,0-.2,.1-.1,0h0l.3-.9c.5-1.4,1.1-3.5,1.5-5.3,.2-.7,.3-1.2,.3-1.5h0s.1,.2,0,.1c0,0,.2,0,.2,0,0,0,.3,0,.2,0h.1c0,0,.1-.2,.1-.2h0l-.2,1.1-.2,1.3v3.7h-.2c0,0-.2-.2-.1-.2,0,0-.2,0-.2,0,0,0-.2,0-.1,0,0,0-.2,.1-.1,0,0,0,0,0,0,0l.2-.7,.4-1.6c.3-1.4,.8-3,.8-4.1v-1h.1s.2,.2,.1,.1c0,0,.3,0,.2,0,0,0,.2,0,.1,0,0,0,.1-.1,0,0h0l-.3,1.1-.5,2.1-.5,2.7c-.2,.8-.3,1.4-.4,1.7v.2c-.2,0-.5,.1-.6,0-.3-.2-.2-.3-.2-.3v-.6l.2-1.2c.1-.9,.3-1.9,.4-2.8,0-.7,0-1.3,0-1.6h0s.2,.1,.1,.1h.2l-.4,1.5-.5,2.4c-.1,.7-.2,1.3-.4,1.7h-.1c0,.2-.2,.2-.4,.2-.3,0-.3-.2-.3-.3,0-.3,0-.4,0-.7v-1.7c.3-1.4,.6-3,.9-4.4l.3-1.9h0s.1,.2,0,.1c0,0,.3,0,.2,0,0,0,.2,0,.2,0,0,0,.1,0,.1,0,0,0,0-.1,0,0h0l-.5,2.7-.4,1.9c-.1,.6-.2,1-.5,1.4-.1,.1-.3,.2-.5,.2-.2,0-.4-.3-.4-.4,0-.3,0-.7,0-1.2,0-1.5,.3-3.6,.4-5.4v-2.1h.9v1.3l-.3,1.3-.4,3.2v1.5h-.1v.2c0,0,0,.2-.3,.3-.1,0-.3,0-.4-.1-.2-.2-.1-.2-.1-.2v-2.1l.6-3.3,.3-1.6h0c0-.1,0-.2,.2-.3,.1,0,.3,0,.5,0,.2,.1,.2,.2,.2,.3v2.7c-.1,1.5-.3,3.1-.4,3.7h0c0,.1,0,.1-.1,.3,0,0-.2,.1-.4,0-.3,0-.3-.2-.3-.3,0-.2,0-.1,0-.2v-1.5l.3-3.5,.2-1.7h0Zm.5-6.6c0-.2,0-.4,.3-.5,.2,0,.4,0,.5,.3,0,.2,0,.1,0,.1h0v1.7c-.2,1.4-.4,3-.6,4.4v2.2h-.1v.2l-.2,.2c-.1,.1-.5,0-.6,0-.2-.2-.1-.2-.1-.3h0v-7.7h.2c0,.1,.2,.2,.1,.2,0,0,.2,0,.2,0,0,0,.2-.1,.2,0h.1c0,0-.1,.9-.2,1.8l-.4,3-.2,1.1v.4c0,0,0,0-.2,.2,0,0-.2,.2-.4,.1-.3,0-.3-.2-.3-.3h0c0-.5,0-1,0-1.5,0-1.4,.3-2.9,.5-4.1v-.8l.2-.6v-.2h0c0-.1,0,0,0-.3l.7,.4h0v2.3h0c0,0-.2-.2-.1-.2h-.1c0,0-.2,0-.2,0,0,0-.1,.1,0,0h0v-4.6l-.2-.5h0c0,0,.3,0,.2,0,0,0,.2-.2,.2-.1,0,0,0,0,0,0v1.9h0s0-.2,0-.1h0s-.2-.1-.1-.1c0,0-.2,0-.1,0,0,0-.3,.1-.2,0h-.1v.2c0-.2,.1-1.3,.2-2.2v-.6c0-.2,.1-.3,.2-.4,.1-.1,.4-.3,.6-.1,.4,.2,.3,.4,.4,.6v.5l.2,.3h-.1c0,0-.2-.2-.2-.1,0,0-.3,0-.2,0,.1,0-.3,.2-.2,.2,0,0,0,.1,0,.1v-.6c0-.1,.6,.2,.5,.3-.1,0,.2-.1,.2-.1h0c0,0-.3,.7-.4,1.7-.1,.9-.1,2-.1,3.1,0,1.5,0,2.8,0,3.5v.3h0c0,0-.3,0-.2,0,0,0-.2,.1-.1,0h0v-1.1l.2-.9v-.5h.1c0-.1,.1-.2,.3-.2,.3,0,.4,.1,.4,.2v8.6h0c0,.1-.2,0-.2,0,0,0-.3,0-.2,0,0,0-.2,0-.1,0,0,0-.1,.1,0,0h0v-.6l.5-2.1,.3-2.2v-1.4h.2v-.3c.2,0,.5-.2,.6,0,.2,.2,.2,.2,.2,.3v.2l-.3,1.9c-.2,1.4-.5,3-.6,4.3v2.1h0s-.1-.2,0-.1c0,0-.2,0-.2,0,0,0-.2,0-.2,0,0,0-.2,.1-.2,0h0v-8.8h0c-.1-.2,0-.4,.1-.5,.2-.1,.4,0,.6,.1,.2,.3,0,.3,0,.4l-.2,1.2c0,1.1-.1,2.6-.1,4v2.5c0,.2-.2,.4-.4,.4s-.4-.2-.4-.4v-6h0v-.3c0-.2,.3-.3,.5-.3,.2,0,.3,.3,.3,.5h0v6.1c0,.2-.2,.4-.4,.4s-.4-.2-.4-.4v-2.5c0-1.3,0-2.8,.1-4v-1l.2-.3h0l.7-.3c.2,.2,.1,.4,.1,.6v7.6c0,.6,0,1.1-.2,1.5l-.2,.2c0,0-.3,0-.4,0-.3-.1-.2-.3-.3-.3v-2.4c.1-1.4,.4-2.9,.6-4.3l.3-1.9h0v.2h.2c0,.1,.2,.2,.2,.2,0,0,.2,0,.2,0,0,0,.2-.1,.2,0,0,0,0-.1,0-.1h0v1.3l-.4,2.2-.4,2.1v.6l-.2,.2h0l-.2,.3c-.1,0-.3,0-.4-.1-.3-.3-.2-.6-.2-1.1v-7.9h.2v.2s.2,.1,.2,0c0,0,.3,0,.2,0,0,0,.2,0,.2,0,0,0,.1,0,0,0,0,0,0-.1,0,0h0v1.8c-.2,.3-.1,.5-.3,.8,0,.1-.3,.2-.5,.2-.3,0-.4-.2-.4-.4v-.5c-.2-.8-.1-2.1,0-3.6,0-1.1,0-2.3,.1-3.2,0-.6,.2-1.1,.3-1.5v-.4h.2v-.2h0l.2-.2c.2,0,.5,.1,.5,.3,0,.3,.2,.7,0,1.1l-.2,.2c-.1,0-.3,0-.4,0-.3-.1-.2-.2-.2-.2l-.2-.6v-.5h.1c0,0,.2,0,.2,0,0,0,0,0,0,0h0v.5c0,.8,0,1.8-.3,2.4v.2c-.2,0-.5,.2-.6,0-.2-.1-.2-.2-.2-.3v-1.9c-.1-.2-.2-.4,0-.7,0-.1,.3-.2,.4-.2,.4,0,.4,.3,.5,.5l.2,.6v4.4c.1,.3,.2,.5,0,.8,0,0-.2,.2-.3,.2-.3,0-.3-.2-.4-.2-.1-.2-.1-.4-.1-.6v-1.6c0-.3-.1-.5,0-.8,.1-.2,.4-.3,.6-.2,.2,.1,.3,.4,.2,.6h0s0-.2,0-.1v1l-.2,.9c-.2,1.2-.4,2.7-.5,4v1.3h0v-.2s-.3-.1-.2-.1c0,0-.3,0-.2,0,0,0-.2,0-.2,0h-.1v-.2l.2-1.1,.4-2.9c0-.9,0-1.6,.2-2.1v-.2c.2,0,.4-.2,.6,0,.3,.1,.2,.2,.2,.3v7.8h0s0-.2,0-.1c0,0-.1-.1,0,0,0,0-.3-.1-.2-.1,0,0-.3,0-.3,0,0,0-.1,.1-.1,0,0,0,0,.1,0,.1h0v-2.1c.2-1.4,.5-3,.6-4.4v-1.7h0Zm.8,.7c-.1,.2-.4,.3-.6,.2-.2-.1-.3-.4-.2-.6,0,0,0,.1,0,.1h0v-1h0s.2,.2,.1,.2c0,0,.4,0,.3,0-.2,0,.3-.2,.2-.2h0c-.1,.3,0,2.9,0,5,0,1.2,.2,2.2,.4,2.7h0s-.1,0,0,0c0,0-.2,0-.1,0,0,0-.2,0-.2,0,0,0-.2,0-.2,0,0,0-.1,.1,0,0,0,0,0,.1,0,.1l-.2-2.9c0-.9,0-1.8,0-2.6v-1.7h0c0,0,.2,.3,.1,.3,0,0,.4,0,.3,0-.2,0,.3-.2,.2-.2h0v1.3l-.6,3.5v2.7h-.2l-.8,.3c-.1-.4,0-.7,0-1.1,0-1.1,.3-2.9,.4-4.4v-1.8l.2-.6v-.2h0c0,0,0,0,0-.2,0-.2,.3-.3,.5-.2,.2,0,.3,.3,.2,.5h0s0-.1,0,0v.8l-.2,1.8-.4,4.4v.8c0,.2,0,.5-.3,.5-.2,0-.4,0-.5-.3,0-.2,0-.3,0-.4v-.7l.2-1.9,.5-3.5v-1.5h.2v-.3c.2,0,.4,0,.5,0,.2,0,.2,.2,.2,.3v1.9c0,.8,0,1.7,0,2.5l.2,2.4v.9c-.1,0-.3,.3-.5,.2-.3,0-.3-.2-.3-.3v-.2c-.2-.6-.4-1.7-.5-2.9v-4.6c0-.4,0-.6,0-.8v-.2c.3-.1,.6,0,.7,0,.2,.2,0,.2,0,.2v1.2h0c0,0,0,0,0,.3"/><path d="M176.1,48.9c.2,0,.4,.2,.4,.4,0,.2-.2,.4-.4,.4h-.8c-.6,0-1,0-1.3,0-.2,.1-.4,0-.6-.2-.1-.2,0-.4,.2-.6,.6-.3,1.2-.2,1.7-.2h.8Zm1.6,.3c.2,.1,.3,.4,.1,.6-.1,.2-.4,.3-.6,.1l-.5-.3c-.4-.2-1.5,0-2.6,0l-1.4,.2h-.4c0,0,.1,0,0,0,0,0,0-.3,0-.2,0,0-.1-.3,0-.2,0,0-.1-.1-.1-.1,0,0-.1,0-.1,0h0l.9-.2c.6,0,1.2,0,1.7,0h1.2c.2,0,.4,.2,.4,.4,0,.2-.2,.4-.4,.4h-1.3c-.5,0-1.1,0-1.6,0-.4,0-.7,.2-1.1,.2h0s-.1,0-.2-.1c-.1-.1,0-.5,0-.5,.2-.2,.2-.1,.2-.1h.6l1.5-.3c1,0,2.1-.2,2.9,0,.3,.1,.6,.3,.6,.3m2.1,4.9c.1,.2,0,.4-.1,.6-.2,.1-.4,0-.6-.1-.1-.2,0-.2,0-.2v-.2l.2-2.2v-1.3h0s.2,.1,.1,.1c0,0,.2,0,.2,0h.1c0,0,.1-.1,0,0h0l-.3,.5c-.1,.2-.2,.5-.4,.7-.4,.5-1,.4-1.5,.1-.4-.2-.6-.7-.7-1.1l-.4-1.1c-.2-.4-.7-.7-1.2-.7h-.4l-.8,.3h0s0-.3,0-.3c0,0-.1-.1,0,0h.7c.9,0,1.8,.2,2.5,.1,.4,0,.5-.2,.5-.2h0c-.1-.1-1.7-.6-2.9-.5-.6,0-1.1,.1-1.4,.3h0s0-.3,0-.3h0c0,0,.6,.3,1.2,.5l1.4,.3h1.4c.2-.1,.4-.1,.6,0,.1,.2,.1,.4,0,.6-.3,.2-.5,.2-.7,.2h-1.3c-.5,0-1-.2-1.6-.4-.5-.2-1-.4-1.3-.6-.2-.1-.4-.2-.4-.5,0-.3,.3-.6,.5-.6,.4-.1,1-.3,1.6-.3,.8,0,1.7,0,2.4,.2,.4,0,.7,.2,.9,.4,.3,.2,.5,.5,.4,.8-.1,.6-.7,.8-1.3,.9-.8,0-1.7-.2-2.5-.2-.3,0-.7,.2-1.1,0-.1,0-.2-.2-.3-.4,0-.3,.1-.4,.2-.5l.3-.2c.3-.1,.6-.3,1-.3h.6c.8,0,1.6,.4,1.9,1.2,.3,.8,.5,1.7,.8,1.8,.2,0,.4,0,.4,0l.3-.6,.2-.4v-.2h.2c0-.2,.2-.3,.4-.2,.3,.1,.3,.4,.4,.5v1.5l-.2,2.2h0s0-.2,0-.1m-1.6-3.5c0-.2,.1-.4,.4-.4,.2,0,.4,.1,.4,.4h0v5.4h0c0,0,0,0,0,0,0,0-.2-.1-.1,0,0,0-.2,0-.2,0,0,0-.2,.1-.2,0h0l.3-1.6,.4-3v-1.4l.2-.2h.2c.1-.2,.3-.1,.4,0,.3,.2,.2,.3,.2,.3v.2l-.4,2.9-.2,1.4v.3h0v.2h-.3c-.1,.2-.3,0-.4,0-.2-.2-.1-.3-.1-.3v-.2l.5-3.5v-1.1h.1v-.2c.2,0,.4,0,.5,0,.2,.1,.2,.2,.2,.2v4.4h-.1v.2h0s0,0,0,.2c-.1,.2-.4,.2-.6,0-.2-.1-.2-.4,0-.6h0v.2h0v-.7l.2-3.2v-.4h0s0,.2,0,.2c0,0,.7,.1,.5,.2-.2,0,.3-.3,.3-.2h0v.9l-.5,3.5h0c0,0-.2-.3-.1-.3,.2,.1-.6,.1-.5,0,0,0,0,.1,0,.1h0v-.2l.2-1.4,.3-2.8h0s0,.2,0,.2c0,0,.1,.1,0,0,0,0,.2,0,.2,0,0,0,.2,0,.2,0,0,0,.2,0,.1,0,0,0,.1-.1,0-.1,0,0,0,0,0,0h0v1.3l-.5,3c-.1,.8,0,1.5-.4,2,0,0-.2,.2-.4,.2-.3,0-.4-.2-.5-.3v-5.7h-.1Zm1.2,25.2c0,.2-.2,.4-.4,.4s-.4-.2-.4-.4v-3.1l-.2-3.3-.4-5.9-.2-2.3v-.7l-.2-.5h0c0,0,.1,.1,0,0h.2c0,0,.3,0,.2,0,0,0,.1-.1,.1,0,0,0,0-.1,0,0h0c0,.2,.4,3.3,.6,5.7l.2,2.2v.7c0,0,0-.1,0,0h0s-.2-.2-.1-.2c0,0-.4,0-.3,0,.1,0-.3,.2-.2,.1,0,0,0,.1,0,0h0v-1.1c.2-1.2,.5-2.7,.6-4.5,0-1.7,0-3.5,0-4.7,0-.6-.2-.9-.3-1h0s.1,0,0,0c0,0,.2,0,.2,0,0,0,.2,0,.2,0h.1c0,.7,0,2.2,0,3.8v3.7h0v-.2s-.2-.2-.2-.1c0,0-.2,0-.1,0,0,0-.2,0-.2,0,0,0-.2,.1-.2,.1h0v.2c0,0,0,0,0,0h0v-8.3h0s.2,.2,.1,.2c0,0,.3,0,.2,0,0,0,.2,0,.2,0,0,0,.2-.1,.1-.1h0v5.2l.2,1v.3h0v-.2h-.2c0,0-.3,0-.2,0,0,0-.2,.1-.1,0,0,0,0,.1,0,0h0v-1.6l.2-2.6v-2.4c0-1.5-.1-3.1-.3-4v-.3h0c0,0,.3,0,.2,0,0,0,.1-.1,0-.1v5c0,.2-.1,.4-.4,.4-.2,0-.4-.2-.4-.4v-1l.2-3.4v-2c0-.2,.2-.4,.4-.4,.2,0,.4,.2,.4,.4,0,0,0,0,0,0v5.3l-.2,.9h-.8v-4.2c0-.5-.1-.9,0-1.2,0-.1,.2-.3,.4-.3,.3,0,.4,.2,.5,.4l.2,.6c.2,1,.3,2.6,.3,4.1v5c-.2,.8,0,1.4-.3,1.9,0,0,0,.1-.2,.2-.1,0-.4,0-.5,0-.2-.2-.2-.3-.2-.4v-1.4l-.2-3.3v-1.4c0-.4,0-.7,0-1,0,0,.2-.3,.4-.3,.2,0,.3,.1,.3,.2,.2,.3,.1,.5,.2,.8v8.3c-.2,0-.5,.1-.7,0-.2-.1-.1-.2-.2-.2v-3.9c0-1.6-.1-3.1,0-3.9,0-.2,0-.4,.3-.6,.2-.1,.4,0,.6,0l.2,.2c.2,.3,.3,.7,.4,1.4,.1,1.3,.1,3.1,0,4.9,0,1.8-.4,3.4-.5,4.5v1.3c0,0,0,0-.2,.2h-.2c-.2,.2-.4,0-.5,0-.1-.2,0-.2,0-.2v-.8l-.3-2.2-.4-3.7-.2-1.5c0-.4,0-.6,0-.9,0,0,0-.2,.2-.3,.2,0,.4,0,.5,0,.2,.2,.1,.2,.1,.2v.7l.2,.8,.2,2.4,.4,5.9,.2,3.3v3.1Zm-.2-4.8c0,.2,0,.4-.2,.5-.2,0-.4,0-.5-.2-.1-.3,0-.4,0-.7v-.8l.4-1.8v-.8l.2-.5h0s.1,.2,0,.2c0,0,.4,.2,.3,.1-.1,0,.3-.1,.3,0,0,0,.1-.1,0,0h0l-.2,1-.3,3v1.8h0v-.2s-.3,0-.2,0c0,0-.1,0,0,0h.2c.1,0,.3,.1,.4,.3,.2,.4,0,.7,0,1v2.2c0,.2-.2,.4-.4,.4s-.4-.2-.4-.4v-2.9c0,0,.3,.2,.2,.2,0,0,.1,0,.1,0h0c0,0-.3,0-.4-.3-.1-.3,0-.5,0-.9v-1.3l.4-3,.2-1.2h0c0-.2,0-.3,.3-.3,.2,0,.4,0,.4,.2,.1,.2,0,.2,0,.2v.7l-.2,.9-.3,1.8v.8l-.2,.3h0Zm-.3-11.4c.2,0,.4,.2,.3,.5,0,.2-.2,.4-.5,.3,0,0,0,0,0,0-.2,.3-.3,1.4-.3,2.8l-.2,5.4-.2,1.9-.2,.7c0,0,0,.2-.3,.3-.1,0-.3,0-.4,0l-.2-.2c-.2-.4-.1-1,0-1.7l.2-2.5,.4-2.8v-.4c0-.1,0-.1,.2-.3l.7,.4s0-.1,0,0l-.2,3.8v3.7h-.4c0,0-.3,0-.2,0,0,0-.1,.1-.1,0l.5-3.3,.3-1.9,.2-1v-.4c0,0,0-.1,.2-.3l.6,.5s0-.1,0-.1h0v.8c0,.9,0,2.2-.1,3.4v1.9l-.2,.3h0c0,.1,0,0,0,0,0,.2-.2,.4-.4,.4s-.4-.2-.4-.4v-1.3l.2-1.1c0-1.1,.2-2.5,.2-3.3v-.8c0,0-.1-.2,0-.4,.1-.2,.4-.2,.6,0,.2,.1,.2,.4,0,.6,0,0,0,0,0,0l-.2,1.4-.3,1.9-.3,2.2-.2,.9c0,.2,0,.4-.3,.6,0,0-.3,.2-.5,0-.2,0-.3-.2-.3-.3v-4.1l.2-2.6v-1.2c0,0,0,0,.1-.3,.1-.2,.4-.3,.6-.1,.2,.1,.3,.4,.1,.6h0v.5l-.4,2.8c-.2,1.7-.3,3.7-.2,3.9h0s-.1-.2,0-.1c0,0-.2,0-.2,0,0,0-.2,0-.2,0h-.1s0,.1,0,.1h0v-.4l.3-1.8,.2-5.4c0-1,0-1.8,.2-2.5,0-.3,.1-.6,.3-.8,.2-.2,.5-.4,.8-.4"/><path d="M192.2,65.6c0,.2,0,.4-.3,.5-.2,0-.4,0-.5-.3v-.2h0c0,0,.2,.1,.1,.1,0,0,.2,0,.2,0,0,0,.1,0,.1,0,0,0,0-.1,0,0,0,0,0,1.2,0,2.4v1.9l.2,.6h0s-.1-.1-.1-.1c0,0-.2,0-.2,0,0,0-.2,0-.2,0,0,0-.2,.1-.1,.1,0,0,0,0,0,0,0-.3,0-1.3,0-2.3v-4.1l.3-.2c.1,0,.3,0,.4,0,.3,.1,.3,.3,.3,.4l.3,1.3,.9,3.1,.2,.9,.2,.7h-.1l.2-1.2c.1-1.1,.2-2.2,.3-3.1,0-.4,.2-.8,.5-1.1,.3-.3,.8-.2,1.2,0,.2,.1,.2,.4,0,.6-.1,.2-.4,.2-.6,0-.2-.1-.2-.1-.2-.1-.2,.2-.3,2.1-.5,3.7v1c-.2,.3-.2,.6-.5,.9-.2,.1-.5,.2-.7,0-.2,0-.3-.3-.4-.4l-.3-.8-.2-.9-.9-3.2-.2-.9v-.3h0s.2,.1,.1,0c0,0,.2,0,.2,0,0,0,.2,0,.2,0h0s0-.2,0-.1h0v3.7c0,1,0,1.9,0,2.4v.2c-.1,0-.3,.2-.5,.2-.3,0-.4-.2-.4-.3v-.2l-.2-.7v-4.7c0,0,.2-.2,.4-.2,.3,0,.4,.2,.4,.3v.3Z"/><path d="M201,65.8c0,.2-.3,.4-.5,.3-.2,0-.4-.3-.3-.5,0-.3,0-.7-.3-.9h-.3c-.3-.2-.5-.2-.8-.2-.5,.1-.8,1-.5,1.7,.3,.7,1.2,1.3,1.9,2.1,.3,.3,.4,.7,.5,1,0,.4,0,.8-.4,1.1-.5,.5-1.2,.5-1.9,.5h-1.4c-.2,.1-.4,0-.5-.2,0-.2,0-.4,.2-.5,.5-.2,1.1-.1,1.7-.1,.6,0,1.2-.1,1.4-.3,.1,0,.1-.2,.1-.3,0-.2-.2-.5-.4-.7-.5-.7-1.6-1.3-2-2.3-.4-1.1,0-2.5,1-2.8,.4-.1,.8,0,1.2,0,.3,0,.5,.2,.7,.4,.4,.4,.6,1,.5,1.6"/><path d="M202.2,65.6c0-.2,.2-.4,.4-.4,.2,0,.4,.2,.4,.4h0c0,.2-.1,.4-.3,.4-.2,0-.3,0-.3,0-.2-.2-.2-.2-.2-.3v-.3l-.2-.5h0v-.2s0,0,0,0l.8-.2c.1,.3,0,.6,0,.8,0,.9-.1,1.9-.2,2.9,0,.5-.1,1,0,1.3v.2h-.1l1.1-.4c.3,0,.7,0,1.1,.1,.3,.2,.4,.5,.5,.7v.4c.2,0-.1-.1,0,0,0,0-.2,0-.2,0h0c0,0,.6-1,.9-1.9,.2-.6,.3-1.3,.5-1.9,.2-.6,.6-1.2,1.3-1.6,.2-.1,.4,0,.6,.1,.1,.2,0,.4-.1,.6-1,.7-1.1,1.7-1.5,3-.2,.6-.4,1.1-.6,1.6l-.4,.6-.3,.2c-.2,0-.4,0-.5-.1-.2-.2-.2-.5-.3-.7v-.3c-.2,0-.4,0-.6,0l-.7,.3h-.4c-.1,.2-.4,.2-.6,0-.2-.2-.3-.5-.3-.7-.1-.5,0-1,0-1.5,0-1,.2-2.1,.2-2.8v-.6c0-.2,0-.4,.3-.5,.2,0,.4,0,.5,.3v.5l.2,.3h-.2c0,0-.2-.1-.1-.1,0,0-.2,0-.2,0h-.1s0,.3,0,.2c0,0,0,.1,0,.1h0Z"/><path class="h" d="M172.8,27c.2-.1,.4,0,.6,.2,.1,.2,0,.4-.2,.6,0,0,.2-.4,.2-.2,0,.2-.2-.5-.1-.4,0,0-.1,0-.1,0,.2,0,4.1,0,6.5,.2,.2,0,.4,.2,.4,.4,0,.2-.2,.4-.4,.4l-4.3-.2h-2.4l-.2-.2c0,0-.2-.3-.1-.5,0-.2,.2-.2,.2-.2"/><path class="h" d="M173.4,27.9c.1,.2,0,.4-.2,.6-.2,.1-.4,0-.6-.2h0s.1,0,0,0c0,0,.2,0,.2,0,0,0,.2-.1,.2,0h0s0-.2,0-.2v.4c.4,1.3,2.1,3.4,3.4,4,.2,0,.3,.3,.2,.5,0,.2-.3,.3-.5,.2-.8-.4-1.6-1.1-2.3-2-.7-.8-1.3-1.8-1.5-2.6,0-.3-.1-.5,0-.7v-.2c.1,0,.2-.2,.4-.2,.2,0,.4,0,.4,.1v.2Z"/><path class="h" d="M178.8,29.1c0,.2-.3,.4-.5,.3-.2,0-.4-.3-.3-.5v-.2h0v.2h.3c0,0,.1,0,.1,0,0,0-.8,1-1.5,2l-1,1.4-.6,.8c-.1,.2-.4,.2-.6,0-.2-.1-.2-.4,0-.6l1.9-2.8c.4-.6,.8-1.1,1.1-1.4l.3-.2c0,0,.2,0,.3,0,.3,0,.4,.3,.4,.5v.4Z"/><path class="h" d="M174.5,29c.2,.1,.2,.4,0,.6-.1,.2-.4,.2-.6,0l-.4-.3h-.1c0-.2,0-.3,0-.5,0-.2,.2-.3,.3-.3,.2,0,.3,0,.4,0h.4c.6,.1,1.5,0,2.3,0l.9-.2h.3s0-.2,.3,0c.1,.1,.1,.4,0,.5-.2,.3-.2,.2-.2,.2h0l-1.8,.5h-.8l-.8,.3h-.6c0,0-.2-.2-.2-.4,0-.3,.2-.3,.2-.4h.8l1.6-.3h1.2c.1,0,.3,.4,.2,.5-.2,.3-.4,.3-.6,.4l-.5,.2-.8,.4-.4,.2h-.5c-.1-.2-.1-.4-.1-.5h0c.3-.5,.8-.8,1.3-1.1l.6-.4c.2-.1,.3-.2,.6-.1,.1,0,.3,.2,.4,.4,0,.2,0,.3,0,.4-.2,.4-.7,.7-1,1l-1.1,.9-.5,.3c-.2,0-.5,0-.7-.2-.3-.3-.2-.6-.2-.8v-1.5c0-.2,0-.3-.2-.4,0,0-.4,0-.5,.1h0v.3l.6,.3,1.1,.5h.4v.2h-.2c0-.2-.5-.7-.9-1.2l-.9-.8h0c0,0,.2-.2,.2-.1h0s0-.4,0-.3c0,0,0-.2,0-.1,0,0,0-.1,0-.1h0l1.2,.5,1,.3h.6l.6,.3h.4l-.4,.8h-.9l-.5-.2h-.6c0,0,0-.4,0-.3,0,0-.1-.3,0-.2,0,0-.1,0-.1,0l1.9-.2c.3,0,.5-.1,.8,0,.2,0,.4,.1,.5,.3,.1,.2,.2,.4,0,.6-.2,.5-.6,.6-.8,.8l-.7,.7h-.2v.2h-.3c-.2,0-.4-.2-.4-.4,0-.3,0-.2,0-.2h0l.4-.6h0c0,0,0,.1,0,0h0c0,0,.1,.3,0,.3,0,0,.2,.1,.2,.1,0,0,.2,0,.1,0,0,0,.2,0,.2,0h.1l-.8,1-.4,.7v.2h-.1c.1,0,0,.3-.1,.4-.2,.1-.4,0-.6-.1-.2-.4,0-.6,0-.8,.3-.8,.9-1.7,1.3-2,0,0,0-.1,.3-.1,.1,0,.3,.1,.4,.3,.1,.3,0,.3,0,.3l-.2,.2-.4,.6h0v-.2s0-.2,0-.1c0,0-.2-.2-.1-.1,0,0-.2,0-.2,0h-.1c0,0-.1,0-.1,0h0l.7-.7,.5-.5h0v.2h-.6l-1.3,.2h-.6c-.2,0-.4,0-.6-.2,0,0-.1-.3,0-.4,0-.4,.3-.3,.4-.4h1.6c.4,0,.8,0,1.2,.2,.2,.1,.3,.3,.2,.5-.1,.2-.3,.3-.5,.2h-.3l-.6-.2h-.6l-1.1-.5c-.5-.2-1-.4-1.3-.6,0,0-.2,0-.2-.3,0-.1,0-.4,.2-.5,.2-.1,.3,0,.3,0l.4,.2,1,.9c.5,.5,1,1,1.1,1.6,0,.2,0,.4-.1,.6-.1,.2-.4,.4-.7,.3l-.5-.2c-.4-.1-.9-.3-1.3-.6-.2-.1-.6-.3-.8-.6-.2-.4-.4-.9,0-1.3,.4-.4,1-.6,1.5-.3,.3,.2,.5,.5,.6,.9,0,.3,0,.7,0,1v.9h-.2l.3-.3,1-.9,.9-.8h0s0,.2,0,.1c0,0,0,.2,0,.2,0,0,.1,.1,.1,.1,0,0,.2,0,.1,0h0l-.5,.4-1.1,.8h0s0-.3,0-.2c0,0,0-.2,0-.1,0,0-.1-.2,0-.2,0,0-.1-.1-.1,0,0,0-.2,0-.2,0,0,0-.1,0-.1,0h.3l.8-.5,.6-.2h.2c0,0,0,0,0,0,0,0,0,.2,0,.1,0,0,0,.2,0,.2,0,0,.1,.2,0,.1,0,0,.2,.1,.1,0,0,0,0,0,0,0h-.8l-1.7,.4h-.5s.2,0,.1,0c0,0,.2-.2,.1-.1,0,0,0-.4,0-.3,0,.1-.2-.3-.1-.2,0,0-.1,0,0,0h0c0,0,0,0,0,0h.2l.8-.2h.8l1.7-.6h-.1c0,0-.1,.3,0,.2h0v.3c0,0,.2,.2,.2,.2h.2c0,0,0,0,0,0h-.2l-1,.2c-.8,0-1.7,.2-2.5,0h-.4c0,0,.1-.2,.1-.2,0,0,.1-.2,.1-.1,0,0,0-.2,0-.2h0v-.2h0l.2,.2Z"/><path class="h" d="M188.6,28.8c0,.2,0,.4-.2,.5-.2,0-.4,0-.5-.2-.1-.4,0-.7,0-1.1,0-.2,0-.3,.2-.5,0,0,.3-.2,.5,0,.2,.1,.2,.3,.3,.4,0,.6-.3,1.2-.5,1.9-.3,.8-.7,1.7-1,2.3l-.5,1v.2c-.1,0-.2,.2-.4,.1-.3,0-.4-.2-.4-.3,0-.2,0-.2,0-.3v-.3c.1-.2,.3-.4,.6-.3,.2,0,.4,.3,.3,.5v.3h0s0-.2,0-.1h0c0,0-.2-.2-.1-.2,0,0-.3,0-.2,0,0,0-.2,0-.2,0,0,0-.2,0-.1,0,0,0,0,0,0,0l.5-1c.3-.7,.7-1.5,1-2.2l.5-1.5s0,.1,0,0h0v.2s.4,0,.3,0c0,0,.2,0,.1,0,0,0,.1,0,0,0h0v.7Z"/><path class="h" d="M187.4,26.9c0,.2,0,.4-.2,.5-.2,0-.4,0-.5-.2l-.3-.7c0,0-.1-.1,0-.4,0-.2,.3-.3,.4-.3h.2l1.2,.5c.8,.3,2,.3,3.2,.2,1.2,0,2.3-.1,3.1,0,.2,0,.4,.3,.3,.5,0,.2-.3,.4-.5,.3-1.2-.3-4.4,.4-6.4-.3l-1.2-.5h0s.2,0,.2,0c0,0,.2-.2,.2-.1,0,0,0-.2,0-.2h0l.3,.5Z"/><path class="h" d="M185,31.9c.2,0,.4,.1,.5,.4,0,.2-.1,.4-.4,.5h-.6c-.2,0-.4,0-.6-.1-.2-.2-.2-.4,0-.6,.2-.2,.4-.2,.4-.1h.7l2.1,.2h3.1c.2,0,.4,.2,.4,.4,0,.2-.2,.4-.4,.4h-5.3l-.5-.2h0s.2-.2,.1-.1l-.6-.5c.2-.2,.2-.1,.3-.1h.9Z"/><path class="h" d="M194.7,32.4c0-.2,.3-.3,.5-.3,.2,0,.3,.3,.3,.5l-.8,2.1-.4,1.2-.2,.7v.2h-.1c0,.1,0,.1-.2,.3-.2,.1-.4,0-.6-.1-.1-.2,0-.4,.1-.6,0,0-.1,.1-.1,.1,0,0,0,0,0,0l.2-1,.8-2.8,.3-1.1,.2-.4h.1c.1-.2,.4-.2,.5,0v.2c.3,.5,.1,1.2,.2,1.9,0,1.3,.3,2.6,.7,3,0,0,.2,0,.4,0,.3-.2,.6-.6,.8-1,.3-.5,.4-1.1,.6-1.7,.2-.6,.5-1.2,1.1-1.5,.2,0,.4,0,.5,.2,0,.2,0,.4-.2,.5-.3,.2-.5,.5-.7,1-.2,.5-.3,1.2-.6,1.8-.3,.5-.6,1-1.1,1.3-.4,.3-1.1,.4-1.5,0-.7-.7-.9-2.1-1-3.5v-1.7h0v.2c0,0,.3,0,.2,0h.1c0,0,.2-.1,.1,0,0,0,0,0,0,0v.2l-.3,1-.8,2.9-.2,.7v.2h0c0,.1,0,.2-.2,.4l-.5-.7h-.1l.3-.8,.4-1.2,.8-2Z"/><path class="h" d="M203.8,33.5c0,.2-.2,.4-.4,.4-.2,0-.4-.2-.4-.4,0-.7-.1-1-.5-1.1-.3,0-.5,0-.6,0-.2,0-.5,.8-.4,1.4,0,.4,.3,.7,.6,1.2,.2,.3,.5,.6,.6,1.1,0,.3-.1,.6-.3,.8-.3,.3-.7,.4-1.1,.4-.4,0-.9-.1-1.2-.5-.1-.2-.1-.4,0-.6,.2-.1,.4-.1,.6,0,.1,.1,.4,.2,.8,.1l.3-.2h0l-.4-.8c-.3-.4-.7-.9-.8-1.6,0-.4,0-.8,.2-1.2,.1-.4,.4-.8,.8-1,.4-.2,.8-.1,1.2,0,.7,.2,1.2,1,1.1,1.9"/><path class="h" d="M205.7,32.5c.2,.1,.3,.4,.1,.6-.1,.2-.4,.3-.6,.1-.3-.2-.3-.4-.3-.5h0s.2,0,.1,0c0,0,.3,0,.2,0h.1v.7l-.6,2v.8c0,.1,0,.3,.2,.3h.7l.6-.2c.5,0,.7,.3,.8,.4l.3,.2h-.1l.7-1.4c.3-.8,.7-1.8,1.9-2.2,.2,0,.4,0,.5,.2,0,.2,0,.4-.2,.5-.8,.3-1.1,.9-1.4,1.7l-.5,1.2-.3,.5c-.1,.2-.3,.3-.7,.3-.3,0-.4-.3-.5-.3l-.3-.2h-.5c-.3,0-.7,.3-1.1,0-.4-.2-.7-.5-.7-.9,0-.4,0-.7,0-1l.5-2v-.6l.2-.3c0-.1,0-.3,.3-.4,.2,0,.4,0,.5,0l.2,.3v.2h0Z"/><path class="i" d="M268.4,110.7c-.2,0-.4,0-.5-.2,0-.2,0-.4,.2-.5,.3-.1,1.2-.8,2.4-1.7,1.3-1,2.9-2.3,4.6-3.9,3.6-3.2,6.9-6.5,9.9-9.9,2.7-3,4.8-5.4,6.7-7.9,3.3-4.3,7.8-8.4,12.2-12.2,2.5-2.1,4.9-3.8,7.3-5.4,2.4-1.6,4.6-3,6.6-3.6,2.3-.7,4.6-1.3,6.6-1.6,2-.3,3.5,.3,5.4,.4,3.3,.2,6.8,0,11,0,3.5,0,7.6-.3,11.4-.7,5.7-.5,10.4,0,15.3-.6,2.6-.3,5.3,0,8.1,0,1.4,0,2.6,.2,3.9,.2h1.9l1,.2h.4c.1,.1,.3,.1,.4,.4,0,.2,0,.4-.2,.5-.2,0-.4,0-.5-.2,0,0,0,.1,0,.1h-1.2l-1.8-.2c-1.3,0-2.5-.2-3.8-.2-2.8,0-5.5-.2-8,0-5.1,.5-9.8,0-15.3,.6-3.8,.4-7.9,.8-11.5,.7-4.1,0-7.6,.2-11,0-2-.1-3.4-.7-5.2-.4-2,.3-4.3,.9-6.5,1.6-1.8,.6-4,1.9-6.4,3.5-2.4,1.7-4.8,3.3-7.2,5.4-4.4,3.7-8.9,7.9-12.1,12-2,2.5-4.1,4.9-6.8,7.9-3.1,3.4-6.4,6.8-10,10-1.8,1.6-3.4,2.9-4.7,3.9l-1.6,1.2-.9,.6Z"/></g></g></g></svg>