<?xml version="1.0" encoding="UTF-8"?><svg id="a" xmlns="http://www.w3.org/2000/svg" xmlns:xlink="http://www.w3.org/1999/xlink" viewBox="0 0 396.3 115.7"><defs><style>.c{fill:none;}.d{fill:#ed3624;}.e{fill:#1749b3;}.f{clip-path:url(#b);}.g{opacity:0;}</style><clipPath id="b"><rect class="c" x="-5.7" y="-82.5" width="419.5" height="297.6"/></clipPath></defs><g class="g"><path d="M232.8,26.6V13.5h1.8l6.6,10.1V13.5h1.6v13.1h-1.8l-6.6-10.1v10.1h-1.6Z"/><path d="M245.7,26.6V13.5h7.3v1.4h-5.4v4.2h4.6v1.4h-4.6v4.7h5.8v1.4h-7.7Z"/></g><g class="g"><path d="M108.4,58.2v-9.4h5.3v1h-3.9v3.2h3.3v1h-3.3v4.3h-1.3Z"/><path d="M117.5,58.4c-.6,0-1.1-.2-1.5-.5-.4-.4-.5-.9-.5-1.5v-4.1h-.9v-.9h.9v-1.3h1.3v1.3h1.8v.9h-1.8v3.8c0,.9,.4,1.4,1.2,1.4s.4,0,.6,0v.9c-.4,.1-.7,.2-1,.2Z"/><path d="M120.2,60.7v-9.4h1.3v1.3c.5-1,1.3-1.5,2.3-1.5s1.5,.3,2,.9c.5,.6,.7,1.4,.7,2.5s-.3,2.1-.8,2.8c-.5,.7-1.3,1.1-2.1,1.1s-1.5-.3-2-.9v3.3h-1.3Zm1.3-4.2c.6,.6,1.3,.9,1.8,.9,1.2,0,1.8-.9,1.8-2.8s-.5-2.4-1.6-2.4-1.4,.4-2.1,1.1v3.2Z"/></g><g class="g"><path d="M134.7,62.4v-1.4c-.7,1-1.6,1.6-2.6,1.6s-1.2-.2-1.6-.6c-.4-.4-.6-1-.6-1.7v-5.3h1.4v4.9c0,.6,0,1,.2,1.2s.4,.4,.8,.4c.8,0,1.6-.5,2.3-1.6v-4.8h1.4v7.4h-1.4Z"/><path d="M140.6,62.6c-.6,0-1.4-.1-2.2-.4v-1.2c.9,.4,1.7,.7,2.3,.7s.7-.1,1-.3c.3-.2,.4-.5,.4-.8,0-.5-.4-.8-1.1-1.1l-.8-.3c-1.2-.5-1.7-1.2-1.7-2.1s.2-1.2,.7-1.5,1.1-.6,1.9-.6,.9,0,1.5,.2h.3v1.2c-.8-.2-1.4-.3-1.8-.3-.9,0-1.3,.3-1.3,.9s.3,.8,1,1l.7,.3c.7,.3,1.3,.6,1.6,1,.3,.3,.5,.8,.5,1.3s-.3,1.2-.8,1.6c-.5,.4-1.2,.6-2,.6Z"/><path d="M146.3,62.4l-2.1-7.4h1.3l1.6,5.8,1.8-5.8h1.4l1.5,5.8,1.9-5.8h1.2l-2.4,7.4h-1.4l-1.6-5.8-1.8,5.8h-1.4Z"/></g><g class="g"><path d="M7.7,53.9c-1,.9-1.9,1.4-2.8,1.4s-1.4-.2-1.9-.7-.7-1.1-.7-1.8,.4-1.7,1.2-2.3c.8-.5,2-.8,3.6-.8h.4v-1.1c0-1-.5-1.6-1.6-1.6s-1.8,.3-2.8,.8v-1.4c1.1-.4,2.1-.7,3.1-.7s1.8,.2,2.2,.7c.5,.5,.7,1.2,.7,2.1v4.1c0,.9,.3,1.4,.9,1.4s.2,0,.3,0v.9c-.3,.2-.7,.3-1.1,.3-.8,0-1.3-.5-1.5-1.4Zm-.2-.9v-2.3h-.5c-.9,0-1.6,.2-2.2,.5-.6,.3-.8,.8-.8,1.3s.1,.7,.4,1c.3,.3,.6,.4,1,.4,.7,0,1.4-.3,2.1-.9Z"/><path d="M12,55v-9h1.6v1.7c.9-1.3,1.9-1.9,3.2-1.9s1.4,.2,1.9,.7c.5,.5,.7,1.2,.7,2v6.5h-1.6v-6c0-.7,0-1.2-.3-1.4-.2-.3-.5-.4-1-.4-1,0-2,.7-2.8,2v5.9h-1.6Z"/></g><g class="g"><path d="M347.1,119.9l-5.9-15.1h-23l-6,15.1h-7.2l21.6-54.4h7.6l21.2,54.4h-8.3Zm-27.3-58.9v-6.4h6.4v6.4h-6.4Zm19.1,38.1l-9.3-23.4-9.3,23.4h18.6Zm-4.6-38.1v-6.4h6.4v6.4h-6.4Z"/></g><g class="g"><path d="M192.8,107.3c-1.3,0-2.4-.5-3.2-1.4s-1.2-2.1-1.2-3.6,.4-2.7,1.2-3.6c.8-.9,1.9-1.3,3.2-1.3s2.4,.4,3.2,1.3c.8,.9,1.2,2.1,1.2,3.6s-.4,2.7-1.2,3.6c-.8,.9-1.9,1.3-3.3,1.3Zm0-1c1,0,1.7-.3,2.2-1,.5-.7,.8-1.7,.8-2.9s-.3-2.2-.8-2.9c-.5-.7-1.3-1-2.2-1s-1.7,.3-2.2,1-.8,1.7-.8,2.9,.3,2.2,.8,2.9c.5,.7,1.2,1.1,2.2,1.1Z"/></g><g class="f"><path d="M63.3,50.8c0-2.7-.7-5.3-2-7.5-2.6-4.4-7.4-7.4-12.9-7.4s-5.3,.7-7.5,2c-4.4,2.6-7.4,7.4-7.4,12.9s.7,5.3,2,7.5c2.6,4.4,7.4,7.4,12.9,7.4s5.3-.7,7.5-2c4.4-2.6,7.4-7.4,7.4-12.9m.8,0c0,5.8-3.1,10.9-7.8,13.6-2.3,1.4-5,2.1-7.9,2.1-5.8,0-10.9-3.1-13.6-7.8-1.4-2.3-2.1-5-2.1-7.9,0-5.8,3.1-10.9,7.8-13.6,2.3-1.4,5-2.1,7.9-2.1,5.8,0,10.9,3.1,13.6,7.8,1.4,2.3,2.1,5,2.1,7.9"/><path d="M41.6,50.4c0-.2,.2-.4,.4-.4,.2,0,.4,.2,.4,.4v.7h0s0-.2,0-.2h0c0,0-.2-.2-.1-.2h-.1c0,0-.2,0-.2,0h0l1.1-1.6,1.8-2.7,2-2.8,.9-1.1c.3-.3,.6-.5,1-.4,.2,0,.3,.2,.3,.3,0,.3,0,.4,0,.6l-.2,.6-.5,2.1v.8h.2c.6-.1,1.8-1.3,2.8-2,.4-.3,.6-.5,1-.6,.3,0,.7,0,.8,.3,.2,.5,0,.9-.1,1.4l-.5,1.4-.3,1.1c0,.2,0,.3,.1,.4,.2,.1,.2,.4,.1,.6-.1,.2-.4,.2-.6,.1-.4-.3-.5-.7-.5-1.1,0-.4,.2-.8,.3-1.3l.5-1.4,.2-.6v-.2h.1l-.7,.6c-.9,.7-2,2-3.2,2.2-.4,0-1,0-1.1-.5-.1-.4,0-.8,0-1.2l.6-2.2,.2-.6v-.2h0s0,.2,0,.2h.2c0,.1,0,.1,0,.1l-.3,.2-.9,1.1-2,2.7-1.8,2.7-1.1,1.6c0,0,0,.1-.2,.3-.2,0-.5,0-.5-.2-.2-.3,0-.3,0-.4v-.6Z"/><path d="M49.2,34.6c0,.2-.2,.4-.4,.4s-.4-.2-.4-.4V2.9c0-.2,.2-.4,.4-.4s.4,.2,.4,.4v31.7Z"/><path d="M48.4,66.3c0-.2,.2-.4,.4-.4s.4,.2,.4,.4v31.7c0,.2-.2,.4-.4,.4s-.4-.2-.4-.4v-31.7Z"/><path d="M192.8,1.4c-.1,.2-.4,.3-.6,.2-.2-.1-.3-.4-.2-.6v-.2h0c0,0-.3,.7-.4,1.3,0,.7,0,1.4,.3,1.9,.2,.3,.7,.6,1.3,.6,.4,0,.7,0,1,0,.7-.1,1.4-.9,1.8-1.6,.2-.3,.2-.7,.2-.9,0-.3-.4-.6-1.1-.7-.7,0-1.7,0-2.6,.6-.2,.1-.4,0-.6-.2-.1-.2,0-.4,.2-.6,1.1-.6,2.2-.8,3.1-.7,.9,.1,1.7,.6,1.8,1.5,0,.4,0,.9-.3,1.4-.5,.8-1.3,1.8-2.3,2-.5,0-.9,0-1.2,0-.8,0-1.5-.4-1.9-1-.5-.7-.6-1.7-.5-2.5l.2-1c.1-.3,.2-.6,.6-.8,.3-.2,.8-.2,1,0,.3,.3,.3,.8,0,1.1"/><path class="e" d="M.6,49.5c.2,0,.4,0,.5,.3,0,.2,0,.4-.3,.5-.2,0-.4,.1-.6,0-.2-.1-.2-.4-.2-.5,0-.4,.3-.8,.7-1.3l1.5-2,3.6-4.9,.9-1.3c.2-.3,.4-.6,.7-.7,.1,0,.4,0,.5,0,.3,.2,.2,.2,.2,.3,0,.2,0,.5,0,.9l-.5,2.5c-.3,1.1-.4,2.1-.5,3v1.1c.2,.2,.2,.4,0,.6-.2,.1-.4,0-.6,0-.2-.3,0-.3-.1-.4v-.3c-.2-.2-1.1-.6-1.8-1-.3-.2-.7-.4-.9-.6-.1,0-.2-.3-.2-.5,0-.2,.2-.3,.3-.4,.3-.2,.8-.2,1.3-.2h2c.2,.1,.4,.3,.4,.6,0,.2-.2,.4-.4,.4-.9,0-1.8-.1-2.4-.1h-.5c0,0,0-.1,0,0h0c0,0,0-.3,0-.3h0l.8,.4c.6,.4,1.6,.6,2,1.4l.2,.5v.2h0l-.7,.4c-.1-.2-.2-.4-.3-.8v-.8c0-.8,.2-1.9,.5-3.1l.5-2.5v-.5h0c0-.2,0,0,0,0h0c0,0,.3,.2,.2,.2,0,0,.3,0,.3,0l-1.3,1.8-3.6,4.9-1.5,2-.5,.9s-.1-.2,0-.1c0,0-.1-.1-.1,0h0Z"/><path class="e" d="M12.6,40.8c0,.2-.2,.4-.4,.4-.2,0-.4-.2-.4-.4v-.7h0v-.2h.1c0-.2,.3-.3,.5-.2,.2,.1,.2,.2,.2,.3v.3c0,.4-.1,1-.3,1.9l-.5,2.9c-.1,.9-.2,1.7-.1,2.1,0,.2,0,.1,0,.1,.4,0,1.4-1,2.2-1.7,.3-.2,.6-.5,.9-.6,.4-.1,.8,0,1,.3,.3,.4,.2,.8,.3,1,0,.2,.2,.3,.2,.3h0c.3-.1,.9-1.7,1.5-3.4,.3-.8,.6-1.6,1-2.3,.4-.7,.8-1.2,1.4-1.4,.2,0,.4,0,.5,.3,0,.2,0,.4-.3,.5-.2,0-.6,.4-.9,1.1-.6,1-1,2.4-1.5,3.7-.2,.6-.5,1.1-.7,1.6-.2,.4-.6,.8-1.1,.7-.5,0-.8-.5-.9-1v-.4h0c0-.2,0-.2-.2-.2l-.6,.4-1.3,1.1c-.5,.4-.9,.7-1.4,.7-.4,0-.9-.3-1-.8-.1-.6,0-1.5,.1-2.4,.3-2,.8-4.1,.8-4.7h0s.3,.3,.2,.2c-.1,0,.6-.1,.5,0,0,0,.1-.2,.1-.1,0,0,0,0,0,0h0v.6Z"/><path d="M267.2,2.9c0-.2,.2-.4,.4-.4s.4,.2,.4,.4V98c0,.2-.2,.4-.4,.4s-.4-.2-.4-.4V2.9Z"/><path d="M267.6,98.4c-.2,0-.4-.2-.4-.4s.2-.4,.4-.4h126.7c.2,0,.4,.2,.4,.4s-.2,.4-.4,.4h-126.7Z"/><path d="M267.3,4c0,.2,0,.4-.3,.5-.2,0-.4,0-.5-.3h0s.2,.2,.1,.1c0,0,.3,0,.2,0,0,0,.2,0,.2,0h0l-.5,3.1-.2,1.4v.8h-.1c0,0-.1-.3,0-.2,0,0-.2-.1-.1,0,0,0-.3,0-.3,0,0,0-.2,0-.2,0h0l.2-1.1c.3-1.2,.8-2.8,1.1-4.1l.3-1.5v-.5h0s.5,.3,.3,.3c-.2,0,.5-.2,.4-.2,0,0,0-.1,0-.1,0,0,0,0,0,0h0v1c0,1.3,.2,2.8,1.4,4.1,.2,.2,.1,.4,0,.6-.2,.2-.4,.2-.6,0-1.4-1.5-1.6-3.2-1.7-4.6v-1.1h0c0-.1,0-.3,.3-.4,.2,0,.4,0,.4,.1,.2,.2,0,.2,0,.2v.8l-.3,1.5c-.3,1.4-.8,2.9-1.1,4.1l-.2,.8c0,.2,0,.5-.3,.7,0,0-.3,.1-.4,0-.3-.1-.2-.3-.2-.3,0-.3,0-.6,.1-1.1l.2-1.4,.5-3v-.5l.3-.2c0,0,.3,0,.4,0,.3,.1,.3,.3,.3,.4"/><path d="M390.9,95.6c.2,.1,.2,.4,0,.6-.1,.2-.4,.2-.6,0-.2-.2-.4-.3-.5-.6,0-.3,.2-.5,.4-.6,.5-.2,1,0,1.6,0,1.5,.3,3.2,1.3,4,2.5,.5,.7,.6,1.7,0,2.3-.5,.5-1.4,.8-2.2,1l-2.3,.6c-.2,0-.4,0-.5-.3,0-.2,0-.4,.3-.5,1.4-.4,3.6-.7,4.2-1.4,.3-.3,.3-.7,0-1.2-.6-1-2.2-1.9-3.5-2.2-.5-.1-1-.1-1.1-.1h0s0-.3,0-.3h.1Z"/><path d="M371.1,105.7c0,.2-.2,.4-.5,.3s-.4-.2-.3-.5v-.2h0s.2,.2,.1,.1h0c-.5,.6-1.3,2.7-1.7,4.3-.2,.7-.3,1.3-.3,1.7,0,.2,0,.2,.1,.2,.5,.1,2-.7,2.8-1.7,.1-.2,.4-.2,.6,0,.2,.1,.2,.4,0,.6-.6,.8-1.5,1.5-2.4,1.8-.4,.2-.8,.3-1.2,.2-.4-.1-.7-.5-.7-1,0-.6,0-1.2,.3-2l.9-2.7c.3-.8,.6-1.5,1.1-1.9,.2-.2,.5-.4,.9-.3,.4,.2,.4,.6,.3,1"/><path d="M369.5,107.7c.2,.1,.2,.4,.1,.6-.1,.2-.4,.2-.6,.1h-.3c0,0,.2-.3,.1-.2,0,0,0-.2,0-.1,0,0,0-.2,0-.2,0,0,0-.2,0-.1,0,0-.1-.1,0-.1,0,0,0,0,0,0l2.5,.3c.2,0,.4,.2,.4,.5s-.2,.4-.5,.4l-1.8-.2h-.7l-.2-.2h-.1c0,0-.2-.1-.2-.4,0-.2,0-.3,.1-.4,.2-.2,.3-.1,.3-.1h.3c.2,0,.4,0,.7,.2"/><path d="M381,109.8c-.2,0-.4-.3-.3-.5,0-.2,.3-.4,.5-.3h0c0,0,.3-.3,.3-.6v-.3s-.1-.1-.4-.1c-.2,0-.6,.3-.7,.6,0,.2-.1,.4,0,.7l.2,.4,.7,.8c.4,.6,.4,1.3,0,1.8-.4,.5-1.2,.7-2,.6-.2,0-.4-.3-.3-.5,0-.2,.3-.4,.5-.3,.6,.1,1.1,0,1.2-.3,.2-.2,.2-.5,0-.8l-.7-.8c-.2-.2-.3-.5-.3-.8,0-.4,0-.8,.1-1.2,.3-.5,.8-1,1.4-1,.5,0,1,.1,1.2,.7,0,.3,0,.5,0,.8,0,.3-.2,.6-.4,.8-.2,.2-.5,.5-.9,.4"/><path d="M376,105.1c.1-.2,.4-.2,.6,0,.2,.1,.2,.4,0,.6-.1,.2-.8,2.5-1.4,4.9-.4,1.5-.8,2.8-.9,3.6v.4h-.1v-.2h.6c1,0,2.1,.2,3.1,.4,.2,0,.4,.2,.3,.5,0,.2-.2,.4-.5,.3-1.1-.2-2.1-.3-3-.3h-1c-.1-.2-.3-.4-.3-.6,0-.3,0-.5,0-.7,.1-.9,.6-2.2,1-3.7l.9-3.3,.3-1.2,.3-.7Z"/><path d="M376.7,105.3c.2,.2,.2,.4,0,.6-.2,.2-.4,.2-.6,0-.2-.2-.4-.6-.2-.9,.1-.3,.4-.4,.7-.5,.8-.2,2,0,3.6,.4,.2,0,.4,.3,.3,.5,0,.2-.3,.4-.5,.3-1.5-.3-2.7-.5-3.2-.4h0Z"/><path d="M384.9,105.2c.1,.2,0,.4-.2,.6-.2,.1-.4,0-.6-.2-.1-.2-.2-.5,0-.7,.2-.4,.5-.4,.8-.4h.9c.6,.3,1.1,.5,1.5,.9,.4,.4,.6,1,.6,1.6,0,.5-.1,1.1-.3,1.8l-1,4.2-.2,1.1-.2,.5v.2c0,.1-.1,.4-.4,.6-.4,.3-.7,0-.9,0-.8,0-1.6-.1-2.7,0-.2,0-.4-.2-.4-.4,0-.2,.2-.4,.4-.4,1.2,0,2,0,2.8,0h.4v-.2h0v-.2l.2-.5,.2-1.1,1-4.2c.2-.7,.3-1.2,.3-1.6,0-.9-.5-1.4-1.5-1.7-.3,0-.7-.1-.8,0h0Z"/><path d="M372.3,102.5c-.2,.1-.4,0-.6-.2-.1-.2,0-.4,.2-.6h.3c.1-.1,.4,0,.5,.1,.2,.3,0,.4,0,.6-.2,.4-.5,1-.9,1.8l-1.2,2.4-.5,1.2-.3,.8v.4h-.2c0,.2-.2,.3-.4,.3-.2,0-.3-.1-.3-.2-.2-.3,0-.3,0-.4v-.4l.4-1.1,1.1-3.3,.4-1.1,.2-.7v-.5h.2c0,0,0,.1,0,0h0c0,0,.1,.2,0,.2,0,0,.2,0,.1,0,0,0,.3,0,.2,0h.2l-.2,.4c-.5,1.5-1.6,3.7-2.5,5.8-.5,1.1-.7,2.1-.9,2.9l-.3,1.2v1.1c-.1,0-.3-.2-.2-.2h.2c1.1-.4,2.6-1,3.7-1.5,.2,0,.4,0,.5,.2,0,.2,0,.4-.2,.5-1.1,.5-2.6,1.2-3.8,1.5h-.8c-.1,0-.3-.1-.3-.3,0-.3,0-.5,0-.7v-.7l.4-1.3c.2-.8,.5-1.8,1-3,.9-2.1,2-4.3,2.5-5.7,0-.3,.1-.5,.3-.7,0,0,0-.2,.3-.2,.2,0,.3,.1,.4,.2,.2,.3,0,.3,0,.3l-.2,.8-.2,.7-.4,1.1-1.1,3.3-.3,1v.3h0v-.2s-.2-.1-.1,0c0,0-.2,0-.2,0,0,0-.2,0-.2,0,0,0-.2,.1-.2,0,0,0,0,.1,0,.1h0v-.4l.5-.8,.5-1.2,1.2-2.4,.8-1.6v-.2c0,0,0,0,0,0h0c0,0,.1,.2,0,.2h.1c0,0,.2,.1,.2,.1h0Z"/><path d="M368.9,107.3c.2,0,.3,.3,.2,.5,0,.2-.3,.3-.5,.2-.3-.1-.5-.1-.6-.4,0-.2,0-.5,.1-.6h.3c.4-.2,.7,0,1,0l.8,.2h.4c0,0,0,.4,0,.3,0,0,.1,.3,0,.2h-4.8c-.2-.2-.2-.5-.1-.6l.2-.3c.1-.2,.4-.2,.6,0,.2,.1,.2,.4,0,.6h0c0,0-.2-.4-.1-.3,0,0-.1,0,0,0h4.4c.2,0,.4,0,.6,.3,.1,.1,.1,.3,0,.5-.2,.4-.4,.4-.7,.4h-.6l-.8-.2h-.7v-.2s.2-.2,.2-.1c0,0,0-.3,0-.2,0,0,0-.2,0-.1,0,0,0,0,0,0h.3Z"/><path d="M367.6,112.6c-.2,0-.4-.2-.4-.4,0-.2,.2-.4,.4-.4h2.7l.2-.2h0s-.1,.2,0,.1c0,0,0,.3,0,.2,0,0,0,.3,0,.2,0,0,.1,.1,0,.1,0,0,.1,0,0,0h-.8c-.7,0-1.4,.2-1.8,.4-.2,0-.4,0-.5-.2,0-.2,0-.4,.2-.5,.5-.2,1.2-.4,2.1-.5h1c0,0,.1,0,.3,0,0,0,.2,.2,.2,.4,0,.3-.2,.3-.2,.3h-.3l-.9,.3h-2.1Zm.6-1.8c0-.2,.2-.4,.5-.4,.2,0,.4,.2,.4,.5,0,.5-.4,.8-.5,.9h.9s-.2,.3-.1,.2c.1-.2,.4-.3,.6-.1,.2,.1,.3,.4,.1,.6-.1,.2-.3,.2-.3,.2-.4,0-.8,0-1.3,0h-.7c-.2,0-.4-.2-.4-.4,0-.2,.2-.4,.4-.4h1.7c0,0-.1,.3-.1,.2l.7,.4c-.1,.2-.2,.2-.2,.2-.2,0-.2,0-.3,0h-.5c-.3,0-.7,0-1-.4-.2-.2-.3-.5,0-.8l.4-.6Z"/><path d="M235.1,12.5c.2-.1,.4-.1,.6,0,.1,.2,.1,.4,0,.6-.1,.1-.3,.7-.4,1.3v.7l-.2,.6v.2h0v.2c0,0,0,.2-.3,.2-.2,0-.4-.1-.5-.3s.1-.4,.3-.5c.3,0-.3,.3-.3,.3h0v-.7c.2-.8,.7-1.6,1.1-2.3,.2-.3,.5-.6,.8-.9,.4-.3,.8-.5,1.2-.5,.3,0,.6,0,.9,0,.3,.1,.4,.4,.5,.6v.6c.1,.5,.2,1,0,1.5l-.3,1.2c0,0-.1,0,.1,0,.4,0,1-.3,1.6-.5,.2,0,.4,0,.5,.3,0,.2,0,.4-.3,.5-.5,.1-1.1,.5-1.8,.5-.3,0-.5,0-.7-.2-.2-.2-.3-.4-.3-.6,0-.5,.2-1,.3-1.3,0-.4,0-.8,0-1.3v-.5h-.5c-.2,0-.6,.1-.8,.3-.2,.2-.4,.4-.7,.7-.4,.6-.8,1.3-.9,1.9v.7h0v.2s0,.2-.3,.3l-.2-.8c0,0-.2,0-.2,0h-.1v-.6l.2-.7c.1-.7,.2-1.4,.7-1.8"/><path d="M246.2,15.1c0,.2,0,.4-.3,.5-.2,0-.4,0-.5-.3h0s.3,0,.2,0c0,0,.3,0,.2,0,0,0,.1-.1,.1,0,0,0,0,0,0,0v.7l-.2,.9v.6h-.1c0,0-.2,0-.1,0h.2c.3-.3,.8-1.2,1.3-2l.8-.9c.3-.3,.6-.5,1-.4,.3,.1,.3,.4,.3,.5,0,.4-.1,.8-.2,1.1l-.2,.5v.4h.5c.5-.2,1-.5,1.5-.5,.3,0,.7,.2,.8,.5,0,.3,0,.7-.2,1.1,0,.2-.3,.3-.5,.2s-.3-.3-.2-.5v-.5c.1-.1,.2,0,.2,0l-1,.3c-.5,.2-.9,.4-1.5,.1-.3-.2-.4-.6-.5-.9v-.5l.3-.5,.2-.7v-.2h0c0,0,.2,.3,.1,.2h.1l-.2,.2-.7,.8c-.5,.7-.9,1.6-1.6,2l-.4,.2c-.2,0-.4,.1-.7-.1-.2-.2-.2-.5-.2-.7v-.6l.2-1v-.8l.3-.2c0,0,.2-.2,.4-.2,.3,0,.3,.2,.4,.3v.2Z"/><path d="M253,15.9c.2-.1,.4,0,.6,.2,.1,.2,0,.4-.2,.6-.1,0-.2,.2-.2,.4,0,.3,0,.6-.1,1,0,.2-.3,.3-.5,.2-.2,0-.3-.3-.2-.5v-.8c0-.4,.2-.9,.6-1.1"/><path d="M254.7,13.7c.2,0,.4,.2,.4,.4,0,.2-.2,.4-.4,.4h-.6c-.2-.2-.3-.4-.2-.6,0-.2,.3-.3,.5-.2h.3Z"/><path d="M255.4,15.7c.2,0,.4,.1,.5,.3,0,.2-.1,.4-.3,.5h-.4v-.2s-.2,0-.2,0h.6l.7-.2c.4,0,.8,.1,1,.5,.2,.3,.2,.7,.2,1.2,0,.2-.2,.4-.4,.4-.2,0-.4-.2-.4-.4,0-.4,0-.7,0-.8,0,0,0,0-.1,0-.2,0-.4,.2-.8,.2h-.9c-.1,0-.3,0-.4-.2-.2-.3,0-.6,.2-.8,.2-.2,.4-.3,.7-.3"/><path d="M258.1,11.4c.2,0,.4,.2,.3,.5,0,.2-.2,.4-.5,.3-.3,0-.4,0-.6-.2,0,0-.1-.1-.1-.3,0-.3,.2-.4,.3-.4,.2-.1,.4,0,.7,0h.9c.2,.1,.4,.4,.3,.6,0,.2-.3,.4-.5,.3-.4,0-.9,0-1,0h.1c0,0,0-.3,0-.2,0,0,0-.2,0-.2,0,0,0-.2,0-.1,0,0-.1-.1,0-.1h.2Z"/><path d="M260.4,13.2c0,.2,0,.4-.3,.5-.2,0-.4,0-.5-.3-.1-.4,0-.8,.2-1,.3-.4,.8-.7,1.3-.7,.3,0,.6,.1,.7,.4,.2,.3,.2,.6,.1,.9,0,.2-.3,.4-.5,.3-.2,0-.4-.3-.3-.5,0-.3,0-.4,0-.4,0,0-.2,0-.5,.2-.2,.2-.3,.4-.3,.5"/><path d="M259.7,13.8c0,.2-.2,.4-.4,.4-.2,0-.4-.2-.4-.4,0-.5,.3-.7,.6-1l1.1-.9,1.1-.9c.2-.1,.4-.2,.6-.3,.2,0,.6,0,.7,.3,.1,.4,0,.6-.1,.8l-.3,.6c-.5,1-.9,1.8-.7,2.6,0,.2,0,.4-.3,.5-.2,0-.4,0-.5-.3-.3-1.1,.2-2.1,.7-3.1l.3-.6v-.2h0s0,.1,0,0h.1v.2h-.2l-1.1,1-1,.8-.3,.3h0Z"/><path d="M244.3,9.9c0,.2-.3,.4-.5,.3s-.4-.3-.3-.5v-.4l.2-.2h.2c.2-.2,.3,0,.4,0,.2,.2,.1,.3,.1,.4l-.2,1.5-.5,2.5c-.3,1.5-.8,3.2-1.3,4.7l-.8,2.7c-.1,.5-.2,.8-.2,.9h0c.2,0,.9-.1,1.7-.3,1-.3,2-.3,3-.3,.2,0,.4,.2,.4,.4,0,.2-.2,.4-.4,.4-1,0-1.9,0-2.8,.3-.5,.1-1,.3-1.4,.3-.2,0-.5,0-.7,0-.2,0-.5-.3-.5-.6,0-.4,0-.8,.2-1.3l.8-2.7c.5-1.5,.9-3.2,1.3-4.6,.3-1.4,.5-2.6,.6-3.3v-.4h0c0-.1,0,0,0,0,0,0,0,.1,0,0,0,0,.3,.1,.2,.1,0,0,.3,0,.2,0,0,0,.2,0,.1,0,0,0,0-.1,0,0h0v.3Z"/><path d="M244.9,9.3c.2,0,.4,.2,.4,.4,0,.2-.2,.4-.4,.4h-.3s.1,0,0,0c-.1,0,0-.8,0-.8h1.3l3.1,.4c.2,0,.4,.2,.4,.5,0,.2-.2,.4-.5,.4l-3.6-.4h-.9c0,0-.1-.8,0-.9,.2,0,.1,0,.1,0h.3Z"/><path d="M262.9,8.5c.2,0,.4,.2,.4,.4,0,.2-.2,.4-.4,.4h-.2s.1,0,0,0c0,0,.1-.1,0,0,0,0,.1-.3,0-.2,0,0,0-.3,0-.2,0,0,0-.1,0-.1,0,0-.1,0,0,0h.2l1.2,.4c.5,.2,.9,.4,1.2,.8,.3,.4,.4,.9,.4,1.5,0,1.1-.7,2.4-1.1,3.9-.4,1.2-.6,2.6-.6,3.6v.8h0c.1,.2,.4,.2,.7,.6,.2,.2,.1,.5,0,.7l-.3,.5c-.5,.5-1.3,.5-2,.6-.7,0-1.4,.1-1.7,.3-.2,.1-.4,0-.6-.1-.1-.2,0-.4,.1-.6,.6-.4,1.3-.4,2.1-.4,.7,0,1.3-.2,1.4-.3v-.2h.1l-.5-.3c-.1-.1-.3-.3-.4-.5,0-.3,0-.6,0-1,0-1,.3-2.5,.7-3.8,.5-1.5,1.1-2.9,1.1-3.7,0-.9-.3-1.2-1.1-1.5l-1.1-.3c-.2,0-.3,0-.5-.2v-.3c-.1-.3,0-.4,.1-.4,.2,0,.3,0,.4,0"/><path d="M234.4,12.3c0-.2,.1-.4,.4-.5,.2,0,.4,.1,.5,.4v.5l-.3,2.3v1.7h0s-.1-.1,0-.1l-.6,.6c-.2-.2-.1-.3-.1-.3l.2-.9c.1-.6,.4-1.2,.6-1.7l.4-.9c.3-.5,.8-.9,1.3-1.1,.4-.1,.8-.2,1.1,0,.4,.3,.4,.7,.4,.9,.1,.7,0,1.4-.2,2.1v.9c0,.1,0,.2,.1,.2,.5,0,1.6-.7,2.3-1.1,.2-.1,.4,0,.6,.2,.1,.2,0,.4-.2,.6-.6,.3-1.6,1.2-2.7,1.2-.5,0-.9-.4-1-.8,0-.4,0-.8,0-1.2,.1-.7,.3-1.3,.2-1.8v-.3h0c0,0-.2-.1-.4,0-.3,0-.7,.4-.9,.7l-.3,.8c-.2,.5-.4,1.1-.5,1.6v.6l-.2,.2h0c0,0-.1-.3,0-.3,.2,.2,.1,.4,0,.6-.2,.2-.4,.1-.6,0-.2-.2-.1-.2-.1-.3v-1.9l.3-2.3v-.3h0c0,0,0,0,0,0m.8,.4c0,.2-.2,.4-.4,.4-.2,0-.4-.2-.4-.4v-.5c0-.2,.3-.4,.5-.3,.2,0,.4,.3,.3,.5h0v.4Z"/><path d="M192.7,96.7c.2,.1,.3,.4,.1,.6-.1,.2-.4,.3-.6,.1-.1,0-.3,0-.5,.2-.2,.2-.5,.7-.6,1.2-.2,.7-.3,1.4-.2,1.8,.2,.7,1,1.1,1.7,.9,.7-.2,1.6-1.5,1.9-2.6,.3-1.4-.8-2.3-2.3-1.8-.2,0-.4,0-.5-.2,0-.2,0-.4,.2-.5,1-.3,1.9-.2,2.6,.3,.7,.5,1,1.5,.7,2.5-.3,1.4-1.2,3-2.5,3.3-1.2,.3-2.4-.3-2.7-1.5-.2-.7,0-1.5,.2-2.3,.2-.6,.5-1.2,.9-1.5,.4-.4,1-.6,1.5-.3"/><path d="M112.8,35c0,.2-.2,.4-.5,.3-.2,0-.4-.2-.3-.5,0-.5,.6-.8,1.1-.9,.5,0,1,0,1.5,0,2.9,.1,5.6,.8,7.3,.5,.2,0,.4,.1,.5,.3s-.1,.4-.3,.5c-2,.3-4.7-.3-7.5-.5h-1.4c-.3,0-.4,0-.4,.2"/><path d="M114.5,65.9c-.2,0-.4-.2-.4-.4,0-.2,.2-.4,.4-.4,2.2-.1,4.7,.1,7.1,.1,.2,0,.4,.2,.4,.4,0,.2-.2,.4-.4,.4-2.5,0-4.9-.3-7.1-.1"/><path d="M112,34.6c0-.2,.2-.4,.4-.4s.4,.2,.4,.4v31.7c0,.2-.2,.4-.4,.4s-.4-.2-.4-.4v-31.7Z"/><path d="M121.9,34.6c0-.2,.2-.4,.4-.4,.2,0,.4,.2,.4,.4l-.6,31.7c0,.2-.2,.4-.4,.4-.2,0-.4-.2-.4-.4l.6-31.7Z"/><path d="M112.9,65.4c.2,0,.4,.1,.4,.4,0,.2-.1,.4-.4,.4h0s.2-.2,.1-.1c0,0,0-.2,0-.1,0,0,0-.2,0-.2,0,0,0-.2,0-.1,0,0-.1-.2-.1-.1h0c0,0,1,0,1.7-.2,.2,0,.4,0,.5,.2,0,.2,0,.4-.2,.5-.6,.2-1.3,.2-1.8,.2h-.6c0-.1-.1-.2-.2-.3,0-.2,0-.4,0-.5,.2-.2,.3-.1,.4-.1"/><path d="M125.7,34.6c0-.2,.2-.4,.4-.4s.4,.2,.4,.4v31.7c0,.2-.2,.4-.4,.4s-.4-.2-.4-.4v-31.7Z"/><path d="M119.7,66.2c-.1,.2-.4,.3-.6,.1-.2-.1-.3-.4-.1-.6l1.1-1.8,.5-.8,.3-.2c.1,0,.3-.1,.5,0,.3,.2,.3,.4,.3,.5,0,.3-.1,.7-.3,1.1l-.2,.5v.2h0s0-.1,0,0c0,.2-.2,.4-.4,.4-.2,0-.4-.2-.4-.4,0-.2,0-.2,0-.3l.3-1v-.4h.2s.2,.2,.1,.2h.1c0,0,.1,0,.1,0h0l-.5,.8-.7,1.2-.4,.6Zm-4.5-31c0,.2-.1,.4-.4,.5-.2,0-.4-.1-.5-.4v-.2s0,.1,0,0c0,0,.3,0,.2,0,0,0,.2,0,.1,0h0l-.2,.3-.3,.8-.2,.7h0v-.2h-.1c0,0-.3-.2-.2-.2h-.2l.4-.5,.3-.5v-.2c.2,0,0-.1,.4-.2l.3,.8c0,0,.2-.1,.1,0,0,0,0-.1,0,0h0s-.1,.4-.4,1l-.4,.9v.3h-.1c0,0-.1-.3,0-.2,0,0-.3,0-.2,0,0,0-.2,0-.1,0l.6-.7,1-1.3c.2-.2,.3-.3,.5-.5,.1,0,.3,0,.5,0,.2,.2,.2,.3,.2,.4v.3c-.3,.6-.8,1.5-1.3,2.2l-.6,1-.4,.6-.3,.4c-.2,.1-.4,.1-.6,0-.1-.2-.1-.4,0-.6,0,0,0,.1,0,0h0s.2-.5,.6-1.1l.9-1.4,.5-.7,.3-.3h.2c.1-.1,.4-.2,.5,0,.2,.3,0,.4,0,.6-.2,.4-.5,.8-.9,1.4l-1.4,2.3-.3,.6h0v-.2s-.1-.2,0-.1c0,0-.2-.1-.1-.1h-.1c0,0-.2,0-.1,0h0c.2-.2,.6-.6,1-1.2l1.5-2,.5-.7c.1-.2,.2-.3,.4-.4,0,0,.3-.1,.5,0,.2,.1,.2,.4,.2,.5,0,.5-.4,.8-.6,1.2l-1.3,2.3-.4,.8h0s0-.2,0-.2h0c0,0-.3-.2-.2-.2,0,0-.2,0-.2,0,0,0-.1,0-.1,0h0l.7-1,1.5-2.2,.5-.9,.4-.7,.6,.5h0s0-.1,0-.1l-.2,.6-.8,1.3-1.3,2.1-.9,1.5-.7-.4,.4-.6,.9-1.2,1.6-2.4,.6-.8c.2-.2,.2-.4,.5-.6,.2-.1,.5,0,.6,0,.1,.1,.2,.3,.2,.4,0,.7-.5,1.3-.9,2-.6,1.1-1.3,2.2-1.9,3.2l-.9,1.3-.4,.5-.2,.2h-.3c-.1,0-.3,0-.3-.2-.1-.3,0-.3,0-.3,.2-.4,.5-.7,.9-1.2l2.2-2.6,1.3-1.6,1.8-2.1c.3-.3,.6-.6,.9-.7,.1,0,.4-.2,.7,0,.2,.2,.1,.5,0,.6-.2,.6-.7,1.2-1.3,2l-2.4,3.3-2.9,3.6-1,1.2-.3,.3h0c-.1,.3-.4,.3-.6,.2-.2-.1-.3-.4-.1-.6,.1-.2,.2-.2,.3-.3l.4-.3,1.1-1.2,1.8-2.1c.7-.9,1.4-1.9,1.9-2.7l.4-.7h0v.2s.2,.2,.1,.1c0,0,.2,0,.1,0h.1c0,0,.2,0,.1,0,0,0,0,0,0,0l-.2,.3c-.6,.9-1.7,2.7-2.6,4.4l-1.1,1.9-.3,.7h0v-.2s0-.2,0-.1c0,0-.2-.2-.1-.1,0,0-.2,0-.1,0,0,0-.2,0-.2,0,0,0,0,0,0,0l.4-.4,1.4-1.9,1.4-2.2,1.6-2.8,.4-.8h0v-.2h.2c0-.2,.4-.1,.5,0,.1,.3,0,.3,0,.3v.2l-1.2,2.2c-.8,1.6-1.9,3.3-2.8,4.9l-1.3,2.2-.2,.3s0-.1,0,0h0v-.2h-.2c0,0-.3-.1-.2-.1h-.2l.6-.8,1.7-2.5,1.2-1.9,1-1.8,.2-.3,.2-.2h.2c0-.1,.2-.1,.3,0,.2,.1,.2,.3,.2,.4,0,.2,0,.3-.2,.5l-1.1,1.9c-.7,1.2-1.6,2.5-2.5,3.9l-2.1,3-1,1.6h0s0-.3,0-.2c0,0-.2-.2-.2-.2,0,0-.2,0-.2,0h-.1l.5-.5,1.2-1.6,2.3-3,2.2-3.1,1.3-2h0s0,.4,0,.3c0-.1,.4,.3,.3,.3,0,0,.2,0,.2,0,0,0,.1,0,0,0,0,0,0,0,0,0l-.3,.3-1.5,2.4-1.5,2.4-1.6,2.6-.7,1.4v.2h0s-.1-.2,0-.2c0,0-.2-.1-.1,0,0,0-.3,0-.2,0h0l.6-1,2-3.2,1.8-3.3,.7-1.3,.2-.3h.1l.2-.2c.1,0,.4,.1,.4,.2,.2,.3,0,.3,0,.3h0l-.7,1.7-2.3,4.5-1.3,2.5-.4,.8v.2h-.1v-.2c0,.2,0,.4-.3,.5-.2,0-.4,0-.5-.2-.1-.3,0-.3,0-.4l.7-1,.9-1.5,1.3-2.2,1-1.7,.9-1.5,.5-.7,.2-.2h.2c.2,0,.4,.1,.5,.2v.2c0,.4-.3,.9-.8,1.7l-1.4,2.3c-1.3,2.1-2.8,4.4-3.8,5.8l-.7,.9-.2,.2h-.1c0,.1-.2,.2-.5,0-.2-.2-.1-.4-.1-.4,0-.3,.2-.4,.4-.6l.5-.7,1.9-2.9,1.4-2.2,1.3-2,.6-.7c0,0,.2-.3,.6-.1,.2,0,.3,.3,.3,.4v.2c0,.4-.3,.9-.6,1.5l-1.1,2.1c-.8,1.5-1.8,3.1-2.7,4.4l-1.2,1.7-.6,.8-.2,.2h-.1c0,0-.3,.2-.5,0-.1-.1-.1-.3-.1-.3v-.2c.3-.4,.9-1,1.5-1.7l2-2.6,2.6-3.7c.2-.3,.3-.5,.6-.7,0,0,.3-.2,.5,0,.2,.1,.2,.3,.2,.3,0,.2,0,.4-.1,.6l-.4,.9-1.3,2.3c-.9,1.6-2,3.1-2.9,4.5l-1.1,1.6-.6,.9c0,.2-.3,.3-.5,.2-.2,0-.3-.3-.2-.5,0-.2,.1-.2,.2-.2,.2-.1,.4-.2,.6-.5,.5-.5,1.2-1.6,2-2.7l1.8-2.8,.7-1.2,.2-.4h0c0-.2,0-.2,.2-.3,.1,0,.4,0,.5,.2v.2c.1,.3,0,.6-.1,1-.2,.7-.6,1.5-1,2.3-1,2.2-2.4,4.6-3.3,6.1l-.6,1s0-.1,0,0c0,0,0-.2,0-.1,0,0-.7-.4-.4-.4,.2,0-.3,.1-.3,.1,0,0,0,0,0,0h0l.3-.5,1.3-2,1.6-2.5,2-3.1,.9-1.2c0-.1,.2-.2,.4-.3,.2,0,.4,0,.6,.2,.1,.2,0,.4,0,.5l-.2,.5c-.3,.7-.8,1.6-1.4,2.6-1,1.6-2.1,3.2-3,4.6l-1.1,1.6-.7,1.1c-.1,.2-.4,.2-.6,.1-.2-.1-.2-.4-.1-.6l.5-.6c.6-1,1.7-2.9,2.8-4.7l1.2-1.9c.2-.4,.4-.6,.6-.8,.1,0,.4-.1,.6,0,.4,.3,.3,.6,.2,.9-.2,.8-.8,1.9-1.4,3-.6,1.1-1.3,2.3-1.9,3.3l-1.3,2-.5,.6v.2h-.5c-.1,.1-.3,0-.4-.2,0-.3,0-.3,0-.3l.7-.9c1-1.3,2.5-3.7,3.6-5.3l.7-1,.2-.3h.2c0-.2,.2-.2,.4-.1,.1,0,.2,.2,.2,.3,0,.3,0,.4-.1,.6l-.4,.9c-.8,1.6-2.4,3.7-3.8,5.5l-1.7,2.1-.4,.6h0c0,.1,0-.1,0,0h0c0,0-.2-.2-.1-.2,0,0-.2,0-.2,0h-.1s-.1,0,0,0l.6-.7c.7-.8,1.7-1.8,2.6-3,.8-1,1.4-2,2-2.9l.8-1.1,.3-.2c.1,0,.4,0,.5,.2,.1,.2,0,.3,0,.4v.3c-.4,.7-.9,1.6-1.6,2.7l-2.1,3.4-1.2,1.8v.2h-.1c0,0,0-.3,0-.3h0c0,0-.3-.2-.2-.2,0,0-.2,0-.2,0,0,0-.1,0-.1,0h.1l1.5-2.3,2.3-3.9,1.1-1.8c.1-.2,.2-.3,.4-.4h.3c.2,0,.4,.2,.4,.3v.3c0,.5-.3,1.1-.7,1.8l-1.3,2.6c-1,1.8-2.1,3.5-2.8,4.7l-.4,.8h0c0,0,0-.4,0-.3,0,.1-.5-.2-.4-.2,.1,0-.2,0-.2,0,0,0,0,0,0,0l2-3,1.8-2.9,.8-1.1c.2-.2,.3-.3,.5-.4,.1,0,.3,0,.5,0,.2,.1,.2,.3,.2,.4,0,.6-.4,1.1-.7,1.8-.6,1.3-1.5,2.7-2.2,3.8l-.7,1.2v.2h0v-.2s-.1-.2,0-.1c0,0-.2-.2-.2-.1,0,0-.2,0-.2,0h-.1s-.1,0,0,0h0l2.2-3.2,1.1-1.7,.5-.5c0,0,.1-.2,.4-.2,.1,0,.3,.1,.4,.2v.3c0,.5-.3,1-.6,1.5l-1.9,3.4-.4,.8v.2h0s0-.2,0-.1c0,0-.1-.2,0-.1h-.1c0,0-.2,0-.2,0h0l.6-.8,1.6-2.6,.6-1c.1-.1,.2-.3,.4-.3,.1,0,.4,0,.5,.2,0,.2,0,.3,0,.4,0,.5-.4,1.1-.8,1.8l-1.2,2.2-.6,1.1-.3,.6v.2h0v-.2c0,.2,0,.4-.3,.5-.2,0-.4,0-.5-.2-.1-.3,0-.3,0-.4,.2-.3,.7-.8,1-1.3l1.1-1.6,.5-.7c.2-.3,.4-.5,.9-.5v.8c-.2,0,.3-.1,.2,0,0,0,0,0,0,0h0l-.3,.8-1.1,2.3-.2,.4c-.1,.2-.3,.3-.6,.2-.2-.1-.3-.3-.2-.6l.2-.4,1-2.2,.2-.6v-.2h.1v-.2c0,0,0-.2,.4-.2,.2,0,.4,.2,.4,.4,0,.2-.2,.4-.4,.4h0l-.2,.2-.4,.6-1.1,1.6-.7,.9-.2,.3h0s0-.3,0-.2l-.8,.3c-.1-.3,0-.3,0-.4l.4-.8,.6-1.1c.8-1.4,1.8-3.2,1.9-3.8h0s0,.2,0,.1c0,0,.2,.2,.1,.2,0,0,.2,0,.2,0h.1l-.6,1-1.6,2.6c-.3,.4-.4,.9-.9,1.1-.1,0-.4,0-.6-.1-.2-.2,0-.4,0-.5v-.4l.6-.8,1.9-3.3,.6-1.2h0v.2s.2,.2,.1,.1c0,0,.2,0,.2,0h.1c0,0,.1,0,.1,0h0l-.2,.4-1.1,1.6-2.2,3.2v.2c-.2,0-.1,0-.3,.2,0,0-.2,0-.3,0-.2,0-.2-.2-.3-.3,0-.2,0-.2,0-.3v-.3l.8-1.2c.7-1.1,1.5-2.5,2.1-3.7l.7-1.4h0s.1,.2,0,.2c0,0,.2,0,.1,0h.2l-.2,.2-.7,1-1.8,2.9-1.5,2.3-.5,.7v.2h-.3c0,.1-.2,.1-.3,0-.2-.1-.2-.3-.2-.4v-.2l.5-.8c.7-1.2,1.8-2.9,2.7-4.6,1-1.8,1.9-3.6,2-4.2,0,0,0,.2,0,.1h0v.2h.2c0,0,.2,0,.2,0h0v.2l-1.2,1.8-2.3,3.9-1.5,2.3-.2,.2s0,.1-.3,.2c-.1,0-.4,0-.4-.2,0-.2,0-.3,0-.3l.2-.4,1.2-1.8c1.3-2.1,3-4.7,3.5-6v-.2h0s0,.2,0,.2c0,0,.2,.1,.1,.1,0,0,.2,0,.2,0,0,0,.2,0,.2,0,0,0,0,0,0,0h0l-.7,1c-.6,.8-1.3,1.9-2.1,2.9-.9,1.2-1.9,2.3-2.6,3l-.5,.5-.2,.2h-.1c0,.1-.2,.3-.4,.1-.2-.1-.2-.3-.2-.4,0-.2,0-.4,.2-.5l.5-.7,1.7-2.1c1.4-1.8,2.9-3.9,3.7-5.4l.4-.8v-.2h0s0,.1,0,0c0,0,.2,.2,.1,.2,0,0,.3,0,.2,0,0,0,.2,0,.1,0,0,0,.1,0,0,0l-.8,1.2c-1.1,1.7-2.6,4-3.7,5.4l-.6,.8h0v-.2c0,0-.1-.3,0-.2,0,0-.4-.2-.3-.2,0,0-.2,0-.2,0,0,0-.1,0-.1,0h0l.5-.6,1.3-2,1.9-3.3c.6-1.2,1.2-2.2,1.3-2.8v-.2h0v.2s.4,0,.3,0c0,0,.2,0,.2,0l-.5,.6-1.2,1.9c-1.1,1.8-2.1,3.7-2.8,4.7l-.5,.7-.7-.5,.7-1.1,1.1-1.5c1-1.4,2.1-3,3-4.6,.6-1,1.1-1.8,1.4-2.5v-.4h.2s.1,.2,.1,.1h.1c0,0,.2,0,.2,0h0l-.8,1.2-2,3.1-1.6,2.5-1.3,2-.3,.5h0v.2h-.1c-.1,.2-.6-.2-.6-.3,0-.2,0-.2,0-.2h0l.6-1.1c.9-1.5,2.2-3.9,3.3-6,.4-.9,.8-1.7,1-2.2v-.6h.2c0-.1,0,0,0,0h.2v.2s.4,0,.3,0h.1l-.3,.4-.7,1.1-1.8,2.9c-.7,1.1-1.4,2.2-2.1,2.9l-.6,.4h-.2c0,0,.1,0,0,0l-.8-.3,.7-1,1.1-1.6c.9-1.3,2-2.9,2.9-4.4l1.2-2.3,.4-.9h0c0,0,.1,.2,0,0,0,0,.2,.2,.1,.1,0,0,.2,0,.1,0,0,0,.2,0,.2,0h0l-.4,.5-2.6,3.7-2.1,2.6-1.3,1.6h0v-.2s0-.2,0-.2c0,0-.2-.2-.2-.2,0,0-.2,0-.2,0h-.1c0,0-.1,0,0,0h0l.7-.8,1.2-1.6c.9-1.3,1.9-2.9,2.7-4.3,.8-1.5,1.6-2.9,1.7-3.4h0c0,.1,.2,.3,.1,.3,0,0,.2,0,.2,0h.1s0,0,0,0l-.5,.6-1.3,2-1.4,2.2-2,2.9-.6,.7-.2,.2h0c0,0,0-.1,0,0,0,0,0-.2,0-.1,0,0-.1-.2,0-.2,0,0-.2-.1-.2-.1,0,0-.2,0-.1,0,0,0-.2,0-.1,0h0l.8-1c1-1.4,2.4-3.7,3.8-5.8l1.3-2.2c.5-.8,.7-1.3,.7-1.4h0c0,.1,0,.3,0,.3,0,0,.2,.2,.1,.1,0,0,.2,0,.2,0h.1c0,0,.1,0,.1,0h0l-.5,.7-.9,1.5-1,1.7-1.3,2.2-.9,1.5-.5,.7-.2,.2h0c0,0,0-.4,0-.3l-.8,.3c-.1-.3,0-.3,0-.4l.5-1.2,1.3-2.5,2.3-4.5,.7-1.6h0c0,0,0,.3,0,.2,0,0,0,.2,0,.1,0,0,.2,.2,.1,.1,0,0,.3,0,.2,0,0,0,.2,0,.1,0,0,0,.1,0,.1,0h0v.2l-.8,1.3-1.9,3.4-2,3.2c-.3,.5-.4,1-.9,1.3-.1,0-.3,.1-.5,0-.3-.2-.2-.4-.2-.5v-.4l.9-1.5,1.6-2.6,1.5-2.4c.7-1.1,1.2-1.9,1.6-2.4l.3-.3h.2v-.2h.3c.2,0,.3,.3,.3,.4v.2l-1.4,2-2.2,3.1-2.3,3-1.2,1.6c-.3,.3-.5,.5-.7,.6h-.2c-.1,0-.3,0-.4-.1-.1-.2,0-.3,0-.4v-.2l1.1-1.6,2.1-3,2.5-3.8,1-1.9v-.2c0,0,0,.1,0,0,0,0,0,.2,0,.1,0,0,.2,.2,.1,.2,0,0,.3,0,.2,0,0,0,.2,0,.1,0,0,0,.1,0,0,0h0l-.2,.3-1,1.8-1.2,1.9-1.7,2.6c-.3,.4-.4,.7-.7,1,0,0-.2,.2-.5,0-.2-.1-.2-.3-.2-.4,0-.2,.1-.4,.3-.7l1.3-2.2,2.8-4.8,1.1-2.1h0s0,.4,0,.3c0-.1,.6,.2,.4,.2-.1,0,.2-.1,.2,0,0,0,0,0,0,0h0l-.5,.8-1.6,2.8-1.4,2.2-1.4,2-.5,.5h-.2c0,.2-.2,.3-.4,.1-.1,0-.2-.2-.2-.3v-.2l.4-.9,1.1-1.9c1-1.6,2-3.4,2.7-4.4l.4-.5s0-.1,.4,0c.2,0,.3,.3,.3,.4,0,.2,0,.2,0,.3l-.5,.8c-.5,.8-1.2,1.8-2,2.8l-1.8,2.1c-.4,.5-.8,1-1.2,1.3l-.5,.4h-.1l-.7-.4,.5-.6,1-1.1,2.9-3.5,2.4-3.3c.5-.8,1-1.4,1.2-1.8h0v.2h.2c0,0,.1,0,.1,0h-.2l-.4,.5-1.8,2.1-1.3,1.6-2.1,2.6-.8,1s0-.1,0,0c0,0,0-.2,0-.1h0c0,0-.1-.3,0-.2,0,0-.2-.1-.1,0h-.1c0,0-.2,0-.1,0,0,0-.1,0,0,0l.4-.5,.8-1.2c.6-1,1.3-2.1,1.9-3.1l.8-1.6h.1c0,.1,.2,.2,.2,.2,0,0,.2,0,.2,0h0l-.8,1.1-1.6,2.4-.9,1.2-.3,.4h0c0,.1,0,0,0,.1-.1,.2-.4,.3-.6,.2-.2-.1-.3-.4-.2-.6l.9-1.5,1.3-2.1,.7-1.2,.2-.4h0c0-.1,0,0,0-.3,.1-.2,.4-.2,.6,0,.2,.1,.2,.4,0,.6l-.4,.6-.5,.9-1.5,2.3-.8,1.1h-.2c0,.2-.3,.2-.4,0-.2-.2-.1-.4-.1-.4v-.3l.6-.8,1.3-2.2,.5-.9s0,.2,0,.1h0v.2c0,0,.4,0,.3,0,0,0,.1,0,.1,0h0l-.5,.8-1.6,2.1c-.4,.5-.8,1-1.2,1.3-.1,0-.2,.3-.6,.1-.2,0-.3-.3-.3-.4v-.2l.5-.7,1.5-2.3,.6-.9v-.3h.2s.1,.3,0,.2c0,0,.2,.1,.1,.1,0,0,.2,0,.1,0,0,0,.2,0,.1,0h-.1l-.4,.8-.9,1.4-.4,.8v.2h-.1c0,0,0,0-.1,.2l-.5-.6h0l.5-.8,.6-.9c.5-.8,1-1.6,1.2-2.1h0c0,.1,.1,.3,.1,.2,0,0,.3,0,.2,0,0,0,.2,0,.1,0l-.2,.2-.9,1.2c-.3,.3-.4,.8-.9,1-.1,0-.4,0-.6-.1-.2-.2-.1-.4,0-.5v-.4l.6-.9,.3-.6v-.2h.1c0-.1,0-.2,.2-.3,.2,0,.4,0,.5,.2,0,.2,0,.4-.2,.5,0,0,.1,0,0,0h0l-.4,.7c-.2,.3-.3,.5-.5,.7h-.2c0,.2-.3,.2-.4,0-.2-.1-.2-.3-.2-.4v-.2l.3-.7,.3-.9c.1-.3,.2-.5,.5-.7,.2-.1,.6,0,.7,.2v.5Z"/><path d="M117,50.6c0-.2,.1-.4,.3-.5,.2,0,.4,.1,.5,.3,0,.2,0,.1,0,.2h0c0,.5-.3,1.3-.4,1.9v.7c0,0,0,0,0,0,.2,0,.4,.1,.5,.3,0,.2-.1,.4-.3,.5-.4,0-.8-.2-1-.6-.4-1,.2-2.4,.3-3h0s0,.1,0,0m-3.5,12.9c0,.2-.1,.4-.3,.5-.2,0-.4-.1-.5-.3,0-.2,0-.1,0-.2h0l.3-1.2,.6-1.8c.3-1,.7-2,.9-2.6l.2-.3c0,0,.1-.2,.3-.2,.2,0,.3,0,.4,.2,.2,.3,.1,.4,0,.6l-.4,1.5c-.3,1-.7,2-1,2.9l-.3,1v.4h-.2v.3c-.2,0-.3,.1-.5,0-.2,0-.2-.2-.2-.3,0-.3,0-.2,0-.3l.4-1.1,.7-1.7,.5-1.4,.3-.8c0-.2,.1-.3,.3-.4,0,0,.4-.2,.6,0,.2,.1,.2,.3,.2,.4,0,.5-.2,1.1-.4,1.8-.3,1-.7,2-1,2.8l-.4,1.3h0v.2h-.1c0,.2-.5,.2-.6,0-.2-.2,0-.2,0-.3v-.3l.3-.5,.7-1.5,.3-.5,.2-.3,.2-.2h.2c.1,0,.3,0,.4,.1,.2,.3,0,.4,0,.6-.1,.5-.5,1.2-.7,1.7l-.3,.7v.3h0v-.2s0-.2,0-.1c0,0-.2-.2-.1-.2,0,0-.3,0-.2,0,0,0-.2,0-.1,0,0,0-.1,0-.1,0h0l1-1.5,.5-.8c.1-.1,.2-.2,.4-.3,.2,0,.6,0,.7,.3,.1,.4,0,.6,0,.9l-.3,.8-.6,1.3-.2,.4c0,0,0,.1-.2,.2,0,0-.2,0-.3,0-.2-.1-.2-.3-.2-.4h0c.1-.6,.5-1.2,.8-1.9l1-2,.2-.4c0,0,0-.1,.2-.2,.1,0,.5,0,.5,.2,.1,.2,0,.3,0,.4v.2c-.3,.4-.6,.8-.9,1.2l-1,1.2c-.4,.4-.7,.6-1,.8-.3,.2-.4,.2-.5,.2-.1,0-.3,.3-.5,.5v.3h-.1s-.2-.2-.1-.1c0,0-.2,0-.2,0h-.1l.5-.5,.8-1,.3-.4h0c0,0,0,.3,0,.3,0,0,0,.2,0,.1h0c0,0,.1,.2,.1,.2h0c-.5,0-.7-.4-.9-.8-.5-.9-.5-2.3-.6-3.6l-.4-2.9v-.7l-.2-.5v-.3h0c0,.1,.2,.3,.1,.2,0,0,.4,0,.3,0-.2,0,.3-.2,.3-.2h0s0-.2,0-.2v1.7c0,1.1,0,2.2,.1,3v.5c.1,0,0-.1,0,0,0,0-.2,0-.2,0,0,0-.2,0-.1,0h0v-.4c.5-1.2,.8-3.3,1.2-5.2l.5-2.5c.2-.7,.2-1.2,.4-1.6l.7,.4c0,.1,0-.2,0-.2,0,0,0,0,0,0,0,0,.1,.3,.2,.7,0,.7,0,1.7,0,2.4v.6h0c0,0,0-.1,0,0,0,0-.1-.1,0,0,0,0-.2-.1-.2,0,0,0-.3,0-.2,0,0,0-.2,0-.1,0,0,0-.1,.1,0,0h0c.2-1.1,.6-2.9,.9-4.7l.4-2.5v-.7c.1,0,0,0,.2-.3h.2c.1-.2,.3-.2,.4,0,.2,.1,.2,.2,.2,.3v.2l-.2,1.4c-.2,1.5-.7,3.3-.9,4.8-.1,.7-.1,1.3-.1,1.7v.3h0s-.2-.1-.1-.1c0,0-.2,0-.1,0h0c.1-.1,.4-.9,.6-1.6,.2-.7,.3-1.5,.4-2.1v-.7h.1c0-.1,0,0,0-.3,.1-.2,.4-.3,.6-.2,.2,.1,.3,.4,.2,.6,0,0,0,0,0,0,0,0,0,0,0,0h0v.8c-.2,.6-.3,1.4-.6,2.2l-.4,1.2c-.1,.4-.2,.7-.6,.9-.1,0-.3,0-.5,0-.4-.2-.4-.6-.4-1,0-.5,0-1.1,.1-1.9,.2-1.6,.7-3.4,.9-4.8l.2-1.4h0c0,0,0,.3,0,.2,0,0,.1,.1,.1,.1,0,0,.3,0,.2,0,0,0,.2,0,.2,0,0,0,.1,0,.1,0,0,0,0-.1,0,0h0v.6l-.5,2.5c-.3,1.8-.6,3.6-.9,4.6v.4c-.2,0-.3,.2-.6,.2-.2,0-.2-.2-.3-.2v-1c0-.8,0-1.8,0-2.3v-.4h-.1v-.2h0c0-.1,0-.1,0-.4,.1-.2,.4-.3,.6-.2,.2,.1,.3,.4,.2,.6l-.3,1.3-.5,2.4c-.4,1.9-.6,4-1,5.3-.1,.3-.2,.6-.4,.7,0,0-.2,.2-.4,.2-.2,0-.4-.2-.4-.3-.1-.2-.1-.5-.2-.8-.1-.8-.1-2-.1-3.1v-1.8h0c0-.2,0-.3,.2-.3,.2,0,.4,0,.5,.1,.2,.2,0,.2,0,.2v.3l.2,.5v.7l.5,3c.2,1.3,.2,2.7,.5,3.3l.2,.4h.2c0,.1,.3,.2,.3,.4,0,.3,0,.3,0,.3h0l-.3,.4-.8,1.1-.4,.5-.2,.2c0,0-.2,.2-.5,0-.4-.2-.3-.5-.3-.7,0-.2,.1-.4,.3-.7,.2-.2,.4-.6,.8-.8h.4l.9-.9,1-1.1,.7-1h0c0,0,0,.2,0,.2,0,0,.2,.2,.1,.1,0,0,.2,0,.2,0h.1c0,0,.2,0,.1,0h0l-.2,.3-1,2-.7,1.6h0s0-.2,0-.1h0c0,0-.2-.3-.1-.2,0,0-.2,0-.2,0,0,0-.2,0-.1,0,0,0-.2,0-.1,0,0,0,0,0,0,0l.2-.3,.5-1.3,.3-.8v-.3h.1s.1,.1,0,0h.1c0,0,.2,0,.2,0h0l-.4,.7-1,1.7h0v.2c-.2,0-.3,0-.5,0-.3-.2-.2-.3-.2-.4v-.4l.4-.7,.5-1.2,.2-.4h0c0,0,0,.1,0,0,0,0,.2,.2,.1,.1,0,0,.2,0,.2,0h.1c0,0,.1,0,0,0h0v.2l-.3,.5-.7,1.5-.2,.6h0s0-.2,0-.1c0,.1-.8-.2-.6-.3,.1,0-.2,.2-.1,.1h0l.4-1.3c.3-.8,.7-1.8,1-2.8,.2-.7,.4-1.3,.4-1.6h0v.2h.2c0,0,.3,0,.2,.1,0,0,.1,0,.1,0h0l-.3,.8-.5,1.4-1,2.7h0s0-.1,0,0h0s0-.2,0-.2c0,0-.3-.2-.2-.2,0,0-.4,0-.3,0,0,0-.2,0-.1,0,0,0-.1,0,0,0h0v-.3l.5-1.1c.3-.9,.7-1.9,1-2.8l.4-1.4v-.2h0c0,0,.2,.3,.1,.2,0,0,.2,0,.2,0h.1s0,0,0,0h0l-.9,2.6-.6,1.7-.3,1.1h0s0-.2,0-.1m.4-10.4c0-.2,.2-.4,.4-.4,.2,0,.4,.2,.4,.4v.4l-.4,1.6-.8,3.9-.3,1.7v.4h0c0-.1-.1-.3,0-.2,0,0-.3-.1-.2-.1,0,0-.3,0-.2,0,0,0-.2,0-.1,0,0,0-.1,.1,0,.1h0l.6-4.2,.3-1.8v-.6l.2-.2h.1c.1-.2,.5-.1,.6,0v.2c.1,.5,0,1.2-.1,1.9-.2,1.6-.6,3.4-.8,4.6v1.1h-.1c0,0,0-.2,0-.2h-.2v-.2s-.4,0-.4,0c0,0-.1,.1-.1,0,0,0,0,.1,0,0,0,0,0,0,0,0,0-.1,0-.9,.1-1.6,0-.4,.2-.8,.3-1.1l.2-.7,.3-.4h.3c.1-.2,.3-.1,.4,0,.3,.3,.2,.6,.1,.9v.9l-.6,2.4v1h-.1c0,0,0,0,0,.2-.1,.2-.4,.2-.6,0-.2-.1-.2-.4,0-.6h0v-.9l.5-2.4v-1.2h.1s0,0,0,0c0,0,.2,.1,.1,0,0,0,.2,0,.2,0,0,0,.2,0,.1,0h0l-.2,.7-.3,1c-.1,.6,0,1.3-.1,1.6v.2c-.1,0-.2,.2-.5,.2-.2,0-.3-.2-.3-.2-.1-.3,0-.2,0-.3v-1.2c.3-1.3,.7-3.1,.9-4.6,.1-.8,.2-1.5,.2-1.7h0c0,.1,.1,.3,0,.2,0,0,.3,0,.2,0,0,0,.3,0,.2,0,0,0,.1,0,.1,0,0,0,0-.1,0,0h0v.5l-.4,1.7-.4,2.6-.2,1.8h0v.2c0,0-.1,.2-.4,.2-.3,0-.3-.2-.4-.3-.1-.3,0-.2,0-.3v-.4l.3-1.8,.8-3.9,.3-1.5v-.3Zm-.7-7c0-.2,.1-.4,.4-.5,.2,0,.4,.1,.5,.4v.2l-.2,1.7-.3,3.4v1.5h0s0,0,0,0h0s-.3-.4-.1-.3c.1,.1-.6,0-.5,0,0,0-.1,.2-.1,.1h0s0,0,0,0l.4-3.6v-2.5h0v.2s.3,.1,.2,0c0,0,.2,0,.2,0,0,0,.2,0,.1,0,0,0,.1-.1,.1,0,0,0,0,0,0,0l-.3,1.6-.5,3.3v1.9h-.1s0-.1,0,0c0,0-.1-.2,0-.1,0,0-.5,0-.4-.1,0,0-.2,.1-.2,0h0s0,.2,0,.2h0v-1.5l.5-3.2v-1.3l.3-1.2c0-.2,.3-.4,.5-.3,.2,0,.4,.3,.3,.5h0v2c-.2,1.9-.4,4-.5,5.4v1s-.1-.1,0,0c0,0-.2,0-.1,0,0,0-.2,0-.2,0h0c.1-.1,.4-1.5,.7-2.9l.5-2.7v-.2l.2-.2c0,0,.2-.1,.3,0,.3,0,.3,.2,.3,.3v.3l-.3,2c-.2,1.5-.6,3.1-.8,4.4v2h-.2v-.2h-.2c0,0-.3,0-.2,0,0,0-.1,0-.1,0h-.1c.1,0,.4-2.1,.8-3.7l.4-1.5c0-.2,.2-.5,.4-.6,.1,0,.4,0,.6,0,.1,.1,.2,.2,.2,.4,.1,.5,0,1.2,0,1.8,0,1-.3,2-.4,2.9v1.1l-.2,.4h0c0,0-.1-.3,0-.2h-.2c0,0-.3,0-.2,0,0,0-.1,0-.1,0,0,0,0,0,0,0h0c.2-.4,.5-2.3,.9-4.2l.5-2.1,.2-1v-.3l.3-.2c0,0,.2-.1,.4,0,.1,0,.2,.1,.2,.2,.3,.5,0,1,0,1.5,0,1.3-.5,2.9-.9,4.2l-.4,1.6-.2,.7v.2c-.1,0-.2,.2-.4,.2-.3,0-.4-.2-.4-.2-.1-.3-.1-.5,0-.8v-1.1l.2-2.3,.2-1.3c0-.6,0-1,.2-1.3l.2-.2c.1,0,.3,0,.4,0,.3,.1,.2,.2,.3,.3v.3c0,.5-.2,1-.3,1.7-.4,1.8-1.1,3.9-1.6,5.3l-.3,.9c0,0,0,.2-.2,.3,0,0-.3,.1-.4,0-.3-.1-.2-.3-.3-.3,0-.2,0-.5,0-.9v-1.5c.3-1.4,.7-3,1-4.4l.4-1.5v-.2c.1,0,.1-.1,.3-.2,.2,0,.5,0,.5,.2,.1,.2,0,.3,0,.5l-.3,1.9-.9,4.1-.2,1.2h0c0,.1-.1,0,0,0h-.1c0,0-.2,0-.2,0,0,0-.1,0,0,0,0,0,.5-1.7,.7-3.2l.3-2.3v-.6h0c0-.3,.2-.4,.5-.4s.4,.2,.4,.5v.6l-.4,2.4-.4,2.2c-.2,.6-.2,1.1-.6,1.4,0,0-.3,.2-.5,0-.3-.1-.3-.3-.3-.4v-1.7l1.1-4.1,.3-1.8h0c0,0,0,0,0,0h0c0,0,.2,.2,.1,.2,0,0,.2,0,.2,0h.1c0,0,.2-.1,.1-.1,0,0,0,0,0,0h0l-.3,1.6c-.3,1.3-.6,2.9-.8,4.3v2.1h-.2s-.2-.2-.1-.1c0,0-.3,0-.2,0,0,0-.2,0-.2,0,0,0-.2,.1-.1,0h0l.3-.9c.5-1.4,1.1-3.5,1.5-5.3,.2-.7,.3-1.2,.3-1.5h0s.1,.2,0,.1c0,0,.2,0,.2,0,0,0,.3,0,.2,0h.1c0,0,.1-.2,.1-.2h0l-.2,1.1-.2,1.3v3.7h-.2c0,0-.2-.2-.1-.2,0,0-.2,0-.2,0,0,0-.2,0-.1,0,0,0-.2,.1-.1,0,0,0,0,0,0,0l.2-.7,.4-1.6c.3-1.4,.8-3,.8-4.1v-1h.1s.2,.2,.1,.1c0,0,.3,0,.2,0,0,0,.2,0,.1,0,0,0,.1-.1,0,0h0l-.3,1.1-.5,2.1-.5,2.7c-.2,.8-.3,1.4-.4,1.7v.2c-.2,0-.5,.1-.6,0-.3-.2-.2-.3-.2-.3v-.6l.2-1.2c.1-.9,.3-1.9,.4-2.8,0-.7,0-1.3,0-1.6h0s.2,.1,.1,.1h.2l-.4,1.5-.5,2.4c-.1,.7-.2,1.3-.4,1.7h-.1c0,.2-.2,.2-.4,.2-.3,0-.3-.2-.3-.3,0-.3,0-.4,0-.7v-1.7c.3-1.4,.6-3,.9-4.4l.3-1.9h0s.1,.2,0,.1c0,0,.3,0,.2,0,0,0,.2,0,.2,0,0,0,.1,0,.1,0,0,0,0-.1,0,0h0l-.5,2.7-.4,1.9c-.1,.6-.2,1-.5,1.4-.1,.1-.3,.2-.5,.2-.2,0-.4-.3-.4-.4,0-.3,0-.7,0-1.2,0-1.5,.3-3.6,.4-5.4v-2.1h.9v1.3l-.3,1.3-.4,3.2v1.5h-.1v.2c0,0,0,.2-.3,.3-.1,0-.3,0-.4-.1-.2-.2-.1-.2-.1-.2v-2.1l.6-3.3,.3-1.6h0c0-.1,0-.2,.2-.3,.1,0,.3,0,.5,0,.2,.1,.2,.2,.2,.3v2.7c-.1,1.5-.3,3.1-.4,3.7h0c0,.1,0,.1-.1,.3,0,0-.2,.1-.4,0-.3,0-.3-.2-.3-.3,0-.2,0-.1,0-.2v-1.5l.3-3.5,.2-1.7h0Zm.5-6.6c0-.2,0-.4,.3-.5,.2,0,.4,0,.5,.3,0,.2,0,.1,0,.1h0v1.7c-.2,1.4-.4,3-.6,4.4v2.2h-.1v.2l-.2,.2c-.1,.1-.5,0-.6,0-.2-.2-.1-.2-.1-.3h0v-7.7h.2c0,.1,.2,.2,.1,.2,0,0,.2,0,.2,0,0,0,.2-.1,.2,0h.1c0,0-.1,.9-.2,1.8l-.4,3-.2,1.1v.4c0,0,0,0-.2,.2,0,0-.2,.2-.4,.1-.3,0-.3-.2-.3-.3h0c0-.5,0-1,0-1.5,0-1.4,.3-2.9,.5-4.1v-.8l.2-.6v-.2h0c0-.1,0,0,0-.3l.7,.4h0v2.3h0c0,0-.2-.2-.1-.2h-.1c0,0-.2,0-.2,0,0,0-.1,.1,0,0h0v-4.6l-.2-.5h0c0,0,.3,0,.2,0,0,0,.2-.2,.2-.1,0,0,0,0,0,0v1.9h0s0-.2,0-.1h0s-.2-.1-.1-.1c0,0-.2,0-.1,0,0,0-.3,.1-.2,0h-.1v.2c0-.2,.1-1.3,.2-2.2v-.6c0-.2,.1-.3,.2-.4,.1-.1,.4-.3,.6-.1,.4,.2,.3,.4,.4,.6v.5l.2,.3h-.1c0,0-.2-.2-.2-.1,0,0-.3,0-.2,0,.1,0-.3,.2-.2,.2,0,0,0,.1,0,.1v-.6c0-.1,.6,.2,.5,.3-.1,0,.2-.1,.2-.1h0c0,0-.3,.7-.4,1.7-.1,.9-.1,2-.1,3.1,0,1.5,0,2.8,0,3.5v.3h0c0,0-.3,0-.2,0,0,0-.2,.1-.1,0h0v-1.1l.2-.9v-.5h.1c0-.1,.1-.2,.3-.2,.3,0,.4,.1,.4,.2v8.6h0c0,.1-.2,0-.2,0,0,0-.3,0-.2,0,0,0-.2,0-.1,0,0,0-.1,.1,0,0h0v-.6l.5-2.1,.3-2.2v-1.4h.2v-.3c.2,0,.5-.2,.6,0,.2,.2,.2,.2,.2,.3v.2l-.3,1.9c-.2,1.4-.5,3-.6,4.3v2.1h0s-.1-.2,0-.1c0,0-.2,0-.2,0,0,0-.2,0-.2,0,0,0-.2,.1-.2,0h0v-8.8h0c-.1-.2,0-.4,.1-.5,.2-.1,.4,0,.6,.1,.2,.3,0,.3,0,.4l-.2,1.2c0,1.1-.1,2.6-.1,4v2.5c0,.2-.2,.4-.4,.4s-.4-.2-.4-.4v-6h0v-.3c0-.2,.3-.3,.5-.3,.2,0,.3,.3,.3,.5h0v6.1c0,.2-.2,.4-.4,.4s-.4-.2-.4-.4v-2.5c0-1.3,0-2.8,.1-4v-1l.2-.3h0l.7-.3c.2,.2,.1,.4,.1,.6v7.6c0,.6,0,1.1-.2,1.5l-.2,.2c0,0-.3,0-.4,0-.3-.1-.2-.3-.3-.3v-2.4c.1-1.4,.4-2.9,.6-4.3l.3-1.9h0v.2h.2c0,.1,.2,.2,.2,.2,0,0,.2,0,.2,0,0,0,.2-.1,.2,0,0,0,0-.1,0-.1h0v1.3l-.4,2.2-.4,2.1v.6l-.2,.2h0l-.2,.3c-.1,0-.3,0-.4-.1-.3-.3-.2-.6-.2-1.1v-7.9h.2v.2s.2,.1,.2,0c0,0,.3,0,.2,0,0,0,.2,0,.2,0,0,0,.1,0,0,0,0,0,0-.1,0,0h0v1.8c-.2,.3-.1,.5-.3,.8,0,.1-.3,.2-.5,.2-.3,0-.4-.2-.4-.4v-.5c-.2-.8-.1-2.1,0-3.6,0-1.1,0-2.3,.1-3.2,0-.6,.2-1.1,.3-1.5v-.4h.2v-.2h0l.2-.2c.2,0,.5,.1,.5,.3,0,.3,.2,.7,0,1.1l-.2,.2c-.1,0-.3,0-.4,0-.3-.1-.2-.2-.2-.2l-.2-.6v-.5h.1c0,0,.2,0,.2,0,0,0,0,0,0,0h0v.5c0,.8,0,1.8-.3,2.4v.2c-.2,0-.5,.2-.6,0-.2-.1-.2-.2-.2-.3v-1.9c-.1-.2-.2-.4,0-.7,0-.1,.3-.2,.4-.2,.4,0,.4,.3,.5,.5l.2,.6v4.4c.1,.3,.2,.5,0,.8,0,0-.2,.2-.3,.2-.3,0-.3-.2-.4-.2-.1-.2-.1-.4-.1-.6v-1.6c0-.3-.1-.5,0-.8,.1-.2,.4-.3,.6-.2,.2,.1,.3,.4,.2,.6h0s0-.2,0-.1v1l-.2,.9c-.2,1.2-.4,2.7-.5,4v1.3h0v-.2s-.3-.1-.2-.1c0,0-.3,0-.2,0,0,0-.2,0-.2,0h-.1v-.2l.2-1.1,.4-2.9c0-.9,0-1.6,.2-2.1v-.2c.2,0,.4-.2,.6,0,.3,.1,.2,.2,.2,.3v7.8h0s0-.2,0-.1c0,0-.1-.1,0,0,0,0-.3-.1-.2-.1,0,0-.3,0-.3,0,0,0-.1,.1-.1,0,0,0,0,.1,0,.1h0v-2.1c.2-1.4,.5-3,.6-4.4v-1.7h0Zm.8,.7c-.1,.2-.4,.3-.6,.2-.2-.1-.3-.4-.2-.6,0,0,0,.1,0,.1h0v-1h0s.2,.2,.1,.2c0,0,.4,0,.3,0-.2,0,.3-.2,.2-.2h0c-.1,.3,0,2.9,0,5,0,1.2,.2,2.2,.4,2.7h0s-.1,0,0,0c0,0-.2,0-.1,0,0,0-.2,0-.2,0,0,0-.2,0-.2,0,0,0-.1,.1,0,0,0,0,0,.1,0,.1l-.2-2.9c0-.9,0-1.8,0-2.6v-1.7h0c0,0,.2,.3,.1,.3,0,0,.4,0,.3,0-.2,0,.3-.2,.2-.2h0v1.3l-.6,3.5v2.7h-.2l-.8,.3c-.1-.4,0-.7,0-1.1,0-1.1,.3-2.9,.4-4.4v-1.8l.2-.6v-.2h0c0,0,0,0,0-.2,0-.2,.3-.3,.5-.2,.2,0,.3,.3,.2,.5h0s0-.1,0,0v.8l-.2,1.8-.4,4.4v.8c0,.2,0,.5-.3,.5-.2,0-.4,0-.5-.3,0-.2,0-.3,0-.4v-.7l.2-1.9,.5-3.5v-1.5h.2v-.3c.2,0,.4,0,.5,0,.2,0,.2,.2,.2,.3v1.9c0,.8,0,1.7,0,2.5l.2,2.4v.9c-.1,0-.3,.3-.5,.2-.3,0-.3-.2-.3-.3v-.2c-.2-.6-.4-1.7-.5-2.9v-4.6c0-.4,0-.6,0-.8v-.2c.3-.1,.6,0,.7,0,.2,.2,0,.2,0,.2v1.2h0c0,0,0,0,0,.3"/><path d="M118.1,35.5c.2,0,.4,.2,.4,.4,0,.2-.2,.4-.4,.4h-.8c-.6,0-1,0-1.3,0-.2,.1-.4,0-.6-.2-.1-.2,0-.4,.2-.6,.6-.3,1.2-.2,1.7-.2h.8Zm1.6,.3c.2,.1,.3,.4,.1,.6-.1,.2-.4,.3-.6,.1l-.5-.3c-.4-.2-1.5,0-2.6,0l-1.4,.2h-.4c0,0,.1,0,0,0,0,0,0-.3,0-.2,0,0-.1-.3,0-.2,0,0-.1-.1-.1-.1,0,0-.1,0-.1,0h0l.9-.2c.6,0,1.2,0,1.7,0h1.2c.2,0,.4,.2,.4,.4,0,.2-.2,.4-.4,.4h-1.3c-.5,0-1.1,0-1.6,0-.4,0-.7,.2-1.1,.2h0s-.1,0-.2-.1c-.1-.1,0-.5,0-.5,.2-.2,.2-.1,.2-.1h.6l1.5-.3c1,0,2.1-.2,2.9,0,.3,.1,.6,.3,.6,.3m2.1,4.9c.1,.2,0,.4-.1,.6-.2,.1-.4,0-.6-.1-.1-.2,0-.2,0-.2v-.2l.2-2.2v-1.3h0s.2,.1,.1,.1c0,0,.2,0,.2,0h.1c0,0,.1-.1,0,0h0l-.3,.5c-.1,.2-.2,.5-.4,.7-.4,.5-1,.4-1.5,.1-.4-.2-.6-.7-.7-1.1l-.4-1.1c-.2-.4-.7-.7-1.2-.7h-.4l-.8,.3h0s0-.3,0-.3c0,0-.1-.1,0,0h.7c.9,0,1.8,.2,2.5,.1,.4,0,.5-.2,.5-.2h0c-.1-.1-1.7-.6-2.9-.5-.6,0-1.1,.1-1.4,.3h0s0-.3,0-.3h0c0,0,.6,.3,1.2,.5l1.4,.3h1.4c.2-.1,.4-.1,.6,0,.1,.2,.1,.4,0,.6-.3,.2-.5,.2-.7,.2h-1.3c-.5,0-1-.2-1.6-.4-.5-.2-1-.4-1.3-.6-.2-.1-.4-.2-.4-.5,0-.3,.3-.6,.5-.6,.4-.1,1-.3,1.6-.3,.8,0,1.7,0,2.4,.2,.4,0,.7,.2,.9,.4,.3,.2,.5,.5,.4,.8-.1,.6-.7,.8-1.3,.9-.8,0-1.7-.2-2.5-.2-.3,0-.7,.2-1.1,0-.1,0-.2-.2-.3-.4,0-.3,.1-.4,.2-.5l.3-.2c.3-.1,.6-.3,1-.3h.6c.8,0,1.6,.4,1.9,1.2,.3,.8,.5,1.7,.8,1.8,.2,0,.4,0,.4,0l.3-.6,.2-.4v-.2h.2c0-.2,.2-.3,.4-.2,.3,.1,.3,.4,.4,.5v1.5l-.2,2.2h0s0-.2,0-.1m-1.6-3.5c0-.2,.1-.4,.4-.4,.2,0,.4,.1,.4,.4h0v5.4h0c0,0,0,0,0,0,0,0-.2-.1-.1,0,0,0-.2,0-.2,0,0,0-.2,.1-.2,0h0l.3-1.6,.4-3v-1.4l.2-.2h.2c.1-.2,.3-.1,.4,0,.3,.2,.2,.3,.2,.3v.2l-.4,2.9-.2,1.4v.3h0v.2h-.3c-.1,.2-.3,0-.4,0-.2-.2-.1-.3-.1-.3v-.2l.5-3.5v-1.1h.1v-.2c.2,0,.4,0,.5,0,.2,.1,.2,.2,.2,.2v4.4h-.1v.2h0s0,0,0,.2c-.1,.2-.4,.2-.6,0-.2-.1-.2-.4,0-.6h0v.2h0v-.7l.2-3.2v-.4h0s0,.2,0,.2c0,0,.7,.1,.5,.2-.2,0,.3-.3,.3-.2h0v.9l-.5,3.5h0c0,0-.2-.3-.1-.3,.2,.1-.6,.1-.5,0,0,0,0,.1,0,.1h0v-.2l.2-1.4,.3-2.8h0s0,.2,0,.2c0,0,.1,.1,0,0,0,0,.2,0,.2,0,0,0,.2,0,.2,0,0,0,.2,0,.1,0,0,0,.1-.1,0-.1,0,0,0,0,0,0h0v1.3l-.5,3c-.1,.8,0,1.5-.5,2,0,0-.2,.2-.4,.2-.3,0-.4-.2-.5-.3v-5.7h-.1Zm1.2,25.2c0,.2-.2,.4-.4,.4s-.4-.2-.4-.4v-3.1l-.2-3.3-.4-5.9-.2-2.3v-.7l-.2-.5h0c0,0,.1,.1,0,0h.2c0,0,.3,0,.2,0,0,0,.1-.1,.1,0,0,0,0-.1,0,0h0c0,.2,.4,3.3,.6,5.7l.2,2.2v.7c0,0,0-.1,0,0h0s-.2-.2-.1-.2c0,0-.4,0-.3,0,.1,0-.3,.2-.2,.1,0,0,0,.1,0,0h0v-1.1c.2-1.2,.5-2.7,.6-4.5,0-1.7,0-3.5,0-4.7,0-.6-.2-.9-.3-1h0s.1,0,0,0c0,0,.2,0,.2,0,0,0,.2,0,.2,0h.1c0,.7,0,2.2,0,3.8v3.7h0v-.2s-.2-.2-.2-.1c0,0-.2,0-.1,0,0,0-.2,0-.2,0,0,0-.2,.1-.2,.1h0v.2c0,0,0,0,0,0h0v-8.3h0s.2,.2,.1,.2c0,0,.3,0,.2,0,0,0,.2,0,.2,0,0,0,.2-.1,.1-.1h0v5.2l.2,1v.3h0v-.2h-.2c0,0-.3,0-.2,0,0,0-.2,.1-.1,0,0,0,0,.1,0,0h0v-1.6l.2-2.6v-2.4c0-1.5-.1-3.1-.3-4v-.3h0c0,0,.3,0,.2,0,0,0,.1-.1,0-.1v5c0,.2-.1,.4-.4,.4-.2,0-.4-.2-.4-.4v-1l.2-3.4v-2c0-.2,.2-.4,.4-.4,.2,0,.4,.2,.4,.4,0,0,0,0,0,0v5.3l-.2,.9h-.8v-4.2c0-.5-.1-.9,0-1.2,0-.1,.2-.3,.4-.3,.3,0,.4,.2,.5,.4l.2,.6c.2,1,.3,2.6,.3,4.1v5c-.2,.8,0,1.4-.3,1.9,0,0,0,.1-.2,.2-.1,0-.4,0-.5,0-.2-.2-.2-.3-.2-.4v-1.4l-.2-3.3v-1.4c0-.4,0-.7,0-1,0,0,.2-.3,.4-.3,.2,0,.3,.1,.3,.2,.2,.3,.1,.5,.2,.8v8.3c-.2,0-.5,.1-.7,0-.2-.1-.1-.2-.2-.2v-3.9c0-1.6-.1-3.1,0-3.9,0-.2,0-.4,.3-.6,.2-.1,.4,0,.6,0l.2,.2c.2,.3,.3,.7,.4,1.4,.1,1.3,.1,3.1,0,4.9,0,1.8-.4,3.4-.5,4.5v1.3c0,0,0,0-.2,.2h-.2c-.2,.2-.4,0-.5,0-.1-.2,0-.2,0-.2v-.8l-.3-2.2-.4-3.7-.2-1.5c0-.4,0-.6,0-.9,0,0,0-.2,.2-.3,.2,0,.4,0,.5,0,.2,.2,.1,.2,.1,.2v.7l.2,.8,.2,2.4,.4,5.9,.2,3.3v3.1Zm-.2-4.8c0,.2,0,.4-.2,.5-.2,0-.4,0-.5-.2-.1-.3,0-.4,0-.7v-.8l.4-1.8v-.8l.2-.5h0s.1,.2,0,.2c0,0,.4,.2,.3,.1-.1,0,.3-.1,.3,0,0,0,.1-.1,0,0h0l-.2,1-.3,3v1.8h0v-.2s-.3,0-.2,0c0,0-.1,0,0,0h.2c.1,0,.3,.1,.4,.3,.2,.4,0,.7,0,1v2.2c0,.2-.2,.4-.4,.4s-.4-.2-.4-.4v-2.9c0,0,.3,.2,.2,.2,0,0,.1,0,.1,0h0c0,0-.3,0-.4-.3-.1-.3,0-.5,0-.9v-1.3l.4-3,.2-1.2h0c0-.2,0-.3,.3-.3,.2,0,.4,0,.4,.2,.1,.2,0,.2,0,.2v.7l-.2,.9-.3,1.8v.8l-.2,.3h0Zm-.3-11.4c.2,0,.4,.2,.3,.5,0,.2-.2,.4-.5,.3,0,0,0,0,0,0-.2,.3-.3,1.4-.3,2.8l-.2,5.4-.2,1.9-.2,.7c0,0,0,.2-.3,.3-.1,0-.3,0-.4,0l-.2-.2c-.2-.4-.1-1,0-1.7l.2-2.5,.4-2.8v-.4c0-.1,0-.1,.2-.3l.7,.4s0-.1,0,0l-.2,3.8v3.7h-.4c0,0-.3,0-.2,0,0,0-.1,.1-.1,0l.5-3.3,.3-1.9,.2-1v-.4c0,0,0-.1,.2-.3l.6,.5s0-.1,0-.1h0v.8c0,.9,0,2.2-.1,3.4v1.9l-.2,.3h0c0,.1,0,0,0,0,0,.2-.2,.4-.4,.4s-.4-.2-.4-.4v-1.3l.2-1.1c0-1.1,.2-2.5,.2-3.3v-.8c0,0-.1-.2,0-.4,.1-.2,.4-.2,.6,0,.2,.1,.2,.4,0,.6,0,0,0,0,0,0l-.2,1.4-.3,1.9-.3,2.2-.2,.9c0,.2,0,.4-.3,.6,0,0-.3,.2-.5,0-.2,0-.3-.2-.3-.3v-4.1l.2-2.6v-1.2c0,0,0,0,.1-.3,.1-.2,.4-.3,.6-.1,.2,.1,.3,.4,.1,.6h0v.5l-.4,2.8c-.2,1.7-.3,3.7-.2,3.9h0s-.1-.2,0-.1c0,0-.2,0-.2,0,0,0-.2,0-.2,0h-.1s0,.1,0,.1h0v-.4l.3-1.8,.2-5.4c0-1,0-1.8,.2-2.5,0-.3,.1-.6,.3-.8,.2-.2,.5-.4,.8-.4"/><path d="M134.2,52.2c0,.2,0,.4-.3,.5-.2,0-.4,0-.5-.3v-.2h0c0,0,.2,.1,.1,.1,0,0,.2,0,.2,0,0,0,.1,0,.1,0,0,0,0-.1,0,0,0,0,0,1.2,0,2.4v1.9l.2,.6h0s-.1-.1-.1-.1c0,0-.2,0-.2,0,0,0-.2,0-.2,0,0,0-.2,.1-.1,.1,0,0,0,0,0,0,0-.3,0-1.3,0-2.3v-4.1l.3-.2c.1,0,.3,0,.4,0,.3,.1,.3,.3,.3,.4l.3,1.3,.9,3.1,.2,.9,.2,.7h-.1l.2-1.2c.1-1.1,.2-2.2,.3-3.1,0-.4,.2-.8,.5-1.1,.3-.3,.8-.2,1.2,0,.2,.1,.2,.4,0,.6-.1,.2-.4,.2-.6,0-.2-.1-.2-.1-.2-.1-.2,.2-.3,2.1-.5,3.7v1c-.2,.3-.2,.6-.5,.9-.2,.1-.5,.2-.7,0-.2,0-.3-.3-.4-.4l-.3-.8-.2-.9-.9-3.2-.2-.9v-.3h0s.2,.1,.1,0c0,0,.2,0,.2,0,0,0,.2,0,.2,0h0s0-.2,0-.1h0v3.7c0,1,0,1.9,0,2.4v.2c-.1,0-.3,.2-.5,.2-.3,0-.4-.2-.4-.3v-.2l-.2-.7v-4.7c0,0,.2-.2,.4-.2,.3,0,.4,.2,.4,.3v.3Z"/><path d="M143.1,52.4c0,.2-.3,.4-.5,.3-.2,0-.4-.3-.3-.5,0-.3,0-.7-.3-.9h-.3c-.3-.2-.5-.2-.8-.2-.5,.1-.8,1-.5,1.7,.3,.7,1.2,1.3,1.9,2.1,.3,.3,.4,.7,.5,1,0,.4,0,.8-.4,1.1-.5,.5-1.2,.5-1.9,.5h-1.4c-.2,.1-.4,0-.5-.2,0-.2,0-.4,.2-.5,.5-.2,1.1-.1,1.7-.1,.6,0,1.2-.1,1.4-.3,.1,0,.1-.2,.1-.3,0-.2-.2-.5-.4-.7-.5-.7-1.6-1.3-2-2.3-.4-1.1,0-2.5,1-2.8,.4-.1,.8,0,1.2,0,.3,0,.5,.2,.7,.4,.4,.4,.6,1,.5,1.6"/><path d="M144.2,52.2c0-.2,.2-.4,.4-.4,.2,0,.4,.2,.4,.4h0c0,.2-.1,.4-.3,.4-.2,0-.3,0-.3,0-.2-.2-.2-.2-.2-.3v-.3l-.2-.5h0v-.2s0,0,0,0l.8-.2c.1,.3,0,.6,0,.8,0,.9-.1,1.9-.2,2.9,0,.5-.1,1,0,1.3v.2h-.1l1.1-.4c.3,0,.7,0,1.1,.1,.3,.2,.4,.5,.5,.7v.4c.2,0-.1-.1,0,0,0,0-.2,0-.2,0h0c0,0,.6-1,.9-1.9,.2-.6,.3-1.3,.5-1.9,.2-.6,.6-1.2,1.3-1.6,.2-.1,.4,0,.6,.1s0,.4-.1,.6c-1,.7-1.1,1.7-1.5,3-.2,.6-.4,1.1-.6,1.6l-.4,.6-.3,.2c-.2,0-.4,0-.5-.1-.2-.2-.2-.5-.3-.7v-.3c-.2,0-.4,0-.6,0l-.7,.3h-.4c-.1,.2-.4,.2-.6,0-.2-.2-.3-.5-.3-.7-.1-.5,0-1,0-1.5,0-1,.2-2.1,.2-2.8v-.6c0-.2,0-.4,.3-.5,.2,0,.4,0,.5,.3v.5l.2,.3h-.2c0,0-.2-.1-.1-.1,0,0-.2,0-.2,0h-.1s0,.3,0,.2c0,0,0,.1,0,.1h0Z"/><path d="M48.8,98.4c-.2,0-.4-.2-.4-.4s.2-.4,.4-.4H191.2c.2,0,.4,.2,.4,.4s-.2,.4-.4,.4H48.8Z"/><path d="M48.8,3.3c-.2,0-.4-.2-.4-.4s.2-.4,.4-.4H190.7c.2,0,.4,.2,.4,.4s-.2,.4-.4,.4H48.8Z"/><path d="M116.5,2.9c0-.2,.2-.4,.4-.4s.4,.2,.4,.4v31.7c0,.2-.2,.4-.4,.4s-.4-.2-.4-.4V2.9Z"/><path d="M116.5,66.3c0-.2,.2-.4,.4-.4s.4,.2,.4,.4v31.7c0,.2-.2,.4-.4,.4s-.4-.2-.4-.4v-31.7Z"/><path d="M117.6,96.8c.2,.2,.2,.4,0,.6-.2,.2-.4,.2-.6,0l-.6-.6h0c-.2,0-.6,.7-.7,1.2v.6h.3c.3,0,.7-.6,1-1.1l.3-.5h0c-.2,0-.5,.4-.8,.7l-.3,.6v.3h-.3l.5-.5c.3-.2,.5-.5,.7-.8l.2-.5h0v.2h0c0,0,0,0,0,0l-.6,.9h0c0,0,0-.2,0-.1,0,0-.2-.2-.1-.1,0,0-.2,0-.1,0h0l.4-.3c.2-.2,.4-.2,.6,0,.2,.2,.2,.4,0,.6-.3,.3-.5,.6-.9,.6-.2,0-.5-.3-.5-.5,0-.2,0-.3,.1-.5l.5-.7c.2-.2,.4-.6,.8-.5,.3,0,.7,.3,.6,.7,0,.3-.2,.5-.3,.8-.2,.4-.5,.8-.8,1.1l-.5,.4-.3,.2c-.1,0-.3,.1-.5,0-.4-.3-.4-.7-.3-1.1,0-.3,.3-.6,.5-.9l.7-.6c.2-.2,.5-.4,.9-.3,.5,0,.8,.7,.6,1.2l-.4,.6c-.4,.5-.8,1.3-1.5,1.5-.2,0-.5,0-.7,0-.2,0-.5-.2-.6-.5-.1-.3,0-.7,0-1,0-.5,.3-1,.7-1.4,.2-.2,.4-.3,.6-.4,.2,0,.6,0,.8,.1,.3,.3,.6,.6,.7,.7"/><path d="M116.3,2.5c0-.2,.1-.4,.3-.5,.2,0,.4,.1,.5,.3h0c0-.1-.2-.3-.1-.3h-.3c0,0-.2,0-.2,0h-.1v-.2h.3c-.2,0-.3-.2-.2-.4,0-.2,.3-.3,.5-.2,.2,0,.2,.2,.2,.3,0,.3,0,.2,0,.3v1.9c-.1,0-.3-.1-.2-.1h.3c0-.2,.3-.5,.4-.9v-.4c.1,0,0-.1-.1-.1,0,0-.4,.1-.6,.3l-.3,.3v.3h-.2s-.2-.2-.2-.2c0,0-.2,0-.1,0,0,0-.1,0-.1,0h0l.6-.5,.4-.4h0s.1,.3,0,.3c0,0,.2,0,.1,0h.1c-.1,0-.4,.5-.5,.9,0,.2-.2,.4-.4,.4-.2,0-.4-.2-.4-.4,0-.6,.4-1.3,.9-1.6,.2-.1,.4,0,.6,0,.2,0,.4,.4,.3,.6,0,.3-.3,.5-.6,.8l-.5,.4-.2,.2h-.2c0,0-.3,.2-.5,0-.2-.2-.1-.4,0-.6l.2-.5,.5-.6c.3-.3,.7-.6,1.3-.5,.4,0,1,.4,.9,1,0,.3-.1,.5-.2,.7-.1,.4-.3,.9-.8,1.2l-.6,.2h-.3c-.1,0-.3-.1-.4-.3-.1-.3,0-.6,0-.7V1.8l.2-.2h0s0,.2,0,.1c0,0,0,.2,0,.1,0,0,.3,.2,.2,.2l.3-.8c.3,.1,.3,.3,.3,.4v.9h-.2c0,.2-.1,.2-.3,.2-.3,0-.4-.2-.4-.3h0Z"/><path d="M189.6,53.4c.2,0,.4,.2,.4,.4,0,.2-.2,.4-.4,.4-.4,0-.8-.2-1-.5-.2-.5,0-1.1,.2-1.6,.3-.6,.7-1.2,1.2-1.8,.4-.5,.9-.9,1.5-1.1,.3-.1,.6-.1,.8-.1,.5,0,.9,.3,1.3,.6,1,1,1.2,2.5,2.1,3.3,.6,.5,1.3,.6,2.1,0,1-.5,2.1-1.6,3.4-3.2,.1-.2,.4-.2,.6,0,.2,.1,.2,.4,0,.6-1.3,1.6-2.5,2.8-3.6,3.4-1.1,.6-2.2,.5-3.1-.2-1.1-1-1.4-2.6-2.1-3.3-.2-.2-.5-.3-.8-.4h-.4c-.4,.2-.8,.5-1.2,1-.6,.6-1,1.4-1.2,2,0,.3,0,.5,0,.5,0,0,0,0,.2,0"/><path d="M43.9,59.5c.2,0,.4,0,.5,.3,0,.2,0,.4-.3,.5-.5,.1-1-.2-1.2-.6-.2-.4-.1-.9,0-1.4,.3-.8,1-1.5,1.6-1.9,.4-.2,.8-.3,1.2-.3,.7,0,1.1,.6,1.3,1.2,.3,.5,.5,1.1,.8,1.4,.3,.3,1,.5,1.9,.2,1-.3,2.2-.9,3.6-2.1,.2-.1,.4-.1,.6,0,.1,.2,.1,.4,0,.6-2.9,2.3-5.4,3-6.6,1.8-.5-.5-.7-1.1-1-1.6-.2-.5-.5-.7-.6-.7-.2,0-.5,0-.7,.2-.5,.3-1.1,.9-1.3,1.5-.1,.3-.1,.7,0,.9,0,.1,0,.1,.2,.1"/><path class="d" d="M268.9,97.3c0,.2,0,.4-.3,.5s-.4,0-.5-.3c-.2-.6,0-1.1,.2-1.5,.3-.4,.6-.7,1-1.1l1.9-2.3,2.5-3.4,3.9-5.9c1.1-1.7,2.3-3.8,3.6-5.8,1.4-2.1,2.8-4,4.5-6.3,2.2-2.9,4.6-5.5,7-7.7,2.3-2.2,4.6-4,6.8-5.5,2.4-1.7,5.1-3.2,7.6-4.2,1.7-.8,3.5-1,5.4-1.6,1.8-.6,3.8-1.4,5.6-1.8,1.6-.4,3.1-.3,4.7-.4,1.7-.2,3.4-.6,5-.7,4.6-.2,9.6,.8,14.4,.6,4.3-.2,8.4,.2,12.3,.2,2.8,0,5.4,0,8.3-.2,3.5-.3,6.4,0,9.5,.2,2.6,0,5.4,.3,8,.3,1.5,0,2.9,.1,4.1,.3l1.8,.3h1c.2,.1,.4,0,.4,0,.2-.2,.4-.2,.6,0,.2,.2,.2,.4,0,.6-.3,.3-.7,.4-1,.3h-1.1l-1.9-.4c-1.2-.2-2.5-.4-4-.3-2.7,0-5.5-.2-8.1-.3-3.2,0-6-.5-9.4-.2-3,.3-5.6,.3-8.4,.2-4,0-8.1-.4-12.3-.2-4.9,.2-9.9-.8-14.4-.6-1.5,0-3.2,.5-5,.6-1.7,.2-3.1,0-4.6,.4-1.7,.4-3.7,1.2-5.5,1.8-2,.6-3.7,.9-5.3,1.6-2.4,1.1-5.1,2.5-7.5,4.2-2.1,1.4-4.4,3.2-6.7,5.4-2.3,2.2-4.7,4.7-6.9,7.6-1.7,2.2-3.1,4.1-4.5,6.2-1.3,1.9-2.5,4-3.6,5.8l-3.9,5.9-2.5,3.5-2,2.4c-.4,.4-.7,.7-.9,1-.2,.3-.2,.5,0,.8"/><path class="d" d="M339.7,36.2c.1,.2,.1,.4,0,.6-.2,.1-.4,.1-.6,0h0c0,0,.2-.1,.2,0h0v.4l-.5,2.9-.3,2.1v.3h0s-.2-.2-.1-.2c0,0-.2,0-.2,0h-.1c0,0-.1,0-.1,0h0l.4-.4c.6-.8,1.2-1.9,2.2-2.9,.5-.5,1-1,1.6-1.4,.7-.5,1.5-.9,2.5-1.1,.2,0,.4,0,.5,.3,0,.2,0,.4-.3,.5-.9,.2-1.5,.5-2.2,1-.5,.4-1,.8-1.4,1.2-.9,.9-1.5,2-2.1,2.8l-.4,.5-.2,.2h-.4c0,.1-.2,0-.3,0-.2-.4,0-.5,0-.7,0-.6,.2-1.4,.3-2.2l.4-3c0-.3,0-.6,.3-.8,.1-.1,.4-.2,.6-.2,.2,0,.3,.2,.5,.3"/><path class="d" d="M342.3,39.2c.2,0,.4,0,.5,.3,0,.2,0,.4-.3,.5-.3,0-.7,.4-.8,.8-.2,.4-.1,.8,.3,1.1,.2,.1,.2,.4,0,.6-.1,.2-.4,.2-.6,0-.7-.6-.8-1.4-.5-2.1,.3-.6,.8-1.1,1.4-1.3"/><path class="d" d="M344.9,40.3c.2,0,.3,.3,.2,.5,0,.2-.3,.3-.5,.2h0v.7s.2,.1,.6,0c.4-.1,.8-.4,1.1-.7,.2-.2,.3-.4,.3-.7,.1-.5-.5-1.1-1.2-.6-.2,.1-.4,0-.6-.1-.1-.2,0-.4,.1-.6,.6-.4,1.3-.3,1.8,0,.5,.3,.8,.9,.6,1.5,0,.3-.2,.7-.5,1-.4,.5-.9,.8-1.5,.9-.6,.1-1.3,.1-1.5-.4-.1-.3-.2-.6-.2-.8,0-.3,0-.5,.2-.8,.2-.2,.5-.4,.8-.3"/><path class="d" d="M350.1,39.4c.2,0,.3,.3,.3,.5,0,.2-.3,.3-.5,.3h0v.2l-.3,.4h-.2c.2-.2,.7-.8,1.2-1.1,.2-.1,.4-.3,.7-.3,.3,0,.5,.2,.6,.4,.3,.5,.2,1.2,.3,1.7,0,.2-.1,.4-.4,.5-.2,0-.4-.1-.5-.4v-1.1l-.2-.3h0s.3,0,.2,0l-.4,.2-.8,.7-.4,.3c-.1,0-.3,.2-.6,.1-.3-.1-.5-.4-.5-.8,0-.3,.2-.5,.2-.6,0-.2,.2-.4,.4-.5,.2-.2,.5-.3,.8-.2"/><path class="d" d="M356.5,40c0,.2-.2,.4-.4,.4-.2,0-.4-.2-.4-.4v-1.4h0s.1,0,0,0c0,0,.2,0,.1,0,0,0,.3,0,.2,0,0,0,.2-.1,.1,0h0v.4c0,.5,0,1.2,0,1.9,0,.3,0,.7-.2,1-.2,.3-.5,.5-.9,.5-.2,0-.4-.2-.4-.4,0-.2,.2-.4,.4-.4,.1,0,0,0,.1,0,.2-.3-.1-1.6,0-2.6v-.6c.1,0,.1-.3,.4-.3,.2,0,.3,0,.4,0,.2,.2,.2,.3,.3,.5v1.5Z"/><path class="d" d="M363.3,35c0,.2-.3,.3-.5,.2-.2,0-.3-.3-.2-.5l.3-.8h0v.2h.2c0,.1,.2,.1,.1,.1h0c-.2,.2-.8,.9-1.4,1.9-.6,.9-1.1,1.9-1.6,2.9l-.6,1.7c-.1,.5-.1,.8-.2,1l-.8-.2h0v-1.8c0-.3-.4-.6-.6-.9l-.3-.2h-.2c0-.2-.2-.3-.1-.6,0-.2,.2-.3,.3-.3,.4-.2,.8,0,1.3,0,1.5,0,3.8-.1,5.8,.5,.2,0,.3,.3,.3,.5,0,.2-.3,.3-.5,.3-1.7-.6-4-.4-5.5-.5h-.8v-.3h0v-.3c0,0-.1-.1,0-.1h0s.3,.1,.6,.4c.3,.3,.6,.7,.7,1.3,0,.4,0,.8,0,1.1v1c0,.2-.3,.4-.5,.3-.2,0-.4-.3-.3-.5,0,0,0-.5,.2-1.1,.1-.5,.3-1.1,.6-1.8,.5-1.1,1-2.1,1.6-3,.6-.9,1.1-1.7,1.6-2.1,.1,0,.2-.2,.5-.2,.2,0,.4,.2,.5,.4,0,.4,0,.7-.3,1.3"/><path class="d" d="M358.3,38.7c0,.2-.1,.4-.4,.4-.2,0-.4-.1-.4-.4,0-.4-.3-.8-.6-.9-.2,0-.5,0-.7,0-.1,0-.3,.2-.4,.5,0,.4,0,.9,0,1.3,0,.5,.4,.9,.7,1.3l.3,.4c.1,.2,.3,.4,.3,.6,0,.3,0,.5-.2,.7-.5,.5-1.3,.6-2.1,.4-.2,0-.3-.3-.3-.5,0-.2,.3-.3,.5-.3,.4,.1,.8,0,1.1,0h.2l-.2-.5-.2-.3c-.3-.4-.8-1-.9-1.7,0-.5-.1-1.1,0-1.6,.1-.5,.4-1.1,1-1.2,.3,0,.7,0,1.1,0,.7,.2,1.2,.9,1.2,1.6"/></g></svg>