<svg xmlns="http://www.w3.org/2000/svg" viewBox="0 0 617.5 451.2"><defs><style>.cls-1,.cls-18,.cls-19,.cls-2,.cls-21,.cls-3,.cls-4,.cls-5,.cls-6,.cls-7,.cls-8,.cls-9{fill:none;}.cls-1,.cls-13,.cls-14,.cls-2{stroke:#005088;}.cls-1,.cls-11,.cls-2,.cls-3,.cls-4,.cls-5,.cls-6,.cls-7,.cls-8,.cls-9{stroke-linecap:round;stroke-linejoin:round;}.cls-1,.cls-2,.cls-3,.cls-4,.cls-5,.cls-6,.cls-7,.cls-8{stroke-width:2px;}.cls-2{stroke-dasharray:14.9 14.9;}.cls-11,.cls-12,.cls-21,.cls-3,.cls-4,.cls-5{stroke:#d72027;}.cls-4,.cls-8{stroke-dasharray:10.43 10.43;}.cls-5{stroke-dasharray:10.17 10.17;}.cls-6,.cls-7,.cls-8,.cls-9{stroke:#04090d;}.cls-7{stroke-dasharray:12.16 12.16;}.cls-11,.cls-13,.cls-18,.cls-19,.cls-21,.cls-9{stroke-width:0.5px;}.cls-10{fill:#04090d;}.cls-11,.cls-12,.cls-16,.cls-22{fill:#d72027;}.cls-12,.cls-13,.cls-14,.cls-18,.cls-19,.cls-21,.cls-22{stroke-miterlimit:10;}.cls-13,.cls-14,.cls-17{fill:#005088;}.cls-15{fill:#1d1d1b;}.cls-18{stroke:#1d1d1b;}.cls-19{stroke:#231f20;}.cls-20{fill:#231f20;}.cls-22{stroke:#fff;}.cls-23{fill:#fff;}</style></defs><g id="x"><line class="cls-1" x1="329.7" y1="353.9" x2="273.4" y2="347.1"/><line class="cls-1" x1="329.7" y1="297.3" x2="273.4" y2="290.5"/><line class="cls-1" x1="350.9" y1="278.3" x2="294.6" y2="271.5"/><line class="cls-1" x1="351" y1="335" x2="345" y2="334.3"/><line class="cls-2" x1="330.2" y1="332.5" x2="308" y2="329.8"/><line class="cls-1" x1="300.6" y1="328.9" x2="294.7" y2="328.2"/><line class="cls-1" x1="329.8" y1="354" x2="350.9" y2="335.1"/><line class="cls-1" x1="329.7" y1="297.4" x2="350.8" y2="278.4"/><line class="cls-1" x1="273.3" y1="290.4" x2="294.4" y2="271.5"/><line class="cls-1" x1="273.4" y1="347.1" x2="277.9" y2="343.1"/><line class="cls-1" x1="290.1" y1="332.2" x2="294.5" y2="328.2"/><line class="cls-1" x1="329.8" y1="354" x2="329.8" y2="297.3"/><line class="cls-1" x1="294.6" y1="328.2" x2="294.6" y2="322.2"/><line class="cls-2" x1="294.6" y1="307.3" x2="294.6" y2="284.9"/><line class="cls-1" x1="294.6" y1="277.5" x2="294.6" y2="271.5"/><line class="cls-1" x1="273.3" y1="347.1" x2="273.3" y2="290.4"/><line class="cls-1" x1="350.9" y1="335" x2="350.9" y2="278.3"/><line class="cls-3" x1="329.7" y1="354" x2="245.2" y2="343.8"/><line class="cls-3" x1="329.8" y1="268.7" x2="245.4" y2="258.5"/><line class="cls-3" x1="361.3" y1="240.4" x2="276.9" y2="230.2"/><line class="cls-3" x1="361.4" y1="325.6" x2="355.5" y2="324.9"/><line class="cls-4" x1="345.1" y1="323.6" x2="288.1" y2="316.7"/><line class="cls-3" x1="282.9" y1="316.1" x2="277" y2="315.4"/><line class="cls-3" x1="329.8" y1="354" x2="361.5" y2="325.6"/><line class="cls-3" x1="329.8" y1="268.9" x2="361.5" y2="240.5"/><line class="cls-3" x1="245.2" y1="258.5" x2="276.8" y2="230.2"/><line class="cls-3" x1="245.2" y1="343.7" x2="249.6" y2="339.7"/><line class="cls-5" x1="257.2" y1="332.9" x2="268.6" y2="322.7"/><line class="cls-3" x1="272.4" y1="319.3" x2="276.8" y2="315.3"/><line class="cls-3" x1="329.8" y1="354" x2="329.8" y2="268.9"/><line class="cls-3" x1="245.2" y1="343.7" x2="245.2" y2="258.6"/><line class="cls-3" x1="276.8" y1="315.4" x2="276.8" y2="309.4"/><line class="cls-4" x1="276.8" y1="299" x2="276.8" y2="241.6"/><line class="cls-3" x1="276.8" y1="236.4" x2="276.8" y2="230.4"/><line class="cls-3" x1="361.5" y1="325.5" x2="361.5" y2="240.5"/><line class="cls-6" x1="329.7" y1="354" x2="160.9" y2="333.6"/><line class="cls-6" x1="329.7" y1="183.8" x2="160.9" y2="163.4"/><line class="cls-6" x1="393.3" y1="126.8" x2="224.5" y2="106.4"/><line class="cls-6" x1="393.1" y1="297.2" x2="387.1" y2="296.4"/><line class="cls-7" x1="375.1" y1="295" x2="236.2" y2="278.2"/><line class="cls-6" x1="230.2" y1="277.5" x2="224.2" y2="276.8"/><line class="cls-6" x1="329.8" y1="354" x2="393.1" y2="297.3"/><line class="cls-6" x1="329.8" y1="183.8" x2="393.1" y2="127"/><line class="cls-6" x1="160.9" y1="163.2" x2="224.2" y2="106.5"/><line class="cls-6" x1="160.9" y1="333.6" x2="165.3" y2="329.6"/><line class="cls-8" x1="173.1" y1="322.6" x2="215.9" y2="284.3"/><line class="cls-6" x1="219.7" y1="280.8" x2="224.2" y2="276.8"/><line class="cls-6" x1="329.8" y1="354.3" x2="329.8" y2="184.2"/><line class="cls-6" x1="160.9" y1="333.3" x2="160.9" y2="163.2"/><line class="cls-6" x1="224.4" y1="276.5" x2="224.4" y2="270.5"/><line class="cls-7" x1="224.4" y1="258.3" x2="224.4" y2="118.5"/><line class="cls-6" x1="224.4" y1="112.4" x2="224.4" y2="106.4"/><line class="cls-6" x1="393.2" y1="297" x2="393.2" y2="126.9"/></g><g id="Text"><line class="cls-9" x1="380.8" y1="220.6" x2="457.6" y2="220.6"/><circle class="cls-10" cx="380.8" cy="220.6" r="5"/><line class="cls-11" x1="350.9" y1="266.5" x2="427.7" y2="266.5"/><circle class="cls-12" cx="350.9" cy="266.5" r="5"/><line class="cls-13" x1="343.9" y1="315.4" x2="420.7" y2="315.4"/><circle class="cls-14" cx="343.9" cy="315.4" r="5"/><path class="cls-15" d="M467.7,224v-7.9h2a4.1,4.1,0,0,1,2.8,1,4.4,4.4,0,0,1,.9,2.9,7.9,7.9,0,0,1-.2,1.7,5.4,5.4,0,0,1-.7,1.3,2.4,2.4,0,0,1-1.2.7,3.7,3.7,0,0,1-1.5.3Zm1-.8h.9a2.7,2.7,0,0,0,2.1-.8,3.6,3.6,0,0,0,.7-2.4,3.3,3.3,0,0,0-.7-2.3,2.7,2.7,0,0,0-2.1-.7h-.9Z"/><path class="cls-15" d="M475.5,217l-.5-.2a.6.6,0,0,1,0-.9l.5-.2.5.2a.6.6,0,0,1,0,.9Zm-.5,7v-5.8h1V224Z"/><path class="cls-15" d="M480.3,224.2l-1.1-.2-.9-.6a3.1,3.1,0,0,1-.5-1,3,3,0,0,1,0-2.6,2.1,2.1,0,0,1,.6-1l.9-.6,1.1-.2.9.2.8.5-.5.7-.6-.4h-1.3a1,1,0,0,0-.6.5,1.6,1.6,0,0,0-.4.7,4.1,4.1,0,0,0,0,1.8,1.6,1.6,0,0,0,.4.7,1.2,1.2,0,0,0,.5.5h1.5l.6-.4.5.6-.9.6Z"/><path class="cls-15" d="M483.4,224v-8.5h1V219l.9-.7a1.7,1.7,0,0,1,1-.3,1.6,1.6,0,0,1,1.4.6,2.9,2.9,0,0,1,.4,1.7V224h-1v-3.6a2.7,2.7,0,0,0-.2-1.1,1,1,0,0,0-.9-.4l-.8.2-.8.7V224Z"/><path class="cls-15" d="M491.8,224.2l-.8-.2a1,1,0,0,1-.5-.4l-.3-.6c0-.2-.1-.5-.1-.8V219h-.8v-.8h.9v-1.7h.8v1.7h1.6v.8h-1.6v3.2a2,2,0,0,0,.2.9.9.9,0,0,0,.7.3h.7l.2.7-.5.2Z"/><path class="cls-15" d="M496.2,224.2a2.3,2.3,0,0,1-1.1-.3l-.9-.6-.6-.9a5.1,5.1,0,0,1-.2-1.3,2.8,2.8,0,0,1,.3-1.3,1.9,1.9,0,0,1,.5-.9l.9-.7.9-.2,1,.2a2.4,2.4,0,0,1,.8.6,2,2,0,0,1,.4.8,5,5,0,0,1,.2,1.2v.3c0,.1,0,.2-.1.2h-3.9a1.8,1.8,0,0,0,.6,1.5,1.6,1.6,0,0,0,1.3.6l.8-.2a1.5,1.5,0,0,0,.7-.3l.3.7-.8.4Zm-1.8-3.6h3.1a1.7,1.7,0,0,0-.4-1.3,1.2,1.2,0,0,0-1-.5h-.6a1,1,0,0,0-.5.4.9.9,0,0,0-.4.6A1.4,1.4,0,0,0,494.4,220.6Z"/><path class="cls-15" d="M500.3,219.8a.6.6,0,0,1-.5-.2.8.8,0,0,1-.2-.5,1.1,1.1,0,0,1,.2-.6l.5-.2.5.2c.2.2.2.3.2.6s0,.4-.2.5S500.5,219.8,500.3,219.8Zm0,4.4c-.2,0-.3-.1-.5-.3a.7.7,0,0,1,0-1c.2-.2.3-.3.5-.3a.5.5,0,0,1,.5.3c.2.1.2.3.2.5s0,.4-.2.5A.5.5,0,0,1,500.3,224.2Z"/><path class="cls-15" d="M505.2,226.2V221a2.7,2.7,0,0,1,.2-1.3,1.9,1.9,0,0,1,.5-.9,1.6,1.6,0,0,1,.8-.6l1-.2a2.4,2.4,0,0,1,1.9.8,3.8,3.8,0,0,1,.6,2.2,2.7,2.7,0,0,1-.2,1.3,2.3,2.3,0,0,1-.5,1,1.6,1.6,0,0,1-.8.6l-.9.3-.9-.2c-.3-.1-.5-.4-.8-.7v2.1c0,.3.1.5.1.8Zm2.5-2.9h.6l.5-.5.3-.7a3.1,3.1,0,0,0,.1-1,2.8,2.8,0,0,0-.1-.9,1.1,1.1,0,0,0-.2-.6c-.2-.2-.3-.4-.5-.5h-1.3a1,1,0,0,0-.5.4,1.6,1.6,0,0,0-.4.7,2.8,2.8,0,0,0-.1.9v1.5a1.7,1.7,0,0,0,.8.7Z"/><path class="cls-15" d="M513.6,219.1v-.7h5.2v.7Zm0,2.6V221h5.2v.7Z"/><path class="cls-15" d="M524.6,224.2l-1-.2-.8-.4a1.8,1.8,0,0,1-.5-.7,1.2,1.2,0,0,1-.2-.8,1.5,1.5,0,0,1,.1-.7l.3-.6.5-.5.5-.3h0l-.7-.7a1.3,1.3,0,0,1-.4-1,1.9,1.9,0,0,1,.2-.8,1,1,0,0,1,.5-.6c.1-.2.4-.3.6-.4l.9-.2.9.2.7.4.4.6a2.9,2.9,0,0,1,.2.9c0,.2-.1.3-.1.5l-.3.5-.3.5-.4.3h0l.5.4.4.4c.2.2.3.3.3.5a1.7,1.7,0,0,1,.1.7,1.9,1.9,0,0,1-.1.8l-.5.7-.8.4Zm0-.8a2,2,0,0,0,1.1-.3,1.3,1.3,0,0,0,.4-1,1.4,1.4,0,0,0-.2-.7c-.1-.1-.2-.3-.4-.4l-.7-.4-.8-.3-.7.7a1.7,1.7,0,0,0-.3,1,.7.7,0,0,0,.1.5l.3.5.5.3Zm.5-3.6a1.3,1.3,0,0,0,.6-.7,2.4,2.4,0,0,0,.2-.8,1.7,1.7,0,0,0-.3-1,1.8,1.8,0,0,0-1-.4,1.4,1.4,0,0,0-1.3,1.3,1.4,1.4,0,0,0,.2.6l.4.4.5.4Z"/><path class="cls-15" d="M528.3,226.1l-.2-.6.8-.6a1.6,1.6,0,0,0,.3-.9h-.1c-.2,0-.4,0-.5-.2s-.2-.2-.2-.5a.6.6,0,0,1,.2-.5l.5-.2a.7.7,0,0,1,.6.4,1.5,1.5,0,0,1,.2.8,2.3,2.3,0,0,1-.4,1.4Z"/><path class="cls-15" d="M533,224.2a2,2,0,0,1-1.1-.3l-.8-.5.6-.7a1,1,0,0,0,.6.5h1.4a1.3,1.3,0,0,0,.7-.6,5.1,5.1,0,0,0,.4-1,6.1,6.1,0,0,0,.2-1.5,3.1,3.1,0,0,1-.9.7l-.9.2a2.1,2.1,0,0,1-1.6-.6,2.1,2.1,0,0,1-.6-1.7,3,3,0,0,1,.2-1,2.2,2.2,0,0,1,.5-.8,1.8,1.8,0,0,1,.7-.5l.9-.2,1,.2a2.7,2.7,0,0,1,.8.7,2.3,2.3,0,0,1,.6,1.2,7,7,0,0,1,.2,1.6,11.2,11.2,0,0,1-.2,2,5.4,5.4,0,0,1-.7,1.3,2.8,2.8,0,0,1-.9.7A2.3,2.3,0,0,1,533,224.2Zm.3-3.9.9-.2.8-.8a3.4,3.4,0,0,0-.6-1.7,1.4,1.4,0,0,0-1.1-.6h-.6l-.4.4-.3.5c0,.2-.1.4-.1.7a1.6,1.6,0,0,0,.4,1.2A1.5,1.5,0,0,0,533.3,220.3Z"/><path class="cls-15" d="M539.3,224.2h-.8l-.7-.3-.6-.3-.4-.4.5-.7a2.7,2.7,0,0,0,.8.7l1.2.2a2,2,0,0,0,1.1-.3,1.4,1.4,0,0,0,.4-1.1,1.3,1.3,0,0,0-.1-.6l-.4-.5-.8-.3h-1.1v-.7l1-.2a.9.9,0,0,0,.7-.3l.4-.4c0-.2.1-.4.1-.6a1.8,1.8,0,0,0-.4-.9,1.3,1.3,0,0,0-1-.3l-.8.2-.8.6-.5-.6,1-.7a2.1,2.1,0,0,1,1.2-.3h.9l.7.4.5.6a2.4,2.4,0,0,1,.2.9,2.1,2.1,0,0,1-.4,1.1l-1,.7h0l.6.3.6.4.3.6a2.3,2.3,0,0,1-.1,1.6,1.8,1.8,0,0,1-.5.7l-.8.4Z"/><path class="cls-15" d="M547.7,224.2l-.8-.2a1,1,0,0,1-.5-.4.9.9,0,0,1-.3-.6,1.9,1.9,0,0,1-.1-.8V219h-.9v-.8h.9l.2-1.7h.8v1.7h1.6v.8H547v3.2a2,2,0,0,0,.2.9.8.8,0,0,0,.7.3h.7l.2.7-.6.2Z"/><path class="cls-15" d="M551.4,225.9l3.2-10.4h.7l-3.2,10.4Z"/><path class="cls-15" d="M556.5,224v-5.8h.8v.8h0l.9-.7a1.6,1.6,0,0,1,.9-.3,1.8,1.8,0,0,1,1.1.3,1.9,1.9,0,0,1,.5.9,4.1,4.1,0,0,1,1-.9,1.7,1.7,0,0,1,1-.3,1.5,1.5,0,0,1,1.3.6,2.9,2.9,0,0,1,.4,1.7V224h-.9v-3.6a1.6,1.6,0,0,0-.3-1.1.9.9,0,0,0-.8-.4,2,2,0,0,0-1.5.9V224h-1v-3.6a2.7,2.7,0,0,0-.2-1.1,1,1,0,0,0-.9-.4,2.1,2.1,0,0,0-1.4.9V224Z"/><path class="cls-15" d="M568.3,224.2h-.8l-.7-.3-.6-.3-.4-.4.5-.7a2.7,2.7,0,0,0,.8.7l1.1.2a2.1,2.1,0,0,0,1.2-.3,1.4,1.4,0,0,0,.4-1.1,1.3,1.3,0,0,0-.1-.6l-.4-.5-.8-.3h-1.1v-.7l1-.2a.9.9,0,0,0,.7-.3c.1-.1.3-.2.3-.4a1.3,1.3,0,0,0,.1-.6,1.6,1.6,0,0,0-.3-.9,1.7,1.7,0,0,0-1-.3l-.9.2-.7.6-.5-.6a3.1,3.1,0,0,1,.9-.7,2.7,2.7,0,0,1,1.2-.3h1l.7.4.5.6a2.5,2.5,0,0,1,.1.9,2,2,0,0,1-.3,1.1l-1,.7h0l.6.3a1,1,0,0,1,.5.4.9.9,0,0,1,.4.6,1.5,1.5,0,0,1,.1.7,2.9,2.9,0,0,1-.2.9,1.8,1.8,0,0,1-.5.7l-.8.4Z"/><path class="cls-16" d="M467.6,272.4v-5.1a5.9,5.9,0,0,1,.2-1.4,2.4,2.4,0,0,1,.6-.9l.8-.6h1a1.9,1.9,0,0,1,1.8.8,2.8,2.8,0,0,1,.7,2.1,5.9,5.9,0,0,1-.2,1.4,3.3,3.3,0,0,1-.6,1l-.7.6-.9.2-.9-.2a2.4,2.4,0,0,1-.9-.6v.7a1.5,1.5,0,0,1,.1.7v1.4Zm2.5-2.8.6-.2a1.2,1.2,0,0,0,.5-.5.9.9,0,0,0,.3-.7,3,3,0,0,0,.2-1c0-.3-.1-.6-.1-.8l-.3-.7-.5-.5h-1.3l-.5.4-.3.7a3,3,0,0,0-.2,1v1.5l.8.6Z"/><path class="cls-16" d="M476.1,265.4v-.8h5.1v.8Zm0,2.5v-.7h5.1v.7Z"/><path class="cls-16" d="M487,270.4l-1-.2a2,2,0,0,1-.8-.4,1.8,1.8,0,0,1-.5-.7,1.9,1.9,0,0,1-.2-.8,1.5,1.5,0,0,1,.1-.7,2.1,2.1,0,0,1,.4-.6.8.8,0,0,1,.4-.4l.5-.4h0l-.7-.8a1.5,1.5,0,0,1-.3-1,1.9,1.9,0,0,1,.1-.8l.5-.6.7-.4.8-.2.9.2.7.4a1.8,1.8,0,0,1,.5.7,1.9,1.9,0,0,1,.1.8,1.3,1.3,0,0,1-.1.6c-.1.1-.1.3-.2.5l-.4.4-.3.3h0l.4.3.5.4.3.6c0,.2.1.4.1.6a1.9,1.9,0,0,1-.2.8,1.8,1.8,0,0,1-.5.7,2,2,0,0,1-.8.4Zm0-.8a1.8,1.8,0,0,0,1.1-.3,1.3,1.3,0,0,0,.4-1c0-.2,0-.5-.1-.6a1.2,1.2,0,0,0-.5-.5l-.7-.4-.7-.3-.8.7a1.7,1.7,0,0,0-.3,1,1.3,1.3,0,0,0,.1.6c.1.1.2.3.4.4a.5.5,0,0,0,.5.3Zm.6-3.5a3.5,3.5,0,0,0,.5-.8,1.1,1.1,0,0,0,.3-.8,1.3,1.3,0,0,0-.4-.9,1.2,1.2,0,0,0-1-.4,1.6,1.6,0,0,0-.9.3,1.2,1.2,0,0,0-.3.9,1.3,1.3,0,0,0,.1.6l.4.4.6.4Z"/><path class="cls-16" d="M490.8,272.3l-.3-.6a1.8,1.8,0,0,0,.8-.6,1.4,1.4,0,0,0,.3-.9H491a.8.8,0,0,1-.2-.5.6.6,0,0,1,.2-.5.6.6,0,0,1,.5-.2.6.6,0,0,1,.6.3,1.1,1.1,0,0,1,.3.8,2.2,2.2,0,0,1-.5,1.4A2,2,0,0,1,490.8,272.3Z"/><path class="cls-16" d="M495.4,270.4l-1.1-.2-.7-.6.5-.6.6.4.7.2.8-.2a1.7,1.7,0,0,0,.6-.6,2.3,2.3,0,0,0,.4-1,6.1,6.1,0,0,0,.2-1.5,2.7,2.7,0,0,1-.8.7,1.9,1.9,0,0,1-1,.3,2.3,2.3,0,0,1-1.6-.6,2.4,2.4,0,0,1-.6-1.8,3,3,0,0,1,.2-1,2.2,2.2,0,0,1,.5-.8l.7-.5.9-.2a1.7,1.7,0,0,1,1,.3,1.3,1.3,0,0,1,.9.7,2.8,2.8,0,0,1,.5,1.1,4.1,4.1,0,0,1,.2,1.6,6.2,6.2,0,0,1-.2,2,8.1,8.1,0,0,1-.6,1.3,2.3,2.3,0,0,1-1,.7A2,2,0,0,1,495.4,270.4Zm.4-3.9.8-.2a3,3,0,0,0,.8-.8,3.4,3.4,0,0,0-.5-1.7,1.4,1.4,0,0,0-1.2-.6h-.5a.8.8,0,0,0-.4.4.5.5,0,0,0-.3.5,1.5,1.5,0,0,0-.1.7,2.1,2.1,0,0,0,.3,1.2A1.2,1.2,0,0,0,495.8,266.5Z"/><path class="cls-16" d="M501.8,270.4h-.9l-.7-.2-.5-.4-.5-.4.5-.6.9.6a1.8,1.8,0,0,0,1.1.3,1.8,1.8,0,0,0,1.1-.4,1.4,1.4,0,0,0,.5-1c0-.3-.1-.5-.1-.7l-.5-.4c-.1-.2-.4-.3-.7-.4h-1.2v-.7h1.1l.6-.3.4-.5a.9.9,0,0,0,.1-.5,1.2,1.2,0,0,0-.3-.9,1.3,1.3,0,0,0-1-.4,1.6,1.6,0,0,0-.9.3,1.8,1.8,0,0,0-.7.5l-.6-.6,1-.7a2.7,2.7,0,0,1,1.2-.3l.9.2.8.3a1.6,1.6,0,0,1,.4.7,1.1,1.1,0,0,1,.2.8,1.5,1.5,0,0,1-.4,1.1,2.6,2.6,0,0,1-1,.7h0l.7.2.5.4.4.6c0,.2.1.4.1.7a2.9,2.9,0,0,1-.2.9,2,2,0,0,1-.6.7,2,2,0,0,1-.8.4Z"/><path class="cls-16" d="M508.3,270.2v-8.5h.9v5.8h.1l2.5-3.1h1.1l-2,2.3,2.2,3.5H512l-1.7-2.8-1.1,1.3v1.5Z"/><path class="cls-16" d="M516.1,272.9h-1a1.1,1.1,0,0,1-.8-.3l-.5-.5a1.3,1.3,0,0,1-.1-.6,1.2,1.2,0,0,1,.2-.8,1.7,1.7,0,0,1,.6-.6h0l-.4-.4c-.1-.1-.1-.3-.1-.6a1.4,1.4,0,0,1,.2-.6c.1-.2.3-.3.4-.4h0l-.5-.6a1.6,1.6,0,0,1-.2-1,1.9,1.9,0,0,1,.1-.8l.5-.7.7-.4h3.7v.8h-1.2a1,1,0,0,1,.4.5,1.5,1.5,0,0,1,.1.7,1.9,1.9,0,0,1-.2.8.9.9,0,0,1-.4.6l-.7.4-.8.2h-.9l-.3.3c0,.1-.1.2-.1.4a.5.5,0,0,0,.2.4c.2.2.4.2.8.2H517a2.8,2.8,0,0,1,1.5.3,1.4,1.4,0,0,1,.5,1.1,2.4,2.4,0,0,1-.2.8,1.7,1.7,0,0,1-.6.6,1.9,1.9,0,0,1-.9.5Zm.1-.7h.8l.6-.2.3-.4.2-.4a.6.6,0,0,0-.3-.6l-.9-.2h-1.8l-.4.5-.2.5a1,1,0,0,0,.5.8Zm-.1-4.5h.4a.5.5,0,0,0,.4-.2l.3-.5a1.1,1.1,0,0,0,.1-.6,1.3,1.3,0,0,0-.4-1,1.1,1.1,0,0,0-.8-.3,1.2,1.2,0,0,0-.9.3,1.3,1.3,0,0,0-.4,1c0,.3.1.4.1.6l.3.5a.5.5,0,0,0,.4.2Z"/><path class="cls-16" d="M519.9,272.2l3.2-10.5h.7l-3.2,10.5Z"/><path class="cls-16" d="M526.5,270.4a2.1,2.1,0,0,1-1.7-.8,3.2,3.2,0,0,1-.7-2.3,4.3,4.3,0,0,1,.2-1.2l.6-1a1.6,1.6,0,0,1,.8-.6,1.6,1.6,0,0,1,1-.2h.8l.8.5v-3.2h1v8.5h-.8v-.6h0l-.8.5A1.7,1.7,0,0,1,526.5,270.4Zm.3-.8.7-.2.7-.7v-3a1.8,1.8,0,0,0-.7-.5h-.7a.7.7,0,0,0-.6.2l-.6.4-.3.7a2.9,2.9,0,0,0-.2.9,2.9,2.9,0,0,0,.5,1.7A1.2,1.2,0,0,0,526.8,269.6Z"/><path class="cls-16" d="M531.2,270.2v-5.8h.8v.8h0l.9-.7,1-.2a1.5,1.5,0,0,1,1,.3,1.7,1.7,0,0,1,.6.8,3.2,3.2,0,0,1,.9-.8,1.7,1.7,0,0,1,1-.3,1.7,1.7,0,0,1,1.3.5,2.9,2.9,0,0,1,.5,1.7v3.7h-1v-3.5a1.7,1.7,0,0,0-.3-1.2.8.8,0,0,0-.8-.4,2.5,2.5,0,0,0-1.5.9v4.2h-1v-3.5c0-.6,0-1-.2-1.2a.9.9,0,0,0-.8-.4,2,2,0,0,0-1.5.9v4.2Z"/><path class="cls-16" d="M543,270.4h-.8l-.7-.2-.6-.4-.4-.4.5-.6.8.6a2,2,0,0,0,1.1.3,2.1,2.1,0,0,0,1.2-.4,1.3,1.3,0,0,0,.4-1,1.5,1.5,0,0,0-.1-.7c-.1-.1-.2-.3-.4-.4a2,2,0,0,0-.8-.4h-1.1v-.7h1l.7-.3c.1-.2.3-.3.3-.5a.9.9,0,0,0,.1-.5,1.2,1.2,0,0,0-.3-.9,1.2,1.2,0,0,0-1-.4,1.6,1.6,0,0,0-.9.3l-.7.5-.5-.6.9-.7a2.8,2.8,0,0,1,1.3-.3l.9.2.7.3a1.8,1.8,0,0,1,.5.7,1.9,1.9,0,0,1,.2.8,2.1,2.1,0,0,1-.4,1.1l-1,.7h0l.6.2a1,1,0,0,1,.5.4,2.1,2.1,0,0,1,.4.6,2.3,2.3,0,0,1-.1,1.6,1.8,1.8,0,0,1-.5.7,2,2,0,0,1-.8.4Z"/><path class="cls-17" d="M467.6,321.4v-5.1a5.9,5.9,0,0,1,.2-1.4,2.4,2.4,0,0,1,.6-.9l.8-.6h1a1.9,1.9,0,0,1,1.8.8,2.8,2.8,0,0,1,.7,2.1,5.9,5.9,0,0,1-.2,1.4,3.3,3.3,0,0,1-.6,1l-.7.6-.9.2-.9-.2a2.4,2.4,0,0,1-.9-.6v.7a1.5,1.5,0,0,1,.1.7v1.4Zm2.5-2.8.6-.2a1.2,1.2,0,0,0,.5-.5.9.9,0,0,0,.3-.7,3,3,0,0,0,.2-1c0-.3-.1-.6-.1-.8l-.3-.7-.5-.5h-1.3l-.5.4-.3.7a3,3,0,0,0-.2,1v1.5l.8.6Z"/><path class="cls-17" d="M476.1,314.4v-.8h5.1v.8Zm0,2.5v-.7h5.1v.7Z"/><path class="cls-17" d="M487,319.4l-1-.2a2,2,0,0,1-.8-.4,1.8,1.8,0,0,1-.5-.7,1.9,1.9,0,0,1-.2-.8,1.5,1.5,0,0,1,.1-.7,2.1,2.1,0,0,1,.4-.6.8.8,0,0,1,.4-.4l.5-.4h0l-.7-.8a1.5,1.5,0,0,1-.3-1,1.9,1.9,0,0,1,.1-.8l.5-.6.7-.4.8-.2.9.2.7.4a1.8,1.8,0,0,1,.5.7,1.9,1.9,0,0,1,.1.8,1.3,1.3,0,0,1-.1.6c-.1.1-.1.3-.2.5l-.4.4-.3.3h0l.4.3.5.4.3.6c0,.2.1.4.1.6a1.9,1.9,0,0,1-.2.8,1.8,1.8,0,0,1-.5.7,2,2,0,0,1-.8.4Zm0-.8a1.8,1.8,0,0,0,1.1-.3,1.3,1.3,0,0,0,.4-1c0-.2,0-.5-.1-.6a1.2,1.2,0,0,0-.5-.5l-.7-.4-.7-.3-.8.7a1.7,1.7,0,0,0-.3,1,1.3,1.3,0,0,0,.1.6c.1.1.2.3.4.4a.5.5,0,0,0,.5.3Zm.6-3.5a3.5,3.5,0,0,0,.5-.8,1.1,1.1,0,0,0,.3-.8,1.3,1.3,0,0,0-.4-.9,1.2,1.2,0,0,0-1-.4,1.6,1.6,0,0,0-.9.3,1.2,1.2,0,0,0-.3.9,1.3,1.3,0,0,0,.1.6l.4.4.6.4Z"/><path class="cls-17" d="M490.8,321.3l-.3-.6a1.8,1.8,0,0,0,.8-.6,1.4,1.4,0,0,0,.3-.9H491a.8.8,0,0,1-.2-.5.6.6,0,0,1,.2-.5.6.6,0,0,1,.5-.2.6.6,0,0,1,.6.3,1.1,1.1,0,0,1,.3.8,2.2,2.2,0,0,1-.5,1.4A2,2,0,0,1,490.8,321.3Z"/><path class="cls-17" d="M495.4,319.4l-1.1-.2-.7-.6.5-.6.6.4.7.2.8-.2a1.7,1.7,0,0,0,.6-.6,2.3,2.3,0,0,0,.4-1,6.1,6.1,0,0,0,.2-1.5,2.7,2.7,0,0,1-.8.7,1.9,1.9,0,0,1-1,.3,2.3,2.3,0,0,1-1.6-.6,2.4,2.4,0,0,1-.6-1.8,3,3,0,0,1,.2-1,2.2,2.2,0,0,1,.5-.8l.7-.5.9-.2a1.7,1.7,0,0,1,1,.3,1.3,1.3,0,0,1,.9.7,2.8,2.8,0,0,1,.5,1.1,4.1,4.1,0,0,1,.2,1.6,6.2,6.2,0,0,1-.2,2,8.1,8.1,0,0,1-.6,1.3,2.3,2.3,0,0,1-1,.7A2,2,0,0,1,495.4,319.4Zm.4-3.9.8-.2a3,3,0,0,0,.8-.8,3.4,3.4,0,0,0-.5-1.7,1.4,1.4,0,0,0-1.2-.6h-.5a.8.8,0,0,0-.4.4.5.5,0,0,0-.3.5,1.5,1.5,0,0,0-.1.7,2.1,2.1,0,0,0,.3,1.2A1.2,1.2,0,0,0,495.8,315.5Z"/><path class="cls-17" d="M501.8,319.4h-.9l-.7-.2-.5-.4-.5-.4.5-.6.9.6a1.8,1.8,0,0,0,1.1.3,1.8,1.8,0,0,0,1.1-.4,1.4,1.4,0,0,0,.5-1c0-.3-.1-.5-.1-.7l-.5-.4c-.1-.2-.4-.3-.7-.4h-1.2v-.7h1.1l.6-.3.4-.5a.9.9,0,0,0,.1-.5,1.2,1.2,0,0,0-.3-.9,1.3,1.3,0,0,0-1-.4,1.6,1.6,0,0,0-.9.3,1.8,1.8,0,0,0-.7.5l-.6-.6,1-.7a2.7,2.7,0,0,1,1.2-.3l.9.2.8.3a1.6,1.6,0,0,1,.4.7,1.1,1.1,0,0,1,.2.8,1.5,1.5,0,0,1-.4,1.1,2.6,2.6,0,0,1-1,.7h0l.7.2.5.4.4.6c0,.2.1.4.1.7a2.9,2.9,0,0,1-.2.9,2,2,0,0,1-.6.7,2,2,0,0,1-.8.4Z"/><path class="cls-17" d="M510.2,321.9h-.9a1.1,1.1,0,0,1-.8-.3l-.5-.5a1.4,1.4,0,0,1-.2-.6,1.3,1.3,0,0,1,.3-.8,1.7,1.7,0,0,1,.6-.6h0a.8.8,0,0,1-.4-.4c-.1-.1-.1-.3-.1-.6a.7.7,0,0,1,.2-.6l.4-.4h0l-.5-.6a1.7,1.7,0,0,1-.3-1,1.9,1.9,0,0,1,.2-.8,1.8,1.8,0,0,1,.5-.7l.7-.4h3.7v.8h-1.2l.3.5a1.4,1.4,0,0,1,.2.7,1.9,1.9,0,0,1-.2.8,1.5,1.5,0,0,1-.4.6l-.7.4-.9.2h-.8l-.3.3c-.1.1-.1.2-.1.4a.5.5,0,0,0,.2.4c.2.2.4.2.8.2h1.2a3.3,3.3,0,0,1,1.5.3,1.4,1.4,0,0,1,.5,1.1,2.4,2.4,0,0,1-.2.8,1.7,1.7,0,0,1-.6.6l-.9.5Zm.2-.7h.7a.8.8,0,0,0,.6-.2l.4-.4a.8.8,0,0,0-.2-1l-.8-.2h-1.8c-.2.2-.4.3-.5.5a1.1,1.1,0,0,0-.1.5.9.9,0,0,0,.4.8Zm-.2-4.5h.5a.5.5,0,0,0,.4-.2l.3-.5c0-.2.1-.3.1-.6a1.3,1.3,0,0,0-.4-1,1.2,1.2,0,0,0-.9-.3,1.1,1.1,0,0,0-.8.3,1.3,1.3,0,0,0-.4,1,1.1,1.1,0,0,0,.1.6l.3.5a.5.5,0,0,0,.4.2Z"/><path class="cls-17" d="M514,321.2l3.2-10.5h.8l-3.2,10.5Z"/><path class="cls-17" d="M521,319.4l-1-.2-.9-.6a2.1,2.1,0,0,1-.6-1,4.3,4.3,0,0,1,0-2.6,7,7,0,0,1,.6-.9,2.4,2.4,0,0,1,.9-.6,2.2,2.2,0,0,1,1.1-.2,1.6,1.6,0,0,1,1,.2l.7.4-.5.7-.5-.4h-1.4l-.6.5a1.5,1.5,0,0,0-.3.7,2.9,2.9,0,0,0-.2.9c0,.4.1.7.1.9a2.1,2.1,0,0,0,.4.7l.6.5.7.2.8-.2.6-.4.4.6a1.5,1.5,0,0,1-.9.6Z"/><path class="cls-17" d="M524.2,319.2v-5.8h.8v.8h0l.9-.7.9-.2a1.8,1.8,0,0,1,1.1.3,2.8,2.8,0,0,1,.6.8,3.2,3.2,0,0,1,.9-.8,1.7,1.7,0,0,1,1-.3,1.7,1.7,0,0,1,1.3.5,2.9,2.9,0,0,1,.5,1.7v3.7h-1v-3.5a1.7,1.7,0,0,0-.3-1.2.8.8,0,0,0-.8-.4c-.5,0-.9.3-1.5.9v4.2h-1v-3.5c0-.6,0-1-.2-1.2a1,1,0,0,0-.9-.4,2.1,2.1,0,0,0-1.4.9v4.2Z"/><path class="cls-17" d="M536,319.4h-.8l-.7-.2-.6-.4-.4-.4.5-.6.8.6a2,2,0,0,0,1.1.3,2.1,2.1,0,0,0,1.2-.4,1.3,1.3,0,0,0,.4-1,1.5,1.5,0,0,0-.1-.7c-.1-.1-.2-.3-.4-.4a2,2,0,0,0-.8-.4h-1.1v-.7h1l.7-.3c.1-.2.3-.3.3-.5a.9.9,0,0,0,.1-.5,1.2,1.2,0,0,0-.3-.9,1.2,1.2,0,0,0-1-.4,1.6,1.6,0,0,0-.9.3l-.7.5-.5-.6.9-.7a2.8,2.8,0,0,1,1.3-.3l.9.2.7.3a1.8,1.8,0,0,1,.5.7,1.9,1.9,0,0,1,.1.8,2,2,0,0,1-.3,1.1l-1,.7h0l.6.2a1,1,0,0,1,.5.4,2.1,2.1,0,0,1,.4.6,1.5,1.5,0,0,1,.1.7,2.9,2.9,0,0,1-.2.9,1.8,1.8,0,0,1-.5.7l-.8.4Z"/><path class="cls-17" d="M2,382.3a1.1,1.1,0,0,1-.8-.3,2.5,2.5,0,0,1-.2-1v-7.4H2v7.5c0,.1,0,.3.1.3a.1.1,0,0,0,.1.1h.3v.7H2Z"/><path class="cls-17" d="M5.9,377.3v-.7H11v.7Zm0,2.6v-.8H11v.8Z"/><path class="cls-17" d="M14.3,382.2v-.6l1.5-1.6a7.1,7.1,0,0,0,1.2-1.3,6.1,6.1,0,0,0,.7-1,4.4,4.4,0,0,0,.2-1,1.4,1.4,0,0,0-.4-1.1,1.2,1.2,0,0,0-1-.4,1.2,1.2,0,0,0-.9.3,2.4,2.4,0,0,0-.8.6l-.5-.6a3.9,3.9,0,0,1,1-.8,2.5,2.5,0,0,1,1.3-.3,2.5,2.5,0,0,1,1.7.6,2.3,2.3,0,0,1,.6,1.6,2,2,0,0,1-.3,1.1,3.4,3.4,0,0,1-.6,1.2l-1,1.2-1.3,1.3h3.5v.9Z"/><path class="cls-17" d="M22.8,382.3a1.9,1.9,0,0,1-1.8-1,5.1,5.1,0,0,1-.7-3,4.8,4.8,0,0,1,.7-2.9,1.9,1.9,0,0,1,1.8-1,2.1,2.1,0,0,1,1.8,1,5.7,5.7,0,0,1,.6,2.9,6.1,6.1,0,0,1-.6,3A2.1,2.1,0,0,1,22.8,382.3Zm0-.8h.6a2.1,2.1,0,0,0,.4-.6,3,3,0,0,0,.4-1c0-.4.1-.9.1-1.5s-.1-1-.1-1.4a3,3,0,0,0-.4-1,1,1,0,0,0-.4-.5.7.7,0,0,0-.6-.2c-.2,0-.5,0-.6.2l-.5.5-.3,1a6.1,6.1,0,0,0-.1,1.4,5.1,5.1,0,0,0,.4,2.5A1.2,1.2,0,0,0,22.8,381.5Z"/><path class="cls-17" d="M29.1,382.2v-5.8H30v.8h.1a2.7,2.7,0,0,1,.8-.7,1.7,1.7,0,0,1,1-.3,1.5,1.5,0,0,1,1,.3,1.6,1.6,0,0,1,.6.8l.9-.8a1.9,1.9,0,0,1,1-.3,1.4,1.4,0,0,1,1.3.6,2.6,2.6,0,0,1,.5,1.7v3.7h-1v-3.6a2.1,2.1,0,0,0-.3-1.2c-.1-.2-.4-.3-.8-.3a2.1,2.1,0,0,0-1.4.9v4.2h-1v-3.6a2.1,2.1,0,0,0-.3-1.2,1,1,0,0,0-.8-.3c-.5,0-.9.3-1.5.9v4.2Z"/><path class="cls-17" d="M39.1,382.2v-5.8h.8v.8h0l.9-.7a1.6,1.6,0,0,1,.9-.3,1.8,1.8,0,0,1,1.1.3,2.2,2.2,0,0,1,.5.8,3.9,3.9,0,0,1,1-.8,1.7,1.7,0,0,1,1-.3,1.5,1.5,0,0,1,1.3.6,2.7,2.7,0,0,1,.4,1.7v3.7h-.9v-3.6a2.1,2.1,0,0,0-.3-1.2,1.1,1.1,0,0,0-.8-.3,2,2,0,0,0-1.5.9v4.2h-1v-3.6a3.7,3.7,0,0,0-.2-1.2,1.2,1.2,0,0,0-.9-.3,2.1,2.1,0,0,0-1.4.9v4.2Z"/><path class="cls-16" d="M2,402.7a1.1,1.1,0,0,1-.8-.3,3,3,0,0,1-.2-1V394H2v7.5a.4.4,0,0,0,.1.3h.4v.7H2Z"/><path class="cls-16" d="M5.9,397.7v-.8H11v.8Zm0,2.5v-.7H11v.7Z"/><path class="cls-16" d="M16.7,402.7h-.9l-.7-.2a1,1,0,0,1-.5-.4l-.5-.4.5-.6.9.6a1.8,1.8,0,0,0,1.1.3,1.4,1.4,0,0,0,1.1-.4,1.2,1.2,0,0,0,.5-1c0-.2-.1-.4-.1-.6l-.5-.5a.9.9,0,0,0-.7-.3H15.7v-.8h1.1l.6-.3a1,1,0,0,0,.4-.5.7.7,0,0,0,.1-.5,1,1,0,0,0-.4-.9,1.2,1.2,0,0,0-.9-.3,1.5,1.5,0,0,0-.9.2,1.8,1.8,0,0,0-.7.5l-.6-.6,1-.7,1.2-.2h.9l.8.4a.9.9,0,0,1,.4.6,1.1,1.1,0,0,1,.2.8,1.2,1.2,0,0,1-.4,1.1,1.8,1.8,0,0,1-1,.7h0l.7.2.5.4c.1.2.3.4.3.6a1.9,1.9,0,0,1,.2.7,2,2,0,0,1-.2.9,2,2,0,0,1-.6.7l-.8.5Z"/><path class="cls-16" d="M22.8,402.7a1.9,1.9,0,0,1-1.8-1,5.1,5.1,0,0,1-.7-3,4.6,4.6,0,0,1,.7-2.9,1.9,1.9,0,0,1,1.8-1,2.1,2.1,0,0,1,1.8,1,5.5,5.5,0,0,1,.6,2.9,6.1,6.1,0,0,1-.6,3A2.1,2.1,0,0,1,22.8,402.7Zm0-.8a.7.7,0,0,0,.6-.2,1,1,0,0,0,.4-.5,3,3,0,0,0,.4-1c0-.4.1-.9.1-1.5s-.1-1-.1-1.4a2.3,2.3,0,0,0-.4-1,1.3,1.3,0,0,0-.4-.6H22.2c-.2.2-.4.3-.5.6a6.2,6.2,0,0,0-.3,1,6.1,6.1,0,0,0-.1,1.4,5.7,5.7,0,0,0,.4,2.5A1.2,1.2,0,0,0,22.8,401.9Z"/><path class="cls-16" d="M29.1,402.6v-5.9H30v.9h.1a2.7,2.7,0,0,1,.8-.7,1.7,1.7,0,0,1,1-.3,1.5,1.5,0,0,1,1,.3,1.6,1.6,0,0,1,.6.8l.9-.8a1.9,1.9,0,0,1,1-.3,1.4,1.4,0,0,1,1.3.6,2.5,2.5,0,0,1,.5,1.7v3.7h-1V399a1.9,1.9,0,0,0-.3-1.2.9.9,0,0,0-.8-.4,2.1,2.1,0,0,0-1.4.9v4.3h-1V399a1.9,1.9,0,0,0-.3-1.2,1,1,0,0,0-.8-.4c-.5,0-.9.3-1.5.9v4.3Z"/><path class="cls-16" d="M39.1,402.6v-5.9h.8v.9h0l.9-.7a1.6,1.6,0,0,1,.9-.3,1.8,1.8,0,0,1,1.1.3,2.2,2.2,0,0,1,.5.8,3.9,3.9,0,0,1,1-.8,1.7,1.7,0,0,1,1-.3,1.5,1.5,0,0,1,1.3.6,2.5,2.5,0,0,1,.4,1.7v3.7h-.9V399a1.9,1.9,0,0,0-.3-1.2,1.2,1.2,0,0,0-.8-.4,2,2,0,0,0-1.5.9v4.3h-1V399a3.3,3.3,0,0,0-.2-1.2,1.3,1.3,0,0,0-.9-.4,2.1,2.1,0,0,0-1.4.9v4.3Z"/><path class="cls-15" d="M2,421.3a1.1,1.1,0,0,1-.8-.3,2.5,2.5,0,0,1-.2-1v-7.4H2v7.5c0,.1,0,.3.1.3a.1.1,0,0,0,.1.1h.3v.7H2Z"/><path class="cls-15" d="M5.9,416.3v-.7H11v.7Zm0,2.6v-.8H11v.8Z"/><path class="cls-15" d="M17,421.3a1.8,1.8,0,0,1-1-.2,2.7,2.7,0,0,1-.8-.7,2.4,2.4,0,0,1-.6-1.1,7.9,7.9,0,0,1-.2-1.7,10.1,10.1,0,0,1,.2-1.9,3.2,3.2,0,0,1,.7-1.3,3.2,3.2,0,0,1,.9-.8l1.1-.2,1.1.2.8.6-.6.6a.9.9,0,0,0-.6-.4l-.6-.2-.8.2a1.5,1.5,0,0,0-.6.5,3.1,3.1,0,0,0-.5,1,7,7,0,0,0-.2,1.6,2.8,2.8,0,0,1,.9-.7,1.6,1.6,0,0,1,.9-.3,2.1,2.1,0,0,1,1.6.6,2.4,2.4,0,0,1,.6,1.8,3.6,3.6,0,0,1-.2,1,1.8,1.8,0,0,1-.5.7,1.2,1.2,0,0,1-.7.5A1.3,1.3,0,0,1,17,421.3Zm0-.7.6-.2.4-.3.3-.5c0-.2.1-.5.1-.7a1.6,1.6,0,0,0-.4-1.2,1.2,1.2,0,0,0-1-.4,1.1,1.1,0,0,0-.8.2,1.5,1.5,0,0,0-.8.8,2.9,2.9,0,0,0,.5,1.7A1.4,1.4,0,0,0,17,420.6Z"/><path class="cls-15" d="M22.8,421.3a1.9,1.9,0,0,1-1.8-1,5.1,5.1,0,0,1-.7-3,4.8,4.8,0,0,1,.7-2.9,1.9,1.9,0,0,1,1.8-1,2.1,2.1,0,0,1,1.8,1,5.7,5.7,0,0,1,.6,2.9,6.1,6.1,0,0,1-.6,3A2.1,2.1,0,0,1,22.8,421.3Zm0-.8h.6a2.1,2.1,0,0,0,.4-.6,3,3,0,0,0,.4-1c0-.4.1-.9.1-1.5s-.1-1-.1-1.4a3,3,0,0,0-.4-1,1,1,0,0,0-.4-.5.7.7,0,0,0-.6-.2c-.2,0-.5,0-.6.2l-.5.5-.3,1a6.1,6.1,0,0,0-.1,1.4,5.1,5.1,0,0,0,.4,2.5A1.2,1.2,0,0,0,22.8,420.5Z"/><path class="cls-15" d="M29.1,421.2v-5.8H30v.8h.1a2.7,2.7,0,0,1,.8-.7,1.7,1.7,0,0,1,1-.3,1.5,1.5,0,0,1,1,.3,1.6,1.6,0,0,1,.6.8l.9-.8a1.9,1.9,0,0,1,1-.3,1.4,1.4,0,0,1,1.3.6,2.6,2.6,0,0,1,.5,1.7v3.7h-1v-3.6a2.1,2.1,0,0,0-.3-1.2c-.1-.2-.4-.3-.8-.3a2.1,2.1,0,0,0-1.4.9v4.2h-1v-3.6a2.1,2.1,0,0,0-.3-1.2,1,1,0,0,0-.8-.3c-.5,0-.9.3-1.5.9v4.2Z"/><path class="cls-15" d="M39.1,421.2v-5.8h.8v.8h0l.9-.7a1.6,1.6,0,0,1,.9-.3,1.8,1.8,0,0,1,1.1.3,2.2,2.2,0,0,1,.5.8,3.9,3.9,0,0,1,1-.8,1.7,1.7,0,0,1,1-.3,1.5,1.5,0,0,1,1.3.6,2.7,2.7,0,0,1,.4,1.7v3.7h-.9v-3.6a2.1,2.1,0,0,0-.3-1.2,1.1,1.1,0,0,0-.8-.3,2,2,0,0,0-1.5.9v4.2h-1v-3.6a3.7,3.7,0,0,0-.2-1.2,1.2,1.2,0,0,0-.9-.3,2.1,2.1,0,0,0-1.4.9v4.2Z"/><path class="cls-15" d="M175.9,16.6V3.6h2.9V8.9h.1l3.9-5.3H186l-3.9,5.2,4.6,7.8h-3.2l-3.2-5.5-1.5,2v3.5Z"/><path class="cls-15" d="M190.7,16.8a2.7,2.7,0,0,1-2.4-1,5.1,5.1,0,0,1-.7-3V6.7h2.9v5.8a2.2,2.2,0,0,0,.3,1.4,1.1,1.1,0,0,0,1,.4,1.3,1.3,0,0,0,.9-.2,3.6,3.6,0,0,0,.8-.9V6.7h3v9.9h-2.4l-.2-1.4h-.1a5.3,5.3,0,0,1-1.4,1.2A3.1,3.1,0,0,1,190.7,16.8Z"/><path class="cls-15" d="M199.1,20.3V6.7h2.4l.2,1h0a5.1,5.1,0,0,1,1.3-.9,3.4,3.4,0,0,1,3.2,0,2.9,2.9,0,0,1,1.2,1,8,8,0,0,1,.8,1.6,12.5,12.5,0,0,1,.2,2.1,8.5,8.5,0,0,1-.3,2.3,6.2,6.2,0,0,1-1,1.6,4.5,4.5,0,0,1-1.3,1.1,4,4,0,0,1-1.5.3,2.7,2.7,0,0,1-1.3-.2l-1.1-.8v4.5Zm4.5-5.9a1.8,1.8,0,0,0,1.3-.6,4.6,4.6,0,0,0,.5-2.3c0-1.8-.6-2.7-1.7-2.7a2.4,2.4,0,0,0-1.7.9v4.1l.8.5Z"/><path class="cls-15" d="M210.9,16.6V9h-1.3V6.8h1.3V6.2a6.1,6.1,0,0,1,.2-1.5,2.3,2.3,0,0,1,.6-1.2,2.7,2.7,0,0,1,1.2-.9,4,4,0,0,1,1.7-.3l1.1.2.9.2L216,4.9a2,2,0,0,0-1-.2,1,1,0,0,0-.8.3,1.6,1.6,0,0,0-.3,1.1v.6h1.7V9h-1.7v7.6Z"/><path class="cls-15" d="M221.5,16.8a6.4,6.4,0,0,1-2-.3,4.4,4.4,0,0,1-1.6-1,5,5,0,0,1-1.1-1.7,6.9,6.9,0,0,1-.3-2.2,4.6,4.6,0,0,1,.4-2.1,4.8,4.8,0,0,1,1-1.7,4,4,0,0,1,1.5-1,5.3,5.3,0,0,1,1.7-.4,5.3,5.3,0,0,1,1.9.4,3.2,3.2,0,0,1,1.3,1,3.6,3.6,0,0,1,.8,1.5,5.8,5.8,0,0,1,.3,1.9c0,.3-.1.5-.1.8a.7.7,0,0,1-.1.5h-5.9a2.2,2.2,0,0,0,.9,1.6,2.9,2.9,0,0,0,1.7.5,3.5,3.5,0,0,0,2.1-.7l1,1.8a5.3,5.3,0,0,1-1.7.8Zm-2.2-6.2h3.6a2.6,2.6,0,0,0-.4-1.4,1.7,1.7,0,0,0-1.3-.5,1.6,1.6,0,0,0-1.2.4A2.1,2.1,0,0,0,219.3,10.6Z"/><path class="cls-15" d="M227.4,16.6V6.7h2.4l.2,1.7h.1a3.2,3.2,0,0,1,1.3-1.5,3,3,0,0,1,1.5-.5h1.2l-.5,2.6h-1.1a2.8,2.8,0,0,0-1.2.4,3.9,3.9,0,0,0-1,1.4v5.8Z"/><path class="cls-15" d="M238.9,12.6V10.5h4.9v2.1Z"/><path class="cls-15" d="M251.4,16.6,249,3.6h3l.9,6.1.3,2a14.9,14.9,0,0,0,.2,2.1h.1c.1-.7.3-1.4.4-2.1a11.8,11.8,0,0,1,.4-2l1.4-6.1h2.5l1.4,6.1a17.7,17.7,0,0,0,.4,2,15.5,15.5,0,0,0,.4,2.1h0l.3-2.1.3-2,.9-6.1h2.8l-2.3,13h-3.7l-1.3-5.9-.3-1.6a7.8,7.8,0,0,1-.2-1.4h-.1l-.3,1.4a7.8,7.8,0,0,1-.2,1.6L255,16.6Z"/><path class="cls-15" d="M269.2,16.8a2.6,2.6,0,0,1-2.3-1,5.1,5.1,0,0,1-.7-3V6.7h2.9v5.8a2.2,2.2,0,0,0,.3,1.4,1,1,0,0,0,.9.4,1.6,1.6,0,0,0,1-.2l.8-.9V6.7H275v9.9h-2.4l-.2-1.4h0a7.5,7.5,0,0,1-1.4,1.2A3.4,3.4,0,0,1,269.2,16.8Zm-.7-11.6a1.4,1.4,0,0,1-1.1-.4,1.8,1.8,0,0,1-.4-1,1.5,1.5,0,0,1,.4-1,1.4,1.4,0,0,1,1.1-.4,1.3,1.3,0,0,1,1,.4,1.2,1.2,0,0,1,.4,1,1.3,1.3,0,0,1-.4,1A1.3,1.3,0,0,1,268.5,5.2Zm4.3,0a1.3,1.3,0,0,1-1-.4,1.3,1.3,0,0,1-.4-1,1.2,1.2,0,0,1,.4-1,1.3,1.3,0,0,1,1-.4,1.4,1.4,0,0,1,1.1.4,1.5,1.5,0,0,1,.4,1,1.8,1.8,0,0,1-.4,1A1.4,1.4,0,0,1,272.8,5.2Z"/><path class="cls-15" d="M277.6,16.6V6.7H280l.2,1.7h.1a3.9,3.9,0,0,1,1.3-1.5,3,3,0,0,1,1.5-.5h1.2l-.5,2.6h-1.1a3,3,0,0,0-1.1.4,3,3,0,0,0-1,1.4v5.8Z"/><path class="cls-15" d="M286.1,16.6V9h-1.3V6.8h1.3V6.2a3.4,3.4,0,0,1,.2-1.5,2.3,2.3,0,0,1,.6-1.2,3.1,3.1,0,0,1,1.1-.9,4.7,4.7,0,0,1,1.7-.3l1.2.2.8.2-.5,2.2a2,2,0,0,0-1-.2,1.2,1.2,0,0,0-.9.3,1.6,1.6,0,0,0-.3,1.1v.6h1.8V9H289v7.6Z"/><path class="cls-15" d="M296.6,16.8a5.8,5.8,0,0,1-1.9-.3,3.7,3.7,0,0,1-1.6-1,3.9,3.9,0,0,1-1.1-1.7,4.8,4.8,0,0,1-.4-2.2,4.6,4.6,0,0,1,.4-2.1,5,5,0,0,1,1.1-1.7,4,4,0,0,1,1.5-1,4.7,4.7,0,0,1,1.7-.4,4.8,4.8,0,0,1,1.8.4,3.6,3.6,0,0,1,1.4,1,5.3,5.3,0,0,1,.8,1.5,11.1,11.1,0,0,1,.2,1.9V12a1.1,1.1,0,0,0-.1.5h-5.9a2.4,2.4,0,0,0,.8,1.6,3.4,3.4,0,0,0,1.7.5,3.8,3.8,0,0,0,2.2-.7l1,1.8a6.5,6.5,0,0,1-1.7.8Zm-2.2-6.2H298a2,2,0,0,0-.4-1.4,1.4,1.4,0,0,0-1.2-.5,2,2,0,0,0-1.3.4A2.6,2.6,0,0,0,294.4,10.6Z"/><path class="cls-15" d="M305.3,16.8a2.4,2.4,0,0,1-1.3-.2,2.2,2.2,0,0,1-.9-.7,3,3,0,0,1-.4-1,6.1,6.1,0,0,1-.1-1.4V2.6h2.9v11c0,.3,0,.6.2.7l.3.2h.4l.3,2.2-.6.2Z"/><path class="cls-15" d="M315.1,20.2a18.6,18.6,0,0,1-2-4.3,15.3,15.3,0,0,1-.7-4.9,15.1,15.1,0,0,1,.7-4.8,18.6,18.6,0,0,1,2-4.3l1.8.8a14.6,14.6,0,0,0-1.6,4.1,20.1,20.1,0,0,0-.5,4.2,20.2,20.2,0,0,0,.5,4.3,15.9,15.9,0,0,0,1.6,4.1Z"/><path class="cls-15" d="M319.4,16.6V3.6h2.9V8.9h.1l3.9-5.3h3.2l-3.9,5.2,4.7,7.8H327l-3.1-5.5-1.6,2v3.5Z"/><path class="cls-15" d="M334.2,16.8a2.7,2.7,0,0,1-2.4-1,6,6,0,0,1-.7-3V6.7h3v5.8a2.2,2.2,0,0,0,.3,1.4,1,1,0,0,0,.9.4c.4,0,.7,0,.9-.2a3.8,3.8,0,0,0,.9-.9V6.7H340v9.9h-2.4l-.2-1.4h-.1a5.3,5.3,0,0,1-1.4,1.2A2.9,2.9,0,0,1,334.2,16.8Z"/><path class="cls-15" d="M347.8,16.8a3.1,3.1,0,0,1-2.6-1.3h-.1l-.2,1.1h-2.3V2.6h2.9V7.5a5.7,5.7,0,0,1,1.3-.8,3.2,3.2,0,0,1,1.4-.3,4.2,4.2,0,0,1,1.6.4,2.9,2.9,0,0,1,1.2,1,6,6,0,0,1,.8,1.6,6.6,6.6,0,0,1,.3,2.1,7.2,7.2,0,0,1-.4,2.2,3.9,3.9,0,0,1-.9,1.7,4.9,4.9,0,0,1-1.4,1.1A4,4,0,0,1,347.8,16.8Zm-.7-2.4a1.8,1.8,0,0,0,1.3-.6,3.7,3.7,0,0,0,.5-2.3c0-1.8-.5-2.7-1.7-2.7a2.4,2.4,0,0,0-1.7.9v4.1l.8.5Z"/><path class="cls-15" d="M357,16.8a2.4,2.4,0,0,1-2.3-1,5.1,5.1,0,0,1-.8-3V6.7h3v5.8a2.2,2.2,0,0,0,.3,1.4,1,1,0,0,0,.9.4,1.6,1.6,0,0,0,1-.2l.8-.9V6.7h2.9v9.9h-2.4l-.2-1.4h-.1a7.1,7.1,0,0,1-1.3,1.2A3.4,3.4,0,0,1,357,16.8Z"/><path class="cls-15" d="M368.3,16.8l-2-.3a7.7,7.7,0,0,1-1.8-1l1.3-1.9,1.3.8a3.1,3.1,0,0,0,1.3.3,1.5,1.5,0,0,0,1-.3.6.6,0,0,0,.3-.6.8.8,0,0,0-.2-.4L369,13l-.6-.2-.8-.3-.9-.5-.8-.5a2.4,2.4,0,0,1-.6-.9,1.8,1.8,0,0,1-.3-1.1,2.7,2.7,0,0,1,.3-1.2,2.5,2.5,0,0,1,.8-1,2.3,2.3,0,0,1,1.2-.6,3.3,3.3,0,0,1,1.5-.3,5.9,5.9,0,0,1,2,.4l1.5.9L371,9.5l-1.1-.7-1-.2c-.8,0-1.1.3-1.1.8s0,.3.1.4l.5.3.6.3.7.3,1,.4.8.5a3.1,3.1,0,0,1,.7.9,3.6,3.6,0,0,1,.2,1.1,2.8,2.8,0,0,1-.3,1.3,2.3,2.3,0,0,1-.7,1l-1.3.7A5,5,0,0,1,368.3,16.8Z"/><path class="cls-15" d="M375.8,20.2l-1.9-.8a12.9,12.9,0,0,0,1.6-4.1A15.4,15.4,0,0,0,376,11a15.1,15.1,0,0,0-.5-4.2,12.1,12.1,0,0,0-1.6-4.1l1.9-.8a23.5,23.5,0,0,1,1.9,4.3,15.1,15.1,0,0,1,.7,4.8,15.3,15.3,0,0,1-.7,4.9A23.5,23.5,0,0,1,375.8,20.2Z"/><path class="cls-15" d="M432.4,448.8v-5.2h1.3a2.1,2.1,0,0,1,1.8.7,2.2,2.2,0,0,1,.7,1.9,3.6,3.6,0,0,1-.2,1.1,2.2,2.2,0,0,1-.5.8,1.2,1.2,0,0,1-.7.5,2,2,0,0,1-1.1.2Zm.6-.5h.6a1.6,1.6,0,0,0,1.4-.6,2.3,2.3,0,0,0,.5-1.5,2.1,2.1,0,0,0-.5-1.5,1.6,1.6,0,0,0-1.4-.6H433Z"/><path class="cls-15" d="M437.6,444.1h-.4c0-.1-.1-.2-.1-.3s.1-.2.1-.3h.7a.5.5,0,0,1,0,.6Zm-.4,4.7v-3.9h.7v3.9Z"/><path class="cls-15" d="M439.2,448.8v-3.9h.5v.6h0l.6-.5.6-.2.7.2.4.6.6-.6.7-.2a1.3,1.3,0,0,1,.9.4,2.1,2.1,0,0,1,.3,1.2v2.4h-.7v-2.3c0-.4,0-.7-.2-.8a.5.5,0,0,0-.5-.3c-.3,0-.6.2-1,.6v2.8h-.6v-2.3a1.3,1.3,0,0,0-.2-.8.6.6,0,0,0-.6-.3,1.2,1.2,0,0,0-.9.6v2.8Z"/><path class="cls-15" d="M447.4,448.9h-.7l-.6-.4a1.6,1.6,0,0,1-.4-.7,1.9,1.9,0,0,1-.2-.8,2.9,2.9,0,0,1,.2-.9,2.1,2.1,0,0,1,.4-.6,1,1,0,0,1,.5-.4l.7-.2.7.2.4.3a.9.9,0,0,1,.3.6,1.9,1.9,0,0,1,.1.8v.2h-2.6a1.1,1.1,0,0,0,.4,1,1,1,0,0,0,.9.4h.5l.5-.2.2.4-.6.3Zm-1.2-2.3h2.1a1.2,1.2,0,0,0-.3-.9.9.9,0,0,0-.7-.3h-.4l-.3.3-.3.4A4.3,4.3,0,0,0,446.2,446.6Z"/><path class="cls-15" d="M450.9,448.9h-.5l-.3-.2a.8.8,0,0,1-.2-.4c0-.2-.1-.4-.1-.6v-2.1h-.5V445h.6v-1h.6v1h1v.6h-1v2.1c0,.3,0,.5.1.6l.5.2h.4l.2.5h-.8Z"/><path class="cls-15" d="M452.4,448.8v-3.9h.6v.7h0c.2-.2.3-.4.5-.5a.9.9,0,0,1,.7-.3h.4l-.2.6h-.3l-.6.2a4.3,4.3,0,0,0-.4.7v2.5Z"/><path class="cls-15" d="M455.5,444.1h-.3a.5.5,0,0,1,0-.6h.7a.5.5,0,0,1,0,.6Zm-.3,4.7v-3.9h.7v3.9Z"/><path class="cls-15" d="M458.2,448.9h-.8l-.7-.4.4-.5a1,1,0,0,0,.5.4h.6c.3,0,.5,0,.6-.2a.5.5,0,0,0,.2-.4.4.4,0,0,0-.1-.3l-.2-.2h-.6l-.4-.2-.4-.2-.3-.3a4.3,4.3,0,0,1-.1-.5c0-.1.1-.3.1-.4l.3-.3.4-.3h.6l.6.2.6.3-.3.4-.5-.2h-1a.6.6,0,0,0-.1.4v.3h.2l.3.2h.3a.5.5,0,0,1,.4.2l.4.2.3.3a.7.7,0,0,1,.1.5.6.6,0,0,1-.1.4c0,.2-.1.3-.3.4l-.4.2Z"/><path class="cls-15" d="M462.1,448.9h-.8a1,1,0,0,1-.5-.4l-.4-.6a2.1,2.1,0,0,1,0-1.8l.4-.6.6-.4.7-.2.7.2.4.3-.3.4a.5.5,0,0,0-.4-.2h-.9l-.3.3-.3.5a1.8,1.8,0,0,0,0,1.2l.2.5.4.3h1l.4-.3.3.4-.6.4Z"/><path class="cls-15" d="M464.2,448.8v-5.7h.6v2.4l.6-.5.7-.2a1.3,1.3,0,0,1,.9.4,2.1,2.1,0,0,1,.3,1.2v2.4h-.7v-2.3c0-.4,0-.7-.2-.8a.5.5,0,0,0-.5-.3l-.5.2-.6.4v2.8Z"/><path class="cls-15" d="M470.1,448.9h-.7a.9.9,0,0,1-.6-.4,1.6,1.6,0,0,1-.4-.7,1.9,1.9,0,0,1-.2-.8,2.9,2.9,0,0,1,.2-.9l.4-.6a1,1,0,0,1,.5-.4l.7-.2.6.2.5.3a.9.9,0,0,1,.3.6,1.9,1.9,0,0,1,.1.8v.2h-2.6a1.1,1.1,0,0,0,.4,1,1,1,0,0,0,.9.4h.5l.4-.2.3.4-.6.3Zm-1.2-2.3H471a1.2,1.2,0,0,0-.3-.9.9.9,0,0,0-.7-.3h-.4l-.3.3-.3.4A.7.7,0,0,0,468.9,446.6Z"/><path class="cls-15" d="M473.5,448.8l1.7-5.2h.8l1.8,5.2H477l-.4-1.6h-2l-.5,1.6Zm1.6-2.9-.3.8h1.6l-.3-.8c-.1-.3-.1-.6-.2-.9l-.3-.9h0l-.3.9C475.2,445.3,475.2,445.6,475.1,445.9Z"/><path class="cls-15" d="M478.4,448.8v-3.9h.6v.6h.1l.6-.5.7-.2a1.3,1.3,0,0,1,.9.4,2.1,2.1,0,0,1,.3,1.2v2.4h-.7v-2.3a1.3,1.3,0,0,0-.2-.8.5.5,0,0,0-.5-.3l-.6.2-.5.4v2.8Z"/><path class="cls-15" d="M483.8,448.9H483l-.6-.4.3-.5.5.4h.7c.2,0,.4,0,.5-.2s.2-.2.2-.4a.4.4,0,0,0-.1-.3l-.2-.2h-.6l-.4-.2-.4-.2-.2-.3a.7.7,0,0,1-.1-.5.6.6,0,0,1,.1-.4c0-.1.1-.2.2-.3l.5-.3h.5l.7.2.5.3-.3.4-.4-.2h-1l-.2.4a.4.4,0,0,0,.1.3h.2l.2.2h.4l.4.2.4.2c.1.1.2.2.2.3a.8.8,0,0,1,.2.5v.4l-.3.4-.5.2Z"/><path class="cls-15" d="M486.5,444.1h-.3c-.1-.1-.2-.2-.2-.3l.2-.3h.6l.2.3c0,.1-.1.2-.2.3Zm-.3,4.7v-3.9h.6v3.9Z"/><path class="cls-15" d="M489.7,448.9H489a.9.9,0,0,1-.6-.4l-.4-.6a2.1,2.1,0,0,1,0-1.8l.4-.6.6-.4.7-.2.7.2.5.3-.4.4-.3-.2h-.9l-.4.3-.3.5c0,.2-.1.4-.1.6s.1.4.1.6l.3.5.3.3h1l.4-.3.3.4a.9.9,0,0,1-.6.4Z"/><path class="cls-15" d="M491.8,448.8v-5.7h.6v2.4l.6-.5.7-.2a1.3,1.3,0,0,1,.9.4,2.1,2.1,0,0,1,.3,1.2v2.4h-.7v-2.3c0-.4,0-.7-.1-.8a.7.7,0,0,0-.6-.3l-.5.2-.6.4v2.8Z"/><path class="cls-15" d="M497.4,448.9h-.6l-.3-.2a.8.8,0,0,1-.2-.4c0-.2-.1-.4-.1-.6v-2.1h-.5V445h.6v-1h.5v1H498v.6h-1.1v2.1a3.5,3.5,0,0,0,.1.6l.5.2h.5v.5h-.7Z"/><path class="cls-15" d="M498.8,450.2l-.2-.4.6-.4a1.3,1.3,0,0,0,.1-.6h-.4a.4.4,0,0,1-.1-.3c0-.2,0-.3.1-.4h.4l.4.2a1.3,1.3,0,0,1,.1.6,1.6,1.6,0,0,1-.3.9A1.1,1.1,0,0,1,498.8,450.2Z"/><path class="cls-15" d="M503.1,448.8l-1.1-5.2h.7l.6,2.8c0,.3.1.6.1.9s.1.5.2.8h0c.1-.3.1-.5.2-.8a2.9,2.9,0,0,1,.2-.9l.7-2.8h.6l.7,2.8a2.9,2.9,0,0,1,.2.9c.1.3.1.5.2.8h0c.1-.3.1-.5.2-.8s.1-.6.1-.9l.6-2.8h.6l-1.1,5.2H506l-.8-3.1a1.3,1.3,0,0,0-.1-.6c0-.2-.1-.4-.1-.6h0c-.1.2-.1.4-.2.6s-.1.4-.1.6l-.8,3.1Z"/><path class="cls-15" d="M509.1,444.1h-.3a.5.5,0,0,1,0-.6h.6l.2.3c0,.1-.1.2-.2.3Zm-.3,4.7v-3.9h.6v3.9Z"/><path class="cls-15" d="M510.7,448.8v-3.9h.6v.6h.1l.6-.5.7-.2a1.3,1.3,0,0,1,.9.4,2.1,2.1,0,0,1,.3,1.2v2.4h-.7v-2.3a1.3,1.3,0,0,0-.2-.8.5.5,0,0,0-.5-.3l-.6.2-.5.4v2.8Z"/><path class="cls-15" d="M515.1,448.8v-5.7h.7V447h0l1.6-2.1h.8l-1.3,1.6,1.5,2.3h-.8l-1.1-1.8-.7.8v1Z"/><path class="cls-15" d="M520.5,448.9h-.7l-.6-.4a1.6,1.6,0,0,1-.4-.7,1.9,1.9,0,0,1-.2-.8,2.9,2.9,0,0,1,.2-.9l.4-.6.5-.4.7-.2.7.2.4.3a.9.9,0,0,1,.3.6,1.9,1.9,0,0,1,.1.8v.2h-2.6a1.3,1.3,0,0,0,.4,1,1,1,0,0,0,.9.4h.5l.5-.2.2.4-.6.3Zm-1.2-2.3h2.1a1.2,1.2,0,0,0-.3-.9.9.9,0,0,0-.7-.3H520l-.3.3-.3.4A4.3,4.3,0,0,0,519.3,446.6Z"/><path class="cls-15" d="M523.6,448.9c-.3,0-.4,0-.5-.2a1.2,1.2,0,0,1-.2-.7v-4.9h.7v5.2h.3v.5h-.4Z"/><path class="cls-15" d="M527.3,448.8c0-.5.1-.9.1-1.3l.3-1.1c.1-.4.3-.7.4-1.1a6.1,6.1,0,0,1,.7-1h-2.6v-.6h3.3v.4l-.7,1.1a5.4,5.4,0,0,0-.5,1.1,5,5,0,0,0-.2,1.2,5.3,5.3,0,0,0-.1,1.3Z"/><path class="cls-15" d="M531.2,445.4h-.4l-.3-.2-.2-.3a.6.6,0,0,1-.1-.4c0-.2,0-.3.1-.4a.5.5,0,0,1,.2-.4l.3-.2h.8l.3.2a.5.5,0,0,1,.2.4c.1.1.1.2.1.4a.6.6,0,0,1-.1.4l-.2.3-.3.2Zm0-.4c.2,0,.3,0,.4-.2a.5.5,0,0,0,.2-.4.8.8,0,0,0-.2-.5l-.4-.2-.4.2c-.2.1-.2.3-.2.5s0,.3.2.4S531,445,531.2,445Z"/><path class="cls-15" d="M532.6,450.1l2.1-7h.5l-2.1,7Z"/><path class="cls-15" d="M537.7,448.8v-1.4h-2.3V447l2.2-3.3h.8v3.2h.7v.5h-.7v1.4Zm-1.6-1.9h1.6v-1.5a1.1,1.1,0,0,1,.1-.5v-.5h0c-.1.2-.2.3-.2.4l-.3.3Z"/><path class="cls-15" d="M539.6,448.8v-.4a9.4,9.4,0,0,0,1-1l.8-.9a2.5,2.5,0,0,0,.4-.7.7.7,0,0,0,.2-.6,1.9,1.9,0,0,0-.2-.8l-.8-.2h-.6l-.4.5-.4-.4.7-.6.8-.2a1.6,1.6,0,0,1,1.1.4,1.5,1.5,0,0,1,.4,1.1,2.2,2.2,0,0,1-.1.8l-.4.7-.7.8-.8.9h2.3v.5Z"/><path class="cls-15" d="M544.6,445.4h-.4l-.3-.2-.2-.3a.6.6,0,0,1-.1-.4c0-.2,0-.3.1-.4a.5.5,0,0,1,.2-.4l.3-.2h.8l.3.2a.5.5,0,0,1,.2.4c.1.1.1.2.1.4a.6.6,0,0,1-.1.4l-.2.3-.3.2Zm0-.4c.2,0,.3,0,.4-.2a.5.5,0,0,0,.2-.4.8.8,0,0,0-.2-.5l-.4-.2a.5.5,0,0,0-.4.2c-.2.1-.2.3-.2.5s0,.3.2.4S544.4,445,544.6,445Z"/><path class="cls-15" d="M546.4,450.2v-.4a1,1,0,0,0,.5-.4.7.7,0,0,0,.2-.6h-.4a.4.4,0,0,1-.1-.3c0-.2,0-.3.1-.4h.3a.5.5,0,0,1,.4.2,1.4,1.4,0,0,1,.2.6,1.6,1.6,0,0,1-.3.9A1.2,1.2,0,0,1,546.4,450.2Z"/><path class="cls-15" d="M551.7,448.9a1.6,1.6,0,0,1-1-.2,1.8,1.8,0,0,1-.9-.6l.4-.4.7.5h.8a1.1,1.1,0,0,0,.8-.2.9.9,0,0,0,.3-.6.6.6,0,0,0-.1-.4l-.2-.2-.2-.2h-.4l-.7-.4-.4-.2-.4-.2c-.1-.1-.1-.3-.2-.4a.9.9,0,0,1-.1-.5,1.3,1.3,0,0,1,.1-.6c.1-.1.2-.3.4-.4l.5-.3h.6a1.3,1.3,0,0,1,.9.2l.7.4-.4.5a1,1,0,0,0-.5-.4h-.7a1,1,0,0,0-.7.2.8.8,0,0,0-.2.5v.4l.2.2.3.2h.3l.8.3.4.2.4.3a.8.8,0,0,0,.2.4c0,.2.1.3.1.5a1.4,1.4,0,0,1-.2.6.9.9,0,0,1-.3.5l-.6.3Z"/><path class="cls-15" d="M556,448.9h-.7a1.3,1.3,0,0,1-.6-.4,1.6,1.6,0,0,1-.4-.7,1.9,1.9,0,0,1-.2-.8,2.9,2.9,0,0,1,.2-.9l.4-.6a1,1,0,0,1,.5-.4l.7-.2.6.2.5.3a.9.9,0,0,1,.3.6,1.9,1.9,0,0,1,.1.8v.2h-2.6a1.1,1.1,0,0,0,.4,1,1,1,0,0,0,.9.4h.5l.5-.2.2.4-.6.3Zm-1.2-2.3h2.1a1.2,1.2,0,0,0-.3-.9.9.9,0,0,0-.7-.3h-.4l-.3.3-.3.4A.7.7,0,0,0,554.8,446.6Z"/><path class="cls-15" d="M558.7,444.1h-.3a.5.5,0,0,1,0-.6h.7c0,.1.1.2.1.3s-.1.2-.1.3Zm-.3,4.7v-3.9h.7v3.9Z"/><path class="cls-15" d="M561.6,448.9h-.5a.5.5,0,0,1-.4-.2c-.1-.1-.1-.3-.2-.4v-2.7h-.6V445h.6v-1h.5v1h1.1v.6h-1.1v2.1a.8.8,0,0,0,.2.6.5.5,0,0,0,.4.2h.5v.5h-.7Z"/><path class="cls-15" d="M564.5,448.9h-.7l-.6-.4a1.6,1.6,0,0,1-.4-.7,1.9,1.9,0,0,1-.1-.8,2.8,2.8,0,0,1,.1-.9l.4-.6.6-.4.6-.2.7.2.5.3.3.6c0,.2.1.5.1.8v.2a.1.1,0,0,1-.1.1h-2.6a1.3,1.3,0,0,0,.4,1,1,1,0,0,0,.9.4h.5l.5-.2.2.4-.6.3Zm-1.2-2.3h2.1a1.2,1.2,0,0,0-.3-.9.8.8,0,0,0-.7-.3H564l-.3.3-.3.4A4.3,4.3,0,0,0,563.3,446.6Z"/><path class="cls-15" d="M566.9,448.8v-3.9h.6v.6h.1l.5-.5.8-.2a1.3,1.3,0,0,1,.9.4,3.7,3.7,0,0,1,.2,1.2v2.4h-.6v-2.3a1.3,1.3,0,0,0-.2-.8.6.6,0,0,0-.6-.3l-.5.2-.5.4v2.8Z"/><path class="cls-15" d="M572.1,448.8l-1.4-3.9h.7l.8,2.2c0,.2.1.4.1.6a1.4,1.4,0,0,1,.2.6h.1c0-.2.1-.4.1-.6s.1-.4.2-.6l.7-2.2h.7l-1.4,3.9Z"/><path class="cls-15" d="M576.6,448.9h-.7a.9.9,0,0,1-.6-.4,1.6,1.6,0,0,1-.4-.7,1.9,1.9,0,0,1-.2-.8,2.9,2.9,0,0,1,.2-.9l.4-.6a1,1,0,0,1,.5-.4l.7-.2.6.2.5.3.3.6a1.9,1.9,0,0,1,.1.8v.2h-2.6a1.1,1.1,0,0,0,.4,1,1,1,0,0,0,.9.4h.5l.4-.2.3.4-.6.3Zm-1.2-2.3h2c0-.4,0-.7-.2-.9a.9.9,0,0,0-.7-.3h-.4l-.4.3-.2.4A.7.7,0,0,0,575.4,446.6Z"/><path class="cls-15" d="M579,448.8v-3.9h.5v.7h0a1.2,1.2,0,0,1,.5-.5.9.9,0,0,1,.6-.3h.4v.6h-.2c0-.1-.1-.1-.2-.1l-.5.2-.5.7v2.5Z"/><path class="cls-15" d="M581.8,448.8v-5.7h.6v2.4l.6-.5.7-.2a1.3,1.3,0,0,1,.9.4,2.1,2.1,0,0,1,.3,1.2v2.4h-.7v-2.3a1.3,1.3,0,0,0-.2-.8.5.5,0,0,0-.5-.3l-.6.2-.5.4v2.8Z"/><path class="cls-15" d="M587,448.9a1.1,1.1,0,0,1-.8-.3,1,1,0,0,1-.3-.8,1.4,1.4,0,0,1,.5-1,6,6,0,0,1,1.8-.4V446c0-.1-.1-.2-.1-.3l-.3-.2h-1l-.5.3-.3-.5.7-.3.9-.2a1.2,1.2,0,0,1,1,.5,2,2,0,0,1,.3,1.1v2.4h-.5v-.4h0l-.6.4Zm-.2-4.8h-.3a.5.5,0,0,1,0-.6h.6c0,.1.1.2.1.3s-.1.2-.1.3Zm.4,4.3h.5l.5-.4v-1.1h-.8l-.5.3-.3.2c-.1.1-.1.2-.1.4a.8.8,0,0,0,.2.5Zm1.1-4.3H588c0-.1-.1-.2-.1-.3s.1-.2.1-.3h.6a.5.5,0,0,1,0,.6Z"/><path class="cls-15" d="M590.8,448.9c-.2,0-.4,0-.5-.2a1.2,1.2,0,0,1-.2-.7v-4.9h.7v5.2h.3v.5h-.4Z"/><path class="cls-15" d="M593.4,448.9h-.5l-.4-.2c-.1-.1-.1-.3-.2-.4v-2.7h-.6V445h.6v-1h.6v1h1v.6h-1v2.1c0,.3,0,.5.1.6a.6.6,0,0,0,.5.2h.4v.5h-.7Z"/><path class="cls-15" d="M594.9,448.8v-3.9h.5v.6h0l.6-.5.7-.2a1.3,1.3,0,0,1,.9.4,2.1,2.1,0,0,1,.3,1.2v2.4h-.7v-2.3c0-.4,0-.7-.1-.8a.7.7,0,0,0-.6-.3l-.5.2-.6.4v2.8Z"/><path class="cls-15" d="M599.6,444.1h-.3c-.1-.1-.2-.2-.2-.3l.2-.3h.6a.5.5,0,0,1,0,.6Zm-.3,4.7v-3.9h.6v3.9Z"/><path class="cls-15" d="M602.2,448.9h-.8l-.6-.4.3-.5.5.4h.7c.2,0,.4,0,.5-.2s.2-.2.2-.4v-.3l-.3-.2h-.6l-.4-.2-.3-.2c-.2-.1-.2-.2-.3-.3a.7.7,0,0,1-.1-.5.6.6,0,0,1,.1-.4c0-.1.1-.2.2-.3l.5-.3h.5l.7.2.5.3-.3.4-.4-.2h-1l-.2.4a.4.4,0,0,0,.1.3h.2l.3.2h.3l.4.2.4.2.3.3a4.3,4.3,0,0,1,.1.5v.4l-.3.4-.4.2Z"/><path class="cls-15" d="M604.9,446h-.3a.5.5,0,0,1-.2-.4c0-.1.1-.2.2-.3l.3-.2.4.2c0,.1.1.2.1.3s-.1.3-.1.4Zm0,2.9h-.3a.5.5,0,0,1-.2-.4c0-.1.1-.3.2-.3l.3-.2.4.2v.3c0,.2-.1.3-.1.4Z"/><path class="cls-15" d="M608.1,448.8v-.5h1.2v-3.8h-.9v-.4l.6-.2.5-.2h.5v4.6h1v.5Z"/><path class="cls-15" d="M612.5,446h-.4c0-.1-.1-.2-.1-.4s.1-.2.1-.3l.4-.2.3.2c.1.1.2.2.2.3a.5.5,0,0,1-.2.4Zm0,2.9h-.4c0-.1-.1-.2-.1-.4v-.3l.4-.2.3.2c.1,0,.2.2.2.3a.5.5,0,0,1-.2.4Z"/><path class="cls-15" d="M613.8,448.8v-.4a9.4,9.4,0,0,0,1-1l.8-.9a2.5,2.5,0,0,0,.4-.7,1.4,1.4,0,0,0,.2-.6,1.9,1.9,0,0,0-.2-.8l-.8-.2h-.6l-.5.5-.3-.4.6-.6.9-.2a1.6,1.6,0,0,1,1.1.4,1.5,1.5,0,0,1,.4,1.1,2.2,2.2,0,0,1-.1.8l-.4.7-.7.8-.8.9h2.3v.5Z"/><path class="cls-15" d="M432.4,427.2v-5.3h2.3l.5.2.4.4a1.3,1.3,0,0,1,.1.6.8.8,0,0,1-.2.7,1.2,1.2,0,0,1-.5.5h0a1,1,0,0,1,.7.4,1.1,1.1,0,0,1,.3.8,1.5,1.5,0,0,1-.1.7,1,1,0,0,1-.4.5l-.6.3h-2.5Zm.6-3h.8a1.3,1.3,0,0,0,1-.3.6.6,0,0,0,.3-.6.9.9,0,0,0-.3-.7H433Zm0,2.4h1a1.5,1.5,0,0,0,1-.2.8.8,0,0,0,.4-.8.8.8,0,0,0-.4-.7,1.5,1.5,0,0,0-1-.2h-1Z"/><path class="cls-15" d="M438.6,427.3l-.7-.2a.9.9,0,0,1-.6-.4c-.2-.1-.3-.4-.4-.6a2.4,2.4,0,0,1-.2-.9,1.9,1.9,0,0,1,.2-.8,1.6,1.6,0,0,1,.4-.7l.5-.4h1.3a1,1,0,0,1,.5.4.6.6,0,0,1,.3.6,1.5,1.5,0,0,1,.1.7v.4h-2.6a1.3,1.3,0,0,0,.4,1,1.2,1.2,0,0,0,.9.3h.5l.4-.3.3.5-.6.2Zm-1.2-2.4h2.1a1.2,1.2,0,0,0-.3-.9.9.9,0,0,0-.7-.3h-.4l-.3.2-.3.4A.9.9,0,0,0,437.4,424.9Z"/><path class="cls-15" d="M440.6,427.2v-.4l2-3h-1.8v-.5h2.7v.3l-2.1,3h2.1v.6Z"/><path class="cls-15" d="M445.4,427.3a1.3,1.3,0,0,1-.9-.4,1.8,1.8,0,0,1-.3-1.1v-2.5h.7v2.4a1.9,1.9,0,0,0,.2.8l.5.2.6-.2a2.3,2.3,0,0,0,.5-.5v-2.7h.6v3.9h-.5v-.6h0l-.5.5Z"/><path class="cls-15" d="M450,429h-.7l-.5-.2-.3-.3a.9.9,0,0,1-.1-.5,1.1,1.1,0,0,1,.1-.5c.1-.1.3-.2.4-.4h0l-.2-.2a.6.6,0,0,1-.1-.4.9.9,0,0,1,.1-.5l.3-.2h0l-.3-.4a1.4,1.4,0,0,1-.2-.6,1.3,1.3,0,0,1,.1-.6l.3-.4.5-.3h2.5v.5h-.8l.2.3a.9.9,0,0,1,.1.5,1.3,1.3,0,0,1-.1.6l-.3.4-.5.2h-1.1l-.2.2c0,.1-.1.2-.1.3l.2.3h1.3l1,.2a.9.9,0,0,1,.3.7.7.7,0,0,1-.1.5l-.4.5-.6.3Zm.1-.5h.9c.1-.1.2-.2.2-.3a.4.4,0,0,0,.1-.3.5.5,0,0,0-.2-.4h-1.8l-.3.3c0,.1-.1.2-.1.3a.5.5,0,0,0,.3.5Zm-.1-3h.5c.1-.1.2-.2.2-.3a.8.8,0,0,0,.1-.4,1.4,1.4,0,0,0-.2-.7.7.7,0,0,0-.6-.2c-.3,0-.5,0-.6.2a.9.9,0,0,0-.3.7c0,.1.1.2.1.4l.2.3h.6Z"/><path class="cls-15" d="M453.7,427.3l-.8-.2c-.2-.1-.5-.2-.6-.4l.3-.4.5.3.6.2.6-.2a.8.8,0,0,0,.2-.5c0-.1,0-.1-.1-.2a.2.2,0,0,0-.2-.2l-.3-.2h-.7l-.4-.3c-.1-.1-.2-.2-.2-.3s-.1-.2-.1-.4v-.4l.3-.4.4-.2h1.3l.5.3-.3.4-.4-.2h-.5a.6.6,0,0,0-.5.2c-.2.1-.2.2-.2.4v.2c0,.1.1.1.1.2h.6l.5.2.3.2q.3.1.3.3a1.3,1.3,0,0,1,0,1l-.2.3-.5.3Z"/><path class="cls-15" d="M456,428.8v-5.5h.6v.4h.1l.5-.3a1.1,1.1,0,0,1,.7-.2h.7c.2.1.3.3.4.4a.9.9,0,0,1,.3.7,1.9,1.9,0,0,1,.1.8,2.8,2.8,0,0,1-.1.9,2.1,2.1,0,0,1-.4.6,1,1,0,0,1-.5.4l-.6.2-.6-.2c-.2,0-.3-.1-.5-.3v2Zm1.6-2.1h.5l.3-.3.3-.5c0-.2.1-.4.1-.6s-.1-.4-.1-.6-.1-.3-.2-.5l-.3-.3h-.5l-.5.2-.5.4v2c.2.2.3.3.5.3Z"/><path class="cls-15" d="M461.6,427.3a1.3,1.3,0,0,1-.9-.4,1.8,1.8,0,0,1-.3-1.1v-2.5h.7v2.4a1.1,1.1,0,0,0,.2.8l.5.2.6-.2a2.3,2.3,0,0,0,.5-.5v-2.7h.6v3.9H463v-.6h0l-.6.5Z"/><path class="cls-15" d="M464.8,427.2v-3.9h.6v.5h.1l.5-.4.8-.2a1,1,0,0,1,.9.4c.2.2.2.6.2,1.1v2.5h-.6v-2.4a1.5,1.5,0,0,0-.2-.8c-.1-.2-.3-.2-.5-.2H466l-.5.5v2.8Z"/><path class="cls-15" d="M469.2,427.2v-5.7h.7v3.8h0l1.6-2h.8l-1.3,1.5,1.4,2.4h-.7l-1.1-1.9-.7.8v1.1Z"/><path class="cls-15" d="M474.2,427.3h-.5c-.1-.1-.3-.2-.3-.3a.5.5,0,0,1-.2-.4.9.9,0,0,1-.1-.5v-2.2h-.6v-.5h.6v-1.1h.6v1.1h1v.5h-1V426a.7.7,0,0,0,.1.5c.1.2.3.2.5.2h.4v.5h-.7Z"/><path class="cls-15" d="M433.8,438h-.7a1,1,0,0,1-.5-.4,2.1,2.1,0,0,1-.4-.6,2.1,2.1,0,0,1,0-1.8,2.1,2.1,0,0,1,.4-.6,1,1,0,0,1,.5-.4h1.4l.6.4.4.6a4.1,4.1,0,0,1,0,1.8l-.4.6-.6.4Zm0-.5h.5l.3-.3.3-.5v-1.2l-.3-.5-.3-.3h-.9l-.4.3c-.1.2-.2.3-.2.5a1.9,1.9,0,0,0,0,1.2.8.8,0,0,0,.2.5l.4.3Z"/><path class="cls-15" d="M436.7,437.9v-5.7h.6v2.4l.6-.5h.7a1.2,1.2,0,0,1,.9.3,2.1,2.1,0,0,1,.3,1.2v2.4h-.7v-2.3a1.3,1.3,0,0,0-.2-.8.5.5,0,0,0-.5-.3l-.6.2-.5.4v2.8Z"/><path class="cls-15" d="M441,437.9v-3.8h.5v.5h0l.6-.5h.7a1.2,1.2,0,0,1,.9.3,2.1,2.1,0,0,1,.3,1.2v2.4h-.6v-2.3a1.3,1.3,0,0,0-.2-.8.6.6,0,0,0-.6-.3l-.5.2-.5.4v2.8Z"/><path class="cls-15" d="M447,438h-.8l-.6-.4-.4-.6a4.1,4.1,0,0,1,0-1.8l.4-.6.6-.4h1.3a1,1,0,0,1,.5.4l.3.5a2.2,2.2,0,0,1,.1.8v.4h-2.7a1.9,1.9,0,0,0,.4.9,1.2,1.2,0,0,0,.9.4h.5l.5-.2.2.4-.5.3Zm-1.3-2.3h2.1a2,2,0,0,0-.2-.9,1,1,0,0,0-.8-.3h-.3a.7.7,0,0,0-.6.6C445.8,435.3,445.8,435.5,445.7,435.7Z"/><path class="cls-15" d="M451,437.9v-5.2h.8l1,2.8c.1.2.1.4.2.5s.1.4.2.6h0c.1-.2.1-.4.2-.6s.1-.3.2-.5l1-2.8h.8v5.2h-.6v-4.4h0l-.4,1.2-1,2.7H453l-1-2.7-.4-1.2h-.1c0,.2.1.5.1.8v3.6Z"/><path class="cls-15" d="M457.7,438l-.9-.2a1.2,1.2,0,0,1-.3-.9,1,1,0,0,1,.6-.9,3.9,3.9,0,0,1,1.8-.5v-.4l-.2-.3a.2.2,0,0,0-.2-.2h-1l-.6.3-.2-.4.7-.4h.8a1.1,1.1,0,0,1,1,.4,1.6,1.6,0,0,1,.4,1.2v2.3H459v-.4h-.1a1.5,1.5,0,0,1-.6.4Zm.1-.5h.6l.5-.4v-1.1l-.8.2-.6.2c-.1.1-.2.1-.2.2a.8.8,0,0,0-.1.4c0,.2,0,.4.2.5Z"/><path class="cls-15" d="M463.2,438h-.6c-.2,0-.3-.1-.5-.3l.3-.4.4.2h.4c.2,0,.4,0,.5-.2a.5.5,0,0,0,.2-.4c0-.2,0-.3-.1-.4l-.3-.3-.4-.2-.4-.2-.3-.3a4.3,4.3,0,0,1-.1-.5.6.6,0,0,1,.1-.4l.3-.4c.1-.1.1-.2.2-.4s.1-.2.1-.4a.7.7,0,0,0-.1-.5l-.5-.2a.8.8,0,0,0-.7.3,1.2,1.2,0,0,0-.3.9v4h-.6v-4.1a1.4,1.4,0,0,1,1.6-1.6h.5a.5.5,0,0,1,.4.2l.3.4c0,.1.1.3.1.4s-.1.4-.1.6l-.3.3-.3.4c0,.1-.1.2-.1.4s.1.2.2.3l.2.2.4.2.4.3.3.3a.9.9,0,0,1,.1.5.7.7,0,0,1-.1.5.5.5,0,0,1-.2.4l-.4.2Z"/><path class="cls-15" d="M466.4,438h-.8l-.6-.4.3-.4.5.3H467c.1-.2.2-.3.2-.5s0-.2-.1-.2a.2.2,0,0,0-.2-.2l-.3-.2h-.3l-.4-.2-.4-.2c-.1-.1-.2-.2-.2-.3a.6.6,0,0,1-.1-.4.9.9,0,0,1,.1-.5c0-.1.1-.2.2-.3l.4-.3h1.3l.5.3-.3.4-.4-.2h-1c-.1.2-.2.3-.2.4a.4.4,0,0,0,.1.3h.2c0,.1.1.1.2.2h.4l.4.2.4.2.2.3a.7.7,0,0,1,.1.5v.4l-.3.4-.5.2Z"/><path class="cls-15" d="M469.8,438h-.5l-.4-.2v-.4a1.3,1.3,0,0,1-.1-.6v-2.1h-.6v-.5h.6V433h.6v1.1h1v.5h-1v2.2a.7.7,0,0,0,.1.5.6.6,0,0,0,.5.2h.4v.5h-.7Z"/><path class="cls-15" d="M472,438l-.8-.2a1.2,1.2,0,0,1-.3-.9,1,1,0,0,1,.6-.9,3.2,3.2,0,0,1,1.8-.5.6.6,0,0,0-.1-.4.4.4,0,0,0-.1-.3.2.2,0,0,0-.2-.2h-1.1l-.5.3-.2-.4c.1-.2.4-.3.6-.4h.9a1.1,1.1,0,0,1,1,.4,2.1,2.1,0,0,1,.3,1.2v2.3h-.5v-.4h0l-.6.4Zm.2-.5h.5l.6-.4v-1.1l-.8.2-.6.2-.3.2c0,.2-.1.3-.1.4a.8.8,0,0,0,.2.5Z"/><path class="cls-15" d="M476.9,438h-.6a1,1,0,0,1-.5-.4h-.1v.4h-.5v-5.7h.6v2.3l.6-.4h1.3l.5.4.3.6c0,.3.1.5.1.8a2,2,0,0,1-.2.9l-.3.7-.6.4Zm-.1-.5h.4l.4-.3.2-.5a1.5,1.5,0,0,0,.1-.7.7.7,0,0,0-.1-.5.8.8,0,0,0-.2-.5l-.3-.3h-.4a1.8,1.8,0,0,0-1.1.5v2.1l.5.3Z"/><path class="cls-16" d="M487.3,153.4v-6h1.5v.8h0l.8-.7,1-.2,1.1.2.6.8a2.7,2.7,0,0,1,.8-.7,2,2,0,0,1,1.1-.3,1.7,1.7,0,0,1,1.4.6,3,3,0,0,1,.4,1.8v3.7h-1.7v-3.5a2,2,0,0,0-.2-.9l-.6-.2c-.3,0-.6.2-1,.6v4h-1.8v-3.5a2.2,2.2,0,0,0-.1-.9l-.6-.2c-.3,0-.6.2-1,.6v4Z"/><path class="cls-16" d="M499.6,148.6v-1.2h5.6v1.2Zm0,2.8v-1.2h5.6v1.2Z"/><path class="cls-16" d="M510.3,153.4l-2.4-7.9h1.9l.9,3.7.3,1.2.3,1.3h.1l.3-1.3.3-1.2.9-3.7h1.8l-2.3,7.9Z"/><path class="cls-16" d="M517.2,153.4l1.8-3.1-1.7-2.9h1.9l.5,1,.3.5c.1.2.2.3.2.5h.1l.2-.5c.1-.2.1-.4.2-.5l.4-1h1.8l-1.7,3.1,1.8,2.9h-1.9l-.5-1-.3-.5-.3-.5h0l-.3.5-.2.5-.5,1Z"/><path class="cls-16" d="M526.3,155.5v-5a3.2,3.2,0,0,1,.3-1.4,1.7,1.7,0,0,1,.6-1,1.5,1.5,0,0,1,.9-.6,2,2,0,0,1,1.1-.2,2.3,2.3,0,0,1,2,.8,2.9,2.9,0,0,1,.8,2.2,3.2,3.2,0,0,1-.3,1.4,3.1,3.1,0,0,1-.5,1,2.4,2.4,0,0,1-.8.6l-.9.2h-.8l-.7-.5a5.7,5.7,0,0,0,.1,1.3v1.3Zm2.8-3.4a1,1,0,0,0,.7-.4,2,2,0,0,0,.4-1.4c0-1-.4-1.6-1.1-1.6a1,1,0,0,0-.8.5,2.1,2.1,0,0,0-.3,1.2v1.2l.5.4Z"/><rect class="cls-18" x="481.2" y="139.8" width="56.6" height="20.92"/><line class="cls-19" x1="338.3" y1="360.7" x2="442.4" y2="416.1"/><polygon class="cls-20" points="335.2 359.1 338.6 363.2 338.6 360.9 340.6 359.6 335.2 359.1"/><path class="cls-21" d="M573,223.9s15.8,5.5,12.6,12.8-21.6,20.2-29,25.5"/><polygon class="cls-16" points="553.7 264.2 556.6 259.7 556.8 262 558.9 263 553.7 264.2"/><path class="cls-21" d="M552.8,271.1s20.3,7.1,17.1,14.4-18.1,20.5-24.4,26.2"/><polygon class="cls-16" points="542.9 314.1 545.1 309.2 545.6 311.5 547.9 312.2 542.9 314.1"/><rect class="cls-22" x="285" y="50.2" width="262.9" height="28.89"/><path class="cls-23" d="M296.2,67.8V60h1.9a3.6,3.6,0,0,1,2.8,1,4,4,0,0,1,1,2.9,4.1,4.1,0,0,1-.3,1.6,3.3,3.3,0,0,1-.7,1.3l-1.1.8-1.6.2Zm1-.8h.9a2.5,2.5,0,0,0,2-.8,3.3,3.3,0,0,0,.7-2.3,3.2,3.2,0,0,0-.7-2.3,2.2,2.2,0,0,0-2-.8h-.9Z"/><path class="cls-23" d="M304,60.8l-.5-.2c-.2-.1-.2-.2-.2-.4s0-.4.2-.5l.5-.2.4.2c.2.1.2.3.2.5s0,.3-.2.4Zm-.6,7V62h1v5.8Z"/><path class="cls-23" d="M308.7,68l-1.1-.2-.8-.6a2.1,2.1,0,0,1-.6-1,4.3,4.3,0,0,1,0-2.6,2.8,2.8,0,0,1,.6-.9,2.4,2.4,0,0,1,.9-.6,2,2,0,0,1,1.1-.2,1.6,1.6,0,0,1,1,.2l.7.4-.5.7-.6-.4h-1.3l-.6.5a1.6,1.6,0,0,0-.4.7,2.8,2.8,0,0,0-.1.9,2.2,2.2,0,0,0,.1.9c.1.3.2.6.4.7a1,1,0,0,0,.6.5l.7.2.7-.2.7-.4.4.6a2.4,2.4,0,0,1-.9.6Z"/><path class="cls-23" d="M311.9,67.8V59.3h1v3.5l.9-.7,1.1-.2a1.7,1.7,0,0,1,1.3.5,2.9,2.9,0,0,1,.4,1.7v3.7h-.9V64.3a1.7,1.7,0,0,0-.3-1.2.9.9,0,0,0-.8-.4l-.9.2-.7.7v4.2Z"/><path class="cls-23" d="M320.2,68l-.7-.2a1.3,1.3,0,0,1-.6-.4.8.8,0,0,1-.2-.6,1.9,1.9,0,0,1-.1-.8V62.8h-.9v-.7h.9V60.4h.9V62h1.5v.8h-1.5V66c0,.4,0,.7.2.9s.3.3.7.3h.6l.2.8h-1.1Z"/><path class="cls-23" d="M324.7,68l-1.1-.2-.9-.6a2.1,2.1,0,0,1-.6-1,2.7,2.7,0,0,1-.2-1.3,3,3,0,0,1,.2-1.3,1.8,1.8,0,0,1,.6-.9,1.6,1.6,0,0,1,.8-.6,1.6,1.6,0,0,1,1-.2,2.2,2.2,0,0,1,1.7.7,1.9,1.9,0,0,1,.4.9,3.6,3.6,0,0,1,.2,1.1v.6h-4a2.6,2.6,0,0,0,.6,1.4,1.8,1.8,0,0,0,1.4.6h.7l.7-.4.4.7-.9.4Zm-1.9-3.5h3.1a2.6,2.6,0,0,0-.3-1.4,1.4,1.4,0,0,0-1.1-.5l-.6.2a.9.9,0,0,0-.5.3,2.1,2.1,0,0,0-.4.6A1.9,1.9,0,0,0,322.8,64.5Z"/><path class="cls-23" d="M333.2,68l-.8-.2a1.6,1.6,0,0,1-.8-.6h-.1v.6h-.8V59.3h1v3.4a4.7,4.7,0,0,1,.9-.6,1.5,1.5,0,0,1,.9-.2,1.6,1.6,0,0,1,1,.2,1.1,1.1,0,0,1,.7.6,1.9,1.9,0,0,1,.5.9,4.9,4.9,0,0,1,.1,1.2,3.2,3.2,0,0,1-.2,1.4l-.5,1-.8.6Zm-.1-.8.6-.2a1.2,1.2,0,0,0,.5-.5,1.6,1.6,0,0,0,.4-.7,3.1,3.1,0,0,0,.1-1,1.9,1.9,0,0,0-.1-.8,1.4,1.4,0,0,0-.2-.7c-.2-.2-.3-.4-.5-.5h-.7a2.7,2.7,0,0,0-1.6.8v3a1.8,1.8,0,0,0,.8.5Z"/><path class="cls-23" d="M338.3,68a.8.8,0,0,1-.8-.4,2,2,0,0,1-.2-.9V59.3h1v7.8h.5v.8h-.6Z"/><path class="cls-23" d="M342.7,68l-1.1-.2-.9-.6-.6-1a5.1,5.1,0,0,1-.2-1.3,5.9,5.9,0,0,1,.2-1.3,7,7,0,0,1,.6-.9,2.1,2.1,0,0,1,.8-.6,2,2,0,0,1,1-.2,1.6,1.6,0,0,1,1,.2,1.8,1.8,0,0,1,.7.5,1.9,1.9,0,0,1,.5.9,3.7,3.7,0,0,1,.1,1.1v.6h-3.9a1.7,1.7,0,0,0,.6,1.4,1.6,1.6,0,0,0,1.3.6h.8l.7-.4.3.7-.8.4Zm-1.8-3.5H344a2,2,0,0,0-.4-1.4,1.3,1.3,0,0,0-1.1-.5l-.5.2-.6.3-.3.6A1.9,1.9,0,0,0,340.9,64.5Z"/><path class="cls-23" d="M346.8,60.8l-.5-.2a.5.5,0,0,1-.2-.4.8.8,0,0,1,.2-.5l.5-.2.5.2a.8.8,0,0,1,.2.5.5.5,0,0,1-.2.4Zm-.5,7V62h1v5.8Z"/><path class="cls-23" d="M351.8,68l-.8-.2a1.6,1.6,0,0,1-.8-.6h-.1v.6h-.8V59.3h1v3.4a4.7,4.7,0,0,1,.9-.6,1.5,1.5,0,0,1,.9-.2,1.6,1.6,0,0,1,1,.2,1.3,1.3,0,0,1,.7.6,1.9,1.9,0,0,1,.5.9,4.9,4.9,0,0,1,.1,1.2,3.2,3.2,0,0,1-.2,1.4l-.5,1-.8.6Zm-.1-.8.6-.2.5-.5a1.6,1.6,0,0,0,.4-.7,3.1,3.1,0,0,0,.1-1,1.9,1.9,0,0,0-.1-.8,1.4,1.4,0,0,0-.2-.7l-.5-.5h-.7a2.7,2.7,0,0,0-1.6.8v3a1.8,1.8,0,0,0,.8.5Z"/><path class="cls-23" d="M357.5,68l-.8-.2a1,1,0,0,1-.5-.4l-.3-.6c0-.2-.1-.5-.1-.8V62.8H355v-.7h.9V60.4h.8V62h1.6v.8h-1.6V66a2,2,0,0,0,.2.9.9.9,0,0,0,.7.3h.7l.2.8h-1.1Z"/><path class="cls-23" d="M362.6,60.8l-.5-.2a.5.5,0,0,1-.2-.4.8.8,0,0,1,.2-.5l.5-.2.5.2a.8.8,0,0,1,.2.5.5.5,0,0,1-.2.4Zm-.5,7V62h1v5.8Z"/><path class="cls-23" d="M365.1,67.8V62h.8v.8h0l.8-.7,1-.2a1.8,1.8,0,0,1,1.1.3,1.6,1.6,0,0,1,.5.8,2.5,2.5,0,0,1,1-.8,1.7,1.7,0,0,1,1-.3,1.7,1.7,0,0,1,1.3.5,2.9,2.9,0,0,1,.4,1.7v3.7h-1V64.3c0-.6,0-1-.2-1.2a.9.9,0,0,0-.8-.4,2,2,0,0,0-1.5.9v4.2h-1V64.3a2.9,2.9,0,0,0-.2-1.2,1,1,0,0,0-.9-.4,2.1,2.1,0,0,0-1.4.9v4.2Z"/><path class="cls-23" d="M375,67.8V62h.8v.8h.1l.8-.7,1-.2a1.5,1.5,0,0,1,1,.3,1.2,1.2,0,0,1,.6.8,3.2,3.2,0,0,1,.9-.8,1.7,1.7,0,0,1,1-.3,1.7,1.7,0,0,1,1.3.5,2.9,2.9,0,0,1,.5,1.7v3.7h-1V64.3a1.7,1.7,0,0,0-.3-1.2c-.1-.3-.4-.4-.8-.4a2.1,2.1,0,0,0-1.4.9v4.2h-1V64.3a1.7,1.7,0,0,0-.3-1.2.8.8,0,0,0-.8-.4,2,2,0,0,0-1.5.9v4.2Z"/><path class="cls-23" d="M387.3,68l-1.1-.2-.8-.6a2.1,2.1,0,0,1-.6-1,2.8,2.8,0,0,1-.3-1.3,3.1,3.1,0,0,1,.3-1.3,1.8,1.8,0,0,1,.6-.9,1.6,1.6,0,0,1,.8-.6,1.6,1.6,0,0,1,1-.2,1.3,1.3,0,0,1,.9.2l.8.5a1.9,1.9,0,0,1,.4.9,3.6,3.6,0,0,1,.2,1.1v.6h-4a2,2,0,0,0,.6,1.4,1.7,1.7,0,0,0,1.4.6h.7l.7-.4.4.7-.9.4Zm-1.8-3.5h3.1a2,2,0,0,0-.4-1.4,1.2,1.2,0,0,0-1-.5l-.6.2a.9.9,0,0,0-.5.3,2.1,2.1,0,0,0-.4.6A1.9,1.9,0,0,0,385.5,64.5Z"/><path class="cls-23" d="M390.9,67.8V62h.8v1.1h.1a2.2,2.2,0,0,1,.7-.9,1.6,1.6,0,0,1,.9-.3h.6v.8h-.6a1.3,1.3,0,0,0-.8.3,2.3,2.3,0,0,0-.7,1.1v3.7Z"/><path class="cls-23" d="M399.5,70.5h-1a1.1,1.1,0,0,1-.8-.3l-.5-.5a1.4,1.4,0,0,1-.2-.6,1.3,1.3,0,0,1,.3-.8,1.7,1.7,0,0,1,.6-.6h0l-.4-.4c-.1-.1-.1-.3-.1-.6a1.4,1.4,0,0,1,.2-.6c.1-.2.3-.3.4-.4h0l-.5-.6a1.6,1.6,0,0,1-.2-1,1.9,1.9,0,0,1,.1-.8l.5-.7.7-.4h3.7v.8h-1.2a1,1,0,0,1,.4.5c0,.2.1.4.1.7a1.9,1.9,0,0,1-.2.8.9.9,0,0,1-.4.6l-.7.4-.8.2h-.9l-.3.3c-.1.1-.1.2-.1.4a.5.5,0,0,0,.2.4c.2.2.4.2.8.2h1.2a2.8,2.8,0,0,1,1.5.3,1.4,1.4,0,0,1,.5,1.1,2.4,2.4,0,0,1-.2.8,1.7,1.7,0,0,1-.6.6,1.9,1.9,0,0,1-.9.5Zm.1-.7h.8l.5-.2c.2-.1.3-.3.4-.4l.2-.4a.6.6,0,0,0-.3-.6l-.9-.2h-1.8l-.4.5-.2.5a1,1,0,0,0,.5.8Zm-.1-4.5h.4a.5.5,0,0,0,.4-.2l.3-.5a1.1,1.1,0,0,0,.1-.6,1.3,1.3,0,0,0-.4-1,1.1,1.1,0,0,0-.8-.3,1.2,1.2,0,0,0-.9.3,1.3,1.3,0,0,0-.4,1c0,.3.1.4.1.6l.3.5a.5.5,0,0,0,.4.2Z"/><path class="cls-23" d="M404.6,68c-.4,0-.7-.1-.8-.4a1.2,1.2,0,0,1-.3-.9V59.3h1v7.4c0,.2.1.3.1.4h.3a.1.1,0,0,0,.1-.1v.8h-.5Z"/><path class="cls-23" d="M409,68l-1.1-.2-.9-.6a2.1,2.1,0,0,1-.6-1,2.7,2.7,0,0,1-.2-1.3,3,3,0,0,1,.2-1.3,1.8,1.8,0,0,1,.6-.9,1.6,1.6,0,0,1,.8-.6,2.6,2.6,0,0,1,2,0,1.8,1.8,0,0,1,.7.5,1.9,1.9,0,0,1,.5.9,3.7,3.7,0,0,1,.1,1.1v.6h-4a2.6,2.6,0,0,0,.6,1.4,1.8,1.8,0,0,0,1.4.6h.8l.6-.4.4.7-.9.4Zm-1.9-3.5h3.1a2.6,2.6,0,0,0-.3-1.4,1.4,1.4,0,0,0-1.1-.5l-.6.2c-.2,0-.3.2-.5.3l-.4.6C407.2,63.9,407.2,64.2,407.1,64.5Z"/><path class="cls-23" d="M413.1,60.8l-.5-.2c-.2-.1-.2-.2-.2-.4s0-.4.2-.5l.5-.2.4.2c.2.1.2.3.2.5s0,.3-.2.4Zm-.5,7V62h.9v5.8Z"/><path class="cls-23" d="M417.8,68l-1.1-.2-.8-.6a2.1,2.1,0,0,1-.6-1,4.3,4.3,0,0,1,0-2.6,7,7,0,0,1,.6-.9,2.4,2.4,0,0,1,.9-.6,2,2,0,0,1,1.1-.2,1.6,1.6,0,0,1,1,.2l.7.4-.5.7-.6-.4h-1.3l-.6.5a1.6,1.6,0,0,0-.4.7,2.8,2.8,0,0,0-.1.9,2.2,2.2,0,0,0,.1.9c.1.3.2.6.4.7a1,1,0,0,0,.6.5l.7.2.7-.2.7-.4.4.6a2.4,2.4,0,0,1-.9.6Z"/><path class="cls-23" d="M421,67.8V59.3h1v3.5l.9-.7,1.1-.2a1.7,1.7,0,0,1,1.3.5,2.9,2.9,0,0,1,.4,1.7v3.7h-.9V64.3a1.7,1.7,0,0,0-.3-1.2.9.9,0,0,0-.8-.4,1.5,1.5,0,0,0-.8.2l-.8.7v4.2Z"/><path class="cls-23" d="M427.3,69.9l-.2-.6.8-.6a1.4,1.4,0,0,0,.3-.9h-.7a.8.8,0,0,1-.2-.5.5.5,0,0,1,.3-.5c.1-.2.3-.2.5-.2a.9.9,0,0,1,.6.3,1.9,1.9,0,0,1,.2.8,2.1,2.1,0,0,1-.4,1.4A2.7,2.7,0,0,1,427.3,69.9Z"/><path class="cls-23" d="M434.4,67.8,431.9,60H433l1.2,4.2a9.3,9.3,0,0,1,.4,1.3l.4,1.3h0a6.5,6.5,0,0,0,.4-1.3c.1-.4.3-.8.4-1.3l1.3-4.2h1l-2.5,7.8Z"/><path class="cls-23" d="M441.2,68l-1.1-.2-.8-.6a2.1,2.1,0,0,1-.6-1,4.3,4.3,0,0,1,0-2.6,1.8,1.8,0,0,1,.6-.9,1.6,1.6,0,0,1,.8-.6,2.2,2.2,0,0,1,1.1-.2,1.8,1.8,0,0,1,1,.2,1.6,1.6,0,0,1,.8.6,1.8,1.8,0,0,1,.6.9,3,3,0,0,1,0,2.6,2.1,2.1,0,0,1-.6,1l-.8.6Zm0-.8.6-.2.6-.5a2.4,2.4,0,0,0,.3-.7,2.2,2.2,0,0,0,.1-.9,2.8,2.8,0,0,0-.1-.9l-.3-.7-.6-.5h-1.3l-.6.5-.3.7a2.8,2.8,0,0,0-.1.9,2.2,2.2,0,0,0,.1.9,2.4,2.4,0,0,0,.3.7l.6.5Z"/><path class="cls-23" d="M446.4,68a.9.9,0,0,1-.8-.4,2,2,0,0,1-.2-.9V59.3h1v7.4c0,.2,0,.3.1.4h.4v.8h-.6Z"/><path class="cls-23" d="M450.2,68a1.6,1.6,0,0,1-1.4-.6,2.7,2.7,0,0,1-.4-1.7V62h1v3.6a3.7,3.7,0,0,0,.2,1.2,1.2,1.2,0,0,0,.9.3,1.2,1.2,0,0,0,.8-.2,2.9,2.9,0,0,0,.7-.8V62h1v5.8h-.8v-.9h0l-.9.8A1.7,1.7,0,0,1,450.2,68Z"/><path class="cls-23" d="M455,67.8V62h.8v.8h0l.9-.7.9-.2a1.8,1.8,0,0,1,1.1.3,1.6,1.6,0,0,1,.5.8,2.5,2.5,0,0,1,1-.8,1.7,1.7,0,0,1,1-.3,1.7,1.7,0,0,1,1.3.5,2.9,2.9,0,0,1,.4,1.7v3.7h-1V64.3c0-.6,0-1-.2-1.2a.9.9,0,0,0-.8-.4,2,2,0,0,0-1.5.9v4.2h-1V64.3a2.9,2.9,0,0,0-.2-1.2,1,1,0,0,0-.9-.4,2.1,2.1,0,0,0-1.4.9v4.2Z"/><path class="cls-23" d="M467.3,68l-1.1-.2-.9-.6-.6-1a5.1,5.1,0,0,1-.2-1.3,5.9,5.9,0,0,1,.2-1.3l.6-.9a2.1,2.1,0,0,1,.8-.6,2,2,0,0,1,1-.2,1.6,1.6,0,0,1,1,.2,1.8,1.8,0,0,1,.7.5,1.9,1.9,0,0,1,.5.9,3.7,3.7,0,0,1,.1,1.1v.6h-3.9a1.7,1.7,0,0,0,.6,1.4,1.6,1.6,0,0,0,1.3.6h.8l.7-.4.3.7-.8.4Zm-1.8-3.5h3.1a2,2,0,0,0-.4-1.4,1.4,1.4,0,0,0-1.1-.5l-.6.2-.5.3-.3.6A1.9,1.9,0,0,0,465.5,64.5Z"/><path class="cls-23" d="M470.9,67.8V62h.8v.8h0l.9-.7,1.1-.2a1.7,1.7,0,0,1,1.3.5,2.9,2.9,0,0,1,.4,1.7v3.7h-.9V64.3a1.7,1.7,0,0,0-.3-1.2.9.9,0,0,0-.8-.4l-.8.2-.8.7v4.2Z"/><path class="cls-23" d="M481.2,68a1.7,1.7,0,0,1-1.2-.5c-.4-.2-.5-.6-.5-1.2a1.6,1.6,0,0,1,.8-1.4,7.2,7.2,0,0,1,2.8-.8,4.3,4.3,0,0,1-.1-.5c0-.2-.1-.3-.2-.5l-.3-.3h-.6a1.6,1.6,0,0,0-1,.2l-.8.4-.4-.7,1-.5a3,3,0,0,1,1.3-.2,2,2,0,0,1,1.6.6,3.2,3.2,0,0,1,.5,1.8v3.5h-.9v-.7h-.1a2.4,2.4,0,0,1-.9.6A1.7,1.7,0,0,1,481.2,68Zm-.3-7.2-.5-.2c-.1-.1-.1-.2-.1-.4s0-.3.1-.4l.5-.2.4.2c.1.1.1.2.1.4s0,.3-.1.4Zm.6,6.4.8-.2.8-.6V64.8l-1.3.2-.8.3-.4.4a1.4,1.4,0,0,0-.2.6.9.9,0,0,0,.3.7Zm1.7-6.4-.5-.2c-.1-.1-.1-.2-.1-.4s0-.3.1-.4l.5-.2.4.2a.5.5,0,0,1,0,.8Z"/><path class="cls-23" d="M485.9,67.8V62h.8v.8h0l.9-.7,1.1-.2a1.6,1.6,0,0,1,1.3.5,2.9,2.9,0,0,1,.5,1.7v3.7h-1V64.3a1.7,1.7,0,0,0-.3-1.2.8.8,0,0,0-.8-.4l-.8.2-.8.7v4.2Z"/><path class="cls-23" d="M494.4,68a2.1,2.1,0,0,1-1.7-.8,3.7,3.7,0,0,1-.7-2.3,4.3,4.3,0,0,1,.2-1.2l.6-1a1.6,1.6,0,0,1,.8-.6,1.6,1.6,0,0,1,1-.2h.8l.8.5V59.3h.9v8.5h-.8v-.6h0l-.8.5A1.7,1.7,0,0,1,494.4,68Zm.3-.8.7-.2.8-.7v-3l-.8-.5h-.7a.7.7,0,0,0-.6.2l-.6.4-.3.7a2.8,2.8,0,0,0-.1.9,2.9,2.9,0,0,0,.4,1.7A1.4,1.4,0,0,0,494.7,67.2Z"/><path class="cls-23" d="M501.5,68l-1.1-.2-.9-.6a2.1,2.1,0,0,1-.6-1,5.1,5.1,0,0,1-.2-1.3,5.9,5.9,0,0,1,.2-1.3l.6-.9a1.6,1.6,0,0,1,.8-.6,1.8,1.8,0,0,1,1-.2,1.6,1.6,0,0,1,1,.2,1.8,1.8,0,0,1,.7.5,1.9,1.9,0,0,1,.5.9,3.7,3.7,0,0,1,.1,1.1v.6h-3.9a2,2,0,0,0,.5,1.4,1.8,1.8,0,0,0,1.4.6h.8l.7-.4.3.7-.9.4Zm-1.9-3.5h3.2a2.6,2.6,0,0,0-.4-1.4,1.4,1.4,0,0,0-1.1-.5l-.6.2c-.2,0-.3.2-.5.3l-.4.6C499.7,63.9,499.7,64.2,499.6,64.5Z"/><path class="cls-23" d="M505.1,67.8V62h.8v1.1h0a2.2,2.2,0,0,1,.7-.9,1.7,1.7,0,0,1,1-.3h.6l-.2.8h-.6a1.1,1.1,0,0,0-.7.3,2.3,2.3,0,0,0-.7,1.1v3.7Z"/><path class="cls-23" d="M511.1,68l-.8-.2a1,1,0,0,1-.5-.4.6.6,0,0,1-.3-.6,1.9,1.9,0,0,1-.1-.8V62.8h-.9v-.7h.9l.2-1.6h.8V62H512v.8h-1.6V66a2,2,0,0,0,.2.9.8.8,0,0,0,.7.3h.7v.8h-1Z"/><path class="cls-23" d="M517.2,68l-1.2-.2-1-.6.5-.7.8.5.9.2a1.2,1.2,0,0,0,.9-.3.6.6,0,0,0,.3-.6c0-.2,0-.3-.1-.4l-.3-.3-.5-.2-.4-.2-.7-.2-.5-.4-.4-.4a1.4,1.4,0,0,1-.2-.7,1.4,1.4,0,0,1,.2-.6l.4-.6.6-.3h.8a1.6,1.6,0,0,1,1,.2,1.5,1.5,0,0,1,.8.4l-.4.6-.6-.3-.8-.2a1.1,1.1,0,0,0-.8.3.8.8,0,0,0-.2.6.4.4,0,0,0,.1.3l.3.3.4.2.5.2.6.2.6.4.4.4a1.7,1.7,0,0,1,.1.7,1.5,1.5,0,0,1-.1.7l-.4.6a1.5,1.5,0,0,1-.7.3Z"/><path class="cls-23" d="M521.2,60.8l-.5-.2a.5.5,0,0,1-.2-.4.8.8,0,0,1,.2-.5l.5-.2.5.2a.8.8,0,0,1,.2.5.5.5,0,0,1-.2.4Zm-.5,7V62h1v5.8Z"/><path class="cls-23" d="M526,68l-1.1-.2-.9-.6-.6-1a5.1,5.1,0,0,1-.2-1.3,2.8,2.8,0,0,1,.3-1.3,1.8,1.8,0,0,1,.6-.9,1.5,1.5,0,0,1,.9-.6,1.8,1.8,0,0,1,1-.2,1.5,1.5,0,0,1,1,.2l.7.4-.5.7a1,1,0,0,0-.5-.4h-1.4l-.5.5a1.6,1.6,0,0,0-.4.7,2.8,2.8,0,0,0-.1.9,2.2,2.2,0,0,0,.1.9c.1.3.2.6.4.7l.5.5.8.2.7-.2.6-.4.5.6a2.4,2.4,0,0,1-.9.6Z"/><path class="cls-23" d="M529.1,67.8V59.3h1v3.5l.9-.7,1-.2a2,2,0,0,1,1.4.5,2.9,2.9,0,0,1,.4,1.7v3.7h-1V64.3a2.9,2.9,0,0,0-.2-1.2,1,1,0,0,0-.9-.4l-.8.2-.8.7v4.2Z"/><path class="cls-23" d="M536.2,68l-.5-.2c-.2-.2-.2-.3-.2-.6s0-.4.2-.5.3-.2.5-.2a.6.6,0,0,1,.5.2.8.8,0,0,1,.2.5,1.1,1.1,0,0,1-.2.6Z"/></g></svg>